<svg xmlns="http://www.w3.org/2000/svg" version="1.1" xmlns:xlink="http://www.w3.org/1999/xlink" xmlns:svgjs="http://svgjs.dev/svgjs" width="611.1114999999995" height="555.0939" fill="#eeeeee" stroke="#cccccc" xmlns:sodipodi="http://sodipodi.sourceforge.net/DTD/sodipodi-0.dtd"><path class="circo" id="id-001-01" d="M239.65299999999957 199.36064999999985L233.4159999999997 194.42814999999996L234.3814999999995 188.49199999999996L224.2610000000002 188.56400000000008L224.24350000000004 190.49149999999997L219.11100000000033 192.63044999999977L218.74199999999973 193.91129999999976L216.69250000000034 196.03579999999965L215.30449999999973 198.52229999999963L212.23899999999958 198.4552500000001L210.78949999999963 194.89424999999983L205.86000000000013 193.28219999999988L203.84850000000029 190.9405499999997L201.77900000000022 193.32564999999988L202.48199999999997 200.96374999999966L197.42799999999988 203.08979999999963L194.18249999999944 201.26824999999997L187.12350000000015 193.71645L183.52599999999939 196.01245000000006L180.8529999999996 201.83494999999994L174.87750000000005 200.41119999999978L167.16000000000008 190.92529999999954L161.7330000000004 193.24664999999982L155.91300000000047 191.88519999999983L152.6769999999999 198.5415999999998L143.4585000000004 190.1281499999999L139.27900000000022 182.89819999999963L138.9779999999996 180.88694999999973L142.52449999999953 176.25344999999982L154.45050000000037 175.65564999999992L155.14149999999972 173.74779999999987L153.40000000000032 164.47384999999997L142.99549999999954 163.04730000000006L134.77599999999939 164.40994999999987L129.2795000000001 161.19469999999978L126.03449999999953 155.80044999999984L124.11050000000046 152.22350000000006L125.23249999999962 148.30854999999985L130.07799999999975 142.58384999999976L130.56900000000041 136.37464999999963L119.32999999999993 131.56949999999995L117.92699999999968 125.68134999999984L125.54849999999988 122.33994999999993L129.3674999999996 114.13399999999967L122.2135000000003 105.10464999999954L116.60949999999957 99.5813499999997L107.25099999999998 97.49739999999974L104.32099999999991 101.6946999999999L96.96249999999964 98.10524999999984L92.02999999999975 91.36979999999994L85.94699999999989 92.49019999999973L84.91899999999987 89.26934999999958L70.42400000000043 82.08055000000002L71.11899999999991 73.3945L66.99299999999994 70.76349999999991L67.19450000000052 61.84644999999989L68.40550000000007 55.6334499999997L68.51850000000013 48.83154999999988L68.98149999999987 46.354049999999916L69.64349999999968 44.625749999999584L78.1454999999994 34.26850000000002L78.17999999999984 23.19149999999979L78.17649999999958 22.413199999999733L78.50099999999998 18.178800000000024L83.47700000000032 11.377349999999637L84.5920000000001 8.395649999999932L86.28150000000005 3.2251500000000988L87.13449999999966 2.1282999999999674L92.12850000000003 2.4407999999999674L91.88949999999977 6.52279999999962L94.83249999999998 8.375899999999774L98.68150000000014 6.74759999999992L101.9565 2.14004999999986L106.09749999999963 1.526749999999879L117.21300000000042 4.92339999999956L119.00849999999991 4.079199999999901L120.55500000000052 10.637049999999704L137.7755000000002 20.618900000000053L144.87250000000017 19.670749999999657L154.9789999999996 12.453499999999735L162.51800000000003 15.152049999999804L171.47000000000048 10.021449999999845L172.46350000000007 6.093649999999684L174.45050000000037 5.613799999999856L184.27749999999946 7.985049999999774L184.98950000000036 0L189.80800000000045 3.8544500000000426L200.02700000000004 6.085599999999545L201.0235 7.949249999999779L199.65400000000045 9.32929999999999L203.53799999999978 15.78914999999995L202.34950000000026 19.448549999999614L205.0464999999997 22.310099999999693L205.91049999999996 30.445349999999962L210.00499999999988 30.449649999999906L214.91899999999987 36.969649999999774L219.91049999999973 35.98929999999996L223.42399999999998 40.61314999999979L230.82199999999943 42.643299999999726L246.49800000000027 43.7615999999997L251.2435000000005 54.751699999999914L246.11999999999966 58.04429999999968L245.33450000000016 62.02584999999999L247.25099999999998 62.72619999999961L241.5020000000004 63.03009999999972L241.9920000000002 65.02679999999998L245.89650000000006 66.27939999999967L256.499 72.77204999999981L262.45949999999993 72.96064999999999L270.53 79.56975L275.1099999999997 83.49330000000009L269.66699999999946 89.18990000000008L268.9859999999999 91.07289999999978L274.0504999999996 94.26099999999963L274.2089999999996 98.21055000000001L273.2314999999994 102.02539999999999L277.4414999999999 106.55644999999993L284.9339999999995 109.98989999999992L285.22699999999986 113.99180000000001L286.22799999999984 124.53494999999975L286.2334999999996 125.08939999999996L288.8625000000002 128.57325000000003L291.7070000000001 107.7902499999999L294.51299999999947 104.79864999999961L300.29800000000023 124.86784999999998L307.6634999999999 123.10119999999984L312.2130000000004 119.68934999999988L316.5160000000003 124.70910000000003L312.7869999999996 138.3319499999999L309.58650000000034 139.99944999999968L309.02199999999993 148.4143499999999L314.81750000000034 154.34034999999994L316.54049999999984 155.56314999999984L326.8394999999998 153.72860000000003L328.1205 152.49525000000006L331.8439999999998 156.09249999999975L332.0539999999994 160.09254999999996L328.2349999999997 167.73979999999995L324.50699999999983 169.74749999999972L313.8710000000003 188.0424499999998L311.93899999999985 188.96124999999984L310.2940000000001 187.59284999999977L307.5350000000003 185.31529999999975L305.9325000000001 186.31100000000004L306.3115000000005 190.27924999999982L311.7539999999997 192.96664999999962L312.63599999999997 201.1153999999999L310.2419999999995 204.17640000000006L307.73450000000025 206.99039999999968L310.72149999999965 209.5002999999997L304.2565000000002 225.00009999999975L297.2995000000003 232.85345000000007L299.17299999999955 241.2433999999996L298.02149999999983 243.06949999999972L293.7300000000005 243.13019999999995L289.9400000000003 242.2625499999998L288.4979999999996 245.50565000000006L286.74949999999967 245.7833999999997L283.7620000000004 258.0739999999997L285.34599999999955 264.11315L284.4404999999995 266.02319999999963L278.6400000000003 268.23159999999973L277.3585000000003 272.2386L274.4489999999996 282.10654999999974L275.3920000000005 285.6826000000001L273.83749999999964 288.75315L270.5179999999996 291.06899999999996L264.4475 290.71079999999995L263.9535000000001 296.59779999999955L258.60000000000014 293.9670000000001L256.8115 294.93434999999977L252.53000000000043 292.6456999999999L247.04200000000014 302.66494999999964L246.40949999999975 311.15385000000003L244.5500000000004 317.07464999999956L241.61100000000033 320.11415L238.06299999999965 322.1709499999997L236.46949999999947 326.1752999999999L231.73149999999964 319.40814999999986L230.83200000000033 309.0132L223.71800000000007 305.07540000000006L226.40499999999975 297.38819999999976L225.58599999999956 295.46209999999974L224.43849999999998 291.5625499999999L222.65549999999962 288.5161499999998L218.6964999999998 292.60099999999966L209.92250000000013 297.0563499999997L203.92950000000042 296.3082499999996L200.34149999999954 287.371L194.39449999999965 285.8755500000001L189.52850000000012 279.0372500000001L190.2430000000004 268.4662499999996L192.24649999999997 268.6322999999999L193.7620000000004 264.74985000000004L197.07149999999956 262.27464999999995L214.59050000000047 256.69489999999996L216.46949999999947 249.03899999999965L214.61649999999963 239.01054999999985L216.05549999999994 235.0455999999997L214.14650000000051 229.1288499999996L219.1179999999997 226.88294999999982L220.3284999999994 223.45214999999996L224.4214999999997 222.48029999999972L232.3720000000003 225.16329999999982L237.9570000000001 223.30799999999954L245.2125000000001 224.2718500000001L247.20199999999977 219.5326L245.3004999999996 216.33674999999982L246.53099999999995 214.93509999999958L243.80999999999972 212.62749999999983L242.3815000000002 207.34395000000006L239.65299999999957 199.36064999999985z">
      <title id="t1">Première circonscription de l'Ain</title>
      <desc id="d1">Cantons de : Bourg-en-Bresse Est, Bourg-en-Bresse Nord-Centre, Ceyzériat, Coligny, Montrevel-en-Bresse, Pont-d'Ain, Pont-de-Vaux, Saint-Trivier-de-Courtes, Treffort-Cuisiat, Viriat</desc>
    </path><path class="circo" id="id-001-02" d="M246.20599999999968 353.15819999999974L245.85900000000038 347.91675L242.54850000000033 350.0225999999998L238.51149999999961 349.92114999999956L226.23950000000036 361.4309499999996L221.15300000000047 359.5067L222.40049999999997 355.7660499999997L220.13649999999984 346.20814999999993L218.34600000000023 342.9521L214.65400000000045 342.0808499999998L210.90400000000045 346.00089999999966L209.57750000000033 349.8398499999996L203.69400000000041 351.78844999999967L199.51099999999997 347.29934999999955L193.4624999999994 347.2846999999996L190.7725000000005 341.70849999999973L184.84550000000013 340.63609999999983L181.3530000000003 333.2027999999997L177.69649999999956 332.3643499999997L173.81099999999947 336.3570999999996L167.85300000000007 336.98384999999973L145.32500000000027 338.6685L143.21249999999964 343.48154999999963L144.1300000000001 347.0193499999999L140.2819999999997 345.9654499999999L138.8295000000005 347.36474999999984L131.99499999999944 361.8916999999999L130.72850000000017 360.3670999999997L119.42649999999958 358.1885999999997L115.03450000000043 362.4141499999996L102.75700000000029 355.80089999999984L98.27449999999999 349.5781999999997L96.53149999999982 348.3672999999999L90.22849999999949 349.1362499999997L85.09450000000015 352.60504999999966L80.81549999999993 350.06659999999954L83.68550000000027 344.64679999999987L82.51949999999965 338.67095000000006L83.79050000000007 330.4335499999996L80.04149999999981 328.98649999999975L70.1260000000002 330.5093999999997L63.903999999999996 326.8395499999997L59.027999999999565 330.53020000000004L45.106499999999414 334.6314000000001L45.08799999999951 324.3010499999997L43.09949999999958 316.2315000000001L39.018499999999676 315.4917499999999L33.17199999999957 313.6266999999998L30.22799999999961 313.8402500000001L26.10050000000001 313.4314999999998L13.409000000000333 314.46744999999964L7.822999999999638 315.92494999999985L7.611500000000433 316.52089999999987L8.069000000000415 320.4439500000001L10.212500000000091 334.24305000000004L8.324999999999818 339.9396999999999L7.599500000000035 341.21264999999994L0 348.3569L0.3350000000000364 354.1067499999997L5.8960000000001855 356.4859999999999L12.979500000000144 357.9703999999998L18.319000000000187 355.46474999999987L20.150499999999738 356.2329999999997L24.826000000000477 364.96384999999975L32.80150000000049 366.6427999999996L34.04049999999984 373.39499999999987L31.245499999999993 380.53245000000004L31.703999999999724 381.59324999999967L50.378500000000486 371.49159999999995L52.07149999999956 375.0637499999999L59.75599999999986 377.3199999999997L60.14149999999972 383.29759999999965L63.80149999999958 381.08025L65.13100000000009 391.5672999999998L75.83700000000022 395.1574999999997L72.24649999999997 405.23619999999994L76.74849999999992 409.1599500000001L80.97949999999969 420.4020499999996L79.74500000000035 434.5007999999996L82.11950000000002 437.9309999999998L89.79799999999955 434.87334999999973L93.89949999999999 435.02459999999985L99.07199999999989 433.7361999999996L101.91500000000019 435.86659999999995L106.15000000000009 436.8079499999999L111.49549999999977 435.6135499999999L115.0184999999999 434.19839999999965L121.59999999999968 436.94759999999974L126.83499999999981 434.5282499999996L130.57649999999967 435.2788499999997L135.67350000000033 432.9337499999997L139.2235000000005 434.3172999999996L153.84400000000028 433.1538999999998L157.46049999999968 432.21239999999966L160.85749999999962 441.3925499999999L162.7959999999996 440.72565L162.26850000000013 434.64229999999986L166.03899999999953 433.28314999999975L175.79349999999977 437.5840999999997L181.59549999999967 438.4071499999999L185.88300000000004 442.9512999999997L189.76800000000026 444.39840000000004L194.11899999999946 451.93715L195.68949999999973 457.4647999999996L199.59249999999997 457.7877000000001L209.8505 459.36035000000004L216.5949999999998 454.1614999999996L223.15050000000042 449.93454999999983L227.93949999999995 446.84934999999996L238.02599999999984 431.7196999999999L243.06799999999953 411.0130499999997L248.01000000000045 404.8309999999998L254.97100000000046 400.8518499999997L257.11649999999963 395.20204999999976L259.3984999999998 391.2498499999998L265.3544999999997 389.86580000000004L275.16899999999964 397.8769L286.3710000000003 405.67864999999983L291.4454999999998 411.0673499999996L292.1214999999995 415.29304999999965L298.8154999999995 420.6710499999997L299.6555000000001 422.2136999999998L305.9349999999995 422.65649999999994L309.91949999999974 417.8125499999999L317.9015000000004 416.9255499999997L313.91399999999976 404.97014999999976L315.53999999999974 401.15579999999966L314.6399999999994 399.24170000000004L317.6350000000002 399.0055000000001L313.5794999999996 394.5776000000001L308.40149999999994 391.5062499999999L306.82800000000043 392.7553499999999L304.4754999999998 389.5739499999996L290.5364999999995 381.7392000000001L284.44200000000023 377.1013499999998L280.5899999999997 375.8889499999998L277.21149999999966 368.40719999999976L272.2034999999994 362.52594999999985L270.3290000000004 357.13499999999954L268.39200000000005 356.75734999999975L259.94299999999953 351.86305000000004L258.15849999999955 350.76345000000003L254.5614999999998 352.8978000000001L246.20599999999968 353.15819999999974z">
      <title id="t2">Deuxième circonscription de l'Ain</title>
      <desc id="d2">Cantons de : Lagnieu, Méximieux, Miribel, Montluel, Reyrieux, Trévoux</desc>
    </path><path class="circo" id="id-001-03" d="M470.7555000000002 255.42239999999993L467.11850000000027 253.51294999999993L463.32649999999944 255.18824999999993L463.73500000000035 263.1773999999996L459.3685000000005 270.2044999999998L457.94700000000034 280.9672999999998L460.3015000000005 284.9862999999999L457.4890000000005 291.3965999999999L458.48449999999957 298.0579L459.74249999999984 303.65719999999953L456.84099999999944 308.5945499999997L459.0014999999994 313.2369L458.8459999999998 322.26759999999956L459.73799999999983 326.3893999999999L468.97699999999986 335.3340499999996L468.4489999999994 341.64064999999994L469.3050000000005 347.33419999999967L467.92400000000043 352.94119999999964L465.2279999999996 355.5869999999999L467.7869999999996 355.85469999999987L463.9359999999999 360.86514999999963L467.01099999999997 370.80805L465.7005000000004 377.09585000000004L460.9559999999999 393.2723999999996L457.71349999999984 403.381L454.9865 412.4389500000001L452.7514999999994 422.19844999999964L448.9620000000002 426.2080499999996L447.9665 442.06129999999973L446.60300000000007 452.04684999999984L447.30999999999995 457.15100000000007L445.7674999999995 463.37649999999996L447.5419999999997 473.75779999999963L446.1964999999998 475.14819999999986L441.6285000000005 476.43010000000004L444.4704999999999 484.28264999999953L438.922 490.03934999999956L436.21099999999956 495.66974999999957L432.8139999999996 497.9526499999997L425.326 495.0981999999999L423.80449999999996 495.63744999999983L412.26850000000013 495.22299999999973L413.5979999999995 502.4030499999998L415.924 510.44849999999997L405.91099999999983 521.3457499999998L405.2845000000002 525.4890499999999L406.8475000000001 529.4761499999998L406.8719999999996 535.3602000000001L401.9569999999999 538.9497999999998L391.9614999999999 539.7886499999998L390.05300000000034 545.4253999999997L385.83849999999984 548.0871999999999L384.97150000000033 551.5071999999998L383.2045000000005 555.0939L379.606 554.0160499999996L375.85050000000024 546.6365999999999L371.3995 540.0932L370.3359999999998 530.0999999999999L360.5219999999997 522.7859000000001L368.09549999999945 519.6488999999997L372.27300000000014 523.5022999999995L377.8710000000001 521.0197999999997L376.9735000000003 516.9288999999998L371.76450000000045 496.44025L368.0280000000005 491.04679999999973L366.22100000000046 484.8001499999998L361.28849999999943 477.61030000000005L361.5809999999999 476.52814999999975L357.1130000000005 468.7761999999998L362.83699999999953 463.1681499999996L365.53800000000024 464.7332L366.3829999999996 440.8993499999997L371.56349999999975 444.5251999999999L375.7884999999999 444.72575000000006L385.83200000000033 452.3149999999998L389.31749999999965 457.5872499999997L392.38650000000007 449.7675499999997L387.61150000000043 435.72270000000003L392.79449999999997 435.9464499999996L397.33150000000023 438.79674999999963L396.47749999999974 431.1318499999999L405.3309999999999 435.22335L412.7125000000001 433.29534999999964L414.50900000000047 439.21310000000005L412.89350000000013 442.75559999999984L417.43100000000027 445.9703999999999L426.4504999999997 443.01469999999995L425.6129999999996 440.31655L435.788 434.57884999999976L436.0474999999997 430.4232999999999L440.34099999999967 425.57924999999955L438.8575000000003 425.0766999999996L439.2444999999998 419.3248L441.5084999999999 400.16705L436.3244999999995 390.6783999999999L436.7259999999999 389.06964999999957L437.45300000000043 386.13519999999994L440.6110000000001 364.65589999999963L440.31849999999963 357.4876499999999L439.4380000000001 354.39525000000003L437.595 344.12469999999985L432.5274999999999 340.9558499999997L432.2645 338.86415L431.721 328.56875L430.95699999999965 322.2529499999996L422.3784999999998 305.21064999999965L420.86850000000027 302.6098999999999L420.8974999999998 301.92184999999995L423.1970000000001 276.6378499999996L420.83799999999997 270.6768999999997L418.32400000000007 261.35294999999985L420.7330000000002 253.23530000000005L422.9169999999999 241.43349999999998L429.95949999999993 231.62114999999972L430.9360000000004 219.65409999999963L427.9264999999998 216.6355999999996L417.9034999999999 214.00409999999965L417.29600000000005 211.46749999999997L412.35599999999977 208.74224999999967L416.481 193.07410000000004L424.6214999999995 196.11130000000003L430.67800000000034 197.03544999999963L438.75099999999975 195.01089999999976L440.34599999999955 191.3429500000001L437.52650000000017 183.92769999999985L442.50599999999963 172.7935500000001L445.91249999999945 170.39459999999963L453.64349999999945 173.71399999999994L463.64649999999983 170.37244999999984L465.4679999999996 169.45189999999968L467.0034999999996 163.70374999999967L465.67699999999945 157.71849999999972L476.04600000000005 157.72715000000005L482.00399999999945 152.07715000000007L483.9205000000004 155.70884999999976L488.8340000000005 151.4844499999998L494.73299999999995 142.40854999999954L500.9259999999995 144.04999999999973L503.78349999999955 138.59704999999963L505.0635 128.45574999999997L508.02749999999946 125.70535000000007L514.6675000000005 128.47544999999968L528.9514999999994 103.22180000000003L532.767 95.60855000000004L545.2059999999994 87.3911499999997L552.7014999999994 79.93389999999977L561.9614999999999 65.56924999999978L565.2629999999999 61.80884999999989L566.7219999999998 62.599199999999655L580.9675000000004 67.49554999999987L584.7825 72.70060000000001L590.6894999999997 75.09419999999977L602.047 85.03105000000005L607.9380000000003 87.04925000000003L610.3570000000002 90.62694999999962L611.1114999999995 92.65034999999955L610.3824999999995 94.69149999999956L606.4790000000005 102.25444999999979L602.9335000000003 107.6664999999997L599.1395 109.6229999999997L598.0394999999999 113.79480000000001L592.3799999999994 123.55349999999987L590.136 129.4309499999997L590.2935000000002 137.0765L583.0245000000002 143.49589999999978L588.8355000000001 155.29574999999966L590.5650000000003 156.54434999999978L591.5964999999994 162.86720000000003L588.7694999999997 168.34389999999985L583.4910000000002 171.88964999999996L576.9799999999998 166.7380499999996L569.4724999999994 169.99390000000005L565.8489999999995 168.0636499999997L559.4704999999999 176.01689999999962L557.5384999999994 175.30539999999974L554.1864999999996 172.76219999999967L546.6084999999998 176.09184999999968L540.7640000000004 181.7697499999997L536.8904999999995 183.08369999999968L536.4229999999998 185.0917499999997L528.6424999999997 186.57879999999977L527.3564999999996 194.2396500000001L524.3025 196.8462999999997L524.0795000000003 197.49654999999962L536.6425000000004 204.95419999999967L535.3809999999999 211.0568999999998L531.9394999999997 212.69619999999975L528.1904999999995 222.5410499999998L524.5150000000001 229.60054999999954L525.2790000000005 233.47665000000006L520.8439999999996 237.31114999999988L516.2384999999995 239.82924999999966L512.7234999999996 239.42144999999982L508.8855000000001 239.82004999999958L505.6880000000001 237.9550999999998L499.9059999999997 243.16759999999988L495.6690000000003 244.8673500000001L494.05250000000024 245.38849999999968L491.16300000000024 251.08844999999974L494.14499999999975 258.6764999999997L492.7634999999998 264.8607499999997L482.6774999999998 265.84979999999973L478.31050000000005 265.1554999999996L470.7555000000002 255.42239999999993z">
      <title id="t3">Troisième circonscription de l'Ain</title>
      <desc id="d3">Cantons de : Bellegarde-sur-Valserine, Belley, Collonges, Ferney-Voltaire, Gex, Seyssel</desc>
    </path><path class="circo" id="id-001-04" d="M51.200999999999794 101.9613499999997L51.88099999999963 107.83950000000004L51.358999999999924 118.1286L47.02099999999973 126.91199999999981L43.49749999999972 134.52184999999986L40.76149999999984 148.73409999999978L36.51100000000042 155.45309999999972L34.10099999999943 162.12469999999996L32.988000000000284 172.20120000000009L29.818500000000085 177.41954999999962L28.588499999999613 180.5619999999999L27.595000000000027 183.26739999999972L26.416000000000395 191.02419999999995L26.24249999999961 195.04165L21.47699999999986 201.75205000000005L21.094000000000506 209.95454999999993L21.988999999999805 213.04849999999988L25.993499999999585 217.9758499999997L30.58750000000032 222.37539999999967L27.779500000000326 232.9755L24.184999999999945 238.04775000000006L17.63249999999971 246.17944999999963L15.526499999999714 252.9845499999999L12.578499999999622 256.59009999999967L7.412500000000364 262.28264999999965L8.089499999999816 267.76160000000004L10.914000000000215 269.87244999999973L13.248999999999569 276.93799999999953L12.113500000000386 280.7578000000001L3.8400000000001455 289.15729999999996L6.40700000000038 296.65414999999996L6.740499999999656 301.2050499999998L5.819500000000062 307.5963999999999L7.822999999999638 315.92494999999985L13.409000000000333 314.46744999999964L26.10050000000001 313.4314999999998L30.22799999999961 313.8402500000001L33.17199999999957 313.6266999999998L39.018499999999676 315.4917499999999L43.09949999999958 316.2315000000001L45.08799999999951 324.3010499999997L45.106499999999414 334.6314000000001L59.027999999999565 330.53020000000004L63.903999999999996 326.8395499999997L70.1260000000002 330.5093999999997L80.04149999999981 328.98649999999975L83.79050000000007 330.4335499999996L82.51949999999965 338.67095000000006L83.68550000000027 344.64679999999987L80.81549999999993 350.06659999999954L85.09450000000015 352.60504999999966L90.22849999999949 349.1362499999997L96.53149999999982 348.3672999999999L98.27449999999999 349.5781999999997L102.75700000000029 355.80089999999984L115.03450000000043 362.4141499999996L119.42649999999958 358.1885999999997L130.72850000000017 360.3670999999997L131.99499999999944 361.8916999999999L138.8295000000005 347.36474999999984L140.2819999999997 345.9654499999999L144.1300000000001 347.0193499999999L143.21249999999964 343.48154999999963L145.32500000000027 338.6685L167.85300000000007 336.98384999999973L173.81099999999947 336.3570999999996L177.69649999999956 332.3643499999997L181.3530000000003 333.2027999999997L184.84550000000013 340.63609999999983L190.7725000000005 341.70849999999973L193.4624999999994 347.2846999999996L199.51099999999997 347.29934999999955L203.69400000000041 351.78844999999967L209.57750000000033 349.8398499999996L210.90400000000045 346.00089999999966L214.65400000000045 342.0808499999998L218.34600000000023 342.9521L220.13649999999984 346.20814999999993L224.09649999999942 345.36879999999996L225.48199999999952 339.52634999999987L232.8755000000001 332.72699999999986L234.06100000000038 331.0365999999999L236.46949999999947 326.1752999999999L231.73149999999964 319.40814999999986L230.83200000000033 309.0132L223.71800000000007 305.07540000000006L226.40499999999975 297.38819999999976L225.58599999999956 295.46209999999974L224.43849999999998 291.5625499999999L222.65549999999962 288.5161499999998L218.6964999999998 292.60099999999966L209.92250000000013 297.0563499999997L203.92950000000042 296.3082499999996L200.34149999999954 287.371L194.39449999999965 285.8755500000001L189.52850000000012 279.0372500000001L190.2430000000004 268.4662499999996L192.24649999999997 268.6322999999999L193.7620000000004 264.74985000000004L197.07149999999956 262.27464999999995L214.59050000000047 256.69489999999996L216.46949999999947 249.03899999999965L214.61649999999963 239.01054999999985L216.05549999999994 235.0455999999997L214.14650000000051 229.1288499999996L219.1179999999997 226.88294999999982L220.3284999999994 223.45214999999996L224.4214999999997 222.48029999999972L232.3720000000003 225.16329999999982L237.9570000000001 223.30799999999954L245.2125000000001 224.2718500000001L247.20199999999977 219.5326L245.3004999999996 216.33674999999982L246.53099999999995 214.93509999999958L243.80999999999972 212.62749999999983L242.3815000000002 207.34395000000006L239.65299999999957 199.36064999999985L233.4159999999997 194.42814999999996L234.3814999999995 188.49199999999996L224.2610000000002 188.56400000000008L224.24350000000004 190.49149999999997L219.11100000000033 192.63044999999977L218.74199999999973 193.91129999999976L216.69250000000034 196.03579999999965L215.30449999999973 198.52229999999963L212.23899999999958 198.4552500000001L210.78949999999963 194.89424999999983L205.86000000000013 193.28219999999988L203.84850000000029 190.9405499999997L201.77900000000022 193.32564999999988L202.48199999999997 200.96374999999966L197.42799999999988 203.08979999999963L194.18249999999944 201.26824999999997L187.12350000000015 193.71645L183.52599999999939 196.01245000000006L180.8529999999996 201.83494999999994L174.87750000000005 200.41119999999978L167.16000000000008 190.92529999999954L161.7330000000004 193.24664999999982L155.91300000000047 191.88519999999983L152.6769999999999 198.5415999999998L143.4585000000004 190.1281499999999L139.27900000000022 182.89819999999963L138.9779999999996 180.88694999999973L142.52449999999953 176.25344999999982L154.45050000000037 175.65564999999992L155.14149999999972 173.74779999999987L153.40000000000032 164.47384999999997L142.99549999999954 163.04730000000006L134.77599999999939 164.40994999999987L129.2795000000001 161.19469999999978L126.03449999999953 155.80044999999984L124.11050000000046 152.22350000000006L125.23249999999962 148.30854999999985L130.07799999999975 142.58384999999976L130.56900000000041 136.37464999999963L119.32999999999993 131.56949999999995L117.92699999999968 125.68134999999984L125.54849999999988 122.33994999999993L129.3674999999996 114.13399999999967L122.2135000000003 105.10464999999954L116.60949999999957 99.5813499999997L107.25099999999998 97.49739999999974L104.32099999999991 101.6946999999999L96.96249999999964 98.10524999999984L92.02999999999975 91.36979999999994L85.94699999999989 92.49019999999973L84.91899999999987 89.26934999999958L70.42400000000043 82.08055000000002L71.11899999999991 73.3945L66.99299999999994 70.76349999999991L60.919999999999845 81.85259999999971L57.423 87.53529999999955L54.37950000000001 92.30664999999988L51.200999999999794 101.9613499999997z">
      <title id="t4">Quatrième circonscription de l'Ain</title>
      <desc id="d4">Cantons de : Bâgé-le-Châtel, Bourg-en-Bresse Sud, Chalamont, Châtillon-sur-Chalaronne, Péronnas, Pont-de-Veyle, Saint-Trivier-sur-Moignans, Thoissey, Villars-les-Dombes</desc>
    </path><path class="circo" id="id-001-05" d="M241.61100000000033 320.11415L238.06299999999965 322.1709499999997L236.46949999999947 326.1752999999999L234.06100000000038 331.0365999999999L232.8755000000001 332.72699999999986L225.48199999999952 339.52634999999987L224.09649999999942 345.36879999999996L220.13649999999984 346.20814999999993L222.40049999999997 355.7660499999997L221.15300000000047 359.5067L226.23950000000036 361.4309499999996L238.51149999999961 349.92114999999956L242.54850000000033 350.0225999999998L245.85900000000038 347.91675L246.20599999999968 353.15819999999974L254.5614999999998 352.8978000000001L258.15849999999955 350.76345000000003L259.94299999999953 351.86305000000004L268.39200000000005 356.75734999999975L270.3290000000004 357.13499999999954L272.2034999999994 362.52594999999985L277.21149999999966 368.40719999999976L280.5899999999997 375.8889499999998L284.44200000000023 377.1013499999998L290.5364999999995 381.7392000000001L304.4754999999998 389.5739499999996L306.82800000000043 392.7553499999999L308.40149999999994 391.5062499999999L313.5794999999996 394.5776000000001L317.6350000000002 399.0055000000001L314.6399999999994 399.24170000000004L315.53999999999974 401.15579999999966L313.91399999999976 404.97014999999976L317.9015000000004 416.9255499999997L309.91949999999974 417.8125499999999L305.9349999999995 422.65649999999994L299.6555000000001 422.2136999999998L299.86599999999953 424.28135L294.1695000000004 425.90734999999995L293.33349999999996 427.8046499999999L294.0790000000004 436.02389999999957L301.15049999999997 443.38284999999985L304.5195000000001 448.78629999999987L310.18249999999966 453.59170000000006L320.21100000000047 468.8364999999999L326.2265000000002 474.25659999999993L334.4534999999996 482.2928999999999L338.60400000000027 491.86555L346.36750000000006 493.0043999999998L349.38499999999976 495.3720999999996L350.99000000000046 501.01740000000007L356.82450000000017 503.2573500000001L358.9675 506.75974999999994L357.0505000000003 510.28179999999963L354.9630000000002 510.4545999999999L351.0585000000003 503.2945000000001L347.16949999999997 502.5599999999997L346.2609999999995 508.7358999999998L348.39650000000006 512.3185999999998L350.5060000000003 518.5523000000001L355.63099999999963 517.6563499999997L360.7510000000002 520.7880499999999L360.5219999999997 522.7859000000001L368.09549999999945 519.6488999999997L372.27300000000014 523.5022999999995L377.8710000000001 521.0197999999997L376.9735000000003 516.9288999999998L371.76450000000045 496.44025L368.0280000000005 491.04679999999973L366.22100000000046 484.8001499999998L361.28849999999943 477.61030000000005L361.5809999999999 476.52814999999975L357.1130000000005 468.7761999999998L362.83699999999953 463.1681499999996L365.53800000000024 464.7332L366.3829999999996 440.8993499999997L371.56349999999975 444.5251999999999L375.7884999999999 444.72575000000006L385.83200000000033 452.3149999999998L389.31749999999965 457.5872499999997L392.38650000000007 449.7675499999997L387.61150000000043 435.72270000000003L392.79449999999997 435.9464499999996L397.33150000000023 438.79674999999963L396.47749999999974 431.1318499999999L405.3309999999999 435.22335L412.7125000000001 433.29534999999964L414.50900000000047 439.21310000000005L412.89350000000013 442.75559999999984L417.43100000000027 445.9703999999999L426.4504999999997 443.01469999999995L425.6129999999996 440.31655L435.788 434.57884999999976L436.0474999999997 430.4232999999999L440.34099999999967 425.57924999999955L438.8575000000003 425.0766999999996L439.2444999999998 419.3248L441.5084999999999 400.16705L436.3244999999995 390.6783999999999L436.7259999999999 389.06964999999957L437.45300000000043 386.13519999999994L440.6110000000001 364.65589999999963L440.31849999999963 357.4876499999999L439.4380000000001 354.39525000000003L437.595 344.12469999999985L432.5274999999999 340.9558499999997L432.2645 338.86415L431.721 328.56875L430.95699999999965 322.2529499999996L422.3784999999998 305.21064999999965L420.86850000000027 302.6098999999999L420.8974999999998 301.92184999999995L423.1970000000001 276.6378499999996L420.83799999999997 270.6768999999997L418.32400000000007 261.35294999999985L420.7330000000002 253.23530000000005L422.9169999999999 241.43349999999998L429.95949999999993 231.62114999999972L430.9360000000004 219.65409999999963L427.9264999999998 216.6355999999996L417.9034999999999 214.00409999999965L417.29600000000005 211.46749999999997L412.35599999999977 208.74224999999967L416.481 193.07410000000004L424.6214999999995 196.11130000000003L430.67800000000034 197.03544999999963L438.75099999999975 195.01089999999976L440.34599999999955 191.3429500000001L437.52650000000017 183.92769999999985L442.50599999999963 172.7935500000001L445.91249999999945 170.39459999999963L453.64349999999945 173.71399999999994L463.64649999999983 170.37244999999984L465.4679999999996 169.45189999999968L467.0034999999996 163.70374999999967L465.67699999999945 157.71849999999972L462.2844999999995 157.00969999999984L440.0840000000005 153.65174999999965L426.3265000000001 156.45579999999995L422.7165000000002 158.34679999999992L418.79749999999945 146.24544999999955L420.0800000000004 137.68914999999993L418.1994999999995 129.2100499999998L405.4615000000001 127.44789999999966L404.9234999999999 124.40819999999974L398.61800000000017 119.46964999999977L388.7594999999999 118.9206999999999L390.67750000000046 113.1343499999997L389.1025000000002 107.82904999999971L385.43300000000045 111.74929999999961L382.93249999999944 115.28684999999996L374.83349999999973 117.83439999999985L371.9240000000002 125.78289999999981L371.4855 128.36835000000008L368.6164999999994 135.46794999999975L364.0944999999999 138.7827999999996L354.49899999999957 138.62409999999954L353.1830000000002 142.43194999999957L343.7149999999997 153.2994500000001L331.8439999999998 156.09249999999975L332.0539999999994 160.09254999999996L328.2349999999997 167.73979999999995L324.50699999999983 169.74749999999972L313.8710000000003 188.0424499999998L311.93899999999985 188.96124999999984L310.2940000000001 187.59284999999977L307.5350000000003 185.31529999999975L305.9325000000001 186.31100000000004L306.3115000000005 190.27924999999982L311.7539999999997 192.96664999999962L312.63599999999997 201.1153999999999L310.2419999999995 204.17640000000006L307.73450000000025 206.99039999999968L310.72149999999965 209.5002999999997L304.2565000000002 225.00009999999975L297.2995000000003 232.85345000000007L299.17299999999955 241.2433999999996L298.02149999999983 243.06949999999972L293.7300000000005 243.13019999999995L289.9400000000003 242.2625499999998L288.4979999999996 245.50565000000006L286.74949999999967 245.7833999999997L283.7620000000004 258.0739999999997L285.34599999999955 264.11315L284.4404999999995 266.02319999999963L278.6400000000003 268.23159999999973L277.3585000000003 272.2386L274.4489999999996 282.10654999999974L275.3920000000005 285.6826000000001L273.83749999999964 288.75315L270.5179999999996 291.06899999999996L264.4475 290.71079999999995L263.9535000000001 296.59779999999955L258.60000000000014 293.9670000000001L256.8115 294.93434999999977L252.53000000000043 292.6456999999999L247.04200000000014 302.66494999999964L246.40949999999975 311.15385000000003L244.5500000000004 317.07464999999956L241.61100000000033 320.11415z">
      <title id="t5">Cinquième circonscription de l'Ain</title>
      <desc id="d5">Cantons de : Ambérieu-en-Bugey, Brénod, Champagne-en-Valromey, Hauteville-Lompnes, Izernore, Lhuis, Nantua, Oyonnax Nord, Oyonnax Sud, Poncin, Saint-Rambert-en-Bugey, Virieu-le-Grand</desc>
    </path></svg>