<svg xmlns="http://www.w3.org/2000/svg" version="1.1" xmlns:xlink="http://www.w3.org/1999/xlink" xmlns:svgjs="http://svgjs.dev/svgjs" width="551.2688500000002" height="804.7143499999999" fill="#eeeeee" stroke="#cccccc" xmlns:sodipodi="http://sodipodi.sourceforge.net/DTD/sodipodi-0.dtd"><path class="circo" id="id-002-01" d="M182.64400000000023 377.63859999999994L186.0405000000003 373.86795000000006L185.79450000000008 362.11275L181.3670000000002 362.82629999999983L177.56400000000042 360.531L170.52900000000022 351.5706499999999L170.35450000000026 351.18754999999993L173.21300000000008 348.60449999999986L183.4469999999999 343.17385L189.30100000000039 338.3397499999998L194.12350000000004 334.5612L195.0535000000002 328.55334999999997L185.9975000000003 323.90649999999994L183.60700000000008 320.2186499999999L179.35600000000022 319.76174999999984L175.79600000000028 322.3189499999998L174.05200000000036 320.9797499999999L172.08300000000008 319.8863L169.11249999999995 323.35459999999983L166.83400000000006 323.2496999999998L163.65250000000003 320.03709999999984L163.37199999999996 315.5758L159.178 313.9793L158.32050000000038 309.72115L163.21799999999996 305.05709999999993L159.32999999999993 303.03049999999985L153.85350000000017 292.51419999999996L161.0065000000003 287.4795499999999L166.8504999999999 283.74875000000003L170.48100000000034 276.77564999999987L167.32250000000022 274.1662499999998L165.35450000000026 264.12710000000004L156.87900000000013 264.76339999999993L155.4015000000004 266.2973499999998L149.68549999999993 254.97349999999983L153.86149999999986 244.0097L154.82450000000028 243.30529999999982L176.9055000000003 241.77944999999994L175.60350000000028 238.09984999999983L195.41200000000003 231.69719999999984L196.85699999999997 230.18654999999995L199.68600000000038 233.11970000000002L204.5440000000002 234.44024999999982L210.34199999999998 228.77909999999986L216.053 226.2426499999998L217.93200000000013 227.32945L221.57250000000033 220.49194999999997L225.31800000000032 218.83674999999982L228.4590000000003 221.57430000000005L230.7495 223.7099999999998L236.9905 221.50524999999988L247.09550000000036 233.48844999999983L253.9685000000003 233.58900000000006L255.6170000000003 231.99434999999994L261.6040000000004 225.91195L270.9725000000003 221.80444999999992L271.3745 217.68329999999992L275.4520000000002 213.10509999999994L276.95600000000013 214.43434999999994L286.9380000000001 213.8397999999998L288.83550000000014 213.08670000000006L288.9395000000002 208.9919999999998L292.7080000000001 204.41190000000006L296.55200000000036 209.24329999999998L300.6555000000003 210.54309999999987L301.1205000000001 212.66834999999986L308.26750000000004 213.5629L307.1625 215.9707499999999L307.7109999999999 222.7704L318.3895000000001 234.32455000000004L315.5664999999999 247.19054999999997L315.16700000000014 251.08919999999983L310.62400000000025 254.92754999999988L313.0695000000003 258.6498499999999L319.246 260.91769999999997L325.4140000000001 267.35915000000006L313.47500000000025 270.7733999999999L312.76800000000037 274.8673499999998L313.0555000000004 278.9989L317.1039999999999 280.0792999999999L317.70399999999995 282.10144999999983L314.14800000000014 287.1652L316.327 288.15804999999983L315.573 296.9005999999999L315.0640000000004 301.27594999999985L321.39250000000004 302.8186499999998L328.90649999999994 300.0696499999998L329.9350000000004 293.6892499999999L334.23900000000003 293.67615L341.7214999999999 289.5675L343.20899999999995 287.1822499999999L349.2330000000004 280.98375000000004L361.84349999999995 289.55044999999984L365.07450000000006 288.12129999999996L363.0675000000002 281.99645000000004L364.87149999999986 269.00194999999997L369.4195000000002 266.78984999999983L368.5945000000004 265.1817L372.8174999999999 263.167L370.58400000000006 256.72799999999995L375.31499999999994 244.10300000000007L377.7430000000004 240.61035000000004L381.5410000000003 242.24535000000003L383.75400000000013 243.42095L393.43200000000024 245.7424499999999L398.70450000000005 249.6280999999999L395.4925000000003 257.2948499999998L397.3385000000002 258.48434999999995L408.07600000000036 257.31584999999995L410.26200000000017 261.1422999999999L416.635 259.7006999999999L418.2955000000004 261.11339999999984L423.0155000000002 256.7319499999999L418.2370000000003 248.71684999999985L427.8520000000003 233.6803999999998L430.07900000000006 237.44654999999995L434.48500000000024 237.84355000000005L439.2040000000003 233.04209999999983L441.32299999999987 226.5766499999998L437.09450000000004 225.07565L430.62099999999987 226.87974999999994L427.2750000000002 216.21539999999982L426.28300000000024 212.99984999999992L427.75149999999996 214.34754999999996L436.99700000000007 203.1131499999998L450.97950000000026 203.19079999999985L455.57650000000024 187.90580000000006L464.3828500000001 183.3970499999998L470.3688500000004 185.2516L471.42134999999996 186.78605000000005L463.08384999999987 193.3274L469.1458499999999 198.5710499999999L473.2573500000001 198.89285L478.2723500000003 202.50914999999992L480.19285000000025 201.76104999999978L480.84585000000004 191.5938L487.5288499999999 192.3434499999999L488.09585000000027 193.95984999999996L491.4943500000004 194.2738L501.17185000000006 191.7510999999999L511.6913500000004 192.68569999999983L516.1648500000001 187.25740000000002L525.07385 187.5094999999999L531.8068500000004 189.6231499999999L530.2723500000002 191.22060000000005L533.6433500000004 196.77785L537.9953499999999 195.61499999999995L545.4483500000003 200.53325L547.5053500000001 206.93295000000006L540.56085 212.66374999999982L539.3193500000001 223.15769999999986L538.3793500000002 225.65425000000005L529.7788500000001 228.65874999999988L523.9183500000001 233.3010999999999L520.9428500000001 242.77629999999988L521.3203500000003 244.32379999999995L512.6338500000003 247.59465000000006L506.7803500000002 249.72859999999997L503.9108500000003 252.34919999999988L504.92785000000026 258.1315999999998L496.5648500000003 258.08760000000007L494.71585000000005 269.3387999999999L495.6383500000004 276.06605L492.4073500000003 281.9833L491.7483500000003 287.4060499999999L483.3728500000001 290.0897999999998L472.9598500000003 285.64734999999985L464.0653500000002 286.31145000000004L462.77285000000006 284.42475L460.57635000000005 284.19504999999987L458.9543500000002 292.62444999999985L453.7465000000003 296.15864999999985L455.9775000000002 299.97259999999983L462.7918500000004 308.79785L468.33685 311.6064L469.9683500000003 313.08429999999987L468.1983500000001 317.1315999999999L469.27835000000016 325.95409999999987L475.20685000000014 328.4203499999998L467.9463500000003 339.05190000000005L464.0158500000001 340.9537499999999L464.64035000000024 345.2248L471.2863500000003 346.4915499999998L474.7303500000004 349.2286999999999L474.49585000000013 360.4314499999998L474.2438500000003 362.57035L468.3693500000004 360.90745L466.31485 368.8937999999999L459.8818499999999 369.1490999999999L459.90485000000035 377.66734999999983L460.22834999999986 385.17525000000006L460.18235000000004 387.3268999999999L460.47685 393.8861499999999L470.6953500000003 410.4150999999999L468.67885 409.57705000000004L462.63035 410.59484999999995L458.55034999999987 415.22914999999983L460.9648500000003 424.0370999999999L461.2343500000003 428.4923999999998L463.7758500000001 431.9966499999998L462.96785 436.42539999999997L459.66935000000035 441.94085L458.34585000000004 450.47574999999995L457.66560000000027 466.2858L447.98900000000003 467.3272499999999L446.0700000000003 461.3834L436.9024999999999 453.8737499999999L426.1349999999999 454.9025499999999L414.83450000000005 441.1499999999998L410.6265000000002 435.0647999999998L404.4565 443.15939999999983L398.2679999999999 444.8258999999999L383.0110000000002 452.1737999999999L381.4025000000004 460.77579999999983L377.7550000000002 463.22384999999997L382.1885000000003 470.35224999999997L380.8570000000003 474.4547L379.384 476.04584999999986L371.5084999999999 472.5777499999998L367.6769999999999 468.1852999999998L358.89200000000017 466.99185L354.6860000000004 468.2512L349.05200000000036 470.7697999999999L348.0290000000002 468.9533L339.649 474.30859999999996L334.828 473.9516999999998L332.5380000000001 474.3229499999998L329.37299999999993 465.6129999999999L325.8145000000002 460.77515000000005L321.88649999999996 461.67775000000006L313.52250000000026 455.5187999999998L311.4545000000004 455.79949999999997L307.9714999999999 454.64865000000003L307.7120000000002 450.7675499999999L300.2785 443.9953L298.35000000000036 443.6916499999998L297.2165000000001 446.96894999999984L295.3050000000002 447.38159999999993L290.96000000000004 446.27745000000004L286.77400000000034 441.3361499999999L282.17600000000004 440.92404999999985L282.9714999999999 436.60955L280.58400000000006 428.1702999999999L281.6489999999999 423.8744L271.1015000000003 423.8338999999999L268.2204999999999 420.5933999999999L266.3895000000002 410.7752499999998L262.1275000000003 409.56265L259.0195 409.94575L261.9069999999999 399.6005499999998L252.13600000000042 394.7285499999998L251.63900000000012 389.45155L248.8345000000004 387.22745000000003L247.0055000000002 381.2053L248.69700000000023 377.4474999999998L246.19200000000035 374.0662499999999L240.63400000000001 374.65194999999994L235.40300000000002 375.4235L234.40600000000018 375.40515L227.9355000000004 376.62825L215.54550000000006 392.2464499999998L209.17200000000037 393.5257999999999L203.83849999999995 390.2391L202.06549999999993 396.07249999999993L195.08849999999995 402.0885999999999L189.3074999999999 399.19579999999996L178.7715000000003 398.76745L177.57000000000005 398.80865L176.89450000000022 384.27899999999994L183.14400000000035 383.2512L182.64400000000023 377.63859999999994z">
      <title id="t6">Première circonscription de l'Aisne</title>
      <desc id="d6">Cantons de : Cantons de : Anizy-le-Château, Craonne, Crécy-sur-Serre, La Fère, Laon Nord, Laon Sud, Neufchâtel-sur-Aisne : Rozoy-sur-Serre, Sissonne</desc>
    </path><path class="circo" id="id-002-02" d="M121.30350000000021 25.4079999999999L117.00750000000028 27.0646499999998L115.04349999999988 25.87044999999989L104.07150000000001 33.99209999999982L90.97000000000037 37.90559999999999L90.41600000000017 39.234950000000026L83.73449999999991 51.28950000000003L87.76749999999993 51.0898499999999L93.04149999999993 54.65824999999995L99.39200000000028 53.188749999999914L103.72650000000021 55.4316L99.47450000000003 60.687449999999785L89.99500000000012 66.98714999999993L87.1180000000004 70.0548999999998L86.25499999999988 78.1474L88.35399999999993 78.72735000000006L87.6585 80.50539999999984L76.16750000000025 88.21889999999996L70.1275000000004 99.9987999999999L67.5569999999999 102.67529999999994L69.67649999999992 112.27585000000005L67.6585 118.31265000000002L68.20050000000037 123.08914999999985L54.8984999999999 134.51789999999988L52.926500000000374 133.94094999999993L52.67500000000041 126.07959999999991L48.992000000000075 127.7290499999998L47.70250000000033 129.43385000000006L51.342500000000086 134.70384999999993L53.437999999999874 147.3379L53.99650000000008 149.34020000000004L50.558000000000334 151.66325L48.874999999999886 152.18255L41.82200000000023 157.52854999999983L42.658500000000004 159.59474999999998L43.37500000000034 164.56664999999987L49.23049999999989 163.33474999999993L52.675500000000284 165.13180000000006L53.695000000000164 166.18049999999982L51.69550000000015 171.27915000000002L54.175500000000056 174.84919999999988L54.08999999999992 183.23774999999983L43.63300000000038 190.05885000000006L46.01249999999993 193.24839999999995L45.33650000000023 197.2385L48.91900000000021 199.9199999999999L60.2615000000003 200.22795000000002L57.80799999999999 205.9296999999998L58.696500000000356 211.9829999999999L60.35349999999994 220.4294999999999L65.87100000000021 226.83504999999997L68.73800000000017 239.81515000000002L72.74800000000027 239.4142499999998L74.2840000000001 243.54379999999992L78.59800000000007 244.49659999999994L79.59550000000036 246.49935L78.70200000000011 255.48849999999987L88.58000000000004 254.56365000000005L90.1705000000004 254.02365000000003L93.1110000000001 257.6836499999999L103.51949999999988 256.4166499999999L108.26000000000022 244.44535000000002L107.88299999999992 238.0025999999998L112.19650000000001 239.05939999999987L112.9200000000003 243.45444999999984L114.81249999999989 244.62934999999987L121.35449999999992 244.32969999999983L125.22800000000018 246.5151499999999L131.42550000000028 238.28649999999982L141.4050000000003 243.5832499999998L142.47299999999996 239.78489999999994L146.34900000000016 237.9690499999998L148.21550000000002 245.54595000000006L150.21400000000028 246.42184999999984L153.86149999999986 244.0097L154.82450000000028 243.30529999999982L176.9055000000003 241.77944999999994L175.60350000000028 238.09984999999983L195.41200000000003 231.69719999999984L196.85699999999997 230.18654999999995L199.68600000000038 233.11970000000002L205.59750000000008 227.10984999999994L202.82950000000028 223.82180000000005L200.19299999999987 214.61915000000005L184.38750000000027 201.75774999999987L183.63650000000007 198.5795999999999L185.25300000000016 197.1562499999999L193.45650000000035 186.53064999999998L197.1210000000002 188.38959999999986L200.95200000000034 186.6418999999999L200.80300000000022 182.69589999999994L189.15099999999995 173.9140999999998L177.8185000000002 171.1480499999999L177.3765000000003 171.02755000000002L177.90050000000008 165.08309999999994L179.03700000000015 163.14699999999988L183.32600000000014 163.4111999999999L183.25750000000028 158.22564999999997L187.78900000000021 152.66034999999988L196.46600000000035 143.05350000000004L202.6495 144.04689999999988L208.47100000000012 141.04754999999983L207.4955 137.0259999999999L207.55300000000034 131.07319999999987L208.5635000000002 126.87894999999997L211.91650000000038 121.20990000000006L214.07050000000027 120.6649999999999L215.3430000000003 114.27764999999994L212.2800000000001 111.47414999999995L214.83749999999986 100.77634999999987L203.37350000000015 101.58824999999979L197.57900000000006 104.97144999999989L196.3069999999999 102.81854999999979L187.71150000000034 103.81709999999998L182.25150000000042 100.74864999999988L179.03850000000034 103.63229999999987L174.72100000000012 103.99664999999999L172.97950000000014 104.72989999999982L168.75650000000007 101.09979999999979L167.65700000000038 98.52744999999999L166.66350000000023 94.42530000000005L170.27300000000025 84.8801499999999L166.38350000000003 81.52850000000001L159.49549999999988 80.54964999999982L151.7240000000004 76.82104999999979L152.38049999999987 72.4795499999999L159.1270000000003 61.087949999999864L159.4300000000004 60.93529999999987L165.38299999999992 60.14749999999992L168.9760000000001 54.962950000000035L173.31700000000012 54.70979999999997L176.82950000000005 53.235699999999895L178.27600000000018 47.88074999999992L174.86350000000016 41.859699999999975L168.79549999999995 38.505499999999984L160.83950000000016 34.33009999999996L156.83050000000037 35.35264999999981L149.02500000000032 33.03959999999989L145.27649999999994 34.20704999999998L136.72149999999988 35.7799L133.81849999999986 32.43104999999986L135.69349999999986 31.635249999999928L132.6249999999999 26.348150000000032L129.57550000000026 25.57140000000004L127.55650000000003 25.059300000000064L126.3050000000004 29.012950000000046L121.62849999999992 25.58729999999997L121.30350000000021 25.4079999999999z">
      <title id="t7">Deuxième circonscription de l'Aisne</title>
      <desc id="d7">Cantons de : Le Catelet, Moy-de-l'Aisne, Saint-Quentin Centre, Saint-Quentin Nord, Saint-Quentin Sud, Saint-Simon, Vermand</desc>
    </path><path class="circo" id="id-002-03" d="M536.99185 105.00839999999982L535.1353499999999 101.16119999999995L536.1688500000002 89.71845000000002L541.23785 74.94634999999988L541.6353500000002 73.71229999999997L526.45735 75.91739999999987L525.6458500000002 67.35254999999995L516.4963499999999 61.676149999999836L508.09185000000014 62.27620000000002L502.46084999999994 59.87854999999996L487.17885000000024 64.63009999999997L478.46884999999986 65.23274999999984L476.5513500000003 59.09204999999986L466.00135000000023 55.516899999999794L459.3193500000001 55.27959999999979L455.8064999999999 57.69149999999996L451.74350000000004 55.014500000000055L447.42650000000026 55.05944999999997L445.01599999999996 49.013300000000015L434.4195000000002 50.08499999999998L434.1399999999999 43.48309999999998L440.5545000000001 27.022949999999923L438.13649999999996 18.48729999999989L435.0614999999999 16.44565L421.25800000000027 28.056349999999952L420.6094999999999 26.295199999999852L409.7985 28.472500000000025L394.67700000000036 39.427399999999864L394.4240000000002 30.28644999999983L390.865 27.394099999999924L392.98900000000003 26.645849999999882L392.5635 24.430099999999868L386.80499999999995 20.960199999999816L378.03 19.027949999999976L373.3269999999999 14.210649999999987L364.3035000000003 20.01260000000002L357.08050000000014 14.463449999999796L348.19650000000024 15.415199999999913L347.0490000000001 13.370699999999829L334.52049999999986 10.39609999999982L321.5295000000003 0L319.4780000000003 1.8433500000000436L303.7995000000001 8.686249999999802L299.76 10.304749999999956L297.3000000000002 13.8214499999998L295.48249999999996 17.8069499999998L298.9654999999999 20.219749999999976L297.04200000000014 24.191199999999924L290.8834999999999 21.371149999999943L283.2409999999999 25.481399999999894L278.5770000000002 29.26569999999998L276.29200000000026 25.92604999999992L270.12 16.785799999999824L263.7510000000003 14.68119999999999L258.8884999999999 10.793950000000052L254.06100000000038 10.176349999999843L247.82100000000014 11.453199999999981L242.77700000000038 20.115199999999902L233.54000000000042 22.348449999999787L233.07450000000017 23.77174999999994L225.8680000000004 33.2988499999999L199.38400000000001 31.231750000000034L199.6719999999999 29.45024999999987L196.05799999999988 27.048099999999806L192.05700000000036 27.253199999999822L186.92350000000033 22.96580000000006L184.37549999999987 25.246549999999957L176.61699999999996 21.756249999999966L167.64200000000017 22.21414999999979L166.41250000000014 24.104549999999847L167.03149999999994 26.174800000000005L163.6080000000004 28.465850000000046L160.83950000000016 34.33009999999996L168.79549999999995 38.505499999999984L174.86350000000016 41.859699999999975L178.27600000000018 47.88074999999992L176.82950000000005 53.235699999999895L173.31700000000012 54.70979999999997L168.9760000000001 54.962950000000035L165.38299999999992 60.14749999999992L159.4300000000004 60.93529999999987L159.1270000000003 61.087949999999864L152.38049999999987 72.4795499999999L151.7240000000004 76.82104999999979L159.49549999999988 80.54964999999982L166.38350000000003 81.52850000000001L170.27300000000025 84.8801499999999L166.66350000000023 94.42530000000005L167.65700000000038 98.52744999999999L168.75650000000007 101.09979999999979L172.97950000000014 104.72989999999982L174.72100000000012 103.99664999999999L179.03850000000034 103.63229999999987L182.25150000000042 100.74864999999988L187.71150000000034 103.81709999999998L196.3069999999999 102.81854999999979L197.57900000000006 104.97144999999989L203.37350000000015 101.58824999999979L214.83749999999986 100.77634999999987L212.2800000000001 111.47414999999995L215.3430000000003 114.27764999999994L214.07050000000027 120.6649999999999L211.91650000000038 121.20990000000006L208.5635000000002 126.87894999999997L207.55300000000034 131.07319999999987L207.4955 137.0259999999999L208.47100000000012 141.04754999999983L202.6495 144.04689999999988L196.46600000000035 143.05350000000004L187.78900000000021 152.66034999999988L183.25750000000028 158.22564999999997L183.32600000000014 163.4111999999999L179.03700000000015 163.14699999999988L177.90050000000008 165.08309999999994L177.3765000000003 171.02755000000002L177.8185000000002 171.1480499999999L189.15099999999995 173.9140999999998L200.80300000000022 182.69589999999994L200.95200000000034 186.6418999999999L197.1210000000002 188.38959999999986L193.45650000000035 186.53064999999998L185.25300000000016 197.1562499999999L183.63650000000007 198.5795999999999L184.38750000000027 201.75774999999987L200.19299999999987 214.61915000000005L202.82950000000028 223.82180000000005L205.59750000000008 227.10984999999994L199.68600000000038 233.11970000000002L204.5440000000002 234.44024999999982L210.34199999999998 228.77909999999986L216.053 226.2426499999998L217.93200000000013 227.32945L221.57250000000033 220.49194999999997L225.31800000000032 218.83674999999982L228.4590000000003 221.57430000000005L230.7495 223.7099999999998L236.9905 221.50524999999988L247.09550000000036 233.48844999999983L253.9685000000003 233.58900000000006L255.6170000000003 231.99434999999994L261.6040000000004 225.91195L270.9725000000003 221.80444999999992L271.3745 217.68329999999992L275.4520000000002 213.10509999999994L276.95600000000013 214.43434999999994L286.9380000000001 213.8397999999998L288.83550000000014 213.08670000000006L288.9395000000002 208.9919999999998L292.7080000000001 204.41190000000006L296.55200000000036 209.24329999999998L300.6555000000003 210.54309999999987L301.1205000000001 212.66834999999986L308.26750000000004 213.5629L307.1625 215.9707499999999L307.7109999999999 222.7704L318.3895000000001 234.32455000000004L315.5664999999999 247.19054999999997L315.16700000000014 251.08919999999983L310.62400000000025 254.92754999999988L313.0695000000003 258.6498499999999L319.246 260.91769999999997L325.4140000000001 267.35915000000006L313.47500000000025 270.7733999999999L312.76800000000037 274.8673499999998L313.0555000000004 278.9989L317.1039999999999 280.0792999999999L317.70399999999995 282.10144999999983L314.14800000000014 287.1652L316.327 288.15804999999983L315.573 296.9005999999999L315.0640000000004 301.27594999999985L321.39250000000004 302.8186499999998L328.90649999999994 300.0696499999998L329.9350000000004 293.6892499999999L334.23900000000003 293.67615L341.7214999999999 289.5675L343.20899999999995 287.1822499999999L349.2330000000004 280.98375000000004L361.84349999999995 289.55044999999984L365.07450000000006 288.12129999999996L363.0675000000002 281.99645000000004L364.87149999999986 269.00194999999997L369.4195000000002 266.78984999999983L368.5945000000004 265.1817L372.8174999999999 263.167L370.58400000000006 256.72799999999995L375.31499999999994 244.10300000000007L377.7430000000004 240.61035000000004L381.5410000000003 242.24535000000003L383.75400000000013 243.42095L393.43200000000024 245.7424499999999L398.70450000000005 249.6280999999999L395.4925000000003 257.2948499999998L397.3385000000002 258.48434999999995L408.07600000000036 257.31584999999995L410.26200000000017 261.1422999999999L416.635 259.7006999999999L418.2955000000004 261.11339999999984L423.0155000000002 256.7319499999999L418.2370000000003 248.71684999999985L427.8520000000003 233.6803999999998L430.07900000000006 237.44654999999995L434.48500000000024 237.84355000000005L439.2040000000003 233.04209999999983L441.32299999999987 226.5766499999998L437.09450000000004 225.07565L430.62099999999987 226.87974999999994L427.2750000000002 216.21539999999982L426.28300000000024 212.99984999999992L427.75149999999996 214.34754999999996L436.99700000000007 203.1131499999998L450.97950000000026 203.19079999999985L455.57650000000024 187.90580000000006L464.3828500000001 183.3970499999998L470.3688500000004 185.2516L471.42134999999996 186.78605000000005L463.08384999999987 193.3274L469.1458499999999 198.5710499999999L473.2573500000001 198.89285L478.2723500000003 202.50914999999992L480.19285000000025 201.76104999999978L480.84585000000004 191.5938L487.5288499999999 192.3434499999999L488.09585000000027 193.95984999999996L491.4943500000004 194.2738L501.17185000000006 191.7510999999999L511.6913500000004 192.68569999999983L516.1648500000001 187.25740000000002L525.07385 187.5094999999999L531.8068500000004 189.6231499999999L537.2678500000001 186.20019999999982L539.0743500000002 182.2883999999999L535.8788500000003 174.51204999999987L533.8603499999999 173.7770999999998L537.5803500000001 156.8123L540.4038500000001 154.0322999999998L541.8913500000002 145.72969999999998L548.4083500000003 140.27689999999978L548.8698500000004 136.13200000000006L551.2688500000002 109.26494999999989L543.2793500000002 109.39359999999994L541.8798500000003 105.8735999999999L536.99185 105.00839999999982z">
      <title id="t8">Troisième circonscription de l'Aisne</title>
      <desc id="d8">Cantons de : Aubenton, Bohain-en-Vermandois, La Capelle, Guise, Hirson, Marle, Le Nouvion-en-Thiérache, Ribemont, Sains-Richaumont, Vervins, Wassigny</desc>
    </path><path class="circo" id="id-002-04" d="M153.85350000000017 292.51419999999996L161.0065000000003 287.4795499999999L166.8504999999999 283.74875000000003L170.48100000000034 276.77564999999987L167.32250000000022 274.1662499999998L165.35450000000026 264.12710000000004L156.87900000000013 264.76339999999993L155.4015000000004 266.2973499999998L149.68549999999993 254.97349999999983L153.86149999999986 244.0097L150.21400000000028 246.42184999999984L148.21550000000002 245.54595000000006L146.34900000000016 237.9690499999998L142.47299999999996 239.78489999999994L141.4050000000003 243.5832499999998L131.42550000000028 238.28649999999982L125.22800000000018 246.5151499999999L121.35449999999992 244.32969999999983L114.81249999999989 244.62934999999987L112.9200000000003 243.45444999999984L112.19650000000001 239.05939999999987L107.88299999999992 238.0025999999998L108.26000000000022 244.44535000000002L103.51949999999988 256.4166499999999L93.1110000000001 257.6836499999999L90.1705000000004 254.02365000000003L88.58000000000004 254.56365000000005L78.70200000000011 255.48849999999987L79.59550000000036 246.49935L78.59800000000007 244.49659999999994L74.2840000000001 243.54379999999992L72.74800000000027 239.4142499999998L68.73800000000017 239.81515000000002L67.99599999999998 239.74879999999985L71.0835000000003 245.8830499999999L66.98849999999993 255.99429999999984L71.5790000000004 263.59645L70.11099999999999 269.0820499999998L67.56200000000035 266.12795000000006L63.59550000000013 266.78849999999983L63.29600000000028 270.7648499999999L59.80600000000038 272.1172999999999L58.55950000000007 276.0030499999999L62.59299999999996 277.1353499999998L64.64650000000006 280.8655999999999L65.49399999999991 288.67445000000004L58.61449999999991 293.8303499999998L57.337499999999864 294.4359L60.91850000000022 298.86795000000006L69.64499999999987 307.8922L70.34449999999993 311.67654999999996L76.24099999999999 323.26279999999997L76.63749999999993 325.06010000000003L71.5360000000004 326.98375L71.24700000000018 331.4708999999999L73.55450000000019 335.30225L73.4480000000002 346.33504999999985L71.08650000000011 347.36729999999994L71.92650000000015 354.19015L69.6165000000002 360.54209999999983L58.5065000000003 363.0213999999998L59.12849999999992 367.37525000000005L63.13449999999989 372.33389999999986L69.1130000000004 378.87069999999994L69.97400000000027 387.29809999999986L62.727500000000305 391.4144999999999L63.07950000000005 395.5185499999999L72.7090000000004 399.55870000000004L83.53499999999997 404.7032999999999L88.20100000000025 409.45480000000003L86.37350000000026 412.27675000000005L87.74800000000027 413.4192999999999L71.42899999999997 419.3223499999999L69.24450000000036 419.3714L64.53000000000031 414.9709999999999L60.18950000000018 414.4480999999999L57.701999999999884 417.72255L57.841000000000236 423.88419999999996L58.072500000000105 426.23965L58.212500000000205 441.4288499999998L56.170000000000186 441.25579999999985L57.67600000000016 454.12835L52.03300000000013 456.8680499999999L50.522000000000276 458.40389999999985L50.24249999999995 469.17384999999996L48.47750000000019 474.12199999999984L46.740500000000225 474.5068999999998L37.993999999999915 481.36145L33.00999999999988 488.56930000000006L33.52350000000001 489.86500000000007L41.170999999999935 486.1649L48.892000000000166 493.94344999999987L58.16700000000026 488.8073L59.080000000000155 483.0278999999999L63.2710000000003 483.3677L64.32650000000024 485.24534999999986L68.91750000000002 479.8931999999999L75.20500000000027 485.42665L74.80200000000025 495.67184999999995L81.54150000000016 494.79299999999995L87.81200000000013 497.6654499999998L91.20000000000005 506.0226L102.79350000000022 509.6122L109.16550000000029 510.06249999999994L114.99250000000018 500.93334999999996L112.11600000000033 497.17455L118.42150000000004 489.5206999999999L117.07500000000039 488.1447499999999L124.12599999999998 487.7039499999998L135.84300000000042 488.34689999999995L134.53250000000025 498.7925999999999L128.86250000000018 504.67344999999995L130.74150000000031 510.5382L142.47299999999996 505.22549999999995L145.21299999999997 499.14784999999995L148.61300000000028 496.3772499999999L154.7460000000001 498.41189999999983L158.5740000000004 498.3753999999999L157.8370000000001 492.89240000000007L159.91300000000024 489.8590999999999L160.26650000000018 487.80305L164.2225000000002 486.77660000000003L168.48700000000008 486.07489999999984L172.25900000000024 488.1727999999998L181.5485000000001 479.5990499999999L184.29700000000025 479.40139999999985L187.27550000000008 474.26815000000005L186.01499999999987 470.2093499999998L189.37700000000007 468.0795999999998L189.49350000000038 465.951L194.32799999999986 463.0547999999999L193.44650000000001 459.40124999999995L184.85450000000014 460.1433499999999L179.7475000000003 451.6163L173.6824999999999 449.7503499999999L171.7734999999999 443.6726999999999L169.6320000000003 443.45200000000006L168.58850000000018 442.53709999999984L179.3119999999999 441.20225000000005L189.3485000000004 432.38730000000004L189.08050000000003 428.70994999999994L183.9300000000003 425.8182499999998L183.59450000000038 426.20959999999997L178.23000000000036 428.7439499999999L171.98050000000023 427.8985499999999L165.3245000000004 428.76679999999993L168.63249999999994 415.7664L165.0585000000001 413.1892499999998L164.29750000000013 403.71995L174.4274999999999 404.0769L177.57000000000005 398.80865L176.89450000000022 384.27899999999994L183.14400000000035 383.2512L182.64400000000023 377.63859999999994L186.0405000000003 373.86795000000006L185.79450000000008 362.11275L181.3670000000002 362.82629999999983L177.56400000000042 360.531L170.52900000000022 351.5706499999999L170.35450000000026 351.18754999999993L173.21300000000008 348.60449999999986L183.4469999999999 343.17385L189.30100000000039 338.3397499999998L194.12350000000004 334.5612L195.0535000000002 328.55334999999997L185.9975000000003 323.90649999999994L183.60700000000008 320.2186499999999L179.35600000000022 319.76174999999984L175.79600000000028 322.3189499999998L174.05200000000036 320.9797499999999L172.08300000000008 319.8863L169.11249999999995 323.35459999999983L166.83400000000006 323.2496999999998L163.65250000000003 320.03709999999984L163.37199999999996 315.5758L159.178 313.9793L158.32050000000038 309.72115L163.21799999999996 305.05709999999993L159.32999999999993 303.03049999999985L153.85350000000017 292.51419999999996z">
      <title id="t9">Quatrième circonscription de l'Aisne</title>
      <desc id="d9">Cantons de : Chauny, Coucy-le-Château-Auffrique, Soissons Nord, Soissons Sud, Tergnier, Vic-sur-Aisne</desc>
    </path><path class="circo" id="id-002-05" d="M246.25 374.08934999999985L240.625 374.71434999999985L235.46850000000006 375.49559999999985L234.375 375.33934999999985L227.96850000000006 376.58934999999985L215.46850000000006 392.21434999999985L209.21850000000006 393.46434999999985L203.90649999999994 390.18309999999985L202.03149999999994 396.12059999999985L195.15649999999994 402.05809999999985L189.375 399.24559999999985L178.75 398.77684999999985L177.5 398.77684999999985L174.375 404.08934999999985L164.375 403.77684999999985L165 413.15184999999985L168.59350000000006 415.80809999999985L165.3125 428.77684999999985L172.03149999999994 427.83934999999985L178.28149999999994 428.77684999999985L183.59350000000006 426.27684999999985L183.90649999999994 425.80809999999985L189.0625 428.77684999999985L189.375 432.37059999999985L179.375 441.27684999999985L168.59350000000006 442.52684999999985L169.6875 443.46434999999985L171.71850000000006 443.62059999999985L173.75 449.71434999999985L179.6875 451.58934999999985L184.84350000000006 460.18309999999985L193.4375 459.40184999999985L194.375 462.99559999999985L189.53149999999994 465.96434999999985L189.375 468.15184999999985L185.9375 470.18309999999985L187.34350000000006 474.24559999999985L184.375 479.40184999999985L181.5625 479.55809999999985L172.1875 488.15184999999985L168.4375 486.12059999999985L164.21850000000006 486.74559999999985L160.3125 487.83934999999985L159.84350000000006 489.87059999999985L157.8125 492.83934999999985L158.59350000000006 498.30809999999985L154.6875 498.46434999999985L148.59350000000006 496.43309999999985L145.15649999999994 499.08934999999985L142.5 505.18309999999985L130.78149999999994 510.49559999999985L128.90649999999994 504.71434999999985L134.53149999999994 498.77684999999985L135.78149999999994 488.30809999999985L124.0625 487.68309999999985L117.03149999999994 488.15184999999985L118.4375 489.55809999999985L112.1875 497.21434999999985L115 500.96434999999985L109.21875 510.02684999999985L102.8125 509.55809999999985L91.25 505.96434999999985L87.8125 497.68309999999985L81.5625 494.87059999999985L74.84375 495.65184999999985L75.15625 485.49559999999985L68.90625 479.87059999999985L64.375 485.18309999999985L63.28125 483.30809999999985L59.0625 482.99559999999985L58.125 488.77684999999985L48.90625 493.93309999999985L41.09375 486.12059999999985L33.59375 489.87059999999985L32.96875 488.62059999999985L30.9375 484.71434999999985L22.96875 481.12059999999985L18.28125 479.24559999999985L13.75 484.40184999999985L2.34375 491.43309999999985L8.4375 499.24559999999985L6.25 502.37059999999985L4.84375 503.62059999999985L12.96875 507.52684999999985L14.84375 512.8393499999999L23.4375 511.74559999999985L25.15625 512.9955999999999L23.59375 517.2143499999999L25.78125 517.5268499999999L28.28125 513.9330999999999L30.3125 513.4643499999999L32.34375 514.5580999999999L32.96875 516.5893499999999L32.5 518.7768499999999L29.21875 521.7455999999999L29.21875 523.9330999999999L30.625 526.9018499999999L28.90625 530.9643499999999L31.71875 541.9018499999999L31.71875 542.2143499999999L34.21875 550.6518499999999L29.0625 557.3705999999999L24.84375 557.6830999999999L21.09375 555.1830999999999L23.125 551.4330999999999L18.28125 547.2143499999999L2.34375 549.7143499999999L0 553.1518499999999L5.15625 561.9018499999999L4.53125 563.9330999999999L5.625 578.6205999999999L9.6875 580.4955999999999L14.0625 575.6518499999999L24.375 583.4643499999999L27.1875 589.4018499999999L33.75 590.4955999999999L32.5 581.1205999999999L30.15625 580.9643499999999L28.75 576.7455999999999L20.9375 579.4018499999999L19.375 577.8393499999999L17.03125 564.2455999999999L19.6875 560.8080999999999L24.21875 559.8705999999999L30.625 562.3705999999999L32.34375 566.7455999999999L36.09375 564.5580999999999L39.6875 566.1205999999999L43.59375 567.8393499999999L42.1875 571.7455999999999L44.375 575.1830999999999L48.4375 573.3080999999999L52.34375 575.1830999999999L53.90625 579.4018499999999L52.03125 588.1518499999999L53.125 594.7143499999999L57.65625 598.3080999999999L54.375 587.9955999999999L61.09375 572.2143499999999L66.25 576.4330999999999L64.6875 589.5580999999999L65.78125 591.5893499999999L71.5625 595.0268499999999L78.125 595.9643499999999L76.875 600.0268499999999L71.40625 603.9330999999999L71.5625 606.1205999999999L63.125 605.4955999999999L67.1875 610.3393499999999L64.21875 613.3080999999999L57.5 608.1518499999999L57.03125 616.5893499999999L54.53125 620.3393499999999L50.3125 621.1205999999999L48.125 624.0893499999999L51.25 627.2143499999999L66.25 630.8080999999999L69.0625 629.7143499999999L70.15625 630.9643499999999L76.40625 631.2768499999999L81.40625 635.1830999999999L87.8125 635.6518499999999L83.75 644.8705999999999L85 648.1518499999999L88.90625 650.4955999999999L94.84375 660.0268499999999L94.375 663.9330999999999L98.59375 667.8393499999999L98.59375 670.0268499999999L94.53125 671.5893499999999L92.65625 680.0268499999999L87.03125 683.3080999999999L86.875 687.3705999999999L90.46875 692.2143499999999L102.1875 696.5893499999999L105.78125 700.6518499999999L106.5625 704.2455999999999L112.5 706.4330999999999L113.125 708.4643499999999L115 707.8393499999999L115.78149999999994 715.3393499999999L123.59350000000006 716.9018499999999L126.09350000000006 724.8705999999999L129.375 733.3080999999999L128.125 735.9643499999999L130.3125 739.7143499999999L132.03149999999994 740.8080999999999L138.125 739.0893499999999L147.03149999999994 733.4643499999999L150.3125 742.0580999999999L150.625 751.2768499999999L157.96850000000006 759.8705999999999L171.25 752.3705999999999L173.75 746.4330999999999L177.03149999999994 759.4018499999999L175 767.9955999999999L179.53149999999994 772.9955999999999L180 782.0580999999999L182.03149999999994 783.3080999999999L190 780.6518499999999L187.03149999999994 786.7455999999999L191.25 788.4643499999999L197.34350000000006 785.9643499999999L199.6875 789.7143499999999L209.84350000000006 793.3080999999999L206.875 801.7455999999999L213.90649999999994 804.7143499999999L217.34350000000006 796.9018499999999L223.75 796.1205999999999L224.53149999999994 792.5268499999999L222.1875 786.7455999999999L225.625 785.8080999999999L231.40649999999994 783.4643499999999L233.75 770.8080999999999L239.0625 761.5893499999999L242.1875 757.2143499999999L250.15649999999994 755.3393499999999L258.4375 756.2768499999999L260.78149999999994 752.9955999999999L261.71850000000006 739.7143499999999L269.6875 736.1205999999999L273.125 734.8705999999999L272.65649999999994 730.8080999999999L268.90649999999994 725.9643499999999L273.75 722.6830999999999L281.5625 722.2143499999999L283.59350000000006 709.5580999999999L289.53149999999994 697.6830999999999L300.3125 696.5893499999999L305.625 689.8705999999999L299.53149999999994 676.1205999999999L293.90649999999994 673.4643499999999L290.15649999999994 675.6518499999999L285.9375 674.5580999999999L279.6875 676.5893499999999L278.75 678.6205999999999L268.59350000000006 678.1518499999999L266.25 675.0268499999999L267.34350000000006 661.7455999999999L268.4375 661.4330999999999L273.59350000000006 658.9330999999999L275.78149999999994 653.7768499999999L286.25 653.3080999999999L289.21850000000006 647.5268499999999L286.25 644.4018499999999L281.09350000000006 630.6518499999999L278.28149999999994 625.1830999999999L274.53149999999994 625.6518499999999L272.65649999999994 622.0580999999999L277.03149999999994 617.5268499999999L276.875 613.4643499999999L280.9375 608.7768499999999L280.9375 604.5580999999999L281.5625 603.1518499999999L282.96850000000006 602.0580999999999L295.78149999999994 603.7768499999999L308.28149999999994 600.0268499999999L311.875 600.9643499999999L314.21850000000006 603.7768499999999L316.40649999999994 607.3705999999999L322.34350000000006 604.8705999999999L331.875 598.4643499999999L335.78149999999994 597.3705999999999L336.875 585.0268499999999L332.34350000000006 584.4018499999999L326.09350000000006 586.7455999999999L317.8125 583.3080999999999L314.0625 575.6518499999999L317.03149999999994 570.0268499999999L314.0625 566.1205999999999L307.34350000000006 571.2768499999999L305.15649999999994 565.8080999999999L299.21850000000006 564.5580999999999L295.9375 562.0580999999999L294.53149999999994 556.4330999999999L300.625 555.4955999999999L305.3125 546.2768499999999L304.53149999999994 544.4018499999999L302.5 543.9330999999999L296.09350000000006 529.5580999999999L300.3125 525.3393499999999L294.53149999999994 519.2455999999999L297.65649999999994 513.9330999999999L296.40649999999994 511.12059999999985L290.9375 507.99559999999985L288.90649999999994 504.40184999999985L290.625 503.30809999999985L292.8125 495.02684999999985L299.21850000000006 492.83934999999985L302.03149999999994 489.24559999999985L309.6875 487.68309999999985L312.1875 486.74559999999985L320.3125 483.15184999999985L330.46850000000006 482.21434999999985L332.96850000000006 480.02684999999985L332.5 474.24559999999985L329.375 465.65184999999985L325.78149999999994 460.80809999999985L321.875 461.74559999999985L313.59350000000006 455.49559999999985L311.40649999999994 455.80809999999985L307.96850000000006 454.71434999999985L307.65649999999994 450.80809999999985L300.3125 443.93309999999985L298.28149999999994 443.62059999999985L297.1875 446.90184999999985L295.3125 447.37059999999985L290.9375 446.27684999999985L286.71850000000006 441.27684999999985L282.1875 440.96434999999985L282.96850000000006 436.58934999999985L280.625 428.15184999999985L281.71850000000006 423.93309999999985L271.09350000000006 423.77684999999985L268.28149999999994 420.65184999999985L266.40649999999994 410.80809999999985L262.1875 409.55809999999985L259.0625 409.87059999999985L261.875 399.55809999999985L252.1875 394.71434999999985L251.5625 389.40184999999985L248.90649999999994 387.21434999999985L247.03149999999994 381.27684999999985L248.75 377.37059999999985L246.25 374.08934999999985z">
      <title id="t10">Cinquième circonscription de l'Aisne</title>
      <desc id="d10">Cantons de : Braine, Charly, Château-Thierry, Condé-en-Brie, Fère-en-Tardenois, Neuilly-Saint-Front, Oulchy-le-Château, Vailly-sur-Aisne, Villers-Cotterêts</desc>
    </path></svg>