<svg xmlns="http://www.w3.org/2000/svg" version="1.1" xmlns:xlink="http://www.w3.org/1999/xlink" xmlns:svgjs="http://svgjs.dev/svgjs" width="733.6365000000001" height="537.6747" fill="#eeeeee" stroke="#cccccc" xmlns:sodipodi="http://sodipodi.sourceforge.net/DTD/sodipodi-0.dtd"><path class="circo" id="id-003-01" d="M297.6249999999999 225.64765000000023L291.4190000000002 225.19435000000044L281.75550000000044 220.60170000000028L277.78700000000015 221.55470000000037L276.14599999999996 225.35470000000032L274.0925000000004 225.6174500000003L267.328 221.15380000000016L267.8604999999999 216.8542500000001L266.20000000000005 212.86200000000008L255.11950000000013 206.16530000000012L254.82000000000028 206.04925000000037L249.98899999999992 198.96605000000022L237.4185 190.85155000000043L230.5400000000003 180.45260000000042L234.73250000000007 181.35550000000023L248.9870000000002 176.92300000000046L254.32050000000004 173.3213500000005L260.45950000000005 174.3807000000004L262.9275000000001 170.8893500000005L261.77750000000003 164.96090000000038L255.83349999999996 154.6089500000005L273.5910000000001 143.13725000000034L274.33250000000044 135.11310000000037L278.1165000000004 133.10510000000022L267.40049999999997 116.78465000000017L262.02 113.77680000000055L261.703 105.09510000000034L259.8415 104.68535000000031L259.02750000000026 106.40855000000045L255.50850000000025 101.42570000000035L240.89650000000006 93.40705000000014L239.69400000000007 89.38400000000001L240.73050000000023 85.28865000000053L235.62000000000012 81.55140000000017L240.98450000000014 78.63515000000007L238.5020000000003 69.01680000000056L239.52850000000012 65.13145000000009L245.36100000000033 66.81640000000016L250.58449999999993 53.85470000000055L241.11400000000003 47.93775000000039L240.6495000000001 38.17350000000033L253.7025 26.83430000000044L255.85950000000025 21.009350000000495L263.7415000000004 17.506350000000452L268.8235000000003 13.985550000000444L268.13300000000027 9.934350000000336L271.4345000000003 7.314750000000458L277.4110000000002 5.369850000000156L281.1345 6.635650000000055L286.4949999999999 6.950350000000185L289.64500000000044 0L298.1385 0.28190000000051896L305.2385000000004 4.294550000000186L313.54150000000004 2.512100000000146L318.4055000000001 6.5214000000003125L320.3110000000004 5.566600000000221L322.63900000000035 19.2706000000004L327.80250000000024 28.59185000000025L342.1610000000004 41.01950000000045L351.16900000000044 43.86645000000044L361.53200000000027 47.39400000000046L369.1534999999999 58.107650000000035L370.11349999999993 59.3429500000002L377.83450000000016 70.03295000000037L393.5650000000004 77.60125000000016L398.5770000000002 74.88105000000019L403.13199999999995 70.63210000000026L404.23400000000015 66.6292500000003L406.2265000000002 66.06595000000027L417.0885000000004 59.688200000000506L420.8160000000004 54.56635000000006L426.95100000000025 55.15710000000013L427.11850000000027 55.04615000000001L433.3575000000002 54.5942500000001L436.0975000000002 62.67490000000009L441.8575000000004 71.59745000000044L454.62199999999996 73.8384000000002L458.3744999999999 71.61230000000046L462.41300000000024 70.21390000000054L466.9855000000001 63.00395000000037L468.4895 56.7942000000005L472.4585000000002 55.20610000000033L482.8955000000002 57.55350000000021L491.2280000000004 56.861750000000484L489.36450000000036 62.92340000000024L490.15450000000044 67.00105000000008L497.6120000000003 70.1451000000003L499.40950000000043 73.75910000000033L499.4184999999999 80.03444999999999L496.43850000000043 82.97910000000002L496.48750000000007 87.09520000000055L494.5705000000004 87.97640000000001L498.3945 89.97230000000002L500.1890000000003 93.92405000000053L512.013 94.38535000000002L513.5220000000004 93.05105000000026L513.5920000000004 88.86940000000038L527.8885000000002 73.5844000000003L533.793 72.16745000000003L537.3845 77.16270000000009L539.5140000000004 77.17755000000011L542.2495000000004 73.97780000000012L544.6260000000001 70.64205000000015L539.9705 60.994700000000535L539.47 50.542350000000056L548.467 54.57505000000026L551.9040000000001 50.234850000000506L553.5470000000004 53.87020000000007L559.9350000000004 48.603650000000016L552.3535000000004 33.671150000000125L558.5790000000003 25.321700000000078L562.6474999999999 32.21780000000024L571.0590000000002 31.032350000000406L574.1945000000004 33.77165000000048L571.3800000000003 39.08270000000016L577.7035000000001 49.44065000000023L577.6870000000002 59.800350000000435L583.4230000000002 61.811550000000466L585.2635000000004 72.02680000000043L592.6089999999999 75.42995000000019L591.5115000000003 81.55080000000055L602.466 88.34365000000048L603.9195000000001 92.38230000000044L604.0255000000002 94.22315000000026L606.1505 98.3787000000001L608.0425000000002 104.33255000000031L611.078 107.18590000000006L614.2570000000001 110.09595000000047L614.0645000000001 112.26195000000018L609.9040000000002 119.7180000000003L612.5175000000002 122.98395000000028L618.877 124.01210000000049L620.7724999999999 136.33260000000007L621.3760000000002 141.23790000000042L621.6180000000003 150.94865000000027L618.7549999999999 154.56755000000044L618.0790000000002 158.65695000000017L621.9755000000004 163.7239500000004L627.8955000000002 165.82220000000007L634.0465 164.09035000000017L637.2370000000001 166.7143500000003L638.4739999999999 170.63175L644.3235000000004 171.26310000000046L647.8739999999999 176.0107000000005L651.6835000000003 175.43755000000033L662.4225000000001 168.63015000000019L666.3655 173.32320000000038L663.7450000000001 176.7543500000005L665.8330000000001 180.06970000000024L666.1650000000003 180.16170000000045L670.1275000000004 178.69185000000016L673.8190000000003 180.32290000000046L672.3680000000002 190.8886000000001L674.4285000000002 194.5414500000004L686.0315000000003 199.95175000000017L688.6785000000003 197.15810000000033L690.446 193.2592500000004L696.2015000000002 190.55705000000046L703.7510000000003 193.74815000000012L713.9005000000003 193.9593000000002L711.4080000000001 201.24355000000037L716.8810000000002 201.7330000000004L710.8675 210.2619500000003L711.4449999999999 216.5636500000005L705.958 222.5971000000004L707.7390000000003 226.43955000000005L704.1775000000001 227.54165L700.0749999999999 231.8022000000002L694.2675000000003 233.3838000000003L691.019 221.22225000000014L683.8375000000002 213.80225000000053L680.5355000000003 216.40450000000044L678.9240000000001 222.4466000000001L674.948 221.48625000000038L672.5380000000001 227.24685000000022L675.0965000000002 232.7006L674.7365000000002 236.7996000000005L670.1949999999999 242.7012000000002L659.11 248.1777500000004L656.9839999999999 248.33860000000016L655.1760000000002 244.46230000000014L650.933 237.90070000000014L643.5000000000002 240.73410000000024L640.9775000000002 233.44730000000027L637.1345000000002 231.94835000000012L632.518 235.97900000000038L624.8275000000001 232.79555000000016L617.7730000000003 236.70465000000036L615.3795000000002 230.95800000000054L607.5780000000003 233.13530000000014L603.9160000000004 231.03695000000016L605.8410000000003 223.0406000000005L602.4545 220.9274000000005L603.0375000000004 218.88315000000034L600.9129999999999 219.2977000000002L598.8370000000003 223.1066000000004L592.4709999999999 224.2624500000005L582.9520000000002 229.3362000000002L581.1920000000003 233.28640000000007L582.79 236.90255000000036L581.1695000000003 238.14425000000028L572.7145000000002 232.44595000000004L570.8115000000004 233.02495000000022L569.7125 236.9358500000004L563.5374999999999 236.0721000000001L559.3530000000004 228.79970000000014L553.3269999999999 229.97075000000052L547.3025000000001 221.76320000000032L539.5474999999999 227.97270000000026L538.0180000000001 233.78150000000005L534.3815000000001 234.73905000000002L537.9325 244.7008500000004L535.8685000000003 256.88965000000053L532.158 258.4571500000004L525.8935000000002 257.34440000000006L522.0269999999999 259.1614000000004L512.4705 254.68430000000012L512.5815 256.4552500000002L506.72500000000014 260.0320000000005L504.03850000000034 265.46320000000037L504.6840000000003 269.4719500000002L507.4305000000004 272.43325000000027L509.1070000000002 271.3456000000002L518.9805000000001 283.65590000000054L524.5275000000004 287.2562000000005L529.8900000000003 290.21840000000054L529.676 300.83020000000033L532.7700000000004 306.4585000000005L540.3305 317.6556500000004L542.276 318.09050000000013L544.3110000000001 318.39800000000025L541.9190000000003 324.1408000000001L543.2044999999999 325.79435000000046L538.6500000000001 332.34005000000025L533.0324999999999 334.8095500000005L532.1635000000003 340.9810500000003L526.3910000000004 342.0775000000003L526.3400000000001 352.4413500000003L530.2334999999999 351.53265000000033L533.5175000000004 353.71260000000007L536.9530000000003 365.0150500000001L535.3610000000003 366.4252000000005L526.7180000000002 371.35050000000035L522.6275000000004 371.46165000000053L517.2550000000001 374.6903000000003L512.6780000000002 378.6591000000004L504.9275 379.0489500000001L500.1185000000004 375.86370000000045L498.27950000000044 376.5169500000002L490.91700000000003 383.54085000000055L488.0525 386.45470000000046L482.26350000000025 388.30835000000036L481.9375000000002 384.2498500000005L484.60000000000036 378.8187000000005L483.89800000000037 368.7012500000003L485.7745 365.1944000000003L472.07449999999994 366.47310000000004L468.67650000000026 364.47640000000035L462.69600000000025 341.6755500000005L449.74350000000015 334.8808500000001L447.68050000000017 334.77265000000045L444.5519999999999 338.8279L438.3695 338.1665000000004L437.4335000000002 336.26465000000053L432.91600000000017 343.2102500000002L434.5165000000003 348.8996500000002L432.00050000000033 352.15445000000045L422.6125000000002 353.9626500000003L417.4860000000001 351.62170000000003L420.69050000000004 366.20840000000044L417.93800000000033 371.82335000000023L410.41200000000003 378.01935000000014L408.22900000000004 385.4093500000005L405.01750000000015 388.9871500000004L397.3815000000002 391.2592000000001L387.87300000000016 386.8408000000005L384.1945000000004 388.4347500000001L378.2715000000002 396.6503L370.8390000000003 389.38485000000014L366.7349999999999 389.0731000000005L366.6900000000004 383.6120500000004L363.6680000000001 382.08105000000046L356.79599999999994 378.42150000000004L354.4820000000004 374.5091500000001L352.6615000000004 375.5794000000003L346.4240000000001 370.30715000000043L349.2720000000003 358.3755500000001L343.66250000000036 349.9424000000005L336.4735000000002 346.61550000000034L337.48800000000017 340.9546L334.3915000000004 335.92100000000016L330.80150000000003 340.68910000000017L328.7434999999999 340.8261500000003L324.35450000000003 336.69985000000054L319.4965000000002 327.8511500000002L317.85300000000007 326.7486500000001L312.28350000000034 328.54105000000004L308.86150000000043 326.6250500000001L308.2220000000001 322.35005L311.0825 311.89390000000003L319.15850000000034 303.1648000000001L321.6635000000002 295.70690000000013L317.6210000000003 291.1552500000005L319.14199999999994 287.46920000000046L315.30850000000044 282.5784500000003L311.7885000000001 280.18820000000005L311.5625 275.9128500000003L309.9435 274.5210500000002L301.48000000000025 274.3769500000002L295.76900000000023 271.6443000000004L297.2755000000001 261.5100000000001L299.3369999999999 257.98640000000034L298.6170000000004 253.9584000000002L298.34550000000036 250.24055000000033L293.58450000000005 241.42825000000016L296.59100000000024 229.74630000000047L300.53800000000024 228.79535000000033L297.6249999999999 225.64765000000023z">
      <title id="t11">Première circonscription de l'Allier</title>
      <desc id="d11">Cantons de : Bourbon-l'Archambault, Chevagnes, Chantelle, Dompierre-sur-Besbre, Le Montet, Lurcy-Lévis, Moulins Ouest, Moulins Sud, Neuilly-le-Réal, Saint-Pourçain-sur-Sioule, Souvigny, Varennes-sur-Allier, Yzeure</desc>
    </path><path class="circo" id="id-003-02" d="M169.0965 57.740700000000516L174.32350000000042 51.34520000000009L180.49200000000042 50.65150000000017L181.2325000000004 40.23620000000051L192.2014999999999 34.679700000000366L193.8530000000003 35.78005000000019L197.7924999999999 45.499750000000176L202.60250000000042 49.61550000000045L204.05050000000017 53.49085000000002L207.48800000000017 51.34210000000053L210.9480000000002 52.68865000000005L214.3470000000002 50.5132500000002L218.88100000000009 43.63390000000038L233.36099999999988 42.532600000000116L237.2550000000001 47.00770000000034L241.11400000000003 47.93775000000039L250.58449999999993 53.85470000000055L245.36100000000033 66.81640000000016L239.52850000000012 65.13145000000009L238.5020000000003 69.01680000000056L240.98450000000014 78.63515000000007L235.62000000000012 81.55140000000017L240.73050000000023 85.28865000000053L239.69400000000007 89.38400000000001L240.89650000000006 93.40705000000014L255.50850000000025 101.42570000000035L259.02750000000026 106.40855000000045L259.8415 104.68535000000031L261.703 105.09510000000034L262.02 113.77680000000055L267.40049999999997 116.78465000000017L278.1165000000004 133.10510000000022L274.33250000000044 135.11310000000037L273.5910000000001 143.13725000000034L255.83349999999996 154.6089500000005L261.77750000000003 164.96090000000038L262.9275000000001 170.8893500000005L260.45950000000005 174.3807000000004L254.32050000000004 173.3213500000005L248.9870000000002 176.92300000000046L234.73250000000007 181.35550000000023L230.5400000000003 180.45260000000042L237.4185 190.85155000000043L249.98899999999992 198.96605000000022L254.82000000000028 206.04925000000037L255.11950000000013 206.16530000000012L266.20000000000005 212.86200000000008L267.8604999999999 216.8542500000001L267.328 221.15380000000016L274.0925000000004 225.6174500000003L276.14599999999996 225.35470000000032L277.78700000000015 221.55470000000037L281.75550000000044 220.60170000000028L291.4190000000002 225.19435000000044L297.6249999999999 225.64765000000023L300.53800000000024 228.79535000000033L296.59100000000024 229.74630000000047L293.58450000000005 241.42825000000016L298.34550000000036 250.24055000000033L298.6170000000004 253.9584000000002L299.3369999999999 257.98640000000034L297.2755000000001 261.5100000000001L295.76900000000023 271.6443000000004L301.48000000000025 274.3769500000002L309.9435 274.5210500000002L311.5625 275.9128500000003L311.7885000000001 280.18820000000005L315.30850000000044 282.5784500000003L319.14199999999994 287.46920000000046L317.6210000000003 291.1552500000005L321.6635000000002 295.70690000000013L319.15850000000034 303.1648000000001L311.0825 311.89390000000003L308.2220000000001 322.35005L308.86150000000043 326.6250500000001L312.28350000000034 328.54105000000004L317.85300000000007 326.7486500000001L319.4965000000002 327.8511500000002L324.35450000000003 336.69985000000054L328.7434999999999 340.8261500000003L330.80150000000003 340.68910000000017L334.3915000000004 335.92100000000016L337.48800000000017 340.9546L336.4735000000002 346.61550000000034L343.66250000000036 349.9424000000005L349.2720000000003 358.3755500000001L346.4240000000001 370.30715000000043L352.6615000000004 375.5794000000003L354.4820000000004 374.5091500000001L356.79599999999994 378.42150000000004L363.6680000000001 382.08105000000046L366.6900000000004 383.6120500000004L366.7349999999999 389.0731000000005L364.8015000000004 388.9313000000004L356.01500000000044 396.39440000000036L358.698 399.5587500000005L354.06150000000025 406.7121500000002L356.8934999999999 416.7182500000001L354.461 420.22100000000023L355.4124999999999 420.8354000000003L354.554 424.2574000000002L358.22900000000004 425.3892000000002L355.93999999999994 428.8089000000002L357.7969999999999 434.4416000000001L353.0445000000003 437.6140000000004L354.73299999999995 445.5902500000002L349.54200000000014 445.0700500000005L348.947 436.9073500000002L345.3385000000003 427.0279500000004L343.25350000000014 426.6337500000003L336.1895000000004 431.38535000000047L328.0830000000003 433.7637000000001L323.3045000000004 429.63220000000035L317.7789999999999 432.4231500000002L313.87249999999995 432.7143000000001L310.49000000000035 425.32235000000014L304.24350000000004 419.9996500000003L298.2330000000002 419.1890000000001L294.67250000000035 420.92370000000017L291.5495000000004 416.4024500000005L287.6955000000004 404.66200000000015L286.3319999999999 390.47365000000013L282.6535000000001 392.1116500000005L270.8510000000001 388.7508500000001L268.7545 385.9734500000002L272.278 383.66975000000025L272.6429999999999 379.33565000000044L269.5785000000001 369.15940000000035L270.90300000000013 365.0156500000003L274.3240000000003 362.3684000000003L279.6315000000004 360.03540000000044L280.75500000000034 358.26990000000023L277.9105000000004 352.9501000000005L283.7190000000004 347.26875000000007L279.79700000000037 346.3752500000004L275.1875000000001 342.53295000000037L266.6040000000004 342.94595000000015L258.35849999999994 340.2281000000005L249.7320000000002 341.5041000000002L247.0780000000002 338.10445000000016L229.8240000000004 347.19930000000033L229.19250000000034 353.1492000000003L231.58600000000035 360.6122000000005L229.74649999999997 361.5618500000005L229.03750000000002 369.7876500000001L226.10150000000033 375.1968500000004L216.06150000000014 373.70235000000037L208.78649999999993 366.27350000000035L204.60950000000025 366.72860000000014L198.90649999999994 360.6626L193.0324999999999 358.4916500000003L188.60749999999996 365.53710000000024L191.97000000000003 375.15265L188.78550000000018 380.18410000000017L188.99800000000027 384.2185500000005L180.3264999999999 384.53220000000044L172.8245000000004 387.78355000000033L169.21899999999994 389.9372500000004L168.6250000000001 398.2726500000001L166.02300000000014 401.5049000000005L163.9250000000004 409.4136000000003L162.98550000000034 411.0691000000003L159.78700000000003 418.7370500000003L156.5790000000004 421.50130000000047L152.48850000000004 422.33705000000043L146.75450000000012 420.24370000000033L137.47749999999996 415.27525000000026L133.01500000000033 417.79945000000055L125.86000000000013 409.7356500000001L121.9625000000002 407.82920000000047L119.31750000000022 388.5821000000004L111.95600000000013 387.4251000000004L106.2885 382.11850000000027L106.20499999999993 376.4414500000004L103.42300000000023 371.1724000000004L100.63750000000027 349.1958500000004L101.1080000000004 348.6446500000005L89.46650000000034 342.14945L84.72900000000038 330.5890500000004L85.4970000000003 326.5476000000001L85.80300000000022 324.4304500000004L81.51700000000005 319.8076500000002L69.96399999999994 314.4867000000005L65.90700000000027 315.5016500000005L62.727500000000305 320.9251500000005L60.7589999999999 320.43560000000014L58.31099999999992 312.68250000000023L60.45400000000029 305.1768500000003L46.644000000000005 291.9862500000005L45.758500000000026 291.73820000000035L39.18350000000032 303.58325000000036L37.313500000000204 304.5351000000005L33.79549999999995 297.0325500000001L23.73199999999997 295.92475000000036L15.372500000000286 290.09345000000053L14.11200000000008 286.19610000000023L10.070499999999925 285.3391000000005L12.501000000000317 282.0748000000003L13.254499999999894 276.5785500000004L19.06000000000006 270.9212500000001L24.959499999999935 270.94340000000045L24.671000000000163 268.91020000000026L22.521500000000287 263.1370500000003L14.476999999999975 264.58780000000047L9.57400000000007 261.01405L3.620999999999981 260.1238000000001L2.708499999999958 258.2735500000001L0 244.5023500000002L1.5375000000000227 243.16720000000032L0.1290000000000191 239.1719500000005L1.11850000000004 237.2589000000005L0.006999999999948159 233.06010000000015L2.6564999999999372 218.16885000000013L11.496000000000208 203.31540000000018L16.397000000000048 207.59075000000053L20.801999999999907 204.52440000000024L21.76649999999995 199.3697000000003L19.773999999999887 195.71800000000053L23.713500000000067 188.42450000000042L30.967500000000427 180.92380000000048L38.202 176.7661000000004L44.91649999999993 176.85195000000022L57.89449999999988 175.2849500000002L63.493500000000154 172.10630000000037L67.79899999999998 172.5368500000002L71.28800000000012 175.15465000000006L81.58900000000017 171.77395000000047L86.92049999999995 167.95615000000055L92.69949999999994 168.90880000000038L92.71450000000016 173.0804500000005L94.27549999999997 174.4721000000004L98.32400000000007 173.6678500000005L100.8095000000003 170.3154500000005L104.86050000000034 169.9454000000003L109.75349999999992 175.97920000000045L126.71150000000011 164.3578500000001L141.3745 156.33080000000007L142.32500000000016 154.44515000000024L139.0915000000001 149.06830000000014L140.2215000000001 143.0785000000003L136.02300000000014 129.25130000000024L129.8290000000003 129.69540000000052L127.06350000000043 122.18525L123.23950000000025 120.54025000000024L131.85600000000022 115.86455000000001L130.13149999999996 110.0396500000005L135.11500000000012 103.62690000000043L133.74450000000024 97.52435000000048L122.64949999999999 93.87080000000026L124.16100000000029 89.66950000000054L139.29300000000012 83.4566000000001L139.6690000000001 87.58130000000051L146.841 91.30425000000002L150.09050000000002 83.76690000000053L150.20849999999996 81.65795000000003L145.87350000000015 77.27790000000027L146.65549999999996 71.05965000000026L148.67150000000038 70.44190000000015L157.1120000000002 71.27895000000024L160.5540000000002 66.0752500000001L169.7410000000002 61.57790000000034L169.0965 57.740700000000516z">
      <title id="t12">Deuxième circonscription de l'Allier</title>
      <desc id="d12">Cantons de : Cérilly, Commentry, Domérat-Montluçon Nord-Ouest, Ebreuil, Hérisson, Huriel, Marcillat-en-Combraille, Montluçon Est, Montluçon Nord-Est, Montluçon Ouest, Montluçon Sud, Montmarault</desc>
    </path><path class="circo" id="id-003-03" d="M512.6780000000002 378.6591000000004L504.9275 379.0489500000001L500.1185000000004 375.86370000000045L498.27950000000044 376.5169500000002L490.91700000000003 383.54085000000055L488.0525 386.45470000000046L482.26350000000025 388.30835000000036L481.9375000000002 384.2498500000005L484.60000000000036 378.8187000000005L483.89800000000037 368.7012500000003L485.7745 365.1944000000003L472.07449999999994 366.47310000000004L468.67650000000026 364.47640000000035L462.69600000000025 341.6755500000005L449.74350000000015 334.8808500000001L447.68050000000017 334.77265000000045L444.5519999999999 338.8279L438.3695 338.1665000000004L437.4335000000002 336.26465000000053L432.91600000000017 343.2102500000002L434.5165000000003 348.8996500000002L432.00050000000033 352.15445000000045L422.6125000000002 353.9626500000003L417.4860000000001 351.62170000000003L420.69050000000004 366.20840000000044L417.93800000000033 371.82335000000023L410.41200000000003 378.01935000000014L408.22900000000004 385.4093500000005L405.01750000000015 388.9871500000004L397.3815000000002 391.2592000000001L387.87300000000016 386.8408000000005L384.1945000000004 388.4347500000001L378.2715000000002 396.6503L370.8390000000003 389.38485000000014L366.7349999999999 389.0731000000005L364.8015000000004 388.9313000000004L356.01500000000044 396.39440000000036L358.698 399.5587500000005L354.06150000000025 406.7121500000002L356.8934999999999 416.7182500000001L354.461 420.22100000000023L355.4124999999999 420.8354000000003L354.554 424.2574000000002L358.22900000000004 425.3892000000002L355.93999999999994 428.8089000000002L357.7969999999999 434.4416000000001L353.0445000000003 437.6140000000004L354.73299999999995 445.5902500000002L356.9685000000004 447.3475000000002L361.01500000000044 451.69065000000046L374.7115000000002 454.78790000000004L382.90400000000034 454.70095000000015L382.9520000000002 450.4862000000003L394.26199999999994 450.9830500000004L397.85150000000044 449.57460000000026L400.97849999999994 454.2011000000002L401.8299999999999 452.52625000000023L405.50749999999994 452.77435000000025L405.745 456.23905000000036L409.7125 456.9735000000003L415.7275000000004 455.17810000000054L423.88599999999997 456.9318500000003L427.543 455.0807000000003L431.3364999999999 456.7823500000003L435.2019999999999 455.1922000000002L434.88699999999994 457.0604500000002L441.4150000000001 459.26485000000014L448.1245000000001 462.6786500000003L447.80850000000044 468.4680000000003L463.5680000000002 462.1079000000003L469.4195000000002 455.93095000000005L477.8275000000002 454.5612500000004L485.077 449.92075L486.7439999999999 453.8850000000002L491.5424999999999 458.2248500000003L495.7190000000003 458.5513000000003L499.4640000000004 456.4050500000002L501.04300000000023 459.1007000000002L502.4240000000003 464.55750000000023L507.19100000000026 470.84430000000054L503.5155000000003 472.5317000000001L505.3325000000001 478.39710000000025L503.94900000000007 490.4583500000001L507.7865000000003 488.88870000000054L513.5235 486.6972500000003L527.8720000000004 486.62935000000004L527.989 482.99270000000035L533.6170000000004 481.8506000000002L535.4815000000002 482.4039000000005L536.5780000000001 485.9274000000005L539.8860000000002 485.7633500000003L541.7185000000001 486.1232000000001L542.38 484.20455000000004L552.244 484.5399500000002L556.7335000000003 480.65950000000043L562.1795000000003 486.3062000000002L567.4250000000001 496.9924000000003L572.6850000000002 505.4293000000001L575.2865000000003 519.2723500000005L578.3325000000002 516.6047000000003L590.0110000000001 519.2173000000003L594.8464999999999 522.3970500000001L596.7625000000004 531.8208000000004L601.594 537.6747L601.7080000000004 527.1578500000004L606.1045000000001 522.6446500000003L604.9580000000003 516.4237000000003L608.2750000000004 511.2773500000003L622.0705000000004 515.8318500000001L625.7125000000002 513.7907000000001L627.6525000000004 507.80605000000037L629.6995000000004 507.2807L638.9190000000002 512.1017L642.7334999999999 510.50985000000026L646.7675000000003 505.7149500000003L650.8224999999999 504.8421000000002L656.5600000000001 502.70365000000027L657.097 498.6215500000003L660.1795000000004 495.79995000000054L660.324 495.66415000000006L658.3120000000002 495.3288500000002L657.1935000000002 491.42150000000015L653.4665000000001 483.7498000000005L652.516 473.0233500000003L649.074 462.9793500000005L655.7415000000003 440.2033L647.8944999999999 428.00640000000044L643.9224999999999 426.74045000000035L647.2230000000002 414.9569500000001L643.8839999999999 407.52740000000017L643.1325000000004 399.5200500000004L650.0319999999999 396.4459500000004L642.6555000000002 381.6581000000002L641.8745000000001 373.1853000000001L644.1790000000003 367.6449500000001L640.2895000000001 360.19450000000006L635.3660000000002 356.17380000000026L633.6360000000002 348.03935000000024L637.441 346.42255000000034L647.8385000000003 349.21610000000044L649.9585000000002 337.7202500000004L668.177 334.72410000000025L675.9735000000001 333.75710000000026L679.7025000000002 326.4344500000004L683.6475000000002 327.5308000000001L688.9945 326.22415000000046L686.0590000000002 320.7246500000002L690.0310000000002 315.6191000000001L702.6365000000004 313.7325500000003L709.5325000000003 309.15075L709.5305000000002 307.9591000000005L710.0240000000002 299.5096000000001L718.569 298.67695000000026L724.7739999999999 300.34470000000056L733.6365000000001 294.5042500000005L729.2950000000002 294.3935000000005L725.5959999999999 293.75955000000033L726.334 280.1753000000002L728.0995000000001 268.06265000000053L723.9879999999999 258.97965L722.1600000000001 251.14895000000047L726.5890000000002 245.12120000000039L725.1625000000001 239.6799500000003L724.9435 237.7176000000003L729.7005000000001 234.3623500000001L727.1415000000002 227.03345000000013L732.8375 224.8675000000003L733.5215 222.88765000000012L730.6445000000002 217.42980000000045L732.3485 213.60670000000027L731.1505 209.81340000000046L722.8059999999999 204.21275000000037L720.788 200.76400000000035L716.8810000000002 201.7330000000004L710.8675 210.2619500000003L711.4449999999999 216.5636500000005L705.958 222.5971000000004L707.7390000000003 226.43955000000005L704.1775000000001 227.54165L700.0749999999999 231.8022000000002L694.2675000000003 233.3838000000003L691.019 221.22225000000014L683.8375000000002 213.80225000000053L680.5355000000003 216.40450000000044L678.9240000000001 222.4466000000001L674.948 221.48625000000038L672.5380000000001 227.24685000000022L675.0965000000002 232.7006L674.7365000000002 236.7996000000005L670.1949999999999 242.7012000000002L659.11 248.1777500000004L656.9839999999999 248.33860000000016L655.1760000000002 244.46230000000014L650.933 237.90070000000014L643.5000000000002 240.73410000000024L640.9775000000002 233.44730000000027L637.1345000000002 231.94835000000012L632.518 235.97900000000038L624.8275000000001 232.79555000000016L617.7730000000003 236.70465000000036L615.3795000000002 230.95800000000054L607.5780000000003 233.13530000000014L603.9160000000004 231.03695000000016L605.8410000000003 223.0406000000005L602.4545 220.9274000000005L603.0375000000004 218.88315000000034L600.9129999999999 219.2977000000002L598.8370000000003 223.1066000000004L592.4709999999999 224.2624500000005L582.9520000000002 229.3362000000002L581.1920000000003 233.28640000000007L582.79 236.90255000000036L581.1695000000003 238.14425000000028L572.7145000000002 232.44595000000004L570.8115000000004 233.02495000000022L569.7125 236.9358500000004L563.5374999999999 236.0721000000001L559.3530000000004 228.79970000000014L553.3269999999999 229.97075000000052L547.3025000000001 221.76320000000032L539.5474999999999 227.97270000000026L538.0180000000001 233.78150000000005L534.3815000000001 234.73905000000002L537.9325 244.7008500000004L535.8685000000003 256.88965000000053L532.158 258.4571500000004L525.8935000000002 257.34440000000006L522.0269999999999 259.1614000000004L512.4705 254.68430000000012L512.5815 256.4552500000002L506.72500000000014 260.0320000000005L504.03850000000034 265.46320000000037L504.6840000000003 269.4719500000002L507.4305000000004 272.43325000000027L509.1070000000002 271.3456000000002L518.9805000000001 283.65590000000054L524.5275000000004 287.2562000000005L529.8900000000003 290.21840000000054L529.676 300.83020000000033L532.7700000000004 306.4585000000005L540.3305 317.6556500000004L542.276 318.09050000000013L544.3110000000001 318.39800000000025L541.9190000000003 324.1408000000001L543.2044999999999 325.79435000000046L538.6500000000001 332.34005000000025L533.0324999999999 334.8095500000005L532.1635000000003 340.9810500000003L526.3910000000004 342.0775000000003L526.3400000000001 352.4413500000003L530.2334999999999 351.53265000000033L533.5175000000004 353.71260000000007L536.9530000000003 365.0150500000001L535.3610000000003 366.4252000000005L526.7180000000002 371.35050000000035L522.6275000000004 371.46165000000053L517.2550000000001 374.6903000000003L512.6780000000002 378.6591000000004z">
      <title id="t13">Troisième circonscription de l'Allier</title>
      <desc id="d13">Cantons de : Cusset Nord, Cusset Sud, Le Donjon, Escurolles, Gannat, Jaligny-sur-Besbre, Lapalisse, Le Mayet-de-Montagne, Vichy Nord, Vichy Sud</desc>
    </path></svg>