<svg xmlns="http://www.w3.org/2000/svg" version="1.1" xmlns:xlink="http://www.w3.org/1999/xlink" xmlns:svgjs="http://svgjs.dev/svgjs" width="624.3475000000001" height="587.466" fill="#eeeeee" stroke="#cccccc" xmlns:sodipodi="http://sodipodi.sourceforge.net/DTD/sodipodi-0.dtd"><path class="circo" id="id-004-01" d="M498.3489999999995 458.2864999999998L501.5350000000001 463.32799999999963L509.0715 465.8594999999997L510.2284999999995 475.98900000000015L511.99499999999944 477.0224999999999L502.33150000000023 479.2180000000002L497.15349999999944 491.96099999999944L510.92949999999973 495.39799999999957L515.3605000000005 499.7094999999996L514.9720000000002 503.71249999999975L505.8100000000002 507.7809999999994L486.19249999999965 512.824L483.6099999999999 515.7749999999993L483.7615000000005 516.4979999999997L480.17349999999965 514.8689999999993L478.2860000000005 507.371L462.73000000000025 506.8594999999999L460.29300000000035 511.08199999999954L448.77250000000004 519.7454999999997L445.3785000000005 524.3694999999997L443.44349999999963 524.2775L444.87499999999955 520.3915000000001L443.33600000000047 514.3984999999992L442.12800000000016 512.6889999999997L434.4550000000004 505.8839999999992L420.36699999999996 514.5329999999996L413.0280000000005 511.46649999999966L407.4459999999999 514.0375L399.7844999999995 511.32000000000005L398.21800000000053 514.7729999999996L390.0274999999999 515.8530000000002L388.72550000000047 532.2109999999992L376.2950000000001 548.5779999999994L374.32800000000043 545.6749999999994L371.1575000000005 543.7584999999996L363.95650000000046 547.3560000000003L353.2050000000004 541.6429999999997L346.2329999999997 534.2415L327.0984999999996 522.6224999999994L322.56200000000035 511.4055000000002L319.3814999999995 509.06249999999943L308.5685000000001 510.0864999999993L302.8250000000003 511.36799999999937L293.35249999999974 524.0365000000003L291.5554999999995 530.2339999999998L285.1604999999995 538.3864999999997L273.0449999999996 546.7109999999997L267.953 547.1914999999996L260.40550000000053 541.9229999999999L253.78849999999943 551.4145000000002L251.6624999999999 551.7914999999999L252.31300000000033 553.6599999999993L249.82849999999985 559.033L243.2084999999995 565.9219999999999L239.70350000000053 566.3835L237.32150000000047 568.7790000000001L235.19949999999994 570.1735000000002L227.99750000000017 573.1130000000002L229.76949999999988 580.8234999999996L222.52349999999979 587.466L218.04200000000037 583.3154999999994L215.05599999999959 575.7130000000001L208.08850000000007 571.5204999999997L206.71249999999986 560.3079999999994L202.7589999999998 560.0679999999994L198.67700000000013 555.5189999999999L192.8264999999999 556.1669999999998L189.50500000000034 553.8184999999993L187.6030000000003 550.3209999999996L188.52150000000051 546.3404999999995L187.04250000000002 540.3884999999997L181.8005000000005 537.9574999999994L181.69099999999958 535.9134999999998L180.4155000000003 534.9864999999994L172.9105000000004 537.7870000000001L172.12099999999964 547.9450000000003L165.9495000000004 553.3265L160.1520000000005 555.3119999999996L151.97750000000042 555.1934999999997L149.12699999999973 558.1405000000001L146.57699999999977 548.3305000000001L141.80700000000002 541.8024999999994L120.35399999999981 536.0939999999999L121.24850000000038 534.8324999999994L131.55349999999999 524.8864999999995L138.54799999999955 507.3509999999993L139.4595000000004 503.4224999999998L150.4735000000005 489.4765000000001L153.86300000000006 482.28749999999934L161.7885000000001 466.0314999999997L165.24 456.84399999999926L166.37050000000045 445.1460000000003L160.09850000000029 437.9554999999999L156.10099999999989 429.30199999999957L155.50449999999955 424.12350000000004L150.85699999999974 410.4815000000002L144.96200000000044 404.6255000000002L149.95649999999955 398.6994999999996L155.93200000000024 403.9484999999996L158.58249999999998 396.7734999999999L165.57300000000055 393.2144999999997L166.12700000000018 381.08000000000004L168.10550000000035 377.5970000000001L164.5309999999995 368.0955L164.6169999999995 367.6409999999993L166.21849999999995 363.8655L173.38449999999966 360.0759999999997L181.3639999999998 359.29599999999994L183.53500000000054 355.85099999999954L183.1434999999999 351.7984999999993L185.70799999999963 348.63350000000025L181.83449999999993 343.8319999999993L167.06800000000044 336.67250000000024L162.32999999999947 325.4374999999999L172.26350000000025 323.01999999999964L175.6325000000004 321.2674999999996L178.51300000000037 318.6655000000002L180.21200000000022 313.0860000000001L178.82100000000037 309.4445000000002L180.58350000000019 303.8825000000003L186.67850000000044 296.5114999999997L194.41299999999956 296.58799999999985L193.81549999999947 298.77999999999986L208.2835 286.96650000000034L223.54299999999967 293.0045000000001L226.50049999999965 287.83999999999935L230.48649999999952 288.22299999999984L237.8264999999999 285.0539999999995L250.65249999999992 290.3854999999993L253.9930000000004 285.49399999999935L255.1845000000003 272.7049999999997L257.0164999999997 269.5569999999998L256.4134999999999 265.7944999999995L264.1769999999997 260.5884999999995L275.95800000000054 253.3699999999999L283.6030000000005 259.6769999999998L284.85649999999964 253.7639999999999L294.6545000000003 254.95649999999955L296.7994999999996 258.2869999999997L306.4099999999996 249.76599999999962L312.78549999999996 254.18549999999982L322.5310000000002 253.0159999999995L332.28399999999965 254.7739999999999L338.62300000000005 249.86049999999977L341.8534999999997 244.8059999999998L345.7804999999996 245.79949999999997L346.0685000000001 245.91849999999965L357.2969999999998 250.59949999999958L361.29050000000007 249.73799999999983L367.86249999999995 244.73749999999995L380.951 243.49850000000004L385.5600000000004 240.26049999999998L397.41449999999986 224.65800000000002L411.77549999999997 213.67399999999975L415.52400000000034 215.25699999999972L418.6665000000005 220.4359999999997L424.0115000000003 223.36899999999957L439.62850000000003 221.4085L445.0374999999997 200.48699999999997L461.63400000000024 209.3164999999999L465.9685000000002 218.74449999999968L469.3655000000001 221.07249999999965L478.7345000000005 216.8534999999997L484.56999999999994 219.12949999999967L501.0850000000005 217.82699999999977L511.29099999999994 220.3389999999996L514.5995000000005 225.39549999999963L513.1224999999995 233.6005L520.4669999999999 236.89449999999965L522.8155000000004 242.48149999999953L521.3374999999996 243.77499999999998L520.1295000000005 253.37199999999996L521.363 256.8194999999997L516.7759999999998 262.8499999999997L518.1759999999997 268.5319999999996L510.1464999999996 279.49400000000026L511.92300000000046 283.03799999999967L511.31899999999973 286.9720000000001L505.37000000000035 292.4435L512.8959999999995 306.3659999999999L514.1755 318.4530000000001L518.9080000000001 322.0585L521.2765000000002 326.4005000000003L528.1555000000003 333.8044999999994L531.9685000000004 340.81650000000025L534.8000000000002 344.96550000000013L531.06 354.49900000000014L530.2115000000003 366.7085000000003L541.028 376.3605000000001L548.6135000000002 379.44699999999955L551.4089999999999 387.22849999999937L569.7545000000002 398.10599999999965L568.0484999999999 401.89749999999947L572.6274999999998 405.23999999999944L573.7249999999995 412.5619999999998L574.0805 418.5589999999996L584.221 419.5414999999997L588.1500000000005 428.7134999999995L592.2789999999998 433.22499999999934L595.6539999999995 435.27949999999976L599.5749999999998 433.9910000000003L601.3170000000002 435.09299999999996L608.46 445.1150000000001L613.4460000000001 448.70799999999974L613.7625000000003 452.67300000000034L611.7705000000001 453.2215000000002L603.7350000000004 454.84999999999957L592.6485000000002 456.96650000000034L588.7649999999996 456.4609999999999L585.2639999999997 451.5005000000002L574.4944999999996 442.73799999999994L568.5730000000001 441.95449999999994L567.0169999999996 440.1664999999997L553.8824999999997 444.95150000000024L545.4845 460.7544999999999L531.2289999999996 467.65199999999993L517.8129999999999 463.1004999999999L498.3489999999995 458.2864999999998z">
      <title id="t14">Première circonscription des Alpes-de-Haute-Provence</title>
      <desc id="d14">Cantons de : Allos-Colmars, Annot, Barrême, Castellane, Digne Est, Digne Ouest, Entrevaux, La Javie, Les Mées, Mézel, Moustiers-Sainte-Marie, Peyruis, Riez, Saint-André-les-Alpes, Valensole, Volonne</desc>
    </path><path class="circo" id="id-004-02" d="M56.51399999999967 302.94299999999964L59.76949999999988 293.6409999999995L55.93499999999949 289.0134999999992L50.487000000000535 286.32900000000006L47.245000000000346 279.16499999999985L44.153499999999894 278.69399999999985L40.841500000000224 281.0669999999999L34.6550000000002 280.58100000000024L33.002500000000055 281.84000000000026L28.13949999999977 290.90300000000013L35.1075000000003 298.19500000000005L35.285499999999956 300.23349999999994L30.71050000000014 304.1059999999999L22.596999999999525 303.4949999999998L22.58950000000027 303.7349999999998L18.692499999999654 313.1979999999993L5.4930000000001655 318.7089999999995L4.016500000000178 322.3774999999995L0.26449999999954343 323.5859999999997L0 348.8100000000003L1.9005000000004202 354.5165000000003L8.062499999999773 354.52650000000006L19.73449999999957 350.70449999999994L18.999000000000024 377.57499999999993L9.097000000000435 395.56149999999946L6.376999999999953 407.7605L4.167999999999665 416.94699999999955L6.166500000000497 424.2659999999995L13.360000000000127 423.90199999999993L19.90199999999959 428.01350000000014L29.52449999999999 425.89749999999924L36.21849999999995 441.66999999999973L46.06899999999996 441.5699999999998L39.15399999999977 458.5869999999994L31.69399999999996 472.5754999999998L26.844999999999573 476.13749999999925L21.45599999999945 481.7360000000002L19.812500000000455 499.6179999999998L22.4249999999995 499.73450000000014L27.89449999999988 497.77999999999963L31.260999999999513 492.73999999999944L43.017999999999574 494.0124999999995L55.04599999999982 491.84950000000015L56.615000000000464 493.16449999999975L63.22149999999965 494.61749999999995L66.42100000000028 495.20249999999976L68.69800000000055 500.73699999999974L74.9369999999999 505.65800000000024L79.10849999999982 516.2025L83.65750000000048 519.2889999999994L88.0555000000004 521.9739999999996L91.54449999999997 521.1079999999998L92.69900000000007 535.3444999999994L106.19000000000028 544.4319999999999L110.14949999999999 551.5354999999994L120.35399999999981 536.0939999999999L121.24850000000038 534.8324999999994L131.55349999999999 524.8864999999995L138.54799999999955 507.3509999999993L139.4595000000004 503.4224999999998L150.4735000000005 489.4765000000001L153.86300000000006 482.28749999999934L161.7885000000001 466.0314999999997L165.24 456.84399999999926L166.37050000000045 445.1460000000003L160.09850000000029 437.9554999999999L156.10099999999989 429.30199999999957L155.50449999999955 424.12350000000004L150.85699999999974 410.4815000000002L144.96200000000044 404.6255000000002L149.95649999999955 398.6994999999996L155.93200000000024 403.9484999999996L158.58249999999998 396.7734999999999L165.57300000000055 393.2144999999997L166.12700000000018 381.08000000000004L168.10550000000035 377.5970000000001L164.5309999999995 368.0955L164.6169999999995 367.6409999999993L166.21849999999995 363.8655L173.38449999999966 360.0759999999997L181.3639999999998 359.29599999999994L183.53500000000054 355.85099999999954L183.1434999999999 351.7984999999993L185.70799999999963 348.63350000000025L181.83449999999993 343.8319999999993L167.06800000000044 336.67250000000024L162.32999999999947 325.4374999999999L172.26350000000025 323.01999999999964L175.6325000000004 321.2674999999996L178.51300000000037 318.6655000000002L180.21200000000022 313.0860000000001L178.82100000000037 309.4445000000002L180.58350000000019 303.8825000000003L186.67850000000044 296.5114999999997L194.41299999999956 296.58799999999985L193.81549999999947 298.77999999999986L208.2835 286.96650000000034L223.54299999999967 293.0045000000001L226.50049999999965 287.83999999999935L230.48649999999952 288.22299999999984L237.8264999999999 285.0539999999995L250.65249999999992 290.3854999999993L253.9930000000004 285.49399999999935L255.1845000000003 272.7049999999997L257.0164999999997 269.5569999999998L256.4134999999999 265.7944999999995L264.1769999999997 260.5884999999995L275.95800000000054 253.3699999999999L283.6030000000005 259.6769999999998L284.85649999999964 253.7639999999999L294.6545000000003 254.95649999999955L296.7994999999996 258.2869999999997L306.4099999999996 249.76599999999962L312.78549999999996 254.18549999999982L322.5310000000002 253.0159999999995L332.28399999999965 254.7739999999999L338.62300000000005 249.86049999999977L341.8534999999997 244.8059999999998L345.7804999999996 245.79949999999997L346.0685000000001 245.91849999999965L357.2969999999998 250.59949999999958L361.29050000000007 249.73799999999983L367.86249999999995 244.73749999999995L380.951 243.49850000000004L385.5600000000004 240.26049999999998L397.41449999999986 224.65800000000002L411.77549999999997 213.67399999999975L415.52400000000034 215.25699999999972L418.6665000000005 220.4359999999997L424.0115000000003 223.36899999999957L439.62850000000003 221.4085L445.0374999999997 200.48699999999997L461.63400000000024 209.3164999999999L465.9685000000002 218.74449999999968L469.3655000000001 221.07249999999965L478.7345000000005 216.8534999999997L484.56999999999994 219.12949999999967L501.0850000000005 217.82699999999977L511.29099999999994 220.3389999999996L514.5995000000005 225.39549999999963L513.1224999999995 233.6005L520.4669999999999 236.89449999999965L522.8155000000004 242.48149999999953L526.7570000000001 242.05899999999986L529.2579999999998 238.8624999999996L534.9865 236.73450000000003L537.6064999999994 227.13049999999953L549.1890000000001 230.74149999999975L547.5334999999995 220.9944999999999L551.6125 214.21299999999974L551.9494999999995 204.40249999999992L555.2255000000002 201.95400000000006L557.5175000000002 196.336L563.2484999999997 194.23699999999997L570.6724999999994 187.1814999999998L576.4835000000005 188.31699999999955L580.0549999999998 186.65549999999996L583.7004999999999 182.95149999999978L590.4544999999996 178.04499999999962L590.2904999999998 175.94249999999988L594.0719999999999 171.14599999999996L593.8379999999995 143.8745L601.2874999999997 140.21649999999966L607.5625000000002 140.01419999999996L613.3489999999995 137.48784999999998L613.7270000000001 135.5755499999998L611.2895000000003 132.13814999999954L602.8520000000003 125.87909999999965L601.4930000000004 124.26564999999982L597.6004999999998 114.48689999999999L587.0659999999998 107.65224999999987L585.3740000000005 101.77544999999952L583.4820000000002 100.84484999999972L579.3640000000005 93.87585000000001L576.762 77.29319999999973L583.0240000000003 71.88834999999983L586.9569999999999 64.42264999999963L599.1279999999995 61.18159999999989L603.5410000000002 54.28754999999967L608.7919999999997 50.855249999999614L612.2109999999998 34.480049999999665L618.7485000000004 24.045399999999972L624.3475000000001 22.03429999999969L618.655 13.129199999999628L616.3395000000003 2.975500000000011L612.7710000000002 4.579049999999825L602.2850000000005 0L599.0279999999996 2.035049999999501L596.4215000000002 7.554799999999773L588.2624999999996 17.003599999999892L578.2595000000003 19.052049999999667L575.5470000000003 26.835549999999557L572.4670000000003 29.633849999999597L562.2220000000004 30.899499999999875L557.1145000000001 34.51464999999985L553.2704999999999 33.17214999999976L550.7830000000001 38.87315000000001L544.8945000000003 39.81020000000001L540.213 44.00684999999953L540.1824999999997 50.16849999999977L534.5129999999995 52.86585000000002L527.1804999999995 63.005549999999744L512.9470000000003 71.70464999999979L502.5490000000002 70.61999999999955L503.5775000000001 76.48239999999987L497.405 95.17134999999996L491.08600000000024 98.61474999999984L486.0029999999995 103.96244999999965L482.02049999999986 126.96799999999996L469.60699999999974 126.3648999999998L463.55999999999995 127.7782499999995L462.18200000000024 127.51689999999996L458.24299999999994 126.30179999999996L450.222 127.51509999999996L440.7129999999995 124.0125999999998L435.0464999999997 126.27444999999966L431.08150000000023 125.14205000000004L425.33500000000004 125.4813999999999L417.9920000000004 122.73609999999962L412.2225000000003 123.72564999999952L408.3585000000005 116.59684999999968L402.4720000000002 114.96984999999995L399.6455000000003 111.95924999999988L390.0490000000002 113.73589999999979L387.25149999999985 110.8883499999996L386.8475000000001 106.97974999999985L382.78400000000033 98.83224999999982L377.5109999999995 96.15094999999997L370.7344999999998 89.16965000000005L367.1399999999994 82.19474999999989L365.1739999999995 81.85855000000004L361.03650000000016 86.15624999999966L355.58850000000007 88.55579999999975L354.55799999999954 89.38779999999952L360.48900000000003 95.30419999999992L357.8895 107.32579999999984L356.7949999999996 112.73709999999994L353.31950000000006 113.87225000000001L352.31149999999957 117.11909999999989L346.413 115.34089999999992L339.9464999999998 110.36839999999984L338.02350000000047 106.71344999999974L328.9155000000005 111.61914999999965L324.7104999999999 115.80184999999972L312.53649999999993 116.94579999999974L312.2154999999998 117.46389999999963L315.39750000000026 126.47324999999967L318.00700000000006 129.19269999999983L324.8490000000004 147.59394999999984L317.2810000000004 162.1584999999999L309.8670000000004 165.74899999999957L302.99049999999966 152.83714999999972L298.2375000000002 145.94875000000002L291.8685000000005 140.52774999999997L287.21450000000004 131.3309499999997L282.28700000000003 134.40359999999998L279.69600000000014 129.82730000000004L279.4245000000001 118.00459999999987L269.28800000000024 114.32664999999986L265.88750000000005 113.64414999999951L262.2974999999997 109.89604999999983L259.9165000000005 109.92525L256.78300000000036 111.9640499999997L252.11950000000002 108.83999999999958L248.42499999999973 108.8131999999996L245.9540000000004 113.64179999999976L248.10299999999984 116.67129999999986L244.83650000000011 128.0979499999995L243.5545000000002 129.58679999999958L237.18849999999975 125.46114999999986L227.0920000000001 132.97564999999963L223.80599999999959 135.4921999999999L221.48649999999975 143.49304999999958L209.94500000000016 147.9407999999995L203.7609999999995 150.61094999999966L201.18150000000014 152.88174999999967L193.54100000000017 157.85049999999956L188.36400000000026 171.14549999999952L186.70550000000048 178.73099999999965L181.84799999999996 184.8415L178.12900000000013 191.50199999999984L176.28199999999993 192.12400000000002L172.36149999999952 192.26249999999993L172.38449999999943 198.32149999999956L169.54500000000053 203.4824999999995L174.1840000000002 207.26549999999975L179.6939999999995 205.3344999999996L181.4689999999996 206.3639999999998L180.7860000000005 212.87049999999965L181.18650000000002 214.73099999999988L181.72950000000014 218.50599999999986L176.5205000000003 221.29699999999957L177.66650000000027 225.20600000000002L176.72800000000052 233.04149999999993L180.67450000000008 233.94199999999955L181.30599999999959 235.88449999999966L179.5519999999999 239.52849999999955L180.0604999999996 244.94550000000004L175.98349999999982 244.29249999999968L162.34249999999975 231.45299999999963L160.19049999999993 227.90949999999953L160.3665000000001 219.68649999999968L149.1255000000001 213.92849999999953L143.63749999999982 215.78449999999975L143.5450000000003 219.72249999999974L138.06400000000053 228.29499999999996L139.65349999999944 236.1574999999999L141.55250000000024 238.476L153.49000000000046 246.72649999999976L154.55349999999953 252.81399999999962L157.7909999999997 255.45349999999985L159.17400000000043 259.3025L162.3694999999998 266.57699999999977L175.93449999999962 270.8249999999998L174.9980000000005 278.6345L170.91750000000047 279.0654999999998L153.3834999999999 276.5174999999999L141.3480000000004 273.40149999999994L132.90750000000003 267.27899999999977L124.84649999999988 266.6229999999996L118.19100000000049 270.3494999999998L108.96100000000047 267.83050000000003L102.36149999999952 272.6144999999997L92.13250000000016 274.53949999999963L84.90750000000048 278.4284999999994L82.54800000000046 281.79599999999994L75.59750000000008 278.7349999999998L74.38999999999965 280.1510000000002L65.20849999999996 279.8349999999999L61.93750000000023 291.1255L62.75949999999966 292.9509999999999L78.44150000000013 295.2969999999999L76.68900000000008 305.59699999999964L62.482499999999845 304.10849999999925L56.51399999999967 302.94299999999964z">
      <title id="t15">Deuxième circonscription des Alpes-de-Haute-Provence</title>
      <desc id="d15">Cantons de : Banon, Barcelonnette, Forcalquier, Le Lauzet-Ubaye, Manosque Nord, Manosque Sud-Est, Manosque Sud-Ouest, La Motte, Noyers-sur-Jabron, Reillanne, Saint-Etienne, Seyne, Sisteron, Turriers</desc>
    </path></svg>