<svg xmlns="http://www.w3.org/2000/svg" version="1.1" xmlns:xlink="http://www.w3.org/1999/xlink" xmlns:svgjs="http://svgjs.dev/svgjs" width="704.502" height="562.0022" fill="#eeeeee" stroke="#cccccc" xmlns:sodipodi="http://sodipodi.sourceforge.net/DTD/sodipodi-0.dtd"><path class="circo" id="id-005-01" d="M88.9364999999998 355.0775999999996L83.55300000000057 356.0202499999997L76.0145 349.7605999999996L79.94200000000092 335.8151499999997L80.2215000000001 334.8034000000001L83.0905000000007 332.7332000000001L85.01700000000028 325.4877499999998L88.36950000000002 323.90094999999974L88.86150000000043 318.91819999999996L92.92149999999992 310.41319999999985L96.7730000000006 309.9941000000001L98.20550000000026 304.34714999999983L95.39200000000051 301.4337499999999L94.13850000000025 295.45275000000004L94.91300000000024 285.41139999999984L99.09350000000018 282.94209999999964L102.38900000000058 285.43229999999994L112.67000000000053 286.0715499999998L130.52450000000022 291.98069999999973L140.5759999999998 285.4155499999996L142.5369999999998 279.76819999999975L149.91150000000061 283.50435000000004L158.19900000000075 284.0880499999997L162.61799999999994 271.2230999999997L167.82850000000053 268.18915000000004L174.9185 261.41025000000013L173.0060000000003 255.58915000000013L167.57299999999987 253.18054999999958L162.8105000000005 252.12150000000008L166.9965000000002 247.78869999999984L170.20150000000058 237.84299999999973L174.6645000000001 230.79129999999964L173.70049999999992 220.46420000000012L179.62150000000065 222.45135000000005L182.58050000000026 225.35165000000006L198.50549999999998 227.88905L201.77099999999996 222.93014999999968L205.62350000000038 221.48114999999962L213.00550000000044 224.59574999999973L220.70550000000026 218.22855000000004L226.41450000000077 220.50729999999987L226.61699999999996 235.5516L232.55899999999997 247.00099999999964L243.7110000000007 254.72395000000006L237.22200000000043 264.9433499999998L242.7335000000005 277.90324999999996L247.62000000000057 277.7986999999996L252.7105000000006 280.79234999999983L257.46399999999994 277.8255999999999L261.32900000000063 278.33529999999996L267.0625000000007 288.70844999999974L266.07849999999985 296.58095000000003L271.0149999999999 300.12474999999995L282.7920000000006 298.55594999999994L286.08100000000036 296.1670499999997L285.73350000000005 302.46440000000007L288.1045000000006 305.8499999999998L292.02350000000024 307.3545999999999L298.11300000000074 306.00345000000004L304.1395 307.49075000000005L306.51200000000017 308.35465L313.53050000000053 307.2530999999998L318.61800000000017 310.60959999999966L320.82700000000045 316.34090000000015L319.2425000000003 317.63194999999996L328.6475000000007 321.77104999999983L355.22300000000087 316.9288499999999L360.76099999999997 314.0337999999997L361.5255000000002 317.9804999999999L354.3560000000002 334.25455L354.60300000000075 338.27949999999987L353.6009999999999 344.29485L358.31350000000043 348.0741499999999L358.0155000000002 350.1034999999996L349.4375000000002 363.58119999999985L342.2975000000008 363.4542499999998L340.36550000000034 370.42599999999993L332.70399999999995 370.78949999999963L329.2990000000009 368.97594999999967L326.5179999999998 371.33305000000007L321.8565000000001 382.1550500000001L318.55500000000006 383.7880000000001L315.5790000000002 385.17605000000003L313.5475000000008 385.15935000000013L303.1905000000006 394.53284999999994L299.7900000000004 393.8503499999996L296.20000000000005 390.1022499999999L293.81900000000087 390.1314500000001L290.68550000000073 392.1702499999998L286.0220000000004 389.04619999999966L282.3275000000001 389.0193999999997L279.8565000000008 393.84799999999984L282.0055000000002 396.87749999999994L278.7390000000005 408.3041499999996L277.45700000000056 409.79299999999967L271.0910000000001 405.66734999999994L260.99450000000047 413.1818499999997L257.70849999999996 415.6984L255.38900000000012 423.69924999999967L243.84750000000054 428.1469999999996L237.66349999999989 430.81714999999974L235.08400000000051 433.08794999999975L227.44350000000054 438.05669999999964L222.26650000000063 451.3516999999996L220.60800000000086 458.93719999999973L215.75050000000033 465.0477000000001L212.0315000000005 471.7081999999999L210.1845000000003 472.3302000000001L206.2639999999999 472.4687L206.2869999999998 478.52769999999964L203.4475000000009 483.6886999999996L208.08650000000057 487.4716999999998L213.59649999999988 485.5406999999997L215.37149999999997 486.5701999999999L214.6885000000009 493.07669999999973L215.0890000000004 494.93719999999996L215.63200000000052 498.71219999999994L210.42300000000068 501.50319999999965L211.56900000000064 505.4122000000001L210.6305000000009 513.2477L214.57700000000045 514.1481999999996L215.20849999999996 516.0906999999997L213.45450000000028 519.7346999999996L213.96299999999997 525.1517000000001L209.8860000000002 524.4986999999998L196.24500000000012 511.6591999999997L194.0930000000003 508.1156999999996L194.26900000000046 499.89269999999976L183.02800000000047 494.1346999999996L177.5400000000002 495.99069999999983L177.44750000000067 499.9286999999998L171.9665000000009 508.50120000000004L173.5559999999998 516.3637L175.4550000000006 518.6822000000001L187.39250000000084 526.9326999999998L188.4559999999999 533.0201999999997L191.69350000000009 535.6596999999999L193.0765000000008 539.5087000000001L196.27200000000016 546.7831999999999L209.837 551.0311999999999L208.90050000000087 558.8407000000001L204.82000000000085 559.2716999999999L187.28600000000029 556.7237L175.25050000000078 553.6077L166.8100000000004 547.4851999999998L158.74900000000025 546.8291999999997L152.09350000000086 550.5556999999999L142.86350000000084 548.0367000000001L136.2639999999999 552.8206999999998L126.03500000000054 554.7456999999997L118.81000000000085 558.6346999999995L116.45050000000083 562.0022L109.50000000000045 558.9411999999999L113.40750000000071 557.6061999999996L113.7015000000008 555.5341999999996L109.79150000000004 545.9127000000001L111.66600000000017 535.6621999999999L108.0580000000009 526.7771999999997L108.74149999999986 520.7301999999999L114.01200000000017 514.6726999999998L109.31850000000054 508.84569999999997L97.0659999999998 514.0661999999998L96.56700000000001 510.0291999999996L91.04400000000055 504.2086999999998L91.20400000000018 500.1981999999998L94.27400000000034 498.2691999999997L91.5485000000001 494.00620000000004L87.94800000000009 492.97120000000007L84.00800000000004 488.95669999999996L80.7185000000004 490.8956999999998L82.80050000000074 485.1612L90.02250000000004 477.9861999999997L90.45200000000023 475.9832L87.29900000000043 473.60869999999977L83.87850000000071 475.28219999999976L72.16300000000047 475.4141999999996L71.62700000000086 475.49769999999967L64.98850000000061 474.64319999999987L61.14800000000059 473.9992000000001L55.563000000000784 476.3592L51.67350000000056 475.27019999999993L50.36950000000047 469.5286999999996L43.6080000000004 465.2812L36.07349999999997 468.23019999999985L31.683500000000322 472.4691999999999L25.57450000000017 464.20469999999966L21.44549999999981 464.0211999999997L18.863999999999805 454.57719999999995L10.84850000000074 454.27369999999996L7.037000000000262 453.45969999999966L5.496000000000549 449.76470000000006L10.296000000000731 446.2347L9.904999999999973 440.0416999999999L6.1380000000008295 428.1547499999999L0 420.35545000000013L8.57900000000086 415.12639999999976L23.088999999999942 422.63824999999997L26.821499999999787 421.4855499999999L28.751000000000886 417.85889999999995L31.968500000000404 418.30344999999966L33.76800000000003 413.41814999999997L32.76550000000043 412.00324999999964L21.30200000000059 407.4813999999998L19.311999999999898 404.1157999999996L17.77400000000057 394.26964999999996L20.581500000000688 391.33219999999994L17.831500000000915 383.8153999999997L17.218000000000302 382.39575L16.765000000000327 376.6556499999996L22.291999999999916 375.5568999999997L24.02500000000032 378.9765L27.513999999999896 380.7877500000001L39.37000000000012 380.6167499999998L55.811499999999796 387.5302499999998L60.36600000000021 390.86524999999995L62.175000000000864 390.30179999999973L64.05050000000074 389.5101999999997L78.7295000000006 396.1080999999996L84.72500000000082 390.66869999999994L88.37350000000015 376.8820999999997L91.28900000000044 374.30669999999964L98.96299999999997 375.96029999999985L104.59850000000074 374.42769999999996L96.87250000000063 363.5913499999998L88.9364999999998 355.0775999999996z">
      <title id="t16">Première circonscription des Hautes-Alpes</title>
      <desc id="d16">Cantons de : Aspres-sur-Buëch, Barcillonnette, La Bâtie-Neuve, Gap Campagne, Gap Centre, Gap Nord-Est, Gap Nord-Ouest, Gap Sud-Est, Gap Sud-Ouest, Laragne-Monteglin, Orpierre, Ribiers, Rosans, Saint-Etienne-en-Dévoluy, Serres, Tallard, Veynes</desc>
    </path><path class="circo" id="id-005-02" d="M622.6355000000001 167.49905000000012L614.7450000000003 165.98115000000007L610.0255000000004 161.91274999999962L604.0785000000005 159.93529999999964L590.2890000000002 150.51305000000013L586.9024999999999 143.05540000000008L580.7310000000007 142.61744999999962L576.2620000000004 135.5288999999999L566.3795000000005 133.07649999999967L566.0739999999998 122.67574999999965L569.2815000000007 115.31830000000014L565.5200000000002 113.65579999999966L571.3510000000008 102.63235000000009L571.9945000000007 96.46909999999991L564.4275000000005 84.63255000000004L560.7839999999999 82.80149999999992L560.5759999999998 80.67889999999977L566.0845000000006 77.6961L565.3700000000003 73.50664999999992L563.1035000000008 67.54075L561.4769999999999 66.17354999999975L555.5730000000005 63.779349999999795L534.3844999999999 63.74750000000006L532.9105000000004 62.214799999999855L530.24 56.42614999999978L531.1875000000009 50.203449999999634L528.4175000000005 44.54880000000003L528.7234999999998 36.06499999999983L527.912 34.090549999999666L522.3180000000002 31.12419999999986L521.0014999999999 24.954099999999926L513.6725000000001 14.603099999999927L514.9400000000003 10.552900000000136L507.9455000000007 3.54849999999999L497.9200000000003 4.609199999999873L492.2205000000008 2.2595000000001164L486.8560000000002 7.846450000000118L484.47450000000003 13.40485000000001L474.65149999999994 16.788199999999733L470.66400000000044 15.84949999999992L464.1240000000005 10.74799999999982L451.9270000000006 21.917100000000005L454.9040000000002 34.11884999999984L454.20400000000086 42.4069499999996L439.7715000000005 44.83394999999973L432.0130000000006 38.44245000000001L425.84299999999985 39.51289999999972L419.8040000000003 37.68910000000005L415.8705000000009 39.04839999999979L402.2655000000009 34.12485000000004L406.39800000000037 26.827949999999987L402.3605000000009 14.973400000000083L389.24100000000067 2.354649999999765L388.66449999999986 4.355049999999778L381.92999999999984 8.982899999999745L371.86199999999985 10.969049999999925L364.8689999999999 7.176749999999856L357.9320000000007 0L344.6275000000003 12.070449999999937L350.58700000000044 34.25905L340.7249999999999 37.01514999999972L336.2549999999999 50.89580000000012L335.8820000000003 59.291749999999865L333.43349999999987 62.54070000000013L333.5245000000009 68.84534999999971L338.29950000000053 72.91335000000004L356.0649999999998 78.60005000000001L374.2055000000005 74.09694999999999L382.42650000000026 74.00374999999997L384.3315000000007 77.75679999999966L381.57850000000053 83.41385000000002L381.4885000000004 87.63395000000003L386.68300000000045 96.54834999999991L384.8380000000009 104.51339999999959L387.47550000000047 107.71005000000002L399.41550000000007 111.42639999999972L397.71400000000085 121.79575L399.3190000000004 132.00535000000002L397.9230000000007 138.12090000000012L399.5760000000007 143.98699999999963L396.7910000000006 147.16020000000015L396.1419999999998 151.2993499999999L398.22200000000066 163.47634999999968L390.12800000000084 167.34620000000007L382.94899999999984 163.28750000000014L376.5420000000006 152.70215000000007L372.3810000000003 151.98724999999968L360.7065 154.9210499999998L352.95900000000074 164.8336999999998L344.5575000000008 165.16824999999983L330.6529999999998 160.9863999999999L327.3700000000008 163.6244499999998L319.29550000000063 164.93499999999983L314.30000000000064 161.4006999999998L302.6305000000002 158.86500000000012L295.2785000000006 169.0480500000001L288.55099999999993 173.42129999999997L271.2020000000007 186.8565000000001L260.0279999999998 173.5039999999998L254.07600000000002 175.18699999999967L248.64000000000033 184.1357499999998L238.34050000000047 185.19090000000006L225.73300000000017 193.61649999999997L230.61300000000074 198.4675999999996L237.7455000000009 201.72624999999982L238.8040000000001 207.59829999999965L227.2829999999999 213.5077000000001L226.41450000000077 220.50729999999987L226.61699999999996 235.5516L232.55899999999997 247.00099999999964L243.7110000000007 254.72395000000006L237.22200000000043 264.9433499999998L242.7335000000005 277.90324999999996L247.62000000000057 277.7986999999996L252.7105000000006 280.79234999999983L257.46399999999994 277.8255999999999L261.32900000000063 278.33529999999996L267.0625000000007 288.70844999999974L266.07849999999985 296.58095000000003L271.0149999999999 300.12474999999995L282.7920000000006 298.55594999999994L286.08100000000036 296.1670499999997L285.73350000000005 302.46440000000007L288.1045000000006 305.8499999999998L292.02350000000024 307.3545999999999L298.11300000000074 306.00345000000004L304.1395 307.49075000000005L306.51200000000017 308.35465L313.53050000000053 307.2530999999998L318.61800000000017 310.60959999999966L320.82700000000045 316.34090000000015L319.2425000000003 317.63194999999996L328.6475000000007 321.77104999999983L355.22300000000087 316.9288499999999L360.76099999999997 314.0337999999997L361.5255000000002 317.9804999999999L354.3560000000002 334.25455L354.60300000000075 338.27949999999987L353.6009999999999 344.29485L358.31350000000043 348.0741499999999L358.0155000000002 350.1034999999996L349.4375000000002 363.58119999999985L342.2975000000008 363.4542499999998L340.36550000000034 370.42599999999993L332.70399999999995 370.78949999999963L329.2990000000009 368.97594999999967L326.5179999999998 371.33305000000007L321.8565000000001 382.1550500000001L318.55500000000006 383.7880000000001L315.5790000000002 385.17605000000003L313.5475000000008 385.15935000000013L303.1905000000006 394.53284999999994L313.32700000000045 398.21079999999995L313.5985000000005 410.0335000000001L316.1895000000004 414.60980000000006L321.1170000000004 411.53714999999977L325.77100000000087 420.73395000000005L332.14000000000055 426.1549500000001L336.89300000000003 433.0433499999998L343.7695000000008 445.95519999999965L351.1835000000008 442.36469999999997L358.75150000000076 427.8001499999999L351.90950000000043 409.3988999999999L349.30000000000064 406.67944999999975L346.11800000000017 397.6700999999997L346.4390000000003 397.1519999999998L358.6130000000003 396.0080499999998L362.8180000000009 391.82534999999973L371.92600000000084 386.9196499999998L373.84900000000016 390.5745999999999L380.3155000000004 395.5471L386.21399999999994 397.32529999999997L387.22200000000043 394.0784500000001L390.6975 392.9433L391.79200000000037 387.5319999999999L394.3915000000004 375.5104L388.4604999999999 369.5939999999996L389.49100000000044 368.76199999999983L394.93900000000053 366.36244999999974L399.0764999999999 362.0647500000001L401.0424999999998 362.40094999999997L404.63700000000017 369.3758500000001L411.4134999999999 376.35715000000005L416.6865000000007 379.0384499999999L420.75000000000045 387.18594999999993L421.1540000000002 391.0945499999997L423.9515000000006 393.94209999999987L433.5480000000007 392.16544999999996L436.3745000000006 395.17605000000003L442.2610000000009 396.80304999999976L446.1250000000007 403.9318499999996L451.8945000000008 402.9422999999997L459.2375000000004 405.6876L464.9840000000006 405.3482500000001L468.94900000000007 406.48064999999974L474.6154999999999 404.2187999999999L484.12450000000035 407.72130000000004L492.1455000000003 406.50800000000004L496.0845000000006 407.72310000000004L497.4625000000003 407.9844499999996L503.5095000000001 406.5710999999999L515.9230000000002 407.17420000000004L519.9054999999998 384.16864999999973L524.9885000000006 378.8209499999999L531.3075000000003 375.37755000000004L537.4800000000005 356.68859999999995L536.4515000000006 350.82619999999963L546.8495000000007 351.91084999999987L561.0829999999999 343.2117499999998L568.4154999999998 333.0720500000001L574.085 330.37469999999985L574.1155000000003 324.2130499999996L578.7970000000007 320.0164000000001L584.6855000000005 319.0793500000001L587.1730000000002 313.37834999999984L591.0170000000005 314.7208499999999L596.1245000000008 311.10569999999996L606.3695000000007 309.8400499999997L609.4495000000006 307.04174999999964L612.1620000000007 299.25824999999975L622.165 297.2098L630.3240000000005 287.76099999999985L632.9304999999999 282.2412499999996L636.1875000000009 280.2062000000001L646.6735000000006 284.7852499999999L650.2420000000006 283.1817000000001L654.1650000000004 278.6770999999999L654.4635000000005 272.7071000000001L656.5530000000001 269.2620499999998L660.5195000000003 268.96619999999984L666.3485000000003 263.1511499999999L670.2515000000005 262.0074999999997L674.1354999999999 263.5845499999999L684.4305000000008 261.48019999999974L697.6445000000001 267.8454499999998L699.7440000000006 268.06719999999984L703.8400000000001 267.3523499999999L704.502 265.3390999999999L703.8265000000001 261.1543999999998L699.7325000000001 249.14269999999988L690.3070000000002 244.63964999999973L685.2830000000006 237.87289999999985L681.7195000000004 225.81844999999987L682.1540000000005 215.36714999999958L677.056 206.10434999999995L671.9440000000009 202.51314999999977L680.3930000000003 187.95950000000005L681.0725000000002 183.79719999999963L680.4759999999999 181.76829999999995L676.7075 179.96039999999994L673.6175000000003 172.1794L659.5725000000004 167.89589999999976L644.9065000000007 159.66729999999984L642.8015000000005 159.6432999999996L634.7260000000006 169.14694999999995L622.6355000000001 167.49905000000012z">
      <title id="t17">Deuxième circonscription des Hautes-Alpes</title>
      <desc id="d17">Cantons de : Aiguilles, L'Argentière-la-Bessée, Briançon Nord, Briançon Sud, Chorges, Embrun, La Grave, Guillestre, Le Monêtier-les-Bains, Orcières, Saint-Bonnet, Saint-Firmin, Savines-le-Lac</desc>
    </path></svg>