<svg xmlns="http://www.w3.org/2000/svg" version="1.1" xmlns:xlink="http://www.w3.org/1999/xlink" xmlns:svgjs="http://svgjs.dev/svgjs" width="463.25649999999996" height="565.8526" fill="#eeeeee" stroke="#cccccc" xmlns:sodipodi="http://sodipodi.sourceforge.net/DTD/sodipodi-0.dtd"><path class="circo" id="id-006-01" d="M337.9404999999997 548.9657500000004L308.9999999999998 549.9038000000002L292.39349999999945 555.222L291.3760000000002 517.82285L300.94299999999976 523.8985500000001L303.4484999999995 534.0848L319.9504999999999 523.8928500000003L325.7849999999996 518.7398000000002L336.2180000000001 520.7852000000003L333.0015000000003 513.5557L334.38949999999977 509.7991000000002L340.46100000000024 506.6095999999999L341.4879999999994 500.2306500000003L334.07249999999976 492.4114500000002L337.5524999999993 482.95585000000017L351.96649999999977 475.7573500000001L348.78849999999943 486.81399999999996L358.72749999999996 500.249L380.0154999999995 500.8767499999999L383.0970000000002 501.73585L373.12599999999975 506.15115000000003L357.4355000000003 527.8511500000002L356.51449999999954 538.7864999999999L365.4975000000002 552.4303000000003L362.2799999999995 565.8526L347.7570000000003 564.0131500000001L337.9404999999997 548.9657500000004z">
      <title id="t18">Première circonscription des Alpes-Maritimes</title>
      <desc id="d18">Cantons de : Nice I, Nice II, Nice III, Nice IV, Nice VIII, Nice XII</desc>
    </path><path class="circo" id="id-006-03" d="M261.0884999999996 466.48090000000025L262.73450000000025 488.57730000000004L269.51099999999997 487.76620000000037L271.94849999999974 492.9362000000003L278.7225000000001 508.66070000000036L291.3760000000002 517.82285L300.94299999999976 523.8985500000001L303.4484999999995 534.0848L319.9504999999999 523.8928500000003L325.7849999999996 518.7398000000002L336.2180000000001 520.7852000000003L333.0015000000003 513.5557L334.38949999999977 509.7991000000002L340.46100000000024 506.6095999999999L341.4879999999994 500.2306500000003L334.07249999999976 492.4114500000002L337.5524999999993 482.95585000000017L351.96649999999977 475.7573500000001L348.78849999999943 486.81399999999996L358.72749999999996 500.249L380.0154999999995 500.8767499999999L410.1019999999994 477.18909999999994L438.02149999999983 473.87550000000033L445.80550000000017 466.29185000000007L457.9105000000004 457.39210000000014L463.25649999999996 444.3154000000004L457.26 437.3524500000002L434.4399999999996 439.92680000000007L425.81249999999955 447.6924500000001L416.5305000000001 453.8203500000003L383.04449999999974 459.0481500000004L377.51300000000015 457.9803000000004L376.6655000000003 441.55335000000036L367.23499999999945 441.94830000000024L363.6215000000004 451.08510000000024L352.8819999999996 447.6402999999999L350.49949999999967 442.36305000000016L350.88449999999966 448.4443500000003L331.2384999999995 448.97335L318.3815000000004 431.6660999999999L313.09049999999957 432.99635000000023L309.932 428.54435000000024L301.60099999999943 436.21825L302.7520000000004 447.53165000000024L293.41999999999985 454.19129999999996L286.0159999999996 454.65970000000027L261.0884999999996 466.48090000000025z">
      <title id="t20">Troisième circonscription des Alpes-Maritimes</title>
      <desc id="d20">Cantons de : Nice V, Nice VI, Nice VII, Nice XI, Nice XIII</desc>
    </path><path class="circo" id="id-006-02" d="M94.23549999999977 352.7950000000004L98.58049999999935 361.41099999999994L100.26200000000017 370.6630000000001L97.7660000000003 376.0239999999999L105.72099999999978 382.6260000000002L111.85249999999996 383.21050000000014L116.22749999999996 391.90200000000004L126.47799999999961 393.5680000000002L137.75750000000016 398.81050000000016L141.6515000000004 403.0205000000001L137.971 407.8375L139.36649999999986 413.77800000000036L140.702 416.3580000000002L138.49849999999947 418.938L133.79599999999982 418.8005000000004L129.42249999999945 416.91149999999993L124.0745000000004 418.07500000000005L125.80799999999954 420.32100000000014L124.1859999999997 421.18100000000027L121.78199999999947 419.89149999999995L118.80899999999997 422.1424999999999L116.83800000000019 425.299L109.45150000000012 422.33600000000024L110.09249999999952 433.4485000000001L113.24549999999931 435.7785000000001L109.83600000000024 443.05049999999994L105.26399999999967 445.7065L97.21099999999979 446.49400000000014L93.83550000000014 444.615L92.27800000000002 445.7655L86.11800000000017 441.4240000000001L84.85000000000014 438.2315L80.14549999999986 435.908L75.45999999999935 432.08349999999996L69.6289999999999 432.8805L65.3284999999994 424.06049999999993L59.08199999999965 414.52650000000006L55.24199999999951 413.99350000000027L53.166499999999814 410.8295000000004L54.16749999999979 400.7620000000003L55.71149999999989 396.9120000000004L58.934000000000424 394.3979999999999L55.317999999999756 379.00750000000016L51.52449999999931 374.40300000000036L50.203500000000076 368.52149999999995L32.47600000000034 367.0595000000003L32.12199999999939 363.1260000000003L29.18299999999931 360.3540000000004L21.730000000000018 357.3000000000002L19.729999999999563 356.9145000000003L9.088500000000295 362.1320000000003L7.477000000000089 353.90450000000044L2.469499999999698 350.677L3.82349999999974 345.35799999999995L0.7489999999995689 343.1585000000001L0.15149999999948704 338.4530000000001L0 337.73000000000025L2.5824999999997544 334.77900000000034L22.200000000000273 329.73600000000033L31.362000000000307 325.66750000000013L31.75049999999942 321.6645L27.319499999999834 317.35299999999995L13.54349999999954 313.9160000000004L18.721500000000333 301.173L28.384999999999536 298.9775000000003L26.618499999999585 297.94399999999996L25.461500000000115 287.81450000000007L17.925000000000182 285.283L14.738999999999578 280.2415000000002L34.202999999999975 285.0555000000003L47.61899999999969 289.6070000000003L61.874500000000126 282.7095000000003L70.27249999999981 266.90650000000005L83.4069999999997 262.1215000000001L84.96300000000019 263.9095000000003L90.88449999999966 264.6930000000003L101.65399999999977 273.45550000000003L105.15499999999975 278.4160000000003L109.03850000000034 278.92150000000015L120.12499999999932 276.80499999999995L128.16050000000018 275.17650000000003L130.15250000000037 274.62800000000016L129.83600000000024 270.6630000000001L124.85000000000014 267.06999999999994L117.70700000000033 257.04800000000034L115.96499999999992 255.94600000000014L112.04399999999964 257.23450000000014L108.66899999999987 255.1800000000003L104.53999999999951 250.66849999999988L100.6110000000001 241.49650000000008L90.47050000000013 240.514L90.11499999999955 234.51700000000017L89.01749999999993 227.1950000000004L84.43849999999998 223.85250000000042L86.14450000000033 220.06100000000004L67.79899999999998 209.18350000000032L65.00350000000026 201.40199999999993L57.41800000000012 198.31549999999993L46.601499999999305 188.6635000000001L47.450000000000045 176.45399999999995L51.19000000000028 166.92049999999995L48.35849999999937 162.77150000000006L44.5455000000004 155.75950000000034L37.66650000000027 148.35550000000012L35.29800000000023 144.01350000000036L30.565500000000156 140.4079999999999L29.285999999999603 128.32100000000025L21.75999999999931 114.39850000000035L27.708999999999833 108.92699999999991L28.31299999999942 104.99300000000005L26.536499999999705 101.44900000000007L34.5659999999998 90.48699999999997L33.16599999999994 84.80500000000006L37.753000000000156 78.7745000000001L36.519499999999425 75.32700000000034L37.727499999999736 65.73000000000036L39.20549999999935 64.43649999999991L43.14700000000016 64.01400000000024L45.64799999999991 60.817499999999995L51.37650000000008 58.68950000000041L53.996499999999514 49.08549999999991L65.57900000000018 52.69650000000013L69.83499999999935 61.53400000000033L68.86200000000031 67.37950000000012L72.81049999999937 71.68700000000001L71.99600000000032 75.66750000000013L73.73500000000035 81.48150000000044L75.74549999999931 84.97250000000008L79.42199999999957 86.4715000000001L81.56499999999937 92.04200000000014L86.97099999999978 98.16599999999994L99.87949999999955 104.3810000000002L102.64800000000037 112.09600000000023L102.80700000000024 112.10350000000005L108.79199999999969 104.22799999999995L114.11949999999933 101.43149999999991L118.11500000000024 101.91900000000032L124.34750000000008 102.68349999999998L133.64900000000034 97.95200000000023L138.5329999999999 109.51099999999997L138.71999999999957 117.89350000000013L144.13049999999998 120.34500000000037L146.08349999999973 119.70700000000022L151.46150000000034 125.8465000000001L152.8239999999994 135.95550000000003L156.1749999999995 138.35650000000044L158.1295 144.17599999999993L166.1265000000003 150.54900000000032L163.65549999999985 158.27350000000024L163.80049999999983 168.49800000000016L166.43400000000042 174.07050000000027L174.94249999999965 178.15850000000012L177.63199999999983 181.12750000000005L176.74300000000017 186.7625000000004L179.69150000000013 191.71550000000025L177.0735000000002 200.85500000000025L184.48999999999955 212.28350000000034L188.59050000000025 217.5540000000001L194.25049999999942 218.91349999999989L197.06249999999955 211.43550000000005L210.37050000000022 205.85300000000018L210.52249999999958 205.98900000000015L212.58199999999988 211.47100000000023L212.52250000000004 223.28200000000038L214.99099999999999 230.4385000000002L216.6949999999997 230.71950000000015L219.05849999999987 235.30400000000043L228.6545000000001 232.4324999999999L232.74800000000027 222.91500000000042L238.13949999999977 219.98700000000042L242.29799999999955 212.91449999999998L250.35999999999945 211.59449999999993L252.3045000000002 215.23000000000025L256.0304999999994 239.69249999999988L249.63700000000017 244.6320000000003L245.83200000000033 253.85400000000004L234.38949999999977 258.35350000000005L234.86350000000016 263.2230000000004L233.2484999999997 266.10400000000027L237.35000000000014 269.794L234.57850000000008 276.4240000000001L235.4295000000002 285.75350000000014L238.55000000000018 290.91949999999997L238.06050000000027 296.86000000000035L237.9239999999993 302.8280000000001L237.50249999999937 305.8855L235.4869999999994 312.2720000000004L233.13750000000027 317.58399999999995L233.00100000000043 323.26700000000017L236.8954999999994 329.7264999999999L240.19900000000007 332.047L242.19299999999976 334.52500000000043L246.28100000000018 340.8665000000002L244.80500000000006 348.1400000000002L241.30300000000034 352.6780000000002L239.54849999999965 355.172L233.3834999999999 363.3269999999999L232.3535000000004 366.5270000000004L233.05100000000039 379.8040000000003L227.21400000000017 381.2530000000004L224.37900000000013 394.90250000000003L220.80649999999991 394.1840000000002L218.65699999999947 391.18899999999996L215.00599999999963 390.74749999999995L215.5594999999994 395.7080000000002L211.98599999999942 393.9994999999999L209.96999999999957 388.42700000000036L205.87049999999977 384.1329999999999L201.9595000000004 383.8005000000004L195.3469999999993 388.1385L191.8565000000001 389.39250000000015L188.50799999999936 387.6875000000001L187.80849999999987 375.9585000000004L182.49149999999986 367.7120000000002L178.77399999999966 366.4595000000003L176.7750000000001 363.3085L178.2955000000004 360.64099999999996L171.25350000000026 353.49199999999996L162.42650000000026 348.5480000000001L152.9499999999996 350.9815000000003L149.5455000000004 348.91549999999995L147.72050000000036 349.36950000000024L150.6224999999995 357.9475000000002L148.75850000000014 358.76450000000034L145.3970000000004 365.7400000000001L137.42849999999976 364.64350000000024L136.1119999999994 363.0880000000002L94.23549999999977 352.7950000000004z">
      <title id="t19">Deuxième circonscription des Alpes-Maritimes</title>
      <desc id="d19">Cantons de : Carros, Coursegoules, Guillaumes, Grasse-Nord, Puget-Théniers, Roquesteron, Saint-Auban, Saint-Vallier-de-Thiey, Vence, Villars-sur-Var</desc>
    </path><path class="circo" id="id-006-04" d="M330.3805 370.4450000000003L330.14400000000023 372.12850000000003L328.74149999999986 373.22100000000034L331.3315 375.6510000000003L326.8105000000003 380.19900000000007L320.63949999999977 379.20150000000035L317.58050000000026 377.5049999999999L312.2090000000003 379.8079999999999L306.7335000000003 378.2585L302.7184999999997 382.509L300.3464999999994 382.8120000000001L294.683 389.91750000000025L296.82000000000016 396.1065000000002L302.9454999999996 399.0455000000003L297.35400000000027 399.8490000000004L297.08349999999996 404.7855000000004L292.9804999999999 405.42250000000024L290.9744999999998 397.0245L293.04899999999975 393.1600000000003L290.9649999999999 389.846L288.8379999999995 387.2225000000003L287.53649999999993 388.5340000000002L285.6594999999993 391.6840000000002L285.90799999999945 395.26800000000037L282.7239999999995 390.43200000000013L283.0504999999994 386.5559999999999L288.6119999999994 378.86450000000025L292.1460000000002 377.2995000000003L291.0540000000003 376.995L301.7179999999996 368.5990000000004L311.6139999999996 367.4245000000002L314.37299999999937 364.7365000000002L318.6635000000001 361.5820000000002L320.55849999999964 356.9470000000001L318.433 354.47900000000004L310.3444999999999 355.39150000000006L307.28650000000016 358.14400000000035L303.9964999999995 360.31600000000026L292.1275000000003 362.1690000000001L290.16700000000014 361.7905000000002L289.8664999999994 355.9680000000003L286.52399999999943 356.1080000000004L285.2430000000004 359.34650000000033L281.4364999999998 358.1254999999999L280.5920000000003 356.2549999999999L281.2080000000003 348.3125000000001L278.86049999999955 345.1075000000003L270.4729999999995 322.5434999999999L268.33599999999933 318.9134999999999L271.8735000000004 317.38L270.3679999999997 303.9960000000002L270.57450000000017 289.8720000000003L275.1570000000004 286.10900000000015L276.71699999999987 282.4369999999999L284.19599999999946 280.76250000000016L286.4149999999995 275.6110000000001L288.3394999999996 275.095L285.62850000000026 272.3410000000001L286.82649999999967 262.9905000000002L285.0924999999995 262.1350000000001L279.2399999999998 252.20450000000028L279.2274999999995 248.52750000000015L288.7175000000002 248.90899999999988L293.0295000000001 244.79399999999998L297.0264999999995 244.42350000000033L311.86050000000023 249.6395000000001L311.6025000000002 245.86900000000014L314.57149999999956 240.97399999999993L316.1940000000004 233.40550000000007L320.95950000000016 229.73299999999995L321.4734999999996 225.72100000000034L325.21949999999947 220.94750000000033L329.7104999999999 217.10399999999993L335.4894999999999 215.6819999999999L338.91849999999977 213.39350000000024L334.60249999999974 204.86199999999997L329.9095 201.5405000000004L334.3025 194.74350000000015L333.1254999999999 188.82000000000005L334.4875000000002 184.97400000000027L336.16649999999936 183.7360000000001L337.4985000000004 163.1540000000001L336.14599999999996 147.22200000000043L335.94150000000013 143.07999999999993L338.62750000000005 137.47250000000008L351.09500000000025 138.6310000000003L367.6274999999998 129.84649999999988L375.5169999999998 132.0134999999999L382.15900000000033 127.42999999999995L390.4695000000004 126.99250000000006L395.7065 123.56899999999996L416.51200000000017 125.37650000000042L419.6759999999995 122.78549999999996L421.51899999999955 116.84799999999996L423.8035000000002 111.28199999999993L427.1169999999995 108.98250000000019L443.66300000000024 109.85650000000021L444.9339999999995 113.38950000000011L440.07100000000037 122.3520000000002L442.8520000000003 127.89050000000032L442.27049999999963 129.8950000000002L438.4439999999995 136.75900000000013L441.36349999999993 144.2565000000002L447.7234999999996 149.6795000000003L451.6205000000002 157.13750000000005L457.7744999999993 162.73450000000025L459.0499999999997 166.6624999999999L457.6929999999993 177.0410000000004L452.89049999999975 188.54700000000037L436.58450000000016 197.0735000000002L436.4035000000001 205.36550000000034L438.95599999999945 215.38800000000037L432.1119999999996 228.14700000000016L414.7739999999999 239.6780000000001L406.46049999999946 240.17600000000016L397.6490000000001 245.16500000000008L397.2130000000004 254.73850000000027L392.1384999999998 263.30600000000004L393.26599999999985 273.26700000000017L373.29399999999964 282.50249999999994L371.0394999999994 285.54100000000005L366.7259999999999 289.30600000000027L365.7669999999996 301.9820000000004L370.4329999999993 308.45349999999996L375.1514999999995 330.4675000000003L379.87049999999954 341.3580000000002L372.4374999999998 343.5575L370.4679999999996 347.12649999999996L362.21000000000004 352.5370000000004L360.25300000000016 356.1115000000001L361.3424999999995 360.01300000000015L359.86850000000004 361.4089999999999L349.41749999999956 355.94100000000026L341.36949999999956 361.94950000000006L340.56749999999965 360.4145L330.3805 370.4450000000003z">
      <title id="t21">Quatrième circonscription des Alpes-Maritimes</title>
      <desc id="d21">Cantons de : Beausoleil, Breil-sur-Roya, Contes, L'Escarène, Menton Est, Menton Ouest, Sospel, Tende, Villefranche-sur-Mer</desc>
    </path><path class="circo" id="id-006-05" d="M263.2600000000002 354.07700000000034L263.6680000000001 358.0869999999999L260.3604999999993 360.4475000000002L257.7359999999999 360.61350000000004L248.90049999999974 364.80350000000044L249.48399999999992 372.6355000000001L251.8859999999995 372.34800000000007L255.1509999999996 379.75400000000036L259.6360000000004 383.0015000000003L259.99649999999974 396.2575000000004L253.91549999999938 401.7020000000002L250.7370000000003 413.59800000000007L245.0109999999995 421.8655000000001L239.5519999999999 422.5630000000001L240.5925000000002 419.1575L239.37149999999974 417.3240000000004L239.56050000000005 413.3590000000004L234.52300000000037 395.90250000000026L233.05100000000039 379.8040000000003L232.3535000000004 366.5270000000004L233.3834999999999 363.3269999999999L239.54849999999965 355.172L241.30300000000034 352.6780000000002L244.80500000000006 348.1400000000002L246.28100000000018 340.8665000000002L242.19299999999976 334.52500000000043L240.19900000000007 332.047L236.8954999999994 329.7264999999999L233.00100000000043 323.26700000000017L233.13750000000027 317.58399999999995L235.4869999999994 312.2720000000004L237.50249999999937 305.8855L237.9239999999993 302.8280000000001L238.06050000000027 296.86000000000035L238.55000000000018 290.91949999999997L235.4295000000002 285.75350000000014L234.57850000000008 276.4240000000001L237.35000000000014 269.794L233.2484999999997 266.10400000000027L234.86350000000016 263.2230000000004L234.38949999999977 258.35350000000005L245.83200000000033 253.85400000000004L249.63700000000017 244.6320000000003L256.0304999999994 239.69249999999988L252.3045000000002 215.23000000000025L250.35999999999945 211.59449999999993L242.29799999999955 212.91449999999998L238.13949999999977 219.98700000000042L232.74800000000027 222.91500000000042L228.6545000000001 232.4324999999999L219.05849999999987 235.30400000000043L216.6949999999997 230.71950000000015L214.99099999999999 230.4385000000002L212.52250000000004 223.28200000000038L212.58199999999988 211.47100000000023L210.52249999999958 205.98900000000015L210.37050000000022 205.85300000000018L197.06249999999955 211.43550000000005L194.25049999999942 218.91349999999989L188.59050000000025 217.5540000000001L184.48999999999955 212.28350000000034L177.0735000000002 200.85500000000025L179.69150000000013 191.71550000000025L176.74300000000017 186.7625000000004L177.63199999999983 181.12750000000005L174.94249999999965 178.15850000000012L166.43400000000042 174.07050000000027L163.80049999999983 168.49800000000016L163.65549999999985 158.27350000000024L166.1265000000003 150.54900000000032L158.1295 144.17599999999993L156.1749999999995 138.35650000000044L152.8239999999994 135.95550000000003L151.46150000000034 125.8465000000001L146.08349999999973 119.70700000000022L144.13049999999998 120.34500000000037L138.71999999999957 117.89350000000013L138.5329999999999 109.51099999999997L133.64900000000034 97.95200000000023L124.34750000000008 102.68349999999998L118.11500000000024 101.91900000000032L114.11949999999933 101.43149999999991L108.79199999999969 104.22799999999995L102.80700000000024 112.10350000000005L102.64800000000037 112.09600000000023L99.87949999999955 104.3810000000002L86.97099999999978 98.16599999999994L81.56499999999937 92.04200000000014L79.42199999999957 86.4715000000001L75.74549999999931 84.97250000000008L73.73500000000035 81.48150000000044L71.99600000000032 75.66750000000013L72.81049999999937 71.68700000000001L68.86200000000031 67.37950000000012L69.83499999999935 61.53400000000033L65.57900000000018 52.69650000000013L63.92349999999965 42.949500000000285L68.00250000000005 36.16800000000012L68.33949999999959 26.3575000000003L71.61550000000034 23.908999999999878L73.90750000000025 18.291000000000395L79.6384999999998 16.19200000000035L87.06249999999955 9.136500000000183L92.87349999999947 10.271999999999935L96.44499999999994 8.610500000000343L100.09050000000002 4.906500000000165L106.8444999999997 0L114.92700000000013 2.072499999999877L120.17950000000042 5.435500000000388L124.58099999999945 17.00400000000002L136.5014999999994 28.67999999999995L138.0619999999999 38.74650000000031L143.50799999999936 44.576000000000136L151.21849999999995 47.33150000000023L152.94099999999958 51.12700000000018L154.58300000000008 67.70050000000026L157.6679999999999 73.1774999999999L162.87450000000035 76.51700000000005L164.83550000000037 75.77800000000025L171.21449999999982 80.85750000000019L187.17649999999935 76.77900000000022L195.36299999999983 83.005L205.03000000000043 86.91500000000019L214.99500000000012 94.56150000000036L222.80750000000012 92.21699999999998L230.0509999999997 96.13850000000014L234.17699999999968 95.45500000000004L236.97450000000003 103.26099999999997L240.81299999999942 104.66250000000002L248.71649999999931 113.89949999999999L256.17099999999937 111.45350000000008L260.9024999999997 120.4785000000004L266.3729999999998 126.40800000000013L275.5309999999997 129.92200000000025L279.203 128.23750000000018L299.59100000000035 128.1344999999999L307.25850000000037 144.74800000000016L311.39599999999973 144.7380000000004L318.6959999999999 140.8325000000002L322.5514999999996 140.74850000000026L336.14599999999996 147.22200000000043L337.4985000000004 163.1540000000001L336.16649999999936 183.7360000000001L334.4875000000002 184.97400000000027L333.1254999999999 188.82000000000005L334.3025 194.74350000000015L329.9095 201.5405000000004L334.60249999999974 204.86199999999997L338.91849999999977 213.39350000000024L335.4894999999999 215.6819999999999L329.7104999999999 217.10399999999993L325.21949999999947 220.94750000000033L321.4734999999996 225.72100000000034L320.95950000000016 229.73299999999995L316.1940000000004 233.40550000000007L314.57149999999956 240.97399999999993L311.6025000000002 245.86900000000014L311.86050000000023 249.6395000000001L297.0264999999995 244.42350000000033L293.0295000000001 244.79399999999998L288.7175000000002 248.90899999999988L279.2274999999995 248.52750000000015L279.2399999999998 252.20450000000028L285.0924999999995 262.1350000000001L286.82649999999967 262.9905000000002L285.62850000000026 272.3410000000001L288.3394999999996 275.095L286.4149999999995 275.6110000000001L284.19599999999946 280.76250000000016L276.71699999999987 282.4369999999999L275.1570000000004 286.10900000000015L270.57450000000017 289.8720000000003L270.3679999999997 303.9960000000002L271.8735000000004 317.38L268.33599999999933 318.9134999999999L270.4729999999995 322.5434999999999L278.86049999999955 345.1075000000003L281.2080000000003 348.3125000000001L280.5920000000003 356.2549999999999L280.72850000000017 358.41049999999996L273.76499999999965 358.59800000000007L269.20799999999986 352.46350000000007L267.3325 352.93499999999995L266.2130000000002 351.3570000000004L263.2600000000002 354.07700000000034z">
      <title id="t22">Cinquième circonscription des Alpes-Maritimes</title>
      <desc id="d22">Cantons de : Lantosque, Levens, Nice IX, Nice X, Nice XIV, Roquebillière, Saint-Etienne-de-Tinée, Saint-Martin-Vésubie, Saint-Sauveur-sur-Tinée</desc>
    </path><path class="circo" id="id-006-06" d="M215.00599999999963 390.74749999999995L218.65699999999947 391.18899999999996L220.80649999999991 394.1840000000002L224.37900000000013 394.90250000000003L227.21400000000017 381.2530000000004L233.05100000000039 379.8040000000003L234.52300000000037 395.90250000000026L239.56050000000005 413.3590000000004L239.37149999999974 417.3240000000004L238.02549999999997 415.9500000000003L230.44250000000034 416.6104999999999L222.79899999999998 417.3270000000002L216.52399999999943 424.95000000000005L209.97600000000034 439.0750000000003L204.83949999999936 436.28750000000025L201.77749999999946 429.06499999999994L196.72900000000027 422.70550000000014L187.08599999999933 425.11950000000013L176.92649999999958 425.3035L176.60999999999945 423.451L177.8475000000003 421.8375000000003L185.54750000000013 420.48900000000003L191.32550000000037 405.90900000000033L195.10099999999966 405.2430000000004L192.3739999999998 402.3580000000004L186.8399999999997 400.80550000000017L185.57999999999993 397.29750000000024L188.50799999999936 387.6875000000001L191.8565000000001 389.39250000000015L195.3469999999993 388.1385L201.9595000000004 383.8005000000004L205.87049999999977 384.1329999999999L209.96999999999957 388.42700000000036L211.98599999999942 393.9994999999999L215.5594999999994 395.7080000000002L215.00599999999963 390.74749999999995z">
      <title id="t23">Sixième circonscription des Alpes-Maritimes</title>
      <desc id="d23">Cantons de : Cagnes-sur-Mer Centre, Cagnes-sur-Mer Ouest, Saint-Laurent-du-Var-Cagnes-sur-Mer Est</desc>
    </path><path class="circo" id="id-006-07" d="M208.1925000000001 452.04949999999997L209.97600000000034 439.0750000000003L204.83949999999936 436.28750000000025L201.77749999999946 429.06499999999994L196.72900000000027 422.70550000000014L187.08599999999933 425.11950000000013L176.92649999999958 425.3035L176.60999999999945 423.451L177.8475000000003 421.8375000000003L185.54750000000013 420.48900000000003L191.32550000000037 405.90900000000033L195.10099999999966 405.2430000000004L192.3739999999998 402.3580000000004L186.8399999999997 400.80550000000017L185.57999999999993 397.29750000000024L188.50799999999936 387.6875000000001L187.80849999999987 375.9585000000004L182.49149999999986 367.7120000000002L178.77399999999966 366.4595000000003L176.7750000000001 363.3085L178.2955000000004 360.64099999999996L171.25350000000026 353.49199999999996L162.42650000000026 348.5480000000001L152.9499999999996 350.9815000000003L149.5455000000004 348.91549999999995L147.72050000000036 349.36950000000024L150.6224999999995 357.9475000000002L148.75850000000014 358.76450000000034L145.3970000000004 365.7400000000001L137.42849999999976 364.64350000000024L136.1119999999994 363.0880000000002L94.23549999999977 352.7950000000004L98.58049999999935 361.41099999999994L100.26200000000017 370.6630000000001L97.7660000000003 376.0239999999999L105.72099999999978 382.6260000000002L111.85249999999996 383.21050000000014L116.22749999999996 391.90200000000004L126.47799999999961 393.5680000000002L137.75750000000016 398.81050000000016L141.6515000000004 403.0205000000001L137.971 407.8375L139.36649999999986 413.77800000000036L143.0129999999997 421.001L149.82200000000034 425.3675000000004L150.68449999999984 431.27350000000035L155.933 439.2365000000001L163.58299999999986 442.3984999999999L171.71899999999937 443.4500000000003L177.79649999999947 448.8765000000001L183.4159999999997 445.6555000000003L182.78799999999933 455.20399999999995L186.16899999999987 459.07849999999996L182.95749999999998 463.94000000000005L180.80100000000016 467.65450000000044L175.03150000000005 473.6775L175.72900000000004 477.02650000000006L179.25200000000018 478.6605000000003L183.37499999999977 472.18500000000006L191.44999999999982 467.2290000000004L198.46750000000043 466.36349999999993L204.66299999999933 470.2705000000003L206.3670000000002 482.4540000000002L215.2075000000002 477.9845L214.1655000000003 467.3075L208.69699999999966 466.03200000000015L209.5245 459.65300000000013L206.93949999999973 457.29700000000037L210.50399999999968 455.0150000000002L208.1925000000001 452.04949999999997z">
      <title id="t24">Septième circonscription des Alpes-Maritimes</title>
      <desc id="d24">Cantons de : Antibes-Biot, Antibes Centre, Le Bar-sur-Loup, Vallauris-Antibes Ouest (partie de la commune d'Antibes comprise dans ce canton et partie de la commune de Vallauris située au sud d'une ligne définie, à partir de la limite de la commune de Cannes, par l'axe des voies ci-après : le boulevard de la Batterie, le boulevard Grandjean, le boulevard des Glaïeuls, le boulevard des Horizons, l'avenue Georges-Clemenceau, la montée des Mauruches, le chemin Lintier, le chemin des Clos, le chemin de Notre-Dame, le chemin du Devens puis une ligne continuant l'axe du chemin du Devens jusqu'à la limite de la commune d'Antibes)</desc>
    </path><path class="circo" id="id-006-08" d="M183.4794999999997 445.58550000000025L177.8544999999997 448.8665000000003L170.66649999999981 460.58550000000025L168.79149999999981 464.02300000000025L169.57300000000032 467.77300000000025L162.07300000000032 470.1165000000003L155.9794999999997 468.71050000000025L149.88550000000032 469.33550000000025L142.2294999999997 471.9915000000003L140.19800000000032 471.21050000000025L140.04149999999981 469.1790000000003L141.91649999999981 468.39800000000025L139.1044999999997 464.96050000000025L131.13550000000032 466.52300000000025L129.88550000000032 466.6790000000003L124.10449999999969 466.3665000000003L118.47949999999969 471.52300000000025L115.04149999999981 470.58550000000025L113.01050000000032 470.4290000000003L106.76050000000032 477.77300000000025L103.32300000000032 489.1790000000003L109.88550000000032 493.2415000000003L110.19800000000032 495.27300000000025L105.51050000000032 506.6790000000003L113.79149999999981 511.0540000000003L117.38550000000032 512.4600000000004L118.79149999999981 518.0850000000004L126.44800000000032 519.8040000000003L126.60449999999969 517.9290000000003L132.07300000000032 515.8980000000003L135.51050000000032 508.5540000000003L134.1044999999997 505.1165000000003L128.79149999999981 502.4600000000004L128.4794999999997 498.5540000000003L134.1044999999997 488.2415000000003L140.19800000000032 482.77300000000025L148.01050000000032 480.1165000000003L167.07300000000032 479.64800000000025L170.9794999999997 486.83550000000025L179.26050000000032 478.71050000000025L175.66649999999981 476.9915000000003L175.04149999999981 473.71050000000025L180.82300000000032 467.6165000000003L183.01050000000032 463.8665000000003L186.13550000000032 459.02300000000025L182.8544999999997 455.27300000000025L183.4794999999997 445.58550000000025zM175.19800000000032 494.4915000000003L169.26050000000032 495.1165000000003L168.4794999999997 495.89800000000025L169.57300000000032 497.6165000000003L172.38550000000032 498.7100000000004L181.6044999999997 499.02300000000025L183.16649999999981 500.1165000000003L184.26050000000032 498.5540000000003L183.79149999999981 497.6165000000003L175.19800000000032 494.4915000000003z">
      <title id="t25">Huitième circonscription des Alpes-Maritimes</title>
      <desc id="d25">Cantons de : Cannes Centre, Cannes Est, Mandelieu-Cannes Ouest, Vallauris-Antibes Ouest (partie non comprise dans la 7e circonscription)</desc>
    </path><path class="circo" id="id-006-09" d="M109.83600000000024 443.05049999999994L113.24549999999931 435.7785000000001L110.09249999999952 433.4485000000001L109.45150000000012 422.33600000000024L116.83800000000019 425.299L118.80899999999997 422.1424999999999L121.78199999999947 419.89149999999995L124.1859999999997 421.18100000000027L125.80799999999954 420.32100000000014L124.0745000000004 418.07500000000005L129.42249999999945 416.91149999999993L133.79599999999982 418.8005000000004L138.49849999999947 418.938L140.702 416.3580000000002L143.0129999999997 421.001L149.82200000000034 425.3675000000004L150.68449999999984 431.27350000000035L155.933 439.2365000000001L163.58299999999986 442.3984999999999L171.71899999999937 443.4500000000003L177.79649999999947 448.8765000000001L170.64449999999965 460.5835000000002L168.7704999999994 463.9865000000003L169.63049999999953 467.7725000000004L162.0309999999995 470.07300000000043L156.0374999999999 468.7365L149.92549999999937 469.34000000000026L142.20749999999953 471.9300000000004L140.2615000000003 471.2555000000003L140.06399999999985 469.20600000000036L141.92949999999996 468.3385000000004L139.03999999999996 464.948L131.12300000000005 466.45700000000033L129.9294999999995 466.6300000000001L124.14750000000026 466.41999999999996L118.47549999999956 471.5424999999999L115.00699999999938 470.55600000000027L115.51449999999932 466.57100000000014L112.31800000000021 459.40950000000043L117.28250000000003 450.5005L109.83600000000024 443.05049999999994z">
      <title id="t26">Neuvième circonscription des Alpes-Maritimes</title>
      <desc id="d26">Cantons de : Le Cannet, Grasse Sud, Mougins</desc>
    </path></svg>