<svg xmlns="http://www.w3.org/2000/svg" version="1.1" xmlns:xlink="http://www.w3.org/1999/xlink" xmlns:svgjs="http://svgjs.dev/svgjs" width="435.2383499999996" height="659.8218500000002" fill="#eeeeee" stroke="#cccccc" xmlns:sodipodi="http://sodipodi.sourceforge.net/DTD/sodipodi-0.dtd"><path class="circo" id="id-007-01" d="M284.1733499999998 624.3893500000001L281.2043499999993 621.6143499999998L277.19434999999976 621.4088500000003L276.0393499999998 617.6738499999999L273.52485 614.7903500000001L263.66985 616.0098499999998L255.95635000000016 613.9448500000003L254.19334999999933 608.33685L255.6403499999999 602.7553499999999L252.0953499999996 602.08485L249.1168499999992 604.5183500000002L248.07585000000017 601.0798499999999L250.1458500000001 593.48435L252.59135000000015 590.4668500000002L251.18634999999927 586.7838499999999L255.86284999999975 582.9243500000001L259.79735000000005 582.0128499999998L261.03385000000003 578.3562000000001L269.2453499999999 572.5979000000001L271.47134999999935 569.21175L268.9753499999995 561.4385500000003L259.0223500000002 558.5012999999998L257.2118499999999 555.0429000000003L259.13284999999973 554.2750000000001L262.0628499999998 542.3815000000002L266.93334999999934 538.55345L272.97834999999964 537.6231999999999L272.31284999999957 531.5823499999999L279.50034999999957 528.0414999999999L273.57484999999997 523.1316500000003L278.0658499999993 512.4975999999998L283.9558499999998 511.0337500000003L292.11484999999925 516.8869000000001L295.6373499999995 507.43119999999976L294.69634999999926 499.2697500000003L296.05384999999956 497.7129500000001L298.2028500000001 494.53415000000007L293.5173499999996 488.73335L294.89284999999995 488.159L294.54335000000015 485.2465000000001L296.47335 479.366L306.2533499999995 477.5249500000001L308.3238499999993 465.5961500000001L310.90434999999957 462.4293499999999L308.8488499999994 459.44785000000024L310.3603499999997 447.38805000000013L308.99035000000026 445.96209999999985L305.3673500000002 446.7927500000002L303.5808499999996 443.14885000000004L303.8088499999992 439.50154999999995L307.4543499999993 438.36495000000014L310.9058499999992 439.98890000000017L314.3918499999995 435.64959999999985L314.0498500000001 435.5833000000001L308.6038499999995 431.03020000000015L313.46784999999954 425.64655000000016L311.8333499999994 420.0123000000002L307.1143499999994 413.5773499999999L297.2798499999999 412.6162499999998L292.5938499999995 415.23059999999987L286.58135000000016 415.2365500000002L285.3388499999994 416.8376999999998L283.5993499999995 415.80795000000023L275.6558499999994 401.7563000000001L275.56134999999927 401.3778500000001L269.5443499999999 394.3754999999999L267.8483499999993 389.5130999999998L262.35185 387.52909999999986L256.61134999999945 388.2348999999999L250.97384999999917 393.56994999999984L245.24935000000028 394.0681000000001L241.61134999999945 392.5472500000001L243.2823499999995 391.54904999999985L240.57884999999942 382.5377000000003L245.68334999999934 368.4174999999999L235.10384999999928 362.64700000000005L227.95284999999922 355.4302999999999L224.06285000000025 354.8064499999998L222.56835000000024 353.31380000000024L219.43784999999934 351.6731500000003L215.87535000000003 352.60305000000017L217.7943499999992 344.78594999999984L211.81285000000003 339.4506000000001L220.32434999999964 321.43910000000005L217.60935000000018 317.97495000000026L213.6233500000003 317.6681000000002L213.19284999999923 323.6187000000001L209.51934999999935 325.20669999999996L199.7258499999998 319.17845L199.23734999999965 317.22755000000006L190.73634999999967 328.7030500000003L184.88384999999994 328.21709999999996L181.43384999999967 332.6974999999999L172.00984999999946 330.98045000000013L170.3753499999999 332.00075000000027L167.08434999999952 329.99484999999993L163.33684999999946 330.6635L161.30335000000002 329.0289999999999L156.7548499999998 325.89879999999994L155.46335 322.47344999999996L154.43134999999984 316.54245000000003L146.0238499999997 311.25245000000007L140.79484999999977 300.55375000000026L137.46534999999994 300.4169999999999L137.73284999999987 296.58135000000016L134.15134999999964 292.4177500000002L134.70834999999965 288.6453499999999L136.7658499999999 275.55909999999983L139.89684999999952 273.2720499999999L139.19934999999953 272.0399500000002L145.4943499999996 263.9746500000001L150.47284999999988 260.4021L153.56785000000002 242.80579999999986L158.4068499999995 239.84680000000026L167.47984999999971 244.60955000000013L177.18435 240.5093499999998L183.47634999999968 240.44989999999984L186.41885000000002 237.90160000000014L192.03634999999963 236.62615000000017L191.55534999999986 232.77199999999993L189.04084999999952 228.98525000000006L190.9573499999999 228.21124999999995L191.9288499999999 220.0497999999999L197.42484999999988 217.5114000000002L199.78484999999978 223.14270000000022L205.69234999999935 223.38369999999998L209.70185000000015 227.9985499999998L218.05184999999938 226.99619999999982L223.93235000000004 229.0531500000003L231.34734999999978 232.12845000000016L241.66984999999954 233.53745000000004L247.11784999999963 244.70505000000003L249.16084999999953 244.69425L257.03284999999937 251.01595000000032L258.87884999999983 254.65194999999994L264.3713500000001 256.87479999999994L267.4218499999995 262.01464999999985L270.88435000000004 264.10255000000006L287.43785 263.40554999999995L291.8228499999998 263.4158000000002L292.7833499999997 260.9046000000001L299.98685000000023 257.91710000000023L309.6568500000001 257.23025000000007L313.7718499999994 253.6095499999999L318.4503499999994 253.8508999999999L325.4068499999994 256.5301499999998L327.3058500000002 255.1473500000003L334.97884999999997 248.20179999999993L340.39184999999975 254.31330000000003L346.56385 255.27705000000026L352.81785000000013 250.3595999999999L358.3988499999998 256.0017499999998L363.72634999999946 258.5943500000002L367.26884999999925 268.15969999999993L371.8243499999994 271.93550000000016L374.40534999999954 277.2783500000003L371.60234999999943 288.94049999999993L374.91184999999973 286.81510000000003L383.1723499999998 291.86109999999985L390.8378499999992 292.1148499999998L391.20334999999955 294.0623499999998L399.82684999999947 290.77485000000024L405.3133500000001 291.91689999999994L411.5363500000001 289.8408999999998L419.68084999999974 301.6709000000003L417.1143499999994 307.16740000000016L417.18785000000025 313.2588500000003L414.2248499999994 315.7482500000003L408.34634999999935 316.84214999999995L407.0563500000003 322.4147499999998L407.56835000000024 330.08950000000027L401.9993499999998 331.64964999999995L398.55684999999994 333.1193000000002L398.8578499999994 336.91914999999995L397.26035000000024 338.1178L396.53934999999933 344.07264999999995L391.48685 350.0408500000003L384.21434999999974 353.21979999999996L382.1893499999999 356.31280000000004L381.8783499999995 357.73945000000026L385.3978499999994 364.7025000000002L381.22684999999933 371.35114999999985L383.20434999999975 381.1862500000001L383.1478500000003 382.9899999999998L383.22985000000017 391.3624500000003L386.52285000000006 396.7628000000002L390.6123500000001 412.9952000000003L390.8758499999999 416.77435L388.5508500000003 421.9203500000003L389.54285000000027 427.42525L386.9198499999993 434.63415L380.62434999999937 441.73760000000016L378.2173499999999 448.7877000000003L373.10835 458.6628999999999L374.7218499999997 459.5582999999999L373.43284999999923 466.7909500000002L369.9033499999996 468.5132500000003L360.5563499999994 470.83394999999996L358.6573499999997 474.2261500000001L357.9418499999997 481.86019999999985L354.12484999999947 482.1268500000002L352.7253499999995 492.00030000000027L357.19934999999964 498.21259999999995L358.73584999999935 499.4217500000002L357.2653500000001 505.0908500000003L353.0033500000002 509.77554999999995L350.7853499999999 517.9816L351.43685000000005 524.2887000000002L355.7388500000002 531.59605L356.1098500000003 537.9650500000002L353.9333499999998 552.01345L351.3823500000001 555.1584000000003L345.72585000000004 557.4275L341.9553499999995 561.4688999999998L340.23284999999987 575.0889999999998L340.79385 579.8951L334.2873499999996 595.2813500000002L333.3408499999996 610.01735L334.5108499999992 618.3673499999998L334.94635000000017 620.99785L336.0368499999993 641.78585L335.68985 643.88485L334.3553499999996 656.2993499999999L327.3233499999992 647.61235L320.5003499999998 651.7688500000003L315.7573500000001 644.0228500000001L313.0008499999997 643.5978499999999L302.5008500000001 638.2593500000002L300.68334999999934 639.08885L295.23034999999936 636.2268499999999L290.32685000000015 626.9968499999999L291.2273499999992 625.1158500000003L291.8058499999995 624.1428500000001L284.1733499999998 624.3893500000001z">
      <title id="t27">Première circonscription de l'Ardèche</title>
      <desc id="d27">Cantons de : Bourg-Saint-Andéol, Le Cheylard, Chomérac, Privas, Rochemaure, Saint-Martin-de-Valamas, Saint-Pierreville, Vernoux-en-Vivarais, Viviers, La Voulte-sur-Rhône</desc>
    </path><path class="circo" id="id-007-02" d="M306.97535000000016 73.4842500000002L296.86984999999936 71.58639999999991L289.01835000000005 74.62814999999978L286.3443499999994 77.8645499999999L278.6323499999992 74.88769999999988L273.30934999999954 80.15075000000024L267.0163500000001 80.64504999999997L263.7653499999999 78.08910000000026L266.2233500000002 85.95064999999977L265.0108499999999 89.94865000000004L262.9973499999994 90.47599999999989L261.12934999999993 93.6409500000002L262.66885 102.81800000000032L259.27884999999947 112.20365000000015L254.09284999999954 114.93614999999977L253.1493499999999 118.84940000000029L248.87984999999958 123.0159500000002L246.94785000000024 134.9365499999999L248.15534999999954 140.7699500000001L252.16434999999933 145.07000000000005L252.77934999999957 148.96535000000029L244.9783500000001 148.08415000000025L244.2688499999997 149.9205999999998L246.2883499999998 153.3041000000003L243.91335000000026 154.6488499999998L240.26584999999955 149.79895L240.96784999999954 142.03810000000033L233.1748499999992 135.7505500000002L227.50884999999926 136.5609999999998L218.4693500000003 133.62295000000017L216.77384999999958 143.4357L228.29184999999939 151.31970000000024L227.21535000000017 157.19010000000026L221.88035000000013 159.69859999999983L216.30584999999996 157.70314999999982L211.10535000000027 160.6006000000002L212.6338499999997 167.85939999999982L210.8433500000001 168.61969999999985L209.28134999999997 174.0188999999998L205.63985000000002 175.36524999999983L206.21984999999995 181.2603999999999L211.73485000000028 187.19130000000007L215.78534999999988 186.8225000000001L219.3923499999994 188.71160000000032L220.63085 194.7681L219.53584999999975 198.7510500000002L209.87634999999955 200.46269999999993L207.8373499999998 203.87190000000032L193.61784999999998 202.50440000000026L185.79684999999984 208.4550999999999L182.15284999999994 222.10714999999993L185.41234999999972 227.25880000000018L189.04084999999952 228.98525000000006L190.9573499999999 228.21124999999995L191.9288499999999 220.0497999999999L197.42484999999988 217.5114000000002L199.78484999999978 223.14270000000022L205.69234999999935 223.38369999999998L209.70185000000015 227.9985499999998L218.05184999999938 226.99619999999982L223.93235000000004 229.0531500000003L231.34734999999978 232.12845000000016L241.66984999999954 233.53745000000004L247.11784999999963 244.70505000000003L249.16084999999953 244.69425L257.03284999999937 251.01595000000032L258.87884999999983 254.65194999999994L264.3713500000001 256.87479999999994L267.4218499999995 262.01464999999985L270.88435000000004 264.10255000000006L287.43785 263.40554999999995L291.8228499999998 263.4158000000002L292.7833499999997 260.9046000000001L299.98685000000023 257.91710000000023L309.6568500000001 257.23025000000007L313.7718499999994 253.6095499999999L318.4503499999994 253.8508999999999L325.4068499999994 256.5301499999998L327.3058500000002 255.1473500000003L334.97884999999997 248.20179999999993L340.39184999999975 254.31330000000003L346.56385 255.27705000000026L352.81785000000013 250.3595999999999L358.3988499999998 256.0017499999998L363.72634999999946 258.5943500000002L367.26884999999925 268.15969999999993L371.8243499999994 271.93550000000016L374.40534999999954 277.2783500000003L371.60234999999943 288.94049999999993L374.91184999999973 286.81510000000003L383.1723499999998 291.86109999999985L390.8378499999992 292.1148499999998L391.20334999999955 294.0623499999998L399.82684999999947 290.77485000000024L405.3133500000001 291.91689999999994L411.5363500000001 289.8408999999998L419.68084999999974 301.6709000000003L422.56234999999947 298.8170500000001L424.48184999999967 293.61789999999985L421.52534999999943 282.6407499999999L422.90734999999927 278.8204999999999L427.60734999999954 274.7915499999999L428.6488499999996 270.81680000000006L435.2383499999996 258.55594999999994L433.0183499999998 253.7818500000003L430.00535000000013 246.71715000000006L424.1458499999999 241.2008000000003L420.99784999999997 233.7790000000001L420.7778499999995 232.79960000000017L420.48135 224.2743999999999L416.49684999999977 219.30925000000002L414.0383499999996 215.9869500000002L417.73585000000026 208.50439999999992L417.18435 206.44980000000032L415.39384999999925 203.15269999999998L416.2653499999999 197.70815000000027L421.4308499999993 192.68865000000005L424.2548499999998 187.16904999999997L421.2133499999993 182.1280999999999L413.66535 179.44189999999992L410.82784999999944 176.68745L410.25885000000017 173.25390000000027L411.38334999999984 169.96205000000032L411.01585 161.54404999999997L409.07235000000014 157.94159999999977L404.7213499999998 153.4426000000002L400.1528499999995 146.81204999999977L400.0658499999997 142.8062L400.1928499999997 141.51220000000023L410.58134999999993 127.66894999999977L410.6403499999999 126.5304500000002L408.67734999999925 123.43965000000026L403.46784999999954 121.02795000000015L402.78934999999933 115.19720000000007L403.4033499999998 109.87315000000024L400.92634999999973 105.05310000000009L400.9358499999996 101.54420000000016L403.6253499999998 97.0915500000001L399.8003499999993 84.83189999999979L399.1313500000001 72.3246499999999L402.19634999999926 64.56500000000005L402.6813500000003 59.95900000000006L402.5223499999993 58.133450000000266L402.46984999999995 47.14845000000025L398.6468500000001 40.69970000000012L390.5913499999997 33.74090000000024L382.3773499999993 25.477450000000204L381.79084999999986 17.69929999999988L381.88234999999963 16.508800000000292L382.8583500000002 12.89829999999995L384.7138499999994 13.195800000000304L387.27935 10.600949999999898L386.7708499999992 6.8858000000000175L379.7348499999998 0L366.9118500000002 2.3421999999999343L365.75834999999984 6.701949999999783L357.3423500000001 9.748850000000289L355.0953500000003 12.516749999999774L347.4908499999992 11.743299999999977L329.8198500000001 23.87855000000002L331.7853500000001 28.285750000000007L327.8188499999999 30.679799999999773L320.14934999999923 33.510049999999865L320.6583499999999 39.65379999999982L323.17384999999945 42.889299999999935L322.6123499999994 44.89084999999989L318.4873499999992 44.528399999999806L312.83834999999954 46.06165000000033L309.75734999999986 56.09035000000006L312.79384999999934 58.45289999999977L315.6893500000001 61.65520000000015L315.69335000000024 67.8543000000002L306.97535000000016 73.4842500000002z">
      <title id="t28">Deuxième circonscription de l'Ardèche</title>
      <desc id="d28">Cantons de : Annonay Nord, Annonay Sud, Lamastre, Saint-Agrève, Saint-Félicien, Saint-Péray, Satillieu, Serrières, Tournon</desc>
    </path><path class="circo" id="id-007-03" d="M215.87535000000003 352.60305000000017L217.7943499999992 344.78594999999984L211.81285000000003 339.4506000000001L220.32434999999964 321.43910000000005L217.60935000000018 317.97495000000026L213.6233500000003 317.6681000000002L213.19284999999923 323.6187000000001L209.51934999999935 325.20669999999996L199.7258499999998 319.17845L199.23734999999965 317.22755000000006L190.73634999999967 328.7030500000003L184.88384999999994 328.21709999999996L181.43384999999967 332.6974999999999L172.00984999999946 330.98045000000013L170.3753499999999 332.00075000000027L167.08434999999952 329.99484999999993L163.33684999999946 330.6635L161.30335000000002 329.0289999999999L156.7548499999998 325.89879999999994L155.46335 322.47344999999996L154.43134999999984 316.54245000000003L146.0238499999997 311.25245000000007L140.79484999999977 300.55375000000026L137.46534999999994 300.4169999999999L137.73284999999987 296.58135000000016L134.15134999999964 292.4177500000002L134.70834999999965 288.6453499999999L129.0473499999996 291.38604999999984L124.99984999999981 296.16510000000005L116.60984999999982 296.11834999999985L108.55484999999987 293.68629999999996L104.51134999999965 293.7912499999999L95.7883499999997 298.35170000000005L91.39284999999973 298.66355L87.88284999999973 299.9330500000002L82.59034999999983 297.31299999999976L74.9648499999995 296.8925999999999L70.64049999999952 300.8481499999999L69.1395 309.94140000000016L66.94799999999987 313.0221L70.57749999999999 319.76159999999993L67.46299999999962 322.31105000000014L62.289499999999975 319.7568000000001L57.83399999999972 326.3799499999999L54.00449999999978 321.7291499999999L52.02249999999992 321.51520000000005L50.54399999999987 324.9502000000001L52.96799999999962 330.68865000000017L50.7284999999996 333.50869999999986L44.53800000000001 328.4148499999998L42.77999999999963 322.67425000000003L35.28249999999957 325.9179499999999L34.82899999999972 327.9139500000002L31.57449999999983 341.6458L23.588999999999487 353.1659000000002L23.37349999999958 355.0393500000001L26.268499999999904 357.8819500000003L26.516999999999484 358.69309999999984L21.730999999999767 360.5399L15.996999999999844 362.61885000000007L15.146499999999605 368.4725500000002L13.351999999999862 369.4864000000001L5.932999999999993 366.3693999999998L4.10699999999963 367.3300499999999L0 374.1062499999998L5.571499999999787 376.7372499999999L6.209999999999809 378.7051500000001L0.2785000000000082 388.9377000000002L0.2554999999995289 393.0681500000003L3.1419999999997117 396.01290000000006L3.0264999999997144 402.16470000000015L8.92599999999959 402.3111499999999L9.365499999999543 404.2704500000002L3.8759999999996353 412.70230000000026L9.709499999999593 425.77740000000006L13.706999999999994 430.2547500000003L14.126999999999725 434.8366500000003L13.435999999999808 450.96405000000004L18.757999999999697 453.54625L19.361999999999853 455.49365000000023L18.705999999999676 464.64305000000024L23.774499999999534 467.62999999999977L23.07549999999992 471.6030999999998L25.94249999999988 476.8686500000001L36.655999999999835 476.2708500000002L41.8119999999999 487.6496500000002L43.84649999999965 497.2687000000002L49.63749999999948 507.85500000000013L48.58949999999993 509.59670000000017L50.40649999999971 510.5688500000002L52.84299999999973 518.4386499999999L52.99699999999973 534.8417499999999L57.64699999999948 543.6772500000001L64.83749999999986 547.4416000000002L68.57499999999959 551.7133999999999L74.19684999999959 551.92115L77.7308499999998 559.3364000000003L74.4983499999995 566.8214L81.71584999999993 570.4690499999998L87.5153499999999 576.2567999999999L83.69584999999972 582.8888499999999L78.11884999999961 581.7273499999999L76.44484999999975 582.7918499999998L77.02134999999998 588.4538500000002L80.94434999999976 591.93735L80.55984999999964 595.6043499999998L82.69084999999961 600.5893500000002L81.2408499999998 603.7703499999998L80.21334999999965 616.8918500000001L73.6030999999997 620.9708499999999L78.85284999999953 627.4478499999998L80.29534999999953 628.4128500000003L83.98934999999994 626.72485L89.81134999999995 621.4608500000003L102.56934999999999 618.56135L104.9323499999997 620.3813500000001L108.49085000000002 620.91835L112.2983499999998 616.2868500000002L118.63684999999975 624.47135L119.14784999999995 630.7728500000002L127.1523499999995 631.4838500000002L134.07584999999983 628.16485L137.72584999999992 638.85985L150.39334999999994 645.2108500000003L157.90234999999996 653.5103500000002L162.61384999999962 657.6558499999999L168.46334999999954 659.8218500000002L174.7843499999999 655.4733500000003L181.25434999999982 643.3658500000001L180.99034999999958 629.7823499999998L186.82885 629.8998499999999L193.62284999999986 625.7823500000001L198.36535000000026 619.4708500000002L196.88384999999926 615.9363500000001L215.7543499999997 614.8578500000002L222.92834999999968 610.74635L226.56285000000025 612.3728499999999L229.42985000000022 617.9073499999998L229.04834999999935 621.97135L224.85934999999927 635.8758499999999L225.58985000000007 641.9088499999998L229.9493499999994 645.7228500000002L242.02535000000012 644.8283500000002L243.56584999999995 648.6038500000001L245.61185000000023 648.54535L251.04784999999993 639.9688500000002L249.15435000000002 640.65585L250.1368500000001 618.4488499999998L251.95285000000013 614.7803499999998L255.95635000000016 613.9448500000003L254.19334999999933 608.33685L255.6403499999999 602.7553499999999L252.0953499999996 602.08485L249.1168499999992 604.5183500000002L248.07585000000017 601.0798499999999L250.1458500000001 593.48435L252.59135000000015 590.4668500000002L251.18634999999927 586.7838499999999L255.86284999999975 582.9243500000001L259.79735000000005 582.0128499999998L261.03385000000003 578.3562000000001L269.2453499999999 572.5979000000001L271.47134999999935 569.21175L268.9753499999995 561.4385500000003L259.0223500000002 558.5012999999998L257.2118499999999 555.0429000000003L259.13284999999973 554.2750000000001L262.0628499999998 542.3815000000002L266.93334999999934 538.55345L272.97834999999964 537.6231999999999L272.31284999999957 531.5823499999999L279.50034999999957 528.0414999999999L273.57484999999997 523.1316500000003L278.0658499999993 512.4975999999998L283.9558499999998 511.0337500000003L292.11484999999925 516.8869000000001L295.6373499999995 507.43119999999976L294.69634999999926 499.2697500000003L296.05384999999956 497.7129500000001L298.2028500000001 494.53415000000007L293.5173499999996 488.73335L294.89284999999995 488.159L294.54335000000015 485.2465000000001L296.47335 479.366L306.2533499999995 477.5249500000001L308.3238499999993 465.5961500000001L310.90434999999957 462.4293499999999L308.8488499999994 459.44785000000024L310.3603499999997 447.38805000000013L308.99035000000026 445.96209999999985L305.3673500000002 446.7927500000002L303.5808499999996 443.14885000000004L303.8088499999992 439.50154999999995L307.4543499999993 438.36495000000014L310.9058499999992 439.98890000000017L314.3918499999995 435.64959999999985L314.0498500000001 435.5833000000001L308.6038499999995 431.03020000000015L313.46784999999954 425.64655000000016L311.8333499999994 420.0123000000002L307.1143499999994 413.5773499999999L297.2798499999999 412.6162499999998L292.5938499999995 415.23059999999987L286.58135000000016 415.2365500000002L285.3388499999994 416.8376999999998L283.5993499999995 415.80795000000023L275.6558499999994 401.7563000000001L275.56134999999927 401.3778500000001L269.5443499999999 394.3754999999999L267.8483499999993 389.5130999999998L262.35185 387.52909999999986L256.61134999999945 388.2348999999999L250.97384999999917 393.56994999999984L245.24935000000028 394.0681000000001L241.61134999999945 392.5472500000001L243.2823499999995 391.54904999999985L240.57884999999942 382.5377000000003L245.68334999999934 368.4174999999999L235.10384999999928 362.64700000000005L227.95284999999922 355.4302999999999L224.06285000000025 354.8064499999998L222.56835000000024 353.31380000000024L219.43784999999934 351.6731500000003L215.87535000000003 352.60305000000017z">
      <title id="t29">Troisième circonscription de l'Ardèche</title>
      <desc id="d29">Cantons de : Antraigues, Aubenas, Burzet, Coucouron, Joyeuse, Largentière, Montpezat-sous-Bauzon, Saint-Etienne-de-Lugdarès, Thueyts, Valgorge, Vallon-Pont-d'Arc, Vals-les-Bains, Les Vans, Villeneuve-de-Berg</desc>
    </path></svg>