<svg xmlns="http://www.w3.org/2000/svg" version="1.1" xmlns:xlink="http://www.w3.org/1999/xlink" xmlns:svgjs="http://svgjs.dev/svgjs" width="581.1023499999993" height="618.373" fill="#eeeeee" stroke="#cccccc" xmlns:sodipodi="http://sodipodi.sourceforge.net/DTD/sodipodi-0.dtd"><path class="circo" id="id-008-01" d="M4.8038499999995565 480.4309999999998L7.218349999999987 489.2389499999999L7.48784999999998 493.6942499999998L10.029349999999795 497.1984999999998L9.221349999999688 501.62724999999995L18.31784999999968 502.1955L22.370349999999917 504.2763499999998L25.091850000000022 504.30769999999995L34.00584999999978 504.05035L37.72334999999998 504.0496999999999L49.68134999999961 502.5717L59.95734999999968 504.08435L70.19434999999987 504.631L69.15834999999959 506.15984999999995L74.39084999999977 515.8949999999999L79.64534999999955 513.2343999999998L83.12635 515.6246999999998L91.17885000000001 516.7600500000001L92.08235000000002 518.1296999999997L94.21684999999968 517.8469999999999L98.73434999999972 528.19335L105.12434999999982 534.6431999999999L113.80734999999959 536.2104499999998L111.2313499999999 538.53185L112.22035000000005 539.9618999999998L119.86085000000003 553.2109499999999L130.62134999999955 553.3388L134.30585000000008 555.65825L134.8348500000003 559.97005L139.16384999999934 559.7685999999999L142.9783500000002 557.1677499999998L148.4748499999995 555.0355499999998L156.80485000000033 552.0690999999999L159.30684999999983 548.4313L166.97285000000022 552.64365L179.31534999999997 550.3408999999999L177.75534999999934 543.8798499999998L172.12384999999983 536.7683L169.03335000000027 528.42895L172.69934999999975 527.8970999999999L172.98834999999997 524.22325L177.34035000000006 523.9621499999998L179.32184999999947 520.2428L181.44335000000012 520.7336999999998L186.66634999999985 513.8814499999999L187.48935000000017 509.60004999999995L182.49934999999994 505.9319499999998L184.5308499999993 502.1066499999998L185.17184999999984 498.48929999999996L182.95884999999942 495.2771999999999L187.7493499999997 488.6233999999999L188.16885000000013 477.0510999999999L191.69185000000027 474.47294999999997L193.48985000000027 468.2477L205.65134999999998 453.19924999999984L202.6798500000001 451.2544L204.95484999999974 447.9165499999999L203.09784999999977 440.07565L205.16085000000032 440.162L208.54334999999935 435.0852999999998L210.58434999999974 434.80124999999987L210.11585000000025 430.76779999999985L213.26134999999965 425.6031999999999L225.17134999999996 423.0641L227.99084999999934 415.2033499999999L227.37535000000037 408.90889999999985L232.90284999999983 406.1391999999998L236.82534999999973 407.29545L234.57785 399.87769999999983L237.06984999999975 392.1285499999999L242.97634999999957 387.0639L241.2148499999995 383.49249999999984L246.98334999999986 379.8151999999999L253.71735 378.42060000000004L257.5728499999997 380.6694999999999L260.34785 386.5840499999999L266.1753500000003 390.29994999999985L275.63834999999983 389.50424999999996L273.1298499999997 401.2202499999998L278.4913499999999 409.24889999999976L282.8728499999994 401.48695000000004L289.48735 400.06315L295.8003500000001 401.7260999999999L298.8198499999993 398.7119999999999L297.54084999999975 394.6255499999998L298.8978500000002 392.97664999999995L299.08684999999934 395.09539999999987L309.1183499999994 397.8149499999998L310.02384999999947 399.08355L314.2768499999994 398.02464999999984L317.27284999999995 394.85749999999996L329.70734999999934 399.0337499999998L338.4118499999994 398.26840000000004L345.6223499999993 390.04695L343.38685 384.32050000000004L339.78384999999946 382.32755L342.25134999999966 379.0553L341.8733500000002 367.95814999999976L344.0183499999995 367.4892L350.26734999999974 364.97635L343.9368499999995 350.6982499999998L347.3233499999998 344.9607999999998L339.20585000000017 344.6595499999998L342.9403499999995 339.38320000000004L345.2148499999993 327.5853999999998L347.50534999999957 323.74329999999986L347.9683499999993 314.99809999999997L346.0753499999993 310.56054999999986L347.7678499999996 309.43629999999985L349.75634999999954 309.0281999999999L350.9193499999998 305.12215L348.22235000000035 297.53275L347.7108500000003 296.98319999999995L345.39334999999994 288.1958L347.7823499999994 276.9624999999999L350.3108500000002 273.44525000000004L349.17485 271.5979999999999L346.75234999999986 265.99435L347.1083500000003 261.84544999999986L346.8088499999993 254.6992499999999L344.8743499999995 251.35924999999986L342.9828500000002 251.7944L337.14935000000025 241.4998L325.3783500000003 240.87484999999987L320.79834999999946 238.2907499999999L315.1308499999999 235.2039499999998L313.0133499999994 235.92579999999998L311.2423499999994 239.93449999999996L312.60235000000023 246.4381499999999L311.0913499999998 248.08474999999987L310.71984999999984 243.8163L303.1988499999994 236.19910000000004L300.8648499999998 239.272L300.35135000000025 240.36189999999976L298.94184999999936 253.28204999999997L295.90935 253.11784999999986L293.3358500000003 254.5945999999998L293.1903499999993 256.53854999999993L294.26085 259.6468999999999L293.8718499999999 261.8067499999998L291.31834999999967 260.8218499999998L290.69834999999955 258.5783999999998L285.55485000000033 257.79409999999984L284.22684999999944 260.77924999999993L286.9638500000002 262.7919499999999L286.98984999999936 264.7104999999999L293.5373499999997 265.96000000000004L296.3298500000002 265.9152499999999L297.0693499999999 267.2790999999998L294.3798499999997 268.20515L295.2583499999997 272.2742499999998L286.2548499999997 272.6058999999998L285.6838499999998 284.2129L284.00334999999984 287.0254L275.72884999999985 299.01369999999986L269.2048499999993 301.1143999999999L269.9373499999996 299.06825L266.42584999999997 296.56049999999993L262.67834999999934 295.43575000000004L260.07634999999993 290.2472499999999L255.28084999999976 293.64565L246.8583499999994 294.0814999999998L238.9598499999994 304.5602499999998L232.89484999999956 306.8715499999999L230.03985 304.718L230.88135000000023 302.07660000000004L234.56034999999986 289.7731999999999L231.1758500000002 284.25759999999997L237.01885000000004 276.15279999999984L230.50585000000012 275.54959999999994L225.5038499999995 268.50974999999977L215.15735000000006 266.03054999999983L215.69334999999967 262.69964999999985L210.33884999999998 261.15905L208.92634999999984 253.01679999999976L212.55984999999953 245.68029999999993L209.36885000000018 243.7787499999999L207.89635000000033 241.51359999999983L204.15185000000008 231.12674999999996L200.01034999999945 230.72824999999995L195.0628499999999 227.01155L191.84484999999938 229.59129999999988L186.84334999999976 233.83594999999985L184.8458499999998 249.31979999999982L178.96484999999927 248.32965000000002L176.14935000000003 246.7693L178.36584999999957 240.41984999999983L174.29384999999968 232.64569999999992L176.4828499999993 216.79659999999984L170.77785000000006 205.04894999999976L168.21034999999995 204.9434499999998L163.90434999999968 203.28469999999982L162.0223500000003 196.50254999999987L174.15934999999934 171.6799499999999L180.67934999999977 164.01909999999987L169.31035000000008 171.70439999999985L158.7313499999999 175.78389999999985L151.83584999999937 176.22464999999977L153.85784999999998 175.223L154.41284999999937 164.15044999999992L150.82335 153.60629999999986L150.61984999999993 151.36049999999983L151.9703499999997 149.59789999999998L158.51834999999994 148.67535000000004L159.85184999999944 146.86574999999976L158.48585000000014 145.13859999999994L153.9408499999996 144.8327999999998L150.68934999999954 141.62454999999994L137.3153499999995 142.60879999999986L131.28985 135.66374999999994L124.51934999999992 134.57554999999985L120.84734999999966 131.81365L112.2938499999998 134.72949999999997L98.57134999999971 134.8398499999999L87.88884999999993 138.91414999999995L87.49134999999967 140.14819999999986L82.42234999999994 154.9203L81.3888499999996 166.36304999999993L83.24534999999969 170.2102499999998L88.13334999999995 171.07544999999988L89.53284999999994 174.59544999999991L97.52234999999985 174.46679999999986L95.12335000000007 201.33385000000004L94.66184999999996 205.47874999999976L88.1448499999999 210.93154999999996L86.65734999999984 219.23414999999977L83.83384999999976 222.01414999999997L80.11384999999962 238.97894999999977L82.13234999999997 239.71389999999985L85.3278499999999 247.4902499999999L83.52134999999976 251.4020499999998L78.06035000000008 254.82499999999987L76.52584999999988 256.42245L79.89685000000009 261.9797L84.2488499999996 260.81684999999993L91.70185000000004 265.7351L93.75884999999982 272.13480000000004L86.81434999999965 277.8655999999998L85.57284999999979 288.35954999999984L84.63284999999985 290.8561L76.03234999999984 293.86059999999986L70.17184999999984 298.5029499999999L67.19634999999982 307.97814999999986L67.57385 309.5256499999999L58.88734999999997 312.79650000000004L53.033849999999916 314.93044999999995L50.16435000000001 317.55104999999986L51.18134999999995 323.3334499999998L42.81835000000001 323.28945000000004L40.969349999999736 334.54064999999986L41.89185000000009 341.2679L38.66084999999998 347.18514999999996L38.00184999999999 352.60789999999986L29.626349999999775 355.2916499999998L19.21334999999999 350.8491999999998L10.318849999999884 351.5133L9.026349999999752 349.6266L6.8298499999997375 349.39689999999985L5.207849999999894 357.82629999999983L0 361.36049999999983L2.230999999999881 365.1744499999998L9.045350000000099 373.99969999999996L14.590349999999717 376.80825L16.221850000000018 378.28614999999985L14.451849999999808 382.33344999999986L15.53184999999985 391.15594999999985L21.460349999999835 393.6221999999998L14.19984999999997 404.25375L10.269349999999804 406.1555999999999L10.89384999999993 410.42665L17.53985 411.69339999999977L20.983850000000075 414.43054999999987L20.749349999999822 425.6332999999998L20.497349999999983 427.7722L14.622850000000085 426.10929999999996L12.568349999999668 434.09564999999986L6.135349999999562 434.3509499999999L6.158350000000041 442.8691999999998L6.481849999999554 450.37710000000004L6.435849999999732 452.5287499999999L6.730349999999703 459.08799999999985L16.948849999999993 475.61694999999986L14.932349999999701 474.7789L8.883849999999711 475.79669999999993L4.8038499999995565 480.4309999999998z">
      <title id="t30">Première circonscription des Ardennes</title>
      <desc id="d30">Cantons de : Asfeld, Charleville Centre, Château-Porcien, Chaumont-Porcien, Flize, Juniville, Mézières Est, Novion-Porcien, Omont, Rethel, Rumigny, Signy-l'Abbaye, Signy-le-Petit, Villers-Semeuse</desc>
    </path><path class="circo" id="id-008-02" d="M280.65935000000025 92.66474999999986L281.47085000000004 103.52149999999995L280.4503499999993 107.77175L284.04534999999953 113.35565000000003L272.7473500000002 113.4528499999999L257.96584999999993 119.3259999999998L242.1273500000001 120.31949999999995L233.6543499999999 123.52125000000001L231.16984999999943 128.47129999999993L227.49134999999967 130.98039999999997L218.69134999999972 132.0363499999999L211.60934999999938 143.2111999999998L206.14885000000015 146.19139999999987L192.74434999999983 145.9787L178.30435000000023 152.55704999999978L167.00184999999976 146.43049999999988L158.48585000000014 145.13859999999994L159.85184999999944 146.86574999999976L158.51834999999994 148.67535000000004L151.9703499999997 149.59789999999998L150.61984999999993 151.36049999999983L150.82335 153.60629999999986L154.41284999999937 164.15044999999992L153.85784999999998 175.223L151.83584999999937 176.22464999999977L158.7313499999999 175.78389999999985L169.31035000000008 171.70439999999985L180.67934999999977 164.01909999999987L174.15934999999934 171.6799499999999L162.0223500000003 196.50254999999987L163.90434999999968 203.28469999999982L168.21034999999995 204.9434499999998L170.77785000000006 205.04894999999976L176.4828499999993 216.79659999999984L174.29384999999968 232.64569999999992L178.36584999999957 240.41984999999983L176.14935000000003 246.7693L178.96484999999927 248.32965000000002L184.8458499999998 249.31979999999982L186.84334999999976 233.83594999999985L191.84484999999938 229.59129999999988L195.0628499999999 227.01155L200.01034999999945 230.72824999999995L204.15185000000008 231.12674999999996L207.89635000000033 241.51359999999983L209.36885000000018 243.7787499999999L212.55984999999953 245.68029999999993L208.92634999999984 253.01679999999976L210.33884999999998 261.15905L215.69334999999967 262.69964999999985L215.15735000000006 266.03054999999983L225.5038499999995 268.50974999999977L230.50585000000012 275.54959999999994L237.01885000000004 276.15279999999984L231.1758500000002 284.25759999999997L234.56034999999986 289.7731999999999L230.88135000000023 302.07660000000004L230.03985 304.718L232.89484999999956 306.8715499999999L238.9598499999994 304.5602499999998L246.8583499999994 294.0814999999998L255.28084999999976 293.64565L260.07634999999993 290.2472499999999L262.67834999999934 295.43575000000004L266.42584999999997 296.56049999999993L269.9373499999996 299.06825L269.2048499999993 301.1143999999999L275.72884999999985 299.01369999999986L284.00334999999984 287.0254L285.6838499999998 284.2129L286.2548499999997 272.6058999999998L295.2583499999997 272.2742499999998L294.3798499999997 268.20515L297.0693499999999 267.2790999999998L296.3298500000002 265.9152499999999L293.5373499999997 265.96000000000004L286.98984999999936 264.7104999999999L286.9638500000002 262.7919499999999L284.22684999999944 260.77924999999993L285.55485000000033 257.79409999999984L290.69834999999955 258.5783999999998L291.31834999999967 260.8218499999998L293.8718499999999 261.8067499999998L294.26085 259.6468999999999L293.1903499999993 256.53854999999993L293.3358500000003 254.5945999999998L295.90935 253.11784999999986L298.94184999999936 253.28204999999997L300.35135000000025 240.36189999999976L300.8648499999998 239.272L303.1988499999994 236.19910000000004L310.71984999999984 243.8163L311.0913499999998 248.08474999999987L312.60235000000023 246.4381499999999L311.2423499999994 239.93449999999996L313.0133499999994 235.92579999999998L315.1308499999999 235.2039499999998L320.79834999999946 238.2907499999999L325.3783500000003 240.87484999999987L337.14935000000025 241.4998L342.9828500000002 251.7944L344.8743499999995 251.35924999999986L346.8088499999993 254.6992499999999L353.0418500000002 253.7809999999999L355.0818499999997 250.0663499999999L352.26084999999955 246.58034999999984L360.1403499999998 230.50954999999988L357.43634999999983 217.25920000000002L353.7578500000001 214.9750499999999L352.2628500000002 210.7107499999998L350.7493500000004 201.6885499999998L355.1658500000002 197.02349999999996L364.0653500000002 178.11374999999998L365.04335000000026 169.06449999999978L362.28684999999984 162.62294999999995L353.67384999999956 154.84304999999978L348.0508500000002 144.78919999999988L334.7268500000001 141.2632499999998L324.9813499999999 138.5349499999998L324.5938499999994 131.5988999999999L326.9663499999996 122.79419999999988L331.37234999999976 121.48744999999991L335.5093500000004 115.91619999999978L337.5983500000001 95.39500000000004L345.95684999999946 84.6043499999999L344.66785000000016 80.38274999999999L340.7853499999993 78.00929999999994L340.7438499999995 73.37574999999987L337.0168499999994 70.90444999999988L337.67384999999933 67.85629999999998L345.4833500000001 64.91509999999977L346.0468499999996 56.2482L348.09685 55.593800000000044L345.9418499999998 49.533349999999814L350.1488499999999 44.73330000000004L354.25635 45.99679999999978L355.82785 50.34885000000003L357.83684999999934 51.485600000000034L359.62784999999997 50.04014999999981L358.21934999999996 31.73739999999981L361.9243499999999 26.013149999999996L369.4968499999999 20.804399999999816L369.3678499999993 18.4901499999998L364.80435 17.55245000000002L360.66485 9.458349999999882L342.31285000000014 8.317399999999964L338.5353500000002 0L329.92185000000006 10.99854999999991L320.2048499999995 17.450350000000014L314.0398499999998 20.063049999999976L310.12535000000014 30.511099999999942L308.02385000000015 30.74974999999995L308.1633500000004 37.070249999999874L292.8083499999997 44.82209999999981L292.0408500000002 46.834949999999935L287.5228499999997 47.7306999999999L278.64134999999976 66.29369999999994L280.7493500000004 72.8633499999998L285.0773499999997 71.8141L284.8248499999994 82.50649999999979L282.3598499999997 88.55274999999978L280.65935000000025 92.66474999999986z">
      <title id="t31">Deuxième circonscription des Ardennes</title>
      <desc id="d31">Cantons de : Charleville-la-Houillère, Fumay, Givet, Mézières Centre Ouest, Monthermé, Nouzonville, Renwez, Revin, Rocroi</desc>
    </path><path class="circo" id="id-008-03" d="M210.11585000000025 430.76779999999985L213.26134999999965 425.6031999999999L225.17134999999996 423.0641L227.99084999999934 415.2033499999999L227.37535000000037 408.90889999999985L232.90284999999983 406.1391999999998L236.82534999999973 407.29545L234.57785 399.87769999999983L237.06984999999975 392.1285499999999L242.97634999999957 387.0639L241.2148499999995 383.49249999999984L246.98334999999986 379.8151999999999L253.71735 378.42060000000004L257.5728499999997 380.6694999999999L260.34785 386.5840499999999L266.1753500000003 390.29994999999985L275.63834999999983 389.50424999999996L273.1298499999997 401.2202499999998L278.4913499999999 409.24889999999976L282.8728499999994 401.48695000000004L289.48735 400.06315L295.8003500000001 401.7260999999999L298.8198499999993 398.7119999999999L297.54084999999975 394.6255499999998L298.8978500000002 392.97664999999995L299.08684999999934 395.09539999999987L309.1183499999994 397.8149499999998L310.02384999999947 399.08355L314.2768499999994 398.02464999999984L317.27284999999995 394.85749999999996L329.70734999999934 399.0337499999998L338.4118499999994 398.26840000000004L345.6223499999993 390.04695L343.38685 384.32050000000004L339.78384999999946 382.32755L342.25134999999966 379.0553L341.8733500000002 367.95814999999976L344.0183499999995 367.4892L350.26734999999974 364.97635L343.9368499999995 350.6982499999998L347.3233499999998 344.9607999999998L339.20585000000017 344.6595499999998L342.9403499999995 339.38320000000004L345.2148499999993 327.5853999999998L347.50534999999957 323.74329999999986L347.9683499999993 314.99809999999997L346.0753499999993 310.56054999999986L347.7678499999996 309.43629999999985L349.75634999999954 309.0281999999999L350.9193499999998 305.12215L348.22235000000035 297.53275L347.7108500000003 296.98319999999995L345.39334999999994 288.1958L347.7823499999994 276.9624999999999L350.3108500000002 273.44525000000004L349.17485 271.5979999999999L346.75234999999986 265.99435L347.1083500000003 261.84544999999986L346.8088499999993 254.6992499999999L353.0418500000002 253.7809999999999L355.0818499999997 250.0663499999999L360.7003500000002 247.48429999999985L365.9298499999994 250.8753999999999L370.33885 250.30069999999995L374.00284999999997 252.4835999999999L380.40884999999946 250.56864999999988L384.7043500000001 251.7561999999998L386.4783499999993 248.7115L389.6123499999993 249.144L391.17985000000033 244.8868999999999L395.00534999999957 242.65014999999977L410.2198500000003 242.8601999999998L414.6018499999997 247.17224999999985L420.1818499999996 256.4967999999999L433.74934999999994 262.6607999999999L443.18134999999927 268.25975L451.9748499999997 266.1798999999999L454.9013499999995 269.47495000000004L466.9173499999994 291.0723999999999L466.1518499999994 297.4097999999998L474.89435000000014 302.6681499999998L478.31885 297.1724999999998L482.2103499999997 298.8039999999998L484.1503499999993 302.63199999999983L484.4848499999995 313.4390499999998L494.8138499999999 312.39569999999986L498.70235000000037 313.83324999999985L502.5278499999996 312.44039999999984L505.50535000000025 315.89619999999996L512.0813500000003 315.11899999999997L518.4958499999999 317.36249999999984L527.9108500000001 311.44299999999987L533.0648500000001 315.9211499999998L533.3468499999998 318.1856499999998L533.7863499999997 318.26314999999994L535.6348499999996 320.72585000000004L549.4878499999999 332.6496L555.2123499999999 339.3227999999999L550.0963499999995 343.42029999999994L543.4358500000002 354.7116L547.7133499999997 366.53879999999987L550.6833499999999 365.1226L558.3923499999997 362.53739999999993L561.2623500000001 354.19455L581.1023499999993 363.22029999999984L576.0663499999993 370.6865499999998L574.1743500000001 379.2663999999999L567.4918499999995 379.63685L563.7123500000001 381.8050499999998L558.3403500000003 378.2376499999998L544.8203499999994 398.78209999999996L546.3503499999996 401.11279999999994L534.6953500000001 405.6144499999999L531.5858499999996 411.0253L525.4988499999996 412.5573499999999L520.8498500000002 402.8005999999999L513.5863499999999 399.1831499999998L513.4433499999994 394.68975L504.85484999999983 392.12004999999976L499.4133500000004 395.31364999999994L493.2908500000002 394.2945999999998L489.36184999999966 395.9591499999999L485.51535 398.2506999999998L481.7983499999997 396.2631999999999L478.82634999999993 389.7539499999999L475.7298499999996 381.5133L464.7243499999996 379.22904999999986L461.1173500000001 382.01415L458.9058499999993 388.50794999999977L462.02034999999967 399.2729L459.91034999999954 403.72829999999993L454.67934999999954 402.09824999999995L451.95784999999944 412.85079999999994L455.3758499999998 417.9106999999999L452.04184999999995 426.13415000000003L450.19785000000013 426.62649999999985L446.74635000000023 434.22135L440.4343499999999 435.06174999999985L439.2903499999994 436.85575L445.5233500000003 448.65064999999987L447.8058500000003 448.8579999999999L449.76984999999956 452.6562999999999L449.1018500000001 459.3253999999999L454.56435 465.8434L456.63084999999967 465.2758499999999L457.5678499999998 465.9886L460.5358499999994 468.5549999999998L456.72234999999944 478.63294999999994L458.9608500000003 487.21914999999996L462.7328499999993 491.8674999999999L460.3123499999998 495.2040499999998L456.05534999999975 496.27084999999994L449.7458499999999 502.31695L451.5228499999995 506.2166499999998L458.1093500000003 511.98729999999983L455.84334999999953 520.14555L451.50984999999935 525.1422L439.4338499999998 523.9086499999999L436.82534999999973 527.4375999999997L437.56685000000004 531.7936499999998L425.3618499999999 547.3335999999997L425.95684999999946 549.46045L426.3363499999997 553.5807L430.05934999999965 559.99155L426.7418500000002 563.0713499999999L426.9318500000003 565.2277999999999L431.58484999999985 572.70975L437.91585 574.8785499999999L439.0928500000001 577.2362499999999L434.97135000000014 581.394L435.59685 587.4618499999999L429.14784999999995 589.3039999999999L424.81484999999964 588.1197999999997L418.53184999999996 590.5656999999999L413.2763499999993 594.2326L413.80184999999926 596.31925L400.25784999999985 603.91245L396.95134999999993 609.6609999999998L393.0138500000004 611.67635L392.8233499999993 609.47675L381.4878500000003 602.7339499999999L385.69185000000004 595.5409999999997L377.0273500000002 593.5428999999999L366.9703499999997 597.5168499999997L361.2103499999995 594.6442499999998L363.7963499999995 598.1432999999998L355.1233499999995 610.3842L357.52985000000024 614.0176499999998L357.08834999999965 618.373L340.3728499999994 612.6904499999998L341.5283500000004 607.63575L337.4393500000002 608.2730999999999L333.9878500000003 603.51595L324.46534999999983 608.4436499999998L315.9358500000002 606.6879L305.1398499999999 608.6773499999998L298.71685000000014 602.11345L294.08984999999973 602.5216999999998L288.08735000000013 602.0164499999998L288.1083499999994 599.9620500000001L282.1313500000002 598.2520499999998L278.3073499999995 600.7291499999999L273.8043499999998 608.8290499999999L267.24684999999965 610.3471L261.8193500000001 614.2721L253.2668499999994 611.8644499999999L248.78184999999974 597.0785999999998L246.80585000000008 590.8600999999999L241.2358499999999 587.6071L240.09484999999984 583.3608999999999L243.79984999999976 578.0579L234.26985000000002 573.4715499999999L225.60234999999977 573.6156L218.8993499999998 579.36565L208.04734999999994 582.30675L198.2438499999995 583.04495L194.4703499999997 583.07945L182.01835000000017 586.1856999999998L178.90484999999956 588.4474499999999L178.61185000000035 587.8507499999998L176.12635000000012 584.21435L169.60435000000018 583.1062L166.66485000000023 579.9305999999999L162.5213500000001 579.0828999999999L162.42884999999944 578.33745L154.93435000000034 571.3371999999998L148.4748499999995 555.0355499999998L156.80485000000033 552.0690999999999L159.30684999999983 548.4313L166.97285000000022 552.64365L179.31534999999997 550.3408999999999L177.75534999999934 543.8798499999998L172.12384999999983 536.7683L169.03335000000027 528.42895L172.69934999999975 527.8970999999999L172.98834999999997 524.22325L177.34035000000006 523.9621499999998L179.32184999999947 520.2428L181.44335000000012 520.7336999999998L186.66634999999985 513.8814499999999L187.48935000000017 509.60004999999995L182.49934999999994 505.9319499999998L184.5308499999993 502.1066499999998L185.17184999999984 498.48929999999996L182.95884999999942 495.2771999999999L187.7493499999997 488.6233999999999L188.16885000000013 477.0510999999999L191.69185000000027 474.47294999999997L193.48985000000027 468.2477L205.65134999999998 453.19924999999984L202.6798500000001 451.2544L204.95484999999974 447.9165499999999L203.09784999999977 440.07565L205.16085000000032 440.162L208.54334999999935 435.0852999999998L210.58434999999974 434.80124999999987L210.11585000000025 430.76779999999985z">
      <title id="t32">Troisième circonscription des Ardennes</title>
      <desc id="d32">Cantons de : Attigny, Buzancy, Carignan, Le Chesne, Grandpré, Machault, Monthois, Mouzon, Raucourt-et-Flaba, Sedan Est, Sedan Nord, Sedan Ouest, Tourteron, Vouziers</desc>
    </path></svg>