<svg xmlns="http://www.w3.org/2000/svg" version="1.1" xmlns:xlink="http://www.w3.org/1999/xlink" xmlns:svgjs="http://svgjs.dev/svgjs" width="573.2724999999999" height="431.4930000000004" fill="#eeeeee" stroke="#cccccc" xmlns:sodipodi="http://sodipodi.sourceforge.net/DTD/sodipodi-0.dtd"><path class="circo" id="id-009-01" d="M469.5840000000004 328.2619999999997L468.8454999999999 325.78899999999976L461.69700000000034 323.4145000000001L459.9955 319.9765000000002L460.21900000000016 318.13049999999976L465.6550000000004 316.9674999999995L468.4805 314.5600000000002L456.79599999999994 299.4825000000003L455.48699999999997 298.28700000000026L454.2900000000003 294.6780000000001L443.2760000000002 291.16649999999936L438.9085 287.7959999999996L439.24800000000005 283.96049999999946L445.7900000000001 276.9659999999999L445.55499999999995 273.2314999999994L445.9285 269.52949999999987L451.51550000000043 269.30999999999926L476.2020000000001 266.99949999999944L481.77700000000016 264.2814999999996L492.31600000000014 258.7829999999997L490.99050000000034 255.1075000000003L494.1380000000004 235.79449999999952L490.41750000000036 224.71400000000017L470.5090000000001 219.16200000000003L459.0295000000003 214.43700000000035L457.22800000000007 214.74950000000035L455.9065000000004 218.13099999999963L455.62850000000026 223.61699999999928L453.8884999999999 223.0619999999999L450.4540000000003 213.3039999999994L439.7890000000001 208.76649999999927L429.85600000000034 208.56149999999957L425.2520000000004 209.3769999999995L425.07600000000025 205.5824999999993L426.23550000000023 204.0764999999999L430.0045 204.46950000000015L432.1950000000004 199.42749999999933L423.67350000000044 194.5429999999999L418.8715000000002 192.37899999999968L415.4000000000002 187.63900000000035L405.07450000000006 182.9729999999995L401.5055000000001 187.26300000000037L395.0720000000001 191.10099999999989L389.6785 182.6305000000002L391.85 177.02300000000037L390.09749999999997 173.58499999999935L392.6690000000002 170.78300000000013L392.7365000000003 163.17800000000034L398.31549999999993 163.3669999999995L401.6065000000003 152.09499999999935L396.3135 148.6775L392.7260000000001 146.99749999999995L387.76200000000017 156.79750000000013L384.9950000000001 159.7765000000004L375.43150000000026 154.0414999999996L374.18650000000014 151.19500000000016L375.7570000000004 144.9000000000001L375.71500000000015 141.02300000000014L370.26700000000005 140.14999999999986L368.1479999999999 136.9195000000002L366.85699999999997 133.2764999999995L368.33150000000046 129.68650000000025L362.37400000000036 130.92250000000035L348.56700000000046 129.1674999999998L344.65700000000027 130.21949999999947L341.1484999999999 140.62350000000038L339.54800000000034 143.67650000000026L337.731 143.51L330.1695000000001 142.90449999999964L326.72000000000025 141.0145L328.5355000000004 133.9575000000002L316.499 130.6295L313.4745000000004 132.13999999999942L312.7795000000003 137.52899999999954L307.5890000000004 139.76L301.1790000000002 149.03699999999958L298.1645000000003 146.46650000000022L296.8625000000003 142.63349999999946L300.0970000000001 136.21849999999995L298.40599999999995 132.81100000000038L299.01250000000005 125.27600000000007L285.6819999999999 128.60649999999964L283.52149999999995 131.84650000000033L272.60400000000004 135.6804999999997L267.7025000000003 140.57649999999967L266.74300000000017 144.0440000000001L267.84100000000024 144.73899999999958L266.6980000000001 150.0419999999997L259.73299999999995 151.40350000000012L259.37749999999994 153.18449999999984L248.42550000000017 157.43799999999965L246.79250000000025 156.31449999999973L247.4754999999999 152.42399999999975L243.66700000000037 152.54299999999944L237.80149999999992 157.14150000000018L226.90350000000024 153.4744999999998L215.96699999999998 161.22650000000021L214.144 161.0145L208.20300000000032 161.81550000000016L207.0935000000003 165.25499999999965L197.81550000000038 167.3905000000002L197.65350000000012 175.3430000000003L207.312 177.2415000000001L209.43150000000003 180.64149999999927L216.00400000000036 181.32299999999987L232.35550000000046 175.23500000000013L231.09450000000038 180.29049999999984L232.76200000000017 183.36649999999963L234.84200000000044 185.22699999999986L235.28850000000034 191.02949999999964L244.14950000000033 195.0554999999997L242.59600000000034 195.4684999999995L235.83200000000033 199.54650000000015L234.36000000000035 211.28950000000032L238.83250000000032 220.0815L238.74300000000005 224.12450000000035L236.29099999999994 227.3490000000004L232.48199999999997 228.5654999999997L229.96550000000013 225.61599999999999L214.62750000000028 222.3034999999993L205.1400000000001 222.66849999999977L196.12600000000043 225.17049999999927L189.64600000000019 220.51899999999932L180.02850000000024 222.07899999999995L170.99500000000035 218.29150000000027L161.2280000000004 225.2075000000002L159.7085000000004 232.75999999999954L155.15750000000025 233.21900000000028L151.62500000000023 237.26249999999936L146.2190000000004 237.15799999999945L144.957 238.58600000000024L141.04199999999992 242.20000000000027L141.2299999999999 244.04350000000022L139.18350000000032 249.4920000000002L130.7755000000003 254.28699999999935L129.9090000000001 260.08749999999964L122.36750000000029 259.64650000000006L117.47950000000003 256.4885000000004L114.40650000000005 249.08649999999966L111.2315000000001 245.2705000000003L108.6545000000001 242.3535000000004L110.83300000000008 232.87399999999934L109.94000000000028 227.1105L95.89600000000019 201.40199999999936L95.34100000000024 200.6314999999995L90.16400000000033 199.51149999999984L85.88549999999998 195.18699999999967L71.57849999999996 189.14049999999975L64.78000000000009 198.66999999999962L58.66399999999999 200.77699999999936L47.354500000000144 203.77250000000004L42.91850000000011 203.16799999999944L36.53250000000014 207.4019999999996L20.498000000000047 208.34349999999972L24.94700000000023 221.1469999999997L21.80150000000026 225.7325000000003L16.210000000000377 225.9624999999994L12.954500000000166 227.9570000000001L7.249500000000353 227.2664999999995L5.972500000000309 228.7220000000002L0 232.88599999999974L3.2089999999999463 241.42100000000028L6.120000000000232 244.0549999999996L6.8855000000002065 247.9219999999998L3.645000000000209 257.19949999999926L5.425000000000182 260.7190000000003L9.150000000000205 261.9889999999998L10.36200000000008 269.30399999999963L14.110500000000457 277.6599999999996L13.440500000000384 284.9509999999998L17.1995000000004 289.5240000000001L24.77700000000027 292.2799999999995L35.31650000000013 301.6745000000003L42.137500000000045 305.83349999999996L44.121000000000095 306.2450000000001L51.24300000000005 299.2650000000003L56.56300000000044 296.5840000000003L66.76350000000014 307.33949999999936L76.03600000000029 305.18100000000004L81.60750000000007 307.3479999999995L89.60800000000006 307.65800000000013L94.61350000000039 310.4869999999994L104.66450000000009 309.79100000000017L107.11450000000013 306.5899999999999L111.78249999999991 312.90899999999965L118.96999999999991 316.1984999999993L128.36250000000007 326.1265000000003L131.25 341.92199999999957L143.79650000000026 352.2199999999998L147.72700000000043 352.52899999999954L154.42350000000033 347.9679999999996L166.2560000000002 345.37199999999984L171.1144999999999 341.6930000000002L176.72950000000014 343.8149999999996L182.6120000000003 348.92349999999965L188.0865 347.3040000000003L193.59100000000012 348.9575000000002L199.15099999999995 346.70349999999985L205.1320000000004 347.3754999999994L212.15750000000014 343.78600000000006L216.15499999999997 343.82600000000025L218.19900000000018 346.8475000000001L225.55200000000013 346.49549999999977L223.19549999999992 356.0590000000002L227.97050000000013 359.69299999999976L233.89700000000005 361.1360000000002L238.53150000000028 365.0699999999995L239.22450000000026 375.20899999999983L249.20600000000036 385.1049999999998L252.94600000000003 401.04150000000004L260.2199999999999 413.01150000000007L268.25000000000045 413.32599999999957L275.1105000000001 409.07449999999926L273.6410000000001 395.41200000000003L277.55750000000035 386.1405000000002L283.5115000000002 384.7784999999999L286.98500000000024 389.3885L294.6455000000003 388.78649999999993L295.58250000000044 387.106L300.65950000000043 386.7509999999993L307.0845000000003 383.34299999999985L308.6095 384.3489999999997L317.996 387.77349999999956L321.38750000000016 395.0479999999993L329.79700000000037 400.25800000000004L343.6170000000004 398.6130000000003L349.5245 399.97549999999933L354.2655000000002 403.6964999999998L364.02199999999993 401.3710000000003L377.01850000000036 406.6300000000001L386.71250000000043 405.21600000000035L387.30549999999994 408.98149999999987L382.8755000000001 415.6574999999998L383.177 421.5334999999993L398.4865000000002 426.58900000000017L404.4890000000004 425.86149999999975L407.77450000000044 430.7409999999993L413.5455000000002 431.4930000000004L424.18150000000026 426.3454999999999L429.88699999999994 424.7455000000002L441.43700000000024 427.1244999999999L445.32849999999996 426.24400000000037L444.9110000000002 422.32599999999934L450.4955000000001 420.8299999999997L453.00850000000025 417.84599999999955L453.4185000000002 412.02099999999973L456.30150000000015 406.9069999999999L460.74850000000026 410.8590000000004L466.78150000000016 410.58400000000006L470.462 412.2939999999994L474.0655000000004 410.5944999999997L477.62200000000007 405.72850000000017L485.52400000000034 405.847L488.6270000000002 403.34499999999935L488.52300000000014 399.66949999999997L494.7515000000004 388.57650000000035L497.8050000000002 380.3329999999994L499.5645000000002 380.2329999999995L506.5039999999999 384.52099999999973L510.17150000000015 385.11999999999944L517.0640000000003 382.3019999999997L518.6574999999999 378.7799999999993L524.6140000000003 379.7899999999993L530.077 377.6044999999999L543.9590000000004 378.057L553.0265000000003 373.8964999999996L559.504 378.62750000000005L563.4040000000005 379.6555000000001L569.2490000000004 378.59050000000025L569.5435000000003 374.61649999999963L573.2724999999999 367.7054999999996L571.0950000000003 362.07199999999943L567.3110000000003 357.4275L561.4055000000002 357.0124999999996L558.4335000000004 354.3615L557.9480000000001 350.68449999999984L547.0430000000005 343.55999999999995L541.4025000000004 339.384L536.7355000000003 336.5244999999993L535.378 327.6049999999998L534.7790000000003 327.8404999999998L523.3750000000003 325.6274999999994L517.3380000000003 330.30149999999935L513.5205000000002 330.63949999999977L511.7535000000004 333.7315000000001L507.16499999999996 334.5794999999998L500.2805000000001 338.33399999999983L498.039 336.93700000000035L495.0350000000003 337.5999999999999L477.53150000000005 335.9450000000004L474.7125 330.9974999999997L469.5840000000004 328.2619999999997z">
      <title id="t33">Première circonscription d'Ariège</title>
      <desc id="d33">Cantons de : Ax-les-Thermes, La Bastide-de-Sérou, Les Cabannes, Castillon-en-Couserans, Foix-Rural, Foix-Ville, Lavelanet, Massat, Oust, Quérigut, Tarascon-sur-Ariège, Varilhes, Vicdessos</desc>
    </path><path class="circo" id="id-009-02" d="M265.79150000000027 60.2699999999993L261.4314999999999 58.14200000000028L257.0715000000001 56.82299999999941L250.95100000000002 51.96050000000014L254.73700000000008 34.85599999999977L244.84050000000025 22.740999999999758L244.49250000000006 22.1124999999995L234.86950000000036 15.553999999999633L229.08299999999997 5.5434999999999945L232.2014999999999 3.1190000000003693L220.5000000000001 0L214.4659999999999 0.9685000000001764L211.35250000000042 3.5569999999995616L208.2495 10.570000000000164L204.3470000000002 10.958499999999276L201.82800000000043 16.30899999999997L197.9910000000001 15.840499999999338L201.69200000000046 24.878999999999678L198.66300000000024 29.524000000000115L214.12050000000022 32.023000000000366L213.8960000000003 34.02299999999968L208.99500000000046 37.56099999999947L216.76649999999995 39.17599999999993L221.69550000000015 42.24299999999971L223.51300000000037 41.37550000000033L228.89049999999997 42.88999999999987L232.21400000000017 41.22049999999945L233.0005 44.86249999999927L236.12700000000018 49.18649999999957L235.15100000000018 54.37049999999999L231.00300000000004 61.17750000000001L225.25050000000022 59.81199999999944L212.99050000000022 64.73999999999933L213.75249999999994 69.13499999999999L210.68050000000028 72.65149999999949L207.37400000000036 73.23099999999954L203.59700000000032 70.36449999999945L199.5859999999999 73.64550000000008L191.23400000000004 69.99299999999948L186.86450000000036 72.36599999999953L187.62550000000033 72.77399999999943L181.29800000000046 76.84650000000033L179.65300000000013 77.12999999999965L177.47850000000028 73.79050000000007L171.55250000000024 74.75199999999973L170.45200000000023 82.55300000000034L165.85900000000038 88.7964999999997L165.96300000000042 92.7049999999997L168.75350000000026 95.3309999999999L174.62950000000035 96.5504999999996L182.20200000000034 97.73450000000025L190.0614999999999 97.47700000000009L191.2650000000002 101.20249999999942L202.32100000000003 112.5L196.986 112.00749999999971L193.4065000000004 118.08899999999994L192.20950000000016 119.68099999999936L184.47850000000017 121.00299999999947L184.95300000000043 130.51249999999982L178.00800000000038 132.59400000000028L168.68250000000046 133.84500000000003L163.1170000000003 121.63400000000024L164.27650000000028 120.27699999999982L163.23399999999992 116.86500000000024L157.98249999999996 110.856L148.0324999999999 101.79549999999949L144.85900000000015 107.0354999999995L142.81800000000032 107.06249999999955L135.6540000000001 103.21699999999964L126.39850000000024 92.5139999999999L121.293 97.46350000000007L119.76350000000025 99.90000000000009L112.53450000000043 101.12349999999992L111.05350000000044 105.95950000000016L100.41150000000016 103.13800000000015L96.41900000000021 99.1859999999997L95.70449999999994 100.08450000000039L94.23650000000009 103.44299999999976L95.89850000000013 106.47799999999961L95.27199999999993 114.11699999999996L89.9105000000003 125.47450000000026L84.49850000000026 124.40499999999929L77.70000000000039 117.80399999999986L74.03999999999996 117.34199999999987L75.26400000000024 122.41750000000025L72.0904999999999 126.72500000000014L70.30250000000024 126.80749999999989L70.12200000000007 130.79150000000027L75.77200000000005 136.35999999999967L73.50450000000023 139.3279999999993L70.41750000000036 141.84099999999944L64.43300000000022 141.36099999999942L67.53600000000006 147.49400000000037L66.76300000000026 152.96699999999987L68.9670000000001 155.99249999999984L70.79900000000009 155.66349999999943L71.26950000000022 160.6479999999999L70.75199999999995 160.8185000000003L67.05550000000017 157.7265L69.00500000000022 170.21549999999934L72.30549999999994 169.87549999999942L77.04049999999995 172.90849999999978L79.39300000000003 177.9894999999999L83.17800000000034 177.88900000000012L76.01200000000006 180.27649999999994L71.57849999999996 189.14049999999975L85.88549999999998 195.18699999999967L90.16400000000033 199.51149999999984L95.34100000000024 200.6314999999995L95.89600000000019 201.40199999999936L109.94000000000028 227.1105L110.83300000000008 232.87399999999934L108.6545000000001 242.3535000000004L111.2315000000001 245.2705000000003L114.40650000000005 249.08649999999966L117.47950000000003 256.4885000000004L122.36750000000029 259.64650000000006L129.9090000000001 260.08749999999964L130.7755000000003 254.28699999999935L139.18350000000032 249.4920000000002L141.2299999999999 244.04350000000022L141.04199999999992 242.20000000000027L144.957 238.58600000000024L146.2190000000004 237.15799999999945L151.62500000000023 237.26249999999936L155.15750000000025 233.21900000000028L159.7085000000004 232.75999999999954L161.2280000000004 225.2075000000002L170.99500000000035 218.29150000000027L180.02850000000024 222.07899999999995L189.64600000000019 220.51899999999932L196.12600000000043 225.17049999999927L205.1400000000001 222.66849999999977L214.62750000000028 222.3034999999993L229.96550000000013 225.61599999999999L232.48199999999997 228.5654999999997L236.29099999999994 227.3490000000004L238.74300000000005 224.12450000000035L238.83250000000032 220.0815L234.36000000000035 211.28950000000032L235.83200000000033 199.54650000000015L242.59600000000034 195.4684999999995L244.14950000000033 195.0554999999997L235.28850000000034 191.02949999999964L234.84200000000044 185.22699999999986L232.76200000000017 183.36649999999963L231.09450000000038 180.29049999999984L232.35550000000046 175.23500000000013L216.00400000000036 181.32299999999987L209.43150000000003 180.64149999999927L207.312 177.2415000000001L197.65350000000012 175.3430000000003L197.81550000000038 167.3905000000002L207.0935000000003 165.25499999999965L208.20300000000032 161.81550000000016L214.144 161.0145L215.96699999999998 161.22650000000021L226.90350000000024 153.4744999999998L237.80149999999992 157.14150000000018L243.66700000000037 152.54299999999944L247.4754999999999 152.42399999999975L246.79250000000025 156.31449999999973L248.42550000000017 157.43799999999965L259.37749999999994 153.18449999999984L259.73299999999995 151.40350000000012L266.6980000000001 150.0419999999997L267.84100000000024 144.73899999999958L266.74300000000017 144.0440000000001L267.7025000000003 140.57649999999967L272.60400000000004 135.6804999999997L283.52149999999995 131.84650000000033L285.6819999999999 128.60649999999964L299.01250000000005 125.27600000000007L298.40599999999995 132.81100000000038L300.0970000000001 136.21849999999995L296.8625000000003 142.63349999999946L298.1645000000003 146.46650000000022L301.1790000000002 149.03699999999958L307.5890000000004 139.76L312.7795000000003 137.52899999999954L313.4745000000004 132.13999999999942L316.499 130.6295L328.5355000000004 133.9575000000002L326.72000000000025 141.0145L330.1695000000001 142.90449999999964L337.731 143.51L339.54800000000034 143.67650000000026L341.1484999999999 140.62350000000038L344.65700000000027 130.21949999999947L348.56700000000046 129.1674999999998L362.37400000000036 130.92250000000035L368.33150000000046 129.68650000000025L366.85699999999997 133.2764999999995L368.1479999999999 136.9195000000002L370.26700000000005 140.14999999999986L375.71500000000015 141.02300000000014L375.7570000000004 144.9000000000001L374.18650000000014 151.19500000000016L375.43150000000026 154.0414999999996L384.9950000000001 159.7765000000004L387.76200000000017 156.79750000000013L392.7260000000001 146.99749999999995L396.3135 148.6775L401.6065000000003 152.09499999999935L398.31549999999993 163.3669999999995L392.7365000000003 163.17800000000034L392.6690000000002 170.78300000000013L390.09749999999997 173.58499999999935L391.85 177.02300000000037L389.6785 182.6305000000002L395.0720000000001 191.10099999999989L401.5055000000001 187.26300000000037L405.07450000000006 182.9729999999995L415.4000000000002 187.63900000000035L418.8715000000002 192.37899999999968L423.67350000000044 194.5429999999999L432.1950000000004 199.42749999999933L430.0045 204.46950000000015L426.23550000000023 204.0764999999999L425.07600000000025 205.5824999999993L425.2520000000004 209.3769999999995L429.85600000000034 208.56149999999957L439.7890000000001 208.76649999999927L450.4540000000003 213.3039999999994L453.8884999999999 223.0619999999999L455.62850000000026 223.61699999999928L455.9065000000004 218.13099999999963L457.22800000000007 214.74950000000035L459.0295000000003 214.43700000000035L470.5090000000001 219.16200000000003L471.53200000000027 211.66499999999928L478.3250000000004 209.43750000000023L477.9775000000001 207.57799999999975L482.37900000000025 205.88449999999966L489.9110000000002 206.75749999999994L493.8255000000004 210.8955000000003L497.4525 210.4944999999998L500.7600000000002 206.14299999999957L495.11950000000013 205.03399999999942L492.6935000000003 202.13499999999954L491.63350000000037 190.54399999999987L493.2030000000003 187.00649999999996L492.3599999999999 181.79099999999949L485.6075000000004 179.19750000000022L492.49750000000006 170.16700000000014L492.6215000000002 166.4009999999996L489.94100000000003 161.78099999999972L488.4435000000002 159.22149999999988L482.1334999999999 154.99950000000013L479.1579999999999 156.61849999999959L475.6665000000004 155.09599999999978L473.3404999999999 148.0065000000002L474.9675000000002 144.88749999999982L482.17550000000017 145.03150000000005L482.98249999999996 143.35199999999986L480.35799999999995 138.4725000000003L477.3304999999999 136.30949999999984L479.87799999999993 134.12349999999947L477.6925 124.26349999999957L478.057 119.0689999999995L475.326 112.63799999999947L468.07200000000023 111.57349999999951L467.82200000000046 108.48049999999944L463.0875000000003 106.18849999999952L458.0525 107.50949999999989L453.05650000000014 115.68300000000022L451.96650000000034 111.98999999999955L447.92599999999993 107.86749999999984L447.9480000000001 97.96950000000038L445.33050000000003 100.82099999999969L437.8320000000002 99.66649999999959L435.75500000000034 90.35750000000007L433.1265000000002 92.73349999999937L434.2275000000001 98.08400000000006L424.80200000000025 99.05149999999935L422.78350000000046 97.12149999999951L414.18049999999994 92.4509999999998L406.68499999999995 94.01749999999993L404.9440000000004 90.50200000000018L394.48000000000036 84.34399999999982L388.0045000000001 76.55099999999948L382.17250000000035 74.57949999999983L376.17700000000013 75.06999999999948L375.26400000000024 73.22350000000029L375.43650000000014 67.45699999999943L381.6365000000002 60.111499999999296L380.02650000000017 54.58650000000034L381.3315 53.14899999999966L378.00550000000044 50.85199999999986L371.2900000000002 40.85399999999936L371.61050000000046 32.97400000000039L366.2485000000004 24.488000000000056L359.95550000000037 19.940500000000156L350.1780000000002 32.5L352.38 37.66499999999951L352.16499999999996 41.673999999999296L347.53900000000044 45.490499999999656L343.57950000000017 45.76400000000035L344.45600000000013 35.896000000000186L331.3100000000003 32.04650000000015L329.06499999999994 28.767500000000155L321.2670000000003 27.221999999999298L319.6735000000001 23.574499999999716L316.02450000000033 24.669999999999845L317.0320000000004 30.317999999999756L315.5540000000002 33.93599999999992L313.9735000000002 35.0890000000004L310.41600000000017 30.45949999999948L306.75400000000025 23.936499999999796L305.4575 22.595000000000027L303.88000000000034 23.590000000000373L303.9005000000003 23.011999999999944L293.6600000000004 25.603499999999713L292.9135000000002 18.14899999999966L292.7025000000003 14.439499999999725L291.11350000000016 13.450000000000273L288.9725000000004 16.52150000000006L284.56150000000036 13.269999999999982L284.05700000000024 22.540500000000065L281.3544999999999 27.376500000000306L283.04100000000005 30.76249999999959L282.321 34.18949999999995L285.18200000000036 35.5155000000002L288.09000000000026 38.510499999999865L282.9580000000004 45.914999999999964L287.82250000000033 49.018499999999676L287.81750000000045 52.89700000000039L287.8660000000002 55.18399999999929L280.65150000000017 51.942999999999984L277.0935000000003 53.73749999999973L275.754 57.48899999999935L272.88400000000024 61.82050000000004L265.79150000000027 60.2699999999993z">
      <title id="t34">Deuxième circonscription d'Ariège</title>
      <desc id="d34">Cantons de : Le Fossat, Le Mas-d'Azil, Mirepoix, Pamiers Est, Pamiers Ouest, Sainte-Croix-Volvestre, Saint-Girons, Saint-Lizier, Saverdun</desc>
    </path></svg>