<svg xmlns="http://www.w3.org/2000/svg" version="1.1" xmlns:xlink="http://www.w3.org/1999/xlink" xmlns:svgjs="http://svgjs.dev/svgjs" width="628.3123499999994" height="506.79040000000015" fill="#eeeeee" stroke="#cccccc" xmlns:sodipodi="http://sodipodi.sourceforge.net/DTD/sodipodi-0.dtd"><path class="circo" id="id-010-01" d="M299.22184999999956 11.46285000000006L295.67835 10.012700000000052L289.7878499999996 18.961999999999932L290.4913499999998 25.016950000000122L288.47684999999956 28.880000000000052L280.59184999999957 35.87195000000008L274.59599999999966 36.71289999999999L262.48850000000004 33.98719999999997L255.0569999999999 41.67214999999999L252.10099999999954 54.439999999999884L253.49349999999959 56.122900000000016L250.74799999999982 57.986449999999934L247.5789999999995 55.83609999999993L243.94149999999968 60.92230000000001L240.19399999999962 72.86439999999999L227.346 71.23185000000007L224.11 73.8830999999999L222.8465 73.94350000000003L218.62099999999998 90.71560000000005L212.68699999999967 89.11094999999989L212.29449999999986 89.21629999999993L200.08199999999988 88.42289999999991L200.1925 92.55020000000002L203.89549999999986 94.31205000000006L201.81150000000002 102.6782L202.26999999999975 111.32980000000003L204.75799999999992 111.33364999999998L198.94049999999993 123.2231999999999L191.43100000000004 127.94534999999996L187.7714999999995 129.54039999999992L179.86099999999965 152.94855000000013L181.86849999999993 158.54590000000002L185.28699999999958 161.0092499999999L187.84799999999962 158.06639999999987L191.32349999999974 159.42919999999987L194.27249999999958 162.24054999999993L195.95799999999997 161.0701499999999L199.29749999999956 163.29174999999992L199.3629999999996 180.16064999999998L202.76549999999986 182.71659999999997L195.20600000000002 189.5320000000001L198.0525 196.26855000000006L204.84049999999968 200.50765000000013L206.35249999999985 206.16845000000012L212.235 207.45505000000009L217.28349999999978 203.78019999999992L228.9829999999995 216.39939999999996L250.75049999999976 201.91415000000006L256.88099999999963 210.8708999999999L260.7034999999996 215.96300000000014L268.67249999999956 223.9115000000001L275.35649999999976 231.56710000000004L277.4330999999995 235.98510000000005L284.78534999999965 245.67350000000005L291.14035 249.02079999999984L293.51135 255.18965000000009L295.13284999999996 256.8103499999998L294.9043499999999 259.91614999999996L294.68084999999974 261.21369999999985L295.51784999999995 262.9568500000002L295.66134999999974 264.8459L293.72934999999984 266.11309999999975L294.9368499999997 268.19919999999996L293.73335 269.10465000000016L302.10334999999986 277.80384999999995L308.3773499999995 275.7708499999998L313.8498499999997 281.45185L316.68934999999976 278.3658999999997L327.83784999999966 283.62499999999983L333.93935 284.0196L336.2778499999996 278.5089500000001L327.06435 271.4469999999997L328.2448499999998 269.86079999999987L332.75334999999984 268.85205000000013L329.9043499999999 263.37714999999974L331.20585000000005 254.78249999999974L337.23334999999963 246.23864999999995L344.90835000000004 249.97199999999992L348.43435 255.66834999999998L355.99985000000004 251.4421999999999L360.95884999999953 258.5129500000002L372.5123499999995 264.2333499999998L376.69285 269.15294999999986L382.85634999999957 275.0413999999998L393.24734999999976 272.87920000000014L396.65234999999996 275.57409999999976L398.2278500000001 281.0948499999998L404.1348499999998 279.0850500000002L406.52085 283.00489999999996L411.22185 284.8497499999999L417.8293500000001 292.72594999999995L422.23635 292.2625000000002L423.5333499999996 294.0774000000002L420.78284999999994 302.41540000000015L421.0078500000003 311.1997499999998L424.49484999999925 318.02985000000007L427.27934999999945 316.58625L431.0753499999993 316.1938999999998L435.5903499999994 320.43080000000003L439.2703499999999 319.48105000000027L443.0603500000001 322.2531000000001L440.33484999999985 325.22264999999976L438.92634999999984 331.00539999999995L440.0698499999993 332.66704999999973L437.63885000000016 338.7053499999999L431.7843499999998 341.1360499999998L428.8553499999995 349.31545L431.2453499999998 352.90190000000024L429.3978499999997 359.0734499999999L434.6153499999997 360.4565499999998L434.3628499999994 363.73095000000006L443.7708500000002 366.61775000000006L444.6568499999995 367.85470000000004L453.77684999999985 382.89360000000016L462.1568499999995 384.72835000000003L467.3808500000001 390.99635000000006L466.4253500000001 392.5989999999999L459.78184999999996 400.42445000000015L452.50384999999994 404.0689499999999L447.76085000000023 424.76709999999997L455.0073500000002 425.6788500000002L463.9873499999993 428.72420000000005L471.03884999999934 432.63889999999975L471.18134999999995 432.6421000000002L470.9263500000003 443.4486000000001L472.43634999999983 445.0270500000002L477.9523499999999 445.5213999999998L482.0618499999995 447.09340000000026L487.26984999999956 454.0444499999998L489.4778500000001 454.24200000000013L495.66385000000025 454.48909999999984L497.52985000000024 450.61454999999995L507.6703500000002 440.40715000000006L516.0703499999994 439.03249999999986L520.1153499999992 440.3734499999999L523.9178499999997 438.4776500000001L526.1018499999994 442.9440500000001L536.9983499999995 442.72414999999995L547.7833500000003 448.8711500000002L557.4693499999995 443.8800499999999L561.0773499999999 445.55379999999985L563.0593500000003 444.57840000000004L562.6933500000001 438.04355000000015L569.1168499999998 429.3325999999999L563.5708499999993 425.9211000000002L555.5178499999994 412.67975000000007L542.5903499999998 409.3701999999999L541.23085 408.04130000000015L555.3993499999996 403.77375L561.3788499999993 402.10425000000015L562.2208499999994 398.0217000000002L560.9278499999999 396.2870000000001L569.6373499999999 390.4560000000001L572.8223499999996 382.45305L576.6543499999995 384.8639499999999L585.6383499999998 385.21915000000007L596.2028500000002 388.93474999999995L608.1433499999997 392.5652499999998L616.3913499999995 391.54754999999994L615.95035 383.6881500000001L613.9328499999993 376.32284999999996L623.0673499999995 368.36235000000016L618.0908499999993 361.6294000000002L617.3248499999994 355.21750000000026L618.2863500000002 350.98445L622.5258500000001 346.002L621.7853499999995 343.9304999999999L625.6158499999998 335.9365999999997L625.7038499999993 335.85814999999997L628.2703499999997 332.2921499999998L628.3123499999994 325.6410500000001L618.4993500000002 321.1394499999997L616.8938499999996 317.0716999999999L623.6723499999999 312.3731000000001L620.1708500000001 305.12955000000005L621.2268499999999 301.11020000000025L620.72385 299.82924999999994L621.5403499999996 295.52265000000006L627.0203499999997 289.0038999999999L620.0273499999997 277.8338499999998L623.38685 269.6972500000001L616.9223499999993 265.4064500000001L612.9443499999996 265.8716000000001L612.5223499999998 259.57059999999984L607.8198500000002 252.59975000000026L619.4023499999997 242.08159999999992L616.4363499999996 238.87619999999998L609.8293499999994 238.5098000000002L598.7548499999997 231.44749999999988L590.9983499999993 230.5807999999999L582.4728499999998 224.75979999999993L584.8563499999995 211.28179999999986L579.0938499999999 208.27945L566.29885 206.97239999999994L562.5328499999995 209.05069999999995L560.7978499999996 207.74560000000008L560.1073500000001 204.59699999999998L562.8268499999996 202.594L556.8203499999998 193.9602500000001L550.9123499999993 192.4336500000001L554.2038499999995 187.08679999999987L549.4758499999995 180.51299999999998L548.1763499999994 175.08925000000005L531.9823500000001 167.09225000000004L528.1773500000003 159.74075L539.4993499999993 158.1541999999999L538.6563499999994 153.90770000000003L541.7998499999993 143.6173500000001L541.2838499999992 137.17714999999998L544.9458499999997 132.4525L546.35785 132.34919999999988L549.2218499999996 126.74675000000008L546.6033499999998 118.81550000000004L544.6393499999994 115.27954999999992L538.4438499999993 115.53055L538.01535 113.71395000000007L531.6558500000002 110.73340000000002L534.3438499999996 104.69509999999985L513.7713500000001 105.68774999999988L512.8683499999994 107.63380000000012L508.72034999999926 108.27775000000003L504.37434999999994 108.13330000000008L498.9013499999993 112.02120000000008L492.98884999999984 121.3936000000001L490.7818500000002 121.76005000000004L486.50084999999933 120.46429999999987L483.1183500000003 110.43620000000004L478.9668499999999 108.58339999999998L472.26785000000007 114.42714999999993L458.7193499999995 108.7548000000001L443.62034999999935 105.1561000000001L441.67935 104.52619999999996L428.55835000000013 96.00060000000013L410.3753499999999 76.39594999999986L402.37534999999923 73.90109999999993L395.6113499999998 64.6441999999999L402.56834999999967 55.8997500000001L401.7328500000002 51.73759999999987L399.8478499999993 48.211100000000044L399.2043499999994 46.65510000000012L397.0888499999995 43.08940000000007L401.2273499999998 38.88190000000009L399.69284999999957 35.06439999999998L403.5268500000001 27.423550000000034L399.2568499999999 20.709850000000074L400.72434999999984 12.406249999999943L393.91534999999976 4.001949999999965L387.9128499999996 2.2570500000000493L373.18285000000003 6.102249999999856L367.31284999999957 3.24514999999991L365.09334999999965 0L360.8128499999998 9.248900000000049L345.53984999999955 8.155399999999986L337.21484999999973 5.538699999999892L328.82135000000005 7.940299999999922L317.48284999999953 19.655349999999885L299.22184999999956 11.46285000000006z">
      <title id="t35">Première circonscription de l'Aube</title>
      <desc id="d35">Cantons de : Arcis-sur-Aube, Bar-sur-Aube, Brienne-le-Château, Chavanges, Essoyes, Méry-sur-Seine, Piney, Ramerupt, Soulaines-Dhuys, Troyes I, Troyes II, Vendeuvre-sur-Barse</desc>
    </path><path class="circo" id="id-010-02" d="M140.38399999999967 349.6002999999999L143.1424999999996 355.6176500000001L142.98299999999983 359.93289999999973L136.69849999999997 366.05535000000003L134.51199999999972 365.78400000000016L131.89049999999952 359.7819000000001L130.471 365.92029999999994L120.6084999999996 369.8699000000002L117.1105 356.89704999999975L113.29199999999958 351.4126999999999L108.97999999999968 340.9390499999998L101.77099999999996 336.22919999999993L89.19849999999997 344.7132000000002L81.21649999999988 338.3101000000002L95.78749999999957 324.4082499999999L100.9439999999995 314.7942500000002L97.03649999999982 310.9177500000001L93.75349999999969 312.06940000000003L91.74350000000004 308.4025L92.48599999999954 306.40394999999984L102.21900000000005 295.402L101.8629999999996 293.3030499999998L110.9375 295.0305L128.38949999999954 296.7169499999997L127.96149999999955 293.89865000000015L125.85799999999949 291.4050999999998L134.7014999999999 284.91040000000027L141.25049999999987 284.15884999999975L154.85749999999996 277.2692500000002L154.05849999999987 270.8592999999999L157.8574999999995 269.1363500000003L157.50149999999962 275.1972500000002L160.22149999999954 278.35504999999984L166.2089999999995 273.6725499999997L172.47599999999977 269.28585000000027L181.35899999999992 276.04934999999983L183.28849999999989 280.06279999999975L193.3579999999995 278.16344999999984L193.84149999999977 276.92694999999986L196.96349999999995 271.06945000000024L206.33549999999957 265.15855000000016L210.70899999999995 266.20194999999995L218.8734999999997 279.5768000000001L220.7299999999998 278.56390000000005L227.56249999999966 283.2916500000002L233.6179999999996 282.32864999999975L237.08199999999977 281.02524999999986L239.84099999999955 289.8722000000001L245.87999999999965 295.3681500000002L251.27250000000004 291.81625000000025L255.30349999999999 292.34864999999985L261.17399999999975 289.6480999999997L270.8684999999997 286.33115000000004L274.58199999999977 284.43149999999974L274.91899999999987 280.5514000000002L278.58884999999987 278.55940000000004L278.48334999999963 274.3745499999997L288.83984999999996 273.8399000000001L291.12235 272.62460000000004L291.05984999999976 270.9225999999998L293.73335 269.10465000000016L302.10334999999986 277.80384999999995L308.3773499999995 275.7708499999998L313.8498499999997 281.45185L316.68934999999976 278.3658999999997L327.83784999999966 283.62499999999983L333.93935 284.0196L336.2778499999996 278.5089500000001L327.06435 271.4469999999997L328.2448499999998 269.86079999999987L332.75334999999984 268.85205000000013L329.9043499999999 263.37714999999974L331.20585000000005 254.78249999999974L337.23334999999963 246.23864999999995L344.90835000000004 249.97199999999992L348.43435 255.66834999999998L355.99985000000004 251.4421999999999L360.95884999999953 258.5129500000002L372.5123499999995 264.2333499999998L376.69285 269.15294999999986L382.85634999999957 275.0413999999998L393.24734999999976 272.87920000000014L396.65234999999996 275.57409999999976L398.2278500000001 281.0948499999998L404.1348499999998 279.0850500000002L406.52085 283.00489999999996L411.22185 284.8497499999999L417.8293500000001 292.72594999999995L422.23635 292.2625000000002L423.5333499999996 294.0774000000002L420.78284999999994 302.41540000000015L421.0078500000003 311.1997499999998L424.49484999999925 318.02985000000007L427.27934999999945 316.58625L431.0753499999993 316.1938999999998L435.5903499999994 320.43080000000003L439.2703499999999 319.48105000000027L443.0603500000001 322.2531000000001L440.33484999999985 325.22264999999976L438.92634999999984 331.00539999999995L440.0698499999993 332.66704999999973L437.63885000000016 338.7053499999999L431.7843499999998 341.1360499999998L428.8553499999995 349.31545L431.2453499999998 352.90190000000024L429.3978499999997 359.0734499999999L434.6153499999997 360.4565499999998L434.3628499999994 363.73095000000006L443.7708500000002 366.61775000000006L444.6568499999995 367.85470000000004L453.77684999999985 382.89360000000016L462.1568499999995 384.72835000000003L467.3808500000001 390.99635000000006L466.4253500000001 392.5989999999999L459.78184999999996 400.42445000000015L452.50384999999994 404.0689499999999L447.76085000000023 424.76709999999997L455.0073500000002 425.6788500000002L463.9873499999993 428.72420000000005L471.03884999999934 432.63889999999975L471.18134999999995 432.6421000000002L470.9263500000003 443.4486000000001L472.43634999999983 445.0270500000002L477.9523499999999 445.5213999999998L482.0618499999995 447.09340000000026L487.26984999999956 454.0444499999998L489.4778500000001 454.24200000000013L492.53334999999936 464.4888999999998L497.83634999999947 468.08565000000016L499.76084999999955 476.5590499999999L496.5368499999994 478.86650000000003L487.63634999999965 477.5264999999999L481.2643499999996 479.77994999999993L472.3533500000002 478.7008499999999L451.73134999999945 486.22210000000024L447.96985000000006 484.20514999999995L438.74634999999955 478.60499999999973L411.6038499999996 485.94855000000024L394.7118499999999 482.22364999999996L391.67434999999955 487.51420000000024L388.96885 491.03924999999975L390.15934999999956 497.5857499999998L386.4758499999999 505.5872500000001L376.21735 506.79040000000015L366.40934999999956 502.58580000000023L356.9273499999997 491.10840000000024L357.80134999999973 476.2295500000002L347.59934999999984 475.82644999999985L344.7843499999999 478.88619999999975L344.8028499999998 481.0742000000002L348.71285 483.12174999999996L349.34384999999963 491.8305000000001L346.93884999999966 495.33985L340.5868499999997 496.39744999999976L340.0788499999999 487.7090000000001L332.8878499999996 483.8034000000002L322.02785000000006 494.0099999999998L322.05084999999997 498.33305000000024L318.1278499999996 497.99115L313.66784999999993 501.79225L310.09034999999983 504.0135999999998L301.98735 503.90005L301.1728499999998 495.69004999999976L299.9328499999996 493.98269999999997L287.66684999999995 492.87870000000026L285.09784999999965 502.7964L281.31434999999954 504.8121499999999L275.94709999999964 501.39010000000013L272.4844999999999 503.71995L268.30949999999973 502.63844999999975L264.12049999999965 494.9965999999998L255.65799999999967 502.5172999999998L253.77149999999972 502.7392999999998L246.0884999999996 499.38425000000024L240.2679999999998 501.5403999999998L230.5079999999998 499.94564999999994L227.1244999999999 504.1017500000001L225.2355 503.0862499999998L221.46699999999953 505.0753999999998L217.43599999999958 503.76180000000005L216.72949999999958 503.29114999999973L220.2834999999999 497.5825499999999L221.66999999999973 484.35494999999975L225.28699999999958 473.9136499999998L220.84599999999966 463.72494999999986L217.45199999999954 458.5189L213.2374999999996 458.23684999999983L211.65399999999977 459.7053500000001L210.9559999999999 470.1962499999999L203.03099999999972 473.3714499999999L204.18049999999994 469.3213L198.02750000000003 468.79175000000004L193.6854999999997 455.9419L203.47099999999955 454.43005L206.86099999999954 456.5936500000001L206.61900000000003 448.0496500000001L197.16449999999952 439.73985L195.2094999999997 435.93784999999997L190.4299999999995 435.3893500000001L186.10699999999952 430.5042499999999L188.94049999999993 427.8678499999998L187.9649999999998 418.04445000000015L176.17349999999988 403.63439999999997L176.76499999999976 397.6169999999999L179.16650000000004 394.50320000000005L177.47050000000002 390.5508499999999L163.56149999999957 373.91834999999986L156.7719999999997 378.31080000000014L151.5409999999997 374.4736500000002L151.1809999999997 370.2004500000001L157.44449999999972 361.6682499999999L153.5934999999995 351.8269000000001L141.29449999999963 347.58959999999973L140.38399999999967 349.6002999999999z">
      <title id="t36">Deuxième circonscription de l'Aube</title>
      <desc id="d36">Cantons de : Aix-en-Othe, Bar-sur-Seine, Bouilly, Chource, Evry-le-Châtel, Estissac, Lusigny-sur-Barse, Mussy-sur-Seine, Les Riceys, Troyes V, Troyes VI, Troyes VII</desc>
    </path><path class="circo" id="id-010-03" d="M67.92149999999992 254.65915000000024L68.43349999999987 245.22470000000027L63.03399999999954 241.33925000000005L51.135999999999626 225.43665000000004L47.44449999999972 222.9672500000001L38.582999999999856 223.02159999999986L36.852499999999964 219.7075000000001L36.71549999999968 219.56289999999996L28.05999999999983 220.72669999999988L20.183999999999855 228.4066999999999L18.057999999999765 227.86554999999993L12.713999999999714 218.36829999999992L13.047499999999559 209.57869999999986L15.631499999999505 197.57855000000006L15.549499999999625 193.45949999999988L8.85249999999985 193.45310000000012L11.789499999999862 189.70045L3.748499999999808 187.2046499999999L5.370499999999652 181.01265000000012L8.529499999999643 177.98575L9.18899999999951 169.2211499999999L5.4044999999996435 163.98455000000013L5.6154999999995425 159.70100000000002L0 153.36399999999998L8.35299999999961 148.2602L15.478499999999826 145.2058500000001L21.48149999999987 145.5265L21.596999999999866 141.29244999999997L17.312499999999886 131.3381000000001L9.054499999999734 121.29670000000004L12.81499999999994 117.80014999999992L22.27299999999957 120.9572L28.311499999999796 120.88144999999997L37.651500000000055 113.58045000000004L41.50299999999959 112.67404999999997L41.76599999999951 107.31024999999988L34.60549999999955 94.03265000000005L36.096000000000004 92.38315L43.01549999999963 87.62310000000014L45.92999999999961 82.24934999999988L55.72999999999979 80.8608000000001L51.61149999999964 73.27895000000012L52.87999999999954 71.52940000000001L72.92949999999962 64.17104999999992L72.89850000000001 62.030750000000126L76.0979999999995 66.96945L77.07699999999988 72.79885000000007L83.21649999999977 71.9471999999999L84.36399999999992 84.4133500000001L88.5669999999999 83.42135000000013L93.5669999999999 92.7691999999999L95.03299999999967 91.66570000000007L98.24649999999963 88.88804999999991L101.88499999999976 88.52890000000002L105.1079999999996 93.3395999999999L104.11999999999978 99.46159999999992L105.60099999999977 110.17104999999987L110.30999999999949 116.00680000000011L116.62800000000004 116.40539999999987L119.22799999999995 115.98884999999996L129.44999999999993 114.34435000000008L136.94500000000005 117.08384999999993L147.76299999999992 115.18519999999995L157.6909999999998 117.92339999999996L162.54849999999976 121.66570000000007L165.91949999999997 120.15690000000006L170.93799999999987 120.84165000000013L175.1925 121.33454999999998L187.7714999999995 129.54039999999992L179.86099999999965 152.94855000000013L181.86849999999993 158.54590000000002L185.28699999999958 161.0092499999999L187.84799999999962 158.06639999999987L191.32349999999974 159.42919999999987L194.27249999999958 162.24054999999993L195.95799999999997 161.0701499999999L199.29749999999956 163.29174999999992L199.3629999999996 180.16064999999998L202.76549999999986 182.71659999999997L195.20600000000002 189.5320000000001L198.0525 196.26855000000006L204.84049999999968 200.50765000000013L206.35249999999985 206.16845000000012L212.235 207.45505000000009L217.28349999999978 203.78019999999992L228.9829999999995 216.39939999999996L250.75049999999976 201.91415000000006L256.88099999999963 210.8708999999999L260.7034999999996 215.96300000000014L268.67249999999956 223.9115000000001L275.35649999999976 231.56710000000004L277.4330999999995 235.98510000000005L284.78534999999965 245.67350000000005L291.14035 249.02079999999984L293.51135 255.18965000000009L295.13284999999996 256.8103499999998L294.9043499999999 259.91614999999996L294.68084999999974 261.21369999999985L295.51784999999995 262.9568500000002L295.66134999999974 264.8459L293.72934999999984 266.11309999999975L294.9368499999997 268.19919999999996L291.05984999999976 270.9225999999998L291.12235 272.62460000000004L288.83984999999996 273.8399000000001L278.48334999999963 274.3745499999997L278.58884999999987 278.55940000000004L274.91899999999987 280.5514000000002L274.58199999999977 284.43149999999974L270.8684999999997 286.33115000000004L261.17399999999975 289.6480999999997L255.30349999999999 292.34864999999985L251.27250000000004 291.81625000000025L245.87999999999965 295.3681500000002L239.84099999999955 289.8722000000001L237.08199999999977 281.02524999999986L233.6179999999996 282.32864999999975L227.56249999999966 283.2916500000002L220.7299999999998 278.56390000000005L218.8734999999997 279.5768000000001L210.70899999999995 266.20194999999995L206.33549999999957 265.15855000000016L196.96349999999995 271.06945000000024L193.84149999999977 276.92694999999986L193.3579999999995 278.16344999999984L183.28849999999989 280.06279999999975L181.35899999999992 276.04934999999983L172.47599999999977 269.28585000000027L166.2089999999995 273.6725499999997L160.22149999999954 278.35504999999984L157.50149999999962 275.1972500000002L157.8574999999995 269.1363500000003L154.05849999999987 270.8592999999999L154.85749999999996 277.2692500000002L141.25049999999987 284.15884999999975L134.7014999999999 284.91040000000027L125.85799999999949 291.4050999999998L127.96149999999955 293.89865000000015L128.38949999999954 296.7169499999997L110.9375 295.0305L101.8629999999996 293.3030499999998L98.21749999999952 284.84655000000004L84.32899999999961 278.2649999999998L83.20299999999975 276.3316499999999L86.4654999999999 268.2745000000003L76.11400000000003 260.3917499999997L76.49299999999982 253.83335000000017L67.92149999999992 254.65915000000024z">
      <title id="t37">Troisième circonscription de l'Aube</title>
      <desc id="d37">Cantons de : La Chapelle-Saint-Luc, Marcilly-le-Hayer, Nogent-sur-Seine, Romilly-sur-Seine I, Romilly-sur-Seine II, Sainte-Savine, Troyes III, Troyes IV, Villenauxe-la-Grande</desc>
    </path></svg>