<svg xmlns="http://www.w3.org/2000/svg" version="1.1" xmlns:xlink="http://www.w3.org/1999/xlink" xmlns:svgjs="http://svgjs.dev/svgjs" width="659.6785" height="471.8495000000007" fill="#eeeeee" stroke="#cccccc" xmlns:sodipodi="http://sodipodi.sourceforge.net/DTD/sodipodi-0.dtd"><path class="circo" id="id-011-01" d="M348.94799999999975 172.96100000000024L346.72799999999995 176.16150000000061L342.8129999999999 175.59950000000072L338.4715 190.5555000000004L333.11549999999954 188.1025000000011L329.27899999999966 188.90900000000101L321.81299999999965 186.54550000000086L318.58450000000005 197.18700000000013L319.341 202.32400000000098L312.6284999999996 200.6600000000003L305.7804999999996 194.1115000000002L308.05000000000007 186.94900000000075L307.3449999999997 183.3865000000003L306.90549999999973 183.2540000000006L287.0509999999996 180.12350000000083L287.02650000000006 180.30700000000024L288.3425 181.6585000000009L287.92899999999975 185.4135000000008L283.26449999999966 190.27600000000007L286.8644999999998 194.56350000000043L282.3444999999998 197.10950000000025L272.13300000000004 192.40200000000073L266.60049999999956 193.0210000000011L263.836 198.02600000000098L261.32499999999993 197.34650000000101L262.2370000000001 194.16950000000043L260.9834999999998 191.13700000000108L262.42249999999956 187.38900000000058L256.97450000000003 178.818500000001L249.24849999999992 177.87700000000086L251.81600000000003 175.4060000000004L251.93399999999997 171.7255L257.217 170.28350000000046L258.38449999999966 164.70600000000104L262.43499999999983 166.1430000000007L264.14799999999957 162.53200000000106L269.5954999999998 160.93450000000075L269.6445 158.4615000000008L274.1919999999999 155.57300000000055L272.19799999999964 152.86000000000058L277.44100000000003 147.3980000000006L275.31000000000006 142.45050000000106L269.31899999999985 135.78850000000102L264.94100000000003 135.33450000000016L262.9479999999995 135.16800000000103L249.7014999999999 126.28750000000082L251.48199999999974 122.50750000000039L254.06000000000006 119.5390000000009L257.90099999999995 120.32350000000065L259.15899999999965 118.8110000000006L259.48350000000005 107.0575000000008L266.8009999999998 109.67600000000061L274.19849999999997 107.73300000000063L274.1134999999997 102.54000000000019L281.1574999999999 103.19000000000074L276.46649999999966 96.70500000000061L274.56349999999986 86.97550000000092L271.4675 84.3480000000011L261.53999999999996 83.76700000000028L256.74649999999986 80.03600000000006L253.73249999999985 77.39900000000034L254.0549999999996 75.39850000000001L250.82400000000007 70.30750000000012L250.65449999999998 64.34200000000033L254.6339999999998 68.7015000000008L260.53650000000005 68.00700000000006L261.576 58.043499999999995L260.27049999999974 54.39450000000079L258.67099999999994 50.785000000000764L258.95299999999963 42.996500000000424L251.36699999999962 33.81400000000099L249.67150000000004 28.477000000000317L256.1674999999997 24.053499999999985L255.67949999999996 18.192999999999984L252.28349999999978 11.057000000000698L259.80050000000006 7.787000000000717L261.67899999999975 7.133000000000038L265.7824999999997 11.294500000000198L280.4939999999999 16.00400000000036L288.5454999999996 21.61950000000047L291.87749999999994 21.724000000000387L301.8924999999996 25.205000000000837L305.3399999999999 23.91550000000052L304.4815 22.053000000000793L305.7284999999996 20.42750000000069L314.15599999999984 14.999500000000126L324.1505000000001 16.323500000000877L331.9874999999996 14.495000000000573L333.7514999999996 13.815000000000737L342.54399999999976 13.567500000000337L344.5229999999998 16.9825000000003L350.26099999999985 18.41600000000085L353.00149999999974 21.305000000000973L365.3524999999996 20.75800000000072L371.0624999999999 22.916000000000167L372.7869999999996 21.774500000000216L372.89150000000006 21.747500000000173L380.5564999999996 27.77050000000031L384.477 28.329000000001088L381.8599999999998 35.384500000000116L376.16049999999973 35.47800000000052L374.2705000000001 35.03600000000006L373.1144999999998 36.599500000000944L369.1809999999998 41.15750000000048L367.2014999999999 48.97100000000023L368.4084999999999 54.850000000000136L361.9659999999999 67.20200000000091L366.82199999999966 72.6890000000003L368.53499999999997 71.73800000000028L380.43649999999957 73.81799999999998L384.03599999999983 83.1230000000005L387.30999999999995 85.54450000000088L387.93199999999956 94.64600000000019L395.0124999999997 100.82000000000107L394.64 102.7130000000011L397.89649999999995 100.8585000000005L400.6899999999996 96.00250000000074L406.0949999999997 96.83350000000019L412.6155 97.73450000000025L412.82749999999965 95.76900000000023L419.24800000000005 91.4605000000006L420.2499999999998 85.67700000000059L423.7934999999999 83.94400000000019L424.7370000000001 80.19350000000031L428.7259999999998 83.84050000000002L429.57149999999956 88.76100000000065L432.2769999999997 98.14400000000091L430.06249999999966 103.66200000000049L431.19550000000004 107.16000000000008L433.7244999999996 109.0095000000008L437.47199999999964 107.89850000000001L447.26249999999993 114.30750000000103L452.2555 120.13450000000034L460.7439999999997 118.13000000000102L463.93399999999986 113.92100000000028L466.94349999999986 108.78750000000082L466.89599999999984 108.55200000000082L467.01149999999984 100.81600000000094L473.21049999999957 93.44550000000027L476.5499999999997 91.07300000000009L479.49149999999975 88.57600000000048L475.03150000000005 82.40700000000061L480.15150000000006 79.63000000000079L488.32799999999963 80.52700000000073L491.97450000000003 78.664500000001L501.56450000000007 76.06600000000071L503.7759999999997 70.47500000000014L502.00499999999977 60.64600000000041L496.0764999999998 50.69000000000074L501.83749999999975 44.75150000000099L502.42699999999957 46.28650000000107L503.1579999999997 51.009500000000116L509.7149999999999 54.712500000000546L510.6449999999995 60.12300000000096L510.4714999999999 63.38350000000105L511.1865 69.20749999999998L508.6114999999995 74.20500000000061L512.781 78.28850000000102L519.6035 81.91650000000095L523.9669999999995 78.3910000000003L534.52 86.64300000000026L539.3894999999998 86.34100000000103L553.4944999999999 82.4005000000011L559.3169999999998 82.11650000000077L560.1065 93.54950000000031L559.8759999999999 101.66000000000054L562.5809999999996 104.75900000000024L555.3339999999997 111.1805000000004L553.4870000000001 111.74750000000017L550.4994999999997 109.4010000000003L544.2114999999995 113.68250000000103L542.1809999999999 122.85950000000071L540.0274999999999 125.64750000000004L536.617 124.78300000000104L529.6259999999995 126.17450000000076L527.047 130.88950000000068L522.3014999999998 133.28100000000063L519.0555 129.67500000000086L520.1049999999998 132.83250000000066L515.0539999999995 132.53400000000056L511.76949999999977 128.08850000000007L508.04399999999987 126.78700000000049L504.44349999999986 131.51000000000067L502.45149999999967 131.52950000000033L498.61199999999997 130.8750000000009L495.12249999999995 127.00300000000084L492.2434999999996 128.15750000000094L488.6899999999997 129.50800000000072L482.07899999999995 126.38950000000023L479.32500000000005 129.46050000000014L475.40549999999996 130.7140000000004L471.22649999999965 138.4585000000004L475.3389999999996 141.8635000000006L490.4219999999998 148.54400000000055L493.06799999999953 151.92100000000096L492.68899999999974 153.30600000000004L499.18049999999994 157.09600000000023L496.85249999999996 164.362000000001L490.206 168.3955000000003L488.1279999999998 173.98700000000076L488.1804999999997 181.6590000000008L485.83249999999964 189.82650000000035L488.1569999999999 193.12150000000088L496.0024999999996 193.7035000000003L496.4554999999996 201.6840000000002L501.58699999999953 212.42450000000076L507.57450000000006 211.94400000000087L510.9609999999998 212.75550000000067L510.37949999999967 222.28750000000105L503.3389999999997 225.38600000000088L501.1719999999997 232.6735000000008L497.47299999999996 237.12650000000053L503.03849999999954 239.09400000000005L501.3274999999999 244.7720000000004L503.88949999999966 250.1285000000007L514.1359999999997 256.1530000000005L508.38049999999953 274.9720000000002L516.0509999999999 292.3840000000007L507.06549999999993 300.3385000000003L502.86749999999984 313.7200000000007L500.1769999999999 315.81750000000056L488.5514999999998 319.31550000000016L476.74099999999953 327.3770000000002L470.62700000000007 319.0435000000002L457.2579999999999 313.7110000000007L454.0439999999995 308.52700000000027L444.6785 304.615500000001L441.52649999999994 297.17500000000086L435.8924999999999 307.5070000000005L426.56450000000007 304.525000000001L424.6369999999996 301.07650000000035L422.59950000000003 297.8105000000005L422.8864999999996 290.17400000000066L415.68749999999966 278.6065000000008L424.64999999999975 283.2720000000006L426.669 283.22700000000054L430.74899999999957 278.7290000000007L425.9704999999997 274.8700000000008L424.44249999999954 269.0285000000006L426.2209999999999 263.125500000001L432.8444999999999 252.68600000000106L429.0429999999998 243.63300000000095L429.79949999999974 239.70650000000091L428.1824999999998 233.9485000000002L417.6599999999996 229.4805000000008L421.7154999999997 220.35800000000108L419.61250000000007 214.8025000000007L423.92499999999984 210.6815000000006L417.3075 206.22650000000021L415.6079999999997 202.72500000000036L405.1479999999998 197.346L405.2850000000001 195.3970000000004L397.37799999999993 189.923L399.4719999999995 186.62300000000073L398.98949999999957 182.85850000000096L394.2564999999996 183.33700000000022L367.9249999999996 173.587500000001L367.6634999999999 173.5310000000004L360.8974999999998 173.87950000000046L359.5830000000001 177.63950000000023L348.94799999999975 172.96100000000024z">
      <title id="t38">Première circonscription de l'Aude</title>
      <desc id="d38">Cantons de : Capendu, Carcassonne I, Carcassonne II Nord, Carcassonne III, Conques-sur-Orbiel, Durban-Corbières, Ginestas, Lézignan-Corbières, Mas-Cabardès, Peyriac-Minervois</desc>
    </path><path class="circo" id="id-011-02" d="M580.5354999999997 105.28100000000109L568.845 104.62900000000104L563.8259999999997 107.74700000000053L562.1625 106.69650000000047L562.5809999999996 104.75900000000024L555.3339999999997 111.1805000000004L553.4870000000001 111.74750000000017L550.4994999999997 109.4010000000003L544.2114999999995 113.68250000000103L542.1809999999999 122.85950000000071L540.0274999999999 125.64750000000004L536.617 124.78300000000104L529.6259999999995 126.17450000000076L527.047 130.88950000000068L522.3014999999998 133.28100000000063L519.0555 129.67500000000086L520.1049999999998 132.83250000000066L515.0539999999995 132.53400000000056L511.76949999999977 128.08850000000007L508.04399999999987 126.78700000000049L504.44349999999986 131.51000000000067L502.45149999999967 131.52950000000033L498.61199999999997 130.8750000000009L495.12249999999995 127.00300000000084L492.2434999999996 128.15750000000094L488.6899999999997 129.50800000000072L482.07899999999995 126.38950000000023L479.32500000000005 129.46050000000014L475.40549999999996 130.7140000000004L471.22649999999965 138.4585000000004L475.3389999999996 141.8635000000006L490.4219999999998 148.54400000000055L493.06799999999953 151.92100000000096L492.68899999999974 153.30600000000004L499.18049999999994 157.09600000000023L496.85249999999996 164.362000000001L490.206 168.3955000000003L488.1279999999998 173.98700000000076L488.1804999999997 181.6590000000008L485.83249999999964 189.82650000000035L488.1569999999999 193.12150000000088L496.0024999999996 193.7035000000003L496.4554999999996 201.6840000000002L501.58699999999953 212.42450000000076L507.57450000000006 211.94400000000087L510.9609999999998 212.75550000000067L510.37949999999967 222.28750000000105L503.3389999999997 225.38600000000088L501.1719999999997 232.6735000000008L497.47299999999996 237.12650000000053L503.03849999999954 239.09400000000005L501.3274999999999 244.7720000000004L503.88949999999966 250.1285000000007L514.1359999999997 256.1530000000005L508.38049999999953 274.9720000000002L516.0509999999999 292.3840000000007L507.06549999999993 300.3385000000003L502.86749999999984 313.7200000000007L500.1769999999999 315.81750000000056L508.22749999999985 326.88300000000027L517.91 328.9675L522.21 335.24350000000027L547.4924999999996 343.77450000000067L552.7195 346.99050000000057L562.7819999999997 354.0865000000008L575.9299999999996 362.3270000000002L582.9079999999999 316.02300000000014L580.8355 312.478000000001L574.332 307.87000000000035L575.6459999999998 291.5375000000006L581.157 269.5145000000002L586.044 260.70600000000013L584.9949999999995 256.87850000000026L593.3419999999995 235.74250000000006L607.4455 208.95500000000084L613.1879999999995 203.55500000000006L620.6529999999998 187.33150000000023L635.4419999999999 169.44100000000049L659.6785 144.51000000000022L654.7604999999999 140.80800000000067L643.0879999999996 124.12050000000022L639.5619999999997 122.57900000000063L635.6489999999997 122.7430000000004L631.0179999999997 126.41150000000039L625.0919999999996 126.76650000000109L619.7049999999996 124.34150000000045L619.9209999999999 120.3895L617.6304999999996 117.26700000000051L607.9699999999997 116.55300000000011L606.1709999999999 120.04650000000083L604.2609999999996 120.53700000000049L598.8554999999997 118.18849999999998L594.0729999999996 114.75000000000023L590.154 115.27050000000031L580.5354999999997 105.28100000000109z">
      <title id="t39">Deuxième circonscription de l'Aude</title>
      <desc id="d39">Cantons de : Coursan, Narbonne Est, Narbonne Ouest, Narbonne Sud, Sigean</desc>
    </path><path class="circo" id="id-011-03" d="M111.44399999999962 208.84400000000028L113.62949999999955 218.70400000000018L111.08199999999954 220.89000000000055L114.10949999999957 223.05300000000102L116.73399999999958 227.93250000000057L115.9269999999998 229.61200000000076L108.71899999999982 229.46800000000053L107.09199999999953 232.5870000000009L109.418 239.6765000000005L112.90949999999953 241.1990000000003L115.88499999999954 239.58000000000084L122.19499999999982 243.8020000000006L123.69249999999965 246.36150000000043L126.37299999999982 250.98150000000032L126.24899999999968 254.74750000000085L119.35900000000004 263.77800000000093L126.11149999999952 266.3715000000002L126.95449999999994 271.58700000000067L125.38499999999999 275.1245000000006L126.44499999999994 286.71550000000025L128.87099999999975 289.61450000000013L134.51149999999984 290.7235000000003L131.2039999999996 295.0750000000005L127.577 295.476000000001L123.6624999999998 291.33800000000065L116.13049999999987 290.4650000000004L111.7289999999997 292.15850000000046L112.07650000000001 294.01800000000094L105.28349999999989 296.2455L104.26049999999975 303.74250000000075L124.16899999999998 309.2945000000009L127.8895 320.3750000000002L124.74199999999996 339.688000000001L126.06749999999977 343.3635000000004L115.52849999999978 348.8620000000003L109.95349999999974 351.58000000000015L85.26700000000005 353.8905L79.67999999999961 354.1100000000006L79.30649999999957 357.8120000000001L79.5414999999997 361.5465000000006L72.99949999999967 368.54100000000017L72.65999999999963 372.3765000000003L77.0274999999998 375.74700000000007L88.04149999999993 379.2585000000008L89.23849999999959 382.867500000001L90.54749999999956 384.063000000001L102.23199999999963 399.1405000000009L99.40650000000005 401.54800000000023L93.97049999999979 402.71100000000047L93.74699999999962 404.5570000000009L95.44849999999997 407.9950000000008L102.59699999999953 410.36950000000047L103.33550000000002 412.8425000000004L108.4639999999996 415.57800000000043L111.28299999999967 420.5255000000011L128.78649999999993 422.1805000000006L131.7904999999996 421.51750000000106L134.0319999999997 422.91450000000054L140.9164999999996 419.16000000000054L145.505 418.3120000000008L147.27199999999982 415.2200000000005L151.08949999999993 414.88200000000006L157.12649999999996 410.2080000000001L168.53049999999996 412.4210000000005L169.12949999999967 412.1855000000005L170.48699999999997 421.105L175.154 423.9645000000007L180.79450000000008 428.14050000000066L191.69949999999972 435.26500000000055L192.18500000000006 438.9420000000007L195.1569999999998 441.5930000000003L201.0624999999999 442.0080000000007L204.84649999999988 446.65250000000015L207.02399999999955 452.2860000000003L203.29499999999996 459.19700000000034L203.0005 463.17100000000096L207.26499999999987 469.4755000000009L207.28849999999966 469.71450000000004L207.32049999999958 471.8495000000007L214.18349999999975 470.1940000000002L214.09899999999993 465.9805000000006L225.36149999999964 458.25300000000084L236.32000000000005 453.972500000001L241.51849999999968 443.3120000000008L244.82849999999985 441.0865000000001L244.93149999999957 437.08650000000034L249.46699999999964 440.61700000000087L255.07949999999994 441.92350000000033L269.4874999999996 437.62050000000045L278.1579999999997 429.0635000000009L283.4514999999999 426.08600000000024L284.21149999999955 420.08550000000014L282.69649999999956 414.2130000000009L282.22999999999956 413.56100000000083L281.39999999999986 409.16000000000054L282.18549999999993 405.6295L278.3425 399.4245000000001L278.7269999999995 395.6880000000001L278.59699999999975 383.72150000000033L274.77149999999995 383.08200000000056L273.3934999999997 373.5075000000006L269.2474999999996 369.4995000000006L270.5714999999998 364.0370000000007L275.26999999999987 360.84400000000073L290.04050000000007 357.57400000000075L294.8509999999999 356.34750000000054L303.005 359.01050000000055L326.5794999999997 362.7175L328.86499999999955 362.0915000000002L345.1234999999997 355.2080000000001L348.66299999999967 355.56650000000104L351.40499999999975 358.0935000000011L352.81049999999993 359.434500000001L369.83799999999974 358.0630000000008L375.7034999999996 359.3025L387.466 363.22850000000017L403.7574999999998 364.68150000000037L414.78099999999984 363.1365000000005L415.1184999999998 363.193L422.2879999999998 366.63400000000024L441.592 364.4975000000011L448.6899999999997 361.1850000000004L453.0314999999996 354.46800000000053L456.2455 341.9335000000001L466.9794999999999 329.70300000000066L476.74099999999953 327.3770000000002L470.62700000000007 319.0435000000002L457.2579999999999 313.7110000000007L454.0439999999995 308.52700000000027L444.6785 304.615500000001L441.52649999999994 297.17500000000086L435.8924999999999 307.5070000000005L426.56450000000007 304.525000000001L424.6369999999996 301.07650000000035L422.59950000000003 297.8105000000005L422.8864999999996 290.17400000000066L415.68749999999966 278.6065000000008L424.64999999999975 283.2720000000006L426.669 283.22700000000054L430.74899999999957 278.7290000000007L425.9704999999997 274.8700000000008L424.44249999999954 269.0285000000006L426.2209999999999 263.125500000001L432.8444999999999 252.68600000000106L429.0429999999998 243.63300000000095L429.79949999999974 239.70650000000091L428.1824999999998 233.9485000000002L417.6599999999996 229.4805000000008L421.7154999999997 220.35800000000108L419.61250000000007 214.8025000000007L423.92499999999984 210.6815000000006L417.3075 206.22650000000021L415.6079999999997 202.72500000000036L405.1479999999998 197.346L405.2850000000001 195.3970000000004L397.37799999999993 189.923L399.4719999999995 186.62300000000073L398.98949999999957 182.85850000000096L394.2564999999996 183.33700000000022L367.9249999999996 173.587500000001L367.6634999999999 173.5310000000004L360.8974999999998 173.87950000000046L359.5830000000001 177.63950000000023L348.94799999999975 172.96100000000024L346.72799999999995 176.16150000000061L342.8129999999999 175.59950000000072L338.4715 190.5555000000004L333.11549999999954 188.1025000000011L329.27899999999966 188.90900000000101L321.81299999999965 186.54550000000086L318.58450000000005 197.18700000000013L319.341 202.32400000000098L312.6284999999996 200.6600000000003L305.7804999999996 194.1115000000002L308.05000000000007 186.94900000000075L307.3449999999997 183.3865000000003L306.90549999999973 183.2540000000006L287.0509999999996 180.12350000000083L287.02650000000006 180.30700000000024L288.3425 181.6585000000009L287.92899999999975 185.4135000000008L283.26449999999966 190.27600000000007L286.8644999999998 194.56350000000043L282.3444999999998 197.10950000000025L272.13300000000004 192.40200000000073L266.60049999999956 193.0210000000011L263.836 198.02600000000098L261.32499999999993 197.34650000000101L262.2370000000001 194.16950000000043L260.9834999999998 191.13700000000108L262.42249999999956 187.38900000000058L256.97450000000003 178.818500000001L249.24849999999992 177.87700000000086L251.81600000000003 175.4060000000004L251.93399999999997 171.7255L257.217 170.28350000000046L258.38449999999966 164.70600000000104L262.43499999999983 166.1430000000007L264.14799999999957 162.53200000000106L269.5954999999998 160.93450000000075L269.6445 158.4615000000008L274.1919999999999 155.57300000000055L272.19799999999964 152.86000000000058L277.44100000000003 147.3980000000006L275.31000000000006 142.45050000000106L269.31899999999985 135.78850000000102L264.94100000000003 135.33450000000016L262.9479999999995 135.16800000000103L249.7014999999999 126.28750000000082L251.48199999999974 122.50750000000039L254.06000000000006 119.5390000000009L257.90099999999995 120.32350000000065L259.15899999999965 118.8110000000006L259.48350000000005 107.0575000000008L266.8009999999998 109.67600000000061L274.19849999999997 107.73300000000063L274.1134999999997 102.54000000000019L281.1574999999999 103.19000000000074L276.46649999999966 96.70500000000061L274.56349999999986 86.97550000000092L271.4675 84.3480000000011L261.53999999999996 83.76700000000028L256.74649999999986 80.03600000000006L253.73249999999985 77.39900000000034L254.0549999999996 75.39850000000001L250.82400000000007 70.30750000000012L250.65449999999998 64.34200000000033L254.6339999999998 68.7015000000008L260.53650000000005 68.00700000000006L261.576 58.043499999999995L260.27049999999974 54.39450000000079L258.67099999999994 50.785000000000764L258.95299999999963 42.996500000000424L251.36699999999962 33.81400000000099L249.67150000000004 28.477000000000317L256.1674999999997 24.053499999999985L255.67949999999996 18.192999999999984L252.28349999999978 11.057000000000698L245.22999999999968 4.211999999999989L242.20399999999984 0L241.52049999999974 3.7885000000005675L234.99949999999956 10.208500000001095L234.15549999999996 11.923000000000457L226.98999999999955 18.633000000000948L227.35500000000002 24.784000000000788L229.89499999999964 30.34400000000005L223.81299999999953 45.34850000000006L211.81849999999997 38.21450000000027L204.85199999999963 25.92950000000087L198.88350000000003 26.477000000001L191.21199999999988 33.01300000000083L189.18849999999964 33.09850000000097L186.42200000000003 35.660500000000184L180.7974999999999 35.929000000001L179.62949999999978 37.410500000000866L178.66049999999973 38.42100000000073L172.84899999999993 37.403000000000475L171.39099999999985 38.75650000000064L168.84599999999978 36.302500000000464L163.36649999999963 37.69800000000032L161.02299999999957 32.38350000000082L162.15299999999957 30.792000000000144L158.5179999999997 26.32400000000075L154.98099999999965 17.447500000000673L144.8075 13.590500000000247L148.75049999999987 20.27150000000006L148.27549999999974 22.20450000000028L144.66349999999977 23.70200000000068L141.31699999999967 21.61100000000033L137.78249999999957 26.388000000000602L128.54049999999972 29.689500000000635L120.81849999999974 23.946500000000697L117.94249999999977 26.295000000000073L117.01949999999954 21.869500000000244L114.64699999999993 20.195000000001073L110.12849999999958 23.245500000000447L104.59799999999973 21.245499999999993L98.93899999999974 22.907000000000153L98.55050000000006 26.745500000000675L94.70799999999997 33.39400000000069L96.14199999999983 34.74250000000097L94.47549999999978 36.702000000000226L91.45049999999969 38.67550000000051L88.04749999999956 37.181000000000495L90.82299999999975 30.090000000000146L88.91549999999995 26.831500000000688L78.86849999999981 17.47600000000034L78.42449999999985 13.554000000000315L71.4164999999997 9.752500000000737L65.67849999999964 16.135000000000446L67.32399999999984 18.84900000000016L66.3409999999999 21.954000000000633L64.58649999999977 25.38650000000075L58.79699999999957 24.79850000000056L54.761499999999614 28.94900000000007L54.43549999999959 32.75400000000104L56.61149999999964 35.890000000000555L58.51949999999988 38.30350000000067L49.34849999999983 40.08850000000052L51.20199999999954 45.48000000000002L49.1519999999997 48.95250000000033L49.56549999999993 58.99300000000039L54.085999999999785 65.49800000000005L53.15399999999954 69.38200000000052L46.13650000000007 69.93000000000052L41.019000000000005 67.2485000000006L37.44799999999998 68.76550000000066L35.638999999999896 72.0270000000005L25.84199999999953 64.73050000000057L24.708499999999844 68.22450000000003L19.978999999999587 71.60200000000032L14.656999999999698 69.36450000000036L16.868000000000052 72.67200000000003L16.133499999999685 74.52950000000101L15.297499999999786 76.2990000000002L20.201999999999884 84.27200000000084L16.611499999999637 85.70150000000012L6.628499999999917 91.98100000000068L11.096000000000004 95.32300000000077L7.746500000000083 101.78150000000073L5.4640000000000555 104.31400000000053L3.5394999999999754 107.61250000000018L0 109.06850000000077L5.36200000000008 117.5545000000011L5.0414999999998145 125.43450000000007L11.757000000000062 135.43250000000057L15.082999999999629 137.72950000000037L13.777999999999793 139.16700000000105L15.387999999999806 144.692L9.18799999999976 152.03750000000014L9.01549999999986 157.804000000001L9.928499999999758 159.6505000000002L15.923999999999978 159.16000000000054L21.755999999999744 161.1315000000002L28.231499999999983 168.92450000000053L38.69550000000004 175.0825000000009L40.43649999999957 178.59800000000064L47.93199999999956 177.0315000000005L56.53500000000008 181.70200000000023L58.55349999999987 183.63200000000006L67.9789999999997 182.66450000000077L66.87799999999982 177.31400000000008L69.50649999999996 174.93800000000078L71.58349999999984 184.2470000000003L79.08199999999965 185.4015000000004L81.69949999999972 182.5500000000011L81.67749999999955 192.44800000000055L85.71799999999996 196.57050000000027L86.80799999999977 200.26350000000093L91.80399999999963 192.0900000000006L96.83899999999994 190.76900000000023L101.57350000000008 193.06100000000015L101.82349999999985 196.15400000000022L109.07749999999965 197.21850000000018L111.80849999999964 203.64950000000022L111.44399999999962 208.84400000000028z">
      <title id="t40">Troisième circonscription de l'Aude</title>
      <desc id="d40">Cantons de : Alaigne, Alzonne, Axat, Belcaire, Belpech, Carcassonne II Sud, Castelnaudary Nord, Castelnaudary Sud, Chalabre, Couiza, Fanjeaux, Lagrasse, Limoux, Montréal, Mouthoumet, Quillan, Saint-Hilaire, Saissac, Salles-sur-l'Hers, Tuchan</desc>
    </path></svg>