<svg xmlns="http://www.w3.org/2000/svg" version="1.1" xmlns:xlink="http://www.w3.org/1999/xlink" xmlns:svgjs="http://svgjs.dev/svgjs" width="684.8259999999999" height="742.3068499999999" fill="#eeeeee" stroke="#cccccc" xmlns:sodipodi="http://sodipodi.sourceforge.net/DTD/sodipodi-0.dtd"><path class="circo" id="id-012-01" d="M354.6424999999999 344.62085L350.65150000000017 349.2393499999997L344.99400000000037 347.96335L343.0725000000001 353.71285L349.2689999999999 357.5913499999996L354.2975000000001 365.73735L353.0880000000002 368.35285L350.3620000000001 371.50334999999984L344.2345 372.80235000000005L349.08500000000004 375.7003499999996L348.6850000000004 381.7703499999999L347.2149999999999 383.0543499999999L339.64200000000005 380.0463500000001L335.5590000000001 380.7068499999997L334.58000000000027 382.1228500000001L337.586 387.1168499999999L329.85600000000034 389.0408499999995L326.00300000000004 382.08984999999984L333.10400000000016 378.65984999999966L329.2009999999999 373.75534999999957L327.6750000000004 367.80584999999974L319.57600000000014 373.3763499999998L314.01700000000005 373.08985000000007L312.8465 371.50284999999997L309.4350000000003 373.2593499999996L308.3465000000001 376.8208499999997L311.77549999999997 378.47534999999993L310.8064999999999 384.42484999999976L313.8175000000001 389.65734999999995L307.0715000000001 398.6933499999998L305.6945000000002 397.2043499999995L301.909 397.28984999999966L301.3325000000003 393.27534999999955L298.5145 390.36234999999976L290.5525 391.27534999999966L285.0980000000004 388.60484999999983L278.89549999999986 378.9313499999997L283.8835 373.13085L278.91850000000034 364.9753499999997L272.60950000000037 362.77484999999956L272.2815000000003 360.73384999999973L264.7995000000003 357.8853499999997L263.46400000000017 352.01435000000004L259.35450000000003 352.24085L253.0445000000003 347.43785L249.2700000000002 349.10784999999976L242.16700000000003 341.87185L239.0764999999999 345.8448499999997L236.524 343.27984999999956L234.78350000000034 343.7903499999999L234.26350000000014 337.87485000000004L237.6585 324.16994999999986L230.18399999999986 321.64709999999957L225.35349999999994 312.8159999999997L222.10050000000024 315.1984999999996L220.76200000000028 313.4366499999999L240.88700000000017 305.61825L245.27649999999994 299.1713999999996L243.51949999999988 294.13084999999967L234.05100000000004 290.79364999999996L229.63250000000016 286.59924999999987L225.63050000000032 287.23644999999976L229.13850000000025 282.21199999999953L228.58299999999986 278.1255999999996L216.9300000000004 266.65174999999977L216.6855000000004 262.92579999999987L218.22150000000022 261.7810499999996L222.53899999999987 265.4951999999997L227.0300000000003 262.1492999999998L233.73199999999997 263.9477499999998L236.5255000000002 259.41460000000006L235.66900000000032 253.6475999999999L239.51750000000004 249.15904999999952L242.7755000000002 239.92905000000007L258.78250000000037 242.27179999999976L264.70500000000015 232.19130000000007L266.1225000000002 232.08514999999977L289.53700000000026 235.30629999999974L291.4715000000001 235.8364499999999L291.4675 237.84974999999974L293.35800000000006 238.19320000000005L299.1784999999999 233.46104999999966L304.87799999999993 232.64995L296.9315 222.4604499999998L293.64750000000015 218.37594999999965L294.3765000000002 216.73329999999964L291.8960000000004 213.76704999999959L291.0590000000002 208.082L286.8670000000003 211.70759999999973L283.4190000000001 209.99364999999955L280.47450000000026 202.49989999999968L283.46400000000017 194.90309999999965L280.5525 189.37919999999963L275.6569999999999 185.4699499999998L273.9195000000001 179.48519999999974L267.0645000000002 178.6650499999996L268.7325000000004 173.21145L272.67449999999997 174.3896000000001L274.1390000000001 172.8738999999996L276.19550000000004 169.21374999999955L276.04750000000024 162.91484999999966L280.85849999999994 151.22824999999978L288.6740000000003 145.11859999999956L289.95150000000024 141.57929999999965L296.11850000000004 137.38594999999975L304.54650000000015 131.24154999999973L304.7615000000002 129.35549999999978L301.64199999999994 127.40229999999997L302.8030000000001 125.72064999999952L303.7004999999999 121.12030000000004L303.4615000000002 110.1845499999996L306.43550000000005 108.01780000000008L308.05499999999995 97.81135000000006L312.05100000000016 93.6384499999997L317.4385000000001 94.27795000000003L323.2015000000001 88.48464999999976L322.47950000000003 72.24874999999997L327.96699999999987 66.35704999999973L324.9180000000001 58.87110000000007L330.81650000000025 52.94834999999978L335.50700000000006 41.383449999999584L345.6954999999999 42.875549999999976L347.0445000000001 41.28809999999987L348.05949999999996 33.25864999999965L357.94399999999996 20.33339999999953L361.1725000000001 22.481649999999718L368.35849999999994 20.48759999999959L372.77600000000007 7.436899999999582L376.0865000000001 8.316949999999679L377.31750000000034 4.529449999999997L381.66800000000023 0.51400000000001L381.9085000000001 0L383.5374999999999 5.551849999999945L389.4145000000003 5.446199999999521L397.9915 18.958549999999832L396.35500000000036 24.727550000000065L399.05200000000036 32.24429999999984L396.01 37.631999999999834L394.9355000000003 45.78874999999982L396.16300000000024 49.74734999999953L400.21000000000015 50.1191L403.4680000000003 45.06254999999953L410.18200000000036 40.467049999999745L413.69550000000004 42.45634999999993L429.9985000000004 41.568149999999946L431.4975000000004 40.15099999999961L433.5155000000003 40.06044999999972L431.7650000000003 53.99209999999982L435.1850000000002 56.31809999999973L434.2265000000003 61.969949999999585L437.8325000000001 66.95509999999956L441.91700000000026 82.83414999999991L446.2504999999999 91.68205L449.7455000000002 93.6072999999999L453.5925000000003 93.40309999999988L459.23400000000015 88.09714999999983L465.00699999999995 96.28150000000005L465.1155 104.36094999999966L463.75249999999994 105.93590000000006L457.62400000000014 105.69410000000005L456.8150000000003 107.60779999999954L457.5585000000001 109.55784999999992L463.0709999999999 112.33319999999992L464.8245000000003 116.06519999999989L463.9765 122.17519999999979L460.5400000000003 127.40289999999959L463.7795 136.74305000000004L465.18849999999986 146.7933499999998L468.2555000000002 152.1727999999996L467.3750000000001 157.9422999999997L473.23450000000037 163.16820000000007L474.1425000000004 167.13854999999967L477.29100000000017 169.7186499999998L476.9490000000002 171.7524499999996L480.5095 175.46194999999955L485.3665000000001 177.60054999999966L498.9395000000002 192.01554999999985L501.04899999999986 197.66500000000008L506.2049999999999 203.83645L508.9350000000002 206.94320000000005L515.3149999999999 210.7240999999999L518.4975000000003 215.2445499999999L525.5380000000002 220.6599L525.7125000000002 222.48074999999972L528.6295000000001 227.9558499999996L524.9914999999999 244.0742499999999L525.5560000000003 252.31779999999958L522.4504999999999 262.30545000000006L535.4680000000002 275.5773499999998L530.2985000000001 286.7231499999997L528.3904999999999 287.54669999999976L521.5135000000004 283.1339499999996L513.297 282.08219999999983L502.6320000000004 282.66165L499.0680000000003 284.55904999999973L497.0165000000003 287.98969999999997L491.42300000000034 288.8042999999999L490.03449999999987 296.59194999999954L494.23249999999996 300.88930000000005L488.5730000000001 307.54414999999995L480.25300000000016 302.8797499999996L480.33050000000003 295.1363999999995L477.15100000000007 293.17109999999957L474.7040000000004 300.4708499999998L470.06050000000016 303.8439999999997L467.4585000000002 309.0265999999997L475.72 314.00845000000004L479.8660000000001 322.84339999999986L472.95600000000036 333.17484999999976L459.0935000000002 335.8308499999998L460.9050000000002 339.5968499999998L470.7634999999999 342.2488499999997L472.96050000000037 350.19385L467.1965 350.2943499999998L462.6850000000002 361.50035L457.0785000000001 362.47934999999984L452.55300000000034 366.3993499999998L444.4395000000003 358.00234999999986L438.5175000000004 358.5618499999998L426.10749999999996 361.2913499999996L425.57500000000005 361.68835L415.6220000000002 363.41084999999964L404.3745000000001 358.97284999999954L402.69949999999994 358.5918499999997L391.62950000000023 359.3138499999998L388.85350000000017 361.6168499999998L379.0885000000003 361.6438499999998L376.4210000000003 359.3363499999998L380.1850000000002 354.6693499999998L380.1445000000001 350.61935000000005L374.196 342.2013499999997L367.0224999999999 337.99935000000005L354.6424999999999 344.62085z">
      <title id="t41">Première circonscription de l'Aveyron</title>
      <desc id="d41">Cantons de : Bozouls, Entraygues-sur-Truyère, Espalion, Estaing, Laguiole, Laissac, Marcillac-Vallon, Mur-de-Barrez, Rodez Est, Rodez Nord, Rodez Ouest, Saint-Amans-des-Cots, Saint-Chély-d'Aubrac, Sainte-Geneviève-sur-Argence, Saint-Geniez-d'Olt</desc>
    </path><path class="circo" id="id-012-02" d="M108.66800000000012 217.40219999999965L104.13850000000025 213.1887999999998L102.10950000000025 213.17504999999983L97.24050000000034 222.13889999999992L95.64400000000035 223.38219999999978L94.2349999999999 222.37874999999974L95.11850000000038 216.52924999999982L91.45150000000001 216.10019999999963L83.18849999999998 222.09834999999998L82.97050000000013 226.16690000000006L80.40650000000028 229.20069999999953L80.0550000000004 229.3390999999997L76.15000000000009 230.79444999999964L69.93150000000014 229.9599999999998L61.44350000000031 235.74404999999956L59.45249999999987 239.46334999999976L56.13650000000007 244.5148499999999L50.256500000000415 252.5681499999996L46.120500000000106 253.60529999999983L42.14550000000031 254.32354999999973L37.65649999999994 260.89309999999955L33.6790000000002 261.31264999999985L30.430000000000064 262.2100999999998L34.49099999999987 268.73114999999984L32.6339999999999 272.06624999999974L29.09050000000036 270.951L26.322999999999865 261.7631499999999L20.500999999999863 261.05639999999994L18.98300000000006 264.52214999999967L19.331000000000245 272.1555999999998L16.05600000000038 273.39234999999974L9.3100000000004 271.4729L0.4619999999999891 276.13909999999976L0 278.1732499999998L3.3935000000002447 283.2709L5.1300000000003365 286.97739999999953L4.73350000000039 301.24049999999954L14.244500000000357 309.09204999999986L14.30150000000026 309.35925L13.2650000000001 311.16889999999955L14.705500000000029 319.3703999999997L12.412500000000364 325.1128L14.761500000000183 328.5488499999997L21.99800000000039 335.86635L24.09500000000037 341.6343499999999L29.142500000000382 345.20884999999964L30.24249999999995 349.18034999999975L28.152000000000044 352.67634999999984L22.08149999999989 352.13584999999966L20.473499999999945 353.4373499999998L18.02600000000041 359.08435L19.53200000000038 361.9408499999997L15.44050000000027 362.13284999999985L8.845499999999902 369.8598499999997L17.211000000000354 381.0438499999998L12.371499999999855 387.61885000000007L26.23199999999997 395.2898499999998L42.756500000000415 393.2513499999999L44.091999999999985 394.75634999999954L50.08700000000033 394.6338499999996L55.660500000000184 396.9333499999999L52.930000000000064 403.93084999999985L52.00050000000033 417.1153499999997L46.485999999999876 416.63284999999973L43.94400000000019 414.0023499999995L39.310500000000275 416.9323499999996L29.189499999999953 434.84035000000006L23.362000000000194 434.62834999999984L21.537999999999897 437.73885000000007L28.061500000000024 441.3778500000001L27.305000000000064 445.1293499999997L31.161500000000046 449.0938499999993L30.356500000000324 450.84434999999985L37.502000000000066 448.4838500000001L39.83949999999993 451.50435000000016L40.273500000000126 457.27584999999976L42.94300000000021 460.1413500000001L45.39700000000039 452.4053500000002L51.39499999999998 451.6643499999998L57.083000000000084 453.25384999999983L59.672500000000355 456.19685000000004L56.93150000000003 459.2033500000002L57.832500000000095 463.10685000000035L66.89000000000021 466.9843500000002L63.96450000000016 472.17784999999935L69.75400000000036 471.16634999999974L80.99850000000004 467.3678499999994L79.6550000000002 461.82185000000004L81.36400000000037 460.74434999999994L93.00600000000031 458.65635L89.89350000000002 450.01485L96.85200000000009 448.0798500000003L100.23650000000032 452.86834999999996L107.67400000000009 451.01035000000024L109.17700000000025 454.63134999999966L110.96249999999998 455.05435000000034L113.95750000000021 452.37934999999993L111.97499999999991 447.26935000000026L116.62050000000022 444.71434999999985L131.5590000000003 441.90234999999973L133.02099999999996 447.29235000000017L135.62250000000006 449.9478499999998L133.904 453.3113500000002L135.35750000000007 454.53334999999925L141.21849999999995 453.76134999999977L144.9799999999999 455.0983499999995L145.5000000000001 459.1098499999998L149.3330000000003 463.8808499999993L153.0740000000003 462.80785000000037L155.54050000000018 459.6473500000002L163.28399999999988 461.7673500000001L169.13049999999998 466.7438500000003L155.95550000000003 474.52585L150.38400000000024 473.1478500000003L145.79049999999995 476.99134999999956L146.27800000000036 478.93235000000004L148.2370000000003 479.32784999999967L149.72100000000012 477.9258500000003L163.70900000000006 478.57984999999985L169.04600000000016 481.14984999999933L179.41550000000007 475.00585L189.21950000000038 474.6168499999999L194.61350000000039 480.20835000000034L191.66699999999992 487.50434999999925L198.74599999999987 490.48434999999927L205.56100000000015 486.9828499999994L209.43399999999997 487.82884999999965L212.7895000000001 494.7168499999998L217.74100000000033 497.6858500000003L220.18500000000017 500.5378499999995L233.56300000000033 504.67085L237.0500000000004 502.59334999999965L237.96600000000012 498.74034999999935L233.5405000000003 490.0523499999997L241.52899999999988 491.01935000000026L249.17149999999992 497.05884999999967L253.1600000000003 496.53934999999933L256.1070000000001 493.5348499999998L260.20399999999995 484.7988499999997L258.8240000000002 481.1043499999994L262.5380000000001 476.65435L258.86799999999994 472.2123499999998L263.76450000000034 469.52834999999936L269.5915000000002 469.2433499999993L273.11950000000024 470.8833500000003L273.53049999999996 472.80035L277.8649999999999 463.4728499999994L272.69949999999994 456.9413499999996L275.5250000000001 452.5808499999994L273.1060000000002 449.2413499999998L272.0445000000001 443.0588499999999L270.0510000000003 437.5538499999999L266.1605000000003 437.9433499999999L263.3985000000001 440.81185000000005L261.76350000000014 439.65434999999957L267.44200000000035 425.1448499999998L269.3620000000004 421.86984999999993L275.16850000000034 420.48585L284.39850000000035 407.21934999999974L283.62400000000036 403.37784999999997L279.3905000000001 398.99684999999977L279.77599999999995 390.9578499999998L278.999 385.16384999999957L276.6505000000001 381.94484999999986L278.89549999999986 378.9313499999997L283.8835 373.13085L278.91850000000034 364.9753499999997L272.60950000000037 362.77484999999956L272.2815000000003 360.73384999999973L264.7995000000003 357.8853499999997L263.46400000000017 352.01435000000004L259.35450000000003 352.24085L253.0445000000003 347.43785L249.2700000000002 349.10784999999976L242.16700000000003 341.87185L239.0764999999999 345.8448499999997L236.524 343.27984999999956L234.78350000000034 343.7903499999999L234.26350000000014 337.87485000000004L237.6585 324.16994999999986L230.18399999999986 321.64709999999957L225.35349999999994 312.8159999999997L222.10050000000024 315.1984999999996L220.76200000000028 313.4366499999999L240.88700000000017 305.61825L245.27649999999994 299.1713999999996L243.51949999999988 294.13084999999967L234.05100000000004 290.79364999999996L229.63250000000016 286.59924999999987L225.63050000000032 287.23644999999976L229.13850000000025 282.21199999999953L228.58299999999986 278.1255999999996L216.9300000000004 266.65174999999977L216.6855000000004 262.92579999999987L218.22150000000022 261.7810499999996L222.53899999999987 265.4951999999997L227.0300000000003 262.1492999999998L233.73199999999997 263.9477499999998L236.5255000000002 259.41460000000006L235.66900000000032 253.6475999999999L239.51750000000004 249.15904999999952L242.7755000000002 239.92905000000007L258.78250000000037 242.27179999999976L264.70500000000015 232.19130000000007L266.1225000000002 232.08514999999977L289.53700000000026 235.30629999999974L291.4715000000001 235.8364499999999L291.4675 237.84974999999974L293.35800000000006 238.19320000000005L299.1784999999999 233.46104999999966L304.87799999999993 232.64995L296.9315 222.4604499999998L293.64750000000015 218.37594999999965L294.3765000000002 216.73329999999964L291.8960000000004 213.76704999999959L291.0590000000002 208.082L286.8670000000003 211.70759999999973L283.4190000000001 209.99364999999955L280.47450000000026 202.49989999999968L283.46400000000017 194.90309999999965L280.5525 189.37919999999963L275.6569999999999 185.4699499999998L273.9195000000001 179.48519999999974L267.0645000000002 178.6650499999996L259.443 175.56584999999984L253.29850000000022 180.54665L240.1724999999999 176.1041499999999L236.9285000000002 176.6990999999996L235.03150000000005 177.44524999999953L230.01950000000022 174.61719999999957L223.3945 179.28984999999955L217.31449999999995 179.65719999999976L210.539 175.11544999999956L211.2080000000003 169.18205L209.34000000000026 165.70079999999962L205.90100000000007 162.97579999999982L199.04600000000016 166.41429999999957L189.79750000000024 164.59769999999992L184.79100000000017 167.72054999999966L182.91800000000023 168.09814999999958L180.86299999999994 167.94519999999977L174.62350000000015 173.16845L164.67849999999999 171.96814999999958L156.72050000000013 178.09814999999958L159.2515000000003 187.92384999999967L161.8870000000004 191.12345000000005L156.32150000000024 195.00634999999988L157.5970000000001 198.82619999999974L156.28449999999987 202.59599999999978L152.3475000000002 202.5070999999997L152.46550000000013 208.35234999999955L150.20800000000008 211.7231499999997L147.11450000000013 209.82055000000003L140.31550000000038 209.40279999999973L140.20350000000008 209.45769999999982L132.98249999999996 221.23504999999966L125.23400000000038 221.95875L122.09900000000005 217.25539999999967L120.11850000000038 217.28819999999985L117.56650000000036 220.3305499999999L112.35299999999995 221.30245000000002L108.66800000000012 217.40219999999965z">
      <title id="t42">Deuxième circonscription de l'Aveyron</title>
      <desc id="d42">Cantons de : Aubin, Baraqueville-Sauveterre, Capdenac-Gare, Conques, Decazeville, Montbazens, Najac, Naucelle, Rieupeyroux, Rignac, La Salvetat-Peyralès, Villefranche-de-Rouergue, Villeneuve</desc>
    </path><path class="circo" id="id-012-03" d="M371.5250000000003 712.7168499999993L363.6945000000003 712.0158500000002L357.885 711.8058499999995L348.62149999999986 704.2418499999997L347.2700000000003 700.5093499999998L335.5650000000003 690.18685L333.4635000000003 684.5548499999995L328.9715000000001 680.3428499999995L327.0365000000004 674.5498499999997L322.7120000000002 670.5278499999997L323.0400000000003 668.4958499999993L321.50800000000004 667.4808499999995L319.1065000000003 667.7953500000001L306.9145000000003 651.47785L308.01300000000026 648.5333500000002L307.6830000000001 641.3158499999997L307.9155000000003 639.4683499999996L314.6360000000004 633.6703499999999L313.06399999999996 630.3828499999997L302.75149999999996 624.5973500000002L302.32650000000035 618.6913500000003L303.10450000000003 615.0293499999998L303.5315000000003 607.1848499999999L300.65800000000024 604.3868499999996L296.6795000000002 603.6768499999994L296.47050000000036 599.6683499999995L284.2599999999999 592.9113499999994L280.2584999999999 593.0163500000003L282.28200000000015 587.2543499999995L287.53300000000024 585.2878499999997L289.52200000000005 582.3793499999999L290.46050000000037 576.4058499999999L290.53150000000016 572.3173499999996L281.41200000000026 568.4883500000001L278.5175000000004 563.2428500000003L277.14650000000006 558.5088499999995L278.69200000000035 553.9673500000004L274.22500000000014 546.0018500000001L267.8675000000004 542.6708499999995L265.1935000000003 540.0443499999994L264.0174999999999 530.8463499999993L242.4860000000001 527.5728500000002L242.79300000000035 519.6233499999994L238.02099999999996 510.9108500000002L233.5624999999999 506.72135000000026L233.56300000000033 504.67085L237.0500000000004 502.59334999999965L237.96600000000012 498.74034999999935L233.5405000000003 490.0523499999997L241.52899999999988 491.01935000000026L249.17149999999992 497.05884999999967L253.1600000000003 496.53934999999933L256.1070000000001 493.5348499999998L260.20399999999995 484.7988499999997L258.8240000000002 481.1043499999994L262.5380000000001 476.65435L258.86799999999994 472.2123499999998L263.76450000000034 469.52834999999936L269.5915000000002 469.2433499999993L273.11950000000024 470.8833500000003L273.53049999999996 472.80035L277.8649999999999 463.4728499999994L272.69949999999994 456.9413499999996L275.5250000000001 452.5808499999994L273.1060000000002 449.2413499999998L272.0445000000001 443.0588499999999L270.0510000000003 437.5538499999999L266.1605000000003 437.9433499999999L263.3985000000001 440.81185000000005L261.76350000000014 439.65434999999957L267.44200000000035 425.1448499999998L269.3620000000004 421.86984999999993L275.16850000000034 420.48585L284.39850000000035 407.21934999999974L283.62400000000036 403.37784999999997L279.3905000000001 398.99684999999977L279.77599999999995 390.9578499999998L278.999 385.16384999999957L276.6505000000001 381.94484999999986L278.89549999999986 378.9313499999997L285.0980000000004 388.60484999999983L290.5525 391.27534999999966L298.5145 390.36234999999976L301.3325000000003 393.27534999999955L301.909 397.28984999999966L305.6945000000002 397.2043499999995L307.0715000000001 398.6933499999998L313.8175000000001 389.65734999999995L310.8064999999999 384.42484999999976L311.77549999999997 378.47534999999993L308.3465000000001 376.8208499999997L309.4350000000003 373.2593499999996L312.8465 371.50284999999997L314.01700000000005 373.08985000000007L319.57600000000014 373.3763499999998L327.6750000000004 367.80584999999974L329.2009999999999 373.75534999999957L333.10400000000016 378.65984999999966L326.00300000000004 382.08984999999984L329.85600000000034 389.0408499999995L337.586 387.1168499999999L334.58000000000027 382.1228500000001L335.5590000000001 380.7068499999997L339.64200000000005 380.0463500000001L347.2149999999999 383.0543499999999L348.6850000000004 381.7703499999999L349.08500000000004 375.7003499999996L344.2345 372.80235000000005L350.3620000000001 371.50334999999984L353.0880000000002 368.35285L354.2975000000001 365.73735L349.2689999999999 357.5913499999996L343.0725000000001 353.71285L344.99400000000037 347.96335L350.65150000000017 349.2393499999997L354.6424999999999 344.62085L367.0224999999999 337.99935000000005L374.196 342.2013499999997L380.1445000000001 350.61935000000005L380.1850000000002 354.6693499999998L376.4210000000003 359.3363499999998L379.0885000000003 361.6438499999998L388.85350000000017 361.6168499999998L391.62950000000023 359.3138499999998L402.69949999999994 358.5918499999997L404.3745000000001 358.97284999999954L415.6220000000002 363.41084999999964L425.57500000000005 361.68835L426.10749999999996 361.2913499999996L438.5175000000004 358.5618499999998L444.4395000000003 358.00234999999986L452.55300000000034 366.3993499999998L457.0785000000001 362.47934999999984L462.6850000000002 361.50035L467.1965 350.2943499999998L472.96050000000037 350.19385L470.7634999999999 342.2488499999997L460.9050000000002 339.5968499999998L459.0935000000002 335.8308499999998L472.95600000000036 333.17484999999976L479.8660000000001 322.84339999999986L475.72 314.00845000000004L467.4585000000002 309.0265999999997L470.06050000000016 303.8439999999997L474.7040000000004 300.4708499999998L477.15100000000007 293.17109999999957L480.33050000000003 295.1363999999995L480.25300000000016 302.8797499999996L488.5730000000001 307.54414999999995L494.23249999999996 300.88930000000005L490.03449999999987 296.59194999999954L491.42300000000034 288.8042999999999L497.0165000000003 287.98969999999997L499.0680000000003 284.55904999999973L502.6320000000004 282.66165L513.297 282.08219999999983L521.5135000000004 283.1339499999996L528.3904999999999 287.54669999999976L530.2985000000001 286.7231499999997L535.4680000000002 275.5773499999998L543.0185 279.5342499999998L546.2235000000004 286.9696499999998L550.7370000000003 290.41319999999985L551.1115000000001 296.4437499999997L550.5630000000002 298.4522999999996L553.5645 301.29764999999963L553.0995000000001 307.51139999999964L548.3789999999999 311.35515L547.0115000000004 315.15089999999987L551.4840000000004 318.5374999999999L551.4030000000002 328.43885L544.0460000000002 331.5853499999997L545.598 335.22284999999954L545.215 341.28634999999974L544.2490000000004 345.27184999999974L549.2450000000002 348.91885L548.0914999999999 356.6423499999996L551.4535000000001 363.9703499999996L557.3040000000003 365.1103499999999L555.2379999999999 372.7158499999996L558.7185 377.41184999999973L546.4105000000001 391.5488499999998L544.948 403.99585L548.1495000000001 406.07884999999953L551.9319999999999 404.2798499999998L555.2775000000003 397.1213499999999L558.7195000000003 398.89684999999986L561.3815 414.77734999999996L567.2820000000002 415.38284999999973L572.9820000000001 413.21685L576.3229999999999 418.1113499999998L591.1360000000002 424.2333500000001L586.3210000000004 439.55484999999953L583.3879999999999 444.54634999999996L579.9705 446.0743500000001L579.4925000000001 447.9773499999999L589.3395000000004 447.80134999999973L594.8425000000003 447.75935000000004L605.437 442.07335L615.412 442.33784999999955L617.0735000000002 438.7098499999996L621.1005 438.38885000000005L628.4465 442.0093499999996L634.2770000000002 440.1388499999996L646.3330000000002 441.3393500000001L645.4480000000001 445.3213499999998L651.2265000000002 453.59584999999925L651.9585000000001 459.5518500000003L636.2475000000001 467.03784999999925L633.5034999999999 476.49434999999926L629.3080000000003 480.1763499999993L630.6835000000001 485.4693499999996L630.7935000000003 496.17984999999976L625.1625000000001 498.3943499999998L617.0185000000004 498.5128499999996L605.0595000000004 505.8638499999995L609.9795 508.88484999999946L618.9355 519.5343500000001L622.978 519.6993499999996L630.4575 513.3828499999993L631.4870000000002 514.7338500000001L632.9445000000004 513.8668499999994L634.7045000000003 516.8668500000001L636.6605000000004 526.0048499999994L641.0045000000002 529.6168499999999L642.6435000000004 530.8853499999998L649.4065 526.1793499999999L651.6290000000004 529.5218499999999L657.4865 528.1023500000003L663.0995000000001 534.1068499999994L670.8000000000004 537.0363499999996L682.1879999999999 545.9838500000001L684.2930000000001 546.8363499999998L684.8259999999999 547.2708499999999L681.6685000000001 559.2093499999999L671.0335000000003 565.1433499999996L665.5450000000002 578.4998499999995L653.5995000000003 580.1408500000002L652.8985 586.1898499999995L645.7910000000004 590.0143500000001L642.5810000000001 597.4318499999993L645.4605000000004 611.4648499999998L638.4135000000003 617.5333499999999L638.7490000000003 623.0503499999998L628.5865000000001 624.8498499999994L618.5939999999999 622.5868500000001L614.6340000000004 623.5698500000001L611.0705000000002 621.5298499999994L606.3935000000004 621.9273499999997L604.7655000000003 624.9318499999993L603.1110000000001 630.97035L596.0660000000001 634.9593500000003L593.3635000000004 640.5588499999999L593.8210000000004 646.7033500000002L599.9785000000003 654.9693500000001L598.9975000000004 661.1373500000002L593.562 662.5473499999998L587.799 668.0908499999998L580.412 670.9278499999994L570.6675000000001 671.0048499999994L561.0335000000003 668.3603499999992L557.5285000000002 669.84735L557.2050000000002 670.4513499999996L547.4324999999999 668.3083499999998L539.957 661.7393500000003L530.668 657.8838499999995L520.7400000000001 657.6093500000002L518.0664999999999 664.9448499999994L519.6930000000003 672.5473499999998L513.7955 677.67785L516.8020000000001 682.8733499999998L517.4000000000001 688.6853499999995L524.7345000000001 697.6268500000003L520.9970000000004 704.6188499999994L517.0715000000001 705.0763499999994L515.7325000000003 711.0368499999993L517.4495000000002 714.7223499999996L515.9700000000004 718.5163499999999L517.602 722.2383500000001L516.5385000000003 728.0318499999998L522.5495000000001 733.3698500000003L519.6590000000003 735.9858499999996L518.9425 741.6248499999995L513.6574999999999 739.1768500000001L506.4564999999999 741.8338499999993L501.0865000000001 739.7483499999998L498.8204999999999 736.5473499999996L491.4564999999999 733.5788500000001L485.54100000000005 732.6753499999995L482.0885000000004 734.6763499999997L475.2475000000004 737.6043500000003L468.77250000000004 742.1738500000004L466.7380000000003 742.3068499999999L465.7249999999999 740.5308500000001L461.576 734.1393499999992L458.7870000000004 718.3043499999997L459.81899999999996 716.5568499999995L451.7595 712.5368500000002L438.09450000000027 714.36735L433.04200000000037 708.4948499999996L432.9200000000003 708.4418499999992L423.3475000000004 707.3378500000001L418.29049999999995 701.3973499999997L414.32150000000036 701.1738500000001L403.5395 706.4908500000001L400.2879999999999 715.6628499999999L386.40300000000025 718.2928500000003L382.8815000000003 720.3688499999998L371.5250000000003 712.7168499999993z">
      <title id="t43">Troisième circonscription de l'Aveyron</title>
      <desc id="d43">Cantons de : Belmont-sur-Rance, Camarès, Campagnac, Cassagnes-Bégonhès, Cornus, Millau Est, Millau Ouest, Nant, Peyreleau, Pont-de-Salars, Réquista, Saint-Affrique, Saint-Beauzély, Saint-Rome-de-Tarn, Saint-Sernin-sur-Rance, Salles-Curan, Sévérac-le-Château, Vézins-de-Lévézou</desc>
    </path></svg>