<svg xmlns="http://www.w3.org/2000/svg" version="1.1" xmlns:xlink="http://www.w3.org/1999/xlink" xmlns:svgjs="http://svgjs.dev/svgjs" width="672.7789999999993" height="725.6243499999998" fill="#eeeeee" stroke="#cccccc" xmlns:sodipodi="http://sodipodi.sourceforge.net/DTD/sodipodi-0.dtd"><path class="circo" id="id-013-01" d="M425.18299999999954 620.77145L448.5444999999993 627.3042499999999L466.05099999999993 623.0998L467.5109999999995 611.78045L475.87099999999964 603.6435500000002L503.17999999999984 610.2351000000001L504.9669999999992 602.7456000000001L494.31049999999914 590.06945L493.8029999999992 578.6366L504.41299999999956 565.92275L510.07049999999936 566.94455L525.29 548.1611499999999L515.7009999999991 509.2181500000001L504.0779999999995 507.75135000000006L483.63399999999956 518.7630000000001L454.5054999999991 519.8569L443.65549999999985 505.2674000000002L434.6965 513.19155L414.77449999999976 508.6432000000002L394.42049999999995 524.2952500000001L371.6724999999997 519.4104000000002L369.67449999999985 553.4096999999999L365.797 562.54105L368.14300000000003 571.5622999999999L391.58500000000004 569.2306000000002L401.7364999999995 582.6115000000002L412.2169999999994 576.9451000000001L416.98549999999955 587.2581L428.94849999999906 589.6619499999999L427.47799999999984 595.58965L428.1009999999992 605.5206499999999L432.6879999999994 612.58915L425.18299999999954 620.77145z">
      <title id="t44-8">Première circonscription des Bouches-du-Rhône</title>
      <desc id="d44-4">Partie du 10e arrondissement municipal située au nord d'une ligne définie par l'axe des voies ci-après, à partir de la limite du 5e arrondissement municipal de Marseille : boulevard Jean-Moulin, avenue de la Timone, voie de chemin de fer, autoroute Est A50, rue d'André-Bardon, avenue Florian, lit de l'Huveaune vers l'amont, traverse de la Roue, place Guy-Duran, rue Pierre-Doize, chemin des Prud'hommes, boulevard du Général-Mangin, résidence Lycée Est incluse, chemin de la Valbarelle à Saint-Marcel jusqu'en limite du 11e arrondissement municipal</desc>
    </path><path class="circo" id="id-013-02" d="M291.28999999999905 577.1607500000002L303.35449999999923 556.6511500000001L320.9769999999992 557.11885L322.4365 561.7456000000002L324.5794999999998 582.4893L343.71849999999995 575.5204500000002L357.95999999999935 590.5416500000001L352.60549999999967 607.6923000000002L352.75350000000003 637.8133500000001L344.69349999999963 661.02125L333.17699999999945 674.9634500000002L334.4819999999993 705.0679500000001L310.27349999999956 708.20235L281.88049999999976 696.56735L294.2094999999995 668.295L323.9574999999991 637.0196000000001L324.4464999999991 618.5999000000002L317.10199999999986 601.65445L291.28999999999905 577.1607500000002z">
      <title id="t45-5">Deuxième circonscription des Bouches-du-Rhône</title>
      <desc id="d45-3">7e arrondissement municipal</desc>
    </path><path class="circo" id="id-013-03" d="M336.66099999999915 506.8760500000002L335.7779999999991 513.7346500000001L349.4229999999993 516.89165L350.0135 516.7981L371.6724999999997 519.4104000000002L394.42049999999995 524.2952500000001L414.77449999999976 508.6432000000002L434.6965 513.19155L443.65549999999985 505.2674000000002L428.66449999999986 482.83360000000016L425.13149999999996 465.64234999999996L439.8604999999998 438.1575000000001L419.1044999999997 392.41635L409.2444999999998 386.66134999999997L389.6894999999995 398.7031000000002L377.6249999999993 407.08290000000005L347.4384999999995 418.70869999999996L353.0099999999993 421.27560000000017L351.0604999999998 427.12625L332.9819999999995 443.17080000000004L329.7735 462.10645L341.42799999999966 470.14370000000014L342.34699999999975 474.9848L350.1819999999998 478.83595000000014L356.7439999999999 483.1836000000001L363.32649999999944 488.3311500000002L364.1954999999996 491.6752500000001L351.7484999999999 498.63190000000003L347.6724999999999 507.06455000000005L340.6254999999999 504.2186000000001L336.66099999999915 506.8760500000002z">
      <title id="t46-4">Troisième circonscription des Bouches-du-Rhône</title>
      <desc id="d46-6">Partie du 12e arrondissement municipal non comprise dans la 1re circonscription</desc>
    </path><path class="circo" id="id-013-04" d="M344.15649999999914 545.2728000000002L349.24949999999967 538.3688000000001L345.9839999999997 529.2586L349.4229999999993 516.89165L321.712 510.41934999999995L318.578 516.3379500000002L300.157999999999 484.44365000000005L288.279 481.88289999999995L307.0864999999992 512.5487L310.87549999999965 530.7827500000002L307.906999999999 549.1752500000001L308.62799999999993 554.3347500000002L324.32249999999954 554.6486500000001L329.1969999999992 552.9839000000002L329.76299999999924 559.0337999999999L334.623499999999 557.2608500000001L346.7504999999994 561.7638999999999L344.15649999999914 545.2728000000002z">
      <title id="t47-3">Quatrième circonscription des Bouches-du-Rhône</title>
      <desc id="d47-6">1er arrondissement municipal</desc>
    </path><path class="circo" id="id-013-05" d="M344.15649999999914 545.2728000000002L349.24949999999967 538.3688000000001L345.9839999999997 529.2586L349.4229999999993 516.89165L350.0135 516.7981L371.6724999999997 519.4104000000002L369.67449999999985 553.4096999999999L365.797 562.54105L366.31849999999986 564.6326000000001L347.83399999999915 572.6805000000002L343.71849999999995 575.5204500000002L324.5794999999998 582.4893L322.4365 561.7456000000002L320.9769999999992 557.11885L324.32249999999954 554.6486500000001L329.1969999999992 552.9839000000002L329.76299999999924 559.0337999999999L334.623499999999 557.2608500000001L341.34649999999965 559.7357L346.7504999999994 561.7638999999999L344.15649999999914 545.2728000000002z">
      <title id="t48-3">Cinquième circonscription des Bouches-du-Rhône</title>
      <desc id="d48-6">4e arrondissement municipal</desc>
    </path><path class="circo" id="id-013-06" d="M433.30749999999966 704.0069500000002L422.0105000000001 706.9798000000001L420.5469999999991 712.9529L397.10399999999936 707.6166499999999L388.0144999999993 712.7355500000001L353.93049999999903 700.1786000000002L334.4819999999993 705.0679500000001L333.17699999999945 674.9634500000002L344.69349999999963 661.02125L352.75350000000003 637.8133500000001L352.60549999999967 607.6923000000002L357.95999999999935 590.5416500000001L343.71849999999995 575.5204500000002L347.83399999999915 572.6805000000002L366.31849999999986 564.6326000000001L368.14300000000003 571.5622999999999L391.58500000000004 569.2306000000002L401.7364999999995 582.6115000000002L412.2169999999994 576.9451000000001L416.98549999999955 587.2581L428.94849999999906 589.6619499999999L427.47799999999984 595.58965L428.1009999999992 605.5206499999999L432.6879999999994 612.58915L425.18299999999954 620.77145L448.5444999999993 627.3042499999999L466.05099999999993 623.0998L467.5109999999995 611.78045L475.87099999999964 603.6435500000002L503.17999999999984 610.2351000000001L511.63599999999974 643.9024500000003L517.3509999999999 653.89545L514.931499999999 659.4277L502.9755 661.01055L495.86149999999975 669.7980000000001L508.25849999999946 697.0156L499.50699999999983 725.6243499999999L498.0079999999998 719.6697L479.7659999999996 720.1645500000001L433.30749999999966 704.0069500000002z">
      <title id="t49-5">Sixième circonscription des Bouches-du-Rhône</title>
      <desc id="d49-4">9e arrondissement municipal</desc>
    </path><path class="circo" id="id-013-07" d="M273.49849999999947 472.4105L275.7689999999991 462.5095000000002L247.200499999999 440.80145000000016L234.98449999999934 439.22155000000004L207.12549999999965 451.20660000000015L202.75699999999915 429.2783L208.47899999999981 413.57935L202.69499999999994 403.89730000000014L230.06649999999922 392.25480000000005L254.50600000000009 418.80089999999996L271.2984999999992 419.8225500000001L277.86149999999907 410.8524L298.93550000000005 410.5432000000002L294.5079999999996 400.3086000000002L321.5809999999999 389.54004999999995L328.81399999999985 398.05120000000016L329.91699999999923 421.38575000000003L347.4384999999995 418.70869999999996L353.0099999999993 421.27560000000017L351.0604999999998 427.12625L332.9819999999995 443.17080000000004L329.7735 462.10645L341.42799999999966 470.14370000000014L342.34699999999975 474.9848L350.1819999999998 478.83595000000014L356.7439999999999 483.1836000000001L363.32649999999944 488.3311500000002L364.1954999999996 491.6752500000001L351.7484999999999 498.63190000000003L347.6724999999999 507.06455000000005L340.6254999999999 504.2186000000001L336.66099999999915 506.8760500000002L335.7779999999991 513.7346500000001L321.712 510.41934999999995L318.578 516.3379500000002L300.157999999999 484.44365000000005L288.279 481.88289999999995L278.27499999999986 476.21939999999995L273.49849999999947 472.4105z">
      <title id="t50-0">Septième circonscription des Bouches-du-Rhône</title>
      <desc id="d50-5">Partie du 14e arrondissement municipal non comprise dans la 3e circonscription</desc>
    </path><path class="circo" id="id-013-08" d="M397.118999999999 266.64150000000006L393.6439999999993 273.7190000000001L389.8619999999994 273.95250000000004L380.1310000000001 258.51349999999996L375.46499999999924 244.9785L377.32099999999946 241.6055L376.75199999999904 237.5125L371.6384999999991 234.30499999999995L353.0639999999994 233.3540000000002L347.2874999999999 235.54050000000018L342.19049999999925 229.1195000000002L340.89849999999956 223.1020000000001L336.48849999999925 216.42799999999994L340.334499999999 215.7770000000002L344.43649999999934 209.0685000000002L349.96099999999956 214.11100000000005L353.7549999999999 215.0815L351.5305000000001 207.3735000000002L347.3604999999998 202.9985000000002L345.70299999999975 195.24500000000018L343.6474999999996 195.36050000000017L334.0659999999991 187.60750000000002L329.9969999999996 186.97000000000003L322.2939999999994 180.1170000000002L308.3324999999991 167.64350000000007L313.8774999999998 156.4625000000001L327.1539999999993 162.3705000000001L351.99299999999994 147.17900000000014L358.060999999999 141.4825000000002L372.2034999999994 141.54600000000016L375.2329999999995 139.01900000000012L376.3524999999993 140.73700000000002L380.7089999999994 137.5215L385.882499999999 135.70400000000006L390.9465 137.76250000000005L392.8989999999999 145.27000000000015L402.0155 149.3870000000001L404.65100000000007 154.73299999999995L404.1229999999996 156.8765000000002L404.78849999999966 166.38000000000005L406.60699999999906 167.2920000000002L418.2904999999994 164.68000000000018L426.5549999999996 173.48749999999995L429.76749999999925 185.23650000000004L433.7164999999993 186.15250000000003L437.2325000000001 184.16600000000017L435.1814999999999 195.35500000000013L434.06099999999924 198.67649999999998L435.87699999999927 201.6070000000002L439.8494999999991 205.6865000000002L445.50749999999994 205.44350000000009L456.584499999999 210.67149999999998L466.28649999999993 217.82550000000015L472.3104999999998 218.8545000000002L473.71350000000007 226.7180000000002L475.2564999999993 228.06749999999994L469.21499999999924 238.04450000000003L457.52449999999953 240.5325000000002L452.16099999999983 237.87000000000006L451.1579999999992 241.8395000000001L441.70999999999935 252.00800000000015L442.5969999999995 257.73950000000013L436.90200000000004 259.1990000000001L433.4064999999998 263.9010000000002L422.0939999999996 261.5765000000002L419.97549999999933 256.75600000000003L413.3285000000001 254.5180000000002L397.118999999999 266.64150000000006z">
      <title id="t51">Huitième circonscription des Bouches-du-Rhône</title>
      <desc id="d51">Cantons de : Berre-l'Etang, Pélissanne, Salon-de-Provence</desc>
    </path><path class="circo" id="id-013-09" d="M545.1909999999998 387.6820000000001L545.782999999999 385.2005L542.2519999999997 381.0005000000001L542.0839999999998 377.2125L545.5994999999996 373.0000000000001L547.4739999999997 373.3385000000001L552.5164999999993 367.115L549.3394999999998 354.212L560.2424999999994 345.41349999999994L567.8609999999992 345.7930000000002L586.2419999999997 352.41900000000015L591.9414999999992 352.9185000000001L596.9884999999999 350.2110000000002L602.0524999999998 352.81049999999993L608.1155000000001 356.39100000000013L611.5414999999996 355.0030000000001L616.8784999999991 355.2215000000001L620.8389999999997 358.76900000000006L635.9529999999995 356.19850000000014L640.3719999999998 365.231L646.4904999999999 373.2080000000002L651.335499999999 376.64150000000006L650.5424999999991 385.40400000000005L640.9044999999992 388.46599999999995L625.1654999999994 397.1870000000001L626.5629999999999 400.3960000000001L617.174 404.0130000000002L615.4594999999995 414.9370000000002L614.4279999999992 430.146L612.6934999999992 436.7760000000001L601.715999999999 431.6575L591.7514999999992 433.10750000000013L587.6089999999999 437.47000000000014L586.6249999999991 443.37999999999994L584.1769999999997 446.62350000000004L569.5740000000001 439.51400000000007L563.2539999999995 431.46649999999994L560.6579999999997 428.30749999999995L559.7825 420.27199999999993L556.271999999999 418.2015000000001L546.9579999999996 420.8510000000001L543.9739999999995 425.9140000000002L546.8734999999992 416.4350000000002L542.7659999999992 407.4170000000001L545.1229999999998 404.5055000000002L549.084499999999 403.981L549.8859999999991 402.14799999999997L547.9924999999992 398.83700000000005L545.1909999999998 387.6820000000001z">
      <title id="t52">Neuvième circonscription des Bouches-du-Rhône</title>
      <desc id="d52">Cantons de : Aubagne Est, Aubagne Ouest, La Ciotat</desc>
    </path><path class="circo" id="id-013-10" d="M526.5319999999997 255.78699999999998L521.5454999999997 261.70500000000004L514.9029999999993 266.0315L511.421499999999 264.81150000000014L500.0725 266.618L491.84699999999907 271.6645L493.61850000000004 287.09400000000016L486.4644999999996 296.1745000000002L488.34299999999985 299.3275L494.0485000000001 298.24250000000006L496.33249999999975 307.5480000000002L501.1444999999992 313.365L507.5879999999995 317.595L514.067 313.605L517.3339999999996 315.51199999999994L524.2109999999991 330.66750000000013L519.3309999999997 339.77400000000017L520.5014999999992 345.46999999999997L525.4684999999995 352.903L529.0634999999997 357.7370000000002L538.7144999999998 357.37449999999995L545.488499999999 353.72600000000006L549.3394999999998 354.212L560.2424999999994 345.41349999999994L567.8609999999992 345.7930000000002L586.2419999999997 352.41900000000015L591.9414999999992 352.9185000000001L596.9884999999999 350.2110000000002L602.0524999999998 352.81049999999993L608.1155000000001 356.39100000000013L611.5414999999996 355.0030000000001L617.4054999999998 353.5775000000001L620.376 348.34149999999994L619.6084999999994 342.388L626.1889999999994 334.7855000000001L622.1714999999995 328.0540000000002L620.0889999999993 313.86650000000003L617.3320000000001 308.381L615.9204999999997 306.9900000000001L612.0704999999998 307.8805L602.0999999999992 307.61750000000006L598.75 305.49350000000004L594.1094999999996 302.22049999999996L586.5904999999998 300.9325000000001L584.094 289.3885L576.8205 282.89950000000005L566.4994999999999 288.5310000000001L564.6004999999991 288.0000000000001L560.1819999999998 284.0425000000002L552.174 284.40050000000014L538.0049999999994 270.87350000000015L553.5419999999999 259.35550000000006L555.3419999999994 246.76749999999998L553.1129999999996 246.13650000000007L541.6819999999996 243.95100000000014L535.9579999999994 245.1090000000002L530.9359999999992 241.9905L527.5069999999994 242.38400000000013L524.6769999999992 247.33800000000002L524.8775 251.04150000000004L527.2699999999998 254.0225000000001L526.5319999999997 255.78699999999998z">
      <title id="t53">Dixième circonscription des Bouches-du-Rhône</title>
      <desc id="d53">Cantons de : Allauch, Gardanne, Roquevaire, Commune de Meyreuil</desc>
    </path><path class="circo" id="id-013-11" d="M434.06099999999924 198.67649999999998L435.87699999999927 201.6070000000002L439.8494999999991 205.6865000000002L445.50749999999994 205.44350000000009L456.584499999999 210.67149999999998L466.28649999999993 217.82550000000015L472.3104999999998 218.8545000000002L473.71350000000007 226.7180000000002L475.2564999999993 228.06749999999994L469.21499999999924 238.04450000000003L457.52449999999953 240.5325000000002L452.16099999999983 237.87000000000006L451.1579999999992 241.8395000000001L441.70999999999935 252.00800000000015L442.5969999999995 257.73950000000013L450.0969999999995 265.0845000000001L450.3559999999993 269.01849999999996L453.99749999999926 273.29350000000005L455.06849999999986 280.90750000000014L459.24049999999966 289.43299999999994L453.42449999999985 289.452L451.7369999999994 295.1495L443.989499999999 296.8470000000002L442.8094999999996 304.68950000000007L439.80299999999943 307.26200000000006L442.44899999999916 313.0555000000001L445.63099999999963 319.31600000000003L454.69999999999914 315.4585L462.7974999999992 324.25399999999996L468.36149999999975 324.5925L470.5359999999996 321.62049999999994L477.5184999999999 321.5180000000001L476.0514999999998 318.12700000000007L485.02149999999915 314.55900000000014L487.417999999999 317.37899999999996L487.7834999999993 325.1105000000001L493.5889999999995 324.22349999999994L503.5904999999991 320.37149999999997L507.5879999999995 317.595L501.1444999999992 313.365L496.33249999999975 307.5480000000002L494.0485000000001 298.24250000000006L488.34299999999985 299.3275L486.4644999999996 296.1745000000002L493.61850000000004 287.09400000000016L491.84699999999907 271.6645L500.0725 266.618L511.421499999999 264.81150000000014L514.9029999999993 266.0315L521.5454999999997 261.70500000000004L526.5319999999997 255.78699999999998L527.2699999999998 254.0225000000001L524.8775 251.04150000000004L524.6769999999992 247.33800000000002L525.8109999999999 245.3725L522.3984999999993 244.97050000000002L520.6399999999996 243.74449999999996L520.6869999999992 243.08400000000006L520.3069999999991 240.88700000000017L518.6354999999992 239.81300000000005L517.4079999999992 237.2275000000002L516.5949999999998 236.25100000000003L515.1594999999998 235.702L513.7244999999996 235.62749999999994L511.8324999999993 240.58300000000003L507.20899999999915 242.32249999999993L508.54150000000004 240.29300000000006L508.442 234.7L512.4279999999999 229.83650000000011L513.7014999999997 231.4795000000001L516.6004999999996 229.89300000000014L516.0799999999995 221.22050000000002L520.3794999999991 224.2165L520.3744999999992 221.74049999999994L527.1539999999993 205.76549999999997L524.8074999999994 204.60300000000018L524.9419999999998 199.87750000000005L522.8649999999993 199.39300000000003L518.3494999999994 202.70900000000012L510.778499999999 203.7960000000001L505.55799999999977 206.84600000000017L498.0359999999996 206.23400000000004L496.4154999999994 210.84550000000007L493.4674999999993 206.6455000000002L484.96149999999943 205.52850000000007L482.89699999999925 202.05150000000003L483.75099999999975 199.15850000000006L474.92399999999975 190.48000000000002L471.8885 192.00500000000005L469.307 194.93400000000008L463.90699999999924 192.94150000000002L458.922 196.00600000000014L447.038 197.06999999999994L435.1814999999999 195.35500000000013L434.06099999999924 198.67649999999998z">
      <title id="t54">Onzième circonscription des Bouches-du-Rhône</title>
      <desc id="d54">Cantons de : Aix-en-Provence Nord-Est (partie comprenant la portion de territoire de la commune d'Aix-en-Provence délimitée, au nord, par la voie ferrée entre le passage à niveau de la Calade et la limite de la commune de Venelles, à l'est, par la limite de la commune de Venelles, l'autoroute A 51, la route de Sisteron, l'ancienne route des Alpes jusqu'à la limite du canton d'Aix-en-Provence Centre, au sud, par la limite du canton d'Aix-en-Provence Centre, à l'ouest, par la limite du canton d'Aix-en-Provence Sud-Ouest), Aix-en-Provence Sud-Ouest (moins la commune de Meyreuil), Les Pennes-Mirabeau</desc>
    </path><path class="circo" id="id-013-12" d="M350.15649999999937 278.26099999999997L350.2684999999997 282.64849999999996L353.21649999999977 294.8240000000001L352.6954999999998 305.1910000000001L358.10699999999997 308.0475000000001L368.1835000000001 307.2540000000001L371.01049999999987 314.76699999999994L369.6774999999991 318.579L370.9915000000001 330.1060000000001L370.60949999999934 339.76349999999996L364.8185000000001 347.51900000000006L368.3884999999998 349.417L384.67649999999935 349.45600000000013L390.171499999999 351.04600000000005L397.7114999999992 350.2275L402.2735 347.0305000000002L405.74949999999944 347.54700000000014L422.4784999999997 350.00400000000013L428.02099999999996 347.9945000000001L436.8139999999994 344.1070000000002L447.1799999999996 335.1755L445.73249999999916 327.90999999999997L447.6284999999996 322.70849999999996L445.71199999999976 319.50050000000005L442.5299999999993 313.2400000000001L439.88399999999956 307.44650000000007L442.89049999999975 304.8740000000001L444.07049999999913 297.03149999999994L451.81799999999953 295.334L453.5055 289.6365L459.3214999999998 289.61749999999995L455.1495 281.09200000000016L454.0784999999994 273.47800000000007L450.43699999999944 269.203L450.17799999999966 265.2690000000001L442.67799999999966 257.92400000000015L436.98299999999904 259.38350000000014L433.48749999999995 264.0855000000002L422.1749999999997 261.7610000000002L420.095 257.0305000000002L413.4055000000001 254.76150000000018L397.3464999999999 266.87250000000006L393.71399999999994 273.96600000000007L389.700499999999 273.9345L380.41399999999953 259.18149999999997L375.43849999999907 245.0370000000001L377.3955000000001 241.8550000000002L376.6924999999992 237.70250000000004L371.85749999999985 234.55849999999998L353.2349999999997 233.6145000000002L347.3299999999995 235.7140000000001L342.35649999999964 229.63449999999995L341.0399999999993 223.67549999999994L336.56549999999925 216.67200000000008L333.24449999999956 216.87000000000012L333.9689999999996 233.25950000000006L328.52199999999925 241.6330000000002L326.815499999999 247.5815L328.6824999999999 259.734L327.6274999999998 263.96900000000016L329.64200000000005 267.054L344.20349999999985 267.0615000000001L347.6405 269.1075000000001L349.93999999999915 272.60050000000007L350.02449999999953 275.51800000000014z">
      <title id="t55">Douzième circonscription des Bouches-du-Rhône</title>
      <desc id="d55">Cantons de : Châteauneuf-Côte-Bleue, Marignane, Vitrolles</desc>
    </path><path class="circo" id="id-013-13" d="M350.33950000000004 350.762L342.6585 348.3435L334.1714999999999 341.1255L337.8989999999999 334.0945000000002L333.89799999999923 332.5140000000002L326.8279999999993 319.5795000000001L321.5599999999995 311.79400000000015L327.52849999999967 308.2555000000002L325.2284999999995 305.8545000000001L320.49049999999966 305.4925L320.0049999999999 309.16500000000013L316.77549999999997 306.99900000000014L315.329999999999 295.10050000000007L312.4434999999994 292.36400000000003L298.1155000000001 288.32750000000004L288.57349999999997 292.27599999999995L288.34049999999934 296.9470000000001L280.13399999999933 301.79249999999996L278.70649999999955 300.0370000000001L282.2799999999995 294.0935000000002L286.3945000000001 291.2435000000002L279.38499999999976 292.054L277.8049999999996 296.6930000000002L272.970499999999 288.58300000000014L271.11749999999915 289.0285L268.20749999999975 282.43899999999996L268.3749999999998 275.3045L264.14549999999963 277.9125000000002L275.2544999999998 300.6915000000001L270.2499999999998 305.1260000000002L254.66299999999933 290.2430000000001L252.12049999999977 293.99699999999996L267.26 307.1455L265.04999999999995 308.7880000000001L259.6124999999995 305.78599999999994L257.76399999999967 309.4965000000002L264.8174999999992 312.0090000000002L263.6474999999996 320.09649999999993L256.1399999999992 321.64150000000006L270.13649999999984 325.5325000000002L277.1899999999994 332.95450000000017L290.45349999999985 321.1065000000002L290.2175 315.6910000000002L292.28700000000003 321.3930000000002L267.9849999999999 344.1640000000001L266.39799999999923 350.60900000000004L262.23749999999995 350.65349999999995L257.20249999999965 341.6500000000002L255.83699999999908 327.269L222.72249999999985 302.40049999999997L214.44799999999987 290.50100000000015L220.7734999999991 273.0685L226.98149999999941 264.73299999999995L230.51649999999995 262.5935000000001L242.54950000000008 262.3400000000001L248.92849999999953 267.03000000000003L252.59799999999927 265.25949999999995L258.3459999999991 271.27399999999994L265.81699999999955 268.40900000000005L274.6049999999991 252.55600000000015L290.85849999999937 244.36800000000005L296.8229999999994 243.10599999999994L308.4899999999993 257.7680000000001L312.0399999999995 255.45749999999998L314.5684999999992 242.49449999999996L321.9634999999994 240.45850000000002L318.8459999999998 231.91550000000007L321.6769999999997 227.99000000000007L325.71449999999913 232.05700000000007L327.05299999999966 220.28400000000005L324.0184999999997 218.81850000000014L320.0669999999991 212.93200000000013L324.541999999999 204.88L328.9319999999998 210.9560000000002L328.90699999999924 218.80950000000013L331.2934999999993 216.38499999999993L333.28149999999937 216.789L333.7394999999992 233.12250000000006L328.36149999999975 241.62599999999998L326.64999999999964 247.59450000000015L328.56949999999983 259.7965000000002L327.4084999999991 263.76300000000015L329.6924999999999 267.11550000000017L344.0674999999999 266.86300000000017L347.5999999999999 268.9840000000001L349.74199999999996 272.465L350.19000000000005 282.72999999999996L353.1344999999999 294.84250000000003L352.61799999999994 305.01800000000003L357.8329999999994 307.81350000000003L368.10249999999996 307.06950000000006L370.92949999999973 314.5825000000002L369.5965000000001 318.3945L370.91049999999996 329.9215000000001L370.5284999999992 339.57899999999995L364.73749999999995 347.33450000000005L361.7705000000001 350.18400000000014L355.93549999999937 348.32099999999997L350.33950000000004 350.762z">
      <title id="t56">Treizième circonscription des Bouches-du-Rhône</title>
      <desc id="d56">Cantons de : Istres Sud, Martigues Est, Martigues Ouest, Port-Saint-Louis-du-Rhône</desc>
    </path><path class="circo" id="id-013-14" d="M517.4079999999992 237.2275000000002L516.5949999999998 236.25100000000003L515.1594999999998 235.702L513.7244999999996 235.62749999999994L511.8324999999993 240.58300000000003L507.20899999999915 242.32249999999993L508.54150000000004 240.29300000000006L508.442 234.7L512.4279999999999 229.83650000000011L513.7014999999997 231.4795000000001L516.6004999999996 229.89300000000014L516.0799999999995 221.22050000000002L520.3794999999991 224.2165L520.3744999999992 221.74049999999994L527.1539999999993 205.76549999999997L524.8074999999994 204.60300000000018L524.9419999999998 199.87750000000005L522.8649999999993 199.39300000000003L518.3494999999994 202.70900000000012L510.778499999999 203.7960000000001L505.55799999999977 206.84600000000017L498.0359999999996 206.23400000000004L496.4154999999994 210.84550000000007L493.4674999999993 206.6455000000002L484.96149999999943 205.52850000000007L482.89699999999925 202.05150000000003L483.75099999999975 199.15850000000006L474.92399999999975 190.48000000000002L478.80499999999984 188.8255000000001L482.83050000000003 179.92099999999994L482.41199999999935 176.1190000000002L501.9284999999991 177.39900000000006L494.4079999999997 161.53750000000002L496.3869999999997 155.8545000000001L495.58349999999905 146.0080000000002L499.002999999999 144.66800000000006L502.54699999999957 136.13650000000007L516.3934999999992 143.6700000000002L534.579 150.98450000000014L552.6109999999994 155.92950000000002L560.8214999999996 155.62299999999993L570.9354999999994 154.31250000000006L585.0974999999994 156.24950000000013L592.2834999999998 151.8655000000001L599.751 148.43350000000015L606.4369999999997 140.52700000000016L613.22 135.788L617.346 136.18750000000006L629.7584999999992 137.47050000000002L640.7475 122.2365000000002L647.449499999999 117.49300000000005L655.4409999999996 118.92799999999994L660.3809999999999 122.34800000000007L660.0344999999993 128.3080000000001L662.3169999999993 133.89849999999996L672.7789999999993 138.4050000000002L669.0959999999995 143.39050000000015L666.810999999999 155.51900000000018L654.4354999999996 155.20800000000008L632.7109999999993 161.447L628.8734999999997 166.25400000000013L624.9019999999996 165.74150000000003L616.5224999999998 184.32150000000007L620.2299999999991 198.11700000000002L619.3669999999997 199.97299999999996L606.3374999999996 205.21350000000012L611.6054999999994 211.4545000000001L621.1144999999999 212.21699999999998L627.4914999999999 216.3855000000001L631.8144999999993 219.33750000000003L635.3039999999999 219.29450000000003L632.2269999999992 228.77399999999994L630.7155 248.6345L626.0149999999999 252.07549999999998L624.1384999999991 259.7895L629.0084999999999 261.6545000000002L636.2135000000001 268.63100000000003L646.566499999999 287.83800000000014L656.0979999999995 295.27450000000016L661.9894999999997 295.9515000000002L662.1965 296.03800000000007L661.268 299.7555L658.1869999999992 302.00050000000005L645.8954999999992 307.0085L634.2504999999994 302.93800000000005L626.0339999999997 303.2185000000001L617.3320000000001 308.381L615.9204999999997 306.9900000000001L612.0704999999998 307.8805L602.0999999999992 307.61750000000006L598.75 305.49350000000004L594.1094999999996 302.22049999999996L586.5904999999998 300.9325000000001L584.094 289.3885L576.8205 282.89950000000005L566.4994999999999 288.5310000000001L564.6004999999991 288.0000000000001L560.1819999999998 284.0425000000002L552.174 284.40050000000014L538.0049999999994 270.87350000000015L553.5419999999999 259.35550000000006L555.3419999999994 246.76749999999998L553.1129999999996 246.13650000000007L541.6819999999996 243.95100000000014L535.9579999999994 245.1090000000002L530.9359999999992 241.9905L527.5069999999994 242.38400000000013L525.8109999999999 245.3725L522.3984999999993 244.97050000000002L520.6399999999996 243.74449999999996L520.6869999999992 243.08400000000006L518.6354999999992 239.81300000000005L517.4079999999992 237.2275000000002z">
      <title id="t57">Quatorzième circonscription des Bouches-du-Rhône</title>
      <desc id="d57">Cantons de : Aix-en-Provence Centre, Aix-en-Provence Nord-Est (partie non comprise dans la 11e circonscription), Peyrolles-en-Provence, Trets</desc>
    </path><path class="circo" id="id-013-15" d="M211.8304999999998 34.28449999999998L211.87599999999975 26.393500000000074L207.038 22.652000000000214L203.59849999999938 15.367999999999995L201.6059999999993 15.755000000000052L201.94999999999936 14.53550000000007L209.23450000000003 10.669500000000198L214.72599999999943 4.4599999999999795L216.23649999999998 0L230.9145000000001 2.612000000000023L246.80049999999937 5.777999999999963L265.42949999999905 7.831500000000062L276.7049999999995 13.277000000000214L285.88949999999954 21.47199999999998L293.99149999999963 22.008500000000026L297.6019999999994 23.419000000000096L314.24099999999953 32.04250000000002L323.52649999999926 43.25500000000005L326.14049999999907 46.710999999999956L338.92049999999927 56.299000000000206L342.16499999999996 61.27200000000016L345.2544999999998 69.30550000000011L347.59849999999915 79.18300000000016L365.67199999999957 89.55200000000019L379.74849999999947 97.41450000000015L386.1254999999994 100.9190000000001L406.3024999999993 111.09100000000012L427.6024999999993 104.05300000000011L431.50199999999927 104.24900000000008L439.3859999999995 105.95799999999997L448.85799999999904 108.36600000000004L461.1449999999991 110.46800000000019L465.6569999999999 114.77850000000018L473.214999999999 120.93250000000012L484.62049999999977 126.56800000000004L492.097 130.68399999999997L502.54699999999957 136.13650000000007L499.002999999999 144.66800000000006L495.58349999999905 146.0080000000002L496.3869999999997 155.8545000000001L494.4079999999997 161.53750000000002L501.9284999999991 177.39900000000006L482.41199999999935 176.1190000000002L482.83050000000003 179.92099999999994L478.80499999999984 188.8255000000001L471.8885 192.00500000000005L469.307 194.93400000000008L463.90699999999924 192.94150000000002L458.922 196.00600000000014L447.038 197.06999999999994L435.1814999999999 195.35500000000013L437.2325000000001 184.16600000000017L433.7164999999993 186.15250000000003L429.76749999999925 185.23650000000004L426.5549999999996 173.48749999999995L418.2904999999994 164.68000000000018L406.60699999999906 167.2920000000002L404.78849999999966 166.38000000000005L404.1229999999996 156.8765000000002L404.65100000000007 154.73299999999995L402.0155 149.3870000000001L392.8989999999999 145.27000000000015L390.9465 137.76250000000005L385.882499999999 135.70400000000006L380.7089999999994 137.5215L376.3524999999993 140.73700000000002L375.2329999999995 139.01900000000012L372.2034999999994 141.54600000000016L358.060999999999 141.4825000000002L351.99299999999994 147.17900000000014L327.1539999999993 162.3705000000001L313.8774999999998 156.4625000000001L319.6600000000001 143.5345000000001L319.10499999999956 123.35550000000012L312.1259999999995 119.9890000000002L311.8655000000001 154.72000000000008L300.5525 150.20399999999995L297.7629999999999 140.5510000000001L295.85699999999974 139.79550000000017L298.15099999999916 147.75949999999995L290.21999999999935 149.4595000000001L284.1039999999998 148.71399999999994L274.6129999999994 144.68350000000015L252.11199999999963 143.78350000000012L242.4039999999991 144.4380000000001L238.79899999999907 143.0495000000002L232.56449999999973 141.34749999999997L224.93949999999927 136.27250000000004L224.5539999999994 134.4120000000001L221.66499999999928 122.4675000000002L228.03699999999935 114.86099999999993L230.86199999999963 104.83800000000002L229.52199999999948 96.55699999999996L230.59999999999945 83.51200000000006L228.34299999999985 75.35300000000007L227.05150000000003 74.03600000000012L220.95550000000003 62.84700000000015L219.6404999999993 64.02100000000019L213.25150000000008 61.436000000000206L216.59349999999904 54.32450000000017L217.28250000000003 48.47350000000006L214.2840000000001 39.13499999999999L211.8304999999998 34.28449999999998z">
      <title id="t58">Quinzième circonscription des Bouches-du-Rhône</title>
      <desc id="d58">Cantons de : Châteaurenard, Eyguières, Lambesc, Orgon, Saint-Rémy-de-Provence</desc>
    </path><path class="circo" id="id-013-16" d="M247.72849999999949 343.4805L229.94499999999903 337.628L211.20249999999942 337.03750000000014L184.25749999999994 339.2070000000001L153.74499999999898 332.93800000000005L143.28249999999912 326.1420000000001L139.21799999999962 319.0270000000001L140.93799999999987 315.32550000000015L155.96000000000004 304.43700000000007L151.7165 292.64200000000017L146.4504999999997 286.19500000000016L137.60549999999967 280.6945000000002L123.6685 276.32900000000006L94.49700000000007 275.45050000000003L82.79349999999909 279.3455L72.41699999999923 280.18100000000004L62.51299999999901 277.12500000000006L0 272.66999999999996L0.5669999999997799 260.52250000000015L3.8564999999994143 253.02050000000008L3.251500000000078 251.05999999999995L5.92899999999986 248.49250000000012L26.7674999999997 240.93500000000006L38.51099999999974 233.15550000000002L33.5349999999994 222.22100000000012L37.5019999999995 215.74849999999998L39.0199999999993 219.0195L36.332499999999754 221.8870000000001L37.00049999999919 223.76100000000008L43.410499999999956 228.41200000000015L50.235999999999876 224.57600000000014L52.43249999999989 221.56949999999995L60.303499999999985 220.36L67.62099999999919 213.58599999999996L75.59699999999907 213.41650000000016L78.31749999999943 208.3450000000002L75.07249999999999 205.93250000000012L82.92899999999918 199.64349999999996L92.91200000000003 200.42750000000012L98.00149999999917 196.89400000000006L103.66449999999986 188.37050000000005L103.42299999999909 184.36200000000014L100.23849999999925 181.77750000000003L92.53649999999993 184.68250000000012L88.50549999999998 184.04349999999994L84.25599999999918 179.44900000000018L83.57349999999997 175.54249999999996L94.0339999999992 152.93200000000013L105.13299999999958 147.95649999999995L104.63249999999903 139.76500000000016L108.8614999999993 132.64499999999998L114.7544999999991 130.762L125.12549999999919 130.4695000000001L130.69699999999898 127.83150000000006L139.9574999999993 132.3260000000002L148.11649999999986 133.75349999999997L156.37749999999983 139.79250000000008L166.55549999999948 139.572L168.53449999999953 138.94650000000013L168.58799999999974 136.86300000000017L163.21749999999952 125.668L162.35149999999976 117.41450000000015L169.08449999999903 98.02700000000016L179.1489999999999 82.34399999999994L180.26700000000005 67.74000000000001L175.39699999999925 54.21850000000006L185.47199999999975 45.31800000000004L183.30549999999903 42.243500000000154L175.58749999999918 42.49500000000012L177.1264999999994 38.87200000000007L174.9464999999998 33.37700000000012L181.29099999999994 29.37100000000015L183.1854999999996 29.554500000000132L183.66499999999974 31.40100000000018L185.98700000000008 28.122000000000185L196.9184999999993 22.91550000000001L203.59849999999938 15.367999999999995L207.038 22.652000000000214L211.87599999999975 26.393500000000074L211.8304999999998 34.28449999999998L214.2840000000001 39.13499999999999L217.28250000000003 48.47350000000006L216.59349999999904 54.32450000000017L213.25150000000008 61.436000000000206L219.6404999999993 64.02100000000019L220.95550000000003 62.84700000000015L227.05150000000003 74.03600000000012L228.34299999999985 75.35300000000007L230.59999999999945 83.51200000000006L229.52199999999948 96.55699999999996L230.86199999999963 104.83800000000002L228.03699999999935 114.86099999999993L221.66499999999928 122.4675000000002L224.5539999999994 134.4120000000001L224.93949999999927 136.27250000000004L232.56449999999973 141.34749999999997L238.79899999999907 143.0495000000002L242.4039999999991 144.4380000000001L252.11199999999963 143.78350000000012L274.6129999999994 144.68350000000015L284.1039999999998 148.71399999999994L290.21999999999935 149.4595000000001L298.15099999999916 147.75949999999995L295.85699999999974 139.79550000000017L297.7629999999999 140.5510000000001L300.5525 150.20399999999995L311.8655000000001 154.72000000000008L312.1259999999995 119.9890000000002L319.10499999999956 123.35550000000012L319.6600000000001 143.5345000000001L313.8774999999998 156.4625000000001L308.3324999999991 167.64350000000007L322.2939999999994 180.1170000000002L329.9969999999996 186.97000000000003L334.0659999999991 187.60750000000002L343.6474999999996 195.36050000000017L345.70299999999975 195.24500000000018L347.3604999999998 202.9985000000002L351.5305000000001 207.3735000000002L353.7549999999999 215.0815L349.96099999999956 214.11100000000005L344.43649999999934 209.0685000000002L340.334499999999 215.7770000000002L336.48849999999925 216.42799999999994L333.28149999999937 216.789L331.2934999999993 216.38499999999993L328.90699999999924 218.80950000000013L328.9319999999998 210.9560000000002L324.541999999999 204.88L320.0669999999991 212.93200000000013L324.0184999999997 218.81850000000014L327.05299999999966 220.28400000000005L325.71449999999913 232.05700000000007L321.6769999999997 227.99000000000007L318.8459999999998 231.91550000000007L320.5544999999995 236.9640000000001L321.9634999999994 240.45850000000002L314.5684999999992 242.49449999999996L312.0399999999995 255.45749999999998L308.4899999999993 257.7680000000001L296.8229999999994 243.10599999999994L290.85849999999937 244.36800000000005L274.6049999999991 252.55600000000015L265.81699999999955 268.40900000000005L258.3459999999991 271.27399999999994L252.59799999999927 265.25949999999995L248.92849999999953 267.03000000000003L242.54950000000008 262.3400000000001L230.51649999999995 262.5935000000001L226.98149999999941 264.73299999999995L220.7734999999991 273.0685L214.44799999999987 290.50100000000015L222.72249999999985 302.40049999999997L255.83699999999908 327.269L257.20249999999965 341.6500000000002L262.23749999999995 350.65349999999995L258.07899999999904 350.3880000000001L247.72849999999949 343.4805z">
      <title id="t59">Seizième circonscription des Bouches-du-Rhône</title>
      <desc id="d59">Cantons de : Arles Est, Arles Ouest, Istres Nord, Saintes-Maries-de-la-Mer, Tarascon</desc>
    </path></svg>