<svg xmlns="http://www.w3.org/2000/svg" version="1.1" xmlns:xlink="http://www.w3.org/1999/xlink" xmlns:svgjs="http://svgjs.dev/svgjs" width="681.73" height="439.8018499999998" fill="#eeeeee" stroke="#cccccc" xmlns:sodipodi="http://sodipodi.sourceforge.net/DTD/sodipodi-0.dtd"><path class="circo" id="id-014-01" d="M301.5304999999995 164.68214999999987L292.6204999999999 164.3719999999999L287.0319999999998 166.90034999999995L286.71249999999986 168.9273L280.87549999999965 170.68954999999988L279.3444999999997 175.89319999999987L288.38149999999985 176.63279999999986L291.86099999999954 184.6898999999999L291.8365 184.80814999999978L286.84049999999957 188.12744999999978L285.19000000000005 191.81344999999993L282.02499999999986 189.45209999999975L278.4504999999996 182.44819999999976L276.21549999999957 188.71669999999995L276.6084999999998 197.71904999999975L276.0409999999996 198.85494999999992L274.5079999999996 199.11669999999987L269.9185 200.22134999999992L258.19399999999973 188.95189999999985L257.60850000000005 189.2942499999998L245.3354999999999 186.8157499999998L242.2739999999999 193.74919999999975L231.84199999999976 190.6188499999999L224.91449999999986 198.21069999999992L217.3679999999996 199.13809999999984L215.7189999999997 198.00999999999988L219.83149999999966 191.36004999999983L227.9589999999996 181.56449999999978L227.71249999999952 180.63979999999987L224.07549999999958 178.00599999999974L213.09349999999995 176.62565L218.62599999999986 168.58859999999993L217.94799999999952 166.6597999999999L222.18999999999994 166.6682499999999L227.0659999999998 162.56974999999983L226.1194999999998 156.29874999999998L224.36699999999973 155.24394999999998L223.26799999999992 147.58015L226.61749999999984 142.06289999999996L224.90399999999966 138.06014999999974L224.98249999999985 137.73484999999994L226.68499999999995 133.85519999999985L225.44150000000002 130.04149999999981L224.83299999999986 128.7456499999999L225.76399999999978 126.88084999999973L221.9584999999995 122.3639L222.93999999999983 116.26019999999983L228.06249999999977 118.77799999999979L240.85199999999986 125.3628999999998L242.67799999999966 126.46879999999982L244.25250000000005 127.31694999999974L246.99649999999963 123.67104999999981L257.8454999999997 120.57879999999983L261.84349999999995 125.20209999999992L265.91049999999996 131.51494999999983L282.0754999999997 134.30099999999982L282.244 132.56599999999992L292.7279999999996 137.26699999999994L303.6519999999996 141.43049999999988L307.5094999999999 141.66604999999976L309.7864999999996 138.44604999999973L310.2019999999999 139.40574999999995L315.4235 132.15209999999985L324.5429999999999 130.61489999999992L332.2909999999996 137.57214999999974L333.74199999999973 139.83454999999992L339.17899999999975 141.5397999999999L334.4454999999999 143.4421999999998L333.6514999999997 149.4301999999999L335.56600000000003 155.27769999999975L338.519 159.67694999999992L341.653 160.74189999999987L342.95950000000005 159.51569999999975L349.66700000000003 159.95295L351.506 165.6636499999999L347.4604999999997 164.72339999999974L345.29200000000003 165.6394499999999L349.2519999999996 171.37074999999982L347.42099999999994 172.47769999999974L347.89199999999994 178.80334999999974L346.38800000000003 180.3350499999999L343.48599999999976 174.73304999999982L341.7644999999999 169.53804999999988L335.908 171.64634999999976L336.50149999999996 175.05415L339.60549999999955 176.45404999999982L336.82050000000004 194.8793999999998L331.91749999999956 195.26459999999986L327.76099999999985 195.79394999999977L328.04449999999974 193.68944999999997L322.3449999999997 188.42239999999975L322.038 190.5051499999999L315.3664999999995 187.33289999999982L318.81399999999985 181.96214999999995L312.6155 175.88604999999973L308.65250000000003 176.08749999999986L307.73949999999957 171.57094999999998L301.5304999999995 164.68214999999987z">
      <title id="t60">Première circonscription du Calvados</title>
      <desc id="d60">Cantons de : Caen I, Caen II, Caen III, Caen VIII, Caen IX, Tilly-sur-Seulles</desc>
    </path><path class="circo" id="id-014-02" d="M411.5504999999996 201.45654999999977L410.85999999999956 203.25534999999974L405.2049999999997 202.46244999999988L409.05550000000005 190.16084999999975L402.54699999999957 189.20979999999986L396.71400000000006 190.96835L398.0314999999996 187.53559999999993L392.52049999999997 185.0609L385.1659999999998 189.64894999999984L379.17599999999993 187.0327499999999L377.72599999999954 188.75894999999986L374.89499999999964 183.73214999999988L370.8979999999997 182.38974999999982L359.2349999999999 178.29454999999996L357.8989999999999 185.9171999999998L359.03549999999996 186.75794999999994L358.37099999999964 191.76669999999973L352.7754999999996 197.58459999999985L342.5029999999998 197.50079999999997L336.82050000000004 194.8793999999998L339.60549999999955 176.45404999999982L336.50149999999996 175.05415L335.908 171.64634999999976L341.7644999999999 169.53804999999988L343.48599999999976 174.73304999999982L346.38800000000003 180.3350499999999L347.89199999999994 178.80334999999974L347.42099999999994 172.47769999999974L349.2519999999996 171.37074999999982L345.29200000000003 165.6394499999999L347.4604999999997 164.72339999999974L351.506 165.6636499999999L349.66700000000003 159.95295L342.95950000000005 159.51569999999975L341.653 160.74189999999987L338.519 159.67694999999992L335.56600000000003 155.27769999999975L333.6514999999997 149.4301999999999L334.4454999999999 143.4421999999998L339.17899999999975 141.5397999999999L333.74199999999973 139.83454999999992L332.2909999999996 137.57214999999974L333.4449999999998 133.54674999999986L335.42399999999986 132.8588499999998L342.8909999999996 134.34979999999996L347.0029999999997 135.77294999999992L353.40899999999976 134.67644999999976L355.5869999999999 134.2736499999998L362.57450000000006 142.7557999999999L359.4274999999999 145.67484999999976L358.0884999999995 158.98055L361.30499999999984 162.3792499999999L362.8375 161.35519999999985L366.6534999999999 156.18689999999987L375.07499999999993 156.65449999999993L378.1664999999998 149.00014999999996L381.7769999999996 152.91759999999982L387.2649999999999 154.9792499999998L394.21249999999986 144.79659999999996L396.00149999999985 138.84554999999978L400.11149999999986 140.57429999999982L403.14899999999966 146.53219999999976L406.89300000000003 144.0088L415.976 143.88649999999984L424.39899999999966 141.42854999999997L419.9464999999998 150.62689999999975L424.3554999999998 162.2628499999999L433.0529999999999 161.53464999999983L443.21249999999964 163.68739999999974L450.5914999999999 173.53844999999978L458.76800000000003 173.41039999999992L463.8349999999997 177.47569999999996L464.384 179.14974999999998L462.82299999999964 177.53809999999987L460.711 178.24644999999975L458.725 187.00609999999983L451.8164999999999 198.14249999999987L442.6925 200.68764999999985L442.0689999999996 195.65169999999995L439.0965 197.55794999999978L435.7524999999998 194.92684999999994L426.8739999999997 201.43509999999992L418.10450000000003 202.87414999999982L411.5504999999996 201.45654999999977z">
      <title id="t61">Deuxième circonscription du Calvados</title>
      <desc id="d61">Cantons de : Caen IV, Caen V, Caen VI, Caen VII, Caen X, Troarn</desc>
    </path><path class="circo" id="id-014-03" d="M320.65 238.1649999999999L318.6719999999997 237.24649999999997L316.34349999999984 228.87549999999976L311.5889999999996 224.3696L311.1374999999998 226.31049999999988L305.3139999999996 239.29884999999985L303.26300000000003 239.3889999999999L300.27949999999976 237.3126499999998L297.5815 238.31874999999997L297.19349999999963 247.14964999999978L294.1209999999995 255.65919999999977L293.95099999999957 258.95759999999996L294.5169999999996 261.7740999999998L294.36649999999986 262.99979999999977L300.21699999999953 265.6363999999999L305.5064999999996 272.3688999999999L311.65449999999964 272.2755999999998L313.78949999999975 271.75719999999984L321.0194999999999 274.9075499999998L325.4034999999999 281.8259499999999L330.7989999999995 280.87694999999997L334.8184999999995 285.58414999999997L334.1145 289.78815L341.3714999999996 293.58104999999995L357.7439999999996 290.86449999999985L362.6274999999998 306.63099999999986L363.44749999999976 310.97144999999983L361.10199999999963 317.11014999999975L349.6569999999997 315.18764999999973L346.7149999999998 318.2716499999998L345.85350000000005 326.6117L344.0999999999997 327.8387999999998L339.8789999999997 319.3424999999999L326.51399999999967 325.3605999999999L318.3699999999999 330.66159999999996L317.4199999999996 331.65764999999993L321.54049999999984 343.6383999999998L320.17849999999953 349.75539999999995L315.8209999999997 350.68299999999994L313.88049999999964 349.8129499999999L307.47349999999983 354.97934999999984L303.4264999999999 353.96334999999993L302.79200000000003 351.92019999999985L298.38449999999966 356.34304999999983L282.90599999999984 354.9845499999998L282.10999999999956 358.8887L290.1729999999998 359.70619999999997L294.62249999999983 363.1574999999998L306.8644999999998 363.67309999999975L310.394 362.1410499999999L311.4224999999999 366.0805499999998L317.53600000000006 363.8198L321.6055 370.9420499999999L329.04449999999997 378.66274999999973L336.6769999999997 377.54474999999985L337.7094999999997 377.27929999999986L339.45899999999995 380.8087999999998L335.37149999999997 382.0067499999999L335.02250000000004 386.06194999999985L344.60999999999956 394.4626499999998L345.34699999999987 394.9022499999998L352.04349999999977 386.06389999999976L351.85699999999997 382.18304999999987L349.45449999999994 379.0934999999999L352.5279999999998 371.8063999999998L361.48799999999994 371.73659999999984L365.2664999999996 377.2579999999999L371.7415 375.16789999999986L378.2419999999996 374.65889999999973L384.32199999999966 377.0286999999999L389.1969999999998 377.18244999999996L395.4069999999996 381.06584999999995L400.79999999999984 382.6989999999998L405.163 378.95789999999977L407.5959999999998 382.5091499999999L415.4539999999997 385.52729999999997L418.14599999999984 391.0960499999999L427.64899999999955 395.9260499999999L429.0854999999999 394.4626499999998L438.52949999999964 398.29814999999996L430.59699999999964 388.039L431.70349999999985 386.1239499999999L437.8589999999997 384.56519999999983L439.12149999999997 378.3772499999998L443.3449999999999 382.73775L446.7904999999996 383.42095L456.7319999999995 380.3735499999999L460.2664999999996 382.75194999999997L462.57499999999993 381.45329999999973L464.624 380.6292499999998L467.07449999999994 374.45929999999976L479.0594999999996 363.9664499999998L478.9489999999995 361.38244999999984L486.49149999999963 359.51685L489.32500000000005 362.50225L489.5274999999998 362.35494999999986L487.96149999999955 354.87724999999983L502.27149999999995 347.5270999999998L513.4609999999998 344.87199999999973L516.1435 342.75259999999975L516.8064999999996 339.3586499999998L519.2429999999996 333.55849999999975L520.1034999999996 327.49664999999993L526.4609999999999 319.83745L535.2715000000001 321.0486499999999L545.4134999999997 312.1110999999999L546.3874999999996 310.62579999999997L550.077 311.8017499999999L554.2154999999997 318.20239999999984L556.2734999999998 326.83099999999996L558.1194999999997 328.1376499999999L564.7399999999999 326.94484999999986L568.2944999999995 325.0649499999997L571.7644999999999 317.8380999999999L583.5254999999995 314.3573999999998L587.6194999999996 318.3466999999999L593.6879999999996 316.9160499999998L596.026 306.52679999999975L603.356 302.69529999999975L609.5504999999997 302.1074999999999L610.3839999999997 311.9848999999999L612.3089999999996 312.76864999999987L623.3634999999998 309.32619999999986L633.7799999999999 316.7328999999998L643.7219999999996 312.3046499999998L652.5719999999995 297.45964999999984L664.0139999999997 303.8138999999998L662.2229999999996 310.27889999999985L667.604 311.6567999999998L675.8429999999998 297.8805L673.5309999999998 288.9377999999999L676.4959999999996 277.5288999999998L681.73 267.3667999999998L672.5899999999996 258.9297499999998L666.2115 258.4098499999999L655.7649999999995 255.69934999999987L653.0854999999997 247.49919999999975L651.5614999999997 245.92269999999985L649.7584999999998 247.16714999999994L648.1174999999996 245.7514999999998L653.82 239.9831499999999L653.3029999999997 235.96209999999985L653.3384999999998 233.70839999999987L658.8819999999998 229.91104999999976L665.6059999999997 229.97529999999983L669.5004999999998 232.1293L669.151 223.02884999999975L663.0854999999997 222.32929999999982L667.0059999999995 218.14245L666.4524999999998 216.3561999999999L662.5649999999996 216.22764999999987L662.0654999999999 214.3107999999998L653.5109999999997 212.5333999999998L642.636 213.65645L641.0699999999997 212.1146999999999L633.3374999999995 215.7629L622.2219999999999 207.3927999999998L618.4350000000001 211.61089999999973L608.492 218.82719999999978L604.9234999999999 217.00069999999982L602.1535 214.68534999999974L598.5104999999999 213.24164999999994L597.2044999999997 203.98844999999994L590.7229999999998 205.20269999999982L588.9419999999996 203.91054999999994L590.1504999999997 199.66154999999986L599.203 190.5785499999999L607.5509999999997 191.52179999999987L610.7339999999999 189.69314999999995L610.12 184.20259999999985L607.2784999999999 181.58919999999995L603.2754999999997 181.9614999999999L601.594 178.50704999999977L597.278 179.45254999999975L593.1849999999997 177.9240999999999L591.9405 171.84004999999985L584.5059999999995 169.1840499999998L580.0169999999997 173.99209999999982L577.9055 174.14289999999994L575.9479999999996 170.39445L571.9094999999999 169.63779999999986L570.2474999999998 163.56844999999993L565.8069999999998 169.54679999999996L561.8474999999995 168.57234999999974L555.8144999999996 171.06459999999998L548.5514999999998 175.9659499999998L545.8239999999995 181.94074999999998L540.4004999999995 175.95364999999987L533.0424999999997 173.72175L531.1615 169.18924999999973L535.2984999999995 168.44559999999973L538.9964999999995 163.20954999999998L542.9415 162.31034999999991L544.4299999999998 158.32509999999985L544.7454999999997 158.17289999999986L549.0024999999997 157.8126499999999L558.2514999999995 152.87859999999995L556.6399999999999 144.89094999999992L553.689 143.8096999999999L549.9474999999995 139.43894999999998L545.0584999999995 135.95319999999987L542.3325 134.51309999999978L546.5594999999996 124.07724999999999L543.2669999999996 121.52734999999979L539.4169999999997 123.72964999999994L530.8329999999995 122.13669999999979L529.2845 117.97714999999982L527.8659999999996 116.40734999999978L525.7139999999998 118.5487999999998L519.443 127.25054999999998L520.2464999999995 131.1316499999998L514.1749999999996 130.35714999999982L510.46299999999974 132.10069999999973L508.82199999999955 130.68709999999982L503.0219999999997 132.16444999999993L497.2489999999999 130.3395999999998L497.3289999999997 134.77469999999983L494.12199999999984 140.5807999999999L484.10199999999975 145.0607499999998L477.10549999999955 143.26389999999975L474.7614999999996 143.92224999999996L470.0459999999998 148.00234999999986L462.01300000000003 150.33419999999978L456.5174999999999 148.26639999999998L447.7244999999999 148.15585L435.6574999999998 158.2074L432.63649999999984 159.84924999999976L433.0529999999999 161.53464999999983L443.21249999999964 163.68739999999974L450.5914999999999 173.53844999999978L458.76800000000003 173.41039999999992L463.8349999999997 177.47569999999996L464.384 179.14974999999998L462.82299999999964 177.53809999999987L460.711 178.24644999999975L458.725 187.00609999999983L451.8164999999999 198.14249999999987L442.6925 200.68764999999985L438.4164999999996 214.11929999999984L444.36199999999985 214.24589999999995L445.6144999999998 212.9170499999998L450.93399999999974 213.99854999999974L454.6969999999999 222.37144999999998L450.8164999999997 223.94909999999982L450.4109999999997 232.3317499999999L448.46900000000005 235.94589999999982L441.4889999999997 233.40219999999988L439.4659999999999 234.0775499999998L434.21299999999974 230.77789999999993L431.48949999999957 233.87579999999986L417.64899999999955 227.97424999999976L414.77149999999995 230.82329999999985L404.4209999999998 228.5342L394.0564999999998 232.65355L387.2489999999999 235.2809499999998L386.18349999999964 233.85954999999996L384.09099999999967 231.5343999999999L377.70099999999957 229.60999999999984L372.6729999999998 234.01719999999983L361.9309999999996 231.19764999999973L360.6139999999999 228.5257999999999L345.22749999999974 232.42319999999978L334.78700000000003 228.28504999999979L331.4964999999995 229.22589999999985L332.9174999999998 233.048L331.1514999999997 233.95884999999993L325.89999999999975 228.10594999999978L325.32749999999965 234.17419999999993L320.65 238.1649999999999z">
      <title id="t62">Troisième circonscription du Calvados</title>
      <desc id="d62">Cantons de : Bretteville-sur-Laize, Cambremer, Falaise Nord, Falaise Sud, Lisieux II, Lisieux III, Livarot, Mézidon-Canon, Morteaux-Couliboeuf, Orbec, Saint-Pierre-sur-Dives Commune de Lisieux (partie comprise dans le canton de Lisieux I)</desc>
    </path><path class="circo" id="id-014-04" d="M623.4805 95.68794999999994L629.1929999999996 87.14124999999996L626.4654999999999 77.3791L618.8719999999995 75.35809999999998L622.6569999999998 72.49524999999977L629.7129999999999 58.59334999999987L623.0779999999999 46.87279999999987L620.385 38.243249999999875L623.5104999999999 28.07249999999982L618.7254999999999 13.464849999999728L618.4764999999999 0L613.5374999999999 0.5462999999997464L609.262 0.7821999999998752L586.8549999999999 1.7120999999997366L570.6464999999997 9.474799999999846L555.3899999999999 14.677149999999983L548.3974999999998 17.175499999999886L536.945 26.117599999999754L524.2009999999999 41.80224999999979L522.7464999999995 40.45324999999991L516.9284999999996 48.183699999999874L514.8054999999999 50.27619999999985L505.50899999999956 57.51509999999996L498.2339999999999 63.51649999999978L486.4159999999998 71.01839999999982L474.76999999999975 75.57194999999979L464.03599999999983 80.1697999999999L455.1049999999998 86.11284999999981L452.8584999999998 85.91924999999975L432.9744999999997 91.52564999999981L420.04399999999976 93.71504999999985L404.48999999999955 93.72349999999983L396.2299999999999 96.59359999999992L384.2629999999997 91.27089999999981L373.51249999999993 89.44234999999992L369.96249999999975 88.30059999999975L350.2814999999998 107.13604999999973L347.2539999999998 105.86989999999986L342.0724999999999 118.88674999999978L334.8199999999997 128.14099999999996L333.87399999999957 131.70175L335.42399999999986 132.8588499999998L342.8909999999996 134.34979999999996L347.0029999999997 135.77294999999992L353.40899999999976 134.67644999999976L355.5869999999999 134.2736499999998L362.57450000000006 142.7557999999999L359.4274999999999 145.67484999999976L358.0884999999995 158.98055L361.30499999999984 162.3792499999999L362.8375 161.35519999999985L366.6534999999999 156.18689999999987L375.07499999999993 156.65449999999993L378.1664999999998 149.00014999999996L381.7769999999996 152.91759999999982L387.2649999999999 154.9792499999998L394.21249999999986 144.79659999999996L396.00149999999985 138.84554999999978L400.11149999999986 140.57429999999982L403.14899999999966 146.53219999999976L406.89300000000003 144.0088L415.976 143.88649999999984L424.39899999999966 141.42854999999997L419.9464999999998 150.62689999999975L424.3554999999998 162.2628499999999L433.0529999999999 161.53464999999983L432.63649999999984 159.84924999999976L435.6574999999998 158.2074L447.7244999999999 148.15585L456.5174999999999 148.26639999999998L462.01300000000003 150.33419999999978L470.0459999999998 148.00234999999986L474.7614999999996 143.92224999999996L477.10549999999955 143.26389999999975L484.10199999999975 145.0607499999998L494.12199999999984 140.5807999999999L497.3289999999997 134.77469999999983L497.2489999999999 130.3395999999998L503.0219999999997 132.16444999999993L508.82199999999955 130.68709999999982L510.46299999999974 132.10069999999973L514.1749999999996 130.35714999999982L520.2464999999995 131.1316499999998L519.443 127.25054999999998L525.7139999999998 118.5487999999998L527.8659999999996 116.40734999999978L529.2845 117.97714999999982L530.8329999999995 122.13669999999979L539.4169999999997 123.72964999999994L543.2669999999996 121.52734999999979L546.5594999999996 124.07724999999999L542.3325 134.51309999999978L545.0584999999995 135.95319999999987L549.9474999999995 139.43894999999998L553.689 143.8096999999999L556.6399999999999 144.89094999999992L558.2514999999995 152.87859999999995L549.0024999999997 157.8126499999999L544.7454999999997 158.17289999999986L544.4299999999998 158.32509999999985L542.9415 162.31034999999991L538.9964999999995 163.20954999999998L535.2984999999995 168.44559999999973L531.1615 169.18924999999973L533.0424999999997 173.72175L540.4004999999995 175.95364999999987L545.8239999999995 181.94074999999998L548.5514999999998 175.9659499999998L555.8144999999996 171.06459999999998L561.8474999999995 168.57234999999974L565.8069999999998 169.54679999999996L570.2474999999998 163.56844999999993L571.9094999999999 169.63779999999986L575.9479999999996 170.39445L577.9055 174.14289999999994L580.0169999999997 173.99209999999982L584.5059999999995 169.1840499999998L591.9405 171.84004999999985L593.1849999999997 177.9240999999999L597.278 179.45254999999975L601.594 178.50704999999977L603.2754999999997 181.9614999999999L607.2784999999999 181.58919999999995L610.12 184.20259999999985L610.7339999999999 189.69314999999995L607.5509999999997 191.52179999999987L599.203 190.5785499999999L590.1504999999997 199.66154999999986L588.9419999999996 203.91054999999994L590.7229999999998 205.20269999999982L597.2044999999997 203.98844999999994L598.5104999999999 213.24164999999994L602.1535 214.68534999999974L604.9234999999999 217.00069999999982L608.492 218.82719999999978L618.4350000000001 211.61089999999973L622.2219999999999 207.3927999999998L633.3374999999995 215.7629L641.0699999999997 212.1146999999999L642.636 213.65645L653.5109999999997 212.5333999999998L662.0654999999999 214.3107999999998L666.1519999999996 201.29744999999986L666.2819999999999 200.4460499999999L665.6734999999998 196.28299999999996L671.8134999999995 194.83069999999998L675.9139999999996 187.4329499999999L673.5184999999996 184.37279999999987L665.8904999999999 184.38904999999977L664.9484999999999 182.6840999999999L656.7859999999996 180.30059999999992L656.1314999999996 179.7319999999999L657.9339999999996 176.04784999999993L658.7205 163.81809999999973L657.1080000000001 156.48994999999985L659.366 145.34564999999986L659.325 143.0413999999999L657.2279999999995 142.09284999999994L656.9189999999998 139.97244999999992L654.853 139.4324499999999L648.1524999999999 139.06479999999988L635.5955 129.57744999999989L628.9069999999998 118.23954999999984L628.8029999999998 116.02969999999999L630.9324999999995 115.44174999999996L637.2864999999996 114.92734999999982L644.6994999999998 110.59559999999976L654.8419999999999 108.19504999999992L655.1679999999999 94.02779999999979L647.561 87.92849999999987L639.366 87.74014999999991L629.1244999999998 98.58979999999974L623.4805 95.68794999999994z">
      <title id="t63">Quatrième circonscription du Calvados</title>
      <desc id="d63">Cantons de : Blangy-le-Château, Cabourg, Dozulé, Honfleur, Lisieux I (moins la commune de Lisieux), Ouistreham, Pont-l'Evêque, Trouville-sur-Mer</desc>
    </path><path class="circo" id="id-014-05" d="M107.22549999999956 193.50364999999982L108.04599999999994 191.45749999999992L93.65599999999972 182.3254L93.12399999999968 180.20509999999973L96.3254999999998 177.2547499999999L84.66099999999983 174.96704999999992L87.35749999999996 171.49099999999976L93.60099999999989 174.07399999999996L97.76749999999993 172.44974999999982L104.38249999999982 160.76155L105.19199999999955 154.45769999999982L115.02549999999985 148.70745L108.97249999999985 146.7234499999998L100.74899999999957 135.81784999999996L99.2919999999998 131.5267L100.8439999999996 129.84429999999975L98.89499999999998 129.29689999999994L96.44999999999982 132.52954999999986L95.80949999999973 138.32564999999988L91.64099999999962 139.76424999999978L84.44999999999993 150.5657499999998L78.94799999999975 154.12209999999988L72.53199999999993 153.53874999999988L71.92099999999982 151.3742499999998L63.73999999999967 147.76164999999992L57.12599999999952 147.6719L56.90599999999961 147.36159999999984L51.48249999999962 135.93759999999975L47.15449999999976 135.82629999999995L44.27849999999978 132.69944999999979L42.325500000000034 133.46215L35.45950000000005 128.65579999999994L29.87699999999961 120.22594999999995L27.778500000000008 121.23179999999991L26.646499999999946 115.61104999999998L25.089999999999577 114.34389999999979L24.433499999999526 116.22439999999983L22.580499999999688 115.43589999999995L19.12149999999997 109.82519999999994L10.462999999999738 103.31979999999987L10.459500000000048 101.12069999999989L14.50049999999976 100.46859999999981L15.654999999999859 98.60214999999982L13.098999999999705 95.34654999999987L9.881499999999619 93.19244999999995L8.988499999999817 89.31529999999981L7.871999999999844 78.49054999999993L18.983499999999935 67.34984999999995L16.299999999999955 48.51324999999974L18.094999999999573 51.161599999999794L17.45900000000006 44.892949999999985L28.95999999999958 31.8330499999999L35.75199999999995 26.391199999999913L52.971000000000004 26.432999999999822L58.8719999999995 23.897499999999923L65.23499999999956 21.90969999999993L73.5084999999998 22.218599999999924L83.48749999999995 21.837899999999877L98.86899999999969 24.398999999999944L104.20849999999973 29.39789999999988L117.44049999999959 38.05394999999976L126.22649999999965 42.13899999999995L140.54499999999962 46.96544999999986L156.82799999999986 49.871049999999855L171.21249999999975 53.67274999999978L175.2109999999999 52.68959999999993L186.50599999999997 54.10854999999998L208.4359999999998 54.775949999999796L217.95699999999954 55.21429999999981L226.45549999999957 58.261349999999936L232.2864999999996 58.55684999999994L239.90999999999985 58.11324999999982L248.7719999999996 56.442049999999995L257.0164999999997 54.68914999999981L277.15149999999994 56.151749999999936L293.8399999999996 60.33689999999979L307.8589999999997 61.90489999999983L323.2039999999995 63.187099999999816L332.4185 66.99179999999984L339.35149999999965 70.29139999999984L347.77499999999975 75.97549999999984L360.727 84.28399999999982L369.96249999999975 88.30059999999975L350.2814999999998 107.13604999999973L347.2539999999998 105.86989999999986L342.0724999999999 118.88674999999978L334.8199999999997 128.14099999999996L333.87399999999957 131.70175L335.42399999999986 132.8588499999998L333.4449999999998 133.54674999999986L332.2909999999996 137.57214999999974L324.5429999999999 130.61489999999992L315.4235 132.15209999999985L310.2019999999999 139.40574999999995L309.7864999999996 138.44604999999973L307.5094999999999 141.66604999999976L303.6519999999996 141.43049999999988L292.7279999999996 137.26699999999994L282.244 132.56599999999992L282.0754999999997 134.30099999999982L265.91049999999996 131.51494999999983L261.84349999999995 125.20209999999992L257.8454999999997 120.57879999999983L246.99649999999963 123.67104999999981L244.25250000000005 127.31694999999974L242.67799999999966 126.46879999999982L240.85199999999986 125.3628999999998L228.06249999999977 118.77799999999979L222.93999999999983 116.26019999999983L221.9584999999995 122.3639L225.76399999999978 126.88084999999973L224.83299999999986 128.7456499999999L225.44150000000002 130.04149999999981L226.68499999999995 133.85519999999985L224.98249999999985 137.73484999999994L224.90399999999966 138.06014999999974L226.61749999999984 142.06289999999996L223.26799999999992 147.58015L224.36699999999973 155.24394999999998L226.1194999999998 156.29874999999998L227.0659999999998 162.56974999999983L222.18999999999994 166.6682499999999L217.94799999999952 166.6597999999999L218.62599999999986 168.58859999999993L213.09349999999995 176.62565L224.07549999999958 178.00599999999974L227.71249999999952 180.63979999999987L227.9589999999996 181.56449999999978L219.83149999999966 191.36004999999983L215.7189999999997 198.00999999999988L212.1339999999998 206.82729999999992L202.2429999999997 211.78229999999985L195.17049999999983 225.38194999999973L189.06649999999956 223.02884999999975L183.96149999999977 216.41199999999998L177.76700000000005 217.85685L157.56299999999953 225.7576499999999L150.53349999999966 225.52989999999994L151.1179999999996 230.06354999999985L147.26 238.33819999999974L139.47949999999992 241.78759999999983L132.76149999999973 250.18309999999985L130.60099999999977 249.92694999999998L119.81799999999964 244.13989999999984L122.05699999999979 237.79979999999995L122.52049999999997 235.00849999999986L122.24400000000003 231.97944999999976L121.73099999999977 227.55964999999975L118.11949999999968 221.96585L119.02099999999962 213.01704999999998L119.37950000000001 211.18764999999996L118.79899999999964 203.73519999999985L112.53999999999962 203.63519999999994L99.10249999999962 213.93429999999995L103.53549999999984 206.01045L107.774 204.61959999999976L114.45249999999987 198.5477499999999L115.2924999999999 196.42524999999978L111.55949999999962 193.9024999999998L107.22549999999956 193.50364999999982z">
      <title id="t64">Cinquième circonscription du Calvados</title>
      <desc id="d64">Cantons de : Balleroy, Bayeux, Caumont-l'Eventé, Creully, Douvres-la-Délivrande, Isigny-sur-Mer, Ryes, Trévières</desc>
    </path><path class="circo" id="id-014-06" d="M147.26 238.33819999999974L139.47949999999992 241.78759999999983L132.76149999999973 250.18309999999985L130.60099999999977 249.92694999999998L119.81799999999964 244.13989999999984L113.29549999999983 250.14224999999982L115.97249999999974 253.68694999999974L122.28149999999971 255.11589999999984L125.39249999999981 258.2834L125.55499999999995 262.5707L115.7974999999999 265.16909999999996L111.7244999999997 272.4939499999999L107.46899999999982 272.30279999999993L105.61649999999986 280.60159999999996L103.23149999999998 286.45854999999983L90.83049999999957 301.0645499999998L86.36699999999962 301.76049999999975L71.18949999999984 311.51374999999973L68.18699999999978 311.88199999999995L64.60199999999986 309.58769999999987L58.289499999999634 309.89769999999993L55.638999999999896 304.0540999999999L43.110999999999535 306.4808499999998L42.78349999999989 314.0331499999999L36.94050000000004 315.2032L39.86400000000003 317.4874L39.286500000000046 323.7684999999999L34.99750000000006 328.4527L35.04899999999964 330.58204999999987L38.81949999999961 331.8600999999998L45.005499999999756 329.17069999999995L58.121999999999616 327.4079999999998L61.37450000000001 330.3815499999999L57.83649999999966 341.09024999999974L46.23299999999972 348.2640999999998L44.72149999999999 352.63769999999994L41.99449999999956 359.10454999999985L37.53150000000005 363.0359999999999L33.4375 363.8592L28.341499999999655 357.4256L25.05299999999977 360.1339999999999L23.79199999999969 366.14709999999974L15.986999999999512 372.5640999999999L15.64799999999991 377.8637999999998L11.303999999999519 377.4052499999999L6.449499999999944 384.7091999999998L0.3799999999995407 385.51829999999995L0.453499999999849 386.47389999999973L0 392.62609999999995L11.377499999999827 396.13714999999985L12.480499999999779 397.9508999999999L13.312499999999545 397.7908499999998L18.444999999999823 397.63205L19.240499999999656 399.3231499999999L23.66299999999967 399.7839499999998L26.786500000000046 407.94944999999984L28.110999999999535 409.80969999999985L25.342999999999734 415.5374499999999L26.347499999999968 417.59979999999985L31.393999999999664 422.33874999999983L42.178499999999985 426.18319999999983L47.38200000000006 420.59469999999976L51.247999999999934 420.0883999999999L59.90849999999966 426.50439999999975L69.58949999999959 423.73444999999975L77.7355 425.4299999999998L81.14299999999957 417.9687999999999L88.88350000000003 417.3353499999999L92.49899999999968 422.81735L100.15349999999955 427.4697499999999L112.92699999999968 431.25429999999994L116.15049999999997 436.6513999999998L122.48749999999973 437.0936499999999L129.24599999999998 432.29175L138.0279999999999 431.4618999999999L142.79200000000003 426.89839999999975L143.4805 427.97405L134.74499999999978 439.8018499999998L141.38099999999952 439.6348999999998L148.64549999999952 434.71989999999977L153.97149999999954 427.84959999999984L155.01199999999983 423.6009499999997L158.5594999999995 421.13069999999993L160.37699999999973 417.6049499999999L175.9684999999996 414.2046499999998L183.85299999999972 409.57224999999994L188.40599999999995 409.0779999999998L191.04449999999986 405.3108999999998L202.2215 394.90159999999975L198.54649999999992 393.25484999999986L192.30699999999956 385.2471L198.3639999999997 379.1484L201.8734999999998 381.68769999999995L214.65449999999976 384.1674499999999L218.68499999999983 382.5620999999998L217.84099999999967 391.42529999999994L226.73249999999996 391.5841499999999L234.42199999999957 387.11509999999976L237.20249999999965 386.45324999999985L245.52449999999965 385.39885L249.97199999999964 389.29479999999984L253.77949999999998 386.8438999999998L258.54499999999973 379.12319999999994L269.44349999999986 376.51714999999996L272.9839999999996 376.60304999999994L275.40549999999996 379.31504999999987L281.5439999999995 377.33224999999976L280.8879999999999 372.98269999999974L289.1645 370.6681499999999L292.66449999999963 365.0641999999999L294.62249999999983 363.1574999999998L290.1729999999998 359.70619999999997L282.10999999999956 358.8887L282.90599999999984 354.9845499999998L298.38449999999966 356.34304999999983L302.79200000000003 351.92019999999985L303.4264999999999 353.96334999999993L307.47349999999983 354.97934999999984L313.88049999999964 349.8129499999999L315.8209999999997 350.68299999999994L320.17849999999953 349.75539999999995L321.54049999999984 343.6383999999998L317.4199999999996 331.65764999999993L318.3699999999999 330.66159999999996L326.51399999999967 325.3605999999999L339.8789999999997 319.3424999999999L344.0999999999997 327.8387999999998L345.85350000000005 326.6117L346.7149999999998 318.2716499999998L349.6569999999997 315.18764999999973L361.10199999999963 317.11014999999975L363.44749999999976 310.97144999999983L362.6274999999998 306.63099999999986L357.7439999999996 290.86449999999985L341.3714999999996 293.58104999999995L334.1145 289.78815L334.8184999999995 285.58414999999997L330.7989999999995 280.87694999999997L325.4034999999999 281.8259499999999L321.0194999999999 274.9075499999998L313.78949999999975 271.75719999999984L311.65449999999964 272.2755999999998L305.5064999999996 272.3688999999999L300.21699999999953 265.6363999999999L294.36649999999986 262.99979999999977L294.5169999999996 261.7740999999998L293.95099999999957 258.95759999999996L294.1209999999995 255.65919999999977L297.19349999999963 247.14964999999978L297.5815 238.31874999999997L300.27949999999976 237.3126499999998L303.26300000000003 239.3889999999999L305.3139999999996 239.29884999999985L311.1374999999998 226.31049999999988L311.5889999999996 224.3696L316.34349999999984 228.87549999999976L318.6719999999997 237.24649999999997L320.65 238.1649999999999L325.32749999999965 234.17419999999993L325.89999999999975 228.10594999999978L331.1514999999997 233.95884999999993L332.9174999999998 233.048L331.4964999999995 229.22589999999985L334.78700000000003 228.28504999999979L345.22749999999974 232.42319999999978L360.6139999999999 228.5257999999999L361.9309999999996 231.19764999999973L372.6729999999998 234.01719999999983L377.70099999999957 229.60999999999984L384.09099999999967 231.5343999999999L386.18349999999964 233.85954999999996L387.2489999999999 235.2809499999998L394.0564999999998 232.65355L404.4209999999998 228.5342L414.77149999999995 230.82329999999985L417.64899999999955 227.97424999999976L431.48949999999957 233.87579999999986L434.21299999999974 230.77789999999993L439.4659999999999 234.0775499999998L441.4889999999997 233.40219999999988L448.46900000000005 235.94589999999982L450.4109999999997 232.3317499999999L450.8164999999997 223.94909999999982L454.6969999999999 222.37144999999998L450.93399999999974 213.99854999999974L445.6144999999998 212.9170499999998L444.36199999999985 214.24589999999995L438.4164999999996 214.11929999999984L442.6925 200.68764999999985L442.0689999999996 195.65169999999995L439.0965 197.55794999999978L435.7524999999998 194.92684999999994L426.8739999999997 201.43509999999992L418.10450000000003 202.87414999999982L411.5504999999996 201.45654999999977L410.85999999999956 203.25534999999974L405.2049999999997 202.46244999999988L409.05550000000005 190.16084999999975L402.54699999999957 189.20979999999986L396.71400000000006 190.96835L398.0314999999996 187.53559999999993L392.52049999999997 185.0609L385.1659999999998 189.64894999999984L379.17599999999993 187.0327499999999L377.72599999999954 188.75894999999986L374.89499999999964 183.73214999999988L370.8979999999997 182.38974999999982L359.2349999999999 178.29454999999996L357.8989999999999 185.9171999999998L359.03549999999996 186.75794999999994L358.37099999999964 191.76669999999973L352.7754999999996 197.58459999999985L342.5029999999998 197.50079999999997L336.82050000000004 194.8793999999998L331.91749999999956 195.26459999999986L327.76099999999985 195.79394999999977L328.04449999999974 193.68944999999997L322.3449999999997 188.42239999999975L322.038 190.5051499999999L315.3664999999995 187.33289999999982L318.81399999999985 181.96214999999995L312.6155 175.88604999999973L308.65250000000003 176.08749999999986L307.73949999999957 171.57094999999998L301.5304999999995 164.68214999999987L292.6204999999999 164.3719999999999L287.0319999999998 166.90034999999995L286.71249999999986 168.9273L280.87549999999965 170.68954999999988L279.3444999999997 175.89319999999987L288.38149999999985 176.63279999999986L291.86099999999954 184.6898999999999L291.8365 184.80814999999978L286.84049999999957 188.12744999999978L285.19000000000005 191.81344999999993L282.02499999999986 189.45209999999975L278.4504999999996 182.44819999999976L276.21549999999957 188.71669999999995L276.6084999999998 197.71904999999975L276.0409999999996 198.85494999999992L274.5079999999996 199.11669999999987L269.9185 200.22134999999992L258.19399999999973 188.95189999999985L257.60850000000005 189.2942499999998L245.3354999999999 186.8157499999998L242.2739999999999 193.74919999999975L231.84199999999976 190.6188499999999L224.91449999999986 198.21069999999992L217.3679999999996 199.13809999999984L215.7189999999997 198.00999999999988L212.1339999999998 206.82729999999992L202.2429999999997 211.78229999999985L195.17049999999983 225.38194999999973L189.06649999999956 223.02884999999975L183.96149999999977 216.41199999999998L177.76700000000005 217.85685L157.56299999999953 225.7576499999999L150.53349999999966 225.52989999999994L151.1179999999996 230.06354999999985L147.26 238.33819999999974z">
      <title id="t65">Sixième circonscription du Calvados</title>
      <desc id="d65">Cantons de : Aunay-sur-Odon, Le Bény-Bocage, Bourguébus, Condé-sur-Noireau, Evrecy, Saint-Sever-Calvados, Thury-Harcourt, Vassy, Villers-Bocage, Vire</desc>
    </path></svg>