<svg xmlns="http://www.w3.org/2000/svg" version="1.1" xmlns:xlink="http://www.w3.org/1999/xlink" xmlns:svgjs="http://svgjs.dev/svgjs" width="556.1500000000001" height="521.4922000000001" fill="#eeeeee" stroke="#cccccc" xmlns:sodipodi="http://sodipodi.sourceforge.net/DTD/sodipodi-0.dtd"><path class="circo" id="id-015-01" d="M46.747499999999604 242.39530000000002L46.69299999999964 242.28760000000023L41.69299999999964 239.95569999999987L34.208999999999605 239.2556000000002L31.955499999999688 242.18525L29.921999999999684 241.9691499999999L16.659500000000094 253.7905999999998L15.85049999999967 253.87L15.418500000000108 257.1582000000001L13.704500000000053 257.4759L20.123499999999694 267.95975L22.96099999999967 277.9672499999998L33.143499999999904 287.9237499999999L29.91199999999992 299.74024999999983L18.400499999999624 302.28740000000016L13.022499999999582 299.76245000000006L11.138499999999567 300.5256000000003L0 305.29335000000003L7.5604999999995925 320.26715000000024L5.711000000000013 330.3507000000002L16.754499999999553 339.2765000000003L19.208999999999605 344.86890000000017L10.295999999999594 349.98515L9.575499999999693 351.9598000000002L9.622999999999706 360.2514000000002L13.003999999999678 367.7997499999998L23.07799999999986 382.26200000000006L26.34149999999977 383.56404999999995L27.523499999999785 386.8321000000003L32.677999999999656 396.9040000000001L43.93599999999992 403.9471000000003L43.83549999999957 411.7632000000003L46.206999999999994 417.01210000000003L44.87799999999993 421.99675000000013L43.24449999999956 427.5882999999999L37.426999999999566 429.12750000000017L36.649999999999636 429.3190500000003L38.496999999999844 439.25295000000006L36.1994999999996 457.3571500000003L29.90599999999972 465.42790000000025L28.539499999999975 471.44060000000025L32.035999999999945 475.2778999999998L38.99599999999964 471.40175L49.40249999999992 486.2970999999999L43.816999999999666 494.16274999999985L47.10049999999967 498.9642500000002L45.317999999999756 502.2799500000002L45.265999999999735 508.0837500000001L48.29900000000009 509.58410000000015L54.70399999999984 513.9272L61.44049999999993 521.4922000000001L67.00600000000009 517.6093000000003L64.37049999999999 514.4096999999999L61.839499999999816 504.58399999999983L69.79749999999967 498.45399999999984L79.74249999999984 499.65430000000026L85.98199999999963 494.43105L88.03699999999992 494.58399999999983L89.90999999999985 494.2063999999999L94.91649999999993 491.0835500000002L104.16499999999985 492.9001499999998L111.01999999999975 489.4616500000001L114.45899999999995 492.1866499999999L116.327 495.66790000000026L115.65799999999967 501.6012999999998L122.43349999999964 506.14305L128.51349999999968 505.7756999999998L135.1384999999999 501.1030499999998L140.15049999999974 503.9310999999998L142.0474999999999 503.18494999999984L145.2914999999996 502.59000000000015L158.4174999999999 507.03250000000025L164.56199999999967 502.0517000000001L172.18349999999987 505.15089999999987L173.8515000000001 499.69730000000027L177.79349999999965 500.87545000000034L179.2579999999998 499.35974999999985L181.31449999999973 495.6995999999998L181.16649999999993 489.4006999999999L185.97749999999962 477.71410000000003L193.793 471.6044499999998L195.07049999999992 468.0651499999999L201.23749999999973 463.8718L209.66549999999984 457.7274L209.88049999999987 455.84135000000003L206.76099999999963 453.8881500000002L207.9219999999998 452.2064999999998L208.8194999999996 447.6061500000003L208.58049999999992 436.67039999999986L211.55449999999973 434.50365000000033L213.17399999999964 424.2972000000003L217.16999999999985 420.12429999999995L222.55749999999978 420.7638000000003L228.3204999999998 414.9705L227.59849999999972 398.7346000000002L233.08599999999956 392.8429L230.0369999999998 385.3569500000003L235.93549999999993 379.43420000000003L240.62599999999975 367.86929999999984L250.8144999999996 369.36140000000023L252.16349999999977 367.7739500000001L253.17849999999964 359.7444999999999L263.06299999999965 346.8192499999998L266.2914999999998 348.9675L273.4774999999996 346.97344999999984L277.89499999999975 333.92274999999984L276.00599999999986 324.0750000000003L276.58799999999985 313.7180999999998L281.45399999999995 310.20105L281.6424999999998 304.0286500000002L279.08500000000004 294.2228499999999L287.27049999999963 282.4123000000003L286.56649999999956 278.3598999999998L288.55999999999995 272.5004999999999L287.7109999999999 270.33185000000003L296.678 256.8929000000003L298.7504999999999 251.27954999999986L290.86599999999976 242.55240000000015L283.84749999999997 238.86855000000025L277.876 238.0383999999998L279.2054999999999 230.68255000000022L275.4480000000001 225.6214L267.97199999999975 229.30970000000002L260.8670000000001 225.42329999999993L260.6234999999998 225.4245000000003L257.33799999999974 228.02470000000028L251.1329999999998 228.88100000000009L246.5504999999996 234.81040000000007L246.16049999999973 240.62805000000026L235.15150000000006 245.0754999999998L227.89150000000006 247.00265000000002L224.3924999999996 251.24165000000005L217.457 251.00214999999992L203.52049999999963 250.2571499999999L200.08249999999975 252.4174499999998L196.49299999999982 250.79695000000015L191.49450000000002 253.7803500000001L179.76999999999975 253.53004999999996L180.84949999999992 247.64414999999985L182.22899999999981 242.06970000000013L180.89049999999986 240.5173000000002L166.56749999999988 243.31259999999986L150.01199999999983 241.8325500000003L148.3449999999999 238.46825000000024L149.10249999999962 231.31779999999992L143.83749999999964 228.1475499999999L129.82799999999997 229.89980000000003L127.42649999999969 222.23025000000007L121.61599999999964 224.8048L118.00899999999956 234.25835000000006L120.53799999999967 237.61945000000026L115.14099999999985 242.10939999999994L108.13449999999989 246.41824999999983L84.18499999999995 248.54210000000023L82.22699999999975 248.26824999999985L80.13199999999983 242.57045000000005L83.18099999999959 239.96170000000006L82.64299999999992 237.92345000000012L78.52449999999976 237.70190000000014L75.47249999999963 242.81004999999993L69.84800000000007 245.41195000000016L65.73800000000006 244.92684999999994L62.80249999999967 241.9432999999998L58.95099999999957 243.55880000000013L52.984500000000025 241.6633999999999L46.747499999999604 242.39530000000002z">
      <title id="t66">Première circonscription du Cantal</title>
      <desc id="d66">Cantons de : Arpajon-sur-Cère, Aurillac I, Aurillac II, Aurillac III, Aurillac IV, Jussac, Laroquebrou, Maurs, Montsalvy, Saint-Cernin, Saint-Mamet-la-Salvetat, Vic-sur-Cère</desc>
    </path><path class="circo" id="id-015-02" d="M376.438 104.86859999999979L369.40349999999967 92.29629999999986L366.1930000000001 82.32460000000003L366.25599999999963 80.10339999999985L364.43600000000004 72.79040000000009L365.4309999999998 69.2056500000001L361.5395000000001 70.18444999999986L357.9539999999997 68.33145000000002L352.783 62.47060000000033L347.53349999999955 60.1348999999999L344.5214999999996 64.80914999999982L339.18949999999995 61.81044999999983L335.53200000000004 54.542600000000334L325.20299999999963 55.5012499999998L319.79600000000005 49.66540000000009L308.90349999999955 55.64405000000022L306.95799999999963 59.2405500000001L305.0065000000001 58.602750000000015L297.1569999999997 58.0804999999998L292.03149999999994 55.181049999999914L288.31349999999986 54.16854999999998L282.79049999999984 56.09489999999994L276.9425000000001 61.12304999999992L272.7114999999998 56.56150000000025L270.5714999999998 50.842099999999846L263.0109999999996 44.39585000000022L262.2444999999999 36.166299999999865L266.5324999999996 30.619700000000307L265.86649999999963 27.083200000000147L259.7874999999999 26.823949999999854L253.95249999999976 28.839100000000144L250.0989999999996 24.023650000000316L244.51300000000003 22.19425000000001L238.6949999999996 23.32339999999988L236.84399999999982 9.135749999999803L230.7175000000001 17.465100000000007L226.90200000000004 18.8973500000003L220.91049999999996 18.006750000000125L213.7745000000001 10.624750000000063L206.053 11.950600000000122L200.9699999999998 15.085149999999885L204.45149999999956 2.0658000000003085L194.79899999999986 0L189.341 2.3531000000002678L189.72249999999974 6.057050000000004L187.33749999999986 12.549300000000017L185.63999999999965 13.307350000000042L186.44049999999993 18.70954999999981L184.4399999999996 21.346100000000092L182.48549999999966 35.364549999999895L180.47049999999956 38.90564999999981L193.19699999999955 48.66480000000024L195.21599999999978 48.33129999999983L197.3505 55.50184999999999L195.69999999999993 61.075250000000096L192.5184999999999 59.44324999999992L189.35149999999965 61.931450000000154L181.52099999999962 61.981099999999856L178.30499999999972 64.27970000000016L177.35349999999983 68.24675000000013L172.3320000000001 60.309199999999805L160.92600000000004 59.271400000000085L159.35299999999984 57.27745000000027L153.09349999999995 51.74759999999992L145.01649999999984 51.10414999999989L141.75449999999955 48.59460000000013L140.5404999999996 44.75000000000023L135.1864999999998 41.7113999999998L126.9905 40.83410000000015L124.19749999999965 40.80744999999979L122.12150000000008 44.090100000000234L130.00499999999988 58.37699999999984L127.74650000000008 61.82799999999986L128.22949999999992 65.22964999999999L128.14899999999966 75.47120000000007L122.65649999999994 81.57719999999983L125.6514999999996 86.81804999999997L123.46650000000011 92.3784999999998L117.70800000000008 94.78330000000028L107.59849999999972 97.06824999999981L103.37649999999996 104.33314999999993L96.65399999999977 117.3475000000002L90.62099999999987 117.52205000000004L87.88449999999955 116.49204999999995L84.50099999999964 120.51649999999995L82.64250000000004 128.71370000000013L76.8225000000001 131.14550000000008L75.71300000000008 132.96670000000006L74.91349999999954 134.94844999999998L75.20749999999964 141.30645000000015L69.529 144.01990000000012L66.01149999999961 149.33750000000032L59.36449999999979 154.65914999999995L59.56449999999961 156.78139999999985L55.92899999999986 158.17710000000034L54.50749999999971 156.84415L56.33199999999988 160.56340000000034L54.574499999999944 168.71905000000027L57.57599999999968 171.6378000000003L59.30900000000008 181.9592L67.45199999999954 188.41459999999984L71.53750000000002 188.50439999999992L72.29249999999979 190.4618499999998L71.19349999999997 193.7133L63.093000000000075 194.59150000000022L62.69149999999968 202.61075000000005L57.187999999999874 208.64530000000002L49.249999999999545 209.1507999999999L53.13449999999989 220.9516000000002L49.2795000000001 228.1493499999999L49.49549999999988 234.4034499999998L46.69299999999964 242.28760000000023L46.747499999999604 242.39530000000002L52.984500000000025 241.6633999999999L58.95099999999957 243.55880000000013L62.80249999999967 241.9432999999998L65.73800000000006 244.92684999999994L69.84800000000007 245.41195000000016L75.47249999999963 242.81004999999993L78.52449999999976 237.70190000000014L82.64299999999992 237.92345000000012L83.18099999999959 239.96170000000006L80.13199999999983 242.57045000000005L82.22699999999975 248.26824999999985L84.18499999999995 248.54210000000023L108.13449999999989 246.41824999999983L115.14099999999985 242.10939999999994L120.53799999999967 237.61945000000026L118.00899999999956 234.25835000000006L121.61599999999964 224.8048L127.42649999999969 222.23025000000007L129.82799999999997 229.89980000000003L143.83749999999964 228.1475499999999L149.10249999999962 231.31779999999992L148.3449999999999 238.46825000000024L150.01199999999983 241.8325500000003L166.56749999999988 243.31259999999986L180.89049999999986 240.5173000000002L182.22899999999981 242.06970000000013L180.84949999999992 247.64414999999985L179.76999999999975 253.53004999999996L191.49450000000002 253.7803500000001L196.49299999999982 250.79695000000015L200.08249999999975 252.4174499999998L203.52049999999963 250.2571499999999L217.457 251.00214999999992L224.3924999999996 251.24165000000005L227.89150000000006 247.00265000000002L235.15150000000006 245.0754999999998L246.16049999999973 240.62805000000026L246.5504999999996 234.81040000000007L251.1329999999998 228.88100000000009L257.33799999999974 228.02470000000028L260.6234999999998 225.4245000000003L260.8670000000001 225.42329999999993L267.97199999999975 229.30970000000002L275.4480000000001 225.6214L279.2054999999999 230.68255000000022L277.876 238.0383999999998L283.84749999999997 238.86855000000025L290.86599999999976 242.55240000000015L298.7504999999999 251.27954999999986L296.678 256.8929000000003L287.7109999999999 270.33185000000003L288.55999999999995 272.5004999999999L286.56649999999956 278.3598999999998L287.27049999999963 282.4123000000003L279.08500000000004 294.2228499999999L281.6424999999998 304.0286500000002L281.45399999999995 310.20105L276.58799999999985 313.7180999999998L276.00599999999986 324.0750000000003L277.89499999999975 333.92274999999984L281.2054999999998 334.80279999999993L282.4365 331.01530000000025L286.7869999999999 326.99985000000027L287.0274999999998 326.48585000000026L288.6564999999996 332.0377000000002L294.5335 331.9320499999998L303.11049999999966 345.4444000000001L301.47400000000005 351.2134000000003L304.17100000000005 358.7301500000001L301.1289999999997 364.1178500000001L300.05449999999996 372.2746000000001L301.2819999999999 376.2331999999998L305.32899999999984 376.60495000000026L308.587 371.5483999999998L315.30100000000004 366.9529L318.8144999999997 368.9422000000002L335.11750000000006 368.0540000000002L336.6165000000001 366.63684999999987L338.6345 366.5463L336.884 380.4779500000001L340.30399999999986 382.80395L339.3455 388.45579999999984L342.9514999999998 393.4409499999998L347.03599999999994 409.32000000000016L351.36949999999956 418.16790000000026L354.8644999999999 420.09315000000015L358.7115 419.88895000000014L364.35299999999984 414.5830000000001L370.12599999999964 422.7673500000003L370.2344999999997 430.8467999999999L368.8714999999996 432.4217500000003L362.7429999999998 432.1799500000003L361.93399999999997 434.0936499999998L362.6774999999998 436.0437000000002L368.1899999999996 438.8190500000002L369.9435 442.55105000000015L369.0954999999997 448.66105000000005L365.659 453.88874999999985L368.8984999999997 463.2289000000003L370.30749999999955 473.27920000000006L373.3744999999999 478.65864999999985L372.4939999999998 484.42814999999996L378.35350000000005 489.6540500000003L379.26150000000007 493.6243999999999L382.40999999999985 496.20450000000005L382.06799999999987 498.23829999999987L385.6284999999997 501.9477999999998L390.4854999999998 504.0863999999999L391.87299999999993 500.6872500000003L390.91849999999965 498.7945500000001L397.8974999999997 485.78550000000007L405.11949999999956 463.8144L410.7869999999997 461.12360000000024L414.9029999999999 462.0518500000003L413.10299999999984 454.84590000000026L409.87750000000005 452.9483499999998L410.49049999999966 451.1714999999998L411.5944999999999 441.32960000000026L416.22649999999965 435.49604999999985L418.77399999999966 432.5391000000002L416.9934999999998 427.0297499999998L419.51099999999997 422.02904999999987L417.808 412.5005500000003L418.7885 408.6239499999999L425.5525 399.0114L430.9899999999999 396.6319500000003L428.94799999999975 389.4483500000001L438.15849999999955 391.33084999999994L440.41650000000004 391.45790000000034L440.8499999999998 384.85825000000034L438.58299999999986 377.9305499999998L442.8899999999999 371.4638500000001L442.10249999999974 360.4469499999999L449.06849999999963 356.3035500000001L452.8375 349.0814999999998L458.98499999999956 349.85915000000034L462.6524999999998 354.86850000000004L466.3934999999998 360.5471L468.2605000000001 366.11865000000023L471.97599999999966 367.6060000000001L475.46299999999974 372.40830000000017L479.14549999999963 373.7071000000003L481.56499999999994 367.9688500000003L489.60350000000005 366.2614000000002L494.18450000000007 361.9705499999998L498.14750000000004 357.96404999999993L495.15799999999956 352.91020000000003L494.5074999999997 345.24220000000014L504.3950000000001 341.48405000000025L502.21599999999967 332.1926000000002L504.6109999999999 329.2700000000002L503.8515000000001 327.5162L507.1474999999998 326.2565000000001L511.22149999999976 326.24270000000024L509.83949999999993 330.11955L511.8539999999996 333.51035000000024L519.674 335.4403000000002L526.1949999999996 327.5726500000002L531.8689999999998 327.3516999999998L533.6669999999998 323.70929999999987L541.9045 317.66605000000027L548.9515 318.31889999999987L551.848 308.35375L546.2025 306.1320999999998L545.2799999999996 300.03105000000005L552.6484999999997 297.08889999999997L556.1500000000001 289.85929999999996L554.8519999999996 288.2940500000001L549.0625 289.8424499999999L544.9964999999997 283.4595999999999L537.2749999999996 285.11525000000006L541.5754999999996 275.93605000000025L537.8039999999999 274.59870000000024L530.6239999999997 278.08870000000013L528.9394999999996 276.97209999999984L525.1139999999998 269.69134999999994L527.1869999999996 263.94780000000026L525.6844999999998 255.85440000000006L530.8879999999999 242.53980000000013L529.5824999999996 239.37479999999994L520.6684999999999 236.55509999999992L520.0925000000001 232.96449999999993L518.9499999999998 229.33859999999981L526.1994999999996 226.89324999999997L528.5915 230.18820000000005L537.9229999999995 234.12350000000004L551.8934999999999 228.49260000000015L547.8154999999998 228.10540000000003L546.8064999999996 224.13695000000018L538.6719999999997 224.28629999999998L531.7169999999999 220.0933500000002L530.9174999999999 219.8837500000002L526.1314999999996 216.3402000000002L520.6899999999996 218.7170500000002L515.6020000000001 205.33259999999984L517.9570000000001 199.92599999999982L516.9884999999999 198.5441000000003L512.1645000000001 198.45129999999983L509.29899999999975 186.58245000000022L509.99049999999954 180.41195000000016L513.4114999999997 175.37894999999992L513.972 165.04594999999995L503.2209999999998 161.34349999999984L499.42999999999984 159.67465000000004L497.2134999999997 147.5020999999998L492.95199999999966 143.23395000000005L495.41799999999967 131.42749999999978L494.6875 127.33069999999998L492.64999999999986 127.2111000000001L492.2710000000001 125.19755000000032L487.22800000000007 121.73060000000021L477.15949999999964 122.7224000000001L476.91100000000006 124.6848L468.2774999999998 129.34775000000002L470.16899999999964 121.69494999999984L466.8449999999996 116.97715000000017L466.56000000000006 113.15229999999985L459.99049999999954 117.73110000000031L454.2044999999996 118.77074999999991L445.9575000000001 119.5953000000003L441.2344999999999 115.74900000000014L435.05349999999964 116.40505000000019L434.56399999999974 112.3789499999998L439.84849999999994 109.85515000000021L443.7975 109.04425000000003L446.49549999999977 103.48709999999983L441.06949999999983 100.63320000000033L437.22999999999956 95.71905000000015L440.4114999999996 93.40440000000001L446.4765 94.0113500000001L445.5899999999997 79.95220000000018L442.26049999999987 77.51370000000009L439.2679999999996 78.92589999999984L435.8404999999999 86.3706000000002L428.0404999999996 88.48074999999994L425.1245 91.42330000000015L426.21350000000007 99.65950000000021L422.4509999999998 104.4455499999998L423.5179999999997 106.25310000000013L413.8839999999999 111.47085000000004L408.4125 113.07920000000024L406.05249999999955 118.19745000000012L397.9309999999998 115.98214999999982L397.29150000000004 113.94800000000032L384.66549999999984 106.22470000000021L376.438 104.86859999999979z">
      <title id="t67">Deuxième circonscription du Cantal</title>
      <desc id="d67">Cantons de : Allanche, Champs-sur-Tarentaine-Marchal, Chaudes-Aigues, Condat, Massiac, Mauriac, Murat, Pierrefort, Pleaux, Riom-ès-Montagnes, Ruynes-en-Margeride, Saignes, Saint-Flour Nord, Saint-Flour Sud, Salers</desc>
    </path></svg>