<svg xmlns="http://www.w3.org/2000/svg" version="1.1" xmlns:xlink="http://www.w3.org/1999/xlink" xmlns:svgjs="http://svgjs.dev/svgjs" width="597.7719999999999" height="576.1497499999996" fill="#eeeeee" stroke="#cccccc" xmlns:sodipodi="http://sodipodi.sourceforge.net/DTD/sodipodi-0.dtd"><path class="circo" id="id-016-01" d="M247.7265 340.8047499999998L235.7310000000001 340.1300999999995L235.58050000000037 342.12184999999977L232.3845 344.19299999999964L228.92650000000003 355.5411499999997L223.7715000000003 352.36954999999966L220.03700000000038 347.3780999999997L215.91700000000003 346.71149999999955L209.17700000000025 351.5062999999998L204.86850000000004 363.20944999999995L195.90599999999995 359.2683999999997L184.5245 353.8463999999999L187.4200000000002 344.1450499999996L193.56499999999983 338.53054999999983L192.29700000000037 328.5575499999999L196.21450000000038 326.68894999999964L206.12750000000005 326.6628499999996L212.67350000000022 322.6926499999996L215.20500000000027 317.2648499999997L215.06500000000017 313.2230499999997L215.69700000000012 309.09749999999974L225.31600000000026 304.8322499999995L236.37850000000014 301.89059999999984L235.10899999999992 293.9274999999998L231.52750000000026 292.4930499999999L226.48450000000025 286.08239999999967L222.586 284.96204999999975L221.4145000000002 283.1311999999997L229.08349999999984 275.8452L230.43049999999994 267.4774499999995L232.93299999999988 264.0450499999997L236.69500000000028 266.75749999999994L239.9335000000002 266.5280999999999L248.1065000000001 258.0125499999997L256.6410000000002 252.8794499999998L257.17150000000004 247.26939999999956L260.2170000000001 245.8749499999999L261.52649999999994 242.15109999999981L269.60050000000024 236.6629499999999L275.0690000000003 234.61689999999976L276.8420000000003 235.54704999999956L279.7255000000001 238.1935999999996L283.9765 234.48594999999955L290.87800000000016 237.2215L288.2069999999999 245.27334999999994L293.14850000000035 249.24649999999986L295.43000000000006 254.9097999999998L310.47900000000027 266.88774999999964L310.84000000000003 267.20969999999966L318.6394999999999 264.6858999999995L320.92100000000016 261.2349499999999L327.9915 256.9557999999995L334.1810000000004 259.92024999999956L330.29600000000016 277.68009999999947L327.48050000000035 280.52224999999964L328.86149999999986 290.30624999999986L336.36799999999994 293.1242499999996L329.45100000000025 297.53445L327.39599999999996 297.1446999999995L330.1695000000001 302.76905L346.9625000000002 311.1098999999996L347.4459999999999 317.24294999999984L360.6015000000002 316.88504999999964L365.73450000000037 320.6401999999997L356.29050000000007 331.36994999999956L354.1225000000003 341.8061L350.78100000000006 344.45044999999993L342.3085000000003 343.66355L338.759 332.6545999999996L339.60450000000037 326.97204999999997L336.59500000000037 324.28259999999966L330.73199999999986 325.64284999999984L323.0775 324.50919999999996L324.5640000000003 331.6226499999999L323.24450000000013 332.92669999999987L320.75649999999996 341.6633999999999L319.3934999999999 340.09064999999964L314.6100000000001 344.03089999999963L310.49199999999985 343.51174999999955L304.5904999999999 345.52269999999965L299.00350000000003 343.3763499999998L282.45150000000024 330.36834999999996L276.8810000000002 327.42519999999956L274.8410000000001 328.0460499999998L273.19000000000017 327.33835L272.1179999999998 328.7895999999995L272.2194999999999 333.9355499999999L267.60699999999986 342.38049999999987L269.38649999999996 349.75674999999967L267.3045000000002 350.07244999999955L259.9105000000003 337.6469499999996L256.42750000000035 335.2777999999995L247.7265 340.8047499999998z">
      <title id="t68">Première circonscription de Charente</title>
      <desc id="d68">Cantons de : Angoulême Est, Angoulême Nord, Angoulême Ouest, Le Gond-Pontouvre, La Couronne, Ruelle-sur-Touvre, Soyaux</desc>
    </path><path class="circo" id="id-016-02" d="M271.164 534.0266499999996L274.8225000000002 534.8852999999997L283.725 532.7181499999995L286.3515000000001 526.3186499999995L290.736 516.6395L296.275 515.4100999999997L301.76750000000027 516.8720999999999L304.21249999999986 517.1348999999998L310.15800000000013 512.0937999999995L311.8684999999999 501.9077999999996L309.4335000000001 489.8632999999995L309.2990000000003 489.73149999999976L306.05950000000007 478.65399999999966L302.8570000000002 472.2915999999998L304.56799999999987 461.79299999999955L308.571 452.1548999999999L310.58899999999994 445.42554999999993L311.96450000000027 438.79894999999976L315.0389999999999 433.6511999999999L320.0260000000003 430.3197L325.84900000000005 430.7472999999999L331.1455000000001 428.4542499999998L325.7159999999999 422.66944999999964L325.46249999999986 414.5934L328.9314999999999 414.6715499999999L336.7405000000002 423.74469999999974L338.95399999999995 414.02985L339.08349999999984 413.83474999999976L348.45050000000015 410.1497999999998L351.18150000000014 404.7395499999999L357.24950000000035 403.4066999999999L357.6634999999999 399.29689999999994L370.40200000000027 394.6579499999996L376.592 399.5072499999998L380.33950000000004 398.4069999999997L380.77499999999986 388.67519999999956L386.4455000000004 380.79729999999984L388.4805 378.365L387.80550000000005 375.16824999999983L372.6140000000004 369.1924L368.2035000000002 365.11184999999955L366.3589999999999 366.03115L365.75649999999996 361.9617499999998L361.4175 357.63274999999965L341.50750000000016 346.44254999999987L342.3085000000003 343.66355L338.759 332.6545999999996L339.60450000000037 326.97204999999997L336.59500000000037 324.28259999999966L330.73199999999986 325.64284999999984L323.0775 324.50919999999996L324.5640000000003 331.6226499999999L323.24450000000013 332.92669999999987L320.75649999999996 341.6633999999999L319.3934999999999 340.09064999999964L314.6100000000001 344.03089999999963L310.49199999999985 343.51174999999955L304.5904999999999 345.52269999999965L299.00350000000003 343.3763499999998L282.45150000000024 330.36834999999996L276.8810000000002 327.42519999999956L274.8410000000001 328.0460499999998L273.19000000000017 327.33835L272.1179999999998 328.7895999999995L272.2194999999999 333.9355499999999L267.60699999999986 342.38049999999987L269.38649999999996 349.75674999999967L267.3045000000002 350.07244999999955L259.9105000000003 337.6469499999996L256.42750000000035 335.2777999999995L247.7265 340.8047499999998L235.7310000000001 340.1300999999995L235.58050000000037 342.12184999999977L232.3845 344.19299999999964L228.92650000000003 355.5411499999997L223.7715000000003 352.36954999999966L220.03700000000038 347.3780999999997L215.91700000000003 346.71149999999955L209.17700000000025 351.5062999999998L204.86850000000004 363.20944999999995L195.90599999999995 359.2683999999997L184.5245 353.8463999999999L187.4200000000002 344.1450499999996L193.56499999999983 338.53054999999983L192.29700000000037 328.5575499999999L196.21450000000038 326.68894999999964L198.1925000000001 323.59729999999956L196.0374999999999 312.3667499999999L191.26450000000034 310.45714999999973L190.6450000000001 297.0431499999995L188.67050000000006 296.68565L181.94700000000012 300.79079999999976L176.0835000000003 300.6831999999997L171.63999999999987 296.3360499999999L166.27999999999986 287.82614999999964L162.45100000000036 286.57264999999995L163.6020000000002 284.83919999999955L165.56300000000022 285.26129999999966L167.49599999999987 281.98459999999955L171.43500000000017 282.5545999999997L174.9430000000001 277.73724999999956L184.87349999999992 276.36109999999974L186.45449999999983 273.6847L180.30849999999987 272.7373499999999L181.00300000000004 266.48124999999993L175.1555000000002 260.54839999999956L167.12750000000028 258.5183999999998L163.36000000000013 253.87119999999982L155.89699999999993 253.6373999999995L152.17300000000023 252.38509999999962L151.0835000000003 248.57609999999966L143.56850000000009 246.2122999999997L143.664 244.8969999999997L141.56450000000007 241.74244999999985L140.35000000000025 232.47569999999996L127.79650000000004 233.82929999999988L115.83900000000028 235.0091999999995L112.2784999999999 227.32474999999965L102.88299999999992 222.38139999999987L102.72050000000036 222.30034999999987L98.6205000000001 215.58089999999993L97.68050000000017 211.86774999999955L94.37650000000019 210.47669999999982L94.96600000000001 205.08465L91.43000000000029 203.93354999999985L79.95299999999986 203.46409999999992L78.50149999999985 204.7828499999997L72.83150000000035 203.82199999999955L69.6690000000001 206.0039999999998L70.27600000000007 210.0554999999997L64.16750000000036 215.62964999999963L60.916500000000156 216.56334999999956L52.719999999999914 215.26209999999992L41.355500000000234 219.56969999999956L39.634000000000356 218.99564999999996L25.99300000000028 215.49004999999966L24.86750000000029 225.34335L19.13850000000025 226.15189999999984L15.892499999999927 228.67669999999976L5.873500000000149 227.99429999999973L0 236.6148499999997L1.3360000000000127 244.27404999999965L20.109500000000367 242.8167499999995L25.375500000000102 246.1946499999999L25.0060000000002 248.27954999999974L18.674500000000194 253.6745499999995L18.19150000000036 262.1229999999997L20.299499999999853 269.6669499999996L17.100000000000364 276.9518499999998L22.361000000000217 278.2969499999996L34.44600000000037 293.16314999999975L34.32900000000018 295.28899999999965L28.613000000000284 297.0206499999995L23.04550000000006 294.8335499999996L13.273000000000366 314.1121499999997L20.411000000000286 318.59375L24.399500000000103 317.27634999999964L32.20950000000016 312.77089999999987L35.11450000000025 317.2575499999999L36.909499999999866 323.254L44.378000000000384 330.37499999999966L49.916000000000054 332.0496499999996L51.97299999999984 337.08579999999984L55.903000000000134 336.6127L57.083000000000084 338.2153999999997L60.919000000000096 341.22799999999984L70.79850000000022 350.5417L63.94100000000037 362.98494999999946L60.245500000000334 364.17434999999955L60.15300000000025 368.46554999999967L60.88000000000022 368.5116499999998L67.99350000000004 372.4498L74.02700000000038 371.81944999999985L77.41899999999987 374.1108499999996L76.1930000000001 377.9124999999999L83.72799999999984 374.47179999999946L88.58850000000018 377.9112999999995L84.02449999999988 384.16819999999973L88.81250000000023 387.99784999999986L92.90500000000009 387.76864999999987L92.93999999999983 391.82159999999953L94.62249999999983 392.9984999999999L93.78300000000024 395.64494999999965L90.01250000000027 394.80039999999974L83.31999999999994 406.96024999999963L77.45850000000019 405.2977499999997L75.20750000000021 416.11785L79.06650000000013 414.67394999999954L82.79600000000016 416.41899999999964L83.84200000000021 420.39949999999976L88.65800000000036 424.23479999999984L88.73699999999985 425.7600499999995L91.31349999999998 429.0211499999998L89.6365000000003 432.82939999999996L90.06950000000018 438.86919999999975L96.24700000000018 438.98544999999956L97.36649999999997 444.6851499999997L91.1099999999999 444.8721999999998L89.99850000000038 448.9281L80.00550000000032 450.77729999999974L78.48500000000001 454.6315499999997L75.1460000000003 457.0995499999998L68.99600000000021 457.0462999999995L68.31999999999994 458.5749499999997L65.01800000000003 458.23909999999955L64.82000000000028 464.4316999999995L67.5200000000001 467.2789499999999L71.36400000000037 467.84279999999967L73.3789999999999 470.6860999999998L77.06050000000005 471.9334999999995L78.0295000000001 477.61679999999956L81.63099999999986 475.7768999999996L91.95050000000037 475.82889999999963L92.19100000000026 481.9566499999996L90.31150000000025 485.39625L84.63850000000036 486.7869499999995L78.70499999999993 481.7310999999995L76.70000000000016 487.2204999999997L77.18299999999999 487.60384999999985L78.18050000000028 489.1365499999995L73.33550000000002 494.61329999999975L75.97649999999987 497.4011999999999L76.49450000000002 505.70794999999976L87.39750000000015 511.4623999999998L87.6925 505.44384999999977L94.80450000000019 501.89324999999997L98.93500000000017 501.73429999999996L99.62550000000022 497.64234999999985L111.17050000000006 504.0115999999995L113.46150000000023 507.2404499999999L121.07450000000028 505.7012999999995L128.1110000000001 506.70804999999973L132.6875000000001 509.73185L134.1149999999999 511.10709999999983L135.1015000000001 517.9003L141.5300000000002 514.0398499999998L150.59900000000027 516.9735999999995L148.96450000000016 538.4644499999996L147.80599999999993 542.0951499999995L154.34200000000033 542.8654499999999L164.13999999999987 543.5849999999999L175.70500000000038 541.6441999999995L178.01649999999995 542.1253499999995L179.83499999999992 543.0290499999995L182.962 550.3542499999998L190.34850000000006 553.7410999999997L198.42150000000004 553.9649999999995L199.33899999999994 557.8830999999997L196.096 567.8250499999996L195.95849999999984 574.1945499999997L198.68650000000002 576.1497499999996L201.3315 569.3155999999999L207.50650000000007 567.9999999999995L212.3984999999999 564.255L220.46899999999994 554.7150999999997L225.08050000000026 558.6638999999997L229.17399999999986 558.8763L235.94949999999983 554.5032999999995L239.3625000000003 555.3722499999998L245.4124999999999 562.2827999999998L246.08100000000036 562.9163L253.0830000000003 565.6769499999996L254.88 562.4860999999999L258.6790000000002 562.36425L259.8365000000001 556.2876999999997L263.92449999999997 555.1447499999995L271.1115000000001 547.4469499999998L269.17700000000025 543.9652999999998L270.0725 539.8971L271.94349999999986 537.3329999999999L271.164 534.0266499999996z">
      <title id="t69">Deuxième circonscription de Charente</title>
      <desc id="d69">Cantons de : Aubeterre-sur-Dronne, Baignes-Sainte-Radegonde, Barbezieux-Saint-Hilaire, Blanzac-Porcheresse, Brossac, Chalais, Châteauneuf-sur-Charente, Cognac Nord, Cognac Sud, Jarnac, Montmoreau-Saint-Cybard, Segonzac, Villebois-Lavalette</desc>
    </path><path class="circo" id="id-016-03" d="M152.28600000000029 129.79194999999947L148.51699999999994 128.44274999999982L142.53350000000012 129.95204999999999L137.14200000000005 127.00064999999995L132.61149999999986 129.99599999999987L134.72450000000038 136.88760000000002L139.89350000000002 139.38424999999995L137.44700000000023 144.38609999999983L134.17599999999993 145.73894999999993L134.44950000000006 147.5057499999997L135.59900000000027 151.31754999999998L141.18899999999996 151.74374999999998L141.64050000000032 159.69869999999958L144.06450000000007 162.76009999999985L148.08150000000012 163.1239499999998L148.87850000000014 164.98444999999947L147.47749999999996 166.44264999999962L144.42800000000034 171.96474999999964L145.1015000000001 176.11729999999966L143.66550000000018 177.6537499999995L137.9755 179.4359499999996L134.85450000000014 184.60825L136.90249999999992 184.71319999999992L139.00199999999984 194.68879999999956L132.34649999999988 207.76339999999948L133.8069999999999 213.92364999999984L130.51950000000033 219.76225L127.84100000000024 217.3927999999995L129.83450000000005 213.9839999999998L128.17049999999995 212.90274999999951L120.40400000000034 214.19369999999958L118.92699999999991 212.86369999999977L115.19800000000032 214.35519999999997L110.42250000000024 220.67880000000002L102.88299999999992 222.38139999999987L112.2784999999999 227.32474999999965L115.83900000000028 235.0091999999995L127.79650000000004 233.82929999999988L140.35000000000025 232.47569999999996L141.56450000000007 241.74244999999985L143.664 244.8969999999997L143.56850000000009 246.2122999999997L151.0835000000003 248.57609999999966L152.17300000000023 252.38509999999962L155.89699999999993 253.6373999999995L163.36000000000013 253.87119999999982L167.12750000000028 258.5183999999998L175.1555000000002 260.54839999999956L181.00300000000004 266.48124999999993L180.30849999999987 272.7373499999999L186.45449999999983 273.6847L184.87349999999992 276.36109999999974L174.9430000000001 277.73724999999956L171.43500000000017 282.5545999999997L167.49599999999987 281.98459999999955L165.56300000000022 285.26129999999966L163.6020000000002 284.83919999999955L162.45100000000036 286.57264999999995L166.27999999999986 287.82614999999964L171.63999999999987 296.3360499999999L176.0835000000003 300.6831999999997L181.94700000000012 300.79079999999976L188.67050000000006 296.68565L190.6450000000001 297.0431499999995L191.26450000000034 310.45714999999973L196.0374999999999 312.3667499999999L198.1925000000001 323.59729999999956L196.21450000000038 326.68894999999964L206.12750000000005 326.6628499999996L212.67350000000022 322.6926499999996L215.20500000000027 317.2648499999997L215.06500000000017 313.2230499999997L215.69700000000012 309.09749999999974L225.31600000000026 304.8322499999995L236.37850000000014 301.89059999999984L235.10899999999992 293.9274999999998L231.52750000000026 292.4930499999999L226.48450000000025 286.08239999999967L222.586 284.96204999999975L221.4145000000002 283.1311999999997L229.08349999999984 275.8452L230.43049999999994 267.4774499999995L232.93299999999988 264.0450499999997L236.69500000000028 266.75749999999994L239.9335000000002 266.5280999999999L248.1065000000001 258.0125499999997L256.6410000000002 252.8794499999998L257.17150000000004 247.26939999999956L260.2170000000001 245.8749499999999L261.52649999999994 242.15109999999981L269.60050000000024 236.6629499999999L275.0690000000003 234.61689999999976L276.8420000000003 235.54704999999956L279.7255000000001 238.1935999999996L283.9765 234.48594999999955L290.87800000000016 237.2215L288.2069999999999 245.27334999999994L293.14850000000035 249.24649999999986L295.43000000000006 254.9097999999998L310.47900000000027 266.88774999999964L310.84000000000003 267.20969999999966L318.6394999999999 264.6858999999995L320.92100000000016 261.2349499999999L327.9915 256.9557999999995L334.1810000000004 259.92024999999956L330.29600000000016 277.68009999999947L327.48050000000035 280.52224999999964L328.86149999999986 290.30624999999986L336.36799999999994 293.1242499999996L329.45100000000025 297.53445L327.39599999999996 297.1446999999995L330.1695000000001 302.76905L346.9625000000002 311.1098999999996L347.4459999999999 317.24294999999984L360.6015000000002 316.88504999999964L365.73450000000037 320.6401999999997L356.29050000000007 331.36994999999956L354.1225000000003 341.8061L350.78100000000006 344.45044999999993L342.3085000000003 343.66355L341.50750000000016 346.44254999999987L361.4175 357.63274999999965L365.75649999999996 361.9617499999998L366.3589999999999 366.03115L368.2035000000002 365.11184999999955L372.6140000000004 369.1924L387.80550000000005 375.16824999999983L391.40750000000025 374.1714999999999L394.7895 365.6391499999995L398.1805000000003 366.3770499999998L402.23000000000013 366.08334999999954L408.9055000000002 361.7869999999999L412.1350000000001 356.70834999999954L411.8860000000001 352.7792999999997L408.7465000000003 350.36869999999965L416.2895000000003 336.2349499999999L414.5320000000004 332.7171499999997L416.2125000000003 329.44079999999985L415.0094999999999 325.6859499999996L409.96399999999994 319.6553L409.52300000000037 317.09649999999954L411.5750000000003 317.6221499999997L412.9310000000004 315.9807999999998L414.7309999999999 309.86819999999966L420.3309999999999 303.5909499999997L424.40499999999986 302.93745L425.6925000000001 311.5219499999995L430.7925 308.2635499999998L436.78 308.07759999999973L441.4175 304.11189999999976L437.84100000000024 296.6145L446.3335000000001 291.85024999999996L446.7195000000004 287.8498499999995L452.0179999999999 285.38054999999986L450.40549999999996 282.2571499999998L452.75649999999985 279.2751999999996L453.9805000000001 271.7017499999997L455.69000000000017 272.94359999999983L461.60950000000014 267.01859999999954L464.4935000000004 259.31579999999997L466.0910000000001 255.7084999999995L469.5120000000003 257.6953999999995L471.2035000000003 256.66849999999954L473.2805000000002 251.12724999999955L472.09000000000003 249.5338499999997L474.32200000000023 244.21189999999967L479.5980000000003 244.19789999999978L480.00350000000026 238.84164999999996L492.3900000000003 230.36059999999964L499.31899999999985 229.9115999999998L500.6295 226.03674999999953L497.53750000000025 220.53314999999998L498.82299999999987 205.9332999999998L502.3104999999998 203.87135L512.4594999999999 204.60604999999987L516.6200000000003 209.03929999999946L520.7060000000001 209.1374499999995L524.2015000000004 214.29849999999988L528.0504999999999 214.56304999999986L529.9610000000001 211.2527L527.1764999999999 206.0265499999997L529.4655 202.7488999999997L529.255 194.83394999999973L535.1505000000003 189.05329999999992L545.772 166.43039999999985L540.043 164.56019999999967L548.4890000000001 156.79204999999968L542.6100000000002 148.1591999999995L543.648 135.6950999999998L540.6875000000002 132.9764499999999L542.0024999999998 127.15464999999995L546.1785000000003 126.9780499999996L553.0029999999999 131.95854999999995L557.2110000000004 131.56814999999995L562.8219999999999 134.17269999999974L572.8005000000002 131.71234999999967L582.0269999999999 123.16474999999969L588.27 123.09264999999982L588.9260000000002 118.18664999999953L590.6645000000003 117.09434999999985L589.3770000000001 115.50384999999949L590.7024999999999 113.93279999999947L596.9915000000003 109.23519999999996L597.7719999999999 101.23904999999979L594.0764999999999 99.55669999999998L594.0935000000002 89.89739999999983L587.2129999999999 85.98389999999995L589.7730000000001 78.87264999999957L583.5835000000003 74.39474999999959L576.8285000000003 71.23904999999979L576.4654999999999 67.71449999999959L573.4879999999998 65.70965000000001L565.1260000000002 75.0440999999995L563.0144999999999 74.79259999999954L560.7685000000004 66.9413499999996L556.0770000000002 62.79004999999984L544.4670000000002 55.81844999999987L543.9240000000001 49.891549999999825L547.9500000000002 45.30014999999992L545.0030000000004 37.74354999999957L548.3845000000002 32.45624999999961L548.3904999999999 31.075649999999655L550.5630000000002 27.626549999999952L550.5860000000001 21.231899999999655L547.2489999999999 15.746449999999754L542.1175 11.945099999999798L541.9100000000003 9.807599999999752L546.8144999999998 6.3624999999996135L540.3700000000003 1.3205499999997983L530.5610000000001 4.849549999999567L514.7050000000002 0.15024999999980082L506.7720000000003 2.389599999999632L499.5985000000002 0L499.40949999999987 0.33184999999946285L497.40700000000004 6.114149999999654L488.23199999999986 11.182949999999892L484.3439999999998 16.20809999999949L489.02150000000006 25.573999999999728L480.63800000000015 25.727849999999535L468.8965000000002 28.982199999999807L460.5925000000002 28.072749999999473L457.6400000000001 30.900350000000003L455.6645000000003 30.18214999999998L454.97799999999984 37.50639999999976L450.0170000000003 40.64384999999959L447.96550000000025 35.434849999999756L440.8480000000003 37.29319999999973L436.22799999999984 30.563299999999458L432.0285000000001 30.00319999999988L426.3405 32.742399999999634L425.16999999999996 26.584049999999593L418.16100000000006 16.30619999999965L411.1484999999999 12.004000000000019L413.0430000000001 4.30864999999983L407.32200000000034 2.2577499999999873L403.50750000000005 6.672799999999484L397.5800000000004 5.41499999999985L393.6095 16.92844999999977L390.52599999999984 19.66259999999977L388.5825 18.985249999999496L385.2359999999999 22.926749999999743L387.5880000000001 26.224299999999516L386.2760000000003 27.86315000000002L387.00950000000034 31.83119999999974L395.2834999999999 31.579949999999712L399.0250000000003 33.28714999999988L398.7299999999999 41.62649999999985L401.12799999999993 45.07659999999987L397.0640000000003 44.25209999999993L394.94399999999985 47.8078499999998L386.5500000000003 53.768199999999524L372.49750000000006 55.08240000000001L368.03049999999985 46.48359999999968L362.5370000000004 44.03829999999971L359.1084999999998 46.326799999999935L346.90049999999985 45.30014999999992L343.48400000000026 46.105649999999514L337.6150000000001 45.316100000000006L333.9224999999999 46.925849999999514L330.4675000000003 45.283000000000015L326.98450000000037 47.68169999999998L320.6650000000002 48.676999999999566L314.5395000000002 47.63574999999946L313.4590000000003 43.886999999999716L307.996 41.02980000000002L306.0149999999999 37.37774999999999L298.7125000000003 34.20509999999979L293.1875000000002 29.97069999999951L290.28549999999996 27.417599999999993L280.72299999999984 26.613499999999704L272.30099999999993 34.181199999999876L268.89850000000024 34.91094999999973L268.0450000000002 33.35704999999962L254.5690000000002 21.40844999999956L247.47850000000028 25.35644999999988L241.7610000000002 25.12474999999995L237.9509999999999 20.59804999999983L236.37800000000027 21.838149999999814L239.1595000000001 29.09189999999967L238.03499999999985 30.701799999999935L233.27699999999993 28.094199999999887L227.86 27.632699999999772L219.26350000000014 36.12049999999954L222.9955000000001 40.87789999999984L219.18200000000013 42.35674999999958L212.91200000000003 43.16599999999994L204.98199999999997 52.782849999999826L198.92499999999984 48.691049999999905L195.75649999999996 51.168499999999995L185.70750000000032 50.637499999999704L180.0569999999999 52.62180000000001L181.22299999999996 58.63579999999956L187.20500000000015 66.8023999999997L183.58900000000006 71.75134999999955L177.49950000000013 72.51089999999976L177.56599999999992 76.52879999999982L174.88350000000025 83.95564999999976L178.92750000000035 87.48769999999979L175.45050000000003 91.8231499999996L171.82950000000005 93.66184999999973L170.49050000000022 97.53354999999999L164.35150000000021 97.76169999999979L153.09650000000033 103.68754999999965L152.65750000000025 109.57879999999989L156.5719999999999 109.41919999999982L158.16550000000007 115.06429999999966L160.11750000000006 115.274L155.77600000000018 123.60719999999958L156.13249999999994 127.38810000000001L152.28600000000029 129.79194999999947z">
      <title id="t70">Troisième circonscription de Charente</title>
      <desc id="d70">Cantons de : Aigre, Chabanais, Champagne-Mouton, Confolens Nord, Confolens Sud, Hiersac, La Rochefoucauld, Mansle, Montbron, Montembœuf, Rouillac, Ruffec, Saint-Amand-de-Boixe, Saint-Claud, Villefagnan</desc>
    </path></svg>