<svg xmlns="http://www.w3.org/2000/svg" version="1.1" xmlns:xlink="http://www.w3.org/1999/xlink" xmlns:svgjs="http://svgjs.dev/svgjs" width="666.74375" height="780.36835" fill="#eeeeee" stroke="#cccccc" xmlns:sodipodi="http://sodipodi.sourceforge.net/DTD/sodipodi-0.dtd"><path class="circo" id="id-017-01" d="M194.375 67.03125L191.875 67.5L180.15625 72.03125L176.875 79.84375L166.5625 90.3125L154.375 97.34375L151.5625 102.8125L153.28125 103.90625L153.75 110.625L151.40625 114.375L147.5 115.9375L145 124.0625L139.21875 126.40625L137.5 127.65625L137.03125 129.84375L137.96875 131.71875L141.25 134.53125L143.125 135.46875L149.375 137.34375L151.40625 137.65625L161.40625 134.0625L167.8125 133.125L169.84375 133.59375L170.3125 135.625L166.875 138.28125L166.40625 142.34375L172.5 143.59375L175.78125 146.09375L177.03125 142.1875L181.09375 141.71875L184.0625 136.40625L192.03125 136.40625L195.9375 136.5625L205.15625 144.375L207.5 134.21875L217.65625 132.03125L223.125 128.90625L223.28125 128.75L222.8125 128.4375L225.15625 123.59375L223.28125 120.625L216.40625 110.625L220 96.5625L219.84375 96.25L216.25 88.125L210.3125 89.6875L205.15625 93.125L195 86.25L194.53125 85.46875L201.25 77.34375L200.15625 73.125L194.375 67.03125zM21.71875 69.53125L16.71875 73.59375L9.6875 77.96875L1.5625 77.34375L0 78.75L1.875 84.6875L8.125 92.96875L12.1875 102.8125L23.75 108.28125L37.5 103.4375L43.75 104.0625L64.21875 114.84375L75.15625 120.46875L84.6875 128.28125L89.0625 132.96875L102.1875 138.59375L108.28125 140L118.75 138.75L120.78125 139.375L129.6875 127.96875L121.71875 128.59375L118.59375 121.25L113.59375 112.34375L109.53125 111.09375L103.59375 112.96875L93.90625 105L84.0625 100.625L69.0625 102.96875L58.75 101.875L50.3125 96.40625L60.3125 93.125L62.1875 87.34375L44.6875 87.5L42.8125 88.28125L40.46875 93.59375L33.59375 98.4375L32.1875 102.03125L28.4375 100.15625L21.875 92.5L20.3125 86.25L20.3125 83.59375L23.59375 89.21875L25.625 89.6875L28.125 82.03125L30 82.03125L30.78125 86.09375L32.65625 86.875L36.25 84.84375L36.25 82.65625L33.90625 76.5625L28.125 70.3125L21.71875 69.53125z">
      <title id="t71">Première circonscription de Charente-Maritime</title>
      <desc id="d71">Cantons de : Ars-en-Ré, La Rochelle I, La Rochelle II, La Rochelle III, La Rochelle IV, La Rochelle V, La Rochelle VI, La Rochelle VII, La Rochelle VIII, La Rochelle IX, Saint-Martin-de-Ré</desc>
    </path><path class="circo" id="id-017-02" d="M270.15625 0L259.84375 5.9375L254.375 3.28125L250.46875 11.25L248.4375 12.03125L231.71875 10.9375L217.65625 17.03125L216.40625 13.125L208.125 27.03125L205.15625 29.84375L206.09375 31.71875L198.75 34.84375L190.78125 33.125L189.375 29.375L187.5 29.375L186.5625 34.53125L184.21875 37.34375L187.5 44.84375L191.875 67.5L194.375 67.03125L200.15625 73.125L201.25 77.34375L194.53125 85.46875L195 86.25L205.15625 93.125L210.3125 89.6875L216.25 88.125L219.84375 96.25L220 96.5625L216.40625 110.625L223.28125 120.625L225.15625 123.59375L222.8125 128.4375L223.28125 128.75L223.125 128.90625L217.65625 132.03125L207.5 134.21875L205.15625 144.375L195.9375 136.5625L192.03125 136.40625L184.0625 136.40625L181.09375 141.71875L177.03125 142.1875L175.78125 146.09375L177.65625 149.84375L184.0625 150.3125L185.625 151.875L186.5625 158.28125L179.375 161.5625L180.625 163.28125L190.625 165.46875L195.3125 169.53125L198.90625 179.53125L201.40625 194.21875L203.28125 195.15625L207.5 195.625L212.5 199.21875L215.3125 207.34375L213.59375 213.28125L216.71875 221.09375L216.71875 225.3125L212.96875 230.46875L200.3125 231.875L190.78125 225L188.125 226.5625L202.96875 240.46875L205.46875 250.78125L211.875 256.25L212.34375 256.25L215.3125 255.625L231.25 251.25L234.21875 245.78125L237.96875 244.21875L242.5 248.28125L241.09375 254.53125L235.78125 264.6875L235.46875 268.59375L248.4375 279.84375L258.125 278.59375L261.25 273.75L258.90625 267.96875L259.21875 261.5625L262.1875 258.90625L264.21875 259.6875L264.375 256.40625L271.40625 246.25L279.53125 234.53125L278.4375 224.0625L285.625 217.96875L290.9375 211.25L292.34375 204.84375L295.9375 199.375L303.90625 198.125L308.4375 194.0625L315.46875 204.0625L319.21875 202.96875L327.1875 191.71875L336.40625 203.28125L340.15625 205.15625L346.40625 204.6875L352.1875 207.5L355.625 200.15625L356.875 195L376.875 199.21875L382.34375 196.71875L381.71875 190.625L387.34375 188.4375L379.84375 181.5625L381.5625 175.625L387.34375 173.75L383.90625 166.40625L389.53125 167.5L395.46875 165.625L398.28125 162.65625L410.46875 159.375L420 163.28125L422.5 160L423.28125 157.96875L416.71875 152.8125L416.40625 142.1875L408.28125 140.3125L402.5 142.8125L397.1875 139.6875L395.46875 136.71875L396.5625 135L408.125 132.34375L403.75 128.75L399.53125 129.0625L394.53125 126.09375L390.78125 126.5625L385.625 123.4375L379.84375 115.3125L371.5625 115.9375L370.15625 110.3125L368.28125 109.53125L368.90625 107.5L372.8125 107.96875L374.21875 106.5625L372.5 96.71875L370.625 93.125L365.46875 90L344.84375 77.34375L343.75 73.28125L351.40625 63.4375L347.5 56.09375L343.4375 44.21875L345.3125 40.9375L341.25 36.09375L337.03125 35.625L334.53125 32.1875L322.96875 28.125L321.25 24.375L325.15625 20L324.6875 17.96875L313.4375 21.25L310.9375 17.8125L306.875 19.21875L303.59375 24.53125L305.15625 28.4375L303.4375 32.34375L297.5 31.875L298.4375 27.96875L296.71875 26.71875L294.375 29.84375L287.34375 27.1875L283.75 33.28125L276.5625 35.78125L275.3125 34.0625L267.34375 35.78125L256.875 29.21875L264.0625 18.90625L267.1875 6.5625L270.15625 0zM168.59375 212.34375L165.46875 212.96875L163.4375 220L163.75 222.1875L164.53125 222.8125L166.875 219.21875L166.875 216.09375L172.96875 216.25L172.34375 214.375L168.59375 212.34375z">
      <title id="t72">Deuxième circonscription de Charente-Maritime</title>
      <desc id="d72">Cantons de : Aigrefeuille-d'Aunis, Aytré, Courçon, La Jarrie, Marans, Rochefort Centre, Rochefort Nord, Rochefort Sud, Surgères</desc>
    </path><path class="circo" id="id-017-03" d="M615.92175 270.97064999999986L609.9382500000002 272.47995000000003L604.5467500000001 269.52855L600.0162499999999 272.5238999999999L602.1292500000004 279.41550000000007L607.29825 281.91215L604.8517500000003 286.9139999999999L601.58075 288.26685L601.8542500000001 290.03364999999974L603.0037500000003 293.84545L608.59375 294.27165L609.0452500000004 302.2265999999996L611.4692500000001 305.2879999999999L615.4862500000002 305.65184999999985L616.2832500000002 307.5123499999995L614.88225 308.97054999999966L611.8327500000004 314.4926499999997L612.5062500000001 318.6451999999997L611.0702500000002 320.18164999999954L605.38025 321.96384999999964L602.2592500000002 327.13615000000004L604.30725 327.24109999999996L606.4067499999999 337.2166999999996L599.7512499999999 350.2912999999995L601.2117499999999 356.4515499999999L597.9242500000004 362.29015000000004L595.2457500000003 359.92069999999956L597.2392500000001 356.51189999999986L595.57525 355.43064999999956L587.8087500000004 356.7215999999996L586.3317499999999 355.3915999999998L582.6027500000004 356.8831L577.8272500000003 363.20670000000007L570.28775 364.9092999999999L570.1252500000004 364.8282499999999L566.0252500000001 358.1088L565.0852500000002 354.3956499999996L561.7812500000002 353.00459999999987L562.37075 347.61255000000006L558.8347500000003 346.4614499999999L547.3577499999999 345.99199999999996L545.9062499999999 347.31074999999976L540.2362500000004 346.3498999999996L537.0737500000001 348.53189999999984L537.6807500000001 352.58339999999976L531.5722500000004 358.1575499999997L528.3212500000002 359.0912499999996L520.12475 357.78999999999996L508.76025000000027 362.0975999999996L507.0387500000004 361.52355L493.3977500000003 358.0179499999997L492.2722500000003 367.87125000000003L486.5432500000003 368.6797999999999L483.29724999999996 371.2045999999998L473.2782500000002 370.52219999999977L467.40475000000004 379.14274999999975L468.74075000000005 386.8019499999997L487.5142500000004 385.34464999999955L492.78025000000014 388.72254999999996L492.41075000000023 390.8074499999998L486.07925000000023 396.20244999999954L485.5962500000004 404.65089999999975L487.7042499999999 412.19484999999963L484.5047500000004 419.47974999999985L476.0617500000001 421.5262999999999L472.05025000000035 421.1533499999996L466.7557500000004 423.8044499999995L465.80325000000016 418.28059999999994L463.93925000000024 417.6612499999999L460.5612500000001 415.53965000000005L457.70825 413.0661999999995L454.09175000000005 414.1042999999996L452.20725000000016 410.93579999999974L446.5892500000001 410.9832499999999L444.72275000000025 407.72625000000005L441.1242500000003 406.4883499999996L432.0957500000003 406.71294999999986L435.79724999999996 408.4224499999999L437.63824999999997 411.93254999999965L437.45375000000024 416.0105999999996L433.81125 423.0568499999998L432.6802500000002 425.75034999999957L430.66925000000026 425.50095L429.50125000000014 421.63884999999993L421.84075000000007 415.14719999999954L419.56375000000037 409.62805000000003L416.01675 407.74329999999964L417.3512500000004 411.61614999999983L415.8702500000004 417.42579999999975L404.7862500000002 420.46654999999987L408.59725000000026 427.8153499999996L392.9692499999999 441.16404999999986L391.10725 444.8568L386.80475 440.03619999999955L379.29374999999993 443.4712999999999L370.2067500000004 435.55424999999957L372.80125 427.79044999999996L366.1317500000001 420.0369999999998L364.10075000000006 416.4632499999999L364.45425 412.4589499999996L362.78975 411.2376499999999L356.7402500000003 411.6605499999997L355.19025 413.1051499999995L354.8882500000002 419.3562499999996L351.44375000000025 421.77324999999996L345.1852500000001 422.00564999999983L338.11125000000004 418.2027499999998L334.80275000000006 415.0815L333.18625 409.9694499999998L343.98325 404.84384999999975L349.54925000000003 399.1404L347.4942500000003 396.8624L352.97325 394.37359999999956L345.5687499999999 384.85014999999976L337.5867500000004 385.92929999999967L334.91525000000024 388.88999999999953L331.1287500000003 383.62055L333.4932500000002 369.4041999999996L339.47625000000016 367.6506999999998L343.11424999999986 362.5162499999999L349.4982500000003 363.77219999999966L348.3392500000002 359.6464499999996L351.3347500000003 351.6409999999996L365.46875 343.4921499999996L367.38425000000007 344.3859999999995L374.2112500000002 351.93539999999985L379.82325000000003 349.5188999999999L381.4542499999999 350.43214999999975L383.98225000000025 353.34779999999967L384.53575 357.4980999999997L389.06675000000007 356.47474999999986L392.8302500000001 344.45794999999976L390.6642500000004 341.4414999999997L392.55525000000034 336.2196L387.0157499999999 327.7943499999998L381.4452499999999 325.38039999999967L376.4247499999999 327.76509999999973L375.0347500000004 326.27414999999985L373.8047499999999 323.52149999999995L372.93225000000007 318.08384999999987L365.4827499999999 316.24955L364.9667500000004 314.3540999999999L356.5657500000003 310.9767499999998L349.1127499999999 307.84194999999954L348.1327500000003 299.87615000000005L346.56875000000014 299.05314999999973L334.67975000000024 298.70270000000005L331.0557499999999 300.24734999999964L321.1517500000002 299.87184999999954L317.0247499999999 295.29444999999953L313.0997500000001 283.67500000000007L315.13675000000035 281.75329999999974L313.20825000000013 279.7869499999996L314.54925000000003 276.74215000000004L321.4587499999999 273.2729999999998L328.46925 275.3136999999998L337.98325000000034 261.0066999999998L338.0137500000001 250.3299499999997L339.31624999999997 248.60815000000002L338.53425000000016 243.49175000000002L340.00175000000013 242.34080000000006L337.69375000000025 239.9201499999998L335.07825000000025 234.85689999999977L337.7767499999999 227.1112999999997L344.4592499999999 222.63784999999984L345.40075 218.59894999999995L357.8332499999999 219.27705000000003L360.13675000000035 213.8770999999997L352.1237500000001 207.46375L355.55575000000033 200.21399999999971L356.82725000000005 194.95859999999993L376.8742500000002 199.2158999999998L382.32325000000003 196.75354999999968L381.6617500000001 190.67264999999963L387.29375000000005 188.43939999999975L379.8172500000004 181.62485000000004L381.53925000000015 175.65699999999993L387.4112500000001 173.69359999999972L383.9167500000002 166.4635499999997L389.59825000000023 167.48715000000004L395.4942500000004 165.6397499999997L398.24675000000013 162.60614999999973L410.50025000000005 159.2969499999998L419.96575000000007 163.2362999999998L422.5267500000001 159.93759999999952L423.2347500000003 157.93225000000007L416.6927500000003 152.74144999999976L416.43425000000036 142.16109999999958L418.0282500000004 136.82429999999954L423.57275000000016 139.86819999999966L431.83024999999986 139.5228499999996L437.5987500000002 142.0659999999998L440.35725000000014 144.6181999999999L441.0987499999999 148.52119999999957L447.04425000000015 149.15104999999983L443.9552500000002 151.5438499999999L447.51125 156.07209999999952L444.7777500000001 158.78074999999967L450.2012500000001 161.96429999999964L462.87874999999985 163.56239999999957L472.8502500000002 165.15674999999987L477.0572500000003 169.71259999999972L477.52925000000005 164.21709999999962L485.22474999999986 158.2675999999998L485.14175000000023 170.50379999999961L493.6292500000002 176.07304999999997L500.0087500000001 168.33544999999958L505.51725000000033 170.06010000000003L510.44925000000035 176.12329999999986L510.0847500000003 181.40179999999987L523.3417500000002 177.16559999999959L525.1937500000003 177.88185L535.4422500000004 179.43264999999997L539.6022500000004 174.6360999999996L545.2372500000001 180.57469999999967L548.2102500000002 192.56884999999954L565.20175 197.9929999999996L566.8767500000001 198.32734999999957L574.7172499999999 199.84964999999988L581.8417500000004 196.33654999999976L581.1917500000004 200.27584999999988L583.08425 200.96589999999992L583.8672500000001 211.66009999999972L594.3322499999999 205.76979999999992L592.9002500000001 213.27544999999986L594.9892499999999 216.01564999999994L594.4662500000004 219.84800000000007L596.8812500000001 224.57634999999982L602.71075 224.8003L606.09825 234.2751999999996L607.8947500000004 235.23984999999982L606.6142500000001 240.7862L614.3807500000003 241.42589999999984L620.5012500000004 246.2154499999997L620.0622500000003 252.10669999999993L623.9767499999999 251.94709999999986L625.5702500000001 257.5921999999997L627.5222500000001 257.80190000000005L623.1807500000002 266.1350999999996L623.53725 269.91600000000005L619.6907500000003 272.3198499999995L615.92175 270.97064999999986z">
      <title id="t73">Troisième circonscription de Charente-Maritime</title>
      <desc id="d73">Cantons de : Aulnay, Burie, Loulay, Matha, Saint-Hilaire-de-Villefranche, Saint-Jean-d'Angély, Saint-Savinien, Saintes Est (moins les communes de Colombiers et La Jard), Saintes Nord, Saintes Ouest, Tonnay-Boutonne</desc>
    </path><path class="circo" id="id-017-04" d="M527.5577500000003 510.9934499999997L527.6502500000004 506.7022499999996L531.3457500000004 505.5128499999995L538.2032500000003 493.06960000000004L528.3237500000001 483.7558999999999L524.4877500000001 480.74329999999975L523.3077500000002 479.14060000000006L519.3777499999999 479.6136999999999L517.3207500000001 474.57754999999963L511.7827500000004 472.9028999999997L504.3142499999999 465.78190000000006L502.5192500000003 459.78544999999997L499.6142500000002 455.2987999999999L491.80425000000014 459.8042499999997L487.8157500000003 461.12165000000005L480.6777500000004 456.64004999999975L490.4502500000001 437.36144999999965L496.0177500000003 439.5485499999995L501.7337500000002 437.8168999999997L501.8507500000004 435.6910499999998L489.76575000000025 420.8248499999996L484.5047500000004 419.47974999999985L476.0617500000001 421.5262999999999L472.05025000000035 421.1533499999996L466.7557500000004 423.8044499999995L465.80325000000016 418.28059999999994L463.93925000000024 417.6612499999999L460.5612500000001 415.53965000000005L457.70825 413.0661999999995L454.09175000000005 414.1042999999996L452.20725000000016 410.93579999999974L446.5892500000001 410.9832499999999L444.72275000000025 407.72625000000005L441.1242500000003 406.4883499999996L432.0957500000003 406.71294999999986L435.79724999999996 408.4224499999999L437.63824999999997 411.93254999999965L437.45375000000024 416.0105999999996L433.81125 423.0568499999998L432.6802500000002 425.75034999999957L430.66925000000026 425.50095L429.50125000000014 421.63884999999993L421.84075000000007 415.14719999999954L419.56375000000037 409.62805000000003L416.01675 407.74329999999964L417.3512500000004 411.61614999999983L415.8702500000004 417.42579999999975L404.7862500000002 420.46654999999987L408.59725000000026 427.8153499999996L392.9692499999999 441.16404999999986L391.10725 444.8568L386.80475 440.03619999999955L379.29374999999993 443.4712999999999L370.2067500000004 435.55424999999957L372.80125 427.79044999999996L366.1317500000001 420.0369999999998L364.10075000000006 416.4632499999999L364.45425 412.4589499999996L362.78975 411.2376499999999L356.7402500000003 411.6605499999997L355.19025 413.1051499999995L354.8882500000002 419.3562499999996L351.44375000000025 421.77324999999996L345.1852500000001 422.00564999999983L338.11125000000004 418.2027499999998L339.38424999999995 424.2789499999998L335.9472500000004 433.58394999999973L335.75725000000034 435.6764499999997L327.62625000000014 437.04279999999983L319.4342499999999 430.6465499999996L317.3252500000001 427.03134999999975L309.8407500000002 423.8306L298.35725000000025 428.43939999999975L293.3352500000001 434.8220999999995L292.78975 436.85554999999965L298.4937500000001 439.09074999999973L305.19825000000026 447.072L313.29724999999996 452.69934999999975L313.25725000000034 456.83269999999993L309.42375000000027 458.08209999999974L307.3742500000003 461.6387499999996L295.4947500000003 462.79624999999953L292.35175000000027 468.07230000000004L288.6627500000003 468.44044999999994L287.57025 466.8675999999999L286.00175000000036 457.50114999999994L283.54625 460.8713L281.46725000000004 461.00739999999973L273.23575000000005 454.7760999999997L271.28874999999994 458.4734499999996L261.50825 461.85564999999997L257.10725000000025 457.50174999999956L251.20425000000012 458.6928499999999L251.1337500000002 456.64184999999975L245.5607500000002 454.2108999999999L245.50275 450.1258999999999L240.29975000000036 447.03614999999957L241.72775000000001 441.1257499999999L240.03075000000024 439.9838999999997L232.33974999999987 437.66179999999963L220.3592500000002 437.09205L221.2242500000002 443.00134999999955L219.2307500000004 445.66839999999956L225.32975000000022 451.59824999999955L227.1237500000001 456.5066999999999L225.54975000000013 459.8303499999997L229.49825000000033 458.09184999999957L234.97524999999996 464.2167999999998L234.5127500000001 471.79434999999955L240.66525000000013 472.01239999999984L242.0172500000001 473.6026499999997L243.3407500000004 477.5554999999997L243.15375000000017 483.69759999999985L243.85875 485.66014999999993L245.94075000000032 485.61459999999954L251.28025000000036 493.71974999999964L257.7187500000002 498.9831499999997L261.66975000000036 500.23469999999975L265.0327500000003 497.7673999999996L269.0787499999999 498.07934999999986L273.3347500000002 500.97514999999987L278.40075000000013 508.68949999999984L276.93775000000016 510.53470000000004L282.8132500000004 514.9249499999996L284.8932500000001 513.3232499999997L287.30324999999993 514.21085L291.44925 520.1643999999999L300.4487499999999 523.98145L316.17925000000014 537.0124499999997L312.74775000000034 539.7314999999998L317.17375000000004 543.9706999999999L320.7917500000002 548.6365999999998L324.4167500000003 547.1171499999997L328.24625000000026 555.7881999999995L332.31425 561.6121499999997L335.7147500000002 563.5186999999996L338.6292500000002 568.8288499999999L344.1427500000003 579.1681999999997L348.2442500000002 590.8869999999996L355.3437500000001 616.7926499999999L357.40025 616.9511L355.71325 618.0616499999996L359.4507500000003 635.8565499999997L363.42175 636.4483999999999L363.24675000000013 636.6533499999997L387.76625000000024 639.6691499999997L391.38374999999996 644.1648999999995L394.96575000000007 642.1141499999999L405.9982500000001 638.7515500000001L411.5892500000001 640.4839999999996L411.7907500000001 634.1650499999997L415.4237499999999 627.3012999999997L422.4327500000004 634.2091499999998L420.3502500000002 646.7854499999999L422.9872499999999 654.8198499999995L428.1807500000002 655.2760499999999L431.04475000000036 657.4178499999999L436.9212500000003 657.8715499999998L446.0367500000001 661.4871999999997L457.68624999999986 657.1411L463.2257500000003 657.1084999999999L469.7422499999999 660.2952999999997L480.0237500000003 665.0003499999997L486.33275000000026 669.2384999999996L487.3932500000001 672.9586499999999L486.1197500000003 676.6227999999995L484.0337500000004 684.3260499999997L490.03625 684.68525L491.71775000000025 688.2412999999997L488.64125 699.6283999999997L486.09725000000026 707.36265L486.8357500000002 711.2885499999999L493.1472500000001 719.8427999999996L494.4707500000004 726.0675999999995L501.3027500000004 747.7903499999996L503.4177500000004 739.6450999999996L510.0992500000001 731.5033499999998L520.3362500000003 734.0116999999998L526.86825 739.4769499999995L530.9542500000003 751.2194L533.5377500000004 744.0240999999997L547.2197499999999 748.9526999999998L547.7477500000003 753.0847L549.6542500000004 753.9119L554.9892499999999 765.0898999999998L559.8372499999999 768.9490000000001L570.2222499999999 769.2223999999999L575.1167500000003 773.7536L582.8852499999999 777.0565999999997L595.43025 778.4160499999996L599.10325 780.36835L603.2457500000004 779.7085499999997L617.0617500000003 764.6339999999998L621.6457500000001 761.6634499999998L627.0307500000001 760.8978999999999L636.3622500000002 773.4699999999998L639.9872500000004 774.51165L641.4147500000001 773.2411999999999L644.6597500000001 775.2311499999996L647.1652499999999 772.4596499999996L646.6067500000003 766.2299999999999L651.6657500000002 757.0957499999997L648.6312500000003 749.3521999999996L665.49575 742.4391499999996L664.4232500000004 738.6951999999997L658.2782500000002 737.8001499999999L656.1492500000003 734.6392499999996L664.9632500000001 723.6490999999995L666.0912500000001 718.6776499999996L663.3632499999999 716.7224499999998L663.50075 710.3529499999996L666.74375 700.4109999999997L665.8262500000001 696.4928999999995L657.7532500000001 696.2689999999998L650.36675 692.8821499999998L647.23975 685.5569499999996L645.42125 684.6532499999995L643.1097500000004 684.1720999999995L631.5447499999999 686.1129L621.7467500000004 685.3933499999999L615.21075 684.6230499999996L616.3692500000002 680.9923499999996L618.0037500000003 659.5014999999995L608.9347500000002 656.5677499999998L602.5062500000001 660.4282000000001L601.5197499999999 653.6349999999999L600.0922500000001 652.25975L595.5157500000001 649.2359499999998L588.4792500000003 648.2291999999995L580.8662500000003 649.7683499999999L578.5752500000001 646.5394999999995L567.0302500000003 640.1702499999999L566.3397500000002 644.2622L562.2092500000002 644.42115L555.09725 647.9717499999998L554.8022500000002 653.9902999999998L543.89925 648.2358499999998L543.3812499999999 639.9291L540.7402500000001 637.1411999999998L545.5852500000003 631.6644499999995L544.58775 630.1317499999999L544.1047500000002 629.7483999999997L546.10975 624.2589999999996L552.0432500000004 629.3148499999995L557.7162500000003 627.92415L559.5957500000003 624.4845499999997L559.3552500000004 618.3567999999997L549.0357499999999 618.3047999999997L545.4342500000001 620.1446999999996L544.4652500000001 614.4613999999996L540.7837499999999 613.2139999999998L538.7687500000004 610.3706999999997L534.9247500000001 609.8068499999999L532.2247500000003 606.9595999999996L532.4227500000001 600.7669999999996L535.72475 601.1028499999998L536.4007500000002 599.5741999999996L542.5507500000003 599.6274499999998L545.88975 597.1594499999998L547.4102500000004 593.3051999999998L557.4032500000004 591.456L558.5147499999999 587.4000999999998L564.77125 587.2130499999997L563.6517500000002 581.5133499999996L557.4742500000002 581.3970999999998L557.0412500000003 575.3573L558.71825 571.5490499999999L556.1417499999999 568.2879499999996L556.0627500000004 566.7626999999999L551.2467500000002 562.9273999999998L550.2007500000002 558.9468999999997L546.4712500000002 557.2018499999996L542.6122500000002 558.64575L544.8632500000002 547.8256499999998L550.72475 549.4881499999997L557.4172500000003 537.3282999999998L561.1877500000003 538.1728499999997L562.0272499999999 535.5264L560.3447499999999 534.3494999999996L560.3097500000001 530.2965499999999L556.2172500000003 530.5257499999999L551.4292499999999 526.6960999999998L555.9932500000002 520.4391999999996L551.1327499999999 516.9996999999995L543.5977500000001 520.4404L544.8237499999999 516.6387499999996L541.4317500000004 514.3473499999999L535.3982500000001 514.9777L528.2847500000003 511.03954999999985L527.5577500000003 510.9934499999997z">
      <title id="t74">Quatrième circonscription de Charente-Maritime</title>
      <desc id="d74">Cantons de : Archiac, Cozes, Gémozac, Jonzac, Mirambeau, Montendre, Montguyon, Montlieu-la-Garde, Pons, Royan Est, Saint-Genis-de-Saintonge</desc>
    </path><path class="circo" id="id-017-05" d="M327.1875 191.71875L319.21875 202.96875L315.46875 204.0625L308.4375 194.0625L303.90625 198.125L295.9375 199.375L292.34375 204.84375L290.9375 211.25L285.625 217.96875L278.4375 224.0625L279.53125 234.53125L271.40625 246.25L264.375 256.40625L264.21875 259.6875L262.1875 258.90625L259.21875 261.5625L258.90625 267.96875L261.25 273.75L258.125 278.59375L248.4375 279.84375L235.46875 268.59375L235.78125 264.6875L241.09375 254.53125L242.5 248.28125L237.96875 244.21875L234.21875 245.78125L231.25 251.25L215.3125 255.625L212.34375 256.25L211.875 256.25L211.09375 258.28125L200.625 258.90625L197.5 261.25L206.25 266.5625L207.65625 272.65625L207.65625 281.40625L204.6875 289.53125L197.34375 299.6875L197.5 301.71875L194.21875 308.90625L187.96875 314.53125L173.59375 311.5625L174.84375 318.90625L166.09375 315.9375L168.59375 323.4375L173.90625 322.65625L175.625 331.25L180 335.9375L182.8125 345.46875L180.15625 350.3125L178.28125 351.5625L172.5 348.75L159.21875 355.78125L150.9375 354.0625L140.3125 356.25L136.875 358.59375L136.25 371.5625L139.0625 415L141.5625 423.28125L145.9375 429.0625L153.28125 427.8125L145.625 426.09375L144.0625 421.875L141.5625 414.84375L145.9375 413.4375L150.15625 413.4375L176.5625 431.25L191.09375 443.125L204.21875 448.75L206.09375 447.8125L214.53125 455.9375L216.25 454.84375L218.28125 458.4375L222.03125 460.3125L225.625 459.84375L227.1875 456.5625L225.3125 451.5625L219.21875 445.625L221.25 442.96875L220.3125 437.03125L232.34375 437.65625L240 440L241.71875 441.09375L240.3125 447.03125L245.46875 450.15625L245.625 454.21875L251.09375 456.71875L251.25 458.75L257.03125 457.5L261.5625 461.875L271.25 458.4375L273.28125 454.84375L281.40625 460.9375L283.59375 460.9375L285.9375 457.5L287.5 466.875L288.59375 468.4375L292.34375 468.125L295.46875 462.8125L307.34375 461.5625L309.375 458.125L313.28125 456.875L313.28125 452.65625L305.15625 447.03125L298.4375 439.0625L292.8125 436.875L293.28125 434.84375L298.28125 428.4375L309.84375 423.90625L317.34375 427.03125L319.375 430.625L327.65625 437.03125L335.78125 435.625L335.9375 433.59375L339.375 424.21875L338.125 418.125L334.84375 415.15625L333.125 410L343.90625 404.84375L349.53125 399.0625L347.5 396.875L352.96875 394.375L345.625 384.84375L337.65625 385.9375L334.84375 388.90625L331.09375 383.59375L333.4375 369.375L339.53125 367.65625L343.125 362.5L349.53125 363.75L348.28125 359.6875L351.40625 351.71875L365.46875 343.4375L367.34375 344.375L374.21875 351.875L379.84375 349.53125L381.40625 350.46875L383.90625 353.28125L384.53125 357.5L389.0625 356.40625L392.8125 344.53125L390.625 341.40625L392.5 336.25L387.03125 327.8125L381.40625 325.3125L376.40625 327.8125L375 326.25L373.75 323.59375L372.96875 318.125L365.46875 316.25L365 314.375L356.5625 310.9375L349.0625 307.8125L348.125 299.84375L346.5625 299.0625L334.6875 298.75L331.09375 300.3125L321.09375 299.84375L317.03125 295.3125L313.125 283.75L315.15625 281.71875L313.28125 279.84375L314.53125 276.71875L321.40625 273.28125L328.4375 275.3125L337.96875 260.9375L337.96875 250.3125L339.375 248.59375L338.59375 243.4375L340 242.34375L337.65625 239.84375L335.15625 234.84375L337.8125 227.1875L344.53125 222.65625L345.46875 218.59375L357.8125 219.21875L360.15625 213.90625L352.1875 207.5L346.40625 204.6875L340.15625 205.15625L336.40625 203.28125L327.1875 191.71875zM64.6875 199.21875L68.4375 215.78125L74.6875 229.375L71.5625 241.875L74.84375 249.84375L75 256.25L79.375 260.9375L93.90625 276.71875L111.25 288.75L115.15625 289.53125L124.84375 300.9375L128.59375 308.59375L131.71875 322.1875L134.84375 343.59375L136.71875 347.5L140.46875 349.375L155.3125 331.25L150.9375 319.0625L158.90625 297.34375L152.65625 288.59375L147.65625 284.6875L140 272.1875L141.875 268.4375L141.71875 262.34375L137.1875 255.625L137.34375 251.5625L140.15625 248.59375L139.21875 246.71875L138.4375 238.59375L134.21875 234.0625L113.28125 234.21875L105.3125 231.25L101.875 226.25L87.65625 213.125L82.34375 209.53125L80.78125 203.59375L64.6875 199.21875z">
      <title id="t75">Cinquième circonscription de Charente-Maritime</title>
      <desc id="d75">Cantons de : Le Château-d'Oléron, Marennes, Royan Ouest, Saint-Agnant, Saint-Pierre-d'Oléron, Saint-Porchaire, Saujon, Tonnay-Charente, La Tremblade</desc>
    </path></svg>