<svg xmlns="http://www.w3.org/2000/svg" version="1.1" xmlns:xlink="http://www.w3.org/1999/xlink" xmlns:svgjs="http://svgjs.dev/svgjs" width="554.5919999999995" height="753.6087000000003" fill="#eeeeee" stroke="#cccccc" xmlns:sodipodi="http://sodipodi.sourceforge.net/DTD/sodipodi-0.dtd"><path class="circo" id="id-018-01" d="M376.62349999999947 286.04899999999986L368.21349999999995 292.59254999999996L373.3884999999998 299.51850000000036L386.29099999999994 301.38270000000034L388.03499999999985 302.7150499999999L387.26699999999994 307.0103499999999L387.6245 310.88464999999985L383.4129999999999 310.79470000000015L381.9504999999998 312.33655L376.90949999999987 324.04870000000017L369.7864999999996 334.30025L367.2429999999997 336.85235000000034L362.0569999999998 334.9432999999999L352.23749999999995 329.90414999999985L340.66299999999956 320.12535000000014L334.60049999999967 321.56994999999995L328.9609999999999 327.44894999999985L321.1764999999997 318.0485500000003L319.15749999999946 318.8143500000001L316.32799999999975 324.6401000000003L314.85799999999983 326.22315000000015L310.97999999999956 328.1196L309.8259999999999 329.9422500000003L311.1859999999996 335.95399999999984L306.4794999999998 340.37360000000035L295.3144999999995 338.8056L296.4454999999998 353.7218999999999L291.81599999999946 358.1965500000001L287.86899999999946 363.10474999999997L292.52999999999986 372.6296000000002L290.8224999999999 373.8393000000002L276.70049999999947 357.3246499999999L268.85249999999985 347.0985999999999L265.47649999999976 344.9368000000004L262.75049999999965 345.86360000000013L261.6669999999999 349.9613500000004L259.3254999999999 347.4036000000001L255.70599999999956 346.56859999999995L237.81299999999987 348.58205L233.5699999999997 348.2475500000004L239.25099999999986 343.08005000000037L235.61599999999999 339.1826500000002L245.8729999999997 341.05835000000013L262.1554999999995 335.57255L261.6659999999996 330.87850000000003L266.43699999999967 327.54655000000014L271.4269999999999 332.7507000000003L280.69849999999974 325.62430000000006L288.79899999999964 318.4883000000002L286.0854999999998 316.07219999999984L277.48699999999985 317.106L267.4309999999997 313.5759999999999L260.03449999999987 316.29895000000033L257.17899999999986 311.0396000000003L237.1524999999997 308.0875500000002L236.48699999999963 303.6711500000001L232.2094999999996 298.6104L217.37199999999973 289.2306000000002L213.01349999999957 289.93515L212.67649999999946 283.76874999999984L220.84299999999985 280.8010999999999L221.5549999999996 274.4041500000003L216.52499999999975 270.61440000000005L213.8394999999997 264.87734999999986L207.6574999999997 264.31489999999997L204.54899999999952 261.50570000000016L204.9799999999999 245.8268000000004L209.56399999999974 238.50144999999998L215.37649999999985 235.61804999999993L218.18749999999966 220.68989999999985L223.596 217.51115000000027L230.94049999999982 221.50180000000034L234.56899999999962 211.22725000000003L232.55749999999978 198.2892000000004L234.90949999999998 192.38225L231.58799999999985 179.76485000000025L233.2039999999995 171.2290999999999L212.11899999999957 167.75694999999985L210.46749999999975 166.36585000000025L210.87399999999946 162.1589499999999L204.98249999999985 159.81240000000014L203.26949999999954 153.7322499999999L195.53799999999967 150.61860000000024L195.779 146.3946500000003L192.39649999999983 141.01220000000012L193.77849999999967 139.41020000000037L199.43299999999965 134.82680000000016L200.711 117.5024000000002L197.2864999999996 112.11524999999995L199.98599999999954 106.47640000000024L197.1044999999998 100.82210000000032L201.15549999999985 86.48910000000001L195.73649999999986 83.57984999999985L189.12599999999998 84.1542000000004L179.19299999999964 88.89745000000005L187.02199999999948 68.43504999999993L179.82649999999978 52.260800000000245L178.21749999999952 50.71875000000034L151.6999999999996 49.37999999999988L149.06649999999956 45.81504999999993L150.13649999999984 37.26415000000031L146.6814999999997 29.062000000000126L154.55249999999978 25.36755000000028L162.28599999999972 17.659100000000194L179.6954999999997 13.624250000000302L193.09349999999995 5.686699999999973L197.52949999999998 5.093350000000214L218.95799999999952 0L220.6469999999996 4.054800000000114L226.42549999999972 7.397300000000087L233.34699999999998 12.921350000000302L241.7919999999998 15.493900000000167L248.93149999999991 23.956600000000208L254.2579999999998 27.493000000000052L257.2189999999995 24.24775000000011L263.4394999999995 22.781249999999886L266.01399999999956 19.215950000000248L282.04949999999997 12.157950000000142L286.0239999999999 14.172700000000304L289.84099999999955 22.202700000000277L304.2444999999998 36.104400000000396L304.6939999999995 38.2959500000004L311.1499999999995 38.42449999999985L317.01299999999947 35.72895000000017L329.64549999999974 34.25920000000019L337.0894999999996 38.17565000000002L339.7819999999996 43.7569000000002L347.88599999999974 44.69470000000001L353.8764999999995 50.35040000000038L357.9774999999995 57.01745000000017L355.976 64.68270000000018L374.6139999999997 74.74739999999997L375.3524999999996 87.54265000000032L380.3559999999999 90.92385000000036L387.57299999999987 91.86219999999992L399.56349999999986 88.05209999999988L405.0174999999996 81.98514999999986L402.6174999999995 78.51055000000031L404.05749999999955 76.95400000000006L403.4004999999996 66.57910000000015L404.90849999999966 58.49375000000009L406.89299999999946 57.31400000000008L411.51549999999986 64.60215000000005L419.957 65.58404999999993L427.34099999999955 70.15185000000031L434.8169999999999 82.95960000000036L438.62599999999986 84.77380000000039L447.0319999999998 82.50040000000013L453.3879999999999 73.85575000000017L467.58699999999976 68.43760000000032L473.94049999999993 76.40345000000025L475.13949999999966 81.92920000000015L477.1659999999997 90.62890000000039L483.4959999999995 98.3480000000003L486.52799999999957 106.05270000000019L486.7999999999995 107.24075000000028L491.78549999999973 118.59075000000018L491.7829999999998 122.73160000000018L487.3524999999995 129.4261499999999L486.77449999999965 137.56259999999997L474.35749999999985 165.48294999999996L469.7784999999999 172.67454999999984L465.72599999999966 180.3212000000002L467.19149999999956 188.62385000000017L470.8994999999999 195.57155000000023L478.1389999999999 198.88035000000002L483.88049999999964 201.65535000000034L488.28949999999963 206.33980000000008L496.0364999999996 216.17099999999994L509.62999999999965 225.70055000000025L490.1944999999995 229.09584999999993L484.6134999999998 234.95870000000025L478.72499999999945 235.26425000000017L476.7524999999995 243.85680000000036L478.1004999999999 252.54475000000014L474.2274999999995 262.8252500000002L477.8724999999997 267.74879999999996L476.15999999999985 271.69835000000035L470.7909999999998 274.0820500000001L462.8359999999998 266.9993500000004L460.7374999999996 267.5161000000003L459.13549999999987 263.6379500000004L453.8074999999998 261.0521L451.3144999999997 253.07420000000036L445.2914999999996 247.23270000000014L438.58199999999954 257.9422500000004L424.42799999999977 271.17110000000025L418.1284999999997 272.7160500000002L418.0404999999996 273.3077000000003L408.86349999999993 285.36249999999995L389.504 288.21905000000015L376.62349999999947 286.04899999999986z">
      <title id="t76">Première circonscription du Cher</title>
      <desc id="d76">Cantons de : Les Aix-d'Angillon, Argent-sur-Sauldre, Aubigny-sur-Nère, Bourges II, Bourges IV, Bourges V, La Chapelle-d'Angillon, Henrichemont, Léré, Saint-Martin-d'Auxigny, Sancerre, Vailly-sur-Sauldre</desc>
    </path><path class="circo" id="id-018-02" d="M132.85599999999988 411.47235000000023L134.46849999999984 415.1047L131.80399999999963 420.12035000000026L130.44349999999952 421.3589000000002L125.69799999999987 422.74310000000014L125.90299999999957 435.44280000000015L142.7479999999997 448.42145000000016L156.90999999999974 445.83804999999984L161.7229999999995 449.3497000000002L155.3924999999998 462.9274000000004L149.49899999999957 469.1347000000002L154.16849999999954 476.12535000000037L155.52599999999984 490.6895000000003L162.46649999999988 495.04515000000026L172.83499999999947 481.65205000000014L178.73849999999948 464.1979500000002L187.0414999999997 470.58095000000037L199.4704999999999 473.03435000000036L204.02949999999976 468.82565L204.78399999999965 464.7483L202.0354999999995 458.0600500000003L203.57799999999997 457.05925000000036L202.57349999999974 455.93770000000006L206.995 448.6752999999999L217.08899999999971 445.31600000000026L218.24149999999975 436.7772500000001L227.10649999999987 430.33735000000036L222.16499999999996 421.27170000000035L215.50449999999955 416.48169999999993L215.05499999999984 414.4333499999999L204.90249999999946 414.8923500000001L205.25349999999946 411.2045499999999L216.44299999999987 401.6271499999999L220.5034999999998 401.04085L226.55149999999992 402.6420999999999L232.0429999999999 399.3517000000003L233.52049999999963 398.1833499999999L233.73999999999967 393.09214999999995L237.46099999999956 392.5667500000003L235.33599999999979 386.68679999999995L240.28699999999958 375.26729999999986L235.5574999999999 362.6731000000001L235.46099999999967 360.5453L241.03449999999953 357.44230000000016L241.91899999999976 353.36810000000014L237.81299999999987 348.58205L233.5699999999997 348.2475500000004L239.25099999999986 343.08005000000037L235.61599999999999 339.1826500000002L245.8729999999997 341.05835000000013L262.1554999999995 335.57255L261.6659999999996 330.87850000000003L266.43699999999967 327.54655000000014L271.4269999999999 332.7507000000003L280.69849999999974 325.62430000000006L288.79899999999964 318.4883000000002L286.0854999999998 316.07219999999984L277.48699999999985 317.106L267.4309999999997 313.5759999999999L260.03449999999987 316.29895000000033L257.17899999999986 311.0396000000003L237.1524999999997 308.0875500000002L236.48699999999963 303.6711500000001L232.2094999999996 298.6104L217.37199999999973 289.2306000000002L213.01349999999957 289.93515L212.67649999999946 283.76874999999984L220.84299999999985 280.8010999999999L221.5549999999996 274.4041500000003L216.52499999999975 270.61440000000005L213.8394999999997 264.87734999999986L207.6574999999997 264.31489999999997L204.54899999999952 261.50570000000016L204.9799999999999 245.8268000000004L209.56399999999974 238.50144999999998L215.37649999999985 235.61804999999993L218.18749999999966 220.68989999999985L223.596 217.51115000000027L230.94049999999982 221.50180000000034L234.56899999999962 211.22725000000003L232.55749999999978 198.2892000000004L234.90949999999998 192.38225L231.58799999999985 179.76485000000025L233.2039999999995 171.2290999999999L212.11899999999957 167.75694999999985L210.46749999999975 166.36585000000025L210.87399999999946 162.1589499999999L204.98249999999985 159.81240000000014L203.26949999999954 153.7322499999999L195.53799999999967 150.61860000000024L195.779 146.3946500000003L192.39649999999983 141.01220000000012L193.77849999999967 139.41020000000037L182.91549999999972 140.32080000000008L175.86599999999976 121.71494999999993L153.9564999999999 140.16819999999996L144.7369999999995 130.64729999999997L145.5559999999997 137.35535000000027L139.5259999999996 149.40195000000017L137.1229999999997 164.97405000000015L143.1975 163.26655000000017L144.5949999999999 164.84415000000013L149.71149999999966 178.39305000000024L146.60349999999994 185.9092000000004L150.48599999999965 187.36220000000003L153.24599999999975 193.2424500000002L158.75749999999982 196.61350000000027L162.65199999999993 206.73524999999984L155.32399999999996 210.9835000000004L152.34299999999962 218.6545000000001L144.4229999999999 219.91559999999993L141.9784999999996 216.5644500000002L135.89949999999988 216.02505000000008L127.02549999999974 216.47800000000018L107.28449999999953 226.72709999999995L106.28599999999949 228.7238000000002L102.47199999999964 226.7020500000001L94.41949999999963 228.32609999999988L85.64249999999959 222.0499000000001L85.58499999999981 221.9659999999999L70.9439999999995 213.0952000000002L63.137499999999704 223.41610000000003L63.00099999999986 229.51419999999985L51.44399999999962 235.18284999999992L50.125999999999635 238.97289999999998L57.406499999999596 242.07825000000014L60.006499999999505 248.0902500000002L56.89649999999972 256.41099999999994L54.53649999999982 259.99840000000006L42.875999999999976 265.0524999999999L33.42149999999947 256.6375500000004L27.46749999999963 257.40099999999984L26.77249999999958 270.5024000000003L28.809999999999718 283.50239999999985L20.87949999999978 285.75890000000015L16.7734999999999 290.3858500000001L15.552999999999884 292.4475000000001L14.12399999999991 298.8960000000003L0 312.76760000000024L2.781999999999698 313.8996000000003L9.083499999999844 318.9773500000001L14.885999999999626 318.2253000000003L22.949499999999716 318.67255L30.6959999999998 325.12035000000026L46.163499999999544 331.6555500000004L48.21649999999977 329.00064999999984L50.27099999999962 329.62379999999996L56.07349999999997 326.91194999999993L61.970999999999776 329.45584999999994L69.17099999999948 325.1522L73.46749999999986 321.5631000000002L80.19499999999994 316.87365L85.18199999999979 318.8387L94.44149999999979 315.1146L95.96299999999985 323.28305L99.9354999999997 324.93674999999996L97.75799999999947 330.9687500000001L98.65449999999953 334.9651499999999L107.00499999999977 334.1754000000003L107.20499999999959 329.9004500000001L109.12099999999953 328.9157499999999L115.53499999999985 328.19079999999985L118.64049999999963 331.0318000000001L116.45600000000002 334.43070000000034L119.51399999999978 346.50514999999984L118.51599999999962 350.6132500000001L114.79799999999955 352.6075000000003L112.22399999999993 358.2851500000004L108.34799999999973 365.96524999999986L109.21199999999999 367.9480000000001L115.48849999999959 368.03465000000017L118.5915 370.52369999999996L123.32449999999994 376.9352500000002L127.20749999999953 378.2764000000003L131.15399999999966 382.73775L137.0399999999995 386.6151000000002L142.12599999999952 396.10270000000014L136.1624999999998 400.91125000000034L136.06349999999964 406.4604000000003L132.85599999999988 411.47235000000023z">
      <title id="t77">Deuxième circonscription du Cher</title>
      <desc id="d77">Cantons de : Bourges I, Chârost, Graçay, Lury-sur-Arnon, Mehun-sur-Yèvre, Saint-Doulchard, Vierzon I, Vierzon II</desc>
    </path><path class="circo" id="id-018-03" d="M352.23749999999995 329.90414999999985L340.66299999999956 320.12535000000014L334.60049999999967 321.56994999999995L328.9609999999999 327.44894999999985L321.1764999999997 318.0485500000003L319.15749999999946 318.8143500000001L316.32799999999975 324.6401000000003L314.85799999999983 326.22315000000015L310.97999999999956 328.1196L309.8259999999999 329.9422500000003L311.1859999999996 335.95399999999984L306.4794999999998 340.37360000000035L295.3144999999995 338.8056L296.4454999999998 353.7218999999999L291.81599999999946 358.1965500000001L287.86899999999946 363.10474999999997L292.52999999999986 372.6296000000002L290.8224999999999 373.8393000000002L276.70049999999947 357.3246499999999L268.85249999999985 347.0985999999999L265.47649999999976 344.9368000000004L262.75049999999965 345.86360000000013L261.6669999999999 349.9613500000004L259.3254999999999 347.4036000000001L255.70599999999956 346.56859999999995L246.41599999999983 347.56820000000005L237.81299999999987 348.58205L241.91899999999976 353.36810000000014L241.03449999999953 357.44230000000016L235.46099999999967 360.5453L235.5574999999999 362.6731000000001L240.28699999999958 375.26729999999986L235.33599999999979 386.68679999999995L237.46099999999956 392.5667500000003L233.73999999999967 393.09214999999995L233.52049999999963 398.1833499999999L232.0429999999999 399.3517000000003L226.55149999999992 402.6420999999999L220.5034999999998 401.04085L216.44299999999987 401.6271499999999L205.25349999999946 411.2045499999999L204.90249999999946 414.8923500000001L215.05499999999984 414.4333499999999L215.50449999999955 416.48169999999993L222.16499999999996 421.27170000000035L227.10649999999987 430.33735000000036L218.24149999999975 436.7772500000001L217.08899999999971 445.31600000000026L206.995 448.6752999999999L202.57349999999974 455.93770000000006L203.57799999999997 457.05925000000036L202.0354999999995 458.0600500000003L204.78399999999965 464.7483L204.02949999999976 468.82565L199.4704999999999 473.03435000000036L187.0414999999997 470.58095000000037L178.73849999999948 464.1979500000002L172.83499999999947 481.65205000000014L162.46649999999988 495.04515000000026L155.52599999999984 490.6895000000003L154.16849999999954 476.12535000000037L149.49899999999957 469.1347000000002L145.11349999999993 469.22300000000007L140.4499999999996 473.90535L134.22599999999989 476.15954999999985L133.24599999999975 477.82804999999996L135.13599999999997 485.9380500000003L128.93399999999986 495.15265L126.81149999999946 495.3682500000002L123.36500000000001 497.2718500000002L115.52449999999965 496.79534999999987L116.26099999999951 498.6770999999999L126.27799999999979 512.6402999999999L140.1495 522.7607L144.65449999999976 529.9983500000002L144.3154999999996 534.0422999999998L135.9409999999997 546.08315L125.66149999999993 548.4261500000002L123.80599999999959 554.4407999999999L127.4109999999996 559.43555L134.1229999999996 563.2490000000001L135.02349999999979 565.1258000000001L132.87799999999947 573.0659000000003L138.72050000000002 575.5216999999999L142.64599999999973 573.8754499999999L146.77449999999965 574.8448500000001L150.58449999999993 576.8003500000003L155.8544999999998 583.5504000000003L161.92799999999977 585.64415L154.20299999999997 597.9390000000001L155.2434999999997 602.0992000000001L160.33299999999997 605.99265L166.73099999999977 613.4123L170.6389999999999 612.4731000000003L172.3554999999999 616.1517500000002L176.3779999999997 616.62285L172.90399999999977 626.7409500000002L175.48749999999984 632.7712500000001L174.32399999999973 641.1122499999999L172.67849999999953 642.51645L168.05299999999988 645.6617499999999L166.89949999999953 649.5111500000002L169.67499999999973 663.8133500000004L163.31049999999948 669.0742499999999L172.9804999999999 687.8346500000004L173.53349999999978 696.2891999999999L174.80349999999987 700.1130499999999L178.61099999999965 700.641L179.8505 708.0730499999999L182.47299999999996 710.9869000000003L180.933 716.4669500000002L180.93549999999993 716.7446999999999L177.97049999999956 722.6212500000003L160.20849999999996 730.60925L161.8504999999999 744.8608999999999L167.1719999999999 751.3453500000003L174.4444999999996 751.9138500000003L179.9414999999999 748.7421L189.63949999999954 751.6487000000001L203.6685 750.3742499999998L205.0725 751.9268L215.30949999999962 753.6087000000003L214.19799999999952 749.4099L216.8474999999995 734.51865L225.68699999999978 719.6652L230.58799999999962 723.9405500000004L234.99299999999948 720.8742000000001L235.95749999999953 715.7195000000002L233.96499999999946 712.0678000000004L237.90449999999964 704.7743000000003L245.1585 697.2736000000003L252.39299999999957 693.1159000000002L259.1074999999995 693.2017500000001L272.08549999999946 691.63475L277.68449999999973 688.4561000000002L281.98999999999955 688.88665L285.4789999999997 691.5044499999999L295.77999999999975 688.1237500000003L301.1114999999995 684.3059500000004L306.8904999999995 685.2586000000002L306.90549999999973 689.4302500000003L308.46649999999954 690.8219000000003L312.51499999999965 690.0176500000003L315.0004999999999 686.6652500000004L319.0514999999999 686.2952000000001L323.9444999999995 692.3290000000003L340.9024999999997 680.70765L355.5654999999996 672.6805999999999L356.51599999999974 670.7949500000001L353.2824999999997 665.4181L354.4124999999997 659.4283000000001L350.2139999999997 645.6011000000001L344.01999999999987 646.0452000000004L341.2545 638.5350499999998L337.4304999999998 636.8900500000001L346.0469999999998 632.2143499999999L344.32249999999954 626.3894500000004L349.3059999999997 619.9767000000003L347.9354999999998 613.8741500000003L336.84049999999957 610.2206000000001L338.35199999999986 606.0193000000004L353.4839999999997 599.8063999999999L353.8599999999997 603.9311000000004L361.0319999999996 607.6540499999999L364.2814999999996 600.1167000000004L364.39949999999953 598.0077499999999L360.0644999999997 593.6277000000001L360.84649999999954 587.4094500000001L362.86249999999995 586.7917L371.30299999999977 587.6287500000001L374.7449999999998 582.4250499999999L383.9319999999998 577.9277000000002L383.28749999999957 574.0905000000004L388.5145 567.6949999999999L394.683 567.0013L395.4235 556.5860000000004L406.3924999999995 551.0295000000002L408.04399999999987 552.12985L411.9834999999995 561.84955L416.7935 565.9653000000003L418.24149999999975 569.8406499999999L421.67899999999975 567.6919000000004L425.1389999999998 569.0384499999999L428.5379999999998 566.86305L433.07199999999966 559.9837000000002L447.55199999999945 558.8824L451.4459999999997 563.3575000000002L455.3049999999996 564.2875500000002L454.8404999999997 554.5233000000002L467.89349999999956 543.1841000000003L470.05049999999983 537.3591500000003L477.9325 533.8561500000003L483.0144999999999 530.3353500000003L482.32399999999984 526.2841500000002L485.6254999999999 523.6645500000003L491.60199999999975 521.71965L495.3254999999996 522.9854499999999L500.68599999999947 523.30015L503.836 516.3497999999998L512.3294999999996 516.6317000000004L519.4295 520.64435L527.7324999999996 518.8619L532.5964999999997 522.8712000000002L534.502 521.9164000000001L537.4764999999996 512.7831000000003L545.3699999999998 503.1472500000001L545.7299999999998 499.13684999999987L544.0715 494.67735000000005L550.3694999999999 486.2960000000004L547.9055 462.8627499999999L546.8599999999998 458.24164999999994L542.2199999999998 450.91814999999997L548.3085 434.3778500000002L548.9359999999999 432.70219999999995L554.1404999999997 423.3632499999999L554.5919999999995 419.1196500000001L551.2969999999996 416.48169999999993L548.0609999999996 408.71730000000014L548.6359999999996 396.1133000000001L552.1854999999999 386.63940000000025L552.6544999999999 375.65515000000005L547.9109999999997 365.56669999999997L543.809 364.26680000000033L530.3254999999996 354.66155000000015L528.8479999999998 350.61075000000017L530.4454999999996 344.35765000000004L534.2019999999997 336.41785000000027L533.7294999999995 327.57010000000037L533.6229999999995 326.78330000000017L532.8934999999996 314.2157000000003L531.481 312.54459999999995L528.1739999999996 307.1271999999999L529.0684999999996 296.8148000000002L527.6495 295.0584500000002L519.9124999999998 268.94859999999994L518.2565 265.3046499999999L511.9584999999995 251.29549999999995L513.1399999999996 235.98310000000026L513.8135 232.1551500000004L509.62999999999965 225.70055000000025L490.1944999999995 229.09584999999993L484.6134999999998 234.95870000000025L478.72499999999945 235.26425000000017L476.7524999999995 243.85680000000036L478.1004999999999 252.54475000000014L474.2274999999995 262.8252500000002L477.8724999999997 267.74879999999996L476.15999999999985 271.69835000000035L470.7909999999998 274.0820500000001L462.8359999999998 266.9993500000004L460.7374999999996 267.5161000000003L459.13549999999987 263.6379500000004L453.8074999999998 261.0521L451.3144999999997 253.07420000000036L445.2914999999996 247.23270000000014L438.58199999999954 257.9422500000004L424.42799999999977 271.17110000000025L418.1284999999997 272.7160500000002L418.0404999999996 273.3077000000003L408.86349999999993 285.36249999999995L389.504 288.21905000000015L376.62349999999947 286.04899999999986L368.21349999999995 292.59254999999996L373.3884999999998 299.51850000000036L386.29099999999994 301.38270000000034L388.03499999999985 302.7150499999999L387.26699999999994 307.0103499999999L387.6245 310.88464999999985L383.4129999999999 310.79470000000015L381.9504999999998 312.33655L376.90949999999987 324.04870000000017L369.7864999999996 334.30025L367.2429999999997 336.85235000000034L362.0569999999998 334.9432999999999L352.23749999999995 329.90414999999985z">
      <title id="t78">Troisième circonscription du Cher</title>
      <desc id="d78">Cantons de : Baugy, Bourges III, Charenton-du-Cher, Châteaumeillant, Châteauneuf-sur-Cher, Le Châtelet, Dun-sur-Auron, La Guerche-sur-l'Aubois, Levet, Lignières, Nérondes, Saint-Amand-Montrond, Sancergues, Sancoins, Saulzais-le-Potier</desc>
    </path></svg>