<svg xmlns="http://www.w3.org/2000/svg" version="1.1" xmlns:xlink="http://www.w3.org/1999/xlink" xmlns:svgjs="http://svgjs.dev/svgjs" width="553.2055000000003" height="509.98924999999986" fill="#eeeeee" stroke="#cccccc" xmlns:sodipodi="http://sodipodi.sourceforge.net/DTD/sodipodi-0.dtd"><path class="circo" id="id-019-01" d="M231.77450000000022 385.2919499999996L233.11900000000037 383.76784999999984L232.11950000000002 375.8027999999996L224.6795000000003 369.0166499999998L224.85850000000028 366.98915L221.2455 363.9199500000001L208.03300000000036 367.8456L207.1210000000002 361.9927999999999L211.80300000000045 353.04534999999987L210.13700000000028 349.41224999999974L202.92750000000012 345.76674999999966L196.75200000000018 345.1630499999999L192.25750000000005 338.54634999999973L188.30150000000003 337.37424999999973L180.52900000000022 345.4585499999996L183.7715000000003 352.19695L181.09800000000007 355.3431499999999L173.44300000000032 352.99350000000004L171.0545000000002 356.30904999999984L168.99249999999995 356.31264999999985L165.7480000000004 350.2335999999997L170.48800000000028 346.71299999999974L172.68100000000004 341.13470000000007L164.90949999999998 340.66779999999994L159.56200000000024 342.5925000000001L157.62249999999995 345.88615000000004L156.34950000000003 347.34260000000006L151.00700000000018 345.2281999999997L143.4805 345.7173L139.82000000000028 333.75765L137.46050000000025 337.1039999999999L130.39450000000045 340.60869999999966L122.6015000000001 338.20130000000006L117.10950000000025 332.0628999999997L113.17049999999995 332.82794999999965L107.48850000000004 335.56690000000003L109.9780000000004 347.6923999999997L101.6500000000002 356.77025000000015L101.02750000000015 350.8908500000001L92.52949999999998 339.29854999999975L88.35100000000011 330.0308000000001L82.85450000000026 329.27115000000015L76.17400000000032 327.77535L75.24850000000015 326.20704999999987L82.07100000000025 321.72680000000014L78.63050000000044 316.5832499999999L88.58100000000036 309.8819499999996L85.73400000000049 300.74815L96.37400000000014 304.5947000000001L97.15400000000045 298.4883500000001L103.56200000000001 283.60374999999976L103.80449999999996 277.91785000000004L100.45100000000048 271.12494999999967L95.50100000000043 267.98855000000003L92.76650000000018 273.2355000000001L85.13500000000022 270.58944999999994L85.23650000000032 266.65144999999995L88.56050000000039 261.6035999999997L90.24850000000015 260.51355L92.4090000000001 252.79799999999966L93.68200000000002 243.24009999999987L96.18400000000008 240.13434999999959L92.93350000000032 234.72260000000006L81.91450000000032 228.76229999999964L77.09300000000042 217.2702499999997L80.8585000000005 215.62365L89.26850000000002 206.67055000000005L92.3520000000002 208.96005000000002L92.72100000000023 213.10270000000003L98.10800000000029 216.23024999999984L108.01350000000014 213.04939999999988L109.89750000000015 218.9398L115.46350000000018 216.4560499999999L113.85700000000043 206.26239999999996L117.11000000000013 192.3069499999997L108.22800000000029 174.04679999999985L104.87750000000005 171.83009999999967L103.93349999999998 170.28129999999976L105.26900000000012 168.1425999999999L106.44300000000044 153.9155999999997L115.94400000000007 146.7734999999999L114.94100000000003 140.9629000000001L110.92849999999999 140.18689999999992L112.8045000000003 130.2976000000001L120.82500000000039 128.63040000000012L123.21550000000002 125.34369999999967L123.39500000000044 121.26199999999983L135.9015000000005 127.21740000000011L140.98600000000033 129.35384999999997L146.2665000000004 126.71605L152.08200000000033 126.23899999999992L155.48500000000047 114.73484999999982L158.67500000000007 112.05279999999959L169.2085000000003 112.5124999999997L179.46950000000015 105.30705000000012L183.55250000000012 101.42949999999985L183.94650000000013 95.71140000000014L186.0295000000002 92.46404999999982L199.4335000000001 79.12080000000003L205.56650000000047 74.44880000000012L211.27700000000004 75.95394999999996L222.3425000000003 71.79100000000005L223.7280000000004 65.86054999999988L228.11950000000024 66.39925000000005L228.66250000000036 64.4686999999999L232.63599999999997 64.11599999999964L233.72900000000016 62.434599999999705L237.48550000000023 49.317499999999654L241.2975 50.77079999999967L243.57500000000016 54.050699999999665L249.22650000000033 51.52694999999994L253.4575000000001 55.85659999999962L254.74199999999996 60.03305000000012L262.6615000000004 61.049899999999866L266.4680000000004 56.6673499999996L275.3040000000004 60.26414999999986L277.09550000000036 59.21994999999981L278.33349999999996 51.01290000000006L286.51850000000024 51.785449999999855L290.0200000000001 49.86864999999966L289.10600000000045 43.793850000000134L285.4475000000002 41.89419999999984L285.4680000000002 39.81679999999983L290.5555000000004 36.41439999999989L294.06000000000006 31.432800000000043L298.0350000000004 32.052400000000034L300.9545000000003 35.04930000000002L304.87000000000023 34.53624999999988L306.4340000000004 26.43039999999985L309.9725000000001 24.162699999999973L318.26850000000036 24.20714999999973L321.06899999999996 26.96124999999995L324.6360000000004 24.755649999999605L327.73799999999994 19.391799999999648L329.1545000000002 9.063549999999623L334.50199999999995 5.60085000000015L344.9955 4.801649999999995L349.1645 0L351.26800000000003 0.32049999999969714L354.2115000000001 5.95230000000015L363.67500000000007 10.590449999999691L364.4060000000002 16.625549999999976L364.5025000000004 21.69634999999971L369.6545000000003 18.166099999999687L376.6285000000005 22.593799999999646L383.44100000000026 17.94505000000015L390.9925000000004 24.84209999999962L395.0550000000004 25.598799999999642L396.8980000000005 16.95434999999975L402.568 19.26879999999983L406.9575000000003 26.257499999999823L414.9565000000001 28.340599999999654L410.90100000000007 37.918750000000045L412.62850000000014 39.10114999999962L418.15350000000024 37.20979999999997L418.90000000000043 30.987250000000017L423.1360000000001 40.09185000000002L427.1210000000002 39.85574999999983L429.6100000000001 43.06974999999966L433.3375000000001 42.244699999999966L438.0405000000002 45.8053000000001L443.7180000000001 43.8510500000001L443.9590000000004 60.52324999999996L450.25350000000003 60.00024999999994L455.1535000000001 56.10050000000001L458.92600000000016 54.23194999999964L464.554 56.69170000000008L473.56899999999996 48.37085000000002L476.76750000000027 42.931049999999686L476.2360000000001 38.74394999999993L475.22500000000036 34.707899999999654L476.64350000000013 33.16139999999962L484.83000000000004 30.781499999999937L487.4815000000001 31.028650000000084L490.76750000000004 33.51864999999975L503.01900000000046 33.28795000000014L513.7525000000005 39.21009999999967L517.4310000000003 34.16380000000004L521.4610000000005 33.14369999999997L526.8935000000005 26.989249999999743L528.8870000000003 26.910100000000057L529.4220000000001 21.084449999999606L537.6680000000005 15.837549999999965L550.1550000000003 31.866149999999607L549.488 39.83319999999992L552.4325000000005 41.85949999999991L551.4685000000003 45.85944999999981L553.2055000000003 49.601599999999735L548.7725 52.449699999999666L547.1925000000005 55.71854999999971L547.2055 59.59034999999972L552.1770000000004 65.75355000000002L549.0650000000005 70.95744999999965L549.9085000000002 74.18194999999969L546.9545000000005 75.6013999999999L535.1860000000005 74.76189999999974L533.3750000000003 78.17319999999995L531.8475000000001 94.75879999999961L526.3410000000005 98.93109999999979L525.4895000000005 102.79859999999985L530.0830000000002 112.31089999999995L536.0080000000005 118.38439999999991L539.4390000000004 125.78069999999968L547.7635000000004 127.57004999999992L548.7275 133.82714999999962L547.3810000000003 135.39279999999962L548.6265000000003 141.41185000000007L547.337 145.16169999999988L548.8185000000004 148.79044999999962L545.0805000000003 156.13225L544.8380000000003 160.12L546.918 164.60080000000005L544.5885000000004 173.28910000000008L544.9700000000001 176.9930499999998L542.5850000000003 183.48529999999982L540.8875 184.24334999999985L541.6880000000003 189.64554999999962L539.6875 192.2820999999999L537.7330000000001 206.3005499999997L535.718 209.84164999999962L548.4445 219.60080000000005L550.4635000000002 219.26729999999964L552.5980000000004 226.4378499999998L550.9475000000003 232.0112499999999L547.7660000000003 230.37924999999973L544.599 232.86744999999996L536.7685 232.91709999999966L533.5525000000001 235.21569999999997L532.6010000000002 239.18274999999994L527.5795000000005 231.2451999999996L516.1735000000004 230.2073999999999L514.6005000000002 228.21345000000008L508.34100000000035 222.68359999999973L500.26400000000024 222.0401499999997L497.00199999999995 219.53059999999994L495.788 215.68600000000004L490.4340000000002 212.6473999999996L482.2380000000004 211.77009999999996L479.44500000000005 211.7434499999996L477.3690000000005 215.02610000000004L485.2525000000003 229.31299999999965L482.9940000000005 232.76399999999967L483.4770000000003 236.1656499999998L483.39650000000006 246.40719999999988L477.90400000000034 252.51319999999964L480.899 257.7540499999998L478.7140000000005 263.3144999999996L472.9555000000005 265.7193000000001L462.8460000000001 268.0042499999996L458.62400000000036 275.26914999999974L451.90150000000017 288.2835L445.86850000000027 288.45804999999984L443.13199999999995 287.42804999999976L439.74850000000004 291.45249999999976L437.89000000000044 299.64969999999994L432.0700000000005 302.0814999999999L430.9605000000005 303.90269999999987L430.16099999999994 305.8844499999998L430.45500000000004 312.24244999999996L424.7765000000004 314.95589999999993L421.259 320.2735000000001L414.6120000000002 325.59514999999976L414.812 327.71739999999966L411.17650000000026 329.11310000000014L409.7550000000001 327.7801499999998L408.7370000000004 326.22574999999983L404.1005000000001 328.7624999999997L400.40999999999997 327.51345000000015L399.89900000000034 321.59040000000005L398.29300000000046 320.36284999999964L393.51950000000045 326.77729999999997L387.91150000000016 326.03385000000003L384.9985000000004 323.6043000000001L381.4915000000002 324.8221000000001L378.0600000000004 323.09979999999996L376.1865 323.12635L375.308 330.71624999999983L367.7215000000001 332.13955L363.9485000000002 328.05954999999983L360.2950000000004 327.30345L356.59500000000037 328.10239999999965L355.96400000000017 332.0001500000001L345.83050000000014 336.28359999999986L341.7500000000001 339.5277999999996L340.3325000000001 340.9573499999999L342.0150000000001 348.8116500000001L339.36800000000005 351.85749999999985L332.47950000000003 361.8842999999998L333.7205 367.63824999999997L325.93350000000044 386.15759999999966L321.4195000000001 390.8100999999999L311.345 396.62485000000004L309.51300000000003 406.09440000000006L312.55150000000015 413.25244999999995L310.83200000000033 416.82525L304.8665 417.4577499999998L304.6720000000005 423.53459999999984L299.55250000000035 426.30785000000003L299.5980000000003 432.09855000000005L291.6810000000004 437.851L289.2950000000002 435.10515L285.9825000000001 436.44589999999994L282.47100000000046 434.3122999999997L274.273 435.2519000000001L270.89 433.1176499999998L265.1370000000003 427.65919999999994L256.1835000000002 418.83415000000014L252.28499999999997 417.1201500000001L248.2940000000002 407.41285000000005L244.72450000000038 406.48570000000007L241.47100000000023 408.2050499999997L239.52200000000005 405.45379999999966L233.62150000000042 400.9206999999998L233.53850000000023 399.0456499999999L233.92449999999997 388.66465000000005L231.77450000000022 385.2919499999996z">
      <title id="t79">Première circonscription de Corrèze</title>
      <desc id="d79">Cantons de : Argentat, Bort-les-Orgues, Bugeat, Corrèze, Donzenac, Egletons, Eygurande, Lapleau, Meymac, Neuvic, La Roche-Canillac, Seilhac, Sornac, Treignac, Tulle Campagne Nord, Tulle Campagne Sud, Tulle Urbain Nord, Tulle Urbain Sud, Ussel Est, Ussel Ouest, Uzerche, Vigeois</desc>
    </path><path class="circo" id="id-019-02" d="M23.14800000000048 357.23029999999994L17.49400000000037 362.74569999999983L11.89800000000048 362.9289499999999L11.634999999999991 366.7076499999996L22.58700000000033 372.2746000000001L26.95100000000025 376.7271499999998L34.72050000000024 379.6578499999998L39.92400000000032 376.3830999999999L45.33900000000017 379.2252500000001L53.09349999999995 376.8699499999997L53.09700000000021 381.45505000000014L59.21199999999999 382.46114999999975L65.22700000000043 380.4435000000001L72.81650000000013 384.0370999999999L74.26050000000032 384.8322999999999L79.06650000000013 386.94849999999974L79.24950000000024 390.9643L77.29150000000004 394.4158999999996L70.29150000000016 398.4139499999998L64.25700000000006 398.28269999999975L65.02499999999998 401.4722499999999L66.39750000000049 400.1421499999998L70.63900000000046 403.54769999999974L69.97450000000015 409.42229999999995L74.02050000000031 416.3485499999996L76.05250000000012 419.87885000000006L73.31600000000037 425.31565L77.35600000000034 426.3878999999997L78.42050000000029 430.4682500000001L88.22400000000016 444.01444999999967L94.01350000000036 450.5008499999997L99.15400000000034 453.71325000000013L101.0775000000001 453.0206499999997L106.3515000000001 450.0324499999999L106.28300000000024 445.92915000000005L107.47250000000008 446.0253499999999L118.46750000000043 438.36225000000013L124.22400000000039 437.8852999999998L127.37549999999999 435.4858999999999L133.1370000000004 435.2537000000001L134.67849999999999 443.32285000000013L138.12000000000012 444.9922499999997L148.20500000000038 437.9514499999999L161.93300000000022 441.95224999999994L162.31150000000014 444.7402999999997L162.56700000000023 442.6884000000001L164.5655000000005 442.1873999999997L172.26550000000032 442.67574999999965L180.55800000000033 446.90814999999986L181.11400000000003 450.71609999999964L188.85400000000004 459.52214999999967L194.3625000000003 460.51215000000013L197.72100000000023 466.5724L202.44000000000028 470.1792499999999L204.73100000000045 480.3566999999998L205.69200000000023 481.7635999999999L206.72200000000032 481.4650499999999L210.52450000000022 481.2518L218.3175 485.79414999999983L221.74350000000004 488.0489L223.94800000000032 497.64464999999973L222.49099999999999 498.8844999999998L229.48500000000024 502.33135000000004L232.46800000000007 507.4417999999997L232.71400000000028 508.03785000000005L236.9380000000001 503.8477999999998L237.4290000000002 500.01329999999996L244.1300000000001 506.31624999999985L243.57700000000023 509.98924999999986L243.84500000000003 509.9363999999997L245.95700000000022 506.38589999999965L253.89800000000037 505.29875000000004L255.985 501.78079999999966L256.9245000000001 496.10090000000014L258.75950000000046 495.55984999999964L259.88050000000044 499.2471499999999L261.68450000000007 499.90700000000004L265.20399999999995 494.4050999999996L280.52099999999996 488.3449999999999L281.0635000000002 484.38919999999996L289.3135000000001 475.18575L296.2650000000002 476.0689500000001L297.5585000000001 474.8505L303.07150000000036 479.03324999999995L303.7420000000003 489.2741000000001L307.6785000000001 490.25424999999984L310.0630000000001 486.7395499999998L321.85100000000034 477.9037999999997L332.0225000000005 476.39459999999985L347.68550000000005 471.92669999999964L351.6175000000004 476.1104L355.2475000000004 476.22934999999984L366.38599999999997 471.4616000000001L368.27 470.69844999999987L373.648 473.22339999999997L385.1595000000003 470.67624999999964L388.3910000000003 458.85974999999974L378.2085000000001 448.9032499999996L375.3710000000001 438.8957499999998L368.95200000000045 428.41189999999983L370.6660000000005 428.0941999999999L371.09800000000007 424.8059999999998L371.9070000000005 424.7265999999996L385.1695000000001 412.9051499999997L387.2030000000001 413.1212499999998L389.4565 410.1916L396.94050000000004 410.8916999999997L401.94050000000004 413.22360000000003L404.7430000000003 405.3394499999996L404.5270000000005 399.0853499999997L408.3820000000003 391.8876L404.49749999999995 380.0867999999997L412.4355000000003 379.5812999999998L417.9390000000001 373.54674999999986L418.3405000000005 365.52750000000003L426.4410000000004 364.6492999999998L427.5400000000002 361.3978499999996L426.7850000000004 359.4403999999997L422.69949999999994 359.35059999999964L414.5565000000005 352.8951999999998L412.8235000000001 342.5738000000001L409.82200000000034 339.6550500000001L411.5795000000003 331.49940000000015L409.7550000000001 327.7801499999998L408.7370000000004 326.22574999999983L404.1005000000001 328.7624999999997L400.40999999999997 327.51345000000015L399.89900000000034 321.59040000000005L398.29300000000046 320.36284999999964L393.51950000000045 326.77729999999997L387.91150000000016 326.03385000000003L384.9985000000004 323.6043000000001L381.4915000000002 324.8221000000001L378.0600000000004 323.09979999999996L376.1865 323.12635L375.308 330.71624999999983L367.7215000000001 332.13955L363.9485000000002 328.05954999999983L360.2950000000004 327.30345L356.59500000000037 328.10239999999965L355.96400000000017 332.0001500000001L345.83050000000014 336.28359999999986L341.7500000000001 339.5277999999996L340.3325000000001 340.9573499999999L342.0150000000001 348.8116500000001L339.36800000000005 351.85749999999985L332.47950000000003 361.8842999999998L333.7205 367.63824999999997L325.93350000000044 386.15759999999966L321.4195000000001 390.8100999999999L311.345 396.62485000000004L309.51300000000003 406.09440000000006L312.55150000000015 413.25244999999995L310.83200000000033 416.82525L304.8665 417.4577499999998L304.6720000000005 423.53459999999984L299.55250000000035 426.30785000000003L299.5980000000003 432.09855000000005L291.6810000000004 437.851L289.2950000000002 435.10515L285.9825000000001 436.44589999999994L282.47100000000046 434.3122999999997L274.273 435.2519000000001L270.89 433.1176499999998L265.1370000000003 427.65919999999994L256.1835000000002 418.83415000000014L252.28499999999997 417.1201500000001L248.2940000000002 407.41285000000005L244.72450000000038 406.48570000000007L241.47100000000023 408.2050499999997L239.52200000000005 405.45379999999966L233.62150000000042 400.9206999999998L233.53850000000023 399.0456499999999L233.92449999999997 388.66465000000005L231.77450000000022 385.2919499999996L233.11900000000037 383.76784999999984L232.11950000000002 375.8027999999996L224.6795000000003 369.0166499999998L224.85850000000028 366.98915L221.2455 363.9199500000001L208.03300000000036 367.8456L207.1210000000002 361.9927999999999L211.80300000000045 353.04534999999987L210.13700000000028 349.41224999999974L202.92750000000012 345.76674999999966L196.75200000000018 345.1630499999999L192.25750000000005 338.54634999999973L188.30150000000003 337.37424999999973L180.52900000000022 345.4585499999996L183.7715000000003 352.19695L181.09800000000007 355.3431499999999L173.44300000000032 352.99350000000004L171.0545000000002 356.30904999999984L168.99249999999995 356.31264999999985L165.7480000000004 350.2335999999997L170.48800000000028 346.71299999999974L172.68100000000004 341.13470000000007L164.90949999999998 340.66779999999994L159.56200000000024 342.5925000000001L157.62249999999995 345.88615000000004L156.34950000000003 347.34260000000006L151.00700000000018 345.2281999999997L143.4805 345.7173L139.82000000000028 333.75765L137.46050000000025 337.1039999999999L130.39450000000045 340.60869999999966L122.6015000000001 338.20130000000006L117.10950000000025 332.0628999999997L113.17049999999995 332.82794999999965L107.48850000000004 335.56690000000003L109.9780000000004 347.6923999999997L101.6500000000002 356.77025000000015L101.02750000000015 350.8908500000001L92.52949999999998 339.29854999999975L88.35100000000011 330.0308000000001L82.85450000000026 329.27115000000015L76.17400000000032 327.77535L75.24850000000015 326.20704999999987L82.07100000000025 321.72680000000014L78.63050000000044 316.5832499999999L88.58100000000036 309.8819499999996L85.73400000000049 300.74815L96.37400000000014 304.5947000000001L97.15400000000045 298.4883500000001L103.56200000000001 283.60374999999976L103.80449999999996 277.91785000000004L100.45100000000048 271.12494999999967L95.50100000000043 267.98855000000003L92.76650000000018 273.2355000000001L85.13500000000022 270.58944999999994L85.23650000000032 266.65144999999995L88.56050000000039 261.6035999999997L90.24850000000015 260.51355L92.4090000000001 252.79799999999966L93.68200000000002 243.24009999999987L96.18400000000008 240.13434999999959L92.93350000000032 234.72260000000006L81.91450000000032 228.76229999999964L77.09300000000042 217.2702499999997L80.8585000000005 215.62365L89.26850000000002 206.67055000000005L92.3520000000002 208.96005000000002L92.72100000000023 213.10270000000003L98.10800000000029 216.23024999999984L108.01350000000014 213.04939999999988L109.89750000000015 218.9398L115.46350000000018 216.4560499999999L113.85700000000043 206.26239999999996L117.11000000000013 192.3069499999997L108.22800000000029 174.04679999999985L104.87750000000005 171.83009999999967L103.93349999999998 170.28129999999976L105.26900000000012 168.1425999999999L106.44300000000044 153.9155999999997L115.94400000000007 146.7734999999999L114.94100000000003 140.9629000000001L110.92849999999999 140.18689999999992L112.8045000000003 130.2976000000001L112.69949999999994 123.3350999999999L107.68650000000036 120.24940000000015L104.58500000000015 127.84864999999968L96.2035000000003 128.58059999999966L95.89500000000044 138.99830000000009L90.30700000000024 147.87874999999985L84.81449999999995 142.19085000000007L80.87350000000015 142.3133999999999L77.30250000000012 144.2868999999996L71.72500000000014 154.99879999999962L69.86950000000036 155.83934999999997L69.08100000000047 162.5896499999999L61.60950000000014 165.04764999999963L52.28400000000022 180.32629999999983L24.759500000000116 166.15229999999997L25.22199999999998 171.93015000000003L22.010999999999967 174.15104999999983L17.890500000000316 174.5911000000001L15.644000000000347 180.07724999999994L15.419500000000426 188.20359999999994L12.078500000000076 190.3452999999996L11.089000000000055 194.06675000000007L14.849500000000262 194.4471999999996L19.267000000000394 198.25604999999996L26.01500000000044 200.5418499999996L26.406500000000506 210.3672499999999L22.445500000000038 211.68049999999994L16.399000000000115 210.06809999999973L13.457500000000095 212.49424999999974L14.094000000000051 220.6916000000001L15.746500000000196 221.95785L21.60600000000045 221.3059499999997L19.95650000000012 225.15780000000007L23.215000000000146 229.86670000000004L30.84699999999998 224.2886999999996L40.87350000000015 231.06124999999963L39.448000000000434 240.6878999999998L37.78250000000014 244.33555000000013L34.28350000000023 246.27354999999966L30.093500000000404 246.5929L24.69100000000026 249.85344999999995L23.31700000000012 255.8524L19.988500000000045 263.2606999999996L13.957000000000335 268.8378L3.7155000000001337 267.9988499999996L5.82650000000001 278.0272500000001L4.819500000000403 279.8073999999997L6.180500000000393 280.5282999999997L5.051000000000272 286.3218999999998L2.1315000000004147 288.6671000000001L0 298.3276999999998L6.303000000000338 301.67269999999974L5.237999999999943 305.21000000000015L12.893500000000131 308.5090500000001L20.921000000000163 308.0767499999996L21.517000000000053 316.29534999999976L12.647500000000491 324.9047999999999L2.7830000000000155 328.29909999999984L1.7910000000000537 332.9021499999999L0.5590000000000828 339.05849999999987L2.7180000000004156 342.6389499999999L19.162500000000477 340.99715000000003L26.577500000000214 348.3961499999998L27.345000000000255 350.3457499999996L23.14800000000048 357.23029999999994z">
      <title id="t80">Deuxième circonscription de Corrèze</title>
      <desc id="d80">Cantons de : Ayen, Beaulieu-sur-Dordogne, Beynat, Brive-la-Gaillarde Centre, Brive-la-Gaillarde Nord-Est, Brive-la-Gaillarde Nord-Ouest, Brive-la-Gaillarde Sud-Est, Brive-la-Gaillarde Sud-Ouest, Juillac, Larche, Lubersac, Malemort-sur-Corrèze, Meyssac, Mercoeur, Saint-Privat</desc>
    </path></svg>