<svg xmlns="http://www.w3.org/2000/svg" version="1.1" xmlns:xlink="http://www.w3.org/1999/xlink" xmlns:svgjs="http://svgjs.dev/svgjs" width="617.6870000000002" height="710.7332500000001" fill="#eeeeee" stroke="#cccccc" xmlns:sodipodi="http://sodipodi.sourceforge.net/DTD/sodipodi-0.dtd"><path class="circo" id="id-021-01" d="M371.19700000000023 475.1205999999996L370.9129999999999 475.25464999999997L367.62400000000014 482.59149999999977L357.6640000000003 481.9877500000001L354.8075 484.8117500000001L353.2589999999999 477.1539999999999L344.4874999999996 480.9147999999999L342.0115000000004 477.9063500000001L338.77999999999986 479.97839999999997L336.9104999999996 479.12215000000003L335.8670000000001 475.19389999999987L329.95749999999987 474.6488499999998L327.42699999999957 469.30904999999996L323.4650000000005 469.3973999999997L319.5160000000004 465.2549499999998L321.9120000000004 462.0826999999997L319.24199999999985 457.07119999999975L320.2479999999997 455.42395L323.99950000000047 457.2097500000001L329.323 446.03205L328.15800000000024 439.48294999999973L322.8940000000006 432.41944999999987L323.1774999999999 425.96990000000005L317.63049999999964 420.54194999999993L319.6215000000001 414.5187499999997L325.28700000000015 409.00980000000004L330.1770000000005 399.6267L337.7320000000003 395.90314999999975L342.8940000000006 398.6038500000001L346.5265000000005 397.5426999999996L350.28899999999965 395.5577499999998L353.1030000000004 397.84159999999986L353.7565000000001 394.1027500000001L359.27750000000003 389.11294999999996L373.4925000000004 380.1162499999998L379.4274999999999 378.89995L378.2374999999996 366.33129999999994L381.90949999999987 364.1024999999996L386.0989999999998 368.29349999999977L390.35450000000026 361.23490000000004L400.69750000000056 371.72984999999983L400.9745000000004 365.26279999999986L407.9090000000002 370.3472999999997L416.34349999999984 370.3215499999999L419.1590000000002 373.5811000000001L427.12050000000033 376.3188500000001L427.7154999999999 383.54764999999986L439.3924999999996 388.11049999999966L439.2315000000002 388.64374999999995L429.9354999999997 406.40154999999993L430.95799999999997 406.9482999999997L424.67299999999966 418.02494999999965L420.92299999999966 416.2031999999999L417.12950000000035 427.2499499999998L415.8364999999998 435.17600000000016L421.5195 439.03999999999996L419.23299999999983 447.61559999999974L412.7744999999999 447.4332499999997L407.7410000000003 451.4771999999999L399.61250000000007 454.10739999999976L387.95500000000004 459.1794999999996L384.76000000000056 463.23019999999985L379.1300000000007 465.6797999999998L371.19700000000023 475.1205999999996z">
      <title id="t81">Première circonscription de Côte-d'Or</title>
      <desc id="d81">Canton de : Dijon V, Dijon VI, Dijon VII, Fontaine-lès-Dijon</desc>
    </path><path class="circo" id="id-021-02" d="M587.022 525.5358999999999L589.64 528.05655L592.3465000000004 535.4861999999997L589.522 545.2816000000001L587.9794999999996 549.4110000000001L583.5835000000003 554.1892000000001L583.8754999999998 559.8327999999998L579.5970000000005 563.5948500000001L573.4975000000003 566.22075L571.1705000000001 570.9884L572.4550000000005 574.2801500000002L571.7239999999998 578.0437000000001L567.5565 581.9604499999997L564.1120000000006 579.2402499999997L562.3904999999996 570.86725L555.2645000000001 562.9201L553.118 568.2804499999997L545.8895000000001 570.4886999999997L539.7160000000002 572.5218999999998L534.3585000000002 579.4626L530.4815000000002 581.45715L522.7370000000002 563.7060500000001L522.1089999999998 551.2829999999997L518.1120000000004 546.4824499999997L512.1945 544.3801500000001L507.45749999999987 540.0488000000001L505.514 539.0866L508.408 536.6354999999999L518.5110000000003 523.10945L514.5015000000006 518.3956000000001L520.8705000000003 513.3738L526.9514999999996 512.9145499999998L528.2290000000006 511.30629999999996L531.8485000000004 513.1936000000002L536.6170000000005 506.1758499999996L534.4305000000003 501.59040000000005L529.9060000000003 499.2861499999998L535.3609999999998 492.6693L533.5375000000005 482.00654999999983L536.3175000000007 476.19370000000004L537.3904999999996 473.75425000000007L520.5535000000003 472.0576999999997L519.8809999999997 470.02959999999973L511.23549999999966 464.3055499999997L513.3994999999999 459.8747500000002L504.1505000000001 457.61649999999975L501.2375000000003 454.76699999999994L501.21800000000064 450.6903999999997L497.3845 449.51430000000016L497.26699999999994 443.51954999999975L501.22700000000066 436.47699999999986L497.27299999999957 429.5288999999997L483.70150000000024 423.19109999999966L471.91700000000026 428.9310499999999L465.42899999999975 428.3062000000001L464.0195 432.29524999999967L462.9789999999997 433.0749500000002L456.68000000000063 433.1966L453.1099999999998 438.42060000000004L447.8445000000005 438.8828000000001L443.8304999999997 445.8395999999999L438.86000000000024 449.65345000000013L434.7274999999996 449.9048499999998L432.8260000000006 453.0888999999996L431.26599999999996 455.22785L428.2970000000006 456.07845L422.081 453.1644499999999L417.9445000000004 453.78895L417.0724999999999 457.9701499999999L414.8145000000005 462.4431499999997L409.5025000000004 463.70079999999973L404.1614999999996 460.67949999999996L407.7410000000003 451.4771999999999L412.7744999999999 447.4332499999997L419.23299999999983 447.61559999999974L421.5195 439.03999999999996L415.8364999999998 435.17600000000016L417.12950000000035 427.2499499999998L420.92299999999966 416.2031999999999L424.67299999999966 418.02494999999965L430.95799999999997 406.9482999999997L429.9354999999997 406.40154999999993L439.2315000000002 388.64374999999995L439.3924999999996 388.11049999999966L443.89050000000054 379.7059999999999L451.04700000000037 382.04875000000015L457.19899999999996 384.6023500000001L465.81799999999987 382.86414999999977L466.0740000000004 382.78624999999977L471.4929999999998 382.6071999999999L474.3860000000001 380.5711500000001L485.30800000000056 374.8271999999997L490.20500000000027 363.33439999999996L495.2664999999996 356.71294999999986L497.3150000000004 356.3237499999997L499.62500000000034 348.12185L505.9555000000006 342.49239999999986L500.7454999999999 330.6674499999997L506.27350000000035 327.3690499999998L513.1819999999999 312.03795000000014L519.0929999999997 314.0285L524.9254999999999 311.87990000000013L527.5270000000006 315.13644999999997L533.1514999999996 313.3517999999998L534.6570000000003 314.8078499999997L533.6669999999998 310.79830000000015L528.6859999999996 307.15409999999963L530.0659999999999 295.31904999999995L533.2644999999997 305.05420000000015L540.2339999999998 300.47979999999995L544.8820000000006 296.08119999999985L543.2589999999999 285.57725000000005L544.7129999999999 284.0316999999999L548.8579999999996 284.65485L548.4885000000003 278.2601999999997L552.7654999999999 271.2655000000001L556.2899999999996 270.1623999999998L561.1780000000005 272.64340000000004L562.6830000000001 276.0266999999999L567.2235000000006 274.8140999999998L578.1850000000003 252.80294999999967L584.3800000000005 254.25540000000012L597.5045000000006 267.84389999999973L600.6969999999995 269.6303999999998L604.0664999999996 286.50154999999984L602.3190000000005 294.7974999999997L606.1070000000001 296.0969499999999L608.3800000000002 306.3324L604.0294999999998 319.0245999999996L597.8000000000003 318.71555L590.2860000000004 331.77044999999964L587.4775000000005 338.38554999999985L582.7910000000003 342.02380000000005L579.1140000000001 338.18299999999965L566.9734999999997 336.61535000000015L563.5420000000005 343.44465000000014L561.9080000000002 347.82375L570.5545000000001 350.34164999999973L558.6084999999997 357.28819999999985L554.8124999999999 358.32299999999975L559.4324999999998 361.6044999999997L558.6245000000002 367.0823999999999L569.2750000000007 360.5000000000001L573.2395000000002 361.17075L575.0254999999999 366.99374999999975L580.8300000000003 368.52539999999976L582.4494999999996 367.2507999999999L584.7415000000007 369.5975499999997L583.6525 371.05804999999975L580.6295000000006 376.7140999999998L580.2375000000001 385.43214999999975L585.3519999999997 394.42049999999995L581.4410000000004 403.54010000000017L589.1495000000003 408.9068499999996L600.4540000000003 402.4652499999996L608.4985 406.0330499999998L606.3624999999996 415.86365L605.0579999999997 426.549L605.5855000000003 427.4982L607.6849999999996 435.59829999999977L606.4220000000006 441.72109999999975L605.1370000000003 443.37469999999996L601.0669999999999 442.98654999999997L598.6425000000003 446.3324L598.8830000000002 451.9868500000001L609.1680000000002 452.6619999999997L613.6790000000002 456.50329999999997L617.6870000000002 458.9515499999999L612.0880000000005 471.5571L606.8525000000005 468.9814000000001L604.9000000000007 469.00395000000003L604.9449999999996 470.9638000000001L604.7094999999996 473.99794999999983L604.5200000000006 482.52824999999973L602.6389999999998 486.3779999999997L603.15 500.3741500000001L601.3545000000005 501.00509999999986L599.314 504.5998500000002L600.9404999999998 512.6047999999997L598.8450000000006 516.0049499999997L594.128 520.08915L588.2435000000004 522.1760999999998L587.022 525.5358999999999z">
      <title id="t82">Deuxième circonscription de Côte-d'Or</title>
      <desc id="d82">Cantons de : Auxonne, Dijon I, Dijon III, Dijon VIII, Fontaine-Française, Mirebeau (le canton de Mirebeau est devenu le canton de Mirebeau-sur-Bèze par suite de changement de nom de sa commune chef-lieu par décret du 26 mars 1993), Pontailler-sur-Saône</desc>
    </path><path class="circo" id="id-021-03" d="M453.1099999999998 438.42060000000004L447.8445000000005 438.8828000000001L443.8304999999997 445.8395999999999L438.86000000000024 449.65345000000013L434.7274999999996 449.9048499999998L432.8260000000006 453.0888999999996L431.26599999999996 455.22785L428.2970000000006 456.07845L422.081 453.1644499999999L417.9445000000004 453.78895L417.0724999999999 457.9701499999999L414.8145000000005 462.4431499999997L409.5025000000004 463.70079999999973L404.1614999999996 460.67949999999996L407.7410000000003 451.4771999999999L399.61250000000007 454.10739999999976L388.1725 459.28060000000016L384.76000000000056 463.23019999999985L379.1300000000007 465.6797999999998L371.19700000000023 475.1205999999996L375.3350000000006 474.49475000000007L377.49949999999956 477.70775000000015L384.97750000000053 481.3970999999998L397.0949999999999 484.73154999999963L407.54449999999963 497.36429999999984L406.4725000000004 499.0845999999999L407.004 500.70465000000013L409.14799999999957 500.81669999999974L413.4174999999999 496.07275000000016L411.64649999999995 492.1533499999998L412.50699999999995 483.5923500000001L412.64399999999966 479.5969500000001L417.8580000000005 481.49794999999983L431.5690000000001 502.1794L433.72649999999965 504.32259999999985L443.3525000000003 510.8745499999998L446.2770000000006 516.4472999999998L446.32700000000057 522.1279499999997L446.6455000000002 527.4604999999997L440.8030000000002 527.5292999999999L439.70849999999984 529.2180500000001L443.57300000000066 531.27565L444.2320000000001 535.6131499999998L439.64650000000063 542.97415L438.49549999999965 552.5304999999997L437.7040000000005 556.7870999999997L441.0390000000001 562.19405L446.79400000000044 564.5201500000002L447.61950000000013 562.6126499999998L449.2390000000006 561.6091999999998L453.41399999999965 569.9034L455.5495000000002 570.1638500000001L471.0830000000004 560.2189499999997L470.6845000000004 554.70415L472.03400000000045 553.3904999999999L477.1260000000001 551.06045L479.8190000000005 543.5742999999997L484.21899999999994 547.8301999999996L485.9790000000004 544.0900999999997L491.7270000000002 541.6731499999997L492.9445000000004 543.2954999999998L496.9639999999998 538.9102500000001L499.1775000000001 540.2289000000002L501.5365000000003 538.7983500000001L505.514 539.0866L508.408 536.6354999999999L518.5110000000003 523.10945L514.5015000000006 518.3956000000001L520.8705000000003 513.3738L526.9514999999996 512.9145499999998L528.2290000000006 511.30629999999996L531.8485000000004 513.1936000000002L536.6170000000005 506.1758499999996L534.4305000000003 501.59040000000005L529.9060000000003 499.2861499999998L535.3609999999998 492.6693L533.5375000000005 482.00654999999983L536.3175000000007 476.19370000000004L537.3904999999996 473.75425000000007L520.5535000000003 472.0576999999997L519.8809999999997 470.02959999999973L511.23549999999966 464.3055499999997L513.3994999999999 459.8747500000002L504.1505000000001 457.61649999999975L501.2375000000003 454.76699999999994L501.21800000000064 450.6903999999997L497.3845 449.51430000000016L497.26699999999994 443.51954999999975L501.22700000000066 436.47699999999986L497.27299999999957 429.5288999999997L483.70150000000024 423.19109999999966L471.91700000000026 428.9310499999999L465.42899999999975 428.3062000000001L464.0195 432.29524999999967L462.9789999999997 433.0749500000002L456.68000000000063 433.1966L453.1099999999998 438.42060000000004z">
      <title id="t83">Troisième circonscription de Côte-d'Or</title>
      <desc id="d83">Cantons de : Chenôve, Dijon II, Dijon IV, Genlis</desc>
    </path><path class="circo" id="id-021-04" d="M207.05949999999973 40.388849999999934L198.159 39.04884999999979L191.78699999999992 41.30229999999983L182.87600000000054 40.22319999999979L162.2539999999998 47.74445000000014L158.4925000000004 45.72749999999985L149.2689999999999 40.12734999999964L122.12649999999996 47.47090000000014L105.23450000000025 43.74599999999987L102.19699999999989 49.03655000000015L99.49150000000031 52.56159999999966L100.6819999999999 59.108099999999695L96.99850000000026 67.1096L102.18549999999993 70.45450000000017L102.67800000000022 76.8097499999999L105.19900000000007 80.23604999999975L99.82200000000034 82.69720000000007L91.84700000000021 83.33685000000003L88.69100000000003 85.72799999999972L85.74299999999994 91.52254999999968L77.42050000000006 98.50234999999998L84.68000000000018 101.45244999999989L83.93599999999992 118.86469999999974L87.64949999999999 121.18679999999983L97.57400000000018 117.18209999999999L110.36049999999989 116.84770000000015L112.01300000000003 120.33574999999985L108.98650000000032 125.3055999999998L110.37600000000054 133.59730000000013L108.28400000000045 139.49295000000006L116.92050000000052 146.99779999999976L111.36699999999962 155.7932999999997L114.8640000000006 163.19705L112.75950000000023 163.82689999999968L112.34849999999994 165.9946500000001L112.98299999999983 174.4968L107.44500000000016 177.94330000000002L103.83250000000032 176.85284999999965L96.83449999999993 189.1855499999997L89.33500000000038 184.77390000000014L82.95099999999991 184.2727500000001L81.22650000000021 192.88004999999998L74.88300000000038 194.59924999999998L74.01900000000012 198.7145499999997L80.04999999999995 200.92550000000017L81.70349999999985 204.97180000000014L85.29750000000035 207.4399999999997L83.57300000000009 213.5743500000001L93.02000000000021 220.88239999999985L88.97350000000017 222.0161999999999L80.76250000000016 220.35525000000007L78.87850000000014 223.76919999999984L68.6035000000004 223.69280000000003L68.22600000000023 227.93135000000007L77.61000000000024 235.95809999999972L68.83500000000026 247.11684999999989L67.34550000000013 252.6409000000001L63.81599999999992 253.60770000000002L62.638000000000034 255.46875L64.01250000000005 272.4996999999996L57.732500000000186 271.7849000000001L56.16700000000037 273.21950000000015L51.399999999999864 284.81674999999996L51.83500000000038 291.62904999999967L45.636499999999955 304.0101499999997L42.06700000000012 302.27904999999964L38.580499999999915 304.1890000000001L37.505500000000325 308.14705000000004L34.30650000000014 310.53765L36.34150000000034 315.54309999999987L32.47600000000034 319.9290500000001L30.822499999999877 323.7411500000002L21.009500000000116 326.7108000000002L22.108499999999935 330.5051499999996L20.063000000000102 333.79504999999995L21.645000000000323 337.3400499999997L23.903000000000247 340.53245000000004L21.57700000000034 345.77045L22.475000000000023 349.3273499999998L23.5329999999999 349.94804999999985L25.670499999999947 350.4145999999997L27.04499999999996 354.5721499999996L23.048000000000002 371.48664999999994L21.417500000000018 372.6907L18.237500000000182 370.1965000000001L16.420499999999834 371.0876000000002L17.760999999999854 374.87934999999993L14.2085000000003 379.7053999999997L8.582999999999856 373.78409999999974L6.549499999999853 374.0278999999998L7.6600000000001955 377.78219999999976L8.007499999999936 386.15200000000016L3.3064999999999145 390.27175L2.085999999999899 394.2697499999997L0 394.28110000000004L1.0925000000003138 398.52409999999963L8.81399999999985 402.59270000000015L5.463500000000181 410.30035L7.3090000000001965 414.1910999999999L13.589000000000055 415.45885L17.674000000000092 413.7417499999998L17.201000000000022 420.1760999999999L14.00700000000029 425.5263500000001L17.80399999999986 430.63985L17.37799999999993 436.96429999999964L17.787999999999897 439.0307999999999L19.84800000000007 439.4384500000001L24.38950000000034 435.1209499999999L27.93200000000013 427.5421L31.732000000000085 426.0206999999997L33.20249999999987 427.53330000000005L25.434999999999945 439.21265000000005L24.897000000000276 443.03859999999986L27.714500000000157 448.6791999999997L21.325500000000375 456.85054999999977L24.93350000000021 459.06875000000014L28.621499999999855 456.8813L20.991000000000213 466.20679999999993L25.568000000000097 493.2058999999998L29.730000000000132 500.80730000000017L47.82449999999983 491.1809499999998L51.65900000000022 495.93999999999994L54.09500000000037 490.89729999999975L58.46249999999998 487.1470499999998L69.0160000000003 489.4921999999997L76.42150000000015 485.7179500000001L84.16499999999985 492.9228499999999L87.54500000000007 492.41319999999973L95.88149999999985 490.91984999999966L100.28950000000009 495.6038000000001L101.88300000000027 501.5653499999996L103.77049999999997 502.5887499999999L107.80599999999993 501.16224999999986L113.33850000000041 504.2706499999997L113.8050000000004 502.2720499999997L117.66400000000033 500.9963499999998L129.44950000000006 502.09554999999966L131.6620000000006 489.5748499999996L135.19900000000064 481.73659999999984L125.19749999999988 469.97135000000014L124.31700000000035 465.8659L128.57350000000054 466.5940499999999L130.48600000000022 462.71754999999985L143.70349999999974 455.5072999999999L143.7005000000005 451.2007L144.33850000000064 450.45529999999985L151.68650000000014 454.2843499999998L157.39049999999963 459.3432999999999L161.28800000000012 459.08754999999985L166.98500000000024 448.18074999999965L169.0379999999999 447.92494999999974L172.74500000000046 452.30095000000006L175.29450000000054 459.80455000000006L188.00599999999974 452.53915000000006L189.4829999999996 455.0622499999997L202.57649999999956 449.8521999999997L219.20350000000042 458.9760000000001L220.98199999999963 460.63125000000014L235.49500000000023 460.43004999999994L239.97599999999977 464.94100000000003L238.17200000000014 470.9011499999997L242.8465 472.4874999999997L247.11500000000058 484.1109L259.7125 489.50279999999964L263.22550000000035 486.5947L268.04749999999956 485.0741499999998L269.48950000000025 487.5697500000001L272.84249999999986 497.3624000000001L276.3065 507.6284499999997L284.2199999999997 514.9468999999999L287.76599999999974 519.9546499999997L287.1940000000001 526.0537999999997L296.97749999999985 526.9813999999997L302.7370000000002 527.5280499999997L305.2910000000003 522.3250000000002L310.15600000000006 513.1054L317.44200000000035 515.2728500000001L319.58699999999965 509.45584999999994L325.7419999999996 501.05455000000006L323.1725 488.41634999999997L321.78150000000016 485.35595L326.22700000000066 475.94439999999963L329.95749999999987 474.6488499999998L327.42699999999957 469.30904999999996L323.4650000000005 469.3973999999997L319.5160000000004 465.2549499999998L321.9120000000004 462.0826999999997L319.24199999999985 457.07119999999975L320.2479999999997 455.42395L323.99950000000047 457.2097500000001L329.323 446.03205L328.15800000000024 439.48294999999973L322.8940000000006 432.41944999999987L323.1774999999999 425.96990000000005L317.63049999999964 420.54194999999993L319.6215000000001 414.5187499999997L325.28700000000015 409.00980000000004L330.1770000000005 399.6267L337.7320000000003 395.90314999999975L342.8940000000006 398.6038500000001L346.5265000000005 397.5426999999996L350.28899999999965 395.5577499999998L353.1030000000004 397.84159999999986L353.7565000000001 394.1027500000001L359.27750000000003 389.11294999999996L373.4925000000004 380.1162499999998L379.4274999999999 378.89995L378.2374999999996 366.33129999999994L381.90949999999987 364.1024999999996L386.0989999999998 368.29349999999977L390.35450000000026 361.23490000000004L400.69750000000056 371.72984999999983L400.9745000000004 365.26279999999986L407.9090000000002 370.3472999999997L416.34349999999984 370.3215499999999L419.1590000000002 373.5811000000001L427.12050000000033 376.3188500000001L427.7154999999999 383.54764999999986L439.3924999999996 388.11049999999966L443.89050000000054 379.7059999999999L451.04700000000037 382.04875000000015L457.19899999999996 384.6023500000001L465.81799999999987 382.86414999999977L466.0740000000004 382.78624999999977L471.4929999999998 382.6071999999999L474.3860000000001 380.5711500000001L485.30800000000056 374.8271999999997L490.20500000000027 363.33439999999996L495.2664999999996 356.71294999999986L497.3150000000004 356.3237499999997L499.62500000000034 348.12185L505.9555000000006 342.49239999999986L500.7454999999999 330.6674499999997L506.27350000000035 327.3690499999998L513.1819999999999 312.03795000000014L519.0929999999997 314.0285L524.9254999999999 311.87990000000013L527.5270000000006 315.13644999999997L533.1514999999996 313.3517999999998L534.6570000000003 314.8078499999997L533.6669999999998 310.79830000000015L528.6859999999996 307.15409999999963L530.0659999999999 295.31904999999995L533.2644999999997 305.05420000000015L540.2339999999998 300.47979999999995L544.8820000000006 296.08119999999985L543.2589999999999 285.57725000000005L544.7129999999999 284.0316999999999L548.8579999999996 284.65485L548.4885000000003 278.2601999999997L542.7934999999997 275.1109500000001L543.4025000000003 270.79214999999976L540.8785000000006 267.33389999999986L538.956 266.3233500000001L534.708 265.4652999999996L531.6145 268.4736499999997L527.507 268.4383500000001L516.5490000000005 278.51099999999974L515.4130000000004 284.77139999999963L511.4775000000003 284.7310999999996L506.2025 287.80190000000005L499.101 274.52544999999986L507.2105000000005 259.0159L500.5265000000003 261.55005000000017L498.005 262.4491499999999L494.64800000000025 254.82995000000017L487.14549999999974 246.75855000000013L477.3690000000005 241.74204999999972L471.00300000000004 239.26440000000014L473.0990000000003 221.9619L465.38899999999956 223.72754999999984L464.5560000000006 227.89915000000008L458.3224999999999 236.9342499999999L451.51850000000024 242.45875000000012L447.1864999999997 241.8196499999999L446.96849999999984 240.22279999999967L442.94749999999965 240.65499999999986L440.8110000000005 236.86485000000005L434.44050000000004 236.37139999999988L429.8525000000001 232.04560000000015L423.66299999999967 230.65529999999967L419.6445 228.97654999999986L417.1940000000001 225.3604999999999L421.20349999999974 213.2099999999997L410.57650000000024 213.63875000000007L411.36950000000013 205.0621000000001L409.69250000000045 203.66559999999993L399.006 209.69769999999983L398.1940000000003 214.01504999999986L394.72000000000037 216.70104999999978L383.9439999999996 217.93664999999976L385.1339999999999 216.1018999999999L377.9699999999997 208.11129999999991L378.9900000000006 204.21889999999962L382.09149999999966 201.45800000000008L382.1985000000001 195.5286000000001L385.2040000000005 190.3021000000001L382.1890000000002 187.93369999999982L380.5120000000005 189.20639999999992L382.45799999999974 183.26340000000016L379.87149999999986 170.8375000000001L374.49850000000026 168.25649999999996L371.42449999999997 170.72495000000004L365.3305000000006 171.62845000000004L365.51600000000064 169.58370000000002L361.9409999999999 167.70894999999996L364.62050000000033 163.70419999999967L362.43300000000033 161.21375L373.1139999999999 155.75850000000003L378.33199999999977 153.2281999999998L391.3955000000004 144.44725000000005L394.80500000000063 134.22649999999976L390.89300000000037 130.73109999999986L390.62100000000044 131.15139999999997L389.5675 127.84244999999999L385.93549999999993 126.97574999999972L383.86149999999986 126.30274999999983L380.93999999999994 121.04240000000004L381.28449999999987 112.4194L377.79150000000016 104.45114999999987L371.7590000000001 104.19330000000002L366.4699999999999 101.42269999999996L366.7590000000001 91.65185000000008L363.10650000000066 86.99765000000014L357.3340000000002 72.94804999999997L352.53250000000037 69.05859999999961L343.99950000000047 71.0125499999998L336.4330000000001 86.15839999999992L326.7599999999999 79.0827999999999L324.8264999999998 75.60180000000003L326.2629999999996 71.79959999999994L331.78950000000043 68.86834999999962L340.01450000000034 57.03094999999962L336.1515000000003 49.59940000000017L331.43899999999974 45.06109999999978L320.66899999999976 43.76505000000009L316.95700000000045 45.416549999999916L312.9974999999996 43.72000000000014L307.10650000000044 41.997349999999756L306.22700000000066 38.057249999999954L310.3829999999999 30.379499999999666L315.83249999999964 27.063549999999736L309.54949999999997 21.12860000000012L307.8030000000007 14.936599999999771L290.8494999999999 17.196799999999826L278.27450000000056 14.284200000000169L271.60000000000025 7.076149999999757L267.99199999999985 5.40239999999983L258.3060000000006 10.393500000000131L247.52099999999984 4.246499999999855L236.62449999999978 4.4664000000000215L234.44050000000004 0L230.63799999999958 1.895799999999781L226.59299999999973 0.5548499999997603L218.19300000000055 1.9294999999999618L208.05250000000058 12.136899999999855L206.1865000000006 16.01144999999974L200.00050000000044 15.764350000000036L203.0559999999997 26.011249999999677L208.3589999999998 29.60800000000006L210.2834999999999 38.0813999999998L207.05949999999973 40.388849999999934z">
      <title id="t84">Quatrième circonscription de Côte-d'Or</title>
      <desc id="d84">Cantons de : Aignay-le-Duc, Baigneux-les-Juifs, Châtillon-sur-Seine, Grancey-le-Château-Neuvelle, Is-sur-Tille, Laignes, Montbard, Montigny-sur-Aube, Précy-sous-Thil, Recey-sur-Ource, Saint-Seine-l'Abbaye, Saulieu, Selongey, Semur-en-Auxois, Sombernon, Venarey-les-Laumes, Vitteaux</desc>
    </path><path class="circo" id="id-021-05" d="M169.08600000000035 447.9207500000001L167.05449999999985 448.2332500000001L161.27350000000035 459.0145000000001L157.36749999999972 459.3270000000001L151.74249999999972 454.3270000000001L144.39850000000035 450.4207500000001L143.77350000000035 451.2020000000001L143.77350000000035 455.5770000000001L130.49249999999972 462.7645000000001L128.61749999999972 466.6707500000001L124.24249999999972 465.8895000000001L125.17949999999985 469.9520000000001L135.17949999999985 481.6707500000001L131.58600000000035 489.6395000000001L129.39850000000035 502.1395000000001L117.67949999999985 501.0457500000001L113.77350000000035 502.2957500000001L113.30449999999985 504.3270000000001L107.83600000000035 501.2020000000001L103.77350000000035 502.6082500000001L101.89850000000035 501.5145000000001L100.33600000000035 495.5770000000001L95.80449999999985 490.8895000000001L87.52350000000035 492.4520000000001L84.24250000000029 492.9207500000001L76.42949999999985 485.7332500000001L69.08600000000035 489.4832500000001L58.461000000000354 487.1395000000001L54.086000000000354 490.8895000000001L51.586000000000354 495.8895000000001L54.086000000000354 501.9832500000001L65.49250000000029 511.9832500000001L69.55449999999985 521.8270000000001L70.49250000000029 526.0457500000001L62.523500000000354 536.0457500000001L61.273500000000354 544.1707500000001L61.42949999999985 552.1395000000001L63.30449999999985 552.9207500000001L63.773500000000354 556.9832500000001L65.49250000000029 558.2332500000001L71.58600000000035 558.7020000000001L75.02350000000035 556.5145000000001L75.49250000000029 566.0457500000001L79.24250000000029 566.9832500000001L82.67949999999985 577.9207500000001L89.86750000000029 581.6707500000001L99.24250000000029 579.1707500000001L100.64850000000035 582.1395000000001L103.92949999999985 584.3270000000001L118.14850000000035 585.4207500000001L120.80449999999985 588.5457500000001L118.61749999999972 603.8582500000001L124.24249999999972 609.7957500000001L126.27350000000035 609.1707500000001L129.71100000000035 601.2020000000001L132.83600000000035 598.2332500000001L143.46100000000035 597.7645000000001L149.08600000000035 600.8895000000001L145.17949999999985 605.7332500000001L143.61749999999972 613.8582500000001L145.02350000000035 617.9207500000001L153.92949999999985 623.8582500000001L166.74249999999972 624.0145000000001L172.67949999999985 630.1082500000001L180.33600000000035 629.1707500000001L184.24249999999972 633.0770000000001L184.24249999999972 636.6707500000001L187.05449999999985 639.0145000000001L190.02350000000035 641.5145000000001L196.27350000000035 641.5145000000001L208.14850000000035 636.5145000000001L208.92949999999985 644.6395000000001L205.02350000000035 651.9832500000001L207.99249999999972 654.9520000000001L212.05449999999985 653.8582500000001L213.77350000000035 654.7957500000001L213.61749999999972 659.9520000000001L216.11749999999972 665.5770000000001L223.92949999999985 669.3270000000001L222.83600000000035 675.5770000000001L225.49249999999972 678.8582500000001L232.83600000000035 680.7332500000001L234.71100000000035 684.0145000000001L233.46100000000035 685.4207500000001L239.86749999999972 686.8270000000001L248.46100000000035 685.5770000000001L249.55449999999985 687.1395000000001L260.64850000000035 692.4520000000001L260.96100000000035 694.4832500000001L257.05449999999985 698.3895000000001L255.49249999999972 703.7020000000001L263.46100000000035 710.7332500000001L275.33600000000035 707.2957500000001L278.46100000000035 702.9207500000001L277.67949999999985 699.0145000000001L280.64850000000035 697.9207500000001L281.7424999999997 699.3270000000001L288.6174999999997 696.0457500000001L293.46100000000035 700.5770000000001L299.8674999999997 700.2645000000001L303.46100000000035 699.6395000000001L308.46100000000035 695.4207500000001L307.52350000000035 691.2020000000001L315.02350000000035 690.7332500000001L315.96100000000035 692.2957500000001L319.2424999999997 690.7332500000001L319.39850000000035 689.0145000000001L342.3674999999997 681.3582500000001L351.89850000000035 679.3270000000001L350.96100000000035 675.5770000000001L353.30449999999985 670.1082500000001L361.1174999999997 669.1707500000001L376.89850000000035 670.8895000000001L378.30449999999985 671.9832500000001L399.2424999999997 675.1082500000001L399.71100000000035 674.4832500000001L396.1174999999997 673.2332500000001L398.77350000000035 666.3582500000001L405.17949999999985 666.3582500000001L409.55449999999985 661.6707500000001L418.30449999999985 660.5770000000001L421.58600000000035 664.3270000000001L425.33600000000035 669.6395000000001L427.3674999999997 669.4832500000001L429.08600000000035 673.2332500000001L439.2424999999997 675.7332500000001L440.33600000000035 677.4520000000001L438.77350000000035 683.3895000000001L441.1174999999997 680.8895000000001L442.3674999999997 675.7332500000001L448.30449999999985 671.9832500000001L458.14850000000035 672.2957500000001L461.27350000000035 669.9520000000001L467.21100000000035 671.3582500000001L474.55449999999985 664.7957500000001L479.2424999999997 666.9832500000001L482.9924999999997 659.4832500000001L484.71100000000035 658.8582500000001L487.52350000000035 661.3582500000001L491.7424999999997 656.0457500000001L505.80449999999985 661.5145000000001L512.8360000000004 655.7332500000001L514.2424999999997 650.2645000000001L515.9610000000004 649.6395000000001L524.0860000000004 647.9207500000001L526.5860000000004 642.6082500000001L532.5235000000004 641.3582500000001L532.0544999999998 639.1707500000001L514.2424999999997 632.2957500000001L514.2424999999997 632.1395000000001L517.8360000000004 620.1082500000001L524.3985000000004 612.4520000000001L525.6485000000004 611.0457500000001L529.2424999999997 611.3582500000001L535.0235000000004 603.0770000000001L538.6174999999997 601.3582500000001L544.2424999999997 601.2020000000001L550.1794999999998 598.3895000000001L551.7424999999997 600.2645000000001L557.8360000000004 599.6395000000001L561.2735000000004 598.0770000000001L563.6174999999997 593.0770000000001L566.4294999999998 589.9520000000001L567.5235000000004 581.9832500000001L564.0860000000004 579.1707500000001L562.3674999999997 570.8895000000001L555.3360000000004 562.9207500000001L553.1485000000004 568.2332500000001L545.9610000000004 570.4207500000001L539.7110000000004 572.4520000000001L534.3985000000004 579.4832500000001L530.4924999999997 581.5145000000001L522.6794999999998 563.7020000000001L522.0544999999998 551.3582500000001L518.1485000000004 546.5145000000001L512.2110000000004 544.3270000000001L507.52350000000035 540.1082500000001L505.4924999999997 539.0145000000001L501.58600000000035 538.8582500000001L499.2424999999997 540.2645000000001L496.89850000000035 538.8582500000001L492.9924999999997 543.2332500000001L491.7424999999997 541.6707500000001L485.96100000000035 544.0145000000001L484.2424999999997 547.7645000000001L479.8674999999997 543.5457500000001L477.05449999999985 551.0457500000001L472.05449999999985 553.3895000000001L470.64850000000035 554.6395000000001L471.1174999999997 560.2645000000001L455.4924999999997 570.1082500000001L453.46100000000035 569.9520000000001L449.2424999999997 561.6707500000001L447.67949999999985 562.6082500000001L446.7424999999997 564.4832500000001L440.96100000000035 562.1395000000001L437.67949999999985 556.8270000000001L438.46100000000035 552.6082500000001L439.71100000000035 542.9207500000001L444.2424999999997 535.5770000000001L443.6174999999997 531.2020000000001L439.71100000000035 529.1707500000001L440.80449999999985 527.4520000000001L446.58600000000035 527.4520000000001L446.27350000000035 522.1395000000001L446.27350000000035 516.5145000000001L443.30449999999985 510.8895000000001L433.77350000000035 504.3270000000001L431.58600000000035 502.1395000000001L417.83600000000035 481.5145000000001L412.67949999999985 479.6395000000001L412.52350000000035 483.5457500000001L411.58600000000035 492.1395000000001L413.46100000000035 496.0457500000001L409.08600000000035 500.8895000000001L407.05449999999985 500.7332500000001L406.42949999999985 499.0145000000001L407.52350000000035 497.2957500000001L397.05449999999985 484.7957500000001L385.02350000000035 481.3582500000001L377.52350000000035 477.7645000000001L375.33600000000035 474.4832500000001L371.27350000000035 475.1082500000001L370.96100000000035 475.2645000000001L367.67949999999985 482.6082500000001L357.67949999999985 481.9832500000001L354.8674999999997 484.7957500000001L353.30449999999985 477.1395000000001L344.55449999999985 480.8895000000001L342.05449999999985 477.9207500000001L338.77350000000035 479.9520000000001L336.89850000000035 479.1707500000001L335.80449999999985 475.2645000000001L330.02350000000035 474.6395000000001L326.27350000000035 475.8895000000001L321.7424999999997 485.4207500000001L323.14850000000035 488.3895000000001L325.80449999999985 501.0457500000001L319.55449999999985 509.4832500000001L317.3674999999997 515.2645000000001L310.17949999999985 513.0770000000001L305.33600000000035 522.2957500000001L302.67949999999985 527.4520000000001L297.05449999999985 526.9832500000001L287.21100000000035 526.0457500000001L287.83600000000035 519.9520000000001L284.2424999999997 514.9520000000001L276.27350000000035 507.6082500000001L272.83600000000035 497.2957500000001L269.55449999999985 487.6082500000001L267.9924999999997 485.1082500000001L263.14850000000035 486.6707500000001L259.71100000000035 489.4832500000001L247.05449999999985 484.1707500000001L242.83600000000035 472.4520000000001L238.14850000000035 470.8895000000001L240.02350000000035 464.9520000000001L235.49249999999972 460.4207500000001L220.96100000000035 460.5770000000001L219.24249999999972 459.0145000000001L202.52350000000035 449.7957500000001L189.55449999999985 455.1082500000001L187.99249999999972 452.6082500000001L175.33600000000035 459.7957500000001L172.67949999999985 452.2957500000001L169.08600000000035 447.9207500000001zM49.55449999999985 555.1082500000001L33.61750000000029 559.7957500000001L21.11750000000029 557.9207500000001L19.86750000000029 559.3270000000001L21.898500000000354 564.9520000000001L18.61750000000029 567.2957500000001L18.61750000000029 569.3270000000001L21.586000000000354 572.1395000000001L25.961000000000354 567.7645000000001L30.804499999999848 574.3270000000001L36.11750000000029 577.9207500000001L40.336000000000354 573.2332500000001L43.461000000000354 575.8895000000001L46.898500000000354 576.5145000000001L46.42949999999985 572.2957500000001L51.586000000000354 565.1082500000001L52.36750000000029 558.5457500000001L49.55449999999985 555.1082500000001z">
      <title id="t85">Cinquième circonscription de Côte-d'Or</title>
      <desc id="d85">Cantons de : Arnay-le-Duc, Beaune Nord, Beaune Sud, Bligny-sur-Ouche, Gevrey-Chambertin, Liernais, Nolay, Nuits-Saint-Georges, Pouilly-en-Auxois, Saint-Jean-de-Losne, Seurre</desc>
    </path></svg>