<svg xmlns="http://www.w3.org/2000/svg" version="1.1" xmlns:xlink="http://www.w3.org/1999/xlink" xmlns:svgjs="http://svgjs.dev/svgjs" width="745.7005000000001" height="545.5582000000002" fill="#eeeeee" stroke="#cccccc" xmlns:sodipodi="http://sodipodi.sourceforge.net/DTD/sodipodi-0.dtd"><path class="circo" id="id-022-01" d="M285.01800000000003 290.34605L280.80100000000016 283.14795000000004L272.6955000000001 280.6235000000001L272.4335000000002 275.29585L272.5645 264.75465000000014L283.073 254.66080000000005L287.5875000000002 247.85375000000016L295.81199999999995 246.0648500000002L303.66150000000005 233.8304500000001L301.0680000000002 228.05810000000008L294.8180000000002 222.50490000000013L293.8390000000001 224.1429500000001L292.3150000000001 223.00170000000008L293.536 219.44029999999998L292.2725 213.27505000000002L297.9860000000002 210.37975000000017L299.28050000000013 206.33020000000016L294.44350000000014 199.57660000000004L291.345 194.05130000000014L291.36150000000015 189.83644999999996L294.22500000000014 185.59030000000007L296.0940000000002 185.9990000000002L300.23650000000004 186.36269999999996L309.1885000000002 191.88739999999996L313.41350000000006 191.58604999999994L320.8450000000002 187.64724999999999L325.8985000000001 194.41360000000003L340.05150000000015 189.46635000000015L342.363 186.50020000000012L342.54099999999994 182.42905000000007L348.66600000000005 181.2310500000001L350.3705000000002 182.63470000000012L351.362 189.17464999999993L353.3110000000002 190.21235000000019L357.6305000000002 191.0393000000002L363.2770000000002 187.97885000000008L370.45950000000005 192.71109999999993L374.7810000000001 192.38725000000017L378.77849999999995 201.9487000000001L402.77600000000007 212.15010000000007L399.6030000000002 217.76669999999996L401.8185 223.9683500000001L400.6125 225.81559999999996L405.5760000000001 226.29440000000017L401.88050000000004 230.01869999999997L405.2235000000002 234.03515L414.5565000000002 249.6175500000001L418.12399999999997 252.39644999999996L419.87899999999996 252.82485000000008L415.85049999999995 248.36685000000017L420.0985 240.85665000000006L417.123 225.4574500000001L422.3260000000002 223.88364999999993L427.45599999999996 230.72010000000006L434.56050000000005 231.71414999999996L439.19700000000006 230.2067500000001L443.03200000000004 235.04255L446.32300000000015 244.74154999999996L448.79850000000005 253.29939999999993L447.21599999999995 257.48355000000004L441.7245 264.17895000000016L433.0515 263.3321000000001L431.2085000000002 274.00385L424.92850000000004 279.9058500000001L416.27650000000017 278.83125000000007L410.20100000000014 281.43850000000015L406.6535000000002 289.6126000000001L407.4600000000001 296.1579500000002L405.28850000000006 300.06445000000014L403.193 301.8222L397.8310000000002 298.8797500000001L383.1400000000002 298.10550000000006L377.41450000000015 303.53955000000013L375.4275000000001 302.75004999999993L372.808 292.53285000000005L375.24 286.71965L369.4505000000001 284.1352500000002L365.14100000000013 284.2217500000001L359.54049999999995 287.28274999999996L356.28950000000003 284.52415L350.967 287.83175L349.9225000000001 284.0667000000002L354.8305000000002 277.4016500000002L353.3510000000001 273.51680000000016L349.1255000000001 264.8565500000001L344.98050000000006 269.53660000000013L335.2265 274.35249999999996L333.21200000000005 280.59595L330.18100000000004 283.70149999999995L318.20700000000016 287.64084999999994L312.2625000000002 281.83449999999993L306.4855 292.6917L295.63950000000006 288.2315L289.1920000000002 290.82584999999995L285.01800000000003 290.34605z">
      <title id="t86">Première circonscription des Côtes-d'Armor</title>
      <desc id="d86">Cantons de : Châtelaudren, Langueux, Plérin, Ploufragan, Saint-Brieuc Nord, Saint-Brieuc Ouest, Saint-Brieuc Sud</desc>
    </path><path class="circo" id="id-022-02" d="M552.46 401.82879999999983L545.4745 397.6076500000002L544.846 393.4357000000003L546.7494999999999 383.85435L540.0595000000001 379.1453500000003L539.4380000000001 375.1723000000001L534.1625000000001 368.6779500000003L534.335 364.48184999999995L540.4920000000002 364.68125000000015L542.142 358.9538000000002L545.4005000000001 356.33295000000004L549.4235000000001 343.97234999999995L562.0830000000001 331.8623500000001L570.762 337.92464999999993L578.4960000000001 325.39715L579.4015000000002 325.51485000000014L573.6530000000002 312.30725000000007L580.0140000000001 311.2139000000002L590.3480000000002 303.41849999999994L589.6705 298.87400000000014L585.5150000000001 298.97965L583.384 286.9144L575.4545000000002 287.36220000000003L566.3375000000002 282.48545000000007L570.6565 272.79195000000016L573.9645000000002 270.0603000000001L575.259 261.53954999999996L564.6720000000003 263.9443L559.607 259.94760000000014L558.5665 258.0292L563.8644999999999 251.37805000000014L566.4545 245.4080000000002L565.4200000000001 243.4887500000002L561.645 243.27065000000005L558.7104999999999 240.72834999999998L550.1305000000002 240.75209999999998L539.9200000000002 244.27395000000018L538.107 243.0621500000001L531.6679999999999 229.53865000000008L529.5785000000001 228.93670000000014L522.3690000000001 237.03675000000004L516.6945000000001 239.82505000000003L514.5945 243.57470000000006L508.0645000000001 243.8948000000002L503.05350000000004 234.42080000000004L493.6500000000001 228.78715L490.94300000000004 231.99780000000004L485.3740000000002 242.55989999999997L475.04250000000013 246.1566000000002L467.66350000000017 241.5411500000002L456.7765 243.30275L455.29650000000004 234.9373L451.2835000000001 227.40409999999997L440.0895 221.50094999999993L450.27800000000013 213.54150000000004L462.4935000000002 198.37925000000013L473.81 184.74455000000006L482.7295000000001 183.80885000000006L495.0215 178.11374999999998L507.01300000000003 167.42265000000003L508.5995 160.01779999999997L500.9910000000002 158.4427500000001L499.65300000000013 154.32559999999995L520.7580000000002 149.2455000000001L527.928 153.1928000000002L529.7540000000001 161.6146500000002L532.9045000000002 159.15985000000006L530.2430000000002 156.33890000000008L538.4300000000002 155.39915000000008L541.893 150.0464500000001L558.2900000000001 143.50245L566.4250000000002 136.15655000000004L567.7905000000001 129.80864999999994L572.3345 125.96665000000002L574.9925000000002 130.90554999999995L573.828 135.87590000000006L579.1535000000001 139.20000000000016L586.0235 138.73795L575.181 154.89100000000008L576.7575000000002 157.1911L568.8835 165.18560000000008L563.5930000000002 170.21050000000002L569.2960000000003 170.96014999999994L570.884 174.12765000000007L574.6640000000002 175.0771500000002L579.2860000000002 168.00135000000012L583.4680000000001 166.66455000000013L585.2630000000001 165.68010000000015L584.9865 163.44359999999995L595.9990000000003 153.9029500000001L603.0805 154.40985000000012L598.1125 159.78049999999996L603.2484999999999 167.14165000000008L602.672 173.08684999999997L609.6135000000002 176.07799999999997L611.8505000000002 187.2045L616.6975000000002 188.00645000000003L616.3415 199.68324999999993L619.6575000000001 198.67025000000012L619.5805000000001 196.53234999999995L625.0575000000001 187.60355000000004L624.8315 178.45315L628.2145 179.73090000000013L627.6545000000001 194.8864500000002L630.3445000000002 197.6919000000001L635.9990000000003 197.53964999999994L640.4205000000002 190.7919000000001L634.9005 184.71310000000017L643.159 172.27554999999995L645.2625 171.65705000000003L648.8710000000001 177.03644999999995L654.4455000000003 180.05615000000006L653.4960000000001 184.48045000000008L653.9385000000002 187.12225000000018L666.9345000000001 201.03920000000016L672.7860000000001 203.42209999999994L681.4925 202.1022000000002L686.8870000000002 205.94099999999997L684.6055000000001 213.7803500000001L687.3295000000002 218.7560000000002L690.539 220.1413500000001L692.5845000000002 214.29850000000016L698.8220000000001 209.38569999999999L704.092 204.66170000000005L706.086 202.78050000000007L707.9195000000002 208.14054999999996L711.0035000000003 211.92665000000005L708.7945000000002 214.22529999999995L712.5060000000002 214.79995000000002L711.8200000000002 218.36759999999998L718.1725 218.19105000000008L718.894 224.89779999999996L713.843 230.24460000000005L707.6855 232.28399999999993L713.6020000000002 232.3597000000001L712.7774999999999 235.93954999999994L716.45 237.20484999999996L713.461 239.64415000000002L713.5365000000002 247.69980000000004L710.1635000000001 246.95965L710.6550000000002 248.1654500000002L709.382 248.73244999999997L709.0520000000001 251.2677500000001L706.5905 250.71359999999999L706.4369999999999 252.4804500000002L709.7015000000001 252.33104999999995L710.4224999999999 249.51044999999993L713.1830000000002 249.41040000000015L715.127 248.2405L717.0709999999999 248.0827500000001L715.4160000000002 246.60365000000013L715.3870000000001 239.37145000000015L721.1430000000001 239.30795000000018L719.597 232.5060000000002L723.0155000000002 229.81459999999998L727.0760000000001 236.08265000000017L732.5935000000002 234.6890000000002L729.5295000000001 234.65630000000004L726.0065 232.17680000000001L729.1075000000001 222.19355000000007L735.3544999999999 214.3196500000002L736.2055 214.64775000000003L738.9825000000002 218.10760000000016L738.6915000000001 222.5061500000001L741.577 225.86569999999995L744.6885 236.49905000000018L744.6335000000001 240.9086000000002L739.8355000000001 245.23870000000016L739.7605000000001 247.45800000000003L745.7005000000001 258.9243000000002L738.0755000000001 261.95565000000016L736.456 266.1079000000001L738.6510000000001 269.98594999999995L738.5265000000002 274.3787500000002L732.9945 281.0617500000001L728.8535000000002 281.42055L727.4065000000002 292.06784999999996L733.3440000000002 298.4660500000001L732.0165 304.39690000000013L733.3005 306.15695000000017L732.1955 310.29525000000007L736.7455000000001 314.79915000000005L733.0045000000001 316.15290000000016L732.5580000000002 320.0525000000002L730.093 325.62365L729.7750000000002 332.21295L735.9155000000001 340.22850000000005L736.6385 344.35734999999994L735.1505 345.83965000000006L729.2160000000001 347.90190000000024L721.0920000000001 347.75675000000007L725.9565 363.1135500000002L722.0799999999999 374.2056499999998L724.854 379.5196999999999L720.8029999999999 380.2932999999999L717.0285000000001 374.9742499999999L710.6624999999999 376.2820500000001L708.7085000000002 377.26460000000003L706.1765 380.8061999999998L705.2020000000002 387.17940000000027L701.0295000000002 388.1993000000003L687.1445 381.6539000000003L683.95 376.0476000000003L674.0350000000001 380.3897500000002L674.3815000000001 384.8022L670.9390000000002 390.28760000000005L660.076 391.05514999999997L660.4430000000002 395.1361L664.5085 396.6742000000002L660.8655000000001 403.9909000000003L661.7240000000002 405.9952000000001L654.3010000000002 401.1598000000001L643.2510000000002 401.46750000000026L642.0830000000001 399.5752999999999L631.5425000000002 406.44964999999985L627.4725000000001 410.8848000000003L626.155 423.50899999999996L628.844 429.2679000000001L628.7405000000001 431.36184999999983L625.4480000000001 433.70755L621.268 433.7879000000001L616.1205000000001 430.2412000000001L610.129 431.99070000000034L606.377 431.1820000000003L601.4365 435.6296999999998L598.4210000000002 432.5296L590.5555000000002 429.6288999999999L586.4245 429.94080000000025L574.5074999999999 424.6464499999999L568.2765 425.8961000000002L567.8005000000002 413.8975500000001L563.7395000000001 406.69095L558.4895 410.3512500000002L552.46 401.82879999999983z">
      <title id="t87">Deuxième circonscription des Côtes-d'Armor</title>
      <desc id="d87">Cantons de : Broons, Caulnes, Dinan Est, Dinan Ouest, Evran, Matignon, Plancoët, Plélan-le-Petit, Pléneuf-Val-André, Ploubalay</desc>
    </path><path class="circo" id="id-022-03" d="M426.19550000000004 542.6884500000003L426.61850000000015 537.7321000000004L422.8310000000002 536.5076999999999L423.54000000000013 530.1985500000003L421.70050000000003 526.2521000000002L428.34599999999995 510.31270000000035L429.6800000000002 503.91325000000023L428.2900000000001 499.76444999999984L429.9950000000001 495.90405000000004L428.0445 493.13245000000023L429.9180000000001 489.9423500000003L423.742 481.9946999999999L419.6180000000001 482.3958999999999L408.53499999999997 490.7343499999999L407.8220000000002 494.74365000000006L397.4195 492.15209999999985L389.0435000000002 493.82570000000015L387.66700000000014 492.14635000000015L383.1710000000001 504.4719999999998L377.5325000000001 510.9025L376.31550000000004 498.78555000000034L374.0360000000001 495.4152000000002L374.9395000000001 491.63835000000034L373.4035 488.2590000000002L362.5925000000001 473.0138500000001L345.84900000000005 476.4170500000003L333.8840000000002 470.2346000000003L328.1445000000002 461.4315000000002L321.9630000000001 462.02214999999995L305.8665000000002 456.9910999999999L297.48850000000004 458.5002L290.73650000000015 463.6074499999998L282.11600000000004 463.99485L282.8620000000001 457.8132000000002L277.15599999999995 455.3857500000001L274.19849999999997 444.63100000000026L275.1480000000001 440.2311L268.8905 440.91845000000006L266.5470000000002 437.27749999999986L262.26349999999996 437.1576000000002L258.63500000000016 434.80699999999985L252.21900000000005 435.6188499999999L249.29900000000004 432.63870000000026L253.15150000000017 425.11150000000015L257.23150000000004 423.6046999999999L259.03999999999996 419.6371000000002L257.82550000000015 411.05260000000015L253.65650000000016 411.0513499999999L251.85900000000004 407.16455000000025L243.54550000000017 406.4426499999999L244.66400000000021 403.14190000000025L243.0005 400.41349999999994L245.14399999999995 396.6231000000002L242.81900000000007 390.53405000000026L242.90600000000012 383.90545000000003L238.142 376.7580000000001L241.17250000000013 373.72645000000006L245.27800000000013 372.9872000000003L252.15550000000007 365.97925000000004L246.83150000000012 359.18199999999985L246.79000000000002 354.9853500000003L251.85050000000018 347.8501000000003L266.6760000000002 335.50614999999993L267.43449999999996 331.6500000000002L263.90500000000003 330.8758500000002L263.254 324.69134999999994L259.3550000000002 325.64925000000017L258.21050000000014 321.30875000000003L262.174 310.72355000000016L262.679 307.3920000000001L267.2135 304.31685000000016L267.32349999999997 298.96424999999994L270.16050000000007 295.75320000000005L267.9465000000002 292.10880000000003L270.1080000000002 283.95520000000005L272.6955000000001 280.6235000000001L280.80100000000016 283.14795000000004L285.01800000000003 290.34605L289.1920000000002 290.82584999999995L295.63950000000006 288.2315L306.4855 292.6917L312.2625000000002 281.83449999999993L318.20700000000016 287.64084999999994L330.18100000000004 283.70149999999995L333.21200000000005 280.59595L335.2265 274.35249999999996L344.98050000000006 269.53660000000013L349.1255000000001 264.8565500000001L353.3510000000001 273.51680000000016L354.8305000000002 277.4016500000002L349.9225000000001 284.0667000000002L350.967 287.83175L356.28950000000003 284.52415L359.54049999999995 287.28274999999996L365.14100000000013 284.2217500000001L369.4505000000001 284.1352500000002L375.24 286.71965L372.808 292.53285000000005L375.4275000000001 302.75004999999993L377.41450000000015 303.53955000000013L383.1400000000002 298.10550000000006L397.8310000000002 298.8797500000001L403.193 301.8222L405.28850000000006 300.06445000000014L407.4600000000001 296.1579500000002L406.6535000000002 289.6126000000001L410.20100000000014 281.43850000000015L416.27650000000017 278.83125000000007L424.92850000000004 279.9058500000001L431.2085000000002 274.00385L433.0515 263.3321000000001L441.7245 264.17895000000016L447.21599999999995 257.48355000000004L448.79850000000005 253.29939999999993L446.32300000000015 244.74154999999996L443.03200000000004 235.04255L439.19700000000006 230.2067500000001L438.57050000000015 222.86564999999996L440.0895 221.50094999999993L451.2835000000001 227.40409999999997L455.29650000000004 234.9373L456.7765 243.30275L467.66350000000017 241.5411500000002L475.04250000000013 246.1566000000002L485.3740000000002 242.55989999999997L490.94300000000004 231.99780000000004L493.6500000000001 228.78715L503.05350000000004 234.42080000000004L508.0645000000001 243.8948000000002L514.5945 243.57470000000006L516.6945000000001 239.82505000000003L522.3690000000001 237.03675000000004L529.5785000000001 228.93670000000014L531.6679999999999 229.53865000000008L538.107 243.0621500000001L539.9200000000002 244.27395000000018L550.1305000000002 240.75209999999998L558.7104999999999 240.72834999999998L561.645 243.27065000000005L565.4200000000001 243.4887500000002L566.4545 245.4080000000002L563.8644999999999 251.37805000000014L558.5665 258.0292L559.607 259.94760000000014L564.6720000000003 263.9443L575.259 261.53954999999996L573.9645000000002 270.0603000000001L570.6565 272.79195000000016L566.3375000000002 282.48545000000007L575.4545000000002 287.36220000000003L583.384 286.9144L585.5150000000001 298.97965L589.6705 298.87400000000014L590.3480000000002 303.41849999999994L580.0140000000001 311.2139000000002L573.6530000000002 312.30725000000007L579.4015000000002 325.51485000000014L578.4960000000001 325.39715L570.762 337.92464999999993L562.0830000000001 331.8623500000001L549.4235000000001 343.97234999999995L545.4005000000001 356.33295000000004L542.142 358.9538000000002L540.4920000000002 364.68125000000015L534.335 364.48184999999995L534.1625000000001 368.6779500000003L539.4380000000001 375.1723000000001L540.0595000000001 379.1453500000003L546.7494999999999 383.85435L544.846 393.4357000000003L545.4745 397.6076500000002L552.46 401.82879999999983L558.4895 410.3512500000002L563.7395000000001 406.69095L567.8005000000002 413.8975500000001L568.2765 425.8961000000002L574.5074999999999 424.6464499999999L586.4245 429.94080000000025L590.5555000000002 429.6288999999999L598.4210000000002 432.5296L601.4365 435.6296999999998L606.377 431.1820000000003L610.129 431.99070000000034L614.0380000000002 436.83750000000003L611.5065000000002 457.6896000000002L609.2505 461.4372L601.9124999999999 465.6896500000002L601.7539999999999 467.8717500000002L605.9200000000001 472.74125L604.1550000000001 474.0253500000003L599.8260000000002 473.77440000000007L594.5115000000001 470.16580000000005L586.6390000000001 473.8132500000003L584.9260000000002 481.17130000000003L572.3240000000001 480.9362999999999L569.9825000000001 486.98115L566.7185000000001 489.69405000000023L559.5485000000002 485.8459000000002L555.0695000000002 495.4527500000003L553.1215 493.9892999999998L548.2920000000001 487.11295000000035L547.8340000000001 482.9804500000003L547.3435000000001 476.2706L537.1299999999999 467.60605000000027L533.9685 459.3241500000002L528.1315000000001 456.0071000000002L517.028 456.4704500000002L511.0915 462.3771000000002L500.6555 461.5347L499.4485 465.7737499999999L479.9195 466.3962000000001L487.9615000000001 478.51245000000034L488.17200000000014 482.77095L485.633 488.5607999999999L479.75150000000014 497.78944999999993L474.6870000000001 501.9754000000003L472.509 505.36160000000024L473.82750000000016 517.6193000000003L469.7425000000001 518.8374000000001L467.0905000000002 522.2098000000003L460.8455000000001 521.9064000000001L460.137 523.9480000000001L455.3105000000002 531.2382L442.1025 542.7857000000004L433.63500000000016 542.5435500000001L432.34200000000016 540.7612000000004L428.31649999999996 545.5582000000002L426.19550000000004 542.6884500000003z">
      <title id="t88">Troisième circonscription des Côtes-d'Armor</title>
      <desc id="d88">Cantons de : La Chèze, Collinée, Corlay, Jugon-les-Lacs, Lamballe, Loudéac, Merdrignac, Moncontour, Mûr-de-Bretagne, Ploeuc-sur-Lié, Plouguenast, Quintin, Uzel</desc>
    </path><path class="circo" id="id-022-04" d="M142.24400000000003 148.22705000000013L137.86699999999996 148.50435000000004L129.949 148.22125L126.69049999999999 143.34609999999998L122.46949999999998 136.09280000000012L121.45150000000001 129.7224L116.6995 125.53595000000001L116.71700000000016 121.38045000000005L114.22799999999995 112.24420000000009L104.7490000000002 115.90554999999995L101.76850000000002 121.58265L106.07300000000009 134.07055000000014L101.21250000000003 144.16650000000004L101.72600000000017 150.62155000000018L92.40949999999998 150.52570000000003L86.09000000000009 150.12169999999998L78.61800000000017 146.3297L76.66950000000014 147.13525000000004L86.0635000000002 135.63455000000005L85.3925000000001 133.51699999999994L79.13000000000011 132.09255000000013L74.8830000000001 124.52449999999999L76.37400000000014 118.19495000000018L82.65650000000022 112.12050000000005L76.17500000000007 113.08535000000006L68.63 117.24829999999997L64.40200000000004 116.65130000000005L60.44200000000018 104.54520000000002L51.317999999999984 98.81490000000014L46.6995 99.75819999999999L45.85800000000006 100.86900000000014L41.658000000000186 100.00429999999994L34.578500000000076 105.15595000000019L34.44800000000015 123.07064999999994L36.88550000000021 126.52160000000009L39.111500000000206 126.81775000000016L40.80500000000001 129.837L38.38150000000013 134.82680000000016L35.543499999999995 137.40575000000007L23.011999999999944 138.53904999999997L20.595500000000015 128.49414999999993L11.027500000000146 129.9812L11.74350000000004 136.77629999999994L5.027500000000202 140.88220000000007L1.8670000000000186 144.81510000000014L0 148.29589999999996L3.9760000000001128 171.77279999999996L6.186500000000024 175.41590000000014L10.054499999999962 177.0326L9.747000000000128 185.42509999999993L11.386500000000126 187.17749999999995L14.551500000000033 190.36720000000003L21.16800000000012 189.81525000000005L27.1875 192.78305000000017L29.305999999999983 192.04804999999993L33.07400000000001 200.0654L27.24649999999997 209.47689999999994L34.771499999999946 212.46215000000007L38.60900000000015 210.66294999999997L46.629000000000076 220.60415000000006L52.81050000000022 222.55175000000008L44.25100000000015 229.74850000000004L33.4820000000002 244.13280000000015L27.9910000000001 247.99869999999999L25.232500000000186 250.91115000000002L26.239500000000078 257.0898500000001L24.919500000000028 261.0446000000002L27.823999999999955 263.83340000000004L27.176500000000203 265.82070000000016L29.151999999999987 266.0540500000002L30.334500000000162 269.85455L36.059999999999945 270.98900000000015L35.978000000000065 273.05020000000013L40.20450000000011 277.26640000000003L46.33650000000017 276.789L48.043499999999995 280.53955L41.32149999999996 286.26030000000014L33.361500000000035 290.03794999999997L27.527500000000202 296.67415000000005L26.915500000000065 309.7031000000001L25.670499999999947 310.94055L26.050500000000056 315.1448000000002L23.739000000000203 318.6445500000002L46.063500000000204 325.9480500000001L46.580000000000155 330.3065000000001L42.80799999999999 345.06974999999983L45.60050000000018 348.19604999999996L49.03649999999999 365.62134999999984L53.110499999999945 365.77860000000015L57.92950000000019 361.09635L61.709000000000174 363.2522000000003L57.73750000000007 364.7592499999999L51.43950000000018 375.81694999999996L47.27000000000004 375.32819999999987L46.967500000000086 379.58675L56.71000000000021 383.71189999999984L59.74800000000016 386.8038500000003L61.898000000000195 386.4583000000002L58.51850000000013 393.77285L58.23700000000002 399.96985000000024L60.07949999999994 403.7010999999998L52.20050000000015 405.00775000000004L50.59449999999998 411.1458000000002L46.63700000000006 412.88735L45.686000000000035 421.56829999999985L51.97000000000003 433.09274999999985L59.91000000000014 436.4338000000001L60.4555000000002 440.7526500000003L61.142499999999984 444.9032500000001L59.16349999999994 445.6089499999999L51.186500000000024 443.0485999999999L41.170000000000186 445.3067999999999L41.94749999999999 448.0391L46.84899999999999 451.9235999999998L55.663000000000125 452.7662000000001L70.90450000000004 449.86155000000025L77.81200000000013 447.9677000000001L82.18900000000019 452.29135000000014L90.4985000000002 452.5973000000002L92.33450000000005 451.47425000000027L92.83600000000007 447.2837000000001L102.6230000000001 455.9427500000001L95.88449999999995 464.272L97.70200000000017 468.20750000000004L104.52750000000009 473.5954000000001L110.32499999999999 467.5207000000003L116.31050000000016 468.5056499999999L122.87800000000004 462.6975999999999L133.52000000000004 460.6050000000002L138.81200000000007 457.0771499999998L144.13600000000002 465.4087000000001L143.5345000000001 469.42555L146.75100000000015 471.5819000000002L147.9385000000002 467.50095000000016L154.187 467.62010000000004L158.02300000000002 469.21085000000033L161.01250000000022 474.7903499999998L166.82199999999995 476.8501499999999L167.43099999999998 474.8413000000002L174.56199999999995 471.3633999999999L180.711 470.6098L192.0950000000002 475.6241000000003L190.70449999999994 469.6052L196.3930000000002 463.4857500000001L200.31300000000016 461.92275000000024L206.26149999999996 463.7145000000001L208.08250000000015 464.85944999999987L213.52850000000018 461.4703499999999L219.15900000000022 463.7495500000003L223.8775000000001 459.4643499999998L226.66449999999998 453.6961499999998L223.9440000000002 450.27270000000016L224.16349999999994 445.86015000000003L226.79100000000005 439.7968499999999L230.89349999999996 438.3149499999999L232.99000000000007 434.6354499999998L240.54249999999996 435.39500000000004L241.72300000000007 437.0128500000001L243.72800000000012 437.2659999999999L247.28499999999997 432.5647000000001L249.29900000000004 432.63870000000026L253.15150000000017 425.11150000000015L257.23150000000004 423.6046999999999L259.03999999999996 419.6371000000002L257.82550000000015 411.05260000000015L253.65650000000016 411.0513499999999L251.85900000000004 407.16455000000025L243.54550000000017 406.4426499999999L244.66400000000021 403.14190000000025L243.0005 400.41349999999994L245.14399999999995 396.6231000000002L242.81900000000007 390.53405000000026L242.90600000000012 383.90545000000003L238.142 376.7580000000001L241.17250000000013 373.72645000000006L245.27800000000013 372.9872000000003L252.15550000000007 365.97925000000004L246.83150000000012 359.18199999999985L246.79000000000002 354.9853500000003L251.85050000000018 347.8501000000003L266.6760000000002 335.50614999999993L267.43449999999996 331.6500000000002L263.90500000000003 330.8758500000002L263.254 324.69134999999994L259.3550000000002 325.64925000000017L258.21050000000014 321.30875000000003L262.174 310.72355000000016L262.679 307.3920000000001L267.2135 304.31685000000016L267.32349999999997 298.96424999999994L270.16050000000007 295.75320000000005L267.9465000000002 292.10880000000003L270.1080000000002 283.95520000000005L272.6955000000001 280.6235000000001L272.4335000000002 275.29585L272.5645 264.75465000000014L283.073 254.66080000000005L287.5875000000002 247.85375000000016L295.81199999999995 246.0648500000002L303.66150000000005 233.8304500000001L301.0680000000002 228.05810000000008L294.8180000000002 222.50490000000013L293.8390000000001 224.1429500000001L292.3150000000001 223.00170000000008L293.536 219.44029999999998L292.2725 213.27505000000002L297.9860000000002 210.37975000000017L299.28050000000013 206.33020000000016L294.44350000000014 199.57660000000004L291.345 194.05130000000014L291.36150000000015 189.83644999999996L294.22500000000014 185.59030000000007L296.0940000000002 185.9990000000002L300.23650000000004 186.36269999999996L309.1885000000002 191.88739999999996L313.41350000000006 191.58604999999994L312.6660000000001 189.48049999999995L315.27299999999997 183.3943500000001L310.22549999999995 176.44634999999994L310.5450000000002 174.23050000000018L314.4120000000001 173.6024500000002L315.771 162.56130000000013L315.50250000000005 152.02850000000012L302.54549999999995 147.45949999999993L298.1820000000002 151.59170000000017L296.1005 151.76085L290.57800000000015 145.7680000000002L288.2835 149.2390500000002L284.27099999999996 144.86140000000006L275.2065000000002 140.3474L272.9060000000001 132.41890000000012L270.79200000000014 132.2496000000001L267.62550000000005 126.79585000000003L265.64600000000013 127.56969999999995L262.774 127.86580000000015L257.6475000000002 126.03039999999993L257.31750000000005 122.71010000000018L241.23350000000016 129.22799999999995L239.18650000000014 133.01620000000014L239.40950000000015 137.3246500000002L240.65050000000014 139.08095000000003L248.6205000000001 140.94780000000014L253.4745000000001 134.65689999999995L259.0365 137.50805000000014L257.0520000000002 143.1125L249.58600000000018 146.50405000000006L249.3595000000002 150.17830000000004L246.87450000000013 153.68425000000002L242.543 153.71195L237.20050000000015 157.44069999999994L231.16550000000018 154.59059999999994L230.78300000000013 150.39510000000007L227.45800000000003 148.64075000000014L224.3425000000002 153.60770000000002L220.70099999999996 155.30265000000014L215.49949999999995 145.7963000000001L212.96999999999997 149.05955000000006L204.79299999999995 148.40204999999997L200.17350000000022 152.2311000000002L198.37450000000018 148.62269999999995L190.933 146.07040000000012L192.32650000000007 154.7424000000001L186.27350000000007 166.4208500000001L181.4500000000001 162.84040000000005L177.8895 155.85195L179.28799999999995 148.21224999999998L174.98100000000022 147.75930000000017L170.0755000000001 143.56359999999995L163.79850000000005 142.0096000000001L160.2370000000002 136.60960000000017L151.01650000000006 146.08715000000018L142.24400000000003 148.22705000000013z">
      <title id="t89">Quatrième circonscription des Côtes-d'Armor</title>
      <desc id="d89">Cantons de : Bégard, Belle-Isle-en-Terre, Bourbriac, Callac, Gouarec, Guingamp, Lanvollon, Maël-Carhaix, Plestin-les-Grèves, Plouagat, Plouaret, Rostrenen, Saint-Nicolas-du-Pélem</desc>
    </path><path class="circo" id="id-022-05" d="M251.07699999999994 0L239.82699999999994 10.15625L228.57699999999994 12.34375L217.17074999999994 20L210.45199999999994 20.78125L208.26449999999994 27.03125L206.07699999999994 26.25L201.38949999999994 30.3125L197.32699999999994 38.28125L198.42074999999994 42.1875L187.48324999999994 55.78125L188.26449999999994 64.375L185.29574999999994 59.21875L181.54574999999994 60.625L193.10824999999994 47.03125L196.23324999999994 37.34375L194.04574999999994 29.53125L189.04574999999994 32.1875L192.63949999999994 21.875L188.42074999999994 11.40625L184.20199999999994 10.78125L178.10824999999994 16.71875L169.67074999999994 32.03125L167.48324999999994 32.1875L163.10824999999994 27.34375L156.54574999999994 32.8125L145.92074999999994 30.15625L139.51449999999994 35.78125L137.32699999999994 35.46875L131.38949999999994 40.9375L127.48324999999994 40.15625L126.38949999999994 42.03125L117.01449999999994 45.46875L116.70199999999994 51.875L94.82699999999994 55.15625L94.20199999999994 52.96875L99.82699999999994 41.09375L87.63949999999994 43.90625L78.26449999999994 29.84375L74.04574999999994 32.5L73.88949999999994 37.5L71.54574999999994 34.375L66.07699999999994 37.96875L65.45199999999994 32.8125L69.20199999999994 29.84375L67.95199999999994 29.0625L58.88949999999994 34.6875L60.45199999999994 41.875L54.98324999999994 38.4375L52.79574999999994 38.59375L49.35824999999994 46.875L55.76449999999994 50.9375L46.23324999999994 59.53125L40.45199999999994 56.875L36.07699999999994 61.71875L33.26449999999994 72.5L35.13949999999994 81.09375L41.70199999999994 80.3125L48.57699999999994 89.0625L46.70199999999994 99.6875L51.38949999999994 98.75L60.45199999999994 104.53125L64.35824999999994 116.71875L68.57699999999994 117.1875L76.23324999999994 113.125L82.63949999999994 112.1875L76.38949999999994 118.125L74.82699999999994 124.53125L79.20199999999994 132.03125L85.45199999999994 133.59375L86.07699999999994 135.625L76.70199999999994 147.1875L78.57699999999994 146.40625L86.07699999999994 150.15625L92.48324999999994 150.46875L101.70199999999994 150.625L101.23324999999994 144.21875L106.07699999999994 134.0625L101.70199999999994 121.5625L104.82699999999994 115.9375L114.20199999999994 112.1875L116.70199999999994 121.40625L116.70199999999994 125.46875L121.38949999999994 129.6875L122.48324999999994 136.09375L126.70199999999994 143.28125L129.98324999999994 148.28125L137.79574999999994 148.4375L142.17074999999994 148.28125L151.07699999999994 146.09375L160.29574999999994 136.5625L163.73324999999994 142.03125L170.13949999999994 143.59375L174.98324999999994 147.8125L179.35824999999994 148.28125L177.95199999999994 155.78125L181.38949999999994 162.8125L186.23324999999994 166.40625L192.32699999999994 154.6875L190.92074999999994 146.09375L198.42074999999994 148.59375L200.13949999999994 152.1875L204.82699999999994 148.4375L212.95199999999994 149.0625L215.45199999999994 145.78125L220.76449999999994 155.3125L224.35824999999994 153.59375L227.48324999999994 148.59375L230.76449999999994 150.46875L231.23324999999994 154.53125L237.17074999999994 157.5L242.48324999999994 153.75L246.85824999999994 153.75L249.35824999999994 150.15625L249.51449999999994 146.5625L257.01449999999994 143.125L259.04574999999994 137.5L253.42074999999994 134.6875L248.57699999999994 140.9375L240.60824999999994 139.0625L239.35824999999994 137.34375L239.20199999999994 132.96875L241.23324999999994 129.21875L257.32699999999994 122.65625L257.63949999999994 126.09375L262.79574999999994 127.8125L265.60824999999994 127.5L267.63949999999994 126.71875L270.76449999999994 132.1875L272.95199999999994 132.34375L275.13949999999994 140.3125L284.20199999999994 144.84375L288.26449999999994 149.21875L290.60824999999994 145.78125L296.07699999999994 151.71875L298.10824999999994 151.5625L302.48324999999994 147.5L315.45199999999994 152.03125L315.76449999999994 162.5L314.35824999999994 173.59375L310.60824999999994 174.21875L310.29574999999994 176.40625L315.29574999999994 183.4375L312.63949999999994 189.53125L313.42074999999994 191.5625L320.92074999999994 187.65625L325.92074999999994 194.375L339.98324999999994 189.53125L342.32699999999994 186.5625L342.48324999999994 182.5L348.73324999999994 181.25L350.29574999999994 182.65625L351.38949999999994 189.21875L353.26449999999994 190.15625L357.63949999999994 191.09375L363.26449999999994 187.96875L359.04574999999994 187.1875L356.70199999999994 183.4375L360.29574999999994 175.46875L359.20199999999994 171.40625L356.07699999999994 155L354.51449999999994 147.03125L352.48324999999994 147.34375L345.60824999999994 139.6875L342.32699999999994 134.6875L338.57699999999994 136.40625L332.63949999999994 135.15625L328.57699999999994 120.3125L314.67074999999994 113.75L311.54574999999994 107.8125L305.60824999999994 105.15625L304.20199999999994 101.09375L310.13949999999994 95L306.38949999999994 91.71875L311.85824999999994 82.34375L305.92074999999994 81.40625L302.79574999999994 75.9375L302.95199999999994 71.71875L299.51449999999994 77.8125L286.07699999999994 77.96875L274.98324999999994 75L270.13949999999994 68.90625L277.63949999999994 66.09375L263.57699999999994 64.84375L262.63949999999994 62.1875L278.26449999999994 54.0625L279.20199999999994 52.03125L276.54574999999994 48.4375L276.70199999999994 42.03125L272.63949999999994 40.46875L262.01449999999994 43.125L253.88949999999994 40.3125L245.60824999999994 47.34375L241.85824999999994 64.6875L238.42074999999994 67.5L239.67074999999994 74.0625L238.42074999999994 75.9375L232.79574999999994 77.03125L230.60824999999994 80.3125L228.73324999999994 72.03125L232.63949999999994 69.84375L239.04574999999994 63.59375L239.98324999999994 49.84375L251.70199999999994 33.44510000000014L239.67074999999994 34.21875L246.38949999999994 23.125L244.04574999999994 17.03125L242.01449999999994 15.9375L245.76449999999994 13.90625L249.98324999999994 17.34375L245.92074999999994 10.625L240.45199999999994 11.09375L251.07699999999994 0zM284.04574999999994 12.34375L281.70199999999994 15.46875L277.01449999999994 15.625L276.54574999999994 17.8125L282.17074999999994 19.6875L281.85824999999994 22.1875L275.76449999999994 20.625L277.32699999999994 30L278.88949999999994 30.625L280.13949999999994 27.96875L281.07699999999994 30.625L283.57699999999994 29.375L283.10824999999994 24.6875L284.51449999999994 22.8125L283.88949999999994 20.46875L284.51449999999994 15.15625L287.79574999999994 15.78125L288.26449999999994 12.34375L284.04574999999994 12.34375zM39.51449999999994 49.6875L37.63949999999994 50.9375L33.26449999999994 51.40625L32.95199999999994 55.9375L33.88949999999994 57.96875L35.60824999999994 55.15625L38.88949999999994 55.9375L41.54574999999994 54.0625L42.48324999999994 52.03125L41.70199999999994 50L39.51449999999994 49.6875z">
      <title id="t90">Cinquième circonscription des Côtes-d'Armor</title>
      <desc id="d90">Cantons de : Etables-sur-Mer, Lannion, Lézardrieux, Paimpol, Perros-Guirec, Plouha, Pontrieux, La Roche-Derrien, Tréguier.</desc>
    </path></svg>