<svg xmlns="http://www.w3.org/2000/svg" version="1.1" xmlns:xlink="http://www.w3.org/1999/xlink" xmlns:svgjs="http://svgjs.dev/svgjs" width="524.8364999999995" height="484.2858000000001" fill="#eeeeee" stroke="#cccccc" xmlns:sodipodi="http://sodipodi.sourceforge.net/DTD/sodipodi-0.dtd"><path class="circo" id="id-023-01" d="M500.0029999999998 218.47989999999982L499.81449999999995 206.61760000000015L502.26999999999975 203.80434999999977L503.50599999999986 194.49160000000006L504.9874999999997 194.59960000000024L506.1284999999998 191.8479000000002L503.4834999999998 172.60080000000016L496.12199999999973 171.44380000000012L490.4544999999996 166.1372L490.3709999999995 160.4601500000001L487.5889999999998 155.19110000000012L484.8034999999999 133.21455000000014L485.274 132.66335000000026L473.63249999999994 126.16814999999974L468.895 114.60775000000012L469.6629999999999 110.56629999999984L469.9689999999998 108.44915000000015L465.68299999999965 103.82634999999993L454.12999999999954 98.50540000000024L450.07299999999987 99.52035000000024L446.8934999999999 104.94385000000023L444.9249999999995 104.45429999999988L442.4769999999995 96.70119999999997L444.6199999999999 89.19555000000003L430.8099999999996 76.00495000000024L429.9244999999996 75.75690000000009L423.3494999999999 87.6019500000001L421.4794999999998 88.55380000000025L417.96149999999955 81.05124999999987L407.89799999999957 79.9434500000001L399.5384999999999 74.11215000000027L398.2779999999997 70.21479999999997L394.2364999999995 69.35780000000022L396.6669999999999 66.09350000000006L397.4204999999995 60.597250000000145L403.22599999999966 54.93994999999984L409.12549999999953 54.96210000000019L408.83699999999976 52.9289L406.6874999999999 47.15575000000001L398.6429999999996 48.60650000000021L393.73999999999967 45.03274999999974L387.7869999999996 44.142499999999814L386.87449999999956 42.292249999999854L384.1659999999996 28.521049999999946L385.7034999999996 27.18590000000006L384.2949999999996 23.190650000000232L385.28449999999964 21.277600000000234L375.0475 19.59569999999985L373.6435 18.04314999999974L359.61449999999957 19.31759999999997L349.9164999999999 16.410999999999945L344.41949999999963 19.582750000000146L337.14699999999993 19.014250000000175L329.24999999999955 19.12095000000022L325.5939999999998 20.848500000000172L315.12549999999976 20.581549999999993L309.79899999999986 27.2204499999998L303.5019999999997 27.648249999999734L303.55549999999994 27.481200000000285L299.82349999999997 26.347600000000284L296.6289999999998 21.460749999999962L292.8069999999997 20.69560000000024L286.44649999999956 21.04949999999974L278.3374999999995 18.694249999999784L275.21699999999953 16.062000000000012L262.89549999999963 14.796049999999923L261.9154999999995 12.136950000000297L256.8054999999998 8.254000000000019L234.4354999999996 14.183699999999817L231.63849999999968 9.218000000000188L228.24599999999975 7.287499999999909L223.26300000000003 10.07835L218.14999999999998 8.678350000000137L216.51599999999974 13.727349999999774L203.6764999999997 13.22355000000016L198.92650000000003 17.330350000000294L188.67699999999957 14.483999999999924L187.98649999999952 10.14554999999973L181.6999999999996 4.0973500000001195L180.08699999999976 0L158.55849999999975 3.0135000000001355L160.71249999999964 5.801000000000158L163.10900000000004 9.245750000000044L161.82299999999998 10.915850000000091L163.72149999999976 16.911099999999806L159.05899999999974 26.26314999999977L159.81650000000002 30.40840000000003L151.74249999999972 36.909800000000246L150.1649999999995 40.65879999999993L142.32100000000003 37.90624999999977L131.36349999999993 22.650600000000054L122.02649999999949 31.141250000000014L119.29599999999994 36.865399999999795L113.29499999999996 42.734649999999874L107.45149999999967 40.37230000000022L101.95749999999975 31.776699999999778L104.85699999999952 21.894149999999968L99.67949999999973 19.57535000000007L96.15949999999998 21.764699999999948L92.44749999999954 29.009250000000293L86.27049999999997 28.326299999999947L84.93249999999989 29.92149999999981L76.7779999999999 36.39274999999998L72.95999999999992 36.36320000000012L71.89199999999971 23.687550000000215L68.1049999999999 18.82684999999981L64.10449999999969 17.424700000000257L57.829999999999586 21.984749999999735L57.067499999999995 25.880300000000034L53.3744999999999 30.46389999999974L52.0354999999995 37.161199999999894L48.4639999999996 35.55895000000021L44.66849999999965 37.56914999999992L37.89850000000001 48.482099999999946L30.032999999999674 51.23870000000011L26.528999999999883 56.65025000000014L26.39849999999967 60.95685000000003L17.284999999999968 66.36934999999994L14.945999999999913 69.63795000000005L21.92549999999983 73.74464999999987L27.942499999999768 73.67444999999975L30.264999999999986 76.57800000000009L27.247499999999718 81.31649999999979L28.84299999999996 93.32695000000001L21.63499999999999 96.63414999999986L18.18299999999965 107.98729999999978L23.90549999999962 109.23009999999977L26.45150000000001 112.35250000000008L21.215499999999565 115.54104999999993L17.24049999999977 114.39750000000004L13.577999999999975 119.46574999999996L14.099499999999807 123.44715000000008L19.097999999999615 126.96649999999977L18.505999999999858 131.0244499999999L8.940999999999804 133.0056000000002L1.9199999999995043 144.96939999999995L0 145.73350000000005L5.178999999999974 157.13829999999973L8.636999999999944 159.3954500000001L10.189499999999612 165.55709999999976L13.699999999999477 167.1998000000002L18.721499999999764 170.56545000000028L24.777499999999577 169.692L27.961499999999546 171.61384999999996L33.17349999999976 168.46434999999985L36.71449999999993 170.62315000000012L35.84099999999978 174.44324999999992L38.476499999999874 179.91915000000006L32.65549999999962 185.94629999999995L40.61799999999948 187.82365000000027L45.579499999999484 194.39104999999984L51.472499999999854 193.5758500000003L50.91799999999978 197.72944999999993L54.24499999999966 200.12985000000015L55.39199999999994 204.01835000000005L50.56249999999977 207.40729999999985L48.43899999999962 213.24014999999974L53.31549999999993 216.74649999999986L53.63049999999987 220.88619999999992L56.66499999999985 224.83049999999992L58.64499999999964 222.18795L64.34699999999964 224.91755000000012L64.40499999999986 229.2431499999998L70.8359999999999 233.1460500000003L67.35649999999964 243.36810000000014L68.93100000000004 247.02315L68.42349999999954 248.43354999999974L69.495 252.55589999999984L73.61299999999972 257.4093499999998L68.91799999999989 264.45965L67.50849999999957 275.0137000000001L69.43899999999985 281.1059L80.6314999999995 281.04840000000024L82.39549999999952 281.4130499999999L84.649 287.9176000000001L86.18299999999977 292.90790000000015L85.12649999999951 294.29865000000007L81.48299999999949 301.6897499999999L77.31299999999976 301.4629000000002L68.80749999999978 307.5504000000001L61.259000000000015 309.75104999999985L60.95199999999977 315.33344999999997L57.13449999999966 315.9776499999998L59.2044999999996 321.62435000000016L67.12249999999983 322.35090000000014L73.41799999999978 330.3230000000002L77.1324999999996 328.8904000000002L84.51849999999979 330.9400499999998L86.19100000000003 329.71574999999973L87.84899999999993 321.83884999999975L97.928 320.4089499999998L103.38599999999985 322.2501L106.76999999999964 320.67169999999976L107.7355 324.45775000000026L111.61249999999995 324.7370000000001L106.87849999999969 331.0206499999998L113.49899999999991 342.9146000000003L113.46199999999953 345.24675L109.6445 346.7043000000001L105.32449999999983 342.8859L103.61049999999977 348.64660000000015L100.88749999999948 346.52784999999994L96.71749999999975 346.90945L92.01999999999998 350.9417000000002L97.39899999999977 353.24884999999995L98.80299999999977 361.06904999999983L96.8504999999999 366.57280000000014L107.93349999999975 372.5931000000003L118.2835 373.79385000000013L121.29799999999989 381.0115000000002L124.45699999999988 378.07360000000017L128.50299999999947 378.6641500000002L136.15700000000004 374.9103500000001L144.6334999999999 376.50149999999996L150.942 375.09704999999997L155.21399999999971 370.28054999999995L162.06399999999974 367.6712500000002L162.55449999999996 361.2601000000001L168.4129999999999 359.9148500000001L172.21949999999993 369.7710000000001L169.51949999999954 375.4563999999999L171.42799999999966 381.3378499999999L179.3689999999998 383.2098500000001L187.4634999999995 392.84159999999986L191.20849999999962 394.76785000000007L193.11599999999999 393.83309999999994L193.21199999999976 389.5980000000003L195.39949999999976 386.1052000000001L199.14799999999957 393.10135L204.4135 395.3696500000001L204.76599999999962 397.4012499999998L206.84949999999958 397.29454999999973L216.4515 404.84860000000026L220.33649999999966 420.8911499999999L224.24799999999948 420.1837499999999L221.78499999999985 425.9569499999998L215.62099999999987 426.25789999999995L212.35899999999958 428.7182999999999L217.55999999999972 435.0180999999998L212.05899999999986 445.65859999999986L212.89949999999976 447.51615000000015L216.8014999999997 446.36424999999974L220.13449999999978 451.4104500000002L215.16849999999977 454.96159999999975L215.33399999999972 456.9981999999999L217.40899999999954 457.3359499999998L222.79549999999972 463.57935L227.88299999999992 460.17695000000003L231.3874999999996 455.1953500000002L235.36249999999995 455.8149500000002L238.2819999999998 458.81185000000016L242.19749999999976 458.2988L243.76149999999996 450.19295L247.2999999999996 447.9252500000001L255.5959999999999 447.9696999999999L258.3964999999995 450.7238000000001L261.96349999999995 448.51819999999975L265.0654999999995 443.1543499999998L266.48199999999974 432.82609999999977L271.8294999999995 429.3634000000003L282.3229999999995 428.56420000000014L286.4919999999995 423.76255000000015L288.59549999999956 424.08304999999984L291.53899999999965 429.7148500000003L301.0024999999996 434.35299999999984L301.7334999999997 440.3881000000001L301.8299999999999 445.45889999999986L306.98199999999986 441.92864999999983L313.956 446.3563499999998L320.7684999999998 441.7076000000003L328.31999999999994 448.60464999999976L332.38249999999994 449.3613499999998L334.2255 440.7168999999999L339.8954999999995 443.03135L344.28499999999985 450.02004999999997L352.28399999999965 452.1031499999998L348.2284999999996 461.6813000000002L349.9559999999997 462.86369999999977L355.48099999999977 460.9723500000001L356.22749999999996 454.74980000000016L360.4634999999996 463.85440000000017L364.44849999999974 463.6183L366.93749999999966 466.8322999999998L370.6649999999996 466.0072500000001L375.3679999999997 469.56785000000025L381.0454999999996 467.61360000000025L381.28649999999993 484.2858000000001L387.58099999999956 483.7628000000001L392.48099999999965 479.86305000000016L396.2534999999997 477.9944999999998L401.8814999999995 480.45425000000023L410.8964999999995 472.13340000000017L414.0949999999998 466.69359999999983L413.56349999999964 462.5065000000001L412.5524999999999 458.4704499999998L413.97099999999966 456.92394999999976L422.1574999999996 454.5440500000001L424.8089999999996 454.79120000000023L428.0949999999996 457.2811999999999L440.3465 457.0505000000003L451.08000000000004 462.9726499999998L454.7584999999998 457.9263500000002L458.7885 456.9062500000001L464.221 450.7517999999999L466.2144999999998 450.6726500000002L466.74949999999967 444.84699999999975L474.9955 439.6001000000001L472.0675 433.99794999999983L466.1255 432.4192499999998L464.31749999999965 428.58675000000005L459.1119999999995 425.29229999999984L455.2499999999998 426.6636L450.34149999999954 419.99424999999974L448.9579999999995 408.56190000000026L430.74899999999957 384.9299000000002L436.73749999999984 378.98439999999994L447.0274999999998 380.70404999999994L449.7334999999998 377.83875000000023L450.6379999999996 374.12390000000016L456.1659999999995 373.67849999999976L456.9494999999995 369.77165000000014L454.28849999999954 366.8559499999998L454.2964999999998 360.90914999999995L461.83899999999994 360.74130000000025L463.58000000000004 358.09649999999976L467.41049999999973 358.2137L471.0804999999999 362.28425000000016L475.0374999999997 362.56624999999985L479.01899999999955 355.3678500000001L479.1814999999997 349.0550999999999L483.3874999999995 348.57275000000016L500.951 333.6468000000002L502.92449999999974 332.6895999999999L496.9954999999999 330.4347999999999L496.27099999999984 328.44195000000013L497.10699999999974 322.1541500000001L500.3494999999998 319.4445999999999L500.2879999999999 315.39395000000013L507.37949999999955 311.03965000000017L506.34749999999997 306.9329499999998L507.54549999999995 305.2419500000002L523.7459999999999 300.0144L524.8364999999995 294.1225000000003L519.479 287.6447999999999L517.9284999999999 281.88535L520.1149999999996 270.1431500000001L521.9889999999998 259.35805000000016L509.51300000000003 250.75564999999983L501.61299999999983 232.85135000000025L499.8505 226.54389999999978L500.7065 222.28414999999984L500.0029999999998 218.47989999999982z">
      <title id="t91">Première circonscription de la Creuse</title>
      <desc id="d91">Circonscription unique : Tous les cantons du département</desc>
    </path></svg>