<svg xmlns="http://www.w3.org/2000/svg" version="1.1" xmlns:xlink="http://www.w3.org/1999/xlink" xmlns:svgjs="http://svgjs.dev/svgjs" width="633.1725" height="689.2399999999998" fill="#eeeeee" stroke="#cccccc" xmlns:sodipodi="http://sodipodi.sourceforge.net/DTD/sodipodi-0.dtd"><path class="circo" id="id-024-01" d="M97.2059999999999 359.95529999999974L97.86400000000015 347.70309999999995L94.35749999999985 342.9854999999998L100.02099999999984 337.2661999999997L99.96600000000001 333.5809499999999L106.86849999999993 329.16409999999985L115.01699999999971 327.95289999999966L115.93449999999962 332.0540999999997L108.3605 339.25629999999956L108.32650000000001 341.35839999999973L112.66799999999989 345.8743499999997L116.8119999999999 345.7176999999996L121.46849999999972 349.6907999999996L129.7489999999999 349.46669999999983L132.59599999999978 352.47244999999964L134.69349999999963 352.4435L148.80349999999964 334.96974999999964L151.76449999999988 337.8664999999995L153.82499999999993 337.67119999999977L158.89149999999972 329.1737499999999L163.67849999999976 332.7810499999998L173.51599999999962 331.89615000000003L182.5369999999998 326.74530000000004L187.58749999999964 323.27544999999986L191.30200000000002 316.0089499999998L196.73549999999977 314.0644999999995L196.98149999999998 314.13809999999955L202.2769999999997 316.2905999999998L209.3584999999996 314.9136999999996L211.26499999999965 314.75930000000005L209.59149999999966 311.3799L211.56299999999987 305.98469999999963L222.98299999999983 303.66079999999954L224.9264999999997 304.2888499999998L227.35749999999996 309.9068999999997L229.39999999999998 309.93404999999996L232.97599999999989 308.08159999999987L235.9219999999999 302.72204999999985L237.99049999999966 302.5156999999996L243.0635000000001 293.57685000000004L244.23249999999996 285.35754999999995L249.8554999999999 282.81074999999987L258.4204999999997 283.9148499999999L264.17399999999986 286.84244999999976L265.17150000000015 283.4838499999995L267.8555 285.299L269.57299999999975 286.52979999999957L277.2829999999999 283.2333L281.3974999999999 283.97884999999974L288.38750000000005 276.28439999999955L289.9615 274.9046999999996L295.3789999999998 277.6959999999997L296.99250000000006 276.35924999999986L299.10300000000007 270.52494999999965L293.639 264.7306999999995L297.39449999999977 259.69965L303.5604999999998 259.4948999999997L305.34699999999987 251.41969999999958L309.84399999999994 251.22209999999995L309.56349999999986 253.32054999999968L318.55399999999975 257.8843499999999L325.0045 275.68359999999984L330.6479999999999 281.7530999999997L329.3430000000001 285.7770999999997L336.02049999999963 286.56904999999995L338.21249999999964 299.26544999999976L347.2924999999998 295.26234999999986L353.8984999999997 287.3404499999998L357.8604999999999 288.16974999999957L363.5534999999999 293.76329999999996L365.523 299.57314999999994L362.75049999999965 302.5524999999999L362.6859999999999 308.6516499999999L359.22050000000013 310.4377499999998L358.0879999999996 316.2447499999996L356.24199999999973 317.0293499999997L346.1104999999998 317.75485000000003L337.08950000000016 322.48734999999954L332.02650000000006 319.38969999999983L333.71699999999976 324.00684999999953L328.55099999999993 325.6437999999997L326.72699999999963 325.0770499999999L323.88800000000003 327.6357999999999L321.0804999999999 333.1313L322.0994999999999 343.31394999999986L319.7784999999999 346.69204999999977L305.80600000000004 345.4133999999999L305.9929999999997 351.41089999999963L308.40899999999976 354.49784999999963L305.84749999999985 357.5145999999995L304.81600000000014 363.45339999999965L301.0129999999998 363.7611499999997L298.8069999999999 366.87584999999956L291.8554999999998 370.1968499999998L285.95799999999997 372.1958999999998L282.0425 371.2403499999999L277.86699999999996 380.1307499999996L281.19399999999985 389.40939999999955L279.8910000000001 392.9779499999995L272.03550000000007 393.67234999999994L267.2629999999998 396.9672499999996L263.28899999999976 397.20309999999984L265.3339999999997 404.5541499999996L253.27249999999992 406.76895L243.69550000000004 399.41659999999956L241.9459999999998 401.1624999999998L241.04299999999967 399.40214999999966L234.25649999999962 402.25554999999986L232.43449999999996 401.506L232.44199999999978 399.52729999999974L228.3299999999997 400.1619999999997L221.67899999999975 405.3709999999995L218.9689999999996 411.1469999999997L213.40149999999994 409.46294999999964L209.7014999999999 410.9424999999999L205.73800000000006 406.42184999999984L203.79849999999976 407.06484999999986L196.44450000000006 416.73194999999964L192.73849999999982 425.57995000000005L191.6255000000001 429.82399999999984L187.24949999999978 433.79705L183.63349999999969 431.98909999999955L176.16649999999993 420.3228999999999L170.88199999999972 421.63725L171.71549999999968 431.9205499999998L167.7170000000001 441.45929999999964L165.78449999999975 440.78809999999976L160.96149999999966 431.96924999999965L149.09899999999993 430.6883499999998L148.61049999999977 443.13634999999977L142.45849999999962 451.46034999999983L142.30250000000012 455.5786499999999L141.4349999999996 456.3823499999995L135.6034999999997 454.75454999999954L131.7365000000001 455.8627999999999L130.40849999999978 457.22379999999987L123.29049999999995 455.06389999999953L117.64949999999999 455.6891999999999L115.57999999999993 451.5733L104.10750000000007 452.34219999999993L98.30249999999978 447.1312999999998L92.27149999999995 445.9290999999996L80.36850000000015 448.87534999999957L78.42749999999967 449.3517499999996L74.68549999999993 444.7784999999999L64.65499999999963 438.09654999999964L58.61150000000009 438.24854999999957L53.12250000000006 440.7147999999995L52.16849999999965 436.9330499999995L47.163999999999646 434.11374999999964L48.17900000000009 422.72969999999987L46.390499999999975 421.9781499999999L41.47099999999966 424.98959999999954L36.33899999999983 422.3058499999996L34.93799999999965 418.9020999999997L36.68700000000001 410.78434999999956L41.414499999999634 406.91149999999993L48.79549999999995 390.03169999999955L48.39149999999961 387.2813499999995L52.27100000000007 380.2330999999998L63.53399999999965 375.71685L66.46050000000002 372.79920000000004L72.79449999999997 359.8980499999999L80.4140000000001 360.6088L81.25650000000007 364.47964999999954L85.52649999999971 368.1777999999997L89.39999999999998 366.87704999999994L95.3649999999999 368.09529999999995L98.98599999999988 363.62505L97.2059999999999 359.95529999999974z">
      <title id="t92">Première circonscription de la Dordogne</title>
      <desc id="d92">Cantons de : Montpon-Ménestérol, Mussidan, Neuvic, Périgueux Centre, Périgueux Nord-Est, Périgueux Ouest, Saint-Astier</desc>
    </path><path class="circo" id="id-024-02" d="M369.81299999999976 618.1742499999996L365.2350000000001 614.0525499999995L357.4225000000001 611.5884999999997L352.7279999999996 614.90815L352.1324999999996 620.8691499999998L348.55950000000007 621.4489999999995L341.9874999999996 618.08155L340.67499999999995 623.8315999999998L334.7589999999997 622.9666999999995L327.53449999999987 626.4095499999996L313.4764999999999 625.8010999999999L308.90949999999975 626.6671499999995L297.0609999999999 625.2954499999998L296.29399999999976 618.0498999999998L293.0939999999998 610.7567499999999L285.55399999999963 608.1286499999999L281.8824999999998 612.4136499999997L282.6589999999999 616.1110499999995L281.1590000000001 617.2607499999998L276.29099999999994 614.5918499999999L268.99249999999995 613.8880999999998L267.3339999999996 612.8351999999995L262.6495 616.2048999999996L258.698 629.0864999999997L256.6935000000001 628.6161499999997L249.93749999999977 632.8896499999996L247.9095000000001 632.5388999999996L244.7724999999997 627.23795L239.3549999999999 624.8614999999995L235.17949999999985 625.3486499999997L228.29049999999995 630.1054499999998L225.06799999999998 631.8390999999997L217.6245 630.2422999999999L209.7444999999999 638.6025999999998L194.8539999999997 644.8026499999997L183.7700000000001 639.27055L177.70299999999963 639.5693L173.43799999999987 635.1854499999996L168.74750000000006 638.9759999999995L166.2270000000001 635.4603499999996L166.61599999999964 627.0436999999998L170.45299999999997 617.2493499999996L162.77649999999994 610.6413499999996L163.6284999999998 606.5941499999997L165.4929999999996 605.8411999999998L164.2814999999996 598.04845L160.72900000000004 590.7803999999999L148.12599999999975 577.30165L144.01049999999998 574.7895L136.7429999999996 567.5440999999995L134.10750000000007 562.02065L134.24599999999998 554.79715L130.6864999999999 544.6678499999996L129.72749999999962 536.38305L137.47950000000003 537.9230999999999L141.53849999999977 534.0686999999997L145.46699999999987 534.7218999999996L145.54550000000006 529.1368499999999L151.54650000000004 525.0218999999998L140.06699999999967 514.3489999999997L134.68399999999974 511.70455000000004L126.63649999999961 511.74649999999986L119.23149999999964 509.0718499999997L121.24099999999999 516.5267499999999L120.39150000000006 518.1120499999997L112.03449999999975 525.5619999999999L106.78299999999979 527.4219999999997L99.60499999999968 539.7494499999999L95.87850000000003 538.1448L95.07849999999962 537.2771L80.89749999999981 534.7812499999998L70.45050000000003 535.4422499999998L66.4364999999998 540.3126999999995L66.10649999999964 540.5625499999996L64.09099999999967 540.1724999999999L62.44449999999972 532.5069499999995L58.34000000000003 532.5452999999999L52.778000000000134 533.6311999999998L49.816000000000145 540.5487499999998L47.773500000000126 540.7434999999998L43.28149999999994 536.8354999999997L39.25399999999968 537.6336499999996L37.96600000000012 537.5851499999999L34.347999999999956 535.65315L34.23349999999971 529.7020499999996L27.099000000000046 522.5995L21.418499999999767 524.6945999999997L3.1040000000001555 520.9832499999999L3.806500000000028 519.0815499999997L13.378500000000031 516.3798499999996L15.600999999999772 511.1030499999998L18.161499999999933 506.6285499999998L18.108499999999594 506.4954L19.606999999999744 502.98L22.925500000000056 501.14029999999957L24.42200000000014 495.6787499999996L24.949499999999603 495.3937499999995L32.05449999999985 483.28449999999975L27.018999999999664 477.07224999999994L25.383999999999673 475.4412499999995L19.823000000000093 464.5085999999998L21.566500000000133 454.57734999999957L23.815999999999917 448.9930999999996L23.46900000000005 444.94614999999953L25.170499999999834 443.8477999999998L28.682000000000016 446.12914999999987L30.71300000000008 445.60824999999966L34.689500000000066 436.0862499999996L32.791500000000156 423.58765000000005L34.278999999999655 417.59424999999965L34.93799999999965 418.9020999999997L36.33899999999983 422.3058499999996L41.47099999999966 424.98959999999954L46.390499999999975 421.9781499999999L48.17900000000009 422.72969999999987L47.163999999999646 434.11374999999964L52.16849999999965 436.9330499999995L53.12250000000006 440.7147999999995L58.61150000000009 438.24854999999957L64.65499999999963 438.09654999999964L74.68549999999993 444.7784999999999L78.42749999999967 449.3517499999996L80.36850000000015 448.87534999999957L92.27149999999995 445.9290999999996L98.30249999999978 447.1312999999998L104.10750000000007 452.34219999999993L115.57999999999993 451.5733L117.64949999999999 455.6891999999999L123.29049999999995 455.06389999999953L130.40849999999978 457.22379999999987L131.7365000000001 455.8627999999999L135.6034999999997 454.75454999999954L141.4349999999996 456.3823499999995L142.30250000000012 455.5786499999999L142.45849999999962 451.46034999999983L148.61049999999977 443.13634999999977L149.09899999999993 430.6883499999998L160.96149999999966 431.96924999999965L165.78449999999975 440.78809999999976L167.7170000000001 441.45929999999964L171.71549999999968 431.9205499999998L170.88199999999972 421.63725L176.16649999999993 420.3228999999999L183.63349999999969 431.98909999999955L187.24949999999978 433.79705L191.6255000000001 429.82399999999984L192.73849999999982 425.57995000000005L196.44450000000006 416.73194999999964L203.79849999999976 407.06484999999986L205.73800000000006 406.42184999999984L209.7014999999999 410.9424999999999L213.40149999999994 409.46294999999964L218.9689999999996 411.1469999999997L221.67899999999975 405.3709999999995L228.3299999999997 400.1619999999997L232.44199999999978 399.52729999999974L232.43449999999996 401.506L234.25649999999962 402.25554999999986L241.04299999999967 399.40214999999966L241.9459999999998 401.1624999999998L243.69550000000004 399.41659999999956L253.27249999999992 406.76895L265.3339999999997 404.5541499999996L273.41399999999965 414.04274999999984L280.7329999999996 414.50819999999965L280.881 416.5623999999997L286.4760000000001 421.86935000000005L285.2735000000001 425.51265L291.12199999999973 425.80240000000003L296.1435 433.9094L299.57600000000014 435.4101499999996L298.13949999999977 436.80624999999964L298.63850000000014 440.7424499999996L296.0005000000001 443.65189999999984L294.3815000000001 451.6339999999997L299.5609999999999 454.8182499999996L299.78849999999966 460.52404999999965L305.3694999999999 459.2718499999995L312.731 460.08324999999957L315.34850000000006 467.40584999999953L317.07400000000007 468.3617499999997L320.4339999999996 467.31155L324.4364999999999 470.21879999999953L326.1269999999996 471.27849999999967L326.6199999999998 481.13765L329.89300000000014 482.3458499999998L334.95299999999986 482.95204999999953L335.1429999999999 486.4064499999995L349.554 485.6671L349.8750000000001 493.2782499999996L355.2159999999998 494.9606L359.59749999999985 501.86729999999955L363.6919999999998 500.9537L367.1109999999999 503.10654999999997L367.4784999999997 515.8977999999996L371.506 520.6738999999999L380.36549999999977 521.3219499999997L385.1445000000001 515.5595999999997L384.45899999999995 508.10329999999965L387.8109999999998 503.0261999999999L395.9359999999998 503.8173499999999L395.2044999999998 511.93960000000004L396.15099999999984 518.1786L408.2284999999996 518.6132999999995L411.92849999999964 519.95745L416.76199999999994 525.7801999999998L414.8755 526.0672999999997L414.6179999999998 527.9632499999997L420.5789999999996 532.7250999999995L421.0325 536.5238999999997L425.5219999999997 543.1419L424.78499999999997 547.0994999999999L430.2884999999998 553.0853499999995L431.02949999999964 554.3125999999995L420.83799999999997 561.20025L418.07050000000004 566.5999499999998L417.5554999999997 570.5602499999998L414.22050000000013 575.3814499999999L415.05799999999965 579.2569999999995L418.6914999999999 580.7890999999995L420.5219999999997 580.1164499999999L421.84249999999963 587.76185L417.4680000000001 594.2719499999998L419.23850000000016 597.7439499999997L417.56100000000004 601.3538L421.58649999999966 605.6815499999999L432.77049999999974 609.7868499999998L438.29399999999964 614.486L439.9064999999996 618.2029L434.135 644.34505L426.4164999999997 646.5074999999996L416.81299999999965 642.5241999999997L418.93100000000004 647.7027499999997L411.6719999999998 650.7603L406.7719999999997 656.8602499999997L403.322 658.7478499999997L398.26599999999985 662.2916499999997L390.0819999999999 663.4636499999999L387.40250000000003 673.4012999999999L382.1879999999999 672.9297499999996L372.5905 670.4830499999997L373.7764999999996 662.8910999999999L370.102 664.1269499999999L368.28750000000014 659.1329999999999L364.88 655.6730999999996L372.8075000000001 649.7789999999998L372.5554999999997 639.9732L375.9544999999997 638.1849499999998L376.59299999999973 632.4790999999999L379.94249999999965 630.6008499999996L372.7154999999999 629.7384999999997L368.6345 626.4651499999997L370.8600000000001 622.1190999999999L369.81299999999976 618.1742499999996z">
      <title id="t93">Deuxième circonscription de la Dordogne</title>
      <desc id="d93">Cantons de : Beaumont, Bergerac I, Bergerac II, Le Buisson-de-Cadouin, Eymet, La Force, Issigeac, Lalinde, Monpazier, Sigoulès, Vélines, Villambard, Villefranche-de-Lonchat</desc>
    </path><path class="circo" id="id-024-03" d="M329.3430000000001 285.7770999999997L330.6479999999999 281.7530999999997L325.0045 275.68359999999984L318.55399999999975 257.8843499999999L309.56349999999986 253.32054999999968L309.84399999999994 251.22209999999995L305.34699999999987 251.41969999999958L303.5604999999998 259.4948999999997L297.39449999999977 259.69965L293.639 264.7306999999995L299.10300000000007 270.52494999999965L296.99250000000006 276.35924999999986L295.3789999999998 277.6959999999997L289.9615 274.9046999999996L288.38750000000005 276.28439999999955L281.3974999999999 283.97884999999974L277.2829999999999 283.2333L269.57299999999975 286.52979999999957L267.8555 285.299L265.17150000000015 283.4838499999995L264.17399999999986 286.84244999999976L258.4204999999997 283.9148499999999L249.8554999999999 282.81074999999987L244.23249999999996 285.35754999999995L243.0635000000001 293.57685000000004L237.99049999999966 302.5156999999996L235.9219999999999 302.72204999999985L232.97599999999989 308.08159999999987L229.39999999999998 309.93404999999996L227.35749999999996 309.9068999999997L224.9264999999997 304.2888499999998L222.98299999999983 303.66079999999954L211.56299999999987 305.98469999999963L209.59149999999966 311.3799L211.26499999999965 314.75930000000005L209.3584999999996 314.9136999999996L202.2769999999997 316.2905999999998L196.98149999999998 314.13809999999955L196.73549999999977 314.0644999999995L191.30200000000002 316.0089499999998L187.58749999999964 323.27544999999986L182.5369999999998 326.74530000000004L173.51599999999962 331.89615000000003L163.67849999999976 332.7810499999998L158.89149999999972 329.1737499999999L153.82499999999993 337.67119999999977L151.76449999999988 337.8664999999995L148.80349999999964 334.96974999999964L134.69349999999963 352.4435L132.59599999999978 352.47244999999964L129.7489999999999 349.46669999999983L121.46849999999972 349.6907999999996L116.8119999999999 345.7176999999996L112.66799999999989 345.8743499999997L108.32650000000001 341.35839999999973L108.3605 339.25629999999956L115.93449999999962 332.0540999999997L115.01699999999971 327.95289999999966L106.86849999999993 329.16409999999985L99.96600000000001 333.5809499999999L100.02099999999984 337.2661999999997L94.35749999999985 342.9854999999998L97.86400000000015 347.70309999999995L97.2059999999999 359.95529999999974L98.98599999999988 363.62505L95.3649999999999 368.09529999999995L89.39999999999998 366.87704999999994L85.52649999999971 368.1777999999997L81.25650000000007 364.47964999999954L80.4140000000001 360.6088L72.79449999999997 359.8980499999999L66.46050000000002 372.79920000000004L63.53399999999965 375.71685L52.27100000000007 380.2330999999998L48.39149999999961 387.2813499999995L47.66300000000001 386.4351499999998L45.22600000000011 382.95804999999973L43.947 374.55484999999953L37.10649999999987 363.94364999999993L31.17750000000001 361.7411499999997L20.609999999999786 361.3435999999996L16.6904999999997 360.3913499999999L6.979499999999916 363.18359999999984L0.5584999999996398 370.61594999999954L0 364.3862999999999L5.058999999999969 355.2520499999997L2.024499999999989 347.5084999999996L18.888999999999783 340.5954499999996L17.816500000000133 336.85149999999965L11.671499999999924 335.9564499999999L9.542500000000018 332.7955499999996L18.35649999999987 321.8053999999995L19.484499999999798 316.8339499999996L22.12949999999978 309.99979999999994L28.304499999999848 308.6841999999996L33.19649999999967 304.9392L41.26699999999971 295.3992999999997L45.87850000000003 299.3480999999997L49.97199999999964 299.56050000000005L56.747499999999604 295.18749999999955L60.16050000000007 296.0564499999998L66.21049999999968 302.96699999999987L66.87900000000013 303.6005L73.88100000000009 306.3611499999996L75.67799999999977 303.1702999999999L79.47699999999998 303.04845L80.63449999999989 296.9718999999998L84.72249999999974 295.8289499999995L91.90949999999987 288.1311499999998L89.97500000000002 284.6494999999999L90.87049999999977 280.58130000000006L92.74149999999963 278.0171999999999L91.96199999999976 274.7108499999996L95.62049999999999 275.5694999999997L104.5229999999998 273.4023499999995L107.14949999999988 267.0028499999995L111.53399999999976 257.32370000000003L117.07299999999975 256.09429999999975L122.56550000000004 257.55629999999996L125.01049999999964 257.8190999999998L130.9559999999999 252.77799999999957L132.6664999999997 242.59199999999964L130.23149999999987 230.54749999999956L130.0970000000001 230.4156999999998L126.85749999999985 219.3381999999997L123.65499999999997 212.97579999999982L125.36599999999964 202.47719999999958L129.3689999999998 192.83909999999992L131.38699999999972 186.10974999999996L132.76250000000005 179.4831499999998L135.83699999999965 174.33539999999994L140.82400000000007 171.00390000000004L146.64699999999982 171.43149999999991L151.94349999999986 169.1384499999998L146.51399999999967 163.35364999999967L146.26049999999964 155.2776L149.7294999999997 155.35574999999994L157.5385 164.42889999999977L159.75199999999973 154.71405000000004L159.88149999999962 154.5189499999998L169.24849999999992 150.83399999999983L171.97949999999992 145.42374999999993L178.04750000000013 144.09089999999992L178.46149999999966 139.98109999999997L191.20000000000005 135.3421499999996L197.38999999999976 140.1914499999998L201.13749999999982 139.09119999999973L201.57299999999964 129.3593999999996L207.24350000000015 121.48149999999987L209.27849999999978 119.04920000000004L208.60349999999983 115.85244999999986L212.20550000000003 114.85569999999996L215.58749999999975 106.32334999999955L218.97850000000005 107.06124999999986L223.0279999999999 106.76754999999957L229.70349999999996 102.47119999999995L232.93299999999988 97.39254999999957L232.68399999999986 93.46349999999973L229.54450000000008 91.05289999999968L237.0875000000001 76.91914999999995L235.33000000000015 73.40134999999975L237.0105000000001 70.12499999999989L235.80749999999966 66.37014999999963L230.76199999999972 60.339500000000044L230.32100000000014 57.78069999999957L232.37300000000005 58.306349999999725L233.72900000000016 56.66499999999985L235.52899999999966 50.55239999999969L241.12899999999968 44.27514999999971L245.20299999999963 43.621650000000045L246.49049999999988 52.206149999999525L251.5904999999998 48.947749999999814L257.57799999999975 48.761799999999766L262.2154999999998 44.7960999999998L258.639 37.29870000000005L267.13149999999985 32.53444999999999L267.51750000000015 28.534049999999525L272.8159999999997 26.06474999999989L271.20349999999974 22.94134999999983L273.5544999999996 19.95939999999962L274.7784999999999 12.385949999999752L276.48799999999994 13.627799999999866L282.4074999999999 7.70279999999957L285.29150000000016 0L288.707 7.661399999999503L294.02649999999994 10.336549999999534L295.4339999999996 14.323249999999916L299.0379999999999 16.48499999999956L307.2059999999999 16.506899999999973L312.6060000000001 14.34759999999983L316.0374999999999 16.242199999999798L320.68550000000016 12.604349999999727L324.5240000000001 12.147399999999493L333.91099999999994 16.009799999999927L340.8515 26.541599999999903L346.5899999999999 28.44949999999983L347.30099999999993 28.489649999999642L342.40999999999985 50.58034999999961L336.6629999999998 59.415899999999624L343.81699999999967 67.00014999999951L347.95799999999986 74.42359999999951L358.245 72.13739999999973L360.14250000000004 72.72474999999986L362.54099999999994 84.32099999999991L374.6519999999998 81.02199999999982L378.67500000000007 73.76154999999983L383.0264999999997 61.65309999999977L387.1289999999999 55.372449999999844L390.3645 57.6117499999998L392.1735000000001 63.23344999999961L397.4939999999998 69.03885000000002L399.5549999999997 69.42700000000002L402.0285000000001 66.02874999999983L408.06600000000003 66.42664999999965L419.76650000000006 62.041999999999575L425.62700000000007 64.22619999999995L429.778 63.59375L432.32349999999997 66.93754999999953L435.6205 67.46549999999957L438.2299999999998 65.19884999999988L440.8805000000001 61.94659999999999L452.68100000000004 65.28149999999982L458.84199999999964 76.2018999999998L457.405 82.0196999999996L458.7964999999997 88.2086499999997L462.9494999999997 95.2741999999995L468.7455 97.41619999999955L468.87850000000014 97.05749999999966L474.1919999999999 102.68904999999961L478.62799999999993 111.28724999999974L479.21699999999987 109.28380000000004L486.99749999999995 106.64679999999976L489.28650000000005 103.26314999999965L493.36450000000013 102.47664999999984L498.9119999999997 105.29059999999959L512.9374999999999 114.34429999999963L512.5004999999999 116.41959999999983L505.3589999999997 120.97989999999982L499.8244999999997 127.37644999999986L497.4599999999998 133.28734999999995L492.9924999999997 137.69199999999955L493.49699999999984 143.8223499999998L500.3064999999998 147.83654999999953L511.696 143.4853499999997L517.1789999999999 149.2752999999999L517.8960000000001 155.37694999999985L521.3349999999997 157.57334999999955L532.8104999999999 153.16824999999994L542.0920000000001 157.63029999999958L542.199 165.83974999999953L543.5719999999998 167.41884999999968L545.5189999999999 168.17174999999963L550.2479999999997 164.16539999999998L554.0084999999999 164.54584999999952L558.426 168.35469999999987L565.1740000000001 170.64049999999952L565.5655000000002 180.4658999999998L561.6044999999997 181.77914999999985L555.5579999999998 180.16674999999964L552.6164999999997 182.59289999999964L553.2529999999997 190.79025000000001L554.9054999999998 192.05649999999991L560.7650000000001 191.40459999999962L559.1154999999998 195.25644999999997L562.3739999999998 199.96534999999994L570.0059999999996 194.38734999999951L580.0324999999998 201.15989999999954L578.6070000000001 210.7865499999997L576.9414999999998 214.43420000000003L573.4424999999999 216.37219999999957L569.2525 216.6915499999999L563.8499999999999 219.95209999999986L562.4759999999998 225.9510499999999L559.1474999999997 233.3593499999995L553.116 238.93644999999992L542.8744999999998 238.0974999999995L544.9854999999997 248.1259L543.9785 249.9060499999996L545.3395 250.62694999999962L544.2099999999999 256.4205499999997L541.2905000000001 258.76575L539.1589999999997 268.42634999999973L537.2094999999996 268.5247999999996L529.9714999999998 262.03074999999956L515.6029999999998 251.49524999999983L513.8079999999997 248.2334499999996L511.884 248.32164999999975L506.27849999999967 252.88309999999967L504.5240000000001 253.69154999999978L499.3275 248.14399999999978L499.4014999999996 250.1392999999996L494.6674999999999 253.15799999999967L481.96349999999995 243.6393499999997L480.4910000000001 244.92179999999962L482.6675 256.2217999999996L479.4104999999996 257.2367499999996L471.63250000000005 254.9675499999995L462.937 249.86499999999978L458.5744999999997 254.82799999999997L455.38250000000005 256.9159499999995L449.18499999999995 264.3187999999998L442.56100000000004 268.0500999999998L441.10649999999964 272.063L445.05949999999984 279.00014999999996L444.85149999999976 283.0075499999998L449.3414999999999 294.1585999999995L451.9335000000001 297.28385000000003L448.2724999999999 300.1366999999999L442.95950000000005 297.36954999999966L438.94799999999975 297.46609999999976L437.6234999999997 289.46564999999964L431.8365 283.7259L429.90549999999985 275.8363499999996L427.2059999999999 277.946L423.9314999999999 277.9163999999997L422.8444999999999 279.48369999999954L428.0404999999996 285.74329999999975L429.19399999999996 289.72035000000005L428.5579999999999 293.6564999999996L424.1075000000001 297.96209999999974L426.7845 303.2565999999997L427.577 308.59974999999963L424.44999999999993 311.2501999999995L412.76250000000005 313.8431499999996L412.51649999999984 313.75689999999963L406.0469999999998 318.70284999999967L396.05399999999975 320.7784499999997L392.51649999999984 318.6624499999999L384.93600000000015 321.6269L380.6239999999997 319.50609999999983L383.6714999999998 314.0994999999998L382.94550000000015 310.04984999999976L374.6724999999998 314.6767L368.5649999999998 313.7044499999996L364.7595000000001 308.8162999999997L362.6859999999999 308.6516499999999L362.75049999999965 302.5524999999999L365.523 299.57314999999994L363.5534999999999 293.76329999999996L357.8604999999999 288.16974999999957L353.8984999999997 287.3404499999998L347.2924999999998 295.26234999999986L338.21249999999964 299.26544999999976L336.02049999999963 286.56904999999995L329.3430000000001 285.7770999999997z">
      <title id="t94">Troisième circonscription de la Dordogne</title>
      <desc id="d94">Cantons de : Brantôme, Bussière-Badil, Champagnac-de-Belair, Champagnac-de-Belair, Excideuil, Jumilhac-le-Grand, Lanouaille, Mareuil, Montagrier, Nontron, Ribérac, Saint-Aulaye, Saint-Pardoux-la-Rivière, Savignac-les-Eglises, Thiviers, Verteillac</desc>
    </path><path class="circo" id="id-024-04" d="M421.58649999999966 605.6815499999999L417.56100000000004 601.3538L419.23850000000016 597.7439499999997L417.4680000000001 594.2719499999998L421.84249999999963 587.76185L420.5219999999997 580.1164499999999L418.6914999999999 580.7890999999995L415.05799999999965 579.2569999999995L414.22050000000013 575.3814499999999L417.5554999999997 570.5602499999998L418.07050000000004 566.5999499999998L420.83799999999997 561.20025L431.02949999999964 554.3125999999995L430.2884999999998 553.0853499999995L424.78499999999997 547.0994999999999L425.5219999999997 543.1419L421.0325 536.5238999999997L420.5789999999996 532.7250999999995L414.6179999999998 527.9632499999997L414.8755 526.0672999999997L416.76199999999994 525.7801999999998L411.92849999999964 519.95745L408.2284999999996 518.6132999999995L396.15099999999984 518.1786L395.2044999999998 511.93960000000004L395.9359999999998 503.8173499999999L387.8109999999998 503.0261999999999L384.45899999999995 508.10329999999965L385.1445000000001 515.5595999999997L380.36549999999977 521.3219499999997L371.506 520.6738999999999L367.4784999999997 515.8977999999996L367.1109999999999 503.10654999999997L363.6919999999998 500.9537L359.59749999999985 501.86729999999955L355.2159999999998 494.9606L349.8750000000001 493.2782499999996L349.554 485.6671L335.1429999999999 486.4064499999995L334.95299999999986 482.95204999999953L329.89300000000014 482.3458499999998L326.6199999999998 481.13765L326.1269999999996 471.27849999999967L324.4364999999999 470.21879999999953L320.4339999999996 467.31155L317.07400000000007 468.3617499999997L315.34850000000006 467.40584999999953L312.731 460.08324999999957L305.3694999999999 459.2718499999995L299.78849999999966 460.52404999999965L299.5609999999999 454.8182499999996L294.3815000000001 451.6339999999997L296.0005000000001 443.65189999999984L298.63850000000014 440.7424499999996L298.13949999999977 436.80624999999964L299.57600000000014 435.4101499999996L296.1435 433.9094L291.12199999999973 425.80240000000003L285.2735000000001 425.51265L286.4760000000001 421.86935000000005L280.881 416.5623999999997L280.7329999999996 414.50819999999965L273.41399999999965 414.04274999999984L265.3339999999997 404.5541499999996L263.28899999999976 397.20309999999984L267.2629999999998 396.9672499999996L272.03550000000007 393.67234999999994L279.8910000000001 392.9779499999995L281.19399999999985 389.40939999999955L277.86699999999996 380.1307499999996L282.0425 371.2403499999999L285.95799999999997 372.1958999999998L291.8554999999998 370.1968499999998L298.8069999999999 366.87584999999956L301.0129999999998 363.7611499999997L304.81600000000014 363.45339999999965L305.84749999999985 357.5145999999995L308.40899999999976 354.49784999999963L305.9929999999997 351.41089999999963L305.80600000000004 345.4133999999999L319.7784999999999 346.69204999999977L322.0994999999999 343.31394999999986L321.0804999999999 333.1313L323.88800000000003 327.6357999999999L326.72699999999963 325.0770499999999L328.55099999999993 325.6437999999997L333.71699999999976 324.00684999999953L332.02650000000006 319.38969999999983L337.08950000000016 322.48734999999954L346.1104999999998 317.75485000000003L356.24199999999973 317.0293499999997L358.0879999999996 316.2447499999996L359.22050000000013 310.4377499999998L362.6859999999999 308.6516499999999L364.7595000000001 308.8162999999997L368.5649999999998 313.7044499999996L374.6724999999998 314.6767L382.94550000000015 310.04984999999976L383.6714999999998 314.0994999999998L380.6239999999997 319.50609999999983L384.93600000000015 321.6269L392.51649999999984 318.6624499999999L396.05399999999975 320.7784499999997L406.0469999999998 318.70284999999967L412.51649999999984 313.75689999999963L412.76250000000005 313.8431499999996L424.44999999999993 311.2501999999995L427.577 308.59974999999963L426.7845 303.2565999999997L424.1075000000001 297.96209999999974L428.5579999999999 293.6564999999996L429.19399999999996 289.72035000000005L428.0404999999996 285.74329999999975L422.8444999999999 279.48369999999954L423.9314999999999 277.9163999999997L427.2059999999999 277.946L429.90549999999985 275.8363499999996L431.8365 283.7259L437.6234999999997 289.46564999999964L438.94799999999975 297.46609999999976L442.95950000000005 297.36954999999966L448.2724999999999 300.1366999999999L451.9335000000001 297.28385000000003L449.3414999999999 294.1585999999995L444.85149999999976 283.0075499999998L445.05949999999984 279.00014999999996L441.10649999999964 272.063L442.56100000000004 268.0500999999998L449.18499999999995 264.3187999999998L455.38250000000005 256.9159499999995L458.5744999999997 254.82799999999997L462.937 249.86499999999978L471.63250000000005 254.9675499999995L479.4104999999996 257.2367499999996L482.6675 256.2217999999996L480.4910000000001 244.92179999999962L481.96349999999995 243.6393499999997L494.6674999999999 253.15799999999967L499.4014999999996 250.1392999999996L499.3275 248.14399999999978L504.5240000000001 253.69154999999978L506.27849999999967 252.88309999999967L511.884 248.32164999999975L513.8079999999997 248.2334499999996L515.6029999999998 251.49524999999983L529.9714999999998 262.03074999999956L537.2094999999996 268.5247999999996L539.1589999999997 268.42634999999973L545.462 271.77134999999964L544.3969999999996 275.30865000000006L552.0524999999998 278.6077L560.0799999999998 278.1753999999995L560.6759999999997 286.39399999999966L551.8065000000001 295.0034499999998L541.9419999999997 298.39774999999975L540.9499999999997 303.0007999999998L539.7179999999997 309.1571499999998L541.8770000000001 312.7375999999998L558.3215000000001 311.09579999999994L565.7364999999999 318.4947999999997L566.5039999999999 320.4443999999995L562.3070000000001 327.32894999999985L556.653 332.84434999999974L551.0570000000001 333.0275999999998L550.7939999999996 336.8062999999995L561.746 342.37325L566.1099999999999 346.82579999999973L573.8794999999999 349.75649999999973L579.083 346.4817499999998L584.4979999999998 349.3239L592.2524999999996 346.9685999999996L592.2559999999999 351.55370000000005L598.3709999999996 352.55979999999965L604.3860000000001 350.54215L611.9754999999998 354.1357499999998L613.4195 354.9309499999998L618.2254999999998 357.04714999999965L618.4084999999999 361.0629499999999L616.4504999999997 364.51454999999953L609.4504999999998 368.5125999999997L603.4159999999997 368.38134999999966L604.1839999999996 371.5708999999998L605.5565000000001 370.2407999999997L609.7980000000001 373.64634999999964L609.1334999999998 379.52094999999986L613.1795 386.4471999999995L615.2114999999998 389.97749999999996L612.475 395.4142999999999L616.515 396.4865499999996L617.5794999999999 400.56690000000003L627.3829999999998 414.1130999999996L633.1725 420.5994999999996L626.7595 425.7182499999999L616.5404999999998 428.1648999999999L619.0299999999996 436.07665L618.7214999999998 447.8852999999998L620.9769999999997 451.1996499999998L620.7315 457.27364999999963L624.8205000000002 464.46595L626.882 464.62504999999965L627.8665000000001 468.3581499999997L626.728 469.92699999999957L630.3244999999998 480.9917999999999L622.7029999999996 481.30029999999977L617.1339999999998 486.9897499999996L620.4249999999996 487.7938999999998L621.9409999999999 494.41464999999994L629.5999999999998 498.8919499999997L630.5865 505.2520499999997L627.9904999999997 508.46855000000005L619.7909999999996 509.7177499999998L617.525 508.6346499999996L616.6095000000001 513.42195L615.0309999999996 514.4203499999998L613.8765000000001 521.7649999999998L613.7259999999998 522.8206999999998L607.8120000000001 522.2553999999997L603.4550000000002 526.2375499999996L597.98 525.2659L595.8659999999998 530.9930499999996L597.4034999999998 545.2824999999996L594.194 546.0720999999995L586.8059999999997 548.8547L580.9999999999997 548.6108999999999L570.6545 553.56335L567.3165 558.2898999999998L571.2725 558.8240999999999L571.7770000000002 560.7817L568.9495 566.003L573.6160000000001 569.6388999999999L579.3119999999999 575.5059499999999L576.9810000000001 587.9072499999995L570.24 585.5681999999996L569.5304999999996 595.0556499999999L564.6429999999998 603.4082999999998L557.4259999999998 598.8475999999997L553.8139999999999 605.9721999999999L546.6294999999997 609.2175999999995L545.9049999999996 615.2644499999997L540.4089999999997 617.3467999999997L538.1585000000001 620.6007499999998L538.0919999999998 621.4639L519.3959999999998 622.4077999999997L513.6214999999999 624.8560999999995L511.1084999999997 628.2192999999995L505.0189999999998 629.5143999999999L506.33299999999963 638.9377999999999L504.9264999999997 640.2408499999996L507.73149999999987 648.1095499999998L506.7869999999999 652.1817999999996L496.755 661.7865L488.29999999999984 669.4347999999997L483.52149999999995 675.9033L486.6305 683.1582499999996L484.9459999999999 683.7095999999997L486.5209999999996 688.6630499999995L480.66149999999993 689.2399999999998L475.0880000000001 687.2538499999996L474.59149999999966 685.3314L475.78550000000007 679.38625L472.88700000000006 674.0501L466.8554999999998 673.17745L462.54899999999964 668.8491999999997L456.85149999999965 666.8034L447.96899999999994 662.34895L440.92299999999966 652.2026999999997L433.00599999999974 646.1275999999998L428.4834999999998 650.18755L418.93100000000004 647.7027499999997L416.81299999999965 642.5241999999997L426.4164999999997 646.5074999999996L434.135 644.34505L439.9064999999996 618.2029L438.29399999999964 614.486L432.77049999999974 609.7868499999998L421.58649999999966 605.6815499999999z">
      <title id="t95">Quatrième circonscription de la Dordogne</title>
      <desc id="d95">Cantons de : Belvès, Le Bugue, Carlux, Domme, Hautefort, Montignac, Saint-Cyprien, Sainte-Alvère, Saint-Pierre-de-Chignac, Salignac-Eyvignes, Sarlat-la-Canéda, Terrasson-la-Villedieu, Thenon, Vergt, Villefranche-du-Périgord</desc>
    </path></svg>