<svg xmlns="http://www.w3.org/2000/svg" version="1.1" xmlns:xlink="http://www.w3.org/1999/xlink" xmlns:svgjs="http://svgjs.dev/svgjs" width="578.6829999999998" height="640.4256500000002" fill="#eeeeee" stroke="#cccccc" xmlns:sodipodi="http://sodipodi.sourceforge.net/DTD/sodipodi-0.dtd"><path class="circo" id="id-025-01" d="M94.88749999999982 164.1659500000003L96.78200000000061 158.91620000000046L87.3739999999998 155.18385000000023L84.14650000000051 157.66335000000026L86.41899999999964 166.48425000000032L83.3400000000006 168.47145000000012L78.19299999999998 162.3302000000001L74.1885000000002 166.71310000000005L70.27900000000045 165.85360000000037L65.63200000000052 169.03310000000033L62.19749999999976 175.32849999999996L56.31150000000048 176.69725000000028L49.433500000000095 178.9345000000003L41.04600000000005 182.34395000000006L36.99299999999994 181.43790000000024L32.40350000000035 188.28040000000044L29.140499999999747 190.8570000000003L24.95999999999981 190.71605000000034L23.60300000000052 192.85775L15.500500000000557 198.79230000000007L5.378500000000486 194.32344999999998L0 197.81150000000025L8.594000000000506 212.54695000000027L8.356999999999744 214.69285000000013L6.503500000000031 215.9648500000003L9.787499999999909 220.67920000000015L9.346500000000333 224.3453500000004L9.2349999999999 225.95920000000035L12.02099999999973 227.47040000000027L16.825999999999794 233.78665000000012L16.549999999999727 237.6934L24.21199999999999 235.1323500000001L25.603499999999713 236.635L24.848500000000513 240.5639500000001L26.630499999999984 242.13639999999998L34.28899999999999 243.0201500000004L36.751500000000306 245.67630000000008L36.71000000000049 256.9071500000001L40.13850000000048 254.40380000000005L47.91650000000004 257.85180000000025L48.84999999999991 269.82845L54.97449999999958 275.2718500000003L50.09700000000066 279.26244999999994L45.05899999999997 290.95034999999996L38.87749999999983 299.5629500000001L37.75250000000028 303.4994499999999L33.714499999999816 302.5580000000002L29.863000000000284 307.2139000000004L33.95150000000058 316.74215000000004L36.547500000000355 329.13305000000037L27.229999999999563 334.6204L20.855999999999995 328.7949500000002L16.823500000000422 329.5647500000001L17.382499999999936 333.64675000000034L22.187999999999874 338.01765000000046L21.682500000000573 342.25265000000036L18.246500000000196 344.77310000000045L21.58549999999991 352.6237000000003L27.9200000000003 355.5915500000003L30.261000000000422 352.36064999999996L39.58600000000047 349.25850000000025L42.70949999999971 343.56155L41.81699999999978 337.1307999999999L43.1880000000001 335.43184999999994L47.354500000000144 334.18690000000026L49.384000000000015 334.7651000000002L50.3634999999997 338.8851500000004L49.853500000000395 349.2872L50.25549999999953 352.9466000000002L56.06300000000033 355.3958L59.8090000000002 353.8012500000002L60.32249999999976 358.0654500000003L63.1899999999996 358.02864999999997L62.99449999999979 361.4410000000004L67.83000000000015 358.2025500000003L77.70999999999958 360.197L78.9485000000002 364.31825000000003L82.87699999999973 365.5409000000003L88.8130000000001 363.62030000000004L92.91500000000042 354.3722500000001L94.70199999999977 354.3429500000002L92.36999999999966 360.49555L91.92099999999982 371.3369L96.07650000000035 375.1670999999999L102.06850000000031 373.5218000000003L104.71649999999954 370.32010000000014L104.60900000000038 367.20590000000016L108.23099999999954 365.0735500000002L111.39499999999998 359.6448000000004L113.93249999999966 345.25570000000016L112.67699999999991 341.3877500000001L112.47150000000033 341.0428999999999L114.92700000000013 332.0268500000003L121.96450000000027 325.7567499999999L123.96399999999971 325.47844999999995L124.40900000000056 323.50505L122.3440000000005 318.2155499999999L127.46549999999957 320.7658500000002L133.34500000000048 318.9837L134.30950000000053 315.73680000000024L137.96249999999986 313.72344999999996L138.2860000000005 311.5708000000001L143.12250000000063 305.75625L142.0410000000004 302.08664999999996L143.8130000000001 301.2044500000002L146.28100000000018 294.0423500000003L149.66000000000008 284.8093L154.6040000000005 286.95430000000044L158.58050000000048 281.7739499999999L158.84149999999977 277.50620000000026L142.1690000000001 258.0293499999999L139.63799999999992 258.13500000000033L133.77650000000017 262.84335L128.89049999999997 249.2677500000002L123.61650000000054 242.8750500000001L122.68000000000029 244.33230000000037L120.60600000000022 242.11260000000038L119.0949999999998 240.9286000000003L120.08950000000027 239.28665000000024L123.42750000000024 237.9198500000001L130.62999999999988 228.14435000000003L136.13000000000056 227.70005000000026L142.12750000000028 222.7571499999999L140.33699999999953 219.5876000000004L135.7299999999998 219.1940500000004L135.53499999999985 215.3860000000003L138.84900000000016 212.52980000000036L137.25450000000023 208.96524999999997L127.38000000000056 194.0814499999999L130.25549999999953 190.77365000000043L128.58799999999974 186.81565000000035L124.6085000000005 185.80630000000042L125.52000000000021 178.23140000000024L123.52200000000039 173.44705000000033L121.79899999999975 171.0777999999999L117.60999999999967 171.5516500000001L114.9840000000006 168.16554999999994L110.93950000000063 166.88420000000008L104.81449999999995 168.54039999999998L104.59150000000022 168.4752000000003L97.15050000000019 169.34965000000034L94.88749999999982 164.1659500000003z">
      <title id="t96">Première circonscription du Doubs</title>
      <desc id="d96">Cantons de : Audeux, Besançon Nord-Ouest, Besançon Ouest, Besançon-Planoise, Boussières, Quingey</desc>
    </path><path class="circo" id="id-025-02" d="M123.61650000000054 242.8750500000001L122.68000000000029 244.33230000000037L120.60600000000022 242.11260000000038L119.0949999999998 240.9286000000003L120.08950000000027 239.28665000000024L123.42750000000024 237.9198500000001L130.62999999999988 228.14435000000003L136.13000000000056 227.70005000000026L142.12750000000028 222.7571499999999L140.33699999999953 219.5876000000004L135.7299999999998 219.1940500000004L135.53499999999985 215.3860000000003L138.84900000000016 212.52980000000036L137.25450000000023 208.96524999999997L127.38000000000056 194.0814499999999L130.25549999999953 190.77365000000043L128.58799999999974 186.81565000000035L124.6085000000005 185.80630000000042L125.52000000000021 178.23140000000024L123.52200000000039 173.44705000000033L121.79899999999975 171.0777999999999L117.60999999999967 171.5516500000001L114.9840000000006 168.16554999999994L110.93950000000063 166.88420000000008L104.81449999999995 168.54039999999998L104.59150000000022 168.4752000000003L97.15050000000019 169.34965000000034L94.88749999999982 164.1659500000003L96.78200000000061 158.91620000000046L98.5755000000006 157.76245000000017L96.25800000000027 151.90269999999998L96.8934999999999 147.82460000000015L101.94250000000011 149.2954500000002L103.29650000000015 148.17585000000008L103.79800000000046 149.99165000000005L112.55800000000022 152.5242000000003L112.74800000000027 152.56500000000017L118.93199999999979 158.40265000000045L120.779 157.35985000000028L122.55049999999983 157.12784999999997L123.01500000000033 158.85665000000017L124.6690000000001 157.99885000000017L126.62199999999984 150.89294999999993L130.18350000000055 152.02875000000006L132.50549999999976 155.0948500000004L138.05650000000014 155.60715000000016L140.99749999999972 152.3360500000001L144.57650000000058 147.72800000000018L149.72099999999955 145.20325000000014L150.21349999999984 143.10865000000035L151.39599999999973 143.70270000000005L152.5 144.74030000000027L158.6220000000003 144.21584999999993L161.8500000000006 141.61744999999996L163.05450000000064 137.73070000000018L162.90300000000002 130.91290000000015L170.85900000000038 131.54800000000023L171.60349999999994 137.43390000000034L171.8539999999996 137.50609999999995L175.41349999999966 136.98530000000005L178.92000000000053 132.9574500000001L173.36950000000002 127.6042000000001L175.56500000000028 126.54854999999998L173.1344999999999 123.68195000000014L177.51800000000003 117.45895000000019L178.9689999999996 115.98355000000026L184.87150000000042 121.14464999999996L192.75300000000016 121.87220000000025L194.32950000000005 119.51435000000004L196.19699999999966 120.46605L199.81700000000046 118.35545000000025L201.44700000000057 114.55199999999991L204.38350000000014 111.90980000000025L208.33650000000034 111.64545000000032L208.47849999999994 109.6655000000004L203.64000000000033 108.94335000000012L201.76349999999957 108.89625000000024L200.50250000000005 105.4616500000003L203.53650000000016 103.08310000000006L207.33799999999974 104.23315000000002L210.71000000000026 103.6961500000001L210.548 101.98644999999999L212.5025000000005 101.92990000000009L213.08149999999955 96.10740000000021L215.75450000000046 93.50520000000017L216.44149999999968 95.06705000000011L217.98450000000003 96.95235000000025L223.54799999999955 99.30240000000026L226.94799999999987 104.46680000000015L230.71550000000002 106.40995000000032L231.62699999999973 104.55219999999997L227.59300000000053 97.52150000000029L227.90550000000053 93.60070000000007L234.53300000000013 97.6660000000004L237.79800000000023 104.55784999999992L238.66999999999962 105.16580000000033L245.35300000000007 102.33695000000012L248.73649999999998 118.14390000000003L247.4694999999997 119.74850000000004L249.03999999999996 123.20175000000006L252.6509999999996 124.36550000000011L252.183 130.86585000000014L245.8820000000003 133.43560000000025L247.69599999999969 136.99344999999994L245.84299999999985 142.67075000000034L246.2334999999996 144.41095000000018L251.07049999999958 148.5522000000003L252.35850000000028 151.44300000000044L252.65899999999988 154.51225000000022L252.93999999999983 156.4286500000003L256.57850000000053 157.6433000000003L257.2185000000002 161.74335000000042L249.15100000000052 166.02035L252.99849999999992 178.56040000000007L255.0229999999999 179.4189L260.89000000000055 176.5543500000001L256.1545000000001 186.30314999999996L258.17049999999995 186.40525000000025L260.7394999999997 191.72335000000032L258.73050000000035 201.5540500000003L256.86000000000035 201.08625000000018L251.2099999999998 206.2773500000003L264.24300000000017 211.4733000000001L267.1220000000005 214.1614000000004L266.87850000000026 216.21020000000044L261.34149999999977 222.2138000000001L262.25850000000037 226.2333000000001L265.80600000000004 227.28520000000003L266.72699999999963 231.18085000000008L260.18800000000056 238.9151000000004L250.942 236.81390000000022L244.65900000000033 236.9684000000001L232.4350000000004 245.94150000000013L232.29199999999992 247.09090000000003L224.96700000000033 254.255L225.26950000000056 260.19360000000006L219.13649999999961 260.5111500000004L227.9460000000006 271.92695000000015L236.08450000000062 272.75239999999997L239.4799999999998 282.5760500000001L241.91100000000006 287.85000000000025L238.21800000000053 292.6434499999999L242.96100000000024 301.67395L246.93399999999997 303.0993000000001L247.84200000000055 305.01090000000033L246.35549999999967 306.5178500000002L249.74450000000047 309.9779000000001L247.57200000000012 311.38915L247.7260000000001 316.87884999999994L245.6230000000005 321.77295000000015L249.89450000000033 321.6250500000001L251.43249999999966 323.1905499999999L256.4020000000005 322.4206000000004L249.07050000000027 326.76305000000013L246.25350000000026 329.96770000000026L246.49 332.0911000000001L251.82950000000005 335.47304999999994L255.65399999999954 342.7870999999999L262.46399999999994 337.7407500000004L254.0300000000002 346.39925000000005L254.91300000000024 352.09945000000005L251.29249999999956 353.37424999999996L245.68750000000023 347.8208000000001L238.5775000000001 355.23810000000026L237.49850000000038 357.23209999999995L233.73050000000035 354.2345L219.3164999999999 357.7033L208.28449999999975 362.34775000000013L203.89850000000024 363.9562000000001L203.4159999999997 361.88660000000027L206.49700000000053 356.6873000000004L204.8109999999997 352.80575L202.7279999999996 352.38995000000045L200.52350000000047 347.03145000000006L194.98649999999998 346.98905000000025L182.7150000000006 329.14555000000007L181.1519999999996 328.13365000000033L179.87150000000042 329.48800000000006L180.26749999999993 326.5584000000001L169.33599999999956 321.36484999999993L169.70199999999977 317.1677500000004L172.9634999999996 315.90779999999995L165.10700000000043 303.4732500000001L168.72299999999996 301.9162L167.06000000000017 300.56820000000016L160.86000000000013 301.9399000000004L159.0020000000004 302.99815000000024L155.2195000000006 308.0023L153.12199999999962 307.5834500000002L151.32650000000012 303.6998500000004L145.15049999999974 302.8757999999999L143.8130000000001 301.2044500000002L146.28100000000018 294.0423500000003L149.66000000000008 284.8093L154.6040000000005 286.95430000000044L158.58050000000048 281.7739499999999L158.84149999999977 277.50620000000026L142.1690000000001 258.0293499999999L139.63799999999992 258.13500000000033L133.77650000000017 262.84335L128.89049999999997 249.2677500000002L123.61650000000054 242.8750500000001z">
      <title id="t97">Deuxième circonscription du Doubs</title>
      <desc id="d97">Cantons de : Besançon Est, Besançon Nord-Est, Besançon Sud, Marchaux, Ornans, Roulans</desc>
    </path><path class="circo" id="id-025-03" d="M274.70800000000054 207.49955L268.5145 207.12390000000028L267.6165000000003 206.00815000000011L264.24300000000017 211.4733000000001L251.2099999999998 206.2773500000003L256.86000000000035 201.08625000000018L258.73050000000035 201.5540500000003L260.7394999999997 191.72335000000032L258.17049999999995 186.40525000000025L256.1545000000001 186.30314999999996L260.89000000000055 176.5543500000001L255.0229999999999 179.4189L252.99849999999992 178.56040000000007L249.15100000000052 166.02035L257.2185000000002 161.74335000000042L256.57850000000053 157.6433000000003L252.93999999999983 156.4286500000003L252.65899999999988 154.51225000000022L252.35850000000028 151.44300000000044L251.07049999999958 148.5522000000003L246.2334999999996 144.41095000000018L245.84299999999985 142.67075000000034L247.69599999999969 136.99344999999994L245.8820000000003 133.43560000000025L252.183 130.86585000000014L252.6509999999996 124.36550000000011L249.03999999999996 123.20175000000006L247.4694999999997 119.74850000000004L248.73649999999998 118.14390000000003L245.35300000000007 102.33695000000012L238.66999999999962 105.16580000000033L237.79800000000023 104.55784999999992L234.53300000000013 97.6660000000004L238.90300000000025 95.25990000000036L239.3590000000006 89.6750000000003L239.99599999999987 84.21545000000037L247.12650000000053 85.53710000000024L250.9635000000003 83.26774999999998L248.26549999999997 80.81095000000005L253.0925000000002 71.71320000000037L256.28349999999955 69.26435000000026L255.1935000000003 60.86215000000038L256.6145000000006 55.63495000000046L260.4899999999998 57.673450000000344L264.289 58.00935000000038L268.9639999999997 48.13584999999989L270.20099999999957 46.53275000000008L276.2365 46.80645000000027L284.4849999999997 41.81804999999997L288.9945 43.15710000000024L293.70949999999993 46.432100000000105L296.77400000000034 38.74650000000031L302.78800000000047 36.52870000000007L304.2814999999996 38.078800000000115L305.1585 37.02275000000043L310.1940000000002 39.6628000000004L316.32349999999974 41.030850000000214L320.41450000000054 40.03090000000043L323.83500000000026 42.47690000000034L328.4465 58.47225000000037L330.23750000000064 57.440750000000094L330.27799999999957 53.29375000000027L340.7929999999999 43.85680000000036L343.2000000000005 48.97010000000023L348.0830000000003 52.40175000000022L350.0774999999999 52.03185000000019L353.21750000000065 49.91125000000011L354.53550000000064 46.34780000000035L359.2859999999996 49.9401499999999L363.43200000000024 56.40170000000012L365.42800000000057 52.598050000000285L371.79449999999974 53.141500000000406L376.11099999999965 43.79705000000001L374.3844999999999 33.98225000000025L375.1470000000006 31.872999999999934L371.2525000000005 32.35389999999995L370.19900000000007 30.627300000000446L375.2139999999997 24.513300000000413L374.7434999999996 22.545800000000327L380.7000000000005 23.651399999999967L385.77350000000024 27.11720000000014L386.8534999999997 30.34910000000025L390.66149999999993 30.784700000000385L394.52949999999987 31.52430000000038L403.50450000000023 27.577400000000125L406.1289999999997 24.01155000000017L408.13049999999976 20.97295000000031L412.8780000000006 13.86275000000012L405.87099999999964 5.471600000000194L408.46649999999954 0L410.7479999999998 4.6369000000004235L420.82149999999956 5.73174999999992L419.28350000000023 10.558050000000208L433.8454999999999 17.242650000000026L435.01800000000003 12.882749999999987L436.5790000000004 12.28695000000016L442.5999999999999 14.553600000000415L446.31650000000036 19.701650000000086L450.2520000000004 24.144400000000132L455.0070000000005 26.573250000000144L460.0229999999999 27.42125000000044L466.6250000000002 19.3647500000003L468.5800000000006 11.048100000000431L471.03200000000015 10.775350000000117L475.1355000000001 20.145600000000172L471.7515000000003 30.386850000000436L476.0145 38.26760000000036L475.63150000000064 42.10565000000031L478.07750000000055 44.95225000000005L476.41200000000026 46.07345000000009L477.39850000000047 55.85005000000024L466.88999999999965 54.85375000000033L461.3149999999996 50.06660000000011L459.2994999999996 44.22050000000013L456.61100000000033 50.33400000000029L461.56450000000063 56.79040000000043L461.96199999999976 61.11745000000042L458.3164999999997 59.842649999999935L455.98799999999983 62.694700000000125L452.17899999999986 63.31160000000011L448.1975 63.28580000000045L441.69849999999997 64.39320000000009L436.30250000000046 62.844949999999926L430.5110000000002 68.52120000000014L425.6065000000001 71.4516500000002L425.28099999999995 71.77040000000034L417.9060000000004 79.03220000000033L410.08249999999975 80.66640000000007L410.4475000000002 84.97650000000021L415.3870000000006 91.91689999999994L414.0549999999996 104.32045000000016L412.1230000000003 107.66035000000045L408.07950000000005 108.34924999999998L405.49099999999953 110.8887500000003L403.85549999999967 114.68324999999993L409.2730000000006 120.35495000000026L407.6890000000003 124.24685000000011L398.1484999999998 131.5925500000003L400.0755000000004 135.04639999999995L398.7964999999997 138.9623499999999L405.67800000000034 141.91605000000038L403.8390000000004 142.31695000000002L401.9455000000005 151.48815000000013L395.8484999999996 153.21280000000002L397.1479999999997 157.06450000000018L395.4989999999998 160.84240000000023L397.9615000000001 166.4591999999999L396.75299999999993 174.38530000000014L402.4995000000001 173.7021500000003L403.8914999999997 169.8918500000002L405.8375000000001 175.79980000000035L412.03949999999963 175.2583500000003L412.6170000000002 175.06464999999992L414.19849999999997 174.47240000000022L425.4920000000004 167.1663000000001L429.1399999999999 165.27060000000006L427.71100000000047 157.06639999999993L433.0065000000002 155.38895000000025L435.0004999999999 152.1598499999999L438.70949999999993 152.73680000000013L438.7990000000002 150.83650000000034L442.27300000000014 149.4635500000004L445.6574999999998 146.65729999999996L449.9995000000001 146.36685L450.98550000000046 150.16729999999995L449.2685000000006 153.69695000000036L450.5150000000003 155.20960000000002L454.93349999999964 158.73809999999992L458.7310000000002 158.84095000000002L453.5704999999996 155.51935000000014L454.99450000000024 152.12850000000003L456.5269999999998 150.7098000000002L456.04799999999955 144.55900000000042L453.80250000000046 141.06470000000002L455.4939999999999 137.26075000000037L454.0904999999998 135.7177999999999L463.9085 136.48900000000026L467.13100000000054 134.76155000000006L479.1854999999998 137.42700000000013L487.22600000000057 137.75080000000003L493.2669999999996 138.85005000000035L497.5520000000006 143.56719999999996L501.7840000000001 144.27295000000015L501.97 143.01015000000007L510.9870000000001 139.0395000000001L519.2655000000002 141.0459000000003L525.5404999999996 139.78170000000034L548.6154999999997 136.08615000000043L552.7760000000001 135.20579999999995L557.8830000000005 131.01455000000044L566.3760000000002 132.89095000000032L573.5389999999995 137.9308500000002L574.4794999999999 139.93605000000002L575.0324999999998 144.33005000000037L578.6829999999998 149.64670000000012L575.548 152.75875000000042L576.3425000000007 154.7386499999999L571.7295000000001 158.9889500000004L567.5334999999995 158.2985500000001L557.1940000000006 160.61855000000037L559.6370000000002 166.11190000000022L556.6314999999997 174.17970000000025L551.2625000000003 177.8892000000002L544.7620000000006 178.37300000000027L541.1959999999999 180.86455L530.5910000000006 181.60145L529.5310000000006 182.8696500000001L527.9470000000003 184.26440000000014L532.2299999999996 196.0265000000004L530.6254999999999 206.18595000000028L533.9840000000004 211.49020000000007L528.6415 215.06470000000036L527.3300000000006 219.0331500000002L523.2275000000004 219.9844999999999L519.8514999999998 225.34970000000044L507.6245000000006 233.63085000000012L502.9740000000004 237.9004500000002L498.6429999999996 247.49680000000012L494.153 251.41880000000015L486.91400000000044 255.96685000000036L486.50300000000016 258.0712L491.4319999999998 261.5919500000001L490.5615 263.55530000000044L479.3074999999999 273.40480000000014L463.0529999999999 258.1400000000002L460.15499999999975 253.77985000000024L448.2330000000002 230.9299500000003L451.2895000000003 228.83135000000038L448.67700000000013 224.0480500000001L446.8145000000004 218.51050000000043L447.73450000000025 216.77729999999997L441.79250000000025 217.55470000000003L439.9014999999997 221.15985000000023L434.0395000000001 220.97275000000025L432.19349999999963 221.7256500000002L432.7385000000004 225.68825000000004L428.8080000000002 225.1025500000003L427.28650000000016 221.68620000000033L425.40050000000065 221.61425000000008L422.43100000000027 221.50845000000004L421.74600000000055 223.52930000000015L413.63450000000057 225.9135500000002L409.2484999999999 230.55330000000026L405.14999999999986 231.65385000000015L405.18850000000043 230.44880000000035L409.08750000000055 228.68494999999996L411.35200000000054 225.05685000000028L409.62800000000016 219.18960000000027L408.58550000000037 212.90189999999996L404.8320000000001 211.0006500000003L398.80750000000035 212.48745000000042L397.7494999999999 208.6979500000001L391.798 209.81175000000007L385.12399999999957 213.95669999999996L382.1424999999999 212.8612000000004L380.93200000000024 207.07320000000038L384.8580000000004 202.7439000000004L380.68399999999997 202.24289999999996L381.0379999999998 195.93195000000037L375.9285 192.58340000000032L371.7100000000005 191.92255000000046L351.1095 197.56349999999998L351.98600000000056 190.64335000000028L352.5490000000002 186.35514999999998L343.12599999999975 188.28225000000032L338.31800000000044 185.2568500000001L330.16849999999977 188.83669999999995L318.37150000000065 193.91130000000032L316.43699999999967 193.75345000000038L311.03899999999953 192.62535000000014L301.92350000000033 196.67100000000005L300.3645000000006 204.39700000000016L281.47100000000023 196.70545000000004L278.19650000000024 199.10540000000026L277.02350000000024 203.95305000000008L274.70800000000054 207.49955z">
      <title id="t98">Troisième circonscription du Doubs</title>
      <desc id="d98">Canton de : Baume-les-Dames, Clerval, L'Isle-sur-le-Doubs, Maîche, Montbéliard Est, Montbéliard Ouest, Rougemont, Saint-Hippolyte</desc>
    </path><path class="circo" id="id-025-04" d="M466.88999999999965 54.85375000000033L461.3149999999996 50.06660000000011L459.2994999999996 44.22050000000013L456.61100000000033 50.33400000000029L461.56450000000063 56.79040000000043L461.96199999999976 61.11745000000042L458.3164999999997 59.842649999999935L455.98799999999983 62.694700000000125L452.17899999999986 63.31160000000011L448.1975 63.28580000000045L441.69849999999997 64.39320000000009L436.30250000000046 62.844949999999926L430.5110000000002 68.52120000000014L425.6065000000001 71.4516500000002L425.28099999999995 71.77040000000034L417.9060000000004 79.03220000000033L410.08249999999975 80.66640000000007L410.4475000000002 84.97650000000021L415.3870000000006 91.91689999999994L414.0549999999996 104.32045000000016L412.1230000000003 107.66035000000045L408.07950000000005 108.34924999999998L405.49099999999953 110.8887500000003L403.85549999999967 114.68324999999993L409.2730000000006 120.35495000000026L407.6890000000003 124.24685000000011L398.1484999999998 131.5925500000003L400.0755000000004 135.04639999999995L398.7964999999997 138.9623499999999L405.67800000000034 141.91605000000038L403.8390000000004 142.31695000000002L401.9455000000005 151.48815000000013L395.8484999999996 153.21280000000002L397.1479999999997 157.06450000000018L395.4989999999998 160.84240000000023L397.9615000000001 166.4591999999999L396.75299999999993 174.38530000000014L402.4995000000001 173.7021500000003L403.8914999999997 169.8918500000002L405.8375000000001 175.79980000000035L412.03949999999963 175.2583500000003L412.6170000000002 175.06464999999992L414.19849999999997 174.47240000000022L425.4920000000004 167.1663000000001L429.1399999999999 165.27060000000006L427.71100000000047 157.06639999999993L433.0065000000002 155.38895000000025L435.0004999999999 152.1598499999999L438.70949999999993 152.73680000000013L438.7990000000002 150.83650000000034L442.27300000000014 149.4635500000004L445.6574999999998 146.65729999999996L449.9995000000001 146.36685L450.98550000000046 150.16729999999995L449.2685000000006 153.69695000000036L450.5150000000003 155.20960000000002L454.93349999999964 158.73809999999992L458.7310000000002 158.84095000000002L453.5704999999996 155.51935000000014L454.99450000000024 152.12850000000003L456.5269999999998 150.7098000000002L456.04799999999955 144.55900000000042L453.80250000000046 141.06470000000002L455.4939999999999 137.26075000000037L454.0904999999998 135.7177999999999L463.9085 136.48900000000026L467.13100000000054 134.76155000000006L479.1854999999998 137.42700000000013L487.22600000000057 137.75080000000003L493.2669999999996 138.85005000000035L497.5520000000006 143.56719999999996L501.7840000000001 144.27295000000015L501.97 143.01015000000007L503.6680000000001 131.1501000000004L508.41350000000034 124.66994999999997L515.7190000000003 121.55335000000036L514.6050000000002 115.55660000000046L517.2720000000004 113.30624999999998L517.9060000000004 109.72705000000019L526.4985000000001 108.96220000000028L527.5575000000003 107.06250000000011L527.2075000000007 91.99040000000025L525.1409999999998 88.93040000000042L525.4105000000004 83.62030000000004L524.2904999999996 78.08625000000006L518.7855000000002 70.30430000000024L513.6770000000001 67.35860000000002L517.233 63.99325000000033L513.7905000000001 53.732200000000034L520.3235000000006 50.20755000000008L523.8319999999999 51.72110000000032L525.3575000000001 57.53444999999999L528.6919999999998 59.793000000000234L529.8400000000004 58.3030500000001L531.4345000000003 59.30180000000007L529.6019999999999 51.40345000000025L531.2819999999999 45.715450000000146L529.6850000000006 41.91495000000032L526.5279999999996 39.346250000000396L525.2665000000002 39.12975000000017L521.318 38.019649999999956L513.9070000000004 33.27730000000031L517.3255000000006 31.166750000000434L513.5429999999997 23.699250000000234L512.2164999999995 19.85970000000009L506.23199999999997 18.79175000000032L503.53200000000015 15.480000000000018L493.50450000000023 20.377900000000295L491.73400000000015 20.131700000000023L481.0755000000006 21.080650000000105L475.1355000000001 20.145600000000172L471.7515000000003 30.386850000000436L476.0145 38.26760000000036L475.63150000000064 42.10565000000031L478.07750000000055 44.95225000000005L476.41200000000026 46.07345000000009L477.39850000000047 55.85005000000024L466.88999999999965 54.85375000000033z">
      <title id="t99">Quatrième circonscription du Doubs</title>
      <desc id="d99">Cantons de : Audicourt, Etupes, Hérimoncourt, Pont-de-Roide, Sochaux-Grand-Charmont, Valentigney</desc>
    </path><path class="circo" id="id-025-05" d="M133.34500000000048 318.9837L127.46549999999957 320.7658500000002L122.3440000000005 318.2155499999999L124.40900000000056 323.50505L123.96399999999971 325.47844999999995L121.96450000000027 325.7567499999999L114.92700000000013 332.0268500000003L112.47150000000033 341.0428999999999L112.67699999999991 341.3877500000001L113.93249999999966 345.25570000000016L111.39499999999998 359.6448000000004L108.23099999999954 365.0735500000002L104.60900000000038 367.20590000000016L104.71649999999954 370.32010000000014L105.10400000000004 373.75294999999994L108.2974999999999 375.14655000000005L114.69600000000014 375.65675L114.83349999999973 377.8009000000003L114.78349999999978 378.2475500000004L117.4980000000005 380.00035000000025L117.27899999999977 383.44340000000045L119.45550000000026 386.12325L109.57549999999969 395.45090000000016L113.37600000000066 396.1045999999999L126.86450000000036 404.7871500000002L121.19249999999965 412.57885000000044L120.3735000000006 420.5254500000001L127.77649999999994 427.62744999999995L131.6300000000001 428.39120000000037L132.24649999999997 442.3099000000002L135.81099999999992 444.45224999999994L140.85950000000025 441.52030000000025L141.75899999999956 443.40345000000013L140.28900000000021 450.3035500000004L138.53450000000066 452.68340000000023L137.91849999999954 454.63054999999997L147.54500000000007 457.4544500000002L148.06100000000015 459.4287000000003L154.81499999999983 451.6218500000002L158.6570000000006 452.4603000000002L163.64900000000034 455.8760000000001L165.6815000000006 461.29160000000013L167.6890000000003 461.48795000000007L171.6949999999997 459.94380000000035L172.90750000000003 459.6387000000004L176.20750000000044 465.2786000000003L192.74900000000002 475.6487000000004L191.29999999999995 477.84605L193.3510000000001 478.32550000000026L197.6374999999996 485.3860000000003L205.75450000000046 491.3139000000001L211.20049999999992 500.21005L214.46300000000065 504.7329000000002L215.8420000000001 508.66945000000044L206.10250000000065 515.9332L204.63150000000041 524.1127L197.8200000000004 528.5269L194.02900000000045 530.2687500000002L186.4779999999996 535.0120000000004L183.76700000000028 537.6412500000004L183.56149999999957 537.7727000000004L176.0545000000002 545.0047000000001L172.0754999999997 547.5166999999999L164.65000000000032 552.2172L158.31050000000005 557.5075500000003L171.93399999999997 579.2344500000002L170.2049999999997 584.9012500000003L162.7845000000002 589.1112500000003L153.1860000000006 596.3439500000004L154.55400000000054 603.3783500000004L150.89450000000056 603.7322499999999L148.6869999999999 606.9414L165.0565000000006 622.51125L183.76150000000052 640.4256500000002L186.74300000000017 637.8990000000005L176.0514999999998 627.1066999999999L176.19800000000055 624.9395000000004L186.57550000000015 613.9606000000003L196.58900000000017 605.7158000000004L202.48050000000035 603.0702500000001L218.48500000000058 586.5758L237.38950000000045 568.5260500000004L241.8629999999996 564.2069500000002L243.00700000000006 560.2180500000003L254.79100000000017 553.2222999999999L273.67700000000013 543.1229500000001L279.9625000000003 537.5024000000002L281.1500000000001 535.4968000000002L283.27300000000037 536.0064500000004L287.11400000000026 530.9631999999999L292.92299999999955 528.3799500000003L296.0075000000006 520.3745500000002L308.28300000000013 516.0039499999999L313.4055000000001 512.0056L319.64849999999956 503.16910000000007L322.38050000000044 494.87090000000023L315.76900000000023 489.1708500000004L312.70899999999983 486.2950000000001L311.2250000000006 480.1246000000003L314.9675000000002 477.83675000000017L315.85450000000037 469.1148000000004L323.4490000000005 455.72870000000023L324.11100000000033 449.14805L325.48 431.90515000000005L318.21450000000027 418.7256500000001L312.08150000000046 408.32415000000026L317.0690000000002 404.8463000000004L328.87050000000045 390.24445000000014L336.87400000000025 381.6640000000001L339.1425000000004 379.45160000000044L343.08400000000006 384.4716500000004L367.0934999999997 376.2597500000004L376.34950000000003 371.09890000000007L381.4089999999999 368.0333999999999L387.8150000000005 368.9842500000003L397.4649999999997 364.26154999999994L406.08349999999973 349.4249500000001L416.1744999999996 341.41520000000014L424.68200000000024 339.4533000000001L432.34249999999975 331.55655000000024L423.9994999999999 321.8965000000003L430.18699999999967 310.3417999999999L444.0715 304.91784999999993L442.7875000000006 296.6014000000001L444.31100000000015 294.9965500000002L452.8454999999997 288.62075000000004L468.9665000000002 282.59479999999996L475.47900000000027 277.57180000000005L479.3074999999999 273.40480000000014L463.0529999999999 258.1400000000002L460.15499999999975 253.77985000000024L448.2330000000002 230.9299500000003L451.2895000000003 228.83135000000038L448.67700000000013 224.0480500000001L446.8145000000004 218.51050000000043L447.73450000000025 216.77729999999997L441.79250000000025 217.55470000000003L439.9014999999997 221.15985000000023L434.0395000000001 220.97275000000025L432.19349999999963 221.7256500000002L432.7385000000004 225.68825000000004L428.8080000000002 225.1025500000003L427.28650000000016 221.68620000000033L425.40050000000065 221.61425000000008L422.43100000000027 221.50845000000004L421.74600000000055 223.52930000000015L413.63450000000057 225.9135500000002L409.2484999999999 230.55330000000026L405.14999999999986 231.65385000000015L405.18850000000043 230.44880000000035L409.08750000000055 228.68494999999996L411.35200000000054 225.05685000000028L409.62800000000016 219.18960000000027L408.58550000000037 212.90189999999996L404.8320000000001 211.0006500000003L398.80750000000035 212.48745000000042L397.7494999999999 208.6979500000001L391.798 209.81175000000007L385.12399999999957 213.95669999999996L382.1424999999999 212.8612000000004L380.93200000000024 207.07320000000038L384.8580000000004 202.7439000000004L380.68399999999997 202.24289999999996L381.0379999999998 195.93195000000037L375.9285 192.58340000000032L371.7100000000005 191.92255000000046L351.1095 197.56349999999998L351.98600000000056 190.64335000000028L352.5490000000002 186.35514999999998L343.12599999999975 188.28225000000032L338.31800000000044 185.2568500000001L330.16849999999977 188.83669999999995L318.37150000000065 193.91130000000032L316.43699999999967 193.75345000000038L311.03899999999953 192.62535000000014L301.92350000000033 196.67100000000005L300.3645000000006 204.39700000000016L281.47100000000023 196.70545000000004L278.19650000000024 199.10540000000026L277.02350000000024 203.95305000000008L274.70800000000054 207.49955L268.5145 207.12390000000028L267.6165000000003 206.00815000000011L264.24300000000017 211.4733000000001L267.1220000000005 214.1614000000004L266.87850000000026 216.21020000000044L261.34149999999977 222.2138000000001L262.25850000000037 226.2333000000001L265.80600000000004 227.28520000000003L266.72699999999963 231.18085000000008L260.18800000000056 238.9151000000004L250.942 236.81390000000022L244.65900000000033 236.9684000000001L232.4350000000004 245.94150000000013L232.29199999999992 247.09090000000003L224.96700000000033 254.255L225.26950000000056 260.19360000000006L219.13649999999961 260.5111500000004L227.9460000000006 271.92695000000015L236.08450000000062 272.75239999999997L239.4799999999998 282.5760500000001L241.91100000000006 287.85000000000025L238.21800000000053 292.6434499999999L242.96100000000024 301.67395L246.93399999999997 303.0993000000001L247.84200000000055 305.01090000000033L246.35549999999967 306.5178500000002L249.74450000000047 309.9779000000001L247.57200000000012 311.38915L247.7260000000001 316.87884999999994L245.6230000000005 321.77295000000015L249.89450000000033 321.6250500000001L251.43249999999966 323.1905499999999L256.4020000000005 322.4206000000004L249.07050000000027 326.76305000000013L246.25350000000026 329.96770000000026L246.49 332.0911000000001L251.82950000000005 335.47304999999994L255.65399999999954 342.7870999999999L262.46399999999994 337.7407500000004L254.0300000000002 346.39925000000005L254.91300000000024 352.09945000000005L251.29249999999956 353.37424999999996L245.68750000000023 347.8208000000001L238.5775000000001 355.23810000000026L237.49850000000038 357.23209999999995L233.73050000000035 354.2345L219.3164999999999 357.7033L208.28449999999975 362.34775000000013L203.89850000000024 363.9562000000001L203.4159999999997 361.88660000000027L206.49700000000053 356.6873000000004L204.8109999999997 352.80575L202.7279999999996 352.38995000000045L200.52350000000047 347.03145000000006L194.98649999999998 346.98905000000025L182.7150000000006 329.14555000000007L181.1519999999996 328.13365000000033L179.87150000000042 329.48800000000006L180.26749999999993 326.5584000000001L169.33599999999956 321.36484999999993L169.70199999999977 317.1677500000004L172.9634999999996 315.90779999999995L165.10700000000043 303.4732500000001L168.72299999999996 301.9162L167.06000000000017 300.56820000000016L160.86000000000013 301.9399000000004L159.0020000000004 302.99815000000024L155.2195000000006 308.0023L153.12199999999962 307.5834500000002L151.32650000000012 303.6998500000004L145.15049999999974 302.8757999999999L143.8130000000001 301.2044500000002L142.0410000000004 302.08664999999996L143.12250000000063 305.75625L138.2860000000005 311.5708000000001L137.96249999999986 313.72344999999996L134.30950000000053 315.73680000000024L133.34500000000048 318.9837z">
      <title id="t100">Cinquième circonscription du Doubs</title>
      <desc id="d100">Cantons de : Amancey, Levier, Montbenoît, Morteau, Mouthe, Pierrefontaine-les-Varans, Pontarlier, Le Russey, Vercel-Villedieu-le-Camp</desc>
    </path></svg>