<svg xmlns="http://www.w3.org/2000/svg" version="1.1" xmlns:xlink="http://www.w3.org/1999/xlink" xmlns:svgjs="http://svgjs.dev/svgjs" width="502.8404999999998" height="734.8437999999999" fill="#eeeeee" stroke="#cccccc" xmlns:sodipodi="http://sodipodi.sourceforge.net/DTD/sodipodi-0.dtd"><path class="circo" id="id-026-01" d="M127.20450000000028 175.82960000000014L125.0464999999997 167.81585000000007L121.86249999999973 165.4827499999999L123.11749999999961 152.38355000000013L116.72500000000014 148.99519999999995L113.48700000000008 149.47985000000017L109.11550000000034 142.2645L113.01950000000033 141.75684999999987L113.1955000000005 137.83929999999998L110.57250000000067 120.56474999999978L105.41500000000042 117.98200000000008L93.51700000000051 124.97475000000009L90.30750000000012 123.00509999999974L88.87100000000032 122.20070000000021L87.93250000000057 118.17304999999976L83.0619999999999 114.30279999999982L77.29950000000031 113.40840000000014L77.24050000000034 114.54689999999971L66.85200000000009 128.39015000000018L66.72500000000014 129.68414999999993L66.8119999999999 133.6899999999997L71.38050000000021 140.32055000000014L75.73150000000055 144.8195499999997L77.67500000000041 148.4219999999999L78.04250000000025 156.84000000000026L76.91800000000057 160.1318500000002L77.48699999999985 163.56539999999995L80.3245000000004 166.31984999999986L87.87249999999972 169.00604999999985L90.91400000000021 174.0469999999999L88.08999999999969 179.5666L82.92450000000031 184.58610000000022L82.05299999999966 190.03064999999992L83.8435000000004 193.32775000000026L84.39500000000066 195.38234999999986L80.69749999999999 202.86490000000015L83.15600000000018 206.18719999999996L87.14050000000043 211.15234999999984L87.4369999999999 219.6775500000001L87.65700000000038 220.65695000000005L90.80500000000029 228.07875000000024L96.66450000000054 233.5951L99.67750000000024 240.65980000000025L101.89750000000004 245.43389999999988L95.30799999999999 257.69475L94.26649999999995 261.66949999999986L89.56649999999968 265.69844999999987L88.18449999999984 269.51869999999985L98.24749999999995 271.1835500000001L100.00099999999975 274.88324999999975L112.03899999999976 273.6012499999998L114.49399999999969 270.0568499999997L119.5984999999996 266.98789999999974L123.40550000000007 267.4547000000001L121.90799999999967 259.10034999999993L123.62449999999967 255.1967000000002L127.64149999999972 250.9006499999998L127.69250000000056 246.84660000000008L130.04500000000007 243.67650000000026L139.837 244.35915000000023L139.90350000000035 235.41004999999984L138.18700000000035 231.8184500000001L135.0260000000003 232.09654999999998L142.90300000000002 223.69214999999997L141.31899999999973 216.08675000000005L137.63400000000047 214.60370000000012L134.5900000000006 212.0592499999998L130.5740000000003 212.60854999999992L126.52550000000019 217.10345000000018L118.87699999999995 217.7920499999999L112.32300000000009 212.69085000000018L102.83999999999992 220.80714999999998L90.95199999999977 216.75734999999975L94.8395000000005 210.41434999999979L100.1864999999998 208.12745000000007L101.89449999999965 204.35744999999997L109.92700000000013 203.06204999999977L112.92550000000006 197.78009999999995L118.91849999999977 198.9927499999999L126.04600000000005 195.08530000000007L126.55949999999962 193.07819999999992L122.83400000000029 191.37765000000002L121.67149999999992 187.69304999999974L128.89599999999973 183.90645000000006L134.47549999999978 182.5115999999997L146.8775000000005 187.86690000000021L148.0060000000003 171.14334999999983L141.20200000000068 171.3015999999999L128.67399999999975 175.58955000000026L127.20450000000028 175.82960000000014z">
      <title id="t101">Première circonscription de la Drôme</title>
      <desc id="d101">Cantons de : Bourg-lès-Valence, Tain-l'Hermitage, Valence I, Valence II, Valence III, Valence IV</desc>
    </path><path class="circo" id="id-026-02" d="M85.82650000000058 368.09770000000015L87.02300000000037 360.30205000000024L85.8439999999996 354.4701500000002L86.80799999999977 352.74099999999976L94.43499999999972 351.86474999999973L97.94399999999996 352.2771499999999L103.00399999999968 334.26060000000007L103.69249999999965 325.9116499999999L103.65000000000009 325.6624499999998L105.67099999999982 325.92179999999985L110.7630000000006 320.0835000000001L122.33849999999961 316.1951499999998L126.27650000000017 316.9932499999999L127.72400000000061 312.3561000000001L124.74699999999984 307.44145000000003L122.81200000000013 307.57209999999986L124.90350000000035 304.1151000000002L130.5295000000001 301.98665000000005L133.27750000000037 298.97265000000004L139.14650000000051 294.50339999999983L140.0470000000007 290.7728500000002L140.34999999999968 281.2209999999999L137.15149999999994 279.50379999999996L135.0400000000002 279.3268999999998L123.40550000000007 267.4547000000001L119.5984999999996 266.98789999999974L114.49399999999969 270.0568499999997L112.03899999999976 273.6012499999998L100.00099999999975 274.88324999999975L98.24749999999995 271.1835500000001L88.18449999999984 269.51869999999985L91.14100000000008 280.4958499999998L89.22149999999988 285.69500000000005L86.34000000000015 288.54885000000024L83.77349999999979 294.0453500000001L83.84700000000066 300.1368000000002L80.88399999999979 302.62620000000027L75.00549999999976 303.7200999999999L73.7155000000007 309.29269999999974L74.22750000000065 316.9674500000002L68.65850000000023 318.5275999999999L65.21600000000035 319.9972500000001L65.51699999999983 323.7970999999999L63.91950000000065 324.99574999999993L63.19849999999974 330.9505999999999L58.14600000000041 336.91880000000026L50.87350000000015 340.0977499999999L48.848500000000286 343.19075L48.53749999999991 344.6174000000002L52.05699999999979 351.58045000000016L47.88599999999974 358.2290999999998L49.86350000000016 368.0642L49.8070000000007 369.8679499999997L49.88900000000058 378.24040000000025L53.18200000000047 383.64075000000014L57.271500000000515 399.87315000000024L57.53500000000031 403.65229999999997L55.21000000000072 408.79830000000027L56.20200000000068 414.30319999999995L53.57899999999972 421.5120999999999L47.283499999999776 428.6155500000001L44.876500000000306 435.66565000000026L39.76750000000038 445.54084999999986L41.381000000000085 446.43624999999986L40.09199999999964 453.6689000000001L36.5625 455.39120000000025L27.215499999999793 457.7118999999999L25.316500000000133 461.1041L24.601000000000113 468.7381499999998L20.783999999999878 469.00480000000016L19.38449999999989 478.8782500000002L23.85850000000005 485.0905499999999L25.394999999999754 486.29970000000014L23.924500000000535 491.9688000000002L19.66250000000059 496.6534999999999L17.44450000000029 504.8595499999999L18.09600000000046 511.1666500000001L22.398000000000593 518.4739999999999L22.769000000000688 524.8430000000002L20.5925000000002 538.8914L18.041500000000497 542.0363500000002L12.385000000000446 544.30545L8.614499999999907 548.3468499999998L6.89200000000028 561.9669499999998L7.453000000000429 566.7730499999999L0.9465000000000146 582.1593000000001L0 596.8952999999999L1.169999999999618 605.2452999999997L1.6055000000005748 607.8757999999999L14.04549999999972 613.2902999999999L28.127000000000635 613.3157999999997L28.213000000000648 611.3218L31.802000000000135 609.7852999999998L31.23299999999972 605.7767999999999L34.8070000000007 598.5942999999997L34.587999999999965 584.4438000000002L43.94149999999968 588.0072999999999L46.46449999999959 584.8788000000002L52.327000000000226 584.6512999999999L55.747499999999945 582.4748L60.25200000000041 569.6292999999997L63.119500000000244 566.9788999999997L60.730499999999665 564.29485L61.453500000000076 562.5434000000001L53.43349999999987 557.8515499999997L52.24900000000048 557.0905499999998L53.229499999999916 544.5310499999999L47.06900000000019 533.5431499999999L54.83500000000049 526.51115L59.641000000000304 529.2850499999997L64.63550000000055 526.7767500000002L69.68650000000025 523.9163000000002L81.98750000000018 522.8769499999999L83.06150000000002 517.6085L81.79250000000025 512.3862500000001L82.56700000000023 509.8827L98.42650000000049 512.32845L100.1845000000003 507.2037499999999L107.51550000000066 505.4322000000002L108.52750000000015 503.8196499999998L112.13399999999979 508.1732499999998L117.25099999999998 510.37424999999985L124.46750000000065 504.11225L123.22949999999992 500.5025499999999L122.37950000000069 492.3926499999999L118.35500000000025 482.9845499999999L113.21900000000028 479.83600000000024L101.1385000000007 478.0946499999999L103.17750000000046 470.92494999999985L106.50200000000041 469.1306500000002L115.53750000000036 466.2982499999998L117.28450000000066 452.7737000000002L120.63449999999989 450.70569999999975L122.44750000000067 451.4762000000002L122.61750000000006 461.38395L123.80499999999984 462.9716000000002L125.51649999999995 461.9656500000002L138.50950000000012 457.33479999999986L136.8674999999996 450.35595L142.95950000000062 449.86895000000004L146.4575000000002 442.61995000000013L141.4390000000003 441.2731500000001L139.0504999999996 443.7774999999999L130.51450000000045 444.50514999999996L130.71649999999977 438.4778499999999L128.21950000000015 433.0335500000001L131.48900000000026 425.41315L138.9364999999998 418.01985L134.25200000000018 411.8977000000001L124.53100000000063 413.84135000000015L120.20650000000046 407.11670000000026L109.47149999999965 401.88739999999996L109.47800000000029 401.6184499999997L103.87100000000032 402.7857L101.79949999999963 397.8809000000001L98.30749999999966 399.4391999999999L97.69700000000057 389.2118499999998L95.00900000000001 383.7310500000001L96.58300000000054 378.01615000000027L91.04900000000043 375.4986500000001L90.82250000000045 370.0527999999997L85.82650000000058 368.09770000000015z">
      <title id="t102">Deuxième circonscription de la Drôme</title>
      <desc id="d102">Cantons de : Loriol-sur-Drôme (moins la commune d'Ambonil), Marsanne, Montélimar I, Montélimar II, Pierrelatte, Portes-lès-Valence</desc>
    </path><path class="circo" id="id-026-03" d="M213.95800000000008 636.2187999999998L212.77000000000044 643.8833L218.3260000000007 645.9913L218.75800000000027 657.8757999999999L214.62099999999964 662.1967999999998L213.8530000000003 664.0183000000002L221.46349999999984 669.9097999999998L224.73299999999995 672.5423000000001L238.83000000000038 676.3628L251.3149999999996 677.0683000000002L252.29100000000017 666.6343L255.72900000000004 666.4603L259.11749999999984 667.0918L269.38549999999964 673.1768L279.00350000000003 681.7173000000003L279.1420000000005 679.6978000000001L285.25049999999965 679.7008L292.78599999999983 682.3588000000001L301.3135 676.8513000000002L310.1875000000007 681.8707999999998L313.528 684.2083000000002L312.95799999999986 685.4667999999998L312.1474999999998 689.4303000000002L314.4290000000001 697.2008000000005L312.9804999999999 711.4133000000004L318.80700000000047 713.1587999999999L326.8330000000003 711.7882999999995L331.8145000000004 715.0453000000005L335.2999999999997 713.2118000000003L336.41050000000064 721.1717999999996L340.3215 722.3868000000004L341.1469999999997 729.8823000000004L343.35800000000063 732.7662999999995L362.0889999999997 734.8437999999999L365.84100000000035 733.6352999999997L367.31750000000034 729.9667999999997L380.5169999999998 724.4557999999995L384.41400000000044 714.9928L384.4214999999997 714.7528L392.5350000000003 715.3638000000001L397.1100000000001 711.4913000000001L396.93200000000047 709.4528000000003L389.96399999999994 702.1608000000003L394.8270000000002 693.0978000000005L396.47950000000037 691.8388000000004L402.6660000000004 692.3248000000001L405.97800000000007 689.9518L409.0695000000005 690.4228L412.3115000000007 697.5868000000003L417.75949999999966 700.2712999999994L421.59400000000005 704.8987999999997L418.33849999999984 714.2007999999998L424.307 715.3662999999995L438.51350000000025 716.8547999999998L440.2660000000003 706.5548000000001L424.58399999999983 704.2088000000001L423.7620000000004 702.3833000000002L427.03300000000013 691.0928000000001L436.2144999999998 691.4088000000004L437.42200000000025 689.9928L441.3295000000005 688.6577999999997L441.6235000000006 686.5857999999997L437.71349999999984 676.9643000000002L439.58799999999997 666.7138L435.9800000000007 657.8287999999998L436.66349999999966 651.7818L441.93399999999997 645.7243L437.24050000000034 639.8973000000001L424.9879999999996 645.1177999999999L424.4889999999998 641.0807999999997L418.96600000000035 635.2602999999999L419.126 631.2497999999999L422.19600000000014 629.3207999999998L419.4704999999999 625.0578000000002L415.8699999999999 624.0228000000002L411.92999999999984 620.0083000000001L408.6405000000002 621.9472999999999L410.72250000000054 616.2128000000001L417.94449999999983 609.0377999999998L418.374 607.0348000000001L415.22100000000023 604.6602999999999L411.8005000000005 606.3337999999999L400.08500000000026 606.4657999999997L399.54900000000066 606.5492999999998L392.9105000000004 605.6948L389.0700000000004 605.0508000000002L383.4850000000006 607.4108000000001L379.59550000000036 606.3218L378.29150000000027 600.5802999999997L371.5300000000002 596.3328000000001L363.99549999999977 599.2818L359.6055000000001 603.5208L353.49649999999997 595.2562999999998L349.3674999999996 595.0727999999998L346.7859999999996 585.6288000000001L338.77050000000054 585.3253000000001L334.95900000000006 584.5112999999998L333.41800000000035 580.8163000000002L338.21800000000053 577.2863000000001L337.82699999999977 571.0933L334.0600000000006 559.20635L327.9219999999998 551.4070500000003L336.50100000000066 546.1779999999999L351.01099999999974 553.6898500000001L354.7434999999996 552.53715L356.6730000000007 548.9105000000001L359.8905000000002 549.3550499999998L361.6899999999998 544.4697500000001L360.6875000000002 543.0548499999998L349.2240000000004 538.5329999999999L347.2339999999997 535.1673999999997L345.69600000000037 525.3212500000001L348.5035000000005 522.3838000000001L345.7535000000007 514.8669999999998L345.1400000000001 513.4473500000001L344.6870000000001 507.7072499999997L350.2139999999997 506.6084999999998L351.9470000000001 510.0281000000001L355.4359999999997 511.8393500000002L367.2919999999999 511.6683499999999L383.7334999999996 518.5818499999999L388.288 521.9168500000001L390.09700000000066 521.3533999999999L391.97250000000054 520.5617999999998L406.6515000000004 527.1596999999997L412.6470000000006 521.7203000000001L416.29549999999995 507.9336999999998L419.21100000000024 505.35829999999976L426.88499999999976 507.01189999999997L432.52050000000054 505.4793000000001L424.7945000000004 494.6429499999999L416.8584999999996 486.12919999999974L411.47500000000036 487.0718499999998L403.9364999999998 480.81219999999973L407.8640000000007 466.8667499999998L408.1434999999999 465.85500000000025L411.0125000000005 463.78480000000025L412.9390000000001 456.5393499999999L416.2914999999998 454.95254999999986L416.78350000000023 449.9698000000001L420.8434999999997 441.46479999999997L424.6950000000004 441.04570000000024L426.12750000000005 435.39874999999995L423.3140000000003 432.48535000000004L422.06050000000005 426.50435000000016L422.83500000000004 416.46299999999997L427.0155 413.99369999999976L430.3110000000004 416.48390000000006L440.5920000000003 417.1231499999999L458.4465 423.03229999999985L468.4979999999996 416.4671499999997L470.4589999999996 410.8197999999999L477.8335000000004 414.55595000000017L486.12100000000055 415.13964999999985L490.53999999999974 402.2746999999998L495.75050000000033 399.24075000000016L502.8404999999998 392.46185000000025L500.9280000000001 386.64075000000025L495.49499999999966 384.2321499999997L490.7325000000003 383.1731000000002L479.3330000000003 388.12365L471.1149999999998 389.0414499999997L463.0600000000004 379.6512999999999L455.2279999999996 378.03285000000017L449.33200000000056 369.7034000000002L445.85699999999974 373.97100000000023L434.00750000000016 372.46775000000014L430.88550000000055 374.44709999999986L425.1245000000006 372.81409999999994L423.7964999999997 368.34000000000003L420.2629999999999 367.2026999999997L417.4585000000002 360.4307L416.2895000000003 355.3462999999999L414.61700000000064 354.9022500000001L408.3770000000004 353.81055000000003L399.2165 348.8605000000001L397.4750000000006 340.63300000000027L383.17549999999983 331.5093999999999L382.09100000000035 334.6193499999998L385.5015000000003 342.3998499999999L383.36149999999975 344.9347L354.9660000000006 335.4140000000001L353.2574999999997 332.2849500000001L347.3554999999999 331.04224999999985L345.6995000000006 327.41390000000024L352.00050000000033 322.6152000000002L356.1295000000007 313.5599000000002L347.2165000000007 311.8167999999997L351.9444999999996 286.6940999999997L350.0464999999997 280.5786499999999L354.3115 268.52750000000015L355.61900000000037 253.62169999999992L353.116 227.3518999999999L357.65750000000025 213.59050000000025L359.6545000000003 210.13485000000003L354.28949999999986 199.51459999999997L355.63800000000015 193.6806999999999L352.5815 191.2874499999998L353.13949999999977 187.27449999999976L347.826 181.19669999999985L348.37350000000015 174.88985000000014L352.3090000000002 165.10485000000017L356.04600000000005 163.44985000000008L360.1374999999996 164.27315000000021L356.8190000000004 158.78960000000006L351.4340000000004 155.41515000000004L347.2825 155.0894999999997L344.5360000000005 158.25755000000015L340.42400000000043 164.20155000000022L335.39300000000026 173.17880000000002L329.8244999999997 175.45119999999997L325.3295000000003 179.7404499999999L319.24150000000054 180.3239000000002L313.90499999999975 174.25515000000019L313.64850000000047 177.93754999999976L318.94250000000056 184.32984999999974L313.3434999999997 185.74689999999975L307.26650000000063 180.9525000000002L299.846 179.1424999999998L296.46799999999985 177.59464999999977L294.85149999999976 170.1595500000002L291.7764999999997 171.3040000000001L286.5600000000006 174.2009999999999L286.30700000000047 176.19354999999985L280.0660000000005 174.0752500000002L279.30349999999976 170.7792999999998L274.04049999999984 168.9561500000002L273.2815000000005 170.7389999999998L267.6935000000003 171.3846000000001L266.8439999999998 173.12644999999975L264.4085000000007 174.62814999999978L263.2925 173.6041499999999L262.7970000000005 171.66560000000004L254.8795000000007 170.85874999999987L254.01950000000056 167.09974999999986L248.58550000000037 164.57645000000014L246.7859999999996 160.93655000000012L245.94450000000052 162.81555000000026L250.19700000000057 167.19179999999994L250.8114999999998 177.40335000000016L249.47549999999978 181.29354999999975L247.9804999999999 185.27654999999982L244.48399999999992 206.75400000000025L246.54049999999984 207.30999999999995L245.36100000000033 214.7365000000002L243.66250000000036 218.54735000000005L238.89350000000036 224.7609L232.27250000000026 245.53774999999973L227.8245000000004 256.5465999999998L218.15850000000069 256.3719500000002L213.28849999999989 261.9089500000001L195.9280000000001 252.9680000000002L192.64850000000024 255.32395000000008L187.0410000000004 253.85580000000004L179.26649999999995 251.7584499999998L173.12450000000013 241.35035000000016L172.9245000000003 235.33619999999985L169.38750000000027 233.26954999999998L168.92749999999978 231.25085000000013L166.9150000000002 230.67904999999996L166.03600000000029 232.58244999999988L150.1954999999998 227.47439999999983L144.37099999999987 232.8989999999999L138.18700000000035 231.8184500000001L139.90350000000035 235.41004999999984L139.837 244.35915000000023L130.04500000000007 243.67650000000026L127.69250000000056 246.84660000000008L127.64149999999972 250.9006499999998L123.62449999999967 255.1967000000002L121.90799999999967 259.10034999999993L123.40550000000007 267.4547000000001L135.0400000000002 279.3268999999998L137.15149999999994 279.50379999999996L140.34999999999968 281.2209999999999L140.0470000000007 290.7728500000002L139.14650000000051 294.50339999999983L133.27750000000037 298.97265000000004L130.5295000000001 301.98665000000005L124.90350000000035 304.1151000000002L122.81200000000013 307.57209999999986L124.74699999999984 307.44145000000003L127.72400000000061 312.3561000000001L126.27650000000017 316.9932499999999L122.33849999999961 316.1951499999998L110.7630000000006 320.0835000000001L105.67099999999982 325.92179999999985L103.65000000000009 325.6624499999998L103.69249999999965 325.9116499999999L103.00399999999968 334.26060000000007L97.94399999999996 352.2771499999999L94.43499999999972 351.86474999999973L86.80799999999977 352.74099999999976L85.8439999999996 354.4701500000002L87.02300000000037 360.30205000000024L85.82650000000058 368.09770000000015L90.82250000000045 370.0527999999997L91.04900000000043 375.4986500000001L96.58300000000054 378.01615000000027L95.00900000000001 383.7310500000001L97.69700000000057 389.2118499999998L98.30749999999966 399.4391999999999L101.79949999999963 397.8809000000001L103.87100000000032 402.7857L109.47800000000029 401.6184499999997L109.47149999999965 401.88739999999996L120.20650000000046 407.11670000000026L124.53100000000063 413.84135000000015L134.25200000000018 411.8977000000001L138.9364999999998 418.01985L131.48900000000026 425.41315L128.21950000000015 433.0335500000001L130.71649999999977 438.4778499999999L130.51450000000045 444.50514999999996L139.0504999999996 443.7774999999999L141.4390000000003 441.2731500000001L146.4575000000002 442.61995000000013L142.95950000000062 449.86895000000004L136.8674999999996 450.35595L138.50950000000012 457.33479999999986L125.51649999999995 461.9656500000002L123.80499999999984 462.9716000000002L122.61750000000006 461.38395L122.44750000000067 451.4762000000002L120.63449999999989 450.70569999999975L117.28450000000066 452.7737000000002L115.53750000000036 466.2982499999998L106.50200000000041 469.1306500000002L103.17750000000046 470.92494999999985L101.1385000000007 478.0946499999999L113.21900000000028 479.83600000000024L118.35500000000025 482.9845499999999L122.37950000000069 492.3926499999999L123.22949999999992 500.5025499999999L124.46750000000065 504.11225L117.25099999999998 510.37424999999985L112.13399999999979 508.1732499999998L108.52750000000015 503.8196499999998L107.51550000000066 505.4322000000002L100.1845000000003 507.2037499999999L98.42650000000049 512.32845L82.56700000000023 509.8827L81.79250000000025 512.3862500000001L83.06150000000002 517.6085L81.98750000000018 522.8769499999999L69.68650000000025 523.9163000000002L64.63550000000055 526.7767500000002L59.641000000000304 529.2850499999997L54.83500000000049 526.51115L47.06900000000019 533.5431499999999L53.229499999999916 544.5310499999999L52.24900000000048 557.0905499999998L53.43349999999987 557.8515499999997L61.453500000000076 562.5434000000001L60.730499999999665 564.29485L63.119500000000244 566.9788999999997L60.25200000000041 569.6292999999997L55.747499999999945 582.4748L52.327000000000226 584.6512999999999L46.46449999999959 584.8788000000002L43.94149999999968 588.0072999999999L34.587999999999965 584.4438000000002L34.8070000000007 598.5942999999997L31.23299999999972 605.7767999999999L31.802000000000135 609.7852999999998L49.368500000000495 610.6713000000002L53.17000000000007 615.1537999999999L56.990500000000566 615.2132999999998L63.35350000000062 622.5457999999998L67.03550000000064 623.2657999999998L66.99950000000058 638.8697999999999L66.79550000000063 643.8623000000001L70.41400000000067 650.5018000000001L70.25600000000054 659.9698000000001L70.8114999999998 665.6867999999997L75.86649999999963 668.0462999999997L89.36149999999998 657.6373000000001L99.20299999999997 648.2763L108.14250000000015 646.7867999999999L106.3390000000004 650.2643L121.58450000000016 648.0488000000003L125.80150000000003 643.9578L138.06550000000016 637.7958000000001L145.58850000000007 634.0733L144.5169999999996 629.8683L141.58450000000016 627.2138000000001L116.87800000000038 620.3557999999998L103.11900000000037 623.1932999999998L103.65599999999972 617.4302999999998L100.04050000000007 610.5563000000001L105.61149999999998 602.9703000000001L98.71849999999995 598.6257999999998L94.64600000000019 598.8018L104.58399999999983 587.0618000000002L104.75500000000011 585.2508L110.6084999999996 581.2328000000002L112.59599999999978 573.1522999999999L111.91599999999994 569.0283L115.4665 561.5136000000001L126.93750000000023 557.2523999999999L129.68150000000037 554.2176999999998L132.7909999999997 554.3753500000003L137.58050000000026 548.38615L139.51350000000048 548.6165L141.38199999999983 552.0504L145.25750000000016 552.3414000000002L152.73199999999974 559.1748000000001L158.0714999999998 556.6383000000002L157.6279999999997 561.8984999999998L155.83500000000072 562.9081000000002L158.01050000000032 570.5538000000001L164.02150000000006 571.5602999999999L170.3290000000004 576.7793L180.22400000000061 576.1223000000001L179.98500000000035 580.1533000000001L172.73649999999975 587.0253000000002L160.7490000000007 589.3378000000001L159.21600000000012 599.2268000000001L153.92600000000016 605.5228L155.76599999999985 610.3417999999999L148.94999999999982 614.6668L146.78549999999973 618.0833000000001L144.58100000000059 629.9038000000002L145.67549999999983 634.0318000000002L151.1519999999996 633.8398000000001L157.38749999999982 630.1868000000002L162.63599999999997 626.8308000000002L175.83899999999971 620.7458000000003L182.6170000000002 635.0292999999999L186.84950000000072 635.1202999999998L196.65700000000015 637.1298000000002L213.65049999999997 625.1753000000002L215.23699999999963 619.5337999999998L220.83500000000072 616.7563000000001L221.85699999999997 617.1913000000001L223.55199999999968 620.7038L222.39550000000008 626.3297999999998L220.45650000000023 631.7678000000001L213.95800000000008 636.2187999999998z">
      <title id="t103">Troisième circonscription de la Drôme</title>
      <desc id="d103">Cantons de: Bourdeaux, Buis-les-Baronnies, Chabeuil, La Chapelle-en-Vercors, Châtillon-en-Diois, Crest Nord, Crest Sud, Die, Dieulefit, Grignan, Luc-en-Diois, La Motte-Chalancon, Nyons, Rémuzat, Saillans, Saint-Jean-en-Royans, Saint-Paul-Trois-Châteaux, Séderon., Commune d'Ambonil</desc>
    </path><path class="circo" id="id-026-04" d="M166.9150000000002 230.67904999999996L166.03600000000029 232.58244999999988L150.1954999999998 227.47439999999983L144.37099999999987 232.8989999999999L138.18700000000035 231.8184500000001L135.0260000000003 232.09654999999998L142.90300000000002 223.69214999999997L141.31899999999973 216.08675000000005L137.63400000000047 214.60370000000012L134.5900000000006 212.0592499999998L130.5740000000003 212.60854999999992L126.52550000000019 217.10345000000018L118.87699999999995 217.7920499999999L112.32300000000009 212.69085000000018L102.83999999999992 220.80714999999998L90.95199999999977 216.75734999999975L94.8395000000005 210.41434999999979L100.1864999999998 208.12745000000007L101.89449999999965 204.35744999999997L109.92700000000013 203.06204999999977L112.92550000000006 197.78009999999995L118.91849999999977 198.9927499999999L126.04600000000005 195.08530000000007L126.55949999999962 193.07819999999992L122.83400000000029 191.37765000000002L121.67149999999992 187.69304999999974L128.89599999999973 183.90645000000006L134.47549999999978 182.5115999999997L146.8775000000005 187.86690000000021L148.0060000000003 171.14334999999983L141.20200000000068 171.3015999999999L128.67399999999975 175.58955000000026L127.20450000000028 175.82960000000014L125.0464999999997 167.81585000000007L121.86249999999973 165.4827499999999L123.11749999999961 152.38355000000013L116.72500000000014 148.99519999999995L113.48700000000008 149.47985000000017L109.11550000000034 142.2645L113.01950000000033 141.75684999999987L113.1955000000005 137.83929999999998L110.57250000000067 120.56474999999978L105.41500000000042 117.98200000000008L93.51700000000051 124.97475000000009L90.30750000000012 123.00509999999974L88.87100000000032 122.20070000000021L87.93250000000057 118.17304999999976L83.0619999999999 114.30279999999982L77.29950000000031 113.40840000000014L75.33649999999966 110.3176000000002L70.12699999999995 107.90590000000009L69.44849999999974 102.07515000000001L70.06250000000023 96.75110000000018L67.58550000000014 91.93105000000003L67.59500000000003 88.4221500000001L70.28450000000021 83.96950000000004L66.45949999999971 71.70984999999973L65.79050000000052 59.20259999999985L68.85549999999967 51.442949999999996L69.3405000000007 46.83695L69.18149999999969 45.01140000000021L69.12900000000036 34.026400000000194L65.3060000000005 27.577650000000062L69.01100000000042 26.111799999999903L90.08649999999989 21.17664999999988L90.00900000000001 27.482800000000225L98.57799999999997 27.9692L108.8964999999996 20.429100000000062L119.57300000000032 12.84985000000006L128.06050000000027 9.3128999999999L132.13750000000005 8.831099999999878L140.85249999999974 3.64674999999977L145.91049999999996 0L154.2005000000006 1.0606000000001359L158.8734999999997 14.930350000000203L164.08599999999979 15.646600000000035L172.53749999999968 15.109299999999735L175.22100000000023 18.353700000000117L178.95150000000058 29.24525000000017L181.3650000000007 36.71994999999981L182.1505000000002 37.561999999999784L187.72500000000036 34.89145000000008L195.96149999999966 33.930349999999976L199.55350000000067 31.838900000000194L201.5224999999998 28.202400000000125L207.62950000000046 27.627200000000016L209.0854999999999 28.738950000000045L205.61800000000062 36.44814999999994L202.03250000000025 59.53885000000014L210.0554999999997 59.65295000000026L215.16849999999977 52.9789999999997L219.17900000000031 58.76615000000015L225.1305000000002 57.750199999999836L228.34249999999997 67.23995000000002L235.82899999999995 76.46039999999971L225.78499999999963 76.90384999999992L221.25149999999962 80.84344999999985L220.47199999999975 86.79365000000018L222.25450000000023 90.31414999999981L224.80800000000045 98.25015000000008L230.19250000000056 104.6017999999998L230.57750000000055 108.6901499999999L231.1620000000005 114.54270000000008L228.26999999999998 117.20399999999984L230.70249999999987 122.55260000000021L230.1170000000002 130.22629999999992L229.52850000000012 135.09824999999978L224.07600000000002 144.03914999999984L219.3304999999998 148.16554999999994L216.43100000000004 157.58095000000026L209.1560000000004 159.2476499999998L207.2810000000004 162.4652500000002L208.8925000000006 163.60995000000003L212.22350000000006 161.49929999999983L219.22249999999963 167.94640000000015L222.74999999999977 165.98405000000014L226.85749999999985 156.88150000000007L240.81649999999968 157.60744999999986L245.3729999999996 159.31390000000022L246.7859999999996 160.93655000000012L245.94450000000052 162.81555000000026L250.19700000000057 167.19179999999994L250.8114999999998 177.40335000000016L249.47549999999978 181.29354999999975L247.9804999999999 185.27654999999982L244.48399999999992 206.75400000000025L246.54049999999984 207.30999999999995L245.36100000000033 214.7365000000002L243.66250000000036 218.54735000000005L238.89350000000036 224.7609L232.27250000000026 245.53774999999973L227.8245000000004 256.5465999999998L218.15850000000069 256.3719500000002L213.28849999999989 261.9089500000001L195.9280000000001 252.9680000000002L192.64850000000024 255.32395000000008L187.0410000000004 253.85580000000004L179.26649999999995 251.7584499999998L173.12450000000013 241.35035000000016L172.9245000000003 235.33619999999985L169.38750000000027 233.26954999999998L168.92749999999978 231.25085000000013L166.9150000000002 230.67904999999996z">
      <title id="t104">Quatrième circonscription de la Drôme</title>
      <desc id="d104">Cantons de : Bourg-de-Péage, Le Grand-Serre, Romans-Isère I, Romans-sur-Isère II, Saint-Donat-sur-l'Herbasse, Saint-Vallier.</desc>
    </path></svg>