<svg xmlns="http://www.w3.org/2000/svg" version="1.1" xmlns:xlink="http://www.w3.org/1999/xlink" xmlns:svgjs="http://svgjs.dev/svgjs" width="639.828" height="530.7056999999998" fill="#eeeeee" stroke="#cccccc" xmlns:sodipodi="http://sodipodi.sourceforge.net/DTD/sodipodi-0.dtd"><path class="circo" id="id-027-01" d="M199.0854999999999 409.8267999999999L208.01199999999994 425.6682999999998L210.8605 432.08124999999995L214.34699999999964 431.2582499999999L212.42199999999968 437.6242499999998L214.51799999999992 443.8825L210.8834999999999 445.7898499999999L212.34649999999988 449.89314999999976L210.19949999999994 460.26009999999985L204.83299999999986 463.86374999999987L208.32249999999988 483.1559999999999L203.07500000000005 485.08999999999986L198.2299999999998 489.59944999999976L196.02100000000007 495.89405L189.7120000000001 498.2074L183.40949999999964 504.7463499999998L184.36649999999986 506.6893999999999L192.9325 506.5940499999999L199.78849999999966 511.84549999999973L199.96849999999995 513.5208999999998L197.8219999999999 517.07485L198.44400000000007 524.7841L200.2785 528.0041L205.34249999999986 530.6638999999998L206.12250000000017 530.7056999999998L212.19049999999982 525.3060499999998L219.98400000000004 528.3605999999997L225.44449999999983 521.5663499999999L231.56450000000007 522.3368499999998L235.09050000000002 520.1315L240.28599999999983 516.8334499999997L242.3199999999997 506.57539999999983L246.28550000000018 499.11434999999983L252.09099999999978 496.63939999999997L256.2545 501.53564999999986L264.50350000000014 501.21229999999997L265.1984999999996 503.24569999999994L277.9435000000001 499.1793999999999L283.36900000000014 492.18699999999984L289.46050000000014 489.21284999999983L292.5849999999997 492.5181999999998L305.45649999999966 490.44095L308.02549999999997 486.85119999999984L312.54050000000007 490.8191499999998L314.2874999999998 489.69734999999986L313.65250000000003 483.4518L325.4755 471.16014999999976L329.5459999999997 477.31269999999995L336.1669999999998 472.77829999999994L336.0269999999997 474.8927999999998L347.0274999999998 479.32439999999986L349.40999999999974 466.9253999999998L351.43449999999973 466.2102999999999L349.13149999999973 455.6878999999998L350.28599999999983 451.6678999999999L355.5529999999999 453.9391999999998L363.34000000000003 453.89534999999995L362.93499999999995 460.3394499999999L367.95450000000017 464.49185L378.73800000000017 462.2986499999999L393.4884999999997 471.80034999999975L395.7560000000001 468.73335L393.30150000000003 465.78989999999976L403.25049999999976 464.2551999999998L406.60799999999995 466.4837L408.5174999999998 471.76615L412.552 472.2109999999998L417.0155 468.46449999999976L424.889 465.3295L431.0224999999997 467.34319999999997L431.9815 467.85064999999975L437.8325000000001 470.21434999999997L449.8955000000001 458.21304999999995L450.15649999999994 457.9750499999997L453.6534999999998 455.8658999999997L457.8514999999999 456.05165L458.8364999999999 449.89764999999977L456.0804999999999 444.2148499999999L455.08249999999975 442.94689999999974L454.4274999999999 441.7995499999998L450.3494999999998 434.63919999999973L451.5994999999998 424.5610499999998L464.5409999999998 414.8142999999999L467.84249999999986 408.2344999999998L470.7419999999996 405.49679999999995L478.8470000000001 405.13565L481.92849999999964 402.18574999999987L486.28150000000005 402.2561999999999L489.87199999999973 399.77385L493.18550000000016 398.5170499999998L496.66600000000017 393.59555L498.71399999999994 381.39899999999983L494.803 380.3645499999999L494.4349999999997 373.93939999999986L489.076 364.1728499999999L493.1065000000001 362.3189499999998L494.7494999999998 355.8164499999998L502.87049999999965 354.16909999999973L508.54150000000004 356.0791499999999L511.8414999999999 353.5543999999999L515.8675 345.4522L511.6609999999997 345.8638499999998L509.1645 337.57454999999993L519.0089999999998 329.4041999999999L516.9284999999996 329.3148499999998L514.5529999999997 325.9008L508.5910000000001 328.76314999999977L501.95449999999994 328.8324L498.8214999999997 331.70029999999997L494.9169999999998 322.603L498.86199999999974 321.14565L502.86400000000015 311.78684999999973L500.1634999999999 309.11219999999986L501.4594999999997 305.8003499999998L499.22649999999976 303.31964999999997L493.24250000000006 298.34794999999986L489.52499999999986 300.25154999999984L483.5480000000001 299.2501999999999L482.38650000000007 295.2158499999999L474.43749999999966 292.44845L470.0074999999998 288.13574999999986L468.63650000000007 285.03829999999994L464.78849999999966 286.79614999999984L458.8225 283.9618999999999L448.7934999999999 287.42444999999975L442.5630000000001 281.4665499999998L439.56999999999994 277.1264499999998L437.6614999999998 275.7261L432.79949999999985 273.01795L425.32449999999983 268.4178499999999L422.4739999999997 262.4868999999998L417.95349999999985 263.6004L410.8409999999998 256.87029999999993L403.9850000000001 261.6095999999999L398.67849999999976 268.1583499999999L400.8024999999998 271.5882499999998L402.87949999999967 271.05759999999975L404.554 274.95874999999984L400.49949999999967 280.44444999999996L396.8309999999997 277.9021499999999L383.58949999999993 279.2984999999999L381.84950000000015 279.2627999999999L381.25999999999976 280.676L378.4375 282.8815499999999L377.59149999999977 290.38354999999996L365.5020000000002 290.82764999999995L364.6780000000001 294.1044499999998L361.866 297.18954999999994L362.4365 300.56534999999997L365.693 302.03254999999984L364.4614999999999 303.22719999999975L363.0084999999997 311.70615L364.452 316.47794999999974L359.9860000000001 318.4044499999999L359.80999999999995 322.3004999999998L362.115 325.4850499999998L360.48149999999964 331.38304999999974L351.8675000000002 333.52619999999973L342.4059999999997 321.31665L335.8299999999997 322.26229999999987L332.6659999999998 327.8617L328.5419999999999 329.5182L319.62800000000016 322.7065999999999L315.54599999999994 323.4721499999998L311.1635000000001 327.106L307.7819999999997 328.45489999999984L307.5034999999997 330.3139999999999L309.7825 334.15944999999994L318.7434999999999 340.5336L322.149 348.46035L319.4554999999997 351.99625L320.47500000000014 352.15734999999995L318.94349999999974 355.70515L317.56899999999973 358.54994999999974L311.3315 369.9939499999999L299.0129999999999 373.5501499999998L294.3369999999999 378.06674999999984L293.70900000000006 376.18709999999993L290.00099999999975 377.47445L287.2985 375.22879999999986L287.0305000000002 371.77434999999974L283.17799999999977 370.38459999999986L269.0719999999999 375.9995999999998L257.6159999999999 390.1792499999999L250.82899999999995 390.7033999999999L245.05949999999984 378.99519999999995L250.17799999999966 369.56709999999987L248.07450000000017 365.9581L250.5709999999999 362.35904999999974L242.73699999999963 365.5441499999998L240.1555000000002 355.02774999999986L235.6234999999998 354.8368499999998L222.12199999999996 363.1986999999998L210.07799999999975 376.78259999999995L204.7800000000001 374.2148999999998L202.8309999999999 377.09749999999985L205.46749999999975 384.66559999999987L199.3565000000001 385.5247L204.3795 392.4012499999998L200.3604999999999 397.68935L201.32650000000012 406.4619499999998L199.0854999999999 409.8267999999999z">
      <title id="t105">Première circonscription de l'Eure</title>
      <desc id="d105">Cantons de : Breteuil, Damville, Evreux Est, Evreux Sud, Nonancourt, Pacy-sur-Eure, Saint-André-de-l'Eure, Verneuil-sur-Avre</desc>
    </path><path class="circo" id="id-027-02" d="M180.25350000000003 278.0973499999999L178.01199999999994 268.54629999999986L173.53549999999984 258.0481999999998L177.49899999999968 252.5911499999998L180.65099999999973 255.09779999999978L182.60400000000004 254.60324999999983L186.43449999999973 249.9154999999999L182.21699999999998 242.34039999999993L183.03150000000016 238.04759999999987L183.59649999999988 231.34854999999988L177.12350000000015 232.10849999999994L168.80200000000002 230.20669999999996L165.73849999999993 222.05779999999976L165.84599999999966 215.56204999999977L162.69349999999974 213.39219999999983L158.71550000000013 214.2987499999998L156.7534999999998 217.5368499999999L151.58950000000004 219.86435L147.75750000000016 221.52764999999988L140.5574999999999 217.7109999999999L138.29450000000008 211.83504999999997L126.5134999999998 215.26184999999998L129.62150000000008 208.76604999999984L119.56500000000005 199.78864999999985L119.46750000000009 195.8381L123.98149999999987 191.63989999999984L122.36299999999972 190.97589999999997L122.25649999999973 187.4697999999998L119.24800000000005 179.90339999999975L120.76750000000004 176.35184999999979L118.9364999999998 172.7738499999998L120.79650000000015 168.89474999999976L129.3705 167.17469999999992L133.3159999999998 174.3237499999998L139.135 174.35239999999993L142.59900000000016 171.5504999999999L142.66700000000014 165.43179999999978L152.6954999999998 160.90479999999985L154.77449999999976 161.13589999999988L156.71899999999994 164.7249499999998L162.4849999999998 166.68529999999976L162.2339999999997 169.26829999999995L165.81349999999986 167.13174999999978L167.60800000000017 168.22639999999978L169.12049999999965 176.49234999999976L176.087 173.4453499999998L177.56249999999966 173.00414999999987L173.47550000000012 158.02099999999996L176.207 151.93944999999985L183.69950000000017 147.2835999999998L193.16849999999988 155.39739999999995L199.51199999999972 156.53474999999986L203.24149999999975 154.6311L203.5050000000001 154.85829999999993L208.0419999999998 153.83419999999973L212.4200000000002 153.59459999999984L220.36749999999984 157.64734999999973L222.59649999999965 157.19294999999988L224.42499999999995 159.78909999999985L223.26149999999984 163.7545L225.31849999999963 169.58069999999992L219.62049999999977 172.03784999999982L216.6485 176.39864999999986L224.64099999999974 177.84434999999974L232.2305 185.10094999999978L233.86349999999993 195.59034999999994L240.13300000000015 194.54799999999977L243.51099999999974 191.99429999999978L251.601 191.61845L253.35399999999993 190.41334999999975L261.21350000000007 186.37254999999982L268.48199999999963 182.6063499999998L270.96900000000005 185.57704999999999L274.418 185.20044999999982L274.0469999999999 183.49624999999975L276.42150000000015 183.74989999999997L292.39649999999983 171.75219999999996L296.4654999999999 173.42124999999982L299.3554999999998 172.80374999999992L302.4950000000001 180.94494999999995L307.3910000000001 185.2088999999998L308.6349999999999 182.70329999999973L314.39449999999965 183.74079999999992L321.16049999999973 195.81984999999975L326.6474999999997 199.4095999999999L331.1930000000001 204.6007499999999L331.68650000000014 202.59524999999996L333.73999999999967 202.4281499999998L340.7454999999999 205.9878999999998L346.89149999999984 207.28989999999982L355.0804999999997 212.71175L330.99249999999984 222.72959999999983L330.22099999999966 224.78189999999984L336.23199999999997 223.52479999999986L349.7474999999997 229.12969999999973L344.4445000000002 236.11435L347.90549999999996 238.6184L351.75749999999994 233.84259999999983L353.1880000000001 242.3469L357.0904999999999 247.61419999999987L365.0464999999997 240.77034999999995L363.58949999999993 233.22949999999992L372.3320000000001 238.7963499999998L373.91549999999995 242.82929999999993L379.7570000000002 245.18809999999974L383.40449999999976 245.56594999999987L388.6989999999997 243.6233999999999L392.8890000000001 248.43864999999994L391.56450000000007 252.4561L394.4130000000001 255.13544999999993L401.29050000000007 254.52534999999983L403.9850000000001 261.6095999999999L398.67849999999976 268.1583499999999L400.8024999999998 271.5882499999998L402.87949999999967 271.05759999999975L404.554 274.95874999999984L400.49949999999967 280.44444999999996L396.8309999999997 277.9021499999999L383.58949999999993 279.2984999999999L381.84950000000015 279.2627999999999L381.25999999999976 280.676L378.4375 282.8815499999999L377.59149999999977 290.38354999999996L365.5020000000002 290.82764999999995L364.6780000000001 294.1044499999998L361.866 297.18954999999994L362.4365 300.56534999999997L365.693 302.03254999999984L364.4614999999999 303.22719999999975L363.0084999999997 311.70615L364.452 316.47794999999974L359.9860000000001 318.4044499999999L359.80999999999995 322.3004999999998L362.115 325.4850499999998L360.48149999999964 331.38304999999974L351.8675000000002 333.52619999999973L342.4059999999997 321.31665L335.8299999999997 322.26229999999987L332.6659999999998 327.8617L328.5419999999999 329.5182L319.62800000000016 322.7065999999999L315.54599999999994 323.4721499999998L311.1635000000001 327.106L307.7819999999997 328.45489999999984L307.5034999999997 330.3139999999999L309.7825 334.15944999999994L318.7434999999999 340.5336L322.149 348.46035L319.4554999999997 351.99625L320.47500000000014 352.15734999999995L318.94349999999974 355.70515L317.56899999999973 358.54994999999974L311.3315 369.9939499999999L299.0129999999999 373.5501499999998L294.3369999999999 378.06674999999984L293.70900000000006 376.18709999999993L290.00099999999975 377.47445L287.2985 375.22879999999986L287.0305000000002 371.77434999999974L283.17799999999977 370.38459999999986L269.0719999999999 375.9995999999998L257.6159999999999 390.1792499999999L250.82899999999995 390.7033999999999L245.05949999999984 378.99519999999995L250.17799999999966 369.56709999999987L248.07450000000017 365.9581L250.5709999999999 362.35904999999974L242.73699999999963 365.5441499999998L240.1555000000002 355.02774999999986L235.6234999999998 354.8368499999998L222.12199999999996 363.1986999999998L210.07799999999975 376.78259999999995L204.7800000000001 374.2148999999998L202.8309999999999 377.09749999999985L205.46749999999975 384.66559999999987L199.3565000000001 385.5247L204.3795 392.4012499999998L200.3604999999999 397.68935L201.32650000000012 406.4619499999998L199.0854999999999 409.8267999999999L208.01199999999994 425.6682999999998L210.8605 432.08124999999995L214.34699999999964 431.2582499999999L212.42199999999968 437.6242499999998L214.51799999999992 443.8825L210.8834999999999 445.7898499999999L212.34649999999988 449.89314999999976L210.19949999999994 460.26009999999985L204.83299999999986 463.86374999999987L208.32249999999988 483.1559999999999L203.07500000000005 485.08999999999986L192.88599999999974 470.1556499999998L195.31650000000013 466.327L194.88499999999988 463.96049999999974L187.94600000000003 459.1920999999999L184.15700000000015 453.9908L178.14300000000003 453.73534999999976L176.79300000000012 452.0736499999998L172.78449999999964 450.15895L167.00699999999983 448.5286499999998L154.18499999999995 437.09824999999995L148.66550000000018 435.1084499999999L140.91000000000008 428.45855L132.02799999999968 423.72625L143.03650000000005 408.5181L136.9459999999998 410.6425999999999L133.21300000000008 408.5012999999998L130.92600000000004 402.24069999999983L132.45349999999974 395.81664999999987L124.27649999999971 397.816L122.72649999999999 393.93935L127.24850000000004 389.92264999999975L126.83150000000012 387.84719999999993L119.3504999999999 384.20919999999995L120.6374999999997 380.0167499999998L111.26350000000002 374.3429499999999L107.35500000000002 374.76129999999984L106.35600000000011 379.0275L101.26350000000002 376.24919999999975L95.47849999999983 376.3727L103.38300000000004 368.6538999999999L109.35999999999979 366.24464999999987L124.97349999999983 366.03054999999983L131.0145 368.73864999999995L134.44399999999973 365.8642999999998L138.23949999999968 364.7252499999999L140.75049999999976 358.6786999999998L142.96899999999994 362.61584999999997L151.95099999999968 369.44615L168.4744999999998 352.73199999999974L178.71199999999988 349.86075L185.00599999999963 351.53614999999974L188.64350000000002 349.0214499999999L190.44849999999997 344.9343999999999L192.64399999999966 344.5576999999997L194.5369999999997 345.17325L195.10899999999992 341.5990499999998L195.81549999999993 337.8341499999999L199.96199999999988 337.2449999999998L206.19349999999997 331.6692499999999L208.8454999999999 327.8552499999998L210.33599999999979 316.94694999999996L207.40099999999984 313.5911999999999L210.06050000000016 310.38669999999996L216.07449999999972 309.0940499999999L215.20399999999995 302.43179999999995L211.65250000000015 300.1413499999998L209.25149999999974 303.68319999999983L203.45849999999984 301.7065499999998L200.7434999999998 304.7913999999997L194.70699999999965 305.68629999999985L190.94949999999983 293.9750999999998L187.0074999999997 294.98054999999994L180.25350000000003 278.0973499999999z">
      <title id="t106">Deuxième circonscription de l'Eure</title>
      <desc id="d106">Cantons de : Beaumont-le-Roger, Brionne, Conches-en-Ouche, Evreux Nord, Evreux Ouest, Le Neubourg, Rugles</desc>
    </path><path class="circo" id="id-027-03" d="M207.40099999999984 313.5911999999999L210.33599999999979 316.94694999999996L208.8454999999999 327.8552499999998L206.19349999999997 331.6692499999999L199.96199999999988 337.2449999999998L195.81549999999993 337.8341499999999L195.10899999999992 341.5990499999998L194.5369999999997 345.17325L192.64399999999966 344.5576999999997L190.44849999999997 344.9343999999999L188.64350000000002 349.0214499999999L185.00599999999963 351.53614999999974L178.71199999999988 349.86075L168.4744999999998 352.73199999999974L151.95099999999968 369.44615L142.96899999999994 362.61584999999997L140.75049999999976 358.6786999999998L138.23949999999968 364.7252499999999L134.44399999999973 365.8642999999998L131.0145 368.73864999999995L124.97349999999983 366.03054999999983L109.35999999999979 366.24464999999987L103.38300000000004 368.6538999999999L95.47849999999983 376.3727L101.26350000000002 376.24919999999975L106.35600000000011 379.0275L107.35500000000002 374.76129999999984L111.26350000000002 374.3429499999999L120.6374999999997 380.0167499999998L119.3504999999999 384.20919999999995L109.0440000000001 395.0650999999999L107.37649999999974 396.45444999999995L95.05650000000003 392.52015L84.71349999999973 393.8243L75.28899999999965 388.47289999999987L68.7964999999997 387.9958499999998L68.05900000000008 393.1896999999998L62.0029999999997 392.2054L64.94849999999985 385.91579999999993L59.282499999999914 389.2989499999999L54.821000000000026 388.70559999999983L52.89800000000014 387.52399999999994L51.308500000000095 381.09639999999985L37.77949999999976 373.2875999999999L39.78200000000015 362.57769999999994L41.64699999999982 361.40424999999993L49.12750000000017 347.3601499999998L57.366499999999974 333.58385L55.05449999999996 324.6411499999999L58.019499999999766 313.2322499999998L63.253500000000145 303.0701499999998L54.1134999999997 294.6330999999998L47.73500000000013 294.1131999999999L37.28849999999966 291.40269999999987L34.60899999999981 283.20254999999975L33.08499999999981 281.62604999999985L31.281999999999925 282.87049999999994L29.640999999999735 281.4548499999998L35.343500000000176 275.6864999999999L34.82649999999978 271.66544999999985L34.861999999999966 269.41174999999987L40.40549999999996 265.61439999999976L47.12949999999978 265.67864999999983L51.02399999999989 267.83265L50.67450000000008 258.73219999999975L44.60899999999981 258.0326499999998L48.52949999999964 253.8458L47.975999999999885 252.0595499999999L44.088499999999726 251.93099999999987L43.589000000000055 250.0141499999998L47.675499999999715 237.00079999999986L47.80550000000005 236.1493999999999L47.19699999999989 231.98634999999996L53.33699999999965 230.53404999999998L57.43749999999977 223.1362999999999L55.04199999999969 220.07614999999987L47.41399999999999 220.09239999999977L46.47199999999998 218.3874499999999L38.30949999999973 216.00394999999992L37.654999999999745 215.43534999999991L39.457499999999754 211.75119999999993L40.24400000000014 199.52144999999973L38.63150000000019 192.19329999999985L40.88950000000011 181.04899999999986L40.84850000000017 178.7447499999999L38.75149999999962 177.79619999999994L38.44249999999988 175.67579999999992L36.37650000000008 175.1357999999999L29.676000000000045 174.76814999999988L17.119000000000142 165.28079999999989L10.430499999999938 153.94289999999984L10.326499999999896 151.73305L12.455999999999676 151.14509999999996L18.809999999999718 150.63069999999982L26.222999999999956 146.29894999999976L36.3655 143.89839999999992L36.69150000000002 129.7311499999998L29.084500000000162 123.63184999999987L20.889500000000112 123.44349999999991L10.64799999999991 134.29314999999974L5.004000000000133 131.39129999999994L10.716499999999769 122.84459999999996L7.989000000000033 113.08245L0.3954999999996289 111.06144999999998L4.180499999999938 108.19859999999977L11.236499999999978 94.29669999999987L4.601499999999987 82.57614999999987L1.9085000000001173 73.94659999999988L5.033999999999992 63.77584999999982L0.24900000000002365 49.16819999999973L0 35.70335L5.34150000000011 35.09169999999983L18.43250000000012 32.7893499999999L17.747999999999706 28.469149999999956L30.418999999999983 26.48529999999994L37.98650000000009 24.345749999999953L54.73299999999995 17.832799999999907L58.69899999999973 15.733199999999954L75.20749999999964 4.989949999999794L77.63649999999984 2.9830499999999915L83.53650000000016 0L90.07599999999968 0.15764999999987594L95.57900000000018 3.1662000000000035L102.20300000000009 11.339399999999955L102.59849999999972 11.973749999999939L104.62749999999971 14.2507999999998L111.9984999999997 23.780949999999734L120.71550000000002 33.02199999999999L128.43950000000007 36.32349999999974L134.8705000000001 35.64584999999994L146.76249999999982 26.295749999999884L148.01949999999977 28.1801999999999L143.42550000000017 33.08994999999982L141.22649999999965 39.50249999999983L145.45149999999978 38.73539999999991L147.27100000000007 42.58774999999986L153.14649999999972 44.16879999999992L149.86350000000016 49.412499999999966L153.0725000000001 51.57254999999992L154.57349999999963 53.20149999999984L158.84500000000003 52.88669999999996L165.24 51.26554999999996L171.42499999999984 53.298149999999964L173.5514999999998 52.719499999999755L175.15600000000006 48.655399999999815L177.35349999999983 48.7089499999999L177.77600000000007 48.12104999999974L187.45749999999987 49.94419999999991L189.79299999999967 46.61139999999989L199.93600000000015 42.809199999999805L206.59850000000006 48.11909999999983L208.41949999999997 46.828299999999956L214.08599999999979 45.447949999999935L213.57349999999997 37.33179999999976L214.89300000000014 37.36514999999997L217.77899999999988 50.837099999999964L221.70950000000005 56.39514999999989L227.73950000000013 59.357949999999846L233.8040000000001 60.383799999999894L239.54799999999977 58.24259999999981L240.9514999999999 59.90124999999978L247.03300000000013 57.65814999999975L246.26750000000015 61.871249999999804L249.69850000000008 67.14469999999977L247.2679999999997 72.97994999999986L249.06650000000013 71.73449999999974L253.10799999999972 73.39829999999978L254.27099999999996 69.3760499999999L263.88750000000016 64.70559999999978L263.76300000000015 70.63784999999996L266.52649999999994 82.06129999999973L266.05399999999975 87.91145L269.8894999999999 91.1838499999999L264.7264999999999 95.27904999999976L250.12249999999995 90.2306999999999L244.15700000000015 92.88444999999996L240.97499999999968 90.71214999999995L238.91999999999996 90.8556999999999L234.29050000000018 99.80354999999975L230.59550000000002 99.61179999999985L227.577 97.44844999999998L226.48449999999968 101.76589999999976L222.94350000000009 104.61949999999973L222.05649999999991 102.5503999999998L213.14549999999997 101.96019999999976L206.18449999999996 95.38734999999974L206.13650000000007 90.76629999999994L201.8489999999997 90.36509999999993L194.0334999999999 93.64374999999995L190.46600000000012 92.01489999999978L188.53999999999985 92.97969999999992L188.4235000000001 93.01234999999991L184.99349999999993 102.92929999999984L188.42399999999998 112.48789999999985L193.66199999999992 109.8227L199.5675 115.4233499999998L197.27899999999977 123.38354999999979L193.78899999999987 123.13134999999988L191.91949999999963 125.83969999999994L187.688 130.70785L188.6545000000001 134.9042L186.7629999999997 135.97195L190.93849999999975 136.72564999999992L192.79349999999965 140.55649999999986L197.0089999999999 140.0900999999999L200.03299999999967 145.00099999999975L203.24149999999975 154.6311L199.51199999999972 156.53474999999986L193.16849999999988 155.39739999999995L183.69950000000017 147.2835999999998L176.207 151.93944999999985L173.47550000000012 158.02099999999996L177.56249999999966 173.00414999999987L176.087 173.4453499999998L169.12049999999965 176.49234999999976L167.60800000000017 168.22639999999978L165.81349999999986 167.13174999999978L162.2339999999997 169.26829999999995L162.4849999999998 166.68529999999976L156.71899999999994 164.7249499999998L154.77449999999976 161.13589999999988L152.6954999999998 160.90479999999985L142.66700000000014 165.43179999999978L142.59900000000016 171.5504999999999L139.135 174.35239999999993L133.3159999999998 174.3237499999998L129.3705 167.17469999999992L120.79650000000015 168.89474999999976L118.9364999999998 172.7738499999998L120.76750000000004 176.35184999999979L119.24800000000005 179.90339999999975L122.25649999999973 187.4697999999998L122.36299999999972 190.97589999999997L123.98149999999987 191.63989999999984L119.46750000000009 195.8381L119.56500000000005 199.78864999999985L129.62150000000008 208.76604999999984L126.5134999999998 215.26184999999998L138.29450000000008 211.83504999999997L140.5574999999999 217.7109999999999L147.75750000000016 221.52764999999988L151.58950000000004 219.86435L156.7534999999998 217.5368499999999L158.71550000000013 214.2987499999998L162.69349999999974 213.39219999999983L165.84599999999966 215.56204999999977L165.73849999999993 222.05779999999976L168.80200000000002 230.20669999999996L177.12350000000015 232.10849999999994L183.59649999999988 231.34854999999988L183.03150000000016 238.04759999999987L182.21699999999998 242.34039999999993L186.43449999999973 249.9154999999999L182.60400000000004 254.60324999999983L180.65099999999973 255.09779999999978L177.49899999999968 252.5911499999998L173.53549999999984 258.0481999999998L178.01199999999994 268.54629999999986L180.25350000000003 278.0973499999999L187.0074999999997 294.98054999999994L190.94949999999983 293.9750999999998L194.70699999999965 305.68629999999985L200.7434999999998 304.7913999999997L203.45849999999984 301.7065499999998L209.25149999999974 303.68319999999983L211.65250000000015 300.1413499999998L215.20399999999995 302.43179999999995L216.07449999999972 309.0940499999999L210.06050000000016 310.38669999999996L207.40099999999984 313.5911999999999z">
      <title id="t107">Troisième circonscription de l'Eure</title>
      <desc id="d107">Cantons de : Beaumesnil, Bernay Est, Bernay Ouest, Beuzeville, Broglie, Cormeilles, Montfort-sur-Risle, Pont-Audemer, Quillebeuf-sur-Seine, Routot, Saint-Georges-du-Vièvre, Thiberville</desc>
    </path><path class="circo" id="id-027-04" d="M274.0469999999999 183.49624999999975L276.42150000000015 183.74989999999997L292.39649999999983 171.75219999999996L296.4654999999999 173.42124999999982L299.3554999999998 172.80374999999992L302.4950000000001 180.94494999999995L307.3910000000001 185.2088999999998L308.6349999999999 182.70329999999973L314.39449999999965 183.74079999999992L321.16049999999973 195.81984999999975L326.6474999999997 199.4095999999999L331.1930000000001 204.6007499999999L331.68650000000014 202.59524999999996L333.73999999999967 202.4281499999998L340.7454999999999 205.9878999999998L346.89149999999984 207.28989999999982L355.0804999999997 212.71175L330.99249999999984 222.72959999999983L330.22099999999966 224.78189999999984L336.23199999999997 223.52479999999986L349.7474999999997 229.12969999999973L344.4445000000002 236.11435L347.90549999999996 238.6184L351.75749999999994 233.84259999999983L353.1880000000001 242.3469L357.0904999999999 247.61419999999987L365.0464999999997 240.77034999999995L363.58949999999993 233.22949999999992L372.3320000000001 238.7963499999998L373.91549999999995 242.82929999999993L379.7570000000002 245.18809999999974L383.40449999999976 245.56594999999987L388.6989999999997 243.6233999999999L392.8890000000001 248.43864999999994L391.56450000000007 252.4561L394.4130000000001 255.13544999999993L401.29050000000007 254.52534999999983L403.9850000000001 261.6095999999999L410.8409999999998 256.87029999999993L417.95349999999985 263.6004L422.4739999999997 262.4868999999998L435.11149999999986 253.37844999999987L436.5519999999998 251.6083999999998L444.6015 248.23284999999998L447.8415000000001 250.06219999999985L448.76049999999964 246.12554999999986L447.1809999999999 242.38129999999984L452.3149999999998 238.67684999999994L464.6645000000001 242.07744999999989L464.5184999999998 242.3371499999999L467.4489999999997 247.59664999999984L472.76700000000005 250.0920499999998L474.83349999999973 247.47004999999973L476.42150000000015 234.2998L471.2049999999999 230.0247999999999L475.05899999999997 223.2577999999998L476.16600000000005 222.95504999999991L476.4684999999997 219.15155L464.76549999999975 206.05229999999978L456.37999999999977 201.89314999999993L455.4755 201.55504999999977L445.0619999999998 197.00784999999996L441.33399999999995 191.32059999999996L441.9085000000001 188.41349999999977L442.57799999999975 186.96634999999986L463.3575000000002 172.9690499999998L466.46649999999966 166.90134999999998L468.0529999999999 162.83089999999987L467.24800000000016 158.52749999999986L462.6060000000001 153.85759999999976L458.4064999999998 152.5743L457.4079999999998 152.29629999999986L451.01200000000006 152.40564999999975L440.6495000000001 160.7075999999998L434.529 167.40964999999989L429.36199999999985 171.39429999999976L423.0205000000001 172.7777499999999L411.8135000000001 182.9276999999999L401.3560000000001 179.81299999999976L399.29899999999975 177.56L405.21450000000016 174.9008999999998L405.8539999999999 170.5795999999998L412.12800000000016 164.53035L418.2299999999998 159.04109999999974L422.371 159.144L424.14049999999975 155.41169999999994L421.8815000000001 152.4460499999998L421.2514999999996 141.9484L417.93049999999994 139.32085L412.645 138.7867L411.5454999999997 140.3219999999999L412.4155000000002 131.7861499999998L411.08149999999966 127.6851499999998L411.5129999999999 125.50149999999974L405.3109999999998 116.3678999999999L401.52499999999975 114.06094999999993L395.18050000000017 113.93969999999996L399.3844999999999 109.80054999999993L400.2954999999997 105.54739999999981L397.3665 97.44514999999978L399.3439999999998 91.44149999999996L403.28300000000013 89.46484999999996L388.8855000000001 88.02954999999997L387.7584999999999 86.28884999999997L383.7259999999998 86.19944999999973L383.94299999999987 84.16439999999994L382.8354999999999 85.63309999999973L384.35850000000016 95.25295L377.5450000000001 95.74344999999994L377.2505000000001 95.63324999999992L376.345 91.86489999999992L372.39599999999996 93.34044999999975L370.3404999999998 97.00099999999992L369.03449999999964 93.13754999999986L364.5794999999998 96.97164999999984L360.5169999999998 97.30169999999987L356.8705 103.60944999999987L355.63699999999983 114.03875L353.76649999999984 114.03614999999974L339.0620000000001 114.09549999999996L329.1919999999999 116.34634999999975L319.1519999999997 121.83374999999984L326.3254999999998 132.7249999999998L326.7809999999997 134.87554999999986L321.30949999999984 138.26754999999991L325.70899999999995 145.4979499999999L324.6350000000001 146.95279999999997L321.23699999999985 145.78969999999998L320.4955000000001 147.44184999999987L320.4699999999997 145.4568999999998L315.1429999999999 147.76224999999982L315.01199999999983 146.71119999999974L298.30949999999973 151.74019999999985L296.30150000000015 148.29559999999987L297.9739999999998 145.16644999999983L293.5775000000001 144.5053999999999L292.8109999999998 140.32004999999998L288.9114999999998 138.57499999999987L287.097 134.53809999999976L279.8894999999999 139.1065499999999L278.47199999999987 133.53154999999987L282.697 129.95334999999983L281.99250000000006 126.40274999999974L281.96649999999977 124.27634999999981L277.98850000000016 122.28739999999988L272.0490000000001 107.40704999999991L267.1105 111.70554999999979L259.5670000000001 116.03804999999994L260.10850000000005 120.39014999999978L256.15849999999966 121.73209999999983L253.5390000000001 118.37874999999997L254.65199999999982 109.89049999999992L243.1540000000001 105.16269999999992L241.06499999999983 105.75344999999999L240.35849999999982 103.84289999999993L232.5709999999998 103.24034999999981L234.29050000000018 99.80354999999975L230.59550000000002 99.61179999999985L227.577 97.44844999999998L226.48449999999968 101.76589999999976L222.94350000000009 104.61949999999973L222.05649999999991 102.5503999999998L213.14549999999997 101.96019999999976L206.18449999999996 95.38734999999974L206.13650000000007 90.76629999999994L201.8489999999997 90.36509999999993L194.0334999999999 93.64374999999995L190.46600000000012 92.01489999999978L188.53999999999985 92.97969999999992L188.4235000000001 93.01234999999991L184.99349999999993 102.92929999999984L188.42399999999998 112.48789999999985L193.66199999999992 109.8227L199.5675 115.4233499999998L197.27899999999977 123.38354999999979L193.78899999999987 123.13134999999988L191.91949999999963 125.83969999999994L187.688 130.70785L188.6545000000001 134.9042L186.7629999999997 135.97195L190.93849999999975 136.72564999999992L192.79349999999965 140.55649999999986L197.0089999999999 140.0900999999999L200.03299999999967 145.00099999999975L203.24149999999975 154.6311L203.5050000000001 154.85829999999993L208.0419999999998 153.83419999999973L212.4200000000002 153.59459999999984L220.36749999999984 157.64734999999973L222.59649999999965 157.19294999999988L224.42499999999995 159.78909999999985L223.26149999999984 163.7545L225.31849999999963 169.58069999999992L219.62049999999977 172.03784999999982L216.6485 176.39864999999986L224.64099999999974 177.84434999999974L232.2305 185.10094999999978L233.86349999999993 195.59034999999994L240.13300000000015 194.54799999999977L243.51099999999974 191.99429999999978L251.601 191.61845L253.35399999999993 190.41334999999975L261.21350000000007 186.37254999999982L268.48199999999963 182.6063499999998L270.96900000000005 185.57704999999999L274.418 185.20044999999982L274.0469999999999 183.49624999999975z">
      <title id="t108">Quatrième circonscription de l'Eure</title>
      <desc id="d108">Cantons de : Amfreville-la-Campagne, Bourgtheroulde-Infreville, Gaillon, Gaillon-Campagne, Louviers Nord, Louviers Sud, Pont-de-l'Arche, Val-de-Reuil</desc>
    </path><path class="circo" id="id-027-05" d="M466.46649999999966 166.90134999999998L463.3575000000002 172.9690499999998L442.57799999999975 186.96634999999986L441.9085000000001 188.41349999999977L441.33399999999995 191.32059999999996L445.0619999999998 197.00784999999996L455.4755 201.55504999999977L456.37999999999977 201.89314999999993L464.76549999999975 206.05229999999978L476.4684999999997 219.15155L476.16600000000005 222.95504999999991L475.05899999999997 223.2577999999998L471.2049999999999 230.0247999999999L476.42150000000015 234.2998L474.83349999999973 247.47004999999973L472.76700000000005 250.0920499999998L467.4489999999997 247.59664999999984L464.5184999999998 242.3371499999999L464.6645000000001 242.07744999999989L452.3149999999998 238.67684999999994L447.1809999999999 242.38129999999984L448.76049999999964 246.12554999999986L447.8415000000001 250.06219999999985L444.6015 248.23284999999998L436.5519999999998 251.6083999999998L435.11149999999986 253.37844999999987L422.4739999999997 262.4868999999998L425.32449999999983 268.4178499999999L432.79949999999985 273.01795L437.6614999999998 275.7261L439.56999999999994 277.1264499999998L442.5630000000001 281.4665499999998L448.7934999999999 287.42444999999975L458.8225 283.9618999999999L464.78849999999966 286.79614999999984L468.63650000000007 285.03829999999994L470.0074999999998 288.13574999999986L474.43749999999966 292.44845L482.38650000000007 295.2158499999999L483.5480000000001 299.2501999999999L489.52499999999986 300.25154999999984L493.24250000000006 298.34794999999986L492.58749999999964 291.87209999999993L489.1579999999999 286.27744999999976L490.4834999999997 282.09944999999976L488.7874999999997 280.7038499999999L494.8104999999998 274.3445L501.18899999999996 280.57804999999973L505.47050000000013 281.85434999999984L512.5970000000001 277.0816499999998L516.6435000000001 264.91689999999977L515.5584999999996 260.7419999999999L518.2355000000001 263.55624999999975L520.2665000000002 271.0796499999998L530.9629999999999 268.46524999999986L537.0139999999998 269.77764999999977L541.9060000000002 265.5929999999998L551.2975 261.73614999999984L555.4404999999997 261.07294999999993L557.4334999999996 264.8889999999997L563.6075 259.5751999999999L561.9565 258.35514999999987L562.2559999999999 252.50219999999985L565.1855 247.21429999999998L574.144 234.28945L577.4919999999997 230.81009999999992L576.345 223.28834999999998L580.3359999999998 216.44259999999974L581.0249999999996 215.5023L579.8109999999997 213.64694999999983L583.1594999999999 205.5660499999999L581.8880000000001 201.34964999999994L584.2214999999999 197.9896499999998L583.6744999999996 192.12894999999975L585.9724999999997 185.90289999999982L584.8089999999996 181.90444999999983L586.1199999999997 177.6354999999998L596.01 168.57199999999978L598.0509999999998 164.61169999999981L596.6145 163.47069999999974L596.8869999999998 158.03534999999982L596.8034999999998 151.8607L601.146 143.56884999999977L607.7204999999998 143.19889999999987L611.1324999999999 140.41449999999998L617.6749999999998 141.28859999999975L619.4529999999997 139.99499999999983L624.7165000000001 147.2439L624.6280000000002 151.70049999999975L634.6819999999997 155.25544999999994L634.5704999999998 150.62089999999984L639.828 137.76399999999995L636.2509999999997 135.63384999999982L637.1039999999999 129.11344999999983L632.0734999999996 124.86744999999985L629.4214999999997 126.75984999999997L626.9630000000001 124.5832999999999L627.8309999999999 116.10259999999982L624.9039999999997 107.88434999999993L626.2254999999999 103.78354999999999L627.6490000000001 97.18294999999983L620.6894999999997 83.26324999999997L621.4170000000001 75.94774999999998L617.4054999999998 73.84609999999981L614.3774999999999 67.76814999999999L604.7089999999997 58.29154999999986L613.3580000000001 51.50004999999993L609.323 50.701899999999966L603.6655000000002 52.79589999999985L602.1199999999999 49.18644999999998L598.3299999999997 49.08389999999997L593.7669999999997 58.56519999999989L588.6244999999997 53.46664999999973L587.9345000000001 51.40599999999978L583.6259999999999 51.10814999999974L578.7844999999999 55.28294999999986L575.2429999999998 53.23544999999996L573.9055000000002 53.09439999999995L565.616 47.4011999999999L565.6799999999998 45.35059999999987L556.6519999999997 48.12234999999987L552.0645000000002 43.69315L547.355 34.46169999999995L543.2594999999998 30.845649999999978L543.5784999999998 29.04235L532.5650000000002 28.790699999999845L527.0004999999998 35.556299999999794L522.9014999999998 27.736400000000003L511.98699999999974 29.375699999999938L507.50599999999963 24.17839999999984L501.08749999999986 21.681099999999844L489.91049999999973 22.51074999999986L484.0269999999998 19.259449999999845L473.7914999999998 18.858649999999955L461.8639999999999 22.57479999999987L461.5145000000001 20.37224999999978L465.36 14.93284999999986L462.93499999999995 13.847999999999843L455.3789999999998 21.821649999999977L444.9309999999997 24.977899999999806L444.1134999999997 27.07554999999985L447.43449999999996 30.10249999999985L446.9549999999998 31.845599999999763L442.1260000000001 29.81424999999973L442.3615000000001 36.307849999999746L438.4589999999997 34.86885000000001L430.28549999999996 36.44114999999999L432.73300000000006 47.95449999999988L430.88300000000004 49.07474999999977L429.5954999999998 57.60459999999995L425.1169999999996 58.69384999999994L420.29650000000004 63.74709999999993L421.5999999999997 71.21359999999981L420.34299999999973 79.3922999999998L414.38800000000015 85.07784999999984L414.35699999999997 89.56074999999998L403.28300000000013 89.46484999999996L399.3439999999998 91.44149999999996L397.3665 97.44514999999978L400.2954999999997 105.54739999999981L399.3844999999999 109.80054999999993L395.18050000000017 113.93969999999996L401.52499999999975 114.06094999999993L405.3109999999998 116.3678999999999L411.5129999999999 125.50149999999974L411.08149999999966 127.6851499999998L412.4155000000002 131.7861499999998L411.5454999999997 140.3219999999999L412.645 138.7867L417.93049999999994 139.32085L421.2514999999996 141.9484L421.8815000000001 152.4460499999998L424.14049999999975 155.41169999999994L422.371 159.144L418.2299999999998 159.04109999999974L412.12800000000016 164.53035L405.8539999999999 170.5795999999998L405.21450000000016 174.9008999999998L399.29899999999975 177.56L401.3560000000001 179.81299999999976L411.8135000000001 182.9276999999999L423.0205000000001 172.7777499999999L429.36199999999985 171.39429999999976L434.529 167.40964999999989L440.6495000000001 160.7075999999998L451.01200000000006 152.40564999999975L457.4079999999998 152.29629999999986L458.4064999999998 152.5743L462.6060000000001 153.85759999999976L467.24800000000016 158.52749999999986L468.0529999999999 162.83089999999987L466.46649999999966 166.90134999999998z">
      <title id="t109">Cinquième circonscription de l'Eure</title>
      <desc id="d109">Cantons de : Les Andelys, Ecos, Etrépagny, Fleury-sur-Andelle, Gisors, Lyons-la-Forêt, Vernon Nord, Vernon Sud</desc>
    </path></svg>