<svg xmlns="http://www.w3.org/2000/svg" version="1.1" xmlns:xlink="http://www.w3.org/1999/xlink" xmlns:svgjs="http://svgjs.dev/svgjs" width="525.8440000000002" height="632.6418499999997" fill="#eeeeee" stroke="#cccccc" xmlns:sodipodi="http://sodipodi.sourceforge.net/DTD/sodipodi-0.dtd"><path class="circo" id="id-028-01" d="M288.85549999999967 239.0177L281.3855000000001 239.73899999999986L273.41200000000015 239.78459999999984L268.3494999999999 235.63454999999976L263.9580000000001 235.07115L259.98549999999966 237.2050999999999L258.0090000000001 243.3253499999998L262.74749999999983 251.06184999999982L259.91949999999974 253.01494999999989L255.17549999999972 248.38819999999998L252.09349999999972 251.4104999999998L254.23749999999984 255.36339999999996L262.7879999999999 267.05365L265.1029999999997 270.1813999999999L262.3615000000001 271.79135L260.8715000000001 279.4017499999998L264.52699999999993 283.4012999999999L268.7470000000002 283.21079999999995L271.50149999999996 279.99709999999993L273.51200000000006 280.64885000000004L280.58749999999975 285.41145L285.385 281.27555L291.9470000000001 290.1419999999999L298.8884999999999 286.17985000000004L302.8544999999997 287.14124999999996L304.81749999999977 290.7729999999998L306.8549999999999 291.12569999999977L306.9909999999999 295.5194L313.7450000000001 300.9914999999998L311.75250000000005 309.34709999999995L308.57500000000016 306.9132499999998L307.8019999999998 308.9873499999999L308.9859999999999 312.79470000000003L308.5885000000002 316.23549999999994L306.42949999999985 318.0576499999998L302.7305000000001 320.31424999999984L306.52049999999974 325.1979499999999L294.914 334.4270499999999L286.55449999999973 331.2734999999998L280.9715 336.85354999999987L273.4364999999997 339.24205L267.1044999999998 344.5332499999998L266.3549999999998 346.6740999999999L269.0699999999998 350.248L276.703 355.12654999999995L283.35849999999994 356.30544999999984L283.0435 356.6343999999998L281.7784999999998 360.85739999999987L273.0345 370.7871L269.3399999999997 378.78244999999964L273.29200000000014 379.2774499999999L278.6424999999997 384.8550500000002L287.73649999999975 382.57795000000016L291.2819999999999 384.3089999999998L289.1840000000002 387.2790499999999L292.5844999999998 389.5532499999999L293.17999999999984 395.67429999999973L298.72000000000014 398.0214499999997L298.37049999999977 406.56859999999966L300.1389999999998 410.53595L299.00350000000003 414.65164999999985L307.8375 420.1024499999997L313.7515000000002 417.9709L319.7230000000002 418.24240000000003L315.94150000000013 416.18165000000005L313.00549999999987 410.7014000000001L311.66650000000004 400.27829999999966L315.88149999999985 399.39245L324.2935 401.2228999999999L328.399 399.6506500000001L335.6819999999999 404.39269999999993L337.7139999999997 403.5555500000001L336.2450000000001 395.66855000000004L340.0599999999997 394.4655500000002L336.23400000000004 381.92440000000005L339.65750000000014 379.32924999999983L346.0975000000002 378.81509999999963L350.0274999999999 373.67334999999997L352.02099999999973 372.82005L353.30299999999966 374.5758999999998L361.01099999999974 371.99805L359.12949999999967 381.82080000000013L371.1514999999997 384.95224999999976L374.323 379.90294999999975L388.14250000000015 383.87865000000005L390.7679999999999 380.64670000000007L390.3204999999997 372.7522499999998L395.82600000000014 367.33575L392.45149999999967 365.29094999999984L366.96799999999996 351.5679L370.4899999999998 343.73615L374.4585000000001 343.0677499999999L378.43999999999994 338.0733999999998L376.55550000000005 337.04565L377.54099999999994 332.86824999999993L360.71950000000015 317.29964999999993L366.19699999999966 309.0213L362.6985000000002 304.29029999999983L367.5074999999998 302.7114499999999L365.4539999999997 287.5401499999998L367.8829999999999 281.67519999999996L373.2249999999999 277.74984999999987L378.1049999999999 281.4686499999999L383.7545 278.65375L389.57749999999976 280.99649999999997L391.82799999999986 277.57665000000003L393.1964999999997 285.4717499999998L397.28999999999985 284.5724999999999L401.16949999999974 286.0720999999998L406.48199999999974 283.0132499999999L410.61800000000005 282.9343499999999L411.927 283.48979999999983L424.7289999999998 280.88425L428.8745 288.4367499999999L432.4865 287.64725L437.6774999999998 289.60970000000003L438.9024999999998 285.45895L433.5129999999998 275.881L433.28300000000013 266.9368499999999L437.93450000000007 249.64865000000003L434.0809999999999 250.36714999999987L428.4440000000001 244.1987499999999L426.9720000000001 238.12555000000003L421.3254999999998 235.55679999999995L417.337 237.2789499999999L404.78700000000003 234.05554999999993L405.21950000000004 231.96769999999987L401.6994999999997 229.57449999999994L408.5575 215.32094999999998L407.2904999999997 211.48470000000003L397.2264999999999 210.67274999999995L396.2304999999998 212.51710000000003L393.7304999999998 210.2221L396.94849999999974 208.85019999999997L393.2574999999997 207.81254999999987L386.55449999999973 211.12404999999995L382.76099999999985 206.07529999999997L382.5400000000002 201.87399999999997L379.4200000000001 199.18534999999991L380.2729999999997 195.4210999999998L375.7099999999997 191.0729999999998L376.71249999999986 186.95269999999994L368.02149999999983 187.5780499999999L361.5690000000001 181.59714999999977L359.50350000000014 179.35855000000004L360.9899999999999 169.04380000000003L363.15349999999967 163.03505L350.7835 158.1411L350.9134999999998 152.83230000000003L356.1764999999997 149.60375L353.2254999999998 148.69495L354.10799999999995 147.31139999999982L364.74549999999965 132.85989999999998L366.9630000000001 132.40880000000004L368.00299999999993 129.7356499999998L368.9614999999998 124.01420000000002L360.57450000000017 116.56514999999985L351.9385 114.81659999999977L351.0975000000002 112.0711L346.1129999999997 110.85039999999992L347.7244999999999 114.91590000000002L346.71299999999974 116.8598L342.42999999999995 116.66509999999988L339.08950000000004 119.30129999999991L333.4449999999998 131.17019999999997L329.0244999999999 131.85524999999984L325.6205 134.68349999999987L323.5564999999997 134.02689999999978L322.8404999999998 138.06884999999994L319.1904999999997 139.12939999999992L324.92099999999994 147.98000000000002L330.4295000000002 150.93049999999977L330.34749999999974 153.05835000000002L327.2044999999997 152.71704999999997L323.62750000000005 156.97884999999985L313.42550000000017 154.7565499999999L309.34649999999976 156.20224999999976L305.7835 161.6405499999999L296.22450000000015 159.2318499999999L287.91150000000016 162.0319999999998L281.15650000000016 171.10869999999977L276.11999999999966 169.54844999999978L277.3840000000001 171.27735L273.35049999999967 176.23429999999985L273.0095 180.50780000000003L267.2584999999998 183.24754999999982L264.7735 186.72499999999985L268.2544999999999 197.8457499999999L276.25400000000013 198.30815L277.7184999999997 196.84309999999982L282.1305000000001 215.5543L294.35599999999965 208.8682L298.0894999999998 209.28089999999997L304.1395 217.08019999999976L301.55100000000004 226.91900000000004L297.41499999999974 227.63604999999984L306.49549999999977 232.85809999999998L306.8754999999999 234.93689999999987L304.8874999999998 242.4416499999998L296.38499999999965 245.45614999999998L294.47450000000003 241.70949999999976L288.85549999999967 239.0177z">
      <title id="t110">Première circonscription d'Eure-et-Loir</title>
      <desc id="d110">Cantons de Chartres Nord-Est, Chartres Sud-Est, Chartres Sud-Ouest, Maintenon, Nogent-le-Roi</desc>
    </path><path class="circo" id="id-028-02" d="M259.74049999999977 89.39444999999978L259.0854999999999 88.24709999999982L255.00749999999982 81.08674999999977L256.2574999999998 71.00859999999983L269.19899999999984 61.261849999999924L272.5004999999999 54.68204999999983L275.39999999999964 51.944349999999986L283.5050000000001 51.58320000000003L286.58649999999966 48.633299999999906L290.93950000000007 48.70374999999996L294.52999999999975 46.22140000000002L297.8435000000002 44.96459999999985L301.3240000000002 40.04310000000004L303.37199999999996 27.846549999999866L299.461 26.81209999999993L299.09299999999973 20.3869499999999L293.73400000000004 10.620399999999961L297.7645000000001 8.766499999999837L299.4074999999998 2.2639999999998395L307.52849999999967 0.6166499999997654L313.19950000000006 2.5266999999999484L316.4994999999999 0.0019499999999084139L316.61599999999964 0L320.7529999999997 4.920549999999935L319.2964999999998 8.93339999999995L321.7705000000001 12.452849999999955L325.6079999999997 10.461299999999767L332.10849999999994 12.527249999999981L333.07500000000005 14.603449999999896L333.55950000000007 16.36844999999994L334.69749999999976 19.57605000000001L332.22399999999993 22.23309999999998L342.94299999999964 32.61349999999993L335.5005 44.370150000000024L340.8594999999997 49.65929999999986L341.1655000000002 47.71844999999985L346.48349999999994 49.87054999999998L351.11199999999997 54.02249999999981L348.69249999999965 62.50765000000001L352.66700000000014 63.25549999999993L356.18299999999977 65.88179999999994L356.0140000000001 68.10309999999987L350.61499999999967 71.89374999999984L354.30849999999964 79.95659999999987L354.1980000000001 81.8864499999998L349.61250000000007 85.39929999999998L348.58450000000005 100.65829999999977L353.0804999999998 108.16644999999994L351.0975000000002 112.0711L346.1129999999997 110.85039999999992L347.7244999999999 114.91590000000002L346.71299999999974 116.8598L342.42999999999995 116.66509999999988L339.08950000000004 119.30129999999991L333.4449999999998 131.17019999999997L329.0244999999999 131.85524999999984L325.6205 134.68349999999987L323.5564999999997 134.02689999999978L322.8404999999998 138.06884999999994L319.1904999999997 139.12939999999992L324.92099999999994 147.98000000000002L330.4295000000002 150.93049999999977L330.34749999999974 153.05835000000002L327.2044999999997 152.71704999999997L323.62750000000005 156.97884999999985L313.42550000000017 154.7565499999999L309.34649999999976 156.20224999999976L305.7835 161.6405499999999L296.22450000000015 159.2318499999999L287.91150000000016 162.0319999999998L281.15650000000016 171.10869999999977L276.11999999999966 169.54844999999978L277.3840000000001 171.27735L273.35049999999967 176.23429999999985L273.0095 180.50780000000003L267.2584999999998 183.24754999999982L264.7735 186.72499999999985L268.2544999999999 197.8457499999999L276.25400000000013 198.30815L277.7184999999997 196.84309999999982L282.1305000000001 215.5543L294.35599999999965 208.8682L298.0894999999998 209.28089999999997L304.1395 217.08019999999976L301.55100000000004 226.91900000000004L297.41499999999974 227.63604999999984L306.49549999999977 232.85809999999998L306.8754999999999 234.93689999999987L304.8874999999998 242.4416499999998L296.38499999999965 245.45614999999998L294.47450000000003 241.70949999999976L288.85549999999967 239.0177L281.3855000000001 239.73899999999986L273.41200000000015 239.78459999999984L268.3494999999999 235.63454999999976L263.9580000000001 235.07115L259.98549999999966 237.2050999999999L258.0090000000001 243.3253499999998L262.74749999999983 251.06184999999982L259.91949999999974 253.01494999999989L255.17549999999972 248.38819999999998L252.09349999999972 251.4104999999998L254.23749999999984 255.36339999999996L242.72800000000018 254.42739999999986L229.50249999999983 271.48145L225.66899999999976 274.6703499999998L219.74499999999978 274.63245L213.9934999999997 269.10079999999994L210.06950000000018 269.19384999999977L202.03750000000014 275.8508499999999L192.6400000000001 270.85579999999993L186.75250000000005 282.8015499999998L180.61800000000005 281.2973499999998L172.0319999999998 282.0568499999999L165.12049999999988 276.90814999999986L160.87249999999983 277.6497499999999L158.04449999999974 280.97790000000003L149.75649999999973 280.4718L147.81299999999987 275.01745L141.65999999999997 273.6014L137.5815 274.6703499999998L131.01 268.87235000000004L120.86950000000002 273.2286499999998L114.20299999999997 273.45894999999985L115.43949999999995 269.24195L109.52049999999986 262.8069499999998L101.7610000000002 266.5499L100.69649999999967 262.26264999999984L92.06099999999992 255.38459999999986L89.47499999999991 249.34494999999998L79.23200000000008 250.89364999999987L72.36549999999966 245.18L71.77250000000015 245.85430000000002L65.20899999999983 242.97664999999995L57.84600000000012 238.03499999999985L46.94000000000017 236.6751499999998L39.302000000000135 228.96924999999982L37.855500000000006 214.14079999999984L27.86299999999983 214.2308L26.394999999999982 208.0413999999999L31.843000000000075 198.44769999999983L28.041499999999928 197.21609999999998L28.35899999999981 187.3560999999998L22.5709999999998 178.62949999999984L24.642000000000053 174.80814999999978L30.10249999999985 168.01389999999998L36.22250000000008 168.78439999999983L39.748500000000035 166.57905L44.943999999999846 163.28099999999978L46.977999999999724 153.02294999999987L50.9435000000002 145.56189999999987L56.748999999999796 143.08695L60.91250000000002 147.9831999999999L69.16150000000016 147.65985L69.85649999999964 149.69324999999998L82.6015000000001 145.6269499999999L88.02700000000016 138.63454999999988L94.11850000000015 135.66039999999987L97.24299999999971 138.96574999999984L110.11449999999968 136.88850000000002L112.68349999999998 133.29874999999987L117.19850000000008 137.26669999999984L118.94549999999981 136.1448999999999L118.31050000000005 129.89935000000003L130.13350000000003 117.6076999999998L134.20399999999972 123.76024999999998L140.82499999999982 119.22584999999998L140.68499999999972 121.34034999999983L151.68549999999982 125.77194999999989L154.06799999999976 113.37294999999983L156.09249999999975 112.65784999999994L153.78949999999975 102.13544999999982L154.94399999999985 98.11544999999995L160.2109999999999 100.38674999999984L167.99800000000005 100.34289999999999L167.59299999999996 106.78699999999992L172.61250000000018 110.93940000000003L183.39600000000019 108.74619999999993L198.14649999999972 118.24789999999979L200.4140000000001 115.18090000000001L197.95950000000005 112.2374499999998L207.90849999999978 110.70274999999981L211.26599999999996 112.93125000000003L213.17549999999983 118.21370000000002L217.21000000000004 118.65854999999982L221.6735 114.9120499999998L229.54700000000003 111.77705000000003L235.6804999999997 113.79075L236.6395 114.29819999999978L242.4905000000001 116.6619L254.5535000000001 104.66059999999999L254.81449999999995 104.42259999999976L258.3114999999998 102.31344999999976L262.5094999999999 102.49920000000003L263.4944999999999 96.3451999999998L260.73849999999993 90.66239999999993L259.74049999999977 89.39444999999978z">
      <title id="t111">Deuxième circonscription d'Eure-et-Loir</title>
      <desc id="d111">Cantons de : Anet, Brézolles, Châteauneuf-en-Thymerais, Dreux Est, Dreux Ouest, Dreux Sud, La Ferté-Vidame, Senonches</desc>
    </path><path class="circo" id="id-028-03" d="M89.70199999999977 478.05229999999966L95.79200000000014 483.3012999999997L114.9675000000002 483.25729999999993L115.18950000000018 491.7139499999999L111.75650000000019 494.41045L111.48349999999994 498.7940499999999L119.89699999999971 497.94655000000006L125.53150000000016 500.5997999999997L131.93699999999978 500.64825000000013L136.26599999999996 505.37630000000007L132.51499999999965 512.8591500000002L128.6084999999997 514.1418999999999L124.58500000000015 512.9916499999999L122.60099999999966 516.2161999999998L115.9269999999998 518.7960499999999L107.13799999999992 519.5105499999997L101.32149999999967 522.7128500000001L84.255 539.3910500000002L80.14499999999998 541.0272L79.5580000000001 531.8188L73.26199999999972 532.24145L66.4934999999997 537.05025L56.12950000000012 538.2543999999998L48.752999999999815 534.3337499999998L35.86149999999975 537.7503499999998L41.72300000000007 524.5134499999997L39.75250000000017 518.6400000000001L66.93849999999998 516.8772499999998L67.92149999999992 514.9074499999997L64.92950000000008 511.9827000000001L65.71750000000009 509.7947500000001L54.243000000000166 500.31755000000004L44.118500000000154 497.2532499999997L35.58800000000019 497.96819999999997L33.881999999999834 496.6382999999999L30.18449999999973 493.18365L23.120999999999867 485.73709999999977L17.292999999999665 483.5409999999999L17.346999999999753 479.5282999999998L21.208500000000186 477.6237999999998L21.157499999999914 473.3030499999998L30.858499999999935 468.7463999999997L27.737500000000068 460.9720999999999L12.955000000000041 436.7929000000001L14.738499999999704 434.37579999999997L12.385499999999752 430.56205000000006L15.811499999999796 422.3092L21.347000000000094 418.7285L17.27550000000008 417.6349000000002L9.241499999999974 410.8221999999998L1.53349999999989 413.36370000000016L0 411.87190000000015L5.125499999999761 402.4953500000001L5.383499999999799 398.20809999999966L10.414499999999975 391.27685000000014L12.151999999999816 386.3250500000001L13.254999999999768 385.7585500000002L26.166000000000054 380.5807999999999L30.187500000000114 385.1261500000001L35.485499999999774 382.25245L35.35599999999988 378.34755L41.247000000000185 380.77649999999977L47.683999999999855 375.582L53.91999999999996 375.90884999999986L59.30949999999996 366.83480000000003L60.77099999999973 365.4425999999998L63.96749999999997 367.3497999999998L72.11999999999989 358.3866499999999L73.38399999999979 354.2407499999999L81.40749999999969 347.16444999999993L80.09399999999971 336.61914999999993L93.32249999999988 323.3875499999999L92.52299999999991 321.3495999999998L84.4659999999999 319.2058499999999L78.12399999999968 310.35179999999997L77.09850000000017 303.8665999999998L76.02149999999995 299.84459999999984L83.39400000000012 296.8652499999999L84.38949999999977 288.8471999999999L78.50599999999986 284.9778999999998L84.0749999999997 281.14469999999983L89.6350000000001 268.81845L74.37799999999982 262.22735L71.12799999999993 259.7311499999998L76.63000000000011 252.94884999999994L71.77250000000015 245.85430000000002L72.36549999999966 245.18L79.23200000000008 250.89364999999987L89.47499999999991 249.34494999999998L92.06099999999992 255.38459999999986L100.69649999999967 262.26264999999984L101.7610000000002 266.5499L109.52049999999986 262.8069499999998L115.43949999999995 269.24195L114.20299999999997 273.45894999999985L120.86950000000002 273.2286499999998L131.01 268.87235000000004L137.5815 274.6703499999998L141.65999999999997 273.6014L147.81299999999987 275.01745L149.75649999999973 280.4718L158.04449999999974 280.97790000000003L160.87249999999983 277.6497499999999L165.12049999999988 276.90814999999986L172.0319999999998 282.0568499999999L180.61800000000005 281.2973499999998L186.75250000000005 282.8015499999998L192.6400000000001 270.85579999999993L202.03750000000014 275.8508499999999L210.06950000000018 269.19384999999977L213.9934999999997 269.10079999999994L219.74499999999978 274.63245L225.66899999999976 274.6703499999998L229.50249999999983 271.48145L242.72800000000018 254.42739999999986L254.23749999999984 255.36339999999996L262.7879999999999 267.05365L265.1029999999997 270.1813999999999L262.3615000000001 271.79135L260.8715000000001 279.4017499999998L264.52699999999993 283.4012999999999L268.7470000000002 283.21079999999995L271.50149999999996 279.99709999999993L273.51200000000006 280.64885000000004L280.58749999999975 285.41145L285.385 281.27555L291.9470000000001 290.1419999999999L298.8884999999999 286.17985000000004L302.8544999999997 287.14124999999996L304.81749999999977 290.7729999999998L306.8549999999999 291.12569999999977L306.9909999999999 295.5194L313.7450000000001 300.9914999999998L311.75250000000005 309.34709999999995L308.57500000000016 306.9132499999998L307.8019999999998 308.9873499999999L308.9859999999999 312.79470000000003L308.5885000000002 316.23549999999994L306.42949999999985 318.0576499999998L302.7305000000001 320.31424999999984L306.52049999999974 325.1979499999999L294.914 334.4270499999999L286.55449999999973 331.2734999999998L280.9715 336.85354999999987L273.4364999999997 339.24205L267.1044999999998 344.5332499999998L266.3549999999998 346.6740999999999L269.0699999999998 350.248L276.703 355.12654999999995L283.35849999999994 356.30544999999984L283.0435 356.6343999999998L281.7784999999998 360.85739999999987L273.0345 370.7871L269.3399999999997 378.78244999999964L273.29200000000014 379.2774499999999L278.6424999999997 384.8550500000002L287.73649999999975 382.57795000000016L291.2819999999999 384.3089999999998L289.1840000000002 387.2790499999999L292.5844999999998 389.5532499999999L293.17999999999984 395.67429999999973L298.72000000000014 398.0214499999997L298.37049999999977 406.56859999999966L300.1389999999998 410.53595L299.00350000000003 414.65164999999985L297.8159999999997 417.5320500000001L294.77149999999995 416.8849500000002L288.7529999999998 418.6019999999999L281.06799999999964 414.61074999999965L275.1029999999997 423.54889999999983L267.64599999999973 427.9598999999999L259.07249999999976 426.49305L255.46850000000006 426.21139999999997L252.8955000000002 423.4435499999998L248.00900000000013 420.25830000000013L243.00399999999968 429.68085L234.47149999999965 429.8801L228.50250000000017 438.43805000000003L226.19849999999985 438.10930000000013L228.57449999999972 427.43244999999973L226.54999999999973 419.40109999999976L222.40099999999984 419.1411500000001L205.6434999999999 429.00079999999974L199.59400000000016 430.06715000000014L194.2025000000001 427.53394999999983L192.1334999999999 421.94260000000014L188.8409999999999 419.8047999999997L181.00799999999992 422.62280000000004L181.73599999999965 429.12979999999976L178.29999999999984 431.69160000000005L178.09199999999976 433.8631000000001L171.3130000000001 434.29085000000015L167.79299999999978 442.03194999999965L159.7629999999998 440.10160000000013L158.33899999999971 444.0820999999997L161.2700000000001 447.19480000000004L163.14549999999997 450.96449999999976L161.88549999999964 452.65360000000015L153.62799999999993 452.8730999999996L143.0005 450.01045000000005L134.4074999999998 451.76469999999966L132.77600000000007 443.5504499999999L127.00699999999983 444.8933500000001L123.13400000000001 449.9517499999999L126.01699999999994 455.8937L125.56350000000009 460.2575999999996L128.47699999999975 463.50974999999977L131.97400000000016 466.07009999999974L129.20399999999972 474.49614999999966L127.06799999999987 475.13450000000006L114.42799999999977 471.24769999999984L94.3995000000001 472.2265999999999L90.86399999999969 474.06255000000016L89.70199999999977 478.05229999999966z">
      <title id="t112">Troisième circonscription d'Eure-et-Loir</title>
      <desc id="d112">Cantons de : Authon-du-Perche, Courville-sur-Eure, Illiers-Combray, La Loupe, Lucé, Mainvilliers, Nogent-le-Rotrou, Thiron</desc>
    </path><path class="circo" id="id-028-04" d="M447.8219999999999 305.8600999999999L444.26150000000007 304.59929999999986L443.6379999999997 300.6350499999999L440.6894999999997 297.75514999999984L441.7984999999999 294.2774L437.6774999999998 289.60970000000003L432.4865 287.64725L428.8745 288.4367499999999L424.7289999999998 280.88425L411.927 283.48979999999983L410.61800000000005 282.9343499999999L406.48199999999974 283.0132499999999L401.16949999999974 286.0720999999998L397.28999999999985 284.5724999999999L393.1964999999997 285.4717499999998L391.82799999999986 277.57665000000003L389.57749999999976 280.99649999999997L383.7545 278.65375L378.1049999999999 281.4686499999999L373.2249999999999 277.74984999999987L367.8829999999999 281.67519999999996L365.4539999999997 287.5401499999998L367.5074999999998 302.7114499999999L362.6985000000002 304.29029999999983L366.19699999999966 309.0213L360.71950000000015 317.29964999999993L377.54099999999994 332.86824999999993L376.55550000000005 337.04565L378.43999999999994 338.0733999999998L374.4585000000001 343.0677499999999L370.4899999999998 343.73615L366.96799999999996 351.5679L392.45149999999967 365.29094999999984L395.82600000000014 367.33575L390.3204999999997 372.7522499999998L390.7679999999999 380.64670000000007L388.14250000000015 383.87865000000005L374.323 379.90294999999975L371.1514999999997 384.95224999999976L359.12949999999967 381.82080000000013L361.01099999999974 371.99805L353.30299999999966 374.5758999999998L352.02099999999973 372.82005L350.0274999999999 373.67334999999997L346.0975000000002 378.81509999999963L339.65750000000014 379.32924999999983L336.23400000000004 381.92440000000005L340.0599999999997 394.4655500000002L336.2450000000001 395.66855000000004L337.7139999999997 403.5555500000001L335.6819999999999 404.39269999999993L328.399 399.6506500000001L324.2935 401.2228999999999L315.88149999999985 399.39245L311.66650000000004 400.27829999999966L313.00549999999987 410.7014000000001L315.94150000000013 416.18165000000005L319.7230000000002 418.24240000000003L313.7515000000002 417.9709L307.8375 420.1024499999997L299.00350000000003 414.65164999999985L297.8159999999997 417.5320500000001L294.77149999999995 416.8849500000002L288.7529999999998 418.6019999999999L281.06799999999964 414.61074999999965L275.1029999999997 423.54889999999983L267.64599999999973 427.9598999999999L259.07249999999976 426.49305L255.46850000000006 426.21139999999997L252.8955000000002 423.4435499999998L248.00900000000013 420.25830000000013L243.00399999999968 429.68085L234.47149999999965 429.8801L228.50250000000017 438.43805000000003L226.19849999999985 438.10930000000013L228.57449999999972 427.43244999999973L226.54999999999973 419.40109999999976L222.40099999999984 419.1411500000001L205.6434999999999 429.00079999999974L199.59400000000016 430.06715000000014L194.2025000000001 427.53394999999983L192.1334999999999 421.94260000000014L188.8409999999999 419.8047999999997L181.00799999999992 422.62280000000004L181.73599999999965 429.12979999999976L178.29999999999984 431.69160000000005L178.09199999999976 433.8631000000001L171.3130000000001 434.29085000000015L167.79299999999978 442.03194999999965L159.7629999999998 440.10160000000013L158.33899999999971 444.0820999999997L161.2700000000001 447.19480000000004L163.14549999999997 450.96449999999976L161.88549999999964 452.65360000000015L153.62799999999993 452.8730999999996L143.0005 450.01045000000005L134.4074999999998 451.76469999999966L132.77600000000007 443.5504499999999L127.00699999999983 444.8933500000001L123.13400000000001 449.9517499999999L126.01699999999994 455.8937L125.56350000000009 460.2575999999996L128.47699999999975 463.50974999999977L131.97400000000016 466.07009999999974L129.20399999999972 474.49614999999966L127.06799999999987 475.13450000000006L114.42799999999977 471.24769999999984L94.3995000000001 472.2265999999999L90.86399999999969 474.06255000000016L89.70199999999977 478.05229999999966L95.79200000000014 483.3012999999997L114.9675000000002 483.25729999999993L115.18950000000018 491.7139499999999L111.75650000000019 494.41045L111.48349999999994 498.7940499999999L119.89699999999971 497.94655000000006L125.53150000000016 500.5997999999997L131.93699999999978 500.64825000000013L136.26599999999996 505.37630000000007L132.51499999999965 512.8591500000002L128.6084999999997 514.1418999999999L124.58500000000015 512.9916499999999L122.60099999999966 516.2161999999998L115.9269999999998 518.7960499999999L120.25249999999971 519.9321L123.3605 525.9186500000001L122.25500000000011 527.8826999999999L106.23800000000017 535.9567999999999L100.08649999999989 542.2999500000001L101.51250000000005 546.5135999999998L107.34499999999969 549.7788L113.59300000000019 547.3306L117.76250000000005 548.7614999999996L130.91799999999978 548.7614999999996L133.6975000000001 554.3394499999997L151.04649999999992 551.9609499999999L148.65549999999985 564.6423500000001L152.5479999999999 569.9404000000002L154.40699999999993 577.8274000000001L156.4240000000001 580.85745L159.99700000000018 581.6882L164.51899999999966 585.0197999999998L172.88250000000005 585.1437000000001L174.37099999999987 586.6136500000002L172.1395000000001 591.9335499999997L175.41099999999972 599.0288499999999L177.3599999999999 599.9670999999998L183.1329999999997 602.8985500000001L185.60850000000016 613.43445L188.55099999999993 616.54505L188.34949999999992 618.7094L184.7339999999997 621.0786499999997L190.5649999999997 623.19065L197.9849999999999 618.7481L208.75200000000007 616.88345L212.47749999999996 619.1836499999997L214.1055 623.2566499999998L216.1439999999999 626.8569499999999L230.67099999999982 623.4940500000002L234.51799999999992 632.6323499999999L247.10199999999986 630.0963499999998L251.97599999999966 626.4863L260.60749999999985 632.6418499999997L263.33500000000015 622.3590499999998L267.80249999999967 615.1640999999997L276.4474999999999 622.0111999999997L289.1784999999999 618.2014999999999L290.1830000000001 613.9525999999998L287.83500000000004 605.5623999999998L288.96799999999985 599.1539500000001L287.20950000000016 597.8624999999997L290.94449999999995 595.8898999999999L297.0044999999999 597.9145500000002L307.56550000000004 604.9126499999998L313.18100000000015 611.2811999999999L324.40499999999986 614.5322999999999L324.2584999999997 604.2406500000002L326.71400000000006 598.39105L323.4559999999999 595.7876000000001L322.0814999999999 585.12465L327.6065 582.0059999999999L335.9825000000001 583.13795L336.4224999999999 581.0017500000001L332.7800000000002 578.6206999999999L335.1080000000002 574.9438999999998L344.06499999999994 580.0489500000001L352.0279999999997 581.9703999999999L352.80899999999974 583.8841L354.8989999999998 583.7379000000001L358.0495000000002 576.1072499999998L364.25149999999974 575.2191500000001L367.3770000000002 572.5726L367.57000000000005 562.6798499999998L370.4034999999999 559.56225L376.67599999999993 558.5948499999997L382.1519999999998 555.4042999999999L385.8064999999999 557.1739L387.4705 561.0898999999997L391.49 561.2336500000001L396.148 553.7256L404.67550000000017 560.7343999999998L410.8864999999997 559.4312L421.5069999999997 561.2355499999999L429.33850000000007 557.7171000000001L431.2610000000001 558.7576499999998L434.0474999999998 555.4972L442.29299999999967 553.8992499999997L443.37249999999983 549.8061499999997L444.5224999999999 546.5651499999999L455.5525 552.3763499999998L459.5585 551.9278499999998L460.4399999999998 547.7924999999996L470.8109999999999 549.2329499999996L470.9404999999998 542.7606499999999L478.0525 540.9635999999998L481.4850000000001 536.1438999999998L485.63049999999976 522.1524999999999L487.0010000000002 520.44345L491.2209999999999 521.1521500000001L494.5285000000001 510.16609999999986L488.38149999999985 509.56289999999996L487.48400000000004 505.80884999999995L489.31899999999985 502.07419999999985L496.19249999999965 492.5979499999997L501.60349999999994 495.6958L509.13149999999973 492.07404999999966L515.231 494.1268499999998L516.137 489.93955L508.6250000000001 479.7189499999999L510.1740000000001 475.7332499999998L512.2640000000001 475.42459999999977L514.2374999999998 479.3402499999999L516.2804999999997 479.3886999999998L518.3080000000001 475.60955000000007L512.4604999999997 461.5844999999999L514.1654999999997 453.63370000000003L512.2345000000001 446.9867500000001L513.8664999999997 441.26209999999986L520.3055 436.5656499999997L523.2049999999998 432.15580000000017L525.8440000000002 420.73864999999984L519.4925000000001 419.6936500000001L512.167 410.3513000000001L511.02899999999977 406.61714999999987L518.3895000000001 403.04239999999965L517.987 397.18729999999965L520.8539999999999 394.0730499999998L515.8709999999996 386.60769999999985L517.9969999999997 375.8084499999998L522.9840000000002 371.37564999999995L518.5935000000001 361.53695L514.2144999999999 360.74794999999995L518.6865 348.75204999999994L512.3034999999999 345.4487499999999L506.5145000000001 344.16574999999995L498.7874999999997 345.68690000000004L498.50300000000004 340.7774999999998L496.8615 340.0565L502.43899999999996 334.02874999999995L501.7099999999999 325.52144999999996L504.0875 321.9620999999998L500.36599999999964 320.8883499999999L498.87400000000014 313.8118L495.27049999999974 311.3240499999998L494.30849999999964 317.5117499999999L490.188 318.82524999999987L487.7724999999998 322.43299999999977L479.10799999999995 322.5950999999998L477.1195 322.1734999999998L472.8159999999997 322.28115L469.32000000000016 319.74339999999984L463.4249999999997 318.3248499999999L459.9844999999999 311.04719999999986L458.0464999999998 305.1479999999998L447.8219999999999 305.8600999999999z">
      <title id="t113">Quatrième circonscription d'Eure-et-Loir</title>
      <desc id="d113">Cantons de : Auneau, Bonneval, Brou, Châteaudun, Cloyes-sur-le-Loir, Janville, Orgères-en-Beauce, Voves</desc>
    </path></svg>