<svg xmlns="http://www.w3.org/2000/svg" version="1.1" xmlns:xlink="http://www.w3.org/1999/xlink" xmlns:svgjs="http://svgjs.dev/svgjs" width="744.1435" height="631.5482499999998" fill="#eeeeee" stroke="#cccccc" xmlns:sodipodi="http://sodipodi.sourceforge.net/DTD/sodipodi-0.dtd"><path class="circo" id="id-029-01" d="M452.8994999999999 401.16220000000027L450.57499999999993 404.28270000000026L447.43000000000006 409.68564999999984L440.6975000000001 414.3996999999999L442.87249999999983 418.05604999999986L442.57349999999985 430.80520000000007L438.7935 440.44535000000025L437.1204999999999 453.2995500000001L435.47800000000007 454.7056999999998L429.15100000000007 454.20604999999995L421.2070000000001 461.28635L426.86850000000004 469.3214500000002L416.31600000000003 470.67800000000005L410.9474999999999 467.7284499999999L406.79150000000004 468.1027000000003L415.8130000000001 477.1309499999998L419.3499999999999 489.70405L415.4424999999999 488.6949999999999L406.87249999999995 479.1929000000002L398.7689999999999 485.85245000000015L395.3509999999999 483.13034999999985L389.7080000000001 485.87594999999993L387.34500000000014 482.37390000000033L384.62350000000004 485.5292L382.8509999999999 493.84150000000005L391.9234999999999 498.97324999999995L391.69449999999995 505.35589999999985L393.59400000000005 509.18424999999985L391.06100000000015 516.6942500000002L399.1685 518.8343499999999L402.82400000000007 523.9513999999999L404.1244999999999 525.8727999999999L403.90300000000013 526.2654L410.0875000000001 534.5781999999999L409.18950000000007 540.4764500000001L413.41099999999994 547.6586L421.86950000000013 546.5898500000001L421.03200000000004 538.1583500000002L424.09800000000007 528.2113999999999L427.6719999999999 528.5627999999999L427.6065000000001 525.6799500000002L433.4615000000001 525.1484000000003L436.2779999999999 521.7120500000001L436.28550000000007 512.4004L432.0835000000001 510.94085000000035L436.381 509.6563999999998L435.94550000000015 504.8157499999999L433.4314999999999 503.63259999999997L437.12200000000007 504.61134999999985L440.10299999999984 501.8984500000002L433.83500000000015 496.24210000000033L434.31100000000004 491.6211000000001L436.2925 495.9735500000002L442.89 499.7592L443.73299999999983 505.25814999999994L442.4565 511.5437L437.65499999999986 513.3256000000003L437.72350000000006 517.8947000000003L443.08849999999995 518.00575L448.4920000000001 511.84769999999986L443.8605 518.8362500000003L454.5944999999999 524.0756999999999L453.02049999999997 524.17785L450.2505000000001 522.5989500000001L442.3895 519.0665500000002L438.096 519.3057000000001L437.66149999999993 522.2284500000003L434.0015000000001 526.1943499999998L428.659 526.3295000000003L428.09199999999987 529.41905L425.0150000000001 529.3201000000001L423.07000000000005 537.1932999999999L423.92549999999983 545.1369000000002L429.6825 549.4423000000004L434.76150000000007 546.9943000000003L430.85500000000013 550.2866000000004L431.9920000000001 553.076L439.1590000000001 557.1510000000003L435.36400000000003 555.96595L433.64099999999996 559.0197500000002L436.54949999999997 563.3595L440.4854999999999 563.5242500000002L441.0559999999999 569.0429000000004L444.6550000000001 569.5300499999998L447.2545000000001 567.1430499999999L450.8960000000001 567.3356500000002L449.52549999999985 561.1501000000001L452.02199999999993 565.8259499999999L455.4960000000001 563.1884499999999L453.1859999999999 566.4594999999999L463.7745 574.7912499999998L447.50749999999994 569.1981000000001L466.77200000000016 578.5285000000001L494.85249999999996 573.6986500000003L491.73199999999997 569.3748500000002L488.3235000000001 555.9387000000002L495.20550000000003 550.87165L490.149 551.4699500000004L487.7755000000001 546.7794000000001L491.98300000000006 548.7070500000002L493.7130000000001 539.7841000000003L495.4870000000001 548.1726999999998L503.3895 547.9184999999998L506.99300000000005 542.14075L505.6814999999999 531.51575L511.00700000000006 528.4143500000002L513.2175 522.4200500000004L509.76999999999987 520.11655L503.35300000000007 520.96535L496.861 515.6485999999998L491.03150000000016 518.1040500000004L492.8259999999999 509.75795000000033L489.3159999999999 501.8699000000001L492.32500000000005 491.92015L498.00599999999986 492.2014500000003L504.34450000000015 462.3827000000003L495.2845000000001 456.8873499999998L498.5379999999999 454.56519999999983L504.6384999999999 454.39805000000007L509.30600000000015 450.5677499999999L519.9425000000001 446.62000000000006L539.0419999999999 430.2988000000002L536.5165000000001 426.95685L528.3925 429.0659000000002L524.988 421.2500000000003L525.9535000000001 419.3142000000003L528.462 416.2766500000001L527.512 406.05064999999996L524.0589999999999 404.7213500000001L522.742 401.1965999999998L514.626 399.40984999999984L513.6395 393.1345999999999L510.31549999999993 390.4939500000003L512.4415 386.8077500000001L511.7534999999999 384.7852000000003L505.048 384.60679999999996L483.73299999999983 391.08120000000014L479.54449999999997 389.9703500000001L476.56950000000006 380.44085000000024L469.16049999999996 377.85780000000017L461.16049999999984 378.7651500000001L458.9385 379.0110999999999L458.30949999999984 381.1570000000003L458.5545000000001 394.2904999999999L452.8994999999999 401.16220000000027z">
      <title id="t114">Première circonscription du Finistère</title>
      <desc id="d114">Cantons de : Briec, Fouesnant, Quimper I, Quimper II, Quimper III</desc>
    </path><path class="circo" id="id-029-02" d="M253.81350000000012 202.1699000000001L254.71349999999987 203.97639999999996L252.49049999999997 203.9700000000002L248.4554999999999 198.90445L244.1154999999999 198.67379999999997L229.42549999999997 208.36610000000007L232.78949999999995 219.87715000000009L242.46500000000012 231.07050000000015L244.85949999999988 227.76184999999998L253.5199999999999 225.59860000000015L255.22900000000007 233.15615000000008L260.0754999999999 235.02295000000004L265.0680000000001 234.04439999999994L269.9145 229.56385000000012L272.92099999999994 233.29194999999999L273.59249999999986 240.15725000000003L279.21299999999985 238.16095000000018L283.7025000000001 238.38105000000013L289.7015 235.53780000000017L298.1355000000001 237.41479999999996L299.7420000000001 228.8187000000002L294.55899999999997 225.04635000000007L289.63749999999993 218.13105000000007L290.7115 214.40675L288.6909999999999 210.79605000000015L295.3019999999999 205.45164999999997L297.0999999999999 197.0893000000001L300.81499999999994 195.16260000000017L300.8755000000001 188.86840000000007L294.9214999999999 191.12934999999993L288.57849999999996 190.11555000000016L284.21299999999985 183.39535000000012L282.5564999999999 182.00630000000018L280.74400000000014 183.1755000000001L274.65150000000006 192.00410000000005L272.7929999999999 188.84530000000012L270.4770000000001 191.45875000000018L266.821 190.9627500000002L263.19049999999993 195.10365000000007L261.17550000000006 195.16324999999995L259.99350000000004 198.87304999999998L258.09350000000006 198.1977500000002L253.81350000000012 202.1699000000001z">
      <title id="t115">Deuxième circonscription du Finistère</title>
      <desc id="d115">Cantons de : Brest-Bellevue, Brest-Cavale-Blanche-Bohars-Guilers, Brest Centre, Brest-l'Hermitage-Gouesnou, Brest-Kerichen, Brest-Lambezellec, Brest-Saint-Marc</desc>
    </path><path class="circo" id="id-029-03" d="M306.0937499999999 103.125L303.7499999999999 106.5625L304.6874999999999 108.4375L293.4374999999999 117.5L291.7187499999999 117.1875L287.9687499999999 119.375L279.6874999999999 129.6875L268.5937499999999 128.4375L268.9062499999999 132.34375L266.2499999999999 130.9375L258.9062499999999 127.8125L258.4374999999999 131.09375L260.3124999999999 136.875L253.74999999999986 144.53125L246.09374999999986 129.0625L237.65624999999986 126.875L234.84374999999986 126.09375L230.93749999999986 128.125L232.34374999999986 124.0625L228.90624999999986 116.25L216.71874999999986 112.34375L209.06249999999986 116.09375L203.28124999999986 116.5625L202.18749999999986 118.125L199.53124999999986 114.6875L194.53124999999986 118.75L192.34374999999986 116.09375L185.78124999999986 116.875L184.84374999999986 130.3125L183.59374999999986 128.125L177.8125 125.15625L173.90625 126.71875L165.78125 134.53125L164.6875 141.09375L160.9375 143.4375L159.53125 150L158.28125 151.875L156.09375 153.28125L153.75 163.28125L155.625 171.71875L158.28125 175.15625L155.9375 176.25L162.34375 181.09375L173.75 178.75L176.09375 177.1875L178.75 178.90625L164.53125 181.875L161.25 188.125L162.34375 182.96875L160.625 182.5L158.90625 184.375L152.8125 195.3125L152.34375 197.5L154.21875 198.4375L150.625 203.75L146.875 216.25L150.3125 221.71875L154.0625 222.03125L155.46875 234.21875L160.625 240.15625L160.3125 245L154.53125 249.375L149.84375 246.71875L149.21875 251.25L162.96875 249.6875L166.875 247.65625L163.75 250.3125L165 252.03125L162.8125 252.34375L156.25 251.09375L151.71875 253.28125L157.03125 260.0000000000003L154.0625 267.5000000000003L156.09375 267.9687500000003L155.46875 270.1562500000003L159.0625 272.3437500000003L170.15625 270.1562500000003L181.24999999999986 270.4687500000003L186.71874999999986 266.4062500000003L187.18749999999986 257.8125000000003L195.46874999999986 255L206.71874999999986 260.9375000000003L212.96874999999986 262.1875000000003L217.65624999999986 266.4062500000003L219.84374999999986 265.9375000000003L225.93749999999986 265.6250000000003L248.59374999999986 251.25L257.1874999999999 252.8125L268.7499999999999 242.5L273.5937499999999 240.15625L272.9687499999999 233.28125L269.8437499999999 229.53125L264.9999999999999 234.0625L259.9999999999999 235L255.15624999999986 233.125L253.59374999999986 225.625L244.84374999999986 227.8125L242.49999999999986 231.09375L232.81249999999986 219.84375L229.37499999999986 208.4375L244.06249999999986 198.75L248.43749999999986 198.90625L252.49999999999986 203.90625L254.68749999999986 203.90625L253.74999999999986 202.1875L258.1249999999999 198.125L259.9999999999999 198.90625L261.2499999999999 195.15625L263.1249999999999 195.15625L266.8749999999999 190.9375L270.4687499999999 191.40625L272.8124999999999 188.90625L274.6874999999999 192.03125L280.7812499999999 183.125L282.4999999999999 182.03125L284.2187499999999 183.4375L288.5937499999999 190.15625L294.8437499999999 191.09375L300.9374999999999 188.90625L315.4687499999999 185.625L319.2187499999999 187.8125L324.0624999999999 191.25L329.9999999999999 189.84375L337.6562499999999 186.09375L339.3749999999999 182.34375L334.8437499999999 170.3125L336.2499999999999 161.71875L332.3437499999999 152.5L329.8437499999999 141.5625L326.4062499999999 135.78125L329.2187499999999 132.34375L326.5624999999999 130.46875L327.1874999999999 129.0625L327.9687499999999 118.125L324.3749999999999 112.96875L324.5312499999999 112.5L314.8437499999999 106.875L306.0937499999999 103.125zM75.46875 225.625L73.4375 227.96875L76.40625 233.28125L78.75 229.6875L75.46875 225.625z">
      <title id="t116">Troisième circonscription du Finistère</title>
      <desc id="d116">Cantons de : Brest-Plouzané, Brest-Recouvrance, Brest-Saint-Pierre, Plabennec, Ploudalmézeau, Saint-Renan</desc>
    </path><path class="circo" id="id-029-04" d="M475.1562499999999 0L468.2812499999999 3.90625L467.9687499999999 5L468.4374999999999 6.09375L469.5312499999999 6.5625L473.7499999999999 8.125L475.9374999999999 8.125L477.4999999999999 6.40625L479.5312499999999 6.09375L481.2499999999999 7.5L485.7812499999999 7.8125L487.4999999999999 10.46875L488.7499999999999 8.59375L487.9687499999999 5.3125L483.9062499999999 3.59375L480.7812499999999 0.3125L475.1562499999999 0zM489.6874999999999 15.625L483.9062499999999 26.09375L482.6562499999999 16.875L481.0937499999999 17.1875L477.4999999999999 25.15625L469.0624999999999 26.40625L467.3437499999999 30.46875L461.2499999999999 32.34375L460.1562499999999 41.09375L468.9062499999999 41.875L467.6562499999999 42.5L458.1249999999999 42.1875L456.0937499999999 43.59375L460.3124999999999 51.71875L459.8437499999999 53.4375L458.2812499999999 49.21875L449.2187499999999 39.21875L444.8437499999999 39.84375L443.9062499999999 41.875L442.8124999999999 37.5L436.2499999999999 37.1875L427.4999999999999 36.875L414.9999999999999 40.46875L416.4062499999999 53.59375L420.3124999999999 65.9375L417.6562499999999 68.90625L411.4062499999999 67.5L421.4062499999999 84.21875L416.8749999999999 98.28125L411.7187499999999 102.1875L413.1249999999999 106.40625L412.1874999999999 119.375L413.4374999999999 121.875L417.6562499999999 122.5L423.7499999999999 120.625L424.3749999999999 116.40625L427.3437499999999 113.28125L433.4374999999999 111.875L443.2812499999999 119.53125L455.1562499999999 113.59375L463.4374999999999 114.21875L462.6562499999999 125.15625L459.0624999999999 135.78125L459.6874999999999 137.96875L463.7499999999999 139.6875L472.1874999999999 139.53125L474.0624999999999 140.78125L474.3749999999999 147.5L471.7187499999999 158.28125L476.8749999999999 161.5625L493.1249999999999 163.125L492.1874999999999 171.5625L496.8749999999999 181.09375L495.6249999999999 184.375L489.5312499999999 182.03125L484.8437499999999 186.25L480.7812499999999 184.53125L476.7187499999999 185.78125L475.9374999999999 191.71875L472.0312499999999 191.25L457.3437499999999 177.8125L452.9687499999999 177.1875L450.1562499999999 165.78125L442.0312499999999 163.28125L433.2812499999999 167.8125L420.4687499999999 171.875L418.2812499999999 169.6875L414.8437499999999 170L405.9374999999999 175.625L398.4374999999999 172.03125L403.5937499999999 165L399.6874999999999 159.84375L397.4999999999999 159.375L395.7812499999999 163.4375L392.1874999999999 165.78125L391.8749999999999 167.96875L389.5312499999999 171.40625L392.9687499999999 181.09375L388.4374999999999 184.53125L389.2187499999999 186.5625L396.4062499999999 190.625L396.7187499999999 199.21875L399.3749999999999 202.5L393.7499999999999 211.25L397.4999999999999 215.3125L407.9687499999999 229.0625L407.1874999999999 232.96875L413.4374999999999 234.21875L423.4374999999999 242.65625L426.7187499999999 245.46875L435.4687499999999 246.875L445.9374999999999 239.375L451.5624999999999 251.09375L457.4999999999999 253.4375L458.9062499999999 257.3437500000003L462.8124999999999 253.90625L463.5937499999999 253.4375L483.1249999999999 248.125L498.2812499999999 252.5L500.4687499999999 251.71875L502.3437499999999 247.65625L507.9687499999999 236.875L518.2812499999999 225.3125L518.9062499999999 224.84375L532.8124999999999 217.8125L549.5312499999999 212.5L559.0624999999999 207.1875L566.8749999999999 209.0625L568.2812499999999 205L580.1562499999999 200.9375L588.7499999999999 196.40625L601.7187499999999 196.71875L611.2499999999999 192.5L615.6249999999999 192.65625L622.9687499999999 184.53125L630.9374999999999 183.90625L636.7187499999999 178.4375L637.9687499999999 180.15625L642.1874999999999 180L644.8437499999999 185.9375L649.0624999999999 186.71875L649.2187499999999 183.28125L654.2187499999999 181.09375L654.8437499999999 179.21875L652.0312499999999 176.40625L653.2812499999999 172.34375L652.3437499999999 166.25L654.9999999999999 163.28125L660.4687499999999 159.375L671.2499999999999 145L679.8437499999999 137.8125L673.7499999999999 135.9375L665.6249999999999 125.9375L661.8749999999999 127.8125L654.2187499999999 124.84375L660.1562499999999 115.3125L656.4062499999999 107.34375L654.2187499999999 108.125L648.2812499999999 105.15625L641.5624999999999 105.625L638.4374999999999 102.5L636.7187499999999 100.78125L637.0312499999999 92.34375L633.2812499999999 90.78125L631.0937499999999 87.03125L627.0312499999999 63.59375L628.9062499999999 60.15625L631.2499999999999 55.625L637.4999999999999 50.625L630.7812499999999 45.78125L636.0937499999999 37.8125L630.3124999999999 36.875L620.4687499999999 42.1875L616.2499999999999 39.21875L610.9374999999999 40.46875L602.1874999999999 30.3125L591.2499999999999 28.90625L584.6874999999999 28.125L577.6562499999999 32.65625L572.3437499999999 32.03125L569.2187499999999 25.625L565.4687499999999 26.5625L558.9062499999999 21.09375L561.5624999999999 33.4375L554.9999999999999 25.78125L546.5624999999999 41.71875L549.3749999999999 59.53125L546.4062499999999 58.125L545.4687499999999 50.9375L542.3437499999999 51.875L548.9062499999999 78.90625L564.2187499999999 79.6875L548.7499999999999 81.40625L543.9062499999999 88.90625L547.9687499999999 95.78125L544.6874999999999 93.4375L539.0624999999999 95.625L543.7499999999999 92.03125L542.4999999999999 90L544.3749999999999 86.5625L544.3749999999999 79.6875L542.9687499999999 77.65625L534.6874999999999 72.96875L531.2499999999999 71.09375L527.6562499999999 68.125L524.9999999999999 61.875L524.2187499999999 57.65625L530.9374999999999 55.15625L530.3124999999999 52.1875L517.4999999999999 50.46875L514.3749999999999 60.46875L508.5937499999999 62.65625L504.9999999999999 65.15625L506.7187499999999 71.25L504.9999999999999 82.1875L507.9687499999999 87.96875L509.9999999999999 88.90625L508.7499999999999 90.625L511.7187499999999 99.0625L503.5937499999999 86.40625L504.9999999999999 73.28125L502.1874999999999 67.5L504.3749999999999 61.09375L503.9062499999999 52.03125L497.0312499999999 47.1875L499.3749999999999 41.09375L495.4687499999999 35.78125L495.3124999999999 31.40625L499.0624999999999 20L489.6874999999999 15.625z">
      <title id="t117">Quatrième circonscription du Finistère</title>
      <desc id="d117">Cantons de : Lanmeur, Morlaix, Ploudiry, Plouigneau, Plouzévédé, Saint-Pol-de-Léon, Saint-Thégonnec, Sizun, Taulé</desc>
    </path><path class="circo" id="id-029-05" d="M414.9999999999999 40.46875L404.5312499999999 43.59375L393.7499999999999 55L389.6874999999999 60.9375L398.9062499999999 62.03125L401.4062499999999 64.84375L390.7812499999999 66.71875L385.6249999999999 66.25L388.5937499999999 62.03125L379.8437499999999 66.09375L367.0312499999999 66.71875L366.0937499999999 69.53125L356.2499999999999 72.34375L359.0624999999999 74.84375L355.7812499999999 77.03125L351.5624999999999 75.625L349.6874999999999 73.90625L349.3749999999999 72.03125L352.8124999999999 70.3125L348.9062499999999 68.59375L355.3124999999999 65L358.9062499999999 57.34375L352.1874999999999 54.53125L349.8437499999999 51.40625L347.0312499999999 55.625L344.2187499999999 54.0625L344.5312499999999 49.6875L335.6249999999999 49.0625L315.3124999999999 62.03125L299.8437499999999 63.90625L301.7187499999999 67.65625L315.1562499999999 74.84375L300.4687499999999 72.34375L299.3749999999999 76.09375L296.8749999999999 71.5625L287.3437499999999 80.78125L267.4999999999999 83.75L266.0937499999999 77.1875L259.0624999999999 79.84375L253.43749999999986 75L254.21874999999986 82.96875L244.06249999999986 82.5L242.96874999999986 91.875L249.21874999999986 91.40625L245.62499999999986 95.625L254.84374999999986 98.28125L262.8124999999999 101.71875L263.2812499999999 105.625L270.9374999999999 105.3125L280.7812499999999 116.09375L276.7187499999999 114.84375L269.5312499999999 107.03125L263.1249999999999 107.1875L261.7187499999999 102.96875L259.2187499999999 102.8125L252.03124999999986 99.21875L247.49999999999986 101.875L245.31249999999986 99.0625L231.24999999999986 102.34375L235.31249999999986 97.1875L230.46874999999986 93.4375L226.56249999999986 95.3125L226.87499999999986 107.03125L224.68749999999986 112.96875L231.40624999999986 114.375L235.46874999999986 122.03125L248.43749999999986 122.65625L266.4062499999999 129.0625L268.5937499999999 128.4375L279.6874999999999 129.6875L287.9687499999999 119.375L291.7187499999999 117.1875L293.4374999999999 117.5L304.6874999999999 108.4375L303.7499999999999 106.5625L306.0937499999999 103.125L314.8437499999999 106.875L324.5312499999999 112.5L324.3749999999999 112.96875L327.9687499999999 118.125L327.1874999999999 129.0625L326.5624999999999 130.46875L329.2187499999999 132.34375L326.4062499999999 135.78125L329.8437499999999 141.5625L332.3437499999999 152.5L336.2499999999999 161.71875L334.8437499999999 170.3125L339.3749999999999 182.34375L337.6562499999999 186.09375L329.9999999999999 189.84375L324.0624999999999 191.25L319.2187499999999 187.8125L315.4687499999999 185.625L300.9374999999999 188.90625L300.7812499999999 195.15625L297.0312499999999 197.03125L295.3124999999999 205.46875L288.7499999999999 210.78125L290.7812499999999 214.375L289.6874999999999 218.125L294.5312499999999 225L299.6874999999999 228.75L304.2187499999999 228.28125L311.4062499999999 232.65625L318.5937499999999 227.96875L322.1874999999999 227.96875L324.2187499999999 226.40625L326.2499999999999 225.9375L327.9687499999999 222.03125L336.2499999999999 220.9375L344.3749999999999 215L350.6249999999999 213.28125L365.6249999999999 201.09375L367.4999999999999 198.4375L369.2187499999999 198.90625L350.6249999999999 216.40625L354.8437499999999 217.5L360.3124999999999 224.53125L364.3749999999999 235L363.9062499999999 237.1875L355.3124999999999 244.375L353.7499999999999 248.4375L355.6249999999999 254.84375L359.5312499999999 256.2500000000003L369.8437499999999 253.59375L367.3437499999999 245.625L373.5937499999999 245.3125L374.0624999999999 243.28125L375.9374999999999 237.03125L383.1249999999999 232.34375L384.6874999999999 225.78125L383.4374999999999 219.21875L385.6249999999999 212.96875L389.9999999999999 213.59375L393.7499999999999 211.25L399.3749999999999 202.5L396.7187499999999 199.21875L396.4062499999999 190.625L389.2187499999999 186.5625L388.4374999999999 184.53125L392.9687499999999 181.09375L389.5312499999999 171.40625L391.8749999999999 167.96875L392.1874999999999 165.78125L395.7812499999999 163.4375L397.4999999999999 159.375L399.6874999999999 159.84375L403.5937499999999 165L398.4374999999999 172.03125L405.9374999999999 175.625L414.8437499999999 170L418.2812499999999 169.6875L420.4687499999999 171.875L433.2812499999999 167.8125L442.0312499999999 163.28125L450.1562499999999 165.78125L452.9687499999999 177.1875L457.3437499999999 177.8125L472.0312499999999 191.25L475.9374999999999 191.71875L476.7187499999999 185.78125L480.7812499999999 184.53125L484.8437499999999 186.25L489.5312499999999 182.03125L495.6249999999999 184.375L496.8749999999999 181.09375L492.1874999999999 171.5625L493.1249999999999 163.125L476.8749999999999 161.5625L471.7187499999999 158.28125L474.3749999999999 147.5L474.0624999999999 140.78125L472.1874999999999 139.53125L463.7499999999999 139.6875L459.6874999999999 137.96875L459.0624999999999 135.78125L462.6562499999999 125.15625L463.4374999999999 114.21875L455.1562499999999 113.59375L443.2812499999999 119.53125L433.4374999999999 111.875L427.3437499999999 113.28125L424.3749999999999 116.40625L423.7499999999999 120.625L417.6562499999999 122.5L413.4374999999999 121.875L412.1874999999999 119.375L413.1249999999999 106.40625L411.7187499999999 102.1875L416.8749999999999 98.28125L421.4062499999999 84.21875L411.4062499999999 67.5L417.6562499999999 68.90625L420.3124999999999 65.9375L416.4062499999999 53.59375L414.9999999999999 40.46875zM235.46874999999986 123.75L237.65624999999986 126.875L246.09374999999986 129.0625L253.74999999999986 144.53125L260.3124999999999 136.875L258.4374999999999 131.09375L253.74999999999986 126.5625L247.34374999999986 124.6875L238.59374999999986 123.90625L235.46874999999986 123.75z">
      <title id="t118">Cinquième circonscription du Finistère</title>
      <desc id="d118">Cantons de : Guipavas, Landerneau, Landivisiau, Lannilis, Lesneven, Plouescat</desc>
    </path><path class="circo" id="id-029-06" d="M28.28125 173.4375L27.1875 174.0625L28.4375 175.9375L27.96875 177.03125L26.40625 178.59375L24.21875 179.53125L19.84375 178.75L14.375 180.625L12.1875 184.375L2.96875 189.0625L0 193.90625L0.15625 194.84375L1.25 195.15625L3.59375 195L14.375 191.25L15.46875 190.9375L17.65625 191.71875L19.21875 193.28125L18.75 195.46875L12.96875 199.0625L10.15625 202.34375L15.46875 203.28125L16.71875 201.5625L21.09375 200.3125L24.84375 194.84375L33.59375 194.375L38.125 189.375L42.5 188.90625L44.0625 187.1875L43.90625 186.09375L42.96875 185.46875L38.4375 185.3125L35.46875 183.75L36.5625 177.34375L33.28125 177.34375L31.40625 174.53125L28.28125 173.4375zM636.7187499999999 178.4375L630.9374999999999 183.90625L622.9687499999999 184.53125L615.6249999999999 192.65625L611.2499999999999 192.5L601.7187499999999 196.71875L588.7499999999999 196.40625L580.1562499999999 200.9375L568.2812499999999 205L566.8749999999999 209.0625L559.0624999999999 207.1875L549.5312499999999 212.5L532.8124999999999 217.8125L518.9062499999999 224.84375L518.2812499999999 225.3125L507.9687499999999 236.875L502.3437499999999 247.65625L500.4687499999999 251.71875L498.2812499999999 252.5L483.1249999999999 248.125L463.5937499999999 253.4375L462.8124999999999 253.90625L458.9062499999999 257.3437500000003L457.4999999999999 253.4375L451.5624999999999 251.09375L445.9374999999999 239.375L435.4687499999999 246.875L426.7187499999999 245.46875L423.4374999999999 242.65625L413.4374999999999 234.21875L407.1874999999999 232.96875L407.9687499999999 229.0625L397.4999999999999 215.3125L393.7499999999999 211.25L389.9999999999999 213.59375L385.6249999999999 212.96875L383.4374999999999 219.21875L384.6874999999999 225.78125L383.1249999999999 232.34375L375.9374999999999 237.03125L374.0624999999999 243.28125L373.5937499999999 245.3125L367.3437499999999 245.625L369.8437499999999 253.59375L373.1249999999999 253.59375L368.9062499999999 256.5625000000003L360.1562499999999 259.0625000000003L365.9374999999999 261.8750000000003L349.0624999999999 268.5937500000003L355.3124999999999 271.5625000000003L347.9687499999999 273.2812500000003L340.7812499999999 282.0312500000003L352.3437499999999 279.6875000000003L359.3749999999999 283.5937500000003L363.9062499999999 278.1250000000003L368.1249999999999 277.5000000000003L375.6249999999999 272.9687500000003L379.8437499999999 272.6562500000003L376.5624999999999 275.3125000000003L363.7499999999999 281.5625000000003L368.5937499999999 285.1562500000003L374.0624999999999 284.3750000000003L378.7499999999999 290.6250000000003L380.3124999999999 283.4375000000003L389.9999999999999 281.5625000000003L382.4999999999999 285.6250000000003L384.5312499999999 291.4062500000003L401.5624999999999 291.8750000000003L407.0312499999999 292.8125000000003L400.7812499999999 295.7812500000003L397.8124999999999 293.5937500000003L388.2812499999999 297.9687500000003L385.9374999999999 294.8437500000003L371.5624999999999 303.7500000000003L365.9374999999999 302.3437500000003L364.6874999999999 304.3750000000003L368.7499999999999 306.7187500000003L377.6562499999999 312.0312500000003L382.6562499999999 319.6875000000003L392.0312499999999 315.3125000000003L396.5624999999999 322.0312500000003L417.6562499999999 323.7500000000003L419.9999999999999 322.6562500000003L419.3749999999999 324.6875000000003L427.0312499999999 327.8125000000003L443.2812499999999 318.7500000000003L438.2812499999999 323.7500000000003L437.8124999999999 328.4375000000003L434.0624999999999 342.6562500000003L436.2499999999999 326.0937500000003L425.3124999999999 330.9375000000003L417.1874999999999 325.6250000000003L394.6874999999999 324.3750000000003L396.2499999999999 329.3750000000003L393.5937499999999 326.2500000000003L390.9374999999999 317.1875000000003L386.2499999999999 321.7187500000003L380.6249999999999 323.1250000000003L380.6249999999999 320.4687500000003L376.2499999999999 316.5625000000003L369.6874999999999 316.7187500000003L375.1562499999999 313.9062500000003L364.5312499999999 306.2500000000003L361.4062499999999 307.0312500000003L362.6562499999999 304.5312500000003L362.8124999999999 297.9687500000003L367.1874999999999 297.5000000000003L370.4687499999999 300.9375000000003L372.4999999999999 294.5312500000003L353.9062499999999 292.1875000000003L340.3124999999999 299.6875000000003L334.2187499999999 299.2187500000003L327.9687499999999 304.6875000000003L320.6249999999999 306.2500000000003L309.6874999999999 305.3125000000003L304.0624999999999 295.9375000000003L288.5937499999999 295.0000000000003L283.1249999999999 298.9062500000003L270.4687499999999 302.6562500000003L264.3749999999999 293.2812500000003L272.1874999999999 283.7500000000003L267.6562499999999 282.8125000000003L261.0937499999999 295.1562500000003L256.0937499999999 300.6250000000003L249.06249999999986 293.9062500000003L247.34374999999986 287.3437500000003L250.78124999999986 284.5312500000003L253.12499999999986 273.4375000000003L256.4062499999999 267.5000000000003L257.3437499999999 263.7500000000003L254.06249999999986 264.6875000000003L247.65624999999986 266.7187500000003L238.12499999999986 276.4062500000003L242.81249999999986 295.7812500000003L243.28124999999986 299.3750000000003L238.90624999999986 304.2187500000003L231.71874999999986 305.7812500000003L228.59374999999986 298.4375000000003L223.90624999999986 302.3437500000003L215.15624999999986 302.9687500000003L221.56249999999986 306.0937500000003L218.74999999999986 318.7500000000003L223.74999999999986 315.3125000000003L230.62499999999986 319.6875000000003L237.18749999999986 320.9375000000003L247.34374999999986 316.8750000000003L253.12499999999986 322.6562500000003L253.28124999999986 328.2812500000003L240.78124999999986 332.5000000000003L244.68749999999986 334.6875000000003L249.84374999999986 354.8437500000003L249.21874999999986 366.2500000000003L246.09374999999986 369.3750000000003L249.68749999999986 374.5312500000003L253.90624999999986 373.2812500000003L255.46874999999986 366.7187500000003L261.8749999999999 360.4687500000003L266.8749999999999 347.9687500000003L272.8124999999999 341.4062500000003L270.9374999999999 337.1875000000003L272.8124999999999 333.2812500000003L274.8437499999999 332.1875000000003L288.1249999999999 330.7812500000003L296.7187499999999 333.4375000000003L299.6874999999999 336.7187500000003L304.0624999999999 336.4062500000003L312.1874999999999 339.8437500000003L324.0624999999999 343.4375000000003L327.8124999999999 350.6250000000003L342.8124999999999 350.3125000000003L345.9374999999999 352.8125000000003L347.4999999999999 351.7187500000003L349.5312499999999 351.8750000000003L350.9374999999999 355.6250000000003L354.6874999999999 357.1875000000003L358.1249999999999 364.6875000000003L359.9999999999999 370.7812500000003L358.1249999999999 376.5625000000003L358.9062499999999 380.6250000000003L367.0312499999999 382.6562500000003L368.1249999999999 384.5312500000003L368.4374999999999 388.1250000000003L369.5312499999999 396.7187500000003L363.2812499999999 402.3437500000003L363.2812499999999 412.9687500000003L357.4999999999999 420.9375000000003L357.8124999999999 422.9687500000003L367.6562499999999 427.6562500000003L369.3749999999999 431.7187500000003L375.3124999999999 436.0937500000003L385.6249999999999 431.0937500000003L389.0624999999999 429.0625000000003L389.9999999999999 424.8437500000003L396.2499999999999 424.2187500000003L407.6562499999999 418.7500000000003L422.3437499999999 416.0937500000003L429.2187499999999 420.1562500000003L440.6249999999999 414.3750000000003L447.4999999999999 409.6875000000003L450.6249999999999 404.2187500000003L452.9687499999999 401.0937500000003L458.5937499999999 394.2187500000003L458.2812499999999 381.0937500000003L458.9062499999999 379.0625000000003L461.0937499999999 378.7500000000003L469.2187499999999 377.8125000000003L476.5624999999999 380.4687500000003L479.5312499999999 390.0000000000003L483.7499999999999 391.0937500000003L504.9999999999999 384.5312500000003L511.7187499999999 384.8437500000003L512.4999999999999 386.8750000000003L510.3124999999999 390.4687500000003L513.5937499999999 393.1250000000003L514.6874999999999 399.3750000000003L522.8124999999999 401.2500000000003L524.0624999999999 404.6875000000003L527.4999999999999 406.0937500000003L528.4374999999999 416.2500000000003L525.9374999999999 419.3750000000003L524.9999999999999 421.2500000000003L528.4374999999999 429.0625000000003L536.5624999999999 427.0312500000003L539.0624999999999 430.3125000000003L519.9999999999999 446.5625000000003L520.4687499999999 450.9375000000003L524.2187499999999 453.1250000000003L532.8124999999999 452.3437500000003L538.9062499999999 453.9062500000003L541.4062499999999 457.5000000000003L547.8124999999999 457.1875000000003L561.8749999999999 447.3437500000003L564.8437499999999 439.2187500000003L570.4687499999999 440.3125000000003L570.4687499999999 444.3750000000003L572.6562499999999 444.6875000000003L571.8749999999999 438.4375000000003L573.9062499999999 434.5312500000003L584.0624999999999 426.4062500000003L594.6874999999999 423.5937500000003L597.4999999999999 420.3125000000003L598.9062499999999 416.0937500000003L597.8124999999999 409.6875000000003L602.9687499999999 405.9375000000003L601.4062499999999 402.5000000000003L606.5624999999999 395.6250000000003L606.0937499999999 391.4062500000003L611.8749999999999 388.7500000000003L613.2812499999999 384.8437500000003L623.5937499999999 385.1562500000003L631.4062499999999 382.1875000000003L645.1562499999999 372.8125000000003L669.0624999999999 363.2812500000003L668.2812499999999 360.6250000000003L678.2812499999999 358.4375000000003L686.2499999999999 360.9375000000003L688.1249999999999 360.1562500000003L687.4999999999999 356.0937500000003L687.0312499999999 351.7187500000003L679.0624999999999 348.4375000000003L672.6562499999999 336.8750000000003L673.7499999999999 328.1250000000003L677.6562499999999 326.4062500000003L679.2187499999999 320.3125000000003L687.1874999999999 319.0625000000003L685.3124999999999 315.3125000000003L685.6249999999999 309.0625000000003L688.9062499999999 301.7187500000003L686.7187499999999 302.1875000000003L683.7499999999999 299.0625000000003L674.0624999999999 294.8437500000003L674.3749999999999 290.6250000000003L678.4374999999999 291.0937500000003L684.8437499999999 280.0000000000003L688.7499999999999 278.5937500000003L684.9999999999999 276.4062500000003L680.1562499999999 281.0937500000003L676.0937499999999 280.9375000000003L672.6562499999999 263.4375000000003L669.8437499999999 260.3125000000003L673.5937499999999 245.625L673.1249999999999 241.25L650.7812499999999 233.90625L653.1249999999999 230.46875L652.6562499999999 226.25L653.9062499999999 225L654.5312499999999 212.03125L660.4687499999999 205.3125L668.4374999999999 201.5625L675.1562499999999 195.78125L673.4374999999999 192.03125L667.1874999999999 192.65625L662.9687499999999 188.4375L663.1249999999999 186.25L657.3437499999999 185.15625L656.2499999999999 181.40625L654.2187499999999 181.09375L649.2187499999999 183.28125L649.0624999999999 186.71875L644.8437499999999 185.9375L642.1874999999999 180L637.9687499999999 180.15625L636.7187499999999 178.4375zM350.6249999999999 216.40625L335.9374999999999 225.15625L332.6562499999999 224.84375L330.6249999999999 225.9375L327.9687499999999 229.84375L312.3437499999999 237.96875L306.5624999999999 245.78125L299.2187499999999 250.78125L291.0937499999999 273.4375000000003L294.3749999999999 274.2187500000003L313.4374999999999 263.4375000000003L317.6562499999999 263.5937500000003L313.1249999999999 266.0937500000003L306.7187499999999 274.8437500000003L325.3124999999999 273.9062500000003L328.2812499999999 268.1250000000003L327.6562499999999 261.5625000000003L338.9062499999999 254.0625L333.4374999999999 262.5000000000003L336.5624999999999 262.6562500000003L346.4062499999999 253.28125L348.7499999999999 250.625L343.2812499999999 264.3750000000003L357.0312499999999 262.1875000000003L353.9062499999999 259.0625000000003L355.6249999999999 254.84375L353.7499999999999 248.4375L355.3124999999999 244.375L363.9062499999999 237.1875L364.3749999999999 235L360.3124999999999 224.53125L354.8437499999999 217.5L350.6249999999999 216.40625z">
      <title id="t119">Sixième circonscription du Finistère</title>
      <desc id="d119">Cantons de : Carhaix-Plouguer, Châteaulin, Châteauneuf-du-Faou, Crozon, Daoulas, Le Faou, Huelgoat, Ouessant, Pleyben</desc>
    </path><path class="circo" id="id-029-07" d="M329.8437499999999 411.2500000000003L323.1249999999999 412.9687500000003L316.7187499999999 414.8437500000003L307.8124999999999 414.0625000000003L300.6249999999999 419.0625000000003L289.6874999999999 420.1562500000003L285.3124999999999 419.6875000000003L276.2499999999999 426.0937500000003L269.6874999999999 424.6875000000003L256.7187499999999 425.4687500000003L250.93749999999986 431.8750000000003L242.49999999999986 429.5312500000003L236.24999999999986 430.7812500000003L219.84374999999986 438.1250000000003L216.87499999999986 436.0937500000003L215.31249999999986 438.1250000000003L200.46874999999986 436.0937500000003L198.90624999999986 442.8125000000003L180.93749999999986 440.1562500000003L180.46874999999986 442.0312500000003L180.62499999999986 444.2187500000003L183.90624999999986 452.0312500000003L182.34374999999986 453.5937500000003L169.0625 455.9375000000003L175.15625 459.3750000000003L187.81249999999986 464.5312500000003L201.40624999999986 465.0000000000003L206.24999999999986 467.1875000000003L214.99999999999986 462.8125000000003L219.68749999999986 470.0000000000003L227.81249999999986 471.8750000000003L229.99999999999986 471.7187500000003L233.59374999999986 477.0312500000003L243.43749999999986 481.2500000000003L250.62499999999986 473.9062500000003L253.28124999999986 474.6875000000003L255.78124999999986 471.2500000000003L256.7187499999999 459.0625000000003L254.06249999999986 457.9687500000003L257.3437499999999 458.4375000000003L259.8437499999999 456.8750000000003L261.8749999999999 456.0937500000003L275.3124999999999 456.5625000000003L275.6249999999999 457.5000000000003L258.4374999999999 459.2187500000003L256.2499999999999 474.5312500000003L271.7187499999999 480.6250000000003L283.2812499999999 490.7812500000003L287.4999999999999 490.6250000000003L305.1562499999999 506.5625000000003L309.3749999999999 514.3750000000002L314.5312499999999 521.2500000000002L325.1562499999999 541.7187500000002L328.2812499999999 549.5312500000002L339.6874999999999 545.1562500000002L332.1874999999999 552.1875000000002L331.0937499999999 558.2812500000002L334.2187499999999 568.4375000000002L336.2499999999999 577.3437500000002L335.3124999999999 588.9062500000002L322.4999999999999 595.7812500000002L322.3437499999999 597.9687500000002L325.3124999999999 600.9375000000002L326.2499999999999 609.5312500000002L345.4687499999999 609.6875000000002L356.2499999999999 607.9687500000002L362.0312499999999 612.9687500000002L368.2812499999999 607.8125000000002L368.5937499999999 609.8437500000002L365.1562499999999 612.9687500000002L370.9374999999999 614.3750000000002L387.6562499999999 612.5000000000002L393.7499999999999 610.7812500000002L390.6249999999999 601.5625000000002L392.0312499999999 600.3125000000002L395.4687499999999 607.3437500000002L402.4999999999999 611.0937500000002L410.9374999999999 603.7500000000002L410.1562499999999 600.0000000000002L413.7499999999999 599.5312500000002L415.6249999999999 586.5625000000002L406.0937499999999 583.9062500000002L401.7187499999999 574.6875000000002L393.1249999999999 564.6875000000002L399.3749999999999 569.5312500000002L405.6249999999999 557.0312500000002L410.6249999999999 560.7812500000002L412.9687499999999 572.3437500000002L411.7187499999999 583.1250000000002L412.9687499999999 582.8125000000002L414.9999999999999 576.8750000000002L419.6874999999999 573.5937500000002L431.0937499999999 567.1875000000002L435.7812499999999 569.2187500000002L435.4687499999999 562.3437500000002L431.5624999999999 559.0625000000002L431.7187499999999 555.1562500000002L424.0624999999999 547.9687500000002L418.4374999999999 550.1562500000002L411.7187499999999 548.4375000000002L409.2187499999999 540.4687500000002L410.1562499999999 534.5312500000002L403.9062499999999 526.2500000000002L404.0624999999999 525.9375000000002L402.8124999999999 523.9062500000002L399.2187499999999 518.9062500000002L391.0937499999999 516.7187500000002L393.5937499999999 509.2187500000003L391.7187499999999 505.3125000000003L391.8749999999999 498.9062500000003L382.8124999999999 493.9062500000003L384.6874999999999 485.4687500000003L387.3437499999999 482.3437500000003L389.6874999999999 485.9375000000003L395.3124999999999 483.1250000000003L398.7499999999999 485.7812500000003L406.8749999999999 479.2187500000003L415.4687499999999 488.7500000000003L419.3749999999999 489.6875000000003L415.7812499999999 477.1875000000003L406.7187499999999 468.1250000000003L410.9374999999999 467.6562500000003L416.2499999999999 470.6250000000003L426.8749999999999 469.3750000000003L421.2499999999999 461.2500000000003L429.2187499999999 454.2187500000003L435.4687499999999 454.6875000000003L437.1874999999999 453.2812500000003L438.7499999999999 440.4687500000003L442.4999999999999 430.7812500000003L442.8124999999999 418.1250000000003L440.6249999999999 414.3750000000003L429.2187499999999 420.1562500000003L422.3437499999999 416.0937500000003L407.6562499999999 418.7500000000003L396.2499999999999 424.2187500000003L389.9999999999999 424.8437500000003L389.0624999999999 429.0625000000003L385.6249999999999 431.0937500000003L375.3124999999999 436.0937500000003L369.3749999999999 431.7187500000003L367.6562499999999 427.6562500000003L357.8124999999999 422.9687500000003L353.7499999999999 424.5312500000003L345.1562499999999 419.0625000000003L342.4999999999999 419.5312500000003L343.9062499999999 430.4687500000003L338.9062499999999 418.4375000000003L329.8437499999999 411.2500000000003zM115.3125 453.5937500000003L114.0625 455.7812500000003L115.78125 457.5000000000003L116.875 456.0937500000003L120 457.0312500000003L122.65625 461.2500000000003L124.53125 461.5625000000003L126.40625 461.0937500000003L123.125 460.4687500000003L122.5 455.7812500000003L121.09375 456.4062500000003L119.375 455.0000000000003L117.5 455.0000000000003L115.3125 453.5937500000003z">
      <title id="t120">Septième circonscription du Finistère</title>
      <desc id="d120">Cantons de : Douarnenez, Guilvinec, Plogastel-Saint-Germain, Pont-Croix, Pont-l'Abbé</desc>
    </path><path class="circo" id="id-029-08" d="M735.3609999999999 568.3049000000003L730.048 564.8946500000002L717.8654999999999 569.5079000000001L718.2625 577.6602499999999L714.5469999999999 585.1477000000002L708.1075 585.6605500000003L702.556 592.3270499999999L700.3850000000001 592.472L692.7384999999999 588.3482000000001L688.5000000000001 583.61095L688.361 577.5038500000003L686.776 577.2232499999998L683.7755 572.2393000000002L679.6145 571.99035L678.7585 566.1294L677.6074999999998 571.8599000000004L682.6684999999999 574.92805L684.8190000000001 580.3884500000001L679.3865000000001 585.2894999999999L678.3145000000001 594.3033L680.5115 594.74955L681.2679999999999 599.5567000000003L685.8829999999999 602.6533000000004L683.7475 605.4256L687.0999999999999 606.6322499999999L683.3625 614.2054500000004L684.4515 616.6339500000001L682.1429999999999 623.5667500000002L683.4019999999999 627.1625000000004L680.5880000000001 631.5482499999998L668.1285000000001 628.2192L649.4355 627.1947500000001L647.1865000000001 627.4698500000002L633.8699999999999 623.5047499999998L637.1839999999999 613.6665000000003L631.8585 621.5270999999998L625.1899999999999 620.3905499999998L621.3269999999999 623.6774L602.418 609.8066500000002L602.1489999999999 606.6405L608.4830000000001 600.2395500000002L611.565 602.5716500000001L611.5390000000001 597.0921000000001L623.8064999999999 593.40065L630.3689999999999 594.77045L632.9450000000002 594.9008000000001L637.2325 589.9644500000002L631.6945 593.4576000000002L622.975 591.7212000000004L616.8204999999999 594.1715999999999L614.026 595.2274500000001L613.9495000000001 589.07565L609.7009999999999 598.2662000000003L597.607 607.3093000000003L593.5775 597.3484499999997L592.9934999999999 590.5026L589.8989999999999 586.3139500000002L591.9005 581.1711499999999L590.2534999999999 580.0547500000002L591.2689999999999 577.9193L588.3 580.3485500000002L590.33 581.3465499999998L586.7559999999999 585.4344999999998L591.7684999999999 591.3116499999999L592.2695 596.3117000000002L587.6170000000001 597.232L592.1575 598.4706500000002L595.4590000000001 609.3796L585.8104999999999 614.9525500000002L575.0144999999999 613.6260000000002L569.3015000000001 615.8976500000003L565.9904999999999 615.2246L564.456 611.9628000000002L553.7079999999999 610.5645999999999L547.5725000000001 612.4885000000004L545.4604999999999 606.2019999999998L527.2685 586.4887000000001L526.6690000000001 582.2343500000002L529.705 579.1187499999999L530.5200000000001 574.7272499999999L535.6285000000001 570.4397000000004L526.3615 576.1738499999999L522.212 575.1022000000003L520.8895 573.3534499999998L524.243 570.7291999999998L523.8430000000001 568.5665500000002L521.0279999999999 565.2203L514.8774999999999 563.0832499999999L512.1515 557.1237499999997L508.6630000000001 554.4494L506.1014999999999 548.6918499999999L506.99300000000005 542.14075L505.6814999999999 531.51575L511.00700000000006 528.4143500000002L513.2175 522.4200500000004L509.76999999999987 520.11655L503.35300000000007 520.96535L496.861 515.6485999999998L491.03150000000016 518.1040500000004L492.8259999999999 509.75795000000033L489.3159999999999 501.8699000000001L492.32500000000005 491.92015L498.00599999999986 492.2014500000003L504.34450000000015 462.3827000000003L495.2845000000001 456.8873499999998L498.5379999999999 454.56519999999983L504.6384999999999 454.39805000000007L509.30600000000015 450.5677499999999L519.9425000000001 446.62000000000006L520.5235 450.96824999999995L524.253 453.1494999999998L532.8314999999999 452.3160500000003L538.8695 453.8659500000003L541.3404999999999 457.46260000000035L547.8169999999999 457.1612999999999L561.83 447.2762000000003L564.882 439.24015000000026L570.5130000000001 440.3836500000003L570.5145 444.3931999999998L572.6710000000002 444.76325L571.9099999999999 438.3790000000002L573.9585000000001 434.5595499999999L584.1075 426.38679999999994L594.669 423.5992999999999L597.5365 420.3419499999998L608.1324999999999 419.14240000000035L613.6739999999999 422.19239999999985L609.9315 427.7120499999998L611.3895000000001 436.52690000000035L609.9740000000002 438.2728L610.9089999999999 440.31815000000023L622.3465 446.64349999999985L628.1615 470.3857000000002L633.224 477.71980000000013L636.6090000000002 490.5683000000002L644.7089999999998 492.4592500000003L648.5205000000001 491.0083L651.8034999999999 488.1457000000003L658.281 488.34700000000026L661.7049999999999 490.46284999999983L664.9480000000001 487.52460000000013L673.5529999999999 486.7022L677.0995 489.2792L683.4675 490.30350000000027L689.1019999999999 496.79L697.6369999999998 496.3239999999999L702.8035000000001 502.58655000000005L705.0855 512.7824L710.1450000000001 516.1124500000003L711.8675000000001 514.8193000000001L712.9979999999999 508.45755000000025L721.3619999999999 506.8423500000003L731.5185000000001 499.21895000000035L733.5385000000001 498.4755500000003L735.4685 502.3357999999999L737.6135 502.4989500000001L738.496 506.4844000000002L741.941 508.66765000000015L741.956 512.74055L738.6360000000001 518.3673999999999L744.1435 527.8568500000003L742.5089999999999 532.0041000000001L736.3815000000001 534.0265000000002L734.2275 541.95435L738.0290000000001 554.2821000000001L737.4005000000001 565.0384499999998L739.7415 568.3828500000002L735.3609999999999 568.3049000000003z">
      <title id="t121">Huitième circonscription du Finistère</title>
      <desc id="d121">Cantons de : Arzano, Bannalec, Concarneau, Pont-Aven, Quimperlé, Rosporden, Scaër</desc>
    </path></svg>