<svg xmlns="http://www.w3.org/2000/svg" version="1.1" xmlns:xlink="http://www.w3.org/1999/xlink" xmlns:svgjs="http://svgjs.dev/svgjs" width="368.587" height="581.4099999999996" fill="#eeeeee" stroke="#cccccc" xmlns:sodipodi="http://sodipodi.sourceforge.net/DTD/sodipodi-0.dtd"><path class="circo" id="id-02a-01" d="M226.21449999999982 144.35999999999922L227.97249999999963 140.83899999999971L223.25249999999983 123.79599999999982L217.817 121.61949999999933L216.05299999999943 118.16049999999905L216.4199999999994 108.24250000000006L215.04149999999981 99.79049999999916L205.4824999999994 102.17399999999998L198.36000000000013 99.22399999999925L196.8464999999992 96.07799999999997L193.27299999999923 95.90799999999945L188.81250000000023 90.10099999999966L187.0124999999996 90.45999999999935L183.83849999999939 85.6714999999997L173.76300000000015 84.70049999999901L170.14850000000024 82.86899999999946L168.21050000000014 77.36249999999927L164.41450000000032 73.12199999999962L162.9665 71.73450000000003L155.1254999999992 73.30749999999966L145.42550000000006 63.07199999999966L146.77450000000022 55.474999999999L143.34349999999972 50.826999999999316L136.40750000000025 47.310999999999694L136.71499999999924 29.77899999999977L134.89399999999932 29.000499999999647L119.12149999999997 37.23049999999944L106.27299999999991 32.13149999999928L98.34449999999947 32.205999999999904L92.0094999999992 24.71049999999991L78.61850000000004 22.565499999999474L74.23800000000028 18.95599999999945L61.075499999999465 19.198000000000093L60.15649999999937 13.368999999999005L50.5359999999996 12.290499999999156L41.36250000000018 4.928499999999758L31.657500000000027 4.352499999999964L26.0674999999992 6.483499999999367L20.050999999999704 1.72649999999976L14.294999999999618 0L15.92649999999935 3.3819999999991524L12.93549999999982 5.803499999999531L5.694499999999607 5.8189999999990505L5.1395000000002256 1.7210000000000036L2.9655000000002474 0.9039999999993142L1.9380000000001019 7.756999999999152L3.7439999999992324 8.443999999999505L6.581499999999778 11.127500000000055L5.878999999999905 18.92849999999953L7.2899999999992815 26.622999999999593L11.050000000000182 26.661499999999023L21.10649999999964 17.20049999999901L24.920999999999367 16.409499999999753L32.25900000000024 19.523999999998978L36.96450000000027 25.658999999999423L35.792000000000144 29.449999999999363L25.842499999999973 36.068500000000085L26.531999999999698 39.949499999999034L29.506999999999834 42.170999999999594L37.296499999999924 40.656999999999925L41.24749999999949 44.73049999999944L44.202000000000226 46.63099999999986L51.296499999999696 45.45849999999973L51.30800000000022 47.38549999999918L56.364999999999554 50.10099999999966L58.81999999999948 57.07549999999969L62.65199999999936 57.145499999999174L64.08149999999978 61.218999999999824L63.385999999999285 67.80349999999999L44.06499999999937 71.53699999999958L40.843999999999596 73.8409999999999L29.338500000000067 73.5654999999997L28.51350000000025 75.3895L11.943999999999733 81.96949999999902L7.990499999999656 83.82549999999924L4.46399999999926 80.91799999999921L0 82.77999999999906L5.359499999999571 88.71749999999906L8.962500000000091 86.33999999999901L12.857999999999947 86.70399999999972L14.379999999999882 88.87049999999931L11.709999999999354 92.5484999999992L15.205999999999449 95.93499999999949L12.381000000000313 96.70099999999934L11.591499999999542 101.1164999999994L16.720000000000255 100.02799999999979L16.09399999999937 107.22999999999956L18.10549999999921 113.82199999999898L19.825499999999465 114.98299999999972L17.973499999999376 116.416999999999L11.09199999999987 116.77599999999984L8.466999999999416 119.84949999999913L12.162499999999454 122.04399999999964L20.452999999999975 120.45749999999998L22.981999999999516 123.77849999999967L16.92450000000008 128.5235L9.80450000000019 131.7165L8.67399999999975 135.2819999999997L15.533500000000231 131.3939999999991L19.321499999999787 132.3969999999997L22.323000000000093 137.1029999999996L16.624499999999216 145.76349999999934L31.865000000000236 142.6324999999997L33.403999999999314 148.04899999999975L40.27150000000006 147.81349999999975L40.71900000000028 150.04950000000008L44.457499999999754 149.40399999999954L47.25749999999948 151.82050000000004L50.48000000000002 158.60699999999952L52.235999999999194 159.35799999999972L59.53999999999951 157.67099999999914L63.455999999999904 153.6194999999998L68.60699999999952 155.1439999999991L72.03199999999924 163.54649999999992L70.6434999999999 169.1109999999992L72.48949999999923 169.60649999999987L75.40449999999964 174.50249999999983L76.82050000000004 182.07449999999994L84.30499999999938 181.8209999999999L86.76799999999957 184.7709999999995L86.54149999999959 186.04349999999954L88.29250000000002 191.4364999999998L84.94299999999953 196.2489999999991L79.01899999999955 195.21349999999984L79.0160000000003 198.58999999999924L73.95350000000008 202.19549999999913L63.337999999999965 203.5069999999996L56.437499999999545 207.5019999999995L50.36999999999921 212.73199999999974L49.63349999999991 216.49149999999963L48.806999999999334 218.07549999999992L50.69449999999961 223.0435L54.24599999999941 222.75350000000003L54.938999999999396 224.40049999999928L54.675999999999476 229.00099999999952L46.306999999999334 236.54949999999985L40.710000000000264 237.27999999999952L35.31600000000026 235.66299999999956L31.480999999999995 235.20299999999907L23.007499999999936 239.61849999999913L29.616499999999633 253.1790000000001L33.45649999999978 253.0359999999996L35.35799999999995 256.29099999999994L30.2800000000002 269.04649999999947L31.06800000000021 274.8429999999996L29.53149999999937 278.451L41.239499999999225 271.3794999999993L45.05400000000009 270.48599999999965L56.79399999999987 272.9214999999999L64.55050000000028 271.0239999999999L74.529 271.2289999999996L76.46200000000022 270.711L85.03550000000018 265.55999999999926L85.47550000000001 259.56699999999955L82.98299999999927 250.9884999999997L87.61899999999969 244.5105000000001L88.38499999999954 241.7394999999999L92.52700000000004 242.90750000000003L92.16499999999996 246.9584999999995L94.05099999999948 249.9770000000001L97.46699999999919 251.66399999999953L105.00999999999976 251.3855000000001L112.5529999999992 253.87949999999933L112.54999999999995 256.99250000000006L115.36849999999959 257.44449999999915L114.86549999999966 261.6579999999999L119.2509999999993 263.46349999999916L116.87799999999925 266.52349999999956L113.14849999999979 267.8989999999999L111.58400000000029 271.54449999999997L112.19600000000014 273.26099999999997L117.06199999999967 271.13650000000007L118.74399999999923 271.82199999999966L123.03099999999972 268.374L126.55399999999986 269.18649999999957L137.6679999999999 260.9379999999999L133.4794999999997 252.55049999999983L141.21249999999918 245.15899999999988L150.24800000000027 243.40550000000007L155.39800000000014 237.5L169.73499999999945 231.87549999999987L171.6534999999999 228.47149999999942L172.95099999999934 225.0045L184.62750000000028 216.10599999999977L186.43749999999955 212.94549999999958L198.2809999999995 206.2824999999998L199.90049999999997 202.61199999999917L204.5875000000001 198.87200000000007L204.4100000000003 195.05799999999908L210.2469999999994 200.3069999999991L217.51999999999953 197.29849999999942L225.2929999999992 197.83699999999953L230.05049999999983 194.49700000000007L233.93100000000004 195.20999999999958L239.54899999999952 193.25849999999946L242.75750000000016 192.36799999999903L243.6654999999996 188.65799999999922L252.3675000000003 184.80249999999955L250.49999999999955 181.643499999999L252.41899999999987 166.96249999999964L248.1454999999994 158.45649999999978L240.44849999999997 152.55449999999996L234.74649999999997 151.97199999999953L231.13899999999944 147.36999999999966L226.21449999999982 144.35999999999922z">
      <title id="t122">Première circonscription de Corse-du-Sud</title>
      <desc id="d122">Cantons de : Ajaccio I, Ajaccio II, Ajaccio III, Ajaccio IV, Ajaccio V, Ajaccio VII, Celavo-Mezzana, Cruzini-Cinarca, Les Deux-Sevi, Les Deux-Sorru</desc>
    </path><path class="circo" id="id-02a-02" d="M252.337 184.84699999999975L243.74349999999936 188.59699999999975L242.80549999999948 192.34699999999975L239.5245 193.28499999999963L233.8995 195.15999999999963L229.99349999999936 194.53499999999963L225.30549999999948 197.81599999999912L217.49349999999936 197.34699999999975L210.30549999999948 200.31599999999912L204.36849999999936 195.00349999999912L204.5245 198.90999999999963L199.837 202.65999999999963L198.2745 206.25349999999912L186.3995 212.97199999999975L184.68049999999948 216.09699999999975L172.962 225.00349999999912L171.712 228.44099999999912L169.68049999999948 231.87849999999912L155.462 237.50349999999912L150.30549999999948 243.44099999999912L141.24349999999936 245.15999999999963L133.43049999999948 252.50349999999912L137.6495 260.9409999999991L126.55549999999948 269.22199999999975L122.96199999999999 268.4409999999991L118.74349999999936 271.8784999999991L117.02449999999999 271.09699999999975L112.18049999999948 273.2849999999996L111.55549999999948 271.5659999999991L113.11849999999936 267.97199999999975L116.86849999999936 266.5659999999991L119.21199999999999 263.4409999999991L114.83699999999999 261.72199999999975L115.30549999999948 257.5034999999991L112.49349999999936 257.0349999999996L112.49349999999936 253.90999999999963L104.99349999999936 251.40999999999963L97.49349999999936 251.72199999999975L94.05549999999948 250.00349999999912L92.18049999999948 247.03499999999963L92.49349999999936 242.97199999999975L88.43049999999948 241.72199999999975L87.64949999999999 244.53499999999963L82.96199999999999 250.94099999999912L85.46199999999999 259.5349999999996L88.43049999999948 257.0349999999996L90.30549999999948 257.34699999999975L94.05549999999948 262.0349999999996L97.80549999999948 260.6284999999991L101.55549999999948 261.5659999999991L109.68049999999948 272.8159999999991L111.71199999999999 280.1599999999996L109.21199999999999 282.97199999999975L102.33699999999999 286.09699999999975L102.96199999999999 291.4099999999996L105.77449999999999 294.0659999999991L106.24349999999936 302.6599999999996L103.43049999999948 305.6284999999991L91.55549999999948 307.1909999999991L91.55549999999948 308.59699999999975L95.30549999999948 309.5349999999996L102.80549999999948 315.7849999999996L99.52449999999999 320.6284999999991L98.43049999999948 326.5659999999991L92.49349999999936 327.6599999999996L91.08699999999999 326.2534999999991L89.21199999999999 327.0349999999996L82.80549999999948 334.0659999999991L73.43049999999948 332.34699999999975L72.64949999999999 334.0659999999991L81.08699999999999 344.5349999999996L73.27449999999999 355.7849999999996L61.39949999999999 362.6599999999996L54.21199999999999 360.3159999999991L51.24349999999936 362.8159999999991L50.77449999999999 364.84699999999975L51.55549999999948 366.5659999999991L55.46199999999999 365.6284999999991L69.21199999999999 367.34699999999975L70.61849999999936 368.7534999999991L70.46199999999999 376.5659999999991L72.33699999999999 377.1909999999991L97.33699999999999 366.72199999999975L101.08699999999999 367.0349999999996L103.74349999999936 369.84699999999975L99.21199999999999 380.47199999999975L104.68049999999948 387.97199999999975L106.39949999999999 388.4409999999991L110.61849999999936 384.3784999999991L116.08699999999999 382.1909999999991L121.39949999999999 384.6909999999991L128.587 391.2534999999991L143.74349999999936 392.6599999999996L148.587 395.7849999999996L158.2745 395.1599999999996L159.837 400.47199999999975L145.93049999999948 406.72199999999975L142.962 417.97199999999975L140.1495 420.6284999999991L138.74349999999936 419.3784999999991L132.80549999999948 420.0034999999991L118.11849999999936 429.22199999999975L112.49349999999936 425.0034999999991L110.61849999999936 428.1284999999991L107.49349999999936 430.3159999999991L106.08699999999999 443.7534999999991L101.71199999999999 452.1909999999991L102.96199999999999 453.9099999999996L106.39949999999999 455.3159999999991L110.30549999999948 462.0349999999996L106.24349999999936 466.2534999999991L104.36849999999936 469.22199999999975L108.89949999999999 471.8784999999991L114.05549999999948 471.4099999999996L115.77449999999999 473.1284999999991L119.68049999999948 477.1909999999991L127.49349999999936 477.6599999999996L132.6495 480.0034999999991L132.80549999999948 483.9099999999996L128.11849999999936 490.3159999999991L129.99349999999936 493.4409999999991L134.36849999999936 492.97199999999975L142.337 489.6909999999991L148.74349999999936 495.0034999999991L146.712 499.84699999999975L158.74349999999936 499.0659999999991L162.0245 509.5349999999996L167.962 506.5659999999991L170.30549999999948 509.22199999999975L179.837 509.0659999999991L187.962 517.0349999999996L193.43049999999948 511.8784999999991L195.1495 515.7849999999996L198.11849999999936 518.2849999999996L202.80549999999948 515.9409999999991L202.337 520.4719999999998L206.087 525.6284999999991L211.712 520.7849999999996L212.80549999999948 527.9719999999998L217.6495 525.6284999999991L225.7745 517.1909999999991L229.5245 516.4099999999996L224.68049999999948 524.6909999999991L224.212 532.1909999999991L226.3995 535.3159999999991L229.99349999999936 536.5659999999991L236.087 532.1909999999991L237.80549999999948 535.6284999999991L245.30549999999948 537.0349999999996L245.93049999999948 538.9099999999996L241.087 544.8469999999998L240.93049999999948 548.7534999999991L237.0245 552.8159999999991L234.5245 560.3159999999991L236.24349999999936 563.7534999999991L238.2745 564.2219999999998L249.99349999999936 561.8784999999991L254.68049999999948 565.6284999999991L260.462 565.9409999999991L261.712 566.7219999999998L260.3054999999995 568.1284999999991L267.8054999999995 569.8469999999998L271.5554999999995 578.5969999999998L273.2745 579.5349999999996L288.8995 578.4409999999991L290.462 572.8159999999991L299.5245 560.3159999999991L302.1804999999995 555.0034999999991L305.3054999999995 552.8159999999991L307.49349999999936 545.3159999999991L305.61849999999936 544.8469999999998L300.61849999999936 547.6599999999996L292.0245 555.7849999999996L290.3054999999995 556.7219999999998L288.587 556.0969999999998L287.49349999999936 552.3469999999998L290.9304999999995 551.0969999999998L292.49349999999936 545.4719999999998L291.087 541.7219999999998L291.5554999999995 536.2534999999991L298.8995 533.2849999999996L307.337 524.8469999999998L311.087 523.5969999999998L311.24349999999936 520.0034999999991L315.9304999999995 516.4099999999996L317.6495 512.8159999999991L316.5554999999995 503.7534999999991L313.11849999999936 505.6284999999991L311.24349999999936 502.34699999999975L315.61849999999936 495.6284999999991L312.337 488.9099999999996L312.8054999999995 487.1909999999991L318.4304999999995 485.3159999999991L323.587 479.0659999999991L333.11849999999936 471.5659999999991L338.74349999999936 470.1599999999996L343.4304999999995 467.34699999999975L344.99349999999936 459.84699999999975L351.86849999999936 450.6284999999991L351.087 448.9099999999996L347.1804999999995 449.0659999999991L341.5554999999995 449.84699999999975L337.337 445.6284999999991L331.5554999999995 444.5349999999996L322.49349999999936 454.84699999999975L320.7745 455.6284999999991L317.6495 453.1284999999991L316.24349999999936 449.5349999999996L317.337 443.59699999999975L325.3054999999995 437.97199999999975L325.3054999999995 432.1909999999991L328.8995 430.6284999999991L328.74349999999936 432.5034999999991L332.962 436.72199999999975L344.6804999999995 436.2534999999991L345.61849999999936 432.97199999999975L343.11849999999936 427.8159999999991L344.837 424.3784999999991L348.74349999999936 423.9099999999996L352.0245 425.7849999999996L358.587 418.59699999999975L358.8995 408.9099999999996L354.36849999999936 402.97199999999975L358.587 396.5659999999991L365.462 393.1284999999991L367.337 383.4409999999991L366.24349999999936 379.84699999999975L367.8054999999995 376.4099999999996L366.86849999999936 372.6599999999996L368.587 353.2849999999996L367.8054999999995 349.5349999999996L364.212 347.97199999999975L365.1495 340.3159999999991L363.587 334.5349999999996L367.962 321.2534999999991L366.5554999999995 299.5349999999996L359.99349999999936 295.1599999999996L355.9304999999995 295.3159999999991L346.087 302.0349999999996L343.8995 305.47199999999975L338.587 307.97199999999975L334.6804999999995 312.5034999999991L327.0245 314.6909999999991L326.712 310.7849999999996L323.8995 308.2849999999996L316.24349999999936 307.8159999999991L310.61849999999936 309.84699999999975L299.837 305.1599999999996L295.9304999999995 305.7849999999996L292.337 301.2534999999991L295.9304999999995 290.0034999999991L296.3995 286.2534999999991L301.86849999999936 277.97199999999975L302.1804999999995 274.0659999999991L301.5554999999995 272.1909999999991L300.3054999999995 270.6284999999991L295.3054999999995 267.34699999999975L289.5245 267.8159999999991L286.24349999999936 265.9409999999991L293.587 257.34699999999975L287.8054999999995 252.65999999999963L290.3054999999995 247.65999999999963L291.712 234.69099999999912L289.36849999999936 232.03499999999963L289.212 224.69099999999912L287.1804999999995 221.72199999999975L289.5245 202.97199999999975L274.837 201.25349999999912L263.74349999999936 203.44099999999912L259.99349999999936 196.56599999999912L251.712 188.59699999999975L252.337 184.84699999999975zM305.7745 575.9409999999991L303.4304999999995 577.5034999999991L303.4304999999995 578.4409999999991L306.087 579.6909999999991L307.1804999999995 581.2534999999991L308.11849999999936 581.4099999999996L309.0554999999995 579.8469999999998L310.7745 580.1599999999996L311.86849999999936 578.5969999999998L311.5554999999995 577.8159999999991L309.5245 577.6599999999996L308.587 576.0969999999998L305.7745 575.9409999999991z">
      <title id="t123">Deuxième circonscription de Corse-du-Sud</title>
      <desc id="d123">Cantons de : Ajaccio VI, Bastelica, Bonifacio, Figari, Levie, Olmeto, Petreto-Bicchisano, Porto-Vecchio, Santa-Maria-Siché, Sartène, Tallano-Scopamène, Zicavo</desc>
    </path></svg>