<svg xmlns="http://www.w3.org/2000/svg" version="1.1" xmlns:xlink="http://www.w3.org/1999/xlink" xmlns:svgjs="http://svgjs.dev/svgjs" width="419.23650000000066" height="678.5889999999995" fill="#eeeeee" stroke="#cccccc" xmlns:sodipodi="http://sodipodi.sourceforge.net/DTD/sodipodi-0.dtd"><path class="circo" id="id-02b-01" d="M374.47700000000054 175.45550000000048L375.2200000000005 169.98050000000035L377.37449999999967 156.91550000000007L380.3880000000004 149.5825000000002L380.9974999999997 141.68949999999995L390.18050000000017 123.70699999999943L388.2955000000004 106.69849999999997L386.0400000000004 101.15800000000036L387.05350000000067 91.0895000000005L385.317 87.40999999999985L385.69349999999986 83.64799999999946L382.9595000000006 78.44650000000001L384.2825000000005 74.83500000000049L382.7184999999997 71.52399999999943L382.97050000000013 64.24250000000029L380.9145000000001 60.680999999999585L381.2950000000001 50.485499999999774L379.4380000000001 44.73299999999995L380.7375000000002 43.13800000000015L374.7810000000004 31.519499999999425L373.3749999999998 27.694000000000187L377.05150000000003 14.457499999999754L360.42800000000057 0L353.27999999999975 2.96100000000024L344.4655 0.8849999999995362L339.1364999999996 3.2000000000005002L333.29000000000065 2.6215000000001965L327.3294999999996 7.550499999999829L327.3300000000006 18.810499999999593L330.0655000000006 23.83299999999963L328.8135 27.457500000000437L330.01800000000003 28.96949999999947L328.8274999999999 32.55149999999958L333.40100000000007 39.03500000000008L330.31799999999976 46.490499999999884L334.08649999999966 51.021500000000515L320.02450000000067 63.618000000000166L318.0230000000006 66.7330000000004L320.7420000000002 72.11199999999963L320.82250000000045 78.20900000000051L325.9350000000006 84.2145000000005L324.0620000000001 84.88950000000045L313.0735000000004 103.4534999999994L317.02099999999973 107.76499999999942L319.9865 115.16499999999951L324.93150000000014 119.99549999999999L326.8754999999999 125.6230000000005L325.7484999999997 145.06200000000035L327.43349999999964 157.19650000000001L327.08349999999996 161.10850000000028L321.1360000000002 169.27099999999996L318.22850000000017 171.3689999999997L317.79449999999997 182.4509999999998L307.1029999999996 193.95700000000033L303.2624999999996 194.10799999999995L296.3110000000006 181.91799999999944L290.3435000000002 176.9455000000005L290.0604999999996 170.93349999999987L286.7420000000004 168.6500000000001L280.75950000000034 168.63399999999956L275.55600000000027 160.37249999999972L271.74300000000017 161.31799999999998L265.2729999999997 165.3830000000005L250.8439999999996 159.20150000000035L239.65550000000007 162.80200000000036L233.74750000000063 162.6279999999997L231.03050000000053 165.5574999999999L227.1365000000003 166.0940000000005L223.9835000000005 171.11800000000017L217.9550000000006 171.7145000000005L216.49400000000014 177.4694999999997L212.99300000000017 182.46049999999968L211.66400000000067 183.99999999999977L207.74599999999964 183.66599999999949L210.21100000000047 188.9874999999995L216.78999999999974 192.87400000000048L221.3995 203.69299999999953L226.7775000000006 205.7994999999994L222.2530000000006 211.41399999999976L224.3565000000001 217.05799999999954L238.61150000000066 233.55999999999995L238.7080000000003 237.4675000000002L234.8109999999997 246.3250000000005L238.17949999999996 255.31650000000013L235.11250000000018 260.30650000000037L236.88099999999963 261.2300000000005L237.2739999999999 267.0614999999998L240.41349999999966 272.08650000000034L255.91350000000034 289.8799999999994L263.2310000000007 291.94849999999974L268.28300000000013 286.18150000000014L275.5020000000002 285.02650000000017L275.5650000000003 279.4825000000003L277.8150000000005 272.22849999999994L277.08650000000034 268.57650000000035L278.52499999999964 267.2964999999999L284.30799999999977 262.97950000000014L304.38499999999976 267.2505000000001L306.42650000000003 265.6925000000001L317.8660000000002 269.9985000000004L327.35149999999976 266.71050000000037L337.1749999999997 263.6914999999999L340.7400000000007 263.33549999999946L339.26450000000045 268.96600000000035L340.88449999999966 276.52649999999994L347.6070000000004 282.9295000000002L351.635 283.2320000000004L356.6695000000004 281.27650000000017L359.2115000000001 283.86600000000044L362.78800000000047 284.5590000000004L363.37099999999964 287.5189999999998L367.85349999999994 286.04600000000005L370.9035000000006 282.0674999999994L374.0440000000001 281.1760000000004L382.16300000000047 275.8884999999998L393.7334999999996 274.8675000000003L397.6535000000001 275.3584999999998L404.4754999999998 281.8920000000003L407.8819999999996 281.93599999999947L408.4100000000001 282.19299999999976L405.51649999999995 258.16149999999993L400.5785000000003 247.52650000000017L387.7769999999998 230.2215000000001L378.02099999999996 215.27000000000044L372.21900000000005 201.9799999999998L371.2734999999998 188.3439999999996L374.63050000000067 179.30849999999964L374.47700000000054 175.45550000000048z">
      <title id="t124">Première circonscription de Haute-Corse</title>
      <desc id="d124">Cantons de : Bastia I, Bastia II, Bastia III, Bastia IV, Bastia V, Bastia VI, Borgo, Capobianco, La Conca-d'Oro, Le Haut-Nebbio, Sagro-di-Santa-Giulia, San-Martino-di-Lota</desc>
    </path><path class="circo" id="id-02b-02" d="M116.48500000000013 232.6139999999998L109.84100000000012 236.68499999999995L106.31899999999973 234.79450000000043L98.75300000000038 236.83149999999955L100.30899999999974 242.54699999999957L97.01400000000035 247.53349999999955L97.65700000000038 255.3015000000005L94.82349999999997 258.1095000000005L90.61249999999973 262.18349999999987L82.2784999999999 263.4789999999998L77.83750000000055 259.63250000000016L79.20550000000048 255.7949999999994L69.82200000000034 257.4694999999997L65.02150000000029 259.42350000000033L64.66400000000021 247.60449999999992L58.51499999999987 250.56500000000028L56.950500000000375 255.4340000000002L61.05850000000032 255.6084999999996L59.63349999999991 258.5424999999998L63.81750000000011 264.31799999999953L58.51650000000063 274.01449999999954L61.215499999999565 278.95650000000046L62.549999999999955 281.84049999999957L52.84650000000056 280.5264999999997L47.62699999999995 287.4350000000004L43.31549999999993 285.1795000000004L38.45000000000027 287.2550000000001L38.88599999999997 298.0835000000002L31.49000000000001 310.1774999999998L34.11699999999996 309.9095L43.75450000000001 309.3634999999995L45.06849999999986 314.48549999999955L37.958999999999605 321.0794999999996L41.42000000000053 327.63599999999997L32.020499999999856 328.1110000000001L37.0130000000006 333.5000000000002L38.343999999999596 337.6585L35.33549999999991 343.0759999999998L31.290500000000065 345.9394999999995L26.941000000000486 342.6445000000001L20.89550000000031 341.0125000000005L19.885000000000446 343.30600000000004L14.252999999999929 343.56750000000034L14.240499999999656 346.2950000000001L12.16350000000034 348.3254999999997L16.581499999999778 351.61299999999983L12.201000000000022 353.78450000000043L15.466000000000122 360.4989999999998L8.521500000000515 363.1510000000003L5.1404999999999745 362.3040000000003L0 363.9295000000004L5.7560000000000855 365.6560000000002L11.772499999999582 370.4129999999998L17.36250000000041 368.2820000000004L27.067500000000564 368.8580000000002L36.240999999999985 376.2199999999996L45.86149999999975 377.2984999999994L46.78049999999985 383.1275000000005L59.943000000000666 382.88549999999987L64.32350000000042 386.4949999999999L77.71449999999959 388.6400000000003L84.04949999999985 396.1355000000003L91.97800000000029 396.0609999999997L104.82650000000035 401.15999999999985L120.5989999999997 392.93000000000006L122.41999999999962 393.7085000000002L122.11250000000064 411.2405000000001L129.0485000000001 414.75649999999973L132.4795000000006 419.4044999999994L131.13050000000044 427.0015000000001L140.83049999999957 437.2370000000001L148.67150000000038 435.66400000000044L150.1195000000007 437.05150000000003L153.91550000000052 441.2919999999997L155.85350000000062 446.7984999999999L159.46800000000053 448.6299999999994L169.54349999999977 449.6010000000001L172.71749999999997 454.38949999999977L174.5175000000006 454.0305000000001L178.9779999999996 459.83749999999986L182.55149999999958 460.0075000000004L184.0650000000005 463.15349999999967L191.18749999999977 466.1035000000004L200.7465000000002 463.7199999999996L202.12499999999977 472.1720000000005L201.7579999999998 482.08999999999946L203.5220000000004 485.54899999999975L208.9575000000002 487.72550000000024L213.6775 504.76850000000013L211.9195000000002 508.28949999999963L216.84399999999982 511.2995000000001L220.45150000000035 515.9014999999999L226.15350000000035 516.4840000000004L233.85049999999978 522.3860000000002L238.12400000000025 530.892L236.20499999999993 545.5729999999994L238.07250000000067 548.732L237.35099999999989 552.4675000000002L245.76149999999984 560.4290000000003L249.39700000000016 567.3865000000001L260.47300000000064 565.1535000000001L275.2690000000007 566.9259999999997L272.9430000000002 585.6050000000005L274.9109999999996 588.6514999999997L275.10200000000054 596.0149999999999L277.3770000000002 598.6059999999998L275.94349999999963 611.6070000000002L273.45350000000053 616.6570000000002L279.3309999999997 621.2265000000002L271.9515000000001 629.8924999999997L275.2615000000003 631.7549999999994L281.07650000000035 631.3L286.00900000000024 634.5489999999995L287.3104999999998 636.0519999999997L287.8460000000007 637.9679999999996L287.5999999999999 641.8645000000004L282.1175000000005 650.1430000000005L281.6534999999999 653.8874999999996L277.9939999999999 665.2139999999997L281.64300000000026 669.6785L285.54550000000063 669.1044999999997L296.2995000000001 673.7864999999999L301.8775000000005 671.7755L309.67899999999986 672.1540000000005L312.46350000000007 674.7479999999996L312.67400000000066 678.5889999999995L320.308 676.4994999999999L324.2534999999998 671.934L329.5735000000002 669.3454999999994L331.7994999999996 665.9979999999996L341.6745000000003 659.2290000000003L345.66550000000007 659.049L352.2739999999999 663.4349999999995L350.10200000000054 654.4365000000005L352.3210000000006 641.1415L355.12500000000045 636.0850000000005L358.15950000000043 623.5239999999999L356.8190000000004 618.1055000000003L357.07200000000057 608.3344999999997L368.2484999999997 589.7614999999996L368.9089999999999 588.6509999999998L375.6124999999997 581.4585L392.5279999999998 554.9974999999995L414.7575000000006 523.2674999999995L417.7165000000002 501.0344999999995L416.92549999999983 492.9354999999998L418.77849999999967 470.5894999999998L416.395 456.62149999999997L416.4300000000003 444.3724999999995L417.25450000000023 438.22850000000017L419.23650000000066 420.6700000000001L416.62199999999984 411.17700000000013L411.88999999999965 394.2885000000001L410.99050000000034 389.30349999999976L408.74450000000024 376.90200000000004L407.6769999999999 365.3009999999995L408.79249999999956 356.68499999999995L410.0585000000001 346.3149999999996L412.2505000000001 337.14050000000043L411.18400000000065 329.2655000000002L411.50800000000004 319.837L409.13549999999987 312.6495L407.1659999999997 305.2139999999997L406.3850000000002 298.17750000000046L408.4100000000001 282.19299999999976L407.8819999999996 281.93599999999947L404.4754999999998 281.8920000000003L397.6535000000001 275.3584999999998L393.7334999999996 274.8675000000003L382.16300000000047 275.8884999999998L374.0440000000001 281.1760000000004L370.9035000000006 282.0674999999994L367.85349999999994 286.04600000000005L363.37099999999964 287.5189999999998L362.78800000000047 284.5590000000004L359.2115000000001 283.86600000000044L356.6695000000004 281.27650000000017L351.635 283.2320000000004L347.6070000000004 282.9295000000002L340.88449999999966 276.52649999999994L339.26450000000045 268.96600000000035L340.7400000000007 263.33549999999946L337.1749999999997 263.6914999999999L327.35149999999976 266.71050000000037L317.8660000000002 269.9985000000004L306.42650000000003 265.6925000000001L304.38499999999976 267.2505000000001L284.30799999999977 262.97950000000014L278.52499999999964 267.2964999999999L277.08650000000034 268.57650000000035L277.8150000000005 272.22849999999994L275.5650000000003 279.4825000000003L275.5020000000002 285.02650000000017L268.28300000000013 286.18150000000014L263.2310000000007 291.94849999999974L255.91350000000034 289.8799999999994L240.41349999999966 272.08650000000034L237.2739999999999 267.0614999999998L236.88099999999963 261.2300000000005L235.11250000000018 260.30650000000037L238.17949999999996 255.31650000000013L234.8109999999997 246.3250000000005L238.7080000000003 237.4675000000002L238.61150000000066 233.55999999999995L224.3565000000001 217.05799999999954L222.2530000000006 211.41399999999976L226.7775000000006 205.7994999999994L221.3995 203.69299999999953L216.78999999999974 192.87400000000048L210.21100000000047 188.9874999999995L207.74599999999964 183.66599999999949L206.01049999999987 184.54899999999952L204.85099999999989 192.36350000000016L206.31700000000023 202.0410000000004L201.6319999999996 205.58850000000007L194.01650000000018 207.48299999999972L188.77749999999992 213.3540000000005L185.49750000000017 214.5825000000002L182.62699999999995 212.53450000000043L181.413 213.82200000000012L172.93549999999982 215.21749999999997L159.3655000000001 218.56250000000045L155.9884999999997 217.36899999999991L153.89850000000024 214.44499999999948L149.11849999999959 215.96949999999993L141.32000000000062 221.57500000000027L131.39999999999986 222.1219999999994L128.27800000000025 229.22000000000025L124.94649999999979 233.08350000000019L117.90700000000015 231.41349999999989L116.48500000000013 232.6139999999998z">
      <title id="t125">Deuxième circonscription de Haute-Corse</title>
      <desc id="d125">Cantons de : Alto-di-Casaconi, Belgodère, Bustanico, Calenzana, Calvi, Campoloro-di-Moriani, Castifao-Morosaglia, Corte, Fiumalto-d'Ampugnani, Ghisoni, l'Ile-Rousse, Moïta-Verde, Niolu-Omessa, Orezza-Alesani, Prunelli-di-Fiumorbo, Venaco, Vescovato, Vezzani.</desc>
    </path></svg>