<svg xmlns="http://www.w3.org/2000/svg" version="1.1" xmlns:xlink="http://www.w3.org/1999/xlink" xmlns:svgjs="http://svgjs.dev/svgjs" width="672.3873500000002" height="590.2305999999999" fill="#eeeeee" stroke="#cccccc" xmlns:sodipodi="http://sodipodi.sourceforge.net/DTD/sodipodi-0.dtd"><path class="circo" id="id-030-01" d="M513.3018500000003 404.2450999999994L505.6073500000002 383.36059999999975L505.5138499999998 379.22860000000014L506.46885 372.9686000000004L504.2033500000002 372.5931000000003L498.03935000000024 367.52610000000004L496.41084999999975 361.6781000000003L490.9543499999995 356.1740999999995L485.49834999999916 356.4336000000003L482.9163499999993 361.67010000000005L476.3723499999992 363.7050999999997L474.85135000000014 365.52459999999996L471.91734999999994 366.49059999999963L469.5673499999998 370.3746000000001L470.0453499999992 372.63709999999946L482.29934999999955 382.8535999999997L470.2853499999992 393.0141000000003L471.63434999999936 395.35660000000007L463.9918499999999 400.17560000000003L452.6558499999999 382.74059999999963L459.3908499999998 378.18160000000034L456.7028499999992 373.4946000000002L461.52334999999994 371.5526L463.4623499999998 375.70209999999975L465.85384999999974 370.96059999999966L462.2858499999995 362.35360000000014L456.9013499999994 358.27210000000036L454.3768499999999 354.48710000000005L443.3683499999995 341.05009999999993L436.51884999999993 336.5146000000004L433.76334999999983 328.7566000000004L427.8368499999999 328.4531000000004L422.0013499999999 334.10859999999957L418.82484999999974 335.28459999999995L418.6793499999999 339.14660000000026L414.1283499999997 347.41210000000024L414.7243499999996 357.00860000000034L430.6418499999995 359.93659999999977L435.67834999999945 363.2385999999997L435.22284999999954 367.1981000000005L440.43034999999975 380.2905999999996L433.8653499999998 380.8506L429.6243499999997 384.41310000000044L430.3323499999999 391.6111000000001L444.81484999999964 410.3236000000004L447.54884999999945 407.78459999999995L449.2108499999995 408.7815999999998L458.57284999999933 421.03610000000003L459.0103499999998 416.0976000000005L468.9453500000002 418.35559999999987L476.79784999999924 424.66660000000047L480.69785000000024 424.89959999999996L484.91584999999986 420.88210000000004L487.16234999999983 415.34059999999954L485.2198499999997 407.60959999999955L490.5188499999997 405.8875999999998L500.7173499999999 422.46459999999956L502.91984999999954 435.9041000000002L505.79684999999927 440.9316000000001L510.52884999999947 444.2741000000001L519.8403499999995 450.20560000000046L525.7333499999993 448.3226000000002L536.1043499999994 448.0300999999997L541.6758499999992 445.39210000000026L550.9363499999995 449.8865999999998L559.09535 451.3140999999996L567.35635 457.35310000000027L577.5343499999997 457.1325999999999L579.5133499999997 456.50710000000004L579.5668499999999 454.4236000000001L574.1963499999997 443.2285999999999L573.33035 434.97510000000034L580.0633499999992 415.58760000000007L590.1278500000001 399.90459999999985L591.2458500000002 385.3006000000005L586.3758499999994 371.77909999999997L596.45085 362.87860000000023L594.2843499999992 359.80410000000006L586.5663499999994 360.05559999999946L588.1053499999996 356.4325999999994L585.92535 350.93759999999975L584.3253499999992 343.14010000000053L585.0668499999995 337.2160999999994L579.67535 339.07410000000027L578.0963499999996 342.54410000000007L574.9903499999994 351.1836000000005L570.8758499999999 354.8451L574.0353499999992 356.5336000000002L574.6458499999994 362.1115999999995L572.9413499999998 363.0096000000003L577.25685 366.7641000000003L577.3178499999995 368.69010000000003L566.31035 368.12009999999987L556.3663499999996 365.83560000000034L547.8053499999999 360.1071000000002L546.7288499999995 360.0220999999999L540.8038499999998 358.0596000000003L540.0798499999996 365.9806000000003L535.3128500000003 374.7496000000001L540.5668500000002 385.8531000000005L542.4318499999993 391.2585999999999L537.1523500000001 398.0075999999997L516.6833499999996 401.83959999999956L513.3018500000003 404.2450999999994z">
      <title id="t126">Première circonscription du Gard</title>
      <desc id="d126">Cantons de : Beaucaire, Nîmes I, Nîmes III, Nîmes VI, La Vistrenque</desc>
    </path><path class="circo" id="id-030-02" d="M348.59285 515.1035999999999L344.84285 514.9621000000002L345.03535 514.7325999999998L348.6778499999997 513.1136000000004L355.55984999999964 516.9105999999999L365.3293499999995 515.1005999999995L376.94934999999987 516.7421000000002L376.6968499999996 510.5490999999995L385.38084999999967 501.9255999999996L395.09334999999965 483.69010000000003L395.4808499999996 477.8866000000005L382.6488499999999 455.32760000000053L382.94084999999995 453.7446L383.8993499999998 450.2256L378.50784999999973 440.70659999999975L374.7488499999997 430.4530999999997L373.24635 427.0906000000002L369.83784999999955 425.6440999999995L365.1768499999997 427.70009999999957L360.5808499999995 425.9036000000003L355.28234999999995 420.3651000000002L352.4693499999995 417.75260000000003L351.82534999999973 412.00860000000034L348.7483499999996 409.7046L341.6873499999997 411.5940999999998L340.1298499999996 408.08809999999994L335.10335 405.84359999999947L335.20084999999995 403.6460999999997L335.6838499999998 399.4996000000003L326.50349999999946 391.3235999999995L313.6759999999998 383.00659999999993L316.66349999999966 380.25660000000016L320.7194999999996 372.13859999999954L318.8454999999999 369.1080999999997L323.7455 366.11710000000016L332.16834999999946 374.1871000000003L333.10884999999985 373.40959999999995L331.1733499999997 369.93209999999976L334.38184999999976 356.66709999999966L336.1328499999996 355.00909999999976L342.4233499999997 360.13360000000034L349.84735 357.9810999999995L354.85334999999964 368.6841000000004L360.33435 366.32709999999975L364.34034999999994 366.68609999999944L367.7448499999997 368.84059999999977L367.78434999999945 370.8610999999996L371.07935 367.7481L378.61534999999947 369.19959999999946L381.4073499999995 371.55759999999987L380.1058499999999 378.90359999999987L391.9273499999997 380.0761L401.69134999999983 386.2306000000001L403.8163499999996 384.39160000000015L409.8988499999996 381.8035999999995L415.00234999999975 379.40309999999954L415.9148499999998 381.1721L421.6623499999997 380.18209999999954L424.6903499999996 382.78009999999995L432.08934999999997 379.93659999999977L433.8653499999998 380.8506L429.6243499999997 384.41310000000044L430.3323499999999 391.6111000000001L444.81484999999964 410.3236000000004L447.54884999999945 407.78459999999995L449.2108499999995 408.7815999999998L458.57284999999933 421.03610000000003L459.0103499999998 416.0976000000005L468.9453500000002 418.35559999999987L476.79784999999924 424.66660000000047L480.69785000000024 424.89959999999996L484.91584999999986 420.88210000000004L487.16234999999983 415.34059999999954L485.2198499999997 407.60959999999955L490.5188499999997 405.8875999999998L500.7173499999999 422.46459999999956L502.91984999999954 435.9041000000002L505.79684999999927 440.9316000000001L510.52884999999947 444.2741000000001L519.8403499999995 450.20560000000046L515.6113499999992 457.32560000000035L516.1118499999998 465.5170999999996L505.0128499999994 470.49260000000004L494.55235000000016 493.1030999999996L495.23484999999937 497.0096000000001L499.4843500000002 501.60409999999956L503.5153500000001 502.24309999999946L511.21734999999944 499.33809999999994L514.4018499999993 501.92260000000033L514.64335 505.93110000000024L508.98034999999936 514.4546000000003L503.8908500000002 517.9881L493.90784999999937 517.2041000000002L486.0513500000002 523.4930999999995L489.2963499999996 525.9055999999998L486.57584999999926 530.9771000000001L478.5998499999994 531.1465999999996L471.2823500000002 537.9205999999999L463.4113500000001 539.1300999999999L461.21485000000007 542.1366L454.38935000000015 545.9726L447.97934999999995 541.3216L447.31134999999995 539.4475999999997L449.9988499999995 536.5800999999999L448.4808499999997 533.3091000000002L444.5138499999996 539.7816L449.48984999999993 550.7160999999996L437.7463499999999 558.4956L416.9078499999995 566.0531000000003L414.2303499999997 568.6206000000004L414.8353499999996 570.5810999999994L411.54585 578.0831000000001L410.9788499999996 590.2305999999999L382.7358499999997 583.0355999999995L368.5963499999997 574.4650999999999L363.28584999999975 563.3290999999997L365.69984999999974 555.3641000000005L370.96884999999986 552.2171000000003L371.29884999999945 548.2551000000001L366.8893499999996 541.1756000000003L356.04985 535.0386000000003L359.30984999999964 526.7881L348.59285 515.1035999999999z">
      <title id="t127">Deuxième circonscription du Gard</title>
      <desc id="d127">Cantons de : Aigues-Mortes, Rhôny-Vidourle, Saint-Gilles, Sommières, Vauvert</desc>
    </path><path class="circo" id="id-030-03" d="M584.3253499999992 343.14010000000053L585.0668499999995 337.2160999999994L579.67535 339.07410000000027L578.0963499999996 342.54410000000007L574.9903499999994 351.1836000000005L570.8758499999999 354.8451L574.0353499999992 356.5336000000002L574.6458499999994 362.1115999999995L572.9413499999998 363.0096000000003L577.25685 366.7641000000003L577.3178499999995 368.69010000000003L566.31035 368.12009999999987L556.3663499999996 365.83560000000034L547.8053499999999 360.1071000000002L546.7288499999995 360.0220999999999L540.8038499999998 358.0596000000003L535.6113499999992 355.3746000000001L534.6643499999993 350.1730999999995L535.9168499999998 344.9806000000001L539.79735 344.2276000000004L542.4983499999996 339.14260000000013L546.2173499999994 338.0485999999996L545.6663500000002 332.38860000000045L544.6788500000002 330.6916000000001L540.8878499999992 330.0016000000005L539.1068499999994 324.40759999999955L535.1803499999994 318.3615999999995L535.4463499999997 310.57410000000004L529.7223499999996 309.7891000000004L524.9973499999999 306.3090999999997L523.4853499999997 307.5666000000001L520.5613499999993 320.9131000000002L516.6948500000001 320.20759999999996L511.5338499999996 314.5605999999998L501.7553499999997 314.3430999999998L501.4378499999998 302.7236000000005L502.8668499999992 296.9626000000005L506.25535000000013 292.4005999999997L507.2103500000003 286.84259999999995L514.2563499999994 285.4001000000005L516.19685 275.96109999999953L522.0228499999996 273.8746000000003L522.4538499999994 272.6651000000004L531.8933500000003 274.86110000000053L537.08935 272.8395999999998L537.6513499999999 274.7171000000003L539.6043499999996 274.58459999999945L539.7143499999993 266.44409999999993L542.2608500000001 267.44609999999966L545.0263499999994 264.52660000000037L554.1163499999993 260.5781000000002L551.2238500000001 255.35960000000046L547.2573499999999 255.6425999999999L545.8583499999997 254.2265999999995L550.4238499999997 243.17710000000034L550.7963499999994 237.2005999999999L548.2143499999995 234.39160000000015L548.3178499999997 230.4795999999999L544.6238499999993 231.85010000000034L542.6623499999994 231.47659999999973L542.66435 229.4740999999999L533.6033499999996 227.10410000000024L535.5603499999995 223.57309999999984L536.9063499999993 211.57659999999964L524.4438500000001 209.94109999999978L524.2613499999993 206.12709999999993L521.02935 204.30759999999964L518.9648499999998 202.54659999999944L521.0558500000002 198.09859999999958L526.3353499999994 197.27160000000026L527.8898500000003 194.0125999999998L525.3193499999998 190.8875999999998L525.22335 186.96159999999963L532.7643499999999 180.25359999999978L535.9398499999998 175.68059999999946L537.7288499999997 168.35410000000024L527.3738500000002 168.85359999999991L525.2018499999997 164.2506000000003L525.80285 160.83610000000022L528.81035 155.6641000000002L529.6583499999997 149.6760999999998L533.2343500000002 148.4901000000002L538.7953499999992 152.23860000000002L545.91185 142.71560000000022L548.5418500000003 130.98209999999995L552.5083499999994 130.09959999999978L550.2983499999993 135.8395999999999L551.2568499999998 139.8575999999997L553.58385 143.25710000000015L559.5713499999999 144.76459999999975L560.5998499999998 146.55759999999987L568.52485 146.90459999999973L569.4508499999995 149.76409999999987L584.9003499999992 146.1056000000002L588.2448499999998 144.38609999999983L599.4183499999997 145.63710000000015L602.9183499999999 147.39809999999977L610.5868499999997 144.80860000000007L614.2673500000001 146.35609999999986L614.9903499999994 150.30660000000012L612.2458499999993 155.74459999999988L614.1483499999993 159.26510000000007L619.58935 161.46510000000035L619.1418499999997 167.38309999999956L617.5208499999997 168.55909999999994L617.9653499999995 174.5491000000004L617.8893499999992 176.5845999999999L618.5723499999995 182.5780999999995L618.3208500000001 189.51009999999997L612.7743499999997 208.75409999999988L617.7478499999995 216.6736000000003L618.9998500000002 222.1235999999999L620.4798499999993 225.81009999999992L622.4373500000002 226.34310000000028L631.1588499999993 221.25210000000038L635.14635 220.7335999999998L636.1298499999998 226.40710000000013L637.3418500000002 228.46310000000017L647.5083499999994 234.68359999999961L647.7643499999999 240.26359999999954L651.3578499999994 244.40809999999942L656.4153499999998 249.21860000000038L658.9148499999999 252.60809999999992L661.7388499999993 262.6715999999999L667.9473499999995 263.58709999999974L671.0738500000002 266.16610000000037L671.4408500000002 272.4780999999996L672.3873500000002 275.3296L670.5158499999993 281.04510000000005L658.6263499999995 279.8121000000003L657.4413500000003 285.77210000000036L659.22235 293.5906L649.7073499999999 300.91459999999984L643.4623499999998 309.2220999999995L631.6313500000001 313.1961000000001L627.2153500000002 317.5606000000005L625.7048499999996 322.0205999999996L620.2133500000002 328.23009999999954L612.9288499999996 332.0961L612.5848499999995 333.3155999999997L614.5773499999996 332.9286000000002L607.8973499999995 340.47609999999963L596.9658500000003 345.6826000000001L594.6438499999999 348.9616000000001L594.1643499999998 347.11509999999976L592.2698500000001 346.93160000000034L585.92535 350.93759999999975L584.3253499999992 343.14010000000053z">
      <title id="t128">Troisième circonscription du Gard</title>
      <desc id="d128">Cantons de : Aramon, Bagnols-sur-Cèze, Remoulins, Roquemaure, Villeneuve-lès-Avignon</desc>
    </path><path class="circo" id="id-030-04" d="M344.6533499999998 143.10459999999978L349.60384999999974 140.16160000000013L351.2488499999995 140.0666000000001L350.90035 136.77309999999977L347.38234999999975 134.91460000000018L346.6858499999995 130.9690999999998L343.61785 128.4015999999997L337.99034999999947 126.94209999999998L341.20484999999974 121.82560000000024L338.61234999999965 109.88760000000013L346.72384999999963 110.5750999999998L354.24684999999954 117.20210000000009L359.82984999999985 116.21260000000007L362.8313499999996 123.10310000000015L366.1038499999995 125.08309999999994L368.33834999999965 124.01509999999973L366.12685 121.17909999999995L368.31435 111.1660999999998L371.34434999999996 109.27559999999971L370.9393499999999 105.2240999999998L375.75034999999957 101.43509999999992L371.72034999999994 97.1805999999998L371.92834999999945 90.1375999999999L373.82634999999993 87.0956000000001L381.8308499999995 87.80660000000012L388.7543499999998 84.48759999999993L392.4043499999999 95.18259999999998L405.0718499999999 101.5336000000002L412.58084999999994 109.83310000000017L417.2923499999996 113.9785999999998L423.1418499999995 116.14460000000008L429.4628499999999 111.79610000000025L435.9328499999998 99.68860000000006L435.66884999999957 86.10509999999977L441.50735 86.22259999999983L448.30134999999984 82.1051L453.04385000000025 75.79360000000008L451.56234999999924 72.25909999999999L470.4328499999997 71.18060000000014L477.60684999999967 67.06909999999993L481.24135000000024 68.69559999999979L484.1083500000002 74.23009999999977L483.72684999999933 78.29409999999996L479.53784999999925 92.19859999999983L480.26835000000005 98.23159999999973L484.6278499999994 102.04560000000015L496.7038500000001 101.15110000000016L498.24434999999994 104.92660000000001L500.2903500000002 104.86809999999991L505.7263499999999 96.29160000000013L503.83285 96.97859999999991L504.8153500000001 74.7715999999997L506.6313500000001 71.1030999999997L510.63485000000014 70.26760000000024L518.34835 72.33259999999973L528.20335 71.11310000000003L530.7178499999998 73.99659999999983L531.8728499999997 77.73160000000018L535.8828499999993 77.93709999999976L538.8518499999998 80.71210000000008L546.4843499999995 80.4656L545.9058499999992 81.43860000000018L545.0053500000001 83.31959999999981L549.9088499999993 92.54959999999983L555.3618499999993 95.41159999999991L557.1793500000001 94.58210000000008L567.6793499999997 99.92059999999981L570.4358500000001 100.34559999999999L575.1788499999998 108.0916000000002L582.0018499999992 103.93509999999992L589.0338499999996 112.62209999999982L589.99235 119.27360000000022L600.9918499999992 133.6185999999998L599.1103499999997 143.3290999999997L599.4183499999997 145.63710000000015L588.2448499999998 144.38609999999983L584.9003499999992 146.1056000000002L569.4508499999995 149.76409999999987L568.52485 146.90459999999973L560.5998499999998 146.55759999999987L559.5713499999999 144.76459999999975L553.58385 143.25710000000015L551.2568499999998 139.8575999999997L550.2983499999993 135.8395999999999L552.5083499999994 130.09959999999978L548.5418500000003 130.98209999999995L545.91185 142.71560000000022L538.7953499999992 152.23860000000002L533.2343500000002 148.4901000000002L529.6583499999997 149.6760999999998L528.81035 155.6641000000002L525.80285 160.83610000000022L525.2018499999997 164.2506000000003L527.3738500000002 168.85359999999991L537.7288499999997 168.35410000000024L535.9398499999998 175.68059999999946L532.7643499999999 180.25359999999978L525.22335 186.96159999999963L525.3193499999998 190.8875999999998L527.8898500000003 194.0125999999998L526.3353499999994 197.27160000000026L521.0558500000002 198.09859999999958L518.9648499999998 202.54659999999944L521.02935 204.30759999999964L524.2613499999993 206.12709999999993L524.4438500000001 209.94109999999978L536.9063499999993 211.57659999999964L535.5603499999995 223.57309999999984L533.6033499999996 227.10410000000024L529.63435 227.07559999999944L528.3308499999998 228.61110000000053L522.4718499999994 225.26110000000017L512.8033499999992 226.60259999999994L504.4293499999992 226.2815999999998L499.5598499999994 226.71960000000013L494.62234999999964 221.21309999999994L487.3848499999997 227.3406L480.0853499999994 225.0806L476.5123499999993 229.70910000000003L467.4368500000003 233.46959999999967L460.5883499999993 233.38359999999966L456.5398499999992 226.15210000000047L446.9198499999999 218.05960000000027L429.91934999999955 211.65309999999977L429.3873499999995 223.61409999999978L426.46434999999997 228.86060000000043L437.39034999999944 233.72409999999945L437.4258499999996 243.60509999999977L445.28534999999977 246.5616L443.10584999999946 254.2525999999998L444.09234999999967 258.09409999999957L446.22434999999996 258.71459999999956L447.60335 255.16809999999964L457.2208499999999 260.87409999999977L458.07334999999966 276.94110000000023L461.2098500000002 279.46159999999963L464.6703500000001 286.85809999999947L459.6538499999997 289.3340999999998L457.5478499999997 294.20409999999947L462.3238500000002 300.5040999999994L467.49934999999937 303.48859999999945L474.78034999999977 300.6985999999995L478.0638499999998 302.4780999999996L476.2673499999994 307.7601000000004L477.8088500000001 311.33010000000013L479.3108499999994 312.5941L486.94785000000024 312.3745999999994L481.91884999999957 319.60410000000024L479.9893499999996 318.8796000000002L474.95284999999967 322.0835999999997L478.9673499999992 326.7525999999998L479.3248499999993 328.6860999999999L477.7083499999992 329.7565999999995L461.38984999999934 327.6466000000005L454.13484999999923 334.0056000000004L446.11834999999985 333.48859999999945L434.0518499999996 326.9340999999997L433.76334999999983 328.7566000000004L427.8368499999999 328.4531000000004L422.0013499999999 334.10859999999957L418.82484999999974 335.28459999999995L419.02034999999955 333.3075999999994L415.74284999999975 331.10059999999976L413.97384999999986 325.4765999999995L408.8213499999995 319.5970999999997L405.5433499999998 321.77659999999946L403.97434999999973 320.5731000000003L407.52734999999973 316.67159999999967L397.40234999999984 316.6696000000002L388.12234999999987 313.2316000000003L387.9098499999998 311.86860000000024L388.16884999999957 307.5960999999995L390.9543499999995 299.02510000000007L391.4253499999995 296.93309999999997L392.86834999999996 293.93609999999967L399.4423499999999 289.2996000000005L403.3603499999998 289.09959999999955L397.0118499999995 278.75260000000026L400.0088499999998 273.30510000000004L394.14484999999956 272.0941000000005L386.25135 262.91759999999954L387.9683499999999 261.8631000000005L382.8883499999995 259.1011000000003L378.6253499999998 263.4906000000001L375.4998499999999 265.90259999999944L371.58484999999985 265.35660000000007L374.77934999999945 256.32709999999975L372.0048499999996 253.83910000000014L366.54984999999954 254.12810000000036L362.4383499999999 250.51510000000007L357.53784999999993 240.27510000000007L360.11685 229.25359999999955L354.2153499999995 213.1980999999996L354.7828499999997 211.45759999999996L353.1623499999995 206.9446000000005L353.76934999999946 204.13459999999986L351.9983499999995 201.05459999999994L345.8943499999998 201.47960000000012L343.58484999999973 199.1321000000005L343.93884999999955 194.98910000000024L346.6458499999999 192.1420999999998L346.3643499999995 188.7720999999999L344.5458499999995 186.57609999999977L342.94584999999984 188.32009999999968L339.2843499999998 189.58759999999984L338.18734999999947 177.90110000000027L335.70584999999994 175.0360999999998L334.2453499999999 171.37359999999944L337.4708499999997 164.64709999999968L341.8273499999998 161.32910000000038L349.4893499999995 161.69560000000047L348.50685 151.90609999999992L344.6533499999998 143.10459999999978z">
      <title id="t129">Quatrième circonscription du Gard</title>
      <desc id="d129">Cantons de : Alès Nord-Est, Alès Sud-Est, Barjac, Lussan, Pont-Saint-Esprit, Saint-Ambroix, Saint-Chaptes, Vézénobres</desc>
    </path><path class="circo" id="id-030-05" d="M334.2453499999999 171.37359999999944L337.4708499999997 164.64709999999968L341.8273499999998 161.32910000000038L349.4893499999995 161.69560000000047L348.50685 151.90609999999992L344.6533499999998 143.10459999999978L349.60384999999974 140.16160000000013L351.2488499999995 140.0666000000001L350.90035 136.77309999999977L347.38234999999975 134.91460000000018L346.6858499999995 130.9690999999998L343.61785 128.4015999999997L337.99034999999947 126.94209999999998L341.20484999999974 121.82560000000024L338.61234999999965 109.88760000000013L346.72384999999963 110.5750999999998L354.24684999999954 117.20210000000009L359.82984999999985 116.21260000000007L362.8313499999996 123.10310000000015L366.1038499999995 125.08309999999994L368.33834999999965 124.01509999999973L366.12685 121.17909999999995L368.31435 111.1660999999998L371.34434999999996 109.27559999999971L370.9393499999999 105.2240999999998L375.75034999999957 101.43509999999992L371.72034999999994 97.1805999999998L371.92834999999945 90.1375999999999L373.82634999999993 87.0956000000001L373.31534999999974 80.79409999999996L366.9768499999998 72.60960000000011L363.16935 77.24109999999996L359.6108499999997 76.70410000000004L357.24784999999997 74.88409999999988L344.48984999999993 77.7836000000002L338.66784999999993 83.04759999999987L334.9738499999995 84.7356000000002L333.5313499999995 83.77059999999972L328.2815999999997 77.29359999999986L334.89184999999964 73.21460000000002L335.9193499999998 60.09309999999971L337.3693499999996 56.91210000000012L335.2383499999996 51.92709999999977L335.62284999999974 48.260099999999966L331.69984999999997 44.776600000000144L331.12334999999973 39.11459999999977L332.7973499999996 38.050099999999816L338.3743499999997 39.21159999999986L342.1938499999999 32.57954999999981L336.3943499999999 26.79179999999974L329.1768499999995 23.144149999999968L332.4093499999998 15.659150000000182L328.87534999999957 8.24389999999994L323.2534999999996 8.036149999999793L319.51599999999985 3.7643500000001495L312.32549999999947 0L302.88899999999956 10.114399999999932L301.64949999999976 19.690800000000195L301.08649999999955 19.892550000000142L296.73599999999965 26.845950000000016L291.53299999999945 29.830949999999916L291.56349999999975 33.93889999999999L289.8739999999998 35.07574999999974L278.0619999999999 32.42369999999994L273.32899999999995 35.13759999999991L270.78149999999994 39.98109999999997L268.39049999999986 41.46410000000003L265.79999999999984 39.77509999999995L264.5769999999999 42.743600000000015L275.41049999999984 53.23660000000018L281.23549999999966 63.707600000000184L281.2334999999996 67.52259999999978L286.5999999999997 73.60459999999989L292.2584999999998 75.17560000000003L291.3534999999996 80.86059999999975L291.0404999999997 78.95309999999995L289.1794999999996 84.40110000000004L280.3199999999998 91.92110000000014L281.2059999999997 94.53509999999994L285.84599999999966 98.61460000000022L287.61799999999994 104.60059999999999L285.18399999999986 109.60059999999999L290.47999999999945 114.6805999999998L295.4984999999999 112.26260000000025L300.03799999999956 115.94609999999989L302.3534999999998 118.99810000000002L300.8329999999995 124.47060000000022L293.8704999999999 124.95159999999998L290.3394999999995 130.02009999999984L292.2479999999996 144.35709999999972L290.68899999999985 144.88260000000025L286.98849999999993 156.3506000000001L288.09049999999957 158.0286000000001L295.6469999999996 159.77909999999952L298.6345 171.1841000000004L302.01599999999985 170.67109999999957L302.10549999999955 175.49859999999967L282.69499999999994 165.19360000000006L280.67699999999945 165.41510000000017L282.1969999999999 177.29559999999992L278.99 178.8630999999998L275.53549999999973 177.99110000000042L275.1169999999996 183.83559999999989L268.1894999999997 185.66460000000006L259.015 196.62259999999947L241.75399999999968 191.48959999999988L238.56749999999977 191.94110000000023L236.70999999999992 194.38409999999976L232.70799999999952 196.6876000000002L226.82649999999967 197.37909999999943L216.6424999999998 188.96259999999984L213.03099999999972 188.29259999999977L210.94349999999963 183.2826L209.0904999999998 183.15259999999967L200.47649999999976 179.7700999999995L196.49299999999982 175.54759999999987L187.20799999999997 174.37559999999962L182.38249999999994 171.32460000000037L178.97399999999948 166.56309999999962L179.24099999999953 164.62409999999977L173.29949999999997 163.72409999999945L171.98649999999986 167.5270999999998L168.5669999999999 169.59460000000036L164.20299999999997 165.71260000000052L159.12699999999973 168.92010000000028L156.08249999999998 178.73460000000023L157.09449999999947 182.46459999999956L162.46849999999995 185.44610000000034L163.14849999999979 187.37060000000042L158.33799999999997 191.0206000000005L157.05799999999954 201.0301000000004L145.72249999999997 204.18059999999969L130.34549999999967 200.37810000000036L128.30899999999986 199.94760000000042L119.4319999999999 205.08609999999976L114.67349999999954 201.24360000000024L102.79299999999978 198.08509999999956L92.53649999999993 199.23610000000053L74.51649999999972 195.6131000000005L72.05849999999998 192.41210000000024L70.19799999999975 184.77909999999952L56.798 176.46560000000022L54.918499999999995 172.91510000000017L46.89899999999966 171.68660000000045L31.187999999999647 179.17259999999942L28.443999999999505 188.62909999999943L24.248499999999922 192.31109999999944L25.623999999999683 197.6040999999998L25.733999999999924 208.31459999999993L20.102999999999724 210.52909999999997L11.958999999999946 210.64759999999978L0 217.99859999999967L4.919999999999618 221.01959999999963L13.875999999999635 231.6691000000003L17.91849999999954 231.8340999999998L25.39799999999957 225.51759999999945L26.42749999999978 226.86860000000024L27.88499999999999 226.0015999999996L29.644999999999868 229.00160000000028L31.601 238.13959999999952L35.94499999999982 241.75160000000005L37.583999999999946 243.02009999999996L44.34699999999964 238.31410000000005L46.56949999999995 241.65660000000003L52.426999999999566 240.2371000000005L58.039999999999736 246.2415999999996L65.7405 249.1710999999998L77.12849999999946 258.11860000000024L79.23349999999971 258.9711L79.7664999999995 259.40560000000005L76.6089999999997 271.3441L65.97399999999993 277.27809999999977L60.485499999999774 290.63459999999964L48.53999999999985 292.2756000000004L47.8389999999996 298.3245999999997L40.73149999999998 302.1491000000003L37.52149999999972 309.5665999999994L40.400999999999954 323.5996L41.9459999999998 324.7801000000004L44.883499999999685 322.2661000000005L50.153999999999996 324.4530999999995L55.72549999999978 325.4040999999995L58.832499999999754 323.0731000000003L68.26649999999972 325.0870999999995L73.30499999999972 331.54359999999997L73.83699999999976 339.5555999999999L71.27749999999992 347.2941000000003L67.28199999999958 348.0840999999998L73.05149999999969 353.6015999999995L78.125 350.1180999999997L83.95949999999971 348.63410000000044L92.9849999999999 337.39059999999995L97.02349999999967 336.8956000000003L105.56549999999959 334.33359999999993L110.59999999999945 340.1410999999996L109.79949999999974 352.4296000000004L113.51399999999956 357.4410999999998L121.31249999999966 360.2421000000004L126.78199999999947 358.1006000000002L134.1369999999995 365.0330999999994L137.06249999999955 362.49310000000037L142.87799999999947 361.45509999999945L143.0464999999998 359.4880999999998L133.27499999999986 352.72609999999986L135.85849999999994 345.06809999999973L142.13149999999985 339.94659999999953L144.03999999999996 334.4785999999999L153.1269999999995 321.7435999999998L159.14949999999976 322.9656L158.08949999999982 331.08010000000036L159.29499999999962 332.42759999999976L162.34849999999994 330.35009999999943L162.06049999999948 324.08810000000017L169.64499999999987 325.11259999999993L173.5284999999999 325.75609999999983L176.52949999999976 316.3616000000002L175.64599999999984 312.64159999999947L178.65699999999947 307.7860999999996L181.1409999999995 308.19560000000024L179.00949999999966 301.27560000000017L185.36599999999964 297.3941000000002L188.005 295.3455999999994L192.9419999999999 295.7731000000001L198.83549999999957 290.04459999999995L222.72199999999998 292.29510000000005L222.6139999999998 299.98860000000036L226.19899999999973 306.81460000000015L236.73449999999946 306.7371000000003L239.14699999999982 309.92809999999963L240.12599999999964 317.56560000000036L238.3054999999996 321.1095999999998L227.90899999999965 337.1731L230.42749999999955 344.38459999999964L237.60749999999973 347.04309999999964L241.19799999999998 351.5590999999995L244.52199999999948 349.21209999999974L248.48749999999995 350.1886000000002L252.3784999999998 345.81609999999955L270.6439999999998 344.3061L276.70699999999954 339.04210000000035L278.91549999999995 342.3901000000001L278.1404999999995 350.43609999999944L280.42749999999955 356.0600999999997L286.7134999999996 359.1315999999995L295.6774999999999 359.1705999999999L295.31499999999994 364.6981000000005L304.40499999999986 365.55259999999976L301.9444999999996 368.8310999999999L302.1419999999995 374.66609999999946L296.9924999999995 381.0335999999995L296.1579999999998 387.1345999999994L302.20349999999996 389.8266000000001L311.2384999999995 384.86760000000004L313.6759999999998 383.00659999999993L316.66349999999966 380.25660000000016L320.7194999999996 372.13859999999954L318.8454999999999 369.1080999999997L323.7455 366.11710000000016L332.16834999999946 374.1871000000003L333.10884999999985 373.40959999999995L331.1733499999997 369.93209999999976L334.38184999999976 356.66709999999966L336.1328499999996 355.00909999999976L342.4233499999997 360.13360000000034L349.84735 357.9810999999995L354.85334999999964 368.6841000000004L360.33435 366.32709999999975L364.34034999999994 366.68609999999944L367.7448499999997 368.84059999999977L367.78434999999945 370.8610999999996L371.07935 367.7481L378.61534999999947 369.19959999999946L381.4073499999995 371.55759999999987L380.1058499999999 378.90359999999987L391.9273499999997 380.0761L401.69134999999983 386.2306000000001L403.8163499999996 384.39160000000015L409.8988499999996 381.8035999999995L415.00234999999975 379.40309999999954L415.9148499999998 381.1721L421.6623499999997 380.18209999999954L424.6903499999996 382.78009999999995L432.08934999999997 379.93659999999977L433.8653499999998 380.8506L440.43034999999975 380.2905999999996L435.22284999999954 367.1981000000005L435.67834999999945 363.2385999999997L430.6418499999995 359.93659999999977L414.7243499999996 357.00860000000034L414.1283499999997 347.41210000000024L418.6793499999999 339.14660000000026L418.82484999999974 335.28459999999995L419.02034999999955 333.3075999999994L415.74284999999975 331.10059999999976L413.97384999999986 325.4765999999995L408.8213499999995 319.5970999999997L405.5433499999998 321.77659999999946L403.97434999999973 320.5731000000003L407.52734999999973 316.67159999999967L397.40234999999984 316.6696000000002L388.12234999999987 313.2316000000003L387.9098499999998 311.86860000000024L388.16884999999957 307.5960999999995L390.9543499999995 299.02510000000007L391.4253499999995 296.93309999999997L392.86834999999996 293.93609999999967L399.4423499999999 289.2996000000005L403.3603499999998 289.09959999999955L397.0118499999995 278.75260000000026L400.0088499999998 273.30510000000004L394.14484999999956 272.0941000000005L386.25135 262.91759999999954L387.9683499999999 261.8631000000005L382.8883499999995 259.1011000000003L378.6253499999998 263.4906000000001L375.4998499999999 265.90259999999944L371.58484999999985 265.35660000000007L374.77934999999945 256.32709999999975L372.0048499999996 253.83910000000014L366.54984999999954 254.12810000000036L362.4383499999999 250.51510000000007L357.53784999999993 240.27510000000007L360.11685 229.25359999999955L354.2153499999995 213.1980999999996L354.7828499999997 211.45759999999996L353.1623499999995 206.9446000000005L353.76934999999946 204.13459999999986L351.9983499999995 201.05459999999994L345.8943499999998 201.47960000000012L343.58484999999973 199.1321000000005L343.93884999999955 194.98910000000024L346.6458499999999 192.1420999999998L346.3643499999995 188.7720999999999L344.5458499999995 186.57609999999977L342.94584999999984 188.32009999999968L339.2843499999998 189.58759999999984L338.18734999999947 177.90110000000027L335.70584999999994 175.0360999999998L334.2453499999999 171.37359999999944z">
      <title id="t130">Cinquième circonscription du Gard</title>
      <desc id="d130">Cantons de : Alès Ouest, Alzon, Anduze, Bessèges, Génolhac, La Grand-Combe, Lasalle, Lédignan, Quissac, Saint-André-de-Valborgne, Saint-Hippolyte-du-Fort, Saint-Jean-du-Gard, Saint-Mamert-du-Gard, Sauve, Sumène, Trèves, Valleraugue, Le Vigan</desc>
    </path><path class="circo" id="id-030-06" d="M534.6643499999993 350.1730999999995L535.9168499999998 344.9806000000001L539.79735 344.2276000000004L542.4983499999996 339.14260000000013L546.2173499999994 338.0485999999996L545.6663500000002 332.38860000000045L544.6788500000002 330.6916000000001L540.8878499999992 330.0016000000005L539.1068499999994 324.40759999999955L535.1803499999994 318.3615999999995L535.4463499999997 310.57410000000004L529.7223499999996 309.7891000000004L524.9973499999999 306.3090999999997L523.4853499999997 307.5666000000001L520.5613499999993 320.9131000000002L516.6948500000001 320.20759999999996L511.5338499999996 314.5605999999998L501.7553499999997 314.3430999999998L501.4378499999998 302.7236000000005L502.8668499999992 296.9626000000005L506.25535000000013 292.4005999999997L507.2103500000003 286.84259999999995L514.2563499999994 285.4001000000005L516.19685 275.96109999999953L522.0228499999996 273.8746000000003L522.4538499999994 272.6651000000004L531.8933500000003 274.86110000000053L537.08935 272.8395999999998L537.6513499999999 274.7171000000003L539.6043499999996 274.58459999999945L539.7143499999993 266.44409999999993L542.2608500000001 267.44609999999966L545.0263499999994 264.52660000000037L554.1163499999993 260.5781000000002L551.2238500000001 255.35960000000046L547.2573499999999 255.6425999999999L545.8583499999997 254.2265999999995L550.4238499999997 243.17710000000034L550.7963499999994 237.2005999999999L548.2143499999995 234.39160000000015L548.3178499999997 230.4795999999999L544.6238499999993 231.85010000000034L542.6623499999994 231.47659999999973L542.66435 229.4740999999999L533.6033499999996 227.10410000000024L529.63435 227.07559999999944L528.3308499999998 228.61110000000053L522.4718499999994 225.26110000000017L512.8033499999992 226.60259999999994L504.4293499999992 226.2815999999998L499.5598499999994 226.71960000000013L494.62234999999964 221.21309999999994L487.3848499999997 227.3406L480.0853499999994 225.0806L476.5123499999993 229.70910000000003L467.4368500000003 233.46959999999967L460.5883499999993 233.38359999999966L456.5398499999992 226.15210000000047L446.9198499999999 218.05960000000027L429.91934999999955 211.65309999999977L429.3873499999995 223.61409999999978L426.46434999999997 228.86060000000043L437.39034999999944 233.72409999999945L437.4258499999996 243.60509999999977L445.28534999999977 246.5616L443.10584999999946 254.2525999999998L444.09234999999967 258.09409999999957L446.22434999999996 258.71459999999956L447.60335 255.16809999999964L457.2208499999999 260.87409999999977L458.07334999999966 276.94110000000023L461.2098500000002 279.46159999999963L464.6703500000001 286.85809999999947L459.6538499999997 289.3340999999998L457.5478499999997 294.20409999999947L462.3238500000002 300.5040999999994L467.49934999999937 303.48859999999945L474.78034999999977 300.6985999999995L478.0638499999998 302.4780999999996L476.2673499999994 307.7601000000004L477.8088500000001 311.33010000000013L479.3108499999994 312.5941L486.94785000000024 312.3745999999994L481.91884999999957 319.60410000000024L479.9893499999996 318.8796000000002L474.95284999999967 322.0835999999997L478.9673499999992 326.7525999999998L479.3248499999993 328.6860999999999L477.7083499999992 329.7565999999995L461.38984999999934 327.6466000000005L454.13484999999923 334.0056000000004L446.11834999999985 333.48859999999945L434.0518499999996 326.9340999999997L433.76334999999983 328.7566000000004L436.51884999999993 336.5146000000004L443.3683499999995 341.05009999999993L454.3768499999999 354.48710000000005L456.9013499999994 358.27210000000036L462.2858499999995 362.35360000000014L465.85384999999974 370.96059999999966L463.4623499999998 375.70209999999975L461.52334999999994 371.5526L456.7028499999992 373.4946000000002L459.3908499999998 378.18160000000034L452.6558499999999 382.74059999999963L463.9918499999999 400.17560000000003L471.63434999999936 395.35660000000007L470.2853499999992 393.0141000000003L482.16634999999997 382.9795999999999L470.0453499999992 372.63709999999946L469.5673499999998 370.3746000000001L471.91734999999994 366.49059999999963L474.85135000000014 365.52459999999996L476.3723499999992 363.7050999999997L482.9163499999993 361.67010000000005L485.49834999999916 356.4336000000003L490.9543499999995 356.1740999999995L496.41084999999975 361.6781000000003L498.03935000000024 367.52610000000004L504.2033500000002 372.5931000000003L506.46885 372.9686000000004L505.5138499999998 379.22860000000014L505.6073500000002 383.36059999999975L513.3018500000003 404.2450999999994L516.6833499999996 401.83959999999956L537.1523500000001 398.0075999999997L542.4318499999993 391.2585999999999L540.5668500000002 385.8531000000005L535.3128500000003 374.7496000000001L540.0798499999996 365.9806000000003L540.8038499999998 358.0596000000003L535.6113499999992 355.3746000000001L534.6643499999993 350.1730999999995z">
      <title id="t131">Sixième circonscription du Gard</title>
      <desc id="d131">Cantons de : Marguerittes, Nîmes II, Nîmes IV, Nîmes V, Uzès</desc>
    </path></svg>