<svg xmlns="http://www.w3.org/2000/svg" version="1.1" xmlns:xlink="http://www.w3.org/1999/xlink" xmlns:svgjs="http://svgjs.dev/svgjs" width="682.8179999999998" height="718.2714999999996" fill="#eeeeee" stroke="#cccccc" xmlns:sodipodi="http://sodipodi.sourceforge.net/DTD/sodipodi-0.dtd"><path class="circo" id="id-031-01" d="M97.32999999999947 104.0823499999999L108.68849999999952 111.94459999999992L116.47100000000023 106.28674999999987L123.36149999999975 104.10709999999995L126.36200000000031 117.25634999999954L137.14899999999943 117.95424999999966L146.7700000000002 117.73969999999963L151.36099999999942 123.23264999999992L162.1474999999998 126.60599999999988L162.5305000000003 119.03549999999996L169.3184999999994 115.71460000000002L171.80700000000002 135.00405L172.16099999999983 140.02025000000003L168.82749999999987 139.47104999999965L168.68349999999964 151.76979999999958L167.64249999999947 153.62899999999968L168.58349999999973 155.8114999999998L166.96649999999977 163.64994999999965L167.1320000000003 174.31724999999972L172.22399999999993 175.19919999999956L176.02149999999938 175.15254999999968L179.8675000000003 178.74709999999993L183.39050000000043 186.8743999999998L176.0355000000004 187.06604999999968L166.39249999999947 187.17094999999972L159.11449999999945 188.8060999999999L146.1805000000004 183.0595999999997L138.95099999999957 186.91344999999956L135.62099999999987 190.44699999999978L134.80699999999956 196.12199999999973L123.58100000000036 195.93615L108.59900000000039 189.62895000000003L98.08999999999969 187.44264999999984L101.16399999999999 172.08619999999996L109.90049999999997 164.36789999999974L94.31150000000002 154.93904999999984L74.12199999999984 162.30939999999975L65.99449999999933 155.12689999999964L62.49149999999986 156.08900000000006L45.18249999999966 148.86364999999955L39.87999999999943 139.19264999999996L33.0684999999994 136.3684999999998L22.677999999999656 139.86289999999997L4.613500000000386 136.11299999999972L30.339500000000044 117.70444999999995L34.58149999999932 111.28859999999975L55.66749999999956 100.64314999999965L54.71300000000042 88.96224999999959L63.470499999999674 106.47644999999955L64.37549999999987 118.25649999999996L81.8139999999994 113.26414999999997L93.13800000000015 122.75684999999953L103.82799999999975 122.31065000000001L104.35550000000035 120.0909999999999L97.32999999999947 104.0823499999999z">
      <title id="t132">Première circonscription de la Haute-Garonne</title>
      <desc id="d132">Cantons de : Blagnac, Toulouse IV, Toulouse V, Toulouse XIII (moins la commune de Colomiers), Commune de Toulouse (partie comprise dans le canton de Toulouse XIV)</desc>
    </path><path class="circo" id="id-031-04" d="M111.173 247.98799999999972L116.08150000000023 243.32839999999976L104.19549999999958 236.4596499999999L109.3584999999996 225.6511999999998L108.22149999999965 214.82174999999984L116.16049999999973 206.13L106.3009999999997 201.45039999999995L107.00950000000034 194.5473499999997L98.17049999999995 186.93489999999997L108.6794999999995 189.12114999999972L123.6609999999996 195.42834999999968L134.88749999999982 195.61424999999986L135.70150000000012 189.9392499999999L139.03099999999995 186.40569999999968L146.2614999999994 182.55179999999996L159.1949999999997 188.29835000000003L166.47249999999985 186.66314999999997L183.47099999999955 186.36660000000006L192.81499999999937 183.32220000000007L199.22599999999989 185.97285L206.6165000000001 185.56189999999958L188.84400000000028 193.32214999999962L188.73699999999985 198.31635000000006L179.78849999999966 196.48669999999981L179.18800000000033 191.56205L173.95199999999932 191.41615000000002L167.30500000000006 193.14099999999996L160.47649999999976 208.7358499999999L125.47400000000039 260.8540499999998L111.173 247.98799999999972z">
      <title id="t135">Quatrième circonscription de la Haute-Garonne</title>
      <desc id="d135">Cantons de : Toulouse I, Toulouse III, Toulouse XII</desc>
    </path><path class="circo" id="id-031-02" d="M525.7619999999997 129.36800000000005L518.2285000000002 126.89249999999959L519.683 128.0899999999997L519.3084999999996 133.70949999999993L510.8190000000002 133.56449999999995L509.9599999999998 137.2814999999997L512.0275000000004 142.6034999999996L501.5840000000003 136.66549999999972L496.27449999999953 138.95399999999995L489.2049999999995 131.74249999999972L489.5595000000003 129.73700000000008L479.6860000000004 125.12650000000008L477.51750000000015 133.21799999999996L479.07299999999964 134.4014999999996L476.43550000000005 139.54349999999977L477.66250000000014 143.25499999999977L474.41599999999994 150.22599999999954L473.0925000000002 153.32249999999988L468.7934999999993 155.61149999999998L464.68549999999937 158.26750000000004L466.4530000000002 161.83949999999982L475.98949999999945 164.31699999999978L472.12049999999977 164.99599999999987L467.83950000000004 169.07549999999958L462.32200000000034 167.149L457.6109999999994 169.80549999999994L451.78300000000036 164.31949999999972L445.5409999999995 169.50649999999996L441.6599999999994 173.65049999999997L443.7054999999998 185.6144999999998L439.8299999999995 185.8299999999997L436.46799999999985 184.4399999999996L431.56799999999976 186.0364999999996L429.7204999999997 181.77449999999965L427.7035000000001 179.88949999999988L425.71199999999976 179.914L423.04200000000037 179.45149999999956L422.9549999999995 173.85749999999973L423.80300000000034 169.74699999999984L423.3095000000003 168.60250000000008L423.85549999999967 167.62749999999983L423.93100000000004 161.17799999999988L425.6790000000001 161.46599999999978L425.49350000000004 158.83549999999957L429.51349999999934 158.30649999999991L432.77600000000007 153.25699999999983L432.89049999999975 151.293L438.50850000000037 149.43849999999998L439.61900000000014 143.89049999999997L433.45199999999977 139.4939999999997L432.45300000000043 139.63549999999998L433.42949999999973 135.34249999999986L431.4059999999995 131.8584999999996L423.3695 125.64149999999984L422.9034999999999 123.65599999999972L424.67149999999947 122.65749999999969L427.50350000000026 120.23599999999988L429.3915000000004 114.84749999999963L430.69099999999935 113.32400000000007L436.5089999999998 114.4014999999996L438.1505000000004 115.53349999999966L444.4354999999996 110.7329999999996L448.0994999999996 111.17099999999994L450.61399999999935 108.26949999999954L449.9929999999995 102.77499999999975L452.82699999999977 97.76449999999954L450.4714999999999 89.57899999999995L448.44550000000027 86.02550000000008L448.47849999999994 81.92949999999996L459.22699999999963 67.41749999999968L461.0304999999994 66.68900000000008L465.0980000000004 70.73199999999986L468.9580000000001 70.9514999999999L470.7529999999997 70.62700000000007L476.3099999999997 63.40599999999995L481.35599999999954 65.21799999999985L487.4395000000004 61.26449999999977L503.1280000000004 70.31599999999969L511.3244999999995 71.22899999999959L512.9240000000004 74.88949999999988L510.1755000000003 82.15350000000001L510.58400000000006 84.11200000000008L514.1885000000002 85.59149999999988L515.9884999999997 90.87400000000002L513.5770000000002 99.87099999999998L516.6084999999998 101.9214999999997L517.6805000000002 105.4079999999999L526.0585000000003 109.19449999999983L530.0225 113.47949999999969L531.825 112.75049999999965L537.5300000000004 120.67999999999984L535.7515000000001 124.13849999999968L531.7679999999996 124.3259999999998L525.7619999999997 129.36800000000005z">
      <title id="t133">Deuxième circonscription de la Haute-Garonne</title>
      <desc id="d133">Cantons de : Montastruc-la-Conseillère, Toulouse VI, Toulouse VII, Toulouse XV, Commune de Montrabé</desc>
    </path><path class="circo" id="id-031-03" d="M489.2049999999995 131.74249999999972L489.5595000000003 129.73700000000008L479.6860000000004 125.12650000000008L477.51750000000015 133.21799999999996L479.07299999999964 134.4014999999996L476.43550000000005 139.54349999999977L477.66250000000014 143.25499999999977L474.41599999999994 150.22599999999954L473.0925000000002 153.32249999999988L468.7934999999993 155.61149999999998L464.68549999999937 158.26750000000004L466.4530000000002 161.83949999999982L475.98949999999945 164.31699999999978L472.12049999999977 164.99599999999987L467.83950000000004 169.07549999999958L462.32200000000034 167.149L457.6109999999994 169.80549999999994L451.78300000000036 164.31949999999972L445.5409999999995 169.50649999999996L441.6599999999994 173.65049999999997L443.7054999999998 185.6144999999998L434.38549999999964 189.68399999999974L434.32950000000005 192.303L429.63700000000017 191.34349999999984L429.32199999999966 188.76100000000008L426.576 188.68449999999996L423.09049999999957 189.58899999999971L419.50950000000034 197.76700000000005L428.7995000000001 198.4744999999998L433.2249999999999 196.16749999999968L439.7415000000001 214.6089999999998L447.4294999999995 216.21849999999995L452.4649999999997 213.86349999999993L455.7745 208.63349999999969L455.27450000000044 202.43499999999983L465.3520000000003 201.44349999999974L475.39999999999964 208.07349999999985L477.78099999999995 208.2624999999996L479.3304999999998 203.20299999999975L486.6070000000002 200.31049999999993L491.47299999999973 203.81899999999973L492.0569999999998 207.41899999999987L497.50800000000027 209.00099999999952L496.7840000000001 203.7349999999998L500.29949999999985 197.1524999999997L504.0944999999999 192.6769999999999L505.80799999999954 187.0859999999999L509.1255000000001 185.04249999999956L512.8329999999994 186.39399999999966L518.6689999999999 185.40149999999983L525.7539999999995 188.56749999999977L523.5825 183.0574999999999L520.5555000000004 180.53099999999972L521.4104999999995 175.0169999999997L524.8545000000001 176.01L529.5929999999998 170.9269999999998L531.2569999999994 165.514L535.9775000000002 159.19350000000009L545.1220000000001 155.61849999999993L547.0479999999998 155.154L547.7499999999998 151.28899999999987L543.4514999999999 144.82249999999965L543.5900000000004 137.06699999999955L519.3084999999996 133.70949999999993L510.8190000000002 133.56449999999995L509.9599999999998 137.2814999999997L512.0275000000004 142.6034999999996L501.5840000000003 136.66549999999972L496.27449999999953 138.95399999999995L489.2049999999995 131.74249999999972z">
      <title id="t134">Troisième circonscription de la Haute-Garonne</title>
      <desc id="d134">Cantons de : Toulouse II, Toulouse VIII (moins la commune de Montrabé), Toulouse IX (moins la commune de Ramonville-Saint-Agne et la partie de la commune de Toulouse située à l'ouest du canal du Midi), Verfeil</desc>
    </path><path class="circo" id="id-031-05" d="M364.3735000000004 71.50699999999972L357.0609999999999 73.58949999999993L355.41849999999954 70.42449999999974L350.7089999999994 72.19249999999988L351.9489999999996 76.01249999999993L355.1845000000003 77.88649999999961L353.8824999999997 79.43049999999971L327.7144999999996 90.07599999999968L326.55250000000024 88.41250000000002L325.2755000000002 84.71699999999998L329.91649999999936 80.94499999999982L328.97950000000037 77.10849999999994L315.1400000000001 74.87099999999998L311.8049999999994 68.79449999999963L306.5575000000001 66.18599999999958L304.16600000000017 60.58549999999968L298.7379999999996 58.247499999999945L297.7525000000003 62.18899999999962L290.6569999999999 65.99400000000003L286.1934999999994 72.69000000000005L285.6264999999996 79.46049999999957L288.2204999999999 86.8644999999998L286.5485000000001 88.05399999999963L286.47699999999986 92.13499999999954L291.25400000000013 95.69699999999955L296.39400000000023 97.9159999999996L296.78549999999973 111.21350000000007L287.77649999999994 115.74250000000006L285.2359999999999 130.4419999999999L288.1079999999997 131.02949999999964L291.95299999999975 130.6469999999996L293.65249999999946 131.5904999999998L293.2330000000002 133.49499999999978L300.4660000000001 134.837L303.7659999999994 139.341L308.7069999999994 141.9444999999996L312.2389999999996 148.36700000000008L315.3985 150.10249999999985L323.4585000000004 144.65599999999995L326.2519999999995 139.7629999999998L327.33349999999973 137.24649999999997L329.9059999999997 142.6419999999996L330.3449999999998 154.44099999999992L333.8194999999996 156.39749999999992L333.97950000000037 158.3869999999996L337.81650000000013 159.4169999999997L351.30750000000035 149.76349999999968L353.53200000000015 146.39899999999955L364.5894999999996 140.81649999999968L364.08900000000017 134.6909999999997L368.68150000000014 143.87549999999976L369.1560000000004 150.05299999999977L378.30100000000016 147.43499999999983L384.23900000000003 152.41299999999967L389.84500000000025 152.17899999999986L390.1215000000002 151.01499999999987L386.43749999999955 142.62L392.3939999999993 146.7429999999996L396.47500000000036 143.77599999999973L400.0884999999994 142.63299999999958L401.66200000000003 149.52849999999955L407.3185000000001 149.89449999999977L412.36400000000003 149.78199999999958L414.7714999999994 152.66249999999957L420.42799999999943 154.43150000000003L420.62900000000013 150.46149999999955L424.1885000000002 148.71999999999957L425.49350000000004 158.83549999999957L429.51349999999934 158.30649999999991L432.77600000000007 153.25699999999983L432.89049999999975 151.293L438.50850000000037 149.43849999999998L439.61900000000014 143.89049999999997L433.45199999999977 139.4939999999997L432.45300000000043 139.63549999999998L433.42949999999973 135.34249999999986L431.4059999999995 131.8584999999996L423.3695 125.64149999999984L422.9034999999999 123.65599999999972L424.67149999999947 122.65749999999969L427.50350000000026 120.23599999999988L429.3915000000004 114.84749999999963L430.69099999999935 113.32400000000007L436.5089999999998 114.4014999999996L438.1505000000004 115.53349999999966L444.4354999999996 110.7329999999996L448.0994999999996 111.17099999999994L450.61399999999935 108.26949999999954L449.9929999999995 102.77499999999975L452.82699999999977 97.76449999999954L450.4714999999999 89.57899999999995L448.44550000000027 86.02550000000008L448.47849999999994 81.92949999999996L459.22699999999963 67.41749999999968L461.0304999999994 66.68900000000008L465.0980000000004 70.73199999999986L468.9580000000001 70.9514999999999L470.7529999999997 70.62700000000007L476.3099999999997 63.40599999999995L481.35599999999954 65.21799999999985L487.4395000000004 61.26449999999977L489.3864999999994 45.96900000000005L488.5624999999993 45.713499999999954L480.6375000000003 42.631000000000085L473.19999999999936 31.026499999999828L473.29650000000015 29.644499999999994L476.9920000000002 29.025499999999624L473.7614999999994 26.728499999999826L475.03349999999955 23.079999999999927L471.3459999999998 18.41349999999977L469.9860000000001 12.609499999999798L473.4259999999995 1.6394999999999982L464.14999999999964 0L463.03199999999947 5.634499999999889L459.70050000000015 10.321500000000015L456.24599999999987 8.92599999999959L455.8285000000001 12.618999999999687L448.36649999999963 19.178999999999746L446.34900000000016 19.073999999999955L444.5674999999994 11.3839999999999L440.0125000000003 7.553499999999644L436.9820000000004 13.930499999999597L432.02699999999936 20.54049999999961L428.07950000000005 29.94799999999998L427.57799999999975 28.068999999999846L420.4589999999996 30.460499999999797L414.98950000000036 29.03099999999995L410.9465 22.573999999999614L407.17199999999934 21.620999999999526L403.47099999999955 23.26750000000004L392.48950000000036 18.59449999999981L388.5500000000002 22.747999999999706L388.6659999999995 26.5564999999998L385.7344999999998 29.00099999999952L390.91099999999983 37.16449999999952L389.80050000000006 40.46099999999967L379.7874999999999 41.191499999999905L373.0359999999996 37.169999999999845L364.59600000000023 41.510999999999854L362.16049999999996 44.517999999999915L366.0775000000001 45.51049999999975L370.92750000000024 51.865999999999985L378.2349999999997 49.30250000000001L387.9144999999994 49.92050000000006L390.29949999999985 61.24499999999955L385.04999999999995 62.091499999999655L383.21249999999964 65.17899999999997L375.96900000000005 66.36599999999987L369.7315000000003 70.88799999999992L365.5920000000003 71.1994999999996L364.3735000000004 71.50699999999972z">
      <title id="t136">Cinquième circonscription de la Haute-Garonne</title>
      <desc id="d136">Cantons de : Fronton, Grenade, Toulouse XIV (partie non comprise dans la 1re circonscription), Villemur-sur-Tarn</desc>
    </path><path class="circo" id="id-031-06" d="M277.0029999999997 151.1484999999999L269.0840000000003 152.71649999999966L263.8530000000003 147.16549999999984L261.93899999999985 147.34999999999957L261.43699999999967 145.59049999999957L258.11699999999973 144.31299999999965L259.1020000000003 142.77099999999962L259.47900000000004 139.02150000000006L262.31750000000034 136.54949999999985L262.7430000000004 132.81499999999994L265.2064999999993 130.08199999999988L261.1284999999998 127.42050000000006L254.59299999999985 123.05799999999977L248.9224999999999 124.08349999999984L247.63000000000034 122.58099999999956L245.98250000000007 118.9224999999999L247.23549999999932 117.35549999999989L242.3709999999994 113.93149999999991L231.2990000000002 104.44399999999973L233.96299999999997 104.40249999999992L226.49599999999964 95.34149999999954L222.85549999999944 95.18149999999991L224.48549999999955 94.11699999999996L219.89849999999933 87.9789999999997L217.72449999999935 78.81550000000004L218.60850000000028 77.66349999999989L222.0074999999997 77.39499999999964L225.22500000000036 79.28349999999966L229.84550000000013 76.99700000000007L232.00249999999983 73.97400000000005L237.42849999999976 72.34049999999968L252.9099999999994 69.59699999999998L256.39999999999986 71.66249999999991L262.414 72.20799999999997L272.1879999999999 62.272499999999695L272.6879999999994 61.76150000000007L278.55249999999955 66.58699999999953L282.2765000000004 67.45649999999955L283.2095000000004 69.13049999999998L281.9330000000002 70.55499999999995L284.4309999999996 73.41049999999996L286.1934999999994 72.69000000000005L285.6264999999996 79.46049999999957L288.2204999999999 86.8644999999998L286.5485000000001 88.05399999999963L286.47699999999986 92.13499999999954L291.25400000000013 95.69699999999955L296.39400000000023 97.9159999999996L296.78549999999973 111.21350000000007L287.77649999999994 115.74250000000006L285.2359999999999 130.4419999999999L288.1079999999997 131.02949999999964L291.95299999999975 130.6469999999996L293.65249999999946 131.5904999999998L293.2330000000002 133.49499999999978L300.4660000000001 134.837L303.7659999999994 139.341L308.7069999999994 141.9444999999996L312.2389999999996 148.36700000000008L315.3985 150.10249999999985L323.4585000000004 144.65599999999995L326.2519999999995 139.7629999999998L327.33349999999973 137.24649999999997L329.9059999999997 142.6419999999996L330.3449999999998 154.44099999999992L333.8194999999996 156.39749999999992L333.97950000000037 158.3869999999996L337.81650000000013 159.4169999999997L347.2894999999994 161.38350000000003L352.7385000000004 159.5509999999996L356.3104999999996 161.03199999999958L359.09099999999967 166.10349999999983L368.16799999999944 169.8924999999997L370.0049999999999 169.38799999999958L374.2669999999998 173.15449999999998L384.85450000000014 169.28949999999986L393.0295000000001 174.23399999999958L388.44799999999964 178.28149999999994L386.83599999999956 186.33449999999982L391.4715000000001 190.3264999999999L391.09950000000026 193.94649999999956L396.2699999999995 196.40049999999974L392.10699999999974 200.95849999999984L392.7030000000002 206.63749999999993L389.9955 212.30549999999994L387.9785000000004 215.21849999999972L378.6144999999999 211.82699999999954L376.9335000000001 212.91799999999967L371.6994999999997 215.63199999999995L369.48849999999993 225.1245L369.2354999999998 226.10099999999989L367.2104999999999 229.23599999999965L363.79249999999956 227.9804999999999L360.37000000000035 232.3644999999999L358.2190000000003 236.4259999999996L352.61600000000044 238.35249999999974L342.7864999999997 236.39149999999972L341.05050000000006 244.3829999999997L335.53350000000023 250.28050000000007L345.4634999999996 252.44199999999978L354.06849999999963 257.98749999999984L352.3974999999996 261.32900000000006L348.7199999999996 262.4694999999997L333.78649999999993 259.0764999999999L334.3105000000003 249.40650000000005L329.0020000000004 252.10499999999968L323.19200000000023 251.42549999999972L320.3985 254.26199999999994L321.03650000000016 255.7499999999999L318.41949999999997 257.53349999999955L316.77400000000034 260.93999999999994L320.71249999999964 264.81799999999964L318.5585000000003 274.2154999999997L319.78399999999965 275.7049999999998L317.7404999999999 280.23499999999956L311.9470000000001 278.47199999999987L306.1215000000004 280.14099999999985L301.7160000000001 282.53600000000006L300.69349999999986 281.01099999999974L295.2234999999996 280.7664999999997L293.3960000000002 277.6169999999996L294.3819999999994 274.01099999999985L291.5935000000002 269.10349999999994L278.31950000000006 267.3769999999996L272.2334999999998 262.61300000000006L270.2355 263.16749999999956L253.2159999999999 256.05500000000006L251.62649999999985 255.31450000000007L259.12149999999997 253.96299999999997L262.4884999999995 245.16899999999964L268.2600000000002 245.00599999999963L259.76800000000026 236.86599999999999L260.7294999999999 233.0129999999997L266.3040000000001 233.75099999999975L269.75799999999936 231.8199999999996L265.9259999999995 227.28700000000003L258.76750000000015 223.54349999999954L262.61949999999956 224.54549999999983L269.1075000000001 220.39649999999995L273.05600000000027 220.35300000000007L276.14599999999996 222.6894999999996L278.5424999999998 228.11949999999968L282.1969999999999 225.9254999999996L287.54549999999995 220.88949999999954L284.95450000000005 214.33349999999962L290.51349999999957 215.65249999999992L303.7665000000004 214.28349999999966L306.94849999999974 205.40399999999977L305.7979999999998 203.88899999999978L311.0730000000001 206.10500000000002L316.66200000000003 205.0309999999996L322.00500000000034 207.03599999999994L322.41250000000036 191.3749999999999L317.3709999999994 185.65399999999954L314.16650000000004 180.6774999999999L310.1369999999997 184.9074999999999L304.71199999999953 185.9159999999997L297.8890000000001 176.44499999999994L299.6360000000004 168.06449999999984L296.1474999999996 164.40449999999998L292.7805000000001 163.91349999999989L289.73600000000033 165.91549999999984L286.105 165.60099999999977L286.3525000000004 167.39199999999983L275.6129999999996 163.00999999999988L275.7719999999995 159.33149999999955L280.3710000000001 153.39399999999955L277.0029999999997 151.1484999999999z">
      <title id="t137">Sixième circonscription de la Haute-Garonne</title>
      <desc id="d137">Cantons de : Cadours, Léguevin, Saint-Lys, Communes de : Colomiers, Tournefeuille</desc>
    </path><path class="circo" id="id-031-07" d="M439.4849999999997 308.0099999999999L441.15800000000036 300.37649999999985L440.02849999999967 297.54050000000007L439.0674999999999 295.874L440.6560000000002 294.71649999999954L446.09199999999987 296.9599999999997L447.31149999999957 295.4204999999996L449.09700000000043 285.80799999999954L447.1169999999995 282.4064999999996L438.54299999999967 278.9789999999999L440.2795000000003 275.65849999999955L439.0300000000002 272.3739999999998L435.15750000000025 276.8059999999997L428.04200000000037 279.90099999999984L418.93550000000005 278.86499999999955L418.35050000000024 277.44399999999985L416.0775000000001 278.99599999999964L406.85949999999934 279.9989999999997L408.40349999999944 285.25049999999965L409.5889999999997 291.24049999999954L413.6239999999998 298.29849999999965L413.2645000000002 302.3644999999999L411.1734999999999 307.9494999999997L402.22849999999994 312.4154999999996L394.72549999999956 303.0545000000001L389.77049999999963 300.3465L380.71000000000026 303.06299999999965L379.88449999999943 301.21699999999976L374.4245000000001 299.52200000000005L374.92849999999976 297.56299999999953L377.02249999999935 294.1120000000001L388.72549999999933 283.0804999999998L390.49049999999966 277.33349999999973L395.50700000000006 271.3544999999999L396.40949999999975 267.7634999999998L392.5030000000004 268.80349999999964L388.0605000000003 264.4694999999996L382.8899999999999 264.56249999999955L384.2629999999997 260.92299999999966L383.30150000000003 255.11349999999993L384.76249999999936 253.63349999999969L381.05749999999944 252.31949999999983L377.3574999999994 253.72649999999965L378.7514999999996 243.5839999999996L381.8674999999996 237.82249999999976L395.11300000000006 233.76899999999978L396.6890000000001 235.034L397.51449999999977 233.4979999999996L395.3869999999995 227.41749999999968L392.4874999999997 222.20100000000002L393.6545000000001 218.35099999999954L396.2284999999997 215.90749999999957L389.9955 212.30549999999994L387.9785000000004 215.21849999999972L378.6144999999999 211.82699999999954L376.9335000000001 212.91799999999967L371.6994999999997 215.63199999999995L369.48849999999993 225.1245L369.2354999999998 226.10099999999989L367.2104999999999 229.23599999999965L363.79249999999956 227.9804999999999L360.37000000000035 232.3644999999999L358.2190000000003 236.4259999999996L352.61600000000044 238.35249999999974L342.7864999999997 236.39149999999972L341.05050000000006 244.3829999999997L335.53350000000023 250.28050000000007L345.4634999999996 252.44199999999978L354.06849999999963 257.98749999999984L352.3974999999996 261.32900000000006L348.7199999999996 262.4694999999997L333.78649999999993 259.0764999999999L334.3105000000003 249.40650000000005L329.0020000000004 252.10499999999968L323.19200000000023 251.42549999999972L320.3985 254.26199999999994L321.03650000000016 255.7499999999999L318.41949999999997 257.53349999999955L316.77400000000034 260.93999999999994L320.71249999999964 264.81799999999964L318.5585000000003 274.2154999999997L319.78399999999965 275.7049999999998L317.7404999999999 280.23499999999956L323.04899999999975 285.85999999999956L318.7779999999998 294.8634999999996L320.40250000000015 300.54399999999987L318.78150000000005 304.21850000000006L330.0599999999997 309.6199999999999L325.6555000000003 313.38300000000004L326.57749999999965 318.90349999999955L310.73350000000005 330.06299999999953L308.11900000000037 335.3204999999997L302.54749999999945 335.5189999999999L299.70249999999965 333.0714999999998L294.4754999999998 337.9075L292.7385000000004 342.9075L298.49449999999933 342.37199999999973L310.4075 348.88599999999997L304.95450000000005 350.4694999999998L302.45450000000005 353.3349999999996L307.9340000000002 352.9075L315.6434999999999 357.6954999999998L317.28200000000015 363.1439999999998L314.56500000000005 368.4144999999995L308.0619999999999 373.59849999999994L302.11400000000026 385.88149999999985L300.1895000000002 385.9314999999998L298.94699999999943 382.269L297.08799999999997 381.76649999999995L292.06699999999955 384.55349999999953L284.9675000000002 377.1704999999997L273.3590000000004 392.14049999999986L279.10799999999995 400.1754999999997L289.8834999999997 405.04449999999963L294.2534999999998 407.18699999999956L293.84199999999964 410.797L288.49950000000035 412.6294999999999L286.81299999999965 418.00599999999974L283.21199999999976 419.13700000000006L280.61450000000036 420.4894999999999L280.78149999999937 429.8595L281.9825000000003 436.78949999999986L289.07050000000027 434.0715L296.62849999999935 435.70599999999956L297.65949999999975 428.8794999999999L304.7694999999999 428.76449999999977L307.00500000000034 435.8974999999998L308.67200000000025 436.81799999999953L308.73399999999947 440.6389999999999L312.2649999999999 441.28049999999973L315.0789999999995 448.0359999999996L310.72 450.63199999999995L309.87750000000005 454.1784999999999L311.65250000000015 457.33450000000005L321.6025000000002 466.395L326.8539999999996 472.40399999999966L327.8964999999994 475.8159999999998L326.7369999999994 477.17299999999966L332.30249999999955 489.384L341.6279999999995 488.1329999999997L348.5730000000001 486.0514999999998L348.09849999999983 476.54200000000003L355.8294999999998 475.2199999999999L357.0264999999995 473.62799999999993L360.6060000000002 467.5464999999997L365.94100000000026 468.039L354.88500000000045 456.7415L353.68150000000014 453.0160000000001L345.82199999999943 453.2734999999997L338.24949999999944 452.0894999999996L332.3734999999999 450.8699999999999L329.5830000000001 448.2439999999997L329.47900000000004 444.3354999999997L334.0719999999999 438.09199999999976L335.1724999999999 430.2909999999997L341.0984999999994 429.32950000000005L343.27300000000037 432.66899999999964L344.9180000000001 432.38549999999975L351.2455 428.313L350.4845 427.9050000000001L354.85400000000027 425.53200000000004L363.20600000000013 429.18450000000007L367.2169999999994 425.9035L370.99399999999946 428.7699999999995L374.3004999999994 428.19050000000004L377.3725000000002 424.674L376.6104999999993 420.2789999999999L388.8704999999993 415.351L394.6230000000003 416.7165L398.7710000000004 409.9095L399.74699999999984 404.72549999999956L396.6205000000002 400.4014999999998L395.83399999999983 396.7595L392.51049999999964 398.42899999999986L387.13300000000004 396.91449999999975L385.3155000000004 397.7819999999997L380.3864999999996 394.7149999999999L372.61499999999955 393.1L377.5159999999994 389.56199999999967L377.7404999999999 387.5619999999998L362.2829999999999 385.06299999999953L365.3120000000001 380.41799999999967L361.61100000000033 371.3794999999999L365.4480000000001 371.84799999999996L367.96699999999987 366.49749999999983L371.86950000000024 366.1089999999996L374.9725000000001 359.09599999999955L378.08599999999956 356.5074999999996L384.12000000000035 355.539L395.82149999999956 358.6579999999998L392.7030000000002 361.0825L398.48949999999945 371.0929999999996L408.1124999999997 377.65150000000006L408.4604999999999 378.27999999999975L418.35699999999974 390.39499999999975L414.5709999999997 407.49949999999956L420.69150000000036 412.36199999999997L425.0514999999996 413.6809999999997L429.41149999999993 415.80899999999986L436.5039999999999 417.3595L439.37400000000025 413.0279999999999L440.7134999999994 409.2764999999997L444.27149999999983 407.48199999999997L451.4859999999999 410.72299999999984L451.43749999999955 408.4359999999998L451.4424999999994 404.55749999999966L446.5779999999995 401.45399999999995L451.70999999999935 394.04949999999985L448.80199999999945 391.0544999999996L445.94100000000026 389.72849999999994L446.6610000000003 386.3014999999996L444.9744999999996 382.9154999999997L447.6769999999999 378.07950000000005L448.18149999999946 368.80899999999997L452.5924999999995 372.06050000000005L454.7334999999998 368.9889999999997L456.3225 369.9784999999997L456.5334999999993 373.68799999999965L457.2799999999995 381.1424999999997L467.5204999999994 378.55099999999993L467.5 379.1289999999998L469.07749999999965 378.134L470.37399999999934 379.4754999999998L474.03599999999983 385.99850000000004L477.5935000000004 390.6279999999998L479.17400000000043 389.4749999999999L480.65200000000004 385.85699999999974L479.6444999999994 380.20899999999983L483.29349999999977 379.1134999999997L482.69000000000005 373.47800000000007L487.16499999999996 364.9340000000001L490.2324999999996 362.5725L493.41999999999985 364.87449999999967L495.2544999999998 364.10649999999976L496.0659999999996 362.2844999999995L493.40900000000033 357.1139999999997L503.1484999999998 347.41799999999955L496.2774999999999 340.9249999999997L481.8795 325.14250000000004L476.8825000000004 326.50649999999985L474.7124999999994 333.7039999999996L471.3099999999997 337.92100000000005L472.4950000000001 339.4135L468.7175000000002 340.2879999999999L463.3669999999995 337.3955000000001L459.4965000000002 338.6034999999998L457.77349999999956 337.5319999999999L453.17949999999996 331.19699999999966L458.91200000000026 330.0374999999997L461.6269999999997 327.2194999999999L457.96299999999974 322.71699999999953L446.9724999999994 317.3229999999995L443.0129999999997 310.13149999999996L439.4849999999997 308.0099999999999z">
      <title id="t138">Septième circonscription de la Haute-Garonne</title>
      <desc id="d138">Cantons de : Auterive, Carbonne, Cintegabelle, Muret, Montesquieu-Volvestre, Rieux, Tournefeuille (moins la commune de Tournefeuille)</desc>
    </path><path class="circo" id="id-031-08" d="M206.53850000000034 558.707L200.15250000000037 562.9409999999996L184.1179999999997 563.8824999999997L188.56699999999933 576.6859999999997L185.42149999999992 581.2714999999997L179.82999999999947 581.5015L176.5745000000004 583.4959999999995L170.86950000000002 582.8055L169.59249999999997 584.2609999999996L163.61999999999966 588.4249999999997L166.82900000000018 596.9599999999997L169.73999999999933 599.5939999999996L170.50550000000044 603.4609999999998L167.26499999999987 612.7384999999998L169.04499999999985 616.2579999999997L172.77000000000044 617.5279999999998L173.98199999999974 624.8429999999996L177.73050000000012 633.1989999999996L177.06050000000005 640.4899999999998L167.23449999999957 639.0074999999996L152.9099999999994 631.9334999999995L143.47300000000018 634.4459999999998L126.68999999999983 627.4259999999998L122.69999999999982 623.0914999999999L113.33949999999959 619.8059999999998L106.30249999999933 623.3814999999998L100.38000000000011 623.4564999999998L100.72499999999991 627.4309999999997L93.86849999999981 631.5659999999997L92.40049999999997 634.9934999999999L93.6609999999996 638.7879999999996L96.85299999999984 641.1750000000001L94.7950000000003 646.6044999999997L97.02249999999935 653.288L92.78149999999982 656.3164999999998L89.5029999999997 662.5414999999998L86.20800000000031 665.1925L94.56050000000005 670.0009999999997L85.0649999999996 681.5539999999999L92.72100000000023 683.0899999999997L97.08399999999983 694.382L99.77149999999938 697.4354999999997L99.18149999999969 703.2964999999996L101.49149999999963 708.8739999999996L98.39249999999993 718.2714999999996L76.46299999999997 715.7549999999998L65.88349999999991 710.0574999999998L64.67649999999935 710.7814999999999L62.17199999999934 716.0284999999999L37.36250000000041 711.7165L35.98549999999932 711.7699999999996L31.667999999999665 718.0804999999998L21.924999999999955 717.2614999999996L15.31949999999938 713.2745L17.576500000000124 710.0854999999996L17.00550000000021 706.3004999999998L4.076999999999771 694.1019999999997L8.678999999999633 690.5899999999997L8.437999999999874 686.6309999999999L9.247000000000298 678.852L5.729499999999916 672.2314999999998L6.0685000000000855 666.6415000000001L8.624999999999545 661.5314999999998L9.10949999999957 661.1039999999997L9.2349999999999 654.008L7.712500000000091 652.5039999999996L6.148499999999331 645.1949999999999L7.262499999999363 641.5619999999996L9.53049999999962 632.2389999999996L10.963500000000295 628.3024999999998L7.8774999999996 625.4024999999996L13.162999999999556 621.0229999999996L12.823999999999387 615.2794999999998L15.152500000000373 610.0394999999997L24.47499999999991 612.1789999999999L26.487999999999374 615.5264999999997L28.436000000000377 615.3035L35.63350000000014 616.2394999999998L39.302999999999884 619.8904999999996L44.80950000000007 617.9444999999998L47.744500000000016 620.566L51.27200000000016 620.1799999999997L57.0494999999994 614.3414999999999L57.7819999999997 610.9324999999995L58.59199999999987 607.3075L61.18249999999989 600.6984999999997L64.00049999999965 592.4639999999999L65.36249999999995 591.5764999999999L66.25249999999937 586.9549999999998L67.35699999999952 581.1615L69.67649999999935 577.6855L73.80649999999946 576.0559999999998L78.59500000000025 573.132L83.18649999999934 566.8764999999996L85.12399999999957 566.7294999999996L86.81050000000027 561.8149999999997L85.77949999999987 560.4139999999995L82.72550000000024 557.7044999999998L82.38299999999981 557.4014999999997L75.82899999999995 555.3679999999997L73.18250000000035 549.7974999999997L74.06949999999938 548.4639999999996L72.14050000000043 546.1599999999999L77.66999999999939 544.701L78.92100000000028 539.5085L77.91249999999991 538.0064999999996L73.95549999999957 532.9124999999999L74.28199999999947 527.484L73.9289999999994 526.841L70.69749999999999 519.5839999999998L64.39600000000041 518.7455L64.14999999999964 524.2199999999997L63.80300000000034 526.3489999999996L61.21999999999957 525.738L60.80749999999966 527.5919999999996L53.45450000000028 527.2954999999996L50.843999999999596 530.0020000000001L44.27000000000021 537.1824999999995L42.63649999999984 538.7610000000001L39.42000000000007 537.878L36.23050000000035 534.1659999999996L39.5474999999999 529.4074999999998L39.702499999999645 517.8149999999999L41.77599999999984 514.7414999999995L45.34400000000005 513.777L51.422999999999774 518.1714999999997L53.20899999999938 517.5984999999997L52.61600000000044 515.5919999999998L49.787000000000035 502.7999999999997L48.13499999999976 501.99299999999994L51.00400000000036 497.27599999999995L51.91500000000019 496.17999999999995L38.45900000000029 490.4314999999997L38.64749999999958 484.7589999999997L34.27749999999946 485.5144999999999L26.726999999999634 483.89399999999966L24.805000000000064 476.90399999999954L21.037999999999784 476.13849999999957L20.224499999999352 472.35599999999977L9.775999999999385 474.58799999999997L4.7680000000002565 473.88499999999965L9.4074999999998 470.24549999999977L5.548499999999876 465.84799999999973L0.26749999999992724 463.19500000000005L0 463.16149999999993L6.268499999999904 455.08549999999957L7.591499999999769 452.68899999999974L24.47499999999991 437.96899999999994L33.555000000000064 426.866L27.22599999999943 423.10450000000003L32.164999999999964 415.7175000000001L39.14099999999962 418.23699999999974L43.89299999999935 415.32849999999996L46.82350000000042 417.60400000000004L54.62499999999977 412.817L55.7344999999998 403.6284999999998L46.43349999999941 401.9369999999998L53.16199999999981 392.42899999999963L57.082000000000335 391.9354999999996L57.38150000000019 388.7225000000001L65.91649999999959 380.07199999999955L73.48250000000007 377.52999999999986L73.79050000000007 375.94449999999995L75.32399999999939 370.1814999999999L81.17700000000013 368.72749999999996L82.46099999999956 365.0889999999998L70.17200000000003 358.2279999999997L72.22999999999956 355.43199999999956L86.08550000000037 357.34849999999994L91.18449999999939 354.4149999999996L99.03400000000033 347.34699999999975L99.28949999999986 345.7149999999996L107.07599999999957 334.0039999999999L109.20799999999986 329.99599999999987L109.80450000000019 328.8734999999997L111.05299999999943 326.9009999999997L116.29950000000008 318.4870000000001L123.18149999999946 322.4029999999999L128.60599999999977 316.78949999999986L131.7304999999999 311.94699999999955L129.87799999999993 308.4209999999996L131.01249999999936 306.7935L133.12450000000013 303.38449999999966L134.01250000000005 301.60049999999956L131.87900000000013 296.1009999999999L139.7085000000004 296.30449999999996L155.38099999999986 306.29999999999995L155.53649999999948 306.0379999999998L158.21199999999976 298.81849999999986L161.01 296.20299999999986L171.15049999999997 300.35699999999963L176.5345000000002 297.672L178.37350000000015 298.34299999999985L179.6664999999996 296.8754999999999L182.6419999999996 299.42799999999977L186.51650000000018 299.9185L188.6775 300.2709999999996L195.72850000000017 303.04599999999994L196.78049999999985 301.5594999999996L202.11299999999937 302.43449999999996L202.17250000000035 304.2964999999998L205.60550000000035 305.59049999999957L206.37749999999983 309.02349999999956L213.60500000000002 317.31799999999964L214.71400000000017 314.77899999999977L221.78300000000036 313.93699999999967L224.02150000000006 319.24199999999985L223.048 322.99199999999985L229.00999999999954 327.74749999999983L234.58849999999984 325.711L235.3144999999995 321.05699999999956L238.50450000000023 319.6704999999997L239.42299999999932 317.84249999999986L236.82549999999992 315.27199999999993L237.96500000000037 311.3905L234.7034999999994 301.8874999999997L239.11299999999983 298.0424999999997L246.96749999999952 299.2919999999998L249.43700000000035 294.18049999999994L246.23249999999985 289.4L245.32100000000014 288.2009999999997L246.7025000000001 285.11649999999975L250.9979999999996 282.0224999999999L251.6814999999997 278.4809999999999L252.15349999999944 274.87049999999954L253.88950000000023 275.4174999999998L253.15699999999993 273.8284999999996L256.07099999999946 271.91149999999993L254.9924999999996 270.5469999999997L244.7339999999997 263.0624999999998L246.6949999999997 259.7819999999996L253.2159999999999 256.05500000000006L270.2355 263.16749999999956L272.2334999999998 262.61300000000006L278.31950000000006 267.3769999999996L291.5935000000002 269.10349999999994L294.3819999999994 274.01099999999985L293.3960000000002 277.6169999999996L295.2234999999996 280.7664999999997L300.69349999999986 281.01099999999974L301.7160000000001 282.53600000000006L306.1215000000004 280.14099999999985L311.9470000000001 278.47199999999987L317.7404999999999 280.23499999999956L323.04899999999975 285.85999999999956L318.7779999999998 294.8634999999996L320.40250000000015 300.54399999999987L318.78150000000005 304.21850000000006L330.0599999999997 309.6199999999999L325.6555000000003 313.38300000000004L326.57749999999965 318.90349999999955L310.73350000000005 330.06299999999953L308.11900000000037 335.3204999999997L302.54749999999945 335.5189999999999L299.70249999999965 333.0714999999998L294.4754999999998 337.9075L292.7385000000004 342.9075L298.49449999999933 342.37199999999973L310.4075 348.88599999999997L304.95450000000005 350.4694999999998L302.45450000000005 353.3349999999996L307.9340000000002 352.9075L315.6434999999999 357.6954999999998L317.28200000000015 363.1439999999998L314.56500000000005 368.4144999999995L308.0619999999999 373.59849999999994L302.11400000000026 385.88149999999985L300.1895000000002 385.9314999999998L298.94699999999943 382.269L297.08799999999997 381.76649999999995L292.06699999999955 384.55349999999953L284.9675000000002 377.1704999999997L273.3590000000004 392.14049999999986L279.10799999999995 400.1754999999997L289.8834999999997 405.04449999999963L294.2534999999998 407.18699999999956L293.84199999999964 410.797L288.49950000000035 412.6294999999999L286.81299999999965 418.00599999999974L283.21199999999976 419.13700000000006L280.61450000000036 420.4894999999999L280.78149999999937 429.8595L281.9825000000003 436.78949999999986L289.07050000000027 434.0715L296.62849999999935 435.70599999999956L297.65949999999975 428.8794999999999L304.7694999999999 428.76449999999977L307.00500000000034 435.8974999999998L308.67200000000025 436.81799999999953L308.73399999999947 440.6389999999999L312.2649999999999 441.28049999999973L315.0789999999995 448.0359999999996L310.72 450.63199999999995L309.87750000000005 454.1784999999999L311.65250000000015 457.33450000000005L308.4789999999998 462.57450000000006L306.4379999999994 462.60149999999953L299.27400000000034 458.75599999999963L290.0184999999999 448.0529999999999L284.91300000000024 453.00250000000005L283.3834999999999 455.4390000000001L276.1545000000001 456.6624999999999L274.6735000000001 461.4984999999996L264.0314999999998 458.67699999999957L260.03900000000044 454.7249999999997L259.32450000000017 455.6234999999998L257.8565000000003 458.98199999999974L259.51850000000036 462.0169999999996L258.8919999999996 469.65599999999995L253.5304999999994 481.0134999999997L248.11849999999936 479.94399999999985L241.31999999999948 473.34299999999985L237.65999999999963 472.88099999999986L238.88399999999933 477.95649999999966L235.71050000000014 482.26399999999956L233.9224999999999 482.3464999999999L233.74199999999973 486.3304999999997L239.39200000000028 491.89899999999966L237.1244999999999 494.86699999999985L234.03749999999945 497.38L228.05299999999988 496.9L231.15599999999972 503.0329999999998L230.38299999999936 508.50599999999986L232.58699999999976 511.5314999999998L234.41900000000032 511.2025L234.88949999999932 516.1869999999999L234.37199999999962 516.3574999999997L230.67549999999983 513.2655L232.62499999999932 525.7544999999999L235.9254999999996 525.4145L240.66050000000018 528.4474999999998L243.0129999999997 533.5284999999999L246.798 533.4279999999995L239.6320000000003 535.8154999999999L235.1985000000002 544.6794999999997L228.40000000000032 554.2089999999996L222.28399999999965 556.3159999999999L210.9744999999998 559.3115L206.53850000000034 558.707z">
      <title id="t139">Huitième circonscription de la Haute-Garonne</title>
      <desc id="d139">Communes de : Aspet, Aurignac, Bagnères-de-Luchon, Barbazan, Boulogne-sur-Gesse, Cazères, Le Fousseret, L'Isle-en-Dodon, Montréjeau, Rieumes, Saint-Béat, Saint-Gaudens, Saint-Martory, Salies-du-Salat</desc>
    </path><path class="circo" id="id-031-09" d="M419.5609999999999 220.59949999999958L419.7555 228.03499999999985L417.4374999999998 235.18699999999967L418.26599999999985 236.96349999999995L422.0830000000001 237.8049999999996L420.4634999999996 242.82600000000002L414.84500000000025 242.73849999999982L412.9054999999994 239.59249999999997L406.0074999999995 243.58749999999986L411.88949999999977 251.2869999999998L412.7239999999995 252.81999999999982L409.85199999999963 256.81600000000003L411.0844999999995 258.04550000000006L415.59849999999983 264.4585000000001L413.75350000000026 271.7199999999997L416.0775000000001 278.99599999999964L406.85949999999934 279.9989999999997L408.40349999999944 285.25049999999965L409.5889999999997 291.24049999999954L413.6239999999998 298.29849999999965L413.2645000000002 302.3644999999999L411.1734999999999 307.9494999999997L402.22849999999994 312.4154999999996L394.72549999999956 303.0545000000001L389.77049999999963 300.3465L380.71000000000026 303.06299999999965L379.88449999999943 301.21699999999976L374.4245000000001 299.52200000000005L374.92849999999976 297.56299999999953L377.02249999999935 294.1120000000001L388.72549999999933 283.0804999999998L390.49049999999966 277.33349999999973L395.50700000000006 271.3544999999999L396.40949999999975 267.7634999999998L392.5030000000004 268.80349999999964L388.0605000000003 264.4694999999996L382.8899999999999 264.56249999999955L384.2629999999997 260.92299999999966L383.30150000000003 255.11349999999993L384.76249999999936 253.63349999999969L381.05749999999944 252.31949999999983L377.3574999999994 253.72649999999965L378.7514999999996 243.5839999999996L381.8674999999996 237.82249999999976L395.11300000000006 233.76899999999978L396.6890000000001 235.034L397.51449999999977 233.4979999999996L395.3869999999995 227.41749999999968L392.4874999999997 222.20100000000002L393.6545000000001 218.35099999999954L401.1540000000002 225.09799999999984L419.50950000000034 197.76700000000005L428.7995000000001 198.4744999999998L433.2249999999999 196.16749999999968L439.7415000000001 214.6089999999998L447.4294999999995 216.21849999999995L450.6359999999995 222.2569999999996L436.52199999999993 229.23450000000003L434.55349999999953 228.8299999999998L433.38949999999954 228.4359999999998L419.5609999999999 220.59949999999958z">
      <title id="t140">Neuvième circonscription de la Haute-Garonne</title>
      <desc id="d140">Cantons de : Portet-sur-Garonne, Toulouse IX (partie non comprise dans la 3e circonscription), Toulouse X, Toulouse XI</desc>
    </path><path class="circo" id="id-031-10" d="M598.8445000000002 218.76100000000008L598.3095000000003 207.99800000000005L593.9284999999995 201.93849999999998L586.4980000000003 199.98999999999967L579.9064999999996 201.0609999999997L576.7324999999994 199.20349999999985L574.3714999999997 198.59549999999956L565.6425000000002 193.4454999999997L565.1535000000001 189.41299999999956L561.9719999999995 186.85900000000004L561.2355000000002 187.90050000000008L553.9364999999998 186.9229999999999L553.8014999999996 186.39700000000005L552.1074999999996 185.45199999999966L545.9659999999997 182.21749999999986L544.5844999999997 179.1179999999997L539.3425000000002 176.63599999999974L533.9954999999998 177.0569999999998L529.5929999999998 170.9269999999998L524.8545000000001 176.01L521.4104999999995 175.0169999999997L520.5555000000004 180.53099999999972L523.5825 183.0574999999999L525.7539999999995 188.56749999999977L518.6689999999999 185.40149999999983L512.8329999999994 186.39399999999966L509.1255000000001 185.04249999999956L505.80799999999954 187.0859999999999L504.0944999999999 192.6769999999999L500.29949999999985 197.1524999999997L496.7840000000001 203.7349999999998L497.50800000000027 209.00099999999952L492.0569999999998 207.41899999999987L491.47299999999973 203.81899999999973L486.6070000000002 200.31049999999993L479.3304999999998 203.20299999999975L477.78099999999995 208.2624999999996L475.39999999999964 208.07349999999985L465.3520000000003 201.44349999999974L455.27450000000044 202.43499999999983L455.7745 208.63349999999969L452.4649999999997 213.86349999999993L447.4294999999995 216.21849999999995L450.6359999999995 222.2569999999996L436.52199999999993 229.23450000000003L434.55349999999953 228.8299999999998L433.38949999999954 228.4359999999998L424.55349999999953 223.1389999999999L419.5124999999996 220.57950000000005L419.7555 228.03499999999985L417.4374999999998 235.18699999999967L418.26599999999985 236.96349999999995L422.0830000000001 237.8049999999996L420.4634999999996 242.82600000000002L414.84500000000025 242.73849999999982L412.9054999999994 239.59249999999997L406.0074999999995 243.58749999999986L411.88949999999977 251.2869999999998L412.7239999999995 252.81999999999982L409.85199999999963 256.81600000000003L411.0844999999995 258.04550000000006L415.59849999999983 264.4585000000001L413.75350000000026 271.7199999999997L416.0775000000001 278.99599999999964L418.35050000000024 277.44399999999985L418.93550000000005 278.86499999999955L428.04200000000037 279.90099999999984L435.15750000000025 276.8059999999997L439.0300000000002 272.3739999999998L440.2795000000003 275.65849999999955L438.54299999999967 278.9789999999999L447.1169999999995 282.4064999999996L449.09700000000043 285.80799999999954L447.31149999999957 295.4204999999996L446.09199999999987 296.9599999999997L440.6560000000002 294.71649999999954L439.0674999999999 295.874L440.02849999999967 297.54050000000007L441.15800000000036 300.37649999999985L439.4849999999997 308.0099999999999L443.0129999999997 310.13149999999996L446.9724999999994 317.3229999999995L457.96299999999974 322.71699999999953L461.6269999999997 327.2194999999999L458.91200000000026 330.0374999999997L453.17949999999996 331.19699999999966L457.77349999999956 337.5319999999999L459.4965000000002 338.6034999999998L463.3669999999995 337.3955000000001L468.7175000000002 340.2879999999999L472.4950000000001 339.4135L471.3099999999997 337.92100000000005L474.7124999999994 333.7039999999996L476.8825000000004 326.50649999999985L481.8795 325.14250000000004L496.2774999999999 340.9249999999997L503.1484999999998 347.41799999999955L493.40900000000033 357.1139999999997L496.0659999999996 362.2844999999995L495.2544999999998 364.10649999999976L493.41999999999985 364.87449999999967L490.2324999999996 362.5725L487.16499999999996 364.9340000000001L482.69000000000005 373.47800000000007L483.29349999999977 379.1134999999997L484.88699999999994 382.76099999999985L492.6850000000002 384.3064999999996L494.9299999999994 387.58549999999957L508.0759999999998 391.4349999999996L507.1995000000004 401.30299999999977L511.1590000000001 401.02949999999964L515.7849999999996 397.21299999999985L516.0000000000002 393.20400000000006L513.7979999999993 388.039L523.5754999999995 375.4794999999996L529.8685 380.02700000000004L533.4079999999994 378.571L535.3324999999995 375.2724999999998L537.6149999999996 372.74L540.9645 366.28150000000005L536.4969999999994 362.93949999999995L546.4800000000002 356.65999999999997L550.0704999999994 355.23049999999955L545.1660000000004 347.25750000000005L546.0019999999997 345.4879999999997L546.7364999999995 343.63049999999987L544.5254999999997 340.32299999999964L549.8474999999996 342.5604999999996L554.5769999999993 339.1829999999999L555.7105000000001 335.68899999999985L565.5074999999999 342.9854999999998L567.3164999999995 339.72399999999993L570.8875 338.2069999999999L576.0050000000001 340.8884999999998L583.0224999999996 340.3404999999998L583.9544999999998 336.4564999999999L579.434 329.95149999999967L579.0205000000003 319.9109999999996L581.0704999999996 316.43849999999986L579.2169999999999 311.0469999999998L588.3879999999999 309.26199999999994L586.4800000000002 306.84849999999983L584.3039999999996 303.71249999999975L584.6299999999997 299.9074999999999L588.6654999999996 295.75699999999983L594.4550000000004 296.345L596.2094999999999 292.9124999999999L597.1924999999999 289.8075L595.5470000000003 287.0934999999997L601.2850000000003 280.711L608.2929999999999 284.5124999999996L608.7369999999999 288.4344999999996L618.7839999999994 297.78999999999996L620.6915000000004 301.0485L617.9160000000002 308.13949999999977L621.3189999999997 309.6339999999998L624.3439999999998 307.66050000000007L626.0104999999999 305.7009999999997L624.5764999999994 304.35249999999996L628.4190000000001 297.70399999999995L628.8075000000003 293.8655L634.4664999999998 292.20399999999984L639.9969999999996 294.2039999999997L644.5155 291.1534999999998L646.8880000000001 292.8279999999995L647.8110000000004 297.2534999999999L650.6870000000004 294.905L658.4090000000003 300.6479999999999L667.6509999999996 297.3464999999999L671.1855000000003 292.5694999999996L674.5320000000004 294.66049999999996L678.1439999999998 293.16299999999956L678.6189999999999 291.2299999999999L674.6759999999995 284.5489999999995L671.8020000000001 279.1809999999998L668.6329999999998 277.16099999999983L670.5105000000003 265.1310000000001L672.9599999999994 261.94950000000006L678.9469999999994 260.72149999999965L682.8179999999998 255.95249999999965L680.8989999999994 253.22949999999992L682.7345000000003 248.5949999999997L680.3655000000003 241.18949999999984L678.8429999999994 246.5179999999998L677.1584999999993 247.5139999999999L672.8874999999994 243.66999999999962L669.2234999999994 242.26599999999962L667.5819999999999 243.34599999999966L668.7054999999998 255.1139999999998L667.6395000000002 256.82500000000005L666.4684999999997 258.4834999999998L656.902 259.89149999999995L652.6454999999999 255.57249999999954L643.6254999999994 251.07299999999952L642.1095000000003 253.19099999999992L628.5349999999994 244.5814999999999L627.0515 246.73149999999964L615.2840000000003 238.11149999999998L614.5730000000003 237.6679999999999L608.673 228.13699999999983L608.3569999999997 226.2209999999999L611.4684999999997 223.96599999999978L604.5944999999995 221.18400000000008L598.8445000000002 218.76100000000008z">
      <title id="t141">Dixième circonscription de la Haute-Garonne</title>
      <desc id="d141">Cantons de : Caraman, Castanet-Tolosan, Lanta, Montgiscard, Nailloux, Revel, Villefranche-de-Lauragais</desc>
    </path></svg>