<svg xmlns="http://www.w3.org/2000/svg" version="1.1" xmlns:xlink="http://www.w3.org/1999/xlink" xmlns:svgjs="http://svgjs.dev/svgjs" width="630.043" height="451.6790000000003" fill="#eeeeee" stroke="#cccccc" xmlns:sodipodi="http://sodipodi.sourceforge.net/DTD/sodipodi-0.dtd"><path class="circo" id="id-032-01" d="M157.0980000000003 191.62050000000022L159.9124999999998 193.51400000000012L166.03349999999978 200.93799999999987L173.28900000000033 203.0555000000004L180.85050000000024 201.25400000000013L185.30149999999992 205.26650000000018L187.22399999999993 204.71000000000004L189.37850000000026 207.84149999999954L193.18100000000015 209.10750000000007L198.5235 214.6664999999996L206.02000000000032 217.18899999999962L207.02200000000005 223.14599999999928L208.61550000000022 224.37599999999975L210.60350000000028 227.80349999999999L218.7885 233.08750000000032L218.80150000000015 239.04449999999997L218.46450000000004 246.43599999999992L221.1360000000002 251.25599999999963L220.3694999999999 254.95850000000019L223.91850000000034 258.83100000000013L224.57449999999994 264.66099999999983L233.20300000000032 274.8789999999997L235.89 273.8289999999995L239.615 266.8290000000002L238.80949999999984 259.0109999999993L241.21350000000007 259.2134999999996L246.14899999999977 261.78750000000036L247.92500000000018 267.0609999999999L251.42299999999977 266.15299999999934L257.78250000000014 270.403L256.19500000000016 276.24400000000037L259.80650000000026 277.9390000000001L275.4615000000001 276.82450000000017L276.3934999999998 281.74499999999966L279.1640000000001 277.3140000000001L288.1785000000002 274.58849999999984L289.30049999999994 270.7465000000002L288.48000000000013 257.16099999999983L278.725 259.00800000000004L278.10400000000016 244.7180000000003L275.61649999999986 236.97199999999953L281.46450000000016 238.59699999999975L289.1714999999999 237.78599999999983L294.2624999999998 241.11999999999966L302.23749999999995 241.75749999999994L303.90649999999994 247.21450000000004L301.4760000000001 250.43549999999982L306.3639999999998 252.80849999999987L311.4190000000002 249.90049999999997L312.94899999999984 246.3594999999998L318.70749999999987 246.95150000000012L322.03750000000014 256.5165000000002L327.3935 259.4380000000001L331.9855000000001 250.35549999999944L341.7669999999998 247.36499999999978L341.2119999999999 241.4160000000004L341.9905 239.67199999999934L345.6445000000002 240.8904999999993L345.36249999999995 238.94249999999943L343.5485 233.5235L334.60500000000025 226.43500000000017L335.25149999999996 222.67799999999966L338.11950000000024 219.96700000000033L354.794 219.51349999999934L356.60349999999994 220.21399999999971L357.47950000000003 223.82799999999975L360.77650000000006 223.86349999999993L363.2900000000001 221.72149999999988L363.0095 219.79299999999967L359.61250000000007 217.89750000000026L360.1325000000003 214.04350000000022L354.92700000000013 208.6194999999998L363.8285000000002 202.10050000000024L366.62750000000017 195.25649999999928L371.6059999999999 197.91100000000029L382.03300000000013 193.6259999999993L379.59299999999985 187.98450000000003L382.29750000000024 179.6105L395.33500000000004 180.69150000000036L394.79150000000004 187.45249999999942L398.10400000000016 191.97299999999927L406.4280000000002 189.99850000000038L408.9760000000001 190.6650000000002L411.20000000000005 185.65699999999993L418.65200000000016 187.5845000000004L422.081 186.03250000000003L426.05500000000006 182.1339999999998L427.55150000000015 176.8870000000004L432.57450000000006 180.9764999999993L436.2164999999999 182.59900000000016L435.89350000000024 188.50450000000023L437.65600000000006 191.99799999999982L449.4625000000002 192.5305000000003L449.81949999999983 196.41899999999964L451.4910000000003 197.48950000000036L453.00099999999986 196.18600000000015L459.0875 201.17849999999976L457.32349999999997 203.01799999999957L457.67449999999997 205.02549999999928L452.423 211.18200000000002L453.4224999999998 212.9589999999996L446.13800000000026 215.58899999999994L450.9314999999998 218.75149999999962L449.2239999999998 222.36099999999965L441.73249999999996 223.92299999999977L440.2480000000003 225.14049999999997L441.26449999999977 226.77299999999946L449.41700000000026 238.25500000000034L442.4965000000003 234.54200000000014L434.6195 234.4920000000002L426.7075 235.98999999999933L425.85849999999994 237.8234999999995L427.32950000000017 241.3040000000001L423.63800000000026 240.13649999999984L418.85850000000005 243.08400000000006L416.4210000000003 249.16299999999978L413.7635 254.89900000000034L414.221 256.6719999999998L419.48500000000024 257.99350000000004L419.9815000000001 261.3040000000001L419.36350000000004 266.15850000000023L422.1010000000001 272.8435000000002L437.77800000000013 282.3344999999995L441.17650000000026 280.20899999999983L452.2520000000003 289.3764999999996L460.2850000000001 290.5824999999993L469.37900000000013 294.78700000000003L471.78499999999985 292.5234999999998L475.47500000000014 296.61449999999945L482.3525000000001 298.96049999999946L486.8520000000001 301.1349999999993L487.8620000000001 299.76099999999974L493.3269999999999 289.28999999999974L504.2784999999998 297.8359999999998L516.5600000000001 303.7199999999996L516.0095000000001 307.6089999999999L517.6564999999999 311.09199999999987L522.2270000000003 312.0965000000001L527.036 313.62300000000005L536.8270000000001 308.3929999999998L546.1759999999998 309.98050000000035L540.0205 317.97450000000026L545.7024999999999 325.797L558.415 330.28799999999933L566.3979999999998 316.99449999999956L573.5565000000003 320.73800000000006L577.3885000000001 325.2710000000002L573.9345000000003 327.20199999999977L568.3600000000001 326.4639999999997L567.3984999999999 330.317L575.8904999999999 338.45699999999965L570.1190000000003 338.61999999999966L566.7520000000002 347.414L559.2570000000001 348.7654999999995L560.8465000000001 349.5060000000001L554.3254999999999 353.2330000000002L552.3644999999999 356.5134999999998L562.6229999999998 363.9980000000003L563.7015000000002 365.36249999999995L560.7875000000001 367.27949999999964L561.5199999999999 368.8684999999998L559.7840000000002 368.32149999999956L559.3119999999999 371.93199999999933L558.6284999999998 375.4734999999994L554.3330000000003 378.56750000000034L552.9514999999998 381.65200000000027L553.863 382.85099999999943L557.0675 387.63149999999996L554.5980000000003 392.7430000000004L546.7435 391.49350000000027L542.3340000000002 395.3385000000003L545.5955 404.8415L544.4560000000001 408.72299999999996L547.0535000000001 411.2934999999993L546.1349999999999 413.12149999999974L542.9450000000003 414.5079999999996L542.219 419.16200000000003L536.6405000000003 421.1984999999993L530.6785000000002 416.4429999999993L531.6520000000003 412.6929999999993L529.4135 407.3879999999997L522.3444999999998 408.2299999999998L521.2355000000002 410.76900000000023L514.008 402.4744999999996L513.236 399.0414999999996L509.803 397.7475000000004L509.74350000000015 395.8854999999994L504.41100000000006 395.01049999999964L503.3589999999998 396.4969999999994L496.3080000000002 393.7220000000002L494.1469999999998 393.3695L490.2724999999998 392.87900000000036L487.2969999999998 390.3264999999999L486.0039999999998 391.79399999999987L484.16499999999985 391.12300000000005L478.7810000000002 393.8080000000002L468.6405000000002 389.6539999999993L465.8425 392.2694999999999L463.16700000000026 399.4889999999998L463.01150000000007 399.751L447.33900000000006 389.7555L439.5094999999998 389.5519999999999L441.64300000000026 395.0514999999996L440.75500000000034 396.8354999999997L438.64300000000014 400.2445L437.50850000000014 401.8719999999996L439.3610000000001 405.39800000000014L436.2365 410.2404999999999L430.81200000000024 415.85399999999936L423.9300000000003 411.9380000000001L418.6835000000002 420.3520000000003L417.43499999999983 422.3244999999997L416.83850000000007 423.4469999999999L414.7064999999998 427.4549999999999L406.9200000000001 439.16600000000017L406.6645 440.7979999999998L398.81500000000017 447.8660000000002L393.716 450.7994999999994L379.8604999999998 448.8829999999996L377.80250000000024 451.6790000000003L374.7784999999999 450.0630000000001L366.26800000000003 445.6549999999993L362.6245 446.45149999999944L352.41150000000005 440.6264999999996L349.2745000000002 442.19150000000013L348.1400000000002 441.93250000000035L338.655 438.5604999999998L334.9425000000002 438.6514999999997L331.438 442.8539999999998L329.66099999999983 443.1529999999998L323.8285000000002 439.00049999999965L320.92150000000004 439.0625L315.8879999999999 436.6790000000003L309.0224999999998 434.2394999999999L308.1684999999999 441.72500000000014L297.8694999999999 441.63549999999987L288.1299999999999 438.03350000000023L287.1985000000001 436.1659999999995L289.341 427.9835000000003L280.788 425.68899999999985L274.5524999999998 429.0750000000003L267.0210000000003 429.91250000000036L264.33899999999994 432.4649999999997L260.72850000000017 433.11900000000037L258.2024999999999 414.34099999999944L252.55949999999984 418.8175000000001L247.8264999999999 416.2749999999994L246.87700000000007 406.26949999999965L235.16250000000014 409.75349999999935L223.66150000000005 415.54449999999974L218.37750000000028 418.4719999999993L214.83150000000023 417.2334999999998L207.5999999999999 418.4325000000001L204.0854999999999 414.25700000000006L197.2660000000002 416.4424999999994L194.71299999999985 411.0284999999999L196.43500000000017 411.79899999999975L193.7700000000001 397.9684999999995L186.60950000000014 400.2170000000001L182.9464999999999 396.56849999999963L181.2885 390.7560000000001L177.08550000000002 386.4314999999999L178.59950000000026 380.249L178.32249999999988 379.70050000000015L190.48000000000002 374.7919999999999L185.94499999999982 366.2175000000002L185.90599999999995 365.7185000000004L182.8555 361.23199999999997L181.32749999999987 362.27300000000014L177.92050000000017 361.0209999999995L175.4675000000003 356.23899999999935L173.9960000000002 346.52150000000006L175.13750000000016 345.0979999999993L174.07600000000002 341.63400000000024L167.6075000000003 330.8654999999999L158.95350000000008 335.0414999999998L154.7520000000003 330.87049999999977L154.14649999999995 327.00899999999933L148.69199999999978 329.6709999999996L142.69049999999993 330.04850000000033L136.84050000000013 319.4169999999997L132.67449999999997 314.9234999999999L126.60849999999982 315.6124999999997L123.92150000000015 307.1449999999993L119.19250000000034 302.7514999999994L117.10149999999999 286.6139999999996L113.52199999999982 279.1629999999998L105.65600000000018 279.6339999999998L105.49950000000024 278.0179999999996L103.70450000000005 278.73199999999997L101.13249999999994 275.9405000000004L96.0575 278.59500000000025L88.35950000000025 278.77849999999967L87.77449999999988 286.63350000000037L78.45849999999984 288.6104999999998L78.76700000000028 292.73000000000025L67.95749999999998 290.9649999999999L65.11149999999986 293.4235000000001L61.07050000000015 293.4789999999998L55.73149999999998 290.9399999999994L52.82449999999983 293.29150000000027L51.00300000000004 293.1639999999993L44.860499999999774 284.2650000000003L32.768500000000245 291.79399999999987L30.390500000000316 286.37449999999944L22.65699999999981 288.4825000000001L18.360500000000002 292.3580000000004L16.691999999999894 291.2170000000003L13.867999999999938 284.3634999999995L11.94500000000005 284.3369999999993L14.83600000000024 273.03800000000024L3.2970000000000255 272.98850000000016L0.2544999999997799 268.4680000000003L0 257.11400000000026L6.435999999999922 260.7174999999995L7.968999999999937 259.66999999999985L8.631500000000187 254.25299999999993L9.738500000000272 251.1914999999999L15.23050000000012 250.1445000000001L16.505500000000097 244.8490000000004L18.012499999999818 240.5695000000003L11.981499999999983 239.56999999999994L10.794500000000085 237.88900000000012L11.716000000000122 233.88100000000009L17.381000000000313 227.9729999999995L14.761000000000308 218.23350000000005L25.448000000000093 212.5725L37.38749999999982 201.89949999999953L36.31050000000016 196.14749999999958L26.8810000000002 194.06799999999976L28.976499999999987 190.9299999999996L30.988500000000272 190.54599999999937L31.589999999999918 188.57650000000035L28.23350000000005 181.07549999999947L28.596499999999878 175.05999999999972L25.493999999999915 172.42999999999938L26.972999999999843 166.83850000000007L23.442000000000007 160.317L28.097999999999956 157.44749999999954L29.52949999999987 159.3674999999996L37.14749999999981 159.40699999999993L36.45250000000033 147.6789999999994L39.214999999999804 144.98299999999972L37.694999999999936 141.2609999999995L31.11249999999984 130.85500000000025L33.10549999999978 129.24999999999955L36.758500000000254 124.60399999999936L39.60950000000025 126.29349999999931L40.96650000000011 125.42149999999992L48.59649999999988 136.29249999999956L52.377500000000055 137.72199999999998L62.38100000000031 146.33299999999963L65.92600000000004 147.5974999999994L66.39900000000011 147.65350000000012L71.35850000000005 153.7119999999993L80.33299999999997 157.0550000000003L82.84850000000006 159.75649999999973L90.21999999999991 159.71199999999953L91.92949999999996 163.0499999999995L93.64599999999996 157.41949999999974L99.14100000000019 156.95150000000012L100.60150000000021 155.62199999999962L100.73550000000012 149.7550000000001L105.94750000000033 147.2619999999995L106.55599999999993 145.46600000000012L119.34650000000033 137.25450000000023L118.99000000000001 133.7009999999998L129.9214999999998 137.89800000000014L131.55750000000012 132.44950000000017L137.2354999999999 134.4909999999993L149.51099999999997 142.07649999999944L158.84749999999997 152.83900000000017L160.83399999999983 153.3809999999994L167.72100000000023 148.87849999999958L169.58700000000022 149.75450000000023L170.75050000000033 155.711L171.78699999999992 159.51799999999935L168.913 164.62400000000002L168.87749999999983 168.57049999999958L170.95550000000003 173.8435000000004L175.68449999999984 177.0844999999997L173.26000000000022 179.5584999999994L174.66200000000015 184.28750000000036L163.4295000000003 188.3344999999997L157.67899999999997 186.73999999999978L157.0980000000003 191.62050000000022z">
      <title id="t142">Première circonscription du Gers</title>
      <desc id="d142">Cantons de : Aignan, Auch Nord-Est, Auch Nord-Ouest, Auch Sud-Est-Seissan, Auch Sud-Ouest, Lombez, Marciac, Masseube, Miélan, Mirande, Montesquiou, Nogaro, Plaisance, Riscle, Samatan, Saramon</desc>
    </path><path class="circo" id="id-032-02" d="M118.99000000000001 133.7009999999998L129.9214999999998 137.89800000000014L131.55750000000012 132.44950000000017L137.2354999999999 134.4909999999993L149.51099999999997 142.07649999999944L158.84749999999997 152.83900000000017L160.83399999999983 153.3809999999994L167.72100000000023 148.87849999999958L169.58700000000022 149.75450000000023L170.75050000000033 155.711L171.78699999999992 159.51799999999935L168.913 164.62400000000002L168.87749999999983 168.57049999999958L170.95550000000003 173.8435000000004L175.68449999999984 177.0844999999997L173.26000000000022 179.5584999999994L174.66200000000015 184.28750000000036L163.4295000000003 188.3344999999997L157.67899999999997 186.73999999999978L157.0980000000003 191.62050000000022L159.9124999999998 193.51400000000012L166.03349999999978 200.93799999999987L173.28900000000033 203.0555000000004L180.85050000000024 201.25400000000013L185.30149999999992 205.26650000000018L187.22399999999993 204.71000000000004L189.37850000000026 207.84149999999954L193.18100000000015 209.10750000000007L198.5235 214.6664999999996L206.02000000000032 217.18899999999962L207.02200000000005 223.14599999999928L208.61550000000022 224.37599999999975L210.60350000000028 227.80349999999999L218.7885 233.08750000000032L218.80150000000015 239.04449999999997L218.46450000000004 246.43599999999992L221.1360000000002 251.25599999999963L220.3694999999999 254.95850000000019L223.91850000000034 258.83100000000013L224.57449999999994 264.66099999999983L233.20300000000032 274.8789999999997L235.89 273.8289999999995L239.615 266.8290000000002L238.80949999999984 259.0109999999993L241.21350000000007 259.2134999999996L246.14899999999977 261.78750000000036L247.92500000000018 267.0609999999999L251.42299999999977 266.15299999999934L257.78250000000014 270.403L256.19500000000016 276.24400000000037L259.80650000000026 277.9390000000001L275.4615000000001 276.82450000000017L276.3934999999998 281.74499999999966L279.1640000000001 277.3140000000001L288.1785000000002 274.58849999999984L289.30049999999994 270.7465000000002L288.48000000000013 257.16099999999983L278.725 259.00800000000004L278.10400000000016 244.7180000000003L275.61649999999986 236.97199999999953L281.46450000000016 238.59699999999975L289.1714999999999 237.78599999999983L294.2624999999998 241.11999999999966L302.23749999999995 241.75749999999994L303.90649999999994 247.21450000000004L301.4760000000001 250.43549999999982L306.3639999999998 252.80849999999987L311.4190000000002 249.90049999999997L312.94899999999984 246.3594999999998L318.70749999999987 246.95150000000012L322.03750000000014 256.5165000000002L327.3935 259.4380000000001L331.9855000000001 250.35549999999944L341.7669999999998 247.36499999999978L341.2119999999999 241.4160000000004L341.9905 239.67199999999934L345.6445000000002 240.8904999999993L345.36249999999995 238.94249999999943L343.5485 233.5235L334.60500000000025 226.43500000000017L335.25149999999996 222.67799999999966L338.11950000000024 219.96700000000033L354.794 219.51349999999934L356.60349999999994 220.21399999999971L357.47950000000003 223.82799999999975L360.77650000000006 223.86349999999993L363.2900000000001 221.72149999999988L363.0095 219.79299999999967L359.61250000000007 217.89750000000026L360.1325000000003 214.04350000000022L354.92700000000013 208.6194999999998L363.8285000000002 202.10050000000024L366.62750000000017 195.25649999999928L371.6059999999999 197.91100000000029L382.03300000000013 193.6259999999993L379.59299999999985 187.98450000000003L382.29750000000024 179.6105L395.33500000000004 180.69150000000036L394.79150000000004 187.45249999999942L398.10400000000016 191.97299999999927L406.4280000000002 189.99850000000038L408.9760000000001 190.6650000000002L411.20000000000005 185.65699999999993L418.65200000000016 187.5845000000004L422.081 186.03250000000003L426.05500000000006 182.1339999999998L427.55150000000015 176.8870000000004L432.57450000000006 180.9764999999993L436.2164999999999 182.59900000000016L435.89350000000024 188.50450000000023L437.65600000000006 191.99799999999982L449.4625000000002 192.5305000000003L449.81949999999983 196.41899999999964L451.4910000000003 197.48950000000036L453.00099999999986 196.18600000000015L459.0875 201.17849999999976L457.32349999999997 203.01799999999957L457.67449999999997 205.02549999999928L452.423 211.18200000000002L453.4224999999998 212.9589999999996L446.13800000000026 215.58899999999994L450.9314999999998 218.75149999999962L449.2239999999998 222.36099999999965L441.73249999999996 223.92299999999977L440.2480000000003 225.14049999999997L441.26449999999977 226.77299999999946L449.41700000000026 238.25500000000034L442.4965000000003 234.54200000000014L434.6195 234.4920000000002L426.7075 235.98999999999933L425.85849999999994 237.8234999999995L427.32950000000017 241.3040000000001L423.63800000000026 240.13649999999984L418.85850000000005 243.08400000000006L416.4210000000003 249.16299999999978L413.7635 254.89900000000034L414.221 256.6719999999998L419.48500000000024 257.99350000000004L419.9815000000001 261.3040000000001L419.36350000000004 266.15850000000023L422.1010000000001 272.8435000000002L437.77800000000013 282.3344999999995L441.17650000000026 280.20899999999983L452.2520000000003 289.3764999999996L460.2850000000001 290.5824999999993L469.37900000000013 294.78700000000003L471.78499999999985 292.5234999999998L475.47500000000014 296.61449999999945L482.3525000000001 298.96049999999946L486.8520000000001 301.1349999999993L487.8620000000001 299.76099999999974L493.3269999999999 289.28999999999974L504.2784999999998 297.8359999999998L516.5600000000001 303.7199999999996L516.0095000000001 307.6089999999999L517.6564999999999 311.09199999999987L522.2270000000003 312.0965000000001L527.036 313.62300000000005L536.8270000000001 308.3929999999998L546.1759999999998 309.98050000000035L540.0205 317.97450000000026L545.7024999999999 325.797L558.415 330.28799999999933L566.3979999999998 316.99449999999956L570.2499999999998 317.9964999999993L576.7380000000003 313.8474999999994L580.6864999999999 313.8040000000001L583.7765000000002 316.1405000000002L586.173 321.57050000000027L589.8275000000001 319.3764999999996L595.1760000000002 314.34049999999957L592.5850000000003 307.7845000000002L598.1439999999998 309.10349999999994L611.397 307.73450000000025L614.579 298.8549999999998L613.4285 297.3400000000004L618.7035000000003 299.55600000000004L624.2925000000002 298.4820000000002L629.6355 300.4869999999994L630.043 284.82599999999934L625.0015000000002 279.10499999999956L621.7970000000003 274.12849999999935L617.7674999999999 278.35849999999937L612.3425000000003 279.36699999999973L605.5195000000003 269.89599999999996L607.2665000000001 261.5154999999993L603.7779999999998 257.85549999999944L600.4110000000003 257.3644999999999L597.3665 259.36649999999986L593.7355000000002 259.05200000000036L593.9830000000001 260.84299999999985L583.2434999999998 256.46099999999933L583.4025000000003 252.78249999999957L588.0015000000003 246.84499999999957L584.6334999999999 244.59949999999935L576.7144999999999 246.16750000000025L571.4834999999999 240.61649999999986L569.5695000000001 240.80100000000016L569.0674999999999 239.0414999999996L565.7475 237.76399999999967L566.7325 236.2220000000002L567.1095000000003 232.47250000000008L569.948 230.00049999999987L570.3735 226.2659999999994L572.8370000000001 223.5329999999999L568.759 220.87149999999951L562.2235000000001 216.5089999999998L556.5530000000001 217.5344999999993L555.2605 216.03200000000015L553.6130000000003 212.37349999999992L554.8660000000001 210.80649999999991L550.0015000000002 207.38249999999994L538.9294999999998 197.89499999999975L541.5935000000002 197.85349999999994L534.1264999999999 188.79249999999956L530.4860000000002 188.63249999999994L532.1160000000003 187.56799999999998L527.5290000000001 181.4300000000003L525.3550000000001 172.2664999999995L520.2955000000003 169.62099999999964L512.4775 170.1660000000004L509.82550000000003 173.15600000000018L504.13549999999987 174.07550000000015L501.26000000000033 171.58199999999965L504.95600000000024 158.5545000000002L508.69500000000016 153.89049999999997L513.1060000000002 145.96699999999942L500.3879999999998 141.33000000000038L500.4480000000001 135.81649999999968L507.808 136.26750000000015L504.1565000000003 128.9205000000004L496.47550000000024 122.26350000000025L495.1294999999999 114.25299999999993L496.3220000000001 110.96649999999954L502.68100000000004 107.7539999999999L504.38949999999977 106.52950000000033L497.83450000000016 103.39049999999929L497.3950000000002 100.2215000000001L491.909 98.32949999999983L487.3989999999998 92.22099999999955L483.73850000000004 93.49449999999933L482.0704999999998 92.50450000000001L480.8834999999999 95.76149999999984L477.054 96.45599999999945L468.3865000000003 91.15949999999998L463.8620000000003 86.83800000000019L447.1615000000003 92.8329999999994L443.14300000000003 83.0804999999998L442.95799999999986 79.16399999999953L453.0155000000002 73.48949999999945L453.59350000000006 71.61249999999995L456.6020000000003 66.85550000000035L456.29700000000014 64.83349999999973L460.2929999999998 60.297500000000355L461.8470000000002 60.54149999999936L463.45550000000003 57.98099999999977L463.7434999999999 57.468000000000075L471.33100000000013 48.34349999999972L470.5990000000003 44.25700000000006L467.31550000000027 41.501499999999396L469.46799999999996 38.21299999999951L466.0944999999998 33.378999999999905L468.3589999999998 30.494999999999663L472.0055000000002 29.81899999999996L476.9260000000003 32.49400000000037L480.86250000000007 26.489500000000135L484.50500000000034 26.236000000000104L487.39300000000014 23.990499999999884L482.6640000000003 21.926499999999578L481.43050000000017 18.681000000000267L475.49950000000024 19.093500000000176L469.2845 13.999000000000024L465.6510000000003 15.958499999999276L458.7945000000002 20.87699999999927L444.6300000000002 29.346500000000333L441.4499999999998 22.49050000000011L442.35600000000034 16.639999999999873L440.0819999999999 13.54249999999979L438.82450000000006 8.120000000000118L435.2105 8.319500000000062L424.69949999999983 12.813999999999623L420.77650000000006 12.405999999999722L415.09149999999977 20.191499999999678L410.07949999999994 21.898499999999785L408.7330000000003 29.51850000000036L401.4960000000002 32.3294999999996L398.05600000000027 27.381500000000187L397.097 21.501499999999396L388.3589999999998 17.599500000000035L385.9174999999999 10.313999999999623L374.6170000000001 2.550499999999829L375.42700000000025 0.7409999999993033L371.7945000000003 0L368.58150000000023 1.520500000000311L364.9504999999999 2.5540000000000873L360.87350000000015 11.031500000000278L357.3720000000003 12.44450000000029L348.73850000000004 15.562999999999647L337.32849999999985 9.775999999999385L334.41149999999993 16.913999999999305L333.0920000000003 13.456999999999653L326.3280000000003 12.170999999999594L324.69100000000026 15.2800000000002L315.30399999999986 14.127999999999474L311.4440000000002 19.838499999999613L311.2885 20.631499999999505L307.9475000000002 29.864499999999907L297.9525000000001 30.142999999999347L293.1824999999998 33.83450000000039L289.0690000000001 34.2470000000003L287.30200000000025 35.343500000000176L282.3984999999999 41.99299999999994L278.3499999999998 41.915500000000065L271.63549999999987 37.75549999999953L257.919 42.252999999999474L253.98349999999994 40.97149999999942L255.06550000000004 48.48999999999933L249.73900000000015 50.412000000000035L248.68100000000027 52.03899999999976L239.94050000000016 48.052000000000135L236.1635000000001 48.011999999999944L234.19600000000003 44.462499999999636L226.4240000000001 44.34499999999957L218.92650000000003 41.313499999999976L218.8330000000002 33.63200000000006L215.93850000000032 35.2030000000002L212.86 34.375L211.16550000000018 33.39650000000006L205.65200000000004 38.451499999999896L202.1260000000001 38.77399999999966L200.5709999999999 37.993999999999915L196.80949999999996 45.2699999999993L190.47000000000025 50.23349999999937L190.15899999999988 58.42149999999947L188.34249999999997 62.012999999999465L184.5245 62.688499999999294L178.81799999999998 60.688499999999976L179.8275000000001 50.61900000000037L173.81250000000023 45.724500000000035L174.05349999999999 47.70099999999957L165.5419999999998 55.49849999999992L152.22100000000012 56.82099999999991L148.60450000000014 62.0780000000002L148.55950000000007 66.16399999999999L143.45700000000022 72.17700000000036L149.6289999999999 85.04549999999995L151.81150000000002 97.23549999999932L149.26199999999994 102.74350000000027L144.81400000000008 106.85150000000021L137.45450000000005 103.8289999999995L134.00199999999984 105.90799999999945L126.6764999999998 98.61499999999978L111.23649999999998 88.61400000000003L122.22750000000019 79.26299999999969L122.28099999999984 73.09399999999982L119.49250000000006 70.12650000000008L104.52850000000012 56.46799999999985L101.11949999999979 68.32300000000032L93.82999999999981 71.41399999999976L87.88900000000012 79.57300000000032L85.94400000000007 80.23950000000013L80.60099999999977 77.5935000000004L78.00799999999981 80.78499999999963L79.30800000000033 87.74499999999989L76.31100000000004 89.80299999999943L66.60650000000032 80.22600000000011L62.4675000000002 84.47850000000017L56.67700000000025 82.73249999999962L53.01400000000001 87.32349999999997L49.307000000000016 88.66800000000012L44.641000000000304 84.8434999999995L34.65399999999988 97.25999999999999L30.78900000000033 98.97449999999935L27.720499999999788 101.38950000000023L24.875000000000114 98.85999999999967L23.02000000000021 99.47299999999927L20.95700000000022 104.96149999999943L17.78849999999977 107.10500000000025L21.226500000000215 111.1869999999999L24.887499999999818 110.36200000000008L28.26149999999984 112.2264999999993L30.900500000000193 114.52449999999999L34.375 114.46799999999939L37.450000000000045 116.69599999999946L40.96650000000011 125.42149999999992L48.59649999999988 136.29249999999956L52.377500000000055 137.72199999999998L62.38100000000031 146.33299999999963L65.92600000000004 147.5974999999994L66.39900000000011 147.65350000000012L71.35850000000005 153.7119999999993L80.33299999999997 157.0550000000003L82.84850000000006 159.75649999999973L90.21999999999991 159.71199999999953L91.92949999999996 163.0499999999995L93.64599999999996 157.41949999999974L99.14100000000019 156.95150000000012L100.60150000000021 155.62199999999962L100.73550000000012 149.7550000000001L105.94750000000033 147.2619999999995L106.55599999999993 145.46600000000012L119.34650000000033 137.25450000000023L118.99000000000001 133.7009999999998z">
      <title id="t143">Deuxième circonscription du Gers</title>
      <desc id="d143">Cantons de : Cazaubon, Cazaubon, Cologne, Condom, Eauze, Fleurance, Gimont, L'Isle-Jourdain, Jegun, Lectoure, Mauvezin, Miradoux, Montréal, Saint-Clar, Valence-sur-Baïse, Vic-Fézensac</desc>
    </path></svg>