<svg xmlns="http://www.w3.org/2000/svg" version="1.1" xmlns:xlink="http://www.w3.org/1999/xlink" xmlns:svgjs="http://svgjs.dev/svgjs" width="723.9949999999999" height="827.2968500000001" fill="#eeeeee" stroke="#cccccc" xmlns:sodipodi="http://sodipodi.sourceforge.net/DTD/sodipodi-0.dtd"><path class="circo" id="id-033-01" d="M598.3015 198.36604999999992L586.8700000000001 169.10139999999998L594.7080000000005 152.4155499999999L604.0460000000007 144.56715000000003L597.0130000000006 136.95385000000002L600.2575000000002 127.07359999999994L595.9980000000007 112.10224999999994L615.4660000000001 108.18029999999993L623.9790000000005 97.06765000000004L648.6855000000003 95.09135L653.4154999999998 96.4922L684.3534999999997 84.05304999999998L697.4840000000006 125.93139999999991L691.1599999999999 156.24015L681.5219999999999 170.1859499999999L638.8549999999998 180.67419999999998L616.5039999999999 207.78589999999994L598.3015 198.36604999999992z">
      <title id="t144">Première circonscription de la Gironde</title>
      <desc id="d144">Cantons de : Bordeaux I, Bordeaux II, Bordeaux VIII, Le Bouscat</desc>
    </path><path class="circo" id="id-033-02" d="M616.6600000000005 227.05820000000003L612.894 223.32030000000003L616.5039999999999 207.78589999999994L638.8549999999998 180.67419999999998L681.5219999999999 170.1859499999999L691.1599999999999 156.24015L696.1130000000003 157.83725000000004L694.9940000000004 168.19035L695.2435000000003 188.12245000000004L690.2760000000001 196.84095L685.5129999999997 206.09414999999998L673.2979999999998 216.50170000000003L662.0979999999997 216.01195000000004L656.2255000000005 244.77149999999995L653.4739999999999 235.13719999999992L642.1510000000001 224.87984999999995L624.8395000000005 233.12119999999993L616.6600000000005 227.05820000000003z">
      <title id="t145">Deuxième circonscription de la Gironde</title>
      <desc id="d145">Cantons de : Bordeaux III, Bordeaux IV, Bordeaux V, Bordeaux VII</desc>
    </path><path class="circo" id="id-033-03" d="M624.8395000000005 233.12119999999993L617.2879999999998 239.30534999999992L622.0270000000005 247.93205L622.4689999999998 271.7046499999999L636.9130000000007 280.9107999999999L642.2230000000002 298.9324499999999L638.7310000000002 317.68190000000004L644.0575000000001 332.1880999999999L658.9385000000004 345.92869999999994L668.7310000000002 349.15774999999996L664.9005 333.8893999999999L691.9659999999999 318.97035000000005L698.4625000000005 310.8387499999999L723.9949999999999 307.98704999999995L723.4940000000006 301.3173499999999L710.8715000000007 274.58545000000004L707.133 251.82225000000003L700.9069999999997 236.50684999999996L695.1914999999997 226.60595L696.5255000000002 217.12585000000004L685.5129999999997 206.09414999999998L673.2979999999998 216.50170000000003L662.0979999999997 216.01195000000004L656.2255000000005 244.77149999999995L653.4739999999999 235.13719999999992L642.1510000000001 224.87984999999995L624.8395000000005 233.12119999999993z">
      <title id="t146">Troisième circonscription de la Gironde</title>
      <desc id="d146">Cantons : Bègles, Bordeaux VI, Talence, Villenave-d'Ornon</desc>
    </path><path class="circo" id="id-033-04" d="M342.7684999999997 374.19815L336.5935000000002 363.88665000000003L335.21150000000034 358.09495L334.47 349.5648L330.7675000000006 344.6639L327.4890000000005 343.53084999999993L325.8540000000005 344.42165L313.09849999999983 335.8610999999999L300.2954999999997 326.0535L294.4515000000001 324.39359999999994L290.77800000000025 325.7155L285.12550000000033 323.43064999999996L282.5025000000005 322.05449999999996L280.55399999999963 325.78104999999994L283.14550000000054 331.58119999999997L286.68750000000045 336.67635000000007L298.09600000000046 345.73685L299.22450000000026 349.5756L305.47500000000014 355.5815L306.3900000000001 361.80015L306.22550000000047 371.6396499999999L302.76250000000005 382.96115L302.44300000000067 392.18949999999995L303.33150000000046 396.2662L308.51800000000026 412.80815000000007L306.01999999999975 424.78004999999996L307.97649999999976 425.41089999999997L307.53450000000043 429.50045L307.6330000000007 437.37359999999995L305.6709999999998 440.81739999999996L303.7895000000003 444.47239999999994L308.13949999999977 448.8299999999999L307.6125000000002 452.57464999999996L309.86999999999966 456.48545L312.3294999999996 462.535L315.3060000000005 464.62620000000004L324.375 462.99565L334.42300000000046 451.04959999999994L343.6374999999998 450.81649999999996L345.9490000000005 445.31449999999995L345.5664999999999 436.9047999999999L340.83349999999996 427.5378999999999L345.1755000000003 426.44475L355.72200000000066 422.73025000000007L361.63549999999987 422.8412L360.45799999999986 428.37739999999997L370.48900000000003 427.82989999999995L382.83050000000003 435.0104L395.2335000000005 424.2169L387.23749999999995 412.54599999999994L386.3869999999997 407.08945L382.6470000000006 405.3188L381.1225000000002 399.48965L375.1830000000007 398.365L368.69050000000016 393.52805L369.78700000000003 389.53149999999994L373.07050000000004 382.8542999999999L370.01300000000015 379.9559499999999L366.4070000000004 377.75215000000003L362.1600000000001 377.69269999999995L349.3105000000003 385.22705L345.8069999999998 383.0212L344.3309999999997 378.98434999999995L342.7684999999997 374.19815z">
      <title id="t147">Quatrième circonscription de la Gironde</title>
      <desc id="d147">Cantons de : Carbon-Blanc, Cenon, Floirac, Lormont</desc>
    </path><path class="circo" id="id-033-05" d="M258.19349999999986 400.40485L258.2230000000004 396.2487999999999L251.1424999999997 392.3804L251.14649999999983 388.2738499999999L243.3375000000001 387.92504999999994L239.8339999999996 389.69115L227.71900000000073 372.43544999999995L215.43700000000058 366.24629999999996L202.32150000000047 378.62284999999997L198.3839999999998 379.19695L196.77450000000022 395.01120000000003L182.7430000000004 391.29875L177.3395000000005 409.2950000000001L168.70149999999967 415.18005000000005L160.43700000000058 415.0085L161.71100000000024 431.75849999999997L160.1184999999998 436.40905000000004L142.20649999999978 441.85914999999994L129.05349999999999 447.93224999999995L108.24749999999995 448.33799999999997L93.85899999999992 437.21355000000005L89.63449999999966 452.33854999999994L75.20200000000045 449.23869999999994L50.00850000000014 451.70754999999997L39.266000000000076 458.2283L12.092000000000098 460.86304999999993L19.941499999999905 393.78914999999995L28.516500000000633 305.1054499999999L31.58800000000042 268.88835L39.071500000000015 195.57760000000002L41.18249999999989 174.44225000000003L43.5469999999998 132.00114999999997L42.98350000000028 110.73335L42.90200000000027 101.52524999999997L46.89950000000067 78.66410000000002L44.85700000000065 64.02635000000004L45.50200000000018 55.76705000000004L52.82699999999977 38.31765000000004L61.35400000000004 29.031200000000013L68.54800000000068 18.34284999999994L72.53000000000043 5.9089999999999065L81.40600000000063 2.5092999999999677L85.35849999999982 0L83.40750000000071 9.18210000000002L87.65999999999963 15.09734999999992L92.60150000000067 17.020550000000014L94.85649999999964 23.80394999999993L93.3260000000007 26.185299999999927L89.79800000000068 22.018249999999995L85.23699999999963 22.510350000000017L89.48150000000055 28.29774999999998L87.11250000000064 26.76284999999993L81.79250000000025 27.42049999999992L82.0640000000003 35.24995000000004L90.82750000000033 44.07145L99.2730000000006 48.86934999999994L103.94999999999982 55.025699999999915L120.03450000000043 69.51345000000003L139.8070000000007 80.94475000000003L152.0429999999999 100.04390000000001L162.68400000000042 105.94650000000001L168.72150000000033 111.40569999999997L177.68550000000005 119.64550000000003L186.34599999999978 127.97645000000003L191.75849999999969 136.0943499999999L194.70550000000003 138.8463999999999L203.53200000000015 159.59220000000002L210.0565000000006 175.17254999999992L218.65549999999985 209.61010000000002L222.48000000000047 208.27524999999994L232.99949999999967 235.11754999999994L238.4235000000001 245.6931999999999L241.4835000000005 258.9140499999999L243.9760000000001 279.8818L244.39449999999965 284.5788L245.548 292.508L248.7194999999997 298.72905000000003L252.81150000000025 303.49085L256.0024999999996 307.3777L258.55350000000044 310.64914999999996L263.13499999999976 317.30729999999994L264.8120000000006 319.68580000000003L265.40950000000066 321.51740000000007L275.9805000000006 333.77354999999994L277.8615000000002 334.5058999999999L283.14550000000054 331.58119999999997L286.68750000000045 336.67635000000007L298.09600000000046 345.73685L299.22450000000026 349.5756L305.47500000000014 355.5815L306.3900000000001 361.80015L306.22550000000047 371.6396499999999L302.76250000000005 382.96115L302.44300000000067 392.18949999999995L303.33150000000046 396.2662L291.11099999999965 401.17959999999994L289.2425000000003 400.6263L279.48350000000005 401.4069999999999L276.12100000000055 405.79645L268.4310000000005 407.34565000000003L270.11349999999993 413.2593L268.8319999999999 417.16195L271.6100000000006 420.1693L267.9214999999999 423.2693999999999L264.8255000000006 429.86024999999995L259.3590000000006 428.69759999999997L252.82699999999977 431.4065499999999L254.8950000000002 423.6028L251.52649999999994 419.03575L251.6910000000007 408.98179999999996L263.22250000000054 409.28960000000006L258.19349999999986 400.40485z">
      <title id="t148">Cinquième circonscription de la Gironde</title>
      <desc id="d148">Cantons de Blanquefort, Castelnau-de-Médoc, Lesparre-Médoc, Pauillac, Saint-Laurent-Médoc, Saint-Vivien-de-Médoc</desc>
    </path><path class="circo" id="id-033-06" d="M269.5715000000007 457.2667L259.10100000000057 458.01019999999994L255.34150000000068 459.92909999999995L247.27100000000064 458.78845L236.57350000000065 465.48395L226.18550000000027 465.28925000000004L222.38950000000045 475.14775L223.2370000000003 481.48145L213.73199999999997 492.9843000000001L198.49000000000046 499.60075000000006L180.3550000000007 504.0674499999999L161.53900000000021 490.1675999999999L151.85150000000021 462.3852499999999L160.1184999999998 436.40905000000004L161.71100000000024 431.75849999999997L160.43700000000058 415.0085L168.70149999999967 415.18005000000005L177.3395000000005 409.2950000000001L182.7430000000004 391.29875L196.77450000000022 395.01120000000003L198.3839999999998 379.19695L202.32150000000047 378.62284999999997L215.43700000000058 366.24629999999996L227.71900000000073 372.43544999999995L239.8339999999996 389.69115L243.3375000000001 387.92504999999994L251.14649999999983 388.2738499999999L251.1424999999997 392.3804L258.2230000000004 396.2487999999999L258.19349999999986 400.40485L263.22250000000054 409.28960000000006L251.6910000000007 408.98179999999996L251.52649999999994 419.03575L254.8950000000002 423.6028L252.82699999999977 431.4065499999999L259.3590000000006 428.69759999999997L264.8255000000006 429.86024999999995L269.3410000000006 441.4198L276.53099999999995 445.14070000000004L275.1049999999998 451.27675L276.5925000000004 452.75319999999994L269.5715000000007 457.2667z">
      <title id="t149">Sixième circonscription de la Gironde</title>
      <desc id="d149">Cantons de Mérignac I, Mérignac II, Saint-Médard-en-Jalles</desc>
    </path><path class="circo" id="id-033-07" d="M213.73199999999997 492.9843000000001L198.49000000000046 499.60075000000006L180.3550000000007 504.0674499999999L186.15200000000073 512.9196000000001L194.25399999999968 519.7181999999999L208.25450000000046 530.2272499999999L225.88100000000054 542.4568L229.37700000000063 537.3351000000001L257.05150000000003 535.89095L255.4365000000007 532.0817999999998L250.48450000000003 529.1606499999999L260.05700000000047 513.4998L264.9199999999996 509.77009999999996L265.9445000000005 507.976L261.93899999999985 507.10435000000007L264.8395000000005 504.1608000000001L266.6745000000003 504.5670499999999L267.21250000000055 500.83759999999995L274.0454999999997 496.63914999999986L277.87950000000023 491.82434999999987L285.3105000000005 488.54965000000004L286.6899999999998 481.14379999999994L284.5925 474.02500000000003L278.8869999999997 470.38865L278.7125000000003 460.99845000000005L276.8405000000007 457.59085L279.82349999999997 455.14815L276.5925000000004 452.75319999999994L269.5715000000007 457.2667L259.10100000000057 458.01019999999994L255.34150000000068 459.92909999999995L247.27100000000064 458.78845L236.57350000000065 465.48395L226.18550000000027 465.28925000000004L222.38950000000045 475.14775L223.2370000000003 481.48145L213.73199999999997 492.9843000000001z">
      <title id="t150">Septième circonscription de la Gironde</title>
      <desc id="d150">Cantons de : Gradignan, Pessac I, Pessac II</desc>
    </path><path class="circo" id="id-033-08" d="M160.1565000000005 436.3800499999999L142.1875 441.8487999999999L129.0625 447.9425499999999L108.2815000000005 448.4112999999999L93.9065000000005 437.1612999999999L89.6875 452.3175499999999L75.1565000000005 449.1925499999999L50 451.6925499999999L39.219000000000506 458.2550499999999L12.031500000000506 460.9112999999999L0.3125 552.0050500000001L0 566.8488000000001L2.1875 572.7863000000001L4.219000000000506 573.5675500000001L7.031500000000506 570.9113000000001L8.281500000000506 562.4738000000001L7.031500000000506 558.5675500000001L9.844000000000506 539.6613000000001L10.156500000000506 537.6300500000001L13.75 527.4738000000001L17.969000000000506 520.1300500000001L35.781500000000506 499.1925500000001L37.1875 495.2863000000001L35.625 489.1925500000001L42.344000000000506 481.2237999999999L47.1875 487.6300499999999L56.5625 495.2863000000001L61.719000000000506 492.3175500000001L59.219000000000506 495.4425500000001L61.094000000000506 499.0363000000001L68.4375 502.4738000000001L77.8125 512.7863000000001L95.4690000000005 529.6613000000001L83.9065000000005 529.6613000000001L89.375 535.5988000000001L100.7815000000005 539.6613000000001L103.5940000000005 545.1300500000001L103.125 547.1613000000001L108.4375 553.0988000000001L109.0625 557.0050500000001L103.2815000000005 557.3175500000001L104.2190000000005 561.0675500000001L93.75 555.2863000000001L92.3440000000005 556.6925500000001L75.3125 561.2238000000001L63.281500000000506 559.0363000000001L60.625 561.8488000000001L60 557.9425500000001L57.969000000000506 557.6300500000001L52.031500000000506 557.6300500000001L47.344000000000506 561.0675500000001L45.781500000000506 559.9738000000001L45.781500000000506 557.9425500000001L50.781500000000506 554.8175500000001L48.4375 549.5050500000001L40.3125 547.9425500000001L32.031500000000506 548.5675500000001L28.75 551.0675500000001L24.219000000000506 562.6300500000001L23.906500000000506 577.4738000000001L20.469000000000506 587.3175500000001L12.344000000000506 604.5050500000001L0.625 619.0363000000001L4.531500000000506 641.6925500000001L3.2815000000005057 664.8175500000001L26.25 657.6300500000001L65.625 643.8800500000001L74.8440000000005 626.2238000000001L98.2815000000005 640.2863000000001L106.4065000000005 639.1925500000001L135.9375 615.1300500000001L150.4690000000005 606.0675500000001L163.9065000000005 589.8175500000001L167.9690000000005 590.2863000000001L181.25 579.6613000000001L189.5315000000005 581.2238000000001L192.8125 571.3800500000001L187.8125 564.9738000000001L188.9065000000005 558.8800500000001L185.625 556.3800500000001L186.7190000000005 552.4738000000001L189.5315000000005 546.8488000000001L208.2815000000005 530.2863000000001L194.2190000000005 519.6613000000001L186.0940000000005 512.9425500000001L180.3125 504.0363000000001L161.5625 490.1300500000001L151.875 462.3175499999999L160.1565000000005 436.3800499999999zM100 549.1925500000001L99.2190000000005 549.6613000000001L97.8125 554.6613000000001L98.4375 556.3800500000001L100.7815000000005 554.5050500000001L103.5940000000005 555.5988000000001L105 554.5050500000001L100 549.1925500000001z">
      <title id="t151">Huitième circonscription de la Gironde</title>
      <desc id="d151">Cantons de : Arcachon, Audenge, La Teste-de-Buch</desc>
    </path><path class="circo" id="id-033-09" d="M462.6895000000002 660.0966000000001L454.0070000000003 656.0526499999999L452.9435000000001 652.35495L442.4075000000005 658.1947000000001L438.4940000000006 657.169L435.1679999999999 645.8188499999999L437.93049999999994 637.2055999999999L443.73950000000036 638.7129L446.57550000000015 631.5674L451.2270000000001 633.1714999999998L450.86599999999976 623.1682500000001L456.87149999999974 626.07255L458.30550000000017 626.7182000000001L468.1579999999997 627.8569499999999L471.46799999999985 625.8871L479.00949999999966 628.4328499999999L485.58650000000057 622.9446499999999L485.7330000000002 622.5899L486.3040000000001 620.77835L484.06450000000063 617.7453999999999L485.88250000000016 608.5704499999998L478.5400000000004 605.7506500000001L476.69899999999984 602.2713L471.9245000000001 606.1389999999999L467.9539999999997 607.04515L461.8430000000001 604.9208L459.62150000000065 604.9625500000001L448.05600000000027 606.1360000000001L443.3275000000003 607.7484499999998L435.08749999999964 610.45125L431.9875000000002 611.39065L429.0515000000005 610.0766499999999L428.4744999999998 609.58455L419.2885000000001 599.2099000000001L415.66100000000006 595.3289500000001L410.9590000000003 591.2774000000001L408.7329999999997 585.4442999999999L408.0550000000005 584.4725000000001L407.58950000000027 576.3963499999999L403.07649999999967 569.3926499999999L400.2265 566.7684999999999L396.57550000000015 563.8765500000001L394.69400000000064 560.5764499999999L391.7500000000007 554.75305L384.3640000000005 551.11565L380.0419999999997 546.77215L378.3860000000004 538.8838499999998L377.29150000000004 535.7475000000001L376.9209999999998 535.1168499999999L373.76300000000015 533.2002999999999L366.3850000000002 534.41265L363.9465000000007 532.5194L364.52800000000025 530.92675L368.0045000000007 526.3528999999999L364.3259999999998 522.4817L360.7185000000004 521.6409L351.7214999999999 524.46815L350.4634999999996 523.5640500000001L349.9580000000003 522.7991999999999L345.5435 512.9357499999999L341.4499999999998 510.10749999999985L330.5690000000004 504.4521500000001L322.9435000000001 502.13784999999984L318.6985000000004 498.6444999999999L318.86300000000006 487.20219999999995L318.99 484.72030000000007L308.90449999999987 485.8463499999999L306.3385000000005 489.0584499999999L295.64750000000004 494.9515000000001L297.16049999999996 500.98239999999987L293.2925 499.70725000000004L287.41449999999986 494.2794500000001L285.3105000000005 488.54965000000004L277.87950000000023 491.82434999999987L274.0454999999997 496.63914999999986L267.21250000000055 500.83759999999995L266.6745000000003 504.5670499999999L264.8395000000005 504.1608000000001L261.93899999999985 507.10435000000007L265.9445000000005 507.976L264.9199999999996 509.77009999999996L260.05700000000047 513.4998L250.48450000000003 529.1606499999999L255.4365000000007 532.0817999999998L257.05150000000003 535.89095L229.37700000000063 537.3351000000001L225.88100000000054 542.4568L208.25450000000046 530.2272499999999L189.56649999999968 546.8432499999999L186.78300000000036 552.4558499999999L185.6110000000001 556.4115499999998L188.94499999999994 558.8931000000001L187.75750000000016 564.9809499999999L192.8550000000007 571.3543499999998L189.60000000000036 581.1665499999999L181.2360000000001 579.6412500000001L168.04399999999987 590.29445L163.83100000000013 589.7704499999999L150.49100000000067 606.1407999999999L136.01149999999961 615.0677000000001L106.37850000000071 639.2600499999999L114.75649999999973 638.3934499999999L116.64999999999964 642.0896499999999L119.17500000000018 654.5074000000001L114.32149999999979 668.4005000000001L107.82500000000027 683.2522999999999L98.72100000000046 691.4745L123.26099999999997 687.6192500000001L132.88599999999974 683.80825L145.46749999999975 679.1872500000001L149.85750000000053 683.5183999999999L177.0984999999996 693.89525L191.56299999999987 692.83125L198.43250000000012 688.3055L204.49700000000007 688.2543L205.36050000000046 682.1570999999999L207.1339999999998 681.1171499999999L227.15599999999995 676.6910499999999L239.14350000000013 679.5581L244.72200000000043 679.2586999999999L247.2255000000007 676.2981000000001L245.93600000000038 674.7811499999999L248.47499999999968 671.5344L250.539 671.4272000000001L264.30650000000014 675.9058L269.1910000000007 679.4783499999999L269.5080000000007 687.56275L270.1509999999996 700.07545L263.4940000000006 704.8436500000001L279.7980000000007 710.36885L293.66750000000025 715.54535L298.116 720.06985L311.67599999999993 725.9998499999999L316.1250000000007 741.1823499999998L332.3705000000007 749.5123500000001L352.5885000000005 751.0058500000001L353.53000000000065 763.49835L365.1475000000005 772.0243499999999L373.1815000000006 772.5388500000001L367.6875000000007 801.53035L370.5340000000001 818.1263499999999L377.6330000000007 819.56835L404.12900000000036 821.9353500000001L419.83349999999973 827.2968500000001L423.84149999999977 826.2708500000001L441.15800000000036 820.25335L439.15399999999977 791.4383500000001L440.07150000000024 785.32235L448.37549999999965 785.66735L453.39050000000043 781.9928499999999L455.2909999999997 782.8728500000001L461.1685 788.85835L465.2150000000006 798.52435L476.3315 808.08735L482.6030000000003 803.3653499999998L483.77200000000016 799.6423499999999L486.11099999999965 802.6438499999999L491.5700000000004 804.8428499999999L498.52049999999963 800.9353499999999L505.05049999999983 793.2723499999998L507.73149999999987 796.07535L513.4465 784.7348499999999L521.8420000000003 779.8438499999999L517.8980000000001 768.4503500000001L521.3305000000003 766.3598499999999L511.80399999999963 753.0808499999999L503.07000000000016 745.01885L499.6799999999996 742.07385L502.62699999999995 732.5148499999999L506.57749999999965 732.84735L510.9400000000005 728.7793499999999L520.7450000000006 728.26485L523.8765000000001 728.65335L529.4920000000002 722.8038500000001L533.3775000000003 721.53035L542.3840000000007 724.83435L545.1700000000005 719.58185L540.6899999999996 716.00735L544.0105000000005 711.32785L538.94 706.5639499999999L531.1090000000002 692.8854L533.9930000000004 690.4753000000001L532.9095000000007 684.8606L534.8705000000007 679.6432499999999L538.1605000000002 678.19305L532.6435000000004 675.7599L526.6435000000001 676.65475L522.1620000000007 683.2892499999998L518.4945000000005 684.6480999999999L517.5200000000007 690.5729000000001L513.4825000000001 691.0186499999999L510.8235000000002 688.0234L505.1830000000007 685.7337499999999L506.2710000000004 683.6106500000001L509.89850000000047 682.7672L511.8820000000005 673.6368L505.5365000000006 677.6173999999999L502.2244999999998 675.60155L499.2885000000001 666.1143499999998L491.93899999999985 669.2955L491.20250000000055 669.87725L485.3460000000007 670.4894L468.0770000000007 665.9159999999998L468.27049999999986 659.7696000000001L462.6895000000002 660.0966000000001z">
      <title id="t152">Neuvième circonscription de la Gironde</title>
      <desc id="d152">Cantons de : Bazas, Belin-Béliet, La Brède, Captieux, Grignols, Langon, Podensac, Saint-Symphorien, Villandraut</desc>
    </path><path class="circo" id="id-033-10" d="M398.2045000000005 463.9014L396.27500000000055 460.74445L391.29099999999994 445.14545L382.32849999999985 446.0138999999999L381.9965000000002 442.51189999999997L382.83050000000003 435.0104L395.2335000000005 424.2169L387.23749999999995 412.54599999999994L386.3869999999997 407.08945L382.6470000000006 405.3188L381.1225000000002 399.48965L375.1830000000007 398.365L368.69050000000016 393.52805L369.78700000000003 389.53149999999994L373.07050000000004 382.8542999999999L370.01300000000015 379.9559499999999L366.4070000000004 377.75215000000003L362.1600000000001 377.69269999999995L349.3105000000003 385.22705L345.8069999999998 383.0212L344.3309999999997 378.98434999999995L342.7684999999997 374.19815L360.9170000000006 364.12215000000003L363.77500000000055 360.93925L369.1055000000006 346.80729999999994L382.37449999999967 348.44695L384.1705000000002 345.73804999999993L385.63499999999976 338.51905L382.3260000000005 331.6708L387.1199999999999 318.6042499999999L392.39649999999983 319.83314999999993L400.2634999999998 316.24735L401.4684999999997 317.5407L413.4680000000003 337.69605L415.40250000000015 339.15395L421.5205000000003 346.48275L426.7949999999996 344.12955L430.6860000000006 344.89535L429.24100000000067 353.08404999999993L431.7179999999996 358.60805L428.44400000000064 361.0059L432.64400000000023 363.82655L438.15000000000055 362.97169999999994L442.04399999999964 365.84925L451.9830000000002 365.09709999999995L461.52600000000007 368.5697499999999L462.8125 367.42485L481.7070000000001 349.5972499999999L484.7199999999998 351.9687L488.1950000000006 347.6932499999999L491.65050000000065 346.48455L498.0475000000001 348.57195L498.9065000000005 346.80009999999993L500.77099999999973 347.40414999999996L505.6540000000007 344.4504999999999L514.2015000000004 348.71619999999996L517.0770000000005 346.4382499999999L517.7210000000002 342.82815L526.4490000000001 341.54355L528.7779999999998 346.69129999999996L532.2410000000002 347.92885L533.9724999999999 344.61884999999995L535.7010000000002 345.37080000000003L539.2205000000001 351.6538L544.4114999999999 343.6041999999999L543.6045000000001 337.80665L552.7610000000004 331.59925L551.2734999999998 337.59265L553.1714999999997 350.09124999999995L549.1949999999997 359.61325L547.1640000000002 360.13415L543.6525000000006 357.8528L541.9510000000002 358.95115000000004L542.2980000000007 362.9980999999999L540.0485000000003 368.5823499999999L538.3050000000003 378.5136L543.8660000000004 389.44625L545.5010000000004 391.07725000000005L550.5365000000006 397.2895L543.4315000000004 409.39875L542.9039999999998 409.6837499999999L541.4075000000003 415.1452999999999L538.0889999999999 416.98499999999996L536.5904999999998 420.50039999999996L536.6435000000001 420.63355L534.0830000000005 425.10804999999993L531.8605000000002 430.3848499999999L522.2884999999997 433.08655L521.5859999999998 434.98825L539.9005 438.6995999999999L545.5809999999997 436.6045L552.7155000000005 443.70705L552.8300000000002 449.6581499999999L556.4480000000003 451.59015L557.7359999999999 451.63865L561.7635000000007 450.8404999999999L566.2554999999998 454.74850000000004L568.2979999999998 454.55375000000004L571.2599999999998 447.63620000000003L576.8219999999997 446.5503L580.9265000000005 446.51195L582.5729999999999 454.1775L584.5884999999998 454.56755L584.9185 454.3177L588.9324999999997 449.44724999999994L599.3795 448.78625L613.5604999999998 451.28209999999996L614.3605000000002 452.14979999999997L618.0870000000004 453.75445L625.2650000000006 441.4269999999999L630.5165 439.567L638.8734999999997 432.11704999999995L639.7230000000002 430.53175L637.7134999999998 423.0768499999999L645.1184999999998 425.75149999999996L653.1659999999999 425.70955L658.5490000000004 428.3539999999999L670.0284999999997 439.02689999999996L664.0274999999997 443.14185L663.9490000000001 448.7268999999999L660.0205000000005 448.0736999999999L655.9614999999997 451.9281L648.2095000000004 450.38804999999996L649.1685000000007 458.6728499999999L652.7279999999996 468.8021499999999L652.5895000000003 476.02565L655.2250000000004 481.5491L662.4924999999996 488.7945000000001L662.1695 490.67155L651.594 494.24469999999997L643.9305000000002 495.91864999999996L640.2940000000001 494.40089999999987L636.4049999999997 487.65715L632.4340000000007 487.67870000000005L631.7415000000005 489.5475L628.9085 492.4240500000001L626.1699999999996 502.39750000000004L629.0470000000005 510.13739999999996L621.7835000000002 512.6474000000001L618.6930000000007 500.59344999999996L616.6050000000007 497.0186L614.5529999999997 496.73074999999994L612.8125 498.84675000000004L608.0690000000004 494.20820000000003L601.4470000000006 495.9515499999999L598.1200000000001 494.5786499999998L594.9639999999999 492.7413L591.0915 486.71375L591.0204999999996 479.13804999999996L587.9665 477.63154999999995L584.5265000000006 471.31034999999997L580.7470000000001 475.74420000000003L575.0049999999999 473.84649999999993L573.1410000000005 474.61659999999995L572.2850000000005 478.5327L564.5074999999997 478.72429999999997L563.6009999999999 484.14680000000004L556.1699999999996 481.91135L551.7065000000002 478.2818499999999L546.3080000000002 480.12535L535.4769999999996 477.0417499999999L525.2750000000003 472.6147L521.0045000000002 470.9067L519.9080000000004 474.7202L512.1910000000003 473.14705000000004L508.5455000000002 474.82680000000005L506.9685000000004 469.50885L498.9110000000005 463.27780000000007L496.8105000000003 463.0687499999999L489.8064999999997 478.80454999999995L488.9544999999998 479.0219000000001L490.1099999999997 482.70939999999996L487.8710000000001 488.10490000000004L486.0149999999999 488.75019999999995L481.88150000000064 484.52934999999997L477.98700000000053 484.3342L476.6629999999998 486.7437L472.95349999999985 486.3150999999999L467.2829999999999 482.0166999999999L465.33950000000004 478.86920000000003L459.3780000000004 483.44695L455.6624999999997 484.09890000000007L451.67550000000006 483.08475L448.2815000000005 477.73095L444.4450000000006 476.59804999999994L444.20650000000023 476.68909999999994L441.4949999999999 475.0735L433.3230000000003 479.05125L428.91849999999977 476.15735L430.95550000000003 473.89385000000004L428.89099999999985 472.20865000000003L423.16350000000057 478.07945000000007L419.71599999999967 480.14335000000005L415.62099999999987 479.93674999999996L415.0450000000001 476.15675L403.7170000000003 473.25964999999997L402.1580000000006 469.93589999999995L403.36450000000013 466.501L398.2045000000005 463.9014z">
      <title id="t153">Dixième circonscription de la Gironde</title>
      <desc id="d153">Cantons de : Branne, Castillon-la-Bataille, Fronsac, Libourne, Lussac, Pujols, Sainte-Foy-la-Grande</desc>
    </path><path class="circo" id="id-033-11" d="M243.9760000000001 279.8818L241.4835000000005 258.9140499999999L238.4235000000001 245.6931999999999L232.99949999999967 235.11754999999994L222.48000000000047 208.27524999999994L242.81650000000013 203.84905000000003L239.08800000000042 174.63314999999994L232.40750000000048 150.69705L233.04200000000037 148.71065000000002L235.12200000000007 148.81464999999992L259.6415000000002 151.83044999999993L263.25900000000047 156.32620000000003L266.8410000000006 154.27544999999995L277.8735000000006 150.91285L283.46450000000004 152.64529999999993L283.6660000000006 146.32634999999993L287.29900000000043 139.46259999999995L294.30799999999977 146.37045L292.2255000000007 158.94674999999992L294.8625000000004 166.98115L300.0560000000007 167.43735L302.9200000000003 169.57915L308.7964999999997 170.0328499999999L317.91200000000003 173.64850000000004L329.5614999999998 169.30239999999998L335.10099999999966 169.2698L341.61749999999984 172.4566L351.89899999999966 177.16165000000004L358.20799999999963 181.39979999999994L359.2685000000006 185.11995L357.99499999999966 188.78410000000002L355.90900000000033 196.48735000000002L361.91149999999993 196.84654999999992L363.5929999999996 200.40260000000004L360.51649999999995 211.78969999999993L357.9724999999996 219.52394999999996L358.7110000000007 223.44984999999994L365.02250000000004 232.0040999999999L366.3459999999998 238.2289L373.17800000000034 259.95165L375.29300000000035 251.80639999999997L381.97450000000003 243.6646499999999L392.21149999999966 246.173L398.7435000000005 251.63825000000003L402.8295000000003 263.38070000000005L405.4129999999998 256.18539999999996L419.0949999999998 261.11400000000003L419.6230000000003 265.2459999999999L421.5295000000003 266.07320000000004L426.86450000000036 277.25120000000004L431.71249999999986 281.1103L442.09749999999985 281.3837L446.9920000000002 285.91489999999993L454.76049999999987 289.2179L467.30549999999994 290.5773499999999L470.97849999999994 292.52965000000006L475.1210000000003 291.86984999999993L488.93699999999967 276.7953L493.52100000000064 273.82475L498.90600000000063 273.05920000000003L508.2375000000002 285.6313L511.8624999999997 286.67294999999996L513.2900000000006 285.40250000000003L516.5350000000001 287.39244999999994L519.0404999999998 284.6209499999999L525.4615000000001 277.18859999999995L535.1724999999999 274.39635L539.0920000000006 275.3485999999999L549.6595000000002 275.74614999999994L555.5885000000001 277.94865000000004L562.4289999999996 288.55985000000004L563.7080000000003 296.96304999999995L566.1450000000002 300.44015L566.8735000000004 301.28635L567.2775000000001 304.0366999999999L559.8964999999998 320.91650000000004L555.1689999999996 324.7893499999999L553.4199999999998 332.9071L552.7610000000004 331.59925L543.6045000000001 337.80665L544.4114999999999 343.6041999999999L539.2205000000001 351.6538L535.7010000000002 345.37080000000003L533.9724999999999 344.61884999999995L532.2410000000002 347.92885L528.7779999999998 346.69129999999996L526.4490000000001 341.54355L517.7210000000002 342.82815L517.0770000000005 346.4382499999999L514.2015000000004 348.71619999999996L505.6540000000007 344.4504999999999L500.77099999999973 347.40414999999996L498.9065000000005 346.80009999999993L498.0475000000001 348.57195L491.65050000000065 346.48455L488.1950000000006 347.6932499999999L484.7199999999998 351.9687L481.7070000000001 349.5972499999999L462.8125 367.42485L461.52600000000007 368.5697499999999L451.9830000000002 365.09709999999995L442.04399999999964 365.84925L438.15000000000055 362.97169999999994L432.64400000000023 363.82655L428.44400000000064 361.0059L431.7179999999996 358.60805L429.24100000000067 353.08404999999993L430.6860000000006 344.89535L426.7949999999996 344.12955L421.5205000000003 346.48275L415.40250000000015 339.15395L413.4680000000003 337.69605L401.4684999999997 317.5407L400.2634999999998 316.24735L392.39649999999983 319.83314999999993L387.1199999999999 318.6042499999999L382.3260000000005 331.6708L385.63499999999976 338.51905L384.1705000000002 345.73804999999993L382.37449999999967 348.44695L369.1055000000006 346.80729999999994L363.77500000000055 360.93925L360.9170000000006 364.12215000000003L342.7684999999997 374.19815L336.5935000000002 363.88665000000003L335.21150000000034 358.09495L334.47 349.5648L330.7675000000006 344.6639L327.4890000000005 343.53084999999993L325.8540000000005 344.42165L313.09849999999983 335.8610999999999L300.2954999999997 326.0535L294.4515000000001 324.39359999999994L290.77800000000025 325.7155L285.12550000000033 323.43064999999996L282.5025000000005 322.05449999999996L280.55399999999963 325.78104999999994L283.14550000000054 331.58119999999997L277.8615000000002 334.5058999999999L275.9805000000006 333.77354999999994L265.40950000000066 321.51740000000007L264.8120000000006 319.68580000000003L263.13499999999976 317.30729999999994L258.55350000000044 310.64914999999996L256.0024999999996 307.3777L252.81150000000025 303.49085L248.7194999999997 298.72905000000003L245.548 292.508L244.39449999999965 284.5788L243.9760000000001 279.8818z">
      <title id="t154">Onzième circonscription de la Gironde</title>
      <desc id="d154">Cantons de Blaye, Bourg, Coutras, Guitres, Saint-André-de-Cubzac, Saint-Ciers-sur-Gironde, Saint-Savin</desc>
    </path><path class="circo" id="id-033-12" d="M505.5365000000006 677.6173999999999L502.2244999999998 675.60155L499.2885000000001 666.1143499999998L491.93899999999985 669.2955L491.20250000000055 669.87725L485.3460000000007 670.4894L468.0770000000007 665.9159999999998L468.27049999999986 659.7696000000001L462.6895000000002 660.0966000000001L454.0070000000003 656.0526499999999L452.9435000000001 652.35495L442.4075000000005 658.1947000000001L438.4940000000006 657.169L435.1679999999999 645.8188499999999L437.93049999999994 637.2055999999999L443.73950000000036 638.7129L446.57550000000015 631.5674L451.2270000000001 633.1714999999998L450.86599999999976 623.1682500000001L456.87149999999974 626.07255L458.30550000000017 626.7182000000001L468.1579999999997 627.8569499999999L471.46799999999985 625.8871L479.00949999999966 628.4328499999999L485.58650000000057 622.9446499999999L485.7330000000002 622.5899L486.3040000000001 620.77835L484.06450000000063 617.7453999999999L485.88250000000016 608.5704499999998L478.5400000000004 605.7506500000001L476.69899999999984 602.2713L471.9245000000001 606.1389999999999L467.9539999999997 607.04515L461.8430000000001 604.9208L459.62150000000065 604.9625500000001L448.05600000000027 606.1360000000001L443.3275000000003 607.7484499999998L435.08749999999964 610.45125L431.9875000000002 611.39065L429.0515000000005 610.0766499999999L428.4744999999998 609.58455L419.2885000000001 599.2099000000001L415.66100000000006 595.3289500000001L410.9590000000003 591.2774000000001L408.7329999999997 585.4442999999999L408.0550000000005 584.4725000000001L407.58950000000027 576.3963499999999L403.07649999999967 569.3926499999999L400.2265 566.7684999999999L396.57550000000015 563.8765500000001L394.69400000000064 560.5764499999999L391.7500000000007 554.75305L384.3640000000005 551.11565L380.0419999999997 546.77215L378.3860000000004 538.8838499999998L377.29150000000004 535.7475000000001L376.9209999999998 535.1168499999999L373.76300000000015 533.2002999999999L366.3850000000002 534.41265L363.9465000000007 532.5194L364.52800000000025 530.92675L368.0045000000007 526.3528999999999L364.3259999999998 522.4817L360.7185000000004 521.6409L351.7214999999999 524.46815L350.4634999999996 523.5640500000001L349.9580000000003 522.7991999999999L345.5435 512.9357499999999L341.4499999999998 510.10749999999985L330.5690000000004 504.4521500000001L322.9435000000001 502.13784999999984L318.6985000000004 498.6444999999999L318.86300000000006 487.20219999999995L318.99 484.72030000000007L318.7919999999997 482.08555L313.8060000000007 471.52654999999993L312.3294999999996 462.535L315.3060000000005 464.62620000000004L324.375 462.99565L334.42300000000046 451.04959999999994L343.6374999999998 450.81649999999996L345.9490000000005 445.31449999999995L345.5664999999999 436.9047999999999L340.83349999999996 427.5378999999999L345.1755000000003 426.44475L355.72200000000066 422.73025000000007L361.63549999999987 422.8412L360.45799999999986 428.37739999999997L370.48900000000003 427.82989999999995L382.83050000000003 435.0104L381.9965000000002 442.51189999999997L382.32849999999985 446.0138999999999L391.29099999999994 445.14545L396.27500000000055 460.74445L398.2045000000005 463.9014L403.36450000000013 466.501L402.1580000000006 469.93589999999995L403.7170000000003 473.25964999999997L415.0450000000001 476.15675L415.62099999999987 479.93674999999996L419.71599999999967 480.14335000000005L423.16350000000057 478.07945000000007L428.89099999999985 472.20865000000003L430.95550000000003 473.89385000000004L428.91849999999977 476.15735L433.3230000000003 479.05125L441.4949999999999 475.0735L444.20650000000023 476.68909999999994L444.4450000000006 476.59804999999994L448.2815000000005 477.73095L451.67550000000006 483.08475L455.6624999999997 484.09890000000007L459.3780000000004 483.44695L465.33950000000004 478.86920000000003L467.2829999999999 482.0166999999999L472.95349999999985 486.3150999999999L476.6629999999998 486.7437L477.98700000000053 484.3342L481.88150000000064 484.52934999999997L486.0149999999999 488.75019999999995L487.8710000000001 488.10490000000004L490.1099999999997 482.70939999999996L488.9544999999998 479.0219000000001L489.8064999999997 478.80454999999995L496.8105000000003 463.0687499999999L498.9110000000005 463.27780000000007L506.9685000000004 469.50885L508.5455000000002 474.82680000000005L512.1910000000003 473.14705000000004L519.9080000000004 474.7202L521.0045000000002 470.9067L525.2750000000003 472.6147L535.4769999999996 477.0417499999999L546.3080000000002 480.12535L551.7065000000002 478.2818499999999L556.1699999999996 481.91135L563.6009999999999 484.14680000000004L564.5074999999997 478.72429999999997L572.2850000000005 478.5327L573.1410000000005 474.61659999999995L575.0049999999999 473.84649999999993L580.7470000000001 475.74420000000003L584.5265000000006 471.31034999999997L587.9665 477.63154999999995L591.0204999999996 479.13804999999996L591.0915 486.71375L594.9639999999999 492.7413L598.1200000000001 494.5786499999998L601.4470000000006 495.9515499999999L608.0690000000004 494.20820000000003L612.8125 498.84675000000004L609.5259999999996 505.36340000000007L607.8920000000005 504.44079999999997L604.7050000000002 506.03824999999983L600.9910000000002 507.62725L596.1360000000002 503.62649999999985L593.9440000000002 519.3612L591.7354999999998 522.7280499999999L588.9330000000007 519.7756499999998L585.0409999999999 519.0454000000001L581.4645000000007 520.9495499999998L580.7630000000006 524.97225L578.7734999999998 525.4769L581.6205000000002 534.7760999999998L585.231 536.66265L593.2565 536.5741999999999L591.8574999999998 541.7999500000001L592.8935000000001 545.21305L596.5139999999997 546.5295500000001L605.4550000000006 543.75065L607.3654999999997 544.9685999999998L611.2575000000004 545.9218L613.7975000000006 549.1575999999999L611.3400000000001 553.3634L607.6745000000005 558.2581L606.3435000000004 566.1831999999999L600.1710000000003 565.7072000000001L596.1350000000004 561.1343499999999L594.6230000000003 564.2725499999999L595.3139999999996 569.5957L601.7320000000007 576.90445L600.2420000000006 580.6424L592.7070000000003 582.1258999999999L586.0360000000003 589.253L585.6950000000006 589.4481499999999L582.9970000000003 591.7244499999999L571.0770000000002 595.4064999999998L572.4845000000005 599.1544499999999L571.3905 604.9303500000001L565.3184999999996 616.6976000000001L552.165 613.1609500000001L549.9414999999999 615.2811999999999L545.0440000000003 620.7312499999999L535.6934999999999 614.5803999999999L543.4064999999998 627.4324499999999L540.1459999999997 632.3679499999998L538.1745000000001 632.3089499999999L536.1260000000004 633.9977L529.5105000000001 642.58965L529.3074999999999 651.5775000000001L531.155 669.3532499999999L534.9464999999998 668.8274499999999L538.7670000000003 672.8872L538.1605000000002 678.19305L532.6435000000004 675.7599L526.6435000000001 676.65475L522.1620000000007 683.2892499999998L518.4945000000005 684.6480999999999L517.5200000000007 690.5729000000001L513.4825000000001 691.0186499999999L510.8235000000002 688.0234L505.1830000000007 685.7337499999999L506.2710000000004 683.6106500000001L509.89850000000047 682.7672L511.8820000000005 673.6368L505.5365000000006 677.6173999999999z">
      <title id="t155">Douzième circonscription de la Gironde</title>
      <desc id="d155">Cantons de : Auros, Cadillac, Créon, Monségur, Pellegrue, La Réole, Saint-Macaire, Sauveterre-de-Guyenne, Targon</desc>
    </path></svg>