<svg xmlns="http://www.w3.org/2000/svg" version="1.1" xmlns:xlink="http://www.w3.org/1999/xlink" xmlns:svgjs="http://svgjs.dev/svgjs" width="702.8578499999998" height="444.7384999999997" fill="#eeeeee" stroke="#cccccc" xmlns:sodipodi="http://sodipodi.sourceforge.net/DTD/sodipodi-0.dtd"><path class="circo" id="id-034-01" d="M546.1019999999996 296.21849999999995L560.1099999999997 280.1469999999995L554.9604999999997 273.94450000000006L549.205 272.70200000000045L548.8045 265.29449999999997L539.8179999999996 258.15450000000055L543.0579999999998 255.89849999999956L542.2615000000002 252.09749999999985L544.9970000000002 246.81749999999965L541.9295 242.45900000000006L538.3934999999997 242.16949999999997L538.4530000000001 240.39099999999962L537.5574999999998 237.47449999999958L532.5979999999998 235.37599999999998L529.1669999999999 231.27200000000016L531.952 222.6464999999996L528.3094999999997 218.50149999999985L537.9165 218.6990000000003L541.3729999999998 218.26450000000023L542.389 223.37599999999952L552.4979999999999 213.23350000000005L552.758 209.87550000000056L542.5630000000001 209.66049999999996L539.9554999999998 204.04649999999947L541.6890000000001 200.33450000000016L538.6489999999998 195.32550000000015L543.8774999999998 192.86950000000047L547.2154999999998 194.45299999999975L553.3269999999999 200.33599999999979L551.3380000000001 203.24799999999982L557.4205000000001 206.67400000000043L559.3725000000001 208.74299999999948L557.7445 220.3875000000005L551.8299999999999 222.65700000000038L555.9269999999998 227.92699999999968L564.6204999999998 217.73000000000025L567.6315 219.93550000000027L568.8374999999996 216.1635000000001L571.8759999999997 215.81500000000005L575.6914999999998 217.0875000000001L580.616 223.1714999999997L594.6119999999996 220.49999999999955L591.7565000000002 225.29250000000047L594.4164999999998 227.70549999999957L606.4569999999998 237.78050000000007L608.6944999999997 247.44950000000017L607.7319999999997 249.19949999999972L607.4719999999996 253.2854999999995L581.3634999999999 266.78800000000024L557.9129999999998 284.21299999999974L546.6239999999999 296.4925000000005L546.1019999999996 296.21849999999995z">
      <title id="t156">Première circonscription de l'Hérault</title>
      <desc id="d156">Cantons de : Lattes, Montpellier V, Montpellier VI, Montpellier VIII, Commune de Villeneuve-lès-Maguelone</desc>
    </path><path class="circo" id="id-034-02" d="M551.8299999999999 222.65700000000038L557.7445 220.3875000000005L559.3725000000001 208.74299999999948L561.4105000000001 211.08600000000024L563.7004999999999 207.83900000000017L564.7949999999997 206.67149999999992L563.469 202.8049999999996L565.197 200.66599999999994L564.7364999999996 196.19199999999978L562.894 190.9910000000002L565.7754999999997 189.92799999999988L569.3565000000001 189.47099999999978L573.7115 192.40099999999984L575.464 195.1769999999999L574.4445000000002 198.3910000000003L576.3869999999997 202.18449999999962L571.3335000000001 208.9065000000005L574.862 208.4375L576.5535 211.77749999999946L575.4075 214.36349999999948L570.7599999999996 213.8855000000001L568.8374999999996 216.1635000000001L567.6315 219.93550000000027L564.6204999999998 217.73000000000025L555.9269999999998 227.92699999999968L551.8299999999999 222.65700000000038z">
      <title id="t157">Deuxième circonscription de l'Hérault</title>
      <desc id="d157">Cantons de : Montpellier I, Montpellier III, Montpellier VII, Montpellier IX</desc>
    </path><path class="circo" id="id-034-03" d="M569.1895 159.41350000000057L571.379 154.09999999999968L570.3965 148.12000000000012L567.5310000000002 145.43649999999957L566.6444999999999 140.17150000000015L567.3815000000002 137.43749999999977L572.661 135.18299999999954L571.9639999999998 129.5690000000002L577.0869999999996 132.37449999999967L578.3049999999997 130.62549999999987L578.5149999999999 129.3304999999998L585.8184999999997 132.8245000000004L595.711 125.71950000000015L605.8414999999997 124.9369999999999L611.4179999999999 122.92450000000031L614.1989999999998 119.96150000000057L609.8199999999997 109.11650000000009L611.5334999999999 105.45550000000048L609.5805000000001 99.78200000000015L618.6154999999997 94.82300000000009L621.053 92.96199999999999L633.8804999999996 101.27899999999954L643.06085 109.45500000000038L642.5778500000001 113.60149999999976L642.4803500000002 115.79899999999952L647.5068499999998 118.0435L649.0643499999999 121.54949999999985L656.1253499999998 119.66000000000008L659.2023499999999 121.9640000000004L659.8463499999997 127.70800000000008L662.6593500000001 130.32050000000027L667.9578499999997 135.85900000000038L672.5538499999999 137.65549999999962L677.2148499999997 135.59949999999958L680.6233500000002 137.04600000000028L682.1258499999999 140.40849999999978L685.8848499999999 150.6619999999998L676.7623499999996 154.31799999999953L673.9183500000001 159.30349999999976L670.3188499999999 161.08799999999974L666.6213499999998 159.74000000000046L667.5493499999999 158.25000000000045L659.90185 161.1220000000003L650.2628499999997 157.85750000000007L647.9033499999997 160.79849999999965L647.0683500000001 164.50600000000009L645.1513499999999 164.75000000000023L643.6883499999999 168.1205L635.5761000000001 171.46650000000022L641.6053499999998 175.40650000000028L640.5363499999999 180.933L643.34835 183.42399999999998L640.4863499999999 187.93199999999956L635.2051 184.55299999999966L633.3044999999998 184.0840000000003L631.4664999999997 189.3195000000003L626.2855000000002 191.25L626.2139999999999 195.17650000000003L623.5739999999998 192.8015000000005L614.4515000000001 186.55949999999962L599.1589999999997 192.38650000000007L593.589 199.76049999999987L592.1145000000001 201.1590000000001L586.5595000000002 207.07899999999995L578.6144999999999 205.30200000000036L574.4445000000002 198.3910000000003L575.464 195.1769999999999L573.7115 192.40099999999984L569.3565000000001 189.47099999999978L565.7754999999997 189.92799999999988L562.894 190.9910000000002L564.7364999999996 196.19199999999978L565.197 200.66599999999994L563.469 202.8049999999996L564.7949999999997 206.67149999999992L563.7004999999999 207.83900000000017L560.795 206.16049999999973L559.3389999999999 200.5544999999995L556.3535000000002 198.57250000000022L553.1229999999999 190.0864999999999L559.7210000000001 186.80150000000026L554.0479999999997 180.90400000000045L553.6795000000001 176.86599999999999L562.3534999999998 171.93650000000048L561.9799999999998 169.91250000000036L570.8724999999998 166.8534999999997L569.1895 159.41350000000057z">
      <title id="t158">Troisième circonscription de l'Hérault</title>
      <desc id="d158">Cantons de : Castelnau-le-Lez, Castries, Montpellier II, Communes de : Boisseron, Saturargues, Saussines, Saint-Christol, Saint-Sériès, Vérargues, Villetelle (issues du canton de Lunel), Campagne et Guarrigues (issues du canton de Claret)</desc>
    </path><path class="circo" id="id-034-04" d="M513.4715 194.93900000000053L510.90599999999995 192.23550000000046L519.9714999999998 184.89649999999983L528.7639999999999 180.0025000000005L536.0589999999996 182.7570000000003L540.6299999999999 178.7805000000003L547.3685 179.32649999999967L551.9959999999998 188.56300000000033L553.1229999999999 190.0864999999999L559.7210000000001 186.80150000000026L554.0479999999997 180.90400000000045L553.6795000000001 176.86599999999999L562.3534999999998 171.93650000000048L561.9799999999998 169.91250000000036L570.8724999999998 166.8534999999997L569.1895 159.41350000000057L571.379 154.09999999999968L570.3965 148.12000000000012L567.5310000000002 145.43649999999957L566.6444999999999 140.17150000000015L567.3815000000002 137.43749999999977L572.661 135.18299999999954L571.9639999999998 129.5690000000002L577.0869999999996 132.37449999999967L578.3049999999997 130.62549999999987L578.5149999999999 129.3304999999998L585.8184999999997 132.8245000000004L595.711 125.71950000000015L605.8414999999997 124.9369999999999L611.4179999999999 122.92450000000031L614.1989999999998 119.96150000000057L609.8199999999997 109.11650000000009L611.5334999999999 105.45550000000048L609.5805000000001 99.78200000000015L603.535 97.08999999999946L604.3694999999997 90.98899999999958L609.5189999999997 84.62149999999951L609.3214999999998 78.78649999999993L611.782 75.50799999999981L602.6920000000001 74.65350000000058L603.0545000000001 69.12599999999998L594.0904999999998 69.08699999999953L587.8044999999997 66.01549999999975L585.5174999999997 60.391499999999496L586.2925000000001 52.34550000000013L584.0839999999997 48.9975000000004L578.021 54.26150000000007L559.7555 55.771499999999605L555.8645000000001 60.14400000000023L551.8989999999997 59.16749999999979L548.5750000000002 61.51449999999954L544.9844999999999 56.998499999999694L537.8044999999997 54.33999999999969L535.2859999999998 47.12850000000003L545.6824999999998 31.064999999999827L547.5029999999998 27.521000000000413L546.524 19.883499999999685L544.1114999999996 16.692500000000337L533.5759999999999 16.77000000000021L529.991 9.944000000000415L530.0990000000002 2.250500000000102L506.21249999999975 0L500.3190000000001 5.728500000000167L495.3820000000002 5.300999999999476L492.7429999999998 7.349500000000262L486.38649999999984 11.231000000000222L488.5179999999997 18.151000000000295L486.03399999999965 17.741499999999633L483.023 22.596999999999525L483.90649999999994 26.317000000000235L480.9055000000001 35.71149999999989L477.02200000000005 35.067999999999984L469.43749999999966 34.04350000000022L469.7255000000001 40.30549999999948L466.6719999999998 42.38299999999981L465.4665 41.03550000000041L466.52649999999994 32.92100000000005L460.5039999999997 31.69899999999984L451.41700000000014 44.43399999999997L449.5085 49.90199999999959L443.2355000000001 55.023499999999785L440.65200000000004 62.681499999999915L450.4235 69.44349999999986L450.25499999999965 71.4104999999995L444.4394999999997 72.44850000000042L441.51399999999967 74.98849999999948L434.15899999999965 68.05600000000027L428.68949999999984 70.19750000000045L420.89099999999974 67.39649999999983L417.1764999999999 62.385000000000446L417.97699999999963 50.09649999999965L412.94249999999977 44.28899999999999L404.40049999999985 46.85100000000034L400.3620000000001 47.346000000000004L391.3364999999999 58.5895000000005L385.5020000000002 60.07349999999974L380.4284999999999 63.55699999999956L374.65899999999976 58.03949999999986L378.6545000000001 57.24950000000035L381.21399999999994 49.51099999999997L380.6819999999999 41.499000000000024L375.6434999999999 35.04249999999956L366.20949999999993 33.02850000000035L363.10249999999996 35.35949999999957L357.5310000000002 34.40849999999955L352.26049999999987 32.22150000000056L349.323 34.73550000000046L347.77800000000013 33.555000000000064L340.7310000000001 39.62350000000015L341.0665 45.140499999999975L330.9039999999999 46.9399999999996L320.9114999999997 44.67700000000036L316.9515000000001 45.66000000000031L313.3879999999999 43.61999999999966L308.7110000000001 44.01749999999993L307.0830000000001 47.02199999999948L305.4284999999999 53.060500000000275L298.3834999999999 57.049500000000535L295.68100000000015 62.649000000000115L296.13850000000014 68.79350000000045L302.29600000000005 77.0595000000003L301.31500000000017 83.22750000000042L300.3665000000001 92.51700000000028L299.1384999999997 98.55050000000006L299.341 106.53050000000007L296.46450000000016 118.63100000000031L296.50649999999985 122.27499999999964L300.3960000000001 130.48900000000003L302.76399999999967 140.70799999999963L303.0815000000001 150.35650000000032L306.0899999999998 152.6305000000002L311.2975 148.39950000000044L313.11649999999986 151.5224999999998L312.87499999999966 157.39350000000059L319.02800000000013 167.0640000000003L317.47649999999965 173.44650000000001L326.48300000000006 177.14450000000056L330.4109999999997 176.47299999999973L334.0235000000001 178.08949999999982L347.7684999999997 175.8865000000003L351.42799999999966 174.02100000000019L352.75800000000004 170.14599999999973L357.98400000000015 172.66700000000014L359.427 178.27350000000024L363.09649999999976 179.85599999999977L363.01150000000007 177.89949999999976L366.9040000000001 178.00449999999955L371.82950000000005 175.10549999999967L376.3459999999998 178.79950000000008L380.2114999999998 179.0160000000003L381.1340000000001 177.0754999999997L387.04999999999984 179.90549999999985L393.62599999999986 177.03049999999962L402.3304999999999 178.6329999999998L398.39200000000005 188.76350000000002L398.67500000000007 190.74700000000007L404.7120000000001 195.58250000000044L402.28650000000016 198.6850000000004L397.0240000000001 196.38100000000009L399.96849999999995 205.72400000000016L402.5999999999999 208.43399999999974L405.31499999999994 207.7539999999999L407.98 211.65300000000002L407.1949999999998 219.31100000000015L403.48299999999995 220.58149999999955L404.98400000000004 228.01450000000045L401.92349999999976 229.47900000000004L399.7275000000002 227.31700000000046L398.4989999999999 228.63399999999956L398.6719999999997 233.95099999999957L395.5144999999999 236.0005000000001L399.1534999999999 240.44549999999958L399.51099999999997 241.31849999999986L400.48 247.09150000000022L398.47249999999974 255.66299999999956L398.6725000000001 258.3064999999999L399.50049999999976 263.0634999999995L406.20450000000005 259.9095L429.74099999999964 274.7415000000001L430.9440000000001 277.79649999999947L428.7470000000002 280.2380000000005L430.4329999999999 281.00900000000024L430.33349999999984 284.7180000000003L436.7244999999997 291.3774999999998L426.1295000000001 300.4549999999995L422.9879999999997 307.76550000000043L423.2724999999999 313.8130000000001L418.8749999999999 317.80650000000037L429.2505 331.7330000000004L447.91049999999984 341.5719999999999L466.4299999999997 328.3815000000004L476.7289999999997 321.0649999999998L481.24199999999973 317.8444999999999L478.4125 309.2475000000002L479.0409999999997 305.68700000000035L478.63699999999994 301.8904999999995L486.21350000000007 296.23399999999947L492.321 288.9319999999998L498.33050000000014 289.8604999999998L500.9589999999997 292.9774999999995L504.93150000000014 293.836L513.938 286.37500000000045L515.7144999999997 280.6569999999999L511.4474999999999 273.605L502.75499999999965 265.3399999999999L498.10299999999984 266.61100000000033L497.99649999999986 262.7340000000004L492.1539999999999 261.34750000000054L483.59350000000006 252.6585L482.24350000000015 248.82200000000012L484.6629999999999 243.19150000000036L474.64 236.31999999999948L480.43450000000007 228.37650000000053L480.2125000000001 220.40700000000015L486.37850000000014 216.25149999999962L488.254 212.9989999999998L491.65399999999977 213.00250000000005L491.12199999999973 214.80400000000031L494.4655 218.24500000000057L499.8309999999998 218.4050000000002L500.01300000000015 212.8245000000004L497.51499999999965 210.2819999999997L497.83299999999997 208.25649999999996L505.7265000000001 207.37799999999993L508.68349999999964 202.40800000000036L512.5245000000001 201.00149999999985L513.6079999999998 197.79350000000022L513.4715 194.93900000000053z">
      <title id="t159">Quatrième circonscription de l'Hérault</title>
      <desc id="d159">Cantons de : Aniane, Le Caylar, Claret (moins les communes de Campagne et Garrigues), Ganges, Gignac, Lodève, Les Matelles, Mèze, Saint-Martin-de-Londres</desc>
    </path><path class="circo" id="id-034-05" d="M221.25999999999976 163.7149999999997L215.97499999999968 161.26700000000028L208.77399999999966 163.92399999999952L203.40399999999988 161.83850000000007L201.1379999999997 158.63749999999982L193.77399999999966 155.66900000000032L187.85849999999982 154.76549999999975L184.40600000000018 156.76649999999995L177.56500000000017 159.69450000000052L171.0899999999998 164.26400000000058L169.05550000000005 164.39700000000016L168.04249999999968 162.62100000000032L161.43149999999991 166.69399999999996L160.6574999999998 182.40949999999998L156.15250000000003 186.27349999999979L146.2484999999998 184.6849999999995L144.332 185.43250000000057L141.5285 190.92899999999986L129.59699999999998 192.0920000000001L122.54950000000008 196.24950000000013L116.73900000000003 195.1475000000005L111.14550000000008 200.8834999999999L108.40949999999964 203.75400000000013L102.65949999999975 203.06150000000002L96.6719999999998 207.92249999999967L91.14100000000008 209.9255000000005L87.82800000000009 207.63299999999958L84.28850000000011 200.50250000000005L77.60249999999985 193.19150000000036L62.57000000000005 188.31649999999968L61.462999999999965 186.6300000000001L56.030999999999835 188.90899999999988L48.263000000000034 188.8575000000003L46.62649999999985 183.31999999999994L44.800500000000056 182.59850000000029L40.12699999999995 202.85550000000057L36.60849999999982 212.5490000000002L32.65299999999968 217.37349999999992L32.257999999999925 219.4195000000002L34.615499999999884 222.71349999999984L36.59299999999973 222.56700000000023L38.403000000000134 228.25000000000045L32.54000000000019 238.53899999999953L38.829000000000065 248.5665000000006L57.77600000000007 268.9790000000005L50.479500000000144 266.94849999999974L51.06999999999971 274.83349999999973L48.91899999999964 280.2724999999998L49.90349999999978 288.0364999999995L54.36750000000018 294.40950000000043L52.93349999999975 298.01900000000046L43.718000000000075 295.1935000000003L42.243500000000154 296.4594999999997L44.407999999999674 301.51250000000005L32.97249999999963 312.86299999999983L29.225999999999885 311.76000000000045L28.17450000000008 316.6890000000001L26.397499999999923 317.07700000000045L24.61500000000001 316.2699999999995L16.658499999999776 321.7764999999997L10.92550000000017 321.97599999999966L18.59049999999968 327.9989999999998L22.51100000000008 328.5575000000006L19.89399999999989 335.6129999999996L14.194499999999834 335.7065L12.30450000000019 335.26449999999954L11.148499999999899 336.82800000000043L7.214999999999918 341.38599999999997L5.235500000000002 349.1994999999997L6.4424999999999955 355.0784999999996L0 367.4305000000004L4.855999999999767 372.9174999999998L6.569000000000074 371.96649999999977L18.470499999999674 374.04649999999947L22.069999999999936 383.3515L25.34400000000005 385.77300000000037L25.965999999999667 394.87449999999967L33.04649999999981 401.04850000000056L32.67400000000009 402.9415000000006L35.93050000000005 401.087L38.723999999999705 396.2310000000002L44.12899999999979 397.06199999999967L50.6495000000001 397.96299999999974L50.86149999999975 395.9974999999997L57.28200000000015 391.6890000000001L58.28399999999988 385.9055000000001L61.827499999999986 384.1724999999997L62.771000000000186 380.4219999999998L66.75999999999988 384.0689999999995L67.60549999999967 388.98950000000013L70.31099999999981 398.3725000000004L68.09649999999976 403.8905L69.22950000000014 407.38849999999957L71.75849999999969 409.2380000000003L75.50599999999974 408.1269999999995L85.29650000000004 414.5360000000005L90.28950000000009 420.36299999999983L98.77799999999979 418.3585000000005L101.96799999999996 414.14949999999976L104.97749999999996 409.0160000000003L104.92999999999995 408.7805000000003L105.04549999999995 401.0445000000004L111.24449999999968 393.67399999999975L114.58399999999983 391.3014999999996L117.52549999999985 388.80449999999996L113.06550000000016 382.6355000000001L118.18550000000016 379.8585000000003L126.36199999999974 380.7555000000002L130.00850000000014 378.8930000000005L139.59850000000017 376.2945000000002L141.80999999999983 370.7034999999996L140.03899999999987 360.8744999999999L134.1104999999999 350.9185000000002L139.87149999999986 344.9800000000005L140.46099999999967 346.51500000000055L141.19199999999978 351.2379999999996L147.74900000000002 354.94100000000003L148.67899999999963 360.35150000000044L148.50549999999998 363.61200000000053L149.22050000000013 369.43599999999947L146.64549999999963 374.4335000000001L150.81500000000005 378.5170000000005L157.63750000000016 382.14500000000044L162.00099999999964 378.6194999999998L172.5540000000001 386.87149999999974L177.42349999999988 386.5695000000005L191.5285 382.6290000000006L197.35099999999989 382.34500000000025L198.1405000000001 393.7779999999998L197.90999999999997 401.8885L200.61499999999967 404.9874999999997L200.19650000000013 406.92499999999995L201.8599999999998 407.9755L206.87900000000013 404.8575000000005L218.56949999999983 405.50950000000057L228.1880000000001 415.4989999999998L232.10699999999974 414.9784999999997L236.88949999999977 418.41699999999946L242.29499999999973 420.7655L244.20500000000004 420.2750000000003L246.0039999999998 416.7814999999996L255.66449999999975 417.4955L260.66750000000013 400.2290000000005L260.20100000000014 392.3644999999999L245.111 387.3320000000001L241.87649999999962 382.6395000000002L249.47799999999972 380.60699999999997L252.47149999999976 375.6975L258.34799999999973 375.62900000000013L258.48799999999983 373.6845000000005L251.72649999999976 366.7280000000005L250.12 365.6320000000005L251.10199999999963 358.00899999999956L249.5369999999997 356.8915000000004L244.71850000000018 354.7225000000003L241.447 355.94299999999976L231.52350000000013 353.5379999999998L222.26999999999975 338.17800000000034L215.96000000000004 333.0269999999996L208.61899999999991 331.11800000000017L217.08699999999965 325.9960000000001L222.42250000000013 324.73600000000033L237.0245 321.3295000000005L240.7869999999997 316.9225000000006L247.79549999999972 320.7185000000004L253.67099999999994 320.8749999999998L254.68399999999974 326.6409999999996L249.41399999999987 328.8274999999999L251.34450000000015 338.1880000000001L253.13649999999996 338.9745000000005L259.43600000000004 334.8924999999997L260.256 336.6724999999997L261.1619999999999 339.84199999999987L264.4045 341.40049999999974L266.11549999999966 337.94700000000034L271.8860000000001 327.4549999999999L277.7420000000001 322.1315000000004L281.9644999999997 320.2044999999998L284.68549999999993 322.876L286.5334999999999 322.33299999999986L291.70050000000003 320.57300000000055L293.09500000000014 317.1339999999998L283.7975 305.3909999999996L286.30499999999984 299.95649999999955L295.4615000000001 295.9209999999996L302.38699999999994 289.0129999999999L305.24 296.63099999999986L309.15599999999984 301.4535000000001L313.38250000000016 299.7090000000003L320.2004999999997 291.3774999999998L321.3544999999999 290.26449999999954L324.29550000000006 291.47749999999974L331.44499999999994 289.4190000000003L331.77250000000015 287.5604999999996L337.19899999999996 285.9119999999996L338.82499999999993 280.2369999999996L335.933 267.14500000000044L339.11249999999995 262.0010000000002L348.7394999999998 258.70000000000005L352.67449999999997 259.07699999999977L358.8599999999997 264.5550000000003L369.6460000000002 276.19800000000055L372.2615000000002 277.23449999999957L373.46149999999966 280.85699999999974L377.65649999999994 285.0115000000005L386.26800000000003 288.9440000000002L385.22850000000005 291.7515000000003L384.9340000000001 293.6575000000005L392.4955 304.3169999999998L394.49599999999975 307.65750000000025L397.5079999999997 305.17849999999953L405.2289999999999 304.25700000000006L412.0830000000001 310.9635000000003L415.7774999999998 319.7130000000004L418.8749999999999 317.80650000000037L423.2724999999999 313.8130000000001L422.9879999999997 307.76550000000043L426.1295000000001 300.4549999999995L436.7244999999997 291.3774999999998L430.33349999999984 284.7180000000003L430.4329999999999 281.00900000000024L428.7470000000002 280.2380000000005L430.9440000000001 277.79649999999947L429.74099999999964 274.7415000000001L406.20450000000005 259.9095L399.50049999999976 263.0634999999995L398.6725000000001 258.3064999999999L398.47249999999974 255.66299999999956L400.48 247.09150000000022L399.51099999999997 241.31849999999986L399.1534999999999 240.44549999999958L395.5144999999999 236.0005000000001L398.6719999999997 233.95099999999957L398.4989999999999 228.63399999999956L399.7275000000002 227.31700000000046L401.92349999999976 229.47900000000004L404.98400000000004 228.01450000000045L403.48299999999995 220.58149999999955L407.1949999999998 219.31100000000015L407.98 211.65300000000002L405.31499999999994 207.7539999999999L402.5999999999999 208.43399999999974L399.96849999999995 205.72400000000016L397.0240000000001 196.38100000000009L402.28650000000016 198.6850000000004L404.7120000000001 195.58250000000044L398.67500000000007 190.74700000000007L398.39200000000005 188.76350000000002L402.3304999999999 178.6329999999998L393.62599999999986 177.03049999999962L387.04999999999984 179.90549999999985L381.1340000000001 177.0754999999997L380.2114999999998 179.0160000000003L376.3459999999998 178.79950000000008L371.82950000000005 175.10549999999967L366.9040000000001 178.00449999999955L363.01150000000007 177.89949999999976L363.09649999999976 179.85599999999977L359.427 178.27350000000024L357.98400000000015 172.66700000000014L352.75800000000004 170.14599999999973L351.42799999999966 174.02100000000019L347.7684999999997 175.8865000000003L334.0235000000001 178.08949999999982L330.4109999999997 176.47299999999973L326.48300000000006 177.14450000000056L317.47649999999965 173.44650000000001L319.02800000000013 167.0640000000003L312.87499999999966 157.39350000000059L313.11649999999986 151.5224999999998L311.2975 148.39950000000044L306.0899999999998 152.6305000000002L303.0815000000001 150.35650000000032L302.76399999999967 140.70799999999963L300.3960000000001 130.48900000000003L296.50649999999985 122.27499999999964L296.46450000000016 118.63100000000031L299.341 106.53050000000007L299.1384999999997 98.55050000000006L300.3665000000001 92.51700000000028L301.31500000000017 83.22750000000042L295.8794999999998 84.63750000000005L290.11649999999975 90.18100000000004L282.7294999999998 93.01799999999957L272.9849999999999 93.09499999999957L263.3510000000001 90.45049999999947L259.846 91.93750000000023L259.5224999999999 92.54149999999981L249.74999999999966 90.39850000000001L242.27449999999976 83.82950000000051L232.98549999999977 79.9739999999997L223.0574999999999 79.6995000000004L220.38399999999967 87.03499999999963L222.0105000000001 94.63750000000005L216.11299999999972 99.76800000000026L219.1194999999999 104.96350000000007L219.71749999999986 110.77549999999974L227.0519999999999 119.71700000000055L223.31450000000018 126.7089999999996L219.3889999999999 127.16649999999959L218.05000000000007 133.1269999999995L219.76699999999994 136.81249999999977L218.28750000000014 140.6065000000001L219.91949999999974 144.3285000000003L218.8560000000001 150.12200000000007L224.86699999999985 155.4600000000005L221.9765000000001 158.0759999999998L221.25999999999976 163.7149999999997z">
      <title id="t160">Cinquième circonscription de l'Hérault</title>
      <desc id="d160">Cantons de : Bédarieux, Capestang, Clermont-l'Hérault, Lunas, Montagnac, Murviel-lès-Béziers, Olargues, Olonzac, Roujan, Saint-Chinian, Saint-Gervais-sur-Mare, Saint-Pons-de-Thomières, La Salvetat-sur-Agout</desc>
    </path><path class="circo" id="id-034-06" d="M258.34799999999973 375.62900000000013L252.47149999999976 375.6975L249.47799999999972 380.60699999999997L241.87649999999962 382.6395000000002L245.111 387.3320000000001L260.20100000000014 392.3644999999999L260.66750000000013 400.2290000000005L255.66449999999975 417.4955L257.95500000000004 420.6179999999995L257.7389999999997 424.56999999999994L263.12599999999975 426.9950000000006L269.0519999999998 426.6399999999999L273.68299999999977 422.9714999999999L277.5959999999998 422.8075000000001L281.12199999999973 424.3489999999997L292.79449999999997 441.03650000000016L297.7125000000001 444.7384999999997L310.7945000000001 432.73000000000025L327.9145 420.42800000000057L341.4859999999999 411.19249999999965L350.5095 407.0690000000002L355.2244999999999 398.16749999999956L354.54049999999995 390.11600000000044L353.8214999999997 388.20550000000026L350.043 386.7325000000005L345.523 377.65750000000025L342.4759999999998 374.9789999999996L339.4045 373.05200000000013L336.22349999999983 369.6690000000001L337.89499999999975 365.89050000000043L336.3254999999998 357.91200000000003L339.7325000000001 352.7570000000003L339.5734999999996 350.69399999999973L336.4029999999997 348.0454999999995L329.0469999999999 351.11350000000016L326.79550000000006 347.79049999999984L314.4394999999997 342.18349999999987L307.106 336.99050000000057L311.7779999999999 327.9544999999996L304.1584999999998 321.0220000000004L302.16700000000003 320.42100000000005L297.0949999999999 316.62450000000035L293.09500000000014 317.1339999999998L291.70050000000003 320.57300000000055L286.5334999999999 322.33299999999986L284.68549999999993 322.876L281.9644999999997 320.2044999999998L277.7420000000001 322.1315000000004L271.8860000000001 327.4549999999999L266.11549999999966 337.94700000000034L264.4045 341.40049999999974L261.1619999999999 339.84199999999987L260.256 336.6724999999997L259.43600000000004 334.8924999999997L253.13649999999996 338.9745000000005L251.34450000000015 338.1880000000001L249.41399999999987 328.8274999999999L254.68399999999974 326.6409999999996L253.67099999999994 320.8749999999998L247.79549999999972 320.7185000000004L240.7869999999997 316.9225000000006L237.0245 321.3295000000005L222.42250000000013 324.73600000000033L217.08699999999965 325.9960000000001L208.61899999999991 331.11800000000017L215.96000000000004 333.0269999999996L222.26999999999975 338.17800000000034L231.52350000000013 353.5379999999998L241.447 355.94299999999976L244.71850000000018 354.7225000000003L249.5369999999997 356.8915000000004L251.10199999999963 358.00899999999956L250.12 365.6320000000005L251.72649999999976 366.7280000000005L258.48799999999983 373.6845000000005L258.34799999999973 375.62900000000013z">
      <title id="t161">Sixième circonscription de l'Hérault</title>
      <desc id="d161">Cantons de : Béziers I, Béziers II, Béziers III, Béziers IV</desc>
    </path><path class="circo" id="id-034-07" d="M414.7829999999999 407.8800000000001L411.2950000000001 409.95250000000055L384.00949999999966 404.2685000000006L377.7864999999997 399.56999999999994L365.6664999999998 401.28150000000005L350.5095 407.0690000000002L355.2244999999999 398.16749999999956L354.54049999999995 390.11600000000044L353.8214999999997 388.20550000000026L350.043 386.7325000000005L345.523 377.65750000000025L342.4759999999998 374.9789999999996L339.4045 373.05200000000013L336.22349999999983 369.6690000000001L337.89499999999975 365.89050000000043L336.3254999999998 357.91200000000003L339.7325000000001 352.7570000000003L339.5734999999996 350.69399999999973L336.4029999999997 348.0454999999995L329.0469999999999 351.11350000000016L326.79550000000006 347.79049999999984L314.4394999999997 342.18349999999987L307.106 336.99050000000057L311.7779999999999 327.9544999999996L304.1584999999998 321.0220000000004L302.16700000000003 320.42100000000005L297.0949999999999 316.62450000000035L293.09500000000014 317.1339999999998L283.7975 305.3909999999996L286.30499999999984 299.95649999999955L295.4615000000001 295.9209999999996L302.38699999999994 289.0129999999999L305.24 296.63099999999986L309.15599999999984 301.4535000000001L313.38250000000016 299.7090000000003L320.2004999999997 291.3774999999998L321.3544999999999 290.26449999999954L324.29550000000006 291.47749999999974L331.44499999999994 289.4190000000003L331.77250000000015 287.5604999999996L337.19899999999996 285.9119999999996L338.82499999999993 280.2369999999996L335.933 267.14500000000044L339.11249999999995 262.0010000000002L348.7394999999998 258.70000000000005L352.67449999999997 259.07699999999977L358.8599999999997 264.5550000000003L369.6460000000002 276.19800000000055L372.2615000000002 277.23449999999957L373.46149999999966 280.85699999999974L377.65649999999994 285.0115000000005L386.26800000000003 288.9440000000002L385.22850000000005 291.7515000000003L384.9340000000001 293.6575000000005L392.4955 304.3169999999998L394.49599999999975 307.65750000000025L397.5079999999997 305.17849999999953L405.2289999999999 304.25700000000006L412.0830000000001 310.9635000000003L415.7774999999998 319.7130000000004L418.8749999999999 317.80650000000037L429.2505 331.7330000000004L447.91049999999984 341.5719999999999L466.4299999999997 328.3815000000004L476.7289999999997 321.0649999999998L481.24199999999973 317.8444999999999L501.986 322.6139999999998L503.56899999999996 326.1659999999995L503.7610000000001 334.4475L488.45550000000003 340.2035000000001L478.4204999999997 339.53250000000025L472.9390000000001 342.37049999999954L458.7574999999998 354.3394999999998L436.3209999999998 378.5770000000002L424.89649999999983 392.67900000000054L414.7829999999999 407.8800000000001z">
      <title id="t162">Septième circonscription de l'Hérault</title>
      <desc id="d162">Cantons de : Agde, Florensac, Pézenas, Servian, Sète I, Sète II</desc>
    </path><path class="circo" id="id-034-08" d="M478.4125 309.2475000000002L481.24199999999973 317.8444999999999L501.986 322.6139999999998L503.56899999999996 326.1659999999995L533.1540000000001 311.9825000000003L546.6239999999999 296.4925000000005L546.1019999999996 296.21849999999995L560.1099999999997 280.1469999999995L554.9604999999997 273.94450000000006L549.205 272.70200000000045L548.8045 265.29449999999997L539.8179999999996 258.15450000000055L543.0579999999998 255.89849999999956L542.2615000000002 252.09749999999985L544.9970000000002 246.81749999999965L541.9295 242.45900000000006L538.3934999999997 242.16949999999997L538.4530000000001 240.39099999999962L537.5574999999998 237.47449999999958L532.5979999999998 235.37599999999998L529.1669999999999 231.27200000000016L531.952 222.6464999999996L528.3094999999997 218.50149999999985L537.9165 218.6990000000003L541.3729999999998 218.26450000000023L542.389 223.37599999999952L552.4979999999999 213.23350000000005L552.758 209.87550000000056L542.5630000000001 209.66049999999996L539.9554999999998 204.04649999999947L541.6890000000001 200.33450000000016L538.6489999999998 195.32550000000015L543.8774999999998 192.86950000000047L547.2154999999998 194.45299999999975L553.3269999999999 200.33599999999979L551.3380000000001 203.24799999999982L557.4205000000001 206.67400000000043L561.4105000000001 211.08600000000024L563.7004999999999 207.83900000000017L560.795 206.16049999999973L559.3389999999999 200.5544999999995L556.3535000000002 198.57250000000022L553.1229999999999 190.0864999999999L551.9959999999998 188.56300000000033L547.3685 179.32649999999967L540.6299999999999 178.7805000000003L536.0589999999996 182.7570000000003L528.7639999999999 180.0025000000005L519.9714999999998 184.89649999999983L510.90599999999995 192.23550000000046L513.4715 194.93900000000053L513.6079999999998 197.79350000000022L512.5245000000001 201.00149999999985L508.68349999999964 202.40800000000036L505.7265000000001 207.37799999999993L497.83299999999997 208.25649999999996L497.51499999999965 210.2819999999997L500.01300000000015 212.8245000000004L499.8309999999998 218.4050000000002L494.4655 218.24500000000057L491.12199999999973 214.80400000000031L491.65399999999977 213.00250000000005L488.254 212.9989999999998L486.37850000000014 216.25149999999962L480.2125000000001 220.40700000000015L480.43450000000007 228.37650000000053L474.64 236.31999999999948L484.6629999999999 243.19150000000036L482.24350000000015 248.82200000000012L483.59350000000006 252.6585L492.1539999999999 261.34750000000054L497.99649999999986 262.7340000000004L498.10299999999984 266.61100000000033L502.75499999999965 265.3399999999999L511.4474999999999 273.605L515.7144999999997 280.6569999999999L513.938 286.37500000000045L504.93150000000014 293.836L500.9589999999997 292.9774999999995L498.33050000000014 289.8604999999998L492.321 288.9319999999998L486.21350000000007 296.23399999999947L478.63699999999994 301.8904999999995L479.0409999999997 305.68700000000035L478.4125 309.2475000000002z">
      <title id="t163">Huitième circonscription de l'Hérault</title>
      <desc id="d163">Cantons de : Frontignan (moins la commune de Villeneuve-lès-Maguelone), Montpellier X, Pignan</desc>
    </path><path class="circo" id="id-034-09" d="M666.6213499999998 159.74000000000046L667.5493499999999 158.25000000000045L659.90185 161.1220000000003L650.2628499999997 157.85750000000007L647.9033499999997 160.79849999999965L647.0683500000001 164.50600000000009L645.1513499999999 164.75000000000023L643.6883499999999 168.1205L635.5761000000001 171.46650000000022L641.6053499999998 175.40650000000028L640.5363499999999 180.933L643.34835 183.42399999999998L640.4863499999999 187.93199999999956L635.2051 184.55299999999966L633.3044999999998 184.0840000000003L631.4664999999997 189.3195000000003L626.2855000000002 191.25L626.2139999999999 195.17650000000003L623.5739999999998 192.8015000000005L614.4515000000001 186.55949999999962L599.1589999999997 192.38650000000007L593.589 199.76049999999987L592.1145000000001 201.1590000000001L586.5595000000002 207.07899999999995L578.6144999999999 205.30200000000036L576.3869999999997 202.18449999999962L571.3335000000001 208.9065000000005L574.862 208.4375L576.5535 211.77749999999946L575.4075 214.36349999999948L570.7599999999996 213.8855000000001L568.8374999999996 216.1635000000001L571.8759999999997 215.81500000000005L575.6914999999998 217.0875000000001L580.616 223.1714999999997L594.6119999999996 220.49999999999955L591.7565000000002 225.29250000000047L594.4164999999998 227.70549999999957L606.4569999999998 237.78050000000007L608.6944999999997 247.44950000000017L607.7319999999997 249.19949999999972L607.4719999999996 253.2854999999995L622.5074999999998 246.99500000000057L636.4873499999999 243.84149999999977L648.9793500000002 243.25900000000047L663.4268500000002 244.99400000000037L666.6868499999998 236.74350000000004L655.9698500000002 225.05899999999997L652.2198500000002 224.91750000000025L652.4123500000002 224.68799999999987L656.0548499999999 223.06900000000041L662.9368499999998 226.86599999999999L672.7063499999997 225.05599999999959L684.32635 226.69750000000022L684.0738499999998 220.50449999999955L692.7578499999998 211.88099999999963L702.4703499999998 193.64550000000008L702.8578499999998 187.84200000000055L690.0258500000001 165.28300000000058L690.3178500000001 163.70000000000005L691.27635 160.18100000000004L685.8848499999999 150.6619999999998L676.7623499999996 154.31799999999953L673.9183500000001 159.30349999999976L670.3188499999999 161.08799999999974L666.6213499999998 159.74000000000046z">
      <title id="t164">Neuvième circonscription de l'Hérault</title>
      <desc id="d164">Cantons de : Lunel (moins les communes de Boisseron, Saturargues, Saussines, Saint-Christol, Saint-Sériès, Vérargues, Villetelle), Mauguio, Montpellier IV</desc>
    </path></svg>