<svg xmlns="http://www.w3.org/2000/svg" version="1.1" xmlns:xlink="http://www.w3.org/1999/xlink" xmlns:svgjs="http://svgjs.dev/svgjs" width="539.4830000000002" height="688.4574999999998" fill="#eeeeee" stroke="#cccccc" xmlns:sodipodi="http://sodipodi.sourceforge.net/DTD/sodipodi-0.dtd"><path class="circo" id="id-035-01" d="M255.4264999999998 391.6629500000002L253.01949999999977 397.27960000000024L248.84349999999984 402.2549999999998L249.90099999999984 404.18199999999985L249.90149999999971 415.3517000000002L244.48350000000005 413.53730000000013L237.76250000000005 417.9538499999998L231.47549999999995 417.00255L227.48099999999994 412.1584500000003L223.50899999999996 413.3160000000001L220.2985000000001 419.1289500000002L220.74150000000003 425.6250000000003L217.817 428.9542000000003L217.2954999999999 435.3637499999999L218.21799999999996 439.47935L215.11449999999996 444.9267999999998L214.08349999999984 453.09920000000005L222.4324999999999 454.44770000000034L227.1535 458.23890000000034L225.34199999999998 464.2801499999999L227.09949999999992 468.16985000000017L232.70800000000008 465.1977000000002L234.32799999999986 452.4004499999998L236.39350000000007 448.55965L238.3850000000001 447.6778500000003L241.61450000000002 450.6052500000001L243.85050000000007 454.0157500000001L247.74 455.58085000000034L249.5519999999999 459.36045000000007L253.64199999999983 459.99240000000015L253.35649999999987 478.8512499999999L253.93950000000018 480.8937L259.547 483.58649999999983L262.799 473.94014999999996L268.6899999999997 474.3807000000001L271.3794999999999 477.5234000000003L274.8059999999998 485.1711000000003L280.4525000000001 482.24680000000006L281.58500000000004 480.44054999999986L279.21850000000006 474.8008999999999L283.91849999999977 470.7703999999998L291.6224999999997 467.0676499999999L293.6020000000002 458.81175000000013L296.3734999999997 455.42080000000027L294.4414999999998 454.29715000000016L292.0119999999997 445.6886L291.88699999999983 439.4240499999998L294.5614999999998 436.20270000000033L298.5579999999999 426.02295L306.50800000000004 419.43929999999995L306.97249999999997 417.3891999999998L302.58849999999995 412.9318500000002L305.4214999999999 409.8319000000001L307.6279999999997 401.90574999999995L305.65049999999985 396.3716000000002L291.14649999999983 399.37989999999985L286.0744999999997 392.4096499999999L281.7705000000001 391.6702000000001L278.0219999999997 389.3898500000003L277.58100000000013 387.22970000000004L277.38049999999987 382.83510000000007L271.0334999999998 384.51310000000007L269.4580000000002 386.70919999999995L266.00250000000017 387.27195000000023L264.83450000000005 388.4722500000001L264.36699999999973 390.3492000000003L259.9295000000001 390.60115000000025L255.4264999999998 391.6629500000002z">
      <title id="t165">Première circonscription d'Ille-et-Vilaine</title>
      <desc id="d165">Cantons de : Bruz, Rennes-le-Blosne, Rennes-Brequigny, Rennes Centre-Sud, Rennes Sud-Est</desc>
    </path><path class="circo" id="id-035-02" d="M210.35949999999985 239.98464999999982L206.82349999999985 242.69545000000022L200.78000000000003 240.1547500000001L194.23550000000006 241.3803500000003L187.0675 236.17895000000004L186.68649999999985 225.9354000000002L190.5895000000001 218.7873000000002L194.13749999999993 216.25045L194.97899999999987 212.13864999999998L204.36900000000009 217.31960000000015L212.73200000000003 217.27609999999999L217.56049999999988 220.8748L218.95899999999983 227.18975L224.3180000000001 223.20404999999994L246.0374999999999 217.62924999999996L253.85100000000023 210.46140000000008L246.25249999999994 205.8854500000001L245.17200000000003 201.74480000000017L246.81399999999996 200.23920000000004L253.46499999999992 199.87625000000008L261.2779999999998 207.5911000000002L260.4419999999999 212.9065L266.2209999999999 214.28165000000007L268.5820000000001 217.5672L270.50599999999974 216.9517000000002L271.04150000000004 221.35400000000004L269.2845 225.39555000000007L270.967 226.8411500000002L287.92399999999986 230.92105000000032L287.9084999999998 231.1525500000002L282.2275000000002 234.3392000000003L267.4489999999997 234.15055000000024L262.7139999999997 243.8877499999998L263.49049999999977 245.9448999999998L258.1835000000001 248.57595000000032L258.9639999999997 252.36045000000018L251.1005 254.66694999999987L249.4074999999998 264.9334000000002L252.81949999999995 269.98650000000026L252.92100000000005 274.21175000000034L254.84849999999994 275.0637500000002L252.86200000000008 281.15170000000006L246.1959999999999 286.3957500000001L233.69100000000003 286.72650000000004L234.90250000000003 291.6371000000001L229.7014999999999 302.0009999999999L235.92099999999988 308.3672500000003L237.06950000000006 312.52500000000026L235.81099999999992 316.59165L239.49099999999987 321.4811499999999L238.44349999999991 327.6433499999999L240.6989999999999 331.24904999999984L237.73449999999997 334.2838000000003L239.5365000000001 339.3236500000003L246.28449999999987 336.4309L250.92600000000004 339.91709999999983L259.62800000000016 328.30205000000007L265.76700000000017 327.25949999999983L267.9944999999998 321.58575000000013L278.49199999999996 329.38090000000017L280.5649999999997 328.66675000000015L281.59400000000005 324.51425L292.8789999999998 328.68014999999986L295.9884999999997 318.76735000000025L294.2660000000001 312.6009000000002L295.0049999999999 304.20255000000026L293.1234999999998 303.20265000000035L295.7760000000002 297.9166000000001L299.4029999999998 295.98525000000024L302.9140000000001 297.88595000000015L309.05700000000024 297.6964000000001L309.6039999999999 294.9436L311.65250000000015 291.17744999999985L317.5565 288.4024000000002L323.168 281.8125999999998L329.6415000000002 281.6363500000003L342.6155 281.45819999999986L341.1545000000001 285.4432L337.0904999999999 286.71625000000034L335.1600000000002 290.4976000000002L343.4314999999998 300.1146000000003L343.2945000000001 302.25629999999995L343.58900000000006 304.4189000000003L349.82950000000017 305.9847499999998L354.4164999999998 310.46885000000003L367.17449999999985 308.58160000000026L368.3499999999998 306.7440500000001L371.84950000000015 311.4175000000003L377.568 312.8222500000001L380.06399999999985 304.4086999999999L390.5309999999997 301.9799500000002L393.8335000000001 296.4709500000001L406.69249999999977 294.63335L419.7134999999997 308.6173499999998L425.8499999999998 309.20750000000027L424.21550000000025 313.2120499999999L419.0735000000001 317.0968000000002L413.59350000000006 314.0171000000001L411.6635000000002 314.8872000000003L397.85500000000013 327.2467500000002L398.8510000000002 328.90394999999984L395.8159999999998 332.03645000000023L394.9509999999998 338.5880499999999L396.41099999999994 347.0075L392.278 347.96594999999996L390.68449999999984 351.2534000000002L389.8784999999998 353.13560000000024L386.17549999999994 353.6803499999999L383.61850000000004 361.4532L378.45050000000015 357.55075000000005L374.3169999999998 356.9207000000003L373.2979999999998 361.1283499999999L360.26250000000005 367.41299999999995L355.985 366.9543999999999L350.4019999999997 369.3312L348.1875000000002 358.79685000000023L340.5694999999997 365.7698000000002L342.15300000000013 371.8033L340.89049999999986 375.7779000000002L336.773 375.5079500000002L334.81150000000014 379.05170000000027L328.79050000000007 379.00650000000013L324.5889999999997 372.1605500000001L320.3325000000001 371.87205000000034L312.8235000000001 378.50989999999996L310.60299999999984 390.22234999999995L310.20399999999995 393.9166000000003L305.65049999999985 396.3716000000002L291.14649999999983 399.37989999999985L286.0744999999997 392.4096499999999L281.7705000000001 391.6702000000001L278.0219999999997 389.3898500000003L277.58100000000013 387.22970000000004L277.38049999999987 382.83510000000007L271.0334999999998 384.51310000000007L269.4580000000002 386.70919999999995L266.00250000000017 387.27195000000023L264.3579999999997 385.5064999999999L263.77250000000004 380.1529000000002L262.8985 377.3346000000001L265.04849999999976 373.1363999999999L267.5819999999999 365.21060000000006L265.51499999999976 365.0609L253.77749999999992 370.32275L248.65499999999997 363.67050000000035L239.0979999999999 363.5316500000002L238.89549999999986 359.56445L234.96199999999988 355.44774999999987L236.19849999999985 353.81159999999994L234.79399999999998 349.9617500000002L229.30000000000007 352.02754999999996L225.40599999999984 350.5053000000001L223.673 346.7328499999999L223.536 336.37035L217.22949999999997 336.2122500000001L216.37650000000008 329.9598499999999L227.6894999999999 324.0665500000003L222.21949999999993 320.50534999999996L216.15049999999997 305.05955L215.84299999999985 303.0999L209.8644999999999 298.6084500000001L193.861 299.92185000000035L188.78199999999993 295.6603500000003L193.37199999999996 293.0413999999999L193.03349999999995 291.16915000000034L189.03249999999986 283.72629999999987L190.73499999999996 279.8458500000001L195.54699999999997 276.97655000000026L196.32949999999994 274.93090000000024L194.041 271.3924499999999L196.3114999999999 268.90375000000034L204.05749999999983 266.0916499999999L207.9910000000001 254.07835000000006L219.53299999999984 248.80734999999987L216.70500000000004 240.77425000000034L210.35949999999985 239.98464999999982z">
      <title id="t166">Deuxième circonscription d'Ille-et-Vilaine</title>
      <desc id="d166">Cantons de : Betton, Cesson-Sévigné, Hédé, Liffré, Rennes Nord-Est, Rennes Est</desc>
    </path><path class="circo" id="id-035-03" d="M194.041 271.3924499999999L196.32949999999994 274.93090000000024L195.54699999999997 276.97655000000026L190.73499999999996 279.8458500000001L189.03249999999986 283.72629999999987L193.03349999999995 291.16915000000034L193.37199999999996 293.0413999999999L188.78199999999993 295.6603500000003L193.861 299.92185000000035L209.8644999999999 298.6084500000001L215.84299999999985 303.0999L216.15049999999997 305.05955L222.21949999999993 320.50534999999996L227.6894999999999 324.0665500000003L216.37650000000008 329.9598499999999L217.22949999999997 336.2122500000001L223.536 336.37035L223.673 346.7328499999999L225.40599999999984 350.5053000000001L229.30000000000007 352.02754999999996L234.79399999999998 349.9617500000002L236.19849999999985 353.81159999999994L234.96199999999988 355.44774999999987L238.89549999999986 359.56445L239.0979999999999 363.5316500000002L248.65499999999997 363.67050000000035L250.57950000000005 366.27015L248.3605 367.89180000000016L242.87350000000004 375.5971500000001L249.83349999999973 375.61954999999983L250.75600000000009 381.4785500000002L247.85349999999994 384.55725L245.1599999999999 383.67350000000016L235.9635 384.84395000000035L237.5245000000001 382.68929999999983L238.51100000000002 378.3195500000002L232.85499999999985 371.59445000000034L230.88750000000005 370.9442500000003L224.78049999999996 375.8937499999999L218.58149999999995 376.06250000000017L215.07900000000006 378.23295L211.10799999999983 378.5258000000002L210.1955000000001 376.68199999999985L209.62649999999996 374.66170000000005L201.9829999999999 371.7765499999999L197.88399999999996 367.0729000000003L203.4960000000001 358.44325L197.84549999999996 352.25885000000034L196.8105 348.3412999999999L196.52199999999993 344.4525999999999L192.76049999999998 344.76935L182.94449999999983 349.09705L180.44600000000003 343.1161L176.12750000000005 343.9695000000003L173.00749999999994 346.6907999999998L173.0555000000001 354.98835000000014L171.2254999999999 356.04979999999983L168.20149999999984 370.30170000000027L171.199 373.2322000000002L175.49350000000004 373.6321000000001L180.96450000000004 370.0838999999999L195.2095 366.2092500000003L195.85499999999996 368.05874999999986L192.1414999999999 372.58080000000035L191.4840000000001 376.24335L190.20350000000008 379.72589999999997L182.66899999999993 381.9012000000001L172.08300000000008 383.2915L170.17499999999984 377.0392000000001L160.1185000000001 380.1511500000001L157.47150000000005 383.1457500000002L161.30799999999994 390.65320000000014L160.5005 392.6661500000003L175.0475 409.92665000000017L167.0490000000001 412.60875000000027L162.47050000000002 417.13100000000026L156.08499999999992 418.2298499999999L152.60999999999996 420.5341999999999L142.06500000000005 421.9133000000002L139.298 414.06135000000035L149.26649999999995 404.1375000000002L139.8535000000001 401.7581500000003L136.14149999999995 407.22970000000004L120.4325 415.6118000000001L107.87949999999995 411.59625000000034L105.68299999999994 412.0351000000002L103.3359999999999 415.83879999999994L99.5644999999999 410.9481500000001L93.31400000000002 411.38510000000025L89.77800000000002 408.85425000000026L83.3435 408.11769999999996L82.64949999999999 406.4937499999999L80.91250000000002 407.67304999999993L70.96350000000001 404.7857000000002L67.90850000000006 401.94455000000033L59.62500000000006 400.87380000000024L55.82950000000011 401.09395000000035L50.60149999999993 406.69790000000006L44.994000000000085 402.2880999999998L27.681499999999915 404.92564999999985L22.333500000000015 408.4650000000002L22.146999999999935 414.7240000000002L13.354500000000087 415.18445000000014L12.994999999999948 409.0826000000001L16.31149999999991 401.6665500000002L14.412499999999966 398.0469500000001L13.49349999999987 393.6035000000001L13.264499999999941 384.9917000000002L0.11099999999999 370.07755000000003L1.8240000000000123 362.7195000000003L9.696500000000015 359.07205000000005L15.011000000000081 362.68065000000007L19.339999999999975 362.9316000000003L21.105000000000018 361.6475L16.93899999999985 356.7780000000002L17.097499999999854 354.5959000000002L24.435499999999877 350.34345L26.69150000000002 346.5958500000002L29.22300000000007 325.74375000000003L25.313999999999908 320.89695000000034L31.305499999999995 319.1474500000001L36.45299999999992 322.6941500000001L40.63299999999998 322.6138L43.9255 320.26809999999983L44.02899999999988 318.1741500000001L41.33999999999986 312.41524999999996L42.65749999999997 299.7910500000003L46.72750000000008 295.35589999999985L57.26799999999997 288.4815499999999L58.43600000000009 290.37375000000026L69.48599999999999 290.0660500000001L76.90899999999999 294.9014500000001L76.05050000000006 292.8971500000003L79.69349999999991 285.5804500000002L75.6280000000001 284.04235L75.26099999999985 279.96139999999997L86.12400000000008 279.19385000000005L89.56649999999996 273.70845L89.21999999999997 269.2960000000002L99.13499999999999 264.9538500000003L102.32949999999988 270.5601500000003L116.2145000000001 277.1055500000003L120.38700000000006 276.08565000000027L121.36149999999986 269.7124499999998L123.89350000000007 266.17085000000003L125.84749999999985 265.1883000000001L132.2135 263.8804999999999L135.98799999999983 269.1995499999999L140.03899999999987 268.4259499999999L137.26499999999987 263.1118999999998L141.14149999999995 252.0198000000002L136.27700000000004 236.66300000000007L144.401 236.80815000000024L150.3354999999999 234.74590000000006L151.82349999999985 233.26359999999994L151.1005 229.13475000000005L144.9600000000001 221.11919999999998L145.27799999999985 214.5299L147.7430000000001 208.95875000000018L148.1895 205.05915000000016L151.9305 203.70540000000005L147.38049999999987 199.20150000000007L148.4854999999999 195.06320000000017L147.2014999999999 193.30315000000013L148.52900000000005 187.3723000000001L142.59150000000005 180.97409999999996L144.03850000000006 170.3268L148.17949999999996 169.96800000000007L153.7115 163.2850000000002L153.836 158.89219999999995L151.6409999999999 155.0141500000001L153.2605000000001 150.86190000000016L160.88549999999998 147.8305500000002L160.54599999999994 149.97265L166.74949999999995 148.92179999999996L168.39799999999997 150.32720000000012L170.05949999999984 146.34620000000012L167.90850000000006 140.35930000000008L169.8554999999999 139.41720000000004L178.05299999999988 141.78110000000004L184.65550000000007 149.64375000000018L185.4589999999999 151.18885000000006L190.59349999999995 151.39274999999998L196.41899999999993 148.86155000000002L198.05800000000005 145.13170000000002L204.3844999999999 139.42745000000002L209.0440000000001 149.07759999999996L212.87849999999992 150.74520000000007L234.5875000000001 140.8602000000002L236.7765 140.9423000000001L241.02100000000007 151.0369L245.385 155.83079999999995L244.82049999999987 160.18560000000008L248.12700000000007 162.61529999999993L250.1245 162.30575000000016L252.21299999999985 159.36200000000014L258.7389999999999 164.44305000000014L268.8454999999999 156.33980000000008L277.0179999999999 158.09290000000004L280.15199999999993 155.4532500000002L285.1004999999998 157.6461500000002L283.44749999999976 169.47270000000003L279.39250000000015 171.30520000000018L275.6310000000002 179.2222000000001L275.50099999999986 183.68085000000008L271.0050000000001 188.25729999999993L273.8625000000002 196.5479000000002L271.3330000000002 199.90505000000013L272.4180000000001 203.78735000000006L275.4660000000001 206.42754999999994L274.02150000000006 212.58655000000005L270.25149999999996 214.76985000000013L270.50599999999974 216.9517000000002L268.5820000000001 217.5672L266.2209999999999 214.28165000000007L260.4419999999999 212.9065L261.2779999999998 207.5911000000002L253.46499999999992 199.87625000000008L246.81399999999996 200.23920000000004L245.17200000000003 201.74480000000017L246.25249999999994 205.8854500000001L253.85100000000023 210.46140000000008L246.0374999999999 217.62924999999996L224.3180000000001 223.20404999999994L218.95899999999983 227.18975L217.56049999999988 220.8748L212.73200000000003 217.27609999999999L204.36900000000009 217.31960000000015L194.97899999999987 212.13864999999998L194.13749999999993 216.25045L190.5895000000001 218.7873000000002L186.68649999999985 225.9354000000002L187.0675 236.17895000000004L194.23550000000006 241.3803500000003L200.78000000000003 240.1547500000001L206.82349999999985 242.69545000000022L210.35949999999985 239.98464999999982L216.70500000000004 240.77425000000034L219.53299999999984 248.80734999999987L207.9910000000001 254.07835000000006L204.05749999999983 266.0916499999999L196.3114999999999 268.90375000000034L194.041 271.3924499999999z">
      <title id="t167">Troisième circonscription d'Ille-et-Vilaine</title>
      <desc id="d167">Cantons de : Bécherel, Combourg, Montfort-sur-Meu, Montauban-de-Bretagne, Rennes Nord-Ouest, Saint-Méen-le-Grand, Tinténiac</desc>
    </path><path class="circo" id="id-035-04" d="M331.93100000000015 556.4968000000001L333.6345 555.1315500000001L335.93650000000025 542.3649000000003L341.05950000000007 535.5162500000004L345.0599999999997 532.9576L350.1479999999998 528.85815L341.1734999999999 523.1647499999999L343.29549999999983 519.48945L340.1535000000001 514.01125L334.2565000000002 511.51880000000034L326.84050000000013 515.5734500000003L320.96450000000004 512.7565000000002L316.8164999999999 513.3677000000002L313.69849999999985 506.31130000000013L311.78499999999985 505.94160000000016L312.64999999999986 503.8392000000002L310.5529999999999 499.8839000000001L300.4340000000002 491.22449999999986L305.7294999999999 485.7574500000001L305.634 481.82665000000014L299.34199999999976 483.6918499999999L290.91549999999984 483.35994999999997L289.8185000000001 481.4623500000002L291.09699999999975 475.0072000000003L283.91849999999977 470.7703999999998L279.21850000000006 474.8008999999999L281.58500000000004 480.44054999999986L280.4525000000001 482.24680000000006L274.8059999999998 485.1711000000003L271.3794999999999 477.5234000000003L268.6899999999997 474.3807000000001L262.799 473.94014999999996L259.547 483.58649999999983L253.93950000000018 480.8937L253.35649999999987 478.8512499999999L253.64199999999983 459.99240000000015L249.5519999999999 459.36045000000007L247.74 455.58085000000034L243.85050000000007 454.0157500000001L241.61450000000002 450.6052500000001L238.3850000000001 447.6778500000003L236.39350000000007 448.55965L234.32799999999986 452.4004499999998L232.70800000000008 465.1977000000002L227.09949999999992 468.16985000000017L225.34199999999998 464.2801499999999L227.1535 458.23890000000034L222.4324999999999 454.44770000000034L214.08349999999984 453.09920000000005L215.11449999999996 444.9267999999998L218.21799999999996 439.47935L217.2954999999999 435.3637499999999L209.44850000000002 432.1915500000003L206.60300000000007 426.3535500000003L200.66000000000003 425.5995500000003L198.15449999999998 425.18505000000033L196.98450000000008 423.3311499999999L198.71199999999988 416.9771L196.74649999999986 413.06095L188.54500000000002 414.01809999999983L181.36949999999985 409.16275000000013L175.0475 409.92665000000017L167.0490000000001 412.60875000000027L162.47050000000002 417.13100000000026L156.08499999999992 418.2298499999999L152.60999999999996 420.5341999999999L142.06500000000005 421.9133000000002L139.298 414.06135000000035L149.26649999999995 404.1375000000002L139.8535000000001 401.7581500000003L136.14149999999995 407.22970000000004L120.4325 415.6118000000001L107.87949999999995 411.59625000000034L105.68299999999994 412.0351000000002L103.3359999999999 415.83879999999994L99.5644999999999 410.9481500000001L93.31400000000002 411.38510000000025L89.77800000000002 408.85425000000026L83.3435 408.11769999999996L82.64949999999999 406.4937499999999L80.91250000000002 407.67304999999993L70.96350000000001 404.7857000000002L67.90850000000006 401.94455000000033L59.62500000000006 400.87380000000024L55.82950000000011 401.09395000000035L50.60149999999993 406.69790000000006L49.167500000000075 408.38105000000013L49.34750000000008 414.97649999999993L40.881499999999846 421.8084000000002L19.17349999999999 421.71239999999983L16.087499999999864 424.8195000000001L6.056999999999846 435.3974500000001L2.975500000000011 441.7085L2.1674999999999045 443.7285L4.6905000000001 449.52399999999983L0.09700000000009368 454.0380000000002L0 460.5347500000002L20.970999999999833 455.5618000000001L31.07849999999985 459.4322500000001L33.03449999999998 458.44340000000017L41.00650000000002 462.0112500000002L47.09550000000007 467.8060500000001L59.90000000000009 465.33930000000026L63.384499999999946 468.0086000000003L70.14600000000002 478.0845000000002L71.30400000000009 479.9321499999999L74.9414999999999 481.1202499999999L77.72050000000007 485.62735000000004L80.531 495.94464999999985L88.65250000000003 506.2358500000002L86.54699999999991 509.3172000000001L87.34949999999998 512.9365500000004L82.38249999999994 517.2427500000001L78.1665000000001 518.3452000000002L73.56850000000009 525.3324499999999L73.68149999999986 532.0128000000002L80.08499999999998 541.1105999999997L75.68950000000001 551.0102000000004L81.74849999999992 554.54645L92.74599999999992 549.0835999999999L98.95800000000008 538.3724500000003L100.56299999999993 545.7589500000004L99.28699999999992 549.6732499999998L101.19399999999985 557.96325L106.88799999999986 560.7498L102.33000000000004 569.7826499999999L92.25949999999983 574.7117499999999L91.54650000000004 582.8442500000003L91.22749999999996 587.0989L85.04549999999995 592.6788000000001L81.65449999999993 595.2201499999999L75.41449999999998 595.4649000000004L74.8705000000001 599.4593L69.03549999999996 600.4893999999999L67.5385 606.3414000000002L84.6074999999999 605.5852500000001L87.19149999999985 613.2354L95.72000000000003 612.7480499999999L96.76649999999995 620.9350000000004L75.68700000000007 622.4750500000002L75.32700000000006 626.22605L67.62900000000002 630.0038000000004L67.35199999999992 634.0508000000002L71.57499999999999 639.0056500000001L69.47450000000003 649.62345L70.07450000000006 656.0816000000002L78.06999999999988 660.1734000000001L78.33200000000005 666.6067999999998L75.2985000000001 672.2735500000001L74.42549999999983 678.24845L81.82999999999993 680.6412500000001L81.74749999999989 682.7121999999999L78.01549999999992 684.2058499999998L78.35099999999983 686.24945L80.96599999999995 688.4574999999998L87.33450000000005 677.0649000000001L100.11499999999984 676.4283000000003L102.05649999999991 668.0008499999999L103.89199999999988 666.7955000000004L107.1905000000001 665.0416500000003L116.98700000000002 666.3171000000002L133.51249999999993 648.8309999999999L133.6590000000001 648.9067500000001L135.3649999999999 652.8366000000003L135.26250000000005 661.4055500000004L136.53400000000005 663.1298999999999L140.76850000000007 663.32935L149.70399999999984 653.47045L171.11400000000003 647.6577499999999L172.1074999999999 648.2165999999997L178.70450000000005 644.06645L180.52400000000006 640.5082500000001L184.47699999999998 640.0642500000001L191.1529999999999 640.8720500000002L195.13749999999987 639.0833499999999L198.6869999999999 641.6053000000002L213.04299999999984 645.2158499999998L219.27699999999987 645.9754999999998L228.35499999999996 640.8758500000001L235.8590000000001 643.9768000000001L237.08300000000008 645.5549499999997L244.9215000000001 644.87355L245.2340000000001 640.4981499999999L247.14 639.4105L255.5279999999999 637.1492500000002L266.2729999999999 638.7321499999998L273.34749999999985 631.1883500000001L276.00649999999973 631.1113000000003L276.5715 618.7602999999999L280.6815 607.3365500000002L283.86750000000006 604.9712999999999L289.7215 605.3633L293.0169999999998 603.1016000000002L294.7025000000002 597.0909000000004L298.4564999999998 595.2751500000002L302.67049999999983 595.6969999999999L310.73050000000023 592.2240000000002L321.7840000000001 591.5567000000001L329.5324999999997 583.6857499999999L333.005 581.2567500000002L336.82650000000024 582.8575500000002L343.00149999999974 581.4440500000003L348.1234999999998 578.1923000000004L347.654 572.3941499999999L342.4180000000001 561.7988499999999L336.8560000000002 560.2445500000001L331.93100000000015 556.4968000000001z">
      <title id="t168">Quatrième circonscription d'Ille-et-Vilaine</title>
      <desc id="d168">Cantons de : Bain-de-Bretagne, Grand-Fougeray, Guichen, Maure-de-Bretagne, Pipriac, Plélan-le-Grand, Redon, Le Sel-de-Bretagne</desc>
    </path><path class="circo" id="id-035-05" d="M507.6965000000001 463.07300000000026L501.524 462.20429999999993L495.2404999999999 463.7061000000003L492.0164999999997 473.4132500000001L484.01700000000005 475.32144999999986L480.83500000000015 477.70940000000024L478.66949999999974 485.0131000000002L479.4240000000002 493.7217000000001L476.17849999999976 496.9234500000002L477.88599999999974 500.7833500000001L475.54399999999987 508.7832499999999L472.5385 511.65130000000005L472.3430000000002 520.0384499999998L465.5509999999998 524.2841000000001L463.43849999999975 527.7268999999999L463.29499999999996 531.8924000000002L466.823 539.0598500000001L460.9325000000001 545.9394499999999L456.65700000000015 545.7057499999999L452.81349999999975 550.0449999999998L456.1914999999999 555.0181999999998L455.38149999999973 559.0447000000004L452.3770000000002 569.8985000000002L448.25049999999976 569.5269500000004L445.95950000000016 575.6059500000001L444.34500000000014 576.7767000000001L445.1344999999998 580.481L446.37099999999975 584.3437500000002L442.7165000000002 596.6558L403.92650000000003 585.3231000000003L402.7184999999997 584.9561500000002L392.4804999999998 581.4851999999998L380.81500000000005 564.0038999999999L374.9180000000001 566.0974000000001L373.3265 564.5831499999999L370.9050000000002 564.5248999999999L367.65300000000025 561.9165999999998L353.168 561.83305L349.54049999999995 559.8640500000001L343.3684999999997 559.8956999999998L342.4180000000001 561.7988499999999L336.8560000000002 560.2445500000001L331.93100000000015 556.4968000000001L333.6345 555.1315500000001L335.93650000000025 542.3649000000003L341.05950000000007 535.5162500000004L345.0599999999997 532.9576L350.1479999999998 528.85815L341.1734999999999 523.1647499999999L343.29549999999983 519.48945L340.1535000000001 514.01125L334.2565000000002 511.51880000000034L326.84050000000013 515.5734500000003L320.96450000000004 512.7565000000002L316.8164999999999 513.3677000000002L313.69849999999985 506.31130000000013L311.78499999999985 505.94160000000016L312.64999999999986 503.8392000000002L310.5529999999999 499.8839000000001L300.4340000000002 491.22449999999986L305.7294999999999 485.7574500000001L305.634 481.82665000000014L299.34199999999976 483.6918499999999L290.91549999999984 483.35994999999997L289.8185000000001 481.4623500000002L291.09699999999975 475.0072000000003L283.91849999999977 470.7703999999998L291.6224999999997 467.0676499999999L293.6020000000002 458.81175000000013L296.3734999999997 455.42080000000027L294.4414999999998 454.29715000000016L292.0119999999997 445.6886L291.88699999999983 439.4240499999998L294.5614999999998 436.20270000000033L298.5579999999999 426.02295L306.50800000000004 419.43929999999995L306.97249999999997 417.3891999999998L302.58849999999995 412.9318500000002L305.4214999999999 409.8319000000001L307.6279999999997 401.90574999999995L305.65049999999985 396.3716000000002L310.20399999999995 393.9166000000003L310.60299999999984 390.22234999999995L312.8235000000001 378.50989999999996L320.3325000000001 371.87205000000034L324.5889999999997 372.1605500000001L328.79050000000007 379.00650000000013L334.81150000000014 379.05170000000027L336.773 375.5079500000002L340.89049999999986 375.7779000000002L342.15300000000013 371.8033L340.5694999999997 365.7698000000002L348.1875000000002 358.79685000000023L350.4019999999997 369.3312L355.985 366.9543999999999L360.26250000000005 367.41299999999995L373.2979999999998 361.1283499999999L374.3169999999998 356.9207000000003L378.45050000000015 357.55075000000005L383.61850000000004 361.4532L386.17549999999994 353.6803499999999L389.8784999999998 353.13560000000024L390.68449999999984 351.2534000000002L392.278 347.96594999999996L396.41099999999994 347.0075L394.9509999999998 338.5880499999999L395.8159999999998 332.03645000000023L398.8510000000002 328.90394999999984L397.85500000000013 327.2467500000002L411.6635000000002 314.8872000000003L413.59350000000006 314.0171000000001L419.0735000000001 317.0968000000002L424.21550000000025 313.2120499999999L425.8499999999998 309.20750000000027L419.7134999999997 308.6173499999998L406.69249999999977 294.63335L420.15049999999974 289.9722L423.8024999999999 292.1656500000003L440.5835000000002 293.7850499999999L447.2859999999997 282.83300000000025L448.8330000000002 282.90515L455.7049999999998 291.09065000000015L462.6189999999997 295.81035000000014L470.0135 292.40309999999994L473.62599999999986 297.61724999999984L475.7499999999999 297.4468500000003L480.197 293.03630000000027L488.17799999999977 295.87034999999986L494.58849999999984 295.87864999999994L495.23349999999994 289.3229499999998L504.74699999999984 284.2300500000002L505.28250000000014 295.1241999999999L512.9635000000002 315.42175000000015L510.1925 321.45565000000005L512.416 324.5754500000001L515.6169999999997 327.5579000000002L513.9710000000002 340.63034999999985L515.7999999999998 353.7994999999998L519.9475000000001 354.31430000000006L522.0164999999997 375.3373000000002L524.7210000000001 387.7140499999999L526.3375000000002 398.18119999999993L530.0779999999997 405.5039000000002L536.3850000000002 410.7459000000003L538.0829999999997 411.6617499999998L535.2249999999998 416.3526500000003L533.1164999999999 422.5052500000001L535.2814999999998 430.70040000000034L532.9584999999997 434.42125000000004L538.1184999999999 444.05760000000015L539.4830000000002 454.17204999999996L537.9915 458.05980000000005L534.2919999999998 459.9199999999999L525.8344999999997 464.8980000000003L517.9660000000001 465.96790000000027L513.7650000000002 465.04085000000003L507.6965000000001 463.07300000000026z">
      <title id="t169">Cinquième circonscription d'Ille-et-Vilaine</title>
      <desc id="d169">Cantons de : Argentré-du-Plessis, Châteaubourg, Châteaugiron, La Guerche-de-Bretagne, Janzé, Retiers, Vitré Est, Vitré Ouest</desc>
    </path><path class="circo" id="id-035-06" d="M338.9859999999999 142.8155000000001L336.5269999999998 130.66940000000017L328.2069999999999 116.56450000000007L327.1564999999998 116.85075000000012L326.3130000000001 110.55485000000004L320.64149999999984 104.27504999999996L323.16550000000007 96.27295000000004L325.78599999999994 92.96295000000015L322.92100000000005 85.2388000000002L316.85850000000016 84.08950000000004L318.18600000000004 73.42974999999996L315.3910000000002 67.88129999999995L311.4805000000001 65.8662000000001L306.64199999999994 62.26635000000016L304.50049999999976 54.79600000000005L276.23199999999997 62.33125000000001L263.3594999999997 65.09675000000016L255.58249999999987 68.84929999999997L256.07500000000016 75.30045000000001L251.03499999999997 78.91300000000001L252.13799999999992 87.28225000000009L255.52050000000008 95.17224999999996L263.95100000000014 95.96149999999994L266.3995 104.22365000000013L269.46950000000015 107.37975000000006L265.1864999999998 108.50705000000005L262.7744999999999 116.6903000000002L256.3065 117.79224999999997L260.2325000000002 122.5609L259.88 141.1731500000002L253.6930000000001 150.52719999999994L252.21299999999985 159.36200000000014L258.7389999999999 164.44305000000014L268.8454999999999 156.33980000000008L277.0179999999999 158.09290000000004L280.15199999999993 155.4532500000002L285.1004999999998 157.6461500000002L283.44749999999976 169.47270000000003L279.39250000000015 171.30520000000018L275.6310000000002 179.2222000000001L275.50099999999986 183.68085000000008L271.0050000000001 188.25729999999993L273.8625000000002 196.5479000000002L271.3330000000002 199.90505000000013L272.4180000000001 203.78735000000006L275.4660000000001 206.42754999999994L274.02150000000006 212.58655000000005L270.25149999999996 214.76985000000013L270.50599999999974 216.9517000000002L271.04150000000004 221.35400000000004L269.2845 225.39555000000007L270.967 226.8411500000002L287.92399999999986 230.92105000000032L287.9084999999998 231.1525500000002L282.2275000000002 234.3392000000003L267.4489999999997 234.15055000000024L262.7139999999997 243.8877499999998L263.49049999999977 245.9448999999998L258.1835000000001 248.57595000000032L258.9639999999997 252.36045000000018L251.1005 254.66694999999987L249.4074999999998 264.9334000000002L252.81949999999995 269.98650000000026L252.92100000000005 274.21175000000034L254.84849999999994 275.0637500000002L252.86200000000008 281.15170000000006L246.1959999999999 286.3957500000001L233.69100000000003 286.72650000000004L234.90250000000003 291.6371000000001L229.7014999999999 302.0009999999999L235.92099999999988 308.3672500000003L237.06950000000006 312.52500000000026L235.81099999999992 316.59165L239.49099999999987 321.4811499999999L238.44349999999991 327.6433499999999L240.6989999999999 331.24904999999984L237.73449999999997 334.2838000000003L239.5365000000001 339.3236500000003L246.28449999999987 336.4309L250.92600000000004 339.91709999999983L259.62800000000016 328.30205000000007L265.76700000000017 327.25949999999983L267.9944999999998 321.58575000000013L278.49199999999996 329.38090000000017L280.5649999999997 328.66675000000015L281.59400000000005 324.51425L292.8789999999998 328.68014999999986L295.9884999999997 318.76735000000025L294.2660000000001 312.6009000000002L295.0049999999999 304.20255000000026L293.1234999999998 303.20265000000035L295.7760000000002 297.9166000000001L299.4029999999998 295.98525000000024L302.9140000000001 297.88595000000015L309.05700000000024 297.6964000000001L309.6039999999999 294.9436L311.65250000000015 291.17744999999985L317.5565 288.4024000000002L323.168 281.8125999999998L329.6415000000002 281.6363500000003L342.6155 281.45819999999986L341.1545000000001 285.4432L337.0904999999999 286.71625000000034L335.1600000000002 290.4976000000002L343.4314999999998 300.1146000000003L343.2945000000001 302.25629999999995L343.58900000000006 304.4189000000003L349.82950000000017 305.9847499999998L354.4164999999998 310.46885000000003L367.17449999999985 308.58160000000026L368.3499999999998 306.7440500000001L371.84950000000015 311.4175000000003L377.568 312.8222500000001L380.06399999999985 304.4086999999999L390.5309999999997 301.9799500000002L393.8335000000001 296.4709500000001L406.69249999999977 294.63335L420.15049999999974 289.9722L423.8024999999999 292.1656500000003L440.5835000000002 293.7850499999999L447.2859999999997 282.83300000000025L448.8330000000002 282.90515L455.7049999999998 291.09065000000015L462.6189999999997 295.81035000000014L470.0135 292.40309999999994L473.62599999999986 297.61724999999984L475.7499999999999 297.4468500000003L480.197 293.03630000000027L488.17799999999977 295.87034999999986L494.58849999999984 295.87864999999994L495.23349999999994 289.3229499999998L504.74699999999984 284.2300500000002L507.4200000000002 281.3522000000003L508.60799999999983 272.3780000000002L511.8470000000002 266.4315000000002L521.311 256.94390000000027L522.0495 256.2441500000003L527.7409999999998 245.07935000000003L523.5124999999999 237.74039999999985L521.8374999999997 231.4032499999999L523.3370000000002 222.89569999999998L519.6625 221.04565000000008L523.1725 213.39985000000013L524.7820000000002 212.28515000000016L513.331 188.95084999999995L513.8749999999999 188.23620000000005L513.972 185.9871000000001L512.1199999999999 177.5093000000001L513.1254999999999 173.2439500000001L519.4524999999999 167.25435000000004L518.6754999999999 161.43474999999995L519.7429999999997 157.21665000000002L515.9445 152.10049999999995L514.3270000000001 141.71250000000015L515.3775000000002 135.27450000000016L518.5480000000001 132.40015L517.3984999999999 130.55260000000004L504.20849999999973 127.73560000000003L497.3755 122.11045000000013L491.05050000000006 122.0610000000002L485.29150000000016 124.67579999999998L478.3839999999998 120.44520000000006L476.36000000000024 116.7025000000001L467.16099999999983 117.59585000000015L463.63049999999987 115.81230000000005L459.2869999999999 108.9262500000001L458.707 110.91750000000019L448.40750000000014 111.85210000000012L441.3844999999998 107.98000000000002L441.182 107.96205000000015L431.22950000000003 114.36499999999995L432.66099999999994 120.37525000000016L428.6394999999999 130.1144500000001L424.97349999999983 129.88609999999994L419.726 136.07304999999997L411.7394999999999 137.7419500000002L410.4475000000002 136.13079999999997L407.60400000000004 138.81820000000005L406.7905000000002 145.00474999999994L404.0179999999998 142.0318500000002L402.1139999999997 142.9226L399.11249999999995 148.89489999999995L399.93899999999996 153.23904999999996L387.8645 162.1205500000002L384.45400000000006 163.6503000000002L377.47349999999983 160.90474999999998L365.41999999999973 160.1433L360.0630000000001 153.84360000000015L362.02200000000005 150.16305000000017L359.5485000000002 146.93479999999994L354.22649999999976 143.87294999999995L352.7420000000001 145.34395000000018L349.1070000000002 143.71264999999994L345.4789999999997 145.05735000000016L340.72249999999997 141.9420500000001L338.9859999999999 142.8155000000001z">
      <title id="t170">Sixième circonscription d'Ille-et-Vilaine</title>
      <desc id="d170">Cantons de : Antrain, Fougères Nord, Fougères Sud, Louvigné-du-Désert, Pleine-Fougères, Saint-Aubin-d'Aubigné, Saint-Aubin-du-Cormier, Saint-Brice-en-Coglès</desc>
    </path><path class="circo" id="id-035-07" d="M188.44949999999983 0L176.26199999999983 9.375L169.69949999999983 8.4375L167.98074999999983 9.84375L162.98074999999983 13.4375L159.23074999999983 13.125L157.35574999999983 10.15625L155.01199999999983 12.96875L151.10574999999983 11.25L149.54324999999983 5.9375L148.29324999999983 11.71875L140.94949999999983 12.1875L139.69949999999983 14.53125L148.29324999999983 17.1875L138.60574999999983 19.84375L137.66824999999983 15.625L132.82449999999983 18.4375L126.88699999999983 18.125L130.16824999999983 23.90625L125.16824999999983 32.8125L115.48074999999983 38.4375L110.48074999999983 38.75L109.85574999999983 41.5625L113.29324999999983 45.9375L109.07449999999983 47.1875L109.23074999999983 50L113.29324999999983 50.3125L116.57449999999983 55L114.85574999999983 59.0625L116.41824999999983 63.125L121.10574999999983 62.5L117.35574999999983 68.59375L117.19949999999983 72.96875L123.44949999999983 69.375L121.41824999999983 75.3125L123.13699999999983 77.96875L128.29324999999983 75.3125L133.60574999999983 78.59375L138.29324999999983 76.5625L138.76199999999983 79.375L136.41824999999983 80.9375L140.79324999999983 85.15625L141.26199999999983 87.03125L138.91824999999983 87.1875L129.85574999999983 80.625L127.04324999999983 81.71875L134.07449999999983 94.0625L131.57449999999983 99.53125L137.98074999999983 100.15625L138.76199999999983 104.375L135.16824999999983 112.8125L144.23074999999983 111.09375L150.48074999999983 103.28125L151.41824999999983 103.59375L154.23074999999983 107.03125L153.91824999999983 111.40625L156.73074999999983 114.84375L159.85574999999983 125.46875L159.85574999999983 129.84375L155.01199999999983 134.21875L155.01199999999983 136.40625L160.94949999999983 147.8125L160.48074999999983 150L166.73074999999983 148.90625L168.44949999999983 150.3125L170.01199999999983 146.40625L167.98074999999983 140.3125L169.85574999999983 139.375L177.98074999999983 141.71875L184.69949999999983 149.6875L185.48074999999983 151.25L190.63699999999983 151.40625L196.41824999999983 148.90625L197.98074999999983 145.15625L204.38699999999983 139.375L209.07449999999983 149.0625L212.82449999999983 150.78125L234.54324999999983 140.9375L236.73074999999983 140.9375L240.94949999999983 151.09375L245.32449999999983 155.78125L244.85574999999983 160.15625L248.13699999999983 162.65625L250.16824999999983 162.34375L252.19949999999983 159.375L253.76199999999983 150.46875L259.85574999999983 141.25L260.16824999999983 122.5L256.26199999999983 117.8125L262.82449999999983 116.71875L265.16824999999983 108.4375L269.54324999999983 107.34375L266.41824999999983 104.21875L263.91824999999983 95.9375L255.48074999999983 95.15625L252.19949999999983 87.34375L251.10574999999983 78.90625L256.10574999999983 75.3125L255.63699999999983 68.90625L263.29324999999983 65.15625L220.94949999999983 70.3125L220.63699999999983 69.6875L211.10574999999983 67.96875L198.13699999999983 65.46875L187.98074999999983 61.25L182.98074999999983 55.9375L177.19949999999983 43.75L179.85574999999983 35.15625L180.94949999999983 28.4375L191.73074999999983 20.46875L187.04324999999983 11.09375L188.44949999999983 0zM74.07449999999983 45.15625L69.54324999999983 49.0625L65.16824999999983 48.59375L59.23074999999983 50.9375L58.76199999999983 53.125L69.69949999999983 68.90625L68.60574999999983 73.4375L69.07449999999983 76.09375L82.04324999999983 90L87.98074999999983 92.34375L96.73074999999983 90.9375L102.04324999999983 94.84375L99.85574999999983 102.65625L102.51199999999983 107.65625L105.79324999999983 109.0625L107.82449999999983 103.28125L114.07449999999983 98.28125L119.23074999999983 93.59375L116.26199999999983 90.15625L124.38699999999983 86.25L123.91824999999983 81.5625L120.79324999999983 82.5L119.23074999999983 79.21875L116.41824999999983 79.84375L111.73074999999983 70.46875L113.91824999999983 68.59375L109.23074999999983 69.21875L107.66824999999983 64.6875L109.69949999999983 62.03125L108.29324999999983 58.59375L108.76199999999983 56.5625L106.88699999999983 55.3125L100.48074999999983 55L100.94949999999983 48.75L99.07449999999983 47.65625L90.48074999999983 46.40625L87.19949999999983 48.75L83.29324999999983 49.84375L74.07449999999983 45.15625z">
      <title id="t171">Septième circonscription d'Ille-et-Vilaine</title>
      <desc id="d171">Cantons de : Cancale, Châteauneuf-d'Ille-et-Vilaine, Dinard, Dol-de-Bretagne, Saint-Malo Nord, Saint-Malo Sud</desc>
    </path><path class="circo" id="id-035-08" d="M200.66000000000003 425.5995500000003L198.15449999999998 425.18505000000033L196.98450000000008 423.3311499999999L198.71199999999988 416.9771L196.74649999999986 413.06095L188.54500000000002 414.01809999999983L181.36949999999985 409.16275000000013L175.0475 409.92665000000017L160.5005 392.6661500000003L161.30799999999994 390.65320000000014L157.47150000000005 383.1457500000002L160.1185000000001 380.1511500000001L170.17499999999984 377.0392000000001L172.08300000000008 383.2915L182.66899999999993 381.9012000000001L190.20350000000008 379.72589999999997L191.4840000000001 376.24335L192.1414999999999 372.58080000000035L195.85499999999996 368.05874999999986L195.2095 366.2092500000003L180.96450000000004 370.0838999999999L175.49350000000004 373.6321000000001L171.199 373.2322000000002L168.20149999999984 370.30170000000027L171.2254999999999 356.04979999999983L173.0555000000001 354.98835000000014L173.00749999999994 346.6907999999998L176.12750000000005 343.9695000000003L180.44600000000003 343.1161L182.94449999999983 349.09705L192.76049999999998 344.76935L196.52199999999993 344.4525999999999L196.8105 348.3412999999999L197.84549999999996 352.25885000000034L203.4960000000001 358.44325L197.88399999999996 367.0729000000003L201.9829999999999 371.7765499999999L209.62649999999996 374.66170000000005L210.1955000000001 376.68199999999985L211.10799999999983 378.5258000000002L215.07900000000006 378.23295L218.58149999999995 376.06250000000017L224.78049999999996 375.8937499999999L230.88750000000005 370.9442500000003L232.85499999999985 371.59445000000034L238.51100000000002 378.3195500000002L237.5245000000001 382.68929999999983L235.9635 384.84395000000035L245.1599999999999 383.67350000000016L247.85349999999994 384.55725L250.75600000000009 381.4785500000002L249.83349999999973 375.61954999999983L242.87350000000004 375.5971500000001L248.3605 367.89180000000016L250.57950000000005 366.27015L253.77749999999992 370.32275L265.51499999999976 365.0609L267.5819999999999 365.21060000000006L265.04849999999976 373.1363999999999L262.8985 377.3346000000001L263.77250000000004 380.1529000000002L264.3579999999997 385.5064999999999L266.00250000000017 387.27195000000023L264.83450000000005 388.4722500000001L264.36699999999973 390.3492000000003L259.9295000000001 390.60115000000025L255.4264999999998 391.6629500000002L253.01949999999977 397.27960000000024L248.84349999999984 402.2549999999998L249.90099999999984 404.18199999999985L249.90149999999971 415.3517000000002L244.48350000000005 413.53730000000013L237.76250000000005 417.9538499999998L231.47549999999995 417.00255L227.48099999999994 412.1584500000003L223.50899999999996 413.3160000000001L220.2985000000001 419.1289500000002L220.74150000000003 425.6250000000003L217.817 428.9542000000003L217.2954999999999 435.3637499999999L209.44850000000002 432.1915500000003L206.60300000000007 426.3535500000003L200.66000000000003 425.5995500000003z">
      <title id="t172">Huitième circonscription d'Ille-et-Vilaine</title>
      <desc id="d172">Cantons de : Mordelles, Rennes Centre, Rennes Centre-Ouest, Rennes Nord, Rennes Sud-Ouest</desc>
    </path></svg>