<svg xmlns="http://www.w3.org/2000/svg" version="1.1" xmlns:xlink="http://www.w3.org/1999/xlink" xmlns:svgjs="http://svgjs.dev/svgjs" width="567.9510000000005" height="577.5074999999998" fill="#eeeeee" stroke="#cccccc" xmlns:sodipodi="http://sodipodi.sourceforge.net/DTD/sodipodi-0.dtd"><path class="circo" id="id-036-01" d="M108.90950000000032 469.5208500000001L100.58750000000032 462.6595499999996L94.6180000000004 460.09365L90.38400000000024 460.95924999999966L84.16899999999998 459.06304999999975L65.00100000000032 460.3636499999999L66.82700000000011 452.6037500000001L62.601999999999975 441.4414999999997L52.18500000000006 442.59135000000015L48.68350000000021 438.0369000000002L40.36250000000052 438.49069999999983L37.45550000000037 435.35289999999975L31.407500000000255 433.3328L28.994000000000142 428.48270000000014L29.87350000000049 424.9555499999997L20.568499999999972 423.59109999999987L15.943000000000325 410.5901499999999L11.301000000000272 403.79655000000014L11.92100000000039 401.8178999999998L17.06800000000044 392.5975999999997L20.472500000000196 390.14835000000005L16.945500000000493 380.3860499999996L18.602000000000203 374.44489999999973L14.787500000000477 373.43084999999974L21.54200000000003 365.4890999999998L25.358000000000516 363.55770000000007L24.37150000000031 359.45915000000014L18.24800000000039 348.80139999999983L18.57400000000041 342.8118999999998L15.028500000000236 340.74524999999994L13.114000000000487 337.40049999999997L5.2420000000000755 335.57230000000004L0 329.69764999999995L9.238500000000158 325.26925000000006L16.90150000000017 323.5446000000002L20.884000000000356 324.5954999999998L26.591000000000236 325.1432999999997L33.89700000000005 336.89075L39.76200000000006 334.7946000000002L47.65450000000044 324.8473999999999L48.916000000000395 320.80859999999973L61.295500000000516 323.74559999999974L60.37300000000016 316.95114999999987L56.308500000000095 309.32984999999974L58.16600000000051 303.2227499999999L50.09300000000053 296.53959999999984L60.122500000000514 288.5937999999999L60.662000000000376 275.6514499999997L65.95100000000002 269.22815000000014L63.5205000000002 263.74199999999973L67.18650000000025 248.06859999999972L67.0455000000004 248.0107499999997L70.70600000000013 230.8449999999999L72.23750000000052 209.24525000000017L75.41500000000042 207.3440499999998L80.99650000000054 204.50324999999964L82.6180000000005 200.85775000000012L81.79050000000018 190.59709999999995L78.29700000000003 185.44375000000002L80.28750000000002 175.37840000000017L86.16150000000005 172.84335L89.31450000000041 163.2853L103.19050000000004 154.93110000000001L105.44500000000028 157.92640000000006L124.74700000000041 148.6191500000001L133.2835 147.5726499999996L138.37150000000008 153.39155000000005L140.8140000000003 155.6943000000001L144.19100000000014 155.5215499999997L150.09900000000016 157.63334999999984L155.02350000000035 164.34379999999976L162.1505000000002 160.1758000000001L172.57900000000006 162.31470000000002L178.2420000000002 165.38540000000012L181.36850000000038 170.78424999999982L185.66650000000038 171.34824999999978L186.8135000000001 175.5435L196.54250000000047 187.24715000000003L198.50099999999998 193.4154000000001L203.3925000000005 197.68635000000017L203.8655 201.8714L210.9525000000002 206.4214499999997L212.11950000000002 208.25294999999983L210.68400000000054 212.35829999999964L217.93100000000038 213.6996499999998L219.6470000000005 210.41864999999973L223.31800000000044 209.0429499999999L224.33550000000025 202.72009999999966L220.16700000000014 193.17124999999976L236.73250000000053 196.21170000000006L241.42550000000028 192.1305000000001L247.71100000000047 191.30524999999977L253.18050000000028 185.60009999999977L254.7085000000004 179.90335000000016L263.4020000000004 180.2852999999999L267.5510000000003 194.95304999999973L276.97550000000035 203.84704999999997L281.61950000000047 207.4380500000001L286.33700000000033 215.67954999999984L286.9060000000002 219.26744999999983L290.07150000000024 220.95699999999965L289.93750000000034 221.57614999999964L299.78350000000034 232.00769999999977L307.2375000000005 236.01864999999975L314.4595000000004 244.70519999999965L317.6995000000005 247.39769999999965L321.7915000000005 246.8050999999997L327.5350000000003 249.05159999999967L333.9715000000001 253.70524999999986L340.0335000000001 253.12579999999969L343.4575000000001 254.63030000000003L348.55700000000013 258.63110000000006L355.1010000000002 253.09284999999988L357.24800000000016 253.3371999999997L360.87850000000003 258.70754999999974L363.33650000000034 269.25610000000006L366.90150000000017 266.85990000000004L373.0880000000002 255.58330000000012L378.17200000000014 251.6735L381.77700000000016 241.64429999999982L380.8290000000005 235.28034999999988L382.8445000000005 234.54259999999977L395.7600000000002 234.18059999999969L399.5320000000004 232.14580000000012L403.6710000000005 233.36070000000007L407.0985000000002 235.93655000000012L402.63800000000003 254.63835000000017L404.2670000000004 256.07500000000016L403.8235000000003 258.1636499999996L398.1890000000004 260.81774999999993L394.2610000000002 270.73249999999973L383.9345000000003 281.3430999999997L383.7390000000005 285.64689999999985L371.8575000000004 294.033L371.31550000000004 296.0770500000001L365.7390000000004 299.3644999999998L354.39750000000004 311.57839999999965L350.39000000000044 312.7848L346.93700000000035 310.8472999999998L345.97350000000006 317.22294999999974L341.96000000000026 322.35839999999996L342.0055000000002 326.7431499999998L336.943 330.6218000000001L328.1585000000001 330.76134999999965L317.59000000000015 333.57034999999996L316.43700000000024 329.42409999999995L314.2855000000003 329.29444999999987L303.3860000000004 336.00705000000005L296.5355000000005 327.84234999999967L292.6215000000002 326.0539499999999L282.59000000000015 324.1444999999999L281.29350000000045 329.9004500000001L275.4755 330.55110000000013L267.1625 331.42439999999965L264.73400000000026 343.65635L266.7150000000004 347.1244999999999L264.8470000000003 350.75035000000014L263.35650000000044 360.99909999999966L264.2760000000004 367.1978999999999L261.8315000000001 372.5840499999998L258.97050000000036 378.24554999999975L250.1610000000005 387.25739999999973L244.3470000000002 394.91049999999973L243.62400000000036 398.55410000000006L253.58600000000024 405.6544500000001L260.53950000000043 409.5542999999998L254.97450000000015 415.37969999999973L254.59550000000036 419.03099999999995L245.89800000000025 427.22289999999987L245.38250000000005 429.2384499999997L247.71450000000016 432.66745000000014L246.4745000000005 438.7676499999998L247.53250000000037 444.8989499999999L255.17950000000042 441.45879999999977L262.88350000000037 444.69434999999976L268.7465000000003 450.6996499999997L262.64400000000023 456.8330499999996L262.1780000000001 467.54729999999995L271.56650000000013 481.69015L273.3515 480.49409999999966L270.49000000000035 496.5886499999999L273.3575000000002 502.0533999999998L271.8395000000004 507.9170499999998L276.23400000000004 512.4509499999999L280.3555 519.0788499999996L279.6075000000002 528.5628500000001L273.3330000000001 533.1228999999996L272.5705000000005 537.0184499999999L268.8775000000004 541.6020499999996L267.5385 548.2993499999998L263.9670000000001 546.6971000000001L260.17150000000015 548.7072999999998L253.4015000000005 559.6202499999998L245.53600000000017 562.37685L242.03200000000038 567.7884L241.90150000000017 572.0949999999999L232.78800000000047 577.5074999999998L229.30800000000033 568.0101500000001L224.26800000000014 564.3128000000002L224.87450000000024 562.3091L222.9105000000004 562.8203500000001L219.6425000000005 560.4019499999998L216.39049999999997 555.2590499999997L210.41500000000042 547.6849499999997L207.73900000000026 545.1046500000001L202.81950000000052 544.0088500000002L189.20600000000036 548.8712499999997L193.1110000000001 553.2720499999999L188.5205000000002 556.6779500000001L188.29850000000022 560.7826499999999L176.61400000000015 562.1175499999998L175.14100000000042 559.4810000000001L166.9195000000002 558.1084499999997L162.85900000000026 559.3189999999998L157.55000000000052 565.8175499999999L148.9670000000001 564.5517999999998L146.99000000000012 560.7629500000002L146.83400000000006 552.3872499999999L143.22250000000054 552.8967999999998L138.30900000000042 558.9136500000001L134.7025000000002 559.1465L131.67300000000012 554.8825999999997L139.37450000000013 544.9813999999998L138.52900000000034 538.9774499999999L146.8825000000004 524.5985000000002L142.75300000000016 524.13725L139.3900000000002 526.73025L135.29300000000035 526.9516499999997L135.15950000000032 520.6509499999999L127.95200000000023 516.41795L120.46850000000006 513.9814000000001L113.92200000000003 501.2764499999997L120.17550000000028 501.6683499999999L121.33500000000026 500.0736999999998L114.18200000000013 487.34440000000006L114.48300000000017 485.29589999999985L119.71450000000004 481.9414499999999L108.90950000000032 469.5208500000001z">
      <title id="t173">Première circonscription de l'Indre</title>
      <desc id="d173">Cantons de : Bélâbre, Le Blanc, Buzançais, Châteauroux Centre, Châteauroux Est, Châteauroux Ouest, Châteauroux Sud, Châtillon-sur-Indre, Mézières-en-Brenne, Saint-Benoît-du-Sault, Saint-Gaultier, Tournon-Saint-Martin</desc>
    </path><path class="circo" id="id-036-02" d="M419.1795000000002 524.3617L414.42950000000053 528.4685000000002L404.18000000000006 525.6221499999998L403.4895 521.2836999999996L397.2030000000001 515.2355L395.59000000000026 511.1381499999999L374.06150000000025 514.15165L376.21550000000013 516.93915L378.61200000000053 520.3838999999999L377.3260000000005 522.054L379.22450000000026 528.0492499999997L374.56200000000024 537.4012999999997L375.3195000000005 541.5465499999999L367.2455000000002 548.0479500000001L365.668 551.7969499999998L357.8240000000005 549.0443999999997L346.8665000000004 533.7887499999999L337.5295 542.2793999999999L334.79900000000043 548.0035499999997L328.79800000000046 553.8727999999998L322.95450000000017 551.5104500000001L317.46050000000025 542.9148499999997L320.36 533.0322999999999L315.18250000000023 530.7135L311.6625000000005 532.9028499999998L307.95050000000003 540.1474000000002L301.77350000000047 539.4644499999998L300.4355000000004 541.0596499999997L292.2810000000004 547.5308999999999L288.4630000000004 547.50135L287.3950000000002 534.8257000000001L283.6080000000004 529.9649999999997L279.6075000000002 528.5628500000001L280.3555 519.0788499999996L276.23400000000004 512.4509499999999L271.8395000000004 507.9170499999998L273.3575000000002 502.0533999999998L270.49000000000035 496.5886499999999L273.3515 480.49409999999966L271.56650000000013 481.69015L262.1780000000001 467.54729999999995L262.64400000000023 456.8330499999996L268.7465000000003 450.6996499999997L262.88350000000037 444.69434999999976L255.17950000000042 441.45879999999977L247.53250000000037 444.8989499999999L246.4745000000005 438.7676499999998L247.71450000000016 432.66745000000014L245.38250000000005 429.2384499999997L245.89800000000025 427.22289999999987L254.59550000000036 419.03099999999995L254.97450000000015 415.37969999999973L260.53950000000043 409.5542999999998L253.58600000000024 405.6544500000001L243.62400000000036 398.55410000000006L244.3470000000002 394.91049999999973L250.1610000000005 387.25739999999973L258.97050000000036 378.24554999999975L261.8315000000001 372.5840499999998L264.2760000000004 367.1978999999999L263.35650000000044 360.99909999999966L264.8470000000003 350.75035000000014L266.7150000000004 347.1244999999999L264.73400000000026 343.65635L267.1625 331.42439999999965L275.4755 330.55110000000013L281.29350000000045 329.9004500000001L282.59000000000015 324.1444999999999L292.6215000000002 326.0539499999999L296.5355000000005 327.84234999999967L303.3860000000004 336.00705000000005L314.2855000000003 329.29444999999987L316.43700000000024 329.42409999999995L317.59000000000015 333.57034999999996L328.1585000000001 330.76134999999965L336.943 330.6218000000001L342.0055000000002 326.7431499999998L341.96000000000026 322.35839999999996L345.97350000000006 317.22294999999974L346.93700000000035 310.8472999999998L350.39000000000044 312.7848L354.39750000000004 311.57839999999965L365.7390000000004 299.3644999999998L371.31550000000004 296.0770500000001L371.8575000000004 294.033L383.7390000000005 285.64689999999985L383.9345000000003 281.3430999999997L394.2610000000002 270.73249999999973L398.1890000000004 260.81774999999993L403.8235000000003 258.1636499999996L404.2670000000004 256.07500000000016L402.63800000000003 254.63835000000017L407.0985000000002 235.93655000000012L403.6710000000005 233.36070000000007L399.5320000000004 232.14580000000012L395.7600000000002 234.18059999999969L382.8445000000005 234.54259999999977L380.8290000000005 235.28034999999988L381.77700000000016 241.64429999999982L378.17200000000014 251.6735L373.0880000000002 255.58330000000012L366.90150000000017 266.85990000000004L363.33650000000034 269.25610000000006L360.87850000000003 258.70754999999974L357.24800000000016 253.3371999999997L355.1010000000002 253.09284999999988L348.55700000000013 258.63110000000006L343.4575000000001 254.63030000000003L340.0335000000001 253.12579999999969L333.9715000000001 253.70524999999986L327.5350000000003 249.05159999999967L321.7915000000005 246.8050999999997L317.6995000000005 247.39769999999965L314.4595000000004 244.70519999999965L307.2375000000005 236.01864999999975L299.78350000000034 232.00769999999977L289.93750000000034 221.57614999999964L290.07150000000024 220.95699999999965L286.9060000000002 219.26744999999983L286.33700000000033 215.67954999999984L281.61950000000047 207.4380500000001L276.97550000000035 203.84704999999997L267.5510000000003 194.95304999999973L263.4020000000004 180.2852999999999L254.7085000000004 179.90335000000016L253.18050000000028 185.60009999999977L247.71100000000047 191.30524999999977L241.42550000000028 192.1305000000001L236.73250000000053 196.21170000000006L220.16700000000014 193.17124999999976L224.33550000000025 202.72009999999966L223.31800000000044 209.0429499999999L219.6470000000005 210.41864999999973L217.93100000000038 213.6996499999998L210.68400000000054 212.35829999999964L212.11950000000002 208.25294999999983L210.9525000000002 206.4214499999997L203.8655 201.8714L203.3925000000005 197.68635000000017L198.50099999999998 193.4154000000001L196.54250000000047 187.24715000000003L186.8135000000001 175.5435L185.66650000000038 171.34824999999978L181.36850000000038 170.78424999999982L178.2420000000002 165.38540000000012L172.57900000000006 162.31470000000002L162.1505000000002 160.1758000000001L173.67150000000038 147.71984999999972L172.15800000000002 141.73155000000008L179.21950000000038 133.96524999999997L181.18250000000046 128.10114999999996L187.5535000000002 128.6883499999999L189.00950000000023 127.08955000000003L190.7475000000005 120.84724999999992L188.6235000000005 114.7654L191.26850000000047 108.94034999999974L195.15250000000037 107.87949999999967L200.60550000000035 110.49069999999972L207.4905000000001 105.48855000000003L211.22950000000003 97.5932499999999L210.92550000000017 88.86889999999994L205.462 77.2287L202.33000000000004 64.82604999999978L195.16400000000033 56.90355000000011L199.46000000000026 51.90150000000017L205.865 52.10474999999974L223.29000000000008 42.84979999999962L230.40850000000034 37.39255000000014L235.34550000000024 30.040599999999813L248.91650000000027 23.88705000000016L257.3630000000003 23.936499999999796L261.58050000000003 24.0861000000001L268.7020000000001 28.052749999999946L270.32250000000033 26.685749999999757L279.33100000000024 32.241750000000025L280.75950000000034 36.24369999999999L283.4730000000002 33.52779999999996L282.7385000000004 29.35464999999965L280.31300000000044 23.391899999999737L281.36750000000006 17.239000000000146L279.01350000000036 13.652399999999716L295.64300000000003 9.83744999999999L308.3100000000002 12.173950000000104L308.41700000000003 1.7057499999998527L314.58500000000015 1.0712000000000899L316.472 0L319.74350000000015 2.825149999999894L323.9070000000004 1.6975999999999658L332.35550000000046 3.5423500000001695L333.06600000000003 9.581299999999828L339.2580000000004 11.431850000000168L354.02150000000006 8.179700000000025L360.5590000000001 0.1992000000001326L375.1045000000005 18.680249999999887L386.1835000000002 28.65115000000003L392.47000000000014 28.289350000000013L394.56050000000005 24.621950000000083L402.5500000000005 29.522349999999733L412.94550000000015 36.208049999999616L412.2505000000001 49.30945000000008L414.28800000000024 62.30944999999963L406.3575000000003 64.56594999999993L402.2515000000004 69.1928999999999L401.0310000000004 71.25454999999988L399.60200000000043 77.70305000000008L385.4780000000005 91.57465000000002L388.2600000000002 92.70665000000008L394.56150000000036 97.78439999999989L400.36400000000015 97.03235000000006L408.42750000000024 97.47959999999978L416.1740000000003 103.92740000000003L431.64150000000006 110.46260000000018L433.6945000000003 107.80769999999961L435.74900000000014 108.43084999999974L441.5515000000005 105.71899999999971L447.4490000000003 108.26289999999972L454.649 103.95924999999977L458.9455000000004 100.37014999999997L465.67300000000046 95.68069999999977L470.6600000000003 97.6457499999998L479.9195000000003 93.92164999999977L481.4410000000004 102.09009999999978L485.4135000000002 103.74379999999974L483.236 109.77579999999989L484.13250000000005 113.77219999999966L492.4830000000003 112.98245000000009L492.6830000000001 108.70749999999987L494.59900000000005 107.72279999999967L501.0130000000004 106.99784999999963L504.11850000000015 109.83884999999987L501.93400000000054 113.23775000000012L504.9920000000003 125.31219999999962L503.99400000000014 129.42029999999988L500.27600000000007 131.41455000000008L497.70200000000045 137.09220000000016L493.82600000000025 144.77229999999963L494.6900000000005 146.75504999999987L500.9665000000001 146.84169999999995L504.0695000000005 149.33074999999974L508.80250000000046 155.7423L512.6855 157.08345000000008L516.6320000000002 161.54479999999978L522.518 165.42215L527.604 174.90974999999992L521.6405000000003 179.7183000000001L521.5415000000002 185.26745000000005L518.3340000000004 190.2794L519.9465000000004 193.91174999999976L517.2820000000002 198.92740000000003L515.9215 200.16594999999995L511.1760000000004 201.55014999999992L511.3810000000001 214.24984999999992L528.2260000000002 227.22849999999994L542.3880000000003 224.64509999999962L547.201 228.15675L540.8705000000003 241.73445000000015L534.9770000000001 247.94174999999996L530.5915000000005 248.03004999999985L525.9280000000001 252.71239999999977L519.7040000000004 254.96659999999963L518.7240000000003 256.63509999999974L520.6140000000005 264.7451000000001L514.4120000000004 273.95969999999977L512.2895 274.1753L508.84300000000053 276.0789L501.00250000000017 275.60239999999965L501.73900000000003 277.48414999999966L511.7560000000003 291.4473499999997L525.6275000000005 301.5677499999998L530.1325000000003 308.80539999999996L529.7935000000001 312.8493499999996L521.4190000000002 324.8901999999998L511.13950000000045 327.2332L509.2840000000001 333.24784999999963L512.8890000000001 338.2425999999998L519.6010000000001 342.0560499999999L520.5015000000003 343.9328499999999L518.356 351.87295000000006L524.1985000000005 354.3287499999997L528.1240000000003 352.68249999999966L532.2525000000002 353.65189999999984L536.0625000000005 355.6074000000001L541.3325000000003 362.3574500000001L547.4060000000003 364.45119999999974L539.6810000000005 376.74604999999985L540.7215000000002 380.9062499999999L545.8110000000005 384.7996999999998L552.2090000000003 392.21934999999974L556.1170000000004 391.28015000000005L557.8335000000004 394.9588L561.8560000000002 395.42989999999975L558.3820000000003 405.548L560.9655000000004 411.5782999999999L559.8020000000002 419.9192999999997L558.1565 421.32349999999974L553.5310000000004 424.46879999999965L552.3775 428.31819999999993L555.1530000000002 442.62040000000013L548.7885 447.88129999999967L558.4585000000004 466.6417000000001L559.0115000000003 475.0962499999997L560.2815000000004 478.9200999999997L564.0890000000002 479.44804999999974L565.3285000000005 486.88009999999963L567.9510000000005 489.7939500000001L566.4110000000005 495.274L566.4135000000005 495.55174999999963L563.4485000000001 501.42830000000004L545.6865000000005 509.41629999999975L547.3285000000004 523.6679499999997L552.6500000000004 530.1524000000001L544.753 530.2591000000001L541.0970000000003 531.98665L530.6285000000003 531.7196999999999L525.3020000000004 538.3585999999997L519.0050000000002 538.7863999999996L519.0585000000004 538.6193500000002L515.3265000000005 537.4857500000002L512.1320000000003 532.5988999999998L508.3100000000002 531.8337500000001L501.94950000000006 532.1876499999996L493.8405 529.8323999999997L490.72 527.2001499999999L478.3985000000001 525.9341999999998L477.4185 523.2751000000002L472.3085000000003 519.3921499999999L449.9385000000001 525.3218499999997L447.1415000000002 520.3561500000001L443.74900000000025 518.4256499999998L438.76600000000053 521.2164999999999L433.6530000000005 519.8165L432.01900000000023 524.8654999999997L419.1795000000002 524.3617z">
      <title id="t174">Deuxième circonscription de l'Indre</title>
      <desc id="d174">Cantons de : Aigurande, Ardentes, Argenton-sur-Creuse, La Châtre, Ecueillé, Eguzon-Chantôme, Issoudun Nord, Issoudun Sud, Levroux, Neuvy-Saint-Sépulchre, Saint-Christophe-en-Bazelle, Sainte-Sévère-sur-Indre, Valençay, Vatan</desc>
    </path></svg>