<svg xmlns="http://www.w3.org/2000/svg" version="1.1" xmlns:xlink="http://www.w3.org/1999/xlink" xmlns:svgjs="http://svgjs.dev/svgjs" width="557.0739999999995" height="607.9869000000002" fill="#eeeeee" stroke="#cccccc" xmlns:sodipodi="http://sodipodi.sourceforge.net/DTD/sodipodi-0.dtd"><path class="circo" id="id-037-01" d="M256.2534999999997 215.04920000000027L257.8404999999998 209.64969999999994L260.1804999999996 206.64649999999995L259.5814999999999 197.21135000000004L265.9979999999996 192.28305000000034L265.13999999999953 187.7517499999999L267.054 188.03564999999992L276.5625 175.07839999999987L279.0904999999998 169.70169999999996L279.8644999999999 171.50694999999985L287.1339999999998 174.39715000000035L286.24049999999954 178.42854999999986L288.3239999999995 184.23445000000015L286.1114999999995 189.8579000000001L287.21799999999973 193.83530000000007L277.17799999999954 196.37695000000008L277.029 199.30225000000007L280.67349999999976 207.84530000000018L283.5974999999996 206.91140000000019L288.1574999999998 205.48870000000022L290.53399999999954 208.67689999999982L282.06549999999993 210.8427499999999L276.63599999999974 225.3085500000003L274.33749999999975 222.95729999999992L270.4329999999999 218.30325000000016L256.2534999999997 215.04920000000027z">
      <title id="t175">Première circonscription de l'Indre-et-Loire</title>
      <desc id="d175">Cantons de : Tours Centre, Tours Est, Tours Nord-Est, Tours Ouest, Tours Sud, Tours-Val-du-Cher</desc>
    </path><path class="circo" id="id-037-02" d="M421.3119999999998 111.32225000000005L422.38249999999994 107.99149999999997L434.7089999999997 92.226L434.8984999999999 85.57990000000018L429.1994999999997 89.55410000000029L427.63149999999996 83.0359500000003L416.3469999999995 63.801650000000336L412.36399999999946 62.715499999999906L407.5014999999996 66.46490000000028L403.75399999999956 78.0729500000001L400.9039999999999 78.32125000000019L396.92549999999983 73.78730000000019L395.75849999999946 65.49170000000004L398.68199999999945 55.59685000000002L390.6054999999998 54.50915000000009L387.4109999999996 49.57840000000033L381.6244999999998 51.73265000000015L375.5414999999999 50.301749999999856L368.00299999999993 47.56970000000024L361.404 58.15294999999992L357.66899999999964 60.07465000000025L359.31149999999946 65.87744999999984L344.48999999999955 68.33065000000033L342.74599999999964 67.03849999999989L341.6794999999996 60.65969999999993L339.5874999999995 60.09164999999996L338.74499999999955 53.67110000000025L342.3909999999995 51.39715000000024L343.6454999999995 47.30860000000007L336.1704999999995 39.776600000000144L342.39349999999945 26.141900000000078L343.52449999999976 19.757000000000176L343.1219999999996 16.19860000000017L345.8194999999995 13.663850000000366L344.92099999999994 11.863850000000298L335.99199999999996 16.574850000000083L331.69149999999945 19.694499999999948L322.1759999999995 16.359600000000114L318.27 18.139750000000276L311.71699999999987 17.237700000000018L289.8199999999997 7.945900000000279L282.9204999999996 11.442700000000059L279.83299999999986 16.614600000000337L275.24099999999976 23.761900000000082L280.0924999999995 27.547950000000014L283.125 32.90914999999984L287.31199999999944 33.54894999999999L290.90799999999945 40.65470000000005L287.6959999999997 43.37154999999996L285.856 51.68220000000019L291.01849999999956 57.807450000000244L290.46249999999986 61.911099999999806L287.0509999999996 68.07725000000005L287.32699999999966 72.3655500000001L280.08399999999995 93.47055000000012L278.5575 97.57540000000006L272.96699999999987 101.11815000000036L269.82699999999966 109.35195000000022L268.5594999999995 114.89874999999984L278.9504999999997 121.14059999999995L278.8794999999999 127.2793999999999L282.5704999999999 129.12720000000036L283.03549999999973 131.15295000000003L278.8364999999999 131.65435000000002L278.1949999999995 133.67869999999982L259.0944999999999 142.2665999999998L259.0124999999995 142.35405000000014L261.8025 152.93960000000027L268.9114999999998 161.35154999999997L270.94899999999996 169.87135000000023L271.71699999999987 171.6313500000001L279.0904999999998 169.70169999999996L279.8644999999999 171.50694999999985L287.1339999999998 174.39715000000035L286.24049999999954 178.42854999999986L288.3239999999995 184.23445000000015L286.1114999999995 189.8579000000001L287.21799999999973 193.83530000000007L300.04699999999957 190.4086000000001L298.65549999999985 196.39704999999992L302.3989999999998 212.38969999999995L301.17899999999963 213.09129999999982L299.3399999999997 219.38244999999995L301.7869999999999 232.4139500000001L302.8724999999997 237.55634999999984L307.64449999999954 241.50984999999991L313.5744999999997 239.56985000000032L317.3159999999996 239.69085000000007L319.34549999999945 243.45100000000002L325.1974999999999 245.82335L329.0824999999995 250.8026000000001L336.93149999999946 250.9593000000001L336.0579999999999 255.05345000000034L337.54449999999963 256.53065000000026L349.81349999999964 258.74855000000025L355.04099999999994 262.1518500000002L349.7074999999995 270.7365500000003L348.95099999999957 276.7029500000001L343.60749999999996 278.73725000000036L345.9364999999997 288.5993500000001L341.5699999999998 293.0031500000001L338.24449999999956 300.5296500000003L345.865 312.63019999999983L348.9164999999997 309.54994999999997L354.42949999999996 312.7941500000003L356.352 311.78994999999986L357.9164999999995 307.87675000000036L356.6489999999999 303.74030000000005L360.67949999999996 296.17504999999994L359.48549999999955 292.04655L364.01999999999987 287.74220000000014L377.80399999999986 292.0928500000002L380.582 295.1885500000003L384.2779999999999 293.37874999999997L386.9799999999998 290.69799999999987L395.9934999999996 287.3145499999998L401.54349999999965 289.59735000000023L405.72149999999965 288.9838000000003L406.88999999999965 290.7643999999999L410.93699999999956 286.04975000000024L416.1595 292.6287500000001L425.53799999999967 297.3506000000003L430.0899999999996 301.72505L433.22749999999985 303.00054999999986L447.68899999999974 291.22389999999996L448.1774999999999 287.19179999999994L449.9154999999996 286.06224999999995L449.62199999999996 288.1385499999999L453.4544999999997 289.74950000000035L454.1514999999998 295.92280000000017L463.2574999999997 307.05764999999985L473.75899999999945 309.32470000000023L480.0214999999997 307.8217000000001L488.00549999999987 305.1984500000003L491.6399999999999 292.9806000000002L502.054 282.16229999999996L505.08849999999995 271.97630000000004L505.5709999999999 270.3920499999998L505.7204999999999 267.0096000000001L503.8069999999999 263.92075000000034L497.09149999999966 260.42110000000037L493.84299999999996 261.5384L493.67099999999994 263.64689999999996L485.99699999999984 266.53594999999996L479.7074999999995 266.21770000000026L476.17849999999976 263.9132000000001L471.0504999999995 274.18690000000026L457.9389999999995 260.19364999999993L448.1269999999995 257.77030000000025L442.48549999999966 238.88260000000002L447.35599999999977 237.28610000000003L451.3839999999999 225.35685L454.19899999999984 222.23960000000034L447.59749999999997 214.65700000000027L447.82149999999945 211.06364999999983L453.9594999999997 204.30395000000033L453.3359999999999 197.98735000000022L450.36299999999983 195.00004999999987L449.14499999999975 188.62324999999998L438.3054999999996 175.39545000000032L450.9454999999997 175.67315000000008L458.8534999999996 163.29115000000002L455.34749999999974 161.26360000000034L450.1479999999998 152.6258999999999L439.19449999999983 155.19965000000013L438.72499999999945 153.53560000000016L442.01499999999953 149.75329999999985L436.84549999999945 138.60565000000008L431.4359999999999 129.3071500000002L431.4259999999996 118.93865000000005L421.3119999999998 111.32225000000005z">
      <title id="t176">Deuxième circonscription de l'Indre-et-Loire</title>
      <desc id="d176">Cantons de : Amboise, Bléré, Château-Renault, Montlouis-sur-Loire, Vouvray</desc>
    </path><path class="circo" id="id-037-03" d="M305.00899999999945 537.0096000000001L302.8699999999998 533.9693L305.1804999999996 530.6061499999998L304.5564999999999 528.6587000000003L297.3734999999999 531.0238500000003L293.1654999999995 524.1846500000003L289.79799999999955 522.1865000000003L287.1924999999999 516.97475L276.65299999999945 504.7206L276.25699999999995 500.69195000000036L278.45849999999984 495.48865000000035L276.0159999999996 490.44820000000016L277.294 484.04825000000017L272.9609999999997 469.56650000000025L272.61799999999994 467.77615000000026L272.6599999999996 463.44965L270.49099999999953 459.8439000000002L257.8664999999995 457.3497500000002L255.92299999999966 453.48540000000014L252.05649999999991 451.57460000000015L248.2299999999998 453.44615000000033L242.36049999999977 448.19000000000017L241.46949999999947 444.61940000000027L242.21949999999993 442.7498000000003L240.02549999999985 439.5712500000002L228.1529999999998 440.06174999999985L220.37249999999972 428.5150500000003L224.36549999999954 427.6334000000003L228.93149999999991 423.50625000000036L235.0834999999995 423.6328000000003L234.32999999999993 419.6566999999999L237.43849999999952 414.8374000000001L234.99099999999999 409.46725000000015L238.22949999999992 402.23180000000013L233.99049999999988 397.87555L237.29499999999973 392.80534999999986L243.06399999999996 390.4441000000003L252.7339999999998 382.19685000000027L256.26499999999965 384.44255L265.9809999999999 376.2587500000001L268.9014999999995 370.8686L276.5639999999996 366.87490000000025L280.591 362.6052500000003L279.0799999999996 357.1010000000001L278.34799999999973 343.44960000000015L268.03499999999985 345.25480000000016L267.31949999999983 343.24895000000026L270.4359999999997 337.70714999999996L266.1394999999999 333.4131000000002L261.25399999999956 330.70245L257.5659999999999 331.11580000000004L256.7384999999996 333.1342000000001L251.55249999999967 330.16340000000014L237.2969999999998 328.88585000000035L236.52699999999982 322.5216499999999L239.31899999999985 314.3407000000002L247.56899999999973 314.8356000000001L249.11249999999995 308.57320000000016L252.81949999999995 303.24340000000007L251.62349999999947 294.7665999999998L248.09999999999945 288.76025000000027L245.25349999999946 291.3209499999999L241.75749999999994 289.0921000000003L236.83249999999987 291.5025000000003L226.47399999999948 284.8988000000003L225.9899999999999 288.76025000000027L221.21199999999988 291.8900500000001L219.46649999999977 283.5694000000001L207.06049999999948 276.4299L206.16599999999949 272.25445000000036L209.2964999999998 270.54865000000007L218.58299999999986 261.92565L223.3484999999996 252.92245000000037L236.48649999999975 253.39065000000005L238.60099999999989 253.7103000000002L259.49749999999995 256.43665L264.7274999999996 252.86665000000028L271.13 248.55725000000007L264.33599999999956 233.5779500000001L274.33749999999975 222.95729999999992L276.63599999999974 225.3085500000003L282.06549999999993 210.8427499999999L290.53399999999954 208.67689999999982L288.1574999999998 205.48870000000022L280.67349999999976 207.84530000000018L277.029 199.30225000000007L277.17799999999954 196.37695000000008L287.21799999999973 193.83530000000007L300.04699999999957 190.4086000000001L298.65549999999985 196.39704999999992L302.3989999999998 212.38969999999995L301.17899999999963 213.09129999999982L299.3399999999997 219.38244999999995L301.7869999999999 232.4139500000001L302.8724999999997 237.55634999999984L307.64449999999954 241.50984999999991L313.5744999999997 239.56985000000032L317.3159999999996 239.69085000000007L319.34549999999945 243.45100000000002L325.1974999999999 245.82335L329.0824999999995 250.8026000000001L336.93149999999946 250.9593000000001L336.0579999999999 255.05345000000034L337.54449999999963 256.53065000000026L349.81349999999964 258.74855000000025L355.04099999999994 262.1518500000002L349.7074999999995 270.7365500000003L348.95099999999957 276.7029500000001L343.60749999999996 278.73725000000036L345.9364999999997 288.5993500000001L341.5699999999998 293.0031500000001L338.24449999999956 300.5296500000003L345.865 312.63019999999983L348.9164999999997 309.54994999999997L354.42949999999996 312.7941500000003L356.352 311.78994999999986L357.9164999999995 307.87675000000036L356.6489999999999 303.74030000000005L360.67949999999996 296.17504999999994L359.48549999999955 292.04655L364.01999999999987 287.74220000000014L377.80399999999986 292.0928500000002L380.582 295.1885500000003L384.2779999999999 293.37874999999997L386.9799999999998 290.69799999999987L395.9934999999996 287.3145499999998L401.54349999999965 289.59735000000023L405.72149999999965 288.9838000000003L406.88999999999965 290.7643999999999L410.93699999999956 286.04975000000024L416.1595 292.6287500000001L425.53799999999967 297.3506000000003L430.0899999999996 301.72505L433.22749999999985 303.00054999999986L447.68899999999974 291.22389999999996L448.1774999999999 287.19179999999994L449.9154999999996 286.06224999999995L449.62199999999996 288.1385499999999L453.4544999999997 289.74950000000035L454.1514999999998 295.92280000000017L463.2574999999997 307.05764999999985L473.75899999999945 309.32470000000023L480.0214999999997 307.8217000000001L488.00549999999987 305.1984500000003L491.6399999999999 292.9806000000002L502.054 282.16229999999996L505.08849999999995 271.97630000000004L514.7895 283.55999999999995L519.0789999999998 284.3283500000001L524.5659999999998 293.73620000000017L527.4489999999997 296.86424999999986L530.8544999999998 306.8617499999999L539.0374999999995 323.21529999999996L541.0084999999998 327.9997000000003L548.1744999999995 335.9222L551.3064999999995 348.3248500000002L556.7699999999996 359.96505000000013L557.0739999999995 368.6894000000001L553.3349999999996 376.5847000000002L546.4499999999998 381.5868499999999L540.9969999999998 378.97564999999986L537.1129999999999 380.03649999999993L534.468 385.8615500000002L536.592 391.9434000000001L534.8539999999997 398.1857000000002L533.3979999999997 399.7845000000001L527.0269999999999 399.19730000000015L525.0639999999999 405.06140000000016L518.0024999999995 412.8277000000003L519.5159999999998 418.8159999999999L507.99499999999966 431.2719500000003L500.8679999999998 435.43994999999995L495.94349999999963 428.72950000000003L490.0354999999996 426.6176999999999L486.6584999999998 426.7904500000003L484.21599999999955 424.48770000000025L479.1279999999995 418.6687999999998L470.5914999999999 419.7153000000003L451.28949999999975 429.02255000000025L449.0349999999995 426.0272500000002L435.1589999999999 434.3814500000002L432.0059999999995 443.9395000000002L426.1319999999995 446.47455000000036L424.1414999999995 456.5399000000002L427.63499999999965 461.69325000000015L428.4625 471.9539000000003L426.841 475.59939999999983L421.2594999999999 478.4402L418.082 480.34140000000036L416.5504999999996 501.9411500000001L412.8899999999999 519.1068999999999L413.0309999999997 519.1647499999999L409.36499999999967 534.8381499999999L411.7954999999995 540.3243000000003L406.50649999999985 546.7475999999999L405.967 559.6899500000001L395.9375 567.63575L404.0105 574.3189000000001L402.15299999999957 580.4259999999999L406.21749999999963 588.0473000000001L407.14 594.8417499999999L394.76049999999987 591.9047499999999L393.4989999999999 595.9435500000001L385.6064999999995 605.8907500000004L379.7414999999995 607.9869000000002L372.4354999999997 596.2394499999999L366.7284999999998 595.69165L362.74599999999964 594.6407500000004L355.08299999999963 596.3654000000002L345.84449999999947 600.7938000000001L342.5604999999996 596.1389500000001L342.12999999999965 594.0104500000001L336.2269999999995 591.6125499999998L329.6629999999999 583.0177000000003L328.26149999999984 576.8396999999999L322.8449999999998 573.8254000000001L323.7979999999999 565.5556999999999L321.48799999999994 559.8477000000003L321.3584999999995 558.7882000000002L320.56799999999953 550.5639000000002L314.90249999999946 548.2324499999999L311.5949999999998 543.0533000000003L311.95599999999956 540.9947499999998L315.7409999999999 539.2486500000001L313.2674999999995 536.20045L305.00899999999945 537.0096000000001z">
      <title id="t177">Troisième circonscription de l'Indre-et-Loire</title>
      <desc id="d177">Cantons de : Chambray-lès-Tours, Descartes, Le Grand-Pressigny, Ligueil, Loches, Montbazon, Montrésor, Preuilly-sur-Claise, Saint-Avertin, Saint-Pierre-des-Corps</desc>
    </path><path class="circo" id="id-037-04" d="M110.8869999999996 273.28300000000013L102.33099999999979 278.8681500000001L96.35149999999953 280.30984999999987L93.15549999999973 280.59540000000027L89.20149999999978 282.0357999999999L89.39099999999996 286.22569999999996L86.1669999999998 288.92679999999984L70.78999999999951 295.02139999999997L58.4254999999996 299.23280000000034L45.561499999999455 296.64390000000026L42.3784999999998 296.2796000000003L33.85049999999978 297.3675000000003L9.26400000000001 310.5123000000003L8.132999999999697 310.3170499999999L2.558999999999969 314.87059999999985L0.028499999999667125 320.09975L0.2869999999995798 322.2145499999999L5.462999999999738 325.7627000000002L4.15649999999971 334.1489999999999L0 341.51369999999986L4.757499999999482 353.08190000000025L6.465499999999906 354.3522999999999L10.47649999999976 352.9363000000001L11.770499999999515 361.0902500000003L10.340999999999667 367.0523000000003L12.194499999999948 370.76490000000035L15.494999999999663 368.22910000000036L21.666999999999916 368.89054999999985L24.650499999999624 363.64284999999995L28.86449999999968 364.4225L33.30449999999985 368.52014999999994L36.951499999999555 366.5195L34.17249999999967 372.3431499999998L34.51349999999991 376.65155000000027L45.976499999999874 381.8103500000001L47.56299999999953 377.7262000000002L54.37950000000001 372.28819999999985L56.56399999999962 380.5753500000003L62.35599999999977 387.07330000000013L52.327999999999975 398.28370000000007L51.83249999999987 406.3902999999999L53.804999999999836 407.1795500000002L59.78399999999965 404.97095L65.6469999999996 411.06235000000027L75.66849999999988 404.8012L77.10349999999949 401.1255L80.80849999999998 400.01165000000015L89.17149999999992 401.5354500000001L89.45699999999988 415.3058500000003L90.9254999999996 416.79464999999993L96.9074999999998 414.99149999999986L103.99449999999945 410.60074999999983L108.03699999999992 414.8168500000003L107.19249999999988 420.7898499999999L108.88599999999997 426.7823500000003L104.91199999999992 431.1023499999999L108.13799999999958 444.3002999999999L109.2229999999995 445.93050000000005L104.95399999999961 450.0618000000003L101.02349999999944 450.3203500000001L107.4634999999995 457.3846500000002L103.90099999999961 462.1584999999999L107.3845 466.7243000000002L105.52549999999997 472.0890000000003L109.15549999999996 481.80800000000033L113.59749999999963 486.21555L115.43799999999976 487.2629999999998L120.92749999999967 484.1104999999999L125.0954999999999 483.8857999999999L132.13199999999972 476.2917500000003L141.9879999999995 479.31674999999984L149.44349999999986 484.0327000000002L155.97849999999994 483.87395000000026L163.61649999999997 488.11005000000023L166.20649999999955 480.90480000000014L185.96149999999966 472.08650000000034L191.87149999999974 469.22900000000027L195.14899999999955 471.75025000000005L206.58349999999984 469.04030000000034L212.70099999999957 470.1231999999999L218.69849999999985 471.8666999999999L231.404 471.3978500000002L232.88999999999987 469.8660000000001L231.65849999999978 459.8788000000002L220.98199999999963 454.60620000000006L221.30949999999984 448.68660000000034L218.11999999999955 442.6719000000003L218.45699999999965 440.33725000000004L222.28899999999953 441.38120000000015L228.1529999999998 440.06174999999985L220.37249999999972 428.5150500000003L224.36549999999954 427.6334000000003L228.93149999999991 423.50625000000036L235.0834999999995 423.6328000000003L234.32999999999993 419.6566999999999L237.43849999999952 414.8374000000001L234.99099999999999 409.46725000000015L238.22949999999992 402.23180000000013L233.99049999999988 397.87555L237.29499999999973 392.80534999999986L243.06399999999996 390.4441000000003L252.7339999999998 382.19685000000027L256.26499999999965 384.44255L265.9809999999999 376.2587500000001L268.9014999999995 370.8686L276.5639999999996 366.87490000000025L280.591 362.6052500000003L279.0799999999996 357.1010000000001L278.34799999999973 343.44960000000015L268.03499999999985 345.25480000000016L267.31949999999983 343.24895000000026L270.4359999999997 337.70714999999996L266.1394999999999 333.4131000000002L261.25399999999956 330.70245L257.5659999999999 331.11580000000004L256.7384999999996 333.1342000000001L251.55249999999967 330.16340000000014L237.2969999999998 328.88585000000035L236.52699999999982 322.5216499999999L239.31899999999985 314.3407000000002L247.56899999999973 314.8356000000001L249.11249999999995 308.57320000000016L252.81949999999995 303.24340000000007L251.62349999999947 294.7665999999998L248.09999999999945 288.76025000000027L245.25349999999946 291.3209499999999L241.75749999999994 289.0921000000003L236.83249999999987 291.5025000000003L226.47399999999948 284.8988000000003L225.9899999999999 288.76025000000027L221.21199999999988 291.8900500000001L219.46649999999977 283.5694000000001L207.06049999999948 276.4299L206.16599999999949 272.25445000000036L209.2964999999998 270.54865000000007L218.58299999999986 261.92565L223.3484999999996 252.92245000000037L236.48649999999975 253.39065000000005L238.60099999999989 253.7103000000002L259.49749999999995 256.43665L264.7274999999996 252.86665000000028L271.13 248.55725000000007L264.33599999999956 233.5779500000001L274.33749999999975 222.95729999999992L270.4329999999999 218.30325000000016L256.2534999999997 215.04920000000027L257.8404999999998 209.64969999999994L260.1804999999996 206.64649999999995L259.5814999999999 197.21135000000004L252.27649999999983 199.1199499999999L233.92749999999978 204.6598499999999L222.24099999999964 208.42084999999997L216.53999999999996 210.12855000000002L198.73899999999992 215.7036499999998L187.2724999999997 219.95465000000024L181.0639999999995 228.96180000000015L165.1864999999998 242.37445000000037L165.13699999999972 241.52930000000026L149.18649999999957 244.77890000000002L143.7455 247.58430000000033L133.67699999999957 255.4514499999999L126.32399999999961 258.04665L120.26649999999961 262.98085000000015L110.8869999999996 273.28300000000013z">
      <title id="t178">Quatrième circonscription de l'Indre-et-Loire</title>
      <desc id="d178">Cantons de : Azay-le-Rideau, Ballan-Miré, Chinon, L'Ile-Bouchard, Joué-lès-Tours Nord, Joué-lès-Tours Sud, Richelieu, Sainte-Maure-de-Touraine</desc>
    </path><path class="circo" id="id-037-05" d="M36.83349999999962 218.01339999999982L39.762999999999806 228.322L34.74649999999997 234.60080000000005L27.08249999999964 236.49595000000033L25.443499999999517 244.98325000000023L12.17299999999966 264.9971499999998L14.797499999999673 267.8122000000002L14.342499999999632 272.1066000000002L11.207499999999868 274.5082000000002L9.616499999999633 286.8837500000001L6.526499999999942 292.2669000000002L8.541999999999916 298.4172000000001L7.952499999999532 306.9475L9.818499999999517 307.2672499999999L8.132999999999697 310.3170499999999L9.26400000000001 310.5123000000003L33.85049999999978 297.3675000000003L42.3784999999998 296.2796000000003L45.561499999999455 296.64390000000026L58.4254999999996 299.23280000000034L70.78999999999951 295.02139999999997L86.1669999999998 288.92679999999984L89.39099999999996 286.22569999999996L89.20149999999978 282.0357999999999L93.15549999999973 280.59540000000027L96.35149999999953 280.30984999999987L102.33099999999979 278.8681500000001L110.8869999999996 273.28300000000013L120.26649999999961 262.98085000000015L126.32399999999961 258.04665L133.67699999999957 255.4514499999999L143.7455 247.58430000000033L149.18649999999957 244.77890000000002L165.13699999999972 241.52930000000026L165.1864999999998 242.37445000000037L181.0639999999995 228.96180000000015L187.2724999999997 219.95465000000024L198.73899999999992 215.7036499999998L216.53999999999996 210.12855000000002L222.24099999999964 208.42084999999997L233.92749999999978 204.6598499999999L252.27649999999983 199.1199499999999L259.5814999999999 197.21135000000004L265.9979999999996 192.28305000000034L265.13999999999953 187.7517499999999L267.054 188.03564999999992L273.6564999999996 179.0358500000002L276.5625 175.07839999999987L279.0904999999998 169.70169999999996L271.71699999999987 171.6313500000001L270.94899999999996 169.87135000000023L268.9114999999998 161.35154999999997L261.8025 152.93960000000027L259.0124999999995 142.35405000000014L259.0944999999999 142.2665999999998L278.1949999999995 133.67869999999982L278.8364999999999 131.65435000000002L283.03549999999973 131.15295000000003L282.5704999999999 129.12720000000036L278.8794999999999 127.2793999999999L278.9504999999997 121.14059999999995L268.5594999999995 114.89874999999984L269.82699999999966 109.35195000000022L272.96699999999987 101.11815000000036L278.5575 97.57540000000006L280.08399999999995 93.47055000000012L287.32699999999966 72.3655500000001L287.0509999999996 68.07725000000005L290.46249999999986 61.911099999999806L291.01849999999956 57.807450000000244L285.856 51.68220000000019L287.6959999999997 43.37154999999996L290.90799999999945 40.65470000000005L287.31199999999944 33.54894999999999L283.125 32.90914999999984L280.0924999999995 27.547950000000014L275.24099999999976 23.761900000000082L279.83299999999986 16.614600000000337L271.98649999999986 13.000299999999925L263.94649999999956 5.754699999999957L255.22699999999986 15.115900000000124L251.19899999999973 14.008550000000355L254.25149999999974 6.093799999999874L248.64449999999977 0L244.39899999999966 0.05940000000009604L238.29999999999984 8.785100000000057L240.10599999999954 10.015750000000025L238.8934999999998 14.185350000000199L229.3365 22.906700000000342L225.4034999999999 24.74330000000009L214.65299999999957 23.568750000000023L214.9974999999995 26.48520000000019L208.89599999999973 32.17025000000035L200.59849999999983 34.208300000000236L196.78099999999972 32.76589999999999L188.9934999999997 39.99549999999999L180.52599999999984 40.36200000000008L179.23149999999964 38.65994999999998L173.1654999999995 40.59920000000034L170.1849999999996 46.358749999999986L169.015 54.693900000000326L160.65499999999986 56.675050000000056L156.59899999999993 55.887500000000045L145.57049999999947 42.460700000000315L139.84899999999982 41.04264999999998L132.10099999999954 54.308599999999956L135.78799999999944 59.812350000000265L139.69049999999982 61.93125000000009L145.0754999999998 71.63575000000037L148.25999999999965 81.76269999999988L144.20799999999986 82.57729999999981L138.01999999999964 88.05364999999995L121.28449999999987 80.98960000000034L120.17899999999997 77.05469999999991L114.05799999999999 71.22360000000015L94.21299999999974 68.78825000000006L87.28649999999959 60.4674L76.06399999999951 61.35440000000017L74.91349999999954 62.92795000000012L76.46149999999977 73.55160000000012L75.15749999999969 77.67285000000015L76.85399999999959 81.69905000000028L70.20999999999958 84.86109999999996L68.14999999999998 87.88990000000013L62.198999999999955 104.02330000000006L59.237999999999715 107.25369999999998L64.55799999999954 110.46050000000037L65.21149999999977 114.40589999999986L72.72049999999979 114.02699999999982L70.7084999999995 129.9626999999998L62.44199999999978 140.94089999999994L61.67349999999999 146.02649999999983L59.93349999999964 147.26650000000006L58.061499999999455 155.62459999999987L54.03349999999989 160.60360000000003L55.85049999999967 177.57544999999993L54.0625 183.61455000000035L42.55399999999952 194.83929999999987L48.66749999999968 196.45669999999996L48.87299999999982 202.8225500000002L54.57249999999988 205.3773000000001L42.55199999999945 217.20709999999997L36.83349999999962 218.01339999999982z">
      <title id="t179">Cinquième circonscription de l'Indre-et-Loire</title>
      <desc id="d179">Cantons de : Bourgueil, Château-la-Vallière, Langeais, Luynes, Neuillé-Pont-Pierre, Neuvy-le-Roi, Saint-Cyr-sur-Loire, Tours Nord-Ouest</desc>
    </path></svg>