<svg xmlns="http://www.w3.org/2000/svg" version="1.1" xmlns:xlink="http://www.w3.org/1999/xlink" xmlns:svgjs="http://svgjs.dev/svgjs" width="686.5655000000004" height="716.4158999999995" fill="#eeeeee" stroke="#cccccc" xmlns:sodipodi="http://sodipodi.sourceforge.net/DTD/sodipodi-0.dtd"><path class="circo" id="id-038-01" d="M423.56449999999995 396.16539999999986L417.84149999999954 411.60030000000006L415.23199999999974 414.5528999999999L412.6419999999996 413.2761499999998L414.0440000000001 423.96619999999984L412.8920000000005 429.7681L420.25499999999965 433.09109999999976L423.74599999999987 432.0035999999999L424.86350000000016 434.99885000000006L428.7199999999996 430.7180999999997L426.5345000000002 422.85685L427.47150000000033 420.9934499999997L429.9154999999996 416.2652499999996L433.4590000000003 416.8399999999997L434.9649999999997 416.36055L438.37999999999965 414.264L441.93250000000035 419.06244999999956L447.60650000000055 420.9427999999997L449.36649999999986 420.02734999999973L448.0325000000005 412.4152499999997L451.4229999999998 410.59049999999957L457.0780000000002 412.5696499999998L457.89549999999963 412.43634999999983L464.73600000000033 404.2843499999998L466.82500000000005 402.3861499999998L467.9965000000004 398.8839999999999L464.7535000000005 396.68439999999975L464.89450000000033 394.7157999999996L466.42900000000054 393.4821999999997L471.3964999999996 396.56004999999993L472.817 395.19799999999975L472.41899999999987 389.8541499999999L473.37350000000015 391.64015000000006L481.12100000000055 393.66805L482.9965000000004 392.92089999999973L484.1825000000006 389.0598L487.3230000000001 379.65544999999963L479.10600000000045 370.6006499999995L472.2519999999997 366.2097499999999L470.71500000000015 362.48580000000004L469.0065000000004 365.5042499999996L465.5875000000003 365.69635000000005L463.3590000000004 355.6656499999997L459.7630000000004 357.74704999999983L457.14000000000055 363.6184499999996L455.55200000000013 365.86365L453.7760000000003 362.7249999999998L444.02900000000045 361.4636999999999L437.74850000000015 366.22725L432.68749999999955 374.1733499999998L431.3670000000002 381.71609999999987L433.30349999999953 387.2772999999995L425.6465000000003 387.5259999999997L425.548 393.34154999999953L423.56449999999995 396.16539999999986z">
      <title id="t180">Première circonscription de l'Isère</title>
      <desc id="d180">Cantons de Grenoble I, Grenoble II, Grenoble IV, Meylan, Saint-Ismier)</desc>
    </path><path class="circo" id="id-038-02" d="M407.9575 472.76239999999973L413.00250000000005 464.38499999999976L411.4675 461.0548L412.68550000000005 453.5963499999997L407.8110000000004 449.9595999999997L401.8700000000001 448.70810000000006L406.52450000000044 438.17729999999983L417.5890000000004 438.91684999999995L419.8569999999995 441.57479999999964L424.86350000000016 434.99885000000006L428.7199999999996 430.7180999999997L426.5345000000002 422.85685L427.47150000000033 420.9934499999997L429.9154999999996 416.2652499999996L433.4590000000003 416.8399999999997L434.9649999999997 416.36055L438.37999999999965 414.264L441.93250000000035 419.06244999999956L447.60650000000055 420.9427999999997L449.36649999999986 420.02734999999973L448.0325000000005 412.4152499999997L451.4229999999998 410.59049999999957L451.1469999999997 416.2380999999999L454.88950000000045 423.3916999999997L456.59400000000005 426.93539999999985L460.14850000000024 427.78009999999995L462.06249999999955 431.02674999999977L455.3620000000001 436.1525999999998L451.1545000000001 435.74689999999975L449.7784999999999 438.07664999999986L454.80950000000007 446.06994999999984L456.7795000000001 453.0564999999996L460.37900000000036 452.0894999999996L477.23600000000033 462.9141999999996L480.99500000000035 461.4119999999997L479.96099999999956 469.4871999999998L482.0775000000003 475.0871999999998L480.34599999999955 476.16854999999987L483.3100000000002 477.91515000000004L481.51200000000017 481.5814499999999L476.1390000000006 484.56354999999974L471.9894999999997 496.20659999999987L466.6750000000002 502.6276999999999L473.79850000000033 507.7801499999998L471.2760000000003 510.92359999999985L465.46100000000024 512.5343499999997L462.124 524.1384499999998L458.9945 526.6744L451.6769999999997 517.1548999999999L446.8074999999999 523.3850999999999L438.74149999999986 524.4643499999995L435.6280000000004 527.3663999999997L433.54349999999954 537.9179999999997L425.38850000000025 536.99905L420.5309999999997 525.5982499999999L418.8054999999997 528.9937499999996L413.70250000000055 532.3588999999998L410.7495000000006 536.6486499999996L403.53050000000053 535.0252499999999L401.2295000000006 530.6252499999999L400.69600000000037 528.6901499999999L405.61699999999973 520.3276L404.905 514.1323499999999L407.8015000000005 497.77229999999975L412.3625000000004 491.26665L417.63000000000034 480.6194499999998L417.23749999999995 480.4105499999997L407.9575 472.76239999999973z">
      <title id="t181">Deuxième circonscription de l'Isère</title>
      <desc id="d181">Cantons de : Echirolles Est, Echirolles Ouest, Eybens, Saint-Martin-d'Hères Nord, Saint-Martin-d'Hères Sud, Vizille (moins la partie de la commune de Chamrousse)</desc>
    </path><path class="circo" id="id-038-03" d="M359.66049999999996 391.47779999999955L357.54249999999956 387.9714999999999L354.4915000000003 388.4477499999997L352.3260000000005 385.02139999999997L352.7170000000001 377.01144999999997L363.1269999999995 364.93164999999976L362.3210000000006 361.5470499999998L365.7534999999996 354.3236999999999L370.8310000000006 357.48064999999997L373.11900000000037 371.4443499999999L380.3800000000001 381.05500000000006L381.07349999999997 381.38284999999996L387.6495 389.6374499999996L389.6670000000006 393.9577499999996L397.3485000000005 406.38509999999997L398.62600000000043 406.24934999999994L412.6419999999996 413.2761499999998L414.0440000000001 423.96619999999984L412.8920000000005 429.7681L420.25499999999965 433.09109999999976L423.74599999999987 432.0035999999999L424.86350000000016 434.99885000000006L419.8569999999995 441.57479999999964L417.5890000000004 438.91684999999995L406.52450000000044 438.17729999999983L407.2524999999996 421.5916999999996L405.9465 419.0235999999999L399.1650000000004 419.05280000000005L401.13849999999957 423.4594999999996L393.27350000000024 424.7436499999998L386.2450000000001 420.5508499999996L385.9884999999997 420.13469999999984L385.8884999999998 415.3502499999996L380.10149999999953 416.90515000000005L378.4360000000004 415.6922499999996L377.8189999999995 411.6117499999996L373.3720000000005 407.52354999999966L374.6600000000001 401.5057999999999L373.048 402.7403499999997L367.60650000000055 400.00999999999976L363.2960000000003 393.17439999999976L359.66049999999996 391.47779999999955z">
      <title id="t182">Troisième circonscription de l'Isère</title>
      <desc id="d182">Cantons de : Fontaine-Sassenage, Grenoble III, Grenoble V, Grenoble VI</desc>
    </path><path class="circo" id="id-038-04" d="M514.7680000000003 443.6148499999996L516.8500000000006 440.3206L528.8700000000006 433.45924999999966L530.4089999999997 432.13784999999973L529.4714999999997 422.12175L535.0220000000002 409.9854499999998L545.969 404.51779999999985L551.3599999999997 390.96839999999986L557.0339999999999 392.1344499999998L560.652 396.83284999999955L566.5264999999999 395.86545L572.8414999999995 401.4038499999998L574.9395000000004 401.2578499999995L579.7215000000006 390.2821L587.5999999999999 387.6189499999998L588.9179999999999 395.9764999999999L593.6204999999995 400.2749L593.5434999999995 406.45389999999963L601.7600000000004 412.9146499999996L602.9949999999997 421.32334999999955L595.29 441.7291L602.6769999999999 443.81190000000004L606.0185000000001 441.9912499999998L611.1014999999998 435.52089999999964L622.4974999999995 440.4755L628.5564999999997 448.9454999999998L638.2475 445.29259999999965L642.2339999999997 445.8752999999996L646.6369999999995 450.4078499999997L644.9215000000004 458.4260499999999L631.617 470.49649999999986L637.5765000000001 492.6850999999999L627.7144999999996 495.44119999999964L623.2444999999996 509.32185000000004L622.8715 517.7177999999998L620.4229999999995 520.96675L620.5140000000006 527.2713999999996L625.2890000000002 531.3394L643.0544999999995 537.0260999999999L661.1950000000002 532.5229999999999L669.4159999999999 532.4297999999999L671.3210000000004 536.1828499999996L668.5680000000002 541.8399L668.4780000000001 546.06L673.6725000000001 554.9743999999998L671.8275000000006 562.9394499999995L674.4650000000001 566.1360999999999L686.4049999999997 569.8524499999996L684.7035000000005 580.2217999999999L686.3085000000001 590.4313999999999L684.9125000000004 596.54695L686.5655000000004 602.4130499999995L683.7805000000003 605.5862500000001L683.1314999999995 609.7253999999998L685.2115000000003 621.9023999999996L677.1175000000005 625.77225L669.9384999999995 621.71355L663.5315000000003 611.1282L659.3705 610.4132999999996L647.6959999999997 613.3470999999997L639.9485000000004 623.2597499999997L631.5470000000005 623.5942999999997L617.6424999999995 619.4124499999998L614.3595000000005 622.0504999999997L606.2850000000003 623.3610499999998L601.2895000000003 619.8267499999997L589.6199999999999 617.29105L582.2680000000003 627.4741L575.5404999999996 631.8473499999999L558.1915000000004 645.28255L547.0174999999995 631.9300499999997L541.0654999999997 633.6130499999996L535.6295 642.5617999999997L525.3300000000002 643.61695L512.7224999999999 652.0425499999999L517.6025000000004 656.8936499999995L524.7350000000006 660.1522999999997L525.7934999999998 666.0243499999996L514.2724999999996 671.93375L513.4040000000005 678.9333499999998L507.69499999999994 676.6546L499.9950000000001 683.0217999999996L492.61300000000006 679.9071999999995L488.76049999999964 681.3561999999996L485.49499999999966 686.3150999999999L469.56999999999994 683.7777L466.61100000000033 680.8774L460.6899999999996 678.89025L461.65399999999977 689.2173499999996L457.19100000000026 696.2690499999997L453.9859999999999 706.2147499999998L449.8000000000002 710.54755L438.4005000000002 715.4980999999998L430.18249999999966 716.4158999999995L422.1275000000003 707.0257499999997L414.2954999999995 705.4073L408.39950000000044 697.07785L404.9244999999996 701.34545L393.07500000000005 699.8421999999999L389.95300000000043 701.8215499999997L384.19200000000046 700.1885499999997L382.8639999999996 695.7144499999998L379.3304999999998 694.5771499999995L376.52600000000007 687.8051499999998L375.3570000000002 682.7207499999997L373.6845000000005 682.2766999999999L367.4445000000003 681.1849999999998L358.2839999999999 676.2349499999999L356.5425000000005 668.0074500000001L342.2429999999997 658.8838499999997L341.15850000000023 661.9937999999996L344.5690000000002 669.7742999999997L342.42899999999963 672.3091499999998L314.03350000000046 662.7884499999999L312.3249999999996 659.6593999999999L306.4229999999998 658.4166999999997L304.7670000000005 654.78835L311.0680000000002 649.98965L315.19700000000057 640.93435L306.28400000000056 639.1912499999995L311.0119999999995 614.0685499999995L309.1139999999996 607.9530999999997L313.3789999999999 595.9019499999999L314.68650000000025 580.9961499999997L312.18349999999987 554.7263499999997L316.72500000000014 540.96495L318.7220000000002 537.5092999999998L313.35699999999974 526.8890499999998L314.70550000000003 521.0551499999997L311.6489999999999 518.6618999999996L312.20699999999965 514.6489499999996L306.8934999999999 508.57114999999965L307.44100000000003 502.26429999999993L311.3765000000001 492.47929999999997L315.11349999999993 490.8242999999999L319.2049999999995 491.6476L325.1559999999995 492.60144999999966L318.7869999999998 474.88909999999976L319.2465000000004 449.98729999999966L325.07299999999987 436.48049999999955L325.13799999999947 436.1296999999996L333.71650000000045 417.13734999999986L337.20800000000054 400.60855000000004L340.7725000000005 393.04704999999956L351.1855000000003 390.94965L354.4915000000003 388.4477499999997L357.54249999999956 387.9714999999999L359.66049999999996 391.47779999999955L363.2960000000003 393.17439999999976L367.60650000000055 400.00999999999976L373.048 402.7403499999997L374.6600000000001 401.5057999999999L373.3720000000005 407.52354999999966L377.8189999999995 411.6117499999996L378.4360000000004 415.6922499999996L380.10149999999953 416.90515000000005L385.8884999999998 415.3502499999996L385.9884999999997 420.13469999999984L386.2450000000001 420.5508499999996L393.27350000000024 424.7436499999998L401.13849999999957 423.4594999999996L399.1650000000004 419.05280000000005L405.9465 419.0235999999999L407.2524999999996 421.5916999999996L406.99100000000044 430.83924999999965L406.52450000000044 438.17729999999983L401.8700000000001 448.70810000000006L407.8110000000004 449.9595999999997L412.68550000000005 453.5963499999997L411.4675 461.0548L413.00250000000005 464.38499999999976L407.9575 472.76239999999973L417.23749999999995 480.4105499999997L417.63000000000034 480.6194499999998L412.3625000000004 491.26665L407.8015000000005 497.77229999999975L404.905 514.1323499999999L405.61699999999973 520.3276L400.69600000000037 528.6901499999999L401.2295000000006 530.6252499999999L403.53050000000053 535.0252499999999L410.7495000000006 536.6486499999996L413.70250000000055 532.3588999999998L418.8054999999997 528.9937499999996L420.5309999999997 525.5982499999999L425.38850000000025 536.99905L433.54349999999954 537.9179999999997L435.6280000000004 527.3663999999997L438.74149999999986 524.4643499999995L446.8074999999999 523.3850999999999L451.6769999999997 517.1548999999999L458.9945 526.6744L462.124 524.1384499999998L465.46100000000024 512.5343499999997L471.2760000000003 510.92359999999985L473.79850000000033 507.7801499999998L466.6750000000002 502.6276999999999L471.9894999999997 496.20659999999987L476.1390000000006 484.56354999999974L481.51200000000017 481.5814499999999L483.3100000000002 477.91515000000004L485.41799999999967 477.6345999999995L493.2450000000006 467.65224999999987L504.53949999999963 457.92845L504.6564999999998 455.79949999999997L509.52099999999973 449.5046499999995L515.2085 447.60599999999954L514.7680000000003 443.6148499999996z">
      <title id="t183">Quatrième circonscription de l'Isère</title>
      <desc id="d183">Cantons de : Le Bourg-d'Oisans, Clelles, Corps, Fontaine-Seyssinet, Mens, Monestier-de-Clermont, La Mure, Valbonnais, Vif, Villard-de-Lans</desc>
    </path><path class="circo" id="id-038-05" d="M606.4335000000005 317.96584999999993L610.6529999999998 317.4655999999999L615.0445000000002 312.8465L608.7495000000001 297.0559499999996L596.2400000000002 285.44129999999996L589.4899999999996 272.2764999999998L585.738 270.3044L577.7674999999999 273.09474999999964L574.3449999999996 274.07894999999996L574.2510000000004 267.85844999999995L572.4355000000003 266.83715000000007L566.5959999999995 267.29569999999967L560.7164999999998 266.8316999999996L557.3045000000002 268.8173499999999L555.1035000000002 270.5932999999999L537.4879999999996 260.71649999999977L539.0065000000004 257.85904999999957L538.0145000000005 249.88104999999962L530.0115000000005 247.30394999999987L525.4359999999997 240.29714999999953L521.8584999999996 238.11825L498.40299999999957 247.08394999999996L498.2090000000005 247.1808999999996L502.40350000000035 254.17904999999962L500.4269999999997 266.5917999999999L497.25850000000037 271.9700499999999L493.5699999999997 273.9238999999998L493.7525000000005 275.3222999999997L492.72699999999986 283.7036499999999L494.37900000000013 287.43619999999964L501.6655000000003 285.65504999999973L496.30499999999984 297.02504999999974L489.3145000000004 300.7427999999999L487.8525000000002 299.99664999999993L487.6850000000002 293.5713999999996L482.8710000000001 289.32559999999967L474.4995000000006 287.4876499999999L472.2550000000001 283.8495999999998L464.1650000000004 281.2380999999999L463.8924999999995 281.25564999999995L454.0039999999999 278.11834999999974L447.62950000000046 270.4364499999997L441.7214999999999 268.59564999999975L433.6144999999999 269.7392499999995L432.47150000000033 271.46795L431.1794999999995 272.33889999999974L423.66949999999974 270.72900000000004L420.3525000000002 261.55865000000006L422.20050000000015 249.9604499999998L415.0654999999995 242.96875L412.6089999999999 234.42759999999964L405.99000000000046 242.35584999999958L400.73350000000005 242.45949999999993L394.5079999999996 245.6067999999999L392.7539999999999 238.21704999999952L384.1100000000006 234.42944999999952L381.10199999999963 229.9136999999996L376.3824999999997 228.87059999999963L374.9750000000006 221.5506499999998L366.6719999999998 213.66064999999992L363.48449999999957 213.0138999999997L362.9864999999995 214.5718999999997L351.9410000000005 213.1322L347.95349999999985 220.5176499999999L352.1670000000006 230.1574499999998L350.57950000000005 230.41699999999992L345.17600000000016 233.01054999999963L333.63849999999957 246.28749999999968L331.5134999999998 259.6882999999997L332.53150000000005 261.3805499999995L336.27899999999954 260.20209999999963L336.4239999999995 260.0972999999999L355.0879999999995 259.0114999999997L354.9585000000002 259.4713999999999L352.8890000000001 268.2454999999999L361.7160000000001 281.5656999999999L367.7105000000006 280.50359999999955L372.14050000000043 284.3272999999999L376.49549999999977 280.22869999999955L380.04050000000007 281.8690499999997L396.60949999999957 276.1925499999995L398.9945 293.76269999999977L396.78350000000023 297.1061499999996L392.2440000000006 306.1773999999997L392.3090000000002 316.1977999999999L391.4485000000002 320.13059999999996L396.62199999999984 325.9944999999999L400.63300000000027 325.41214999999966L413.0449999999996 332.27215L410.01750000000015 346.6606999999999L410.9125000000006 348.5752499999995L406.1869999999999 354.1182999999995L405.3430000000003 353.57204999999965L398.3979999999997 363.1816999999995L393.62499999999955 366.7147L392.37600000000043 372.56519999999966L388.3815000000004 378.95809999999983L381.07349999999997 381.38284999999996L387.6495 389.6374499999996L389.6670000000006 393.9577499999996L397.3485000000005 406.38509999999997L398.62600000000043 406.24934999999994L415.23199999999974 414.5528999999999L417.84149999999954 411.60030000000006L423.56449999999995 396.16539999999986L425.548 393.34154999999953L425.6465000000003 387.5259999999997L433.30349999999953 387.2772999999995L431.3670000000002 381.71609999999987L432.68749999999955 374.1733499999998L437.74850000000015 366.22725L444.02900000000045 361.4636999999999L453.7760000000003 362.7249999999998L455.55200000000013 365.86365L457.14000000000055 363.6184499999996L459.7630000000004 357.74704999999983L463.3590000000004 355.6656499999997L465.5875000000003 365.69635000000005L469.0065000000004 365.5042499999996L470.71500000000015 362.48580000000004L472.2519999999997 366.2097499999999L479.10600000000045 370.6006499999995L487.3230000000001 379.65544999999963L484.1825000000006 389.0598L482.9965000000004 392.92089999999973L481.12100000000055 393.66805L473.37350000000015 391.64015000000006L472.41899999999987 389.8541499999999L472.817 395.19799999999975L471.3964999999996 396.56004999999993L466.42900000000054 393.4821999999997L464.89450000000033 394.7157999999996L464.7535000000005 396.68439999999975L467.9965000000004 398.8839999999999L466.82500000000005 402.3861499999998L464.73600000000033 404.2843499999998L457.89549999999963 412.43634999999983L457.0780000000002 412.5696499999998L451.4229999999998 410.59049999999957L451.1469999999997 416.2380999999999L454.88950000000045 423.3916999999997L456.59400000000005 426.93539999999985L460.14850000000024 427.78009999999995L462.06249999999955 431.02674999999977L455.3620000000001 436.1525999999998L451.1545000000001 435.74689999999975L449.7784999999999 438.07664999999986L454.80950000000007 446.06994999999984L456.7795000000001 453.0564999999996L460.37900000000036 452.0894999999996L477.23600000000033 462.9141999999996L480.99500000000035 461.4119999999997L479.96099999999956 469.4871999999998L482.0775000000003 475.0871999999998L480.34599999999955 476.16854999999987L483.3100000000002 477.91515000000004L485.41799999999967 477.6345999999995L493.2450000000006 467.65224999999987L504.53949999999963 457.92845L504.6564999999998 455.79949999999997L509.52099999999973 449.5046499999995L515.2085 447.60599999999954L514.7680000000003 443.6148499999996L516.8500000000006 440.3206L528.8700000000006 433.45924999999966L530.4089999999997 432.13784999999973L529.4714999999997 422.12175L535.0220000000002 409.9854499999998L545.969 404.51779999999985L551.3599999999997 390.96839999999986L557.0339999999999 392.1344499999998L560.652 396.83284999999955L566.5264999999999 395.86545L572.8414999999995 401.4038499999998L574.9395000000004 401.2578499999995L579.7215000000006 390.2821L587.5999999999999 387.6189499999998L593.4394999999995 379.1253499999999L589.7754999999995 363.3054999999996L594.7019999999998 356.74054999999953L594.2075 354.69529999999963L599.1489999999999 351.76715L601.2360000000001 346.51989999999955L612.5715000000002 343.10929999999985L613.9980000000003 333.9770999999996L615.5364999999995 330.01869999999997L616.9524999999999 322.3756499999996L609.2570000000001 320.57635000000005L606.4335000000005 317.96584999999993z">
      <title id="t184">Cinquième circonscription de l'Isère</title>
      <desc id="d184">Cantons de : Allevard, Domène, Goncelin, Saint-Egrève, Saint-Geoirs-en-Valdaine, Saint-Laurent-du-Pont, Le Touvet, Commune de Chamrousse (partie comprise dans le canton de Vizille)</desc>
    </path><path class="circo" id="id-038-06" d="M222.59950000000003 56.98354999999992L217.8105000000005 60.068749999999795L211.25499999999988 64.29569999999956L204.5105000000001 69.49455L194.25250000000005 67.92190000000005L190.3494999999998 67.59899999999959L188.77899999999954 62.07134999999994L184.42800000000034 54.5326L180.54300000000012 53.08549999999968L176.25549999999976 48.54134999999985L170.45349999999985 47.71829999999966L160.69899999999961 43.417349999999715L156.9285000000002 44.77649999999983L157.45599999999968 50.85984999999994L155.5174999999997 51.52674999999988L152.12049999999977 42.346599999999626L147.72950000000037 58.33114999999964L146.01300000000037 59.49889999999982L134.27099999999996 55.467049999999745L134.4984999999997 61.42965000000004L138.6379999999997 70.97384999999974L148.92150000000015 71.20229999999992L147.36549999999966 79.37025000000006L149.34100000000058 87.39434999999958L163.0065000000002 88.55075L166.01099999999974 91.08389999999986L171.3575000000003 99.36269999999979L176.84650000000033 102.12874999999997L174.61649999999963 111.57939999999996L171.59250000000043 123.5605499999997L170.462 137.8725499999996L172.84549999999967 139.1755999999998L173.64400000000046 140.5174999999997L176.15549999999985 143.72464999999977L180.19999999999982 143.7367999999998L182.0150000000001 147.4123499999996L185.15750000000025 147.25854999999967L185.42550000000006 148.82624999999962L188.66049999999973 151.45704999999964L198.15000000000055 152.87199999999984L217.33799999999974 155.33230000000003L219.07850000000053 159.17609999999968L214.09549999999967 165.9632499999998L216.7960000000005 167.57049999999992L222.21850000000018 172.06615L225.08699999999976 178.75049999999987L236.04299999999967 178.51839999999982L238.8194999999996 185.23274999999956L243.63249999999994 190.49935000000005L253.16400000000044 189.85699999999952L259.0740000000005 181.0402499999998L275.81800000000044 183.8154499999996L279.4674999999995 174.94794999999954L278.53950000000054 171.18245000000002L266.155 169.43894999999998L269.27149999999983 162.83354999999972L283.8485000000003 165.03974999999969L287.7350000000001 163.3633999999995L279.59449999999947 156.89480000000003L278.95099999999957 152.7358499999997L281.80799999999977 142.5822999999997L293.0415000000005 145.4907499999996L299.01250000000005 147.6420999999999L298.92799999999966 149.66574999999978L294.77899999999977 153.25004999999976L295.8630000000005 161.11274999999978L305.6065000000001 159.58749999999952L309.23900000000003 161.2124L313.21000000000026 160.36834999999996L318.4190000000001 151.42785000000003L321.03399999999965 149.50644999999952L330.23000000000025 161.5605499999998L343.5865000000001 165.1551999999998L350.2845000000002 160.49594999999954L357.28500000000054 164.69949999999983L360.84100000000035 166.40375000000006L367.51800000000003 161.9658499999997L370.5105000000003 156.7707999999999L366.05950000000007 150.2274L364.99599999999987 140.23419999999987L355.1819999999998 132.92010000000005L355.4110000000003 130.92224999999985L350.2909999999997 127.79054999999971L345.1660000000004 128.68650000000002L343.05650000000014 122.4527999999998L340.9209999999996 118.87009999999975L341.82950000000005 112.69419999999968L345.7185000000004 113.42870000000005L349.6230000000003 120.58879999999988L351.71050000000037 120.4159999999996L353.62750000000005 116.8939499999999L351.48450000000025 113.39155000000005L345.65000000000055 111.15160000000003L344.04499999999985 105.50629999999956L341.02750000000015 103.13859999999977L333.26400000000035 101.99974999999995L329.1134999999997 92.42709999999988L320.8865000000003 84.3907999999999L314.87100000000055 78.97069999999985L304.84249999999975 63.725900000000024L299.1795000000002 58.920499999999834L295.81050000000005 53.51704999999981L288.7390000000005 46.158099999999536L287.99350000000004 37.93884999999989L288.8295000000005 36.041549999999916L294.5259999999996 34.41554999999994L294.31550000000016 32.347899999999754L293.47549999999956 30.80524999999966L286.7814999999996 25.427249999999617L286.1054999999999 21.201549999999543L281.0310000000004 15.812849999999798L269.8289999999997 8.011099999999942L260.01449999999977 0L254.05849999999987 1.3840499999997746L251.77649999999971 5.336249999999723L249.63100000000054 10.986049999999636L242.67000000000053 14.965199999999754L237.7279999999996 21.147249999999644L232.68599999999992 41.85389999999984L222.59950000000003 56.98354999999992z">
      <title id="t185">Sixième circonscription de l'Isère</title>
      <desc id="d185">Cantons de : Bourgoin-Jallieu Nord, Crémieu, Morestel, Pont-de-Chéruy</desc>
    </path><path class="circo" id="id-038-07" d="M131.60499999999956 342.48374999999953L123.15349999999967 343.02104999999983L117.94099999999958 342.3048L113.26800000000048 328.43504999999993L104.97799999999984 327.3744499999998L99.91999999999962 331.02119999999957L91.20499999999993 336.2055499999997L87.12800000000016 336.6873499999997L78.6405000000002 340.22429999999986L67.96399999999949 347.80354999999986L57.645499999999856 355.3436499999998L49.076499999999896 354.85725L49.15399999999977 348.5510999999997L28.078500000000304 353.4862499999997L24.373500000000377 354.95209999999986L16.317999999999984 347.9933L8.103999999999587 339.72984999999994L7.517500000000155 331.9516999999996L7.608999999999924 330.76120000000003L8.585000000000491 327.1506999999997L10.440499999999702 327.44820000000004L13.006000000000313 324.85334999999964L12.49749999999949 321.13819999999976L5.461500000000115 314.25239999999974L5.8979999999996835 310.75874999999996L17.885499999999865 309.7422999999998L26.381000000000085 298.7088L28.3400000000006 291.6616499999998L29.104999999999563 288.87639999999976L33.46900000000005 290.0514499999997L34.32099999999991 292.23005L44.34150000000045 295.4840999999999L56.951500000000124 294.39824999999985L60.53449999999998 292.7173499999998L62.161499999999705 289.18514999999957L65.86750000000052 288.9963L69.99450000000024 289.12825L72.65099999999961 286.03039999999964L78.65850000000023 284.6172999999999L82.70800000000008 285.50185L79.22500000000014 279.2156L77.2765000000004 270.5926999999997L74.57250000000045 261.8888499999997L75.4525000000001 259.92944999999963L83.69649999999979 256.00544999999954L91.58599999999979 256.1575499999998L93.24150000000031 256.3187499999998L105.62999999999988 258.8678999999996L124.96700000000033 261.6549999999995L124.46800000000053 249.53559999999982L127.7030000000002 242.27039999999988L125.39850000000001 238.7536L131.44649999999956 237.6822999999996L127.8430000000003 228.39574999999968L128.2370000000003 224.30864999999983L131.48950000000013 222.14264999999955L131.43400000000042 220.0863499999997L128.4794999999997 217.2449499999999L133.0034999999998 215.4334L140.74250000000006 209.22589999999957L148.52150000000051 206.77009999999996L147.45300000000043 210.09784999999965L153.0370000000005 218.50975000000005L158.26599999999985 222.1632999999997L166.7719999999997 217.9340499999995L164.30899999999951 212.51149999999996L165.94900000000052 209.05839999999955L169.5685000000003 207.3690499999998L167.4490000000003 201.9265999999999L173.25450000000046 202.04129999999964L176.60949999999957 200.1155L179.84299999999962 202.02489999999955L183.57250000000022 201.76699999999983L183.31549999999993 203.76064999999983L189.26850000000059 203.86019999999974L193.34100000000035 204.1709499999996L196.65200000000027 206.4011499999998L196.35549999999967 210.3994L200.34999999999968 211.1402499999997L208.86499999999955 205.34584999999993L211.60349999999994 200.03839999999968L213.0785000000003 201.4367999999996L223.20100000000025 200.77039999999954L223.1650000000002 201.06959999999958L226.37450000000058 208.48254999999995L224.12950000000023 211.7306499999995L227.31300000000033 215.45709999999985L233.2555000000002 218.11059999999998L229.74649999999997 220.21614999999997L230.07349999999974 228.14284999999984L227.8234999999995 231.5849499999996L239.90400000000022 232.5654499999996L243.30450000000042 230.22899999999993L248.53399999999965 233.84124999999983L250.58449999999993 237.6052999999996L261.001 225.64054999999996L267.01599999999985 222.0783499999999L279.86400000000003 229.27629999999965L281.4655000000005 233.20400000000006L287.63799999999947 227.5418499999995L289.69299999999976 221.79145000000005L298.55300000000057 222.19664999999964L308.25699999999983 222.9481999999996L312.63799999999947 219.04179999999997L318.4834999999998 218.51585L318.59050000000025 218.57404999999972L324.6640000000002 210.8417499999996L325.10549999999967 206.87025000000006L327.71799999999985 210.05354999999952L333.5934999999995 211.88169999999957L337.89049999999975 215.83564999999965L337.9575 213.91909999999996L345.6124999999997 214.75694999999973L351.9410000000005 213.1322L347.95349999999985 220.5176499999999L352.1670000000006 230.1574499999998L350.57950000000005 230.41699999999992L345.17600000000016 233.01054999999963L333.63849999999957 246.28749999999968L331.5134999999998 259.6882999999997L332.53150000000005 261.3805499999995L336.27899999999954 260.20209999999963L336.4239999999995 260.0972999999999L355.0879999999995 259.0114999999997L354.9585000000002 259.4713999999999L352.8890000000001 268.2454999999999L345.6299999999999 272.37464999999986L340.2565000000004 270.3449499999999L336.87599999999975 272.3097999999999L336.4790000000005 276.4002999999997L332.5599999999997 280.6059499999998L336.84849999999983 284.55674999999985L336.5425000000005 294.61494999999957L336.0540000000003 295.28075L333.23650000000043 298.08539999999994L323.38899999999967 299.8096499999997L321.472 305.4512999999997L318.5474999999997 308.25819999999965L319.8159999999996 312.1356499999996L316.14649999999983 313.0932999999999L311.6560000000004 302.43664999999964L299.36699999999973 312.40364999999997L298.02850000000035 313.35890000000006L297.7660000000003 313.7599499999999L285.6460000000004 313.47260000000006L280.47699999999963 337.92719999999974L282.14900000000057 337.91875000000005L283.53950000000054 340.9290999999996L284.93299999999977 344.7073499999999L284.1179999999997 348.65139999999997L287.83950000000004 353.2892499999997L295.6680000000006 353.6560499999996L296.4250000000004 354.44699999999955L292.79649999999947 362.3625499999997L287.0915000000002 361.7947499999997L284.47599999999966 366.6391999999996L269.62549999999965 360.7616999999999L267.9314999999997 361.89679999999953L265.2015000000006 362.5002999999998L259.4375000000002 362.99139999999966L258.9499999999998 363.71144999999956L250.5250000000001 367.28610000000003L243.93100000000004 381.7293999999998L241.34900000000016 384.76425000000006L239.46050000000014 394.71334999999954L239.39250000000015 395.20039999999995L229.86300000000028 397.40674999999953L227.35500000000002 404.5473999999996L225.9265000000005 403.7394999999998L218.19299999999998 406.7181499999998L214.49449999999956 411.6436999999996L213.57150000000047 407.90599999999984L205.8624999999995 405.08375L200.98700000000008 408.9731999999998L196.9749999999999 409.52879999999993L194.89649999999983 403.8348499999995L187.40999999999985 394.6143999999998L184.1980000000001 385.12464999999963L178.2465000000002 386.14059999999995L174.23599999999965 380.3534499999995L169.1229999999996 387.02740000000006L161.10000000000014 386.91329999999994L164.6855000000005 363.82259999999974L168.1529999999998 356.11339999999984L166.69700000000034 355.0016499999998L160.5899999999997 355.5768499999999L158.62100000000055 359.21335L155.02899999999954 361.3047999999998L146.79250000000025 362.2658999999999L141.21800000000007 364.9364499999996L140.43250000000057 364.0943999999996L138.01900000000046 356.61969999999997L134.2885000000001 345.7281499999999L131.60499999999956 342.48374999999953z">
      <title id="t186">Septième circonscription de l'Isère</title>
      <desc id="d186">Cantons de : Beaurepaire, La Côte-Saint-André, Le Grand-Lemps, Roussillon (moins les communes de Assieu, Auberives-sur-Varèze, Cheyssieu, Clonas-sur-Varèze, Saint-Alban-du-Rhône, Saint-Clair-du-Rhône, Saint-Maurice-l'Exil, Saint-Prim, Vernioz), Roybon, Saint-Etienne-de-Saint-Geoirs, Saint-Jean-de-Bournay, Virieu</desc>
    </path><path class="circo" id="id-038-08" d="M153.0370000000005 218.50975000000005L147.45300000000043 210.09784999999965L148.52150000000051 206.77009999999996L140.74250000000006 209.22589999999957L133.0034999999998 215.4334L128.4794999999997 217.2449499999999L131.43400000000042 220.0863499999997L131.48950000000013 222.14264999999955L128.2370000000003 224.30864999999983L127.8430000000003 228.39574999999968L131.44649999999956 237.6822999999996L125.39850000000001 238.7536L127.7030000000002 242.27039999999988L124.46800000000053 249.53559999999982L124.96700000000033 261.6549999999995L105.62999999999988 258.8678999999996L93.24150000000031 256.3187499999998L91.58599999999979 256.1575499999998L83.69649999999979 256.00544999999954L75.4525000000001 259.92944999999963L74.57250000000045 261.8888499999997L77.2765000000004 270.5926999999997L79.22500000000014 279.2156L82.70800000000008 285.50185L78.65850000000023 284.6172999999999L72.65099999999961 286.03039999999964L69.99450000000024 289.12825L65.86750000000052 288.9963L62.161499999999705 289.18514999999957L60.53449999999998 292.7173499999998L56.951500000000124 294.39824999999985L44.34150000000045 295.4840999999999L34.32099999999991 292.23005L33.46900000000005 290.0514499999997L29.104999999999563 288.87639999999976L28.3400000000006 291.6616499999998L26.381000000000085 298.7088L17.885499999999865 309.7422999999998L5.8979999999996835 310.75874999999996L6.673500000000558 302.73194999999987L4.973999999999705 294.8231499999997L0.695500000000493 289.02535L0 281.12424999999973L7.142999999999802 273.74525000000006L7.141000000000304 270.1777999999996L5.266000000000304 264.99615000000006L5.0090000000000146 262.58434999999963L5.860999999999876 259.7494999999998L10.900000000000318 258.91819999999996L13.92849999999953 260.65589999999986L15.440499999999702 260.15544999999975L16.22349999999983 258.4922499999999L15.661499999999933 251.30224999999996L23.79199999999969 245.93529999999987L24.706499999999778 245.42129999999986L29.94350000000054 242.4843999999996L34.56699999999955 235.97254999999961L41.78300000000036 232.53634999999974L43.45100000000002 230.5710499999998L50.228499999999485 222.68370000000004L54.6855000000005 216.14019999999982L55.09149999999977 214.15509999999983L52.7150000000006 211.00554999999986L39.69349999999963 205.7141999999999L32.960500000000366 197.39074999999957L30.968000000000302 193.25499999999977L27.751500000000533 189.00274999999965L16.15199999999959 183.69584999999972L14.444499999999607 179.86694999999997L28.761500000000524 178.45370000000003L36.290500000000065 179.6616499999999L44.83799999999974 184.4068999999996L48.63849999999957 186.47085000000004L49.572500000000446 177.77889999999957L58.53399999999965 173.0740499999996L59.33850000000007 171.12349999999992L61.44049999999993 171.25045L62.99449999999979 171.2710999999996L70.18149999999991 168.13949999999977L78.17350000000033 168.73364999999978L80.5759999999998 167.74759999999958L97.07200000000057 164.35864999999978L108.45649999999978 170.21714999999972L108.6869999999999 169.94924999999967L109.90750000000048 163.73040000000003L104.68049999999948 160.92679999999973L110.36550000000034 158.55869999999982L123.67650000000026 163.71154999999987L127.71399999999971 159.25144999999986L124.69450000000052 153.82439999999974L124.97100000000046 147.7430499999997L126.73750000000041 143.99399999999957L133.84450000000015 139.79214999999954L132.1270000000004 135.71079999999995L142.96550000000025 125.9036999999995L147.0614999999998 125.28390000000002L150.60050000000047 129.4047999999998L147.44000000000028 134.13089999999954L148.09949999999958 138.08719999999994L141.90799999999967 143.11485000000005L140.6359999999995 146.87129999999968L140.69899999999961 151.1275999999998L143.1555000000003 154.43884999999966L142.47600000000034 162.85664999999995L139.87349999999992 170.36720000000003L143.76350000000002 165.55009999999982L145.82850000000008 166.05924999999957L159.82349999999997 178.98024999999961L157.97450000000026 184.92064999999968L159.69150000000013 184.12454999999966L164.8135000000002 186.4507999999995L166.31399999999985 190.0518999999997L162.0519999999999 193.48569999999995L165.8235000000002 200.17679999999984L167.4490000000003 201.9265999999999L169.5685000000003 207.3690499999998L165.94900000000052 209.05839999999955L164.30899999999951 212.51149999999996L166.7719999999997 217.9340499999995L158.26599999999985 222.1632999999997L153.0370000000005 218.50975000000005z">
      <title id="t187">Huitième circonscription de l'Isère</title>
      <desc id="d187">Cantons de : Heyrieux, Vienne Nord, Vienne Sud, Communes de : Assieu, Auberives-sur-Varèze, Cheyssieu, Clonas-sur-Varèze, Saint-Alban-du-Rhône, Saint-Clair-du-Rhône, Saint-Maurice-l'Exil, Saint-Prim, Vernioz</desc>
    </path><path class="circo" id="id-038-09" d="M239.13350000000037 501.4497L238.37099999999964 498.1537499999996L233.10799999999972 496.3306L232.3490000000004 498.1134499999996L226.7610000000002 498.7590499999999L225.9114999999997 500.50089999999955L223.47600000000057 502.0025999999996L222.3599999999999 500.9785999999997L221.86450000000036 499.04004999999984L213.94700000000057 498.23319999999967L213.08700000000044 494.47419999999966L207.65300000000025 491.95089999999993L205.85349999999949 488.3109999999999L204.44049999999947 486.68835L199.88399999999956 484.98189999999965L185.92499999999973 484.25594999999987L181.81749999999965 493.35849999999994L178.2899999999995 495.32084999999995L171.29099999999994 488.87374999999963L167.9600000000005 490.9843999999998L166.34850000000029 489.8397L168.22350000000029 486.6220999999996L175.49849999999992 484.95540000000005L178.39799999999968 475.53999999999974L183.1434999999999 471.41359999999963L188.596 462.4726999999996L189.18450000000007 457.6007499999997L189.76999999999975 449.92705L187.33749999999986 444.57844999999963L190.22950000000037 441.9171499999999L189.64500000000044 436.0645999999997L189.26000000000045 431.9762499999996L183.87550000000033 425.6245999999999L181.32200000000012 417.6885999999996L179.53949999999963 414.1681L180.3189999999995 408.21789999999964L184.8524999999995 404.2782999999997L194.89649999999983 403.8348499999995L196.9749999999999 409.52879999999993L200.98700000000008 408.9731999999998L205.8624999999995 405.08375L213.57150000000047 407.90599999999984L214.49449999999956 411.6436999999996L218.19299999999998 406.7181499999998L225.9265000000005 403.7394999999998L227.35500000000002 404.5473999999996L229.86300000000028 397.40674999999953L239.39250000000015 395.20039999999995L239.46050000000014 394.71334999999954L241.34900000000016 384.76425000000006L243.93100000000004 381.7293999999998L250.5250000000001 367.28610000000003L258.9499999999998 363.71144999999956L259.4375000000002 362.99139999999966L265.2015000000006 362.5002999999998L267.9314999999997 361.89679999999953L269.62549999999965 360.7616999999999L284.47599999999966 366.6391999999996L287.0915000000002 361.7947499999997L292.79649999999947 362.3625499999997L296.4250000000004 354.44699999999955L295.6680000000006 353.6560499999996L287.83950000000004 353.2892499999997L284.1179999999997 348.65139999999997L284.93299999999977 344.7073499999999L283.53950000000054 340.9290999999996L282.14900000000057 337.91875000000005L280.47699999999963 337.92719999999974L285.6460000000004 313.47260000000006L297.7660000000003 313.7599499999999L298.02850000000035 313.35890000000006L299.36699999999973 312.40364999999997L311.6560000000004 302.43664999999964L316.14649999999983 313.0932999999999L319.8159999999996 312.1356499999996L318.5474999999997 308.25819999999965L321.472 305.4512999999997L323.38899999999967 299.8096499999997L333.23650000000043 298.08539999999994L336.0540000000003 295.28075L336.5425000000005 294.61494999999957L336.84849999999983 284.55674999999985L332.5599999999997 280.6059499999998L336.4790000000005 276.4002999999997L336.87599999999975 272.3097999999999L340.2565000000004 270.3449499999999L345.6299999999999 272.37464999999986L352.8890000000001 268.2454999999999L361.7160000000001 281.5656999999999L367.7105000000006 280.50359999999955L372.14050000000043 284.3272999999999L376.49549999999977 280.22869999999955L380.04050000000007 281.8690499999997L396.60949999999957 276.1925499999995L398.9945 293.76269999999977L396.78350000000023 297.1061499999996L392.2440000000006 306.1773999999997L392.3090000000002 316.1977999999999L391.4485000000002 320.13059999999996L396.62199999999984 325.9944999999999L400.63300000000027 325.41214999999966L413.0449999999996 332.27215L410.01750000000015 346.6606999999999L410.9125000000006 348.5752499999995L406.1869999999999 354.1182999999995L405.3430000000003 353.57204999999965L398.3979999999997 363.1816999999995L393.62499999999955 366.7147L392.37600000000043 372.56519999999966L388.3815000000004 378.95809999999983L381.07349999999997 381.38284999999996L380.3800000000001 381.05500000000006L373.11900000000037 371.4443499999999L370.8310000000006 357.48064999999997L365.7534999999996 354.3236999999999L362.3210000000006 361.5470499999998L363.1269999999995 364.93164999999976L352.7170000000001 377.01144999999997L352.3260000000005 385.02139999999997L354.4915000000003 388.4477499999997L351.1855000000003 390.94965L340.7725000000005 393.04704999999956L337.20800000000054 400.60855000000004L333.71650000000045 417.13734999999986L325.13799999999947 436.1296999999996L325.07299999999987 436.48049999999955L319.2465000000004 449.98729999999966L318.7869999999998 474.88909999999976L325.1559999999995 492.60144999999966L319.2049999999995 491.6476L315.8865000000003 486.16404999999986L310.5015000000003 482.78959999999984L306.3499999999999 482.4639499999995L303.6035000000004 485.63199999999995L299.4915000000003 491.576L294.46050000000014 500.5532499999998L288.8919999999996 502.82564999999977L284.39700000000016 507.1148999999997L278.3090000000004 507.69835L272.9724999999996 501.6296L272.71600000000035 505.31199999999956L278.01000000000045 511.70429999999953L272.4109999999996 513.1213499999996L266.3340000000005 508.32695L258.9134999999999 506.5169499999996L255.53549999999973 504.96909999999957L253.91899999999964 497.534L250.8439999999996 498.6784499999999L245.6275000000005 501.5754499999997L245.37450000000035 503.56799999999964L239.13350000000037 501.4497z">
      <title id="t188">Neuvième circonscription de l'Isère</title>
      <desc id="d188">Cantons de : Pont-en-Royans, Rives, Saint-Marcellin, Tullins, Vinay, Voiron</desc>
    </path><path class="circo" id="id-038-10" d="M227.8234999999995 231.5849499999996L230.07349999999974 228.14284999999984L229.74649999999997 220.21614999999997L233.2555000000002 218.11059999999998L227.31300000000033 215.45709999999985L224.12950000000023 211.7306499999995L226.37450000000058 208.48254999999995L223.1650000000002 201.06959999999958L223.20100000000025 200.77039999999954L213.0785000000003 201.4367999999996L211.60349999999994 200.03839999999968L208.86499999999955 205.34584999999993L200.34999999999968 211.1402499999997L196.35549999999967 210.3994L196.65200000000027 206.4011499999998L193.34100000000035 204.1709499999996L189.26850000000059 203.86019999999974L183.31549999999993 203.76064999999983L183.57250000000022 201.76699999999983L179.84299999999962 202.02489999999955L176.60949999999957 200.1155L173.25450000000046 202.04129999999964L167.4490000000003 201.9265999999999L165.8235000000002 200.17679999999984L162.0519999999999 193.48569999999995L166.31399999999985 190.0518999999997L164.8135000000002 186.4507999999995L159.69150000000013 184.12454999999966L157.97450000000026 184.92064999999968L159.82349999999997 178.98024999999961L145.82850000000008 166.05924999999957L143.76350000000002 165.55009999999982L139.87349999999992 170.36720000000003L142.47600000000034 162.85664999999995L143.1555000000003 154.43884999999966L140.69899999999961 151.1275999999998L140.6359999999995 146.87129999999968L141.90799999999967 143.11485000000005L148.09949999999958 138.08719999999994L147.44000000000028 134.13089999999954L150.60050000000047 129.4047999999998L147.0614999999998 125.28390000000002L154.67300000000023 118.58169999999973L153.4865000000002 112.44959999999992L165.00049999999987 108.31384999999955L168.73500000000035 110.0324999999998L172.48749999999973 108.6814499999997L174.61649999999963 111.57939999999996L171.59250000000043 123.5605499999997L170.462 137.8725499999996L172.84549999999967 139.1755999999998L173.64400000000046 140.5174999999997L176.15549999999985 143.72464999999977L180.19999999999982 143.7367999999998L182.0150000000001 147.4123499999996L185.15750000000025 147.25854999999967L185.42550000000006 148.82624999999962L188.66049999999973 151.45704999999964L198.15000000000055 152.87199999999984L217.33799999999974 155.33230000000003L219.07850000000053 159.17609999999968L214.09549999999967 165.9632499999998L216.7960000000005 167.57049999999992L222.21850000000018 172.06615L225.08699999999976 178.75049999999987L236.04299999999967 178.51839999999982L238.8194999999996 185.23274999999956L243.63249999999994 190.49935000000005L253.16400000000044 189.85699999999952L259.0740000000005 181.0402499999998L275.81800000000044 183.8154499999996L279.4674999999995 174.94794999999954L278.53950000000054 171.18245000000002L266.155 169.43894999999998L269.27149999999983 162.83354999999972L283.8485000000003 165.03974999999969L287.7350000000001 163.3633999999995L279.59449999999947 156.89480000000003L278.95099999999957 152.7358499999997L281.80799999999977 142.5822999999997L293.0415000000005 145.4907499999996L299.01250000000005 147.6420999999999L298.92799999999966 149.66574999999978L294.77899999999977 153.25004999999976L295.8630000000005 161.11274999999978L305.6065000000001 159.58749999999952L309.23900000000003 161.2124L313.21000000000026 160.36834999999996L318.4190000000001 151.42785000000003L321.03399999999965 149.50644999999952L330.23000000000025 161.5605499999998L343.5865000000001 165.1551999999998L350.2845000000002 160.49594999999954L357.28500000000054 164.69949999999983L360.84100000000035 166.40375000000006L367.51800000000003 161.9658499999997L370.5105000000003 156.7707999999999L374.2660000000001 164.15024999999957L374.4105000000002 170.15944999999988L380.1769999999999 178.51200000000006L383.6794999999995 182.57484999999974L384.1100000000006 186.16724999999974L394.4105000000002 195.69414999999992L394.4380000000001 199.7312999999997L396.1265000000003 200.88814999999954L395.0045 204.41489999999988L398.3699999999999 205.95084999999983L398.6289999999997 207.79684999999972L395.34200000000055 206.5370999999999L394.4939999999997 210.67424999999957L396.95550000000026 214.1035499999998L402.89549999999963 215.9842999999995L402.9555000000005 219.67569999999967L404.8400000000004 220.79484999999977L407.11900000000014 222.17420000000004L412.6089999999999 234.42759999999964L405.99000000000046 242.35584999999958L400.73350000000005 242.45949999999993L394.5079999999996 245.6067999999999L392.7539999999999 238.21704999999952L384.1100000000006 234.42944999999952L381.10199999999963 229.9136999999996L376.3824999999997 228.87059999999963L374.9750000000006 221.5506499999998L366.6719999999998 213.66064999999992L363.48449999999957 213.0138999999997L362.9864999999995 214.5718999999997L351.9410000000005 213.1322L345.6124999999997 214.75694999999973L337.9575 213.91909999999996L337.89049999999975 215.83564999999965L333.5934999999995 211.88169999999957L327.71799999999985 210.05354999999952L325.10549999999967 206.87025000000006L324.6640000000002 210.8417499999996L318.59050000000025 218.57404999999972L318.4834999999998 218.51585L312.63799999999947 219.04179999999997L308.25699999999983 222.9481999999996L298.55300000000057 222.19664999999964L289.69299999999976 221.79145000000005L287.63799999999947 227.5418499999995L281.4655000000005 233.20400000000006L279.86400000000003 229.27629999999965L267.01599999999985 222.0783499999999L261.001 225.64054999999996L250.58449999999993 237.6052999999996L248.53399999999965 233.84124999999983L243.30450000000042 230.22899999999993L239.90400000000022 232.5654499999996L227.8234999999995 231.5849499999996z">
      <title id="t189">Dixième circonscription de l'Isère</title>
      <desc id="d189">Cantons de : Bourgoin-Jallieu Sud, L'Isle-d'Abeau, Le Pont-de-Beauvoisin, La Tour-du-Pin, La Verpillière</desc>
    </path></svg>