<svg xmlns="http://www.w3.org/2000/svg" version="1.1" xmlns:xlink="http://www.w3.org/1999/xlink" xmlns:svgjs="http://svgjs.dev/svgjs" width="405.6875000000002" height="648.72545" fill="#eeeeee" stroke="#cccccc" xmlns:sodipodi="http://sodipodi.sourceforge.net/DTD/sodipodi-0.dtd"><path class="circo" id="id-039-01" d="M129.66300000000047 228.28840000000014L121.22550000000047 233.75715000000014L126.85050000000047 239.85090000000014L129.19449999999983 245.47590000000014L127.63149999999996 247.03840000000014L121.38149999999996 245.31965000000014L115.75649999999996 247.50715000000014L105.13149999999996 246.56965000000014L100.44449999999983 242.03840000000014L96.69449999999983 242.66340000000014L98.72550000000047 248.60090000000014L92.47550000000047 248.28840000000014L89.03800000000047 246.10090000000014L83.41300000000047 251.72590000000014L83.72550000000047 254.69465000000014L77.00649999999996 255.47590000000014L73.41300000000047 253.91340000000014L69.66300000000047 255.47590000000014L66.53800000000047 260.47590000000014L64.50649999999996 259.85090000000014L63.100500000000466 264.06965000000014L64.66300000000047 272.66340000000014L69.35050000000047 277.19465000000014L73.56949999999983 278.28840000000014L76.06949999999983 277.97590000000014L80.91300000000047 281.72590000000014L80.28800000000047 278.75715000000014L82.16300000000047 278.60090000000014L88.10050000000047 281.25715000000014L87.47550000000047 287.50715000000014L90.13149999999996 290.63215000000014L88.10050000000047 296.41340000000014L89.81949999999983 297.81965000000014L69.97550000000047 298.91340000000014L67.16300000000047 295.31965000000014L55.288000000000466 298.28840000000014L52.319499999999834 298.75715000000014L42.163000000000466 305.63215000000014L39.50649999999996 302.50715000000014L35.600500000000466 302.66340000000014L32.475500000000466 307.50715000000014L34.194499999999834 317.03840000000014L38.100500000000466 321.25715000000014L43.725500000000466 321.10090000000014L50.444499999999834 325.78840000000014L51.694499999999834 329.85090000000014L55.913000000000466 330.78840000000014L58.725500000000466 333.75715000000014L56.38149999999996 339.38215000000014L50.75649999999996 345.63215000000014L48.725500000000466 345.16340000000014L46.694499999999834 357.03840000000014L60.13149999999996 359.85090000000014L59.038000000000466 361.25715000000014L61.069499999999834 367.97590000000014L61.069499999999834 371.72590000000014L65.75649999999996 375.16340000000014L66.38149999999996 378.60090000000014L60.913000000000466 386.88215000000014L72.31949999999983 394.22590000000014L73.41300000000047 401.56965000000014L74.35050000000047 402.19465000000014L69.19449999999983 405.94465000000014L80.13149999999996 416.10090000000014L77.16300000000047 422.35090000000014L68.72550000000047 430.47590000000014L62.319499999999834 431.56965000000014L67.94449999999983 440.47590000000014L65.28800000000047 450.78840000000014L52.475500000000466 451.72590000000014L46.850500000000466 453.60090000000014L49.194499999999834 460.00715000000014L44.819499999999834 463.91340000000014L47.00649999999996 469.38215000000014L45.913000000000466 486.25715000000014L45.600500000000466 486.72590000000014L45.600500000000466 488.91340000000014L57.63149999999996 492.81965000000014L59.819499999999834 496.25715000000014L66.22550000000047 500.94465000000014L71.85050000000047 500.94465000000014L71.22550000000047 512.8196500000001L71.38149999999996 513.6009000000001L68.72550000000047 518.6009000000001L62.00649999999996 521.8821500000001L56.694499999999834 519.5384000000001L52.788000000000466 524.0696500000001L51.694499999999834 525.6321500000001L30.288000000000466 524.3821500000001L30.288000000000466 528.1321500000001L29.663000000000466 530.0071500000001L26.069499999999834 530.6321500000001L24.819499999999834 534.0696500000001L29.663000000000466 545.1634000000001L24.50649999999996 548.4446500000001L23.725500000000466 552.3509000000001L25.600500000000466 553.1321500000001L19.819499999999834 553.4446500000001L20.288000000000466 555.4759000000001L24.194499999999834 556.7259000000001L34.819499999999834 563.1321500000001L40.75649999999996 563.2884000000001L48.88149999999996 570.0071500000001L53.413000000000466 573.9134000000001L48.100500000000466 579.5384000000001L47.319499999999834 581.4134000000001L52.475500000000466 584.6946500000001L52.63149999999996 588.6009000000001L51.538000000000466 592.3509000000001L55.75649999999996 596.8821500000001L63.25649999999996 600.3196500000001L63.569499999999834 604.3821500000001L64.66300000000047 614.8509000000001L64.66300000000047 615.4759000000001L67.16300000000047 618.9134000000001L70.13149999999996 598.1321500000001L72.94449999999983 595.1634000000001L78.72550000000047 615.3196500000001L86.06949999999983 613.4446500000001L90.60050000000047 610.0071500000001L94.81949999999983 615.1634000000001L91.22550000000047 628.7571500000001L87.94449999999983 630.3196500000001L87.31949999999983 638.7571500000001L93.25649999999996 644.6946500000001L94.97550000000047 645.9446500000001L105.28800000000047 644.0696500000001L106.53800000000047 642.8196500000001L110.28800000000047 646.4134000000001L122.16300000000047 643.6009000000001L131.53800000000047 632.8196500000001L132.94449999999983 629.0696500000001L142.47550000000047 629.2259000000001L147.00649999999996 625.7884000000001L149.81949999999983 618.7571500000001L150.28800000000047 616.1009000000001L153.25649999999996 608.2884000000001L161.38149999999996 605.6321500000001L163.88149999999996 602.1946500000001L159.97550000000047 600.6321500000001L162.31949999999983 592.8196500000001L163.88149999999996 587.9759000000001L165.60050000000047 583.4446500000001L168.41300000000047 573.4446500000001L177.94449999999983 562.1946500000001L179.81949999999983 556.2571500000001L172.94449999999983 552.5071500000001L182.31949999999983 547.9759000000001L182.31949999999983 544.5384000000001L189.50649999999996 538.2884000000001L189.35050000000047 534.5384000000001L189.35050000000047 528.7571500000001L186.22550000000047 526.8821500000001L179.97550000000047 522.0384000000001L179.81949999999983 513.6009000000001L184.35050000000047 509.53840000000014L183.10050000000047 505.63215000000014L179.81949999999983 502.97590000000014L178.88149999999996 503.44465000000014L180.28800000000047 497.66340000000014L179.19449999999983 493.60090000000014L181.06949999999983 489.85090000000014L191.06949999999983 487.19465000000014L188.25649999999996 483.75715000000014L182.63149999999996 482.35090000000014L180.44449999999983 476.25715000000014L167.78800000000047 471.41340000000014L166.85050000000047 470.00715000000014L167.31949999999983 458.28840000000014L169.66300000000047 457.50715000000014L172.31949999999983 445.31965000000014L173.88149999999996 438.91340000000014L177.00649999999996 433.75715000000014L176.06949999999983 429.85090000000014L180.13149999999996 430.16340000000014L193.10050000000047 436.10090000000014L192.78800000000047 429.85090000000014L199.35050000000047 419.06965000000014L198.41300000000047 417.03840000000014L200.91300000000047 416.56965000000014L202.00649999999996 415.16340000000014L204.50649999999996 410.63215000000014L212.31949999999983 408.28840000000014L214.19449999999983 404.85090000000014L212.16300000000047 404.22590000000014L208.41300000000047 392.03840000000014L219.50649999999996 385.78840000000014L219.50649999999996 381.88215000000014L217.63149999999996 380.94465000000014L222.16300000000047 366.88215000000014L220.44449999999983 367.50715000000014L214.19449999999983 363.13215000000014L224.97550000000047 348.75715000000014L227.16300000000047 344.69465000000014L227.94449999999983 342.03840000000014L237.63149999999996 330.00715000000014L241.06949999999983 319.06965000000014L239.19449999999983 311.10090000000014L238.25649999999996 307.03840000000014L243.25649999999996 303.60090000000014L249.50649999999996 302.97590000000014L252.78800000000047 308.28840000000014L256.22550000000047 300.63215000000014L252.16300000000047 293.60090000000014L250.28800000000047 294.69465000000014L240.28800000000047 291.56965000000014L237.31949999999983 288.28840000000014L231.69449999999983 293.75715000000014L214.50649999999996 279.69465000000014L208.72550000000047 275.00715000000014L209.19449999999983 271.41340000000014L206.06949999999983 268.91340000000014L204.03800000000047 262.97590000000014L200.44449999999983 261.88215000000014L194.81949999999983 256.41340000000014L199.81949999999983 250.31965000000014L196.22550000000047 248.60090000000014L195.13149999999996 250.00715000000014L193.72550000000047 248.75715000000014L189.66300000000047 244.53840000000014L184.19449999999983 250.00715000000014L173.41300000000047 248.91340000000014L172.94449999999983 248.60090000000014L175.75649999999996 240.63215000000014L173.56949999999983 239.85090000000014L169.81949999999983 241.56965000000014L165.75649999999996 240.78840000000014L157.31949999999983 235.00715000000014L151.53800000000047 232.35090000000014L151.53800000000047 231.72590000000014L149.97550000000047 231.56965000000014L146.22550000000047 229.22590000000014L139.97550000000047 230.78840000000014L133.56949999999983 228.75715000000014L129.66300000000047 228.28840000000014zM80.60050000000047 283.28840000000014L80.28800000000047 283.44465000000014L79.97550000000047 284.06965000000014L79.81949999999983 285.16340000000014L80.28800000000047 285.47590000000014L80.75649999999996 285.47590000000014L80.28800000000047 286.88215000000014L80.60050000000047 287.19465000000014L81.22550000000047 287.03840000000014L81.69449999999983 287.35090000000014L81.85050000000047 287.19465000000014L82.47550000000047 287.35090000000014L82.78800000000047 287.03840000000014L83.25649999999996 287.19465000000014L83.41300000000047 286.72590000000014L83.25649999999996 286.56965000000014L83.56949999999983 285.78840000000014L83.10050000000047 285.78840000000014L82.63149999999996 285.47590000000014L82.47550000000047 284.85090000000014L81.06949999999983 284.53840000000014L81.38149999999996 283.91340000000014L80.75649999999996 283.75715000000014L80.75649999999996 283.28840000000014L80.60050000000047 283.28840000000014z">
      <title id="t190">Première circonscription du Jura</title>
      <desc id="d190">Cantons de : Arinthod, Beaufort, Bletterans, Chaumergy, Conliège, Lons-le-Saunier Nord, Lons-le-Saunier Sud, Orgelet, Poligny, Saint-Amour, Saint-Julien, Sellières, Voiteur</desc>
    </path><path class="circo" id="id-039-02" d="M273.1060000000002 632.7871999999996L267.2070000000008 641.8630999999999L262.2935000000007 646.0874999999999L260.3769999999997 642.4558000000002L254.41900000000032 648.1058000000002L244.04999999999973 648.0971499999998L240.6574999999998 647.38835L218.4570000000008 644.0303999999998L204.6995000000004 646.8344500000001L201.0895000000005 648.72545L197.17049999999972 636.6240999999997L198.45300000000066 628.0678L196.57249999999976 619.5886999999999L183.8345000000004 617.8265499999998L183.29650000000015 614.7868499999998L176.99100000000044 609.8482999999999L167.13250000000016 609.29935L169.05050000000074 603.5129999999998L167.47550000000047 598.2076999999998L163.80600000000072 602.1279499999997L159.96200000000044 600.6905499999999L162.346 592.8319999999997L163.904 587.9074500000002L165.53150000000073 583.3733000000001L168.36099999999988 573.3784500000002L177.9830000000004 562.2275000000002L179.8675000000003 556.2388499999997L173.01500000000033 552.57405L182.34300000000076 548.0468500000001L182.38550000000032 544.5094L189.57899999999995 538.3485999999999L189.42650000000071 534.5202L189.31600000000003 528.81415L186.2639999999999 526.83065L179.9885000000006 522.0081499999998L179.87700000000018 513.6583999999999L184.40150000000017 509.53089999999975L183.10600000000022 505.5708499999997L179.7924999999998 503.0439000000001L178.86250000000018 503.47980000000007L180.27699999999982 497.7258499999999L179.21699999999987 493.639L180.9985000000006 489.8382499999997L191.03150000000028 487.12049999999977L188.27049999999986 483.80889999999965L182.5864999999999 482.42324999999994L180.51199999999994 476.3245999999998L167.71000000000072 471.3538999999997L166.8259999999998 470.0659999999999L167.2924999999998 458.25874999999996L169.65350000000058 457.55274999999983L172.27550000000065 445.27355L173.90499999999975 438.9368000000002L177.01800000000048 433.7644499999999L176.00400000000036 429.87829999999974L180.0815 430.0893000000002L193.15950000000043 436.0268500000001L192.80449999999973 429.82755L199.33899999999994 419.0075999999999L198.44350000000077 417.08574999999996L200.90599999999995 416.6079000000002L202.02150000000074 415.2076999999997L204.5029999999997 410.63094999999976L212.37349999999992 408.31729999999993L214.2534999999998 404.78489999999965L212.19450000000052 404.1879499999999L208.4469999999999 392.1165000000002L219.48200000000043 385.82175000000007L219.55850000000055 381.8941000000001L217.6279999999997 380.9163000000001L222.2135000000003 366.93895L220.38099999999986 367.4498L214.14750000000026 363.06989999999985L225.0419999999997 348.7203999999997L227.16400000000021 344.76605000000006L227.94949999999972 342.08865000000003L237.64400000000023 330.0003499999997L241.14350000000059 319.0754499999997L239.2590000000007 311.0649000000001L238.1790000000001 307.09310000000016L243.29799999999977 303.6729500000001L249.5315000000005 302.98474999999996L252.75949999999966 308.3164499999998L256.20250000000055 300.68600000000004L252.10750000000075 293.5470499999997L254.69400000000064 288.0371500000001L262.3829999999998 287.93025L264.1390000000001 287.0479L263.6390000000006 285.1376499999998L268.0484999999999 283.7698499999999L268.7869999999998 285.70069999999987L278.7495000000001 288.29004999999995L277.0600000000002 279.7226999999998L286.60799999999995 265.1663500000001L290.2780000000007 264.9891500000001L292.8120000000001 262.03044999999975L294.2345 265.68055000000015L295.4155000000003 269.20905000000005L301.2779999999998 271.03129999999965L302.41550000000075 274.6474999999998L316.48750000000064 276.37369999999976L330.13450000000034 278.0781000000002L328.3800000000008 280.45795L327.76399999999967 282.4050999999997L337.3905000000002 285.2289999999999L337.9065000000003 287.20325L344.66049999999996 279.39639999999997L348.50250000000074 280.23484999999994L353.49450000000047 283.65054999999984L355.5270000000007 289.0661499999999L357.53450000000043 289.2624999999998L361.54049999999984 287.7183500000001L362.75300000000016 287.4132500000002L366.05300000000057 293.0531500000001L382.59450000000015 303.42325000000017L381.1455000000001 305.62059999999974L383.19650000000024 306.10005L387.4829999999997 313.16055000000006L395.6000000000006 319.08844999999985L401.04600000000005 327.9845999999998L404.3085000000008 332.50744999999995L405.6875000000002 336.4440000000002L395.9480000000008 343.7077499999998L394.47700000000054 351.88724999999977L387.6655000000005 356.3014499999997L383.8745000000006 358.04329999999993L376.32349999999974 362.78655000000015L373.6125000000004 365.4158000000001L373.4069999999997 365.5472500000002L365.9000000000003 372.7792499999998L361.9209999999998 375.29124999999965L354.49550000000045 379.9917499999998L348.1560000000002 385.2821L361.7795000000001 407.0089999999999L360.05049999999983 412.6758000000001L352.63000000000034 416.8858L343.03150000000073 424.11850000000015L344.39950000000067 431.15290000000016L340.7400000000007 431.50679999999966L338.5325 434.7159499999998L354.9020000000007 450.28579999999977L373.60700000000065 468.2002L376.5885000000003 465.6735500000002L383.9745000000005 473.1533999999999L380.2195000000006 482.57394999999974L376.19300000000067 482.9365999999999L369.24499999999966 490.83140000000014L359.2515000000003 512.1252499999997L349.2500000000007 523.2613499999997L349.7109999999998 529.5119L354.54650000000015 536.3767999999999L345.095 552.9778499999998L343.6360000000002 552.1875L340.33450000000016 555.9478999999999L331.0744999999997 570.3125499999999L323.5789999999997 577.7697999999998L311.1400000000003 585.9872000000001L307.3244999999997 593.6004500000001L293.04050000000075 618.8540999999998L286.40049999999974 616.0840000000002L283.43650000000025 618.8344000000001L282.1564999999998 628.9756999999997L279.29899999999975 634.4286499999998L273.1060000000002 632.7871999999996z">
      <title id="t191">Deuxième circonscription du Jura</title>
      <desc id="d191">Cantons de : Les Bouchoux, Champagnole, Clairvaux-les-Lacs, Moirans-en-Montagne, Morez, Nozeroy, Les Planches-en-Montagne, Saint-Claude, Saint-Laurent-en-Grandvaux</desc>
    </path><path class="circo" id="id-039-03" d="M173.36900000000014 248.96444999999972L172.9970000000003 248.5594500000002L175.70600000000013 240.6022999999999L173.5570000000007 239.86800000000017L169.81300000000033 241.53005000000007L165.7490000000007 240.72609999999997L157.31049999999982 235.0114000000002L151.58000000000015 232.3593999999997L151.4650000000006 231.7668500000002L149.91250000000036 231.55834999999968L146.2315000000001 229.26150000000007L139.89950000000022 230.7634999999999L133.63000000000056 228.81455000000017L129.6569999999997 228.23069999999973L121.30150000000071 233.76914999999997L126.80600000000027 239.87860000000012L129.22649999999976 245.55074999999988L127.66500000000065 247.03584999999975L121.45550000000071 245.36099999999976L115.74550000000045 247.4639000000002L105.12650000000008 246.53129999999976L100.46800000000076 242.05649999999991L96.67050000000017 242.71604999999965L98.72450000000072 248.65399999999966L92.50650000000064 248.29565000000002L88.96550000000047 246.1113499999999L83.44699999999989 251.68290000000013L83.77100000000041 254.74704999999972L77.04650000000015 255.46294999999986L73.40050000000019 253.9663999999999L69.6614999999997 255.5207999999999L66.46000000000072 260.50434999999993L64.51750000000061 259.92414999999994L59.31500000000028 257.09310000000016L55.5740000000003 258.54285000000004L53.44100000000026 259.6324499999997L46.0265000000004 263.14539999999965L41.96050000000014 258.3015499999999L37.92450000000031 259.5646499999998L35.479500000000144 262.94269999999983L32.58800000000065 260.0504000000001L31.681499999999687 254.0348499999999L25.511999999999944 246.12565000000018L24.64550000000031 240.1878499999998L23.51350000000025 230.71995000000015L17.112500000000637 228.0768999999998L13.181000000000722 228.92659999999978L8.022500000000719 235.13525000000016L4.238000000000284 236.36629999999968L4.607500000000755 230.08624999999995L0 225.8277499999997L0.9225000000003547 223.86359999999968L3.0825000000004366 223.98685L4.714000000000169 220.0974500000001L1.3570000000004256 203.6767500000002L8.467500000000427 197.78684999999996L9.787000000000035 192.37574999999993L11.519000000000688 191.67345000000012L19.606999999999744 190.04504999999995L22.091500000000224 184.67814999999973L28.13449999999989 183.3791500000001L27.69200000000069 181.2940500000002L9.895999999999958 174.35644999999965L9.850000000000136 174.21494999999993L13.363000000000511 162.26834999999994L19.986999999999853 154.5837499999999L21.188000000000784 153.16939999999988L24.822000000000344 153.4158500000001L30.57199999999966 145.12704999999983L34.20950000000062 143.37964999999997L39.84199999999987 143.3447000000001L45.832000000000335 140.54435000000012L47.30450000000019 142.28624999999965L53.37499999999977 141.6764999999998L56.78300000000036 140.1610999999997L59.20349999999985 135.16324999999995L61.95299999999975 132.10935000000006L63.13350000000014 124.04684999999972L67.30099999999993 120.13010000000008L68.03200000000061 116.36655000000019L66.74750000000017 113.07479999999998L69.0745000000004 108.30714999999998L75.17400000000066 105.68125000000009L79.45249999999987 101.91919999999982L79.16050000000041 96.27560000000017L83.55649999999969 91.49740000000008L85.09900000000016 87.36800000000017L87.92350000000056 77.57259999999974L85.2170000000001 70.14295000000004L82.59900000000016 67.62229999999988L83.8205000000005 64.26249999999982L89.70500000000015 62.175550000000044L94.42200000000071 58.09134999999969L96.51749999999993 54.69119999999975L94.89100000000008 46.6862500000002L96.9315000000006 43.09149999999988L98.72700000000009 42.460550000000126L98.2159999999999 28.464399999999728L100.09700000000066 24.614649999999756L100.2864999999997 16.08434999999986L100.52199999999971 13.050200000000132L100.47700000000077 11.090350000000058L102.42950000000064 11.067800000000148L107.66500000000065 13.643500000000017L113.26400000000035 1.0379499999999098L114.86700000000042 0L119.51149999999984 12.104099999999676L129.0994999999998 16.764699999999948L128.84500000000003 23.081399999999803L134.65000000000032 22.711850000000027L136.60550000000057 27.774299999999812L137.7845000000002 33.03569999999979L140.99699999999984 31.758899999999812L148.44450000000052 28.59215000000006L152.48100000000022 29.306700000000205L157.79750000000035 32.4615L165.86599999999976 31.10704999999996L167.7615000000003 29.41129999999987L170.5664999999999 25.584799999999746L174.8059999999998 24.938449999999648L180.46100000000024 18.873350000000073L183.6144999999999 21.42969999999991L186.84600000000046 21.02064999999982L189.84550000000013 25.58605L198.43950000000063 40.321500000000015L198.20249999999987 42.467399999999884L196.34900000000016 43.739400000000046L199.63300000000004 48.4537499999999L199.19200000000046 52.11990000000014L199.08050000000003 53.7337500000001L201.86649999999986 55.24495000000002L206.67149999999992 61.56119999999987L206.39549999999986 65.46794999999975L214.05750000000012 62.90689999999984L215.44899999999984 64.40954999999974L214.69400000000064 68.33849999999984L216.4760000000001 69.91094999999973L224.13450000000012 70.79470000000015L226.59700000000043 73.45084999999983L226.55550000000062 84.68169999999986L229.9840000000006 82.1783499999998L237.76200000000017 85.62635L238.69550000000004 97.60299999999972L244.8199999999997 103.04640000000006L239.9425000000008 107.0369999999997L234.9045000000001 118.7248999999997L228.72299999999996 127.33749999999986L227.5980000000004 131.27399999999966L223.55999999999995 130.33254999999997L219.7085000000004 134.98845000000017L223.7970000000007 144.5166999999998L226.39300000000048 156.90760000000012L217.0754999999997 162.39494999999977L210.70150000000012 156.56949999999995L206.66900000000055 157.33929999999987L207.22800000000007 161.4213000000001L212.0335 165.7922000000002L211.5280000000007 170.0272000000001L208.09200000000033 172.5476500000002L211.43100000000004 180.39825000000008L217.76550000000043 183.36610000000007L220.10650000000055 180.1351999999997L229.4315000000006 177.03305L232.55499999999984 171.33609999999976L231.6624999999999 164.90534999999966L233.03350000000023 163.2063999999997L237.20000000000027 161.96145L239.22950000000014 162.53964999999994L240.20899999999983 166.65970000000016L239.69900000000052 177.06174999999973L240.10099999999966 180.72114999999997L245.90850000000046 183.17034999999976L249.65450000000033 181.57579999999996L250.1679999999999 185.84000000000003L253.03549999999973 185.80319999999972L252.83999999999992 189.21555000000012L257.6755000000003 185.97710000000006L267.5554999999997 187.97154999999975L268.7940000000003 192.09279999999978L272.72249999999985 193.31545000000006L278.65850000000023 191.3948499999998L282.76050000000055 182.14679999999987L284.5474999999999 182.11749999999995L282.2154999999998 188.27009999999973L281.76649999999995 199.11144999999976L285.9220000000005 202.94164999999964L291.91400000000044 201.29635000000007L294.56199999999967 198.0946499999999L294.94950000000017 201.5274999999997L298.14300000000003 202.9210999999998L304.54150000000027 203.43129999999974L304.67899999999986 205.57545000000005L304.6289999999999 206.02210000000014L307.34350000000063 207.7749L307.1244999999999 211.2179500000002L309.3010000000004 213.89779999999973L299.4209999999998 223.2254499999999L303.2215000000008 223.87914999999964L316.7100000000005 232.56169999999997L311.0379999999998 240.3534000000002L310.21900000000073 248.29999999999984L317.62200000000007 255.4019999999997L321.47550000000024 256.1657500000001L322.0920000000001 270.08444999999995L325.65650000000005 272.2267999999997L330.7050000000004 269.29485L331.6044999999997 271.1779999999999L330.13450000000034 278.0781000000002L316.48750000000064 276.37369999999976L302.41550000000075 274.6474999999998L301.2779999999998 271.03129999999965L295.4155000000003 269.20905000000005L294.2345 265.68055000000015L292.8120000000001 262.03044999999975L290.2780000000007 264.9891500000001L286.60799999999995 265.1663500000001L277.0600000000002 279.7226999999998L278.7495000000001 288.29004999999995L268.7869999999998 285.70069999999987L268.0484999999999 283.7698499999999L263.6390000000006 285.1376499999998L264.1390000000001 287.0479L262.3829999999998 287.93025L254.69400000000064 288.0371500000001L252.10750000000075 293.5470499999997L250.2755000000002 294.68399999999974L240.2615000000003 291.50300000000016L237.38900000000058 288.33230000000015L231.76600000000008 293.7856499999998L214.50450000000046 279.6282500000001L208.68150000000014 274.9781999999999L209.20399999999972 271.3396499999999L206.14599999999996 268.8808L204.09099999999967 263.0502999999999L200.37149999999997 261.9128999999998L194.80750000000057 256.40960000000007L199.88349999999969 250.27454999999975L196.25549999999976 248.5408000000001L195.14400000000023 250.0213500000001L193.72650000000021 248.82945000000007L189.72350000000006 244.48249999999973L184.1624999999999 249.95855000000006L173.36900000000014 248.96444999999972z">
      <title id="t192">Troisième circonscription du Jura</title>
      <desc id="d192">Cantons de : Arbois, Chaussin, Chemin, Dampierre, Dole Nord-Est, Dole Sud-Ouest, Gendrey, Montbarrey, Montmirey-le-Château, Rochefort-sur-Nenon, Salins-les-Bains, Villers-Farlay</desc>
    </path></svg>