<svg xmlns="http://www.w3.org/2000/svg" version="1.1" xmlns:xlink="http://www.w3.org/1999/xlink" xmlns:svgjs="http://svgjs.dev/svgjs" width="706.1985000000004" height="616.7305500000003" fill="#eeeeee" stroke="#cccccc" xmlns:sodipodi="http://sodipodi.sourceforge.net/DTD/sodipodi-0.dtd"><path class="circo" id="id-040-01" d="M135.4525000000001 416.1990499999996L132.00400000000002 418.11454999999967L131.0695000000004 422.11904999999945L116.69600000000003 429.19955000000016L115.58700000000044 436.8055499999997L108.77200000000016 433.9700499999998L110.83550000000002 434.09654999999987L111.59899999999993 432.17105000000004L110.21000000000015 428.37804999999946L100.30150000000049 425.70604999999944L89.92250000000013 418.88954999999953L86.60750000000007 417.4730500000004L87.4935000000005 413.84055000000046L82.78050000000007 407.4825500000003L80.24249999999995 399.89404999999977L75.30349999999999 376.3645500000001L71.47550000000024 381.2225499999994L61.25150000000019 382.4445499999996L60.009000000000015 384.1080500000004L73.70600000000024 315.06055000000003L84.55650000000048 262.9290499999996L88.60900000000015 239.65655000000027L101.05850000000032 155.54505000000006L104.04600000000016 133.58254999999986L106.30100000000027 116.84255000000007L115.16800000000046 38.488399999999956L138.1495000000001 31.346449999999777L177.60450000000048 17.618249999999875L186.87800000000038 0L210.31499999999994 14.077800000000025L218.33900000000028 13.006249999999682L226.71700000000044 12.139649999999733L228.61050000000034 15.83584999999971L231.13550000000032 28.253599999999892L226.2820000000005 42.14670000000012L219.7855000000004 56.998499999999694L210.68150000000003 65.22069999999985L235.2215000000001 61.36545000000012L244.84650000000045 57.55445000000009L257.42800000000045 52.93344999999988L261.8180000000001 57.264599999999746L289.0590000000003 67.64144999999985L303.5235 66.57744999999977L310.39300000000026 62.051700000000096L316.4575000000002 62.00049999999976L317.321 55.903299999999945L319.0945000000005 54.86334999999997L339.1165000000001 50.43724999999995L351.10400000000027 53.304299999999785L356.6825 53.00489999999968L359.18600000000026 50.044300000000135L357.89649999999995 48.527349999999956L360.4355000000004 45.28059999999982L362.4995000000001 45.1733999999999L376.2670000000003 49.651999999999816L381.1515000000003 53.22454999999991L381.4685000000003 61.308950000000095L382.1115000000003 73.82164999999986L375.45450000000017 78.58985000000018L391.75850000000025 84.11504999999977L405.6280000000004 89.2915499999998L410.0765000000001 93.81604999999979L423.63650000000007 99.74604999999997L428.08550000000025 114.9285500000002L444.33100000000024 123.2585499999999L464.5490000000001 124.75205000000017L465.4905000000002 137.24454999999978L477.10800000000006 145.77054999999973L485.14200000000017 146.28505000000018L479.64800000000025 175.27654999999982L482.49450000000024 191.87254999999993L489.5935000000003 193.31455000000005L516.0894999999999 195.6815499999999L531.7940000000004 201.0430500000001L535.8020000000005 200.01705000000015L553.1185000000005 193.99954999999977L551.1145000000005 165.18455000000017L552.0320000000004 159.06855000000007L560.3360000000004 159.41354999999987L565.351 155.73904999999968L567.2515000000004 156.6190499999999L573.1290000000001 162.6045499999998L577.1755000000002 172.27055000000007L588.2920000000001 181.83355000000006L592.9865000000001 195.94605L593.1940000000003 225.6980500000003L599.3215000000004 226.28755000000012L602.7965 224.19704999999965L610.7915000000003 223.57805000000042L622.6455000000004 226.63605000000018L646.4755000000002 227.17405000000042L646.5820000000002 227.18604999999968L658.94 234.02504999999962L662.7890000000002 238.58405000000005L705.8015 242.40804999999966L704.1495000000003 245.50254999999936L706.1985000000004 250.88704999999948L700.7435000000004 253.84254999999996L690.9365000000003 264.55904999999973L692.3630000000003 268.43305000000043L685.2610000000004 278.0460499999998L680.4820000000001 297.6985499999995L677.7520000000004 300.62655000000007L673.682 301.1615499999999L674.5365000000004 305.1810500000005L674.8430000000002 315.1640500000002L680.4065000000003 325.82155L676.7900000000003 331.0785500000003L676.7450000000002 335.1645500000001L671.6425000000004 341.17755000000045L677.8145000000001 354.04605000000004L679.9970000000002 366.2360499999994L677.4475000000001 371.74405000000036L672.9995000000002 375.8520500000003L665.6400000000002 372.8295499999996L662.1875 374.90854999999954L654.862 367.61554999999987L639.4220000000001 357.6145500000001L650.4130000000004 348.2635499999998L650.4665 342.0945499999999L647.6780000000002 339.12705000000017L632.7140000000003 325.46854999999994L629.305 337.3235500000004L622.0155 340.41454999999985L616.0745000000003 348.5735500000004L614.1295000000002 349.2400500000002L608.7864999999999 346.5940500000005L606.1935 349.7855499999997L607.4935000000005 356.74555L604.4965000000002 358.8035499999995L594.7920000000005 349.2265500000002L590.6530000000004 353.47905000000026L584.8625000000004 351.7330499999997L581.1995000000002 356.32405000000006L577.4925000000002 357.6685500000002L572.8265000000005 353.8440499999996L562.8395 366.2605500000001L558.9745000000005 367.97504999999944L559.6040000000005 358.1490500000001L557.9215000000005 354.5395500000001L554.4670000000002 352.5700499999999L553.3620000000002 344.81605L547.2515000000004 347.9010499999998L544.642 345.2595500000001L544.6005000000002 343.20355000000006L536.3915000000003 334.3100499999997L522.1940000000001 326.1030499999998L520.6245000000001 331.95205000000044L513.9555000000001 336.50905000000023L509.22050000000013 345.4260500000004L501.4285000000001 346.8730499999998L499.57100000000025 356.4530499999995L497.0160000000004 361.5375499999999L491.6715000000005 363.03605000000005L492.40200000000016 364.88054999999974L489.17599999999993 371.95404999999994L491.50750000000016 375.11104999999986L489.80950000000007 378.4990499999998L491.25400000000013 384.0835499999997L485.6845000000004 384.6785500000004L484.8755 386.4235500000001L493.7375000000003 390.2175500000004L488.36450000000013 406.4295499999997L486.37400000000014 406.52004999999974L484.28200000000004 401.0150500000003L481.25350000000026 398.4910499999995L473.7900000000002 404.6855499999998L465.1215000000002 400.93755000000044L459.6520000000004 399.5040499999999L454.2080000000004 424.7090499999996L447.9450000000003 429.4575500000002L442.3770000000002 434.23854999999946L432.26950000000045 442.9085500000002L430.3740000000005 442.3515500000002L429.7615000000002 438.4335500000003L427.79650000000004 438.2190499999996L422.4765000000002 432.8030499999994L418.89400000000023 432.0090499999998L417.2935000000001 424.8240500000003L413.57349999999997 425.2305499999994L412.2655000000003 428.83354999999995L406.35850000000005 433.8390499999997L400.7340000000005 434.1845499999994L403.5910000000001 422.0700500000004L401.68450000000007 418.3675499999998L398.0125000000004 416.7035500000003L387.8905000000003 418.6800499999998L380.16650000000027 418.6110500000001L374.1730000000001 416.62255000000016L374.8025000000001 414.6715499999999L368.6020000000002 401.8100499999997L356.773 399.57955000000027L357.78850000000034 389.5530500000001L363.90800000000013 384.3160500000005L367.0440000000002 370.27004999999974L364.0625 368.2185499999997L356.63350000000037 370.88355000000035L354.80800000000045 367.50905000000046L343.96600000000035 359.05204999999967L349.2810000000003 351.7025499999994L355.48400000000015 346.07704999999953L357.85799999999995 329.77805000000046L360.6945000000002 324.28605000000005L360.179 314.21355000000005L356.3900000000001 304.7320499999995L347.76550000000043 290.3045500000002L332.4580000000003 287.67855L335.43650000000014 280.13004999999964L333.65049999999997 276.50604999999985L321.86300000000017 274.1160499999995L314.1305 264.6950499999997L297.7000000000004 266.9715500000001L291.72450000000026 264.14405000000045L289.0685000000002 269.85055000000045L287.0245 270.30805000000043L262.3320000000001 265.6930500000004L256.1805000000004 266.6825499999999L250.59650000000033 277.9165500000005L248.19500000000005 290.28255L239.06550000000038 288.2210500000002L242.73850000000039 278.61955000000023L246.02300000000014 276.3115499999998L252.82100000000014 256.92105000000026L246.23649999999998 249.0310500000004L190.4875000000004 235.88855000000024L183.65049999999997 260.1085500000005L175.6850000000003 269.86204999999984L174.54000000000008 273.7975499999999L177.2580000000005 276.9285499999995L185.29449999999997 278.66855000000044L186.63700000000006 280.28354999999976L189.50199999999995 288.1555499999996L188.69700000000023 294.38354999999945L190.13800000000003 298.3310499999999L188.78250000000037 304.47955000000036L185.36550000000034 305.3385499999996L176.0835000000003 315.98905L170.28750000000002 317.07555000000013L162.55899999999997 323.40705000000014L157.59500000000003 332.13254999999947L151.875 331.9830499999995L150.09000000000015 339.98054999999965L162.59299999999996 353.65155000000016L176.23500000000035 360.6790499999994L181.34299999999996 359.1355500000003L186.53250000000014 362.34354999999994L194.79200000000048 362.3190500000004L214.7215 368.30205000000035L209.94400000000041 384.3365499999999L203.33000000000027 412.0840500000003L192.72050000000036 414.72905000000026L169.97150000000033 410.9775499999995L161.5640000000002 411.3925499999999L149.24900000000036 414.1680500000001L140.15000000000043 419.08004999999946L135.4525000000001 416.1990499999996z">
      <title id="t193">Première circonscription des Landes</title>
      <desc id="d193">Cantons de : Castets, Gabarret, Labrit, Mimizan, Mont-de-Marsan Nord, Mont-de-Marsan Sud, Parentis-en-Born, Pissos, Roquefort, Sabres, Sore</desc>
    </path><path class="circo" id="id-040-02" d="M192.72050000000036 414.72905000000026L169.97150000000033 410.9775499999995L161.5640000000002 411.3925499999999L149.24900000000036 414.1680500000001L140.15000000000043 419.08004999999946L135.4525000000001 416.1990499999996L132.00400000000002 418.11454999999967L131.0695000000004 422.11904999999945L116.69600000000003 429.19955000000016L115.58700000000044 436.8055499999997L108.77200000000016 433.9700499999998L110.83550000000002 434.09654999999987L111.59899999999993 432.17105000000004L110.21000000000015 428.37804999999946L100.30150000000049 425.70604999999944L89.92250000000013 418.88954999999953L86.60750000000007 417.4730500000004L87.4935000000005 413.84055000000046L82.78050000000007 407.4825500000003L80.24249999999995 399.89404999999977L75.30349999999999 376.3645500000001L71.47550000000024 381.2225499999994L61.25150000000019 382.4445499999996L60.009000000000015 384.1080500000004L57.141000000000304 400.57605000000024L53.1310000000002 412.43205000000046L48.05900000000008 435.07705000000044L46.87850000000026 442.5570499999998L41.33700000000033 468.34355000000016L35.84450000000004 502.3670499999997L33.6930000000001 517.3375500000003L32.37099999999998 527.1370499999995L24.630999999999972 545.4075500000005L18.00550000000044 559.3775499999998L13.412500000000023 568.6920500000002L0 592.6400499999994L9.9675000000002 594.25455L19.236500000000092 587.0840500000003L26.07500000000016 590.6205500000004L25.17750000000035 600.3645499999999L28.998000000000275 599.5190499999995L40.78450000000032 602.8615499999995L45.56500000000028 611.8590499999999L47.02800000000025 611.68205L65.96900000000005 612.9625500000003L80.72699999999998 608.2020500000004L80.99750000000029 608.33505L86.04600000000005 607.1480500000001L99.23400000000015 610.9925500000003L112.63450000000034 602.3285500000003L116.59649999999999 600.1755499999996L130.59000000000026 592.1020500000003L136.42150000000015 586.4495500000004L139.93550000000027 583.0285499999997L137.94050000000027 579.7590499999995L131.2515000000002 575.4670500000003L130.9775000000002 573.4895499999999L132.7815000000004 572.6585500000004L140.44050000000027 572.2965500000004L140.976 570.3755499999994L137.44500000000016 566.06605L137.54700000000014 565.3995500000002L138.4005000000002 561.9340500000004L134.24350000000004 558.3550499999996L128.71500000000026 554.1625500000004L123.5145 548.2605499999994L125.56300000000022 536.0950499999996L133.91500000000008 527.9850500000003L135.87750000000028 524.6200500000003L140.13700000000028 519.9095500000004L143.9530000000002 518.8645500000001L153.40200000000038 521.7180500000001L157.99000000000035 518.1940500000002L162.20200000000034 516.7435500000005L161.24900000000025 522.10305L164.5780000000002 526.1665499999998L170.36900000000003 527.7090500000003L171.9425000000001 526.4355500000005L175.2955000000003 528.0385499999994L179.08900000000017 527.3740500000002L182.19100000000026 529.7475500000002L182.66500000000008 533.6110500000001L188.62150000000042 538.7130499999995L195.8680000000004 537.6555500000001L200.25750000000016 537.3180499999995L205.31900000000007 534.2485500000004L210.8710000000002 529.0855500000004L213.11200000000042 522.3455499999994L224.07050000000027 519.4315499999999L230.59750000000008 514.6750500000002L232.0675 506.87205000000006L239.12750000000017 510.0570499999998L242.90549999999996 508.5965500000003L240.68700000000035 498.5155500000002L242.78700000000015 496.29205000000013L236.58550000000048 488.70205L234.72650000000044 483.10104999999965L236.71500000000037 475.6885500000004L239.74450000000047 477.6660499999997L245.17449999999997 476.64555000000007L248.56899999999996 473.0200499999995L246.2435000000005 470.1265499999994L251.15150000000028 468.3540499999998L250.54850000000044 461.1065500000001L247.9105000000004 458.51905000000045L240.04500000000007 459.29055000000005L234.67700000000036 453.37405000000047L229.1715000000005 450.97455000000025L232.63250000000028 443.2890500000002L221.55100000000004 420.54754999999943L207.93800000000033 416.12104999999985L203.33000000000027 412.0840500000003L192.72050000000036 414.72905000000026z">
      <title id="t194">Deuxième circonscription des Landes</title>
      <desc id="d194">Cantons de : Dax Nord, Dax Sud, Saint-Martin-de-Seignanx, Saint-Vincent-de-Tyrosse, Soustons</desc>
    </path><path class="circo" id="id-040-03" d="M536.1545000000001 528.6705499999999L534.6215000000001 529.7180499999996L528.1855000000002 526.1145500000003L528.4399999999999 537.4685500000004L531.4825000000002 541.9890500000002L543.0215000000004 542.0385500000003L540.1305000000002 553.3375499999994L542.0535000000001 553.3640499999996L544.8775 560.2175500000004L543.0795 561.5645499999999L541.1270000000002 561.5820500000001L538.956 558.3325499999995L527.67 560.6985500000002L526.0390000000001 566.3090500000004L523.0070000000001 570.2340499999997L520.0710000000004 568.24455L519.88 571.6120499999994L518.039 575.1805499999995L505.05899999999997 580.0175499999995L499.8270000000002 577.1185499999996L497.8035 573.8245499999999L482.7420000000001 570.0750499999998L477.79300000000035 572.9885499999995L475.51350000000014 570.0490499999995L462.05100000000016 579.08705L456.9530000000003 580.8150499999994L452.3995000000002 572.2260499999999L457.1720000000005 569.7660500000001L464.6015 561.0610500000001L460.4830000000004 555.2325500000001L457.15750000000014 553.5970500000002L451.7915000000005 558.6845499999998L450.35000000000025 557.50655L432.32650000000035 569.4595499999997L432.4725000000001 569.9080499999997L430.15150000000006 573.2390500000002L424.7720000000004 576.1950499999995L413.1550000000004 584.7505499999994L411.2810000000002 584.9625499999996L409.34150000000045 579.1665500000005L407.07400000000007 575.9205500000002L393.06250000000034 587.3915500000004L386.9735000000003 587.9400500000003L386.74900000000036 583.8315500000004L379.78499999999997 580.4605499999997L378.7345000000005 578.3330499999994L374.8765000000003 578.9075499999996L368.4755000000001 575.0215499999996L375.63350000000014 566.1880500000001L366.99900000000014 569.7280499999994L355.3120000000001 576.65055L350.37750000000017 573.66555L347.34399999999994 576.1165499999998L347.0885000000004 585.8365499999996L341.56650000000013 585.7915499999996L338.44600000000014 583.5680499999995L336.09050000000025 577.3675499999996L320.6975 563.6300499999999L315.5985000000004 565.7985500000001L315.831 571.4365500000002L310.55600000000027 572.55155L306.65250000000015 577.1090499999997L299.1730000000001 574.1810500000003L290.0925000000001 578.3265499999999L289.8810000000003 584.5965499999994L284.3980000000005 585.4885499999995L280.8915000000002 584.1600499999998L277.70200000000045 583.4085499999998L268.2570000000004 580.5785499999996L260.48050000000046 581.7150499999997L257.42500000000007 584.22305L255.51000000000045 589.7590499999995L253.67250000000013 590.4785499999997L250.41950000000043 588.2385500000004L246.94150000000036 588.2595499999996L244.48000000000036 591.1455499999994L239.15200000000027 589.4010499999996L228.08950000000038 586.4855500000004L222.58550000000014 588.3810499999998L227.36450000000048 591.5240499999999L227.6890000000003 599.3170500000002L225.7220000000001 604.7490499999998L226.31200000000035 607.6860500000004L215.42400000000043 606.5515499999998L213.01000000000045 609.0455500000002L211.63550000000043 607.6795499999997L209.1855000000004 604.6010499999994L203.49400000000003 603.2730499999997L193.75 605.0955500000003L191.56000000000006 598.5195500000003L188.61300000000028 596.5705499999996L184.99700000000018 603.0790499999995L177.4580000000003 601.6555499999998L173.63350000000025 608.0385499999994L166.55650000000037 610.2195499999999L164.5825000000002 610.3980499999994L163.27150000000017 616.1095500000005L161.39499999999998 616.7305500000003L157.72700000000043 612.2690500000004L152.66099999999994 615.16055L150.96600000000024 614.1310500000003L150.89200000000005 611.7335499999996L150.04700000000014 606.9690499999996L152.9815000000002 605.1505500000002L164.6210000000002 604.3935500000003L167.38800000000026 601.8720500000001L166.10850000000028 598.2215500000001L157.62350000000026 592.8545500000001L155.2785 587.3850499999998L149.0440000000001 583.0560499999996L139.93550000000027 583.0285499999997L137.94050000000027 579.7590499999995L131.2515000000002 575.4670500000003L130.9775000000002 573.4895499999999L132.7815000000004 572.6585500000004L140.44050000000027 572.2965500000004L140.976 570.3755499999994L137.44500000000016 566.06605L137.54700000000014 565.3995500000002L138.4005000000002 561.9340500000004L134.24350000000004 558.3550499999996L128.71500000000026 554.1625500000004L123.5145 548.2605499999994L125.56300000000022 536.0950499999996L133.91500000000008 527.9850500000003L135.87750000000028 524.6200500000003L140.13700000000028 519.9095500000004L143.9530000000002 518.8645500000001L153.40200000000038 521.7180500000001L157.99000000000035 518.1940500000002L162.20200000000034 516.7435500000005L161.24900000000025 522.10305L164.5780000000002 526.1665499999998L170.36900000000003 527.7090500000003L171.9425000000001 526.4355500000005L175.2955000000003 528.0385499999994L179.08900000000017 527.3740500000002L182.19100000000026 529.7475500000002L182.66500000000008 533.6110500000001L188.62150000000042 538.7130499999995L195.8680000000004 537.6555500000001L200.25750000000016 537.3180499999995L205.31900000000007 534.2485500000004L210.8710000000002 529.0855500000004L213.11200000000042 522.3455499999994L224.07050000000027 519.4315499999999L230.59750000000008 514.6750500000002L232.0675 506.87205000000006L239.12750000000017 510.0570499999998L242.90549999999996 508.5965500000003L240.68700000000035 498.5155500000002L242.78700000000015 496.29205000000013L236.58550000000048 488.70205L234.72650000000044 483.10104999999965L236.71500000000037 475.6885500000004L239.74450000000047 477.6660499999997L245.17449999999997 476.64555000000007L248.56899999999996 473.0200499999995L246.2435000000005 470.1265499999994L251.15150000000028 468.3540499999998L250.54850000000044 461.1065500000001L247.9105000000004 458.51905000000045L240.04500000000007 459.29055000000005L234.67700000000036 453.37405000000047L229.1715000000005 450.97455000000025L232.63250000000028 443.2890500000002L221.55100000000004 420.54754999999943L207.93800000000033 416.12104999999985L203.33000000000027 412.0840500000003L209.94400000000041 384.3365499999999L214.7215 368.30205000000035L194.79200000000048 362.3190500000004L186.53250000000014 362.34354999999994L181.34299999999996 359.1355500000003L176.23500000000035 360.6790499999994L162.59299999999996 353.65155000000016L150.09000000000015 339.98054999999965L151.875 331.9830499999995L157.59500000000003 332.13254999999947L162.55899999999997 323.40705000000014L170.28750000000002 317.07555000000013L176.0835000000003 315.98905L185.36550000000034 305.3385499999996L188.78250000000037 304.47955000000036L190.13800000000003 298.3310499999999L188.69700000000023 294.38354999999945L189.50199999999995 288.1555499999996L186.63700000000006 280.28354999999976L185.29449999999997 278.66855000000044L177.2580000000005 276.9285499999995L174.54000000000008 273.7975499999999L175.6850000000003 269.86204999999984L183.65049999999997 260.1085500000005L190.4875000000004 235.88855000000024L246.23649999999998 249.0310500000004L252.82100000000014 256.92105000000026L246.02300000000014 276.3115499999998L242.73850000000039 278.61955000000023L239.06550000000038 288.2210500000002L248.19500000000005 290.28255L250.59650000000033 277.9165500000005L256.1805000000004 266.6825499999999L262.3320000000001 265.6930500000004L287.0245 270.30805000000043L289.0685000000002 269.85055000000045L291.72450000000026 264.14405000000045L297.7000000000004 266.9715500000001L314.1305 264.6950499999997L321.86300000000017 274.1160499999995L333.65049999999997 276.50604999999985L335.43650000000014 280.13004999999964L332.4580000000003 287.67855L347.76550000000043 290.3045500000002L356.3900000000001 304.7320499999995L360.179 314.21355000000005L360.6945000000002 324.28605000000005L357.85799999999995 329.77805000000046L355.48400000000015 346.07704999999953L349.2810000000003 351.7025499999994L343.96600000000035 359.05204999999967L354.80800000000045 367.50905000000046L356.63350000000037 370.88355000000035L364.0625 368.2185499999997L367.0440000000002 370.27004999999974L363.90800000000013 384.3160500000005L357.78850000000034 389.5530500000001L356.773 399.57955000000027L368.6020000000002 401.8100499999997L374.8025000000001 414.6715499999999L374.1730000000001 416.62255000000016L380.16650000000027 418.6110500000001L387.8905000000003 418.6800499999998L398.0125000000004 416.7035500000003L401.68450000000007 418.3675499999998L403.5910000000001 422.0700500000004L400.7340000000005 434.1845499999994L406.35850000000005 433.8390499999997L412.2655000000003 428.83354999999995L413.57349999999997 425.2305499999994L417.2935000000001 424.8240500000003L418.89400000000023 432.0090499999998L422.4765000000002 432.8030499999994L427.79650000000004 438.2190499999996L429.7615000000002 438.4335500000003L430.3740000000005 442.3515500000002L432.26950000000045 442.9085500000002L442.3770000000002 434.23854999999946L447.9450000000003 429.4575500000002L454.2080000000004 424.7090499999996L459.6520000000004 399.5040499999999L465.1215000000002 400.93755000000044L473.7900000000002 404.6855499999998L481.25350000000026 398.4910499999995L484.28200000000004 401.0150500000003L486.37400000000014 406.52004999999974L488.36450000000013 406.4295499999997L493.7375000000003 390.2175500000004L484.8755 386.4235500000001L485.6845000000004 384.6785500000004L491.25400000000013 384.0835499999997L489.80950000000007 378.4990499999998L491.50750000000016 375.11104999999986L489.17599999999993 371.95404999999994L492.40200000000016 364.88054999999974L491.6715000000005 363.03605000000005L497.0160000000004 361.5375499999999L499.57100000000025 356.4530499999995L501.4285000000001 346.8730499999998L509.22050000000013 345.4260500000004L513.9555000000001 336.50905000000023L520.6245000000001 331.95205000000044L522.1940000000001 326.1030499999998L536.3915000000003 334.3100499999997L544.6005000000002 343.20355000000006L544.642 345.2595500000001L547.2515000000004 347.9010499999998L553.3620000000002 344.81605L554.4670000000002 352.5700499999999L557.9215000000005 354.5395500000001L559.6040000000005 358.1490500000001L558.9745000000005 367.97504999999944L555.906 370.3900500000003L553.0605000000003 367.86054999999976L551.2055000000004 368.47354999999936L549.1425000000004 373.9620499999995L545.9739999999999 376.10555000000033L549.4120000000004 380.18755L553.073 379.36255000000017L556.447 381.2270499999994L559.0860000000004 383.5250500000001L562.5605000000002 383.4685499999995L565.6355000000002 385.69654999999955L569.1520000000003 394.42205L567.7950000000004 395.2940499999994L564.9440000000004 393.60454999999945L561.2909999999999 398.25054999999963L559.298 399.85555000000033L565.8805000000001 410.2615499999996L567.4005 413.9835499999998L564.6380000000005 416.6795499999995L565.333 428.40755L557.715 428.3680499999997L556.2835000000001 426.4480499999996L551.6275000000002 429.3175500000001L555.1585 435.83905000000016L553.6795000000001 441.43054999999947L556.782 444.0605499999998L556.4190000000002 450.07604999999955L559.7755000000001 457.57705000000044L559.1740000000004 459.54654999999946L557.1620000000001 459.9305499999997L555.0665000000004 463.06854999999985L564.4960000000003 465.14804999999967L565.573 470.9000499999996L553.6335000000003 481.5730500000001L542.9465000000005 487.23405000000014L545.5665000000005 496.9735499999996L539.9015000000003 502.8815500000002L538.9800000000002 506.8895500000002L540.1670000000001 508.57055L546.198 509.5700500000004L544.6910000000003 513.8495500000005L543.4160000000003 519.1450500000002L537.9240000000004 520.19205L536.8170000000003 523.25355L536.1545000000001 528.6705499999999z">
      <title id="t195">Troisième circonscription des Landes</title>
      <desc id="d195">Cantons de : Aire-sur-l'Adour, Amou, Geaune, Grenade-sur-l'Adour, Hagetmau, Montfort-en-Chalosse, Morcenx, Mugron, Peyrehorade, Pouillon, Saint-Sever, Tartas Est, Tartas Ouest, Villeneuve-de-Marsan</desc>
    </path></svg>