<svg xmlns="http://www.w3.org/2000/svg" version="1.1" xmlns:xlink="http://www.w3.org/1999/xlink" xmlns:svgjs="http://svgjs.dev/svgjs" width="708.6775" height="597.3500000000001" fill="#eeeeee" stroke="#cccccc" xmlns:sodipodi="http://sodipodi.sourceforge.net/DTD/sodipodi-0.dtd"><path class="circo" id="id-041-01" d="M294.03999999999996 372.00355L290.9389999999996 364.3380000000002L288.06600000000003 354.51689999999985L286.37549999999976 348.62109999999973L284.6600000000001 344.7105499999998L276.6730000000001 341.89865L275.9134999999998 335.7534499999997L271.1340000000001 341.8588999999997L253.6529999999999 332.95844999999986L260.05150000000015 322.4847999999997L254.12049999999965 316.61474999999996L264.38350000000014 310.3645499999999L270.7004999999998 305.0065999999998L271.51700000000005 298.7447500000002L286.1619999999999 300.1834500000001L293.7110000000001 304.02739999999994L293.879 303.96680000000003L297.79150000000016 302.35344999999995L307.50699999999995 298.2739499999997L318.0385000000001 290.5881499999998L329.1334999999998 281.41999999999996L331.0404999999997 280.46535000000006L333.476 283.97249999999985L337.52549999999985 285.28689999999983L339.42549999999983 291.16944999999987L343.65650000000016 291.4118500000001L346.669 294.43569999999966L344.8969999999997 297.83540000000016L340.96900000000005 304.8917499999999L341.52949999999976 308.77110000000016L353.0419999999998 316.4639999999997L355.5464999999998 312.9161499999998L356.84849999999983 310.9134L365.3739999999999 304.23434999999984L374.22799999999995 304.10559999999975L378.0770000000001 311.3461000000001L376.0789999999997 314.8941500000001L377.72099999999966 320.7499999999999L368.159 327.8575999999998L365.15199999999993 330.61834999999974L365.1589999999999 336.42409999999984L357.2859999999997 338.53309999999965L352.9415 338.81924999999967L352.28200000000015 340.9035L351.90650000000005 351.76379999999995L352.34550000000013 353.90454999999974L354.4489999999996 354.46334999999976L351.9364999999999 358.0534L352.82449999999983 366.7903000000001L344.49900000000014 369.02895L357.0925 380.12175000000013L363.36749999999995 379.7302000000002L374.99300000000005 375.5280499999998L377.8834999999998 383.5762L379.74699999999984 384.6902499999999L388.3924999999999 384.81799999999964L393.25049999999976 388.698L399.7120000000001 388.40035L402.3044999999996 391.9942500000002L402.78549999999996 400.86185L393.168 418.42640000000017L390.9974999999997 424.2073499999998L384.1489999999999 431.6729499999997L397.51149999999996 434.5814999999999L396.4949999999999 438.72524999999996L388.3224999999999 448.5364499999997L386.47850000000005 456.7947499999997L383.12599999999975 463.0442999999997L385.95349999999996 465.5847L383.33799999999997 469.11749999999984L367.11250000000007 480.19495000000006L346.65599999999984 473.1232L333.4235000000001 477.3795000000001L323.70299999999986 469.73275L318.04550000000006 469.75030000000004L313.7959999999998 478.47154999999987L319.3254999999999 487.4282999999997L319.03700000000015 491.64319999999975L321.21350000000007 495.2573000000001L310.33199999999965 500.70805000000007L300.65150000000017 508.1338499999998L294.8404999999997 505.9679L292.44849999999985 502.63284999999996L288.3375000000001 510.25570000000016L288.6435 525.4503999999997L286.3254999999998 531.5729499999998L281.9200000000001 536.3598999999999L280.0065000000001 533.2710500000002L273.2909999999998 529.7714000000002L270.04250000000013 530.8886999999999L269.8705000000001 532.9971999999998L262.1965 535.8862499999998L255.9069999999997 535.5680000000001L252.37799999999993 533.2634999999999L247.24999999999966 543.5372000000001L234.13849999999968 529.5439499999998L224.32649999999967 527.1206000000001L218.68499999999983 508.23289999999986L223.55549999999994 506.63639999999987L227.58350000000007 494.70714999999984L230.3985 491.58990000000017L223.79700000000014 484.0073000000001L224.02099999999962 480.41394999999966L230.15899999999988 473.65425000000016L229.53550000000007 467.33765000000005L226.5625 464.3503499999997L225.34449999999993 457.9735499999998L214.50499999999977 444.74575000000016L227.14499999999987 445.0234499999999L235.05299999999977 432.64144999999985L231.5469999999999 430.61390000000017L226.34749999999997 421.9761999999997L244.39700000000016 414.76560000000006L249.39599999999984 413.70349999999974L268.4559999999999 405.33124999999984L278.3465000000001 404.7682500000002L282.94899999999984 400.2138500000001L286.6044999999997 387.22665000000006L296.80799999999977 378.4441499999997L299.7710000000001 374.3551500000001L294.03999999999996 372.00355z">
      <title id="t196">Première circonscription du Loir-et-Cher</title>
      <desc id="d196">Cantons de : Blois I, Blois II, Blois III, Blois IV, Blois V, Contres, Montrichard, Vineuil</desc>
    </path><path class="circo" id="id-041-02" d="M384.1489999999999 431.6729499999997L390.9974999999997 424.2073499999998L393.168 418.42640000000017L402.78549999999996 400.86185L402.3044999999996 391.9942500000002L399.7120000000001 388.40035L393.25049999999976 388.698L388.3924999999999 384.81799999999964L379.74699999999984 384.6902499999999L377.8834999999998 383.5762L374.99300000000005 375.5280499999998L363.36749999999995 379.7302000000002L357.0925 380.12175000000013L344.49900000000014 369.02895L352.82449999999983 366.7903000000001L351.9364999999999 358.0534L354.4489999999996 354.46334999999976L352.34550000000013 353.90454999999974L351.90650000000005 351.76379999999995L352.28200000000015 340.9035L352.9415 338.81924999999967L357.2859999999997 338.53309999999965L365.1589999999999 336.42409999999984L365.15199999999993 330.61834999999974L368.159 327.8575999999998L377.72099999999966 320.7499999999999L376.0789999999997 314.8941500000001L378.0770000000001 311.3461000000001L374.22799999999995 304.10559999999975L378.2605000000001 303.26584999999966L389.87449999999967 299.0545500000002L393.10299999999984 293.96484999999984L408.331 286.40049999999974L409.4139999999999 280.89594999999974L418.80499999999984 277.83545000000004L425.09349999999984 272.0484499999998L421.5825000000001 261.85419999999965L426.0964999999999 257.77980000000014L441.62049999999965 249.54610000000002L445.81500000000005 236.94315000000017L457.04949999999997 244.66489999999965L464.4599999999997 249.53975000000014L473.24749999999995 249.97900000000016L481.09199999999987 253.87740000000008L481.43249999999966 260.52054999999996L487.8075000000001 274.7564L484.11549999999977 277.05625L488.6664999999999 284.1498999999999L492.89549999999963 298.5649000000001L495.73849999999993 301.77989999999966L508.3819999999997 304.23369999999977L510.1229999999998 305.50689999999975L509.3275 309.7330999999997L516.0224999999997 314.79764999999986L519.4734999999997 312.04184999999995L520.2855 307.69675000000007L523.2319999999999 304.46019999999976L537.67 300.13300000000015L536.309 293.7963500000001L536.9740000000002 285.0419499999998L537.4694999999997 282.88659999999993L541.524 281.1674499999998L543.483 280.26959999999974L545.1179999999999 281.6725500000001L544.9489999999997 288.04554999999993L546.3714999999996 289.6672000000001L556.9594999999998 288.5215499999998L560.4840000000002 291.0009500000001L566.8279999999999 290.58875L572.5964999999997 288.23114999999973L576.6859999999997 288.63580000000013L578.7619999999998 298.5787499999998L584.8314999999997 298.4752500000002L588.5039999999998 300.42010000000005L595.6874999999997 296.23684999999966L601.3554999999997 297.0440500000001L603.6079999999998 291.1012999999997L607.1755000000002 288.71530000000007L630.8614999999998 290.3520500000002L635.0675000000001 285.7508999999999L647.5200000000001 288.7772000000001L649.1789999999997 292.75244999999984L651.2479999999999 293.42269999999985L657.7494999999999 288.20780000000013L661.9659999999999 288.88890000000004L666.7959999999999 292.95000000000016L675.4660000000001 292.77769999999975L689.9514999999997 288.02599999999984L690.9735000000001 289.3850500000002L691.2624999999997 297.8807999999998L697.1010000000001 296.6975500000001L705.6869999999998 311.5561500000001L705.0515000000001 324.34685L700.6155000000001 324.9401999999998L687.2174999999999 332.8777500000001L669.8079999999999 336.9126L662.0745 344.6210500000001L654.2034999999998 348.31549999999993L657.6585 356.5176500000001L656.5884999999997 365.06854999999973L659.2219999999998 368.6334999999997L685.7394999999997 369.97225000000014L687.3485 371.51430000000005L694.5439999999996 387.68854999999974L686.7149999999998 408.15094999999985L696.6480000000001 403.4077000000002L703.2585 402.83334999999965L708.6775 405.7425999999998L704.6265 420.0756000000001L707.5079999999997 425.72990000000004L704.8084999999998 431.36874999999975L708.2330000000002 436.7559L706.9549999999998 454.08029999999997L701.3004999999998 458.6637000000002L690.4374999999999 459.5742999999999L683.3879999999999 440.96844999999973L661.4785 459.42169999999976L652.2589999999997 449.9007999999998L653.0779999999999 456.6088500000001L647.0479999999998 468.65545L644.6449999999999 484.22754999999995L650.7195000000002 482.52004999999997L652.1170000000001 484.09764999999993L657.2334999999998 497.64655000000005L654.1255000000001 505.1627000000002L658.0079999999998 506.61569999999983L660.7679999999999 512.49595L666.2795 515.8670000000001L670.1740000000001 525.9887499999996L662.8460000000001 530.2370000000002L659.8649999999998 537.9079999999999L651.945 539.1690999999997L649.5004999999998 535.81795L643.4215 535.2785499999999L634.5474999999999 535.7315L614.8064999999997 545.9805999999998L613.8079999999997 547.9773L609.9939999999998 545.9555499999999L601.9414999999998 547.5795999999997L593.1644999999997 541.3033999999999L593.107 541.2194999999997L578.4659999999997 532.3487L570.6594999999999 542.6695999999998L570.523 548.7676999999996L558.9659999999998 554.4363499999997L557.6479999999998 558.2263999999998L564.9284999999998 561.3317499999999L567.5284999999997 567.34375L564.4184999999999 575.6644999999997L562.0585 579.2518999999999L550.3980000000001 584.3059999999997L540.9434999999996 575.8910500000002L534.9894999999998 576.6544999999996L524.5940000000002 569.9687999999998L516.6044999999997 565.0684000000001L514.5139999999998 568.7358L508.22749999999985 569.0976L497.1485000000001 559.1266999999999L482.6029999999997 540.6456500000002L476.0654999999997 548.62615L461.302 551.8783000000002L455.1099999999997 550.0277499999999L454.3995000000001 543.9888000000002L445.951 542.14405L441.7874999999998 543.2715999999999L438.5159999999996 540.44645L436.6289999999998 541.5176500000001L430.4609999999997 542.1521999999999L430.3539999999998 552.6204000000001L417.68699999999967 550.2839L401.0575 554.0988499999997L403.4114999999997 557.6854500000002L402.3570000000001 563.8383499999998L404.7825 569.8010999999997L405.5169999999998 573.97425L402.8035 576.69015L401.3749999999999 572.6882L392.3665 567.1321999999998L390.74599999999975 568.4992L383.62449999999967 564.5325500000001L379.4069999999999 564.3829499999998L370.9604999999999 564.3335000000002L357.3894999999999 570.4870499999998L352.4525 577.8390000000002L345.3339999999997 583.2962499999996L327.90899999999965 592.5511999999998L321.5039999999999 592.3479500000002L317.20799999999997 597.3500000000001L315.2369999999996 592.5655999999998L307.054 576.2120499999997L303.6484999999999 566.2145499999997L300.7655 563.0865L295.2785 553.67865L290.98900000000015 552.9102999999998L281.2880000000001 541.3265999999999L281.7705000000001 539.7423499999996L281.9200000000001 536.3598999999999L286.3254999999998 531.5729499999998L288.6435 525.4503999999997L288.3375000000001 510.25570000000016L292.44849999999985 502.63284999999996L294.8404999999997 505.9679L300.65150000000017 508.1338499999998L310.33199999999965 500.70805000000007L321.21350000000007 495.2573000000001L319.03700000000015 491.64319999999975L319.3254999999999 487.4282999999997L313.7959999999998 478.47154999999987L318.04550000000006 469.75030000000004L323.70299999999986 469.73275L333.4235000000001 477.3795000000001L346.65599999999984 473.1232L367.11250000000007 480.19495000000006L383.33799999999997 469.11749999999984L385.95349999999996 465.5847L383.12599999999975 463.0442999999997L386.47850000000005 456.7947499999997L388.3224999999999 448.5364499999997L396.4949999999999 438.72524999999996L397.51149999999996 434.5814999999999L384.1489999999999 431.6729499999997z">
      <title id="t197">Deuxième circonscription du Loir-et-Cher</title>
      <desc id="d197">Cantons de : Bracieux, Lamotte-Beuvron, Mennetou-sur Cher, Neung-sur-Beuvron, Romorantin-Lanthenay Nord, Romorantin-Lanthenay Sud, Saint-Aignan, Salbris, Selles-sur-Cher</desc>
    </path><path class="circo" id="id-041-03" d="M229.4319999999999 59.0313500000002L227.57299999999987 51.144350000000145L223.68049999999982 45.84630000000004L226.0714999999999 33.164899999999875L208.72250000000008 35.54339999999968L205.94299999999976 29.96544999999969L192.78750000000002 29.96544999999969L188.61800000000017 28.534549999999967L182.36999999999966 30.98275000000001L176.53750000000002 27.717549999999846L175.11149999999986 23.503900000000044L181.26300000000015 17.160749999999894L197.2800000000001 9.08664999999985L198.38549999999998 7.122600000000148L195.2774999999997 1.1360500000000684L190.95199999999977 0L182.1629999999999 0.7144999999997026L176.34649999999965 3.91680000000008L159.27999999999997 20.59500000000014L155.16999999999996 22.23115000000007L154.58300000000008 13.022750000000087L148.2869999999997 13.44539999999995L141.51849999999968 18.254200000000083L131.1545000000001 19.458349999999882L123.77799999999979 15.537699999999859L110.88649999999973 18.954299999999762L107.41049999999973 21.54769999999985L100.97899999999981 22.37815000000012L100.23300000000006 24.317800000000034L106.2394999999998 26.540449999999964L112.49849999999981 25.503249999999866L111.65399999999977 38.309150000000045L107.70399999999995 39.997849999999744L94.88249999999994 38.97319999999979L90.81649999999968 40.34704999999974L92.73699999999963 44.12354999999991L91.19249999999965 54.65894999999989L92.32799999999997 60.81304999999986L96.40649999999994 61.20844999999974L99.0134999999998 64.49504999999988L109.62600000000009 63.76100000000008L110.60850000000016 72.38965000000007L108.57349999999997 78.67444999999975L106.35499999999979 86.99304999999981L102.03199999999981 92.08064999999976L103.72050000000002 96.07529999999997L112.73799999999994 113.74869999999987L113.92999999999972 120.07445000000018L112.57650000000012 121.81354999999996L100.31749999999988 126.20045000000005L98.56299999999976 130.0869499999999L97.85300000000007 142.71315000000016L100.52399999999977 153.11804999999993L98.99499999999989 154.60375L92.46249999999975 149.22795000000008L90.84949999999992 143.22294999999997L87.84249999999986 140.4869500000001L79.79749999999967 147.05039999999997L76.28899999999987 149.14744999999982L75.23799999999994 157.64655000000005L77.93299999999988 167.86175000000014L76.01349999999968 173.77354999999966L82.25549999999998 179.20804999999973L82.41899999999987 185.63519999999983L79.94399999999985 191.58244999999965L75.93849999999975 190.01485000000002L71.13699999999994 193.65200000000016L67.98650000000009 203.32245L65.22850000000005 206.39869999999974L56.317999999999984 217.28700000000003L55.923500000000104 219.3599999999998L52.006000000000085 217.8171500000002L49.984999999999786 218.4054500000002L47.360499999999774 221.68900000000008L47.04650000000015 223.77689999999973L51.986499999999864 230.4545999999999L49.74299999999971 233.91905000000008L40.235999999999876 231.0211499999997L30.126999999999953 239.6565499999997L29.732999999999947 239.77604999999983L19.557499999999663 242.0341000000002L16.823999999999728 245.30959999999993L15.995499999999652 251.33834999999976L12.90050000000008 254.24329999999998L13.297999999999774 256.70630000000017L12.076000000000136 258.50134999999966L5.851999999999862 259.9317500000001L0.08199999999987995 266.3772L0 266.6640000000001L4.390999999999963 271.1989999999997L5.7664999999997235 279.32815000000005L8.19250000000011 282.6884000000001L10.296000000000163 282.8917000000001L14.499500000000012 278.1353999999999L20.59849999999983 269.40969999999993L24.843999999999937 269.35029999999983L30.450999999999908 275.4440999999997L27.3984999999999 283.3588500000002L31.426500000000033 284.46619999999996L40.14599999999973 275.1049999999998L48.186000000000035 282.35059999999976L56.03250000000003 285.96490000000017L59.11999999999978 280.7929999999999L66.01949999999988 277.2962000000001L87.91650000000004 286.58799999999985L94.46950000000015 287.4900500000001L98.37549999999965 285.70989999999995L107.89099999999962 289.0447999999998L112.19150000000013 285.9251499999999L121.1205000000001 281.21415000000013L122.01899999999966 283.0141500000002L119.32149999999979 285.5489L119.72399999999993 289.1073L118.59299999999962 295.4921999999999L112.36999999999966 309.1269L119.84499999999969 316.6588999999999L118.59049999999968 320.7474500000001L114.94449999999972 323.0214000000001L115.7869999999997 329.4419499999998L117.87899999999979 330.00999999999976L118.94549999999981 336.3887999999997L120.68949999999973 337.68095000000017L135.51099999999963 335.2277499999997L133.8684999999998 329.4249500000001L137.60350000000017 327.50324999999975L144.2025000000001 316.9200000000001L151.7410000000001 319.6520499999997L157.82399999999996 321.08295L163.61049999999977 318.92870000000016L166.80499999999995 323.8594499999999L174.88149999999962 324.94714999999985L171.95799999999963 334.84199999999987L173.125 343.1376L177.10350000000005 347.67155L179.95349999999974 347.42324999999994L183.7009999999998 335.8152000000001L188.56349999999964 332.06579999999974L192.5464999999997 333.15195000000017L203.83100000000013 352.38625000000013L205.3989999999999 358.9044000000001L211.09800000000007 354.9302L210.9084999999999 361.57629999999983L198.5820000000001 377.3417999999998L197.51149999999996 380.6725499999999L207.62549999999976 388.2889499999999L207.6355000000001 398.65745000000004L213.04499999999962 407.9559499999999L218.2144999999997 419.1035999999997L214.92449999999963 422.8859L215.394 424.54994999999997L226.34749999999997 421.9761999999997L244.39700000000016 414.76560000000006L249.39599999999984 413.70349999999974L268.4559999999999 405.33124999999984L278.3465000000001 404.7682500000002L282.94899999999984 400.2138500000001L286.6044999999997 387.22665000000006L296.80799999999977 378.4441499999997L299.7710000000001 374.3551500000001L294.03999999999996 372.00355L290.9389999999996 364.3380000000002L288.06600000000003 354.51689999999985L286.37549999999976 348.62109999999973L284.6600000000001 344.7105499999998L276.6730000000001 341.89865L275.9134999999998 335.7534499999997L271.1340000000001 341.8588999999997L253.6529999999999 332.95844999999986L260.05150000000015 322.4847999999997L254.12049999999965 316.61474999999996L264.38350000000014 310.3645499999999L270.7004999999998 305.0065999999998L271.51700000000005 298.7447500000002L286.1619999999999 300.1834500000001L293.7110000000001 304.02739999999994L293.879 303.96680000000003L297.79150000000016 302.35344999999995L307.50699999999995 298.2739499999997L318.0385000000001 290.5881499999998L329.1334999999998 281.41999999999996L331.0404999999997 280.46535000000006L333.476 283.97249999999985L337.52549999999985 285.28689999999983L339.42549999999983 291.16944999999987L343.65650000000016 291.4118500000001L346.669 294.43569999999966L344.8969999999997 297.83540000000016L340.96900000000005 304.8917499999999L341.52949999999976 308.77110000000016L353.0419999999998 316.4639999999997L355.5464999999998 312.9161499999998L356.84849999999983 310.9134L365.3739999999999 304.23434999999984L374.22799999999995 304.10559999999975L378.2605000000001 303.26584999999966L389.87449999999967 299.0545500000002L393.10299999999984 293.96484999999984L408.331 286.40049999999974L409.4139999999999 280.89594999999974L418.80499999999984 277.83545000000004L425.09349999999984 272.0484499999998L421.5825000000001 261.85419999999965L426.0964999999999 257.77980000000014L426.20949999999993 255.5481500000002L432.51949999999965 249.3766999999997L431.84699999999964 247.2607499999998L411.20000000000005 230.53994999999986L421.1595 219.5181500000001L418.45699999999965 216.67399999999986L420.73049999999967 213.34689999999966L408.2405 200.50284999999974L402.42549999999994 199.04459999999972L404.2135000000002 193.1651499999998L406.1084999999997 186.88895000000002L411.6384999999997 183.8114999999999L426.41899999999964 167.9086000000001L428.55099999999993 162.13829999999973L424.4799999999998 154.90419999999972L424.53100000000006 145.69999999999993L413.6469999999997 134.7739999999999L401.6825 129.47549999999978L400.4939999999999 127.72794999999974L402.0285000000001 119.62459999999965L414.65899999999976 112.85075000000006L410.8555000000001 111.01855L411.2149999999997 108.90440000000012L418.27 101.54744999999991L418.42600000000004 90.97759999999994L406.7719999999997 92.52389999999991L403.5469999999998 95.30449999999973L399.42999999999984 95.73624999999993L388.20600000000013 92.48514999999998L382.5905 86.11659999999972L372.02949999999987 79.11850000000015L365.9694999999999 77.09384999999997L362.23450000000014 79.06644999999969L363.9929999999998 80.3579000000002L362.86 86.76634999999976L365.2080000000001 95.15654999999981L364.20349999999985 99.40544999999986L351.47249999999985 103.21514999999977L342.82749999999965 96.36804999999981L338.3600000000001 103.56299999999976L335.6324999999998 113.84579999999971L327.00099999999964 107.69024999999999L322.12699999999984 111.30029999999977L309.5429999999999 113.83629999999982L305.6959999999998 104.6980000000002L291.16899999999987 108.06089999999983L289.1305 104.46059999999989L287.50249999999994 100.38759999999968L283.77700000000004 98.0874L273.0099999999999 99.95204999999999L265.5899999999997 104.39459999999997L259.7589999999997 102.28259999999977L263.3744999999999 99.91334999999992L263.5759999999999 97.74900000000002L260.63350000000014 94.63840000000005L258.1579999999997 84.10250000000019L252.38499999999988 81.17104999999981L250.4359999999997 80.2328L247.1645000000001 73.1374999999997L249.39599999999984 67.8176000000002L247.90750000000003 66.34765000000016L239.54399999999964 66.22374999999977L235.02200000000016 62.89215000000013L231.44900000000007 62.06140000000005L229.4319999999999 59.0313500000002z">
      <title id="t198">Troisième circonscription du Loir-et-Cher</title>
      <desc id="d198">Cantons de : Droué, Herbault, Marchenoir, Mer, Mondoubleau, Montoire-sur-le-Loir, Morée, Ouzouer-le-Marché, Saint-Amand-Longpré, Savigny-sur-Braye, Selommes, Vendôme I, Vendôme II</desc>
    </path></svg>