<svg xmlns="http://www.w3.org/2000/svg" version="1.1" xmlns:xlink="http://www.w3.org/1999/xlink" xmlns:svgjs="http://svgjs.dev/svgjs" width="453.30134999999984" height="635.7745999999997" fill="#eeeeee" stroke="#cccccc" xmlns:sodipodi="http://sodipodi.sourceforge.net/DTD/sodipodi-0.dtd"><path class="circo" id="id-042-01" d="M291.5673499999997 511.4018999999996L287.76234999999986 507.9690999999997L284.3843499999997 511.4635999999996L285.9448500000002 514.6587499999998L284.38784999999996 518.2748499999997L282.82385000000033 521.9668999999999L279.71235000000036 524.9888999999996L274.4593500000002 528.7159499999996L256.7918500000002 535.7959499999998L258.4283499999998 532.7319L255.27885000000026 530.5974499999996L255.52785000000029 528.6826500000001L257.92734999999993 526.1870999999996L248.0983500000002 523.6919499999999L242.24035000000015 524.6553L237.16385000000002 521.2862999999999L235.3628500000002 516.2018999999998L234.54335000000015 512.33295L239.37434999999994 508.6949999999996L236.16685000000018 502.12985000000003L239.68435 497.3837499999996L238.65684999999985 495.64824999999985L250.15435000000025 494.3707999999998L255.71484999999996 495.95730000000003L257.6063499999998 495.7045999999997L259.75085000000036 486.70699999999954L264.5928500000002 489.66970000000003L272.09535000000017 487.6998499999996L278.56235000000027 484.9552L280.5723500000005 485.79229999999995L286.39835000000005 483.9713499999999L294.2623499999996 485.76319999999953L295.1813499999997 488.5962999999998L305.5253499999998 490.0412L305.6228500000003 494.31624999999997L310.14385000000004 498.85130000000004L313.0503500000003 493.91024999999956L320.4413500000004 491.6109499999999L320.5618499999997 487.71619999999984L325.5203499999999 488.4787L328.3448500000003 491.09154999999987L331.14634999999964 498.4241499999996L330.26734999999974 505.92175L326.0613500000005 510.48614999999984L326.2243500000005 512.5564499999996L330.06235000000004 519.8929499999997L323.6103499999996 520.9004499999998L319.2438499999997 523.9271499999995L316.93085000000053 520.4960499999999L314.49385000000063 522.8264999999999L312.39134999999976 521.50485L314.0323500000005 518.2332499999995L309.4358500000004 518.7651L311.0773499999999 510.83379999999977L300.31585000000007 510.04399999999976L291.5673499999997 511.4018999999996z">
      <title id="t199">Première circonscription de la Loire</title>
      <desc id="d199">Cantons de : Saint-Etienne Nord-Est I, Saint-Etienne Nord-Est II, Saint-Etienne Nord-Ouest I, Saint-Etienne Nord-Ouest II.</desc>
    </path><path class="circo" id="id-042-02" d="M320.0913499999996 537.5808499999999L315.4688500000003 530.6222499999996L311.36135000000024 530.3020499999997L303.07735000000037 536.2746999999996L299.29985000000045 534.5175499999999L297.6148500000005 535.7850500000001L292.7048499999995 532.5914499999999L288.4308500000003 523.67865L282.82385000000033 521.9668999999999L284.38784999999996 518.2748499999997L285.9448500000002 514.6587499999998L284.3843499999997 511.4635999999996L287.76234999999986 507.9690999999997L291.5673499999997 511.4018999999996L300.31585000000007 510.04399999999976L311.0773499999999 510.83379999999977L309.4358500000004 518.7651L314.0323500000005 518.2332499999995L312.39134999999976 521.50485L314.49385000000063 522.8264999999999L316.93085000000053 520.4960499999999L319.2438499999997 523.9271499999995L323.6103499999996 520.9004499999998L330.06235000000004 519.8929499999997L334.5878499999998 523.8063999999997L332.63035 538.1460999999996L335.69635000000005 540.9451999999999L338.10985000000016 544.0592999999996L332.65784999999994 546.5722999999997L330.8163500000006 545.7148999999998L327.9043500000006 551.0502499999996L326.9338499999998 549.77305L320.9988500000003 543.7996999999996L320.0913499999996 537.5808499999999z">
      <title id="t200">Deuxième circonscription de la Loire</title>
      <desc id="d200">Cantons de : Saint-Etienne Sud-Est I, Saint-Etienne Sud-Est II, Saint-Etienne Sud-Est III, Saint-Etienne Sud-Ouest I, Saint-Etienne Sud-Ouest II</desc>
    </path><path class="circo" id="id-042-03" d="M404.3193500000001 449.1989000000001L403.6633499999999 447.7151999999995L400.6208499999997 444.68939999999975L396.28435000000025 432.4680999999998L391.6343499999999 427.9812999999996L386.53584999999964 431.0595999999998L379.8413499999998 430.8689499999997L372.8243500000002 423.8649499999997L362.90485000000047 425.13954999999953L351.9898500000005 429.52594999999974L348.79835000000014 427.09659999999985L344.84785000000045 427.3327999999998L344.31534999999997 421.48679999999956L329.13884999999993 421.74189999999953L327.27284999999995 425.3660500000001L328.03785000000005 427.34375L323.4653499999996 433.2299999999998L318.93335000000036 440.89309999999955L309.6693499999998 434.0332000000001L308.49684999999965 434.0556499999997L311.6193500000003 441.31190000000004L309.3393499999996 446.6271499999999L307.50635000000045 445.88374999999985L302.6403499999998 443.7960499999997L301.92534999999964 438.63939999999957L295.88734999999986 438.07304999999985L289.9558500000006 440.1392499999997L285.88784999999973 439.07339999999976L283.28434999999956 435.85195L276.7568499999999 446.42079999999964L278.8598500000006 460.76210000000003L276.90234999999973 464.47069999999997L263.53785000000016 458.12629999999956L261.99434999999994 461.91949999999963L252.21085000000016 459.5070499999997L249.49484999999981 461.78484999999966L250.34384999999986 468.2164499999999L258.30735000000004 478.18839999999966L259.75085000000036 486.70699999999954L264.5928500000002 489.66970000000003L272.09535000000017 487.6998499999996L278.56235000000027 484.9552L280.5723500000005 485.79229999999995L286.39835000000005 483.9713499999999L294.2623499999996 485.76319999999953L295.1813499999997 488.5962999999998L305.5253499999998 490.0412L305.6228500000003 494.31624999999997L310.14385000000004 498.85130000000004L313.0503500000003 493.91024999999956L320.4413500000004 491.6109499999999L320.5618499999997 487.71619999999984L325.5203499999999 488.4787L328.3448500000003 491.09154999999987L331.14634999999964 498.4241499999996L330.26734999999974 505.92175L326.0613500000005 510.48614999999984L326.2243500000005 512.5564499999996L330.06235000000004 519.8929499999997L334.5878499999998 523.8063999999997L332.63035 538.1460999999996L335.69635000000005 540.9451999999999L341.7003500000004 539.1296L345.7673500000004 540.1118499999995L352.5748500000003 544.8810499999996L358.71485000000064 545.0662499999999L359.92384999999956 549.0785L363.4983500000004 551.2741L369.28585000000055 550.2328499999999L373.64935 543.5298499999999L375.23034999999993 543.25085L379.35835000000054 543.8191L390.58335 538.8965999999999L392.53085 520.1369499999998L394.68834999999956 516.6906L398.61635000000035 515.2334999999999L399.0948499999996 507.0497499999999L401.8893499999996 503.9159000000001L411.42184999999984 504.75919999999974L415.8848500000005 501.24705000000006L418.97035000000017 494.2507999999998L420.1403499999998 486.0220499999997L418.33384999999964 485.24069999999995L415.5553500000002 487.99319999999966L411.7493500000006 481.89629999999966L408.3398500000004 481.2403499999999L406.8263500000006 475.52909999999997L408.2298499999996 474.00229999999965L406.37985000000015 463.78224999999986L406.90435000000036 455.5922499999997L411.5203500000001 451.55809999999974L413.0863500000004 447.79290000000003L413.57884999999953 447.66669999999976L421.5203500000001 440.5604999999997L422.5078500000001 438.4657999999996L417.5168500000001 432.0109500000001L415.4623499999997 431.48094999999955L410.2198500000003 435.0882999999999L406.26135000000033 434.3980499999998L405.7868500000001 440.7024999999999L410.56584999999984 447.4554999999998L404.3193500000001 449.1989000000001z">
      <title id="t201">Troisième circonscription de la Loire</title>
      <desc id="d201">Cantons de : La Grand-Croix, Rive-de-Gier, Saint-Chamond Nord, Saint-Chamond Sud, Saint-Héand.</desc>
    </path><path class="circo" id="id-042-04" d="M384.72334999999987 601.1912000000001L381.6423500000002 611.2198999999998L384.67884999999967 613.5824499999995L387.57435000000044 616.7847499999999L387.57835000000057 622.98385L378.8603500000005 628.6138L368.7548499999997 626.7159499999997L360.9033500000004 629.7576999999995L358.2293499999997 632.9940999999997L350.5173499999995 630.0172499999996L345.1943499999999 635.2803L338.90135000000043 635.7745999999997L335.65035000000023 633.21865L333.99834999999996 632.3337999999995L324.50035000000014 622.9530499999998L319.6473499999996 619.2749499999996L314.79985 610.1200999999998L308.6708500000003 609.6991499999996L296.5813499999996 616.8143499999996L294.88585 620.4656L289.6643499999999 617.8239500000001L288.0708499999997 619.0684499999998L279.1438499999998 608.3087999999998L283.1483499999996 603.6836999999997L283.8553500000006 599.7515499999997L286.58934999999985 597.2140999999999L285.97635000000025 594.0643L280.04584999999963 592.3234500000001L271.2688499999996 583.6727500000001L284.7533500000003 572.1818999999999L286.7193500000002 572.4068499999998L278.3848500000005 558.2877500000001L273.30134999999984 554.8397499999999L261.3008500000001 551.9196L261.09984999999995 555.8826499999998L259.43885000000023 556.8516999999997L255.9648500000003 556.1246499999999L253.4618499999999 559.1284999999999L245.75885000000028 558.7086999999997L245.4063500000001 549.5394999999996L239.6133500000002 551.4954999999998L234.16035000000022 543.2732499999997L232.12635000000034 543.4427L226.60284999999988 540.5820999999997L215.70834999999988 545.1170500000001L207.16335000000015 539.3856L199.20785000000024 541.0765499999997L191.7023499999999 543.9806499999997L196.92684999999983 550.7095999999996L196.05835000000013 554.8046999999997L181.48185000000012 553.4992L176.68585000000007 557.4789999999996L176.13235000000032 561.7087499999997L172.1828499999998 558.8211999999999L164.3858499999999 561.2732499999998L162.8353500000003 569.5299L160.4048499999999 573.0464999999998L156.87884999999994 570.9188L153.3283499999999 563.2854499999996L149.59985000000017 561.1879999999996L145.5621000000002 562.3437999999999L145.07409999999993 564.3795L140.27150000000006 567.6547499999998L139.05550000000005 577.7990499999999L137.3520000000002 577.7767L136.5205000000003 574.5108499999998L131.36799999999994 560.9889999999996L127.30850000000032 560.88255L124.18949999999995 551.5614499999998L121.07599999999991 549.0706L113.74849999999981 552.3527999999999L108.04750000000013 550.0664999999998L104.28150000000016 551.6721999999999L102.47450000000015 557.5394999999997L95.62600000000032 561.9742499999995L96.02700000000027 569.5704000000001L90.47550000000001 574.7435999999999L88.99350000000027 571.4490999999998L86.70999999999992 560.3296999999998L84.47350000000029 552.6074999999997L85.48049999999989 544.1900499999997L83.7175000000002 538.1969499999997L87.19150000000013 528.4192999999999L90.82100000000025 526.5200999999996L93.71700000000033 520.8938999999998L95.6450000000001 521.4509999999996L103.66950000000031 516.20675L114.69699999999989 512.3039L114.71049999999991 511.6497499999997L113.37300000000027 508.05469999999957L119.73250000000007 505.13239999999996L117.17600000000004 502.0729L118.89099999999985 498.38959999999986L116.52199999999993 491.0255000000001L124.20450000000017 482.1582000000001L123.51550000000032 476.77149999999983L118.72600000000034 473.69789999999966L115.72499999999991 473.43714999999975L115.36900000000003 471.8271999999996L112.69800000000032 465.4156499999999L107.5445000000002 447.4500499999999L110.9635000000003 439.91044999999986L112.81800000000032 442.45839999999987L122.38550000000032 439.71254999999985L137.59349999999984 444.59475L137.8385000000003 444.6256999999997L145.91610000000003 443.0095L151.71535000000006 445.2508L158.1463500000001 450.6376L160.22384999999986 450.0811999999996L164.26635000000033 443.6061000000001L169.1283500000003 440.24059999999963L169.63435000000004 438.30129999999997L166.8593500000003 435.67714999999964L173.77035000000035 432.0067L171.11685000000023 426.4578499999999L174.42485000000033 426.86465L176.95985000000007 422.1317499999998L201.52285000000006 431.73959999999965L204.25185 429.26484999999957L209.9548500000003 430.9035499999999L217.5748500000003 436.90214999999966L219.2118499999998 427.1184999999997L221.9858499999998 424.28454999999985L223.15935000000025 418.5382499999997L220.8018500000003 412.9822999999999L221.21235000000013 408.9729L218.5528499999998 405.9666999999996L206.9253500000002 404.5151999999996L207.67584999999997 400.2908500000001L213.99085000000014 395.32389999999964L214.63385000000017 391.40904999999975L222.18635000000006 388.49739999999997L225.93435 387.12654999999984L227.61685 400.74419999999975L230.1738499999999 402.9238499999997L233.6988500000001 402.77679999999975L235.13485000000003 406.19214999999997L228.55385000000012 413.77565000000004L227.85284999999988 415.7558499999999L230.4398500000002 421.5232499999996L239.3823500000002 426.85495000000003L240.46335 428.11364999999967L247.24784999999997 438.02570000000003L246.61085000000014 441.6778999999997L241.1218500000001 441.52375000000006L237.9448500000001 443.29354999999964L234.27734999999984 445.1099999999997L232.67134999999996 448.8718499999999L236.18335000000002 454.1404L236.03035000000034 458.31799999999987L236.1298499999998 463.0664999999999L245.63035000000013 460.3453999999999L249.49484999999981 461.78484999999966L250.34384999999986 468.2164499999999L258.30735000000004 478.18839999999966L259.75085000000036 486.70699999999954L257.6063499999998 495.7045999999997L255.71484999999996 495.95730000000003L250.15435000000025 494.3707999999998L238.65684999999985 495.64824999999985L239.68435 497.3837499999996L236.16685000000018 502.12985000000003L239.37434999999994 508.6949999999996L234.54335000000015 512.33295L235.3628500000002 516.2018999999998L237.16385000000002 521.2862999999999L242.24035000000015 524.6553L248.0983500000002 523.6919499999999L257.92734999999993 526.1870999999996L255.52785000000029 528.6826500000001L255.27885000000026 530.5974499999996L258.4283499999998 532.7319L256.7918500000002 535.7959499999998L274.4593500000002 528.7159499999996L279.71235000000036 524.9888999999996L282.82385000000033 521.9668999999999L288.4308500000003 523.67865L292.7048499999995 532.5914499999999L297.6148500000005 535.7850500000001L299.29985000000045 534.5175499999999L303.07735000000037 536.2746999999996L311.36135000000024 530.3020499999997L315.4688500000003 530.6222499999996L320.0913499999996 537.5808499999999L320.9988500000003 543.7996999999996L326.9338499999998 549.77305L327.9043500000006 551.0502499999996L330.8163500000006 545.7148999999998L332.65784999999994 546.5722999999997L338.10985000000016 544.0592999999996L335.69635000000005 540.9451999999999L341.7003500000004 539.1296L345.7673500000004 540.1118499999995L352.5748500000003 544.8810499999996L358.71485000000064 545.0662499999999L359.92384999999956 549.0785L363.4983500000004 551.2741L369.28585000000055 550.2328499999999L373.64935 543.5298499999999L375.23034999999993 543.25085L379.35835000000054 543.8191L390.58335 538.8965999999999L392.53085 520.1369499999998L394.68834999999956 516.6906L398.61635000000035 515.2334999999999L399.0948499999996 507.0497499999999L401.8893499999996 503.9159000000001L411.42184999999984 504.75919999999974L415.8848500000005 501.24705000000006L418.97035000000017 494.2507999999998L420.1403499999998 486.0220499999997L427.8193500000003 486.9730999999996L437.09784999999954 477.17769999999973L444.0483499999999 481.62774999999954L446.1338500000005 489.5029999999997L444.20135000000016 490.2787999999998L452.0193499999999 500.6266499999998L451.16735000000006 503.46149999999966L451.42435000000035 505.8733000000001L453.29935000000035 511.0549499999996L453.30134999999984 514.6224000000001L446.15835000000004 522.0013999999998L446.85385000000053 529.9025L451.13234999999975 535.7002999999997L452.8318500000006 543.6090999999999L452.0563499999997 551.6359L451.61985000000016 555.1295499999998L438.7968500000005 557.4717499999997L437.64335000000017 561.8314999999996L429.22735000000046 564.8784L426.9803500000006 567.6462999999995L419.37584999999956 566.8728499999997L401.7048500000004 579.0080999999998L403.67035000000044 583.4152999999998L399.7038500000002 585.8093499999995L392.03434999999956 588.6395999999996L392.54335000000026 594.7833499999996L395.0588499999998 598.0188499999997L394.49734999999976 600.0203999999997L390.3723499999995 599.6579499999996L384.72334999999987 601.1912000000001z">
      <title id="t202">Quatrième circonscription de la Loire</title>
      <desc id="d202">Cantons de : Bourg-Argental, Le Chambon-Feugerolles, Firminy, Pélussin, Saint-Genest-Malifaux, Saint-Bonnet-le-Château, Saint-Just-Saint-Rambert, Saint-Jean-Soleymieux</desc>
    </path><path class="circo" id="id-042-05" d="M303.82135000000005 85.2731L292.5858499999998 77.54399999999976L287.23784999999964 79.4727499999999L283.9913500000006 84.41559999999981L271.73185000000046 86.22745000000009L267.2153499999996 89.61469999999963L266.19485 97.68804999999986L261.76635000000033 101.86564999999973L260.4308500000002 107.77859999999976L262.6858500000003 111.15569999999991L262.23884999999996 119.20005000000003L258.4218500000003 121.19505000000004L259.05084999999985 125.07379999999955L256.68184999999994 130.3915999999998L251.58934999999985 136.51880000000006L238.1323500000002 137.12940000000003L237.00384999999983 138.61689999999953L241.3563499999998 146.67674999999974L245.0318500000003 148.80359999999996L249.32434999999998 155.91289999999958L252.60384999999985 158.00059999999974L259.9693500000001 156.09344999999962L260.30035 156.02184999999963L262.2073499999999 164.33209999999974L262.91935000000024 166.09620000000007L257.85685 176.02929999999958L253.46535000000017 171.90189999999973L245.61185000000023 173.93415000000005L243.43885 170.73639999999955L233.94735000000026 170.83309999999983L235.7338500000003 177.3566999999997L240.37984999999992 180.7525499999997L247.50585 182.8173499999997L253.06584999999984 185.6451999999996L256.8643500000002 190.6808000000001L258.0603500000001 194.72519999999975L255.22834999999986 197.73424999999975L262.91134999999997 204.69884999999977L267.04885000000047 205.30204999999967L277.3748500000005 212.07079999999962L273.7883500000004 219.16319999999985L277.4578500000001 220.73324999999954L267.68534999999986 227.98869999999965L263.97335 227.31625000000008L257.80984999999987 228.00579999999968L254.33035000000018 230.25334999999984L251.9858499999998 237.8976L245.77134999999998 236.81254999999965L242.38634999999988 244.54379999999958L235.18835000000024 248.89314999999954L233.41735000000028 252.82260000000008L233.0388499999998 256.3452000000001L229.89235000000008 258.2302499999997L228.4573499999999 254.69625000000008L226.58934999999985 254.3374L224.51284999999984 253.9803999999998L222.7848499999999 250.22134999999992L224.07134999999982 238.20654999999988L218.37485000000015 236.14454999999964L218.21185000000014 238.19860000000006L214.2393500000003 238.48434999999995L211.46285000000034 243.80329999999958L205.72384999999997 245.3825999999998L202.41685000000018 250.00039999999956L198.3833500000003 245.5651499999999L195.2583500000003 238.54174999999998L183.68435000000034 228.38144999999997L175.35885000000007 235.66640000000007L174.55235000000016 233.76305000000002L170.67234999999982 232.50444999999957L167.96834999999987 227.01634999999953L163.1168500000001 223.33004999999957L157.1333500000003 221.80164999999988L155.77384999999992 223.38989999999967L154.6733499999999 224.93719999999996L152.95684999999992 224.14979999999957L153.53785000000016 220.41679999999985L149.34435000000008 216.5697L145.79009999999982 211.5813499999996L140.12400000000014 209.46574999999996L139.9525 207.42705L132.95450000000017 203.40674999999976L120.62850000000026 201.92514999999958L113.18399999999997 205.89L108.98399999999981 205.2610999999996L107.3784999999998 209.21580000000006L111.4330000000001 220.07709999999975L111.9395000000003 224.02214999999956L120.8359999999999 231.73249999999996L115.44950000000028 241.93825000000004L109.69049999999982 242.32469999999978L100.14250000000004 232.17524999999966L96.33100000000013 232.81219999999962L92.32450000000028 237.0274999999998L93.61899999999991 245.07554999999968L99.0424999999999 247.98059999999964L100.83250000000021 253.71305000000007L99.71600000000024 255.48045000000002L97.6600000000002 255.15394999999955L95.58100000000024 253.51959999999963L94.5089999999999 255.2711499999998L88.70150000000024 256.79254999999955L83.41350000000034 262.82614999999964L79.50800000000015 261.90849999999955L76.08400000000017 257.00184999999976L74.16100000000029 257.55229999999983L71.75250000000005 262.9219499999999L74.66150000000027 270.3099499999996L70.71700000000021 274.0569999999997L67.3739999999998 271.83429999999987L57.72199999999998 271.76414999999963L54.75399999999979 269.1624999999999L57.5445000000002 264.10435000000007L57.327000000000226 256.10109999999963L51.20450000000005 251.1185499999999L33.74849999999981 243.40589999999963L28.272000000000048 241.9559499999997L25.917499999999905 238.89284999999973L19.90850000000023 225.62070000000006L15.130500000000211 221.71979999999962L11.883000000000266 216.46889999999985L0.26650000000017826 211.58864999999992L0.21299999999996544 211.45054999999957L0.32700000000033924 200.93369999999993L4.723500000000058 196.42049999999983L3.5770000000002256 190.19954999999982L6.8940000000003465 185.05319999999983L20.689500000000294 189.60769999999968L24.33150000000012 187.56654999999967L26.271500000000287 181.5818999999999L28.318500000000313 181.05654999999956L37.538000000000125 185.8775499999996L41.35249999999985 184.2856999999998L45.38650000000018 179.4907999999998L49.44149999999979 178.61794999999972L55.178999999999974 176.4794999999998L55.715999999999894 172.39739999999983L58.79850000000033 169.57580000000007L58.94299999999987 169.4399999999996L56.931000000000154 169.10469999999975L55.812500000000114 165.1973499999997L52.085500000000025 157.52565000000004L51.13499999999988 146.79919999999981L47.69299999999987 136.75520000000006L54.36050000000023 113.97914999999955L46.513499999999794 101.78224999999998L42.541499999999814 100.51629999999989L45.8420000000001 88.73279999999966L42.502999999999815 81.30324999999971L41.751500000000306 73.29589999999996L48.65099999999984 70.22179999999992L41.2745000000001 55.433949999999754L40.49350000000004 46.961149999999634L42.79800000000023 41.420799999999645L38.908500000000004 33.9703499999996L33.98500000000013 29.949649999999792L32.25500000000011 21.815199999999777L36.059999999999945 20.19839999999988L46.45750000000021 22.991949999999974L48.5775000000001 11.496099999999956L66.79599999999994 8.499949999999785L74.59249999999997 7.532949999999801L78.32150000000013 0.21029999999996107L82.26650000000006 1.3066499999996495L87.61349999999993 0L89.41599999999994 1.1719999999996844L91.53450000000021 9.40179999999998L90.95849999999984 19.690200000000004L86.7025000000001 23.852849999999535L86.75250000000005 30.14439999999979L83.61750000000029 37.747999999999706L91.8304999999998 41.78004999999985L95.0815 44.262299999999755L103.202 42.84249999999986L115.50850000000025 44.88810000000001L118.6545000000001 46.812549999999646L118.19850000000031 52.98869999999965L125.43700000000001 65.15169999999955L137.9815000000002 63.82479999999987L141.99549999999988 65.31369999999981L143.5514999999998 63.8530499999996L151.49135 58.35284999999999L155.80134999999984 53.73404999999991L159.0223500000002 54.78379999999959L165.83185000000014 52.07329999999956L174.44234999999992 47.604049999999916L186.68234999999981 58.52595000000008L187.0058499999999 60.570599999999786L187.19885000000033 60.57304999999985L191.22585000000015 61.38325000000009L206.02084999999988 62.80104999999992L209.68435 60.99289999999996L208.8763499999999 59.007199999999784L208.90985 52.71119999999996L210.73685000000012 53.62289999999973L217.95635000000004 50.028199999999856L223.62734999999986 55.79430000000002L225.9373499999998 60.37969999999973L226.61085000000014 59.926099999999565L234.59634999999992 53.875850000000014L240.0273500000003 56.13560000000007L241.62784999999985 61.887800000000084L238.01435000000026 66.69449999999983L235.9958499999999 66.83934999999963L237.92185000000018 72.53999999999962L250.3493500000002 73.1541999999996L253.68535000000008 65.48309999999958L259.0358500000002 62.40949999999998L262.8443500000003 64.32989999999961L264.7903500000001 64.26299999999969L269.1393499999998 55.92199999999991L272.65034999999955 57.85564999999963L277.6398499999999 54.46889999999996L282.68385000000023 57.28109999999958L287.9093500000005 56.26634999999965L289.0533499999998 54.47810000000004L284.7418499999998 47.52974999999992L289.59385000000054 40.80600000000004L295.3938499999998 38.61214999999959L295.25085000000047 34.493699999999876L303.18434999999965 34.59630000000004L309.5638500000001 42.33339999999998L310.0773499999997 44.72104999999999L298.9878500000003 49.306100000000015L298.6918499999996 53.26559999999972L303.01935000000014 57.54995000000008L306.40135000000043 58.881999999999834L314.5038500000004 63.312949999999546L316.7188500000003 66.36559999999974L313.56285000000014 73.91804999999977L310.37184999999965 76.48509999999987L307.6963500000005 85.97229999999968L303.82135000000005 85.2731z">
      <title id="t203">Cinquième circonscription de la Loire</title>
      <desc id="d203">Cantons de : Belmont-de-la-Loire, Charlieu, La Pacaudière, Perreux, Roanne Nord, Roanne Sud, Saint-Haon-le-Châtel, Saint-Just-en-Chevalet, Saint-Symphorien-de-Lay</desc>
    </path><path class="circo" id="id-042-06" d="M326.1753500000003 412.47995000000003L321.51535000000024 409.65814999999964L320.3223499999996 402.1180999999996L317.9503500000004 399.08095000000003L309.8563500000006 395.0637999999998L304.6878499999997 393.6129999999997L304.08285000000035 390.53135L297.1763500000003 380.50329999999974L298.6318499999999 377.8132499999998L297.15134999999975 375.1144999999997L285.8328499999999 369.83855000000005L287.02785000000006 368.2869499999998L285.8203499999996 362.6339999999999L289.0318499999995 357.90129999999976L285.66084999999987 353.18985L288.7198500000005 350.36009999999976L289.7508499999998 344.1460000000001L293.8503499999996 339.3930999999998L296.59685000000025 329.23119999999983L301.5603500000003 325.55115L299.2778500000003 320.73834999999974L296.3548499999996 318.75564999999995L288.95685000000014 322.18615L282.9598500000003 321.1768999999998L278.68435000000034 308.9501999999999L282.5888500000002 304.23194999999964L290.3083499999997 301.0677999999996L289.95434999999986 288.66494999999986L291.55535000000043 287.24924999999985L295.1488499999999 289.54714999999965L291.93685000000016 280.74250000000006L292.8643500000004 279.02334999999994L290.13184999999964 276.2453999999997L292.05885000000023 275.9440999999998L293.3888500000006 270.6496999999996L296.3223499999998 268.5262L293.1273500000003 263.34295L296.32835000000057 260.7125500000001L298.67684999999994 254.88969999999995L297.96734999999956 251.62879999999973L283.78184999999974 251.01724999999988L275.86584999999957 244.46570000000008L273.5143499999998 236.37045L268.96135000000015 231.97069999999997L267.68534999999986 227.98869999999965L263.97335 227.31625000000008L257.80984999999987 228.00579999999968L254.33035000000018 230.25334999999984L251.9858499999998 237.8976L245.77134999999998 236.81254999999965L242.38634999999988 244.54379999999958L235.18835000000024 248.89314999999954L233.41735000000028 252.82260000000008L233.0388499999998 256.3452000000001L229.89235000000008 258.2302499999997L228.4573499999999 254.69625000000008L226.58934999999985 254.3374L224.51284999999984 253.9803999999998L222.7848499999999 250.22134999999992L224.07134999999982 238.20654999999988L218.37485000000015 236.14454999999964L218.21185000000014 238.19860000000006L214.2393500000003 238.48434999999995L211.46285000000034 243.80329999999958L205.72384999999997 245.3825999999998L202.41685000000018 250.00039999999956L198.3833500000003 245.5651499999999L195.2583500000003 238.54174999999998L183.68435000000034 228.38144999999997L175.35885000000007 235.66640000000007L174.55235000000016 233.76305000000002L170.67234999999982 232.50444999999957L167.96834999999987 227.01634999999953L163.1168500000001 223.33004999999957L157.1333500000003 221.80164999999988L155.77384999999992 223.38989999999967L154.6733499999999 224.93719999999996L152.95684999999992 224.14979999999957L153.53785000000016 220.41679999999985L149.34435000000008 216.5697L145.79009999999982 211.5813499999996L140.12400000000014 209.46574999999996L139.9525 207.42705L132.95450000000017 203.40674999999976L120.62850000000026 201.92514999999958L113.18399999999997 205.89L108.98399999999981 205.2610999999996L107.3784999999998 209.21580000000006L111.4330000000001 220.07709999999975L111.9395000000003 224.02214999999956L120.8359999999999 231.73249999999996L115.44950000000028 241.93825000000004L109.69049999999982 242.32469999999978L100.14250000000004 232.17524999999966L96.33100000000013 232.81219999999962L92.32450000000028 237.0274999999998L93.61899999999991 245.07554999999968L99.0424999999999 247.98059999999964L100.83250000000021 253.71305000000007L99.71600000000024 255.48045000000002L97.6600000000002 255.15394999999955L95.58100000000024 253.51959999999963L94.5089999999999 255.2711499999998L88.70150000000024 256.79254999999955L83.41350000000034 262.82614999999964L79.50800000000015 261.90849999999955L76.08400000000017 257.00184999999976L74.16100000000029 257.55229999999983L71.75250000000005 262.9219499999999L74.66150000000027 270.3099499999996L70.71700000000021 274.0569999999997L67.3739999999998 271.83429999999987L57.72199999999998 271.76414999999963L54.75399999999979 269.1624999999999L57.5445000000002 264.10435000000007L57.327000000000226 256.10109999999963L51.20450000000005 251.1185499999999L33.74849999999981 243.40589999999963L28.272000000000048 241.9559499999997L25.917499999999905 238.89284999999973L22.201499999999896 240.034L21.426999999999907 243.716L17.2950000000003 247.90429999999958L9.406999999999925 248.32119999999975L11.428999999999974 253.7203999999997L14.934499999999957 253.1430499999999L14.361499999999978 257.1110999999996L11.632999999999925 260.19634999999994L10.937000000000126 260.84374999999966L14.238500000000158 272.92190000000005L8.177499999999895 290.5926999999997L0.7330000000001746 294.61059999999975L0 298.30929999999967L2.9759999999998854 301.40359999999987L14.908500000000231 306.00094999999953L18.947499999999877 311.0156999999998L16.880500000000325 314.5730499999996L15.74450000000013 315.5392499999999L14.329500000000053 318.44989999999996L22.33850000000018 327.2240499999998L24.5089999999999 323.76179999999977L26.54100000000028 323.9128499999998L31.727000000000203 334.8373499999997L37.20050000000015 337.2708499999999L35.54149999999993 340.4012L37.821500000000015 345.1983999999999L35.049000000000206 352.1803L35.783500000000004 358.02904999999953L42.98600000000022 368.4274499999998L47.61700000000019 379.0226999999999L52.841999999999985 384.71064999999953L54.109000000000265 390.35685L55.47799999999995 393.5570999999999L61.08600000000024 396.67554999999993L69.47900000000004 397.89895L71.20000000000005 403.65234999999984L74.49549999999988 405.0455999999997L80.00450000000001 410.84644999999966L91.24799999999993 415.09860000000003L101.48300000000006 425.6205L104.60050000000024 430.2180999999996L106.77500000000009 435.7056499999999L110.9635000000003 439.91044999999986L112.81800000000032 442.45839999999987L122.38550000000032 439.71254999999985L137.59349999999984 444.59475L137.8385000000003 444.6256999999997L145.91610000000003 443.0095L151.71535000000006 445.2508L158.1463500000001 450.6376L160.22384999999986 450.0811999999996L164.26635000000033 443.6061000000001L169.1283500000003 440.24059999999963L169.63435000000004 438.30129999999997L166.8593500000003 435.67714999999964L173.77035000000035 432.0067L171.11685000000023 426.4578499999999L174.42485000000033 426.86465L176.95985000000007 422.1317499999998L201.52285000000006 431.73959999999965L204.25185 429.26484999999957L209.9548500000003 430.9035499999999L217.5748500000003 436.90214999999966L219.2118499999998 427.1184999999997L221.9858499999998 424.28454999999985L223.15935000000025 418.5382499999997L220.8018500000003 412.9822999999999L221.21235000000013 408.9729L218.5528499999998 405.9666999999996L206.9253500000002 404.5151999999996L207.67584999999997 400.2908500000001L213.99085000000014 395.32389999999964L214.63385000000017 391.40904999999975L222.18635000000006 388.49739999999997L225.93435 387.12654999999984L227.61685 400.74419999999975L230.1738499999999 402.9238499999997L233.6988500000001 402.77679999999975L235.13485000000003 406.19214999999997L228.55385000000012 413.77565000000004L227.85284999999988 415.7558499999999L230.4398500000002 421.5232499999996L239.3823500000002 426.85495000000003L240.46335 428.11364999999967L247.24784999999997 438.02570000000003L246.61085000000014 441.6778999999997L241.1218500000001 441.52375000000006L237.9448500000001 443.29354999999964L234.27734999999984 445.1099999999997L232.67134999999996 448.8718499999999L236.18335000000002 454.1404L236.03035000000034 458.31799999999987L236.1298499999998 463.0664999999999L245.63035000000013 460.3453999999999L249.49484999999981 461.78484999999966L252.21085000000016 459.5070499999997L261.99434999999994 461.91949999999963L263.53785000000016 458.12629999999956L276.90234999999973 464.47069999999997L278.8598500000006 460.76210000000003L276.7568499999999 446.42079999999964L283.28434999999956 435.85195L285.88784999999973 439.07339999999976L289.9558500000006 440.1392499999997L295.88734999999986 438.07304999999985L301.92534999999964 438.63939999999957L302.6403499999998 443.7960499999997L307.50635000000045 445.88374999999985L309.3393499999996 446.6271499999999L311.6193500000003 441.31190000000004L308.49684999999965 434.0556499999997L309.6693499999998 434.0332000000001L318.93335000000036 440.89309999999955L323.4653499999996 433.2299999999998L328.03785000000005 427.34375L327.27284999999995 425.3660500000001L329.13884999999993 421.74189999999953L331.98784999999987 416.3031000000001L326.1753500000003 412.47995000000003z">
      <title id="t204">Sixième circonscription de la Loire</title>
      <desc id="d204">Cantons de : Boën, Chazelles-sur-Lyon, Feurs, Montbrison, Néronde, Noirétable, Saint-Galmier, Saint-Georges-en-Couzan, Saint-Germain-Laval</desc>
    </path></svg>