<svg xmlns="http://www.w3.org/2000/svg" version="1.1" xmlns:xlink="http://www.w3.org/1999/xlink" xmlns:svgjs="http://svgjs.dev/svgjs" width="596.5163500000006" height="411.60349999999994" fill="#eeeeee" stroke="#cccccc" xmlns:sodipodi="http://sodipodi.sourceforge.net/DTD/sodipodi-0.dtd"><path class="circo" id="id-043-01" d="M403.97010000000023 44.71150000000023L403.48209999999995 46.74720000000036L398.6795000000001 50.02245000000016L397.46350000000007 60.16675000000021L395.7600000000002 60.14440000000036L394.9285000000003 56.87855000000013L389.77599999999995 43.35669999999993L385.71650000000034 43.25025000000039L382.59749999999997 33.92915000000016L379.4839999999999 31.438300000000368L372.1564999999998 34.72050000000024L366.45550000000014 32.434200000000146L362.6895000000002 34.039900000000216L360.88250000000016 39.9072000000001L354.03400000000033 44.34194999999988L354.4350000000003 51.93810000000042L361.4465000000001 55.619800000000055L362.0485000000002 63.89589999999998L364.2194999999998 67.46505000000013L363.03499999999985 73.1000499999999L368.775 74.3443000000002L370.71349999999995 77.7087499999999L363.5540000000003 81.02880000000027L363.4744999999998 84.98280000000022L359.5724999999999 85.31139999999994L354.3035000000003 94.0773999999999L350.51800000000014 94.74050000000034L348.10550000000035 89.5566500000001L344.2945000000003 89.09944999999993L336.54150000000016 94.5599500000003L332.8035 93.91435000000001L326.91250000000025 95.85714999999993L326.3159999999999 97.85175000000038L325.77200000000005 106.11530000000016L328.87 117.74274999999989L330.4635000000002 123.12389999999994L333.8870000000003 123.04725000000019L333.87249999999995 126.80155000000013L322.158 135.62145000000044L322.5110000000001 141.6210000000001L328.4115000000003 141.54380000000003L329.3335000000002 143.3729500000004L328.802 149.4814500000001L326.15099999999984 154.9793500000004L329.30949999999996 157.04890000000034L346.09550000000013 155.7492000000002L353.57349999999997 151.93780000000004L360.49500000000023 156.44910000000039L360.9899999999999 158.49625000000003L357.9169999999999 161.32570000000044L356.78750000000036 165.37714999999992L358.01150000000007 171.26840000000016L355.02049999999997 181.07515000000035L361.8209999999999 184.32315000000017L361.57100000000014 189.95460000000037L364.5609999999999 192.52850000000024L372.11250000000007 190.66765000000032L374.01099999999985 185.2134000000001L381.1650000000003 189.37465000000032L386.33500000000026 200.79935000000035L384.9279999999999 206.60875000000033L382.3400000000004 209.6659500000004L378.53200000000015 210.93530000000044L378.9454999999998 212.86490000000015L378.288 214.5037000000002L371.0250000000002 214.8918500000002L366.47400000000005 218.33165000000008L363.3355 216.12135000000023L355.3705000000002 216.05934999999988L356.4035000000001 219.6151500000002L354.75450000000023 224.43945000000042L352.174 223.9058L348.92750000000035 224.05740000000037L347.1625 223.52255000000014L345.8100000000002 225.3470500000003L344.2009999999999 227.56785000000036L344.32050000000004 228.1296500000002L340.951 231.95735000000013L340.0229999999999 232.72334999999998L339.47100000000034 236.1563000000001L340.5105000000003 237.56590000000017L339.6165000000002 240.94535000000008L340.283 242.98450000000003L341.82500000000005 244.8048L340.31600000000026 246.38750000000016L339.55150000000003 247.43989999999997L337.36400000000003 252.83330000000035L337.1485000000001 255.6677000000002L334.23400000000015 258.2949000000002L337.5569999999999 258.00385000000006L341.4390000000003 258.6698000000001L345.7740000000001 267.3556000000002L352.72950000000037 271.1206000000004L350.831 273.0624499999999L354.90049999999997 277.3398500000002L357.20550000000003 283.0726000000004L354.196 288.3697000000001L355.3280000000001 294.3137999999999L355.1965000000001 296.8751000000003L351.34799999999984 303.08430000000044L354.5994999999999 309.77485L349.94550000000004 313.1037500000002L349.6305000000001 317.09295L351.995 320.3293500000001L346.8625000000003 323.2895000000002L352.6724999999999 324.1347999999999L354.1775000000001 331.71854999999994L355.8634999999998 337.1814499999999L360.40850000000034 340.57725000000005L367.83450000000016 339.14895L372.39250000000027 342.70825L381.841 345.2492000000001L385.73849999999993 349.78380000000016L391.6239999999999 348.9139499999999L397.2410000000002 350.51935000000014L399.43250000000035 347.4386500000003L400.93349999999987 338.34540000000004L405.25784999999985 334.38985L412.8833500000002 334.8102499999999L418.1758500000001 337.43030000000033L421.6858500000001 336.1608000000001L426.08135000000004 335.8489500000002L434.80435 331.2885L438.8478500000002 331.1835500000001L446.90285000000017 333.6156L455.29285000000016 333.6623500000002L459.34034999999994 328.88329999999996L465.00135 326.1426L467.05885000000023 313.05634999999995L470.18984999999986 310.76930000000004L469.4923499999999 309.5372000000003L475.78734999999995 301.47190000000023L480.7658500000002 297.89935000000014L483.86085000000037 280.30305L488.69984999999986 277.3440500000004L497.77285000000006 282.10680000000025L507.47735000000034 278.00659999999993L513.76935 277.94714999999997L516.7118500000004 275.39885000000027L522.32935 274.1234000000003L521.8483500000002 270.26925000000006L519.3338499999999 266.4825000000002L515.7053500000001 264.7560500000003L512.4458500000003 259.60440000000006L516.0898500000002 245.95235000000002L523.9108500000003 240.00165000000038L538.1303500000001 241.36915000000045L540.1693499999999 237.95995000000005L549.8288500000001 236.2483000000003L550.9238500000004 232.26535000000013L549.6853499999997 226.20885000000044L546.0783500000002 224.31975000000023L542.0278500000006 224.6885500000002L536.5128500000003 218.75765L535.9328500000004 212.86249999999995L539.5743500000003 211.51614999999993L541.1363500000004 206.11694999999997L542.9268500000001 205.35664999999995L541.3983500000006 198.09785000000034L546.5988500000003 195.20039999999995L552.1733500000005 197.19584999999995L557.5083500000005 194.68735000000038L558.5848499999997 188.81695000000036L547.0668499999999 180.93295000000012L548.7623500000007 171.1202000000003L557.8018499999996 174.05824999999993L563.4678499999995 173.24780000000032L571.2608499999999 179.53535000000045L570.5588499999999 187.2962000000001L574.2063500000006 192.14609999999993L576.5813500000002 190.8013500000004L574.56185 187.41784999999993L575.2713500000004 185.58140000000037L583.0723499999999 186.4626000000004L582.4573499999997 182.56725000000017L578.4483499999999 178.26720000000023L577.2408500000006 172.43380000000002L579.1728499999999 160.51320000000032L583.4423500000003 156.3466500000004L584.3858499999999 152.4333999999999L589.5718499999998 149.70090000000027L592.9618500000004 140.31525000000045L591.4223500000003 131.13820000000032L593.2903499999998 127.97325000000001L595.3038500000002 127.44590000000017L596.5163500000006 123.44789999999989L594.0583500000002 115.58635000000038L592.40635 114.7014999999999L582.9083500000002 105.3207500000002L578.0553499999996 101.64265L573.20785 92.4878000000001L567.0788500000003 92.06684999999993L554.9893499999996 99.18205L553.29385 102.83330000000035L548.0723499999999 100.19165000000044L546.4788499999997 101.43615000000011L537.5518499999998 90.67650000000015L541.5563499999996 86.05140000000006L542.2633500000006 82.11925000000008L544.9973499999999 79.58180000000027L544.3843500000003 76.43200000000036L538.4538499999996 74.69115000000045L529.6768499999996 66.04045000000042L543.1613500000003 54.54960000000028L545.1273500000002 54.774550000000204L536.7928500000005 40.65545000000043L531.7093499999999 37.20745000000022L519.7088500000001 34.2873000000003L519.50785 38.25035000000014L517.8468500000002 39.219400000000064L514.3728500000003 38.492350000000215L511.86984999999993 41.49620000000027L504.1668500000003 41.076400000000035L503.8143500000001 31.90719999999999L498.0213500000002 33.86320000000012L492.56835000000024 25.64095000000009L490.53435000000036 25.8104000000003L485.0108499999999 22.949800000000096L474.1163499999999 27.484750000000417L465.57135000000017 21.75330000000031L457.61585000000025 23.44425000000001L450.1103499999999 26.348350000000096L455.33484999999985 33.07729999999992L454.46635000000015 37.17240000000004L439.88985000000014 35.86690000000033L435.0938500000001 39.84669999999994L434.54035000000033 44.07645000000002L430.5908499999998 41.18890000000022L422.7938499999999 43.6409500000002L421.2433500000003 51.89760000000035L418.8128499999999 55.414200000000164L415.28684999999996 53.28650000000039L411.7363499999999 45.65314999999998L408.0078500000002 43.5557L403.97010000000023 44.71150000000023z">
      <title id="t205">Première circonscription de la Haute-Loire</title>
      <desc id="d205">Cantons de : Aurec-sur-Loire, Bas-en-Basset, Fay-sur-Lignon, Le Monastier-sur-Gazeille, Monistrol-sur-Loire, Montfaucon-en-Velay, Le Puy Est, Le Puy Sud-Est, Retournac, Saint-Didier-en-Velay, Saint-Julien-Chapteuil, Sainte-Sigolène, Tence, Vorey, Yssingeaux.</desc>
    </path><path class="circo" id="id-043-02" d="M325.77200000000005 106.11530000000016L326.3159999999999 97.85175000000038L326.91250000000025 95.85714999999993L332.8035 93.91435000000001L336.54150000000016 94.5599500000003L344.2945000000003 89.09944999999993L348.10550000000035 89.5566500000001L350.51800000000014 94.74050000000034L354.3035000000003 94.0773999999999L359.5724999999999 85.31139999999994L363.4744999999998 84.98280000000022L363.5540000000003 81.02880000000027L370.71349999999995 77.7087499999999L368.775 74.3443000000002L363.03499999999985 73.1000499999999L364.2194999999998 67.46505000000013L362.0485000000002 63.89589999999998L361.4465000000001 55.619800000000055L354.4350000000003 51.93810000000042L348.8835 57.111300000000256L347.4015000000003 53.81680000000017L345.11799999999994 42.69740000000013L335.3950000000003 43.70445000000018L326.1529999999999 39.986450000000104L322.9430000000002 34.98365000000035L319.57600000000014 37.12154999999996L319.1455000000002 26.961350000000266L313.4095000000002 28.63930000000039L311.3440000000003 25.1302000000004L306.2560000000002 21.796899999999937L300.06550000000004 25.94654999999989L298.2605000000001 33.796050000000264L299.1255000000001 41.823400000000106L295.317 46.00635000000011L293.68150000000014 47.26425000000006L286.23950000000036 43.37964999999997L284.9844999999999 44.631050000000414L279.1059999999999 45.15235000000018L274.8380000000003 41.27845000000036L269.15099999999995 40.386850000000436L263.9654999999999 40.50905L260.67999999999984 39.357350000000224L262.91600000000017 33.9461L259.04300000000035 32.92059999999992L254.72899999999981 28.812950000000228L253.47100000000012 27.297800000000052L249.58500000000015 27.72739999999999L247.34199999999987 30.918000000000347L245.5680000000001 39.13415000000043L237.9970000000003 42.203250000000025L236.08850000000018 47.92765000000031L230.3385000000003 53.69644999999991L226.2869999999998 54.138450000000375L214.803 42.69620000000032L212.2800000000001 35.9286000000003L213.65150000000028 32.53945000000044L210.69349999999986 27.156200000000013L205.67350000000033 15.342350000000238L203.62149999999986 18.94139999999993L199.93899999999996 20.435750000000326L196.6700000000003 17.927549999999997L185.47950000000014 15.442199999999957L179.14150000000006 10.053250000000276L176.74900000000036 0L167.46050000000025 4.446000000000367L160.72550000000035 12.147300000000314L159.46950000000015 16.021499999999946L157.45100000000036 16.527550000000133L145.37350000000004 15.729150000000232L142.312 18.43780000000038L136.49650000000008 14.733400000000074L132.8800000000001 16.55779999999993L129.15650000000028 14.783600000000092L125.21749999999997 16.029350000000022L119.84649999999988 9.77290000000039L114.9920000000003 2.984250000000088L111.96200000000033 4.841400000000249L108.57550000000003 3.7957000000000107L108.72150000000033 7.79860000000042L104.07500000000027 18.41904999999997L99.37799999999982 9.798350000000369L95.0260000000003 5.566200000000094L91.14450000000033 4.472049999999967L89.41250000000025 5.599500000000148L87.70800000000008 13.939149999999927L85.90950000000021 16.968800000000215L74.28850000000011 22.329450000000293L68.63749999999982 23.05749999999989L64.08400000000029 19.981200000000285L58.403000000000134 27.51745000000028L56.63850000000025 35.19420000000025L55.45000000000016 34.88020000000006L53.589000000000055 36.57469999999989L50.50549999999987 34.30065000000013L41.66650000000004 38.88190000000009L39.02649999999994 42.05630000000042L40.69050000000004 45.58420000000012L27.99350000000004 46.29785000000027L22.769999999999868 44.26755000000014L19.3040000000002 46.16780000000006L7.696500000000128 44.33710000000019L11.025999999999954 46.77560000000028L11.91250000000025 60.83475000000021L5.8474999999998545 60.227800000000116L2.6659999999998263 62.54245000000026L6.505500000000097 67.45660000000044L11.931500000000028 70.31049999999993L9.233500000000276 75.86765000000014L5.284500000000207 76.67855000000031L0 79.20234999999991L0.48949999999990723 83.2284500000003L6.670500000000175 82.57240000000024L11.393500000000358 86.4187000000004L19.64049999999986 85.59415000000001L25.426499999999805 84.55450000000042L31.996000000000322 79.97569999999996L32.280999999999835 83.80055000000027L35.604999999999905 88.51834999999994L33.71350000000007 96.17115000000013L42.34700000000032 91.5082000000001L42.5954999999999 89.54580000000021L52.66400000000033 88.55400000000031L57.707000000000335 92.02095000000043L58.086000000000126 94.03450000000021L60.12350000000026 94.15410000000008L60.85399999999993 98.25089999999989L58.38799999999992 110.05735000000016L62.64949999999999 114.32549999999992L64.8660000000001 126.49805000000015L68.65700000000004 128.16689999999994L79.40800000000024 131.86935000000005L78.84749999999997 142.20235000000002L75.4264999999998 147.23535000000027L74.73500000000001 153.40585000000033L77.60050000000035 165.27469999999994L82.4245000000002 165.3675000000004L83.39300000000037 166.74939999999992L81.03800000000035 172.15599999999995L86.12599999999986 185.5404500000003L91.56749999999988 183.16360000000032L96.35350000000017 186.7071500000003L97.15300000000013 186.91675000000032L104.10799999999995 191.1097000000001L112.24249999999984 190.9603500000003L113.25150000000008 194.92880000000014L117.32950000000017 195.31600000000026L103.35899999999981 200.94690000000014L94.02750000000026 197.01160000000016L91.63549999999987 193.71665000000007L84.38600000000008 196.16199999999992L85.52850000000035 199.78790000000004L86.10450000000014 203.37850000000003L95.0184999999999 206.19820000000004L96.32400000000018 209.36320000000023L91.1205000000001 222.67780000000016L92.62299999999982 230.77120000000036L90.55000000000007 236.51475000000005L94.37549999999987 243.79549999999995L96.05999999999995 244.91210000000024L103.24000000000012 241.42210000000034L107.01149999999984 242.75945000000036L102.7109999999999 251.93865000000017L110.4325 250.28300000000002L114.49850000000026 256.66585L120.2879999999999 255.1174500000002L121.58600000000035 256.68270000000007L118.08449999999993 263.9123000000001L110.7159999999999 266.85445000000016L111.63850000000025 272.9554999999999L117.28400000000022 275.1771500000001L122.11549999999988 272.5872000000004L122.82800000000009 282.5807000000003L127.774 286.2924000000004L135.0830000000002 283.9170999999999L139.1685000000001 291.13500000000045L140.39699999999982 300.33195000000035L138.125 307.37775L141.8979999999999 312.99035000000003L141.91300000000012 319.2470000000003L148.89099999999985 329.9036000000001L151.47899999999993 345.50520000000006L158.19099999999992 353.24010000000044L157.5864999999999 359.29110000000037L163.46850000000018 364.8557500000004L166.9675000000001 372.20230000000015L170.67549999999983 374.12350000000004L172.38699999999994 372.9205999999999L173.5930000000002 369.10439999999994L179.34900000000027 363.48175000000026L193.67799999999988 361.1926500000004L199.73349999999982 362.62125000000026L205.44250000000034 357.5201500000003L211.25800000000027 362.35400000000027L214.34849999999983 360.3914000000003L213.14149999999984 356.40000000000043L217.79350000000022 342.8180000000003L216.601 332.5720000000001L222.23600000000033 330.44939999999997L224.7660000000002 333.15860000000043L229.54999999999984 330.4692L232.54349999999988 331.6645500000004L237.54250000000013 331.7701500000004L244.2750000000001 335.74100000000044L247.08550000000002 343.2149000000004L250.01350000000002 345.5669499999999L248.3510000000001 353.2652999999999L243.11849999999993 356.35685000000024L246.92200000000014 360.75935000000015L258.95550000000014 359.0232500000002L261.986 356.27115000000003L271.50900000000036 358.75355000000013L275.471 357.7701000000002L276.25400000000013 353.96240000000034L279.86050000000034 355.3511500000002L282.8739999999999 364.2391500000002L286.6469999999998 368.3812499999999L288.47500000000025 377.7726000000001L289.76 376.10265000000027L291.7975000000001 376.6136L302.59150000000034 386.0931500000004L306.6890000000001 397.4122L308.23649999999986 398.4304500000002L311.9515000000001 394.43205000000034L317.851 392.8066000000001L321.506 394.68890000000044L321.1745000000002 398.5879L316.43250000000023 405.16065000000026L320.4714999999999 409.65990000000033L330.29300000000035 411.60349999999994L334.4 404.82730000000004L336.22600000000034 403.86664999999994L343.6450000000002 406.98365000000024L345.43949999999995 405.9698000000003L346.2900000000002 400.1161000000002L352.0240000000001 398.0371500000001L356.80999999999983 396.19034999999997L356.56150000000025 395.3792000000004L353.6664999999999 392.53660000000025L353.88199999999983 390.6631500000003L361.8675000000002 379.14305000000013L365.12200000000007 365.41120000000035L365.5754999999999 363.4152L373.073 360.17150000000015L374.83100000000036 365.9120999999999L381.02149999999995 371.00595L383.26099999999997 368.1859000000003L380.8370000000002 362.44745000000023L382.31550000000027 359.0124500000002L384.2975000000001 359.2264L388.12700000000007 363.8772L392.5825000000003 357.25405000000023L397.756 359.80830000000026L400.87050000000033 357.25885000000005L397.2410000000002 350.51935000000014L391.6239999999999 348.9139499999999L385.73849999999993 349.78380000000016L381.841 345.2492000000001L372.39250000000027 342.70825L367.83450000000016 339.14895L360.40850000000034 340.57725000000005L355.8634999999998 337.1814499999999L354.1775000000001 331.71854999999994L352.6724999999999 324.1347999999999L346.8625000000003 323.2895000000002L351.995 320.3293500000001L349.6305000000001 317.09295L349.94550000000004 313.1037500000002L354.5994999999999 309.77485L351.34799999999984 303.08430000000044L355.1965000000001 296.8751000000003L355.3280000000001 294.3137999999999L354.196 288.3697000000001L357.20550000000003 283.0726000000004L354.90049999999997 277.3398500000002L350.831 273.0624499999999L352.72950000000037 271.1206000000004L345.7740000000001 267.3556000000002L341.4390000000003 258.6698000000001L337.5569999999999 258.00385000000006L334.23400000000015 258.2949000000002L337.1485000000001 255.6677000000002L337.36400000000003 252.83330000000035L339.55150000000003 247.43989999999997L341.11850000000004 245.52009999999996L341.82500000000005 244.8048L340.283 242.98450000000003L339.6165000000002 240.94535000000008L340.5105000000003 237.56590000000017L339.47100000000034 236.1563000000001L340.0229999999999 232.72334999999998L340.951 231.95735000000013L344.32050000000004 228.1296500000002L344.2009999999999 227.56785000000036L347.1625 223.52255000000014L348.92750000000035 224.05740000000037L352.174 223.9058L354.75450000000023 224.43945000000042L356.4035000000001 219.6151500000002L355.3705000000002 216.05934999999988L363.3355 216.12135000000023L366.47400000000005 218.33165000000008L371.0250000000002 214.8918500000002L378.288 214.5037000000002L378.9454999999998 212.86490000000015L378.53200000000015 210.93530000000044L382.3400000000004 209.6659500000004L384.9279999999999 206.60875000000033L386.33500000000026 200.79935000000035L381.1650000000003 189.37465000000032L374.01099999999985 185.2134000000001L372.11250000000007 190.66765000000032L364.5609999999999 192.52850000000024L361.57100000000014 189.95460000000037L361.8209999999999 184.32315000000017L355.02049999999997 181.07515000000035L358.01150000000007 171.26840000000016L356.78750000000036 165.37714999999992L357.9169999999999 161.32570000000044L360.9899999999999 158.49625000000003L360.49500000000023 156.44910000000039L353.57349999999997 151.93780000000004L346.09550000000013 155.7492000000002L329.30949999999996 157.04890000000034L326.15099999999984 154.9793500000004L328.802 149.4814500000001L329.3335000000002 143.3729500000004L328.4115000000003 141.54380000000003L322.5110000000001 141.6210000000001L322.158 135.62145000000044L333.87249999999995 126.80155000000013L333.8870000000003 123.04725000000019L330.4635000000002 123.12389999999994L328.87 117.74274999999989L325.77200000000005 106.11530000000016z">
      <title id="t206">Deuxième circonscription de la Haute-Loire</title>
      <desc id="d206">Cantons de : Allègre, Auzon, Blesle, Brioude Nord, Brioude Sud, Cayres, La Chaise-Dieu, Craponne-sur-Arzon, Langeac Lavoûte-Chilhac, Loudes, Paulhaguet, Pinols, Pradelles, Le Puy Nord, Le Puy Ouest, Le Puy Sud-Ouest, Saint-Paulien, Saugues, Solignac-sur-Loire.</desc>
    </path></svg>