<svg xmlns="http://www.w3.org/2000/svg" version="1.1" xmlns:xlink="http://www.w3.org/1999/xlink" xmlns:svgjs="http://svgjs.dev/svgjs" width="904.9829999999997" height="611.4818500000001" fill="#eeeeee" stroke="#cccccc" xmlns:sodipodi="http://sodipodi.sourceforge.net/DTD/sodipodi-0.dtd"><path class="circo" id="id-044-01" d="M719.3624999999997 442.0128500000004L678.7649999999996 429.1993500000001L660.560999999999 417.4208500000003L646.1654999999996 401.17835000000014L647.435999999999 395.46235000000024L646.4884999999992 384.8243500000001L651.2964999999997 382.1443500000004L661.8115 384.72135000000037L677.1499999999992 378.5798500000004L696.810999999999 359.3503500000003L706.434999999999 362.7613500000001L714.9519999999995 348.09135000000026L719.9234999999999 350.5613500000004L729.949499999999 346.4603500000004L757.9144999999994 364.44935000000044L781.5174999999999 401.63685000000044L791.7714999999998 402.7703500000001L818.021 409.60335000000043L825.0474999999994 424.59385L839.8059999999998 428.97835000000043L838.7754999999993 439.4208500000002L832.5699999999995 448.19885L829.8624999999993 462.3348500000003L829.357 468.7008500000002L822.8179999999998 475.76685L825.2799999999991 482.9968500000001L818.5609999999997 489.9398500000001L792.1704999999997 476.62135000000035L782.8529999999989 469.8028500000004L789.433499999999 464.83385L785.2194999999995 455.8398500000004L767.568 443.39485000000025L722.5184999999999 425.7858500000003L719.3624999999997 442.0128500000004z">
      <title id="t207">Première circonscription de Loire-Atlantique</title>
      <desc id="d207">Cantons de : Nantes I, Nantes VI, Nantes VII, Orvault.</desc>
    </path><path class="circo" id="id-044-02" d="M796.8494999999996 522.9538500000001L802.7649999999994 508.8128500000005L788.459499999999 504.2378500000001L789.4274999999993 496.56735000000026L787.7539999999999 489.91885000000025L792.1704999999997 476.62135000000035L818.5609999999997 489.9398500000001L825.2799999999991 482.9968500000001L822.8179999999998 475.76685L829.357 468.7008500000002L829.8624999999993 462.3348500000003L843.5825 464.2623500000002L866.6874999999993 433.80785000000003L877.6549999999997 424.2973500000005L887.4234999999999 419.4748500000003L886.481 435.26835000000005L904.9829999999997 473.8773500000002L902.6854999999989 476.62435000000016L872.0784999999989 490.8863500000001L852.6239999999996 511.3478500000002L824.2419999999993 521.8348500000002L796.8494999999996 522.9538500000001z">
      <title id="t208">Deuxième circonscription de Loire-Atlantique</title>
      <desc id="d208">Cantons de : Nantes II, Nantes III, Nantes IV, Nantes IX.</desc>
    </path><path class="circo" id="id-044-03" d="M281.06449999999995 350.08685000000014L287.8129999999999 339.95285000000024L290.12199999999893 332.15485L292.2969999999998 332.6083500000004L302.2834999999998 328.00535000000025L315.3749999999991 316.2078500000001L321.57949999999914 317.54785000000027L323.4024999999997 317.38535000000013L321.6089999999997 314.32185000000004L325.5639999999994 315.18935L327.4865 311.55985000000044L332.4524999999994 305.7310000000001L354.32649999999967 307.6624000000004L360.2445 304.8521500000004L366.45899999999983 306.0760000000005L371.24349999999936 301.54160000000047L371.25 301.6545500000001L372.4854999999991 312.7133500000002L377.23499999999945 320.20185000000026L383.71849999999995 326.24585000000025L384.82849999999985 330.54985000000045L383.47849999999994 332.3198500000001L380.1174999999989 338.1093500000003L376.3194999999996 336.76285000000007L368.5604999999998 344.35185000000047L362.50749999999925 346.77535000000034L358.3579999999995 345.7583500000004L356.46049999999946 346.8158500000004L356.83449999999993 351.0138500000005L356.33299999999963 353.26985000000036L362.0139999999992 359.67985L369.19799999999896 364.32785000000024L385.2189999999996 369.38435000000027L386.4644999999996 362.98085000000015L404.24249999999915 369.92985000000033L411.20849999999905 374.8408500000005L412.87149999999997 378.39035000000024L410.2744999999993 380.35135000000025L413.95149999999944 383.0418500000002L412.2084999999993 388.28985000000046L412.86899999999946 390.91335000000015L412.48699999999985 393.9403500000003L418.13249999999925 395.74585000000013L415.7979999999998 401.3263500000005L408.7044999999989 405.7388500000002L403.5254999999995 409.20635000000004L389.19849999999997 405.0518500000004L387.56399999999985 405.2723500000002L379.7974999999997 404.0123500000004L377.7234999999996 406.6903500000001L366.8214999999998 400.15885000000026L368.2034999999996 399.08885L366.70049999999947 395.9403500000002L360.634 394.6608500000002L344.1854999999998 396.13585L335.8629999999994 393.55785000000026L327.2404999999992 393.3943500000004L321.2514999999996 387.4043500000005L314.98699999999985 386.81685000000016L307.9774999999995 381.57985000000053L303.36649999999963 371.71235000000024L302.4689999999998 368.09735000000046L300.26449999999954 368.2218500000005L295.03049999999917 364.1343500000005L281.06449999999995 350.08685000000014z">
      <title id="t209">Troisième circonscription de Loire-Atlantique</title>
      <desc id="d209">Cantons de : Nantes V, Nantes XI, Saint-Etienne-de-Montluc, Saint-Herblain Est, Saint-Herblain Ouest-Indre.</desc>
    </path><path class="circo" id="id-044-04" d="M365.4004999999995 441.8348500000002L362.902499999999 441.2063500000005L353.48299999999995 445.63035000000013L347.44899999999916 439.97585000000015L358.5424999999998 427.89085L347.731 427.0468500000004L341.3709999999992 421.26935000000003L333.37249999999926 418.28085000000044L337.5159999999994 409.89735000000053L343.56649999999945 409.1593500000005L354.3044999999995 409.7978500000005L366.17149999999924 414.6868500000005L373.11699999999973 416.55685000000005L377.7234999999996 406.6903500000001L379.7974999999997 404.0123500000004L387.56399999999985 405.2723500000002L389.19849999999997 405.0518500000004L403.5254999999995 409.20635000000004L408.7044999999989 405.7388500000002L415.7979999999998 401.3263500000005L426.60799999999995 400.8848500000005L437.80849999999987 396.74635000000023L445.48599999999965 388.6713500000002L457.5644999999997 383.0433500000004L455.71199999999976 389.0623500000004L459.49649999999906 399.18785000000014L460.43699999999944 407.7688500000005L443.97149999999897 406.2963500000001L441.7345 411.62435000000016L439.74649999999997 415.38635L440.5314999999996 421.55385000000024L434.9664999999993 428.39585L429.1249999999991 431.5513500000003L428.32399999999893 433.4513500000003L432.23749999999995 440.6573500000002L432.1754999999996 444.76185000000044L436.99299999999994 451.22135000000014L436.12799999999993 456.80135000000007L426.39449999999897 463.6418500000002L420.6804999999997 457.03085000000044L409.1594999999995 451.29885L403.1174999999996 452.26035000000024L399.06549999999925 453.0608500000005L389.0715 460.62185L387.5654999999995 457.0613500000002L391.8349999999998 450.1073500000001L383.6754999999994 448.96135000000015L380.79849999999965 446.16285000000005L379.288499999999 447.50935000000027L377.5839999999994 446.4158500000002L375.15449999999987 440.94285000000013L365.4004999999995 441.8348500000002z">
      <title id="t210">Quatrième circonscription de Loire-Atlantique</title>
      <desc id="d210">Cantons de Bouaye, Nantes X, Rezé.</desc>
    </path><path class="circo" id="id-044-05" d="M434.24049999999966 378.16485L428.8259999999991 377.4043500000005L429.8944999999992 371.8253500000003L432.3434999999995 368.36135000000013L432.7499999999998 364.24035000000003L426.9259999999997 362.51035L424.153 356.5943500000003L413.7939999999992 353.8978500000002L409.7474999999997 353.4508500000004L400.4329999999993 338.77535000000023L389.396999999999 331.6763500000002L385.4404999999997 333.29435000000046L383.47849999999994 332.3198500000001L384.82849999999985 330.54985000000045L383.71849999999995 326.24585000000025L377.23499999999945 320.20185000000026L372.4854999999991 312.7133500000002L371.25 301.6545500000001L371.24349999999936 301.54160000000047L380.5619999999999 293.0376000000001L378.4319999999991 292.5079500000004L374.2394999999999 277.98879999999997L368.58949999999936 274.6504500000003L366.72699999999963 270.66750000000013L358.432499999999 268.0833000000001L356.61249999999995 264.07505000000015L366.3794999999993 259.66679999999997L367.34199999999987 257.71120000000053L367.95799999999986 231.89975000000004L368.59699999999975 229.8035500000003L370.7549999999992 229.49925000000007L372.6184999999998 230.61275000000023L374.27349999999933 236.80705000000046L381.70999999999935 241.2233500000002L388.00649999999905 242.21645000000024L398.4184999999991 236.49085000000014L402.70299999999907 236.70395000000042L414.06349999999975 242.10455000000024L415.782999999999 238.03660000000036L423.18449999999984 233.51985000000013L446.2259999999992 209.64485000000025L457.0869999999991 209.71030000000042L460.8274999999992 211.6473000000002L462.19349999999963 218.0124500000005L457.96499999999924 222.80615000000012L456.9864999999993 226.8873000000002L458.2779999999991 228.6397500000004L464.763999999999 228.707L473.1619999999998 222.45960000000025L491.878999999999 225.53475000000049L490.83299999999895 231.8180000000001L492.17149999999947 235.87480000000028L497.52899999999954 239.3610000000001L505.91749999999934 240.06185000000016L507.29049999999916 241.70230000000004L511.2099999999998 240.24410000000046L512.1574999999996 238.37285000000008L510.3789999999992 234.69670000000008L512.0674999999994 233.45260000000053L516.1329999999998 232.57055000000037L522.1004999999991 234.4402500000001L522.6324999999997 240.8657500000004L526.5644999999995 242.62745000000052L529.6749999999997 248.29795000000047L537.4644999999998 249.9902000000003L538.1609999999989 253.86630000000025L534.6834999999999 263.1347500000004L544.7969999999998 267.05645000000004L563.4844999999996 279.16785000000004L566.2029999999993 282.4341500000003L565.9339999999997 292.7069L539.6749999999997 292.2161500000004L522.5699999999995 302.0516500000002L530.5239999999992 311.3248500000003L531.6874999999993 315.2983500000005L524.8034999999993 323.82835L518.6204999999995 325.96585000000005L511.43299999999954 334.30935000000034L509.17949999999905 335.43435000000045L493.65699999999947 346.33285L490.96649999999954 348.3873500000004L483.5114999999996 358.57635000000016L473.3669999999995 366.0028500000004L466.0534999999993 373.4513500000003L458.47099999999955 381.9593500000002L451.16949999999974 366.72285000000045L451.5414999999996 360.48985000000016L447.6864999999998 362.3933500000004L443.35849999999937 366.1463500000002L434.24049999999966 378.16485z">
      <title id="t211">Cinquième circonscription de Loire-Atlantique</title>
      <desc id="d211">Cantons de : Carquefou, La Chapelle-sur-Erdre, Ligné, Nantes VIII, Nort-sur-Erdre</desc>
    </path><path class="circo" id="id-044-06" d="M574.4924999999989 305.91920000000016L564.9124999999992 305.57920000000024L563.2509999999991 306.8670500000002L553.0059999999992 311.03385000000003L542.0155 311.48285000000044L531.6874999999993 315.2983500000005L530.5239999999992 311.3248500000003L522.5699999999995 302.0516500000002L539.6749999999997 292.2161500000004L565.9339999999997 292.7069L566.2029999999993 282.4341500000003L563.4844999999996 279.16785000000004L544.7969999999998 267.05645000000004L534.6834999999999 263.1347500000004L538.1609999999989 253.86630000000025L537.4644999999998 249.9902000000003L529.6749999999997 248.29795000000047L526.5644999999995 242.62745000000052L522.6324999999997 240.8657500000004L522.1004999999991 234.4402500000001L516.1329999999998 232.57055000000037L512.0674999999994 233.45260000000053L510.3789999999992 234.69670000000008L512.1574999999996 238.37285000000008L511.2099999999998 240.24410000000046L507.29049999999916 241.70230000000004L505.91749999999934 240.06185000000016L497.52899999999954 239.3610000000001L492.17149999999947 235.87480000000028L490.83299999999895 231.8180000000001L491.878999999999 225.53475000000049L473.1619999999998 222.45960000000025L464.763999999999 228.707L458.2779999999991 228.6397500000004L456.9864999999993 226.8873000000002L457.96499999999924 222.80615000000012L462.19349999999963 218.0124500000005L460.8274999999992 211.6473000000002L457.0869999999991 209.71030000000042L446.2259999999992 209.64485000000025L423.18449999999984 233.51985000000013L415.782999999999 238.03660000000036L414.06349999999975 242.10455000000024L402.70299999999907 236.70395000000042L398.4184999999991 236.49085000000014L388.00649999999905 242.21645000000024L381.70999999999935 241.2233500000002L374.27349999999933 236.80705000000046L372.6184999999998 230.61275000000023L370.7549999999992 229.49925000000007L368.59699999999975 229.8035500000003L367.95799999999986 231.89975000000004L367.34199999999987 257.71120000000053L366.3794999999993 259.66679999999997L356.61249999999995 264.07505000000015L358.432499999999 268.0833000000001L366.72699999999963 270.66750000000013L368.58949999999936 274.6504500000003L374.2394999999999 277.98879999999997L378.4319999999991 292.5079500000004L380.5619999999999 293.0376000000001L371.24349999999936 301.54160000000047L366.45899999999983 306.0760000000005L360.2445 304.8521500000004L354.32649999999967 307.6624000000004L332.4524999999994 305.7310000000001L327.4865 311.55985000000044L325.5639999999994 315.18935L321.6089999999997 314.32185000000004L306.1779999999999 298.7647000000004L304.2949999999996 286.15710000000036L287.83649999999966 290.9785500000004L287.08349999999996 287.4595000000005L276.4399999999989 288.2014000000004L272.4784999999997 286.2977000000001L274.66099999999983 275.99725000000035L271.6279999999995 265.8054000000004L273.5164999999995 257.5686000000002L269.4189999999992 250.08380000000045L275.01449999999977 247.1216000000004L276.3964999999996 234.5068500000002L280.5714999999998 235.74905L284.6314999999993 234.4019000000003L290.5079999999998 231.62185000000022L300.62149999999974 220.28925000000015L291.15899999999897 208.58600000000024L286.63349999999923 203.90735000000006L271.7999999999995 207.65800000000013L261.32099999999923 206.17565000000013L259.6399999999994 197.93280000000038L253.69049999999902 195.55440000000033L251.78049999999985 184.8705000000001L238.96799999999985 183.68935000000022L235.00299999999925 175.95605000000035L225.714999999999 170.0608500000004L222.10699999999974 167.66155000000026L201.1775 162.20655000000022L195.8504999999991 165.60915000000023L192.30849999999919 162.52030000000047L194.26649999999995 161.6886500000004L193.38799999999992 151.32655L200.20649999999932 146.3139000000001L200.7084999999995 144.2456500000003L200.92199999999934 135.48035000000027L195.7204999999999 128.5934500000002L202.08899999999971 117.2008500000004L214.8694999999998 116.56425000000013L216.810999999999 108.13680000000033L218.64649999999983 106.93145000000015L221.94499999999948 105.1776000000001L231.7414999999994 106.45305000000008L248.2669999999996 88.96695000000022L248.4134999999992 89.04269999999997L250.11949999999956 92.97255000000007L250.01699999999914 101.54150000000016L251.28849999999943 103.26585000000023L255.52299999999946 103.4653000000003L264.4584999999995 93.60640000000046L285.86849999999913 87.79370000000029L286.86199999999985 88.35255000000018L293.45899999999915 84.20240000000035L295.27849999999944 80.64420000000041L299.23149999999964 80.20020000000045L305.9074999999996 81.0080000000005L309.8919999999998 79.21930000000032L313.441499999999 81.74125000000004L327.7974999999992 85.35180000000025L334.0314999999998 86.11145000000022L343.10949999999934 81.0118L350.6134999999995 84.11275000000046L351.8374999999992 85.69090000000017L359.6759999999995 85.00950000000046L359.9884999999995 80.63410000000033L361.89449999999965 79.54645000000028L370.2824999999996 77.28520000000003L381.027499999999 78.86810000000025L388.10199999999895 71.3243L390.76099999999997 71.24725000000012L391.3259999999991 58.89625000000024L395.4359999999997 47.47250000000008L398.62199999999916 45.10725000000036L404.47599999999966 45.4992500000003L407.7714999999989 43.237550000000056L409.4569999999999 37.22685000000013L413.211 35.41110000000003L417.4249999999995 35.83295000000021L425.4849999999999 32.359950000000026L436.5384999999992 31.692650000000526L444.28699999999935 23.821700000000305L447.75949999999966 21.392700000000104L451.5809999999999 22.99350000000004L457.7559999999994 21.580000000000155L462.8779999999995 18.32825000000014L462.4084999999991 12.530100000000175L457.1724999999992 1.934800000000223L458.12299999999937 0.03165000000024065L464.2949999999996 0L467.9224999999997 1.9690000000002783L482.40749999999935 2.052550000000224L485.6594999999993 4.6608500000002095L488.0809999999997 4.719100000000367L489.6724999999992 6.233349999999973L495.56949999999915 4.139850000000251L507.23499999999945 21.621150000000284L517.473 25.092100000000528L518.6809999999991 25.459050000000047L557.4709999999993 36.791750000000434L556.8615 45.44870000000003L561.4479999999992 50.03360000000043L559.238499999999 58.197250000000054L553.2904999999994 58.381800000000226L553.8254999999992 64.63000000000022L562.4594999999999 70.52575000000047L570.4184999999995 73.38954999999999L578.8135 71.55680000000018L578.9054999999996 77.67875000000004L585.385 87.30115000000012L587.6264999999989 88.70740000000012L586.3589999999999 92.84375000000011L587.3915 97.04515000000015L584.8899999999992 105.09240000000034L588.4534999999994 110.28930000000003L592.7189999999996 110.21675000000016L595.4739999999993 119.69340000000045L595.0794999999994 125.67270000000008L603.4589999999992 134.39960000000042L603.3674999999994 136.4337500000005L609.414999999999 136.25215000000026L618.143 135.43245000000013L630.0444999999991 144.51925000000017L651.240499999999 148.98390000000006L658.0529999999999 154.00374999999997L658.5039999999992 156.08204999999998L653.3964999999989 162.77105000000006L647.952499999999 166.03125000000034L644.3919999999991 167.69555000000025L644.0549999999996 171.51080000000036L638.3249999999998 170.2448000000004L630.0209999999993 168.80045000000052L619.5129999999995 169.95945000000006L588.4749999999997 165.49390000000017L586.1749999999995 181.10905000000002L596.3725 184.47384999999997L596.7674999999997 186.60945000000027L590.4134999999997 192.2908000000001L591.1484999999993 196.5752500000002L596.4224999999999 205.4684500000002L602.2234999999989 208.38405000000023L616.7759999999998 210.76845000000048L629.3274999999994 209.2592000000002L631.105 210.4036000000002L643.078999999999 207.87445000000048L651.0194999999999 211.26610000000028L657.0784999999989 217.72064999999998L676.6454999999996 216.4960000000002L679.4024999999999 223.14260000000047L675.8169999999996 227.59095000000002L675.6309999999996 231.42570000000035L681.5199999999993 240.7438000000002L683.9269999999999 259.90110000000016L686.122499999999 262.4972500000001L694.505999999999 274.9556000000001L689.2309999999998 281.8679500000002L685.0059999999996 282.3287000000005L679.8904999999991 286.61405L675.556499999999 288.93695000000037L672.0749999999998 292.37115000000017L665.9965 291.3833500000004L656.6114999999991 295.69575000000043L648.3234999999991 296.15385000000003L634.7814999999991 292.8970000000004L628.5979999999995 292.5154500000002L618.6834999999996 295.12410000000045L614.3919999999991 295.56335000000047L613.4429999999998 294.54930000000047L600.4239999999993 294.27130000000034L589.750499999999 296.33455000000026L584.2139999999995 302.8616000000005L574.4924999999989 305.91920000000016z">
      <title id="t212">Sixième circonscription de Loire-Atlantique</title>
      <desc id="d212">Cantons de : Ancenis, Blain, Châteaubriant, Derval, Guéméné-Penfao, Moisdon-la-Rivière, Nozay, Riaillé, Rougé, Saint-Julien-de-Vouvantes, Saint-Mars-La-Jaille, Saint-Nicolas-de-Redon, Varades</desc>
    </path><path class="circo" id="id-044-07" d="M42.56849999999986 356.8248500000004L27.98149999999964 352.37535000000037L22.8329999999994 348.8513500000005L4.680499999999483 341.9688500000001L6.212999999999056 338.0938500000002L10.375999999999976 336.7543500000005L14.673999999999978 336.0558500000002L18.588499999999613 337.9303500000003L19.511999999999716 335.64885000000004L18.83699999999976 334.29885000000013L23.915499999999383 325.67835L23.898499999999103 321.22135000000014L21.25099999999975 310.3370000000001L12.830999999999904 297.31840000000034L2.862999999999829 293.63815000000045L0 290.4087000000004L0.8819999999991524 286.8965000000003L10.479499999999007 284.36755000000005L25.198999999998932 271.74255000000016L36.88449999999989 263.53740000000016L40.070499999999356 266.14390000000014L52.49499999999898 265.9906500000005L52.90300000000002 263.87155000000007L43.70149999999967 258.3363000000003L46.91949999999906 250.73730000000012L42.09899999999948 243.95545000000027L45.79499999999939 234.25540000000012L49.75749999999948 232.75599999999997L57.17049999999972 225.72465000000022L58.419999999999845 232.1518500000002L62.53349999999955 237.22320000000025L68.94049999999993 238.64255000000014L76.48449999999912 234.75645000000043L80.89349999999968 234.48360000000037L85.69049999999947 239.01715000000024L102.6019999999994 234.9085500000001L103.75249999999937 221.98730000000012L109.25449999999955 212.50790000000052L110.26649999999904 201.5979500000003L110.70949999999925 201.36385000000018L118.22749999999928 204.4459500000005L126.67899999999918 203.87900000000002L128.2039999999995 205.37215000000003L125.82199999999943 210.99180000000047L133.13850000000002 215.35495000000026L144.8059999999998 206.8942000000004L152.61649999999918 204.33330000000012L156.98399999999992 203.7104000000005L158.0664999999999 205.63645000000008L156.335499999999 213.9289500000001L157.76399999999967 215.6110000000001L166.35299999999916 217.10485000000006L171.0044999999991 212.7085500000004L171.76599999999894 197.47525000000053L175.77749999999924 195.62865000000045L194.94899999999916 190.28590000000008L195.66499999999905 186.0201500000005L192.8069999999991 180.42400000000043L195.8504999999991 165.60915000000023L201.1775 162.20655000000022L222.10699999999974 167.66155000000026L225.714999999999 170.0608500000004L235.00299999999925 175.95605000000035L238.96799999999985 183.68935000000022L251.78049999999985 184.8705000000001L253.69049999999902 195.55440000000033L259.6399999999994 197.93280000000038L261.32099999999923 206.17565000000013L271.7999999999995 207.65800000000013L286.63349999999923 203.90735000000006L291.15899999999897 208.58600000000024L300.62149999999974 220.28925000000015L290.5079999999998 231.62185000000022L284.6314999999993 234.4019000000003L280.5714999999998 235.74905L276.3964999999996 234.5068500000002L274.5074999999997 230.7573500000001L270.3174999999999 229.92490000000032L257.8019999999992 219.09555000000012L254.19349999999895 221.16660000000024L251.3009999999997 228.95475000000033L244.90549999999985 229.0358500000002L246.82449999999903 238.32760000000007L247.1029999999996 244.90885000000048L238.69550000000004 251.90915000000018L230.4684999999995 255.0173000000001L210.8104999999989 254.35575000000028L209.2184999999995 255.88115000000016L215.53849999999898 260.8006500000005L224.84299999999962 264.36900000000037L220.59399999999982 274.10105000000044L223.6239999999998 276.8178500000005L223.52800000000002 278.94810000000007L219.2554999999993 286.14705000000015L222.6394999999991 288.49450000000047L219.24749999999904 296.0202000000004L212.20899999999915 300.31570000000045L212.6324999999997 302.3484000000002L199.9275 301.39670000000024L198.52249999999913 288.5874000000001L192.09499999999935 282.92820000000006L187.7744999999993 289.9643500000002L181.34799999999927 284.95885000000044L178.5424999999998 292.4345000000005L175.1324999999997 290.77210000000036L167.24749999999972 281.7763000000002L164.0689999999995 289.8112500000002L165.24249999999938 296.0126500000001L153.0269999999996 299.14995000000033L148.54749999999967 306.4423500000004L149.39599999999928 310.51135000000045L151.37849999999958 314.57285000000013L149.90949999999998 322.08135000000027L145.69849999999974 322.27585000000033L142.72749999999974 319.2083500000001L135.68949999999973 326.71385000000043L135.701499999999 328.85085000000004L131.58199999999965 324.6408500000001L127.69249999999943 324.3178500000005L125.42599999999993 327.7108500000003L119.0524999999991 327.7703500000001L110.7409999999993 334.83885000000043L104.91949999999974 347.80035L113.90549999999962 350.3768500000001L113.77299999999991 360.94285000000013L111.0349999999994 364.2173500000001L110.47449999999913 372.6673500000004L108.19549999999936 376.22135000000014L93.75299999999925 366.12685L89.78399999999965 358.48585000000014L84.99049999999897 353.9293500000002L70.90299999999957 348.46535000000017L62.35849999999914 349.76485000000025L56.86249999999973 353.1168500000001L56.31649999999922 355.1783500000005L59.234500000000025 360.8433500000001L57.93049999999994 362.5323500000002L45.81049999999891 359.7198500000002L42.56849999999986 356.8248500000004z">
      <title id="t213">Septième circonscription de Loire-Atlantique</title>
      <desc id="d213">Cantons de : La Baule-Escoublac, Le Croisic, Guérande, Herbignac, Pontchâteau, Saint-Gildas-des-Bois</desc>
    </path><path class="circo" id="id-044-08" d="M159.78250000000003 337.8123500000004L163.25349999999958 343.14085000000034L165.42499999999905 342.9923500000001L176.85449999999946 336.7593500000004L193.72049999999945 332.7768500000002L206.7924999999991 333.3953500000001L218.65749999999935 328.08535000000006L222.01349999999934 327.14135L222.46249999999918 336.22735000000034L226.77749999999946 332.20285000000047L228.72349999999983 326.9778500000001L232.5954999999999 327.6748500000002L232.5725 338.43635000000006L235.5989999999997 336.39485000000036L240.75799999999958 338.1248500000004L252.32149999999933 342.5138500000003L271.2869999999998 346.1308500000001L281.06449999999995 350.08685000000014L287.8129999999999 339.95285000000024L290.12199999999893 332.15485L292.2969999999998 332.6083500000004L302.2834999999998 328.00535000000025L315.3749999999991 316.2078500000001L321.57949999999914 317.54785000000027L323.4024999999997 317.38535000000013L321.6089999999997 314.32185000000004L306.1779999999999 298.7647000000004L304.2949999999996 286.15710000000036L287.83649999999966 290.9785500000004L287.08349999999996 287.4595000000005L276.4399999999989 288.2014000000004L272.4784999999997 286.2977000000001L274.66099999999983 275.99725000000035L271.6279999999995 265.8054000000004L273.5164999999995 257.5686000000002L269.4189999999992 250.08380000000045L275.01449999999977 247.1216000000004L276.3964999999996 234.5068500000002L274.5074999999997 230.7573500000001L270.3174999999999 229.92490000000032L257.8019999999992 219.09555000000012L254.19349999999895 221.16660000000024L251.3009999999997 228.95475000000033L244.90549999999985 229.0358500000002L246.82449999999903 238.32760000000007L247.1029999999996 244.90885000000048L238.69550000000004 251.90915000000018L230.4684999999995 255.0173000000001L210.8104999999989 254.35575000000028L209.2184999999995 255.88115000000016L215.53849999999898 260.8006500000005L224.84299999999962 264.36900000000037L220.59399999999982 274.10105000000044L223.6239999999998 276.8178500000005L223.52800000000002 278.94810000000007L219.2554999999993 286.14705000000015L222.6394999999991 288.49450000000047L219.24749999999904 296.0202000000004L212.20899999999915 300.31570000000045L212.6324999999997 302.3484000000002L199.9275 301.39670000000024L198.52249999999913 288.5874000000001L192.09499999999935 282.92820000000006L187.7744999999993 289.9643500000002L181.34799999999927 284.95885000000044L178.5424999999998 292.4345000000005L175.1324999999997 290.77210000000036L167.24749999999972 281.7763000000002L164.0689999999995 289.8112500000002L165.24249999999938 296.0126500000001L153.0269999999996 299.14995000000033L148.54749999999967 306.4423500000004L149.39599999999928 310.51135000000045L151.37849999999958 314.57285000000013L149.90949999999998 322.08135000000027L145.69849999999974 322.27585000000033L142.72749999999974 319.2083500000001L135.68949999999973 326.71385000000043L135.701499999999 328.85085000000004L131.58199999999965 324.6408500000001L127.69249999999943 324.3178500000005L125.42599999999993 327.7108500000003L119.0524999999991 327.7703500000001L110.7409999999993 334.83885000000043L104.91949999999974 347.80035L113.90549999999962 350.3768500000001L113.77299999999991 360.94285000000013L111.0349999999994 364.2173500000001L110.47449999999913 372.6673500000004L108.19549999999936 376.22135000000014L111.75999999999931 377.82235000000014L122.15849999999932 374.7683500000005L131.2074999999993 365.61635000000024L139.74699999999984 363.8493500000004L142.6974999999993 358.2858500000003L152.66599999999926 354.1433500000005L155.0269999999989 348.1433500000003L159.96599999999944 347.1558500000003L159.78250000000003 337.8123500000004z">
      <title id="t214">Huitième circonscription de Loire-Atlantique</title>
      <desc id="d214">Cantons de : Montoir-de-Bretagne, Saint-Nazaire Centre, Sainte-Nazaire Est, Saint-Nazaire Ouest, Savenay.</desc>
    </path><path class="circo" id="id-044-09" d="M222.86299999999983 478.1803500000001L214.1459999999995 465.6133500000004L193.8104999999996 458.03885000000037L192.31049999999982 454.4688500000001L185.9394999999995 455.65485000000024L172.99949999999967 454.20135000000016L161.61499999999933 448.28885000000014L146.4009999999996 446.5833500000002L134.28499999999985 441.87635L133.33299999999895 440.06335000000036L139.692 433.99635000000046L142.60899999999992 428.46235000000036L152.72049999999922 425.4463500000003L161.22099999999932 426.8193500000001L163.98449999999912 423.51935000000026L166.15549999999985 419.9193500000001L169.71399999999903 401.36085000000037L169.07499999999914 392.6038500000004L159.59449999999947 377.67285000000015L164.74949999999922 374.03535000000034L164.5124999999996 358.8603500000005L165.49350000000004 356.8913500000002L182.2754999999995 352.7353500000004L212.76849999999968 347.5953500000003L217.51449999999977 343.5653500000001L218.95899999999983 342.0988500000004L224.97699999999895 343.24585000000013L232.5019999999995 346.5803500000004L232.5725 338.43635000000006L235.5989999999997 336.39485000000036L240.75799999999958 338.1248500000004L252.32149999999933 342.5138500000003L271.2869999999998 346.1308500000001L281.06449999999995 350.08685000000014L295.03049999999917 364.1343500000005L300.26449999999954 368.2218500000005L302.4689999999998 368.09735000000046L303.36649999999963 371.71235000000024L307.9774999999995 381.57985000000053L314.98699999999985 386.81685000000016L321.2514999999996 387.4043500000005L327.2404999999992 393.3943500000004L335.8629999999994 393.55785000000026L344.1854999999998 396.13585L360.634 394.6608500000002L366.70049999999947 395.9403500000002L368.2034999999996 399.08885L366.8214999999998 400.15885000000026L377.7234999999996 406.6903500000001L373.11699999999973 416.55685000000005L366.17149999999924 414.6868500000005L354.3044999999995 409.7978500000005L343.56649999999945 409.1593500000005L337.5159999999994 409.89735000000053L333.37249999999926 418.28085000000044L341.3709999999992 421.26935000000003L347.731 427.0468500000004L358.5424999999998 427.89085L347.44899999999916 439.97585000000015L353.48299999999995 445.63035000000013L362.902499999999 441.2063500000005L365.4004999999995 441.8348500000002L375.15449999999987 440.94285000000013L377.5839999999994 446.4158500000002L379.288499999999 447.50935000000027L380.79849999999965 446.16285000000005L383.6754999999994 448.96135000000015L391.8349999999998 450.1073500000001L387.5654999999995 457.0613500000002L389.0715 460.62185L399.06549999999925 453.0608500000005L403.1174999999996 452.26035000000024L409.1594999999995 451.29885L420.6804999999997 457.03085000000044L426.39449999999897 463.6418500000002L425.719499999999 465.6628500000005L430.94799999999964 474.52485000000024L431.75199999999904 480.80385000000035L424.7064999999998 480.02935000000036L420.8924999999999 484.51085000000035L421.3284999999996 486.4328500000005L436.1299999999994 488.4843500000005L441.99749999999995 494.6948500000002L449.5339999999999 499.0328500000004L440.9694999999999 508.39785000000006L434.87799999999993 509.7888500000005L426.3199999999995 515.0613500000003L430.9134999999992 522.0473500000003L427.83699999999953 529.7448500000002L426.40199999999936 537.6993500000003L431.2104999999997 548.2898500000005L430.7034999999996 550.3803500000004L435.1405 557.5698500000004L440.2744999999993 561.1258500000002L440.9719999999993 565.3013500000003L438.15599999999904 570.95235L429.9459999999999 570.8088500000002L436.79399999999987 581.5583500000002L447.9939999999999 590.9453500000001L449.1319999999996 596.98735L437.98599999999965 602.9708500000004L433.7844999999993 602.0243500000004L429.786499999999 603.4663500000005L428.8504999999998 611.4818500000001L416.3424999999995 608.3673500000003L406.5964999999994 603.4698500000002L402.88599999999974 604.5503500000001L389.76 600.0348500000001L383.30299999999966 600.03535L379.69049999999925 602.3913500000003L368.3454999999992 592.8198500000002L355.81899999999905 596.1778500000003L351.91599999999994 594.3033500000001L349.161499999999 589.1118500000005L349.0549999999996 579.4893500000001L345.1604999999995 574.8983500000003L346.13599999999906 573.0713500000002L343.0309999999997 567.76385L330.51599999999894 570.9693500000003L327.13449999999966 568.3518500000002L322.96249999999986 569.1388500000005L308.31899999999905 566.6958500000004L310.5504999999994 563.1788500000005L311.1595 556.9248500000003L308.71749999999906 553.50885L291.4594999999997 553.5683500000005L281.5964999999994 549.0023500000001L273.8639999999998 541.70885L271.5509999999995 533.42985L272.35799999999927 529.28785L264.632499999999 527.3318500000005L262.9194999999993 528.4403500000002L258.28949999999963 523.8523500000002L251.83299999999917 509.64485000000025L248.76999999999953 506.58135000000016L245.2864999999997 506.38085000000046L235.45399999999972 486.8388500000003L228.46000000000004 481.5713500000004L222.86299999999983 478.1803500000001z">
      <title id="t215">Neuvième circonscription de Loire-Atlantique</title>
      <desc id="d215">Cantons de : Bourgneuf-en-Retz, Legé, Machecoul, Paimboeuf, Le Pellerin, Pornic, Saint-Père-en-Retz, Saint-Philbert-de-Grand-Lieu.</desc>
    </path><path class="circo" id="id-044-10" d="M430.94799999999964 474.52485000000024L425.719499999999 465.6628500000005L426.39449999999897 463.6418500000002L436.12799999999993 456.80135000000007L436.99299999999994 451.22135000000014L432.1754999999996 444.76185000000044L432.23749999999995 440.6573500000002L428.32399999999893 433.4513500000003L429.1249999999991 431.5513500000003L434.9664999999993 428.39585L440.5314999999996 421.55385000000024L439.74649999999997 415.38635L441.7345 411.62435000000016L443.97149999999897 406.2963500000001L460.43699999999944 407.7688500000005L459.49649999999906 399.18785000000014L455.71199999999976 389.0623500000004L457.5644999999997 383.0433500000004L458.47099999999955 381.9593500000002L466.0534999999993 373.4513500000003L473.3669999999995 366.0028500000004L483.5114999999996 358.57635000000016L490.96649999999954 348.3873500000004L493.65699999999947 346.33285L509.17949999999905 335.43435000000045L511.43299999999954 334.30935000000034L517.761999999999 336.30435000000034L528.6054999999999 335.0583500000005L536.5214999999989 334.0543500000001L536.6989999999998 336.06735000000015L542.8769999999997 341.3633500000003L544.3644999999992 344.40135L544.4999999999993 355.96085000000016L553.9949999999999 368.18285000000003L563.6829999999998 374.7608500000001L569.3934999999999 372.12935000000016L574.881499999999 366.3313500000004L578.7304999999992 366.8713500000001L585.0019999999995 373.9363500000002L581.8734999999992 387.0133500000003L587.8174999999999 390.5168500000002L585.1469999999995 394.89435000000014L587.7535 400.49135000000035L586.8599999999992 404.11985000000016L593.2174999999995 408.3893500000005L589.9109999999996 417.96685000000025L581.9174999999996 425.6448500000005L573.1089999999995 434.2008500000003L568.9604999999995 434.33835000000045L560.7274999999993 440.2228500000001L563.8019999999995 442.4738500000001L563.5649999999998 446.65385000000015L565.6549999999993 450.36535000000015L563.2319999999993 455.85635000000025L555.868999999999 463.50385000000017L559.5899999999995 465.4033500000003L565.0229999999999 462.1668500000004L587.5659999999993 466.0278500000004L589.4884999999999 466.42135000000053L593.1654999999989 474.77485L598.8479999999993 480.9843500000005L612.8684999999996 485.3043500000001L610.6359999999995 490.9898500000003L611.8694999999991 499.2868500000003L598.8294999999994 505.9768500000001L578.3449999999993 499.6083500000003L572.9954999999995 493.46135000000004L569.8059999999998 491.05035000000044L564.2494999999997 484.6438500000005L556.348999999999 481.6438500000004L548.119999999999 471.84285000000045L546.0814999999991 472.52785000000017L543.9484999999991 475.9358500000002L540.0999999999999 476.7528500000003L538.5749999999996 480.4873500000002L539.8754999999994 488.0398500000001L534.7854999999993 496.32135000000005L534.1824999999994 498.22735000000023L536.0074999999995 498.9988500000004L535.0119999999993 502.7583500000003L526.8369999999993 503.01535L518.9754999999991 496.92485000000033L515.0384999999994 495.8883500000002L514.2944999999997 499.79235000000017L507.829999999999 499.56635000000006L502.19349999999963 505.9123500000004L506.0299999999995 513.5753500000004L506.6784999999993 519.94685L507.23649999999907 522.0403500000003L502.405 531.3218500000005L509.3694999999991 536.15385L508.81299999999896 542.40835L505.95699999999965 545.4363500000005L506.35149999999953 551.3778500000001L503.28649999999925 554.24935L501.403499999999 553.1973500000004L496.027499999999 556.7708500000003L485.4034999999999 559.0603500000003L467.20449999999914 570.5838500000004L461.480499999999 566.00885L467.10699999999974 551.66585L462.14599999999905 544.7083500000002L459.9834999999996 536.2708500000002L461.2194999999997 532.1783500000004L465.29849999999897 530.6088500000004L465.249 526.5603500000003L462.6599999999996 523.2628500000004L460.1024999999993 510.92985L460.8879999999999 504.9983500000002L457.6974999999993 502.3118500000004L455.15449999999987 499.28485000000023L451.2429999999995 498.52385000000027L449.5339999999999 499.0328500000004L441.99749999999995 494.6948500000002L436.1299999999994 488.4843500000005L421.3284999999996 486.4328500000005L420.8924999999999 484.51085000000035L424.7064999999998 480.02935000000036L431.75199999999904 480.80385000000035L430.94799999999964 474.52485000000024z">
      <title id="t216">Dixième circonscription de Loire-Atlantique</title>
      <desc id="d216">Cantons de : Aigrefeuille-sur-Maine, Clisson, Le Loroux-Bottereau, Vallet, Vertou, Vertou-Vignoble.</desc>
    </path></svg>