<svg xmlns="http://www.w3.org/2000/svg" version="1.1" xmlns:xlink="http://www.w3.org/1999/xlink" xmlns:svgjs="http://svgjs.dev/svgjs" width="685.9014999999999" height="546.4692499999995" fill="#eeeeee" stroke="#cccccc" xmlns:sodipodi="http://sodipodi.sourceforge.net/DTD/sodipodi-0.dtd"><path class="circo" id="id-045-01" d="M45.24650000000008 334.41014999999993L49.02050000000031 314.84154999999987L29.312499999999773 303.2621499999999L14.531999999999812 319.1650499999997L9.001999999999839 322.24249999999984L7.107000000000312 328.5186999999996L5.319000000000074 334.39814999999953L11.134000000000128 335.85639999999955L23.623999999999796 348.7004499999995L21.350499999999784 352.0275499999997L24.05300000000011 354.8716999999999L14.093500000000176 365.8934999999997L34.74049999999977 382.6142999999996L35.41299999999978 384.7302499999995L29.103000000000065 390.9017L28.99000000000001 393.13334999999995L44.51399999999978 384.89964999999984L48.708500000000186 372.2967L59.9430000000001 380.01844999999946L67.35349999999983 384.89329999999995L76.14100000000008 385.33254999999997L83.9855 389.2309499999999L84.3259999999998 395.87409999999977L90.70100000000025 410.1099499999998L113.70049999999992 399.5122999999995L121.21300000000019 395.10335L125.42599999999993 396.24559999999974L129.4889999999998 394.59159999999997L131.5469999999999 395.3459499999997L136.03850000000023 407.3729499999996L149.08149999999978 401.1104999999998L146.44600000000025 390.95219999999983L149.85250000000008 386.06814999999983L150.85550000000012 379.6360499999997L148.67549999999994 379.9236499999995L147.32349999999997 373.47324999999955L139.0395000000001 372.2682499999996L137.35749999999996 368.2122499999997L132.5490000000002 363.8382999999999L132.23799999999983 358.1728499999997L140.1925 354.4623999999999L142.11599999999976 334.8532L146.8459999999999 330.40264999999977L147.08950000000016 326.03444999999965L166.48450000000025 325.1094499999999L170.41800000000023 323.1687999999997L173.50000000000023 331.6915L172.06549999999993 335.65324999999973L175.14250000000004 354.8159999999996L170.96400000000017 358.90404999999987L174.66000000000008 369.01399999999967L181.207 368.54989999999987L184.67600000000004 371.2692999999996L189.0134999999998 371.07519999999965L194.02899999999988 347.87859999999966L198.37049999999977 347.7425499999998L204.2855000000003 350.3713499999998L206.76649999999995 353.95569999999964L207.6030000000003 349.58934999999997L204.22500000000014 344.23914999999965L206.6270000000003 335.69249999999954L206.36599999999987 318.1847499999998L198.98349999999994 313.6907499999995L198.26900000000023 311.5848L208.10299999999984 299.94659999999953L208.91650000000027 291.82004999999947L202.82100000000014 287.4308499999995L194.7539999999998 282.44639999999947L187.5600000000003 281.77059999999983L179.9195000000003 283.0365999999998L171.72149999999988 285.8923999999996L165.6895000000003 285.91669999999965L157.90750000000003 286.44454999999994L153.96450000000016 285.9418499999998L147.74699999999996 287.5201999999996L126.10950000000003 302.6469999999995L120.90599999999995 305.9249L114.62400000000002 305.1716499999998L110.40300000000002 306.1212999999998L93.81000000000029 316.8339499999996L87.5815 322.8395499999999L90.11599999999987 326.4060999999998L88.4174999999999 332.75874999999985L90.23750000000007 333.9708999999999L81.78850000000011 339.35569999999984L75.8605 340.4618999999997L77.18650000000025 336.49189999999976L75.8140000000003 334.9025999999998L68.89250000000004 330.3064499999999L60.92050000000029 328.1958499999996L53.51350000000025 331.91305L45.24650000000008 334.41014999999993z">
      <title id="t217">Première circonscription du Loiret</title>
      <desc id="d217">Cantons de : Beaugency, Cléry-Saint-André, Olivet, Orléans-Saint-Marceau, Orléans-La Source, Saint-Jean-le-Blanc</desc>
    </path><path class="circo" id="id-045-02" d="M122.44100000000003 163.12264999999968L121.29099999999994 166.36364999999955L120.21149999999977 170.4567499999996L111.9659999999999 172.0546999999999L109.17950000000019 175.31514999999956L107.25700000000018 174.27459999999996L99.42549999999983 177.79304999999965L88.80499999999984 175.98869999999977L82.59400000000028 177.2918999999996L74.06650000000013 170.28309999999976L69.40850000000012 177.7911499999999L65.38900000000012 177.6473999999996L63.72500000000002 173.73139999999978L60.070499999999925 171.9617999999997L54.59450000000004 175.15234999999961L48.322 176.11974999999973L45.48850000000016 179.23734999999965L45.29550000000029 189.13009999999986L42.169999999999845 191.7766499999999L35.9680000000003 192.66474999999957L32.81749999999988 200.29539999999997L30.72749999999985 200.44159999999977L29.946499999999787 198.5278999999997L21.98350000000005 196.60644999999988L13.026500000000283 191.50139999999965L10.698500000000308 195.17819999999972L14.341000000000008 197.5592499999999L13.901000000000181 199.69544999999982L5.525000000000091 198.56349999999964L0 201.68214999999975L1.3745000000000118 212.3451L4.632500000000164 214.94854999999973L2.1769999999997935 220.79814999999996L2.3234999999999673 231.08979999999974L6.440499999999929 230.65804999999955L9.665499999999838 227.87744999999973L21.319500000000176 226.33114999999975L21.163500000000113 236.90099999999973L14.108499999999822 244.25794999999994L13.749000000000251 246.37209999999982L17.552499999999895 248.20429999999988L4.922000000000253 254.97814999999946L3.3875000000000455 263.08149999999955L4.5760000000001355 264.8290499999996L16.540499999999838 270.1275499999997L27.424500000000194 281.05354999999975L27.373499999999922 290.25774999999953L31.444500000000062 297.49184999999954L29.312499999999773 303.2621499999999L49.02050000000031 314.84154999999987L45.24650000000008 334.41014999999993L53.51350000000025 331.91305L60.92050000000029 328.1958499999996L68.89250000000004 330.3064499999999L75.8140000000003 334.9025999999998L77.18650000000025 336.49189999999976L75.8605 340.4618999999997L81.78850000000011 339.35569999999984L90.23750000000007 333.9708999999999L88.4174999999999 332.75874999999985L90.11599999999987 326.4060999999998L87.5815 322.8395499999999L93.81000000000029 316.8339499999996L110.40300000000002 306.1212999999998L114.62400000000002 305.1716499999998L120.90599999999995 305.9249L126.10950000000003 302.6469999999995L147.74699999999996 287.5201999999996L153.96450000000016 285.9418499999998L157.90750000000003 286.44454999999994L165.6895000000003 285.91669999999965L164.6289999999999 278.9422499999995L166.4760000000001 279.2435999999998L168.30249999999978 273.5849999999999L166.5530000000001 270.09904999999947L163.19799999999987 269.3125999999995L161.67849999999987 262.80299999999954L161.3040000000001 258.38329999999985L170.64750000000004 253.11969999999974L172.11599999999976 242.2014999999999L174.17849999999987 238.88289999999984L176.17050000000006 239.20984999999973L178.93100000000004 226.33809999999983L184.0564999999998 219.2667499999999L188.30750000000023 211.3838499999997L182.4815000000001 196.9001499999996L177.2444999999999 192.9495499999996L178.08899999999994 190.87264999999945L179.97900000000016 183.7573999999995L179.17050000000017 180.06024999999966L182.50650000000007 177.36504999999966L185.93050000000005 179.93499999999983L193.98300000000006 177.8712999999999L193.89099999999985 171.2442999999996L197.0690000000002 165.3914999999995L202.46500000000026 161.46829999999966L204.09100000000024 160.02769999999998L203.1695000000002 158.05819999999983L199.3689999999998 156.0109L197.31600000000014 152.20559999999978L191.24900000000025 152.89744999999982L190.09349999999984 151.05674999999962L191.70500000000004 148.03954999999974L186.59850000000006 140.2069499999999L184.61799999999982 139.9178999999998L187.02699999999993 130.28669999999977L172.44700000000023 126.72359999999969L169.1395 137.7096499999999L164.9195000000003 137.00094999999976L163.54899999999986 138.7099999999998L159.40350000000024 152.7013999999997L155.97100000000012 157.5210999999996L148.85899999999992 159.31814999999972L148.72950000000003 165.7904499999995L138.35849999999994 164.34999999999945L137.4770000000001 168.4853499999997L133.47100000000012 168.93384999999967L122.44100000000003 163.12264999999968z">
      <title id="t218">Deuxième circonscription du Loiret</title>
      <desc id="d218">Cantons de : Artenay, Ingré, Meung-sur-Loire, Orléans-Bannier, Orléans-Carmes, Patay, Saint-Jean-de-la-Ruelle</desc>
    </path><path class="circo" id="id-045-03" d="M532.1530000000001 357.22789999999975L524.7985 352.17814999999973L520.6695000000002 339.4404999999995L514.7480000000002 338.06524999999965L509.99750000000006 341.9325999999995L509.03999999999996 345.7286499999998L499.3040000000002 337.1772999999996L490.92449999999985 335.09184999999945L492.48850000000004 328.80169999999964L494.42049999999995 327.5570499999998L486.7505 324.66624999999965L483.84149999999977 319.40184999999985L480.57349999999985 316.65219999999977L470.3264999999999 318.72365L468.87400000000014 322.6685999999995L455.7344999999998 330.66665L455.8715000000001 337.3367999999999L450.9469999999999 344.6193999999997L450.49950000000024 351.1020499999995L437.49750000000006 348.6922499999997L430.1555000000002 343.7638999999996L412.19299999999976 331.01984999999956L394.15999999999997 318.3614L390.92899999999986 313.8015999999999L388.31950000000006 310.60554999999965L382.9525000000001 320.36374999999964L378.5329999999999 320.4935499999999L368.33799999999997 315.91564999999946L358.30449999999985 320.3561499999995L350.5435 327.8913L344.3105000000003 327.1006L339.85400000000027 322.1759999999995L335.73500000000024 322.8902499999998L327.7629999999999 328.5003499999999L323.69550000000004 327.81979999999976L313.76199999999983 330.47609999999963L309.96849999999995 328.83144999999956L306.78499999999985 323.2435499999997L309.1289999999998 312.8591499999999L305.9295000000003 309.95439999999974L301.4409999999998 309.5590999999996L293.28100000000006 313.16949999999963L285.4894999999999 316.46979999999985L276.2164999999999 311.2085499999995L274.1655000000003 310.2723499999996L259.203 302.8123499999998L248.836 301.0243499999996L238.6160000000001 301.7358999999999L232.6724999999999 303.9387999999997L229.99900000000025 307.12409999999977L224.86100000000022 311.42199999999946L220.77850000000012 310.3888999999998L219.04600000000016 295.1389499999999L213.39200000000005 291.7927999999995L208.91650000000027 291.82004999999947L208.10299999999984 299.94659999999953L198.26900000000023 311.5848L198.98349999999994 313.6907499999995L206.36599999999987 318.1847499999998L206.6270000000003 335.69249999999954L204.22500000000014 344.23914999999965L207.6030000000003 349.58934999999997L206.76649999999995 353.95569999999964L204.2855000000003 350.3713499999998L198.37049999999977 347.7425499999998L194.02899999999988 347.87859999999966L189.0134999999998 371.07519999999965L184.67600000000004 371.2692999999996L181.207 368.54989999999987L174.66000000000008 369.01399999999967L170.96400000000017 358.90404999999987L175.14250000000004 354.8159999999996L172.06549999999993 335.65324999999973L173.50000000000023 331.6915L170.41800000000023 323.1687999999997L166.48450000000025 325.1094499999999L147.08950000000016 326.03444999999965L146.8459999999999 330.40264999999977L142.11599999999976 334.8532L140.1925 354.4623999999999L132.23799999999983 358.1728499999997L132.5490000000002 363.8382999999999L137.35749999999996 368.2122499999997L139.0395000000001 372.2682499999996L147.32349999999997 373.47324999999955L148.67549999999994 379.9236499999995L150.85550000000012 379.6360499999997L149.85250000000008 386.06814999999983L146.44600000000025 390.95219999999983L149.08149999999978 401.1104999999998L136.03850000000023 407.3729499999996L131.5469999999999 395.3459499999997L129.4889999999998 394.59159999999997L125.42599999999993 396.24559999999974L121.21300000000019 395.10335L113.70049999999992 399.5122999999995L90.70100000000025 410.1099499999998L87.0089999999999 412.4097999999998L91.56000000000006 419.5034499999997L95.78899999999976 433.9184499999999L98.63200000000006 437.13344999999947L111.27549999999985 439.5872499999996L113.01649999999995 440.86044999999956L112.22100000000012 445.0866499999995L118.91599999999983 450.1511999999997L122.36699999999985 447.39539999999977L123.17900000000009 443.0502999999999L126.12549999999999 439.8137499999996L140.5635000000001 435.48654999999997L139.2025000000001 429.1498999999999L139.8675000000003 420.39549999999963L140.36299999999983 418.24014999999974L144.41750000000013 416.5209999999996L146.37650000000008 415.62314999999955L148.01150000000007 417.02609999999993L147.84249999999986 423.39909999999975L149.26499999999976 425.0207499999999L159.85299999999995 423.87509999999963L163.37750000000028 426.3544999999999L169.7215 425.9422999999998L175.48999999999978 423.58469999999954L179.57949999999983 423.98934999999994L181.65549999999996 433.9322999999996L187.7249999999998 433.8288L191.39749999999992 435.77364999999986L198.5809999999998 431.5903999999995L204.2489999999998 432.3975999999999L206.50149999999996 426.4548499999995L210.0690000000003 424.0688499999999L233.75499999999988 425.7056L237.96100000000024 421.1044499999997L250.41350000000023 424.1307499999999L252.07249999999988 428.10599999999965L254.14150000000006 428.77624999999966L260.64300000000003 423.56134999999995L264.8595 424.24244999999985L269.68950000000007 428.30355L278.35950000000025 428.13124999999957L292.8449999999998 423.37954999999965L293.8670000000002 424.7386L294.15599999999984 433.2343499999996L299.99450000000024 432.0510999999999L308.5804999999999 446.90969999999993L307.9450000000003 459.70039999999983L329.3734999999998 454.6070499999996L331.0624999999999 458.66184999999973L336.841 462.0043499999997L343.7625000000003 467.5283999999999L352.2075000000001 470.1009499999998L359.3470000000002 478.5636499999998L364.6735000000001 482.10004999999967L367.6344999999998 478.8547999999997L373.8549999999998 477.3882999999995L376.42949999999985 473.82299999999987L392.46500000000026 466.76499999999976L396.4395000000002 468.7797499999999L400.25649999999985 476.8097499999999L414.6600000000001 490.71145L415.1094999999998 492.903L421.5654999999998 493.03154999999947L427.42849999999976 490.3359999999998L440.06100000000004 488.8662499999998L447.5049999999999 492.78269999999964L450.1974999999999 498.3639499999998L458.30150000000003 499.30174999999963L464.2919999999998 504.95745L468.3929999999998 511.6244999999998L466.3915000000003 519.2897499999998L485.0295 529.3544499999996L485.7679999999999 542.1496999999999L490.7715000000002 545.5309L497.98850000000016 546.4692499999995L509.97900000000016 542.6591499999995L515.4329999999999 536.5921999999995L513.0329999999998 533.1175999999999L514.4729999999998 531.5610499999997L513.8159999999999 521.1861499999998L515.324 513.1007999999997L517.3084999999998 511.9210499999997L521.9310000000002 519.2091999999997L530.3725000000003 520.1910999999996L537.7564999999998 524.7588999999999L545.2325000000002 537.56665L549.0415000000002 539.38085L557.4475000000001 537.1074499999997L563.8035000000002 528.4627999999998L578.0025 523.0446499999999L568.2600000000002 513.7013499999995L565.4910000000001 507.6146L570.3545000000003 503.5361999999998L575.4345000000001 506.93899999999985L579.5925 502.7439999999996L581.7284999999998 502.7124999999995L587.7114999999998 501.6891999999996L592.7710000000002 498.3721499999996L594.8635000000002 494.3675499999995L613.7175000000002 499.77784999999983L615.7105000000001 495.78539999999975L621.3164999999998 492.1886999999998L620.5869999999999 490.1192999999995L616.3575000000003 489.0205999999995L614.0015 480.7925499999999L608.2094999999998 477.80674999999974L605.9384999999997 474.05305L607.3255 468.0320999999998L602.5240000000002 455.87399999999946L604.1545000000002 449.9575999999996L611.8369999999999 444.1151499999995L606.4595000000003 436.6399999999999L600.7855000000001 436.07084999999984L596.5030000000002 428.90124999999955L599.0555 420.8873L585.8535 410.54254999999955L582.0145000000002 408.52485L580.1429999999999 407.44744999999966L581.7775 401.33915L579.3234999999999 397.9317499999996L572.2860000000003 402.92395L567.0985000000002 399.19264999999996L566.9625000000002 393.54089999999985L568.6155000000002 392.0528999999999L571.1095 379.0797999999995L569.1865000000001 372.7562999999998L570.2895000000001 370.8254499999998L566.4179999999999 369.7512499999999L564.2394999999999 364.1158999999999L560.4415 363.16734999999994L561.5715 355.4118999999997L548.6759999999998 353.1124999999997L544.3815000000001 354.03414999999995L539.7449999999998 358.5782999999998L533.1975 359.16585L532.1530000000001 357.22789999999975z">
      <title id="t219">Troisième circonscription du Loiret</title>
      <desc id="d219">Cantons de : Briare, Châtillon-sur-Loire, La Ferté-Saint-Aubin, Gien, Jargeau, Ouzouer-sur-Loire, Sully-sur-Loire</desc>
    </path><path class="circo" id="id-045-04" d="M666.9635 256.3809999999995L664.7550000000001 262.1902499999999L659.0050000000002 263.9378499999998L653.0085000000003 269.65824999999995L651.7925000000002 276.1068499999999L644.3214999999998 278.32284999999956L636.311 280.2319L637.8460000000001 284.2429999999996L634.3594999999999 286.27339999999947L636.1720000000003 299.07285L629.1225000000003 303.9824999999996L641.1900000000003 307.99195L645.6639999999999 318.85219999999947L644.3209999999999 322.9034999999999L637.1850000000001 326.4744499999995L637.235 330.7818499999996L639.5350000000002 334.3145499999997L637.8645 338.0563999999998L641.6345000000001 338.3481499999999L643.012 346.7719999999997L641.4024999999998 355.2436499999999L626.5715 355.40174999999977L622.9795000000001 357.6801499999999L611.9549999999998 362.9042499999997L608.843 368.2621999999998L604.7180000000003 367.9403499999995L603.9139999999998 369.8701L594.2759999999998 365.9870999999998L588.6455000000001 368.8110499999999L570.2895000000001 370.8254499999998L566.4179999999999 369.7512499999999L564.2394999999999 364.1158999999999L560.4415 363.16734999999994L561.5715 355.4118999999997L548.6759999999998 353.1124999999997L544.3815000000001 354.03414999999995L539.7449999999998 358.5782999999998L533.1975 359.16585L532.1530000000001 357.22789999999975L524.7985 352.17814999999973L520.6695000000002 339.4404999999995L514.7480000000002 338.06524999999965L509.99750000000006 341.9325999999995L509.03999999999996 345.7286499999998L499.3040000000002 337.1772999999996L490.92449999999985 335.09184999999945L492.48850000000004 328.80169999999964L494.42049999999995 327.5570499999998L501.68049999999994 323.23784999999987L507.3385000000002 316.9301999999999L508.28100000000006 315.0283999999999L504.0070000000003 310.4617499999995L510.0909999999999 304.80609999999956L516.2060000000002 306.1301499999996L517.6389999999998 304.6027499999997L517.8160000000003 286.27779999999973L514.0719999999999 285.7770499999998L509.9414999999999 275.9724L509.7795000000002 267.3090499999995L508.12749999999994 268.38854999999967L504.49700000000007 266.99764999999957L500.2665000000002 266.3576499999999L496.1194999999998 271.0946999999999L485.9570000000002 268.44304999999963L479.7449999999998 268.86484999999993L480.7155 267.1193999999997L478.7189999999998 263.49189999999965L476.044 266.0557499999999L472.5725 264.7535499999998L468.25350000000014 263.8096999999999L465.1645000000002 260.6506499999995L462.5215000000003 252.22499999999968L452.75300000000016 255.70144999999968L449.09249999999986 244.13354999999967L451.1175000000003 240.57019999999966L453.03499999999985 237.98339999999996L458.75999999999976 218.07199999999966L472.74 210.94799999999964L463.81050000000016 200.03484999999955L463.36299999999994 196.11324999999965L461.48900000000026 194.30989999999952L459.92050000000006 188.64244999999983L456.3850000000002 186.5722999999997L443.9929999999998 194.45419999999956L436.65200000000027 189.3417999999997L435.09349999999984 183.24044999999956L427.8199999999998 183.35234999999955L430.2879999999999 177.2028499999999L429.41449999999975 175.2445499999999L421.2439999999998 171.75189999999986L421.8135000000001 169.7449499999999L415.9570000000002 164.27489999999977L420.32449999999983 163.45669999999984L446.4150000000001 158.82434999999987L453.8639999999998 154.21429999999987L446.5345000000002 150.4335999999995L438.29150000000027 150.9841499999999L437.1564999999998 149.2438999999996L431.6070000000002 145.67334999999957L428.2220000000001 140.20569999999964L428.0155000000002 138.1668499999995L434.7225000000003 130.45929999999998L448.77250000000004 130.27074999999968L451.87700000000007 136.0247499999997L463.1144999999998 136.0011499999996L478.1420000000003 131.4591999999999L488.802 143.1809499999997L490.0015000000002 143.10134999999946L493.365 140.2343499999995L506.5674999999999 140.4577999999998L513.331 132.43934999999965L527.2444999999999 127.18984999999975L526.8435 123.20729999999969L519.2574999999999 114.02994999999976L527.0249999999999 117.1643499999999L530.7580000000002 115.40954999999997L534.9209999999999 115.91354999999965L538.2010000000002 113.35829999999987L542.1379999999999 114.67229999999972L545.8435000000003 112.9364499999997L550.926 115.45859999999948L550.7135 117.52879999999948L546.4609999999999 122.1198499999997L546.0584999999998 132.44889999999998L547.3020000000002 136.22784999999965L555.1600000000002 137.37279999999998L567.7760000000001 129.19754999999952L574.6865000000003 120.5755499999998L576.4580000000001 120.29709999999966L588.8069999999999 118.4105999999997L604.221 115.88869999999986L610.8744999999999 115.27059999999949L615.8229999999998 122.59509999999977L622.013 124.04879999999991L626.0244999999998 122.96965L630.163 130.46689999999955L632.9399999999998 127.69244999999955L636.9110000000001 128.5758999999996L641.1155000000002 133.54559999999992L642.9950000000002 134.5664499999998L642.8795000000002 136.7149999999998L638.039 146.25839999999982L646.2060000000002 146.30679999999984L649.522 160.47184999999956L651.4175 160.35859999999957L652.4885 163.73154999999997L652.7390000000003 173.8585999999998L656.9069999999999 178.71459999999956L671.8195000000003 185.53334999999947L669.7669999999999 189.19299999999964L672.7780000000001 194.6995499999997L684.1014999999999 200.05769999999984L674.7145 205.5687499999999L674.2779999999999 207.74699999999996L676.5820000000002 211.46074999999996L682.6490000000001 213.8875999999999L682.767 222.41649999999993L683.4570000000002 225.6465499999996L685.127 225.3810999999996L683.56 229.23569999999984L685.9014999999999 232.84539999999993L685.7405 237.29014999999947L679.495 243.1072499999999L676.0300000000001 253.51945L672.1530000000001 253.38869999999986L668.9794999999998 255.9032499999995L666.9635 256.3809999999995z">
      <title id="t220">Quatrième circonscription du Loiret</title>
      <desc id="d220">Cantons de : Amilly, Châlette-sur-Loing, Château-Renard, Châtillon-Coligny, Courtenay, Ferrières, Montargis</desc>
    </path><path class="circo" id="id-045-05" d="M401.3375000000002 139.95544999999993L400.02200000000016 141.36829999999975L394.4260000000003 140.0324999999998L395.0905 136.2227999999999L402.24800000000016 131.93239999999946L406.9240000000002 125.34389999999973L406.8185 121.49229999999989L411.6584999999998 115.17119999999977L421.4715000000001 120.31939999999963L425.11950000000013 114.96474999999975L422.54050000000007 104.71619999999973L425.33000000000015 97.01219999999978L427.40850000000023 96.4313999999996L428.5624999999999 93.34349999999972L426.1790000000002 83.38469999999973L424.7829999999999 83.38214999999991L425.3064999999998 75.37774999999954L421.9040000000001 74.06669999999963L421.41399999999976 67.97249999999963L412.0580000000001 67.69364999999993L409.2655000000002 64.39944999999966L408.91650000000027 60.12900000000002L405.6450000000001 57.28469999999959L398.297 60.38494999999955L395.19799999999975 57.79344999999978L393.34299999999985 58.610499999999774L389.32799999999986 56.97954999999979L385.51049999999975 51.797749999999496L384.8275000000001 49.99279999999999L385.10550000000023 29.205649999999537L377.4135000000001 15.487199999999461L375.82899999999995 18.978049999999484L363.50750000000005 23.185549999999466L362.5540000000001 21.525350000000003L359.10450000000026 23.094150000000013L357.4965000000003 22.060849999999732L347.09749999999985 11.837400000000002L346.23699999999985 7.743549999999573L341.0825 8.552899999999681L339.06049999999993 9.479249999999979L333.8684999999998 21.54389999999978L330.2570000000003 22.864099999999894L320.65499999999986 19.110999999999763L314.5909999999998 27.82114999999976L310.471 29.751249999999914L311.7720000000003 18.872599999999693L307.4490000000003 18.26484999999991L310.9609999999998 9.575150000000008L304.8034999999999 9.704249999999774L297.52200000000016 5.28919999999971L294.2919999999998 0L283.9675 13.468049999999607L283.4095000000002 19.914949999999862L278.8835 19.116749999999456L278.11350000000004 20.614099999999667L272.03550000000007 19.442699999999604L271.6764999999998 23.356149999999616L275.086 27.051249999999527L274.9535000000003 29.72569999999962L253.28250000000025 30.676349999999957L254.6075000000002 24.096099999999865L250.3860000000003 24.3625499999996L243.48299999999995 32.237049999999954L228.67799999999988 31.618649999999775L228.1510000000003 34.98194999999953L224.65199999999982 37.56439999999998L218.59899999999982 35.989249999999515L210.21900000000016 38.10539999999946L203.76250000000027 37.29614999999967L201.12349999999992 48.713300000000004L198.22400000000016 53.123149999999555L191.78499999999985 57.819599999999696L190.15300000000025 63.54424999999992L192.08399999999983 70.19119999999987L190.3789999999998 78.14199999999971L196.22650000000021 92.1670499999999L194.19899999999984 95.94619999999964L192.15599999999995 95.89774999999975L190.18250000000023 91.9820999999996L188.0925000000002 92.29074999999966L186.54350000000022 96.27644999999973L194.05550000000005 106.49704999999983L193.1495000000001 110.68434999999965L187.04999999999984 108.63154999999949L179.52200000000005 112.25329999999985L174.11099999999976 109.15544999999952L167.23749999999995 118.63169999999968L165.40250000000015 122.36634999999978L166.29999999999995 126.12039999999979L172.44700000000023 126.72359999999969L187.02699999999993 130.28669999999977L184.61799999999982 139.9178999999998L186.59850000000006 140.2069499999999L191.70500000000004 148.03954999999974L190.09349999999984 151.05674999999962L191.24900000000025 152.89744999999982L197.31600000000014 152.20559999999978L199.3689999999998 156.0109L203.1695000000002 158.05819999999983L204.09100000000024 160.02769999999998L202.46500000000026 161.46829999999966L197.0690000000002 165.3914999999995L193.89099999999985 171.2442999999996L193.98300000000006 177.8712999999999L185.93050000000005 179.93499999999983L182.50650000000007 177.36504999999966L179.17050000000017 180.06024999999966L179.97900000000016 183.7573999999995L178.08899999999994 190.87264999999945L177.2444999999999 192.9495499999996L182.4815000000001 196.9001499999996L188.30750000000023 211.3838499999997L184.0564999999998 219.2667499999999L178.93100000000004 226.33809999999983L176.17050000000006 239.20984999999973L174.17849999999987 238.88289999999984L172.11599999999976 242.2014999999999L170.64750000000004 253.11969999999974L161.3040000000001 258.38329999999985L161.67849999999987 262.80299999999954L163.19799999999987 269.3125999999995L169.7225000000003 270.76364999999953L173.75 268.96694999999966L179.47450000000003 262.1356999999995L184.15849999999978 254.38175L194.18000000000006 250.98254999999995L200.1339999999999 252.58984999999996L207.80849999999987 237.60564999999986L213.92949999999985 237.88309999999967L217.1584999999999 235.4776499999997L224.09100000000024 239.22634999999957L225.35199999999975 240.8735999999999L215.20800000000008 252.35889999999984L216.91250000000025 256.1982499999999L225.79650000000015 261.1600499999997L225.4559999999998 261.73479999999984L231.12250000000017 262.9685999999998L235.34449999999993 266.7140999999998L240.67450000000008 260.07524999999987L249.0424999999999 261.6053499999998L258.347 256.8358999999998L258.1205 254.8626999999999L264.55899999999986 250.65634999999986L269.7115000000002 246.88234999999963L291.21350000000007 248.5133499999995L298.12400000000025 250.01414999999952L303.7650000000002 251.56884999999988L314.3380000000002 245.54449999999974L310.71950000000015 239.9010999999996L313.2985000000002 231.38059999999996L316.52300000000025 228.33274999999958L316.80999999999983 212.7078499999999L327.8354999999999 220.36944999999946L335.18550000000005 228.65909999999985L337.7724999999998 225.41349999999966L347.85450000000026 227.70979999999952L357.7415000000002 232.75904999999966L364.34950000000015 232.74L365.9285 234.31014999999945L367.6120000000003 238.35285L374.0005000000002 239.60024999999973L379.5765 236.58104999999978L381.6610000000003 237.26284999999962L383.81849999999986 244.8843999999997L379.058 248.61549999999966L377.491 252.3277999999999L379.076 251.08214999999973L386.50800000000004 253.7053499999996L384.5935000000003 259.70349999999996L390.4264999999998 268.9884999999998L402.85649999999976 265.04849999999976L407.25250000000017 265.4582499999998L412.4200000000002 261.8908499999998L411.33550000000014 256.1995499999995L421.80000000000007 255.47559999999976L423.3224999999999 252.20024999999964L423.19500000000005 250.03639999999962L426.18299999999977 247.05939999999998L430.07799999999975 248.9264499999996L436.5269999999998 248.5513999999995L436.3625000000002 235.87634999999977L440.154 235.5005L451.1175000000003 240.57019999999966L453.03499999999985 237.98339999999996L458.75999999999976 218.07199999999966L472.74 210.94799999999964L463.81050000000016 200.03484999999955L463.36299999999994 196.11324999999965L461.48900000000026 194.30989999999952L459.92050000000006 188.64244999999983L456.3850000000002 186.5722999999997L443.9929999999998 194.45419999999956L436.65200000000027 189.3417999999997L435.09349999999984 183.24044999999956L427.8199999999998 183.35234999999955L430.2879999999999 177.2028499999999L429.41449999999975 175.2445499999999L421.2439999999998 171.75189999999986L421.8135000000001 169.7449499999999L415.9570000000002 164.27489999999977L420.32449999999983 163.45669999999984L446.4150000000001 158.82434999999987L453.8639999999998 154.21429999999987L446.5345000000002 150.4335999999995L438.29150000000027 150.9841499999999L437.1564999999998 149.2438999999996L431.6070000000002 145.67334999999957L428.2220000000001 140.20569999999964L409.246 137.73064999999974L401.3375000000002 139.95544999999993z">
      <title id="t221">Cinquième circonscription du Loiret</title>
      <desc id="d221">Cantons de : Beaune-la-Rolande, Bellegarde, Fleury-les-Aubrais, Malesherbes, Neuville-aux-Bois, Outarville, Pithiviers, Puiseaux</desc>
    </path><path class="circo" id="id-045-06" d="M368.33799999999997 315.91564999999946L358.30449999999985 320.3561499999995L350.5435 327.8913L344.3105000000003 327.1006L339.85400000000027 322.1759999999995L335.73500000000024 322.8902499999998L327.7629999999999 328.5003499999999L323.69550000000004 327.81979999999976L313.76199999999983 330.47609999999963L309.96849999999995 328.83144999999956L306.78499999999985 323.2435499999997L309.1289999999998 312.8591499999999L305.9295000000003 309.95439999999974L301.4409999999998 309.5590999999996L293.28100000000006 313.16949999999963L285.4894999999999 316.46979999999985L276.2164999999999 311.2085499999995L274.1655000000003 310.2723499999996L259.203 302.8123499999998L248.836 301.0243499999996L238.6160000000001 301.7358999999999L232.6724999999999 303.9387999999997L229.99900000000025 307.12409999999977L224.86100000000022 311.42199999999946L220.77850000000012 310.3888999999998L219.04600000000016 295.1389499999999L213.39200000000005 291.7927999999995L208.91650000000027 291.82004999999947L202.82100000000014 287.4308499999995L194.7539999999998 282.44639999999947L187.5600000000003 281.77059999999983L179.9195000000003 283.0365999999998L171.72149999999988 285.8923999999996L165.6895000000003 285.91669999999965L164.6289999999999 278.9422499999995L166.4760000000001 279.2435999999998L168.30249999999978 273.5849999999999L166.5530000000001 270.09904999999947L169.7225000000003 270.76364999999953L173.75 268.96694999999966L179.47450000000003 262.1356999999995L184.15849999999978 254.38175L194.18000000000006 250.98254999999995L200.1339999999999 252.58984999999996L207.80849999999987 237.60564999999986L213.92949999999985 237.88309999999967L217.1584999999999 235.4776499999997L224.09100000000024 239.22634999999957L225.35199999999975 240.8735999999999L215.20800000000008 252.35889999999984L216.91250000000025 256.1982499999999L225.79650000000015 261.1600499999997L225.4559999999998 261.73479999999984L231.12250000000017 262.9685999999998L235.34449999999993 266.7140999999998L240.67450000000008 260.07524999999987L249.0424999999999 261.6053499999998L258.347 256.8358999999998L258.1205 254.8626999999999L264.55899999999986 250.65634999999986L269.7115000000002 246.88234999999963L291.21350000000007 248.5133499999995L298.12400000000025 250.01414999999952L303.7650000000002 251.56884999999988L314.3380000000002 245.54449999999974L310.71950000000015 239.9010999999996L313.2985000000002 231.38059999999996L316.52300000000025 228.33274999999958L316.80999999999983 212.7078499999999L327.8354999999999 220.36944999999946L335.18550000000005 228.65909999999985L337.7724999999998 225.41349999999966L347.85450000000026 227.70979999999952L357.7415000000002 232.75904999999966L364.34950000000015 232.74L365.9285 234.31014999999945L367.6120000000003 238.35285L374.0005000000002 239.60024999999973L379.5765 236.58104999999978L381.6610000000003 237.26284999999962L383.81849999999986 244.8843999999997L379.058 248.61549999999966L377.491 252.3277999999999L379.076 251.08214999999973L386.50800000000004 253.7053499999996L384.5935000000003 259.70349999999996L390.4264999999998 268.9884999999998L402.85649999999976 265.04849999999976L407.25250000000017 265.4582499999998L412.4200000000002 261.8908499999998L411.33550000000014 256.1995499999995L421.80000000000007 255.47559999999976L423.3224999999999 252.20024999999964L423.19500000000005 250.03639999999962L426.18299999999977 247.05939999999998L430.07799999999975 248.9264499999996L436.5269999999998 248.5513999999995L436.3625000000002 235.87634999999977L440.154 235.5005L451.1175000000003 240.57019999999966L449.09249999999986 244.13354999999967L452.75300000000016 255.70144999999968L462.5215000000003 252.22499999999968L465.1645000000002 260.6506499999995L468.25350000000014 263.8096999999999L472.5725 264.7535499999998L476.044 266.0557499999999L478.7189999999998 263.49189999999965L480.7155 267.1193999999997L479.7449999999998 268.86484999999993L485.9570000000002 268.44304999999963L496.1194999999998 271.0946999999999L500.2665000000002 266.3576499999999L504.49700000000007 266.99764999999957L508.12749999999994 268.38854999999967L509.7795000000002 267.3090499999995L509.9414999999999 275.9724L514.0719999999999 285.7770499999998L517.8160000000003 286.27779999999973L517.6389999999998 304.6027499999997L516.2060000000002 306.1301499999996L510.0909999999999 304.80609999999956L504.0070000000003 310.4617499999995L508.28100000000006 315.0283999999999L507.3385000000002 316.9301999999999L501.68049999999994 323.23784999999987L494.42049999999995 327.5570499999998L486.7505 324.66624999999965L483.84149999999977 319.40184999999985L480.57349999999985 316.65219999999977L470.3264999999999 318.72365L468.87400000000014 322.6685999999995L455.7344999999998 330.66665L455.8715000000001 337.3367999999999L450.9469999999999 344.6193999999997L450.49950000000024 351.1020499999995L437.49750000000006 348.6922499999997L430.1555000000002 343.7638999999996L412.19299999999976 331.01984999999956L394.15999999999997 318.3614L390.92899999999986 313.8015999999999L388.31950000000006 310.60554999999965L382.9525000000001 320.36374999999964L378.5329999999999 320.4935499999999L368.33799999999997 315.91564999999946z">
      <title id="t222">Sixième circonscription du Loiret</title>
      <desc id="d222">Cantons de : Châteauneuf-sur-Loire, Chécy, Lorris, Orléans-Bourgogne, Orléans-Saint-Marc-Argonne, Saint-Jean-de-Braye</desc>
    </path></svg>