<svg xmlns="http://www.w3.org/2000/svg" version="1.1" xmlns:xlink="http://www.w3.org/1999/xlink" xmlns:svgjs="http://svgjs.dev/svgjs" width="522.321" height="502.40999999999985" fill="#eeeeee" stroke="#cccccc" xmlns:sodipodi="http://sodipodi.sourceforge.net/DTD/sodipodi-0.dtd"><path class="circo" id="id-046-01" d="M152.81650000000013 490.10249999999985L149.7505000000001 487.5189999999998L145.71050000000014 487.99999999999955L142.27750000000015 486.2039999999996L136.6500000000002 487.60099999999966L127.41750000000025 483.433L129.32050000000004 480.3789999999998L128.72450000000015 473.2454999999999L136.6194999999999 467.0259999999996L133.8299999999998 460.129L137.06450000000018 448.5079999999999L135.35450000000026 448.02099999999996L128.0065000000002 450.9439999999995L123.76149999999996 455.3664999999995L117.66300000000001 455.15949999999975L116.38149999999996 453.55699999999956L114.31550000000016 463.02599999999984L111.63749999999993 465.21799999999985L108.99650000000008 459.9649999999997L103.56800000000021 457.50549999999976L101.58000000000015 457.68899999999974L98.25950000000034 462.31799999999964L94.2534999999998 455.4609999999997L92.57150000000024 456.44049999999993L86.2315000000001 452.89799999999957L83.27650000000006 448.1279999999998L83.92550000000028 438.7874999999997L79.70849999999984 442.6714999999996L75.69500000000005 439.1769999999997L72.2075000000001 440.6709999999998L66.91649999999981 435.9499999999997L63.33250000000021 434.9705L60.07350000000031 435.75999999999965L59.010000000000105 434.3089999999995L54.3810000000002 430.39199999999994L56.1545000000001 422.72599999999954L52.15250000000026 418.1509999999997L48.76649999999984 415.9319999999997L44.804000000000315 415.95249999999965L42.375000000000114 412.7419999999995L45.73700000000031 410.61549999999954L47.79949999999985 404.7895L51.807000000000016 405.26599999999974L59.42000000000007 402.1279999999996L63.49750000000029 402.18050000000005L64.9860000000001 400.81249999999955L64.15900000000022 389.2659999999995L51.3454999999999 390.4454999999996L43.11449999999979 396.57299999999964L35.09050000000002 398.4024999999997L33.17600000000027 391.0329999999999L29.601000000000113 390.22149999999954L34.07199999999989 384.4761999999997L32.287000000000035 369.15404999999964L27.907000000000153 367.16205L26.981999999999857 365.38419999999974L21.10400000000027 365.9323999999998L21.132000000000062 362.1103999999997L17.06799999999987 357.89154999999994L16.77500000000009 352.1514499999995L18.489999999999895 346.5586499999995L17.633000000000152 340.7183999999995L11.689999999999827 337.97184999999956L14.078000000000088 332.16054999999983L14.779500000000212 323.88004999999964L0 299.59450000000004L4.9500000000000455 296.63234999999986L10.645000000000095 297.70105L13.450000000000273 304.54669999999965L22.009500000000344 293.69325000000003L25.484500000000025 291.78039999999953L25.837000000000216 291.5513999999996L26.756000000000313 289.7344499999997L38.02999999999997 285.76570000000004L39.78999999999985 279.97905000000003L40.286500000000274 281.9014999999996L45.86000000000013 283.8876499999998L51.71949999999981 283.31069999999954L50.14450000000011 278.3572499999997L51.82900000000018 277.8058999999996L48.72000000000014 270.55094999999994L53.498500000000035 264.08244999999965L61.95350000000019 256.43415000000005L71.98550000000012 246.8294499999996L72.93000000000006 242.75719999999978L70.12499999999989 234.88849999999957L71.53149999999982 233.58544999999992L70.21749999999997 224.1620499999999L76.3069999999999 222.86694999999952L78.82000000000005 219.5037499999995L84.59450000000004 217.05544999999972L103.29049999999995 216.11154999999997L103.35700000000031 215.24839999999983L105.60749999999985 211.9944499999997L111.10349999999983 209.91209999999967L111.82799999999986 203.8652499999995L119.01250000000005 200.61984999999993L122.62450000000001 193.49524999999971L129.8415 198.05594999999983L134.72899999999981 189.7032999999999L135.4385000000002 180.2158499999996L142.1795000000003 182.55489999999952L144.5105000000001 170.15359999999987L138.8145000000003 164.28654999999992L134.14800000000014 160.65065000000004L136.97550000000035 155.42935L136.47100000000023 153.47174999999993L132.5150000000002 152.93754999999976L135.85300000000018 148.211L146.19849999999985 143.2585499999999L152.0044999999999 143.50234999999998L159.39250000000015 140.71974999999952L162.60199999999998 139.93014999999957L161.06449999999995 125.64069999999958L163.1785000000002 119.91354999999999L168.65350000000035 120.8851999999996L173.01050000000032 116.90304999999967L178.92449999999997 117.46834999999976L179.07500000000027 116.41264999999976L180.2294999999998 109.06799999999976L181.80800000000033 108.06960000000004L182.72350000000017 103.28229999999962L184.9894999999998 104.3653999999998L193.18899999999985 103.11620000000005L195.7850000000002 99.89969999999971L204.77900000000034 107.62344999999982L204.38350000000014 113.59249999999975L201.03250000000003 115.87130000000002L202.98600000000022 119.75769999999955L215.02200000000016 120.66879999999969L216.61100000000033 119.38064999999995L220.8095000000003 125.15639999999962L226.58450000000016 129.67219999999998L227.17100000000016 126.52529999999956L235.034 127.94324999999958L238.14700000000016 135.18084999999985L242.14499999999987 134.76139999999987L245.745 139.04409999999984L247.5094999999999 149.18484999999976L252.83600000000035 152.4799999999999L259.058 152.37879999999961L260.68449999999984 156.2161999999995L264.53599999999994 157.67904999999985L257.9219999999998 166.44949999999994L256.0745000000003 166.78470000000004L249.99349999999993 172.1497999999997L237.88900000000012 171.0999499999997L240.54849999999988 179.9369999999999L244.42499999999995 183.13109999999995L248.41800000000035 178.8712499999997L255.4095000000001 183.03894999999955L259.6600000000001 187.46645L259.98199999999997 197.73775L264.78499999999997 204.41059999999993L274.3009999999998 207.9037999999997L280.4955000000001 213.08314999999993L280.3064999999998 213.34974999999986L283.5975000000002 215.04809999999964L286.8240000000003 222.15094999999963L290.58249999999987 223.3785499999999L299.81750000000034 207.17254999999966L304.3905000000001 203.36529999999982L310.62850000000026 208.4742L311.7579999999998 220.55574999999976L307.83299999999997 222.57349999999974L313.58000000000004 228.07034999999985L314.6555000000001 231.93219999999997L310.91949999999997 231.3364999999999L306.9440000000003 235.43094999999994L303.9035000000001 240.92994999999974L307.1629999999999 255.0506999999999L301.6950000000003 263.9570999999995L301.5440000000001 271.3602499999996L304.84950000000026 273.36314999999956L310.9975000000003 272.09074999999984L319.5425 265.9436999999997L331.832 267.48965L336.62300000000016 273.8793499999997L328.5419999999999 279.99634999999955L327.6845000000003 288.0940499999997L324.70500000000015 295.65484999999967L326.0669999999999 297.1792499999998L324.77750000000015 309.34379999999976L326.73850000000016 312.92479999999955L324.96500000000026 316.4785999999998L318.9525000000003 324.7470999999996L318.42100000000016 328.6131499999999L316.75299999999993 329.6266499999996L309.09249999999986 329.3012999999996L306.558 331.8745999999999L304.9799999999999 335.7248999999996L307.30700000000013 339.13520000000005L309.2265000000003 349.3503999999996L311.6284999999999 352.158L311.9655 362.39554999999996L316.7070000000001 371.28814999999975L317.44050000000016 375.0644999999997L315.5369999999999 375.9147999999999L307.3565000000002 366.6507999999999L303.43549999999993 365.9115499999996L301.0374999999999 377.8562999999997L298.61050000000034 381.2071499999996L290.068 384.88069999999993L287.40350000000035 381.95914999999957L284.00750000000016 370.6388999999996L280.1985000000002 368.63624999999956L279.69449999999995 368.8534999999996L276.0579999999999 370.39549999999963L273.0385000000001 375.45244999999966L266.5390000000002 379.90004999999996L264.5305000000002 385.59214999999995L265.8454999999998 399.0674999999999L272.71450000000016 394.9154999999996L274.8180000000002 398.3639999999997L278.6740000000003 399.53899999999976L282.82449999999983 403.8835L288.5700000000003 403.2869999999997L295.6700000000001 394.00199999999984L299.6424999999999 393.21249999999964L301.3870000000003 393.8204999999999L300.5355000000003 397.8234999999995L302.85799999999995 417.66249999999957L304.52499999999986 417.876L310.7265000000001 425.77699999999993L310.85500000000025 427.7909999999997L305.9694999999999 430.53L306.34900000000016 436.44349999999974L294.97150000000033 446.33749999999964L293.08100000000024 446.0915L292.75149999999996 448.9779999999996L292.47450000000015 450.55999999999983L289.17599999999993 451.43399999999986L288.14400000000035 455.0004999999999L284.56200000000024 447.01149999999984L277.28549999999984 447.9924999999997L284.13400000000024 455.03150000000005L280.2355 462.1904999999998L276.3024999999999 462.62699999999995L269.74350000000015 458.13549999999964L269.9385000000001 446.44199999999955L263.9345000000003 447.3339999999996L261.45899999999983 444.15449999999964L257.5600000000003 444.20799999999986L251.73600000000022 444.4894999999997L250.36800000000028 446.0114999999996L252.47349999999983 453.7885L247.7695 457.5725L248.0880000000002 459.58699999999965L252.94550000000015 463.16949999999963L254.69650000000001 469.05299999999954L256.8754999999999 474.17899999999975L253.90750000000025 478.4789999999998L251.3934999999998 483.4269999999998L239.9335000000002 486.4939999999996L236.28199999999993 486.44949999999994L231.80450000000008 482.3249999999996L228.082 473.3679999999998L230.625 468.11699999999973L224.29700000000025 460.6219999999996L218.72349999999983 462.1339999999998L214.98400000000004 461.26499999999965L213.74250000000018 457.61199999999974L209.1115000000002 454.4304999999997L204.62249999999983 463.288L201.07200000000034 465.26549999999986L200.00699999999995 471.2484999999998L188.8035000000002 479.4674999999995L187.65600000000006 479.0254999999996L175.3770000000003 487.2044999999997L168.15600000000018 490.85549999999955L159.8290000000003 502.40999999999985L152.81650000000013 490.10249999999985z">
      <title id="t223">Première circonscription du Lot</title>
      <desc id="d223">Cantons de : Cahors Nord-Est, Cahors Nord-Ouest, Cahors Sud, Castelnau-Montratier, Catus, Cazals, Gourdon, Labastide-Murat, Lalbenque, Lauzès, Luzech, Montcuq, Payrac, Puy-l'Evêque, Saint-Germain-du-Bel-Air, Saint-Géry, Salviac.</desc>
    </path><path class="circo" id="id-046-02" d="M384.8784999999998 53.09129999999982L369.5614999999998 59.15139999999951L366.0419999999999 64.65329999999994L364.2380000000003 63.993449999999825L363.1170000000003 60.30614999999955L361.2819999999999 60.84720000000004L360.34249999999986 66.52709999999956L358.2555000000002 70.04504999999995L350.31450000000007 71.13219999999956L348.2024999999999 74.68269999999961L347.93450000000007 74.73554999999976L348.48749999999995 71.06254999999976L341.78650000000005 64.75959999999986L341.29549999999995 68.59409999999968L337.0715000000001 72.78414999999995L336.8254999999999 72.18809999999962L333.8425000000001 67.07764999999995L326.84849999999983 63.63079999999968L328.30550000000017 62.390949999999634L326.1009999999999 52.79519999999991L322.67499999999984 50.54044999999974L314.88200000000006 45.99809999999991L311.07950000000017 46.21134999999981L310.0495000000001 46.50989999999979L309.0885000000003 45.102999999999724L306.7975000000001 34.92554999999982L302.0785000000001 31.31869999999992L298.72000000000014 25.25845000000004L293.2114999999999 24.268449999999575L285.4714999999999 15.462399999999548L284.9155000000002 11.65444999999977L276.62300000000016 7.422049999999558L268.92300000000034 6.93369999999959L266.9245000000001 7.434700000000021L266.669 9.486599999999612L266.29050000000007 6.698549999999841L252.56250000000023 2.6977499999998145L242.47749999999996 9.738549999999577L239.03599999999983 8.069150000000036L237.49450000000024 0L231.73299999999983 0.232199999999807L228.58150000000023 2.6315999999997075L222.82500000000027 3.1085500000000366L211.82999999999993 10.771649999999795L210.6405000000001 10.675449999999955L210.70899999999995 14.778749999999832L205.43499999999995 17.76694999999961L203.51150000000018 18.459550000000036L198.3710000000002 15.247149999999579L191.9580000000002 20.365899999999897L181.73900000000003 22.812549999999874L184.22849999999983 30.72429999999997L183.91999999999996 42.5329499999998L186.17549999999994 45.84729999999979L185.93000000000018 51.92129999999963L190.01900000000035 59.11360000000002L192.08050000000014 59.272699999999645L193.06500000000028 63.00579999999968L191.92650000000015 64.57464999999956L195.52300000000002 75.6394499999999L187.90149999999983 75.94794999999976L182.33249999999998 81.63739999999962L185.6234999999998 82.44154999999978L187.1395000000001 89.06229999999994L194.7985 93.53959999999972L195.7850000000002 99.89969999999971L204.77900000000034 107.62344999999982L204.38350000000014 113.59249999999975L201.03250000000003 115.87130000000002L202.98600000000022 119.75769999999955L215.02200000000016 120.66879999999969L216.61100000000033 119.38064999999995L220.8095000000003 125.15639999999962L226.58450000000016 129.67219999999998L227.17100000000016 126.52529999999956L235.034 127.94324999999958L238.14700000000016 135.18084999999985L242.14499999999987 134.76139999999987L245.745 139.04409999999984L247.5094999999999 149.18484999999976L252.83600000000035 152.4799999999999L259.058 152.37879999999961L260.68449999999984 156.2161999999995L264.53599999999994 157.67904999999985L257.9219999999998 166.44949999999994L256.0745000000003 166.78470000000004L249.99349999999993 172.1497999999997L237.88900000000012 171.0999499999997L240.54849999999988 179.9369999999999L244.42499999999995 183.13109999999995L248.41800000000035 178.8712499999997L255.4095000000001 183.03894999999955L259.6600000000001 187.46645L259.98199999999997 197.73775L264.78499999999997 204.41059999999993L274.3009999999998 207.9037999999997L280.4955000000001 213.08314999999993L280.3064999999998 213.34974999999986L283.5975000000002 215.04809999999964L286.8240000000003 222.15094999999963L290.58249999999987 223.3785499999999L299.81750000000034 207.17254999999966L304.3905000000001 203.36529999999982L310.62850000000026 208.4742L311.7579999999998 220.55574999999976L307.83299999999997 222.57349999999974L313.58000000000004 228.07034999999985L314.6555000000001 231.93219999999997L310.91949999999997 231.3364999999999L306.9440000000003 235.43094999999994L303.9035000000001 240.92994999999974L307.1629999999999 255.0506999999999L301.6950000000003 263.9570999999995L301.5440000000001 271.3602499999996L304.84950000000026 273.36314999999956L310.9975000000003 272.09074999999984L319.5425 265.9436999999997L331.832 267.48965L336.62300000000016 273.8793499999997L328.5419999999999 279.99634999999955L327.6845000000003 288.0940499999997L324.70500000000015 295.65484999999967L326.0669999999999 297.1792499999998L324.77750000000015 309.34379999999976L326.73850000000016 312.92479999999955L324.96500000000026 316.4785999999998L318.9525000000003 324.7470999999996L318.42100000000016 328.6131499999999L316.75299999999993 329.6266499999996L309.09249999999986 329.3012999999996L306.558 331.8745999999999L304.9799999999999 335.7248999999996L307.30700000000013 339.13520000000005L309.2265000000003 349.3503999999996L311.6284999999999 352.158L311.9655 362.39554999999996L316.7070000000001 371.28814999999975L317.44050000000016 375.0644999999997L315.5369999999999 375.9147999999999L307.3565000000002 366.6507999999999L303.43549999999993 365.9115499999996L301.0374999999999 377.8562999999997L298.61050000000034 381.2071499999996L290.068 384.88069999999993L287.40350000000035 381.95914999999957L284.00750000000016 370.6388999999996L280.1985000000002 368.63624999999956L279.69449999999995 368.8534999999996L276.0579999999999 370.39549999999963L273.0385000000001 375.45244999999966L266.5390000000002 379.90004999999996L264.5305000000002 385.59214999999995L265.8454999999998 399.0674999999999L272.71450000000016 394.9154999999996L274.8180000000002 398.3639999999997L278.6740000000003 399.53899999999976L282.82449999999983 403.8835L288.5700000000003 403.2869999999997L295.6700000000001 394.00199999999984L299.6424999999999 393.21249999999964L301.3870000000003 393.8204999999999L300.5355000000003 397.8234999999995L302.85799999999995 417.66249999999957L304.52499999999986 417.876L310.7265000000001 425.77699999999993L310.85500000000025 427.7909999999997L305.9694999999999 430.53L306.34900000000016 436.44349999999974L310.03600000000006 438.073L319.4364999999999 434.42799999999977L322.76850000000024 429.4385L330.69650000000024 431.29699999999957L336.5930000000003 436.56849999999963L340.4975000000002 435.40599999999984L342.8280000000001 432.0384999999999L340.7850000000002 428.4594999999996L344.19100000000014 428.4604999999999L345.1875000000001 424.90999999999985L350.403 423.29499999999996L351.7315000000002 427.25449999999967L359.1115000000002 431.04799999999955L362.1875 424.18799999999976L367.9374999999999 422.6004999999998L369.86400000000003 426.0329999999999L382.75000000000034 421.25249999999994L385.1974999999999 415.6054999999998L386.8054999999998 414.30399999999963L392.876 414.8444999999998L394.9664999999999 411.3484999999997L393.8665000000003 407.3769999999996L388.8190000000003 403.8024999999999L386.7220000000003 398.0345L379.4855000000001 390.71699999999964L377.1365000000003 387.28094999999996L379.42949999999996 381.53854999999965L377.98900000000003 373.3370499999995L379.0255000000002 371.52739999999994L378.9685000000003 371.2601999999998L369.4575000000003 363.4086499999995L369.85400000000027 349.1455499999995L368.1175000000002 345.43904999999995L364.72399999999993 340.3413999999998L365.1859999999999 338.3072499999997L374.03400000000033 333.64104999999995L380.7800000000003 335.5604999999997L384.0550000000002 334.3237499999998L383.707 326.69029999999964L385.2249999999998 323.2245499999999L391.0469999999998 323.93129999999985L393.8145000000003 333.11915L397.35799999999983 334.2343999999997L399.2149999999998 330.8992999999998L395.154 324.37824999999975L398.40300000000013 323.4807999999998L402.38049999999987 323.0612499999995L406.86950000000024 316.4916999999997L410.84450000000004 315.7734499999998L414.98050000000035 314.7362999999996L420.8605 306.6829999999999L424.1764999999998 301.63149999999973L426.16750000000025 297.91219999999953L434.6555000000001 292.1281499999998L440.874 292.9625999999996L444.77900000000034 291.50724999999966L445.1305000000002 291.3688499999995L447.69450000000006 288.33505L447.9124999999999 284.26649999999995L456.17549999999994 278.2683499999996L459.8425000000003 278.6973999999998L458.95899999999983 284.5468999999997L460.3680000000003 285.55034999999975L461.96450000000027 284.3070499999999L466.8335000000002 275.3431999999998L468.8625000000002 275.35694999999976L473.39200000000005 279.5703499999996L477.0769999999999 283.4706L482.2905000000003 282.4986999999999L484.8425000000003 279.4563499999998L486.823 279.42354999999964L489.9580000000003 284.1269L497.7064999999999 283.40319999999963L504.9275 271.6258499999998L505.0395000000003 271.5709499999997L511.83850000000007 271.9887L514.932 273.89129999999966L517.1895000000001 270.5204999999995L517.0715000000001 264.67524999999966L521.0084999999998 264.76414999999974L522.321 260.9943499999997L521.0455000000002 257.17449999999985L514.3090000000001 249.60949999999968L507.90400000000034 245.26639999999986L504.871 243.76604999999984L504.923 237.96224999999993L506.7054999999999 234.64654999999993L503.4219999999999 229.84504999999956L509.00750000000016 221.9793999999996L498.6009999999999 207.0840499999997L491.6410000000002 210.96019999999953L488.1445000000002 207.12289999999996L489.51099999999997 201.11019999999996L495.80449999999985 193.03945L498.1020000000001 174.93524999999977L496.2549999999999 165.00135L497.0319999999998 164.80979999999988L502.8494999999998 163.2705999999996L504.4830000000002 157.67904999999985L505.81200000000024 152.69439999999975L503.4404999999998 147.44550000000004L503.54100000000017 139.62940000000003L492.2829999999999 132.58629999999982L487.12850000000003 122.51440000000002L485.9465 119.24634999999967L482.6830000000001 117.94429999999977L472.6089999999999 103.4820499999995L469.22799999999995 95.93369999999993L469.18049999999994 87.64209999999991L469.90099999999984 85.66744999999969L478.81399999999985 80.55119999999988L476.3594999999998 74.9588L465.31600000000026 66.0329999999999L467.16549999999984 55.949449999999956L459.60500000000025 40.975649999999746L455.97500000000025 40.85669999999993L452.0429999999999 36.67299999999955L436.38000000000034 41.14089999999976L426.2085000000002 42.65009999999961L414.42049999999995 51.48584999999969L412.03599999999994 55.00054999999975L408.09950000000015 54.020399999999995L407.4290000000002 43.77954999999986L401.91599999999994 39.59679999999992L400.62250000000006 40.81524999999999L393.67099999999994 39.93204999999989L385.42100000000005 49.135499999999865L384.8784999999998 53.09129999999982z">
      <title id="t224">Deuxième circonscription du Lot</title>
      <desc id="d224">Cantons de : Bretenoux, Cajarc, Figeac Est, Figeac Ouest, Gramat, Lacapelle-Marival, Latronquière, Limogne-en-Quercy, Livernon, Martel, Saint-Céré, Souillac, Sousceyrac, Vayrac.</desc>
    </path></svg>