<svg xmlns="http://www.w3.org/2000/svg" version="1.1" xmlns:xlink="http://www.w3.org/1999/xlink" xmlns:svgjs="http://svgjs.dev/svgjs" width="517.9360000000003" height="470.28569999999945" fill="#eeeeee" stroke="#cccccc" xmlns:sodipodi="http://sodipodi.sourceforge.net/DTD/sodipodi-0.dtd"><path class="circo" id="id-047-01" d="M351.45899999999983 293.1851999999998L347.6125000000002 292.4382000000003L340.0659999999999 286.5357L342.7185000000003 283.79970000000014L342.52549999999985 277.9827L333.8729999999998 282.5337000000002L333.9440000000002 287.79319999999984L327.8109999999998 291.8527L321.6514999999998 299.7622000000001L316.3760000000002 302.32219999999984L309.1595000000001 303.8677000000001L303.0925000000002 304.0007000000003L306.4314999999999 297.20169999999996L303.3855 294.61220000000026L299.39300000000003 295.04070000000013L288.75200000000007 300.7537000000002L277.2244999999998 308.4802000000002L270.45500000000004 301.34169999999983L268.4575000000001 301.34169999999983L266.8330000000003 302.33420000000024L266.93600000000004 306.09770000000026L270.2480000000003 310.28819999999996L267.6769999999999 313.00419999999974L259.57550000000026 314.8822000000001L253.67050000000006 312.86670000000015L245.83450000000028 315.8722L239.6010000000001 315.2211999999997L234.22399999999982 311.00070000000017L231.84300000000007 308.0336999999997L225.12900000000002 307.57720000000006L215.75150000000008 312.0627000000002L205.75800000000015 309.8552000000001L203.38149999999985 306.78819999999973L202.2829999999999 295.0351999999998L201.6685000000001 292.59720000000016L195.5400000000003 302.15419999999995L198.06050000000027 307.07569999999976L198.21349999999995 312.8732000000002L192.7634999999998 315.28669999999977L190.505 318.5377L191.0174999999998 320.4696999999999L186.46450000000016 323.6867000000001L180.99500000000035 322.5132000000002L179.39900000000023 322.7017000000001L176.61850000000015 318.7806999999998L170.2955000000003 326.67070000000024L156.18100000000027 325.9206999999998L151.0050000000001 322.2046999999998L145.45000000000016 324.68219999999974L139.69449999999995 330.49019999999985L135.63850000000002 330.0272000000001L130.7929999999999 336.64620000000014L141.24099999999999 348.4376999999995L148.5635000000002 350.34970000000044L136.06750000000034 357.45520000000056L136.22650000000021 359.5252000000005L139.65550000000007 364.5992000000001L147.52850000000024 366.6976999999997L151.48450000000025 373.98270000000025L141.28199999999993 373.58820000000037L139.43550000000016 379.21119999999974L131.82549999999992 381.88369999999964L117.50949999999989 381.00469999999973L115.85750000000019 384.0991999999994L117.90650000000028 389.48369999999954L112.45150000000024 392.4392L102.64450000000011 403.1556999999998L104.07100000000014 407.0297000000005L96.96900000000028 416.6426999999999L92.18999999999994 436.29519999999957L89.46000000000026 439.22320000000013L85.38999999999987 439.7582L86.24450000000024 443.77770000000055L86.55100000000004 453.76070000000027L92.11450000000013 464.41820000000007L105.43549999999982 463.0957000000001L113.947 455.2981999999997L113.70600000000024 453.3217000000002L119.72100000000012 458.2162000000005L118.7115 468.28570000000013L124.418 470.28569999999945L128.236 469.6101999999996L130.0524999999999 466.0186999999996L130.36350000000027 457.8306999999995L136.70299999999997 452.86719999999946L140.46449999999993 445.5912000000001L142.0195000000001 446.3711999999998L145.54550000000006 446.04870000000005L151.0590000000002 440.9937000000002L152.75350000000003 441.97220000000016L155.83200000000033 442.80020000000036L158.72650000000021 441.2292000000002L158.82000000000005 448.91070000000013L166.3175000000001 451.94219999999973L174.08950000000004 452.0596999999998L176.05700000000013 455.6092000000001L179.83400000000017 455.6492000000003L188.57450000000028 459.6361999999999L189.63250000000016 458.0092000000002L194.95900000000006 456.0871999999995L193.87699999999995 448.5686999999996L197.8125 449.85019999999963L211.52899999999988 445.3526999999997L218.2434999999998 449.5127000000002L222.29199999999992 449.5902000000001L227.19550000000027 442.94070000000033L228.9625000000001 441.84420000000046L233.0759999999998 441.43170000000055L237.84600000000012 437.7401999999995L247.84100000000024 437.46170000000006L251.18200000000002 428.22869999999966L251.3375000000002 427.43569999999977L255.19749999999988 421.72519999999963L264.5845000000003 422.87720000000036L266.22150000000033 419.76819999999975L272.98550000000034 421.0541999999998L274.30499999999995 424.51119999999946L277.22199999999987 417.37319999999954L288.63200000000006 423.1601999999998L297.2655000000003 420.04170000000045L300.76700000000017 418.62870000000044L304.84399999999994 410.15120000000024L308.47500000000025 409.11770000000047L311.68800000000033 407.59720000000016L315.32050000000027 408.33819999999946L314.5105000000001 410.1477L325.8109999999999 417.9111999999998L328.2524999999998 425.1967000000002L336.9905 429.09869999999955L337.9495000000003 434.97870000000034L341.3895000000002 439.92669999999976L348.6265000000003 437.1157000000005L349.97299999999996 429.49569999999994L354.9849999999998 427.78869999999984L360.6700000000001 420.0031999999999L364.59299999999985 420.4111999999998L375.10400000000004 415.9167000000002L373.83950000000027 410.28069999999957L377.5580000000002 403.30220000000054L377.7044999999998 399.2962L380.41600000000017 392.48320000000035L389.196 385.3317000000004L392.1195 387.6796999999999L399.20349999999985 389.34619999999995L396.8990000000002 384.4006999999999L398.76900000000035 377.3377000000005L394.59000000000003 370.01120000000014L398.3449999999999 368.5937000000001L408.51650000000006 369.9261999999999L423.3539999999999 377.1861999999999L424.3754999999999 379.0026999999998L429.1685000000001 379.6297000000004L433.845 376.5021999999999L433.9980000000003 372.69070000000056L435.53 371.55070000000023L438.9330000000001 373.22469999999953L439.50050000000033 369.60469999999987L437.35400000000027 366.4251999999999L436.0250000000002 359.03620000000046L437.9675000000003 355.7191999999998L438.0680000000001 353.7107000000003L434.7505000000001 351.53220000000033L429.66650000000016 354.47070000000053L426.9670000000002 351.7587000000003L422.59799999999984 351.03970000000004L422.6165000000003 345.43120000000044L425.17150000000015 340.39819999999963L401.1435 340.5111999999997L400.71349999999995 334.60320000000024L404.50500000000034 329.9167L402.4615 327.21870000000024L399.726 328.5552000000001L394.0345000000002 328.8056999999998L389.2020000000002 322.3201999999998L389.9670000000003 316.5787L389.6215000000001 315.2796999999998L385.9129999999999 315.53420000000017L380.55650000000014 320.3662000000003L376.2189999999998 316.8157000000002L374.16300000000035 313.96270000000015L368.44949999999983 314.0852000000001L364.5150000000001 310.5612000000002L364.58349999999996 307.02769999999987L364.6555000000001 303.25319999999977L368.0894999999998 301.00070000000017L368.1895000000003 295.3967L364.11100000000033 288.96720000000016L360.69950000000006 290.5522000000002L355.376 289.22720000000027L351.45899999999983 293.1851999999998z">
      <title id="t225">Première circonscription du Lot-et-Garonne</title>
      <desc id="d225">Cantons de : Agen Centre, Agen Nord, Agen Nord-Est, Agen Sud-Est, Agen Ouest, Astaffort, Francescas, Laplume, Lavardac, Mézin, Nérac, Puymirol.</desc>
    </path><path class="circo" id="id-047-02" d="M47.54500000000007 240.99620000000016L44.4135 240.6076999999999L34.608499999999935 241.1221999999998L30.24600000000021 245.19020000000012L26.295499999999947 244.85770000000002L23.348500000000172 254.41669999999988L26.73850000000016 257.36170000000016L35.472500000000196 265.42370000000005L44.99900000000025 278.70270000000005L41.56650000000013 280.79319999999996L45.51050000000032 292.18669999999975L37.11500000000001 297.0776999999998L31.399999999999864 308.41819999999984L28.718999999999824 305.61519999999973L22.189000000000192 313.27819999999974L15.238499999999817 317.1857L9.779500000000212 314.98670000000004L7.440500000000156 311.98519999999974L6.271500000000287 315.70820000000026L0 320.4302000000001L4.694499999999948 334.5427000000001L4.902000000000157 364.2947000000004L11.029500000000212 364.8842000000002L14.504499999999894 362.7936999999997L22.499500000000126 362.1747000000005L34.35350000000028 365.23270000000025L58.183500000000095 365.7707000000005L58.29000000000008 365.78269999999975L70.64799999999991 372.6216999999997L74.49700000000007 377.1807000000001L117.50949999999989 381.00469999999973L131.82549999999992 381.88369999999964L139.43550000000016 379.21119999999974L141.28199999999993 373.58820000000037L151.48450000000025 373.98270000000025L147.52850000000024 366.6976999999997L139.65550000000007 364.5992000000001L136.22650000000021 359.5252000000005L136.06750000000034 357.45520000000056L148.5635000000002 350.34970000000044L141.24099999999999 348.4376999999995L130.7929999999999 336.64620000000014L135.63850000000002 330.0272000000001L139.69449999999995 330.49019999999985L145.45000000000016 324.68219999999974L151.0050000000001 322.2046999999998L156.18100000000027 325.9206999999998L170.2955000000003 326.67070000000024L176.61850000000015 318.7806999999998L179.39900000000023 322.7017000000001L180.99500000000035 322.5132000000002L186.46450000000016 323.6867000000001L191.0174999999998 320.4696999999999L190.505 318.5377L192.7634999999998 315.28669999999977L198.21349999999995 312.8732000000002L198.06050000000027 307.07569999999976L195.5400000000003 302.15419999999995L201.6685000000001 292.59720000000016L202.2829999999999 295.0351999999998L203.38149999999985 306.78819999999973L205.75800000000015 309.8552000000001L215.75150000000008 312.0627000000002L225.12900000000002 307.57720000000006L231.84300000000007 308.0336999999997L234.22399999999982 311.00070000000017L239.6010000000001 315.2211999999997L245.83450000000028 315.8722L253.67050000000006 312.86670000000015L259.57550000000026 314.8822000000001L267.6769999999999 313.00419999999974L270.2480000000003 310.28819999999996L266.93600000000004 306.09770000000026L266.8330000000003 302.33420000000024L268.4575000000001 301.34169999999983L265.7774999999998 296.9376999999997L267.32950000000017 296.3162L267.0595000000003 290.33270000000016L260.7600000000002 286.2572L262.0210000000003 282.5222000000002L257.6015000000001 275.80870000000004L260.5265000000003 270.9167000000002L251.5764999999999 266.28870000000006L249.2180000000002 261.42769999999985L249.1595000000001 256.15319999999997L256.5174999999999 253.92420000000016L256.293 243.92170000000021L254.31449999999984 229.48620000000005L261.8040000000002 231.5422000000001L264.9860000000001 229.05669999999986L269.366 219.8811999999998L274.5954999999998 226.0786999999999L280.2660000000003 228.34670000000017L278.4899999999999 224.65919999999983L279.9599999999998 214.33220000000006L278.34900000000005 206.72545000000014L272.457 206.17799999999988L267.2924999999998 203.50194999999985L265.9050000000002 195.96720000000005L268.2035000000002 192.1141L270.45799999999986 184.50305000000014L273.0939999999998 181.50194999999997L272.3309999999998 177.79854999999998L270.4295000000002 177.1886999999998L268.7605000000002 173.9427999999998L271.6055 171.2612999999999L266.0624999999999 165.2357999999998L258.125 163.66060000000004L255.27600000000007 166.54285000000016L250.2985000000001 160.7632000000001L246.53400000000033 159.11985000000016L243.93500000000017 163.4174999999999L240.6740000000002 161.1522500000001L236.918 162.09124999999972L232.37700000000018 158.48344999999995L228.33000000000027 154.7906499999999L226.31799999999998 149.7523000000001L230.10449999999992 143.51679999999988L236.77750000000003 140.73039999999992L243.1170000000003 135.72754999999972L241.73400000000015 120.15694999999994L245.09150000000034 119.65525000000014L250.1120000000003 130.55819999999983L252.04999999999984 131.07045000000028L259.25700000000006 127.60434999999973L267.8250000000003 119.06704999999988L279.06600000000026 122.87939999999992L282.7629999999999 115.76739999999972L291.28750000000025 112.11959999999976L294.68999999999994 107.82154999999989L298.1080000000003 106.80709999999976L300.8415000000002 100.2236499999998L300.70400000000006 100.12040000000013L289.18949999999995 96.11874999999998L285.4124999999999 97.00580000000002L273.70949999999993 94.42340000000002L276.044 85.16975000000002L275.3059999999999 79.41595000000007L272.2444999999999 77.2001499999999L278.89400000000023 75.1980500000002L277.3415 70.31360000000006L275.19000000000005 60.23185000000012L270.44100000000014 56.45330000000001L267.2185000000002 58.18694999999991L259.7750000000002 56.59015000000011L251.8950000000001 64.95045000000005L237.0044999999999 71.15049999999997L225.9205000000003 65.61840000000018L219.85349999999983 65.91715000000022L215.58850000000007 61.53329999999983L210.89800000000025 65.32384999999977L208.37750000000028 61.80819999999983L208.76649999999984 53.39155000000005L212.60350000000017 43.597199999999816L204.92700000000013 36.98919999999987L205.779 32.941999999999894L207.6434999999998 32.189050000000066L206.4319999999998 24.396300000000224L202.87950000000023 17.128250000000094L190.27649999999994 3.6495000000002165L186.16100000000017 1.1373500000001968L185.83799999999997 3.014400000000137L175.26250000000005 6.587549999999851L167.59900000000016 8.261499999999842L163.9625000000001 6.743749999999977L160.0735000000003 0L156.10250000000008 0.021550000000161162L155.40999999999997 1.8903499999998985L152.577 4.7669000000001915L149.83850000000018 14.740350000000149L152.7154999999999 22.48024999999984L145.45200000000023 24.990250000000174L142.3615000000001 12.936300000000074L140.27350000000013 9.361450000000104L138.22150000000022 9.073599999999828L136.481 11.189600000000155L133.19450000000018 17.706249999999955L131.56049999999993 16.783649999999852L128.37350000000015 18.38109999999972L124.65950000000021 19.97009999999989L119.80450000000019 15.969349999999736L117.61250000000018 31.704050000000166L115.40400000000034 35.07090000000005L112.6015000000001 32.11850000000027L108.70949999999993 31.38824999999997L105.13300000000015 33.29240000000027L104.43150000000003 37.31510000000014L102.44200000000035 37.819749999999885L105.28900000000021 47.11895000000027L108.89949999999999 49.0055000000001L116.92499999999995 48.91705000000002L115.52599999999984 54.14280000000019L116.56200000000013 57.55589999999984L120.18250000000023 58.8724000000002L129.12350000000004 56.09350000000006L131.03400000000022 57.311450000000264L134.92599999999982 58.26464999999985L137.466 61.50044999999977L135.00850000000014 65.70625000000007L131.34299999999996 70.6009499999999L130.01199999999983 78.52604999999983L123.83950000000027 78.05004999999994L119.80349999999987 73.47719999999981L118.29150000000027 76.61540000000002L118.98250000000019 81.93854999999985L125.40050000000008 89.24730000000011L123.91050000000007 92.98524999999984L116.37550000000033 94.46874999999977L109.70450000000028 101.59584999999993L109.36350000000004 101.79100000000005L106.66550000000029 104.06729999999982L94.74550000000022 107.74935000000028L96.1529999999999 111.49729999999977L95.05899999999997 117.2732000000002L88.9870000000002 129.04044999999996L75.83349999999996 125.50380000000018L73.6099999999999 127.62405000000001L68.71250000000032 133.07410000000004L59.36199999999985 126.92324999999983L67.07499999999982 139.77530000000002L63.814500000000294 144.71079999999972L61.843000000000075 144.65179999999975L59.79449999999986 146.3405499999999L53.17900000000009 154.9324999999999L52.975999999999885 163.9203500000002L54.82349999999997 181.69609999999977L58.61500000000035 181.1703L62.435500000000275 185.23005000000012L61.82900000000018 190.53589999999986L58.5390000000001 191.98609999999974L56.57800000000009 197.2034500000001L57.66149999999982 202.81814999999995L54.777500000000146 205.22825000000012L62.60850000000005 218.90679999999975L67.67899999999997 223.67070000000012L64.35850000000016 228.35019999999986L68.83849999999995 231.92470000000014L66.05250000000012 237.17719999999986L57.04600000000028 233.87319999999988L53.160500000000184 235.14670000000024L47.54500000000007 240.99620000000016z">
      <title id="t226">Deuxième circonscription du Lot-et-Garonne</title>
      <desc id="d226">Cantons de : Bouglon, Casteljaloux, Castelmoron-sur-Lot, Damazan, Duras, Houeillès, Lauzun, Marmande Est, Marmande Ouest, Le Mas-d'Agenais, Meilhan-sur-Garonne, Port-Sainte-Marie, Seyches, Tonneins.</desc>
    </path><path class="circo" id="id-047-03" d="M440.20849999999996 278.71770000000026L435.41949999999986 272.19420000000014L429.3185 271.2621999999999L431.47699999999986 266.2722000000002L430.9449999999998 262.7566999999999L435.21900000000016 259.9016999999998L440.6529999999998 249.29570000000012L438.9095000000003 247.10469999999987L439.4839999999999 243.4447L436.91599999999994 238.34769999999992L439.73749999999995 233.3096999999998L441.70650000000023 228.49670000000003L446.9145000000003 227.4581999999998L450.73950000000025 226.59069999999986L452.355 230.40369999999996L458.15150000000017 235.99120000000028L459.8385000000002 250.3827000000001L460.3180000000003 250.37019999999984L461.05200000000025 244.54420000000027L463.64750000000015 241.36120000000005L477.61900000000026 241.40170000000012L483.4055000000001 235.66970000000026L492.76850000000024 239.06819999999982L496.7950000000002 238.58119999999985L504.73450000000014 239.49670000000026L510.40400000000034 237.50470000000007L510.5880000000002 231.4931999999999L512.0425 230.1026999999999L510.12800000000027 222.73320000000012L506.5530000000001 221.92169999999976L511.0239999999999 216.17639999999994L509.23900000000003 200.85424999999987L504.85900000000015 198.86225000000024L503.93399999999986 197.08439999999996L498.05600000000027 197.63260000000002L498.08400000000006 193.8105999999999L494.01999999999987 189.59175000000016L493.7270000000001 183.85164999999972L495.4419999999999 178.2588499999997L494.58500000000015 172.41859999999974L488.6419999999998 169.67204999999979L491.0300000000001 163.86075000000005L491.7315000000002 155.58024999999986L476.952 131.29470000000026L481.90200000000004 128.33255000000008L487.5970000000001 129.40125000000023L490.40200000000027 136.24689999999987L498.96150000000034 125.39345000000026L502.4365 123.48059999999975L502.7890000000002 123.25159999999983L503.7080000000003 121.43464999999992L514.982 117.46590000000026L516.7419999999998 111.67925000000025L517.9360000000003 105.73410000000024L515.0375000000003 100.39795000000026L509.006 99.52530000000024L504.69949999999983 95.19704999999988L499.00199999999984 93.15125000000023L490.11950000000013 88.69680000000017L483.07349999999985 78.55054999999993L475.15649999999994 72.47545000000002L470.634 76.53540000000021L461.08150000000023 74.05059999999992L453.8225 77.10815000000025L448.9224999999999 83.20809999999994L445.4725000000002 85.09569999999997L440.41650000000004 88.63949999999988L432.2325000000001 89.81150000000014L429.5530000000002 99.7491500000001L424.33850000000007 99.27759999999978L414.7410000000002 96.83089999999993L415.9269999999998 89.23895000000016L412.25250000000017 90.47480000000007L410.43800000000033 85.48085000000015L407.0305000000002 82.02094999999986L414.9580000000003 76.12684999999999L414.7059999999999 66.32105000000024L418.1049999999999 64.53280000000007L418.7434999999999 58.826950000000124L422.09299999999985 56.9486999999998L414.8660000000001 56.086349999999925L410.7850000000002 52.812999999999874L413.0105000000003 48.46695000000011L411.96349999999995 44.522099999999796L407.3855000000003 40.40039999999976L399.5730000000003 37.93634999999995L394.8784999999998 41.2560000000002L394.2829999999998 47.216999999999985L390.71000000000026 47.79684999999972L384.1379999999998 44.429400000000214L382.82550000000015 50.179449999999974L376.90949999999987 49.31454999999971L369.68500000000006 52.75739999999985L355.62700000000007 52.14895000000013L351.05999999999995 53.01499999999976L339.2115000000001 51.64330000000007L338.44449999999995 44.397749999999974L335.2445 37.10460000000012L327.7044999999998 34.4765000000001L324.033 38.761499999999955L324.80950000000007 42.458899999999744L323.3095000000003 43.608600000000024L318.44150000000013 40.93970000000013L311.14300000000014 40.23595L309.4844999999998 39.18304999999975L304.8000000000002 42.55274999999983L300.8485000000002 55.43434999999988L298.8440000000003 54.96399999999994L292.08799999999997 59.23749999999984L290.0600000000003 58.88674999999978L286.9229999999999 53.58580000000018L281.5055000000001 51.209349999999745L277.33000000000004 51.6964999999999L270.44100000000014 56.45330000000001L275.19000000000005 60.23185000000012L277.3415 70.31360000000006L278.89400000000023 75.1980500000002L272.2444999999999 77.2001499999999L275.3059999999999 79.41595000000007L276.044 85.16975000000002L273.70949999999993 94.42340000000002L285.4124999999999 97.00580000000002L289.18949999999995 96.11874999999998L300.70400000000006 100.12040000000013L300.8415000000002 100.2236499999998L298.1080000000003 106.80709999999976L294.68999999999994 107.82154999999989L291.28750000000025 112.11959999999976L282.7629999999999 115.76739999999972L279.06600000000026 122.87939999999992L267.8250000000003 119.06704999999988L259.25700000000006 127.60434999999973L252.04999999999984 131.07045000000028L250.1120000000003 130.55819999999983L245.09150000000034 119.65525000000014L241.73400000000015 120.15694999999994L243.1170000000003 135.72754999999972L236.77750000000003 140.73039999999992L230.10449999999992 143.51679999999988L226.31799999999998 149.7523000000001L228.33000000000027 154.7906499999999L232.37700000000018 158.48344999999995L236.918 162.09124999999972L240.6740000000002 161.1522500000001L243.93500000000017 163.4174999999999L246.53400000000033 159.11985000000016L250.2985000000001 160.7632000000001L255.27600000000007 166.54285000000016L258.125 163.66060000000004L266.0624999999999 165.2357999999998L271.6055 171.2612999999999L268.7605000000002 173.9427999999998L270.4295000000002 177.1886999999998L272.3309999999998 177.79854999999998L273.0939999999998 181.50194999999997L270.45799999999986 184.50305000000014L268.2035000000002 192.1141L265.9050000000002 195.96720000000005L267.2924999999998 203.50194999999985L272.457 206.17799999999988L278.34900000000005 206.72545000000014L279.9599999999998 214.33220000000006L278.4899999999999 224.65919999999983L280.2660000000003 228.34670000000017L274.5954999999998 226.0786999999999L269.366 219.8811999999998L264.9860000000001 229.05669999999986L261.8040000000002 231.5422000000001L254.31449999999984 229.48620000000005L256.293 243.92170000000021L256.5174999999999 253.92420000000016L249.1595000000001 256.15319999999997L249.2180000000002 261.42769999999985L251.5764999999999 266.28870000000006L260.5265000000003 270.9167000000002L257.6015000000001 275.80870000000004L262.0210000000003 282.5222000000002L260.7600000000002 286.2572L267.0595000000003 290.33270000000016L267.32950000000017 296.3162L265.7774999999998 296.9376999999997L268.4575000000001 301.34169999999983L270.45500000000004 301.34169999999983L277.2244999999998 308.4802000000002L288.75200000000007 300.7537000000002L299.39300000000003 295.04070000000013L303.3855 294.61220000000026L306.4314999999999 297.20169999999996L303.0925000000002 304.0007000000003L309.1595000000001 303.8677000000001L316.3760000000002 302.32219999999984L321.6514999999998 299.7622000000001L327.8109999999998 291.8527L333.9440000000002 287.79319999999984L333.8729999999998 282.5337000000002L342.52549999999985 277.9827L342.7185000000003 283.79970000000014L340.0659999999999 286.5357L347.6125000000002 292.4382000000003L351.45899999999983 293.1851999999998L355.376 289.22720000000027L360.69950000000006 290.5522000000002L364.11100000000033 288.96720000000016L368.1895000000003 295.3967L368.0894999999998 301.00070000000017L364.6555000000001 303.25319999999977L364.58349999999996 307.02769999999987L364.5150000000001 310.5612000000002L368.44949999999983 314.0852000000001L374.16300000000035 313.96270000000015L376.2189999999998 316.8157000000002L380.55650000000014 320.3662000000003L385.9129999999999 315.53420000000017L389.6215000000001 315.2796999999998L389.9670000000003 316.5787L389.2020000000002 322.3201999999998L394.0345000000002 328.8056999999998L399.726 328.5552000000001L402.4615 327.21870000000024L404.50500000000034 329.9167L400.71349999999995 334.60320000000024L401.1435 340.5111999999997L425.17150000000015 340.39819999999963L425.7260000000002 340.2547000000004L443.6270000000002 341.98819999999955L454.7320000000002 318.15470000000005L450.4185000000001 313.3976999999999L456.24300000000005 305.6957L454.11249999999995 296.1067000000003L459.6690000000001 297.9971999999998L463.8905 291.55869999999993L452.8665000000001 283.6957000000001L452.29899999999986 281.7651999999998L449.28800000000024 275.4496999999998L440.20849999999996 278.71770000000026z">
      <title id="t227">Troisième circonscription du Lot-et-Garonne</title>
      <desc id="d227">Cantons de : Beauville, Cancon, Castillonnès, Fumel, Laroque-Timbaut, Monclar, Monflanquin, Penne-d'Agenais, Prayssas, Sainte-Livrade-sur-Lot, Tournon-d'Agenais, Villeneuve-sur-Lot Nord, Villeneuve-sur-Lot Sud, Villeréal.</desc>
    </path></svg>