<svg xmlns="http://www.w3.org/2000/svg" version="1.1" xmlns:xlink="http://www.w3.org/1999/xlink" xmlns:svgjs="http://svgjs.dev/svgjs" width="432.0184999999998" height="513.6733999999996" fill="#eeeeee" stroke="#cccccc" xmlns:sodipodi="http://sodipodi.sourceforge.net/DTD/sodipodi-0.dtd"><path class="circo" id="id-048-01" d="M265.4155000000003 512.7678999999995L250.0385 508.96540000000016L248.00200000000018 508.5349000000002L239.12500000000023 513.6733999999996L234.36649999999986 509.83090000000004L222.4860000000001 506.67239999999936L212.22950000000026 507.82340000000033L194.20950000000005 504.2004000000003L191.7515000000003 500.99940000000004L189.89100000000008 493.3663999999993L176.49100000000033 485.0529L174.61150000000032 481.50239999999997L166.59199999999998 480.27390000000025L165.86000000000013 474.3178999999992L160.0815 466.0433999999998L160.9665000000001 462.06140000000005L148.91050000000007 460.86089999999956L143.07999999999993 462.73139999999955L135.73399999999992 459.1109L131.7070000000001 459.4318999999996L130.04549999999995 463.0598999999995L120.07049999999992 462.7954L109.47600000000023 468.4814L103.9730000000003 468.5233999999997L94.12599999999998 468.69939999999986L94.60399999999993 466.79640000000006L98.02149999999983 465.26839999999993L100.95450000000028 460.2768999999995L105.76950000000011 444.95540000000005L90.95649999999978 438.83339999999976L87.6155 433.9389L81.91550000000007 436.1048999999997L76.01499999999987 435.4993999999999L73.35300000000018 419.6188999999998L69.91100000000017 417.84339999999986L66.56549999999982 425.00189999999975L62.783000000000015 426.8008999999995L59.58149999999989 424.7179L61.04399999999998 412.27089999999976L73.35199999999986 398.1338999999997L69.87149999999986 393.43789999999956L71.93750000000023 385.8323999999999L66.08699999999999 384.69239999999957L62.724999999999795 377.3643999999996L63.878500000000145 369.6409L58.88250000000028 365.9938999999997L59.848499999999945 362.0083999999997L60.23149999999987 355.9448999999995L58.679500000000075 352.3073999999997L66.03650000000016 349.16089999999997L66.11750000000029 339.2595499999999L61.64500000000032 335.87294999999983L63.01249999999982 332.07719999999995L67.73300000000006 328.2334499999996L68.19799999999987 322.0196999999996L65.19650000000013 319.17434999999955L65.745 317.16579999999965L65.37050000000022 311.1352499999998L60.85700000000031 307.69169999999974L57.65199999999993 300.2562999999998L50.1015000000001 296.29939999999976L37.08399999999983 283.02750000000003L40.18950000000018 273.03984999999955L39.62499999999977 264.79629999999986L43.263000000000034 248.67789999999957L40.34600000000012 243.20279999999968L40.17150000000015 241.38194999999996L33.1310000000002 235.96659999999986L29.948499999999854 231.44614999999988L23.568500000000085 227.66525000000001L20.83849999999984 224.55849999999998L15.682499999999777 218.38705000000004L13.573000000000093 212.73759999999982L0 198.32259999999962L1.3875000000001592 194.92345L0.43299999999987904 193.03074999999978L7.411999999999921 180.02169999999978L14.633999999999787 158.0505999999997L20.30149999999992 155.35979999999995L24.417500000000132 156.28805L22.617500000000064 149.08209999999997L19.39200000000028 147.1845499999995L20.00499999999988 145.40769999999952L21.10900000000015 135.56579999999997L25.74099999999987 129.73224999999957L28.288499999999885 126.7752999999999L26.508000000000038 121.26594999999952L29.025500000000193 116.26524999999958L27.32250000000022 106.73675000000003L28.303000000000225 102.86014999999963L35.067000000000235 93.2475999999997L40.50450000000012 90.86815000000001L38.46249999999998 83.68454999999983L47.672999999999774 85.56704999999965L49.93100000000027 85.69410000000005L50.36450000000002 79.09445000000005L48.09750000000008 72.16674999999952L52.4045000000001 65.7000499999998L51.61699999999996 54.683149999999614L58.582999999999856 50.5397499999998L62.3520000000002 43.31769999999949L68.49949999999978 44.09535000000005L72.16700000000003 49.10469999999975L75.90800000000002 54.78329999999971L77.77500000000032 60.35484999999994L81.49049999999988 61.84219999999982L84.97749999999996 66.64449999999988L88.65999999999985 67.94330000000002L91.07950000000017 62.20505000000003L99.11800000000028 60.49759999999992L103.6990000000003 56.20674999999949L107.66200000000026 52.20024999999964L104.67249999999979 47.146399999999744L104.02199999999993 39.47839999999985L113.90950000000032 35.720249999999965L111.73049999999989 26.42879999999991L114.1255000000001 23.50619999999992L113.36600000000033 21.75239999999974L116.66200000000003 20.492699999999786L120.73599999999999 20.478899999999953L119.35400000000016 24.355749999999716L121.36849999999981 27.746549999999957L129.1885000000002 29.67649999999992L135.70949999999982 21.808849999999893L141.38350000000003 21.587899999999536L143.18150000000003 17.945499999999583L151.4190000000002 11.902249999999981L158.46600000000024 12.555099999999584L161.36250000000018 2.5899499999997033L166.19399999999985 0L166.90650000000005 9.993499999999926L171.85249999999996 13.70519999999999L179.16150000000016 11.329899999999498L183.24700000000007 18.547800000000052L184.47549999999978 27.744749999999954L182.20349999999996 34.7905499999996L185.97649999999987 40.40314999999964L185.9915000000001 46.659799999999905L192.9694999999998 57.3163999999997L195.5574999999999 72.91799999999967L202.26949999999988 80.65290000000005L201.66499999999985 86.70389999999998L207.54700000000014 92.26855L211.04600000000005 99.61509999999976L214.7539999999998 101.53629999999964L216.4654999999999 100.33339999999953L217.67150000000015 96.51719999999955L223.42750000000024 90.89454999999987L237.75649999999985 88.60545000000002L243.81199999999978 90.03404999999987L249.5210000000003 84.93294999999989L255.33650000000023 89.76679999999988L258.4269999999998 87.80419999999992L257.2199999999998 83.81280000000004L261.8720000000002 70.23079999999993L260.67949999999996 59.98479999999972L266.3145000000003 57.862199999999575L268.84450000000015 60.57140000000004L273.6284999999998 57.88199999999961L276.62199999999984 59.077350000000024L281.6210000000001 59.182950000000005L288.35350000000005 63.15380000000005L291.164 70.6277L294.092 72.97974999999951L292.4295000000001 80.67809999999952L287.1969999999999 83.76964999999984L291.0005000000001 88.17214999999976L303.0340000000001 86.4360499999998L306.06449999999995 83.68394999999964L315.5875000000003 86.16634999999974L319.54949999999997 85.18289999999979L320.3325000000001 81.37519999999995L323.9390000000003 82.7639499999998L326.9524999999999 91.65194999999983L330.7254999999998 95.79404999999952L332.5535000000002 105.18539999999973L333.83849999999995 103.51544999999987L335.8760000000001 104.02639999999963L346.6700000000003 113.50594999999998L350.76750000000004 124.82499999999959L352.3149999999998 125.84324999999978L356.0300000000001 121.84484999999995L361.92949999999996 120.21939999999972L365.58449999999993 122.10170000000005L365.25300000000016 126.0006999999996L360.5110000000002 132.57344999999987L364.54999999999984 137.07269999999994L374.3715000000003 139.01629999999955L379.9430000000001 141.64729999999963L380.5815000000001 143.61519999999985L374.6500000000003 153.8477499999999L374.62699999999984 157.97820000000002L377.5135 160.9229499999998L377.398 167.07474999999988L383.2974999999999 167.2211999999996L383.73699999999985 169.18049999999994L378.24749999999995 177.61235L384.0809999999999 190.68744999999979L388.0785000000003 195.1648L388.49850000000004 199.74670000000003L387.8075000000001 215.87409999999977L393.1295 218.45629999999971L393.73350000000016 220.40369999999996L393.0775 229.55309999999997L398.14599999999984 232.5400499999995L397.44700000000023 236.51314999999954L400.3140000000002 241.77869999999984L411.02750000000015 241.18089999999995L416.1835000000002 252.5596999999999L418.21799999999996 262.1787499999999L424.0089999999998 272.76504999999986L422.96100000000024 274.5067499999999L424.778 275.47889999999995L427.21450000000004 283.34869999999967L427.36850000000004 299.75179999999966L432.0184999999998 308.5872999999998L422.5819999999999 318.70169999999973L421.3425000000001 328.2781L420.77949999999987 328.47984999999994L416.429 335.4332499999998L411.2259999999998 338.4182499999997L411.2565000000001 342.5261999999998L409.5670000000001 343.66304999999954L397.7550000000002 341.01099999999974L393.0220000000003 343.7248999999997L390.47450000000026 348.56839999999977L388.0835000000002 350.05139999999983L385.49300000000017 348.36239999999975L384.2700000000002 351.3308999999998L395.10350000000017 361.8239L400.9285 372.2949L400.9264999999999 376.1098999999996L406.293 382.1918999999997L411.9515000000001 383.76289999999983L411.0464999999999 389.44789999999955L410.73350000000005 387.54039999999975L408.87249999999995 392.98839999999984L400.01300000000015 400.50839999999994L400.899 403.12239999999974L405.539 407.2019L407.31100000000026 413.1878999999998L404.8770000000002 418.1878999999998L410.1729999999998 423.2678999999996L415.19150000000025 420.84990000000005L419.7309999999999 424.5333999999997L422.04650000000015 427.5853999999998L420.52599999999984 433.0579L413.5635000000002 433.5388999999998L410.0324999999998 438.60739999999964L411.9409999999999 452.9443999999995L410.3820000000002 453.46990000000005L406.68150000000026 464.9378999999999L407.7834999999999 466.6158999999999L415.3399999999999 468.3663999999993L418.3275000000003 479.7714000000002L421.7090000000002 479.25839999999937L421.7984999999999 484.08589999999947L402.38800000000026 473.78089999999986L400.3699999999998 474.00239999999997L401.8900000000002 485.8828999999997L398.68300000000033 487.4503999999996L395.22850000000005 486.5784000000002L394.80999999999995 492.4228999999997L387.88250000000005 494.25189999999986L378.7080000000003 505.20989999999927L361.447 500.0768999999997L358.2605000000001 500.52840000000003L356.40300000000025 502.97139999999956L352.40099999999984 505.2749L346.5195 505.9663999999992L336.33550000000014 497.54989999999964L332.72400000000005 496.87989999999957L330.63649999999996 491.8698999999998L328.7835000000001 491.73989999999947L320.1695000000001 488.3573999999993L316.18600000000015 484.1348999999997L306.9010000000003 482.9628999999994L302.07550000000026 479.9119000000002L298.6669999999998 475.1503999999994L298.93399999999986 473.21139999999957L292.9925000000003 472.31139999999925L291.6795000000002 476.1143999999996L288.2600000000002 478.18190000000016L283.8960000000003 474.2999000000003L278.82000000000005 477.5074000000001L275.7755000000003 487.3219L276.7874999999998 491.05189999999936L282.1615000000003 494.03340000000014L282.8415000000001 495.9579000000002L278.0310000000003 499.6079000000003L276.75099999999986 509.6174000000002L265.4155000000003 512.7678999999995z">
      <title id="t228">Première circonscription de la Lozère</title>
      <desc id="d228">Circonscription unique : Tous les cantons du département</desc>
    </path></svg>