<svg xmlns="http://www.w3.org/2000/svg" version="1.1" xmlns:xlink="http://www.w3.org/1999/xlink" xmlns:svgjs="http://svgjs.dev/svgjs" width="675.247" height="527.0576" fill="#eeeeee" stroke="#cccccc" xmlns:sodipodi="http://sodipodi.sourceforge.net/DTD/sodipodi-0.dtd"><path class="circo" id="id-049-01" d="M349.90999999999985 179.20635000000004L342.8845000000001 174.21415000000025L342.3325 167.7037999999999L344.3844999999999 164.0202499999998L340.7679999999999 158.92875000000004L334.08000000000015 154.1406999999998L329.9185 159.08560000000023L327.8539999999998 158.4645999999998L323.1760000000003 165.71410000000014L317.61900000000026 160.07310000000018L315.03250000000037 154.5954999999998L309.5690000000002 152.4236000000002L304.1120000000001 149.31539999999984L308.8655 128.43189999999993L308.5685000000001 128.12745000000007L303.24450000000013 121.94844999999987L297.5880000000001 119.64895000000013L292.02049999999986 122.36204999999984L280.36 121.18049999999982L281.71899999999994 110.96769999999992L281.36750000000006 105.36900000000003L283.26300000000003 104.81955000000028L284.0350000000001 99.0134999999998L285.73450000000037 90.82539999999995L289.05100000000004 87.28664999999978L286.86350000000004 87.19004999999981L285.99850000000004 85.17155000000002L289.2984999999999 79.54574999999977L289.07399999999996 73.12209999999993L291.28600000000006 69.3313999999998L294.00350000000003 64.78925000000004L291.46000000000015 54.224100000000135L297.68550000000005 48.44640000000027L300.8924999999999 46.2188500000002L315.9480000000002 46.98789999999974L327.0705000000004 32.62965000000008L331.97450000000003 35.60155000000009L337.38800000000026 33.24290000000019L349.0545000000003 37.506799999999885L355.2480000000003 26.75459999999987L353.6540000000002 16.456150000000207L354.59400000000016 14.846949999999879L360.0150000000002 15.767299999999977L371.44299999999987 20.87274999999977L379.3470000000002 27.816250000000196L382.6274999999998 33.36805000000027L393.14850000000035 27.058099999999854L401.28449999999987 28.32209999999975L402.24699999999984 32.347050000000195L400.8695 33.98444999999981L394.71900000000005 35.265249999999924L395.7310000000001 41.33725000000027L392.3415 46.700400000000286L387.3025000000001 49.32284999999979L386.1400000000003 55.607049999999845L389.8304999999999 60.88070000000016L384.8015000000004 67.60479999999973L385.7049999999998 69.60165000000018L389.3885 74.60660000000018L388.8440000000003 78.65745000000004L379.9185 82.55254999999977L375.69799999999987 82.76085000000023L371.05200000000025 91.99099999999987L367.1460000000002 93.52260000000001L374.2009999999999 101.74350000000004L372.33450000000005 110.33950000000004L376.80650000000014 111.93770000000029L387.75950000000023 110.68955000000017L391.50300000000016 102.69484999999975L392.34399999999994 96.0757000000001L395.9385000000003 93.49170000000015L413.2835 95.77724999999987L410.9625 112.12564999999984L404.8970000000003 112.28520000000003L401.05700000000013 116.90024999999991L403.3510000000001 125.33344999999997L406.15099999999984 128.69415000000004L422.71150000000034 138.8113500000003L419.5890000000003 149.23665000000028L416.6135000000003 151.65129999999976L410.52149999999983 151.82264999999973L406.83449999999993 158.45640000000003L404.8955000000001 159.01695000000018L405.9960000000001 167.64965000000018L397.93450000000007 177.66995000000009L400.7634999999999 185.59365000000014L399.95550000000037 186.64895L396.51850000000024 193.3065499999998L395.6315000000001 195.0171499999999L398.48799999999983 197.17174999999997L397.66050000000007 203.40205000000026L399.24000000000035 207.27174999999988L397.63750000000016 208.6106000000001L393.70900000000006 207.64279999999985L390.3275000000002 212.63435000000015L386.155 212.40864999999985L385.26200000000017 215.89249999999993L381.3375000000002 215.13554999999997L370.111 222.21294999999998L357.28999999999985 221.5089499999999L355.45000000000016 217.57065000000011L352.0775000000003 217.20730000000003L351.8990000000002 220.3474L347.8575000000001 219.00350000000003L348.639 224.1586000000001L344.0735000000001 226.00574999999992L342.93499999999995 224.1503499999999L335.79150000000027 218.30075000000022L332.78999999999996 217.31089999999995L335.7665000000003 213.77139999999997L338.92600000000016 210.92454999999973L341.64750000000026 205.19589999999994L345.0625000000002 199.9049500000001L349.53149999999994 194.79885000000024L352.9419999999999 186.85090000000002L351.6579999999999 180.49474999999973L349.90999999999985 179.20635000000004z">
      <title id="t229">Première circonscription du Maine-et-Loire</title>
      <desc id="d229">Cantons de : Angers Centre, Angers Est, Angers Nord-Est, Châteauneuf-sur-Sarthe, Tiercé.</desc>
    </path><path class="circo" id="id-049-02" d="M227.63450000000034 302.8689000000003L225.30500000000018 297.1151500000002L229.1825 292.5628499999999L229.38600000000008 284.5073000000002L231.25249999999994 281.11469999999997L229.19100000000014 275.1908500000002L220.6850000000003 269.3142499999999L221.08850000000018 265.6514499999997L225.77249999999992 269.20815000000005L231.53050000000007 270.37125000000003L259.8874999999998 279.72294999999974L267.5389999999999 282.9788500000001L275.73350000000005 281.6192000000001L287.11450000000013 277.47704999999996L293.30250000000035 277.91195000000016L302.28650000000016 272.82915L309.2075 261.4382499999999L310.32550000000015 259.6161999999998L313.96299999999997 253.0598500000002L318.6255 243.6880500000001L319.4890000000004 235.26369999999986L325.14850000000024 226.37524999999982L329.8059999999998 222.75215000000003L332.78999999999996 217.31089999999995L335.79150000000027 218.30075000000022L342.93499999999995 224.1503499999999L344.0735000000001 226.00574999999992L348.639 224.1586000000001L347.8575000000001 219.00350000000003L351.8990000000002 220.3474L352.0775000000003 217.20730000000003L355.45000000000016 217.57065000000011L357.28999999999985 221.5089499999999L370.111 222.21294999999998L381.3375000000002 215.13554999999997L385.26200000000017 215.89249999999993L386.155 212.40864999999985L390.3275000000002 212.63435000000015L393.70900000000006 207.64279999999985L397.63750000000016 208.6106000000001L399.24000000000035 207.27174999999988L397.66050000000007 203.40205000000026L398.48799999999983 197.17174999999997L395.6315000000001 195.0171499999999L396.51850000000024 193.3065499999998L399.95550000000037 186.64895L400.7634999999999 185.59365000000014L408.374 187.62299999999982L420.05750000000035 194.94979999999998L412.3075 201.62964999999986L418.2650000000001 207.39190000000008L420.48299999999983 215.59135000000026L419.79899999999986 219.8230000000001L413.1975 225.09619999999984L425.7499999999999 227.54864999999995L426.3255000000004 229.67600000000004L434.25099999999986 233.95924999999977L437.8895 232.30534999999975L455.43949999999995 244.32754999999986L458.19349999999986 241.8864000000002L460.8895000000001 247.32064999999977L451.74199999999985 258.12995L450.85199999999986 257.5962500000003L448.8085000000001 269.8879499999998L451.6595000000001 272.94714999999997L450.5205000000001 278.9033999999998L439.6930000000003 280.79470000000015L435.4415 277.4067500000001L429.35850000000016 269.10334999999975L428.77099999999984 260.9435000000002L424.6300000000002 261.9625000000002L418.7914999999998 273.59170000000006L418.25699999999983 280.11199999999974L420.7605000000001 286.09894999999995L421.16600000000005 292.45745L413.89250000000004 296.6968000000003L411.6705000000002 293.07405000000017L416.85 281.6079000000002L416.7990000000003 277.37540000000024L413.3275000000003 275.1437499999997L404.8525000000001 274.4402500000001L404.04499999999985 272.4507L402.1685000000002 271.67804999999987L399.06150000000025 276.76665000000014L393.51650000000006 279.0264000000002L392.3970000000003 282.46185000000025L389.00900000000036 284.1365000000002L384.3105000000003 281.33429999999976L382.4709999999999 284.2531500000001L381.7265000000003 282.31314999999995L375.70400000000006 281.3456000000002L376.2940000000003 287.0914499999998L372.3225000000002 287.6404000000002L369.42499999999995 282.3752999999999L370.2789999999999 280.64660000000003L366.6025000000002 279.71855000000005L362.2874999999999 282.72035000000017L360.28549999999996 297.0712500000002L352.3400000000004 299.5679000000001L344.8475000000002 298.5707500000001L333.9850000000001 306.93325000000016L331.3389999999998 303.8440000000003L319.8025000000001 300.01379999999983L307.43600000000015 300.27089999999987L303.9435000000003 309.9482999999998L301.04300000000023 311.5456499999999L298.59350000000006 309.11135L293.7529999999998 318.3185500000002L286.6065000000003 325.93230000000005L287.28099999999984 329.54335000000015L282.61750000000006 336.6214000000002L273.69050000000016 342.3645499999998L278.49950000000035 351.8173999999999L291.1130000000003 351.84180000000026L288.88750000000016 357.5880000000001L288.16149999999993 363.8727L291.3575000000003 366.58900000000017L287.6245 381.12630000000024L298.07150000000036 383.03555000000017L303.1310000000002 379.3903L309.36900000000037 380.3649999999999L310.80750000000023 381.9452000000001L305.15800000000013 388.28845L301.1310000000003 389.91210000000024L300.0139999999999 396.1574999999999L293.40300000000013 404.68050000000005L293.45650000000035 408.99929999999983L302.8514999999999 414.23495L292.6634999999999 424.7325999999998L282.75950000000023 427.6900999999998L272.61450000000025 425.96025L267.004 428.64649999999983L254.4670000000002 429.63660000000004L250.4464999999999 425.22865000000024L251.4730000000003 419.0692999999999L242.98550000000034 419.11614999999983L237.6184999999998 416.0798L234.48149999999998 410.7443999999998L228.6885000000001 411.9544000000002L224.88800000000026 410.7081499999998L224.47600000000023 409.0492999999998L228.78199999999993 409.2405500000001L230.14299999999992 407.65289999999993L231.3749999999999 396.7234000000002L230.37950000000023 381.2921L223.9005000000003 376.45854999999983L234.34950000000015 369.3921L232.51149999999996 368.4658999999999L232.16049999999996 362.35104999999976L234.56050000000005 358.9289000000002L231.77599999999984 351.32150000000024L230.1415000000003 351.84055L210.21299999999997 347.5468999999998L208.66449999999986 341.1820499999999L209.42000000000007 337.1707500000002L213.03800000000024 335.41800000000023L212.5785000000002 326.78949999999986L206.72900000000027 324.0267L213.6635000000001 316.33730000000014L217.7275000000003 317.44925000000023L223.10400000000016 323.58675000000005L235.7929999999999 332.92215L245.29899999999998 329.4656500000002L248.41850000000022 324.28425000000004L248.88199999999983 316.15115000000003L248.59700000000032 314.66745000000003L245.25950000000023 309.3978500000003L232.9480000000001 301.48685L230.98400000000026 300.70550000000026L227.63450000000034 302.8689000000003z">
      <title id="t230">Deuxième circonscription du Maine-et-Loire</title>
      <desc id="d230">Angers Sud, Angers-Trélazé, Chalonnes-sur-Loire, Chemillé, Les Ponts-de-Cé.</desc>
    </path><path class="circo" id="id-049-03" d="M535.3660000000002 94.40224999999998L533.4555 93.65324999999984L530.7215000000002 96.62530000000004L527.1715 104.04614999999978L527.0589999999999 110.25559999999984L521.2164999999999 109.47600000000023L518.3879999999999 112.13954999999999L512.8534999999999 109.84309999999994L507.99649999999986 102.95790000000011L501.74800000000005 104.25495000000012L493.45849999999984 102.40214999999978L491.95400000000006 101.07095000000015L491.9704999999999 93.05565000000001L483.8190000000003 80.31655L483.03300000000036 74.08124999999984L489.08950000000004 73.3961499999998L497.201 66.12630000000024L497.5799999999998 61.87239999999974L501.85299999999984 61.0626000000002L501.0480000000001 59.228800000000206L497.1230000000003 59.38739999999996L493.2839999999999 54.79145000000017L489.54200000000014 53.5890999999998L474.9245000000002 66.60885000000007L466.46799999999985 64.41469999999981L453.3080000000001 57.450549999999794L444.19250000000034 58.583849999999984L433.7420000000003 56.305150000000026L426.31849999999986 60.410699999999906L420.0725 59.351350000000025L423.27300000000037 49.33924999999988L416.69250000000034 44.343749999999886L417.2230000000002 42.276449999999954L414.1735 37.18065000000024L415.3264999999999 31.487200000000257L413.32400000000007 31.259600000000205L412.3570000000001 27.092250000000035L401.4575000000002 20.219450000000165L399.3090000000001 19.919049999999743L401.28449999999987 28.32209999999975L402.24699999999984 32.347050000000195L400.8695 33.98444999999981L394.71900000000005 35.265249999999924L395.7310000000001 41.33725000000027L392.3415 46.700400000000286L387.3025000000001 49.32284999999979L386.1400000000003 55.607049999999845L389.8304999999999 60.88070000000016L384.8015000000004 67.60479999999973L385.7049999999998 69.60165000000018L389.3885 74.60660000000018L388.8440000000003 78.65745000000004L379.9185 82.55254999999977L375.69799999999987 82.76085000000023L371.05200000000025 91.99099999999987L367.1460000000002 93.52260000000001L374.2009999999999 101.74350000000004L372.33450000000005 110.33950000000004L376.80650000000014 111.93770000000029L387.75950000000023 110.68955000000017L391.50300000000016 102.69484999999975L392.34399999999994 96.0757000000001L395.9385000000003 93.49170000000015L413.2835 95.77724999999987L410.9625 112.12564999999984L404.8970000000003 112.28520000000003L401.05700000000013 116.90024999999991L403.3510000000001 125.33344999999997L406.15099999999984 128.69415000000004L422.71150000000034 138.8113500000003L419.5890000000003 149.23665000000028L416.6135000000003 151.65129999999976L410.52149999999983 151.82264999999973L406.83449999999993 158.45640000000003L404.8955000000001 159.01695000000018L405.9960000000001 167.64965000000018L397.93450000000007 177.66995000000009L400.7634999999999 185.59365000000014L408.374 187.62299999999982L420.05750000000035 194.94979999999998L412.3075 201.62964999999986L418.2650000000001 207.39190000000008L420.48299999999983 215.59135000000026L419.79899999999986 219.8230000000001L413.1975 225.09619999999984L425.7499999999999 227.54864999999995L426.3255000000004 229.67600000000004L434.25099999999986 233.95924999999977L437.8895 232.30534999999975L455.43949999999995 244.32754999999986L458.19349999999986 241.8864000000002L460.8895000000001 247.32064999999977L451.74199999999985 258.12995L458.0340000000001 264.1975000000002L462.2245000000004 271.87324999999987L465.3090000000003 279.55415000000016L472.0730000000003 287.1379000000002L485.3514999999999 296.5005000000002L487.21299999999985 297.53719999999987L500.49000000000035 307.07245L511.5145000000001 313.6889500000001L517.7165000000002 322.7138000000002L523.3044999999998 325.82265000000007L530.7490000000001 330.6594000000001L532.7949999999998 336.22574999999983L549.7579999999999 350.7252L559.3164999999999 351.8837500000001L572.21 355.11135000000024L577.022 357.4489999999997L585.0465000000003 362.8737000000001L594.0250000000003 366.66285000000016L600.5160000000001 371.7700500000001L606.3454999999999 371.3495499999999L606.9350000000003 362.81925L604.9195000000003 356.6689500000001L608.0095 351.2858L609.6005000000002 338.91025000000013L612.7355 336.5086500000001L613.1905 332.2142500000001L610.566 329.3991999999997L623.8364999999999 309.38530000000014L625.4755 300.89800000000025L633.1395000000003 299.00284999999997L638.1560000000002 292.7240499999999L635.2265 282.41544999999974L640.9449999999998 281.6091499999999L652.9655000000002 269.77935L647.2660000000002 267.2246000000001L647.0605 260.8587499999999L640.9469999999999 259.2413499999998L652.4555000000004 248.01660000000027L654.2435 241.97749999999985L652.4265000000003 225.00564999999995L656.4544999999998 220.0266499999998L658.3265 211.66854999999998L660.0665000000004 210.42854999999975L660.8350000000002 205.34294999999986L669.1014999999999 194.36474999999973L671.1135000000002 178.42904999999973L663.6045000000001 178.80794999999978L662.9509999999999 174.86255000000028L657.6310000000001 171.6557499999999L660.5920000000003 168.42534999999998L666.5430000000003 152.29195000000004L668.603 149.26314999999988L675.247 146.1011000000002L673.5505 142.07490000000007L674.8545000000001 137.95365000000004L673.3064999999999 127.33000000000004L667.9115000000002 124.57314999999994L665.9174999999999 125.19475L664.5510000000002 129.14359999999988L662.4865 128.85929999999973L661.3665000000003 122.80089999999973L654.5345000000003 122.19245000000001L653.7450000000001 133.24700000000007L650.4520000000002 136.1468500000001L644.0345000000002 137.4054000000001L638.6619999999999 144.41005000000018L635.2705000000003 141.8259999999998L632.6085 136.13929999999982L626.7040000000003 135.1454000000001L624.7059999999999 129.0761500000002L622.5710000000004 128.90469999999993L616.257 130.52785000000029L605.736 127.50524999999982L602.0055000000002 129.80230000000006L597.7645000000001 128.70045000000005L590.0889999999998 121.01024999999993L579.7700000000003 117.6348999999999L581.0630000000003 114.5354500000002L573.637 102.55229999999983L566.9310000000002 109.28049999999985L564.1860000000003 103.39699999999993L553.2915000000003 101.92580000000021L543.886 96.36975000000007L536.2715000000003 100.45329999999979L535.3660000000002 94.40224999999998z">
      <title id="t231">Troisième circonscription du Maine-et-Loire</title>
      <desc id="d231">Cantons de: Allonnes, Baugé, Beaufort-en-Vallée, Durtal, Longué-Jumelles, Noyant, Saumur Nord, Seiches-sur-le-Loir.</desc>
    </path><path class="circo" id="id-049-04" d="M411.6705000000002 293.07405000000017L413.89250000000004 296.6968000000003L421.16600000000005 292.45745L420.7605000000001 286.09894999999995L418.25699999999983 280.11199999999974L418.7914999999998 273.59170000000006L424.6300000000002 261.9625000000002L428.77099999999984 260.9435000000002L429.35850000000016 269.10334999999975L435.4415 277.4067500000001L439.6930000000003 280.79470000000015L450.5205000000001 278.9033999999998L451.6595000000001 272.94714999999997L448.8085000000001 269.8879499999998L450.85199999999986 257.5962500000003L451.74199999999985 258.12995L458.0340000000001 264.1975000000002L462.2245000000004 271.87324999999987L465.3090000000003 279.55415000000016L472.0730000000003 287.1379000000002L485.3514999999999 296.5005000000002L487.21299999999985 297.53719999999987L500.49000000000035 307.07245L511.5145000000001 313.6889500000001L517.7165000000002 322.7138000000002L523.3044999999998 325.82265000000007L530.7490000000001 330.6594000000001L532.7949999999998 336.22574999999983L549.7579999999999 350.7252L559.3164999999999 351.8837500000001L572.21 355.11135000000024L577.022 357.4489999999997L585.0465000000003 362.8737000000001L594.0250000000003 366.66285000000016L600.5160000000001 371.7700500000001L606.3454999999999 371.3495499999999L608.2114999999999 371.6692999999998L606.5260000000001 374.7190999999998L600.9520000000003 379.27264999999977L598.4215 384.5017999999999L598.68 386.61659999999983L603.8560000000001 390.16475000000014L602.5495000000001 398.5510499999998L598.3930000000004 405.9157499999998L595.3360000000004 404.63360000000023L591.1259999999999 408.5710999999998L583.6345 398.9468499999998L570.5709999999999 411.14755L561.2144999999998 429.06565L560.9154999999998 433.3994000000001L558.8495 439.20765000000017L559.6154999999999 441.1978499999998L563.6255 442.5172500000002L564.0475000000004 444.61090000000013L560.5435 454.5721500000002L556.7505 450.5563999999998L546.7529999999999 450.41094999999984L545.0414999999998 446.9166999999999L539.1970000000003 446.0095000000001L533.8785000000001 451.6800999999998L532.7760000000001 455.90224999999975L532.1500000000003 468.2468L520.7704999999999 474.8412000000002L517.4805000000003 472.5610499999999L516.9614999999999 468.51755000000026L513.82 466.0286000000002L509.91899999999987 464.9141500000002L505.0074999999998 468.3778000000001L501.2805000000003 466.55460000000005L499.66499999999996 465.1356500000003L504.6879999999999 458.14610000000016L515.6725 448.30145000000016L515.5185 443.99839999999983L509.187 445.2870999999999L496.82349999999985 441.0255000000001L494.72199999999987 446.5002500000003L487.8860000000003 450.53020000000004L473.37649999999996 443.06865000000016L465.82899999999995 446.1038000000002L463.8274999999999 442.86135L460.7634999999999 445.54309999999987L456.703 446.2243000000001L455.1980000000003 444.8182000000003L447.346 447.25135000000023L442.679 451.24435000000005L430.98900000000015 454.22505L424.77900000000034 449.39835000000016L422.9275000000001 450.31605000000013L413.22400000000016 453.4260999999998L411.2020000000001 453.07965000000024L411.04700000000037 451.03335000000015L407.235 452.37360000000024L405.2165000000002 464.5247499999999L401.87850000000026 467.19415000000026L394.29100000000005 463.60995L386.22950000000003 466.4528999999999L379.8040000000003 466.0379499999999L371.38450000000034 475.2142500000002L369.9525 467.13054999999997L378.2985000000002 461.21730000000014L378.6225000000002 457.59749999999997L366.5395000000001 456.98455000000024L356.6165000000001 460.05274999999983L337.66650000000027 470.18404999999973L339.1919999999999 471.712L339.21550000000025 480.2168499999999L344.57449999999994 486.77025000000015L343.06600000000003 490.73294999999973L336.8885 490.2647000000002L334.66700000000003 496.29369999999994L329.0039999999999 499.3713500000001L325.96400000000017 504.83524999999986L322.12800000000016 503.10569999999984L316.4980000000003 505.52084999999977L313.69050000000016 500.19540000000006L301.66150000000016 496.45204999999976L298.4390000000002 493.7525499999998L301.4945 486.38424999999984L305.06100000000004 484.4878L292.2845000000001 475.0351999999998L290.3705000000002 471.3513999999998L293.17949999999996 465.7996000000003L299.6564999999998 460.3579500000001L304.51149999999984 451.4247499999999L300.75350000000014 449.8372499999999L298.8794999999999 446.0644500000001L288.6700000000002 444.0077500000001L285.92550000000017 438.67684999999994L288.3755000000002 433.5636499999998L282.75950000000023 427.6900999999998L292.6634999999999 424.7325999999998L302.8514999999999 414.23495L293.45650000000035 408.99929999999983L293.40300000000013 404.68050000000005L300.0139999999999 396.1574999999999L301.1310000000003 389.91210000000024L305.15800000000013 388.28845L310.80750000000023 381.9452000000001L309.36900000000037 380.3649999999999L303.1310000000002 379.3903L298.07150000000036 383.03555000000017L287.6245 381.12630000000024L291.3575000000003 366.58900000000017L288.16149999999993 363.8727L288.88750000000016 357.5880000000001L291.1130000000003 351.84180000000026L278.49950000000035 351.8173999999999L273.69050000000016 342.3645499999998L282.61750000000006 336.6214000000002L287.28099999999984 329.54335000000015L286.6065000000003 325.93230000000005L293.7529999999998 318.3185500000002L298.59350000000006 309.11135L301.04300000000023 311.5456499999999L303.9435000000003 309.9482999999998L307.43600000000015 300.27089999999987L319.8025000000001 300.01379999999983L331.3389999999998 303.8440000000003L333.9850000000001 306.93325000000016L344.8475000000002 298.5707500000001L352.3400000000004 299.5679000000001L360.28549999999996 297.0712500000002L362.2874999999999 282.72035000000017L366.6025000000002 279.71855000000005L370.2789999999999 280.64660000000003L369.42499999999995 282.3752999999999L372.3225000000002 287.6404000000002L376.2940000000003 287.0914499999998L375.70400000000006 281.3456000000002L381.7265000000003 282.31314999999995L382.4709999999999 284.2531500000001L384.3105000000003 281.33429999999976L389.00900000000036 284.1365000000002L392.3970000000003 282.46185000000025L393.51650000000006 279.0264000000002L399.06150000000025 276.76665000000014L402.1685000000002 271.67804999999987L404.04499999999985 272.4507L404.8525000000001 274.4402500000001L413.3275000000003 275.1437499999997L416.7990000000003 277.37540000000024L416.85 281.6079000000002L411.6705000000002 293.07405000000017z">
      <title id="t232">Quatrième circonscription du Maine-et-Loire</title>
      <desc id="d232">Cantons de : Doué-la-Fontaine, Gennes, Montreuil-Bellay, Saumur Sud, Thouarcé, Vihiers.</desc>
    </path><path class="circo" id="id-049-05" d="M306.3330000000002 510.60614999999984L300.1614999999998 512.0262500000001L290.3525000000002 508.04550000000006L286.3884999999999 512.8699499999999L286.46600000000035 516.34795L278.69650000000036 512.0456000000001L271.86500000000024 517.3940499999998L263.63800000000026 510.4316499999999L261.4920000000001 510.05089999999996L256.19399999999985 513.4537999999998L251.89149999999984 512.9291499999999L246.97299999999984 506.29489999999976L240.8235000000002 505.45605000000023L237.27300000000014 510.6042500000001L231.93750000000023 513.76035L233.40800000000002 515.2332999999999L231.42899999999997 515.9866L228.51800000000026 512.8587499999998L226.37699999999995 512.93475L221.04199999999992 516.4183500000001L215.26200000000017 517.2843999999998L212.09600000000023 522.4034L212.4905000000001 526.3600000000002L210.50400000000025 527.0576L200.65949999999987 523.4268500000002L196.45899999999983 523.7183499999998L192.4920000000003 513.9915500000001L186.70799999999986 511.4984500000003L178.21849999999984 503.94465000000025L175.72949999999992 507.27210000000014L167.91049999999984 509.8272000000003L160.1785000000001 499.72230000000025L156.37850000000014 500.57754999999986L149.57850000000008 495.3872000000001L143.69399999999985 506.38649999999984L128.72950000000003 504.98550000000023L123.05850000000021 501.9961999999998L119.00300000000016 502.7572500000002L115.13550000000009 500.75454999999977L112.0474999999999 499.1113999999999L103.73899999999992 498.67880000000014L96.3515000000001 495.2837499999998L90.41249999999991 493.2519000000002L87.39649999999983 490.2347500000002L100.43650000000014 483.5448500000001L99.20299999999997 475.24794999999983L101.43550000000005 469.56264999999973L87.4150000000003 465.24234999999976L81.73249999999996 459.033L78.05549999999982 450.6794000000002L76.13300000000038 450.28610000000015L53.59000000000037 446.42470000000003L48.156999999999925 449.6611999999999L44.436000000000035 447.76205000000004L51.79900000000032 440.11439999999993L54.22200000000032 434.6235999999999L52.13200000000029 430.91214999999977L52.368999999999915 426.73175000000015L49.29450000000031 424.48080000000004L57.52749999999992 418.59624999999994L61.67599999999993 418.4588000000002L70.48450000000003 409.9031000000002L78.47800000000007 402.22485000000006L82.57999999999981 401.69219999999996L94.06350000000032 405.21810000000016L96.5685000000002 408.53549999999984L97.46199999999988 414.69179999999994L101.00099999999998 414.38244999999995L103.52399999999989 417.32084999999984L111.67700000000025 411.4250500000003L113.7115 411.0093999999998L116.02250000000026 414.4281000000001L118.048 413.95685000000014L117.9725000000002 424.4776999999999L119.74950000000035 425.73159999999973L129.39999999999998 420.78390000000013L132.0780000000002 417.37334999999973L140.34050000000036 418.5043999999999L145.76300000000003 418.13699999999983L148.52700000000027 413.8218499999999L152.43400000000008 413.34690000000023L156.9335000000001 416.60034999999993L168.85800000000017 418.3357000000001L168.95950000000028 422.3858999999999L172.65250000000037 429.3299000000002L171.48450000000025 433.2513499999999L173.38000000000022 434.00649999999985L172.20550000000003 439.6048000000002L178.50099999999998 444.67645000000005L185.25599999999997 435.1413500000001L189.51450000000023 435.453L198.17350000000033 441.5032000000002L202.41150000000005 441.64305000000013L206.83150000000012 448.73035000000016L208.23500000000024 445.1834500000001L214.15850000000034 445.39390000000026L217.39700000000028 447.61595L220.82699999999988 445.68735000000004L213.13850000000002 436.0719499999999L213.2650000000001 433.95465L218.2835 430.15634999999975L222.6785000000001 422.9651000000001L223.60099999999989 418.82060000000024L221.8965000000003 415.05055000000027L224.88800000000026 410.7081499999998L228.6885000000001 411.9544000000002L234.48149999999998 410.7443999999998L237.6184999999998 416.0798L242.98550000000034 419.11614999999983L251.4730000000003 419.0692999999999L250.4464999999999 425.22865000000024L254.4670000000002 429.63660000000004L267.004 428.64649999999983L272.61450000000025 425.96025L282.75950000000023 427.6900999999998L288.3755000000002 433.5636499999998L285.92550000000017 438.67684999999994L288.6700000000002 444.0077500000001L298.8794999999999 446.0644500000001L300.75350000000014 449.8372499999999L304.51149999999984 451.4247499999999L299.6564999999998 460.3579500000001L293.17949999999996 465.7996000000003L290.3705000000002 471.3513999999998L292.2845000000001 475.0351999999998L305.06100000000004 484.4878L301.4945 486.38424999999984L298.4390000000002 493.7525499999998L301.66150000000016 496.45204999999976L313.69050000000016 500.19540000000006L316.4980000000003 505.52084999999977L322.12800000000016 503.10569999999984L325.96400000000017 504.83524999999986L323.16149999999993 506.7548499999998L322.4615 509.9605500000001L311.97 512.7945499999998L306.3330000000002 510.60614999999984z">
      <title id="t233">Cinquième circonscription du Maine-et-Loire</title>
      <desc id="d233">Cantons de : Cholet I, Cholet II, Cholet III, Montfaucon.</desc>
    </path><path class="circo" id="id-049-06" d="M152.43400000000008 413.34690000000023L148.52700000000027 413.8218499999999L145.76300000000003 418.13699999999983L140.34050000000036 418.5043999999999L132.0780000000002 417.37334999999973L129.39999999999998 420.78390000000013L119.74950000000035 425.73159999999973L117.9725000000002 424.4776999999999L118.048 413.95685000000014L116.02250000000026 414.4281000000001L113.7115 411.0093999999998L111.67700000000025 411.4250500000003L103.52399999999989 417.32084999999984L101.00099999999998 414.38244999999995L97.46199999999988 414.69179999999994L96.5685000000002 408.53549999999984L94.06350000000032 405.21810000000016L82.57999999999981 401.69219999999996L78.47800000000007 402.22485000000006L81.78449999999998 392.6475499999998L75.42700000000025 388.37789999999984L76.32049999999992 384.7494999999998L73.71399999999994 379.15255L76.38450000000034 374.77480000000014L70.44050000000027 371.2713500000001L73.56899999999996 358.1945999999999L67.29750000000024 351.1292500000002L63.44850000000008 350.58955000000026L57.960500000000366 356.3872500000002L52.25000000000023 359.01905L42.56200000000035 352.4410499999999L33.06700000000035 340.2187500000002L32.931500000000256 328.65925000000004L31.444000000000187 325.62149999999974L25.266000000000304 320.32539999999983L25.088499999999954 318.31230000000005L17.172500000000355 319.3163500000003L6.329000000000065 320.56235000000015L0 318.5674L7.1875 310.22415000000024L13.370500000000334 308.08625000000006L20.25450000000035 299.55660000000023L30.582499999999868 295.7409999999999L41.57300000000021 295.2919000000003L51.8180000000001 291.12514999999973L53.47950000000026 289.8372999999998L63.05949999999996 290.1773000000003L72.78099999999995 287.1197000000001L78.3175 280.5926499999998L88.99100000000033 278.5293999999999L102.01000000000022 278.80740000000003L102.95900000000017 279.82145L107.2505000000001 279.3822L117.16499999999996 276.7735499999998L123.34850000000017 277.15509999999995L136.8905000000001 280.41195000000016L145.1785000000001 279.95385L154.56349999999986 275.64144999999996L160.64200000000028 276.62924999999973L164.12350000000004 273.1950499999999L168.4575000000001 270.87215000000015L173.5730000000001 266.58680000000004L177.79800000000023 266.12604999999974L183.07299999999998 259.21370000000024L174.68950000000007 246.75535000000025L177.83900000000017 242.33429999999998L183.36349999999982 241.72995000000014L183.11450000000036 219.39234999999996L187.3275000000001 219.94745000000023L189.68650000000025 225.8579500000002L191.36400000000037 222.0866000000001L195.10550000000023 220.64900000000023L208.47950000000026 226.4078999999998L222.74699999999996 228.22490000000016L225.18599999999992 231.38030000000015L225.33950000000004 235.37115000000028L227.29300000000023 234.55679999999973L237.08650000000034 238.52210000000014L247.47749999999996 238.38450000000023L248.87699999999995 234.81254999999976L252.81600000000026 233.59350000000006L258.30899999999986 232.0458000000002L258.775 229.96195L255.60749999999985 224.4889999999998L252.11600000000033 222.07780000000014L252.33850000000018 215.70515L255.10100000000023 212.73435000000006L258.99350000000027 212.85505L263.15949999999987 205.96994999999993L264.66800000000035 207.4056999999999L270.5680000000001 207.20005000000015L280.74450000000013 214.25155000000018L289.8725000000002 212.06219999999973L295.3784999999999 213.97550000000024L294.07449999999983 206.66425000000004L299.9150000000003 204.0694000000002L295.65049999999985 196.63765000000012L299.4875000000002 197.12834999999984L302.89350000000013 195.12279999999976L308.76750000000015 196.51250000000005L316.4485000000002 202.61525000000006L322.1379999999999 205.96429999999998L328.25800000000015 205.12409999999988L329.6949999999998 206.84624999999983L331.6180000000003 207.26285000000018L334.1120000000001 209.47744999999998L334.7385000000003 210.51184999999975L334.5044999999999 211.90449999999998L335.7665000000003 213.77139999999997L332.78999999999996 217.31089999999995L329.8059999999998 222.75215000000003L325.14850000000024 226.37524999999982L319.4890000000004 235.26369999999986L318.6255 243.6880500000001L313.96299999999997 253.0598500000002L310.32550000000015 259.6161999999998L309.2075 261.4382499999999L302.28650000000016 272.82915L293.30250000000035 277.91195000000016L287.11450000000013 277.47704999999996L275.73350000000005 281.6192000000001L267.5389999999999 282.9788500000001L259.8874999999998 279.72294999999974L231.53050000000007 270.37125000000003L225.77249999999992 269.20815000000005L221.08850000000018 265.6514499999997L220.6850000000003 269.3142499999999L229.19100000000014 275.1908500000002L231.25249999999994 281.11469999999997L229.38600000000008 284.5073000000002L229.1825 292.5628499999999L225.30500000000018 297.1151500000002L227.63450000000034 302.8689000000003L230.98400000000026 300.70550000000026L232.9480000000001 301.48685L245.25950000000023 309.3978500000003L248.59700000000032 314.66745000000003L248.88199999999983 316.15115000000003L248.41850000000022 324.28425000000004L245.29899999999998 329.4656500000002L235.7929999999999 332.92215L223.10400000000016 323.58675000000005L217.7275000000003 317.44925000000023L213.6635000000001 316.33730000000014L206.72900000000027 324.0267L212.5785000000002 326.78949999999986L213.03800000000024 335.41800000000023L209.42000000000007 337.1707500000002L208.66449999999986 341.1820499999999L210.21299999999997 347.5468999999998L230.1415000000003 351.84055L231.77599999999984 351.32150000000024L234.56050000000005 358.9289000000002L232.16049999999996 362.35104999999976L232.51149999999996 368.4658999999999L234.34950000000015 369.3921L223.9005000000003 376.45854999999983L230.37950000000023 381.2921L231.3749999999999 396.7234000000002L230.14299999999992 407.65289999999993L228.78199999999993 409.2405500000001L224.47600000000023 409.0492999999998L224.88800000000026 410.7081499999998L221.8965000000003 415.05055000000027L223.60099999999989 418.82060000000024L222.6785000000001 422.9651000000001L218.2835 430.15634999999975L213.2650000000001 433.95465L213.13850000000002 436.0719499999999L220.82699999999988 445.68735000000004L217.39700000000028 447.61595L214.15850000000034 445.39390000000026L208.23500000000024 445.1834500000001L206.83150000000012 448.73035000000016L202.41150000000005 441.64305000000013L198.17350000000033 441.5032000000002L189.51450000000023 435.453L185.25599999999997 435.1413500000001L178.50099999999998 444.67645000000005L172.20550000000003 439.6048000000002L173.38000000000022 434.00649999999985L171.48450000000025 433.2513499999999L172.65250000000037 429.3299000000002L168.95950000000028 422.3858999999999L168.85800000000017 418.3357000000001L156.9335000000001 416.60034999999993L152.43400000000008 413.34690000000023z">
      <title id="t234">Sixième circonscription du Maine-et-Loire</title>
      <desc id="d234">Cantons de : Angers Ouest, Beaupréau, Champtoceaux, Montrevault, Saint-Florent-le-Vieil, Saint-Georges-sur-Loire</desc>
    </path><path class="circo" id="id-049-07" d="M132.95900000000017 151.9536499999998L132.62200000000007 155.76889999999992L126.89200000000028 154.50289999999995L118.5880000000003 153.05855000000008L108.07999999999993 154.2175500000002L77.04200000000014 149.75199999999973L74.74199999999996 165.36715000000015L84.93949999999984 168.7319500000001L85.33450000000016 170.86754999999982L78.98050000000012 176.54890000000023L79.71550000000036 180.83334999999977L84.98950000000036 189.72654999999975L90.79049999999995 192.6421499999998L105.3430000000003 195.02655000000004L117.89449999999988 193.51729999999975L119.67199999999991 194.66169999999977L131.64600000000007 192.13255000000004L139.58650000000034 195.52419999999984L145.64549999999997 201.9787500000001L165.2125000000001 200.75409999999977L167.96950000000038 207.40070000000003L164.38400000000001 211.84905000000015L164.1980000000001 215.6837999999999L170.08700000000033 225.00189999999975L172.49400000000037 244.15920000000028L174.68950000000007 246.75535000000025L177.83900000000017 242.33429999999998L183.36349999999982 241.72995000000014L183.11450000000036 219.39234999999996L187.3275000000001 219.94745000000023L189.68650000000025 225.8579500000002L191.36400000000037 222.0866000000001L195.10550000000023 220.64900000000023L208.47950000000026 226.4078999999998L222.74699999999996 228.22490000000016L225.18599999999992 231.38030000000015L225.33950000000004 235.37115000000028L227.29300000000023 234.55679999999973L237.08650000000034 238.52210000000014L247.47749999999996 238.38450000000023L248.87699999999995 234.81254999999976L252.81600000000026 233.59350000000006L258.30899999999986 232.0458000000002L258.775 229.96195L255.60749999999985 224.4889999999998L252.11600000000033 222.07780000000014L252.33850000000018 215.70515L255.10100000000023 212.73435000000006L258.99350000000027 212.85505L263.15949999999987 205.96994999999993L264.66800000000035 207.4056999999999L270.5680000000001 207.20005000000015L280.74450000000013 214.25155000000018L289.8725000000002 212.06219999999973L295.3784999999999 213.97550000000024L294.07449999999983 206.66425000000004L299.9150000000003 204.0694000000002L295.65049999999985 196.63765000000012L299.4875000000002 197.12834999999984L302.89350000000013 195.12279999999976L308.76750000000015 196.51250000000005L316.4485000000002 202.61525000000006L322.1379999999999 205.96429999999998L328.25800000000015 205.12409999999988L329.6949999999998 206.84624999999983L331.6180000000003 207.26285000000018L334.1120000000001 209.47744999999998L334.7385000000003 210.51184999999975L334.5044999999999 211.90449999999998L335.00800000000027 212.78324999999995L335.7665000000003 213.77139999999997L338.92600000000016 210.92454999999973L341.64750000000026 205.19589999999994L345.0625000000002 199.9049500000001L349.53149999999994 194.79885000000024L352.9419999999999 186.85090000000002L351.6579999999999 180.49474999999973L349.90999999999985 179.20635000000004L342.8845000000001 174.21415000000025L342.3325 167.7037999999999L344.3844999999999 164.0202499999998L340.7679999999999 158.92875000000004L334.08000000000015 154.1406999999998L329.9185 159.08560000000023L327.8539999999998 158.4645999999998L323.1760000000003 165.71410000000014L317.61900000000026 160.07310000000018L315.03250000000037 154.5954999999998L309.5690000000002 152.4236000000002L304.1120000000001 149.31539999999984L308.8655 128.43189999999993L308.5685000000001 128.12745000000007L303.24450000000013 121.94844999999987L297.5880000000001 119.64895000000013L292.02049999999986 122.36204999999984L280.36 121.18049999999982L281.71899999999994 110.96769999999992L281.36750000000006 105.36900000000003L283.26300000000003 104.81955000000028L284.0350000000001 99.0134999999998L285.73450000000037 90.82539999999995L289.05100000000004 87.28664999999978L286.86350000000004 87.19004999999981L285.99850000000004 85.17155000000002L289.2984999999999 79.54574999999977L289.07399999999996 73.12209999999993L291.28600000000006 69.3313999999998L294.00350000000003 64.78925000000004L291.46000000000015 54.224100000000135L297.68550000000005 48.44640000000027L290.86250000000007 43.78699999999981L282.34399999999994 44.45879999999988L274.11 41.87954999999988L270.19900000000007 43.70420000000024L264.6165000000002 43.068400000000224L260.9604999999999 44.63194999999985L256.92049999999995 43.246599999999944L252.7030000000002 36.089600000000246L250.67700000000002 35.4061999999999L242.60350000000017 37.82100000000014L240.09349999999984 32.12010000000021L230.55200000000013 28.234199999999987L228.71399999999994 24.522999999999797L220.49800000000005 25.537949999999796L218.6529999999999 26.385950000000093L218.8425000000001 36.50044999999977L210.09900000000016 32.8212000000002L195.94499999999982 28.7722500000001L196.00000000000023 26.650250000000142L194.8124999999999 22.377950000000055L185.36450000000002 17.005800000000022L179.46950000000015 10.430749999999875L179.55649999999991 14.473750000000223L177.52999999999986 14.638199999999983L171.55599999999993 9.150900000000206L167.64299999999992 8.646650000000022L162.4000000000001 16.983000000000175L168.15949999999987 19.531349999999748L170.82850000000008 25.307149999999865L159.6969999999999 30.35865000000001L156.21350000000007 29.765600000000063L150.61300000000017 28.870299999999816L147.84600000000012 26.509849999999915L143.97800000000018 25.749799999999823L141.65900000000022 22.26600000000019L136.22000000000014 24.579299999999762L132.06549999999993 23.77240000000029L118.64950000000022 22.646700000000237L118.41400000000021 22.48800000000017L114.16200000000003 21.363549999999805L111.07849999999985 18.21199999999976L91.15850000000023 15.800199999999904L92.12850000000003 21.096000000000004L90.82400000000007 22.33304999999973L80.40450000000021 19.685650000000123L74.96050000000025 16.035499999999843L68.49699999999984 15.044950000000199L65.81250000000011 9.326800000000048L61.582500000000095 8.36135000000013L59.14350000000013 4.728250000000003L49.28100000000029 0L47.66650000000027 1.1707499999999982L48.455999999999904 4.8750499999999874L49.69249999999988 8.737800000000107L46.03800000000035 21.049849999999992L45.42849999999987 29.706800000000158L50.015000000000214 34.29169999999999L47.80550000000005 42.45535000000018L41.857499999999845 42.639899999999784L42.39250000000027 48.88809999999978L51.02649999999983 54.78385000000003L58.9855 57.64765000000011L67.38049999999987 55.81489999999974L67.47250000000008 61.93685000000016L73.95199999999988 71.55925000000025L76.19349999999997 72.96550000000025L74.92599999999982 77.10185000000024L75.95849999999984 81.30325000000028L73.45700000000022 89.3504999999999L77.02049999999986 94.54740000000015L81.28600000000006 94.47485000000029L84.04100000000028 103.95150000000001L83.64649999999983 109.9308000000002L92.02600000000018 118.65769999999998L91.93449999999984 120.69185000000004L97.98200000000008 120.51024999999981L106.70999999999992 119.69055000000026L118.61150000000009 128.77734999999973L139.8075 133.2420000000002L146.62000000000035 138.2618500000001L147.07100000000025 140.3401500000001L141.96349999999995 147.0291500000002L136.5195 150.2893499999999L132.95900000000017 151.9536499999998z">
      <title id="t235">Septième circonscription du Maine-et-Loire</title>
      <desc id="d235">Cantons de : Angers Nord, Angers Nord-Ouest, Candé, Le Lion-d'Angers, Le Louroux-Béconnais, Pouancé, Segré.</desc>
    </path></svg>