<svg xmlns="http://www.w3.org/2000/svg" version="1.1" xmlns:xlink="http://www.w3.org/1999/xlink" xmlns:svgjs="http://svgjs.dev/svgjs" width="514.5304999999998" height="823.75765" fill="#eeeeee" stroke="#cccccc" xmlns:sodipodi="http://sodipodi.sourceforge.net/DTD/sodipodi-0.dtd"><path class="circo" id="id-050-01" d="M297.82099999999986 464.34020000000004L298.1725000000003 454.19520000000006L302.44249999999994 450.0132500000001L302.9724999999999 445.88655000000017L300.9835000000001 447.0212000000001L295.3105000000002 443.1761500000002L289.75749999999977 435.95495L286.52299999999997 428.25725000000006L291.6425000000001 416.88410000000005L283.48750000000024 418.8757000000001L291.1589999999998 406.07495L284.4985 400.5960000000002L284.81900000000024 398.44480000000004L286.4059999999998 390.91475L286.62000000000006 388.71550000000013L279.63400000000007 380.6556500000002L271.55350000000027 382.13240000000013L276.01399999999984 371.79055000000005L279.97600000000006 369.965L280.11150000000015 366.6450500000002L283.7870000000001 360.4748000000001L282.90850000000006 347.0518000000001L285.2374999999998 343.25334999999995L285.6250000000003 339.50715L292.44350000000026 332.07330000000013L287.1195000000003 330.52205000000015L284.56249999999983 333.46705000000014L272.9684999999998 342.82730000000015L266.74600000000027 344.26350000000014L251.97399999999988 347.27360000000004L249.8845000000003 341.77940000000007L247.87600000000026 342.10724999999996L245.0109999999998 339.29640000000006L252.68249999999995 328.3147500000001L251.3284999999999 317.6125000000002L247.20049999999986 317.15554999999995L248.35999999999984 311.6809500000002L251.67600000000022 303.9580000000001L255.33949999999976 302.1077500000001L257.12200000000024 295.916L251.44649999999984 292.8867500000001L247.85650000000004 284.63865L250.35650000000004 275.86240000000004L252.75749999999988 274.1924L261.01399999999984 271.0894000000002L267.1525 264.63605L273.7809999999999 264.90080000000006L277.1939999999998 262.1079500000002L273.5145000000003 255.59214999999995L272.33449999999976 254.1304500000001L266.9315000000003 254.47355000000016L264.9460000000002 253.71955000000014L263.8629999999998 247.83029999999997L261.75600000000003 248.0632L257.8619999999998 247.75525000000016L258.7514999999999 243.6827500000001L257.34250000000003 242.13375000000013L240.75099999999992 256.1446000000001L242.7169999999998 252.30604999999997L238.56950000000012 244.98440000000016L241.32750000000016 241.6939500000001L235.13150000000024 239.50140000000005L228.9020000000002 238.52190000000007L221.1114999999998 231.62665000000004L221.81999999999988 225.53945L225.64600000000013 223.73755000000017L224.13699999999977 217.6031500000002L221.85599999999994 215.91505000000012L223.36750000000023 212.7555000000001L217.66550000000024 210.07765000000006L220.58999999999997 204.19084999999995L221.87550000000016 195.50170000000008L226.5119999999999 188.18735000000004L224.65000000000003 186.04415000000017L220.56400000000025 184.54985000000022L215.19649999999984 188.11810000000008L210.90499999999992 187.56055000000003L206.55699999999996 185.1649500000002L203.7930000000003 179.13624999999996L206.70500000000033 173.52625000000018L202.4724999999998 170.50570000000022L209.73550000000017 155.40795000000003L216.06900000000024 155.2385000000001L217.34850000000023 155.64875L218.37050000000005 151.3564500000001L223.2200000000003 144.69764999999995L226.96600000000018 146.34890000000013L230.4075000000003 144.74215000000015L220.58750000000003 137.12755000000016L219.52349999999996 130.93460000000022L224.5354999999998 123.85635000000008L223.67199999999997 117.34319999999997L227.05349999999981 114.62395000000015L235.6314999999998 115.44675000000012L240.29349999999994 124.6783000000002L248.8084999999998 123.56885000000005L251.20700000000028 127.20805000000013L256.23500000000007 125.54535000000016L273.74499999999983 125.33710000000013L279.24650000000014 136.3930000000002L284.0315000000001 143.0614L286.08300000000014 146.02429999999998L294.392 160.1740000000001L304.29749999999984 172.80235000000005L307.535 177.38405L312.107 182.7940000000001L318.72300000000024 190.60040000000015L321.8890000000002 194.4548500000002L329.718 205.78285000000022L333.48150000000004 219.02794999999998L332.2225 223.39610000000022L326.199 229.84470000000016L326.9075000000001 236.59870000000012L332.7135000000001 235.50945000000013L344.06649999999985 241.57129999999995L344.54050000000024 243.68470000000002L351.5220000000002 242.68969999999996L354.2055000000002 261.52630000000016L343.0940000000001 272.66700000000014L344.2105000000001 283.49175L345.1034999999999 287.36890000000017L348.32099999999997 289.5230000000001L350.8770000000001 292.77860000000004L349.7225 294.64505L345.6815000000003 295.2971500000001L345.685 297.4962500000001L354.34350000000023 304.00165000000015L357.80249999999995 309.61235000000016L359.6554999999998 310.40085000000005L360.31199999999984 308.52035L361.8685000000002 309.7875000000002L363.0005000000003 315.4082500000001L365.0989999999999 314.40240000000017L370.6815000000003 322.83225000000016L377.5475000000003 327.6386000000002L379.50050000000005 326.8759L382.3765 330.00275000000016L386.7044999999999 330.11404999999996L392.1279999999999 341.53805000000006L392.3479999999998 341.8483500000002L398.96199999999993 341.93810000000013L407.1430000000001 345.5507L407.7540000000002 347.7152000000001L414.17 348.2985500000001L419.6720000000002 344.7422L426.8629999999999 333.9407L431.0315 332.5021000000001L431.6720000000001 326.7060000000001L434.11700000000025 323.47335000000015L436.06599999999986 324.02074999999996L434.51400000000007 325.7031500000002L435.97099999999983 329.9943000000002L444.1945000000001 340.8999L450.2475000000001 342.8839000000002L440.4139999999998 348.63415000000003L439.6045000000001 354.9380000000002L432.9895000000002 366.62620000000004L428.82300000000015 368.25045000000017L422.5795000000002 365.66745L419.8830000000001 369.14350000000013L431.54750000000007 371.4312000000001L428.34599999999995 374.38154999999995L428.878 376.5018500000002L443.2680000000002 385.63395000000014L442.4474999999998 387.68010000000004L446.7814999999999 388.07895L450.51450000000017 390.6017L449.67450000000014 392.7242000000001L442.99600000000027 398.79605L438.7575000000001 400.1869000000002L434.3244999999999 408.11075000000017L447.7619999999999 397.81165000000016L454.0209999999999 397.91165000000007L454.60150000000027 405.3641000000002L454.2429999999999 407.1935000000002L453.34149999999994 416.1423000000002L456.95300000000003 421.73609999999996L457.4660000000003 426.1559L457.74250000000023 429.1849500000001L457.27900000000005 431.97625000000016L455.0399999999999 438.31635000000006L448.5175000000001 444.31870000000004L451.1945 447.86339999999996L457.5035 449.29235000000006L460.6145000000001 452.4598500000002L460.7770000000002 456.7471500000002L451.01950000000016 459.3455500000002L446.94649999999996 466.67040000000014L442.6910000000001 466.47925000000015L440.8385000000001 474.7780500000002L438.45350000000025 480.63500000000005L426.05249999999984 495.24100000000004L421.5889999999999 495.93694999999997L406.4115000000001 505.69019999999995L403.40900000000005 506.05845000000016L399.8240000000001 503.7641500000001L393.5114999999999 504.07415000000015L390.86100000000016 498.2305500000001L378.3329999999998 500.6573L378.00550000000015 508.20960000000014L372.1625000000003 509.3796500000002L375.0860000000003 511.6638500000002L374.5085000000003 517.9449500000001L370.2195000000003 522.6291500000002L370.2709999999999 524.7585000000001L374.04149999999987 526.03655L380.2275 523.3471500000002L393.3439999999999 521.5844500000001L396.5965000000003 524.5580000000001L393.0584999999999 535.2666999999999L381.455 542.44055L379.94350000000026 546.8141500000002L377.2164999999998 553.2810000000001L372.7535000000003 557.2124500000001L368.65950000000026 558.0356500000003L363.5634999999999 551.6020500000002L360.27500000000003 554.3104500000002L359.01399999999995 560.32355L351.2089999999998 566.7405500000001L350.8700000000002 572.04025L346.5259999999998 571.5817000000002L341.6715000000002 578.8856499999999L335.6019999999998 579.6947500000001L335.6755000000001 580.6503499999999L327.56549999999976 587.5978500000002L322.40849999999995 597.6029500000002L328.66400000000027 603.0299L323.73099999999994 610.2242000000001L322.8799999999998 614.5099500000001L321.28450000000015 615.77415L313.6580000000001 613.4050000000002L307.705 613.1083000000001L302.732 616.5242500000002L294.3145000000001 617.4607500000002L290.3790000000001 622.1460000000002L286.2949999999998 621.27025L285.95049999999986 614.6725000000001L279.50349999999986 616.3881500000002L267.834 609.5320000000002L274.3825000000001 603.5945000000002L274.2994999999999 599.28665L269.1839999999999 603.2628500000001L264.90500000000026 603.8526000000002L264.20649999999995 601.78135L266.9739999999999 596.00245L262.95150000000007 591.1256000000001L260.8144999999999 591.2721000000001L257.36700000000013 585.9155000000001L255.2865 585.3964500000001L252.37650000000002 581.73125L252.9015000000001 578.8288500000001L259.07850000000025 579.8019000000002L262.9985000000002 578.3128999999999L265.11949999999985 574.8864500000002L269.33099999999996 575.0098L279.90350000000007 568.2656500000002L283.0465000000001 556.4577500000001L281.09250000000003 550.7030500000002L284.607 552.8047000000001L297.4265 547.0694500000002L296.2730000000002 538.8939000000003L293.0019999999999 533.9819L292.5890000000001 530.2009L288.1435000000002 527.0177000000001L289.25399999999996 525.4253500000002L295.10200000000026 522.7145000000002L303.6050000000003 522.0521500000001L312.33250000000027 512.5063500000001L308.9624999999998 508.36299999999994L309.1670000000002 504.47090000000003L310.0059999999999 497.9677000000001L299.9755000000002 489.43460000000016L311.62949999999995 483.8053000000002L310.5370000000002 463.73819999999995L297.82099999999986 464.34020000000004z">
      <title id="t236">Première circonscription de la Manche</title>
      <desc id="d236">Cantons de : Canisy, Carentan, Marigny, Montebourg, Percy, Saint-Clair-sur-l'Elle, Saint-Jean-de-Daye, Saint-Lô Est, Saint-Lô Ouest, Sainte-Mère-Eglise, Tessy-sur-Vire, Torigni-sur-Vire, Villedieu-les-Poêles</desc>
    </path><path class="circo" id="id-050-02" d="M156.7179999999999 563.13265L153.9054999999999 571.25765L150.7804999999999 574.07015L149.3742499999999 575.94515L141.0929999999999 580.7889L142.9679999999999 582.19515L146.2492499999999 580.1639L151.2492499999999 582.0389L157.8117499999999 588.75765L158.9054999999999 592.82015L160.3117499999999 610.7889L159.9992499999999 622.19515L158.1242499999999 632.9764L159.2179999999999 637.3514L165.9367499999999 645.32015L175.7804999999999 647.3514L181.8742499999999 656.88265L186.8742499999999 673.75765L191.5617499999999 678.13265L195.6242499999999 676.4139L207.9679999999999 684.5389L211.4054999999999 687.3514L212.6554999999999 696.88265L216.0929999999999 695.94515L218.1242499999999 689.38265L221.8742499999999 688.75765L234.6867499999999 681.88265L242.1867499999999 675.63265L240.9367499999999 673.9139L243.2804999999999 672.9764L244.0617499999999 671.57015L243.9054999999999 673.2889L242.6554999999999 673.9139L243.4367499999999 675.32015L242.3429999999999 677.3514L240.6242499999999 678.6014L238.5929999999999 682.3514L237.9679999999999 685.4764L233.1242499999999 690.00765L232.0304999999999 695.00765L235.4679999999999 699.38265L237.8117499999999 698.75765L242.1867499999999 699.2264L243.9054999999999 702.19515L247.4992499999999 701.7264L250.3117499999999 709.07015L252.9679999999999 711.1014L254.2179999999999 711.4139L255.4679999999999 710.94515L254.6867499999999 711.7264L252.4992499999999 711.88265L248.5929999999999 710.00765L246.2492499999999 709.07015L245.9367499999999 705.7889L242.6554999999999 704.69515L239.6867499999999 706.25765L237.0304999999999 703.75765L234.2179999999999 703.44515L233.2804999999999 705.4764L230.7804999999999 704.2264L226.7179999999999 705.00765L226.0929999999999 706.7264L223.4367499999999 706.7264L221.5617499999999 703.44515L220.1554999999999 705.1639L221.4054999999999 707.82015L211.7179999999999 716.88265L208.7492499999999 715.7889L199.9992499999999 719.69515L198.5929999999999 720.1639L197.0304999999999 718.75765L194.0617499999999 720.00765L194.2179999999999 721.88265L192.0304999999999 718.9139L185.3117499999999 719.8514L184.8429999999999 723.44515L184.6867499999999 720.63265L183.2804999999999 720.1639L181.2492499999999 714.2264L171.7179999999999 711.88265L168.9054999999999 712.50765L159.6867499999999 715.00765L161.7179999999999 722.50765L166.5617499999999 726.1014L170.4679999999999 727.9764L173.2804999999999 733.6014L172.0304999999999 744.2264L178.1242499999999 745.4764L180.9367499999999 753.13265L178.2804999999999 756.4139L175.7804999999999 764.38265L181.4054999999999 770.7889L182.3429999999999 777.0389L183.2804999999999 776.7264L191.7179999999999 790.7889L194.0617499999999 802.9764L195.9367499999999 802.0389L200.6242499999999 805.1639L204.2179999999999 803.9139L207.8117499999999 805.4764L209.3742499999999 804.07015L214.6867499999999 807.0389L217.1867499999999 810.32015L215.1554999999999 814.07015L220.6242499999999 820.32015L232.6554999999999 821.1014L239.5304999999999 823.75765L242.9679999999999 822.3514L255.1554999999999 813.44515L254.2179999999999 809.07015L257.1867499999999 803.13265L259.2179999999999 802.19515L261.8742499999999 805.1639L262.8117499999999 798.9139L265.6242499999999 796.25765L266.8742499999999 797.9764L274.8429999999999 796.25765L280.1554999999999 790.00765L283.7492499999999 790.32015L287.8117499999999 780.4764L286.4054999999999 774.5389L296.2492499999999 768.13265L296.5617499999999 768.13265L303.5929999999999 772.0389L313.9054999999999 771.1014L314.3742499999999 769.07015L318.7492499999999 775.94515L322.3429999999999 777.82015L331.5617499999999 776.88265L333.5929999999999 780.63265L340.4679999999999 784.8514L346.2492499999999 782.19515L352.4992499999999 782.3514L359.3742499999999 787.9764L372.4992499999999 790.7889L375.6242499999999 789.5389L376.5617499999999 786.25765L397.3429999999999 800.63265L401.0929999999999 803.13265L413.4367499999999 799.5389L417.6554999999999 794.38265L418.4367499999999 787.9764L422.0304999999999 785.32015L426.0929999999999 786.7264L434.6867499999999 787.6639L437.1867499999999 795.63265L446.5617499999999 799.38265L461.7179999999999 795.1639L463.5929999999999 790.63265L467.1867499999999 782.82015L475.7804999999999 775.7889L483.5929999999999 765.4764L484.9992499999999 764.2264L491.4054999999999 762.82015L497.6554999999999 756.4139L498.1242499999999 747.82015L501.2492499999999 737.50765L505.1554999999999 735.32015L507.9679999999999 729.69515L507.3429999999999 719.38265L508.7492499999999 717.82015L512.8117499999998 717.9764L511.4054999999999 714.2264L503.2804999999999 711.57015L498.9054999999999 697.6639L498.7492499999999 695.4764L503.5929999999999 691.25765L505.7804999999999 685.1639L512.3429999999998 680.00765L514.5304999999998 680.7889L514.2179999999998 676.57015L510.7804999999999 674.07015L500.4679999999999 670.94515L496.4054999999999 666.7264L488.7492499999999 661.7264L484.2179999999999 651.88265L479.3742499999999 647.3514L474.9992499999999 646.7264L473.9054999999999 648.44515L469.3742499999999 649.2264L466.0929999999999 646.7264L465.3117499999999 638.2889L469.9992499999999 633.9139L478.7492499999999 622.19515L477.9679999999999 621.1014L473.2804999999999 625.63265L464.5304999999999 626.4139L457.6554999999999 631.25765L451.4054999999999 630.7889L448.1242499999999 625.4764L435.3117499999999 621.57015L427.6554999999999 617.0389L424.0617499999999 611.57015L416.4054999999999 612.19515L412.9679999999999 619.5389L404.8429999999999 617.9764L395.1554999999999 620.63265L386.4054999999999 614.2264L382.6554999999999 614.69515L377.3429999999999 620.32015L366.5617499999999 616.57015L361.5617499999999 611.7264L360.6242499999999 609.69515L363.2804999999999 603.9139L362.0304999999999 602.19515L358.9054999999999 593.9139L354.5304999999999 593.44515L353.5929999999999 591.88265L348.5929999999999 592.0389L347.6554999999999 592.19515L346.5617499999999 590.32015L335.1554999999999 586.7264L335.6242499999999 580.63265L327.4992499999999 587.6639L322.3429999999999 597.6639L328.5929999999999 602.9764L323.7492499999999 610.1639L322.8117499999999 614.5389L321.2492499999999 615.7889L313.5929999999999 613.44515L307.6554999999999 613.13265L302.6554999999999 616.57015L294.3742499999999 617.50765L290.3117499999999 622.19515L286.2492499999999 621.25765L285.9367499999999 614.69515L279.5304999999999 616.4139L267.8117499999999 609.5389L274.3742499999999 603.6014L274.3742499999999 599.2264L269.2179999999999 603.2889L264.8429999999999 603.9139L264.2179999999999 601.7264L267.0304999999999 595.94515L262.9679999999999 591.1014L260.7804999999999 591.25765L257.3429999999999 585.94515L255.3117499999999 585.32015L252.3429999999999 581.7264L252.9679999999999 578.75765L248.5929999999999 571.25765L242.6554999999999 572.3514L235.1554999999999 568.9139L231.7179999999999 575.00765L224.8429999999999 577.82015L225.7804999999999 581.88265L224.3742499999999 583.6014L220.6242499999999 584.69515L219.3742499999999 582.9764L211.4054999999999 584.38265L209.6867499999999 580.4764L214.6867499999999 571.1014L213.9054999999999 566.88265L205.1554999999999 567.0389L197.3429999999999 571.1014L188.7492499999999 569.07015L187.4992499999999 569.69515L183.7492499999999 570.7889L183.5929999999999 575.1639L172.9679999999999 577.3514L172.4992499999999 570.32015L166.7179999999999 570.32015L165.1554999999999 567.6639L161.2492499999999 566.88265L156.7179999999999 563.13265zM185.3117499999999 708.13265L184.2179999999999 708.6014L184.5304999999999 709.38265L185.1554999999999 709.38265L185.9367499999999 709.07015L185.3117499999999 708.13265z">
      <title id="t237">Deuxième circonscription de la Manche</title>
      <desc id="d237">Cantons de : Avranches, Barenton, Brécey, Ducey, Granville, La Haye-Pesnel, Isigny-le-Buat, Juvigny-le-Tertre, Mortain, Pontorson, Saint-Hilaire-du-Harcouët, Saint-James, Saint-Pois, Sartilly, Sourdeval, Le Teilleul</desc>
    </path><path class="circo" id="id-050-03" d="M72.70700000000005 233.20944999999995L67.94000000000011 230.37210000000016L68.37350000000015 229.39360000000022L71.81350000000009 230.93604999999997L73.52149999999995 230.29770000000013L80.74849999999998 234.77914999999996L80.15000000000015 230.58360000000022L77.91500000000013 231.3303000000002L75.00799999999998 229.1025000000002L74.57150000000013 226.23080000000016L67.53350000000012 229.36814999999996L66.73599999999993 233.72510000000005L63.65250000000003 231.77414999999996L58.601500000000044 231.89425L57.890999999999906 228.49864999999994L52.616999999999905 214.39279999999997L52.564000000000135 203.6205000000001L52.39599999999996 188.44944999999996L46.875 169.08395000000013L42.795500000000004 164.80590000000007L42.954500000000166 151.95450000000022L40.405000000000086 142.00495000000018L36.64350000000013 140.3692000000001L32.19850000000008 139.58304999999996L27.332000000000107 134.92130000000003L25.562000000000182 123.87010000000004L27.95199999999994 120.19515000000013L37.7385000000001 114.65800000000002L39.17500000000018 111.41964999999999L44.86150000000009 101.39325000000014L44.57150000000013 94.06395000000003L53.814000000000135 93.71454999999997L67.0075 89.60865000000013L69.315 89.71615000000014L73.78000000000014 94.84535000000022L75.98500000000001 94.12755000000004L76.50049999999993 97.70195000000001L78.63100000000003 103.8685000000001L75.8775 107.18040000000002L76.59400000000005 111.45499999999998L75.13200000000012 113.05949999999996L78.66700000000009 112.77450000000016L84.36550000000011 106.19484999999997L86.60150000000016 106.00680000000011L85.98749999999995 108.02565000000016L87.66999999999996 109.30464999999998L91.77449999999993 108.98690000000016L95.29500000000013 111.29975000000002L97.13950000000011 110.27505000000019L100.13900000000007 113.2331000000002L101.25799999999998 116.50994999999995L107.6430000000002 118.17509999999999L121.28500000000003 116.77395000000018L122.70299999999992 118.27595000000002L123.47099999999983 120.43620000000004L125.75099999999992 120.31305000000003L133.4054999999998 115.97475000000003L131.64299999999997 109.27845000000019L150.676 104.11560000000009L157.3060000000001 98.42489999999998L157.85350000000022 94.06200000000013L162.3474999999999 95.45365000000004L170.17500000000013 98.67000000000019L173.26699999999988 95.65355000000011L187.93800000000005 87.22735L191.87500000000028 89.50375000000008L213.7300000000002 90.96509999999995L216.83999999999997 87.76759999999996L221.22750000000025 88.3590000000001L225.04850000000005 96.29265000000004L230.98649999999992 99.39295000000016L231.9595000000001 103.76890000000003L233.801 105.05200000000002L240.4004999999998 104.21189999999996L240.20499999999998 110.97544999999997L235.6314999999998 115.44675000000012L227.05349999999981 114.62395000000015L223.67199999999997 117.34319999999997L224.5354999999998 123.85635000000008L219.52349999999996 130.93460000000022L220.58750000000003 137.12755000000016L230.4075000000003 144.74215000000015L226.96600000000018 146.34890000000013L223.2200000000003 144.69764999999995L218.37050000000005 151.3564500000001L217.34850000000023 155.64875L216.06900000000024 155.2385000000001L209.73550000000017 155.40795000000003L202.4724999999998 170.50570000000022L206.70500000000033 173.52625000000018L203.7930000000003 179.13624999999996L206.55699999999996 185.1649500000002L210.90499999999992 187.56055000000003L215.19649999999984 188.11810000000008L220.56400000000025 184.54985000000022L224.65000000000003 186.04415000000017L226.5119999999999 188.18735000000004L221.87550000000016 195.50170000000008L220.58999999999997 204.19084999999995L217.66550000000024 210.07765000000006L223.36750000000023 212.7555000000001L221.85599999999994 215.91505000000012L224.13699999999977 217.6031500000002L225.64600000000013 223.73755000000017L221.81999999999988 225.53945L221.1114999999998 231.62665000000004L228.9020000000002 238.52190000000007L235.13150000000024 239.50140000000005L241.32750000000016 241.6939500000001L238.56950000000012 244.98440000000016L242.7169999999998 252.30604999999997L240.75099999999992 256.1446000000001L257.34250000000003 242.13375000000013L258.7514999999999 243.6827500000001L257.8619999999998 247.75525000000016L261.75600000000003 248.0632L263.8629999999998 247.83029999999997L264.9460000000002 253.71955000000014L266.9315000000003 254.47355000000016L272.33449999999976 254.1304500000001L273.5145000000003 255.59214999999995L277.1939999999998 262.1079500000002L273.7809999999999 264.90080000000006L267.1525 264.63605L261.01399999999984 271.0894000000002L252.75749999999988 274.1924L250.35650000000004 275.86240000000004L247.85650000000004 284.63865L251.44649999999984 292.8867500000001L257.12200000000024 295.916L255.33949999999976 302.1077500000001L251.67600000000022 303.9580000000001L248.35999999999984 311.6809500000002L247.20049999999986 317.15554999999995L251.3284999999999 317.6125000000002L252.68249999999995 328.3147500000001L245.0109999999998 339.29640000000006L247.87600000000026 342.10724999999996L249.8845000000003 341.77940000000007L251.97399999999988 347.27360000000004L266.74600000000027 344.26350000000014L272.9684999999998 342.82730000000015L284.56249999999983 333.46705000000014L287.1195000000003 330.52205000000015L292.44350000000026 332.07330000000013L285.6250000000003 339.50715L285.2374999999998 343.25334999999995L282.90850000000006 347.0518000000001L283.7870000000001 360.4748000000001L280.11150000000015 366.6450500000002L279.97600000000006 369.965L276.01399999999984 371.79055000000005L271.55350000000027 382.13240000000013L279.63400000000007 380.6556500000002L286.62000000000006 388.71550000000013L286.4059999999998 390.91475L284.81900000000024 398.44480000000004L284.4985 400.5960000000002L291.1589999999998 406.07495L283.48750000000024 418.8757000000001L291.6425000000001 416.88410000000005L286.52299999999997 428.25725000000006L289.75749999999977 435.95495L295.3105000000002 443.1761500000002L300.9835000000001 447.0212000000001L302.9724999999999 445.88655000000017L302.44249999999994 450.0132500000001L298.1725000000003 454.19520000000006L297.82099999999986 464.34020000000004L310.5370000000002 463.73819999999995L311.62949999999995 483.8053000000002L299.9755000000002 489.43460000000016L310.0059999999999 497.9677000000001L309.1670000000002 504.47090000000003L308.9624999999998 508.36299999999994L312.33250000000027 512.5063500000001L303.6050000000003 522.0521500000001L295.10200000000026 522.7145000000002L289.25399999999996 525.4253500000002L288.1435000000002 527.0177000000001L292.5890000000001 530.2009L293.0019999999999 533.9819L296.2730000000002 538.8939000000003L297.4265 547.0694500000002L284.607 552.8047000000001L281.09250000000003 550.7030500000002L283.0465000000001 556.4577500000001L279.90350000000007 568.2656500000002L269.33099999999996 575.0098L265.11949999999985 574.8864500000002L262.9985000000002 578.3128999999999L259.07850000000025 579.8019000000002L252.9015000000001 578.8288500000001L248.53399999999993 571.2471500000001L242.67500000000013 572.3870999999999L235.2290000000002 568.8579500000001L231.67099999999976 575.0840500000002L224.77400000000017 577.8725L225.719 581.9262000000001L224.4120000000001 583.5461499999999L220.63999999999993 584.6249500000001L219.34800000000024 582.9935L211.3395 584.4229000000001L209.71300000000014 580.45535L214.61399999999998 571.1735000000001L213.84899999999988 566.9582500000001L205.20700000000005 567.1042500000001L197.31149999999985 571.0966500000001L188.7269999999998 569.0788500000002L187.4814999999998 569.7267000000002L183.82599999999996 570.8376499999999L183.55400000000003 575.2171000000001L172.98050000000018 577.35525L172.4924999999999 570.2628000000002L166.72699999999992 570.3868L165.10599999999982 567.6235500000001L161.2590000000003 566.9097999999999L156.7224999999999 563.11195L159.2055000000002 548.3453500000002L159.62500000000006 544.65845L162.83699999999982 522.12785L167.22499999999997 515.9005500000001L164.2210000000003 527.7925000000002L166.72949999999986 542.6041L168.38749999999976 542.6597000000002L168.01749999999998 532.8968500000002L169.40950000000015 522.3536000000001L171.38900000000007 518.2827L170.4370000000003 514.05405L166.44649999999984 511.5629000000001L165.00399999999985 513.7564L163.51450000000028 512.1122500000001L163.57800000000026 505.45725000000004L163.7375 494.4052000000002L163.5069999999999 485.96765000000005L164.34249999999992 479.5786000000001L164.02299999999997 471.42224999999996L166.31100000000032 474.4697000000002L167.70650000000018 482.9420000000002L169.55150000000032 480.94525000000004L167.9434999999998 475.0346000000002L165.64550000000025 466.5544L166.02949999999993 457.7595500000001L175.0660000000002 451.8194L183.94300000000015 458.6294000000001L187.34400000000022 461.31834999999995L187.86849999999987 460.81545000000006L186.2345000000002 456.7530000000002L171.7670000000001 447.0815000000002L166.42000000000024 450.0884500000001L164.39400000000006 449.0732L160.2245000000002 454.0040000000002L156.19 463.85875L157.87600000000026 470.8748L156.13700000000023 473.39754999999997L150.00799999999998 460.1272L144.55799999999982 429.99584999999996L147.06800000000015 439.39490000000006L148.16549999999978 434.82640000000004L149.31549999999987 430.66400000000016L147.1475000000001 428.4421500000002L148.43249999999983 425.7900000000001L143.76949999999994 421.06060000000014L143.151 425.9470000000002L143.0355 419.67195000000004L142.88750000000022 406.5216000000001L145.0494999999998 401.30240000000015L150.55050000000023 387.4872000000002L151.94499999999977 389.30075000000016L155.7295000000002 388.57715000000013L152.4170000000001 383.0549000000002L150.41750000000008 386.5063500000002L148.9990000000003 380.3581L145.01600000000025 349.31309999999996L144.9875 340.59875000000005L141.44199999999984 331.78375000000017L147.03099999999978 332.7513000000002L157.50199999999978 329.0234000000001L160.23749999999978 330.4582500000001L161.27100000000013 330.4511000000002L161.11400000000032 330.2546000000001L153.40299999999985 322.4228500000001L143.75599999999991 323.36730000000017L140.95400000000012 318.20944999999995L140.7155000000003 323.24100000000016L136.2224999999998 328.0648500000001L137.66699999999986 337.17360000000014L136.1839999999998 337.79425000000003L129.40900000000028 329.4568000000001L125.80900000000014 320.70775L121.57299999999992 305.74955000000017L118.62550000000027 299.30835L113.7250000000003 291.70950000000005L114.74450000000019 287.77095L116.42799999999994 292.4991L119.62650000000025 290.79025L122.27249999999998 292.60985000000005L123.66149999999976 291.6535000000002L120.0845000000001 288.13975L119.3334999999999 287.11675000000014L117.21250000000026 289.14379999999994L115.34050000000008 286.9721000000001L111.08300000000014 286.80920000000015L107.85350000000022 280.40594999999996L104.87449999999995 273.40495000000004L100.08600000000001 262.39554999999996L101.88150000000007 261.37760000000014L104.9120000000002 263.0991500000002L110.49650000000014 259.9116000000001L115.83449999999999 259.6703000000002L115.48649999999981 258.2407500000002L112.15049999999991 258.86750000000006L107.69199999999984 259.4270500000002L104.89200000000011 257.04530000000005L96.28399999999999 262.35900000000015L85.42200000000008 247.61825000000016L82.5460000000001 244.30785000000014L79.2595 239.84075000000018L72.70700000000005 233.20944999999995z">
      <title id="t238">Troisième circonscription de la Manche</title>
      <desc id="d238">Cantons de : Barneville-Carteret, Bréhal, Bricquebec, Cerisy-la-Salle, Coutances, Gavray, La Haye-du-Puits, Les Pieux, Lessay, Montmartin-sur-Mer, Périers, Saint-Malo-de-la-Lande, Saint-Sauveur-Lendelin, Saint-Sauveur-le-Vicomte, Valognes</desc>
    </path><path class="circo" id="id-050-04" d="M0 13.617100000000164L1.199500000000171 2.410150000000044L4.525000000000148 0L15.501000000000147 2.2425000000001205L20.786500000000103 6.587750000000199L23.961000000000183 12.40195L30.121000000000038 12.700300000000198L38.215000000000146 6.447750000000099L41.18700000000018 8.530750000000182L45.45950000000005 9.79405000000014L50.83600000000018 21.904399999999953L56.202499999999986 24.502800000000207L64.50400000000002 25.350250000000187L78.21699999999993 31.16365000000002L96.41500000000008 30.52125000000018L102.96850000000006 36.324550000000215L107.07399999999978 36.670600000000206L110.7880000000003 34.68140000000005L113.70500000000021 37.55189999999999L111.83399999999978 38.50279999999998L113.49099999999993 42.29939999999999L117.27400000000017 44.887600000000134L126.36899999999997 45.51330000000007L132.2380000000001 42.89755000000014L135.18249999999995 43.563350000000014L134.2670000000001 47.45260000000002L137.24950000000007 54.01875000000018L138.85099999999994 54.001049999999964L140.02699999999976 50.63510000000008L141.12550000000027 53.714200000000005L141.41449999999992 50.784100000000194L142.31149999999985 50.50120000000021L143.55350000000016 53.41820000000013L146.0850000000002 52.277400000000114L145.6174999999999 45.556600000000174L149.17549999999977 47.056750000000136L150.8355000000003 48.54890000000012L160.89950000000016 45.49295000000001L167.04350000000005 47.29965000000021L169.11599999999993 46.96680000000015L176.64450000000016 46.514449999999954L188.9104999999998 40.38540000000012L193.41199999999986 36.83610000000016L194.95199999999983 38.012899999999945L196.86999999999983 31.608300000000042L200.21649999999994 28.663050000000112L201.41400000000004 20.12190000000004L209.974 22.498350000000187L216.56250000000028 16.756950000000188L220.88499999999982 15.915850000000091L235.9510000000003 13.1314500000002L247.04199999999986 13.306900000000041L254.96949999999998 16.232550000000003L261.0220000000001 15.407849999999996L264.315 17.935150000000135L274.9230000000003 21.415599999999984L288.2250000000002 20.673150000000078L287.2920000000002 29.266700000000014L291.0389999999998 34.71355000000017L293.3590000000001 38.9434L300.0789999999998 47.34820000000013L298.9824999999999 51.1760000000001L304.54500000000024 66.07760000000013L305.4774999999998 72.5100500000002L305.0834999999998 79.34850000000012L296.8199999999999 74.73569999999995L293.77100000000013 74.72915L294.21750000000003 76.02720000000005L289.10600000000017 88.85665000000017L291.1404999999999 89.82040000000012L291.86949999999996 91.99894999999998L289.3609999999998 93.58670000000018L286.6010000000003 99.01610000000005L286.541 102.15740000000011L284.8429999999999 100.33870000000007L285.5969999999999 97.3126000000002L286.41699999999986 97.03795000000014L288.3054999999999 93.87384999999995L284.1560000000001 91.88095000000004L280.98750000000024 91.28045000000014L274.69900000000024 96.80985000000021L271.54500000000013 108.99670000000015L271.5560000000002 118.3775L273.74499999999983 125.33710000000013L256.23500000000007 125.54535000000016L251.20700000000028 127.20805000000013L248.8084999999998 123.56885000000005L240.29349999999994 124.6783000000002L235.6314999999998 115.44675000000012L240.20499999999998 110.97544999999997L240.4004999999998 104.21189999999996L233.801 105.05200000000002L231.9595000000001 103.76890000000003L230.98649999999992 99.39295000000016L225.04850000000005 96.29265000000004L221.22750000000025 88.3590000000001L216.83999999999997 87.76759999999996L213.7300000000002 90.96509999999995L191.87500000000028 89.50375000000008L187.93800000000005 87.22735L173.26699999999988 95.65355000000011L170.17500000000013 98.67000000000019L162.3474999999999 95.45365000000004L157.85350000000022 94.06200000000013L157.3060000000001 98.42489999999998L150.676 104.11560000000009L131.64299999999997 109.27845000000019L133.4054999999998 115.97475000000003L125.75099999999992 120.31305000000003L123.47099999999983 120.43620000000004L122.70299999999992 118.27595000000002L121.28500000000003 116.77395000000018L107.6430000000002 118.17509999999999L101.25799999999998 116.50994999999995L100.13900000000007 113.2331000000002L97.13950000000011 110.27505000000019L95.29500000000013 111.29975000000002L91.77449999999993 108.98690000000016L87.66999999999996 109.30464999999998L85.98749999999995 108.02565000000016L86.60150000000016 106.00680000000011L84.36550000000011 106.19484999999997L78.66700000000009 112.77450000000016L75.13200000000012 113.05949999999996L76.59400000000005 111.45499999999998L75.8775 107.18040000000002L78.63100000000003 103.8685000000001L76.50049999999993 97.70195000000001L75.98500000000001 94.12755000000004L73.78000000000014 94.84535000000022L69.315 89.71615000000014L67.0075 89.60865000000013L53.814000000000135 93.71454999999997L44.57150000000013 94.06395000000003L44.3995000000001 84.62355000000002L43.56999999999999 73.86330000000015L39.43450000000013 56.077650000000006L34.79399999999998 48.46360000000004L31.089000000000055 44.951949999999954L25.1785000000001 43.64014999999995L20.591500000000167 39.62175000000002L11.58900000000017 39.14305000000013L1.5380000000001814 33.96749999999997L0.508000000000095 31.921600000000012L4.600499999999954 23.792600000000164L0 13.617100000000164z">
      <title id="t239">Quatrième circonscription de la Manche</title>
      <desc id="d239">Cantons de : Beaumont-Hague, Cherbourg Nord-Ouest, Cherbourg Sud-Est, Cherbourg-Octeville Sud-Ouest, Equeurdreville-Hainneville, Quettehou, Saint-Pierre-Eglise, Tourlaville</desc>
    </path></svg>