<svg xmlns="http://www.w3.org/2000/svg" version="1.1" xmlns:xlink="http://www.w3.org/1999/xlink" xmlns:svgjs="http://svgjs.dev/svgjs" width="697.2858500000001" height="577.79155" fill="#eeeeee" stroke="#cccccc" xmlns:sodipodi="http://sodipodi.sourceforge.net/DTD/sodipodi-0.dtd"><path class="circo" id="id-051-01" d="M239.7829999999999 19.837750000000085L228.48250000000007 6.085199999999986L224.27450000000022 0L218.10450000000003 8.094600000000014L211.91599999999994 9.761100000000056L196.65900000000022 17.109000000000094L195.0505000000004 25.711000000000013L197.25900000000024 25.48320000000018L198.86150000000043 31.92440000000005L208.67999999999995 36.79070000000024L205.98900000000015 43.18790000000007L210.41950000000043 43.325550000000135L220.85450000000037 39.46365000000014L233.97950000000037 39.296600000000126L235.19650000000013 41.187850000000026L236.27499999999998 42.94849999999997L229.92250000000013 48.54815000000002L229.13450000000012 57.32619999999997L225.66300000000012 60.31560000000013L227.01549999999997 61.57975000000022L227.5139999999999 68.3898000000002L230.97000000000037 76.52190000000019L230.9880000000004 83.33465000000018L229.18499999999995 84.71840000000014L237.0580000000001 85.13535000000019L242.76900000000012 87.56520000000023L247.2335000000004 84.95555000000024L249.02700000000038 85.86235000000016L253.2929999999999 81.86875000000015L251.46150000000034 74.2183L254.7425000000004 71.61145000000005L265.0635 88.54675000000015L263.1075000000004 90.68155000000019L264.30200000000013 93.05930000000018L260.43150000000026 94.95035000000001L260.0055000000003 96.57285000000002L259.8965000000004 98.82740000000013L263.59849999999994 100.08200000000016L267.99350000000004 95.35404999999997L271.10360000000014 99.89670000000018L269.9405999999999 101.65735000000012L271.5106000000003 102.27990000000005L273.51785000000007 101.6986L275.0518500000004 104.36920000000015L277.3888500000004 106.52905000000004L281.66335000000004 107.68595000000005L286.06235000000027 107.53485000000012L288.99135 111.54494999999997L294.83885000000043 115.70095000000009L295.2078499999999 103.74930000000006L290.6768500000004 94.45445000000007L290.68885000000023 87.97820000000002L298.17935000000034 83.90015000000005L307.26485000000025 89.0295500000002L311.19785000000036 87.97300000000007L311.5063500000002 86.00375000000014L316.83085000000005 84.09495000000021L318.51785000000007 80.51749999999998L330.89985000000013 75.48060000000021L334.2363499999999 78.13725000000005L336.1893500000002 77.24715000000003L339.21835000000044 82.8519L342.71185 80.51555000000008L344.67235000000016 72.21429999999998L350.1338500000003 68.51365000000015L350.32385000000033 65.29944999999998L347.5273500000003 60.53790000000021L358.36434999999994 57.45400000000018L371.1483500000003 59.96679999999998L379.4688500000001 56.52095000000003L387.25535000000036 52.944300000000055L379.6148500000004 39.695250000000044L378.62585000000024 38.26520000000016L381.2018499999999 35.94380000000001L372.51885000000016 34.376550000000066L366.12885000000006 27.926700000000153L361.61135 17.580350000000067L359.47685000000035 17.863049999999987L358.57335000000035 16.493400000000236L350.52085000000034 15.358050000000105L347.0398499999999 12.967749999999967L341.7853500000001 15.628350000000069L336.5528499999999 5.893200000000149L337.5888500000002 4.364350000000172L327.35185 3.8177000000001726L317.07584999999995 2.3050500000002216L305.1178500000003 3.7830500000001166L301.4003500000001 3.783700000000181L292.48635000000036 4.041050000000155L289.76485000000025 4.009700000000009L285.71235 1.9288500000001818L276.61585 1.3606000000001472L273.3173500000004 6.876050000000191L271.99385000000007 15.410950000000128L271.3136000000003 31.221000000000174L261.63700000000006 32.26245000000006L259.7180000000003 26.318600000000174L250.55049999999994 18.808950000000095L239.7829999999999 19.837750000000085z">
      <title id="t240">Première circonscription de la Marne</title>
      <desc id="d240">Cantons de : Bourgogne, Reims II, Reims IV, Reims VI, Reims X</desc>
    </path><path class="circo" id="id-051-02" d="M127.87300000000016 168.74165000000005L125.51600000000008 165.83445000000012L121.8530000000004 164.98445000000004L109.50050000000033 168.68899999999996L96.61650000000009 167.02425000000005L95.19300000000044 168.05290000000014L94.64550000000031 169.50315000000018L104.3285000000003 175.8311500000002L108.43350000000044 182.99570000000017L103.78550000000018 190.3379000000001L112.19300000000032 188.79050000000007L115.73300000000017 191.4826500000001L120.0105000000002 190.2931000000001L130.94750000000033 197.00975L130.3555 198.79625000000004L133.74950000000013 203.27970000000022L139.49350000000038 201.96660000000008L142.4830000000003 204.67325000000017L144.21850000000006 205.08605000000017L158.8620000000003 212.59645000000006L163.17450000000008 211.85670000000016L165.63199999999995 211.6192000000001L169.88400000000013 212.26875000000007L172.68349999999998 215.6519L178.89299999999992 217.64110000000016L187.71000000000015 216.1352500000001L181.9345000000004 213.23300000000017L181.1590000000001 211.17665000000017L181.6115000000002 206.80530000000005L184.52650000000006 203.5263500000002L183.52300000000014 201.5784500000001L189.57899999999995 196.85070000000024L195.6695000000002 193.40780000000024L197.16350000000034 193.5934500000002L198.17450000000008 190.01385L200.17300000000034 189.87815000000012L208.9050000000003 189.94635000000017L209.07100000000014 183.43800000000016L207.0825000000002 173.80165000000005L209.41200000000038 168.13215000000014L222.12400000000002 154.01454999999999L227.42099999999994 156.55490000000015L228.5624999999999 162.54615L230.78400000000045 164.8694500000002L233.11599999999999 158.87275000000017L229.95949999999993 150.86285000000004L244.11800000000028 146.53925000000015L249.63700000000017 135.86090000000013L248.23300000000017 134.34015000000016L258.83050000000026 130.54969999999997L260.97000000000037 126.92665000000005L259.5675 125.30005000000017L261.327 121.37970000000024L260.2955000000003 119.49450000000013L262.3900000000003 117.31620000000021L261.9350000000003 108.1941500000002L263.8960000000003 108.12004999999999L271.15110000000016 115.34235000000024L274.5038500000004 112.28225000000009L275.1138500000002 108.73860000000008L277.3888500000004 106.52905000000004L275.0518500000004 104.36920000000015L273.51785000000007 101.6986L269.9405999999999 101.65735000000012L271.10360000000014 99.89670000000018L267.99350000000004 95.35404999999997L263.59849999999994 100.08200000000016L259.8965000000004 98.82740000000013L260.43150000000026 94.95035000000001L264.30200000000013 93.05930000000018L263.1075000000004 90.68155000000019L265.0635 88.54675000000015L254.7425000000004 71.61145000000005L251.46150000000034 74.2183L253.2929999999999 81.86875000000015L249.02700000000038 85.86235000000016L247.2335000000004 84.95555000000024L242.76900000000012 87.56520000000023L237.0580000000001 85.13535000000019L229.18499999999995 84.71840000000014L230.9880000000004 83.33465000000018L230.97000000000037 76.52190000000019L227.5139999999999 68.3898000000002L227.01549999999997 61.57975000000022L225.66300000000012 60.31560000000013L229.13450000000012 57.32619999999997L229.92250000000013 48.54815000000002L236.27499999999998 42.94849999999997L235.19650000000013 41.187850000000026L233.97950000000037 39.296600000000126L220.85450000000037 39.46365000000014L210.41950000000043 43.325550000000135L205.98900000000015 43.18790000000007L208.67999999999995 36.79070000000024L198.86150000000043 31.92440000000005L197.25900000000024 25.48320000000018L195.0505000000004 25.711000000000013L191.40300000000025 28.15905000000015L195.83650000000034 35.28745000000015L194.50500000000034 39.38990000000018L193.03200000000004 40.98105000000004L185.15649999999994 37.51294999999999L181.32499999999993 33.12049999999999L172.5400000000002 31.92705000000018L168.3340000000004 33.18640000000016L162.7000000000004 35.7050000000001L161.67700000000025 33.88850000000019L153.29700000000003 39.243800000000135L148.476 38.88689999999997L146.18600000000015 39.25815L146.5835000000004 44.891700000000014L144.10750000000007 47.10805000000022L133.97250000000042 48.075950000000205L125.77400000000011 51.63745000000006L123.36250000000007 52.68934999999999L115.61650000000043 54.15265000000005L112.91500000000042 57.804800000000114L106.45100000000014 59.88465000000019L104.30900000000008 68.17080000000004L102.51750000000015 69.40465000000017L104.60900000000038 72.9716000000002L109.99900000000025 76.09769999999997L111.29549999999995 78.90875000000023L108.18550000000016 84.21285000000012L113.90450000000044 90.20460000000014L109.70650000000035 94.49090000000012L116.08200000000011 108.8859500000001L118.11500000000024 109.31300000000022L118.95649999999989 111.2691000000001L114.27549999999997 120.36259999999999L108.10150000000021 121.36989999999997L109.51349999999991 126.97415000000007L112.8045000000003 129.55759999999998L118.80800000000022 130.67329999999998L121.04649999999992 136.2134500000002L127.65100000000018 131.07790000000023L130.702 134.96460000000013L127.67800000000022 140.65685000000002L131.4820000000003 148.19725000000005L139.6980000000002 151.64495000000016L145.9975000000003 149.27780000000013L150.462 149.89869999999996L149.41149999999993 162.3603L145.5385000000001 163.42804999999998L135.95450000000028 169.8248000000001L130.1249999999999 172.31905000000012L127.87300000000016 168.74165000000005z">
      <title id="t241">Deuxième circonscription de la Marne</title>
      <desc id="d241">Cantons de : Châtillon-sur-Marne (moins les communes de Courtagnon, Nanteuil-la-Forêt et Pourcy), Fismes, Reims I, Reims III, Reims V, Reims VIII, Ville-en-Tardenois</desc>
    </path><path class="circo" id="id-051-03" d="M341.17885 206.1193L343.5413500000004 208.79310000000004L333.76135000000033 220.7519000000002L327.29435000000024 223.82860000000022L322.2088500000001 238.35655000000003L325.2783500000004 243.8873000000001L324.5558500000004 245.99860000000007L324.35235000000034 247.16145000000012L307.19584999999995 245.86960000000005L299.5903500000003 249.44625000000002L295.5938500000002 247.6126000000002L293.6668500000002 248.28540000000004L286.6758500000003 244.80910000000023L281.1573500000003 248.44745000000017L279.02135000000044 245.1896000000002L274.9888500000003 244.66325000000012L271.88559999999995 241.9762L270.33860000000004 243.32525000000004L266.6405000000003 266.31365000000017L262.2579999999999 266.57145000000014L258.1030000000004 271.7314000000002L255.88450000000023 271.7204000000001L251.50300000000016 266.8014000000002L247.72199999999998 255.5032L235.0970000000001 257.825L233.20449999999994 258.6472500000002L230.8359999999999 262.4291500000001L227.2610000000003 260.1090000000002L221.36850000000038 259.7598000000002L216.81600000000003 260.5522000000002L210.505 261.7502000000002L206.8119999999999 259.5058L198.75699999999995 262.9649500000002L195.1505000000003 270.90625000000017L191.5685000000002 273.4879000000001L183.0000000000001 271.5448500000002L177.1199999999999 274.0811500000001L177.97050000000013 282.83680000000004L180.72400000000016 288.8040000000001L193.16599999999994 290.7699500000001L197.48649999999998 292.6853L199.9150000000003 296.18105000000014L203.6160000000001 297.3570000000001L202.7705000000003 299.31465000000003L204.63900000000024 300.3423000000001L208.6510000000004 301.7258000000001L216.67599999999993 299.16905000000014L221.2990000000002 311.34345000000025L210.7974999999999 315.10880000000014L200.93600000000038 309.93120000000005L200.317 311.9198L205.18149999999991 315.7841000000002L204.3715000000003 317.70635L201.66750000000036 314.63405000000023L195.7940000000002 312.81835L193.7465000000003 312.8312500000001L192.96600000000012 316.8713500000001L193.21799999999996 320.95754999999997L202.9570000000001 334.4321000000002L207.9849999999999 338.3893500000002L210.4060000000004 346.74570000000017L215.37599999999998 353.49125000000015L211.49850000000015 355.2013500000001L208.6250000000001 352.1067500000001L201.558 353.5268000000002L195.53600000000017 361.2869500000002L195.17350000000022 362.66525L199.3575000000004 364.06419999999997L203.14999999999998 369.40945L213.48600000000033 377.6093L213.24100000000044 379.8067500000002L209.15300000000002 381.45025000000004L200.81000000000017 383.16204999999997L198.95399999999995 389.31790000000007L196.80049999999994 389.3411500000002L191.27850000000024 382.96520000000015L189.12650000000042 382.83805L185.38850000000025 383.80235L184.91750000000025 385.67800000000005L188.3235000000002 389.7890000000001L184.56950000000006 390.66085000000015L179.3855000000002 387.7794L178.78900000000044 386.11880000000014L169.6969999999999 383.15235L159.46349999999995 380.7802000000001L155.82100000000025 383.3228L151.32650000000012 383.00070000000005L141.06850000000009 378.68930000000006L150.03750000000025 387.0869000000002L150.5310000000003 391.2068000000002L146.7285000000004 397.98370000000006L144.44350000000043 404.2051000000001L145.65800000000024 406.04990000000015L143.399 410.7910000000001L136.69150000000002 405.4797000000002L134.07500000000027 408.9652000000001L129.94250000000022 408.6324000000002L128.4295000000003 407.05870000000004L128.8560000000001 398.6611500000001L120.61450000000036 397.6430500000001L119.32150000000036 399.36110000000014L120.27050000000031 405.38555L112.9060000000004 409.63335L111.12950000000012 413.26675000000023L116.26700000000028 416.4187000000001L119.51799999999992 421.6656500000002L120.46950000000038 425.9823L117.77000000000044 429.3270000000001L106.83449999999993 427.81485000000004L100.98450000000014 430.73530000000005L109.80099999999993 441.62905000000023L108.1389999999999 447.7519000000001L116.1345 448.3812500000002L120.77850000000012 451.88530000000014L117.16400000000021 461.8467000000001L111.44400000000019 468.42345000000023L111.90200000000004 477.23930000000024L101.36950000000013 482.09035L101.36250000000018 482.23510000000005L97.52049999999997 499.5302000000001L100.93549999999993 501.6975500000001L102.46900000000039 500.34505000000024L108.9870000000002 505.25180000000006L107.48100000000022 508.84300000000025L111.7410000000001 509.0519500000002L114.17599999999993 512.2762500000001L114.20700000000011 522.9504500000002L119.10450000000026 529.9755500000001L114.16249999999991 534.4127000000001L110.61650000000043 542.3859500000001L99.5675 541.5907500000001L96.34450000000015 536.7800500000001L92.70600000000002 537.1392000000001L89.49250000000006 539.9168500000002L88.02650000000028 541.02035L83.02650000000028 531.6725000000002L78.82350000000031 532.6645000000002L77.67600000000016 520.19835L71.53650000000027 521.0500000000002L70.55749999999989 515.2206000000001L67.3580000000004 510.28190000000023L61.21350000000007 503.95220000000023L52.75599999999997 501.6853500000002L51.696000000000026 499.7347500000001L57.847000000000435 493.41710000000006L51.328000000000316 495.13270000000006L40.379500000000235 493.12960000000004L33.840999999999894 499.19385000000005L22.93450000000007 501.0441500000002L26.214500000000385 490.34795L19.309000000000083 481.9339500000001L20.847500000000423 480.2988000000002L19.367000000000303 476.68965000000014L25.275500000000193 470.0302500000001L31.33700000000033 467.18805000000003L32.05750000000023 460.64835000000016L34.27700000000016 460.3257500000001L29.703000000000088 455.4618000000002L29.76350000000025 444.27445000000006L29.589500000000157 440.4551000000001L29.864000000000033 434.1040000000001L19.383000000000266 434.63505L16.864500000000362 431.15425000000016L16.7734999999999 424.7246000000001L13.237500000000182 422.1595000000002L5.036499999999933 424.9225000000001L0.8410000000003492 423.55005000000006L0 419.4285000000002L5.463500000000181 405.0320500000001L9.68150000000037 404.7876000000002L13.34949999999992 406.84325L19.13600000000031 404.29930000000013L19.327000000000112 402.1828500000001L18.57650000000035 393.57365000000016L10.20150000000001 392.9703500000002L4.418000000000006 390.04975L3.8330000000001974 387.92265000000015L8.280500000000188 383.0233000000001L13.90700000000038 386.1304000000001L20.124500000000012 386.9133000000002L31.062000000000012 381.1604L33.03100000000029 382.0260000000002L35.61300000000017 386.66225L38.28200000000038 384.72790000000003L37.44850000000042 378.0702500000001L40.01700000000028 371.8496000000002L37.42549999999994 361.01955000000004L38.10699999999997 357.53210000000024L35.780000000000314 351.61505000000005L39.31950000000029 350.7531500000002L44.99500000000012 348.36635L47.44000000000028 335.7986500000001L52.71150000000034 326.5769500000002L55.8665000000002 322.09120000000013L63.87550000000033 320.2267500000002L72.06250000000011 321.2149000000002L74.50500000000034 317.9062000000002L75.36049999999989 304.701L83.40599999999995 301.06515L86.75200000000018 299.7463000000002L86.29500000000007 295.7390000000001L82.59900000000016 290.9674000000001L87.46550000000013 287.59860000000003L95.23500000000013 287.2225L97.1935000000002 274.4568000000001L103.14850000000035 262.63390000000015L113.91549999999995 261.5752500000002L119.25400000000025 254.83835L113.22750000000042 241.04390000000024L107.52949999999998 238.4194500000001L103.75050000000044 240.60370000000006L99.59750000000042 239.50350000000014L93.37850000000003 241.57620000000009L92.46300000000019 243.48084999999998L82.2705000000002 243.15800000000024L79.93400000000008 240.0338500000001L80.99700000000041 226.7526000000001L82.12850000000003 226.33555L87.28200000000015 223.89605000000017L89.36350000000004 218.63895000000014L99.87150000000042 218.28405000000004L102.82100000000014 212.5088500000001L99.9245000000002 209.4044500000001L94.75549999999998 195.61910000000012L91.92350000000033 190.05090000000024L88.1415000000004 190.57620000000014L86.2299999999999 186.94170000000014L90.64850000000035 182.5203000000002L90.50000000000011 178.32625000000007L94.61850000000027 173.70875000000012L94.64550000000031 169.50315000000018L104.3285000000003 175.8311500000002L108.43350000000044 182.99570000000017L103.78550000000018 190.3379000000001L112.19300000000032 188.79050000000007L115.73300000000017 191.4826500000001L120.0105000000002 190.2931000000001L130.94750000000033 197.00975L130.3555 198.79625000000004L133.74950000000013 203.27970000000022L139.49350000000038 201.96660000000008L142.4830000000003 204.67325000000017L144.21850000000006 205.08605000000017L158.8620000000003 212.59645000000006L163.17450000000008 211.85670000000016L165.63199999999995 211.6192000000001L169.88400000000013 212.26875000000007L172.68349999999998 215.6519L178.89299999999992 217.64110000000016L187.71000000000015 216.1352500000001L181.9345000000004 213.23300000000017L181.1590000000001 211.17665000000017L181.6115000000002 206.80530000000005L184.52650000000006 203.5263500000002L183.52300000000014 201.5784500000001L189.57899999999995 196.85070000000024L195.6695000000002 193.40780000000024L197.16350000000034 193.5934500000002L198.17450000000008 190.01385L200.17300000000034 189.87815000000012L208.9050000000003 189.94635000000017L209.07100000000014 183.43800000000016L207.0825000000002 173.80165000000005L209.41200000000038 168.13215000000014L222.12400000000002 154.01454999999999L227.42099999999994 156.55490000000015L228.5624999999999 162.54615L230.78400000000045 164.8694500000002L233.11599999999999 158.87275000000017L229.95949999999993 150.86285000000004L244.11800000000028 146.53925000000015L249.63700000000017 135.86090000000013L248.23300000000017 134.34015000000016L258.83050000000026 130.54969999999997L260.97000000000037 126.92665000000005L259.5675 125.30005000000017L261.327 121.37970000000024L260.2955000000003 119.49450000000013L262.3900000000003 117.31620000000021L261.9350000000003 108.1941500000002L263.8960000000003 108.12004999999999L271.15110000000016 115.34235000000024L268.9235000000002 117.4797000000001L272.17085 122.16645L269.2365000000001 126.37880000000024L267.72550000000024 132.72890000000018L270.02110000000016 136.93475000000007L275.8153500000003 133.94665000000003L280.8883500000002 137.47070000000008L280.81935000000044 143.05975000000018L282.37934999999993 144.96370000000013L293.65485000000035 144.08845000000014L298.6218500000001 134.85990000000015L306.07635000000016 128.14520000000016L305.75535 126.90645000000018L308.67835000000014 122.30305000000016L310.6123500000001 117.59680000000003L313.1478500000003 114.11675000000002L316.53835000000015 115.7224500000001L316.4223500000003 117.6807500000001L313.35035000000005 124.83875000000012L314.7763500000002 126.26885000000016L321.84934999999996 134.41429999999997L326.07034999999996 135.29570000000007L328.76435000000015 138.48725000000002L330.94134999999994 141.05745000000013L332.8293500000001 145.05605000000003L335.8758499999999 139.78080000000006L345.58134999999993 134.9873500000001L346.4468500000004 132.9358000000002L342.0353499999999 125.42240000000021L344.5698500000003 121.78120000000007L351.65985000000035 126.95135000000022L354.51234999999997 123.57320000000016L366.93885000000023 119.86150000000009L370.13035 122.75660000000016L372.0133500000003 126.82320000000004L367.76985000000025 146.3760000000002L371.73384999999996 148.23430000000002L372.7153500000003 150.25565L371.00735000000043 151.71260000000018L373.78585000000044 154.73870000000005L379.41035 152.22940000000023L383.7698499999999 156.48600000000016L390.1428500000003 155.59805000000011L393.34284999999966 149.99365000000012L404.02885000000026 143.08250000000015L403.9808499999998 138.71355000000023L407.6943499999999 140.47930000000008L418.34734999999966 153.1701000000001L413.37135000000046 156.44440000000003L415.8073500000006 164.15460000000024L407.7828500000004 167.28745000000004L395.61984999999993 175.84935000000002L383.5458500000004 166.21850000000023L371.48285000000044 176.5548000000001L370.41935000000024 178.57050000000015L372.2808500000002 182.73005000000012L362.8553500000004 189.1716500000001L362.49135000000024 188.6405000000002L350.6983500000001 189.56450000000018L347.72085000000004 188.94635000000022L345.1223500000003 191.35860000000008L342.9398500000002 198.19060000000007L341.17885 206.1193z">
      <title id="t242">Troisième circonscription de la Marne</title>
      <desc id="d242">Cantons de : Ay, Dormans, Epernay I, Epernay II, Esternay, Montmirail, Montmort-Lucy, Reims IX, Verzy, Communes de : Courtagnon, Nanteuil-la-Forêt et Pourcy</desc>
    </path><path class="circo" id="id-051-04" d="M403.9808499999998 138.71355000000023L404.02885000000026 143.08250000000015L393.34284999999966 149.99365000000012L390.1428500000003 155.59805000000011L383.7698499999999 156.48600000000016L379.41035 152.22940000000023L373.78585000000044 154.73870000000005L371.00735000000043 151.71260000000018L372.7153500000003 150.25565L371.73384999999996 148.23430000000002L367.76985000000025 146.3760000000002L372.0133500000003 126.82320000000004L370.13035 122.75660000000016L366.93885000000023 119.86150000000009L354.51234999999997 123.57320000000016L351.65985000000035 126.95135000000022L344.5698500000003 121.78120000000007L342.0353499999999 125.42240000000021L346.4468500000004 132.9358000000002L345.58134999999993 134.9873500000001L335.8758499999999 139.78080000000006L332.8293500000001 145.05605000000003L330.94134999999994 141.05745000000013L328.76435000000015 138.48725000000002L326.07034999999996 135.29570000000007L321.84934999999996 134.41429999999997L314.7763500000002 126.26885000000016L313.35035000000005 124.83875000000012L316.4223500000003 117.6807500000001L316.53835000000015 115.7224500000001L313.1478500000003 114.11675000000002L310.6123500000001 117.59680000000003L308.67835000000014 122.30305000000016L305.75535 126.90645000000018L306.07635000000016 128.14520000000016L298.6218500000001 134.85990000000015L293.65485000000035 144.08845000000014L282.37934999999993 144.96370000000013L280.81935000000044 143.05975000000018L280.8883500000002 137.47070000000008L275.8153500000003 133.94665000000003L270.02110000000016 136.93475000000007L267.72550000000024 132.72890000000018L269.2365000000001 126.37880000000024L272.17085 122.16645L268.9235000000002 117.4797000000001L274.5038500000004 112.28225000000009L275.1138500000002 108.73860000000008L277.3888500000004 106.52905000000004L281.66335000000004 107.68595000000005L286.06235000000027 107.53485000000012L288.99135 111.54494999999997L294.83885000000043 115.70095000000009L294.68635000000006 111.94215000000014L295.2078499999999 103.74930000000006L290.6768500000004 94.45445000000007L290.68885000000023 87.97820000000002L298.17935000000034 83.90015000000005L307.26485000000025 89.0295500000002L311.19785000000036 87.97300000000007L311.5063500000002 86.00375000000014L316.83085000000005 84.09495000000021L318.51785000000007 80.51749999999998L330.89985000000013 75.48060000000021L334.2363499999999 78.13725000000005L336.1893500000002 77.24715000000003L339.21835000000044 82.8519L342.71185 80.51555000000008L344.67235000000016 72.21429999999998L350.1338500000003 68.51365000000015L350.32385000000033 65.29944999999998L347.5273500000003 60.53790000000021L358.36434999999994 57.45400000000018L371.1483500000003 59.96679999999998L379.4688500000001 56.52095000000003L387.25535000000036 52.944300000000055L398.0158499999999 53.072150000000136L401.7003500000004 55.391600000000096L402.22935000000064 59.703400000000215L406.5583499999997 59.50195000000008L410.37285000000054 56.90110000000004L415.8693499999998 54.768899999999974L422.32885000000067 71.07055000000003L429.8233499999998 78.07080000000013L429.91585000000043 78.81625000000014L434.05935000000056 79.66395000000006L436.9988500000005 82.8395500000002L443.52085000000045 83.94770000000022L446.0063500000007 87.58409999999998L446.2993499999999 88.18080000000009L449.4128500000005 85.91904999999997L461.86485000000005 82.8128000000001L465.63834999999983 82.77830000000023L475.4418500000003 82.04010000000011L486.29385000000013 79.09900000000022L492.9968500000001 73.34895000000017L501.66435000000035 73.20490000000007L511.1943500000001 77.79125000000022L507.4893500000002 83.09425000000005L508.63035000000025 87.34045000000009L514.2003500000004 90.59345000000008L516.1763500000001 96.81195000000002L520.6613499999997 111.59780000000012L529.2138500000004 114.00545000000022L534.64135 110.0804500000001L541.1988500000001 108.56240000000014L545.7018499999998 100.46250000000015L549.5258500000006 97.98540000000003L555.5028499999997 99.69540000000023L555.4818500000005 101.74980000000005L561.4843500000001 102.25504999999998L566.1113500000005 101.84680000000014L572.5343500000002 108.41070000000002L583.3303500000005 106.42125000000021L591.8598500000002 108.17700000000002L601.3823500000007 103.24930000000023L604.8338500000006 108.00645000000003L608.9228500000007 107.36910000000023L607.7673499999997 112.42379999999997L624.48285 118.10635000000019L624.9243500000006 113.75100000000003L622.5178499999998 110.11755000000022L631.1908499999998 97.87665000000004L628.6048499999998 94.37759999999997L634.36485 97.2502L644.4218500000005 93.27625000000012L653.0863500000004 95.27434999999997L648.8823500000007 102.46730000000014L660.2178499999997 109.21010000000024L660.4083500000007 111.4097000000001L668.84435 112.27540000000005L671.7103500000002 122.54835000000014L677.7788500000003 128.34755L672.09135 135.10185000000007L665.5233500000003 136.74485000000004L656.7488499999996 144.00135000000006L661.5483499999999 154.13610000000006L666.2033500000001 165.03645000000006L670.5508500000002 179.04595L672.1108499999997 181.9013000000001L674.74535 185.77015000000017L679.6843500000006 196.1554000000001L680.2898499999998 205.3898000000001L682.8798499999999 222.64805000000024L683.6798500000003 226.4140500000002L681.3923500000004 232.4688500000002L666.5468500000003 251.3316500000002L667.0923499999998 251.61355000000015L685.4933499999999 242.74439999999998L696.2278499999996 250.60575L696.3863499999997 251.89225000000022L697.1788499999997 258.37705L694.6588500000001 264.39025000000015L694.6838500000007 268.39365000000015L684.3898500000006 269.98260000000016L679.2908500000004 276.5816000000001L693.9633499999997 279.0599L697.2858500000001 281.98215000000005L694.3898500000006 294.79990000000015L687.2448500000002 300.4555500000001L686.6993500000007 306.17490000000004L679.9433500000004 305.98535L669.89935 311.2722500000001L663.07435 311.8118000000001L661.7218500000007 309.95060000000024L654.1268500000007 315.6230500000001L641.3558500000005 313.5421500000001L635.0893500000001 315.7537000000002L619.72285 324.11395L610.8708500000006 325.68655000000007L604.8188499999998 323.0334000000002L588.6528500000003 331.8643500000002L586.5903499999996 331.5385500000002L585.7813500000003 322.8659000000002L577.44935 315.96585000000005L577.8453500000006 313.80415L571.6773500000005 312.5266000000002L563.8413500000007 316.4328500000002L559.4813500000004 316.58805L554.5303500000006 296.75250000000005L555.4528499999998 290.56669999999997L551.7238500000002 287.96504999999996L547.1753500000005 285.89920000000006L545.7423499999999 285.2686L542.6263499999999 271.4568L540.3028499999999 261.26360000000005L535.55635 257.6202500000002L526.9718500000005 257.97725000000014L519.1653500000001 262.0579000000001L512.1328499999998 257.00725000000006L507.4418500000007 247.26L497.0208500000007 253.08405000000022L495.7608499999998 253.3271000000002L491.53185000000065 253.2376500000001L483.4618500000005 246.21835000000004L477.35484999999983 247.91854999999998L468.9368500000006 248.3048500000001L465.3988499999997 253.15145L466.06785 246.92745000000002L463.9178499999997 247.20685000000003L459.9423500000006 252.18580000000003L453.8393500000001 250.01400000000018L442.17884999999967 256.18685L435.8303500000005 262.1616L433.64184999999964 262.40715000000023L431.0203500000006 258.88765000000006L424.2978499999998 264.14535L423.41135000000065 264.6779000000001L429.9938500000002 276.3931500000001L433.9743500000003 277.2214500000001L439.18984999999964 284.5953L449.00135000000034 291.59850000000006L448.63785000000064 298.7516500000001L434.47884999999985 304.79095L426.6798499999999 308.7596000000002L422.4843500000003 307.4980000000002L418.68584999999996 309.6944500000001L414.17935 305.28655000000015L409.83135000000004 305.39140000000003L408.4498500000001 310.15635000000003L411.2823499999996 313.78345000000024L396.2593499999997 330.283L391.84685 329.26150000000007L381.0298499999999 331.9484L379.04785000000004 330.8461L373.65835000000004 334.25820000000016L370.96285000000023 328.48175L377.73685 324.4450500000002L377.7078499999999 319.0820000000002L372.52935000000036 306.78635000000014L374.2958500000003 300.50085000000024L378.0213500000002 298.01260000000013L382.6858500000003 290.3233L384.04134999999997 288.71015L382.92734999999993 286.9214500000001L372.40985000000023 279.9198000000001L377.0993500000003 273.6245500000001L367.8923500000002 270.0914L364.59085000000016 265.10415000000023L358.6128500000001 263.6692000000002L353.64734999999996 259.8038500000001L353.15635000000043 261.86485000000005L351.23685000000023 260.1569500000002L346.4448500000003 259.66904999999997L346.90635000000043 256.10390000000024L344.5858500000003 252.8105500000001L341.1183500000004 253.4573500000002L335.89985000000013 248.02745000000016L329.7163499999999 249.17595000000006L324.5558500000004 245.99860000000007L325.2783500000004 243.8873000000001L322.2088500000001 238.35655000000003L327.29435000000024 223.82860000000022L333.76135000000033 220.7519000000002L343.5413500000004 208.79310000000004L341.17885 206.1193L342.9398500000002 198.19060000000007L345.1223500000003 191.35860000000008L347.72085000000004 188.94635000000022L350.6983500000001 189.56450000000018L362.49135000000024 188.6405000000002L362.8553500000004 189.1716500000001L372.2808500000002 182.73005000000012L370.41935000000024 178.57050000000015L371.48285000000044 176.5548000000001L383.5458500000004 166.21850000000023L395.61984999999993 175.84935000000002L407.7828500000004 167.28745000000004L415.8073500000006 164.15460000000024L413.37135000000046 156.44440000000003L418.34734999999966 153.1701000000001L407.6943499999999 140.47930000000008L403.9808499999998 138.71355000000023z">
      <title id="t243">Quatrième circonscription de la Marne</title>
      <desc id="d243">Cantons de : Beine-Nauroy, Châlons-en-Champagne I, Châlons-en-Champagne II, Châlons-en-Champagne III, Châlons-en-Champagne IV, Givry-en-Argonne, Reims VII, Sainte-Menehould, Suippes, Ville-sur-Tourbe</desc>
    </path><path class="circo" id="id-051-05" d="M194.65200000000038 540.8013500000002L194.54150000000027 536.6740500000001L206.75400000000025 537.4674500000001L207.14650000000006 537.3621L213.08050000000037 538.9667500000002L217.30600000000038 522.1946500000001L218.5695000000004 522.1342500000001L221.8055000000004 519.4830000000002L234.6535 521.1155500000001L238.40100000000007 509.1734500000001L242.03849999999989 504.08725000000004L245.2075000000002 506.23760000000004L247.95299999999997 504.3740500000001L246.56049999999993 502.69115L249.5165000000003 489.9233000000001L256.94800000000043 482.2383500000001L269.05550000000005 484.9640500000001L275.05134999999996 484.1231000000002L282.93634999999995 477.13115000000016L284.9508500000002 473.26810000000023L284.24735 467.21315000000004L290.1378500000004 458.26385000000016L293.68134999999995 459.71400000000017L311.9423499999999 467.9065L323.28085000000044 456.19145000000003L331.6743500000001 453.78985L339.99934999999994 456.4065500000001L355.2723500000002 457.50005000000016L359.55285000000003 448.2511500000001L361.77234999999996 451.4963L367.6423500000004 454.35339999999997L382.37235 450.50820000000016L388.37485000000015 452.2531000000001L395.18385000000023 460.65740000000005L393.71635000000026 468.9610000000002L397.98635000000047 475.67470000000014L394.15234999999996 483.3155500000001L395.68685000000016 487.1330500000002L391.5483499999999 491.3405500000002L393.6638499999998 494.9062500000002L394.3073499999997 496.46225000000015L396.1923500000006 499.98875L397.02785000000006 504.1509000000002L390.0708500000002 512.89535L396.8348499999996 522.1522500000001L404.8348500000003 524.6470999999999L423.0178500000005 544.2517500000002L436.1388500000004 552.7773500000001L438.07984999999974 553.4072500000002L453.1788499999999 557.0059500000002L466.72735000000046 562.6783L473.4263500000003 556.83455L477.5778500000007 558.6873500000002L480.9603499999997 568.7154499999999L485.2413500000006 570.0112000000001L487.44835000000023 569.6447500000002L493.3608499999997 560.2723500000002L498.8338500000003 556.3844500000002L503.17984999999965 556.5289000000001L507.3278499999998 555.8849500000002L508.2308500000005 553.9389L528.80335 552.94625L526.1153500000006 558.9845500000001L532.4748500000004 561.9651000000001L532.9033499999997 563.7817000000001L539.0988499999997 563.5307L541.0628500000001 567.0666500000002L543.0808500000006 563.3786L547.2368499999999 564.8305000000003L564.2908500000004 560.9547500000002L590.3053500000004 567.5409500000001L591.7688500000003 569.0299000000002L595.8878499999997 568.4131500000001L589.7968499999996 552.29195L593.5978500000004 544.44445L592.0013499999999 542.9518000000002L586.0018500000007 544.5440000000002L583.6653500000006 538.4696000000002L582.69385 527.5389000000001L597.2118500000005 524.3990500000001L608.8428500000003 515.299L619.3478499999998 515.1511500000001L620.7473499999998 513.5298500000001L618.6408499999999 512.8497000000002L617.36785 508.5851500000001L617.7328500000004 497.65860000000004L612.8358499999996 493.8513500000002L614.0703500000001 491.3856000000001L599.4453500000003 488.4069500000001L584.5998500000002 490.00310000000013L584.28335 489.96065000000016L584.5168500000005 487.01400000000007L588.4443500000003 478.16990000000004L594.3773500000003 477.4819500000001L595.5248499999999 473.47790000000003L604.7238499999997 471.92920000000015L606.1453499999999 475.6624500000001L616.0803500000003 476.9651000000002L619.5828499999999 480.26725L625.0418500000006 480.1006000000001L631.30335 474.3784000000002L637.3873499999996 472.2948500000001L643.4133500000002 466.1676L655.17585 475.2299500000001L657.1803500000004 471.41685000000024L661.6483499999998 467.28139999999996L672.4858499999999 466.9208500000002L676.3203500000003 469.0157000000002L677.2713500000003 464.96235000000013L683.9598500000005 459.7269L680.9298500000006 452.29690000000005L686.6373500000003 454.38305000000014L688.0398500000007 452.86045L683.8603500000005 445.1789500000001L685.1573500000001 432.3240000000001L676.8078500000007 431.90380000000005L673.3158499999996 429.5887000000002L673.0038500000006 427.74265000000014L661.6138500000005 415.04525L659.67285 413.53499999999997L653.8163500000002 404.6470000000002L653.3478500000007 400.6017L649.27885 399.4456500000001L635.9178500000002 396.4927L635.7323500000001 396.0178000000002L634.5003500000001 394.29895000000016L637.1868499999999 388.7035500000002L633.9608500000003 383.42345000000023L639.9778499999996 376.62284999999997L644.51885 372.49335L653.8223499999998 368.38720000000023L654.6263500000003 363.47454999999997L650.8833499999997 361.5873000000002L648.61335 353.9247500000002L643.9463500000005 349.6786500000002L644.3043500000005 347.56575L648.5398500000002 337.3791L647.2793500000006 333.3939000000001L644.51435 331.44284999999996L645.4533499999997 330.0405500000002L647.2608500000007 326.0305500000001L652.4053499999997 321.74135000000007L654.1268500000007 315.6230500000001L641.3558500000005 313.5421500000001L635.0893500000001 315.7537000000002L619.72285 324.11395L610.8708500000006 325.68655000000007L604.8188499999998 323.0334000000002L588.6528500000003 331.8643500000002L586.5903499999996 331.5385500000002L585.7813500000003 322.8659000000002L577.44935 315.96585000000005L577.8453500000006 313.80415L571.6773500000005 312.5266000000002L563.8413500000007 316.4328500000002L559.4813500000004 316.58805L554.5303500000006 296.75250000000005L555.4528499999998 290.56669999999997L551.7238500000002 287.96504999999996L547.1753500000005 285.89920000000006L545.7423499999999 285.2686L542.6263499999999 271.4568L540.3028499999999 261.26360000000005L535.55635 257.6202500000002L526.9718500000005 257.97725000000014L519.1653500000001 262.0579000000001L512.1328499999998 257.00725000000006L507.4418500000007 247.26L497.0208500000007 253.08405000000022L495.7608499999998 253.3271000000002L491.53185000000065 253.2376500000001L483.4618500000005 246.21835000000004L477.35484999999983 247.91854999999998L468.9368500000006 248.3048500000001L465.3988499999997 253.15145L466.06785 246.92745000000002L463.9178499999997 247.20685000000003L459.9423500000006 252.18580000000003L453.8393500000001 250.01400000000018L442.17884999999967 256.18685L435.8303500000005 262.1616L433.64184999999964 262.40715000000023L431.0203500000006 258.88765000000006L424.2978499999998 264.14535L423.41135000000065 264.6779000000001L429.9938500000002 276.3931500000001L433.9743500000003 277.2214500000001L439.18984999999964 284.5953L449.00135000000034 291.59850000000006L448.63785000000064 298.7516500000001L434.47884999999985 304.79095L426.6798499999999 308.7596000000002L422.4843500000003 307.4980000000002L418.68584999999996 309.6944500000001L414.17935 305.28655000000015L409.83135000000004 305.39140000000003L408.4498500000001 310.15635000000003L411.2823499999996 313.78345000000024L396.2593499999997 330.283L391.84685 329.26150000000007L381.0298499999999 331.9484L379.04785000000004 330.8461L373.65835000000004 334.25820000000016L370.96285000000023 328.48175L377.73685 324.4450500000002L377.7078499999999 319.0820000000002L372.52935000000036 306.78635000000014L374.2958500000003 300.50085000000024L378.0213500000002 298.01260000000013L382.6858500000003 290.3233L384.04134999999997 288.71015L382.92734999999993 286.9214500000001L372.40985000000023 279.9198000000001L377.0993500000003 273.6245500000001L367.8923500000002 270.0914L364.59085000000016 265.10415000000023L358.6128500000001 263.6692000000002L353.64734999999996 259.8038500000001L353.15635000000043 261.86485000000005L351.23685000000023 260.1569500000002L346.4448500000003 259.66904999999997L346.90635000000043 256.10390000000024L344.5858500000003 252.8105500000001L341.1183500000004 253.4573500000002L335.89985000000013 248.02745000000016L329.7163499999999 249.17595000000006L324.5558500000004 245.99860000000007L324.35235000000034 247.16145000000012L307.19584999999995 245.86960000000005L299.5903500000003 249.44625000000002L295.5938500000002 247.6126000000002L293.6668500000002 248.28540000000004L286.6758500000003 244.80910000000023L281.1573500000003 248.44745000000017L279.02135000000044 245.1896000000002L274.9888500000003 244.66325000000012L271.88559999999995 241.9762L270.33860000000004 243.32525000000004L266.6405000000003 266.31365000000017L262.2579999999999 266.57145000000014L258.1030000000004 271.7314000000002L255.88450000000023 271.7204000000001L251.50300000000016 266.8014000000002L247.72199999999998 255.5032L235.0970000000001 257.825L233.20449999999994 258.6472500000002L230.8359999999999 262.4291500000001L227.2610000000003 260.1090000000002L221.36850000000038 259.7598000000002L216.81600000000003 260.5522000000002L210.505 261.7502000000002L206.8119999999999 259.5058L198.75699999999995 262.9649500000002L195.1505000000003 270.90625000000017L191.5685000000002 273.4879000000001L183.0000000000001 271.5448500000002L177.1199999999999 274.0811500000001L177.97050000000013 282.83680000000004L180.72400000000016 288.8040000000001L193.16599999999994 290.7699500000001L197.48649999999998 292.6853L199.9150000000003 296.18105000000014L203.6160000000001 297.3570000000001L202.7705000000003 299.31465000000003L204.63900000000024 300.3423000000001L208.6510000000004 301.7258000000001L216.67599999999993 299.16905000000014L221.2990000000002 311.34345000000025L210.7974999999999 315.10880000000014L200.93600000000038 309.93120000000005L200.317 311.9198L205.18149999999991 315.7841000000002L204.3715000000003 317.70635L201.66750000000036 314.63405000000023L195.7940000000002 312.81835L193.7465000000003 312.8312500000001L192.96600000000012 316.8713500000001L193.21799999999996 320.95754999999997L202.9570000000001 334.4321000000002L207.9849999999999 338.3893500000002L210.4060000000004 346.74570000000017L215.37599999999998 353.49125000000015L211.49850000000015 355.2013500000001L208.6250000000001 352.1067500000001L201.558 353.5268000000002L195.53600000000017 361.2869500000002L195.17350000000022 362.66525L199.3575000000004 364.06419999999997L203.14999999999998 369.40945L213.48600000000033 377.6093L213.24100000000044 379.8067500000002L209.15300000000002 381.45025000000004L200.81000000000017 383.16204999999997L198.95399999999995 389.31790000000007L196.80049999999994 389.3411500000002L191.27850000000024 382.96520000000015L189.12650000000042 382.83805L185.38850000000025 383.80235L184.91750000000025 385.67800000000005L188.3235000000002 389.7890000000001L184.56950000000006 390.66085000000015L179.3855000000002 387.7794L178.78900000000044 386.11880000000014L169.6969999999999 383.15235L159.46349999999995 380.7802000000001L155.82100000000025 383.3228L151.32650000000012 383.00070000000005L141.06850000000009 378.68930000000006L150.03750000000025 387.0869000000002L150.5310000000003 391.2068000000002L146.7285000000004 397.98370000000006L144.44350000000043 404.2051000000001L145.65800000000024 406.04990000000015L143.399 410.7910000000001L136.69150000000002 405.4797000000002L134.07500000000027 408.9652000000001L129.94250000000022 408.6324000000002L128.4295000000003 407.05870000000004L128.8560000000001 398.6611500000001L120.61450000000036 397.6430500000001L119.32150000000036 399.36110000000014L120.27050000000031 405.38555L112.9060000000004 409.63335L111.12950000000012 413.26675000000023L116.26700000000028 416.4187000000001L119.51799999999992 421.6656500000002L120.46950000000038 425.9823L117.77000000000044 429.3270000000001L106.83449999999993 427.81485000000004L100.98450000000014 430.73530000000005L109.80099999999993 441.62905000000023L108.1389999999999 447.7519000000001L116.1345 448.3812500000002L120.77850000000012 451.88530000000014L117.16400000000021 461.8467000000001L111.44400000000019 468.42345000000023L111.90200000000004 477.23930000000024L101.36950000000013 482.09035L101.36250000000018 482.23510000000005L97.52049999999997 499.5302000000001L100.93549999999993 501.6975500000001L102.46900000000039 500.34505000000024L108.9870000000002 505.25180000000006L107.48100000000022 508.84300000000025L111.7410000000001 509.0519500000002L114.17599999999993 512.2762500000001L114.20700000000011 522.9504500000002L119.10450000000026 529.9755500000001L114.16249999999991 534.4127000000001L110.61650000000043 542.3859500000001L99.5675 541.5907500000001L98.57950000000017 547.71275L100.06050000000016 558.4222L104.76949999999988 564.2579500000002L111.08750000000043 564.6565499999999L113.68750000000034 564.24L123.90950000000032 562.5955000000001L131.40450000000044 565.335L142.2225000000003 563.4363500000001L152.1505000000002 566.1745500000001L157.00800000000015 569.9168500000002L160.37900000000036 568.4080500000002L165.39750000000026 569.0928000000002L169.65200000000038 569.5857000000001L182.23099999999988 577.79155L185.89050000000043 576.1965L193.40000000000032 571.47435L199.2175000000003 559.5848000000001L196.72950000000014 559.5809500000001L196.2710000000004 550.9293500000001L198.35500000000025 542.5632000000002L194.65200000000038 540.8013500000002z">
      <title id="t244">Cinquième circonscription de la Marne</title>
      <desc id="d244">Cantons de : Anglure, Avize, Ecury-sur-Coole, Fère-Champenoise, Heiltz-le-Maurupt, Marson, Sézanne, Saint-Rémy-en-Bouzemont-Saint-Genest-et-Isson, Sompuis, Thiéblemont-Farémont, Vertus, Vitry-le-François Est, Vitry-le-François Ouest</desc>
    </path></svg>