<svg xmlns="http://www.w3.org/2000/svg" version="1.1" xmlns:xlink="http://www.w3.org/1999/xlink" xmlns:svgjs="http://svgjs.dev/svgjs" width="537.1069999999997" height="708.3631000000003" fill="#eeeeee" stroke="#cccccc" xmlns:sodipodi="http://sodipodi.sourceforge.net/DTD/sodipodi-0.dtd"><path class="circo" id="id-052-01" d="M133.05899999999951 524.7545000000002L127.7699999999993 521.9839000000002L128.05899999999951 512.2130500000003L124.40650000000005 507.55885000000035L118.63399999999956 493.5092500000002L113.83249999999975 489.6197999999998L105.29949999999985 491.57375L97.73299999999949 506.7196000000001L88.05999999999926 499.6440000000001L86.12649999999917 496.16300000000024L87.56299999999896 492.36080000000015L93.08949999999982 489.42954999999984L101.31449999999973 477.59214999999983L97.45149999999967 470.1606000000004L92.73899999999912 465.6223L81.96899999999914 464.3262500000003L78.25699999999983 465.9777500000001L74.29749999999899 464.28120000000035L68.40649999999982 462.55854999999997L67.52700000000004 458.61845000000017L71.68299999999931 450.9406999999999L77.13249999999903 447.62474999999995L70.84949999999935 441.68980000000033L69.10300000000007 435.4978L52.14949999999931 437.75800000000004L39.574499999999944 434.8454000000004L32.899999999999636 427.63734999999997L34.88200000000006 426.66195000000016L34.51599999999985 420.12710000000027L40.9394999999995 411.41615L35.393499999998994 408.0046500000003L27.34049999999911 394.7633000000002L14.412999999999556 391.45375L13.053499999999758 390.12485000000027L27.221999999999298 385.8573000000001L33.20149999999899 384.18780000000027L34.043499999999085 380.1052500000003L32.75049999999965 378.3705500000002L41.45999999999958 372.5395500000002L44.6449999999993 364.53660000000013L48.47699999999918 366.9475L57.46099999999956 367.3027000000002L68.02549999999997 371.01830000000007L79.96599999999944 374.64879999999994L88.21399999999926 373.63110000000006L87.77299999999968 365.77170000000024L91.94149999999922 367.34730000000013L106.6579999999999 362.7437500000002L112.45049999999992 362.06889999999987L118.91199999999913 369.69685000000027L133.3319999999992 360.0670500000001L140.58549999999968 371.0711500000002L141.181499999999 377.69724999999994L143.76499999999965 381.29009999999994L154.95349999999917 376.2329L162.98999999999978 377.3307L168.1364999999994 373.5210000000001L170.8719999999994 363.05385L166.2545 353.44375000000014L174.66499999999996 349.77900000000034L171.94599999999923 341.91070000000025L169.14699999999925 339.12585000000036L173.10949999999934 338.45365000000015L170.44549999999958 335.52324999999996L169.45499999999925 327.5297499999999L172.9469999999992 325.64054999999996L178.12849999999912 329.64765L193.11199999999985 329.49535000000026L209.5049999999992 335.4570000000001L210.88149999999928 331.88015000000007L216.0564999999997 330.6495000000001L220.8459999999991 323.8143500000001L226.94999999999936 321.72090000000026L230.94949999999926 323.1737000000004L237.20399999999927 322.2851000000003L239.39599999999928 318.95475000000033L241.54199999999946 319.1288000000003L242.6974999999993 323.4707500000002L238.6564999999996 336.36945000000026L248.48199999999906 344.3232499999999L262.8239999999994 348.45669999999984L266.36049999999955 353.7576999999999L268.4164999999996 354.4245000000001L269.80099999999993 352.7674000000002L271.05549999999994 357.4812000000003L276.98299999999904 345.9221500000001L280.249 343.09754999999996L285.711 346.39355000000023L283.6284999999998 350.1859999999999L279.63499999999954 352.0942000000002L279.00800000000004 358.5707000000002L283.8874999999996 353.88570000000016L305.26250000000005 347.40065000000016L307.8704999999991 350.8325000000002L312.10899999999924 350.93695000000025L326.0629999999992 345.0794000000002L334.47649999999953 346.4891L339.9759999999992 342.9535500000003L341.3524999999993 336.68679999999995L347.1259999999995 333.6128500000001L345.54599999999937 330.8847000000003L333.60649999999964 323.79774999999995L333.11649999999986 321.8484000000001L338.69699999999966 318.9955500000002L341.009499999999 312.81090000000006L340.0049999999999 306.3616999999999L343.77700000000004 304.50890000000015L349.71000000000004 303.51004999999986L351.7345 303.7626499999999L364.28399999999897 309.7480999999999L377.87349999999947 308.9918L379.22199999999975 307.4503500000003L383.89749999999935 297.0972499999999L391.35400000000004 288.5155500000002L396.39449999999897 280.35415L398.039 278.7641500000001L406.0074999999995 271.23175000000003L408.68949999999927 266.14660000000015L418.5609999999997 254.61715000000027L436.4784999999995 269.49185L434.62999999999965 278.3154000000002L430.99249999999984 286.19714999999985L446.0559999999998 294.70799999999997L450.92149999999947 291.4100000000002L460.71899999999914 300.49995000000024L466.5269999999998 311.2543500000004L468.88399999999933 314.28705000000036L469.2784999999992 319.78229999999996L456.01249999999936 319.80140000000006L447.6834999999994 326.8108000000001L448.587 328.8445999999999L450.4539999999997 334.187L449.4044999999994 339.8362500000002L449.88649999999893 344.6876000000003L445.86849999999913 350.02234999999985L446.2099999999998 353.8010000000003L440.1774999999998 358.5904500000004L437.6469999999995 363.8363000000004L444.2604999999992 370.90945000000033L434.6015 373.7062000000003L430.27600000000007 378.6893500000002L427.69499999999994 386.9096000000002L435.35300000000007 394.60109999999986L437.45149999999967 394.6888999999999L437.13699999999903 388.3951000000002L438.81899999999973 387.11765000000014L452.7544999999998 392.4887000000001L454.528499999999 391.1916500000001L456.2334999999996 397.6305500000001L461.792999999999 401.33185000000026L465.15499999999975 406.9899000000004L464.87699999999904 407.43875L465.2884999999992 411.7346500000002L473.45249999999965 409.3506000000002L483.4064999999998 420.45950000000005L485.3584999999998 421.41475000000014L488.7594999999999 419.11969999999997L488.5889999999995 426.2610000000001L492.75049999999965 433.64025000000026L492.83899999999903 437.9448000000002L496.395 442.5319999999999L495.8879999999999 446.3972000000001L489.47 454.4607500000001L493.6865 470.52869999999984L500.8504999999991 474.1602499999999L505.10749999999916 467.8493500000002L512.9634999999996 466.1364000000003L515.5669999999998 460.76025000000016L518.0944999999997 455.92989999999986L519.3004999999994 459.7922L521.3754999999992 459.6214500000002L521.6634999999997 462.06155000000024L519.8299999999995 463.1266500000004L521.5829999999994 471.3974000000002L523.8999999999999 474.9330500000002L526.0159999999996 474.8556500000001L534.6209999999996 487.43544999999983L537.1069999999997 497.65244999999993L535.3724999999997 502.2820999999999L533.9679999999998 503.79470000000026L527.9424999999992 503.26599999999985L520.4259999999999 500.1956000000001L519.0944999999999 501.7742500000003L517.7769999999998 505.79729999999984L507.90199999999913 523.5279500000001L509.09899999999993 529.6805499999999L510.73299999999904 534.4L501.0019999999997 537.3310500000002L497.14599999999905 537.6844L498.1364999999994 532.01595L485.86349999999925 531.5472499999998L482.1174999999994 529.7160000000002L478.80849999999896 534.5906500000001L474.8974999999996 536.3589000000002L476.7179999999996 548.4429L475.68449999999984 552.3519500000003L473.2069999999999 555.29785L469.4674999999995 556.1257499999999L468.01349999999957 555.6080000000003L461.9099999999992 553.6357000000004L455.3729999999996 552.5045L449.9804999999992 559.18835L446.1699999999996 580.4695500000003L448.5649999999998 582.8520000000003L447.5969999999995 586.2814500000002L457.5349999999992 586.5306000000004L459.20999999999935 587.7042L459.4279999999992 591.6231500000004L458.8054999999997 598.2004499999999L460.1139999999998 602.0991500000002L451.71049999999923 609.0794499999998L451.3459999999998 611.2916999999999L454.365499999999 614.5931000000002L449.81899999999996 616.1618500000003L449.39750000000004 622.7412000000004L453.22849999999903 627.9967500000004L453.47749999999905 636.6725500000001L451.3429999999994 640.1077500000002L443.605 641.3053500000001L442.3619999999994 639.6652L438.9919999999995 640.2618000000001L436.2455 644.9162000000001L426.17149999999924 645.1806500000004L420.14999999999986 647.3280499999998L416.19899999999916 646.1508500000002L412.254999999999 648.3966000000004L407.3464999999999 636.4496500000001L406.6629999999998 629.93875L401.2959999999998 626.2031000000002L399.74899999999934 625.9991000000002L384.1104999999993 646.9057500000002L375.4845 646.7656500000004L373.9239999999995 645.2324500000003L363.7849999999992 640.1923500000004L358.07699999999954 646.3856500000003L349.62049999999977 648.44585L343.14899999999966 648.6427500000002L337.64549999999986 645.3700500000002L331.36300000000006 647.1494000000001L328.1709999999998 660.1165000000003L330.9934999999996 663.2363500000002L323.42649999999935 670.7542999999998L317.9474999999991 680.1238000000001L317.589999999999 690.7236L314.06549999999925 691.8267000000003L309.78849999999966 698.8213999999999L304.09349999999904 695.6721500000003L304.70249999999965 691.35335L302.1785 687.8951000000001L300.2559999999994 686.8845500000003L296.00799999999936 686.0264999999998L292.9144999999994 689.0348499999999L288.80699999999933 688.9995500000003L277.84899999999993 699.0722L276.71299999999974 705.3325999999998L272.7774999999997 705.2922999999998L267.5024999999994 708.3631000000003L260.4009999999994 695.0866500000001L268.51049999999987 679.5771000000002L261.82649999999967 682.1112500000004L259.3049999999994 683.0103500000001L255.94799999999964 675.3911500000004L248.44549999999913 667.3197500000003L238.66899999999987 662.3032499999999L232.30299999999943 659.8256000000003L234.39899999999966 642.5231000000002L226.68899999999894 644.28875L225.856 648.4603500000003L219.62249999999926 657.4954500000001L212.81849999999963 663.0199500000003L208.48649999999907 662.3808500000001L208.26849999999922 660.7839999999999L204.24749999999904 661.2162000000001L202.11099999999988 657.4260500000003L195.74049999999943 656.9326000000001L191.15249999999946 652.6068000000004L184.96299999999906 651.2164999999999L180.94449999999938 649.5377500000001L178.49399999999946 645.9217000000001L182.50349999999912 633.7711999999999L171.87649999999962 634.1999500000003L172.66949999999952 625.6233000000003L170.99249999999984 624.2268000000001L160.30599999999936 630.2589L159.4939999999997 634.5762500000001L156.01999999999975 637.26225L145.243999999999 638.49785L146.4339999999993 636.6631000000001L139.26999999999907 628.6725000000001L140.28999999999996 624.7800999999998L143.39149999999904 622.0192000000003L143.49849999999947 616.0898000000003L146.5039999999999 610.8633000000003L143.48899999999958 608.4949L141.8119999999999 609.7676000000001L143.75799999999913 603.8246000000004L141.17149999999924 591.3987000000003L135.79849999999965 588.8177000000002L132.72449999999935 591.2861500000002L126.63049999999998 592.1896500000003L126.81600000000003 590.1449000000002L123.2409999999993 588.2701500000002L125.92049999999972 584.2653999999999L123.73299999999972 581.7749500000002L134.4139999999993 576.3197000000002L139.63199999999915 573.7894L152.6954999999998 565.0084500000003L156.10500000000002 554.7877L152.19299999999976 551.2923000000001L151.92099999999982 551.7126000000002L150.86749999999938 548.4036500000002L147.23549999999932 547.5369499999999L145.16149999999925 546.86395L142.23999999999933 541.6036000000003L142.58449999999925 532.9806000000002L139.09149999999954 525.0123500000001L133.05899999999951 524.7545000000002z">
      <title id="t245">Première circonscription de la Haute-Marne</title>
      <desc id="d245">Cantons : Arc-en-Barrois, Auberive, Bourbonne-les-bains, Bourmont, Châteauvillain, Chaumont Nord, Chaumont Sud, Clefmont Fayl-la-Forêt, Laferté-sur-Amance, Langres, Longeau-Percey, Neuilly-l'Evêque, Nogent, Prauthoy, Terre-Natale, Val-de-Meuse</desc>
    </path><path class="circo" id="id-052-02" d="M279.00800000000004 358.5707000000002L283.8874999999996 353.88570000000016L305.26250000000005 347.40065000000016L307.8704999999991 350.8325000000002L312.10899999999924 350.93695000000025L326.0629999999992 345.0794000000002L334.47649999999953 346.4891L339.9759999999992 342.9535500000003L341.3524999999993 336.68679999999995L347.1259999999995 333.6128500000001L345.54599999999937 330.8847000000003L333.60649999999964 323.79774999999995L333.11649999999986 321.8484000000001L338.69699999999966 318.9955500000002L341.009499999999 312.81090000000006L340.0049999999999 306.3616999999999L343.77700000000004 304.50890000000015L349.71000000000004 303.51004999999986L351.7345 303.7626499999999L364.28399999999897 309.7480999999999L377.87349999999947 308.9918L379.22199999999975 307.4503500000003L383.89749999999935 297.0972499999999L391.35400000000004 288.5155500000002L396.39449999999897 280.35415L398.039 278.7641500000001L406.0074999999995 271.23175000000003L408.68949999999927 266.14660000000015L407.45900000000006 261.8864500000001L385.3514999999993 233.34675000000004L380.8924999999999 223.49505000000022L382.38200000000006 219.4384500000001L374.10949999999957 217.32619999999997L370.84649999999897 214.5166500000002L360.2684999999997 214.50510000000008L357.8824999999995 217.94140000000027L354.05399999999986 217.75275000000022L347.23299999999995 225.8460500000001L339.6774999999991 229.53685000000007L335.89849999999956 222.14589999999987L338.11399999999935 216.30870000000016L336.4924999999994 210.58810000000022L346.8329999999992 198.62950000000012L332.363499999999 196.30020000000002L325.98749999999995 190.83470000000005L332.7629999999999 190.16010000000023L348.6449999999991 175.84145000000007L358.3839999999998 172.03570000000013L356.086499999999 169.20240000000007L352.1909999999991 171.01740000000007L348.1274999999994 169.5309500000002L347.39149999999995 167.48460000000023L345.4269999999997 163.53760000000023L341.027499999999 163.40180000000004L332.645 156.27065000000016L330.28499999999894 150.0967L331.1799999999994 143.54790000000008L329.0954999999997 140.4031500000002L327.78799999999933 138.55180000000018L318.96799999999985 139.36915L315.59349999999995 136.39385000000004L315.29449999999997 136.5868500000002L307.1309999999994 132.9086000000001L297.73849999999925 115.37710000000004L293.2719999999995 115.9378000000001L288.4954999999991 111.14400000000018L284.28999999999974 116.0154L281.49299999999926 114.606L280.7684999999992 112.5639000000001L274.47599999999966 112.1738000000002L255.98249999999894 101.61405000000002L252.93349999999919 104.36914999999999L248.81199999999922 102.88480000000021L246.61199999999894 97.31240000000014L241.3569999999993 95.33405000000016L242.34099999999899 91.40460000000019L232.03049999999962 84.68150000000009L228.75749999999925 79.41940000000017L223.29399999999964 82.63300000000015L219.6029999999996 80.83875000000006L215.74699999999893 75.98325000000017L212.6069999999993 69.93855000000025L208.70000000000005 65.57815000000005L209.37099999999987 59.906799999999976L198.84249999999952 61.67205000000024L188.4744999999998 59.77249999999998L183.84349999999927 47.38990000000001L182.68749999999955 36.367250000000126L180.59149999999931 35.99425000000025L172.5929999999994 48.43970000000013L161.3225 49.83339999999998L157.01299999999947 45.07355000000018L160.385 34.906799999999976L156.34349999999927 27.471450000000175L155.54699999999912 19.682450000000244L163.2994999999994 13.528200000000083L161.76149999999893 5.654100000000142L153.68349999999964 2.8481000000002155L149.84899999999925 0.7532500000002074L139.01149999999916 1.1137999999999693L134.54349999999977 5.249250000000245L132.5389999999993 9.062350000000094L120.77649999999949 0L114.75049999999896 6.127250000000117L108.66649999999936 8.210800000000233L102.40499999999997 13.933000000000106L96.94599999999923 14.099649999999997L93.44349999999963 10.797500000000184L83.50849999999923 9.494850000000099L82.08699999999908 5.761600000000158L72.88799999999924 7.310300000000041L71.74049999999966 11.314350000000104L65.80749999999966 12.002300000000048L61.87999999999988 20.846400000000074L61.64649999999938 23.793050000000164L61.96299999999951 23.83550000000014L76.80849999999964 22.239350000000115L91.43349999999941 25.21800000000013L90.19899999999893 27.683750000000202L95.09599999999978 31.491000000000042L94.73099999999931 42.41755000000012L96.00399999999922 46.68210000000016L98.11049999999909 47.36225000000019L96.7109999999991 48.98355000000009L86.20599999999968 49.131399999999985L74.57499999999982 58.23145000000011L60.056999999999334 61.37130000000013L61.028499999999894 72.30200000000025L63.36500000000001 78.37640000000022L69.36449999999923 76.78420000000017L70.96099999999979 78.27685000000002L67.15999999999894 86.12435000000005L73.25099999999907 102.2455500000001L69.1319999999996 102.86230000000018L67.66849999999977 101.37335000000007L41.65399999999977 94.78715000000022L24.599999999999227 98.6629000000002L20.44399999999996 97.21100000000007L18.425999999999476 100.89905000000016L21.04449999999929 108.8303000000002L18.18049999999971 114.43275L16.76849999999945 114.5360500000001L13.10649999999896 119.2607000000001L13.622499999999036 125.70090000000022L10.478999999999132 135.99125000000015L11.32199999999898 140.23775L0 141.8243000000001L3.8049999999998363 149.17580000000015L19.998999999999114 157.17280000000017L21.298499999999194 162.5965500000001L26.02649999999926 169.17034999999998L22.73499999999899 174.51720000000023L28.642999999999574 176.0438000000002L34.64949999999931 184.6775500000001L31.929999999999836 186.6805500000001L32.62049999999931 189.8291500000002L34.35549999999921 191.13425000000007L38.12149999999974 189.05595000000005L50.91649999999959 190.3630000000001L56.67899999999918 193.36534999999998L54.29549999999949 206.84335000000004L62.820999999999 212.66435L70.57749999999942 213.53105L81.65199999999913 220.59335000000033L88.25899999999933 220.9597500000001L91.22499999999945 224.16515000000004L79.64249999999993 234.68330000000037L84.34499999999957 241.65414999999996L84.76699999999937 247.95515000000023L88.74499999999898 247.49000000000024L95.20949999999971 251.78080000000023L91.84999999999945 259.91739999999993L98.84299999999939 271.08745L93.36299999999937 277.6062000000002L92.5464999999997 281.91280000000006L93.04949999999963 283.19375000000036L91.99349999999981 287.21310000000017L95.49499999999966 294.4566500000002L88.71649999999931 299.15525L90.32199999999989 303.22299999999984L100.13499999999908 307.72460000000024L100.09299999999939 314.37569999999994L97.52649999999903 317.9417000000001L97.43849999999952 318.02014999999983L93.60799999999927 326.01405L94.34849999999983 328.0855500000001L90.10899999999992 333.0680000000001L89.14749999999913 337.3010500000004L89.91349999999898 343.7129500000003L94.88999999999919 350.4459000000003L85.75549999999907 358.4064000000001L87.77299999999968 365.77170000000024L91.94149999999922 367.34730000000013L106.6579999999999 362.7437500000002L112.45049999999992 362.06889999999987L118.91199999999913 369.69685000000027L133.3319999999992 360.0670500000001L140.58549999999968 371.0711500000002L141.181499999999 377.69724999999994L143.76499999999965 381.29009999999994L154.95349999999917 376.2329L162.98999999999978 377.3307L168.1364999999994 373.5210000000001L170.8719999999994 363.05385L166.2545 353.44375000000014L174.66499999999996 349.77900000000034L171.94599999999923 341.91070000000025L169.14699999999925 339.12585000000036L173.10949999999934 338.45365000000015L170.44549999999958 335.52324999999996L169.45499999999925 327.5297499999999L172.9469999999992 325.64054999999996L178.12849999999912 329.64765L193.11199999999985 329.49535000000026L209.5049999999992 335.4570000000001L210.88149999999928 331.88015000000007L216.0564999999997 330.6495000000001L220.8459999999991 323.8143500000001L226.94999999999936 321.72090000000026L230.94949999999926 323.1737000000004L237.20399999999927 322.2851000000003L239.39599999999928 318.95475000000033L241.54199999999946 319.1288000000003L242.6974999999993 323.4707500000002L238.6564999999996 336.36945000000026L248.48199999999906 344.3232499999999L262.8239999999994 348.45669999999984L266.36049999999955 353.7576999999999L268.4164999999996 354.4245000000001L269.80099999999993 352.7674000000002L271.05549999999994 357.4812000000003L276.98299999999904 345.9221500000001L280.249 343.09754999999996L285.711 346.39355000000023L283.6284999999998 350.1859999999999L279.63499999999954 352.0942000000002L279.00800000000004 358.5707000000002z">
      <title id="t246">Deuxième circonscription de la Haute-Marne</title>
      <desc id="d246">Cantons de : Andelot-Blancheville, Blaiserives (le canton de Blaiserives est devenu le canton de Doulevant-le-Château par suite du changement de nom de sa commune chef-lieu par décret du 19 octobre 1992), Chevillon, Doulaincourt-Saucourt, Joinville, Juzennecourt, Montier-en-Der, Poissons, Saint-Blin-Semilly, Saint-Dizier Centre, Saint-Dizier-Nord-Est, Saint-Dizier Ouest, Dizier Sud-Est, Vignory, Wassy</desc>
    </path></svg>