<svg xmlns="http://www.w3.org/2000/svg" version="1.1" xmlns:xlink="http://www.w3.org/1999/xlink" xmlns:svgjs="http://svgjs.dev/svgjs" width="504.72399999999993" height="531.6957000000002" fill="#eeeeee" stroke="#cccccc" xmlns:sodipodi="http://sodipodi.sourceforge.net/DTD/sodipodi-0.dtd"><path class="circo" id="id-053-01" d="M207.8895 347.1989500000001L200.69899999999961 337.5160999999997L186.04649999999992 339.97284999999977L181.27849999999967 337.59239999999977L186.78999999999974 328.33905000000016L184.10049999999956 324.9117000000001L184.5335 318.8625000000002L186.8399999999997 319.2396500000001L189.29249999999968 318.15765L198.39650000000006 317.7859000000001L198.3159999999998 310.5231500000002L196.23249999999985 305.9797500000002L179.0469999999999 308.95105L172.10699999999974 304.1753L164.4844999999998 294.35940000000016L160.87699999999984 292.36265000000003L156.9135 284.7341L160.9654999999998 283.86439999999993L161.74099999999953 281.9274999999999L158.95800000000008 274.25005L159.96749999999963 272.42144999999994L165.96299999999985 274.0787L168.7115 269.1818999999998L168.0129999999997 265.39350000000013L173.8794999999999 263.07005000000004L184.44699999999955 262.2016500000001L195.87400000000002 267.4588L199.58799999999997 266.39115000000004L200.9604999999999 258.1983500000001L211.164 259.39945000000023L207.7279999999996 253.67324999999994L211.49699999999996 245.61624999999992L215.28599999999983 243.40935000000002L217.63299999999958 246.9217500000002L223.82299999999987 249.02899999999988L224.64650000000006 255.24225L229.77899999999977 259.0127000000001L229.9554999999998 261.1911500000002L229.2429999999996 263.4573999999998L236.63099999999986 266.0662500000001L238.51200000000006 265.30115000000023L238.44850000000008 259.2548499999998L236.0364999999996 256.0043999999999L238.66349999999954 252.79890000000023L258.05000000000007 255.18169999999998L261.61249999999995 253.99L263.8149999999996 257.22915L268.0744999999996 256.76969999999983L273.7565000000001 259.78115L282.2844999999995 260.3227499999997L281.8299999999999 253.93775000000005L277.91999999999973 249.2419000000001L282.4399999999997 242.22679999999968L282.9599999999999 240.0553500000001L279.06499999999994 234.69625000000008L277.3755 228.24180000000013L276.2489999999997 222.46804999999995L279.7904999999997 215.4108500000001L288.41499999999996 215.30685000000005L295.26599999999974 209.90599999999972L299.90849999999966 205.0410499999998L299.3214999999998 200.6234999999998L296.5274999999997 197.10994999999969L296.6489999999999 190.46294999999986L301.01999999999975 186.52809999999988L306.6149999999999 188.42280000000017L307.8204999999997 186.76440000000014L312.0704999999998 191.7163499999998L320.69199999999967 193.36299999999994L334.3439999999998 186.5734500000002L337.5110000000001 184.50240000000008L338.60599999999977 181.07205000000022L343.4145000000001 180.20084999999995L347.7324999999996 175.40489999999977L349.0324999999996 167.39120000000014L354.3939999999998 163.84979999999985L358.8579999999996 161.04359999999986L365.3399999999999 156.02179999999976L368.5264999999998 137.3050999999998L381.51399999999967 139.58444999999983L390.2484999999996 133.0408L392.74099999999976 139.0868999999998L395.19199999999955 136.59899999999993L394.62850000000003 130.67340000000002L396.4799999999997 121.36574999999993L395.369 119.79925000000009L397.64250000000004 117.56014999999991L395.9504999999996 111.29754999999989L400.18899999999974 106.55484999999999L398.32400000000007 102.62654999999995L407.9145 98.39740000000006L405.2999999999997 87.05899999999986L400.25149999999996 80.30810000000002L399.9784999999997 78.17904999999996L407.67849999999953 71.03729999999985L409.58799999999997 70.0580500000001L415.4604999999998 72.10499999999996L416.4195000000001 63.252999999999986L421.77549999999997 56.895999999999844L425.99049999999977 56.37599999999992L429.70249999999965 58.20904999999982L438.2804999999996 50.02404999999982L437.13899999999967 44.16924999999992L453.1329999999997 42.27384999999998L455.09199999999964 41.73824999999994L459.4029999999998 46.02350000000001L460.2049999999997 49.969549999999856L462.448 57.14155000000005L461.0255000000001 58.42829999999992L463.31399999999974 61.845950000000016L462.9679999999996 70.06574999999998L467.68749999999955 73.89354999999995L480.2619999999996 76.96550000000002L492.12649999999996 75.88705000000004L494.1784999999999 75.55900000000008L495.71199999999976 71.80059999999997L499.6879999999999 71.52500000000003L504.72399999999993 75.32125000000008L502.80299999999954 88.13704999999999L501.7994999999996 89.09909999999996L503.46649999999954 111.88005000000004L501.89899999999966 115.34069999999986L503.0955 119.24125000000004L500.73649999999986 122.12079999999986L496.80499999999995 121.89999999999998L492.78449999999964 126.79209999999983L487.0400000000001 123.96995000000004L478.6009999999999 124.20474999999982L476.3274999999999 128.03325L468.3355 131.5766500000001L469.8399999999998 142.45835L474.32699999999954 147.19069999999988L463.3409999999998 143.46034999999972L460.10699999999986 145.8409499999999L459.1209999999995 149.6112499999998L460.4449999999997 162.6803000000001L463.2034999999996 162.79470000000003L465.7919999999996 166.29340000000013L467.3614999999995 174.90025000000003L463.4114999999997 179.99325L462.07799999999963 186.1079000000001L462.53150000000005 186.84289999999976L456.32349999999974 197.7573000000001L457.86249999999995 210.7477L464.47249999999997 221.53160000000014L461.4474999999999 226.67854999999975L463.8644999999997 232.30745000000013L456.2610000000001 235.7477L450.3199999999998 241.6313500000001L447.2584999999998 246.0605499999997L427.9109999999997 255.5219999999997L421.4484999999996 260.90125L419.92849999999976 262.32399999999984L420.7389999999998 264.24105L424.74249999999984 268.13215000000014L418.4004999999996 275.94854999999995L406.8334999999996 282.7546000000001L398.0714999999998 281.71609999999987L394.62049999999977 289.9685499999998L388.13949999999977 291.77255L385.8684999999997 284.2547000000002L380.18249999999966 278.4971999999999L371.83850000000007 278.6003499999998L367.5644999999997 290.47590000000014L360.02700000000004 294.54335000000015L354.37599999999975 297.7740499999999L350.15199999999993 298.55365000000006L349.20050000000003 296.8976500000002L341.8829999999997 298.9590499999997L331.44900000000007 299.90920000000017L325.61499999999967 297.8447L319.9219999999997 300.17139999999984L316.80849999999964 301.3697000000002L315.22400000000005 306.8966499999999L304.91049999999973 317.5445500000001L309.0269999999998 323.9489500000002L309.5384999999999 334.31539999999984L296.32649999999956 331.3680499999998L290.5699999999996 337.3260499999998L288.8040000000001 336.0140000000001L289.18450000000007 329.4854499999997L287.7999999999997 327.77825000000007L277.39599999999996 329.92925000000014L273.70000000000005 337.69724999999994L268.0989999999997 334.3001499999997L260.0584999999995 335.13930000000016L254.15699999999958 340.40504999999996L248.36099999999988 352.2378500000002L248.76449999999977 354.4285500000001L261.48649999999975 357.8521999999998L261.3835 366.0740499999997L252.03049999999962 369.3326000000002L235.59550000000002 378.8384500000001L231.64999999999964 378.6003999999997L230.1819999999998 387.94489999999996L232.13099999999997 391.2324000000001L228.82599999999968 393.8177000000002L220.31299999999987 395.5741499999999L220.42399999999986 391.37834999999995L216.17399999999975 386.96489999999983L219.86400000000003 382.1408500000001L216.3394999999997 374.62080000000014L215.9979999999996 372.69180000000006L211.4934999999997 370.068L212.18899999999962 357.2633000000002L207.8895 347.1989500000001z">
      <title id="t247">Première circonscription de la Mayenne</title>
      <desc id="d247">Cantons de : Argentré, Bais, Evron, Laval Est, Laval Nord-Est, Laval Saint-Nicolas, Laval Sud-Ouest, Montsûrs, Pré-en-Pail, Villaines-la-Juhel</desc>
    </path><path class="circo" id="id-053-02" d="M304.37299999999993 499.70545000000016L305.967 510.0038999999998L299.7735 520.7560999999998L288.10699999999997 516.4922000000001L282.69349999999974 518.85085L277.7895000000001 515.87895L266.6669999999999 530.2371999999997L251.61149999999964 529.4681500000002L248.40449999999976 531.6957000000002L241.58149999999978 527.0362999999998L233.06299999999965 527.7080999999998L224.82899999999972 525.1288499999998L220.91799999999978 526.9535000000002L215.3354999999999 526.3177000000002L211.67949999999962 527.8812499999998L207.63949999999966 526.4958999999999L203.4219999999999 519.3389000000002L201.39599999999973 518.6554999999998L193.32249999999988 521.0703000000001L190.81249999999955 515.3694000000002L181.27099999999984 511.48349999999994L179.43299999999965 507.77229999999975L171.21699999999976 508.78724999999974L169.37199999999962 509.63525000000004L169.5614999999998 519.7497499999997L160.81799999999987 516.0705000000002L146.66399999999953 512.02155L146.71899999999994 509.8995500000001L145.5314999999996 505.62725L136.08349999999973 500.25509999999997L130.18849999999986 493.6800499999998L130.27549999999962 497.72305000000017L128.24899999999957 497.88749999999993L122.27499999999964 492.40020000000015L118.36199999999963 491.89594999999997L113.1189999999998 500.2323000000001L118.87849999999958 502.7806499999997L121.54749999999979 508.5564499999998L110.4159999999996 513.60795L106.93249999999978 513.0149L101.33199999999988 512.1195999999998L98.56499999999983 509.75914999999986L94.69699999999989 508.99909999999977L92.37799999999993 505.51530000000014L86.93899999999985 507.8285999999997L82.78449999999964 507.02170000000024L69.36849999999993 505.8960000000002L69.13299999999992 505.7373000000001L64.88099999999974 504.61284999999975L61.79749999999956 501.4612999999997L41.87749999999994 499.04949999999985L42.84749999999974 504.34529999999995L41.54299999999978 505.5823499999997L31.123499999999922 502.9349500000001L25.679499999999962 499.2847999999998L19.215999999999553 498.29425000000015L16.531499999999824 492.5761L12.301499999999805 491.6106500000001L9.86249999999984 487.97754999999995L0 483.24929999999995L2.290999999999599 477.1703000000002L6.417500000000018 477.54185000000007L9.42199999999957 466.6880500000002L10.231999999999744 462.6615499999997L6.853999999999587 457.6883499999997L10.697499999999991 453.3490999999998L14.972999999999956 453.5827999999998L20.863499999999817 446.70320000000004L17.335499999999797 439.53575L17.478999999999587 435.3702499999997L19.591499999999655 431.92745L26.383500000000026 427.6817999999997L26.578999999999837 419.29464999999993L29.584499999999707 416.4265999999998L31.926499999999578 408.4267L30.218999999999596 404.56680000000006L33.464500000000044 401.36505L32.70999999999958 392.65645000000006L34.87549999999999 385.3527500000001L38.05749999999989 382.96479999999974L46.05699999999956 381.0566L49.28099999999972 371.34945000000016L55.56449999999984 369.8476499999998L61.736999999999966 370.71635000000015L67.80550000000005 372.6841999999999L72.00649999999996 373.61125000000015L79.87499999999955 372.5413500000002L88.33249999999964 367.5633499999998L89.15549999999996 369.6100999999999L95.57549999999992 370.9983L100.19499999999994 383.2631500000002L108.62599999999986 384.67105000000004L110.36299999999983 378.3883500000002L123.56799999999964 377.1681000000001L127.02499999999986 374.32304999999985L131.5179999999998 377.2678000000002L133.06099999999958 376.2982999999997L134.96749999999963 375.2995499999997L134.29399999999987 371.02494999999976L139.99599999999987 357.34969999999976L142.10199999999986 353.6445500000002L134.62049999999977 350.9028999999998L131.99099999999987 340.81309999999974L131.92799999999977 340.7018999999997L138.09399999999982 341.6139499999997L144.01449999999954 335.2377999999999L147.99149999999997 333.4431999999998L151.3209999999998 325.4019999999997L153.47099999999955 324.98609999999985L147.6804999999996 319.3305499999997L145.514 313.2655999999997L149.68399999999974 313.70135000000005L151.207 312.1357999999998L146.69799999999952 305.1538999999997L147.61799999999994 303.1819999999999L158.34299999999985 302.4011999999999L160.74149999999975 298.8432L160.87699999999984 292.36265000000003L164.4844999999998 294.35940000000016L172.10699999999974 304.1753L179.0469999999999 308.95105L196.23249999999985 305.9797500000002L198.3159999999998 310.5231500000002L198.39650000000006 317.7859000000001L189.29249999999968 318.15765L186.8399999999997 319.2396500000001L184.5335 318.8625000000002L184.10049999999956 324.9117000000001L186.78999999999974 328.33905000000016L181.27849999999967 337.59239999999977L186.04649999999992 339.97284999999977L200.69899999999961 337.5160999999997L207.8895 347.1989500000001L212.18899999999962 357.2633000000002L211.4934999999997 370.068L215.9979999999996 372.69180000000006L216.3394999999997 374.62080000000014L219.86400000000003 382.1408500000001L216.17399999999975 386.96489999999983L220.42399999999986 391.37834999999995L220.31299999999987 395.5741499999999L228.82599999999968 393.8177000000002L232.13099999999997 391.2324000000001L230.1819999999998 387.94489999999996L231.64999999999964 378.6003999999997L235.59550000000002 378.8384500000001L252.03049999999962 369.3326000000002L261.3835 366.0740499999997L261.48649999999975 357.8521999999998L248.76449999999977 354.4285500000001L248.36099999999988 352.2378500000002L254.15699999999958 340.40504999999996L260.0584999999995 335.13930000000016L268.0989999999997 334.3001499999997L273.70000000000005 337.69724999999994L277.39599999999996 329.92925000000014L287.7999999999997 327.77825000000007L289.18450000000007 329.4854499999997L288.8040000000001 336.0140000000001L290.5699999999996 337.3260499999998L296.32649999999956 331.3680499999998L309.5384999999999 334.31539999999984L309.0269999999998 323.9489500000002L304.91049999999973 317.5445500000001L315.22400000000005 306.8966499999999L316.80849999999964 301.3697000000002L319.9219999999997 300.17139999999984L325.61499999999967 297.8447L331.44900000000007 299.90920000000017L341.8829999999997 298.9590499999997L349.20050000000003 296.8976500000002L350.15199999999993 298.55365000000006L354.37599999999975 297.7740499999999L360.02700000000004 294.54335000000015L367.5644999999997 290.47590000000014L371.83850000000007 278.6003499999998L380.18249999999966 278.4971999999999L385.8684999999997 284.2547000000002L388.13949999999977 291.77255L394.62049999999977 289.9685499999998L398.0714999999998 281.71609999999987L406.8334999999996 282.7546000000001L418.4004999999996 275.94854999999995L422.17150000000004 276.4408500000002L423.78499999999974 282.04589999999996L431.50999999999954 284.7392000000002L431.62949999999967 288.3751000000001L434.3349999999998 290.8043500000002L433.4634999999997 295.10474999999985L426.5439999999995 300.5932999999999L426.148 302.7810999999997L425.86250000000007 309.36015L431.33249999999975 312.9399000000001L430.22149999999954 317.21889999999973L428.1184999999999 325.2958000000001L424.32799999999986 323.36644999999976L409.7194999999999 321.8121500000001L404.6889999999996 325.67034999999976L406.0804999999999 327.0094999999998L404.25749999999994 328.33399999999983L391.76999999999964 333.6396000000002L385.86599999999976 330.7684999999998L381.5535 334.78200000000015L384.11599999999964 342.21330000000023L382.5524999999999 355.0714999999997L394.9459999999999 359.22304999999994L395.14449999999954 359.19129999999996L393.47549999999956 362.1049999999997L393.65399999999966 366.3712499999997L398.96500000000003 377.6213999999999L398.5729999999995 383.94994999999994L403.7189999999998 387.3533500000002L407.1904999999998 389.5639L407.0489999999995 391.63914999999974L399.68950000000007 398.70225000000005L393.8065 400.6754000000001L390.2709999999996 403.8531499999999L385.8824999999996 402.9986500000001L382.31899999999996 405.6293499999998L362.7099999999996 406.67854999999975L359.2734999999999 408.9068500000002L357.2649999999999 414.65480000000014L350.80449999999985 416.1970500000001L353.50449999999967 419.6497499999998L354.547 426.01834999999994L351.5749999999997 429.1790500000002L359.4225 431.10095L360.0094999999999 433.1082500000002L366.11099999999965 434.30740000000014L368.6474999999996 442.0133499999997L365.6194999999997 447.3259999999999L366.9069999999999 453.0970000000002L351.15399999999966 453.0855500000001L351.59599999999955 460.0499500000001L345.4309999999998 458.33815000000016L342.46350000000007 463.7614500000001L335.90299999999957 469.29595000000006L338.8259999999997 472.1796499999999L341.7824999999999 483.8423L349.04449999999997 487.8807499999999L361.2819999999999 486.2058000000002L361.73099999999977 486.8708499999997L364.7334999999998 500.74464999999975L366.53399999999976 511.1382500000002L364.0429999999998 514.5089000000002L363.0759999999998 510.34155L352.1764999999999 503.4687500000001L350.0279999999998 503.1683499999997L352.0034999999996 511.5713999999997L343.86750000000006 510.3073999999998L333.34649999999954 516.6173500000002L330.0659999999999 511.06555000000014L322.1619999999996 504.1220499999997L310.7339999999999 499.0165999999999L305.3129999999999 498.0962499999998L304.37299999999993 499.70545000000016z">
      <title id="t248">Deuxième circonscription de la Mayenne</title>
      <desc id="d248">Cantons de : Bierné, Château-Gontier Est, Château-Gontier Ouest, Cossé-le-Vivien, Craon, Grez-en-Bouère, Laval Nord-Ouest, Meslay-du-Maine, Saint-Aignan-sur-Roë, Saint-Berthevin, Sainte-Suzanne</desc>
    </path><path class="circo" id="id-053-03" d="M248.22249999999997 79.19459999999987L248.35399999999993 73.19249999999982L246.5424999999999 59.77524999999986L242.00699999999983 52.32939999999985L241.90549999999973 54.36144999999982L239.89100000000008 54.12035000000003L235.70400000000006 58.43344999999999L235.72949999999992 62.43889999999993L233.86750000000006 63.24209999999994L229.76149999999961 64.06389999999988L227.37449999999967 61.0298499999999L221.55749999999955 62.67799999999994L218.0314999999996 60.65674999999999L214.81499999999983 63.4940499999999L213.77849999999967 67.75139999999993L221.99799999999982 75.12519999999995L204.75750000000005 84.06874999999985L201.139 83.82659999999987L197.32699999999966 80.3676999999999L195.06799999999998 76.6790499999999L195.66599999999994 65.82214999999991L189.05699999999968 65.9151L180.84649999999954 72.54654999999985L178.35649999999987 63.887L179.45149999999956 62.11899999999986L176.9169999999997 58.985449999999844L170.69500000000005 52.9648499999999L166.78549999999973 45.03510000000006L160.60749999999985 42.70939999999996L145.44699999999978 46.93420000000003L136.0749999999996 43.18275L133.61249999999984 35.216000000000065L125.043 34.251700000000085L120.85999999999956 32.87284999999997L117.31249999999989 35.4495L116.61699999999996 41.921700000000044L112.40549999999985 46.95795000000004L99.99549999999999 50.65444999999983L96.22849999999971 48.13735000000008L75.44150000000002 33.77049999999997L74.52399999999955 37.00784999999996L71.43899999999974 38.195949999999925L72.58849999999995 40.04349999999988L69.418 42.917850000000044L68.36749999999995 49.35585000000003L69.98499999999979 59.74384999999984L73.78349999999955 64.8599999999999L72.71599999999978 69.07809999999984L73.49299999999971 74.89769999999993L67.16599999999971 80.88729999999998L66.16049999999973 85.15265L68.01249999999982 93.63045L67.91549999999972 95.87954999999994L67.37149999999986 96.59419999999983L78.82249999999999 119.92850000000004L77.21299999999985 121.04320000000001L73.70299999999986 128.68899999999996L77.37750000000005 130.53904999999986L75.87799999999959 139.04659999999978L77.55299999999977 145.38374999999974L81.7814999999996 152.72269999999992L76.0899999999998 163.88750000000016L75.35149999999987 164.58725000000015L65.88750000000005 174.07485000000008L62.64849999999967 180.0213500000001L61.460500000000025 188.9955500000002L58.78749999999968 191.87340000000006L59.32299999999998 202.7675499999998L67.00400000000002 223.06510000000003L64.23299999999983 229.09899999999993L66.45649999999989 232.2188L69.65749999999957 235.20125000000007L68.01150000000007 248.27369999999974L69.84049999999968 261.4428499999997L73.98799999999994 261.95764999999994L76.05699999999956 282.9806500000001L78.76149999999996 295.35739999999976L80.37800000000004 305.8245499999998L84.11849999999959 313.1472500000001L90.42550000000006 318.3892500000002L92.12349999999958 319.3050999999997L89.26549999999963 323.9960000000002L87.1569999999997 330.1486L89.32199999999966 338.3437500000002L86.99899999999957 342.0645999999999L92.15899999999976 351.70095000000003L93.52350000000001 361.81539999999984L92.03199999999981 365.70314999999994L88.33249999999964 367.5633499999998L89.15549999999996 369.6100999999999L95.57549999999992 370.9983L100.19499999999994 383.2631500000002L108.62599999999986 384.67105000000004L110.36299999999983 378.3883500000002L123.56799999999964 377.1681000000001L127.02499999999986 374.32304999999985L131.5179999999998 377.2678000000002L133.06099999999958 376.2982999999997L134.96749999999963 375.2995499999997L134.29399999999987 371.02494999999976L139.99599999999987 357.34969999999976L142.10199999999986 353.6445500000002L134.62049999999977 350.9028999999998L131.99099999999987 340.81309999999974L131.92799999999977 340.7018999999997L138.09399999999982 341.6139499999997L144.01449999999954 335.2377999999999L147.99149999999997 333.4431999999998L151.3209999999998 325.4019999999997L153.47099999999955 324.98609999999985L147.6804999999996 319.3305499999997L145.514 313.2655999999997L149.68399999999974 313.70135000000005L151.207 312.1357999999998L146.69799999999952 305.1538999999997L147.61799999999994 303.1819999999999L158.34299999999985 302.4011999999999L160.74149999999975 298.8432L160.87699999999984 292.36265000000003L156.9135 284.7341L160.9654999999998 283.86439999999993L161.74099999999953 281.9274999999999L158.95800000000008 274.25005L159.96749999999963 272.42144999999994L165.96299999999985 274.0787L168.7115 269.1818999999998L168.0129999999997 265.39350000000013L173.8794999999999 263.07005000000004L184.44699999999955 262.2016500000001L195.87400000000002 267.4588L199.58799999999997 266.39115000000004L200.9604999999999 258.1983500000001L211.164 259.39945000000023L207.7279999999996 253.67324999999994L211.49699999999996 245.61624999999992L215.28599999999983 243.40935000000002L217.63299999999958 246.9217500000002L223.82299999999987 249.02899999999988L224.64650000000006 255.24225L229.77899999999977 259.0127000000001L229.9554999999998 261.1911500000002L229.2429999999996 263.4573999999998L236.63099999999986 266.0662500000001L238.51200000000006 265.30115000000023L238.44850000000008 259.2548499999998L236.0364999999996 256.0043999999999L238.66349999999954 252.79890000000023L258.05000000000007 255.18169999999998L261.61249999999995 253.99L263.8149999999996 257.22915L268.0744999999996 256.76969999999983L273.7565000000001 259.78115L282.2844999999995 260.3227499999997L281.8299999999999 253.93775000000005L277.91999999999973 249.2419000000001L282.4399999999997 242.22679999999968L282.9599999999999 240.0553500000001L279.06499999999994 234.69625000000008L277.3755 228.24180000000013L276.2489999999997 222.46804999999995L279.7904999999997 215.4108500000001L288.41499999999996 215.30685000000005L295.26599999999974 209.90599999999972L299.90849999999966 205.0410499999998L299.3214999999998 200.6234999999998L296.5274999999997 197.10994999999969L296.6489999999999 190.46294999999986L301.01999999999975 186.52809999999988L306.6149999999999 188.42280000000017L307.8204999999997 186.76440000000014L312.0704999999998 191.7163499999998L320.69199999999967 193.36299999999994L334.3439999999998 186.5734500000002L337.5110000000001 184.50240000000008L338.60599999999977 181.07205000000022L343.4145000000001 180.20084999999995L347.7324999999996 175.40489999999977L349.0324999999996 167.39120000000014L354.3939999999998 163.84979999999985L358.8579999999996 161.04359999999986L365.3399999999999 156.02179999999976L368.5264999999998 137.3050999999998L381.51399999999967 139.58444999999983L390.2484999999996 133.0408L392.74099999999976 139.0868999999998L395.19199999999955 136.59899999999993L394.62850000000003 130.67340000000002L396.4799999999997 121.36574999999993L395.369 119.79925000000009L397.64250000000004 117.56014999999991L395.9504999999996 111.29754999999989L400.18899999999974 106.55484999999999L398.32400000000007 102.62654999999995L407.9145 98.39740000000006L405.2999999999997 87.05899999999986L400.25149999999996 80.30810000000002L399.9784999999997 78.17904999999996L407.67849999999953 71.03729999999985L409.58799999999997 70.0580500000001L415.4604999999998 72.10499999999996L416.4195000000001 63.252999999999986L421.77549999999997 56.895999999999844L425.99049999999977 56.37599999999992L429.70249999999965 58.20904999999982L438.2804999999996 50.02404999999982L437.13899999999967 44.16924999999992L453.1329999999997 42.27384999999998L455.4359999999997 34.21059999999983L464.4799999999998 30.06949999999989L464.81349999999964 25.83859999999987L450.0880000000001 16.91945000000004L444.7864999999996 10.481450000000052L443.0279999999999 7.760299999999916L438.14750000000004 3.518799999999942L432.40849999999966 5.002250000000004L426.2129999999996 3.0653999999998405L423.14750000000004 0L420.31949999999995 7.655599999999936L416.8430000000001 10.302350000000047L415.523 12.11484999999982L422.9694999999998 19.8639L419.6629999999999 25.628099999999847L412.2030000000001 30.386450000000025L410.85999999999956 38.86445000000009L405.0229999999999 38.09654999999992L404.769 33.91355000000004L402.9784999999998 32.82154999999989L394.9619999999999 31.88664999999986L390.1664999999997 28.934349999999824L383.90449999999987 37.81810000000007L383.11699999999973 42.09104999999994L375.9074999999996 45.89200000000005L376.1779999999999 54.05045000000001L370.7964999999996 51.630449999999826L369.83299999999986 48.06295000000006L366.57299999999964 46.146599999999864L359.0949999999998 42.95694999999995L359.66700000000003 39.24739999999986L357.2629999999998 36.902000000000044L353.9364999999998 39.51234999999997L345.4509999999999 38.92149999999987L345.8654999999999 38.38969999999989L336.3409999999999 34.06239999999997L334.70699999999965 35.42254999999983L328.1664999999998 35.61184999999995L323.03200000000004 42.63755000000003L316.8834999999996 42.286049999999875L309.8159999999996 37.97335000000004L305.847 45.21469999999994L298.9299999999997 49.06534999999991L291.1734999999999 60.97984999999994L289.1184999999996 61.488200000000006L286.4564999999999 58.48534999999998L283.31849999999974 63.569650000000024L274.1519999999997 62.3420999999999L273.6824999999999 61.26640000000009L265.47199999999975 68.89864999999986L248.22249999999997 79.19459999999987z">
      <title id="t249">Troisième circonscription de la Mayenne</title>
      <desc id="d249">Cantons de : Ambrières-les-Vallées, Chailland, Couptrain, Ernée, Gorron, Le Horps, Landivy, Lassay-les-Châteaux, Loiron, Mayenne Est, Mayenne Ouest</desc>
    </path></svg>