<svg xmlns="http://www.w3.org/2000/svg" version="1.1" xmlns:xlink="http://www.w3.org/1999/xlink" xmlns:svgjs="http://svgjs.dev/svgjs" width="721.3675000000001" height="784.8584500000002" fill="#eeeeee" stroke="#cccccc" xmlns:sodipodi="http://sodipodi.sourceforge.net/DTD/sodipodi-0.dtd"><path class="circo" id="id-054-01" d="M330.6574999999998 561.1423500000001L335.35300000000007 560.9511L338.8295000000005 562.8674000000001L345.04800000000046 562.2995000000001L343.27600000000075 570.17235L344.4265000000007 578.2048L353.1835000000001 577.1061500000002L356.18150000000014 573.8924L360.3920000000005 573.6446000000001L364.1935000000001 563.8925L364.8149999999998 562.97945L365.4570000000001 561.30785L368.6315000000002 558.76225L369.7765000000004 554.86785L371.8074999999999 554.8253500000001L375.2875000000006 557.3255L383.7790000000007 555.9498500000001L387.46399999999994 561.1037000000001L390.5555000000004 556.7478L388.297 553.0045000000001L397.9894999999999 548.85365L402.24000000000046 544.23325L400.9310000000005 539.5252000000003L410.0999999999999 533.1434000000002L415.9305000000006 540.0259L416.33800000000065 544.5335L420.5475000000001 547.4880000000002L424.4495000000006 546.04555L425.93450000000075 538.0644000000001L430.50250000000005 533.8549L431.93449999999984 535.3739000000002L430.1330000000007 529.5681999999999L432.7184999999997 524.2726500000001L436.7960000000005 517.8169L435.8064999999999 509.31475000000006L431.8939999999998 508.08670000000006L428.0860000000007 502.8508500000001L411.8355000000008 512.0983000000001L409.23 508.32795000000004L401.63650000000075 505.6853000000001L396.40300000000025 508.9568L395.08100000000013 500.951L390.66599999999994 501.97675000000004L379.5645000000002 509.87975000000006L377.16499999999996 505.6621000000001L371.72500000000014 499.09165L357.9785000000004 503.85459999999995L351.57050000000027 503.96105000000006L347.0905000000005 508.29890000000006L341.1959999999999 510.33829999999995L341.1845000000005 511.60945L332.38699999999994 513.3043L317.1980000000008 515.9508L317.6825000000008 512.0867000000001L314.6685000000002 514.3747999999999L310.9665000000007 499.6587500000001L313.5575000000006 491.03375L317.5940000000003 489.3087L316.59650000000056 483.2733000000002L315.3264999999999 483.73355000000004L307.9804999999999 491.90235L290.7529999999997 496.57794999999993L292.59000000000015 500.51230000000004L297.96299999999974 504.0288000000001L303.7635 506.8205500000002L302.6999999999998 517.5751L307.8565000000003 521.4837L309.26649999999995 529.5243500000001L315.03900000000044 529.98265L315.3520000000003 530.1115500000001L320.2940000000001 532.9449L316.62750000000074 537.9825500000002L318.8130000000001 541.5974500000002L318.4884999999997 545.78915L317.81150000000025 549.69885L320.5690000000004 554.88975L314.37700000000063 557.2199L307.77649999999994 556.3459500000001L302.19150000000013 559.8679500000001L302.1424999999999 563.7273500000001L315.8170000000007 560.7456999999999L319.12649999999985 564.9236000000002L320.6060000000002 564.3097500000001L322.58550000000014 568.2526000000001L324.7975000000008 569.2209L322.25599999999986 569.778L314.48849999999993 571.5953000000002L312.67600000000016 573.7617500000001L312.9845 580.7907L314.89850000000047 581.5977L323.44550000000027 575.7609500000001L326.8074999999999 578.1971000000001L330.3750000000002 575.9727L334.3820000000005 577.5959500000001L330.6574999999998 561.1423500000001z">
      <title id="t250">Première circonscription de Meurthe-et-Moselle</title>
      <desc id="d250">Cantons de : Nancy Est, Nancy Nord, Nancy Sud, Malzéville, Saint-Max, Seichamps</desc>
    </path><path class="circo" id="id-054-02" d="M297.3890000000006 595.1219000000001L294.6785 598.54645L289.9255000000005 594.1956000000002L282.50600000000077 581.3351L278.25900000000047 581.38275L275.5735000000004 565.6045500000002L275.5465000000004 565.1107000000002L289.2685000000006 562.8101000000001L302.19150000000013 559.8679500000001L302.1424999999999 563.7273500000001L315.8170000000007 560.7456999999999L319.12649999999985 564.9236000000002L320.6060000000002 564.3097500000001L322.58550000000014 568.2526000000001L324.7975000000008 569.2209L322.25599999999986 569.778L314.48849999999993 571.5953000000002L312.67600000000016 573.7617500000001L312.9845 580.7907L314.89850000000047 581.5977L323.44550000000027 575.7609500000001L326.8074999999999 578.1971000000001L330.3750000000002 575.9727L334.3820000000005 577.5959500000001L337.61150000000043 577.7337L333.90949999999975 582.9877000000001L334.1485 587.2030000000001L335.40399999999977 593.6713L329.1160000000002 598.2447999999999L326.1775 596.8168500000002L321.11600000000067 604.9546499999999L328.06100000000015 613.3514L328.3794999999998 617.6065L330.1814999999999 618.84905L330.9585000000004 619.4705999999999L327.5305000000003 621.0614499999999L317.90700000000015 619.2019500000001L308.57950000000073 613.3469L308.12200000000075 608.8951500000002L306.7420000000004 605.1520500000001L309.05849999999987 601.9043999999999L308.0365000000006 596.8439000000001L304.7840000000008 594.69865L297.3890000000006 595.1219000000001z">
      <title id="t251">Deuxième circonscription de Meurthe-et-Moselle</title>
      <desc id="d251">Cantons de : Jarville-la-Malgrange, Laxou, Nancy Ouest, Vandœuvre-lès-Nancy Est, Vandœuvre-lès-Nancy Ouest</desc>
    </path><path class="circo" id="id-054-03" d="M147.5 0L141.4065000000005 2.1875L140.7815000000005 13.125L134.68799999999987 15.3125L129.2190000000005 11.875L125.7815000000005 14.0625L117.0315000000005 15.15625L111.875 10.78125L103.43799999999987 9.21875L99.8440000000005 6.71875L93.2815000000005 8.4375L87.9690000000005 12.8125L87.9690000000005 15L81.56299999999987 21.09375L82.9690000000005 27.5L81.4065000000005 31.5625L78.75 37.03125L77.0315000000005 36.40625L71.4065000000005 27.03125L60.937999999999874 23.125L54.375 22.65625L49.531500000000506 29.84375L45.781500000000506 32.1875L44.844000000000506 32.8125L31.719000000000506 36.5625L25 36.5625L19.062999999999874 42.8125L24.062999999999874 45L20.312999999999874 52.34375L16.094000000000506 52.65625L17.969000000000506 53.59375L16.25 59.84375L17.5 65.15625L19.219000000000506 66.09375L16.25 72.03125L25.156500000000506 76.71875L22.656500000000506 85L19.219000000000506 87.96875L29.062999999999874 91.71875L30.781500000000506 90.46875L34.375 92.34375L28.906500000000506 101.71875L22.5 103.59375L19.531500000000506 100.3125L9.062999999999874 103.75L15.781500000000506 108.4375L21.719000000000506 109.375L20.469000000000506 113.4375L23.437999999999874 117.8125L25.156500000000506 117.1875L30 110L31.094000000000506 101.40625L44.844000000000506 101.25L53.906500000000506 94.375L60.625 93.28125L61.25 91.71875L67.3440000000005 94.0625L73.43799999999987 91.25L76.7190000000005 93.90625L77.0315000000005 91.71875L81.25 90.9375L80.93799999999987 86.5625L88.2815000000005 81.5625L106.7190000000005 93.90625L108.9065000000005 96.875L112.9690000000005 96.40625L113.125 105L113.75 108.125L111.0940000000005 110.46875L119.8440000000005 116.71875L122.81299999999987 124.375L121.7190000000005 130.15625L130 131.71875L132.5 135.3125L133.2815000000005 141.71875L132.3440000000005 146.25L125.31299999999987 152.03125L130.1565000000005 164.375L137.3440000000005 165.15625L140.7815000000005 162.1875L143.2815000000005 162.1875L145.4690000000005 171.71875L142.3440000000005 184.84375L146.875 189.0625L149.06299999999987 188.90625L155.4690000000005 182.96875L158.5940000000005 177.5L158.2815000000005 173.125L162.0315000000005 172.5L165.625 172.8125L171.56299999999987 176.25L175 182.1875L175.31299999999987 188.59375L172.18799999999987 191.40625L175.93799999999987 193.59375L177.6565000000005 197.65625L178.75 200.15625L178.75 204.375L174.8440000000005 205.625L174.5315000000005 211.875L187.5 212.8125L186.4065000000005 216.875L182.6565000000005 218.75L179.5315000000005 228.4375L182.18799999999987 228.90625L202.0315000000005 224.6875L213.43799999999987 217.65625L209.8440000000005 216.09375L213.125 211.5625L230.625 212.96875L233.5940000000005 207.03125L235.7815000000005 207.1875L238.9065000000005 215.15625L244.2190000000005 209.0625L243.2815000000005 215.46875L248.125 222.5L251.875 221.25L257.0315000000005 215.15625L255.7815000000005 215L255 208.4375L256.4065000000005 204.0625L247.3440000000005 197.96875L248.125 193.75L248.125 189.53125L244.2190000000005 187.5L245.31299999999987 178.75L246.56299999999987 166.71875L242.81299999999987 162.34375L237.6565000000005 168.28125L232.18799999999987 160.78125L223.2815000000005 153.75L220 145.3125L228.2815000000005 142.34375L234.8440000000005 142.34375L228.5940000000005 141.25L225.31299999999987 131.40625L218.9065000000005 132.03125L215.7815000000005 126.25L212.0315000000005 123.90625L216.4065000000005 118.75L214.06299999999987 105.3125L210 103.28125L206.56299999999987 101.40625L209.375 98.4375L209.8440000000005 94.53125L213.5940000000005 89.0625L219.5315000000005 86.5625L214.5315000000005 75.9375L219.2190000000005 71.875L216.0940000000005 59.21875L218.5940000000005 55.625L215.1565000000005 54.0625L214.06299999999987 50.46875L208.9065000000005 52.34375L203.43799999999987 51.09375L200.31299999999987 53.28125L198.75 42.96875L186.25 40.15625L174.375 27.96875L174.06299999999987 23.59375L177.81299999999987 21.5625L174.375 13.59375L166.25 16.71875L163.43799999999987 12.5L165.4690000000005 11.5625L164.5315000000005 9.53125L156.0940000000005 6.875L147.5 0zM6.875 38.59375L3.4379999999998745 46.875L0 50L6.719000000000506 50L12.656500000000506 53.4375L12.969000000000506 51.25L15.156500000000506 51.25L16.719000000000506 49.53125L16.406500000000506 47.5L6.875 38.59375z">
      <title id="t252">Troisième circonscription de Meurthe-et-Moselle</title>
      <desc id="d252">Cantons de : Audun-le-Roman, Briey, Herserange, Longuyon, Longwy, Mont-Saint-Martin, Villerupt</desc>
    </path><path class="circo" id="id-054-04" d="M461.3525000000004 528.81145L459.3115 529.05125L460.15800000000013 525.3511500000002L452.73700000000076 518.3114500000001L440.095 516.89355L436.7960000000005 517.8169L432.7184999999997 524.2726500000001L430.1330000000007 529.5681999999999L431.93449999999984 535.3739000000002L430.50250000000005 533.8549L425.93450000000075 538.0644000000001L424.4495000000006 546.04555L420.5475000000001 547.4880000000002L416.33800000000065 544.5335L415.9305000000006 540.0259L410.0999999999999 533.1434000000002L400.9310000000005 539.5252000000003L402.24000000000046 544.23325L397.9894999999999 548.85365L388.297 553.0045000000001L390.5555000000004 556.7478L387.46399999999994 561.1037000000001L383.7790000000007 555.9498500000001L375.2875000000006 557.3255L371.8074999999999 554.8253500000001L369.7765000000004 554.86785L368.6315000000002 558.76225L365.4570000000001 561.30785L364.8149999999998 562.97945L364.1935000000001 563.8925L360.3920000000005 573.6446000000001L356.18150000000014 573.8924L353.1835000000001 577.1061500000002L344.4265000000007 578.2048L343.27600000000075 570.17235L345.04800000000046 562.2995000000001L338.8295000000005 562.8674000000001L335.35300000000007 560.9511L330.6574999999998 561.1423500000001L334.3820000000005 577.5959500000001L337.61150000000043 577.7337L333.90949999999975 582.9877000000001L334.1485 587.2030000000001L335.40399999999977 593.6713L329.1160000000002 598.2447999999999L326.1775 596.8168500000002L321.11600000000067 604.9546499999999L328.06100000000015 613.3514L328.3794999999998 617.6065L330.1814999999999 618.84905L330.9585000000004 619.4705999999999L327.5305000000003 621.0614499999999L317.90700000000015 619.2019500000001L310.2060000000006 623.0700000000002L311.1374999999998 632.6931500000001L313.7710000000004 635.9165000000002L309.31800000000067 644.6263999999999L312.64650000000074 646.882L318.89599999999973 657.08305L322.83000000000015 655.2705000000001L328.4940000000006 657.8759500000001L332.1320000000003 655.5620000000001L336.22749999999996 656.1854500000002L340.7580000000007 651.6483500000002L344.53750000000014 659.5901000000001L355.34850000000006 667.1447499999999L360.2539999999999 671.6938000000002L361.3620000000003 678.3320000000001L364.27549999999997 679.8686499999999L364.14949999999976 683.3292L366.0295000000008 684.9272000000002L367.7660000000003 684.4448L369.1635000000008 687.663L371.8579999999997 692.9268500000001L369.6055000000001 698.4796500000002L372.2750000000008 701.4259000000002L375.3015000000005 710.6791499999999L373.913 717.3318L374.5844999999997 721.2145L372.37799999999993 724.60655L376.46100000000047 727.78945L378.2540000000006 727.28205L376.1054999999999 732.7175500000001L372.72699999999986 734.7153500000002L375.02250000000004 745.2781500000001L387.02949999999987 749.95325L394.4475 750.40715L398.04550000000063 748.1222L398.55050000000006 747.8552500000001L404.1700000000003 745.2250000000001L409.73600000000033 747.8738000000001L407.2320000000002 753.1970000000001L407.3160000000007 756.3419000000001L408.65650000000073 757.9209500000002L414.30200000000013 755.85925L415.25100000000066 757.8486L419.40650000000005 757.1695L424.49749999999995 747.6196000000002L434.50500000000034 743.6690000000001L438.18250000000035 741.9964500000001L444.32800000000043 747.00115L450.9834999999998 742.469L457.2765000000004 743.56785L464.1775000000007 737.8376500000002L471.1329999999998 732.7444500000001L475.4570000000001 735.2059500000001L489.9790000000007 742.9461000000001L492.1614999999997 741.8632500000001L485.6664999999998 728.4108500000002L492.5260000000003 714.50425L496.66650000000004 712.9154500000002L497.95650000000023 709.9900500000001L507.8365000000008 706.5061000000001L514.0605000000005 707.7285500000003L515.4680000000008 714.1665L514.5105000000001 720.7300499999999L519.2605000000003 730.39545L518.0560000000003 734.5680000000002L528.5165000000006 736.2083000000001L532.8155000000004 738.9930000000002L534.2660000000001 737.2324000000001L535.3904999999997 741.3631L540.9410000000003 744.6570500000001L547.0335 739.1883000000001L552.1035000000006 742.5419999999999L558.0259999999998 743.0306000000002L558.3320000000003 745.2026000000001L567.0425 745.8191999999999L569.5209999999997 751.8424500000001L575.7035000000008 751.4302L577.8660000000002 751.6549L577.9759999999999 755.3677000000002L583.0145000000005 751.5979000000002L590.4055000000005 756.0487500000002L595.7895000000008 742.9032000000001L604.9245000000008 737.6327000000001L607.4175000000002 731.6856000000001L611.4325000000008 730.0425000000001L613.6570000000006 738.4249500000001L619.0275000000008 741.9657000000001L623.1670000000008 740.5895L634.2669999999998 730.13925L635.8505000000002 727.66705L637.9939999999999 727.25515L654.2585000000008 707.0592999999999L661.3315 702.6466500000001L672.2865000000002 700.7770500000001L681.268 694.0157999999999L691.9230000000005 690.32295L702.3535000000004 684.09005L704.6204999999998 683.3702500000002L708.4140000000002 681.20955L721.3675000000001 680.0945000000002L713.1079999999997 677.69745L704.4830000000002 678.8838000000001L703.3265000000006 680.7547L701.7915000000005 678.33395L696.8105000000003 673.22115L702.7499999999998 665.4464000000002L693.3465000000001 663.6652000000001L704.0890000000002 662.0584500000001L703.383 659.9862000000002L693.2950000000005 655.7925L688.0225000000007 648.84015L683.5755000000006 637.1917500000001L677.1755000000007 636.8814500000002L667.0609999999999 628.5589000000002L675.4624999999999 621.9773499999999L676.0670000000005 619.8485500000002L672.7364999999998 616.9984L669.7649999999999 619.2494999999999L666.1275 618.2371L665.3055000000006 618.5077000000001L662.0820000000003 616.6133000000002L652.3595 619.2835500000001L643.4105 614.9264500000002L644.6370000000002 610.8189000000002L639.2730000000006 601.7533000000001L635.4444999999998 603.1430500000001L633.9605000000006 608.9768000000001L628.8125000000002 611.8592000000001L623.6700000000008 608.5350500000002L608.4445000000005 611.1494000000002L604.3730000000005 609.2822000000001L602.2239999999999 605.4999499999999L600.7265000000007 600.5448000000001L598.5919999999999 596.5595500000001L589.8405000000002 594.43105L576.6345000000001 597.1416999999999L573.0169999999998 593.7993500000002L574.4524999999999 590.22435L568.6975000000007 591.1077L568.2215000000008 588.9698000000001L566.0879999999997 583.2882000000001L566.9815000000006 579.8015499999999L564.9485000000004 579.6696L552.6020000000005 583.1801000000002L545.3904999999997 578.8986L539.2145000000005 577.6461500000003L536.7645000000005 571.8106500000001L534.6465000000001 572.3662000000002L528.3260000000007 581.3029500000002L527.2460000000001 578.9230499999999L528.9760000000001 577.6300500000002L529.0865000000008 569.01095L530.7794999999999 565.5363L525.1864999999998 556.3639499999999L520.0035000000003 556.1637000000002L517.0415000000003 558.7113999999999L509.7250000000008 551.8380500000001L506.0945000000004 550.8010000000002L498.5770000000002 550.17165L497.07899999999995 542.4060500000002L494.5505000000003 539.3551L490.40700000000015 537.74475L482.94399999999996 524.1231000000002L476.8444999999997 524.7645500000001L472.93499999999995 527.1658L471.05500000000006 528.3228500000001L464.7750000000008 526.2884500000001L461.3525000000004 528.81145z">
      <title id="t253">Quatrième circonscription de Meurthe-et-Moselle</title>
      <desc id="d253">Cantons de : Arracourt, Baccarat, Badonviller, Bayon, Blâmont, Cirey-sur-Vezouze, Gerbéviller, Lunéville Nord, Lunéville Sud, Saint-Nicolas-de-Port, Tomblaine</desc>
    </path><path class="circo" id="id-054-05" d="M225.06200000000035 780.7384000000002L225.50950000000057 773.82105L223.56200000000058 774.1511500000001L223.86300000000006 770.3841500000001L220.48650000000066 768.3681000000001L224.8580000000004 760.9731999999999L222.58199999999988 755.1315L218.98300000000063 752.4205000000001L215.56249999999977 752.29825L213.27650000000062 756.9333L210.22199999999998 752.2035L205.86650000000077 749.2356000000001L205.70299999999975 740.5479L207.65100000000075 736.8091000000002L211.9240000000002 736.9275500000001L214.82250000000022 731.1539000000002L210.86599999999976 729.6107499999999L200.67350000000033 729.8682500000001L204.87900000000081 734.9709000000001L200.2195000000006 747.45955L192.23600000000033 750.96475L188.7740000000008 748.9654000000002L182.54549999999995 746.8884500000001L184.22700000000077 742.3262L194.7090000000003 729.5915L195.24450000000002 728.6306000000002L200.43999999999983 721.7963L196.05000000000018 716.9454000000002L196.69449999999983 708.4292000000003L203.3355000000006 699.7627L200.99450000000047 698.1525999999999L204.01650000000018 692.0353500000001L197.6400000000001 692.7761L189.60199999999986 689.5083500000001L187.02499999999986 686.1171000000002L183.3325000000002 684.4185000000002L175.06399999999985 685.7303000000002L174.4805000000008 688.3596L169.36699999999973 691.1316999999999L163.5850000000005 689.9028000000001L153.49199999999996 699.77295L149.91100000000074 697.67235L144.19750000000022 691.0630500000002L143.18650000000048 678.4571500000002L142.41899999999987 675.0397L144.94500000000016 666.86815L148.63249999999994 664.8661500000001L148.96600000000035 662.74595L143.22850000000017 659.1053999999999L135.35600000000045 655.1665L128.67950000000064 654.4544500000001L123.08650000000057 648.8279500000001L122.85650000000032 641.7617000000001L122.17550000000074 639.5931000000002L124.15100000000052 630.25855L134.15000000000077 626.7531500000001L139.80400000000031 620.5588L143.80600000000072 619.6056000000001L154.71750000000043 619.9906000000001L158.16800000000057 615.89525L160.50250000000005 608.44955L154.78500000000054 606.62015L147.83900000000017 611.1783L143.85049999999978 612.3806000000002L142.19850000000065 611.11275L141.31600000000049 610.9256500000001L142.40850000000023 604.59195L140.4449999999997 600.8188000000001L138.7284999999997 597.89875L135.42300000000068 588.02145L137.29649999999992 581.61825L136.12900000000081 577.6500000000001L140.25550000000067 565.4481000000001L143.96200000000022 559.5801L138.22549999999978 551.3858500000001L130.54100000000062 544.9439000000001L130.12950000000046 544.4600500000001L124.5965000000001 539.0786500000002L127.02400000000011 535.7638L122.47349999999983 531.5295500000002L124.6289999999999 529.2137L133.92650000000003 525.464L134.8350000000005 523.4365L131.87700000000063 517.8033500000001L133.52250000000026 513.72345L144.62400000000002 502.8799000000001L148.99999999999977 502.2270500000002L149.8655000000008 495.88240000000013L143.03150000000073 499.74715000000003L141.24500000000012 495.0216500000002L146.3995 491.3415500000002L151.08050000000048 472.9871L148.44900000000052 458.9692500000001L146.00199999999973 457.34264999999994L144.21749999999975 448.68695L149.42000000000007 446.6546500000001L153.30550000000017 445.32084999999995L153.90300000000025 439.05485L146.27200000000016 434.3819000000002L140.8344999999997 424.78955000000013L140.65950000000043 422.82815L139.09400000000005 422.79065L136.49200000000064 421.3614000000001L138.56750000000034 417.56945L149.08149999999978 414.95885000000015L158.82850000000076 401.2678500000001L166.32799999999975 403.7715L172.33150000000023 402.78729999999996L174.97450000000072 397.72335L179.09700000000043 397.7266L179.90400000000022 391.6171L171.9270000000006 381.93299999999994L166.57699999999977 379.3111000000002L172.95299999999997 373.57315L167.93949999999995 369.27805000000006L168.36350000000039 367.49795000000006L177.00500000000034 364.4401500000001L182.8354999999999 366.6914L181.6165000000001 356.64275000000004L185.05999999999972 354.51134999999994L191.8405000000007 354.4841500000001L194.45550000000026 359.31444999999997L192.9570000000001 360.3965500000001L203.22400000000016 367.82185L208.76550000000066 366.80285L207.16400000000021 372.89305000000013L210.41699999999992 381.11324999999994L207.94399999999996 383.58540000000005L209.04700000000048 385.5025500000002L206.50550000000067 391.41445000000004L209.90750000000048 393.3460500000001L214.27649999999971 394.5571000000001L223.0060000000003 388.9416L224.84300000000076 389.9948500000002L232.82850000000053 396.66775L231.48000000000025 398.24174999999997L237.50400000000013 406.66315L236.71699999999987 412.4437500000002L234.96350000000007 415.55004999999994L236.62400000000048 419.07579999999996L222.5470000000007 420.2626000000001L221.89849999999979 430.96840000000014L217.46500000000083 435.53259999999995L218.76600000000053 438.7633500000001L232.5400000000002 434.016L233.92450000000053 442.39255000000014L229.28549999999973 451.66185000000013L229.66650000000072 455.7289L235.33149999999978 458.47184999999996L243.61700000000042 464.0766000000002L247.88250000000062 464.69854999999995L251.14450000000033 461.81855000000013L257.36150000000066 467.6493500000001L259.5384999999999 467.53569999999996L259.55400000000054 469.7036L253.55400000000031 472.0418000000001L254.7765000000004 478.2600500000001L255.6140000000005 488.47035000000005L247.39400000000046 493.0916500000001L250.88799999999992 495.7695000000001L252.00050000000033 508.8116500000001L260.53600000000074 515.7979500000001L272.75550000000067 511.53594999999996L276.0170000000005 515.1808500000002L280.00150000000076 516.3003000000001L284.45800000000077 520.5784500000002L292.7150000000006 521.0142999999999L288.5570000000007 522.28375L278.4265000000005 530.4319L284.9985000000004 538.8460499999999L283.11300000000074 542.41445L276.21650000000045 546.8180000000001L280.11100000000056 552.3746L275.5465000000004 565.1107000000002L275.5735000000004 565.6045500000002L278.25900000000047 581.38275L282.50600000000077 581.3351L289.9255000000005 594.1956000000002L294.6785 598.54645L297.3890000000006 595.1219000000001L304.7840000000008 594.69865L308.0365000000006 596.8439000000001L309.05849999999987 601.9043999999999L306.7420000000004 605.1520500000001L308.12200000000075 608.8951500000002L308.57950000000073 613.3469L317.90700000000015 619.2019500000001L310.2060000000006 623.0700000000002L311.1374999999998 632.6931500000001L313.7710000000004 635.9165000000002L309.31800000000067 644.6263999999999L312.64650000000074 646.882L318.89599999999973 657.08305L322.83000000000015 655.2705000000001L328.4940000000006 657.8759500000001L332.1320000000003 655.5620000000001L336.22749999999996 656.1854500000002L340.7580000000007 651.6483500000002L344.53750000000014 659.5901000000001L355.34850000000006 667.1447499999999L360.2539999999999 671.6938000000002L361.3620000000003 678.3320000000001L364.27549999999997 679.8686499999999L364.14949999999976 683.3292L366.0295000000008 684.9272000000002L367.7660000000003 684.4448L369.1635000000008 687.663L371.8579999999997 692.9268500000001L369.6055000000001 698.4796500000002L372.2750000000008 701.4259000000002L375.3015000000005 710.6791499999999L373.913 717.3318L374.5844999999997 721.2145L372.37799999999993 724.60655L376.46100000000047 727.78945L378.2540000000006 727.28205L376.1054999999999 732.7175500000001L372.72699999999986 734.7153500000002L370.3740000000005 731.2833L362.7845000000002 737.4886000000001L358.88900000000035 736.17885L354.70050000000015 748.7937999999999L348.8420000000008 749.2605500000002L343.1810000000007 754.73975L342.65300000000025 752.747L329.75250000000074 753.2917500000002L329.08000000000015 754.14635L325.39100000000076 755.4201500000001L319.8400000000004 754.4228499999999L321.6714999999999 747.1592499999999L320.0554999999997 746.1944L317.46399999999994 749.0300500000001L307.5150000000008 747.5985000000001L306.6650000000004 747.8757000000002L308.75 764.6375500000001L300.41150000000016 776.7707000000001L297.17300000000023 773.8428000000001L293.7570000000005 782.4269000000002L287.62249999999995 780.8657L283.8560000000007 776.0235500000001L285.7820000000004 775.3851500000002L285.7350000000008 773.35015L282.77649999999994 764.2472L276.61050000000046 765.78555L275.5015000000003 769.1870500000002L277.93600000000083 776.1604500000001L274.3939999999998 778.6366L270.0875000000008 778.6475000000002L266.019 774.70515L264.1280000000006 774.8970500000001L263.9480000000003 777.0323500000001L257.9340000000002 777.8313L254.61149999999975 780.47875L252.63300000000072 777.5581500000001L246.18800000000078 778.2214999999999L241.01350000000025 782.05535L239.01700000000005 781.7029L236.59600000000069 784.8584500000002L232.8340000000003 783.6855499999999L229.0530000000001 784.8444000000004L225.06200000000035 780.7384000000002z">
      <title id="t254">Cinquième circonscription de Meurthe-et-Moselle</title>
      <desc id="d254">Cantons de : Colombey-les-Belles, Domèvre-en-Haye, Haroué, Neuves-Maisons, Thiaucourt-Regniéville (moins les communes d'Arnaville, Bayon vil le-sur-Mad et Vandelainville), Toul Nord, Toul Sud, Vézelize</desc>
    </path><path class="circo" id="id-054-06" d="M216.4715000000001 319.78155000000015L216.2684999999999 317.56140000000016L219.18999999999983 314.29644999999994L212.40750000000048 306.2721000000002L213.33100000000059 301.92650000000015L214.9395000000004 295.754L221.83400000000006 295.9644L232.3924999999997 296.32665000000003L243.56700000000046 296.25395L246.12700000000018 292.64200000000017L244.92050000000063 290.97195L240.76149999999984 285.87615L241.17399999999975 279.73825000000005L237.2485000000006 274.5802500000002L236.66950000000043 272.61165000000005L242.00500000000034 269.95554999999996L239.92349999999988 266.4095500000002L243.8250000000005 265.4529500000001L244.87900000000081 267.0191L248.6360000000002 266.80075000000016L252.04650000000015 261.44630000000006L257.24050000000034 257.82725L251.3785000000007 254.96444999999994L246.14550000000008 247.92665L237.71100000000047 246.5462500000001L235.30899999999974 241.24240000000015L234.98649999999998 240.0308000000001L238.03750000000036 235.7283000000001L238.75049999999987 230.42985000000016L242.10050000000024 231.81550000000016L245.50500000000056 230.85075000000018L244.38150000000064 227.53015000000005L248.07450000000017 222.50820000000004L243.32300000000032 215.40600000000012L244.19949999999972 209.0802500000001L238.96450000000073 215.1821000000001L235.8159999999998 207.15059999999994L233.58299999999986 207.04840000000019L230.64100000000053 212.92869999999994L213.0765000000008 211.53310000000005L209.84450000000038 216.03280000000012L213.42849999999999 217.64170000000007L202.03950000000077 224.61974999999995L182.11549999999988 228.9016000000001L179.53899999999976 228.48590000000002L182.58500000000026 218.80340000000018L186.41399999999976 216.86980000000005L187.4554999999998 212.77964999999995L174.53050000000076 211.90740000000005L174.82600000000048 205.6167000000002L178.6959999999999 204.37444999999997L178.70850000000019 200.14010000000013L177.69949999999994 197.63750000000016L176.00400000000036 193.62175000000008L172.2625000000005 191.40070000000009L175.317 188.65710000000007L175.02050000000054 182.26474999999994L171.5280000000007 176.31889999999999L165.57350000000042 172.82250000000005L162.04900000000066 172.4797000000001L158.33150000000046 173.12690000000003L158.59050000000025 177.54400000000004L155.4174999999998 182.988L149.01749999999993 188.86160000000018L146.9285000000002 189.11045000000001L142.39100000000008 184.8610500000001L127.0130000000006 191.26265000000018L128.61700000000042 199.79500000000002L125.40250000000015 205.64015000000012L127.24649999999997 207.54320000000007L133.74250000000075 217.09045000000003L128.71150000000057 220.43360000000007L124.97000000000071 225.51964999999996L127.76450000000068 235.54744999999997L126.36250000000018 237.13715000000008L129.38499999999976 239.82850000000013L137.92050000000017 237.63274999999993L140.88700000000017 236.04569999999995L144.46050000000014 238.31244999999996L136.22600000000034 261.7297000000002L137.40850000000023 265.9689500000002L141.55349999999999 267.79169999999993L141.82450000000017 270.0517000000002L140.29549999999972 274.1365000000002L147.01999999999998 275.82240000000013L139.68050000000062 280.7542000000001L137.03399999999988 286.6509000000002L139.93150000000014 292.4537000000001L142.06650000000081 295.71245000000005L147.34300000000076 298.1931500000002L149.86800000000017 295.78779999999995L149.38550000000077 294.10619999999994L162.32050000000072 294.3022500000001L166.59449999999993 294.4957500000001L168.87249999999995 309.0089500000002L167.22399999999993 310.50870000000003L162.48000000000047 317.38560000000007L161.53300000000058 325.37149999999997L163.5699999999997 326.3425000000001L174.33200000000056 323.6882L175.35849999999982 332.05839999999995L181.7349999999999 340.29349999999994L172.9320000000007 345.07409999999993L171.59650000000056 348.74695L168.0174999999997 353.5638500000002L164.9840000000006 362.9934L166.40499999999975 361.2894L168.43950000000063 362.10904999999997L168.0880000000002 364.29955000000007L160.16950000000065 374.8574500000001L160.8744999999999 376.94545000000005L166.57699999999977 379.3111000000002L172.95299999999997 373.57315L167.93949999999995 369.27805000000006L168.36350000000039 367.49795000000006L177.00500000000034 364.4401500000001L182.8354999999999 366.6914L181.6165000000001 356.64275000000004L185.05999999999972 354.51134999999994L191.8405000000007 354.4841500000001L194.45550000000026 359.31444999999997L192.9570000000001 360.3965500000001L203.22400000000016 367.82185L208.76550000000066 366.80285L207.16400000000021 372.89305000000013L210.41699999999992 381.11324999999994L207.94399999999996 383.58540000000005L209.04700000000048 385.5025500000002L206.50550000000067 391.41445000000004L209.90750000000048 393.3460500000001L214.27649999999971 394.5571000000001L223.0060000000003 388.9416L224.84300000000076 389.9948500000002L232.82850000000053 396.66775L231.48000000000025 398.24174999999997L237.50400000000013 406.66315L236.71699999999987 412.4437500000002L234.96350000000007 415.55004999999994L236.62400000000048 419.07579999999996L222.5470000000007 420.2626000000001L221.89849999999979 430.96840000000014L217.46500000000083 435.53259999999995L218.76600000000053 438.7633500000001L232.5400000000002 434.016L233.92450000000053 442.39255000000014L229.28549999999973 451.66185000000013L229.66650000000072 455.7289L235.33149999999978 458.47184999999996L243.61700000000042 464.0766000000002L247.88250000000062 464.69854999999995L251.14450000000033 461.81855000000013L257.36150000000066 467.6493500000001L259.5384999999999 467.53569999999996L259.55400000000054 469.7036L253.55400000000031 472.0418000000001L254.7765000000004 478.2600500000001L255.6140000000005 488.47035000000005L247.39400000000046 493.0916500000001L250.88799999999992 495.7695000000001L252.00050000000033 508.8116500000001L260.53600000000074 515.7979500000001L272.75550000000067 511.53594999999996L276.0170000000005 515.1808500000002L280.00150000000076 516.3003000000001L284.45800000000077 520.5784500000002L292.7150000000006 521.0142999999999L288.5570000000007 522.28375L278.4265000000005 530.4319L284.9985000000004 538.8460499999999L283.11300000000074 542.41445L276.21650000000045 546.8180000000001L280.11100000000056 552.3746L275.5465000000004 565.1107000000002L289.2685000000006 562.8101000000001L302.19150000000013 559.8679500000001L307.77649999999994 556.3459500000001L314.37700000000063 557.2199L320.5690000000004 554.88975L317.81150000000025 549.69885L318.4884999999997 545.78915L318.8130000000001 541.5974500000002L316.62750000000074 537.9825500000002L320.2940000000001 532.9449L315.3520000000003 530.1115500000001L315.03900000000044 529.98265L309.26649999999995 529.5243500000001L307.8565000000003 521.4837L302.6999999999998 517.5751L303.7635 506.8205500000002L297.96299999999974 504.0288000000001L292.59000000000015 500.51230000000004L290.7529999999997 496.57794999999993L307.9804999999999 491.90235L315.3264999999999 483.73355000000004L316.59650000000056 483.2733000000002L317.5940000000003 489.3087L313.5575000000006 491.03375L310.9665000000007 499.6587500000001L314.6685000000002 514.3747999999999L317.6825000000008 512.0867000000001L317.1980000000008 515.9508L332.38699999999994 513.3043L341.1845000000005 511.60945L341.1959999999999 510.33829999999995L347.0905000000005 508.29890000000006L351.57050000000027 503.96105000000006L357.9785000000004 503.85459999999995L371.72500000000014 499.09165L377.16499999999996 505.6621000000001L379.5645000000002 509.87975000000006L390.66599999999994 501.97675000000004L395.08100000000013 500.951L391.6935000000001 493.2794000000001L395.8955000000003 488.9912000000001L394.4375000000002 487.4358000000001L388.2325000000003 488.7001000000001L385.3845000000001 486.30179999999996L385.8585000000005 482.6149000000001L384.90999999999985 480.79645L375.24650000000065 482.1669L371.9870000000003 480.1651000000001L379.3095000000005 476.87005L385.1094999999998 479.2129L388.3630000000005 474.2016000000001L384.2624999999998 472.7669L378.4190000000001 471.98560000000015L374.6595000000002 474.02405000000016L366.41849999999977 467.62805000000014L365.3380000000004 463.9086500000002L371.5600000000006 461.9135L370.43450000000007 452.89395000000013L375.8680000000004 454.82640000000004L374.9475000000007 447.16904999999997L375.10150000000067 445.27885L370.4010000000005 442.56320000000017L376.40100000000075 436.27020000000016L382.49450000000024 433.86214999999993L383.20800000000077 428.07890000000015L376.12300000000005 423.63005000000015L376.2650000000008 417.6050000000001L366.58250000000066 420.6746000000001L366.3250000000005 413.3229L361.7520000000002 413.14369999999997L359.28800000000024 409.6872000000002L355.60100000000034 409.55780000000004L349.1134999999997 415.1406L344.778 415.10760000000005L343.79999999999995 413.19289999999995L339.68650000000025 412.2788L337.7850000000001 406.5059500000001L331.46299999999997 405.6247000000002L331.5179999999998 406.8501500000002L318.4564999999998 407.79349999999994L316.44450000000006 403.96240000000006L314.2640000000006 404.03745000000015L312.63450000000034 402.96459999999996L309.1775000000007 404.4684000000001L307.64650000000074 409.6768500000002L306.2920000000008 410.1582000000002L298.52899999999977 407.09990000000005L297.19600000000014 405.42280000000005L298.51800000000026 399.30180000000007L296.3765000000001 399.26365000000004L297.08849999999984 394.90595000000013L292.66700000000014 387.5652500000001L286.3465000000008 386.6867000000002L278.5725000000002 390.4415500000002L277.6679999999999 389.34619999999995L273.97749999999974 384.2963500000002L275.2850000000001 380.25720000000007L271.5350000000001 378.81114999999994L262.4694999999997 381.0990000000001L258.4100000000001 376.35610000000014L262.6710000000003 373.59515000000016L262.3694999999998 365.2648500000001L263.1200000000001 360.72310000000016L262.99800000000005 358.45005000000015L252.2924999999998 350.57345L249.38499999999976 342.30725000000007L246.32349999999974 344.20285000000007L241.8705 341.82230000000004L237.80849999999987 339.2587500000002L232.3300000000006 339.5297500000001L229.86499999999978 336.39084999999994L225.97650000000044 335.51545000000004L223.48900000000071 326.54034999999993L216.4715000000001 319.78155000000015z">
      <title id="t255">Sixième circonscription de Meurthe-et-Moselle</title>
      <desc id="d255">Cantons de : Chambley-Bussières, Conflans-en-Jarnisy, Dieulouard, Homécourt, Nomeny, Pompey, Pont-à-Mousson, Communes de : Arnaville, Bayonville-sur-Mad, Vandelainville (issues du canton de Thiaucourt-Regniéville)</desc>
    </path></svg>