<svg xmlns="http://www.w3.org/2000/svg" version="1.1" xmlns:xlink="http://www.w3.org/1999/xlink" xmlns:svgjs="http://svgjs.dev/svgjs" width="410.0154999999995" height="782.6737500000002" fill="#eeeeee" stroke="#cccccc" xmlns:sodipodi="http://sodipodi.sourceforge.net/DTD/sodipodi-0.dtd"><path class="circo" id="id-055-01" d="M45.68899999999985 648.2875000000001L49.06100000000038 638.1207499999999L45.01949999999965 630.6854000000001L44.2229999999995 622.8964000000002L51.97549999999978 616.74215L50.43749999999932 608.86805L42.359500000000025 606.0620500000002L43.31050000000005 602.0087000000001L49.99900000000025 596.77325L46.96900000000028 589.34325L52.67650000000003 591.4294000000001L54.079000000000406 589.9068L49.89950000000022 582.2253000000001L51.19649999999979 569.3703500000001L42.847000000000435 568.95015L39.354999999999336 566.6350500000001L39.04300000000035 564.7890000000001L27.653000000000247 552.0916L25.71199999999976 550.5813499999999L19.855499999999893 541.6933500000002L19.3870000000004 537.64805L15.317999999999756 536.4920000000001L1.95699999999988 533.53905L1.7714999999998327 533.0641500000002L0.5394999999998618 531.3453000000002L3.225999999999658 525.7499000000001L0 520.4698000000002L6.016999999999371 513.6691999999999L10.557999999999765 509.5397L19.861499999999523 505.4335500000002L20.665500000000065 500.5208999999999L16.922499999999445 498.63365000000016L14.65249999999969 490.97110000000015L9.98550000000023 486.72500000000014L10.343500000000176 484.61209999999994L14.57899999999995 474.42544999999996L13.318500000000313 470.44025000000005L10.553499999999758 468.4891999999999L11.492499999999382 467.0869000000002L13.30000000000041 463.0769000000001L18.44449999999938 458.78770000000003L20.166000000000395 452.66940000000005L27.761000000000422 446.9969500000002L29.113499999999704 448.8581500000001L35.93849999999975 448.31860000000006L45.98250000000007 443.03169999999994L52.738500000000386 443.22125L53.28399999999988 437.50190000000003L60.429000000000315 431.8462500000001L63.32499999999982 419.0285L60.00249999999937 416.10625L45.330000000000155 413.62795000000006L50.429000000000315 407.0289500000001L60.72300000000041 405.4400000000001L60.697999999999865 401.4366000000001L63.21799999999939 395.42339999999996L62.425499999999374 388.9386000000002L62.26699999999937 387.65209999999996L51.53249999999957 379.79074999999995L33.131499999999505 388.6599000000001L32.58600000000001 388.37800000000016L47.43150000000014 369.51520000000016L49.71900000000005 363.46040000000016L51.41899999999964 356.31005000000016L56.9844999999998 355.51270000000017L60.79049999999938 359.7651000000002L68.29200000000014 364.3937500000001L83.14399999999978 360.60640000000006L81.78699999999935 364.4034500000001L84.55000000000041 370.14100000000013L90.84100000000035 370.4308500000002L99.60950000000025 368.98605000000003L104.87049999999954 364.99885000000006L115.44449999999983 361.4250000000001L115.31049999999937 363.5680500000001L125.46299999999974 373.4149500000001L139.03149999999982 368.2059000000001L140.07600000000025 364.14015000000006L145.5574999999999 363.67705L145.95450000000028 364.86655000000013L143.57700000000023 368.52689999999996L144.43599999999947 374.99055L148.3624999999995 380.3041999999999L146.23649999999998 383.9524L145.84949999999935 384.25640000000016L138.8824999999997 387.8666000000001L136.4530000000002 391.1913000000001L136.52500000000032 395.6988000000001L138.6519999999996 396.5223500000002L142.05450000000042 407.4052500000002L145.9680000000003 406.0359500000001L153.8009999999997 408.04194999999993L153.7424999999996 413.36569999999995L160.30700000000024 407.86775000000006L172.67200000000003 411.62229999999994L176.8870000000004 410.72014999999993L182.48199999999997 420.2114500000002L184.2240000000004 421.6196500000001L188.37800000000016 420.19329999999997L189.69449999999938 422.00874999999996L192.38699999999994 427.97685L199.68049999999948 423.4887499999999L202.67849999999953 421.8896000000001L212.90899999999965 420.43935000000005L221.41650000000027 417.60009999999994L232.7845000000002 406.62930000000017L240.77999999999975 402.4958000000001L236.3760000000002 394.38469999999995L237.2905000000003 392.62924999999996L241.0304999999994 394.0458000000001L248.5050000000001 391.4757500000002L251.21149999999943 385.59034999999994L246.5530000000001 381.18709999999993L252.81550000000038 375.44115000000005L263.2865000000004 375.35300000000007L271.5129999999999 373.81955000000005L275.14099999999985 375.68039999999996L283.53899999999953 375.86455L294.4920000000002 387.24445000000003L290.13599999999997 393.1775000000002L292.47600000000034 394.1572500000001L302.3180000000002 392.35905L303.26149999999984 394.2499000000001L308.5194999999999 400.32939999999996L310.4864999999995 399.8992000000001L314.2534999999998 398.9870000000002L322.8914999999995 394.08855000000017L329.2279999999994 392.20349999999996L336.2945000000002 387.1200000000002L337.9570000000001 380.95439999999996L348.2294999999999 388.36825000000005L348.0920000000003 390.51535L351.92199999999957 391.7434L354.5989999999995 388.7921L357.7795000000003 390.63395000000014L363.1314999999995 388.5342L368.95599999999945 385.4024000000001L377.8620000000001 368.40239999999994L372.9435000000001 372.1265500000001L363.9109999999994 363.53110000000015L363.9544999999998 361.2622000000002L368.73950000000036 354.20410000000004L377.43349999999964 347.9420000000002L386.4575000000002 354.33324999999996L390.7605000000001 353.14400000000006L389.8135000000002 361.12989999999996L391.85049999999933 362.1009000000001L402.6125000000002 359.4466L403.63899999999944 367.81679999999994L410.0154999999995 376.05189999999993L401.2125000000003 380.8324999999999L399.8770000000002 384.50535L396.2979999999993 389.32225000000017L393.2645000000002 398.7518L394.68549999999937 397.0478L396.72000000000025 397.86744999999996L396.3684999999998 400.05795000000006L388.4500000000003 410.6158500000001L389.1549999999995 412.70385000000005L394.8574999999994 415.0695000000002L400.2075000000002 417.69139999999993L408.18449999999984 427.3755L407.37750000000005 433.485L403.25500000000034 433.48175L400.61199999999985 438.54569999999995L394.60849999999937 439.5299L387.1090000000004 437.0262500000001L377.3619999999994 450.71725000000015L366.84799999999996 453.32785L364.77250000000026 457.1198000000001L367.37449999999967 458.54905L368.94000000000005 458.58655L369.1149999999993 460.5479500000001L374.5524999999998 470.1403000000002L382.18349999999987 474.81325L381.5859999999998 481.07924999999994L377.7004999999997 482.4130500000001L372.49799999999937 484.44535L374.28249999999935 493.10104999999993L376.72950000000014 494.7276500000001L379.3610000000001 508.7455L374.6799999999996 527.0999500000003L369.52549999999974 530.7800500000002L371.31200000000035 535.5055500000001L378.1460000000004 531.6408000000001L377.2804999999994 537.9854500000001L372.90449999999964 538.6383000000001L361.8029999999999 549.4818499999999L360.15750000000025 553.5617500000001L363.1155000000001 559.1949L362.20699999999965 561.2224000000001L352.9094999999995 564.9721L350.75399999999945 567.2879500000001L355.30449999999973 571.5222L352.8769999999997 574.8370500000001L358.4100000000001 580.2184500000001L358.82150000000024 580.7023000000002L366.5059999999994 587.14425L372.24249999999984 595.3385000000001L368.5360000000003 601.2065000000001L364.40950000000043 613.4084000000001L365.57699999999954 617.3766499999999L363.7035000000003 623.7798499999999L367.00899999999933 633.65715L368.72549999999933 636.5772000000002L370.68899999999985 640.3503499999999L369.5965000000001 646.6840500000001L370.47900000000027 646.8711500000001L372.1309999999994 648.1390000000001L376.1194999999998 646.9367L383.06550000000016 642.3785499999999L388.7829999999997 644.20795L386.4485000000002 651.6536500000001L382.99800000000005 655.7490000000001L372.08650000000034 655.3640000000001L368.08449999999993 656.3172L362.4305000000004 662.5115500000002L352.43150000000014 666.0169500000001L350.45600000000036 675.3515000000002L351.13699999999994 677.5201000000002L351.3670000000002 684.5863500000002L356.96000000000026 690.2128500000001L363.63650000000007 690.9249L371.5089999999998 694.8638L377.24649999999997 698.50435L376.91299999999956 700.62455L373.2254999999998 702.62655L370.6994999999995 710.7981000000001L371.4670000000001 714.2155500000001L372.47799999999984 726.8214500000001L367.66899999999964 731.5139999999999L364.38300000000027 739.8027000000002L362.8194999999994 740.9253000000001L361.88549999999964 746.4555000000001L351.4085 749.6749500000001L342.6935000000003 748.0079000000001L340.36299999999983 745.4876000000002L334.74649999999997 742.8267L326.45599999999945 743.0017L324.95199999999954 744.4453000000001L321.2104999999997 742.6113L320.23900000000026 742.2382000000002L318.7959999999998 743.5921000000002L323.8040000000001 749.6858500000002L323.3579999999995 753.3972L313.7545 757.3439000000002L310.9744999999998 760.7231000000002L310.2525000000003 768.98515L308.68349999999964 762.706L297.7525000000003 761.6809499999999L293.9564999999993 764.0071500000001L292.3604999999998 768.1755L288.10499999999934 766.8085500000001L288.68299999999977 764.7631000000001L285.6359999999995 762.09225L278.3955000000003 766.257L266.3059999999996 769.495L263.9980000000003 777.7625L265.693 781.7363500000001L261.4859999999999 782.6737500000002L256.79449999999974 778.3811000000001L252.59199999999964 778.61165L247.06000000000017 775.2496500000001L244.76249999999936 772.41635L240.8669999999995 774.23135L236.80349999999976 772.7449000000001L236.06750000000034 770.6985500000002L234.10300000000007 766.7515500000002L229.7034999999994 766.6157499999999L221.32100000000037 759.4846000000001L218.96099999999933 753.3106499999999L219.85599999999977 746.7618500000001L217.77150000000006 743.6171000000002L216.46399999999971 741.7657500000001L207.64400000000023 742.5831L204.26950000000033 739.6078L203.97050000000036 739.8008000000002L195.8069999999998 736.12255L186.41449999999963 718.59105L181.94799999999987 719.15175L177.17149999999947 714.3579500000001L172.96600000000012 719.22935L170.16899999999964 717.81995L169.4444999999996 715.7778500000001L163.15200000000004 715.3877500000001L144.65849999999932 704.828L141.60949999999957 707.5831L137.4879999999996 706.0987500000001L135.28799999999933 700.5263500000001L130.03299999999967 698.5480000000001L131.01699999999937 694.6185500000001L120.7065 687.89545L117.43349999999964 682.6333500000001L111.97000000000003 685.8469500000001L108.279 684.0527L104.42299999999932 679.1972000000001L101.28299999999967 673.1525000000001L97.37600000000043 668.7921L98.04700000000025 663.1207499999999L87.5184999999999 664.8860000000002L77.15050000000019 662.9864499999999L72.51949999999965 650.60385L71.36349999999993 639.5812000000001L69.2674999999997 639.2082000000003L61.26899999999978 651.6536500000001L49.99850000000038 653.0473499999999L45.68899999999985 648.2875000000001z">
      <title id="t256">Première circonscription de la Meuse</title>
      <desc id="d256">Cantons de : Ancerville, Bar-le-Duc Nord, Bar-le-Duc Sud, Commercy, Gondrecourt-le-Château, Ligny-en-Barrois, Montiers-sur-Saulx, Pierrefitte-sur-Aire, Revigny-sur-Ornain, Saint-Mihiel, Seuil-d'Argonne, Vaubecourt, Vaucouleurs, Vavincourt, Vigneulles-lès-Hattonchâtel, Void-Vacon</desc>
    </path><path class="circo" id="id-055-02" d="M22.78799999999933 281.0477L27.587499999999636 291.18245L32.242499999999836 302.0828L36.58999999999992 316.09229999999997L38.14999999999941 318.94765000000007L40.78449999999975 322.81650000000013L45.723500000000286 333.20175000000006L46.328999999999496 342.43615000000005L48.91899999999964 359.6944000000002L49.71900000000005 363.46040000000016L51.41899999999964 356.31005000000016L56.9844999999998 355.51270000000017L60.79049999999938 359.7651000000002L68.29200000000014 364.3937500000001L83.14399999999978 360.60640000000006L81.78699999999935 364.4034500000001L84.55000000000041 370.14100000000013L90.84100000000035 370.4308500000002L99.60950000000025 368.98605000000003L104.87049999999954 364.99885000000006L115.44449999999983 361.4250000000001L115.31049999999937 363.5680500000001L125.46299999999974 373.4149500000001L139.03149999999982 368.2059000000001L140.07600000000025 364.14015000000006L145.5574999999999 363.67705L145.95450000000028 364.86655000000013L143.57700000000023 368.52689999999996L144.43599999999947 374.99055L148.3624999999995 380.3041999999999L146.23649999999998 383.9524L145.84949999999935 384.25640000000016L138.8824999999997 387.8666000000001L136.4530000000002 391.1913000000001L136.52500000000032 395.6988000000001L138.6519999999996 396.5223500000002L142.05450000000042 407.4052500000002L145.9680000000003 406.0359500000001L153.8009999999997 408.04194999999993L153.7424999999996 413.36569999999995L160.30700000000024 407.86775000000006L172.67200000000003 411.62229999999994L176.8870000000004 410.72014999999993L182.48199999999997 420.2114500000002L184.2240000000004 421.6196500000001L188.37800000000016 420.19329999999997L189.69449999999938 422.00874999999996L192.38699999999994 427.97685L199.68049999999948 423.4887499999999L202.67849999999953 421.8896000000001L212.90899999999965 420.43935000000005L221.41650000000027 417.60009999999994L232.7845000000002 406.62930000000017L240.77999999999975 402.4958000000001L236.3760000000002 394.38469999999995L237.2905000000003 392.62924999999996L241.0304999999994 394.0458000000001L248.5050000000001 391.4757500000002L251.21149999999943 385.59034999999994L246.5530000000001 381.18709999999993L252.81550000000038 375.44115000000005L263.2865000000004 375.35300000000007L271.5129999999999 373.81955000000005L275.14099999999985 375.68039999999996L283.53899999999953 375.86455L294.4920000000002 387.24445000000003L290.13599999999997 393.1775000000002L292.47600000000034 394.1572500000001L302.3180000000002 392.35905L303.26149999999984 394.2499000000001L308.5194999999999 400.32939999999996L310.4864999999995 399.8992000000001L314.2534999999998 398.9870000000002L322.8914999999995 394.08855000000017L329.2279999999994 392.20349999999996L336.2945000000002 387.1200000000002L337.9570000000001 380.95439999999996L348.2294999999999 388.36825000000005L348.0920000000003 390.51535L351.92199999999957 391.7434L354.5989999999995 388.7921L357.7795000000003 390.63395000000014L363.1314999999995 388.5342L368.95599999999945 385.4024000000001L377.8620000000001 368.40239999999994L372.9435000000001 372.1265500000001L363.9109999999994 363.53110000000015L363.9544999999998 361.2622000000002L368.73950000000036 354.20410000000004L377.43349999999964 347.9420000000002L386.4575000000002 354.33324999999996L390.7605000000001 353.14400000000006L395.50449999999955 346.2671L397.15299999999957 344.7673500000002L394.87499999999955 330.2541500000001L390.60100000000034 330.06065000000007L377.6660000000004 329.86459999999994L378.1484999999998 331.54619999999994L375.6235000000004 333.95155000000017L370.34700000000043 331.47085000000004L368.21199999999976 328.2121000000001L365.3144999999995 322.4093000000002L367.96100000000024 316.5126000000001L375.3004999999996 311.5808000000001L368.57599999999934 309.8949000000002L370.1049999999998 305.8101000000002L369.8339999999996 303.55009999999993L365.68899999999985 301.7273500000002L364.50649999999996 297.4881000000002L372.74099999999976 274.07084999999995L369.1674999999998 271.80409999999995L366.2009999999998 273.3911499999999L357.6654999999994 275.5869000000001L354.6429999999998 272.89555000000007L356.0450000000003 271.30584999999996L353.25050000000033 261.27804999999995L356.9920000000002 256.19200000000006L362.02300000000037 252.84885000000003L355.5269999999996 243.30160000000006L353.68299999999977 241.3985500000001L356.89750000000004 235.5534L355.2935000000002 227.02105000000017L370.6714999999997 220.61945000000009L373.80699999999933 207.47685000000018L371.5194999999994 197.9917500000002L369.0009999999995 197.93305000000004L365.68250000000035 200.88954999999999L358.40299999999957 200.20765000000011L353.63449999999943 187.7206000000001L360.5939999999998 181.9902000000002L361.5009999999995 177.42790000000014L360.7515000000001 171.02294999999998L358.2039999999995 167.4953500000001L349.98199999999997 165.94934999999992L351.1080000000004 160.07085000000018L348.09549999999945 152.46970000000005L339.38049999999976 146.17535000000004L342.05150000000003 143.9172000000002L341.4414999999997 140.68375000000003L341.3009999999997 132.23725000000002L337.1460000000002 132.61809999999997L334.9549999999999 129.6645000000001L316.5459999999996 117.34865000000013L309.1629999999998 122.25670000000008L309.4719999999995 126.73345000000012L305.34700000000043 127.43650000000002L305.0744999999995 129.6723L301.65449999999964 126.93865000000017L295.6314999999995 129.80755000000016L289.5460000000003 127.4045000000001L288.83100000000013 129.02680000000004L282.1090000000004 130.1767000000001L273.0669999999998 137.03460000000007L259.4309999999996 137.22730000000013L258.3529999999996 145.762L253.41199999999958 153.0044000000001L251.70349999999985 153.53190000000012L248.67849999999976 149.1620500000002L249.9630000000002 145.16840000000002L244.00499999999965 144.1235500000002L237.1799999999996 139.4826500000002L237.32799999999997 139.43434999999994L247.78850000000034 136.0548L250.85500000000025 139.31155000000018L257.2090000000003 137.47420000000005L262.66200000000026 128.04810000000003L259.0129999999999 126.16305000000011L257.346 127.55020000000002L247.56200000000035 123.77475000000004L250.86350000000039 120.7053000000002L253.49050000000034 112.43584999999996L244.54049999999938 107.72175000000004L247.53150000000005 101.85415000000006L245.78899999999976 100.94650000000001L244.59550000000036 95.58125000000018L246.24950000000013 89.36925000000002L244.33350000000019 88.36185L243.3725000000004 87.02010000000001L241.1844999999994 87.0168000000001L240.89399999999955 89.19004999999999L235.06250000000023 85.8026000000001L228.32850000000008 85.78820000000007L231.6795000000002 82.69745L235.13450000000034 74.34879999999993L244.75599999999986 83.26930000000004L245.00400000000013 85.2949000000001L243.41350000000034 86.98155000000014L244.36249999999973 88.32645000000014L248.63550000000032 88.10280000000006L252.34249999999975 80.8012500000001L247.4204999999995 78.5397500000002L245.4544999999996 77.41880000000009L244.23900000000003 70.84855000000005L237.34199999999987 65.01280000000008L244.49600000000032 59.56684999999993L245.01949999999965 52.94710000000009L235.3665000000001 43.80070000000018L234.8580000000004 42.57760000000019L236.94499999999948 41.75870000000003L240.1724999999999 33.51735000000019L233.99900000000002 31.0035000000002L229.606 18.291650000000175L230.44599999999946 16.201499999999953L214.53599999999938 0L209.49999999999932 7.466249999999945L207.60800000000017 16.04610000000008L200.9254999999996 16.416550000000143L197.14600000000019 18.584749999999985L191.77400000000034 15.017349999999965L178.25399999999945 35.56180000000012L179.78399999999965 37.8925000000001L168.12900000000013 42.39415000000008L165.01949999999965 47.80500000000018L158.93249999999966 49.33705000000003L154.28350000000023 39.58030000000008L147.01999999999998 35.962849999999946L146.8769999999995 31.469450000000165L138.28849999999989 28.899749999999926L132.84700000000043 32.0933500000001L126.72450000000026 31.074299999999937L122.79549999999972 32.73885000000007L118.94900000000007 35.030399999999986L115.23199999999974 33.04290000000009L112.25999999999999 26.53365000000008L109.16349999999966 18.293000000000177L98.15799999999967 16.00875000000002L94.55100000000016 18.793850000000134L92.33949999999936 25.28764999999993L95.45399999999972 36.052600000000155L93.3439999999996 40.508000000000095L88.1129999999996 38.87795000000011L85.3914999999995 49.6305000000001L88.80949999999984 54.69040000000007L85.47550000000001 62.913850000000195L83.63150000000019 63.40620000000001L80.18000000000029 71.00105000000013L73.86799999999994 71.84145000000001L72.72399999999948 73.63545000000016L78.95700000000033 85.43035000000003L81.23950000000036 85.63770000000005L83.20349999999962 89.43600000000004L82.53550000000018 96.10510000000005L87.99800000000005 102.62310000000014L90.06449999999973 102.05555000000004L91.00149999999985 102.76830000000018L93.96949999999947 105.33469999999994L90.1559999999995 115.4126500000001L92.39450000000033 123.99885000000012L96.16649999999936 128.64720000000005L93.74599999999987 131.98375L89.4889999999998 133.0505500000001L83.17949999999996 139.09665000000018L84.95649999999955 142.99634999999995L91.54300000000035 148.767L89.27699999999959 156.92525000000018L84.9434999999994 161.9219000000001L72.86749999999984 160.68835000000007L70.25899999999979 164.21729999999997L71.0005000000001 168.57335000000006L58.79549999999995 184.11329999999992L59.39049999999952 186.24015000000014L59.769999999999754 190.36040000000014L63.49299999999971 196.77125000000018L60.175500000000284 199.85105000000004L60.36550000000034 202.0075L65.0184999999999 209.4894500000001L71.34950000000003 211.65825000000012L72.52650000000017 214.01595000000015L68.4050000000002 218.1737000000001L69.03050000000007 224.24155000000013L62.581500000000005 226.08370000000008L58.248499999999694 224.89949999999993L51.96550000000002 227.3454000000001L46.709999999999354 231.01230000000015L47.23549999999932 233.09895000000012L33.691499999999905 240.69215000000014L30.38499999999999 246.4407L26.447500000000446 248.45605000000006L34.883499999999685 249.32175L37.7494999999999 259.5947000000001L43.817999999999984 265.3939L38.130499999999756 272.14820000000003L31.5625 273.7912L22.78799999999933 281.0477z">
      <title id="t257">Deuxième circonscription de la Meuse</title>
      <desc id="d257">Cantons de : Charny-sur-Meuse, Clermont-en-Argonne, Damvillers, Dun-sur-Meuse, Etain, Fresnes-en-Woëvre, Montfaucon-d'Argonne, Montmédy, Souilly, Spincourt, Stenay, Varennes-en-Argonne, Verdun Centre, Verdun Est, Verdun Ouest</desc>
    </path></svg>