<svg xmlns="http://www.w3.org/2000/svg" version="1.1" xmlns:xlink="http://www.w3.org/1999/xlink" xmlns:svgjs="http://svgjs.dev/svgjs" width="721.2144999999998" height="587.1228000000002" fill="#eeeeee" stroke="#cccccc" xmlns:sodipodi="http://sodipodi.sourceforge.net/DTD/sodipodi-0.dtd"><path class="circo" id="id-056-01" d="M420.9009999999998 302.7478000000002L416.0572499999998 306.3415500000002L411.5259999999998 315.7165500000002L401.5259999999998 315.5603000000002L399.9634999999998 321.8103000000002L406.3697499999998 327.7478000000002L398.0884999999998 334.1540500000002L397.3072499999998 339.9353000000002L383.5572499999998 334.3103000000002L372.9322499999998 333.3728000000002L370.4322499999998 341.3415500000002L365.5884999999998 343.9978000000002L361.0572499999998 359.9353000000002L358.0884999999998 363.2165500000002L348.0884999999998 368.0603000000002L342.9322499999998 371.6540500000002L338.8697499999998 370.8728000000002L335.4322499999998 369.9353000000002L333.4009999999998 373.5290500000002L331.9947499999998 381.0290500000002L338.7134999999998 395.7165500000002L340.9009999999998 382.4353000000002L341.9947499999998 391.0290500000002L346.0572499999998 383.9978000000002L347.1509999999998 389.6228000000002L342.6197499999998 393.2165500000002L345.9009999999998 397.2790500000002L349.4947499999998 391.6540500000002L352.6197499999998 396.8103000000002L357.9322499999998 400.0915500000002L359.0259999999998 398.9978000000002L359.0259999999998 384.4665500000002L369.6509999999998 389.6228000000002L371.5259999999998 385.8728000000002L367.3072499999998 382.5915500000002L372.3072499999998 378.2165500000002L371.8384999999998 375.2478000000002L368.2447499999998 375.5603000000002L371.3697499999998 372.7478000000002L383.7134999999998 376.4978000000002L391.6822499999998 373.3728000000002L400.1197499999998 375.5603000000002L404.1822499999998 373.9978000000002L406.0572499999998 370.0915500000002L404.4947499999998 366.1853000000002L411.5259999999998 367.2790500000002L413.4009999999998 360.7165500000002L418.5572499999998 374.3103000000002L420.5884999999998 369.4665500000002L423.2447499999998 377.7478000000002L406.6822499999998 371.1853000000002L406.0572499999998 374.1540500000002L425.5884999999998 386.6540500000002L423.7134999999998 382.9040500000002L429.8072499999998 384.6228000000002L431.6822499999998 388.5290500000002L430.7447499999998 393.8415500000002L432.3072499999998 401.9665500000002L427.1509999999998 410.7165500000002L426.2134999999998 418.0603000000002L426.9947499999998 421.6540500000002L422.4634999999998 424.1540500000002L421.3697499999998 422.7478000000002L415.9009999999998 426.9665500000002L404.8072499999998 425.0915500000002L405.5884999999998 420.4040500000002L401.8384999999998 417.4353000000002L396.3697499999998 419.7790500000002L397.1509999999998 425.8728000000002L394.1822499999998 423.2165500000002L393.0884999999998 414.9353000000002L386.5259999999998 414.3103000000002L389.6509999999998 423.6853000000002L384.8072499999998 425.8728000000002L384.9634999999998 418.6853000000002L379.1822499999998 422.4353000000002L375.1197499999998 420.0915500000002L375.4322499999998 424.9353000000002L373.8697499999998 426.1853000000002L370.4322499999998 424.7790500000002L371.5259999999998 417.5915500000002L365.5884999999998 420.8728000000002L366.6822499999998 412.9040500000002L363.7134999999998 415.8728000000002L362.7759999999998 409.6228000000002L355.9009999999998 414.3103000000002L354.3384999999998 410.2478000000002L347.9322499999998 413.3728000000002L350.4322499999998 418.9978000000002L345.9009999999998 419.1540500000002L348.8697499999998 423.6853000000002L357.9322499999998 422.4353000000002L351.6822499999998 425.8728000000002L353.8697499999998 428.2165500000002L357.3072499999998 425.4040500000002L366.9947499999998 430.5603000000002L371.9947499999998 437.7478000000002L374.3384999999998 438.0603000000002L376.5259999999998 450.8728000000002L390.2759999999998 457.9040500000002L394.4947499999998 456.9665500000002L398.5572499999998 458.8415500000002L404.8072499999998 452.7478000000002L417.7759999999998 450.7165500000002L427.4634999999998 446.0290500000002L434.0259999999998 446.9665500000002L447.9322499999998 453.2165500000002L454.6509999999998 437.5915500000002L464.6509999999998 439.6228000000002L467.3072499999998 442.7478000000002L469.3384999999998 446.4978000000002L471.6822499999998 446.4978000000002L482.3072499999998 438.9978000000002L491.2134999999998 439.1540500000002L499.8072499999998 441.4978000000002L501.9947499999998 441.1853000000002L505.2759999999998 435.4040500000002L509.0259999999998 433.5290500000002L517.3072499999998 433.5290500000002L524.0259999999998 438.3728000000002L538.0884999999998 442.2790500000002L548.8697499999998 450.4040500000002L550.1197499999998 451.9665500000002L557.7759999999998 452.7478000000002L561.9947499999998 453.3728000000002L568.0884999999998 447.4353000000002L575.2759999999998 451.1853000000002L584.1822499999998 444.9353000000002L576.2134999999998 434.9353000000002L572.4634999999998 420.4040500000002L567.3072499999998 416.3415500000002L563.0884999999998 415.0915500000002L561.6822499999998 416.6540500000002L558.2447499999998 413.0603000000002L564.1822499999998 404.1540500000002L569.9634999999998 403.8415500000002L573.0884999999998 399.1540500000002L575.1197499999998 399.4665500000002L576.3697499999998 393.3728000000002L570.4322499999998 392.4353000000002L569.4947499999998 390.7165500000002L572.3072499999998 385.0915500000002L571.6822499999998 378.8415500000002L569.1822499999998 377.2790500000002L566.6822499999998 374.7790500000002L562.6197499999998 376.1853000000002L556.6822499999998 373.9978000000002L550.2759999999998 375.4040500000002L548.7134999999998 373.8415500000002L548.8697499999998 367.7478000000002L543.7134999999998 363.6853000000002L535.9009999999998 366.0290500000002L529.6509999999998 365.4040500000002L525.2759999999998 372.7478000000002L519.4947499999998 372.2790500000002L511.9947499999998 375.4040500000002L512.7759999999998 386.4978000000002L506.9947499999998 386.0290500000002L499.4947499999998 388.3728000000002L492.1509999999998 388.8415500000002L489.1822499999998 386.6540500000002L490.5884999999998 382.9040500000002L488.0884999999998 379.7790500000002L489.1822499999998 376.6540500000002L485.5884999999998 366.9665500000002L480.5884999999998 363.3728000000002L481.5259999999998 357.2790500000002L476.6822499999998 353.2165500000002L475.2759999999998 351.4978000000002L476.6822499999998 345.0915500000002L474.9634999999998 343.9978000000002L468.4009999999998 343.0603000000002L456.9947499999998 349.3103000000002L451.2134999999998 346.4978000000002L447.3072499999998 341.9665500000002L446.8384999999998 342.2790500000002L443.5572499999998 340.0915500000002L437.7759999999998 343.0603000000002L432.4634999999998 339.3103000000002L431.0572499999998 337.7478000000002L431.6822499999998 335.8728000000002L439.1822499999998 328.8415500000002L441.3697499999998 322.7478000000002L440.2759999999998 321.0290500000002L424.9634999999998 313.3728000000002L424.3384999999998 305.0915500000002L420.9009999999998 302.7478000000002zM379.9634999999998 382.2790500000002L376.6822499999998 387.5915500000002L373.5572499999998 385.8728000000002L374.8072499999998 389.1540500000002L372.9322499999998 392.1228000000002L370.4322499999998 406.4978000000002L371.2134999999998 411.9665500000002L371.9947499999998 411.3415500000002L371.9947499999998 407.9040500000002L375.4322499999998 407.7478000000002L373.5572499999998 403.3728000000002L375.1197499999998 395.8728000000002L375.7447499999998 394.7790500000002L376.5259999999998 393.9978000000002L377.4634999999998 393.5290500000002L386.0572499999998 394.1540500000002L384.1822499999998 391.9665500000002L379.3384999999998 390.4040500000002L379.9634999999998 382.2790500000002zM398.4009999999998 383.0603000000002L397.6197499999998 388.0603000000002L392.3072499999998 392.1228000000002L393.4009999999998 394.9353000000002L390.7447499999998 396.6540500000002L391.5259999999998 399.9353000000002L392.4634999999998 400.4040500000002L397.4634999999998 393.3728000000002L401.6822499999998 389.6228000000002L401.5259999999998 387.4353000000002L399.4947499999998 384.7790500000002L398.4009999999998 383.0603000000002z">
      <title id="t258">Première circonscription du Morbihan</title>
      <desc id="d258">Cantons de : Muzillac, Sarzeau, Vannes Centre, Vannes Est, Vannes Ouest</desc>
    </path><path class="circo" id="id-056-02" d="M307.3072499999998 219.4665500000002L300.5884999999998 225.0915500000002L297.6197499999998 231.0290500000002L296.3697499999998 239.7790500000002L293.4009999999998 242.7478000000002L286.2134999999998 240.5603000000002L285.5884999999998 242.7478000000002L278.8697499999998 243.3728000000002L273.0884999999998 249.9353000000002L263.5572499999998 255.4040500000002L262.1509999999998 259.4665500000002L257.1509999999998 271.0290500000002L248.24474999999978 280.0915500000002L239.49474999999978 277.2790500000002L237.46349999999978 273.8415500000002L231.36974999999978 274.6228000000002L225.58849999999978 273.2165500000002L226.05724999999978 267.5915500000002L220.74474999999978 258.9978000000002L210.58849999999978 258.0603000000002L191.52599999999978 273.5290500000002L189.49474999999978 281.1853000000002L185.90099999999978 278.9978000000002L181.36974999999978 292.9040500000002L177.61974999999978 295.4040500000002L175.43224999999978 301.4978000000002L169.96349999999978 301.0290500000002L170.58849999999978 305.2478000000002L164.65099999999978 301.6540500000002L163.71349999999978 307.9040500000002L165.90099999999978 313.6853000000002L158.71349999999978 317.9040500000002L161.21349999999978 321.0290500000002L166.68224999999978 318.2165500000002L178.71349999999978 318.6853000000002L181.21349999999978 321.3415500000002L189.18224999999978 323.0603000000002L192.30724999999978 331.0290500000002L188.24474999999978 331.4978000000002L180.74474999999978 327.9040500000002L173.08849999999978 322.7478000000002L170.43224999999978 324.4665500000002L165.58849999999978 325.4040500000002L161.52599999999978 323.9978000000002L158.08849999999978 329.3103000000002L159.96349999999978 331.8103000000002L164.33849999999978 326.8103000000002L179.65099999999978 328.8415500000002L193.71349999999978 335.2478000000002L220.74474999999978 358.0603000000002L221.68224999999978 353.3728000000002L220.58849999999978 342.4353000000002L226.68224999999978 334.7790500000002L219.80724999999978 326.9665500000002L228.24474999999978 330.7165500000002L236.36974999999978 327.2790500000002L239.80724999999978 326.6540500000002L247.30724999999978 328.2165500000002L247.30724999999978 330.4040500000002L243.55724999999978 331.8103000000002L240.90099999999978 335.2478000000002L232.46349999999978 334.9353000000002L229.02599999999978 337.4353000000002L223.40099999999978 343.5290500000002L224.02599999999978 345.5603000000002L223.24474999999978 347.5915500000002L224.65099999999978 356.0290500000002L222.30724999999978 359.6228000000002L227.93224999999978 371.6540500000002L244.18224999999978 382.5915500000002L251.83849999999978 398.6853000000002L252.61974999999978 412.1228000000002L254.18224999999978 420.5603000000002L251.83849999999978 426.4978000000002L249.65099999999978 430.0915500000002L243.86974999999978 433.0603000000002L246.21349999999978 436.6540500000002L246.99474999999978 447.2790500000002L250.90099999999978 459.7790500000002L255.43224999999978 464.6228000000002L261.9947499999998 464.1540500000002L272.3072499999998 467.4353000000002L274.3384999999998 467.1228000000002L271.2134999999998 461.3415500000002L261.8384999999998 451.9665500000002L260.7447499999998 447.7478000000002L261.2134999999998 443.3728000000002L257.9322499999998 440.8728000000002L255.27599999999978 430.4040500000002L256.9947499999998 411.0290500000002L262.7759999999998 401.1853000000002L256.9947499999998 402.5915500000002L256.9947499999998 387.4353000000002L267.6197499999998 397.5915500000002L272.4634999999998 401.3415500000002L266.9947499999998 400.2478000000002L270.1197499999998 408.8415500000002L283.8697499999998 403.5290500000002L288.2447499999998 406.1853000000002L289.4947499999998 400.7165500000002L293.8697499999998 400.0915500000002L293.8697499999998 394.6228000000002L302.1509999999998 407.2790500000002L299.4947499999998 392.9040500000002L301.3697499999998 392.2790500000002L301.6822499999998 392.1228000000002L307.6197499999998 404.3103000000002L310.7447499999998 406.9665500000002L314.4947499999998 404.9353000000002L313.4009999999998 394.3103000000002L316.0572499999998 397.1228000000002L315.7447499999998 399.3103000000002L322.6197499999998 404.3103000000002L325.5884999999998 415.0915500000002L329.9634999999998 408.6853000000002L333.2447499999998 414.3103000000002L342.9322499999998 414.6228000000002L334.0259999999998 401.9665500000002L324.8072499999998 393.8415500000002L330.7447499999998 387.9040500000002L323.4009999999998 382.5915500000002L330.5884999999998 377.5915500000002L327.1509999999998 364.9353000000002L323.4009999999998 365.2478000000002L323.8697499999998 357.9040500000002L319.1822499999998 351.4978000000002L321.0572499999998 348.8415500000002L322.6197499999998 351.9665500000002L326.0572499999998 357.2790500000002L325.5884999999998 361.3415500000002L329.3384999999998 362.5915500000002L327.9322499999998 364.1540500000002L329.8072499999998 369.7790500000002L335.5884999999998 368.3728000000002L338.8697499999998 370.8728000000002L342.9322499999998 371.6540500000002L348.0884999999998 368.0603000000002L358.0884999999998 363.2165500000002L361.0572499999998 359.9353000000002L365.5884999999998 343.9978000000002L370.4322499999998 341.3415500000002L372.9322499999998 333.3728000000002L361.2134999999998 331.4978000000002L359.9634999999998 329.7790500000002L363.7134999999998 318.2165500000002L358.8697499999998 313.9978000000002L359.1822499999998 311.8103000000002L364.6509999999998 308.5290500000002L363.4009999999998 297.5915500000002L364.8072499999998 289.3103000000002L361.5259999999998 286.3415500000002L349.0259999999998 282.9040500000002L346.9947499999998 282.5915500000002L344.6509999999998 286.1853000000002L349.3384999999998 290.4040500000002L348.5572499999998 292.4353000000002L344.3384999999998 293.2165500000002L340.4322499999998 291.6540500000002L334.4947499999998 294.1540500000002L330.5884999999998 292.7478000000002L333.7134999999998 289.4665500000002L331.9947499999998 285.4040500000002L333.4009999999998 276.8103000000002L332.3072499999998 263.6853000000002L338.4009999999998 261.8103000000002L341.2134999999998 251.1853000000002L344.3384999999998 248.0603000000002L331.6822499999998 243.6853000000002L326.8384999999998 229.9353000000002L327.7759999999998 225.8728000000002L326.3697499999998 224.3103000000002L307.3072499999998 219.4665500000002zM315.5884999999998 512.1228000000002L314.8072499999998 512.4353000000002L314.6509999999998 513.5290500000002L314.9634999999998 515.7165500000002L318.0884999999998 516.8103000000002L322.7759999999998 521.4978000000002L329.1822499999998 523.2165500000002L330.4322499999998 526.3415500000002L333.5572499999998 529.3103000000002L331.3697499999998 522.1228000000002L336.3697499999998 516.8103000000002L331.0572499999998 517.9040500000002L324.4947499999998 516.6540500000002L315.5884999999998 512.1228000000002zM207.93224999999978 520.7165500000002L205.90099999999978 521.4978000000002L204.49474999999978 530.2478000000002L201.36974999999978 533.0603000000002L200.74474999999978 541.8103000000002L204.49474999999978 552.2790500000002L211.52599999999978 560.4040500000002L206.68224999999978 567.4353000000002L217.46349999999978 577.7478000000002L229.80724999999978 578.3728000000002L237.77599999999978 574.7790500000002L244.33849999999978 580.0915500000002L248.55724999999978 579.7790500000002L254.33849999999978 583.0603000000002L263.0884999999998 582.7478000000002L271.0572499999998 586.8103000000002L273.2447499999998 587.1228000000002L275.1197499999998 586.1853000000002L278.5572499999998 583.3728000000002L285.9009999999998 567.7478000000002L280.2759999999998 564.7790500000002L269.1822499999998 565.4040500000002L262.1509999999998 560.4040500000002L259.9634999999998 560.5603000000002L249.80724999999978 553.6853000000002L243.55724999999978 535.5603000000002L239.33849999999978 536.6540500000002L229.02599999999978 533.9978000000002L224.18224999999978 530.0915500000002L219.96349999999978 530.0915500000002L218.55724999999978 531.8103000000002L218.24474999999978 527.4353000000002L212.15099999999978 525.7165500000002L207.93224999999978 520.7165500000002zM368.2447499999998 544.9353000000002L365.2759999999998 548.2165500000002L360.9009999999998 548.2165500000002L358.4009999999998 546.4978000000002L358.7134999999998 551.8103000000002L359.6509999999998 553.8415500000002L362.3072499999998 555.7165500000002L369.6509999999998 551.1853000000002L369.9634999999998 545.7165500000002L368.2447499999998 544.9353000000002z">
      <title id="t259">Deuxième circonscription du Morbihan</title>
      <desc id="d259">Cantons de : Auray, Belle-Ile, Belz, Pluvigner, Port-Louis, Quiberon</desc>
    </path><path class="circo" id="id-056-03" d="M286.18750000000006 240.5804999999998L282.1015 233.1457499999999L282.337 215.35180000000025L278.52299999999985 213.0612500000001L269.68500000000006 211.73884999999984L264.1059999999999 208.02540000000022L267.7879999999999 205.78255000000013L274.4334999999998 210.00890000000027L278.0804999999998 207.97660000000008L278.3099999999999 190.9247499999998L274.77299999999985 188.86334999999974L280.1415 179.71259999999972L280.09349999999984 175.45059999999978L274.16499999999985 174.15140000000008L270.0434999999999 169.56385000000012L264.26649999999995 170.83720000000028L262.5909999999999 169.62730000000022L254.07549999999986 162.23799999999983L249.98549999999994 154.21609999999987L251.16950000000003 142.91395000000023L254.22499999999985 139.87795000000006L254.02799999999985 130.85834999999975L255.5324999999999 129.1755999999998L249.8814999999999 120.24074999999982L249.53149999999994 116.10385000000008L244.5245 112.1017999999998L238.22450000000003 112.29179999999985L240.92299999999994 106.55455000000018L239.94499999999988 102.38535000000013L244.85600000000005 95.50299999999993L251.90699999999993 90.58260000000018L259.3535 87.48125000000016L262.62 93.30075000000022L271.1034999999998 100.09074999999996L277.65799999999984 101.02350000000001L288.76599999999996 108.31344999999999L295.4325 108.05285000000026L299.28349999999995 110.16700000000014L305.92600000000004 97.56264999999985L310.17799999999994 97.27775000000008L313.262 94.33924999999988L309.74999999999994 91.72039999999981L309.42849999999993 87.33114999999998L303.80349999999993 80.57984999999974L305.58899999999994 76.88840000000027L309.3105 77.49414999999999L309.4999999999999 71.47265000000004L313.117 69.86384999999984L316.08149999999995 75.58785L328.10149999999993 72.06065000000024L334.76049999999987 77.08630000000028L338.16599999999994 76.16240000000005L339.34200000000004 68.34405000000004L342.26399999999984 65.46404999999993L344.203 66.12790000000018L350.93249999999983 53.79950000000008L354.48800000000006 49.170799999999986L357.56 51.951649999999745L362.45299999999986 45.49365000000023L363.3955 37.66990000000021L375.3604999999999 43.85235000000023L392.1039999999999 40.44915000000003L402.91499999999985 55.69430000000011L404.45099999999996 59.07365000000027L403.54749999999996 62.850500000000125L405.8269999999999 66.22085000000027L407.0439999999999 78.3377999999999L412.68249999999995 71.90729999999974L417.1785 59.58165000000008L418.55500000000006 61.26100000000008L426.93099999999987 59.587399999999775L437.3335 62.178949999999986L438.0464999999998 58.16964999999982L449.12949999999995 49.83119999999985L453.25349999999986 49.429999999999836L459.42949999999996 57.377650000000244L457.55599999999987 60.56775000000016L459.50649999999996 63.33934999999997L457.8014999999999 67.19974999999977L459.1915 71.34855000000016L457.8574999999998 77.74800000000027L451.2119999999999 93.68740000000003L453.0515 97.63385000000028L452.34250000000003 103.94299999999987L456.13 105.16740000000027L455.7069999999999 110.1237500000002L457.8279999999998 112.99350000000004L459.6799999999999 125.86824999999976L456.7675 128.6914999999999L459.076 131.96424999999977L458.1985 138.22799999999972L460.13199999999983 142.02495L467.30699999999985 145.15919999999994L467.9989999999998 153.35219999999993L466.1794999999998 155.69889999999987L468.29499999999996 155.74779999999976L468.7625 157.81569999999988L462.2104999999999 162.96400000000006L459.09899999999993 172.70244999999989L457.7214999999998 183.3551L459.35100000000006 187.4029999999999L466.84949999999986 183.28280000000007L471.1165 183.43500000000006L476.6889999999998 186.0750999999999L483.97249999999985 193.55914999999982L473.41049999999996 201.66209999999978L469.83649999999983 207.36184999999978L473.2434999999998 217.1232500000002L477.1365 222.0297499999998L480.71200000000005 220.13440000000003L487.20249999999993 220.2154999999999L491.3624999999999 225.06899999999973L495.63999999999993 225.85755000000006L494.4475 231.41065000000026L491.16600000000005 234.23114999999996L493.9175 244.5814999999999L494.8354999999998 246.54380000000003L499.11 247.0920000000001L502.9784999999998 252.2262999999998L502.63649999999984 256.52705000000026L498.86650000000003 261.76620000000014L506.156 264.6708000000001L502.65299999999996 273.9465000000001L510.0739999999999 280.24204999999995L507.0024999999998 285.27890000000014L509.6939999999998 288.7857500000001L507.66249999999985 297.38035000000025L514.4004999999999 302.9277000000002L513.6939999999998 306.72900000000027L507.5014999999999 311.7933499999998L508.3685 317.8480000000002L512.2154999999998 319.79964999999993L526.6119999999999 321.5250500000002L530.5724999999998 328.82619999999974L530.8119999999999 332.85435000000007L523.144 344.58109999999976L525.8844999999999 349.95769999999993L524.1724999999999 351.2959999999998L518.2694999999999 349.57465000000013L498.1004999999999 355.61289999999985L490.4864999999998 365.94280000000026L496.1605 368.7725999999998L489.14799999999985 376.7183499999999L485.5894999999998 366.89955L480.5369999999999 363.3379000000002L481.45099999999985 357.2506499999997L476.738 353.1403L475.2814999999998 351.49099999999976L476.74800000000005 345.12260000000026L474.888 343.9512500000001L468.37249999999983 343.10745L457.01300000000003 349.2478L451.22449999999986 346.42515000000003L447.28549999999984 341.9366500000001L446.87399999999997 342.21690000000024L443.5929999999999 340.10249999999985L437.7744999999999 343.1213500000001L432.53950000000003 339.2749500000002L431.0194999999999 337.8136999999998L431.7335 335.8303000000001L439.25549999999987 328.7662L441.344 322.82539999999983L440.248 321.02359999999976L425.0125 313.30825000000004L424.26799999999986 305.08429999999976L420.8525 302.7501000000001L416.1134999999999 306.3019000000003L411.575 315.6991499999998L401.5904999999998 315.5608000000001L399.9124999999998 321.82380000000023L406.3549999999998 327.8008L398.0464999999998 334.1163499999999L397.33000000000004 339.9175500000001L383.55050000000006 334.27165L372.9604999999998 333.32719999999995L361.165 331.4672999999999L359.9955 329.7991999999999L363.6529999999999 318.2402000000002L358.8135 314.0018500000002L359.2444999999998 311.85400000000016L364.66049999999996 308.47215000000006L363.331 297.6218L364.7645 289.2820499999999L361.5529999999998 286.33285L349.067 282.9275000000001L346.9369999999998 282.6657499999999L344.5954999999998 286.1229500000002L349.2914999999999 290.41420000000016L348.49050000000005 292.4086L344.3844999999999 293.1797499999999L340.3744999999998 291.6627L334.5554999999999 294.0760499999999L330.63500000000005 292.7758499999999L333.64949999999993 289.5178499999997L331.96349999999995 285.41675L333.45349999999996 276.7829999999998L332.2985 263.63069999999993L338.43999999999994 261.79595000000006L341.208 251.18645000000015L344.35149999999993 248.0648500000001L331.74049999999994 243.66424999999992L326.7859999999999 229.93569999999977L327.7785 225.87024999999983L326.4269999999999 224.27470000000028L307.28399999999993 219.51295000000016L300.55350000000004 225.14560000000017L297.5799999999998 231.06805000000008L296.361 239.80875000000026L293.3685 242.77035000000012L286.18750000000006 240.5804999999998z">
      <title id="t260">Troisième circonscription du Morbihan</title>
      <desc id="d260">Cantons de : Baud, Elven, Grand-Champ, Locminé, Pontivy, Rohan, Saint-Jean-Brévelay</desc>
    </path><path class="circo" id="id-056-04" d="M692.6774999999998 364.7784999999999L692.3419999999999 362.7348999999998L696.0739999999998 361.2412499999999L696.1564999999998 359.1703000000001L688.7519999999997 356.77750000000003L689.625 350.8026000000001L692.6585 345.1358499999998L692.3964999999998 338.7024500000001L684.4010000000001 334.6106500000002L683.8009999999999 328.1524999999999L685.9014999999999 317.53469999999993L681.6784999999999 312.5798500000002L681.9555 308.5328500000003L689.6535 304.75509999999986L690.0135 301.0041000000001L711.0929999999998 299.46405000000027L710.0464999999999 291.2770999999998L701.5179999999998 291.76445L698.9339999999999 284.11429999999996L681.865 284.87045000000023L683.3619999999999 279.0184499999998L689.1970000000001 277.98834999999997L689.741 273.99395000000027L695.9809999999999 273.74919999999975L699.3719999999998 271.2078500000001L705.5539999999999 265.62794999999994L705.873 261.3733000000002L706.5859999999998 253.2407999999998L716.6565 248.31169999999986L721.2144999999998 239.27885000000003L715.5204999999999 236.4922999999999L713.6134999999999 228.2022999999998L714.8894999999999 224.28800000000024L713.2845 216.90150000000017L707.0724999999999 227.6126499999998L696.0749999999998 233.07549999999992L690.016 229.53925000000027L694.4114999999999 219.63964999999973L688.0079999999998 210.54185000000018L687.895 203.86149999999986L692.493 196.8742500000002L696.7089999999998 195.77179999999998L701.6759999999999 191.46560000000022L700.8734999999999 187.84625000000005L702.979 184.76490000000013L694.8575 174.47369999999978L692.047 164.15639999999996L689.2679999999998 159.6492999999998L685.6305 158.46119999999985L684.4725 156.61355000000015L677.7109999999999 146.5376500000002L674.2265 143.8683500000002L661.422 146.3351L655.333 140.54030000000012L647.3609999999999 136.9724500000001L645.4049999999997 137.96130000000005L635.2974999999998 134.09085000000005L614.3264999999999 139.06380000000013L614.4235000000001 132.5670500000001L619.017 128.05304999999976L616.4939999999999 122.25754999999992L617.3019999999999 120.23754999999994L620.3834999999998 113.92650000000003L630.4139999999998 103.34855000000005L633.5 100.24144999999976L655.2079999999999 100.3374500000001L663.674 93.50554999999986L663.494 86.91010000000006L664.9279999999999 85.22694999999999L659.3205 80.81714999999974L642.0079999999998 83.45469999999978L636.66 86.99405000000013L636.4734999999998 93.25305000000014L627.681 93.71350000000007L627.3214999999999 87.61165000000005L630.6379999999999 80.19560000000013L628.7389999999999 76.57600000000002L627.8199999999998 72.13255000000004L627.5909999999999 63.520750000000135L614.4375 48.60659999999996L601.8354999999999 48.37159999999983L599.4939999999999 54.41644999999994L596.2299999999999 57.12935000000016L589.0600000000001 53.281200000000126L584.581 62.88805000000025L582.6329999999998 61.424599999999714L577.8035 54.54825000000028L577.3454999999999 50.41575000000023L576.8549999999999 43.70589999999993L566.6414999999997 35.04135000000019L563.4799999999998 26.75945000000013L557.6429999999999 23.442400000000134L546.5394999999999 23.905750000000126L540.6029999999998 29.81240000000014L530.1669999999999 28.969999999999914L528.9599999999998 33.20904999999982L509.43099999999987 33.831500000000005L517.473 45.94775000000027L517.6835 50.206249999999955L515.1444999999999 55.99609999999984L509.263 65.22474999999986L504.19849999999997 69.41070000000025L502.02049999999986 72.79690000000016L503.339 85.05460000000028L499.25399999999996 86.2727000000001L496.60200000000003 89.64510000000018L490.3569999999999 89.34169999999995L489.64849999999984 91.38329999999996L484.82200000000006 98.67349999999988L471.61399999999986 110.22100000000023L463.1465 109.97884999999997L461.8535 108.19650000000024L457.8279999999998 112.99350000000004L459.6799999999999 125.86824999999976L456.7675 128.6914999999999L459.076 131.96424999999977L458.1985 138.22799999999972L460.13199999999983 142.02495L467.30699999999985 145.15919999999994L467.9989999999998 153.35219999999993L466.1794999999998 155.69889999999987L468.29499999999996 155.74779999999976L468.7625 157.81569999999988L462.2104999999999 162.96400000000006L459.09899999999993 172.70244999999989L457.7214999999998 183.3551L459.35100000000006 187.4029999999999L466.84949999999986 183.28280000000007L471.1165 183.43500000000006L476.6889999999998 186.0750999999999L483.97249999999985 193.55914999999982L473.41049999999996 201.66209999999978L469.83649999999983 207.36184999999978L473.2434999999998 217.1232500000002L477.1365 222.0297499999998L480.71200000000005 220.13440000000003L487.20249999999993 220.2154999999999L491.3624999999999 225.06899999999973L495.63999999999993 225.85755000000006L494.4475 231.41065000000026L491.16600000000005 234.23114999999996L493.9175 244.5814999999999L494.8354999999998 246.54380000000003L499.11 247.0920000000001L502.9784999999998 252.2262999999998L502.63649999999984 256.52705000000026L498.86650000000003 261.76620000000014L506.156 264.6708000000001L502.65299999999996 273.9465000000001L510.0739999999999 280.24204999999995L507.0024999999998 285.27890000000014L509.6939999999998 288.7857500000001L507.66249999999985 297.38035000000025L514.4004999999999 302.9277000000002L513.6939999999998 306.72900000000027L507.5014999999999 311.7933499999998L508.3685 317.8480000000002L512.2154999999998 319.79964999999993L526.6119999999999 321.5250500000002L530.5724999999998 328.82619999999974L530.8119999999999 332.85435000000007L523.144 344.58109999999976L525.8844999999999 349.95769999999993L524.1724999999999 351.2959999999998L518.2694999999999 349.57465000000013L498.1004999999999 355.61289999999985L490.4864999999998 365.94280000000026L496.1605 368.7725999999998L489.14799999999985 376.7183499999999L488.09049999999985 379.73450000000014L490.63649999999996 382.86445000000015L489.11599999999993 386.6294499999998L492.1949999999998 388.80015000000014L499.4784999999999 388.36905L506.92999999999984 386.04010000000017L512.807 386.4850999999999L512.01 375.40374999999983L519.5024999999998 372.23209999999995L525.2824999999998 372.7202L529.5799999999999 365.4212000000001L535.9514999999999 366.0752500000001L543.7004999999999 363.68164999999976L548.8149999999998 367.75975000000017L548.7049999999999 373.91255L550.3305 375.36405L556.6859999999999 373.92960000000016L562.6225 376.2227999999999L566.7179999999998 374.7461499999997L569.1925000000001 377.2669000000002L571.6329999999999 378.79515000000026L572.2799999999997 385.0410499999998L569.539 390.73874999999987L570.4970000000001 392.40184999999997L576.3784999999998 393.29544999999996L575.1069999999999 399.4252499999999L573.1549999999999 399.1385500000001L569.916 403.8340499999998L564.1479999999999 404.08795L558.1985 413.10220000000015L561.6225 416.61625000000015L563.1574999999998 415.03874999999994L567.3609999999999 416.2957L572.4119999999999 420.4259000000002L576.1775 434.9067000000002L584.1854999999998 444.89215L575.2674999999999 451.2400500000001L568.0859999999998 447.48620000000017L561.9594999999998 453.31155000000024L557.8354999999999 452.74414999999976L556.7794999999999 454.42864999999983L548.1614999999999 453.2650000000001L539.221 459.0786000000003L527.9724999999999 452.21195000000023L523.8694999999998 455.9495500000003L528.4064999999998 467.0271500000001L525.1354999999999 475.12974999999983L526.6729999999998 481.5560499999998L531.8664999999999 485.5203499999999L537.3335 481.76535L541.671 482.3485499999998L545.367 472.64850000000024L549.3295 471.1491000000001L556.7425000000001 464.1177499999998L557.9919999999998 470.54494999999974L562.1054999999999 475.6162999999998L568.5124999999999 477.03565000000026L576.0564999999999 473.14955L580.4655 472.8766999999999L585.2625 477.4102499999998L602.174 473.3016500000002L603.3245 460.38040000000024L608.8264999999999 450.90100000000007L609.8384999999998 439.99104999999986L610.2814999999998 439.75694999999973L617.7994999999999 442.83905000000004L626.251 442.27210000000014L627.7759999999998 443.76525000000015L625.394 449.3849L632.7105 453.7480499999998L644.3779999999998 445.28729999999996L652.1885 442.72640000000024L656.5559999999999 442.10350000000005L657.6384999999999 444.0295500000002L655.9074999999998 452.3220500000002L657.336 454.0041000000002L665.925 455.4979500000002L670.5764999999999 451.10164999999995L671.3379999999997 435.8683500000001L675.3494999999998 434.02175L694.521 428.6790000000002L695.2369999999999 424.41325000000006L692.3789999999999 418.8171L695.4224999999999 404.0022499999998L691.8805 400.9134L693.8385 400.08174999999994L692.9599999999999 389.7196500000001L699.7784999999999 384.7070000000002L700.2804999999998 382.63874999999985L700.4939999999999 373.8734499999998L695.2924999999999 366.98654999999974L692.6774999999998 364.7784999999999z">
      <title id="t261">Quatrième circonscription du Morbihan</title>
      <desc id="d261">Cantons de : Allaire, La Gacilly, Guer, Josselin, Malestroit, Mauron, Ploërmel, Questembert, La Roche-Bernard, Rochefort-en-Terre, La Trinité-Porhoët</desc>
    </path><path class="circo" id="id-056-05" d="M183.86974999999978 263.3728000000002L173.40099999999978 273.5290500000002L167.30724999999978 271.8103000000002L161.05724999999978 273.6853000000002L158.55724999999978 279.3103000000002L157.77599999999978 283.5290500000002L160.90099999999978 283.8415500000002L164.96349999999978 296.6540500000002L174.33849999999978 293.3728000000002L172.46349999999978 280.8728000000002L175.58849999999978 288.2165500000002L183.08849999999978 281.6540500000002L184.33849999999978 276.6540500000002L188.86974999999978 278.0603000000002L189.65099999999978 274.4665500000002L185.27599999999978 270.4040500000002L186.36974999999978 264.6228000000002L183.86974999999978 263.3728000000002zM139.80724999999978 276.9665500000002L137.30724999999978 282.4353000000002L130.74474999999978 281.6540500000002L127.30724999999978 284.6228000000002L118.71349999999978 284.4665500000002L119.02599999999978 286.6540500000002L111.21349999999978 293.2165500000002L98.40099999999978 299.7790500000002L99.18224999999978 303.9978000000002L117.46349999999978 325.0915500000002L121.52599999999978 325.7165500000002L129.02599999999978 321.4978000000002L134.65099999999978 323.3728000000002L136.52599999999978 322.1228000000002L145.11974999999978 322.7478000000002L148.86974999999978 320.8728000000002L154.49474999999978 314.1540500000002L155.43224999999978 307.7478000000002L159.96349999999978 303.9978000000002L162.77599999999978 296.1853000000002L159.96349999999978 286.6540500000002L156.99474999999978 286.1853000000002L153.40099999999978 279.1540500000002L151.68224999999978 280.2478000000002L139.80724999999978 276.9665500000002zM98.86974999999978 353.2165500000002L93.55724999999978 354.9353000000002L93.55724999999978 358.2165500000002L96.52599999999978 361.6540500000002L101.83849999999978 365.7165500000002L104.96349999999978 366.9665500000002L106.05724999999978 368.8415500000002L110.43224999999978 370.0915500000002L114.96349999999978 373.3728000000002L116.05724999999978 373.3728000000002L121.52599999999978 371.8103000000002L125.11974999999978 369.3103000000002L127.61974999999978 371.3415500000002L129.80724999999978 371.8103000000002L132.30724999999978 374.1540500000002L134.49474999999978 365.7165500000002L127.93224999999978 359.7790500000002L121.21349999999978 359.1540500000002L102.15099999999978 353.2165500000002L98.86974999999978 353.2165500000002z">
      <title id="t262">Cinquième circonscription du Morbihan</title>
      <desc id="d262">Cantons de : Groix, Lanester, Lorient Centre, Lorient Nord, Lorient Sud, Ploemeur</desc>
    </path><path class="circo" id="id-056-06" d="M309.4999999999999 71.47265000000004L309.3105 77.49414999999999L305.58899999999994 76.88840000000027L303.80349999999993 80.57984999999974L309.42849999999993 87.33114999999998L309.74999999999994 91.72039999999981L313.262 94.33924999999988L310.17799999999994 97.27775000000008L305.92600000000004 97.56264999999985L299.28349999999995 110.16700000000014L295.4325 108.05285000000026L288.76599999999996 108.31344999999999L277.65799999999984 101.02350000000001L271.1034999999998 100.09074999999996L262.62 93.30075000000022L259.3535 87.48125000000016L251.90699999999993 90.58260000000018L244.85600000000005 95.50299999999993L239.94499999999988 102.38535000000013L240.92299999999994 106.55455000000018L238.22450000000003 112.29179999999985L244.5245 112.1017999999998L249.53149999999994 116.10385000000008L249.8814999999999 120.24074999999982L255.5324999999999 129.1755999999998L254.02799999999985 130.85834999999975L254.22499999999985 139.87795000000006L251.16950000000003 142.91395000000023L249.98549999999994 154.21609999999987L254.07549999999986 162.23799999999983L262.5909999999999 169.62730000000022L264.26649999999995 170.83720000000028L270.0434999999999 169.56385000000012L274.16499999999985 174.15140000000008L280.09349999999984 175.45059999999978L280.1415 179.71259999999972L274.77299999999985 188.86334999999974L278.3099999999999 190.9247499999998L278.0804999999998 207.97660000000008L274.4334999999998 210.00890000000027L267.7879999999999 205.78255000000013L264.1059999999999 208.02540000000022L269.68500000000006 211.73884999999984L278.52299999999985 213.0612500000001L282.337 215.35180000000025L282.1015 233.1457499999999L286.18750000000006 240.5804999999998L285.5175 242.69499999999994L278.9194999999998 243.42240000000004L273.05949999999996 249.96114999999975L263.54799999999983 255.4246999999998L262.19750000000005 259.39099999999996L257.10099999999983 270.99339999999984L248.31500000000005 280.1181500000001L239.4565 277.2332499999999L237.5045 273.8124499999998L231.3669999999999 274.67764999999986L225.61649999999986 273.28115000000025L226.07100000000003 267.61435000000006L220.77100000000002 258.9974000000001L210.54999999999978 258.09320000000014L191.46050000000002 273.5227500000002L187.1289999999999 269.5974000000001L187.7509999999998 265.40084999999976L194.5319999999998 263.37384999999983L186.41449999999992 264.5600999999999L183.91199999999998 263.3156500000001L173.4715 273.5442499999999L167.26849999999985 271.87385000000006L161.06049999999982 273.7630999999999L158.5594999999998 279.2651000000001L155.137 276.5616499999999L145.82999999999998 256.6504500000002L147.84850000000006 250.25230000000022L146.60899999999998 245.84879999999998L146.27099999999984 242.36710000000016L144.75799999999992 246.27985000000024L146.70549999999992 250.06494999999973L145.53399999999982 253.9033999999998L139.85349999999983 255.02290000000016L144.0734999999998 255.91959999999972L149.89000000000004 267.3467499999998L148.25649999999996 270.6720999999999L151.76950000000005 271.8662999999998L153.97899999999993 276.6723000000002L153.3775 279.10255000000006L151.63600000000002 280.23194999999987L139.8614999999998 276.90695000000005L137.28049999999996 282.5019500000002L130.6944999999999 281.6641499999997L127.34549999999984 284.57584999999995L118.64199999999983 284.50755000000015L119.09149999999983 286.59460000000024L111.2254999999999 293.27015000000017L98.33949999999987 299.7515499999997L96.01649999999978 293.44775000000027L87.85449999999997 282.88895000000025L86.52599999999978 272.11990000000014L88.41049999999996 268.1128000000001L92.0259999999999 268.92119999999977L87.37599999999986 266.27324999999985L91.75299999999993 257.5338499999998L88.70000000000005 257.2667999999999L89.98999999999995 254.1197999999997L84.69599999999986 250.94155L84.98499999999979 247.19640000000027L82.79650000000004 245.74940000000026L82.85799999999995 238.15755000000024L89.09300000000002 231.58290000000022L89.23949999999991 229.34604999999976L90.82449999999994 229.62665000000015L90.96350000000001 235.73375L95.20199999999988 240.471L102.84850000000006 244.59479999999985L105.01949999999994 244.44984999999974L110.57099999999991 237.78335000000027L117.01049999999981 237.2705000000002L120.72599999999994 229.78304999999978L120.32899999999984 221.63070000000005L132.51149999999996 217.01745000000017L137.82449999999983 220.4277000000002L142.20499999999987 220.50565000000006L139.86400000000003 217.16124999999977L140.4925 206.4049L136.69099999999986 194.07714999999996L138.84500000000003 186.14930000000015L144.9724999999998 184.12689999999998L146.6069999999999 179.97965000000022L141.09949999999998 170.49019999999985L144.4194999999999 164.86334999999997L144.40449999999998 160.79045000000008L140.95949999999988 158.60720000000015L140.077 154.62175000000002L137.93199999999985 154.45859999999982L136.002 150.5983500000002L133.98200000000003 151.34175000000027L123.8254999999998 158.96515000000022L115.46149999999983 160.58035000000018L114.33099999999996 166.94209999999998L112.60850000000005 168.23525000000018L107.54899999999992 164.90520000000004L105.26700000000005 154.70934999999997L100.10049999999978 148.44679999999983L91.56549999999982 148.91279999999995L85.93099999999993 142.4263000000002L79.56299999999999 141.40199999999993L76.01649999999978 138.82499999999993L67.41150000000005 139.64740000000006L64.16849999999982 142.58564999999976L60.744499999999846 140.4698000000002L54.266999999999825 140.26850000000024L50.98399999999998 143.13109999999995L47.172499999999786 144.5820500000002L39.07250000000005 142.69110000000012L35.68749999999994 129.84260000000006L30.625 122.50850000000014L24.809999999999945 98.76629999999977L13.372499999999832 92.44095000000016L12.437500000000057 90.39559999999994L13.853000000000009 88.64970000000028L12.394999999999925 79.83484999999973L16.137499999999818 74.31519999999978L10.59599999999989 71.26520000000028L0 72.46474999999975L1.3919999999998822 68.28804999999988L0.20700000000005048 61.84790000000021L5.440499999999986 58.013050000000135L3.8864999999998417 54.56414999999993L8.994500000000016 47.818849999999884L8.512499999999932 43.48869999999977L14.316499999999905 40.86445000000026L15.70699999999988 36.966600000000085L26.10050000000001 37.31314999999995L33.870000000000005 34.28960000000018L47.69749999999988 24.887150000000133L71.45899999999983 15.474399999999946L76.36049999999983 19.35889999999972L85.17449999999997 20.20150000000001L100.41599999999988 17.296850000000177L107.32349999999997 15.40300000000002L111.70050000000003 19.726650000000063L120.01000000000005 20.032600000000116L121.84599999999989 18.909550000000195L122.34749999999991 14.719000000000051L132.13449999999995 23.37805000000003L125.39599999999979 31.70729999999992L127.21350000000001 35.642799999999966L134.03899999999993 41.030700000000024L139.83649999999983 34.956000000000245L145.822 35.940949999999816L152.38949999999988 30.132899999999836L163.03149999999988 28.040300000000116L168.3234999999999 24.512449999999717L173.64749999999987 32.84400000000005L173.04599999999994 36.860849999999914L176.2625 39.017200000000116L177.45000000000005 34.936250000000086L183.69849999999985 35.05539999999996L187.53449999999987 36.64615000000026L190.52400000000006 42.225649999999746L196.3334999999998 44.285449999999855L196.94249999999982 42.276600000000144L204.0734999999998 38.798699999999826L210.22249999999985 38.045099999999934L221.60650000000004 43.05940000000021L220.21599999999978 37.04049999999995L225.90450000000004 30.921050000000037L229.8245 29.358050000000162L235.7729999999998 31.149800000000027L237.594 32.294749999999794L243.04000000000002 28.90564999999981L248.67050000000006 31.18485000000021L253.38899999999995 26.899649999999724L256.1759999999998 21.131449999999745L253.45550000000003 17.708000000000084L253.67499999999978 13.29544999999996L256.3024999999999 7.23214999999982L260.4049999999998 5.750249999999824L262.5014999999999 2.070749999999748L270.0539999999998 2.8302999999999656L271.2344999999999 4.448150000000055L273.23949999999996 4.701299999999833L276.7964999999998 0L278.8104999999999 0.07400000000018281L281.7304999999999 3.0541499999998223L288.1465 2.242299999999773L291.7749999999998 4.5929000000001L296.05850000000004 4.712799999999788L298.4019999999998 8.353749999999991L304.6594999999999 7.666399999999953L303.7099999999998 12.066300000000183L306.6674999999998 22.821050000000014L312.3734999999999 25.24850000000015L311.6274999999999 31.430149999999912L320.248 31.042749999999728L326.9999999999999 25.935499999999934L335.37800000000004 24.42639999999983L351.4744999999999 29.45744999999988L357.65600000000006 28.866800000000126L363.3955 37.66990000000021L362.45299999999986 45.49365000000023L357.56 51.951649999999745L354.48800000000006 49.170799999999986L350.93249999999983 53.79950000000008L344.203 66.12790000000018L342.26399999999984 65.46404999999993L339.34200000000004 68.34405000000004L338.16599999999994 76.16240000000005L334.76049999999987 77.08630000000028L328.10149999999993 72.06065000000024L316.08149999999995 75.58785L313.117 69.86384999999984L309.4999999999999 71.47265000000004z">
      <title id="t263">Sixième circonscription du Morbihan</title>
      <desc id="d263">Cantons de : Cléguérec, Le Faouët, Gourin, Guémené-sur-Scorff, Hennebont, Plouay, Pont-Scorff</desc>
    </path></svg>