<svg xmlns="http://www.w3.org/2000/svg" version="1.1" xmlns:xlink="http://www.w3.org/1999/xlink" xmlns:svgjs="http://svgjs.dev/svgjs" width="742.0245" height="638.1222" fill="#eeeeee" stroke="#cccccc" xmlns:sodipodi="http://sodipodi.sourceforge.net/DTD/sodipodi-0.dtd"><path class="circo" id="id-057-01" d="M103.0555000000004 244.11974999999984L103.36000000000013 249.6611999999999L111.30300000000034 251.56229999999994L108.41350000000034 256.37909999999977L115.96549999999979 257.8037999999998L119.37149999999974 254.94489999999985L123.7964999999997 260.5382L118.99200000000064 263.90625L115.07349999999974 270.1317L113.22000000000003 268.79345L114.8535000000004 264.7873999999999L113.40900000000033 263.1812499999998L109.73899999999958 263.0338499999999L107.32449999999972 260.02189999999985L105.78800000000001 261.3158999999999L105.70600000000013 265.44309999999996L99.55649999999991 265.69499999999977L106.5459999999996 275.51705L99.16550000000029 281.48269999999997L95.85299999999961 283.54085L90.8884999999998 281.14329999999995L89.30600000000027 282.3008999999999L87.1429999999998 279.4074999999998L87.96400000000062 277.7637999999999L90.85649999999987 276.17834999999985L91.40300000000025 272.63799999999975L85.9170000000006 267.4334999999999L88.99499999999989 264.52904999999987L87.90849999999978 262.6864999999998L91.16350000000011 262.8618L87.58749999999964 259.57189999999997L90.32600000000002 253.77234999999985L94.28650000000061 252.04160000000002L91.32349999999974 246.62979999999976L82.9359999999997 243.5168999999999L78.33399999999983 237.90030000000002L70.13850000000048 239.39335L55.537500000000364 236.03414999999984L49.932000000000016 233.81439999999998L53.34249999999997 228.45994999999988L58.53650000000016 224.8408999999998L52.674500000000535 221.97809999999976L47.441499999999905 214.9402999999998L39.00700000000029 213.5598999999999L36.60499999999956 208.25604999999996L36.2824999999998 207.04444999999993L39.333500000000186 202.74194999999992L40.046499999999696 197.44349999999997L43.39650000000006 198.82914999999997L46.801000000000386 197.8644L45.677500000000464 194.54379999999986L49.37049999999999 189.52184999999986L53.24550000000045 188.3296999999999L58.378999999999905 182.1742999999998L58.90700000000038 175.70589999999982L61.08600000000024 175.84845L65.09050000000002 185.5950999999999L67.2485000000006 185.95370000000003L67.58000000000038 183.41354999999993L68.65099999999984 174.57699999999988L71.17150000000038 171.02024999999998L80.64300000000003 167.33019999999982L87.06900000000019 166.73309999999987L90.23500000000013 163.76485000000002L92.6419999999996 162.41799999999984L97.91000000000054 162.3339999999999L99.80249999999955 163.3701499999998L104.71149999999966 159.3581499999999L110.6065000000001 158.05284999999998L112.45400000000018 160.81649999999996L109.17350000000056 163.2340499999998L110.05400000000009 167.37644999999986L124.28200000000061 166.87179999999984L123.26149999999984 171.18299999999977L119.21199999999999 172.82959999999974L121.64949999999976 176.54759999999982L125.75649999999996 178.11970000000002L124.8784999999998 182.08379999999977L131.95299999999975 190.2292L131.14149999999995 192.25155L129.59249999999997 200.676L121.67850000000044 213.3173499999998L124.56549999999993 217.97404999999998L131.3670000000002 217.9694999999998L134.3285000000003 223.1962999999999L133.0849999999998 231.1408499999999L131.4695000000006 235.33169999999984L129.81750000000034 240.28089999999992L126.29950000000008 241.65234999999996L121.68099999999981 238.65919999999988L117.56750000000011 238.02569999999974L114.73250000000007 241.13264999999984L110.58800000000019 241.87194999999974L104.43449999999984 240.79610000000002L103.0555000000004 244.11974999999984z">
      <title id="t264">Première circonscription de la Moselle</title>
      <desc id="d264">Cantons de : Maizières-lès-Metz, Marange-Silvange, Metz III (partie non comprise dans la 3e circonscription), Rombas, Woippy</desc>
    </path><path class="circo" id="id-057-02" d="M59.705999999999904 343.36974999999995L63.76549999999952 348.1126499999999L72.8309999999999 345.82479999999975L76.5809999999999 347.2708499999999L75.27349999999956 351.31L78.96399999999971 356.35984999999977L79.86850000000004 357.4552L87.64250000000061 353.70035L93.96299999999997 354.5788999999999L98.38449999999966 361.91959999999995L97.6724999999999 366.27729999999985L99.81400000000008 366.3154499999999L98.49199999999996 372.43644999999987L99.82499999999959 374.11354999999986L107.58800000000065 377.17185L108.94250000000056 376.6905L110.47350000000051 371.4820499999999L113.93050000000017 369.9782499999998L115.5600000000004 371.05109999999996L117.74049999999988 370.9760499999999L119.7524999999996 374.80714999999975L132.81399999999962 373.8638L132.7589999999998 372.63835L139.0809999999999 373.5195999999999L140.98250000000007 379.2924499999998L145.09599999999978 380.20654999999977L146.07399999999984 382.12124999999986L150.40949999999953 382.1542499999998L156.89700000000016 376.57144999999986L160.58400000000006 376.70085L163.048 380.1573499999998L167.62100000000032 380.3365499999998L167.87850000000049 387.6882499999999L177.5610000000006 384.6186499999999L177.41899999999987 390.64369999999997L184.5040000000006 395.09254999999996L185.27600000000007 394.66514999999987L184.32050000000004 388.95579999999995L191.3065000000006 384.4782999999998L188.09049999999957 379.38109999999995L196.10300000000052 370.19499999999994L197.5400000000002 362.8703999999999L184.22500000000014 357.2538499999999L180.94749999999976 359.49815L179.6754999999996 355.18549999999976L181.09800000000064 346.48664999999994L178.10550000000035 343.13724999999977L176.0145 343.9416L174.22300000000064 341.48769999999985L170.11100000000056 339.02454999999975L167.49850000000038 335.03304999999983L176.08749999999986 327.74324999999976L182.74400000000014 327.6265999999998L185.55000000000064 324.64334999999977L179.17100000000005 318.66949999999974L177.0754999999997 319.12964999999986L175.7540000000006 312.8851L171.4880000000005 306.0953999999998L169.27999999999997 306.02599999999995L168.41049999999996 303.9945499999999L172.00600000000009 289.4771L168.41499999999996 285.8181499999998L164.92650000000026 286.4078999999998L160.19250000000056 282.63179999999977L156.18349999999964 281.02329999999995L149.9535000000003 282.8563L146.95900000000051 277.2199499999999L153.30649999999991 273.24809999999985L149.9840000000006 268.0637999999999L152.61300000000006 262.3424L152.0754999999997 258.1310499999998L148.46700000000055 255.89594999999974L144.50249999999983 254.95559999999983L138.30799999999954 244.2282499999999L136.16999999999962 244.77779999999996L132.07250000000045 252.54234999999994L130.02899999999954 253.37034999999986L131.5854999999999 254.0014499999998L133.28449999999975 259.6743999999998L131.86699999999973 261.38979999999975L132.53400000000056 263.14249999999987L131.53300000000058 265.6994999999998L132.52200000000016 268.1139999999999L132.09299999999985 269.6599499999999L134.9554999999998 276.94694999999996L134.79799999999955 282.87645L129.24999999999955 286.4747L131.88800000000015 292.3435999999998L127.74250000000052 293.68695L122.52550000000042 290.40539999999993L118.70499999999993 292.51029999999986L115.30750000000012 280.81435L121.49900000000002 280.60215L118.39000000000055 272.6223999999999L113.22000000000003 268.79345L114.8535000000004 264.7873999999999L113.40900000000033 263.1812499999998L109.73899999999958 263.0338499999999L107.32449999999972 260.02189999999985L105.78800000000001 261.3158999999999L105.70600000000013 265.44309999999996L99.55649999999991 265.69499999999977L106.5459999999996 275.51705L99.16550000000029 281.48269999999997L95.85299999999961 283.54085L90.8884999999998 281.14329999999995L89.30600000000027 282.3008999999999L87.1429999999998 279.4074999999998L87.96400000000062 277.7637999999999L90.85649999999987 276.17834999999985L91.40300000000025 272.63799999999975L85.9170000000006 267.4334999999999L88.99499999999989 264.52904999999987L87.90849999999978 262.6864999999998L91.16350000000011 262.8618L87.58749999999964 259.57189999999997L90.32600000000002 253.77234999999985L94.28650000000061 252.04160000000002L91.32349999999974 246.62979999999976L82.9359999999997 243.5168999999999L78.33399999999983 237.90030000000002L70.13850000000048 239.39335L55.537500000000364 236.03414999999984L49.932000000000016 233.81439999999998L46.17500000000064 234.0327499999998L45.12100000000032 232.46659999999991L41.2194999999997 233.4232L43.30100000000016 236.96919999999977L37.96550000000025 239.62529999999987L38.544500000000426 241.59390000000002L42.46999999999957 246.75189999999986L42.05749999999966 252.8897999999998L46.21650000000045 257.9855999999998L47.423 259.65565L44.863000000000284 263.2675999999998L33.68849999999952 263.34029999999984L23.12999999999988 262.9780499999998L16.23550000000023 262.76764999999983L14.627000000000407 268.94014999999996L13.703500000000304 273.28575L20.48599999999965 281.31009999999975L17.564499999999725 284.57505L17.767499999999927 286.79519999999997L24.785000000000537 293.55399999999975L27.272500000000264 302.52909999999986L31.160999999999603 303.40449999999976L33.62600000000043 306.5433999999999L39.10449999999969 306.2724L43.166499999999814 308.83594999999985L47.61949999999956 311.2164999999999L50.680999999999585 309.3208999999999L53.58849999999961 317.5870999999998L64.29399999999987 325.46369999999996L64.41599999999994 327.73675L63.66549999999961 332.2784999999999L63.9670000000001 340.6088L59.705999999999904 343.36974999999995z">
      <title id="t265">Deuxième circonscription de la Moselle</title>
      <desc id="d265">Cantons de : Ars-sur-Moselle, Metz IV, Montigny-lès-Metz (moins les communes de Chieulles, Mey, Saint-Julien-lès-Metz, Vantoux, Vany), Verny</desc>
    </path><path class="circo" id="id-057-03" d="M129.81750000000034 240.28089999999992L126.29950000000008 241.65234999999996L121.68099999999981 238.65919999999988L117.56750000000011 238.02569999999974L114.73250000000007 241.13264999999984L110.58800000000019 241.87194999999974L104.43449999999984 240.79610000000002L103.0555000000004 244.11974999999984L103.36000000000013 249.6611999999999L111.30300000000034 251.56229999999994L108.41350000000034 256.37909999999977L115.96549999999979 257.8037999999998L119.37149999999974 254.94489999999985L123.7964999999997 260.5382L118.99200000000064 263.90625L115.07349999999974 270.1317L118.39000000000055 272.6223999999999L121.49900000000002 280.60215L115.30750000000012 280.81435L118.70499999999993 292.51029999999986L122.52550000000042 290.40539999999993L127.74250000000052 293.68695L131.88800000000015 292.3435999999998L129.24999999999955 286.4747L134.79799999999955 282.87645L134.9554999999998 276.94694999999996L132.09299999999985 269.6599499999999L132.52200000000016 268.1139999999999L131.53300000000058 265.6994999999998L132.53400000000056 263.14249999999987L131.86699999999973 261.38979999999975L133.28449999999975 259.6743999999998L131.5854999999999 254.0014499999998L130.02899999999954 253.37034999999986L132.07250000000045 252.54234999999994L136.16999999999962 244.77779999999996L138.30799999999954 244.2282499999999L144.50249999999983 254.95559999999983L148.46700000000055 255.89594999999974L152.0754999999997 258.1310499999998L152.61300000000006 262.3424L149.9840000000006 268.0637999999999L153.30649999999991 273.24809999999985L146.95900000000051 277.2199499999999L149.9535000000003 282.8563L156.18349999999964 281.02329999999995L160.19250000000056 282.63179999999977L164.92650000000026 286.4078999999998L168.41499999999996 285.8181499999998L172.00600000000009 289.4771L168.41049999999996 303.9945499999999L169.27999999999997 306.02599999999995L171.4880000000005 306.0953999999998L175.7540000000006 312.8851L177.0754999999997 319.12964999999986L179.17100000000005 318.66949999999974L185.55000000000064 324.64334999999977L182.74400000000014 327.6265999999998L176.08749999999986 327.74324999999976L167.49850000000038 335.03304999999983L170.11100000000056 339.02454999999975L174.22300000000064 341.48769999999985L176.0145 343.9416L178.10550000000035 343.13724999999977L181.09800000000064 346.48664999999994L179.6754999999996 355.18549999999976L180.94749999999976 359.49815L184.22500000000014 357.2538499999999L197.5400000000002 362.8703999999999L196.10300000000052 370.19499999999994L203.93599999999992 370.90809999999976L206.93949999999973 378.3576499999998L206.05500000000006 380.17094999999983L207.81849999999963 382.5061499999998L209.0465000000006 381.7551499999999L219.3534999999997 374.153L219.0465000000006 369.8242499999998L218.27650000000062 365.71879999999993L221.11049999999977 362.7720499999998L219.9535000000003 359.15054999999995L222.1334999999999 356.1565999999999L227.63500000000022 352.2882999999999L227.6335000000006 347.7538999999999L225.20099999999957 344.075L232.11549999999988 342.64504999999986L229.64600000000019 339.94945L229.375 336.2819999999999L228.72100000000046 328.5738999999998L225.36550000000034 322.26315L222.00150000000008 324.61355L218.04700000000025 324.6051L218.22350000000029 320.91514999999987L215.24250000000052 318.4179999999998L224.2769999999996 309.1017499999998L232.69300000000044 311.56915L235.84249999999997 314.7234499999999L238.20299999999975 311.54775L236.37200000000007 310.7147499999999L237.73649999999975 304.90429999999975L236.05050000000006 299.12844999999976L250.94150000000013 296.67309999999986L255.0305000000003 298.1854999999999L253.07900000000018 291.7533499999999L250.72599999999966 290.1952L250.60600000000022 286.44745L256.2945000000002 278.4017L257.5350000000003 267.4691999999999L256.1514999999997 265.6839499999998L250.77650000000062 268.9336499999999L236.02049999999963 268.698L234.7429999999997 271.81434999999993L230.71699999999964 272.77169999999984L225.52549999999997 269.3205499999999L224.93650000000002 267.18615L227.98200000000065 263.98239999999987L223.89049999999997 256.33684999999986L227.79250000000047 248.45244999999977L224.65149999999994 240.20744999999977L216.4250000000004 243.46944999999977L214.96700000000033 241.7283999999998L212.67450000000053 235.50779999999975L216.58900000000017 236.6826499999999L217.92400000000043 235.05619999999993L218.07249999999954 226.86304999999976L223.34600000000023 224.00364999999994L221.45849999999996 218.54554999999976L223.47350000000006 215.64904999999982L227.57550000000037 210.9295499999999L229.24800000000005 204.92219999999975L224.82250000000022 197.40639999999985L219.2025000000001 194.65699999999998L221.43149999999991 194.4194999999999L223.51 194.00634999999994L226.98399999999992 188.87045L223.6424999999997 181.62104999999997L215.05949999999984 183.05880000000002L215.50849999999969 178.7322499999999L209.13099999999986 177.62564999999995L205.98600000000033 174.67854999999986L206.42450000000053 170.70249999999987L210.38599999999974 168.90994999999975L213.99250000000052 164.9285999999998L206.7489999999998 165.84159999999997L203.84500000000003 168.9978499999998L197.67299999999977 171.25334999999978L191.93449999999984 177.79814999999985L189.72499999999968 177.5637999999998L188.7175000000002 181.6620499999999L182.7895000000001 187.64184999999998L172.9830000000004 183.8033999999999L168.61850000000004 184.41714999999988L167.5999999999999 175.77100000000002L164.5150000000001 170.01295L166.18749999999977 166.02784999999983L164.22450000000026 162.9344499999999L165.78200000000038 159.46564999999993L164.23149999999964 158.10624999999987L156.37050000000045 156.42569999999978L155.6415000000004 160.94284999999985L148.96200000000022 167.2234499999999L144.81250000000045 167.55685L142.77900000000045 163.84034999999983L134.79600000000005 171.51699999999977L131.49400000000014 170.41014999999987L133.42700000000036 165.22750000000002L128.10749999999985 164.1379999999998L124.28200000000061 166.87179999999984L123.26149999999984 171.18299999999977L119.21199999999999 172.82959999999974L121.64949999999976 176.54759999999982L125.75649999999996 178.11970000000002L124.8784999999998 182.08379999999977L131.95299999999975 190.2292L131.14149999999995 192.25155L129.59249999999997 200.676L121.67850000000044 213.3173499999998L124.56549999999993 217.97404999999998L131.3670000000002 217.9694999999998L134.3285000000003 223.1962999999999L133.0849999999998 231.1408499999999L131.4695000000006 235.33169999999984L129.81750000000034 240.28089999999992z">
      <title id="t266">Troisième circonscription de la Moselle</title>
      <desc id="d266">Cantons de : Metz I, Metz II, Metz III (moins la partie située à l'ouest de la voie ferrée de Nancy à Thionville), Pange, Vigy, Communes de : Chieulles, Mey, Saint-Julien-lès-Metz, Vantoux, Vany</desc>
    </path><path class="circo" id="id-057-04" d="M460.7159999999999 376.8632499999998L455.856 381.00415L451.85249999999996 380.47044999999997L447.9060000000004 375.6359499999999L446.6870000000006 375.7374999999999L445.4399999999998 382.3502499999998L451.2199999999996 385.3366L454.83749999999986 393.56074999999976L452.2029999999995 402.0206999999999L458.54600000000005 404.2263L465.2060000000006 403.8235999999998L489.4270000000006 415.9313L493.69699999999966 420.91679999999997L491.79899999999975 424.78654999999975L503.9999999999998 421.5770999999998L510.33000000000015 422.2322L512.2964999999999 427.83164999999997L507.87950000000023 431.59204999999986L505.04050000000007 432.10744999999974L492.4445000000003 432.56729999999976L493.1910000000005 439.6133499999999L490.3425000000004 449.51299999999975L492.6025000000004 453.25604999999996L500.7344999999998 453.0133999999998L506.4599999999996 455.1470999999998L507.6999999999998 458.84949999999975L498.7004999999999 463.26449999999994L499.66800000000035 467.32399999999984L503.99650000000065 471.6784999999999L506.67100000000005 468.2388L514.7569999999996 465.1213999999999L520.1070000000004 463.51804999999985L524.2084999999997 462.0888499999998L522.6814999999999 456.03384999999975L525.4984999999999 452.69454999999994L529.7375 451.5397999999999L532.9470000000003 448.47049999999996L530.7190000000003 439.8819499999999L533.5815000000002 434.04304999999994L544.0600000000006 435.7078999999999L545.5264999999997 432.2088499999998L548.9035000000001 430.31194999999997L552.8065000000004 437.6444999999998L549.8789999999997 440.7045499999998L556.7764999999997 445.4331499999998L560.412 445.96509999999995L563.8160000000005 450.51349999999985L562.8629999999998 444.6894499999999L566.8460000000005 444.46154999999976L574.5849999999996 451.93029999999993L580.0144999999998 448.5208499999999L581.866 450.8472499999999L576.7115000000001 453.2482999999999L574.5450000000005 456.35785L579.8609999999996 460.20789999999977L581.182 464.4117L585.1324999999997 461.2144999999998L593.9525000000003 466.7621L593.8660000000004 471.67264999999986L601.4684999999997 483.54995L603.4900000000005 483.96265L594.606 493.7958999999998L592.2465 507.1007499999999L591.9285000000002 506.98475L583.4199999999998 520.2165499999999L582.8285000000005 526.9956L580.8770000000004 530.6942999999999L576.7674999999997 530.22875L573.2810000000006 532.3716L579.6455000000003 544.7704999999999L581.5409999999997 545.6386999999997L583.4875 551.5585999999998L585.5650000000003 551.5090499999999L599.6720000000005 552.9040499999999L589.6244999999999 567.6947999999999L583.9165000000003 571.1329499999999L587.9505000000006 576.0091L579.3979999999999 591.6665999999998L583.0039999999997 596.94515L579.2399999999998 598.8997999999998L572.8444999999999 608.4971999999999L563.9355 620.7341499999998L562.3625000000004 622.2231499999998L555.8979999999997 622.0048499999998L552.4525000000006 624.2269999999999L549.837 631.9118999999998L541.9309999999996 637.41815L541.6809999999998 638.1222L535.2805000000001 636.18785L528.9689999999996 637.6068499999999L519.4235000000003 632.3015499999999L509.24549999999954 636.69615L504.0459999999996 632.4600499999999L494.6424999999999 630.6788499999999L505.385 629.0720999999999L504.67899999999986 626.9998499999999L494.59100000000035 622.8061499999999L489.31850000000054 615.8537999999999L484.8715000000004 604.2053999999998L478.47150000000056 603.8951L468.35699999999974 595.57255L476.7584999999997 588.9909999999998L477.3630000000003 586.8621999999999L474.0324999999996 584.0120499999998L471.0609999999997 586.2631499999998L467.4234999999999 585.2507499999999L466.60150000000044 585.52135L463.37800000000016 583.6269500000001L453.65549999999985 586.2972L444.7064999999998 581.9400999999999L445.933 577.83255L440.5690000000004 568.7669499999998L436.74049999999966 570.1567L435.2565000000004 575.9904499999999L430.10850000000005 578.87285L424.9660000000006 575.5486999999999L409.74050000000034 578.16305L405.6690000000003 576.29585L403.51999999999975 572.5135999999998L402.0225000000005 567.55845L399.8879999999997 563.5731999999998L391.13650000000007 561.4446999999998L377.93049999999994 564.1553499999998L374.31299999999965 560.813L375.7484999999997 557.2379999999998L369.9935000000005 558.1213499999999L369.5175000000006 555.98345L367.38399999999956 550.3018499999998L368.2775000000004 546.8151999999998L366.24450000000024 546.6832499999998L353.89800000000037 550.1937499999999L346.68649999999957 545.9122499999999L340.5105000000003 544.6598L338.0605000000003 538.8243L335.9424999999999 539.37985L329.6220000000005 548.3166L328.5419999999999 545.9366999999997L330.27199999999993 544.6437000000001L330.3825000000006 536.0245999999997L332.0754999999997 532.5499499999999L326.4824999999996 523.3775999999998L321.2995000000001 523.1773499999999L318.3375000000001 525.7250499999998L311.02100000000064 518.8516999999999L307.3905000000002 517.81465L299.87300000000005 517.1852999999999L298.3749999999998 509.4197L295.8465000000001 506.36874999999975L291.703 504.75839999999977L284.2399999999998 491.13675L278.1404999999995 491.77819999999997L274.23099999999977 494.17944999999975L272.3509999999999 495.33649999999994L266.0710000000006 493.30209999999994L262.64850000000024 495.82509999999985L260.60749999999985 496.0648999999998L261.45399999999995 492.3648L254.03300000000058 485.3251L241.39099999999985 483.9071999999999L238.09200000000033 484.8305499999998L237.10249999999974 476.3283999999999L233.1899999999996 475.1003499999999L229.38200000000052 469.8644999999999L213.13150000000064 479.1119499999999L210.52599999999984 475.34159999999986L202.93250000000057 472.6989499999999L197.69900000000007 475.9704499999998L196.37699999999995 467.96464999999984L192.9894999999999 460.29304999999994L197.19150000000013 456.0048499999999L195.73350000000005 454.4494499999999L189.52850000000012 455.7137499999999L186.68049999999994 453.31544999999977L187.15450000000033 449.6285499999999L186.20599999999968 447.8100999999998L176.54250000000047 449.1805499999998L173.28300000000013 447.1787499999999L180.60550000000035 443.8836999999998L186.40549999999962 446.2265499999998L189.65900000000033 441.2152499999999L185.55849999999964 439.78054999999983L179.71499999999992 438.99924999999996L175.95550000000003 441.0377L167.7144999999996 434.64169999999996L166.63400000000024 430.9223L172.85600000000045 428.9271499999998L171.7304999999999 419.90759999999995L177.16400000000021 421.84004999999985L176.2435000000005 414.1826999999998L176.3975000000005 412.2924999999998L171.69700000000034 409.57685L177.69700000000057 403.28385L183.79050000000007 400.87579999999974L184.5040000000006 395.09254999999996L185.27600000000007 394.66514999999987L184.32050000000004 388.95579999999995L191.3065000000006 384.4782999999998L188.09049999999957 379.38109999999995L196.10300000000052 370.19499999999994L203.93599999999992 370.90809999999976L206.93949999999973 378.3576499999998L206.05500000000006 380.17094999999983L207.81849999999963 382.5061499999998L209.0465000000006 381.7551499999999L219.3534999999997 374.153L219.0465000000006 369.8242499999998L218.27650000000062 365.71879999999993L221.11049999999977 362.7720499999998L219.9535000000003 359.15054999999995L222.1334999999999 356.1565999999999L227.63500000000022 352.2882999999999L227.6335000000006 347.7538999999999L225.20099999999957 344.075L232.11549999999988 342.64504999999986L234.61450000000013 346.92244999999986L237.07499999999982 350.87684999999993L247.2569999999996 355.4858999999999L253.26350000000048 354.84819999999985L253.64000000000033 354.61449999999985L266.001 352.99724999999995L270.26500000000055 359.67355L272.2045000000003 360.07554999999996L274.80350000000044 357.3082499999998L274.53949999999963 353.33325L276.7439999999999 350.0409499999998L279.61250000000064 346.8596499999998L285.39499999999975 351.89464999999984L291.5174999999999 345.2711499999998L291.98600000000056 340.5705999999998L294.81149999999957 335.42884999999984L295.9680000000003 335.5745999999999L305.0279999999998 337.31904999999983L312.96299999999974 325.6703999999999L320.3324999999995 329.56909999999993L321.0640000000001 331.6150999999999L324.36000000000035 331.89044999999993L318.31549999999993 322.6046499999998L320.2660000000003 313.9669999999998L328.10249999999996 307.32274999999987L330.78100000000063 310.80355L341.39400000000023 309.05959999999993L342.0950000000005 301.4176499999999L350.3870000000006 298.10704999999984L351.5854999999999 294.90635L365.20200000000045 293.18815L370.48400000000015 293.03184999999985L377.59900000000016 289.61265L377.8444999999999 287.6451L390.7349999999997 281.7610499999998L391.0069999999996 282.0367999999999L393.01450000000045 288.4708999999998L386.2495000000001 294.4963999999999L397.9899999999998 296.35075L396.2160000000006 301.7463999999998L397.40800000000036 305.73295L398.52499999999964 305.5066499999998L409.29250000000025 303.70404999999977L410.2660000000003 312.27314999999976L406.33350000000064 319.18214999999975L410.2895000000001 320.85229999999996L411.3065000000006 325.04965L419.10600000000045 326.4953L420.068 328.35099999999983L418.0714999999998 331.3442999999998L419.5405000000005 334.7117499999999L424.2669999999998 341.70985L425.539 345.63829999999996L424.3629999999996 343.8955999999999L418.08850000000007 343.5737499999999L415.89650000000006 347.14454999999987L409.8014999999998 347.68459999999976L407.903 348.70509999999996L407.2315000000003 352.95709999999985L398.86499999999955 358.89549999999986L396.4454999999998 362.4315999999999L400.63999999999965 363.14875L410.1245000000006 358.3498L418.95700000000033 356.21999999999986L425.43750000000045 349.82529999999997L423.3190000000002 353.6667L431.0895000000005 361.1972499999999L438.68799999999965 359.4773999999998L444.8289999999997 358.68899999999996L453.3495000000005 364.6004499999998L464.71199999999953 366.14784999999983L462.57349999999974 371.1144999999999L460.7159999999999 376.8632499999998z">
      <title id="t267">Quatrième circonscription de la Moselle</title>
      <desc id="d267">Cantons de : Albestroff, Château-Salins, Delme, Dieuze, Fénétrange, Grostenquin, Lorquin, Phalsbourg, Réchicourt-le-Château, Sarrebourg, Vic-sur-Seille</desc>
    </path><path class="circo" id="id-057-05" d="M698.3420000000001 376.4866999999998L694.6325000000002 371.13845L688.4294999999997 370.26879999999977L677.3059999999998 365.8611499999998L673.4469999999999 358.4708499999999L664.8905000000002 357.5237999999999L662.2654999999997 354.2675L652.7515000000005 358.8728499999999L642.2389999999996 360.59139999999985L637.0545000000004 364.1428499999998L631.7865000000006 365.12594999999976L626.7674999999997 363.605L622.9370000000006 361.7138L621.2490000000003 363.02509999999984L616.2520000000006 366.9160499999998L612.0844999999997 367.03575L609.2335000000003 370.1833499999998L600.566 363.72799999999984L600.1475000000005 361.6011499999999L593.6564999999996 361.68334999999985L594.9680000000001 356.2634L593.7545 354.83914999999996L595.2395000000001 351.25819999999976L571.4644999999996 341.52524999999997L559.2764999999997 346.4225499999998L553.5545000000002 337.56129999999985L549.4600000000003 337.5645499999999L544.3709999999999 329.4012999999998L538.9385000000004 332.04205L538.4855000000005 329.9299499999998L525.5475000000001 330.0530499999999L522.1405000000004 318.4089499999999L519.6394999999995 313.2409999999999L521.096 309.4064499999999L515.5205000000001 304.1359L513.6570000000006 293.93084999999985L514.1859999999997 291.80909999999983L518.4739999999999 291.5541999999999L519.2185000000006 287.76185L515.0689999999997 286.46434999999997L512.5385000000006 283.02629999999994L508.1925000000001 287.89355L502.08849999999984 286.76469999999995L500.5065000000002 288.3068L499.4730000000004 292.43509999999986L501.06149999999957 296.41819999999996L503.7485000000004 300.8839499999999L493.65549999999985 313.67789999999985L491.32349999999974 321.94364999999976L492.56700000000023 327.88839999999993L490.2279999999996 333.58389999999986L486.5935000000002 336.18544999999983L483.78450000000043 342.35749999999996L486.3225 348.67984999999976L485.88250000000016 350.9188999999998L482.0595000000003 353.17139999999995L484.01050000000055 361.98565L481.3319999999999 361.9824L478.29399999999964 360.92929999999996L467.1365000000003 359.08514999999994L464.71199999999953 366.14784999999983L453.3495000000005 364.6004499999998L444.8289999999997 358.68899999999996L438.68799999999965 359.4773999999998L431.0895000000005 361.1972499999999L423.3190000000002 353.6667L425.43750000000045 349.82529999999997L418.95700000000033 356.21999999999986L410.1245000000006 358.3498L400.63999999999965 363.14875L396.4454999999998 362.4315999999999L398.86499999999955 358.89549999999986L407.2315000000003 352.95709999999985L407.903 348.70509999999996L409.8014999999998 347.68459999999976L415.89650000000006 347.14454999999987L418.08850000000007 343.5737499999999L424.3629999999996 343.8955999999999L425.539 345.63829999999996L424.2669999999998 341.70985L419.5405000000005 334.7117499999999L418.0714999999998 331.3442999999998L420.068 328.35099999999983L419.10600000000045 326.4953L411.3065000000006 325.04965L410.2895000000001 320.85229999999996L406.33350000000064 319.18214999999975L410.2660000000003 312.27314999999976L409.29250000000025 303.70404999999977L414.4079999999997 301.93509999999975L418.5635000000002 297.08424999999977L431.3485000000003 289.6411999999998L419.7104999999999 286.3903499999998L419.8474999999996 285.8596499999999L431.30750000000035 280.4457499999998L430.5955000000006 271.9915499999999L433.52049999999963 269.2738L437.9390000000001 269.821L443.72550000000047 279.1719499999999L447.2085000000004 276.6066999999998L449.32300000000055 276.7306499999998L449.98550000000023 280.73645L458.18399999999997 279.15704999999974L459.38350000000014 260.6055999999998L464.6100000000001 254.28214999999994L465.45600000000036 252.4131L462.65750000000025 243.61109999999996L460.6955000000005 243.0848499999999L460.79349999999977 237.19464999999985L463.79050000000007 229.0975499999999L466.9825000000003 226.66154999999975L469.3380000000002 225.07295L477.7800000000002 219.6799999999999L478.5604999999998 213.2815499999998L476.87900000000013 209.3791999999999L478.9295000000004 208.4296999999998L484.6424999999999 211.33334999999988L482.3305000000005 222.35320000000002L484.82849999999985 233.32309999999978L489.7810000000004 243.47465L489.7225000000003 250.20224999999982L489.8440000000005 256.83884999999975L494.97799999999984 260.5055999999999L498.96600000000035 258.5602499999999L501.1964999999998 252.36759999999975L508.57849999999985 247.7275499999999L505.4124999999999 241.84339999999992L505.68200000000047 235.37589999999994L512.0325000000003 233.3893999999998L516.2959999999998 234.07429999999977L517.4324999999999 235.99969999999985L514.3545000000006 239.2264L514.6199999999999 243.55649999999997L523.4119999999996 241.92264999999992L526.2845000000004 247.78144999999995L537.8084999999999 255.18939999999986L540.0535000000002 251.19729999999976L548.8925000000006 249.43844999999982L553.6474999999996 254.34059999999988L554.6105 258.82389999999987L560.0414999999998 252.5130999999999L574.6344999999997 249.38514999999995L576.1919999999998 250.89004999999986L589.0335000000005 253.5691L590.8855000000005 257.26609999999994L595.0154999999995 258.8355999999999L599.5690000000002 253.04434999999984L603.6374999999998 244.95059999999995L608.8520000000005 240.46345000000002L624.5005000000003 239.33879999999988L624.3500000000006 237.19529999999992L625.9469999999999 221.89879999999988L632.4615000000006 219.77884999999986L659.6965 214.0885L656.1855000000003 226.72199999999975L661.268 223.82554999999996L664.4614999999999 227.0202999999998L672.5514999999996 224.00884999999988L679.1435000000001 224.17399999999986L680.7439999999997 230.72689999999994L684.2335000000003 233.60124999999982L684.3380000000002 235.85999999999984L678.3955000000003 244.9577499999998L682.2119999999995 246.88379999999995L684.9255000000005 253.00539999999984L690.4010000000005 256.48945L692.9634999999996 264.8990999999998L696.0744999999997 270.5382499999999L707.8390000000002 280.11419999999987L711.9304999999997 281.71884999999975L725.2285000000006 279.70664999999997L736.9675000000007 285.9413999999998L740.3210000000001 298.41379999999987L742.0245 302.33974999999987L736.4760000000001 311.67225L728.0584999999996 320.54834999999997L728.8599999999997 326.77065L720.5370000000005 339.3257L722.0669999999996 343.34125L717.8404999999998 351.23165L718.3365000000003 355.5176L716.7925000000002 358.3840999999998L705.5005000000006 370.93784999999997L706.9835 374.7482499999998L698.3420000000001 376.4866999999998z">
      <title id="t268">Cinquième circonscription de la Moselle</title>
      <desc id="d268">Cantons de: Bitche, Rohrbach-lès-Bitche, Sarralbe, Sarreguemines, Sarreguemines-Campagne, Volmunster</desc>
    </path><path class="circo" id="id-057-06" d="M406.6250000000002 207.91595L407.06050000000005 203.4001999999998L401.318 196.37459999999976L402.50400000000013 194.44099999999992L410.15449999999987 189.6266L421.3589999999999 196.4734999999999L425.3880000000004 197.06549999999993L438.1420000000003 188.6856499999999L442.60850000000005 189.30124999999975L446.33249999999975 194.74154999999996L450.57249999999954 199.75619999999992L452.28000000000065 201.2236999999999L460.36100000000033 198.07715000000002L469.80999999999995 207.41514999999993L473.75599999999963 207.76764999999983L475.87549999999965 211.096L476.87900000000013 209.3791999999999L478.5604999999998 213.2815499999998L477.7800000000002 219.6799999999999L469.3380000000002 225.07295L466.9825000000003 226.66154999999975L463.79050000000007 229.0975499999999L460.79349999999977 237.19464999999985L460.6955000000005 243.0848499999999L462.65750000000025 243.61109999999996L465.45600000000036 252.4131L464.6100000000001 254.28214999999994L459.38350000000014 260.6055999999998L458.18399999999997 279.15704999999974L449.98550000000023 280.73645L449.32300000000055 276.7306499999998L447.2085000000004 276.6066999999998L443.72550000000047 279.1719499999999L437.9390000000001 269.821L433.52049999999963 269.2738L430.5955000000006 271.9915499999999L431.30750000000035 280.4457499999998L419.8474999999996 285.8596499999999L419.7104999999999 286.3903499999998L431.3485000000003 289.6411999999998L418.5635000000002 297.08424999999977L414.4079999999997 301.93509999999975L409.29250000000025 303.70404999999977L398.52499999999964 305.5066499999998L397.40800000000036 305.73295L396.2160000000006 301.7463999999998L397.9899999999998 296.35075L386.2495000000001 294.4963999999999L393.01450000000045 288.4708999999998L391.0069999999996 282.0367999999999L390.7349999999997 281.7610499999998L386.63350000000037 274.1495999999998L381.24000000000024 268.5370499999999L380.63150000000064 264.69785L385.40500000000065 254.47764999999976L386.01 246.61419999999993L383.682 243.37979999999988L377.8575000000001 242.02334999999977L374.9694999999997 239.13024999999976L374.7194999999999 232.9943L371.78350000000023 230.10429999999985L374.1745000000003 224.73754999999983L378.57150000000047 224.40994999999987L399.96200000000044 235.30894999999987L403.94750000000045 232.62L405.5880000000002 231.38974999999988L404.57200000000057 229.6142499999999L404.31600000000003 221.31114999999994L410.2814999999998 219.46744999999993L411.2130000000002 217.59959999999978L406.6250000000002 207.91595z">
      <title id="t269">Sixième circonscription de la Moselle</title>
      <desc id="d269">Cantons de : Behren-lès-Forbach, Forbach, Freyming-Merlebach, Stiring-Wendel</desc>
    </path><path class="circo" id="id-057-07" d="M250.77650000000062 268.9336499999999L236.02049999999963 268.698L234.7429999999997 271.81434999999993L230.71699999999964 272.77169999999984L225.52549999999997 269.3205499999999L224.93650000000002 267.18615L227.98200000000065 263.98239999999987L223.89049999999997 256.33684999999986L227.79250000000047 248.45244999999977L224.65149999999994 240.20744999999977L216.4250000000004 243.46944999999977L214.96700000000033 241.7283999999998L212.67450000000053 235.50779999999975L216.58900000000017 236.6826499999999L217.92400000000043 235.05619999999993L218.07249999999954 226.86304999999976L223.34600000000023 224.00364999999994L221.45849999999996 218.54554999999976L223.47350000000006 215.64904999999982L227.57550000000037 210.9295499999999L229.24800000000005 204.92219999999975L224.82250000000022 197.40639999999985L219.2025000000001 194.65699999999998L221.43149999999991 194.4194999999999L223.51 194.00634999999994L226.98399999999992 188.87045L223.6424999999997 181.62104999999997L215.05949999999984 183.05880000000002L215.50849999999969 178.7322499999999L209.13099999999986 177.62564999999995L205.98600000000033 174.67854999999986L206.42450000000053 170.70249999999987L210.38599999999974 168.90994999999975L213.99250000000052 164.9285999999998L206.7489999999998 165.84159999999997L204.72999999999956 166.1880499999998L205.07399999999961 162.2356499999998L201.68549999999982 160.02774999999986L205.1769999999999 157.0888499999998L207.2365000000002 143.7528499999999L210.17000000000053 140.24349999999998L206.0839999999996 134.59059999999994L220.01449999999977 127.94764999999984L221.62950000000023 122.37989999999996L225.2940000000001 120.8370499999998L223.52600000000052 118.42539999999985L222.71799999999985 116.40689999999978L227.17750000000024 111.66494999999998L236.20049999999992 106.04874999999993L228.31950000000006 102.86284999999992L236.3549999999998 98.48824999999977L247.34649999999988 100.42764999999974L247.60700000000043 105.82889999999992L246.1194999999998 106.91384999999997L252.90200000000027 110.92329999999976L260.6129999999996 108.09664999999995L263.75650000000064 107.42075L270.11949999999956 101.11279999999994L281.8685000000005 94.61889999999983L280.924 92.70264999999995L276.9005000000004 92.45659999999987L281.0839999999996 85.36229999999989L279.9345000000005 76.92124999999976L285.3944999999999 80.82864999999998L289.87499999999955 80.72024999999996L293.5175000000004 83.32404999999994L294.34600000000046 92.0610499999998L300.02700000000004 95.13909999999981L294.88500000000045 104.84499999999997L291.6285000000005 101.77314999999993L287.40350000000035 100.95879999999994L285.4359999999997 102.0028499999998L285.59849999999983 106.44869999999997L291.2615000000005 115.7155499999999L296.96000000000026 116.65599999999984L297.48550000000023 120.54164999999983L295.58850000000007 124.18094999999994L307.1090000000004 136.83999999999997L311.19050000000016 137.75509999999997L313.8115000000005 141.17804999999976L322.0085000000006 146.79399999999987L322.9354999999998 150.89484999999996L329.14750000000026 151.33594999999985L326.46349999999984 166.38664999999975L336.14450000000033 169.80979999999988L338.04700000000025 173.61999999999995L336.48199999999974 175.23389999999978L339.80500000000006 192.28274999999996L341.66000000000054 193.57045L352.21250000000055 191.0633999999999L355.8285000000001 199.33335L348.27 210.49059999999997L351.2059999999997 218.92200000000003L355.62900000000013 223.74754999999993L358.95899999999983 226.7369499999998L363.1650000000002 225.86074999999994L369.914 226.37034999999997L374.1745000000003 224.73754999999983L371.78350000000023 230.10429999999985L374.7194999999999 232.9943L374.9694999999997 239.13024999999976L377.8575000000001 242.02334999999977L383.682 243.37979999999988L386.01 246.61419999999993L385.40500000000065 254.47764999999976L380.63150000000064 264.69785L381.24000000000024 268.5370499999999L386.63350000000037 274.1495999999998L390.7349999999997 281.7610499999998L377.8444999999999 287.6451L377.59900000000016 289.61265L370.48400000000015 293.03184999999985L365.20200000000045 293.18815L351.5854999999999 294.90635L350.3870000000006 298.10704999999984L342.0950000000005 301.4176499999999L341.39400000000023 309.05959999999993L330.78100000000063 310.80355L328.10249999999996 307.32274999999987L320.2660000000003 313.9669999999998L318.31549999999993 322.6046499999998L324.36000000000035 331.89044999999993L321.0640000000001 331.6150999999999L320.3324999999995 329.56909999999993L312.96299999999974 325.6703999999999L305.0279999999998 337.31904999999983L295.9680000000003 335.5745999999999L294.81149999999957 335.42884999999984L291.98600000000056 340.5705999999998L291.5174999999999 345.2711499999998L285.39499999999975 351.89464999999984L279.61250000000064 346.8596499999998L276.7439999999999 350.0409499999998L274.53949999999963 353.33325L274.80350000000044 357.3082499999998L272.2045000000003 360.07554999999996L270.26500000000055 359.67355L266.001 352.99724999999995L253.64000000000033 354.61449999999985L253.26350000000048 354.84819999999985L247.2569999999996 355.4858999999999L237.07499999999982 350.87684999999993L234.61450000000013 346.92244999999986L232.11549999999988 342.64504999999986L229.64600000000019 339.94945L229.375 336.2819999999999L228.72100000000046 328.5738999999998L225.36550000000034 322.26315L222.00150000000008 324.61355L218.04700000000025 324.6051L218.22350000000029 320.91514999999987L215.24250000000052 318.4179999999998L224.2769999999996 309.1017499999998L232.69300000000044 311.56915L235.84249999999997 314.7234499999999L238.20299999999975 311.54775L236.37200000000007 310.7147499999999L237.73649999999975 304.90429999999975L236.05050000000006 299.12844999999976L250.94150000000013 296.67309999999986L255.0305000000003 298.1854999999999L253.07900000000018 291.7533499999999L250.72599999999966 290.1952L250.60600000000022 286.44745L256.2945000000002 278.4017L257.5350000000003 267.4691999999999L256.1514999999997 265.6839499999998L250.77650000000062 268.9336499999999z">
      <title id="t270">Septième circonscription de la Moselle</title>
      <desc id="d270">Cantons de : Boulay-Moselle, Bouzonville, Faulquemont, Saint-Avold I, Saint-Avold II</desc>
    </path><path class="circo" id="id-057-08" d="M62.15050000000019 65.82594999999998L64.15949999999953 65.2275499999999L64.02950000000033 63.124699999999905L59.705999999999904 58.83224999999982L61.92850000000021 55.28615000000002L59.47649999999953 53.809949999999844L61.842000000000326 50.35674999999998L63.22000000000003 42.108499999999935L56.875 40.452549999999974L56.22200000000021 38.35784999999987L45.74700000000007 37.0273499999999L37.677999999999656 39.978599999999744L36.51449999999954 38.02899999999994L39.212499999999864 34.432199999999966L34.35500000000047 29.942999999999813L32.640499999999975 14.370150000000024L26.326500000000124 12.337849999999833L22.11400000000026 8.20744999999988L18.189499999999725 8.001950000000022L14.00600000000054 8.764349999999865L7.818499999999631 6.904449999999827L0 9.98804999999976L1.540499999999838 20.31314999999978L4.790000000000418 18.096749999999986L10.253000000000156 19.340399999999818L15.388000000000375 17.560299999999813L16.509999999999536 21.00264999999979L19.846999999999753 22.621599999999944L17.3275000000001 26.180499999999824L20.565500000000156 38.95214999999979L15.880499999999529 42.9289L20.774999999999864 53.51654999999994L14.825500000000602 56.05719999999991L11.1850000000004 61.4985999999999L10.686500000000478 65.48169999999999L7.835999999999785 68.42569999999995L11.262000000000398 70.35584999999998L15.416999999999916 72.37854999999996L17.695999999999685 85.78989999999976L13.336500000000342 90.94099999999997L17.001999999999953 93.29724999999996L20.232499999999618 98.99399999999986L26.657500000000027 98.41909999999984L29.827000000000226 108.18729999999988L36.11499999999978 109.34004999999985L29.5029999999997 109.33679999999981L21.246999999999616 112.31920000000002L24.521499999999605 120.69619999999986L33.52449999999976 127.83874999999995L39.02400000000057 135.21895L44.08350000000041 129.30694999999986L47.93350000000032 133.7053499999999L46.56000000000063 145.7129999999998L45.49499999999966 154.53399999999988L49.48650000000043 156.5267L49.48549999999955 160.68684999999988L48.67200000000025 165.0327999999999L57.703500000000076 171.13744999999994L56.308500000000095 175.40054999999995L57.152999999999565 182.0272L58.378999999999905 182.1742999999998L58.90700000000038 175.70589999999982L61.08600000000024 175.84845L65.09050000000002 185.5950999999999L67.2485000000006 185.95370000000003L67.58000000000038 183.41354999999993L68.65099999999984 174.57699999999988L71.17150000000038 171.02024999999998L80.64300000000003 167.33019999999982L87.06900000000019 166.73309999999987L90.23500000000013 163.76485000000002L92.6419999999996 162.41799999999984L97.91000000000054 162.3339999999999L99.80249999999955 163.3701499999998L104.71149999999966 159.3581499999999L110.6065000000001 158.05284999999998L112.45400000000018 160.81649999999996L109.17350000000056 163.2340499999998L110.05400000000009 167.37644999999986L124.28200000000061 166.87179999999984L128.10749999999985 164.1379999999998L122.2384999999997 156.38205L125.42800000000057 151.33004999999997L123.356 147.76420000000002L122.02499999999986 143.65379999999988L115.65000000000055 137.87894999999992L115.38350000000037 137.08834999999993L113.89599999999973 133.18779999999975L119.05849999999987 126.9441999999998L113.85300000000029 124.00684999999982L110.4645000000005 118.77299999999991L102.54199999999969 117.03039999999987L108.90549999999962 108.2656L107.84700000000043 106.32734999999997L100.66149999999993 101.55064999999979L94.74349999999959 104.40329999999989L94.65100000000007 108.81879999999995L87.08949999999959 105.41004999999984L83.8760000000002 107.07369999999997L80.41749999999979 104.81954999999999L76.69099999999958 105.82954999999998L70.51900000000046 100.48309999999987L70.22100000000023 100.16599999999983L77.29150000000004 87.06159999999983L71.11650000000054 85.62864999999988L70.02899999999954 83.76539999999977L70.27349999999956 79.86944999999992L78.51850000000013 75.07514999999984L70.61050000000023 71.7587499999999L64.69699999999989 74.1137999999998L62.15050000000019 65.82594999999998z">
      <title id="t271">Huitième circonscription de la Moselle</title>
      <desc id="d271">Cantons de : Algrange, Fameck, Florange, Fontoy, Hayange, Moyeuvre-Grande, Commune de Terville</desc>
    </path><path class="circo" id="id-057-09" d="M170.9495000000004 19.93504999999999L181.25 22.957199999999887L187.16499999999996 29.632349999999974L191.26549999999952 28.65859999999998L192.8309999999999 30.1961L194.5900000000006 29.535599999999818L200.17550000000028 34.47404999999975L202.07400000000007 34.255649999999775L201.53900000000021 29.861899999999935L216.6700000000003 30.241849999999886L224.83299999999986 23.66489999999999L228.8435000000004 24.68139999999977L232.49450000000024 29.776899999999955L238.23499999999967 31.593599999999924L244.28999999999974 31.04230000000001L251.39300000000048 39.06199999999984L258.04700000000025 40.857249999999965L266.5229999999997 48.60455000000002L272.8645000000006 51.02924999999999L281.03399999999965 60.903399999999976L274.11100000000033 66.15780000000001L275.03600000000006 72.59929999999997L278.6900000000003 73.31639999999993L279.9345000000005 76.92124999999976L281.0839999999996 85.36229999999989L276.9005000000004 92.45659999999987L280.924 92.70264999999995L281.8685000000005 94.61889999999983L270.11949999999956 101.11279999999994L263.75650000000064 107.42075L260.6129999999996 108.09664999999995L252.90200000000027 110.92329999999976L246.1194999999998 106.91384999999997L247.60700000000043 105.82889999999992L247.34649999999988 100.42764999999974L236.3549999999998 98.48824999999977L228.31950000000006 102.86284999999992L236.20049999999992 106.04874999999993L227.17750000000024 111.66494999999998L222.71799999999985 116.40689999999978L223.52600000000052 118.42539999999985L225.2940000000001 120.8370499999998L221.62950000000023 122.37989999999996L220.01449999999977 127.94764999999984L206.0839999999996 134.59059999999994L210.17000000000053 140.24349999999998L207.2365000000002 143.7528499999999L205.1769999999999 157.0888499999998L201.68549999999982 160.02774999999986L205.07399999999961 162.2356499999998L204.72999999999956 166.1880499999998L206.7489999999998 165.84159999999997L203.84500000000003 168.9978499999998L197.67299999999977 171.25334999999978L191.93449999999984 177.79814999999985L189.72499999999968 177.5637999999998L188.7175000000002 181.6620499999999L182.7895000000001 187.64184999999998L172.9830000000004 183.8033999999999L168.61850000000004 184.41714999999988L167.5999999999999 175.77100000000002L164.5150000000001 170.01295L166.18749999999977 166.02784999999983L164.22450000000026 162.9344499999999L165.78200000000038 159.46564999999993L164.23149999999964 158.10624999999987L156.37050000000045 156.42569999999978L155.6415000000004 160.94284999999985L148.96200000000022 167.2234499999999L144.81250000000045 167.55685L142.77900000000045 163.84034999999983L134.79600000000005 171.51699999999977L131.49400000000014 170.41014999999987L133.42700000000036 165.22750000000002L128.10749999999985 164.1379999999998L122.2384999999997 156.38205L125.42800000000057 151.33004999999997L123.356 147.76420000000002L122.02499999999986 143.65379999999988L115.65000000000055 137.87894999999992L115.38350000000037 137.08834999999993L113.89599999999973 133.18779999999975L119.05849999999987 126.9441999999998L113.85300000000029 124.00684999999982L110.4645000000005 118.77299999999991L102.54199999999969 117.03039999999987L108.90549999999962 108.2656L107.84700000000043 106.32734999999997L100.66149999999993 101.55064999999979L94.74349999999959 104.40329999999989L94.65100000000007 108.81879999999995L87.08949999999959 105.41004999999984L83.8760000000002 107.07369999999997L80.41749999999979 104.81954999999999L76.69099999999958 105.82954999999998L70.51900000000046 100.48309999999987L70.22100000000023 100.16599999999983L77.29150000000004 87.06159999999983L71.11650000000054 85.62864999999988L70.02899999999954 83.76539999999977L70.27349999999956 79.86944999999992L78.51850000000013 75.07514999999984L70.61050000000023 71.7587499999999L64.69699999999989 74.1137999999998L62.15050000000019 65.82594999999998L64.15949999999953 65.2275499999999L64.02950000000033 63.124699999999905L59.705999999999904 58.83224999999982L61.92850000000021 55.28615000000002L59.47649999999953 53.809949999999844L61.842000000000326 50.35674999999998L63.22000000000003 42.108499999999935L69.25200000000018 30.603499999999997L75.85249999999974 30.848749999999825L81.9685000000004 36.9109499999999L88.15200000000004 38.78869999999978L87.81000000000063 29.70624999999984L91.01200000000063 26.585350000000005L97.22399999999993 24.654549999999915L100.38800000000037 13.770799999999781L106.76699999999983 15.996649999999875L112.26049999999987 12.449749999999824L111.93200000000047 6.115199999999845L119.75850000000037 2.2562999999999533L121.65200000000027 3.351299999999924L137.41949999999974 3.5090499999998315L137.53299999999967 1.435499999999763L145.4544999999996 2.690899999999772L148.45299999999952 0L162.67399999999952 5.657750000000021L164.55050000000028 11.793449999999837L168.33399999999983 16.5003999999999L172.48199999999997 15.685900000000004L170.9495000000004 19.93504999999999z">
      <title id="t272">Neuvième circonscription de la Moselle</title>
      <desc id="d272">Cantons de : Cattenom, Metzervisse, Sierck-les-Bains, Thionville Est, Thionville Ouest, Yutz (moins la commune de Terville)</desc>
    </path></svg>