<svg xmlns="http://www.w3.org/2000/svg" version="1.1" xmlns:xlink="http://www.w3.org/1999/xlink" xmlns:svgjs="http://svgjs.dev/svgjs" width="588.9333499999998" height="584.80615" fill="#eeeeee" stroke="#cccccc" xmlns:sodipodi="http://sodipodi.sourceforge.net/DTD/sodipodi-0.dtd"><path class="circo" id="id-058-01" d="M168.3945 270.8958000000001L166.42650000000003 274.4063L154.18949999999995 282.4053500000002L152.86099999999976 288.62840000000006L147.6864999999998 297.8262000000001L147.96249999999986 301.75100000000043L145.51249999999982 304.62890000000016L145.03600000000006 314.1375000000005L146.83150000000012 317.6147500000002L140.85300000000018 318.2077000000004L139.03599999999983 324.2718000000002L132.6985000000002 323.33200000000033L125.82400000000007 318.3855500000004L119.19949999999972 323.8131500000003L120.47849999999983 329.5505000000003L116.53050000000007 329.73580000000027L115.73849999999993 331.56570000000045L112.0274999999998 330.33600000000035L118.44749999999976 342.9364000000004L116.04199999999992 352.95965000000024L111.20799999999974 356.6685000000001L112.72850000000005 357.8267500000004L112.26200000000006 363.26970000000017L113.68299999999977 371.04300000000023L117.52599999999973 370.67845000000034L121.7489999999998 370.25350000000003L128.3639999999997 364.9513000000002L132.5725 364.15165L142.05049999999972 348.51770000000045L143.05099999999982 354.0943500000003L151.10299999999995 356.2527L154.81749999999977 354.43790000000035L159.0084999999999 352.37795000000006L172.59450000000015 343.9186500000005L175.3544999999997 338.48690000000033L183.33849999999984 341.4901000000003L189.68799999999987 341.1813500000005L192.35700000000008 344.4649500000003L202.77449999999988 342.69255000000044L204.70950000000016 341.8244000000004L209.47400000000016 332.5277L205.01149999999996 322.9363500000005L207.1229999999997 314.98890000000017L219.46349999999995 315.15555000000006L225.1785000000001 312.6924500000001L232.32399999999984 309.8951500000004L234.2165 333.6993000000001L237.10199999999986 336.6399000000001L246.59899999999993 340.48595000000034L249.0364999999997 346.22105000000033L257.1535 346.00840000000005L260.97800000000007 347.61915000000045L261.8509999999998 345.73215000000005L265.0909999999999 347.6771500000001L272.78549999999996 347.90910000000054L275.7434999999998 350.1171000000005L276.71299999999974 356.1853500000001L281.3240000000002 360.5028500000003L280.81849999999974 364.32180000000017L286.55249999999967 366.8054000000001L289.65449999999976 363.8631000000004L295.7760000000002 365.2965500000005L299.74549999999965 363.96590000000003L302.174 369.4483500000001L300.5324999999999 373.06690000000003L303.66449999999986 375.43960000000027L304.11699999999996 379.4474500000001L313.9195000000001 381.6614500000003L319.6645000000001 379.78635000000054L329.48699999999974 382.87990000000036L335.5944999999997 381.9417500000003L339.0319999999997 386.8488500000001L334.5490000000001 391.69670000000053L330.8209999999997 399.50445L320.8620000000002 403.25045000000046L326.0759999999999 409.6738000000005L331.88499999999976 411.9330500000001L332.5725 416.1021000000005L330.44449999999983 421.7999500000002L328.6975000000001 429.52165000000036L326.866 430.3085500000003L324.3844999999999 437.86595000000034L321.712 440.6562500000001L312.37149999999986 435.7316000000003L304.6555000000001 439.04630000000054L293.83849999999995 439.7714000000002L291.28649999999993 436.6744L287.4200000000002 436.3466500000004L291.45550000000014 422.2479500000003L284.74249999999984 417.18920000000026L276.5719999999999 418.88485000000003L266.06150000000014 417.8737000000001L264.1395 416.977L263.0685 412.94195L259.15099999999995 411.3779000000005L259.69299999999976 409.3190000000004L251.2745000000001 414.3254000000002L253.8549999999998 421.44405000000006L253.76300000000015 424.8498000000001L249.79499999999973 428.5525000000001L246.18650000000002 434.0044500000005L242.35799999999983 433.9223500000003L237.4185 427.07505000000026L237.64149999999972 422.79110000000003L235.274 419.3951000000004L229.40999999999974 420.51450000000045L222.87249999999972 424.8249000000004L218.84599999999978 424.96860000000027L210.63400000000001 419.3185500000004L209.4459999999998 417.6385000000005L210.9530000000001 413.8966000000005L205.42399999999986 416.4898000000005L197.74249999999995 416.88990000000047L192.35250000000008 422.86325000000033L183.82450000000006 427.83465000000035L178.3699999999999 424.3819500000001L174.27300000000002 429.16335000000004L173.3760000000001 435.39885000000027L173.37350000000015 439.6880500000003L177.13899999999967 447.24710000000016L174.71099999999979 450.77075000000036L169.1455000000002 447.97135000000026L155.7434999999998 437.18935000000045L143.98750000000007 442.1032500000001L141.25650000000007 448.01985L134.7935000000001 453.8049000000001L124.51099999999997 450.88580000000036L121.03099999999984 453.43195000000037L117.07650000000001 452.60895000000005L111.87000000000012 449.2763000000002L109.57549999999969 441.62630000000036L105.36200000000008 441.3919000000004L98.6360000000002 436.28945000000044L94.72199999999987 437.8815000000003L92.83000000000015 436.93375000000003L91.78449999999998 432.3126500000001L87.1445 424.9891500000001L93.23300000000017 408.44885000000033L93.86050000000012 406.7732000000001L99.06499999999994 397.43425L99.51649999999972 393.19065000000023L96.22149999999976 390.5527000000001L92.98549999999977 382.7883000000003L93.56049999999982 370.18430000000023L97.11000000000013 360.7104000000004L97.57900000000006 349.7261500000002L92.83549999999991 339.6377000000001L88.73350000000016 338.33780000000047L75.24999999999977 328.7325500000003L73.77250000000004 324.6817500000003L75.36999999999978 318.4286500000002L79.12649999999985 310.4888500000004L78.65399999999966 301.6411000000005L78.54749999999967 300.8543000000003L77.81799999999976 288.28670000000045L76.40550000000019 286.6156000000001L73.09849999999983 281.19820000000004L73.99299999999982 270.88580000000036L72.57400000000018 269.12945000000036L64.83699999999999 243.01960000000008L63.181000000000154 239.37565000000006L56.8829999999997 225.3665000000001L58.06449999999984 210.0541000000004L58.73800000000017 206.22615000000053L54.55449999999985 199.7715500000004L40.960999999999785 190.24200000000008L33.21399999999983 180.41080000000022L28.804999999999836 175.72635000000048L23.06350000000009 172.95135000000016L15.82400000000007 169.64255000000037L12.115999999999758 162.69485000000032L10.650499999999852 154.39220000000034L14.703000000000088 146.74554999999998L19.28200000000004 139.5539500000001L31.69899999999984 111.63360000000011L32.2769999999997 103.49715000000003L36.70749999999998 96.80260000000033L36.70999999999992 92.66175000000032L31.724499999999694 81.31175000000042L31.45249999999976 80.12370000000033L28.42049999999972 72.41900000000044L22.090499999999906 64.69990000000053L20.06399999999985 56.00020000000029L18.865000000000123 50.47445000000039L12.511499999999955 42.508600000000456L2.769000000000119 33.1653L0 27.07855000000052L4.863500000000158 23.000150000000303L9.943499999999972 26.402950000000374L14.101499999999874 22.207950000000096L16.237499999999727 22.176450000000045L22.220499999999674 21.153150000000096L27.280000000000086 17.8361000000001L29.37250000000006 13.831500000000005L48.2265000000001 19.241800000000353L52.95599999999979 31.226950000000215L52.13799999999992 35.55675000000008L54.368499999999926 48.39870000000019L51.77250000000015 51.96815000000015L52.48549999999966 55.86365000000001L59.04600000000016 59.751850000000104L60.237000000000194 60.85005000000024L58.95649999999989 63.73825000000011L60.645000000000095 67.40035000000034L66.86399999999992 65.62250000000006L71.0514999999998 66.39290000000017L76.97299999999984 80.06835000000024L83.21750000000009 80.65425000000005L89.11099999999976 75.00440000000026L92.81599999999969 77.16335000000015L99.2025000000001 77.6556000000005L101.798 71.89710000000048L105.96749999999986 72.21840000000043L116.04600000000005 79.36305000000004L118.50649999999973 82.6148500000005L113.48549999999989 98.92810000000054L116.92650000000015 101.41530000000046L115.39850000000001 105.04935000000046L109.39300000000003 102.71695000000022L100.94449999999995 105.52300000000002L83.24349999999981 106.80375000000026L90.73949999999968 131.09105L90.33799999999985 133.22630000000004L83.84900000000016 133.32925000000046L82.77749999999969 137.12545000000034L85.42249999999967 140.0302000000005L90.0830000000002 135.74610000000007L102.86450000000002 138.15269999999998L104.49950000000001 146.7004000000003L107.92699999999968 152.2502000000003L118.74099999999999 159.33995000000039L115.02900000000011 161.2764500000003L108.46450000000004 180.8338500000002L117.01700000000017 182.51025000000027L120.34800000000018 185.1836000000003L126.8829999999997 185.11025000000018L129.9290000000002 195.0885500000004L131.2149999999997 201.46330000000034L141.61400000000015 204.20270000000016L150.59300000000007 198.38285000000042L152.69999999999982 198.9748000000003L153.8254999999998 205.0500500000004L155.9084999999999 205.73765000000037L153.2729999999998 207.6476500000001L150.88649999999973 217.98475000000053L152.774 218.2320500000003L153.3035000000001 221.8965000000003L158.5390000000001 224.04025000000047L164.17899999999975 229.73610000000008L161.6485 236.68540000000007L166.4549999999997 232.98190000000034L179.52600000000018 238.7525000000005L174.45949999999982 242.74L185.6540000000001 263.3835000000005L179.80250000000012 264.9169500000005L175.22699999999986 269.1613000000001L174.94550000000004 273.09950000000015L168.3945 270.8958000000001z">
      <title id="t273">Première circonscription de la Nièvre</title>
      <desc id="d273">Cantons de : La Charité-sur-Loire, Cosne-Cours-sur-Loire Nord, Cosne-Cours-sur-Loire Sud, Imphy, Nevers Centre, Nevers Est, Nevers Nord, Nevers Sud, Pouilly-sur-Loire, Pougues-les-Eaux, Saint-Benin-d'Azy</desc>
    </path><path class="circo" id="id-058-02" d="M491.1284999999998 377.0171000000005L489.1084999999998 376.68315000000007L488.725 383.12905L494.51300000000003 385.70965L496.6575 385.4399500000005L502.58699999999976 379.1895500000004L506.59535000000005 377.9634500000003L513.6978499999998 393.48085000000026L512.5113499999998 397.3900500000002L507.7128499999998 401.4575000000002L509.9618499999997 407.19960000000015L509.2053499999997 411.2136000000004L506.43359999999973 414.2700000000002L506.5628499999997 418.43500000000006L509.8013500000002 429.95645000000025L519.7983499999998 432.65600000000006L522.6768499999997 435.72475000000054L531.28535 447.8427000000005L533.6868499999997 456.1103000000003L529.4538499999999 457.20980000000054L511.3748499999997 469.2578000000003L509.13084999999967 471.95790000000045L510.3383500000001 473.42835000000036L515.0628499999999 479.12390000000016L515.6483500000002 482.9069500000003L517.15735 497.97270000000026L517.2178500000001 501.79145000000005L514.3113499999998 506.6872000000001L510.57334999999966 506.2633000000005L507.17735000000005 500.99260000000015L498.94499999999994 506.84235L490.71950000000015 506.66980000000024L477.4309999999997 512.2871000000004L476.6719999999998 514.2503000000005L475.17799999999966 513.9134000000001L470.7684999999998 521.1672000000004L462.5065000000001 523.4139500000003L460.3120000000001 529.2021000000005L446.46500000000003 534.2854L443.71399999999994 537.3584500000004L438.25999999999965 534.8515500000002L436.4675 538.37715L428.5480000000001 539.4014000000004L424.9000000000001 541.2266500000004L421.6390000000001 548.5545000000002L417.09149999999966 552.4858500000005L409.20950000000005 551.8958500000002L403.5345000000001 553.59645L401.51099999999985 543.4008L397.21299999999985 536.31305L398.8644999999997 532.5100000000003L379.7249999999997 522.6410500000003L364.99199999999973 525.8181500000001L359.2705000000001 528.77725L346.773 531.4620000000002L341.1419999999998 528.4225000000004L337.82100000000014 530.2210500000001L333.3100000000002 524.1924500000005L330.17449999999997 521.4531500000004L321.7629999999997 522.6386000000002L317.69450000000006 515.7425000000001L311.46900000000016 524.0919500000001L319.05050000000017 539.02445L312.66250000000014 544.291L311.0194999999999 540.6556500000005L307.58249999999975 544.9958500000002L298.5854999999998 540.96315L299.0859999999998 551.4155000000005L303.74149999999986 561.0628500000001L301.3650000000001 564.3986000000001L298.6295000000001 567.5983500000001L296.4999999999998 567.5835000000001L292.9084999999998 562.58825L287.004 564.0052000000003L272.7075000000002 579.2902000000004L272.63750000000016 583.4718500000002L271.1284999999998 584.80615L259.3045000000001 584.3448500000005L257.50999999999976 580.3931L253.68600000000015 578.3972L255.60299999999984 577.5160000000005L255.5540000000002 573.3999L258.53399999999965 570.45525L258.5250000000002 564.1799000000003L256.7275000000001 560.5659000000003L249.2700000000002 557.4218500000001L248.48000000000013 553.3442000000002L250.34350000000018 547.2825500000005L242.01099999999997 547.9743000000002L231.57399999999996 545.6269000000003L227.6049999999998 547.2150000000005L226.10099999999989 553.4247500000004L221.5285 560.6347000000005L217.48999999999967 562.0331000000004L213.73749999999973 564.2592000000002L200.97300000000018 562.0182500000004L195.21299999999997 553.0957000000001L192.47299999999996 545.0150500000001L186.23400000000004 545.46695L186.06650000000002 545.5779000000001L179.93150000000014 544.98715L176.20400000000018 550.1090000000005L165.34199999999998 556.4867500000003L163.34949999999992 557.0500500000003L162.24749999999972 561.0529000000002L157.6925 565.3018500000002L152.68050000000017 568.0220500000001L136.94999999999993 560.4537500000004L129.2289999999997 549.7637500000002L128.26899999999966 548.52845L120.64750000000004 537.8148000000004L110.28450000000021 534.2872500000004L101.27650000000017 531.4403000000004L86.918 519.0126500000002L81.75450000000012 509.6914000000004L79.42650000000015 495.9874000000002L82.40099999999984 486.85410000000047L90.29449999999997 477.21825000000024L90.65449999999998 473.20785L88.99600000000021 468.7483500000002L95.2940000000001 460.36700000000053L92.83000000000015 436.93375000000003L94.72199999999987 437.8815000000003L98.6360000000002 436.28945000000044L105.36200000000008 441.3919000000004L109.57549999999969 441.62630000000036L111.87000000000012 449.2763000000002L117.07650000000001 452.60895000000005L121.03099999999984 453.43195000000037L124.51099999999997 450.88580000000036L134.7935000000001 453.8049000000001L141.25650000000007 448.01985L143.98750000000007 442.1032500000001L155.7434999999998 437.18935000000045L169.1455000000002 447.97135000000026L174.71099999999979 450.77075000000036L177.13899999999967 447.24710000000016L173.37350000000015 439.6880500000003L173.3760000000001 435.39885000000027L174.27300000000002 429.16335000000004L178.3699999999999 424.3819500000001L183.82450000000006 427.83465000000035L192.35250000000008 422.86325000000033L197.74249999999995 416.88990000000047L205.42399999999986 416.4898000000005L210.9530000000001 413.8966000000005L209.4459999999998 417.6385000000005L210.63400000000001 419.3185500000004L218.84599999999978 424.96860000000027L222.87249999999972 424.8249000000004L229.40999999999974 420.51450000000045L235.274 419.3951000000004L237.64149999999972 422.79110000000003L237.4185 427.07505000000026L242.35799999999983 433.9223500000003L246.18650000000002 434.0044500000005L249.79499999999973 428.5525000000001L253.76300000000015 424.8498000000001L253.8549999999998 421.44405000000006L251.2745000000001 414.3254000000002L259.69299999999976 409.3190000000004L259.15099999999995 411.3779000000005L263.0685 412.94195L264.1395 416.977L266.06150000000014 417.8737000000001L276.5719999999999 418.88485000000003L284.74249999999984 417.18920000000026L291.45550000000014 422.2479500000003L287.4200000000002 436.3466500000004L291.28649999999993 436.6744L293.83849999999995 439.7714000000002L304.6555000000001 439.04630000000054L312.37149999999986 435.7316000000003L321.712 440.6562500000001L324.3844999999999 437.86595000000034L326.866 430.3085500000003L328.6975000000001 429.52165000000036L330.44449999999983 421.7999500000002L332.5725 416.1021000000005L331.88499999999976 411.9330500000001L326.0759999999999 409.6738000000005L320.8620000000002 403.25045000000046L330.8209999999997 399.50445L334.5490000000001 391.69670000000053L339.0319999999997 386.8488500000001L335.5944999999997 381.9417500000003L329.48699999999974 382.87990000000036L319.6645000000001 379.78635000000054L313.9195000000001 381.6614500000003L304.11699999999996 379.4474500000001L303.66449999999986 375.43960000000027L300.5324999999999 373.06690000000003L302.174 369.4483500000001L299.74549999999965 363.96590000000003L295.7760000000002 365.2965500000005L289.65449999999976 363.8631000000004L286.55249999999967 366.8054000000001L280.81849999999974 364.32180000000017L281.3240000000002 360.5028500000003L276.71299999999974 356.1853500000001L275.7434999999998 350.1171000000005L272.78549999999996 347.90910000000054L265.0909999999999 347.6771500000001L261.8509999999998 345.73215000000005L260.97800000000007 347.61915000000045L257.1535 346.00840000000005L249.0364999999997 346.22105000000033L246.59899999999993 340.48595000000034L237.10199999999986 336.6399000000001L234.2165 333.6993000000001L232.32399999999984 309.8951500000004L225.1785000000001 312.6924500000001L219.46349999999995 315.15555000000006L207.1229999999997 314.98890000000017L205.01149999999996 322.9363500000005L209.47400000000016 332.5277L204.70950000000016 341.8244000000004L202.77449999999988 342.69255000000044L192.35700000000008 344.4649500000003L189.68799999999987 341.1813500000005L183.33849999999984 341.4901000000003L175.3544999999997 338.48690000000033L172.59450000000015 343.9186500000005L159.0084999999999 352.37795000000006L154.81749999999977 354.43790000000035L151.10299999999995 356.2527L143.05099999999982 354.0943500000003L142.05049999999972 348.51770000000045L132.5725 364.15165L128.3639999999997 364.9513000000002L121.7489999999998 370.25350000000003L117.52599999999973 370.67845000000034L113.68299999999977 371.04300000000023L112.26200000000006 363.26970000000017L112.72850000000005 357.8267500000004L111.20799999999974 356.6685000000001L116.04199999999992 352.95965000000024L118.44749999999976 342.9364000000004L112.0274999999998 330.33600000000035L115.73849999999993 331.56570000000045L116.53050000000007 329.73580000000027L120.47849999999983 329.5505000000003L119.19949999999972 323.8131500000003L125.82400000000007 318.3855500000004L132.6985000000002 323.33200000000033L139.03599999999983 324.2718000000002L140.85300000000018 318.2077000000004L146.83150000000012 317.6147500000002L145.03600000000006 314.1375000000005L145.51249999999982 304.62890000000016L147.96249999999986 301.75100000000043L147.6864999999998 297.8262000000001L152.86099999999976 288.62840000000006L154.18949999999995 282.4053500000002L166.42650000000003 274.4063L168.3945 270.8958000000001L174.94550000000004 273.09950000000015L175.22699999999986 269.1613000000001L179.80250000000012 264.9169500000005L185.6540000000001 263.3835000000005L174.45949999999982 242.74L179.52600000000018 238.7525000000005L166.4549999999997 232.98190000000034L161.6485 236.68540000000007L164.17899999999975 229.73610000000008L158.5390000000001 224.04025000000047L153.3035000000001 221.8965000000003L152.774 218.2320500000003L150.88649999999973 217.98475000000053L153.2729999999998 207.6476500000001L155.9084999999999 205.73765000000037L153.8254999999998 205.0500500000004L152.69999999999982 198.9748000000003L150.59300000000007 198.38285000000042L141.61400000000015 204.20270000000016L131.2149999999997 201.46330000000034L129.9290000000002 195.0885500000004L126.8829999999997 185.11025000000018L120.34800000000018 185.1836000000003L117.01700000000017 182.51025000000027L108.46450000000004 180.8338500000002L115.02900000000011 161.2764500000003L118.74099999999999 159.33995000000039L107.92699999999968 152.2502000000003L104.49950000000001 146.7004000000003L102.86450000000002 138.15269999999998L90.0830000000002 135.74610000000007L85.42249999999967 140.0302000000005L82.77749999999969 137.12545000000034L83.84900000000016 133.32925000000046L90.33799999999985 133.22630000000004L90.73949999999968 131.09105L83.24349999999981 106.80375000000026L100.94449999999995 105.52300000000002L109.39300000000003 102.71695000000022L115.39850000000001 105.04935000000046L116.92650000000015 101.41530000000046L113.48549999999989 98.92810000000054L118.50649999999973 82.6148500000005L116.04600000000005 79.36305000000004L105.96749999999986 72.21840000000043L101.798 71.89710000000048L99.2025000000001 77.6556000000005L92.81599999999969 77.16335000000015L89.11099999999976 75.00440000000026L83.21750000000009 80.65425000000005L76.97299999999984 80.06835000000024L71.0514999999998 66.39290000000017L66.86399999999992 65.62250000000006L60.645000000000095 67.40035000000034L58.95649999999989 63.73825000000011L60.237000000000194 60.85005000000024L59.04600000000016 59.751850000000104L52.48549999999966 55.86365000000001L51.77250000000015 51.96815000000015L54.368499999999926 48.39870000000019L52.13799999999992 35.55675000000008L52.95599999999979 31.226950000000215L48.2265000000001 19.241800000000353L50.21950000000004 15.249350000000277L55.82549999999969 11.652650000000335L62.10049999999967 12.518800000000283L73.04249999999968 18.96030000000053L78.90949999999975 17.232700000000136L82.1550000000002 14.405300000000238L90.73750000000018 12.074700000000007L96.38499999999965 5.268950000000245L103.20899999999995 0.5911000000003241L107.41649999999993 0L113.2204999999999 2.537550000000124L116.9195000000002 5.690450000000169L118.29650000000015 7.416699999999992L115.25149999999996 13.156250000000114L118.08499999999981 30.54580000000044L121.96300000000008 29.112850000000208L123.87699999999995 30.107600000000048L129.29899999999975 36.793049999999994L134.7539999999998 40.25420000000054L136.00549999999998 44.34685000000002L141.82500000000005 43.10770000000048L144.9090000000001 40.51475000000039L152.71950000000004 40.7659000000001L165.6864999999999 61.876550000000066L172.18649999999968 62.64955000000043L175.97550000000012 60.44815000000028L182.54050000000007 60.419200000000046L187.0324999999997 52.8810500000003L191.69749999999965 60.01665000000003L195.89949999999988 59.341700000000515L208.46099999999979 67.01930000000004L210.09749999999997 68.40215L209.47000000000003 72.63905000000022L213.0450000000002 74.42030000000045L212.72549999999967 70.06605000000036L214.2565000000002 68.51030000000037L221.23049999999978 63.83200000000045L227.46550000000013 63.01245000000051L232.00049999999976 55.57745000000011L232.11799999999982 51.23450000000048L238.13249999999982 49.8887000000002L241.0039999999998 50.40775000000053L249.4999999999999 50.74755000000039L255.60299999999984 48.89015000000029L256.85599999999965 52.92380000000037L260.3159999999997 55.062200000000416L262.3509999999999 54.61490000000026L269.2905000000002 59.192650000000526L273.3204999999998 59.23980000000029L276.0699999999997 41.965450000000146L274.9169999999998 17.594850000000406L277.60549999999967 17.03875000000039L282.68399999999986 23.573800000000347L284.3349999999998 38.22815000000048L289.37749999999994 41.876100000000065L295.9095000000002 46.395800000000236L300.46400000000006 53.21260000000052L310.3739999999999 56.18325000000027L312.2845000000001 56.63305000000037L312.5074999999998 58.58875000000012L310.4725000000002 65.94515000000001L310.65949999999987 66.59795000000031L313.6964999999998 79.57050000000038L315.65 79.33035000000018L317.91499999999985 81.9504500000005L323.07799999999986 76.61325000000033L327.2800000000001 76.84965000000034L328.89250000000004 82.74810000000002L332.996 83.84430000000009L335.3215 82.98005000000046L344.42799999999977 87.54695000000027L352.42399999999975 87.09440000000029L353.68449999999996 88.77435000000048L354.5324999999997 88.53240000000028L352.01700000000017 95.84190000000035L352.7909999999997 97.62500000000045L356.4735000000002 96.93265000000054L363.9654999999999 101.57425000000046L368.57699999999966 109.15345000000002L369.58799999999997 113.91705000000002L373.7444999999997 118.53994999999998L379.83749999999986 120.20195000000001L394.1489999999999 116.27505000000042L395.0135 114.31580000000054L398.7104999999997 114.96325000000013L398.039 120.74505000000045L399.69949999999983 124.28845000000024L405.9100000000001 124.70720000000028L411.6474999999997 130.5299500000001L417.73149999999987 129.47985000000017L418.1970000000001 123.19485000000043L415.3309999999999 117.6144000000005L417.9449999999997 114.45335L422.1949999999998 114.37420000000031L423.5930000000002 112.76655000000005L427.7954999999997 100.89200000000005L427.61300000000006 95.85570000000018L433.1700000000001 96.64615000000026L437.90250000000015 100.1148500000005L439.76999999999975 99.4853500000005L440.67200000000014 103.52795000000015L444.1485 105.76670000000036L445.50149999999974 111.74730000000011L439.5780000000002 118.2668000000001L431.9259999999997 122.3705000000001L436.15700000000004 138.8154000000003L442.97950000000014 139.62550000000022L452.0445000000001 129.47420000000022L464.4274999999999 130.87390000000028L466.3529999999997 129.99895000000038L469.8109999999997 122.5745500000005L474.02649999999994 127.13030000000003L478.65099999999984 134.15455000000009L475.5079999999998 139.64120000000037L479.31399999999996 158.9969000000002L483.3605 166.77615000000003L485.523 166.62815000000023L491.1405000000002 173.20080000000019L499.5704999999998 173.0836000000005L501.63250000000005 172.4103500000001L504.3594999999999 164.30700000000002L505.83860000000016 162.7061500000002L507.7493499999997 163.7414000000001L511.2373500000001 156.1546000000004L519.5068500000002 156.9831000000005L523.5083500000002 155.40010000000052L531.6898500000002 157.65855000000045L535.8968499999997 156.32835L536.3068499999997 158.39485000000025L538.3668499999999 158.80250000000046L542.9083500000002 154.48500000000024L546.45085 146.90615000000037L550.2508499999999 145.38475000000005L551.7213499999997 146.89735000000042L543.9538499999998 158.57670000000041L543.4158500000001 162.40265000000022L546.23335 168.04325000000006L539.8443500000002 176.21460000000013L543.45235 178.4328000000005L547.1403499999997 176.24535000000037L539.50985 185.5708500000003L544.0868499999999 212.56995000000018L548.24885 220.17135000000053L566.3433499999996 210.5450000000002L570.17785 215.3040500000003L572.5818499999997 221.35440000000017L583.9728500000001 231.41255L588.0898500000001 241.1886000000004L588.9333499999998 245.41470000000004L580.9833500000002 255.35425000000032L579.8423500000001 263.5272500000002L579.9908499999998 271.43140000000017L573.3858499999997 275.6580500000001L569.8968500000001 273.4164000000004L568.11935 274.4925500000005L552.0708500000001 279.12810000000036L539.71385 277.21220000000017L538.3343500000001 278.76255000000015L540.3833500000002 284.24845000000005L537.0813499999997 286.5868500000005L537.1078499999999 288.6627500000003L540.09635 291.4718000000005L539.2523499999999 294.0920500000004L532.32235 289.69220000000007L530.20985 289.9833000000001L531.1138499999998 291.92530000000033L528.96885 295.40490000000034L516.47085 293.0970500000001L514.1823499999998 296.54155000000003L511.4883500000002 299.7727500000002L512.5743499999999 310.0075000000004L507.93785000000014 314.45335L507.32185000000015 318.6939000000001L512.6978500000001 322.2212000000002L521.0413499999999 332.3561500000005L515.3303499999998 344.0340500000002L515.7708500000001 348.3581000000004L516.5988499999997 354.62305000000015L515.1753500000001 358.5898000000003L506.35760000000005 367.1319500000004L491.1284999999998 377.0171000000005z">
      <title id="t274">Deuxième circonscription de la Nièvre</title>
      <desc id="d274">Cantons de : Brinon-sur-Beuvron, Château-Chinon (Ville), Châtillon-en-Bazois, Clamecy, Corbigny, Decize, Donzy, Dornes, Fours, Guérigny, Lormes, Luzy, La Machine, Montsauche-les-Settons, Moulins-Engilbert, Prémery, Saint-Amand-en-Puisaye, Saint-Pierre-le-Moûtier, Saint-Saulge, Tannay, Varzy</desc>
    </path></svg>