<svg xmlns="http://www.w3.org/2000/svg" version="1.1" xmlns:xlink="http://www.w3.org/1999/xlink" xmlns:svgjs="http://svgjs.dev/svgjs" width="919.054000000001" height="765.4115000000002" fill="#eeeeee" stroke="#cccccc" xmlns:sodipodi="http://sodipodi.sourceforge.net/DTD/sodipodi-0.dtd"><path class="circo" id="id-059-01" d="M511.6870000000006 232.4025000000006L524.1100000000006 253.904L538.2470000000001 266.6719999999998L545.566 267.48249999999985L556.0005000000001 255.33150000000091L560.6860000000006 255.37000000000035L567.1365000000003 260.20500000000084L569.8160000000007 275.9545000000003L574.9940000000004 281.4775000000009L589.8520000000008 283.2524999999998L587.6820000000009 271.4885000000004L574.846500000001 247.63599999999997L582.9265000000009 236.3880000000006L581.6240000000005 225.88550000000055L574.1835000000003 213.5570000000007L567.3225000000002 206.13950000000045L559.3765000000008 205.88400000000092L549.2285000000004 208.38600000000042L555.9165000000007 220.48700000000053L558.6105000000009 229.42549999999983L555.1195000000007 234.47250000000054L554.9620000000004 237.50200000000063L550.3925000000004 248.5590000000002L545.9770000000003 249.40200000000004L538.9675 243.81799999999998L532.5880000000006 227.03849999999989L525.7765000000006 222.47749999999996L513.3955000000003 225.3225000000009L511.6870000000006 232.4025000000006z">
      <title id="t275">Première circonscription du Nord</title>
      <desc id="d275">Cantons de : Lille Centre, Lille Sud, Lille Sud-Est (moins les communes de Lezennes et Ronchin), commune de Loos</desc>
    </path><path class="circo" id="id-059-02" d="M594.0385000000003 202.70449999999983L601.2875000000008 209.16900000000055L599.2400000000009 218.33300000000008L586.9295 214.79000000000042L574.1835000000003 213.5570000000007L581.6240000000005 225.88550000000055L582.9265000000009 236.3880000000006L574.846500000001 247.63599999999997L587.6820000000009 271.4885000000004L589.2650000000003 267.28000000000065L597.890000000001 266.18400000000065L611.4330000000007 243.61150000000066L627.0390000000009 256.73400000000015L630.7805000000008 254.80099999999993L660.24 253.7900000000002L666.3490000000002 244.0835000000004L663.0925000000002 240.92250000000035L665.7460000000003 232.44350000000054L679.9450000000002 221.1710000000005L684.4215000000008 220.46850000000063L686.2980000000005 224.60350000000062L689.1240000000005 210.7210000000009L688.2460000000003 210.46750000000088L680.399000000001 210.32950000000028L677.9215000000011 218.53600000000029L673.5300000000007 218.3355000000006L666.8230000000005 212.91500000000042L671.0415 205.92550000000074L665.6510000000003 185.1120000000003L657.287500000001 186.39099999999985L651.0515000000009 181.00750000000062L646.3625000000002 173.97100000000023L638.5520000000008 170.7400000000007L638.6745000000008 162.28200000000015L630.7555000000002 159.3730000000005L629.3205 171.78350000000023L621.7200000000003 185.9190000000001L614.5945000000006 185.2170000000001L615.1179999999999 192.07700000000045L601.5155000000004 187.06800000000044L594.0385000000003 202.70449999999983z">
      <title id="t276">Deuxième circonscription du Nord</title>
      <desc id="d276">Cantons de : Lille Est, Villeneuve-d'Ascq Nord, Villeneuve-d'Ascq Sud, Communes de Lezennes, Mons-en-Barœul et Ronchin</desc>
    </path><path class="circo" id="id-059-04" d="M567.3225000000002 206.13950000000045L559.3765000000008 205.88400000000092L549.2285000000004 208.38600000000042L544.5935000000009 204.0179999999998L538.8020000000006 208.45950000000016L517.029 186.96500000000015L501.0050000000001 175.1864999999998L490.09100000000103 179.33550000000082L474.5545000000004 157.97300000000064L480.99000000000046 149.89250000000084L488.9865000000009 148.2325000000003L499.47500000000105 131.97450000000003L486.7965000000004 110.12900000000059L475.62850000000026 104.65100000000007L470.8515 93.0034999999998L461.8655000000001 83.76750000000015L467.2620000000006 78.80200000000059L462.26850000000013 67.12850000000003L464.36050000000023 63.41600000000085L478.6680000000001 53.51499999999987L491.1410000000001 56.88750000000027L500.6695000000002 47.69700000000057L523.057500000001 33.2305000000008L527.559 25.83150000000046L544.402500000001 30.455500000000484L548.9530000000002 23.247499999999945L564.1495000000009 16.40600000000063L565.9890000000007 38.78800000000069L563.0040000000008 51.88850000000002L568.1035000000008 59.37400000000025L563.1000000000006 67.28000000000065L554.8770000000002 71.13950000000045L547.4639999999999 74.21300000000087L544.1885000000002 81.42699999999991L555.5645000000004 92.82300000000077L562.9885000000002 90.84800000000087L570.1055000000008 97.92599999999993L575.4345000000001 110.2940000000001L576.9045000000006 140.45100000000048L585.7630000000006 147.03750000000014L572.7680000000009 168.2075000000009L585.0065000000006 188.02599999999984L578.1570000000011 198.30649999999991L567.3225000000002 206.13950000000045z">
      <title id="t278">Quatrième circonscription du Nord</title>
      <desc id="d278">Cantons de : Lille Nord, Lille Ouest, Quesnoy-sur-Deûle</desc>
    </path><path class="circo" id="id-059-07" d="M665.544000000001 185.2380000000005L657.1805000000006 186.51749999999993L650.9445000000005 181.13350000000082L646.255000000001 174.09700000000043L638.4450000000004 170.8660000000009L638.5675000000003 162.40800000000036L630.6485000000009 159.4990000000007L629.2135000000007 171.90950000000043L621.613000000001 186.0450000000003L614.4875000000002 185.3430000000003L609.9155000000007 168.11450000000036L613.759500000001 155.17100000000028L610.3800000000001 142.56000000000085L625.3320000000008 134.63400000000092L634.8560000000009 132.62500000000045L650.7105000000001 124.01700000000005L664.1030000000001 134.0095000000008L664.5890000000009 140.59399999999982L657.9000000000008 146.4865000000009L654.122000000001 152.8985L648.8900000000001 157.34199999999987L660.4385000000002 162.96550000000025L679.4545000000005 165.16650000000027L682.3840000000007 162.1595000000002L693.0255 150.3690000000006L694.9225000000001 142.8550000000007L695.9825000000001 137.93600000000083L728.0545000000006 135.60100000000034L734.9060000000009 155.74850000000083L719.8135000000002 163.99150000000077L718.3170000000007 168.07350000000042L720.8085000000005 188.31549999999993L703.420000000001 180.702L700.4785000000004 183.4215000000006L689.538500000001 197.5490000000002L688.139000000001 210.59349999999995L680.2915000000007 210.45550000000048L670.9345000000008 206.0514999999998L665.544000000001 185.2380000000005z">
      <title id="t281">Septième circonscription du Nord</title>
      <desc id="d281">Cantons de : Lannoy (moins les communes de Anstaing, Baisieux, Chéreng, Forest-sur-Marque, Gruson, Sailly-lez-Lannoy, Tressin et Willems), Roubaix Ouest</desc>
    </path><path class="circo" id="id-059-08" d="M661.2075000000004 105.09450000000015L679.8095000000001 74.59699999999998L682.070500000001 78.6340000000007L676.3435000000004 90.78500000000076L692.0950000000005 106.875L723.202 110.47050000000013L733.2815000000005 125.5110000000002L732.5750000000005 134.69800000000077L728.0545000000006 135.60100000000034L695.9825000000001 137.93600000000083L693.0255 150.3690000000006L679.4545000000005 165.16650000000027L660.4385000000002 162.96550000000025L648.8900000000001 157.34199999999987L654.122000000001 152.8985L657.9000000000008 146.4865000000009L664.5890000000009 140.59399999999982L664.1030000000001 134.0095000000008L650.7105000000001 124.01700000000005L661.2075000000004 105.09450000000015z">
      <title id="t282">Huitième circonscription du Nord</title>
      <desc id="d282">Cantons de : Roubaix Centre, Roubaix Est, Roubaix Nord</desc>
    </path><path class="circo" id="id-059-09" d="M615.1790000000005 88.58200000000011L608.3925000000011 93.9975000000004L600.4860000000008 92.31800000000021L594.6900000000005 85.93050000000062L586.1505 85.37199999999984L578.2425000000001 95.64300000000003L570.1055000000008 97.92599999999993L575.4345000000001 110.2940000000001L576.9045000000006 140.45100000000048L585.7630000000006 147.03750000000014L572.7680000000009 168.2075000000009L585.0065000000006 188.02599999999984L578.1570000000011 198.30649999999991L567.3225000000002 206.13950000000045L574.1835000000003 213.5570000000007L586.9295 214.79000000000042L599.2400000000009 218.33300000000008L601.2875000000008 209.16900000000055L594.0385000000003 202.70449999999983L601.5155000000004 187.06800000000044L615.1179999999999 192.07700000000045L614.5945000000006 185.2170000000001L610.0225 167.98850000000016L613.8670000000002 155.04500000000007L610.4870000000005 142.43400000000065L625.4395 134.50800000000072L634.9630000000002 132.49900000000025L650.8175000000006 123.89099999999985L679.9170000000004 74.47100000000091L673.039 70.25550000000067L662.564000000001 86.97000000000003L654.4805000000008 89.42450000000008L646.4960000000008 99.99650000000088L635.4780000000005 104.06900000000064L626.9775000000004 103.11199999999985L626.3265000000001 94.6225000000004L615.1790000000005 88.58200000000011z">
      <title id="t283">Neuvième circonscription du Nord</title>
      <desc id="d283">Cantons de : Lille Nord-Est (moins la commune de Mons-en-Barœul), Marcq-en-Barœul, Tourcoing Sud.</desc>
    </path><path class="circo" id="id-059-10" d="M563.0040000000008 51.88850000000002L568.1035000000008 59.37400000000025L563.1000000000006 67.28000000000065L554.8770000000002 71.13950000000045L547.4639999999999 74.21300000000087L544.1885000000002 81.42699999999991L555.5645000000004 92.82300000000077L562.9885000000002 90.84800000000087L570.1055000000008 97.92599999999993L578.2425000000001 95.64300000000003L586.1505 85.37199999999984L594.6900000000005 85.93050000000062L600.4860000000008 92.31800000000021L608.3925000000011 93.9975000000004L615.1790000000005 88.58200000000011L626.3265000000001 94.6225000000004L626.9775000000004 103.11199999999985L635.4780000000005 104.06900000000064L646.4960000000008 99.99650000000088L654.4805000000008 89.42450000000008L662.564000000001 86.97000000000003L673.039 70.25550000000067L669.7815000000003 58.519000000000005L650.6875000000002 27.640499999999975L638.4935000000007 4.168500000000677L620.5430000000001 7.0030000000008386L609.1330000000005 0L601.1320000000001 16.09700000000089L590.6090000000006 24.81100000000083L582.5940000000003 26.843999999999824L564.1495000000009 16.40600000000063L565.9890000000007 38.78800000000069L563.0040000000008 51.88850000000002z">
      <title id="t284">Dixième circonscription du Nord</title>
      <desc id="d284">Cantons de : Tourcoing Nord, Tourcoing Nord-Est</desc>
    </path><path class="circo" id="id-059-03" d="M789.9330000000009 660.5619999999999L788.6150000000009 659.2460000000005L785.5060000000003 664.1520000000003L768.066500000001 678.2990000000007L765.8445000000006 673.6380000000008L769.7085000000004 669.3360000000007L765.1005000000009 669.4929999999999L759.2280000000005 665.7850000000008L760.8805000000007 659.5575000000008L757.749500000001 656.3855000000001L751.8230000000005 654.6550000000002L751.9330000000002 648.2294999999999L748.3555000000001 650.068L742.1620000000007 661.4790000000005L740.9170000000006 661.2755000000004L731.7470000000003 656.1570000000006L729.1790000000003 650.3715L736.9490000000008 645.0120000000004L741.3605000000007 639.4389999999999L745.7210000000009 637.8100000000006L745.1095000000009 633.7455L748.8795000000005 634.0415000000007L751.5440000000001 636.6735000000006L758.1885 641.5055000000007L766.4895000000001 641.4230000000009L767.9560000000004 639.8964999999998L767.9575 639.7475000000009L769.135 635.924L773.1335000000001 636.0040000000004L773.9675 634.1780000000006L773.0175000000008 632.5045L777.1355000000005 626.2459999999999L780.9450000000004 624.7520000000009L784.5150000000001 617.7410000000009L784.2790000000002 616.0685000000001L792.3935000000006 618.1850000000009L792.7975000000004 620.2465000000007L800.5275000000006 618.6635000000001L803.5575000000006 617.3470000000009L804.774000000001 614.0825000000007L811.4980000000003 614.7080000000005L814.3920000000003 618.2080000000008L814.6985000000006 609.7805000000005L818.6110000000008 602.2675000000004L815.874 598.0214999999998L812.5575000000003 595.3615000000002L809.5545000000004 587.5080000000003L804.6350000000007 583.4075000000007L802.7875000000006 584.1190000000006L789.4265000000007 572.3860000000002L790.6060000000002 570.8180000000004L784.1590000000008 567.6375000000007L779.6220000000005 567.6330000000007L776.2525000000005 570.7294999999999L771.4080000000001 565.7310000000007L765.3315000000009 564.9165000000005L762.2395000000006 567.8084999999999L753.8260000000002 566.6905000000008L748.9015000000006 570.1430000000005L746.8550000000005 568.2535000000007L745.5130000000008 569.6005000000002L741.01 574.4310000000007L734.5305000000008 574.7050000000002L726.182500000001 576.0784999999998L716.2185 567.2410000000002L716.0385000000008 567.3829999999998L715.3405000000009 568.1470000000002L705.947000000001 562.7679999999998L704.0045000000009 558.9994999999999L704.8980000000006 555.0425000000007L704.3695000000002 553.5980000000006L700.0015000000008 547.8590000000008L699.8525000000006 547.8575000000001L698.175 544.9215000000004L700.8725000000004 541.7970000000003L699.8415 535.8660000000009L705.0320000000011 539.8335000000009L707.2315000000003 539.1125L706.4115000000004 529.1485L708.406 525.5140000000006L708.6400000000003 520.9070000000008L711.9205 515.0305000000003L720.752500000001 515.0255000000004L721.572000000001 512.9225000000008L728.1875000000002 511.5635000000009L734.7890000000007 512.8380000000004L738.6760000000004 510.6709999999998L742.2795000000008 512.8665000000001L741.1980000000005 517.1550000000002L745.5045000000007 516.4465000000007L746.889000000001 512.3590000000002L753.3070000000009 511.17650000000026L760.707000000001 515.1499999999999L766.2935000000004 521.2740000000008L772.6910000000009 520.7535000000007L774.0160000000003 524.8815000000002L772.8190000000006 529.0230000000008L779.1050000000007 528.759L787.1595000000002 525.6130000000007L805.0125000000003 515.027L807.2795000000008 515.444L807.3725000000002 520.0255000000004L809.389000000001 516.0800000000006L815.6645000000003 518.7710000000004L818.3620000000008 515.2769999999998L827.0645000000002 512.858L831.9640000000004 508.49000000000046L837.2305000000006 518.4744999999998L843.4185000000002 521.2945000000002L854.0115000000003 533.3760000000007L854.7635000000002 540.2530000000002L854.8900000000003 540.6015000000002L863.4645 538.9575000000002L867.333000000001 544.443L871.5485000000001 545.5250000000001L874.3945000000008 554.0420000000006L873.9510000000007 565.1505000000009L878.1080000000009 564.3090000000007L880.0490000000002 572.5999999999999L878.6025000000006 574.2450000000008L890.8010000000002 575.4375000000005L892.1469999999999 568.9380000000006L885.8720000000005 562.355L889.4370000000004 556.4110000000005L893.7760000000003 556.6185000000007L897.5665000000004 562.4865L899.665 563.5155000000009L908.7850000000003 565.3195000000005L915.1015000000007 577.423L908.1825000000003 586.5505000000007L905.8485000000007 586.6280000000006L899.1835000000003 592.1480000000008L891.9835 603.4770000000003L885.3650000000005 604.5900000000006L889.4690000000003 614.6995000000004L887.6515000000006 618.2560000000001L887.7940000000001 622.7525000000003L885.0155000000007 629.0365000000008L887.1469999999999 635.3135000000009L886.3625000000002 639.8005L881.0165000000006 644.221L875.1890000000003 656.6815000000008L883.3570000000009 660.634L890.5720000000008 656.5890000000002L904.2270000000008 656.8950000000007L907.6850000000002 669.6780000000001L905.2515000000005 673.5694999999998L908.2175000000007 676.8230000000005L908.5315000000003 681.1599999999999L917.9515000000004 693.2890000000009L919.054000000001 699.8020000000008L916.5785000000005 703.4154999999998L906.6820000000007 708.3705000000009L902.2610000000009 713.3220000000006L893.9490000000001 714.9215000000004L889.579 714.5775000000003L879.6285 731.6210000000001L878.8020000000006 735.9760000000006L883.8080000000002 743.3500000000004L889.6785 746.1445000000003L890.2690000000007 748.297L887.6675 754.4710000000009L881.1265000000003 760.0575000000003L865.8445000000006 764.8090000000002L857.1345000000008 765.4115000000002L855.2170000000001 759.271L844.6670000000006 755.6960000000004L837.985000000001 755.4585000000009L834.4725000000005 757.8705000000002L830.4095000000007 755.1935000000003L826.0925000000009 755.2385000000004L823.682 749.1920000000005L813.0855000000008 750.2640000000008L812.8060000000005 743.6620000000005L819.2205000000001 727.2020000000009L816.8025 718.6665000000005L813.7275 716.6245000000004L815.956000000001 708.5604999999998L827.1160000000009 702.5540000000001L831.5305000000001 702.3554999999999L837.8955000000008 702.6585L849.8785000000009 698.4890000000007L855.0995 692.2969999999998L841.6925000000003 690.8900000000006L841.776000000001 684.1560000000004L844.6810000000005 678.1015000000002L841.6820000000007 675.0970000000007L837.9205000000002 677.2735L833.6835000000008 676.3370000000009L828.252 680.0755000000004L826.0675000000003 679.6840000000009L823.8895000000002 675.9190000000001L817.8660000000002 690.5340000000001L811.6700000000003 697.9575L802.3345000000006 690.5145000000005L805.4885000000002 687.2750000000008L806.1495000000002 682.7010000000007L811.644 678.4010000000001L813.7139999999999 674.2250000000001L814.0390000000002 669.5620000000008L810.7770000000005 666.8960000000004L806.5375000000006 667.8975000000003L800.2425000000005 665.6010000000003L798.1085000000007 661.848L795.7685000000004 660.6885L795.0380000000007 663.741L790.0840000000005 662.2430000000008L789.9330000000009 660.5619999999999z">
      <title id="t277">Troisième circonscription du Nord</title>
      <desc id="d277">Cantons de : Avesnes-sur-Helpe Nord, Bavay, Maubeuge Nord, Maubeuge Sud, Solre-le-Château, Trélon</desc>
    </path><path class="circo" id="id-059-05" d="M306.5880000000004 358.1325000000004L307.85850000000096 355.9725000000003L314.8160000000007 341.6235000000006L323.3775000000003 334.1980000000001L324.5685000000003 333.3845000000008L328.77300000000105 328.31300000000056L337.57600000000025 328.36850000000027L345.12050000000045 344.6945000000005L350.711500000001 339.64450000000056L352.7730000000008 343.5540000000003L358.67950000000064 346.12550000000056L362.5470000000007 353.7940000000003L367.08450000000084 349.2780000000005L366.1430000000007 347.87250000000085L369.20400000000086 346.86000000000035L383.70050000000106 343.4260000000006L383.1355000000008 339.6575000000007L385.22050000000036 336.48900000000026L386.37699999999995 334.6555000000001L394.69850000000065 334.6720000000005L400.97399999999993 345.53350000000023L408.1155000000001 351.98350000000005L411.8130000000008 352.3930000000007L417.08400000000097 346.2545L419.45100000000025 346.2740000000008L422.70950000000084 348.71650000000045L424.063000000001 356.6730000000007L426.6790000000003 359.4625000000008L434.18450000000007 360.3595000000007L433.08850000000007 354.4170000000008L433.8880000000006 352.2905000000003L438.2450000000006 351.73700000000053L445.086500000001 340.3340000000003L452.97000000000025 346.96300000000065L454.86000000000104 345.9870000000001L452.78650000000084 356.2405000000001L442.87750000000074 364.34650000000033L436.66400000000067 366.1824999999999L437.016000000001 367.0300000000009L428.81900000000087 370.73800000000006L425.5205000000001 375.9834999999998L423.0580000000009 392.9264999999998L417.20350000000053 394.65700000000083L412.9390000000001 401.48900000000026L402.3560000000009 392.0765000000006L399.4410000000005 395.0165000000004L395.7005000000004 394.62600000000066L396.395 398.2450000000006L400.44500000000085 403.65049999999997L400.44450000000097 410.46550000000025L401.96950000000015 412.1395000000007L399.7795000000008 418.5140000000001L393.7810000000002 415.91099999999983L381.2345000000005 405.14150000000086L380.53550000000087 406.8640000000005L375.27000000000044 405.72650000000067L365.150000000001 408.46400000000017L358.0430000000001 413.7920000000008L355.78550000000064 411.3715000000002L354.42949999999996 413.0045000000007L350.31900000000064 412.14000000000055L348.2325000000003 408.4480000000008L346.11450000000104 408.49950000000035L348.22650000000067 391.6360000000009L348.19200000000023 388.5095000000001L346.29600000000096 389.6345000000008L337.60650000000055 393.7835000000007L333.4005000000002 394.56500000000005L321.7590000000007 396.5635000000009L317.33850000000075 394.8815000000002L312.8340000000003 395.69650000000024L310.97000000000094 394.58450000000084L311.7565000000002 388.4910000000002L308.88149999999996 380.78550000000064L312.8415000000007 379.46050000000014L316.82600000000093 380.7170000000008L317.6265000000001 369.5710000000008L314.73100000000045 360.9480000000008L306.5880000000004 358.1325000000004z">
      <title id="t279">Cinquième circonscription du Nord</title>
      <desc id="d279">Cantons de : La Bassée, Haubourdin (moins la commune de Loos), Seclin Nord, Seclin Sud.</desc>
    </path><path class="circo" id="id-059-06" d="M491.6345000000001 308.4870000000001L490.0720000000001 309.8935000000006L484.6035000000006 316.9245000000001L483.8220000000001 323.6435000000006L484.2910000000006 323.6435000000006L482.8845000000001 330.6745000000001L481.9470000000001 328.6435000000006L479.7595000000001 328.9560000000006L472.5720000000001 334.7370000000001L471.1660000000006 338.9560000000006L472.8845000000001 340.5185000000006L469.7595000000001 345.5185000000006L454.9160000000006 345.9870000000001L452.7285000000006 356.2995000000001L442.8845000000001 364.2685000000006L436.6345000000001 366.1435000000006L436.9470000000001 367.0810000000006L428.8220000000001 370.6745000000001L425.5410000000006 375.9870000000001L423.0410000000006 392.8620000000001L417.2595000000001 394.5810000000006L412.8845000000001 401.4560000000006L402.4160000000006 392.0810000000006L399.4470000000001 395.0495000000001L395.6970000000001 394.5810000000006L396.3220000000001 398.1745000000001L400.3845000000001 403.6435000000006L400.3845000000001 410.5185000000006L401.9470000000001 412.0810000000006L399.7595000000001 418.4870000000001L400.8535000000006 420.2060000000006L406.7910000000006 426.1435000000006L403.6660000000006 431.7685000000006L403.1970000000001 434.8935000000006L399.7595000000001 443.1745000000001L403.3535000000006 445.6745000000001L403.1970000000001 452.3935000000006L408.9785000000006 450.5185000000006L412.5720000000001 452.2370000000001L413.9785000000006 450.6745000000001L415.8535000000006 446.7685000000006L421.1660000000006 443.0185000000006L424.4470000000001 441.2995000000001L425.0720000000001 449.1120000000001L431.0095000000001 451.2995000000001L435.0720000000001 447.0810000000006L440.8535000000006 445.5185000000006L447.1035000000006 447.5495000000001L449.1345000000001 451.4560000000006L453.3535000000006 452.0810000000006L452.8845000000001 456.4560000000006L457.1035000000006 457.5495000000001L458.5095000000001 455.9870000000001L461.4785000000006 456.4560000000006L472.5720000000001 453.1745000000001L478.9785000000006 455.9870000000001L482.8845000000001 461.7685000000006L487.4160000000006 463.0185000000006L491.7910000000006 458.0185000000006L490.6970000000001 451.7685000000006L492.8845000000001 445.5185000000006L500.2285000000006 446.7685000000006L503.5095000000001 449.4245000000001L505.5410000000006 455.3620000000001L522.5725 455.8310000000006L526.6345000000001 457.3935000000006L528.6660000000006 456.9245000000001L528.1975 450.3620000000001L532.2595000000001 450.5185000000006L528.1975 442.7060000000006L531.4785000000006 444.8935000000006L537.2595000000001 444.2685000000006L537.7285000000006 443.0185000000006L546.0095000000001 440.0495000000001L548.8225 436.6120000000001L548.9785000000006 432.2370000000001L547.1035000000006 428.9560000000006L545.0725 429.7370000000001L540.2285000000006 424.8935000000006L536.7910000000006 414.1120000000001L538.5095000000001 408.3310000000006L536.0095000000001 408.1745000000001L532.5725 402.0810000000006L518.0410000000006 395.2060000000006L515.0725 387.0810000000006L516.0095000000001 378.3310000000006L513.5095000000001 374.5810000000006L517.1035000000006 372.2370000000001L514.4475 368.9560000000006L516.0095000000001 362.7060000000006L513.6660000000006 359.1120000000001L514.4475 350.6745000000001L511.3225 343.1745000000001L510.6975 338.7995000000001L505.0725 332.0810000000006L506.1660000000006 327.8620000000001L502.7285000000006 322.5495000000001L500.0725 319.4245000000001L501.9475 315.6745000000001L500.3845000000001 312.3935000000006L491.6345000000001 308.4870000000001zM475.2285000000006 321.2995000000001L473.0410000000006 324.8935000000006L476.4785000000006 327.5495000000001L478.6660000000006 327.7060000000006L479.9160000000006 323.4870000000001L475.2285000000006 321.2995000000001z">
      <title id="t280">Sixième circonscription du Nord</title>
      <desc id="d280">Cantons de : Cysoing, Orchies, Pont-à-Marcq. , Communes de : Anstaing, Baisieux, Chéreng, Forest-sur-Marque, Gruson, Sailly-lez-Lannoy, Tressin, Willems.</desc>
    </path><path class="circo" id="id-059-11" d="M325.9035000000006 295.0705000000005L318.48800000000097 291.34300000000053L315.4155000000003 299.37900000000013L315.13599999999997 300.30650000000037L320.2735000000007 305.7344999999998L326.27700000000004 307.2244999999998L330.57000000000016 311.7705000000001L340.8705000000009 325.96400000000017L337.57600000000025 328.36850000000027L345.12050000000045 344.6945000000005L350.711500000001 339.64450000000056L352.7730000000008 343.5540000000003L358.67950000000064 346.12550000000056L362.5470000000007 353.7940000000003L367.08450000000084 349.2780000000005L366.1430000000007 347.87250000000085L369.20400000000086 346.86000000000035L383.70050000000106 343.4260000000006L383.1355000000008 339.6575000000007L385.22050000000036 336.48900000000026L386.37699999999995 334.6555000000001L394.69850000000065 334.6720000000005L395.5615 331.09500000000025L401.81600000000003 329.6580000000006L405.2570000000003 331.9620000000009L408.4795000000008 340.4385000000002L412.020500000001 343.25950000000034L414.25100000000043 342.8335000000004L416.55950000000075 337.24800000000073L416.6390000000001 335.71750000000065L418.4025000000008 333.1680000000006L417.04150000000027 328.6525000000006L413.66300000000024 322.5395000000003L411.32150000000024 320.33300000000054L408.3960000000002 322.5765000000001L397.39700000000084 311.71850000000063L389.3025 305.76850000000036L383.78900000000044 307.8645000000006L375.9405000000004 297.07250000000045L379.1915000000006 292.99100000000067L383.2310000000007 292.1525000000008L388.5295000000008 283.9390000000003L382.12450000000104 272.9040000000009L376.48300000000063 270.13649999999984L374.0700000000004 264.25250000000005L369.53050000000076 259.5870000000002L366.60100000000057 262.78850000000034L366.51300000000106 271.8844999999999L363.2215000000008 277.87950000000023L358.8970000000006 277.42050000000063L357.9550000000006 283.5445000000004L353.91500000000065 284.2660000000001L347.0460000000003 275.80400000000054L341.05500000000006 277.80650000000037L335.11850000000095 289.135L325.9035000000006 295.0705000000005z">
      <title id="t285">Onzième circonscription du Nord</title>
      <desc id="d285">Cantons de : Armentières, Lille Sud-Ouest, Lomme</desc>
    </path><path class="circo" id="id-059-12" d="M785.5060000000003 664.1520000000003L768.066500000001 678.2990000000007L765.8445000000006 673.6380000000008L769.7085000000004 669.3360000000007L765.1005000000009 669.4929999999999L759.2280000000005 665.7850000000008L760.8805000000007 659.5575000000008L757.749500000001 656.3855000000001L751.8230000000005 654.6550000000002L751.9330000000002 648.2294999999999L748.3555000000001 650.068L742.1620000000007 661.4790000000005L740.9170000000006 661.2755000000004L731.7470000000003 656.1570000000006L729.1790000000003 650.3715L736.9490000000008 645.0120000000004L741.3605000000007 639.4389999999999L745.7210000000009 637.8100000000006L745.1095000000009 633.7455L748.8795000000005 634.0415000000007L751.5440000000001 636.6735000000006L758.1885 641.5055000000007L766.4895000000001 641.4230000000009L767.9560000000004 639.8964999999998L767.9575 639.7475000000009L769.135 635.924L773.1335000000001 636.0040000000004L773.9675 634.1780000000006L773.0175000000008 632.5045L777.1355000000005 626.2459999999999L780.9450000000004 624.7520000000009L784.5150000000001 617.7410000000009L784.2790000000002 616.0685000000001L792.3935000000006 618.1850000000009L792.7975000000004 620.2465000000007L800.5275000000006 618.6635000000001L803.5575000000006 617.3470000000009L804.774000000001 614.0825000000007L811.4980000000003 614.7080000000005L814.3920000000003 618.2080000000008L814.6985000000006 609.7805000000005L818.6110000000008 602.2675000000004L815.874 598.0214999999998L812.5575000000003 595.3615000000002L809.5545000000004 587.5080000000003L804.6350000000007 583.4075000000007L802.7875000000006 584.1190000000006L789.4265000000007 572.3860000000002L790.6060000000002 570.8180000000004L784.1590000000008 567.6375000000007L779.6220000000005 567.6330000000007L776.2525000000005 570.7294999999999L771.4080000000001 565.7310000000007L765.3315000000009 564.9165000000005L762.2395000000006 567.8084999999999L753.8260000000002 566.6905000000008L748.9015000000006 570.1430000000005L746.8550000000005 568.2535000000007L745.5130000000008 569.6005000000002L741.01 574.4310000000007L734.5305000000008 574.7050000000002L726.182500000001 576.0784999999998L716.2185 567.2410000000002L716.0385000000008 567.3829999999998L715.3405000000009 568.1470000000002L705.947000000001 562.7679999999998L704.0045000000009 558.9994999999999L704.8980000000006 555.0425000000007L704.3695000000002 553.5980000000006L700.0015000000008 547.8590000000008L699.8525000000006 547.8575000000001L698.175 544.9215000000004L697.1775000000002 543.8010000000008L689.8490000000004 534.9400000000003L687.3345000000006 528.6900000000003L682.5535000000002 523.7830000000008L674.9090000000001 527.5800000000004L673.171000000001 531.5825000000007L669.23 533.1875000000002L669.2925000000002 531.3175000000001L664.008500000001 529.4815000000006L661.789500000001 529.6615000000008L659.0240000000006 535.7355000000007L654.1935000000001 540.0540000000001L651.9140000000004 538.8774999999998L646.5375000000006 544.6505000000002L632.6175000000001 547.441L630.4695000000004 550.4425000000003L632.1840000000009 554.0030000000002L628.805000000001 559.384L622.8880000000004 561.7025000000001L619.5315000000005 561.3454999999999L613.886500000001 562.174L606.1285000000009 561.0495000000003L604.5125000000007 562.2995000000003L602.8245000000004 563.6865L604.8675000000003 567.5504999999998L600.2625 579.6699999999998L599.8705000000007 582.5380000000007L598.5160000000008 583.1145000000004L592.7055000000007 576.3055000000008L581.5960000000007 574.4635000000005L569.8750000000007 586.0745000000009L564.1980000000001 584.8220000000003L553.220500000001 597.1255000000008L550.290500000001 601.8055000000004L548.2470000000001 601.2480000000005L543.1225000000006 604.6725000000004L535.027500000001 603.2715000000007L539.8560000000009 618.8610000000006L542.1505000000002 623.0675000000008L535.177000000001 633.3960000000002L533.0610000000001 633.4165000000007L533.261 638.3750000000009L525.2985000000001 640.0890000000004L524.0365000000008 643.9085L526.8175000000008 646.8615L526.1660000000006 650.8675000000005L524.1985 649.7700000000009L518.7909999999999 653.7525000000005L522.3940000000005 655.8555000000001L520.4610000000002 661.5290000000005L522.2140000000002 667.4470000000008L530.4695000000004 670.9500000000003L533.6160000000007 667.7835000000005L535.8405000000005 668.2455000000004L538.0520000000001 667.4450000000002L540.9570000000008 668.3505000000002L547.6160000000004 669.9869999999999L559.9390000000005 668.7594999999999L564.9355000000003 659.5920000000001L569.8625000000004 654.1150000000005L572.6780000000008 657.4115000000006L576.7045000000007 656.1700000000008L584.9560000000008 658.8890000000004L584.4190000000003 650.8350000000007L593.8370000000009 659.203L594.0665000000001 657.5605000000007L597.3054999999999 658.0915000000005L600.7575000000008 657.7615000000003L602.5735000000009 651.1980000000005L614.4915000000003 644.1915000000006L628.2830000000001 652.3135000000002L629.2075 656.06L632.5845000000004 658.8170000000002L630.4395 662.4515000000008L633.0410000000006 665.6725000000006L634.6075000000008 665.815L637.7235000000007 662.5864999999999L646.0350000000005 659.4740000000002L650.4645000000005 658.7930000000006L654.0935000000002 660.9405000000004L656.3495 659.4575000000009L669.7730000000001 667.0240000000001L675.7340000000011 672.663L679.9110000000007 673.5670000000005L683.1405000000007 679.0575000000001L685.2965000000006 678.8565000000006L687.0900000000006 682.817L692.1815000000004 686.7825000000005L689.8540000000003 692.4680000000001L698.1440000000009 702.0225000000005L700.195500000001 700.1790000000005L713.1865000000005 710.575L725.7150000000001 713.5495000000003L726.8625000000009 715.5939999999998L735.7465000000002 714.6424999999999L742.9695000000004 720.1915000000008L751.9929999999999 714.3895000000009L756.6960000000006 719.2070000000001L765.471 721.1390000000006L771.2295000000006 724.6090000000004L771.6550000000007 726.825L769.5310000000006 727.5729999999999L773.0900000000008 730.4655000000002L773.343000000001 739.6064999999999L788.4645 728.6515000000009L799.2755 726.4740000000006L799.9240000000009 728.2355000000007L813.7275 716.6245000000004L815.956000000001 708.5604999999998L827.1160000000009 702.5540000000001L831.5305000000001 702.3554999999999L837.8955000000008 702.6585L849.8785000000009 698.4890000000007L855.0995 692.2969999999998L841.6925000000003 690.8900000000006L841.776000000001 684.1560000000004L844.6810000000005 678.1015000000002L841.6820000000007 675.0970000000007L837.9205000000002 677.2735L833.6835000000008 676.3370000000009L828.252 680.0755000000004L826.0675000000003 679.6840000000009L823.8895000000002 675.9190000000001L817.8660000000002 690.5340000000001L811.6700000000003 697.9575L802.3345000000006 690.5145000000005L805.4885000000002 687.2750000000008L806.1495000000002 682.7010000000007L811.644 678.4010000000001L813.7139999999999 674.2250000000001L814.0390000000002 669.5620000000008L810.7770000000005 666.8960000000004L806.5375000000006 667.8975000000003L800.2425000000005 665.6010000000003L798.1085000000007 661.848L796.7910000000006 661.2840000000006L795.7685000000004 660.6885L795.0380000000007 663.741L792.7420000000006 663.0925000000002L790.0840000000005 662.2430000000008L789.9330000000009 660.5619999999999L788.6150000000009 659.2460000000005L788.2555000000002 659.7890000000007L785.5060000000003 664.1520000000003z">
      <title id="t286">Douzième circonscription du Nord</title>
      <desc id="d286">Cantons de : Avesnes-sur-Helpe Sud, Berlaimont, Carnières, Hautmont, Landrecies, Le Quesnoy Est, Le Quesnoy Ouest, Solesmes</desc>
    </path><path class="circo" id="id-059-13" d="M107.49650000000088 78.0275000000006L106.03000000000065 79.60300000000075L106.36600000000044 80.01750000000015L93.67750000000001 91.20650000000069L91.81900000000041 94.03300000000058L73.4660000000008 63.64500000000021L73.3095000000003 51.74250000000029L83.52100000000064 47.77750000000083L99.75400000000036 43.33650000000034L120.150000000001 37.09850000000074L127.45600000000081 43.011999999999944L134.38150000000064 44.69150000000013L139.47200000000066 43.34400000000073L143.8295000000005 53.82150000000024L154.3805000000009 68.28950000000077L162.31200000000058 86.95699999999988L156.38200000000097 95.64550000000054L151.17250000000013 94.95049999999992L137.50650000000064 79.13200000000074L130.93700000000013 90.29150000000072L128.65100000000098 90.58750000000032L122.02100000000087 84.07100000000014L120.31700000000001 77.36750000000029L107.49650000000088 78.0275000000006z">
      <title id="t287">Treizième circonscription du Nord</title>
      <desc id="d287">Cantons de : Coudekerque-Branche, Dunkerque Ouest, Grande-Synthe</desc>
    </path><path class="circo" id="id-059-14" d="M106.03000000000065 79.60300000000075L106.36600000000044 80.01750000000015L93.67750000000001 91.20650000000069L91.81900000000041 94.03300000000058L73.4660000000008 63.64500000000021L73.3095000000003 51.74250000000029L59.903000000000475 55.77200000000062L53.50150000000099 50.49000000000092L49.57700000000045 50.4525000000001L43.664500000001 47.682000000000926L48.87900000000059 51.40449999999987L52.725000000000364 51.44400000000019L53.6665000000005 58.98149999999987L45.8605 62.28650000000016L51.85100000000034 65.83650000000034L47.71400000000085 67.2969999999998L47.853000000000065 73.19100000000049L43.850000000001046 68.82150000000024L45.60500000000047 67.31300000000033L42.56750000000011 62.40000000000009L36.78500000000099 64.26750000000084L35.05350000000021 56.1099999999999L31.748000000000047 62.3580000000004L23.813499999999976 68.0275000000006L18.324499999999944 74.84450000000038L22.424000000000888 83.26099999999997L15.279000000000451 74.30950000000053L6.740500000000793 72.14200000000005L0 73.41450000000009L9.008000000000038 75.42300000000068L18.004000000000815 86.10200000000077L17.662500000000136 88.49800000000073L22.793000000000347 92.01950000000011L24.405000000000427 97.97149999999988L28.876500000000078 102.72249999999985L31.496000000000777 113.26149999999984L35.53300000000036 123.31549999999993L41.58200000000079 137.4165000000005L51.451000000000704 162.35099999999989L52.11800000000039 164.55550000000017L52.95950000000062 171.4160000000004L57.76050000000055 179.14100000000076L57.34900000000039 183.69850000000042L59.67600000000061 186.9665000000009L61.053000000000566 199.44900000000075L61.9315000000006 205.49350000000004L67.577 207.32700000000023L74.39650000000029 214.92950000000064L79.52850000000012 220.63550000000077L87.54099999999994 223.86050000000068L93.46250000000055 221.45350000000008L93.87050000000045 228.02450000000022L104.08450000000016 221.19000000000028L105.98350000000096 217.50600000000077L105.95300000000066 212.58350000000064L105.55450000000064 200.55400000000077L110.77250000000049 201.1850000000004L114.28700000000049 190.25900000000092L112.21550000000093 186.00200000000086L127.7355 175.55299999999988L134.3360000000007 177.66250000000014L137.98350000000028 175.03100000000018L151.26550000000066 169.89950000000022L156.943500000001 182.92850000000044L162.68600000000106 179.86850000000004L163.93200000000093 177.17849999999999L173.37600000000066 190.7434999999998L178.60100000000102 188.58350000000087L183.77550000000042 176.54600000000073L192.0410000000004 169.7345000000007L196.8990000000008 180.21550000000047L201.18450000000053 174.62150000000065L201.13950000000045 169.92200000000025L205.06500000000074 164.1719999999998L213.64850000000047 146.90650000000005L228.23350000000005 140.9895000000006L229.0560000000005 136.71050000000037L222.86950000000047 134.52300000000037L221.98400000000106 132.39900000000034L230.0565000000006 124.35550000000035L239.01700000000005 114.38449999999989L238.85500000000093 112.00699999999983L228.981500000001 85.29750000000035L217.00050000000033 77.79449999999997L214.53050000000076 68.96299999999997L215.81950000000006 67.0530000000008L211.81600000000003 46.697000000000344L208.895500000001 30.46100000000024L203.2910000000004 17.375500000000557L181.22250000000008 28.327500000000327L172.37150000000042 32.07400000000007L169.67250000000035 32.8995000000009L154.9675000000002 38.92150000000015L139.47200000000066 43.34400000000073L143.8295000000005 53.82150000000024L154.3805000000009 68.28950000000077L162.31200000000058 86.95699999999988L156.38200000000097 95.64550000000054L151.17250000000013 94.95049999999992L137.50650000000064 79.13200000000074L130.93700000000013 90.29150000000072L128.65100000000098 90.58750000000032L122.02100000000087 84.07100000000014L120.31700000000001 77.36750000000029L107.49650000000088 78.0275000000006L106.03000000000065 79.60300000000075z">
      <title id="t288">Quatorzième circonscription du Nord</title>
      <desc id="d288">Cantons de : Bergues, Bourbourg, Dunkerque Est, Gravelines, Hondschoote, Wormhout</desc>
    </path><path class="circo" id="id-059-15" d="M291.81100000000015 229.66150000000084L285.1165000000003 225.6370000000004L279.3610000000001 215.46249999999986L278.7450000000001 206.1970000000008L277.15599999999995 204.4825000000003L261.14149999999995 203.22200000000066L256.05350000000044 198.4385000000009L252.71450000000073 201.6330000000005L249.20850000000087 203.67650000000026L241.09650000000101 204.00900000000092L236.77900000000022 188.32850000000008L233.45150000000103 185.07800000000088L232.44750000000067 180.51750000000084L225.8515 179.07100000000014L225.87600000000066 176.73350000000028L231.0820000000001 169.79150000000004L229.33500000000095 163.73450000000048L230.00950000000103 147.76950000000056L228.23350000000005 140.9895000000006L213.64850000000047 146.90650000000005L205.06500000000074 164.1719999999998L201.13950000000045 169.92200000000025L201.18450000000053 174.62150000000065L196.8990000000008 180.21550000000047L192.0410000000004 169.7345000000007L183.77550000000042 176.54600000000073L178.60100000000102 188.58350000000087L173.37600000000066 190.7434999999998L163.93200000000093 177.17849999999999L162.68600000000106 179.86850000000004L156.943500000001 182.92850000000044L151.26550000000066 169.89950000000022L137.98350000000028 175.03100000000018L134.3360000000007 177.66250000000014L127.7355 175.55299999999988L112.21550000000093 186.00200000000086L114.28700000000049 190.25900000000092L110.77250000000049 201.1850000000004L105.55450000000064 200.55400000000077L105.95300000000066 212.58350000000064L105.98350000000096 217.50600000000077L104.08450000000016 221.19000000000028L106.82500000000005 224.3934999999999L115.96450000000004 225.42500000000018L124.36700000000087 229.13150000000087L126.65850000000091 229.0770000000009L128.13300000000027 224.7410000000002L130.31100000000038 223.9994999999999L135.50700000000006 227.69750000000045L143.06700000000092 231.65650000000028L142.77400000000057 233.51L146.10450000000014 234.95000000000005L133.62800000000107 242.8404999999998L125.77100000000087 245.13950000000023L116.65850000000091 252.44050000000016L115.5905000000007 259.1745000000003L119.00750000000016 261.09800000000064L122.37600000000043 268.9375000000007L126.93450000000098 273.2675000000006L126.93500000000085 273.3884999999998L135.34700000000043 280.7165000000009L125.72400000000016 290.06399999999985L129.06000000000063 295.12950000000046L131.5790000000004 298.7575000000004L140.6275000000005 292.81850000000077L142.79150000000072 293.2355000000007L147.39350000000059 300.26700000000005L148.08350000000019 302.68100000000004L150.37750000000074 302.8925000000004L154.05650000000037 308.73800000000074L162.82600000000002 310.98550000000046L172.3300000000006 320.9360000000004L180.07800000000088 325.4015000000004L186.47850000000062 323.79099999999994L190.89050000000043 322.5010000000009L194.04899999999998 319.0899999999999L198.51 318.8830000000007L200.02550000000042 325.6215000000009L201.46900000000073 327.4465000000009L203.4190000000001 328.69800000000055L209.97150000000033 328.3725000000004L211.05600000000095 330.42850000000044L212.52550000000042 325.0450000000001L216.92750000000046 325.0030000000004L219.8505 322.0590000000004L221.81500000000028 321.5440000000001L223.08250000000044 325.39150000000063L231.81300000000078 323.9945L232.95600000000036 328.40850000000046L239.1980000000001 334.7694999999999L256.7055000000005 329.2335000000003L258.74200000000087 322.749L261.0615000000007 322.4750000000006L267.9295000000002 327.27050000000077L276.6360000000009 327.12350000000015L279.80800000000045 337.5190000000009L288.78250000000094 343.2775000000004L290.625500000001 342.1780000000001L290.1200000000006 337.7920000000006L294.298 325.7305000000008L296.1530000000005 324.45600000000013L304.6765000000005 327.2040000000004L308.02099999999996 324.2425000000003L293.8810000000001 312.83700000000067L294.0295000000003 312.355L298.3490000000006 304.16000000000054L309.77550000000065 304.60450000000037L315.13599999999997 300.30650000000037L315.4155000000003 299.37900000000013L318.48800000000097 291.34300000000053L325.9035000000006 295.0705000000005L335.11850000000095 289.135L341.05500000000006 277.80650000000037L331.8730000000005 265.1570000000004L316.8730000000005 268.38700000000017L307.50150000000076 261.28450000000043L303.5945000000004 247.7430000000004L294.0190000000007 237.77699999999982L294.6365000000003 233.25300000000084L291.81100000000015 229.66150000000084z">
      <title id="t289">Quinzième circonscription du Nord</title>
      <desc id="d289">Cantons de : Bailleul Nord-Est, Bailleul Sud-Ouest, Cassel, Hazebrouck Nord, Hazebrouck Sud, Merville, Steenvoorde</desc>
    </path><path class="circo" id="id-059-16" d="M456.572000000001 473.6205000000007L460.1820000000009 471.712L460.7910000000004 462.48550000000023L458.55150000000094 455.9165000000007L461.54300000000035 456.4670000000001L472.53600000000006 453.1600000000003L479.01750000000106 455.9604999999999L482.8315000000009 461.82800000000043L487.34950000000026 462.9905000000008L491.8550000000005 458.0790000000002L490.6835000000001 451.80450000000064L492.8705000000002 445.5435L500.27649999999994 446.7100000000005L503.51850000000013 449.4950000000006L505.50100000000043 455.42550000000006L522.6205000000004 455.8090000000004L526.5925000000004 457.4420000000009L528.6255000000006 456.85699999999997L528.1195000000002 450.37300000000073L532.337 450.5939999999998L533.134 455.8210000000008L535.2355 463.4000000000003L541.0225000000003 463.47849999999994L545.4340000000002 466.66600000000017L545.9115000000008 469.4290000000001L542.4845000000005 470.64100000000053L545.1780000000008 473.1910000000005L543.9395000000002 476.50800000000004L543.9445000000001 476.7425000000003L546.3555000000008 484.9955L545.9590000000003 496.3265000000001L543.6505 500.2890000000002L544.461500000001 507.0525000000009L542.0000000000005 513.5059999999999L541.699000000001 515.5140000000006L535.8570000000009 515.1665000000003L534.085500000001 518.1670000000008L528.465000000001 517.5400000000002L523.3795000000009 517.3710000000005L521.4985000000001 519.6480000000008L515.6145000000004 524.3850000000009L512.2825 525.8915000000002L512.74 529.8685L508.80100000000084 531.2535000000003L508.651000000001 533.4465L505.06700000000023 535.8785L500.87900000000104 537.1445000000006L499.3050000000005 535.5975000000001L495.6550000000004 538.4850000000006L487.4660000000006 536.7285000000004L486.7745000000002 532.4599999999998L484.9115000000006 531.3250000000005L481.7310000000009 532.8165000000001L474.1450000000009 529.6305000000007L468.59800000000064 528.5840000000007L465.1965000000007 530.4835000000003L465.0025000000005 526.1080000000004L459.63800000000106 522.6355000000001L453.9320000000009 523.0205000000001L451.19600000000105 529.9615000000006L449.73550000000046 530.2465000000007L448.6595 528.3620000000008L442.3470000000009 528.1315000000006L441.0620000000006 526.3845000000003L437.65300000000025 520.8140000000003L436.2785000000008 518.6180000000002L436.7375000000004 513.7990000000002L435.077500000001 510.2155000000005L438.35750000000075 501.0260000000005L437.2825 491.8885L442.663500000001 484.3915000000004L448.6005 481.7545000000007L450.15600000000063 483.46250000000055L449.8205000000007 487.93949999999995L457.33600000000024 483.6725000000001L459.73550000000046 480.3970000000004L456.572000000001 473.6205000000007z">
      <title id="t290">Seizième circonscription du Nord</title>
      <desc id="d290">Canton de Marchiennes, Communes de : Anhiers, Aniche, Auberchicourt, Dechy, Ecaillon, Flines-lez-Râches, Guesnain, Lallaing, Lewarde, Loffre, Masny, Montigny-en-Ostrevent, Sin-le-Noble, Waziers</desc>
    </path><path class="circo" id="id-059-17" d="M441.9470000000001 567.9399999999998L429.16200000000003 564.0860000000009L422.6525000000004 565.7755000000009L422.50350000000026 565.5970000000002L419.4565 563.4450000000004L415.8840000000009 562.8875000000005L411.70150000000035 567.3810000000003L410.83150000000046 569.1300000000001L404.15700000000015 570.7159999999999L401.4370000000008 568.3330000000001L402.72500000000036 557.8245000000004L411.59400000000005 555.3185000000008L415.06450000000086 558.2704999999999L419.6500000000003 558.8115000000005L419.69550000000027 553.8480000000004L416.46900000000073 551.1284999999998L421.05950000000007 545.5225000000007L423.9760000000001 542.1665000000007L428.4445000000005 542.2185000000002L432.0645000000002 539.5870000000002L429.5765000000006 536.2980000000005L421.8895000000009 527.7865000000008L422.20750000000066 525.2165000000002L416.078 516.5370000000007L412.7265 517.731L401.95350000000076 507.47799999999984L400.02050000000054 508.0460000000005L398.98300000000063 506.31700000000023L400.2175 504.828L397.42050000000063 499.83350000000087L393.655500000001 492.5819999999999L392.1625000000006 483.7970000000007L387.953 478.50599999999986L392.7170000000001 479.29550000000063L394.3050000000005 480.46850000000063L402.44800000000055 478.11050000000023L408.77800000000093 472.7305000000001L412.80000000000086 464.96650000000045L425.3545000000008 463.32200000000057L427.99100000000067 454.65149999999994L430.9935000000007 451.25800000000027L435.1265000000001 447.03250000000025L440.865 445.53600000000074L447.0945000000006 447.5580000000002L449.07800000000066 451.4670000000001L453.4260000000006 452.12150000000065L452.899000000001 456.4280000000008L457.08450000000084 457.5010000000009L458.55150000000094 455.9165000000007L460.7910000000004 462.48550000000023L460.1820000000009 471.712L456.572000000001 473.6205000000007L459.73550000000046 480.3970000000004L457.33600000000024 483.6725000000001L449.8205000000007 487.93949999999995L450.15600000000063 483.46250000000055L448.6005 481.7545000000007L442.663500000001 484.3915000000004L437.2825 491.8885L438.35750000000075 501.0260000000005L435.077500000001 510.2155000000005L436.7375000000004 513.7990000000002L436.2785000000008 518.6180000000002L437.65300000000025 520.8140000000003L441.0620000000006 526.3845000000003L442.3470000000009 528.1315000000006L448.6595 528.3620000000008L449.73550000000046 530.2465000000007L451.19600000000105 529.9615000000006L453.9320000000009 523.0205000000001L459.63800000000106 522.6355000000001L465.0025000000005 526.1080000000004L465.1965000000007 530.4835000000003L468.59800000000064 528.5840000000007L474.1450000000009 529.6305000000007L481.7310000000009 532.8165000000001L484.9115000000006 531.3250000000005L486.7745000000002 532.4599999999998L487.4660000000006 536.7285000000004L495.6550000000004 538.4850000000006L494.0205000000003 545.3155000000004L501.29850000000033 547.8825000000006L504.34799999999996 553.8710000000003L503.42100000000073 560.5275000000006L499.901000000001 562.7375000000006L494.0770000000009 562.6420000000007L493.6725000000001 566.5584999999999L496.087 569.6575000000007L494.7550000000001 571.1220000000003L485.63800000000015 574.3680000000006L479.122000000001 573.3370000000002L473.904500000001 574.3685000000005L465.385 575.0125000000003L459.59850000000074 571.9865000000004L454.95250000000055 570.1454999999999L452.6915000000008 569.4905000000006L441.9470000000001 567.9399999999998z">
      <title id="t291">Dix-septième circonscription du Nord</title>
      <desc id="d291">Cantons de : Arleux, Douai Nord (moins les communes de Anhiers, Flines-lez-Raches, Lallaing, Sin-le-Noble, Waziers), Douai Nord-Est, Douai Sud (moins les communes de Aniche, Auberchicourt, Dechy, Ecaillon, Guesnain, Lewarde, Loffre, Masny, Montigny-en-Ostreven), Douai Sud-Ouest.</desc>
    </path><path class="circo" id="id-059-18" d="M506.0095000000001 569.8935000000006L500.2285000000006 572.8620000000001L494.7595000000001 571.1435000000006L485.6970000000001 574.4245000000001L479.1345000000001 573.3310000000006L473.9785000000006 574.4245000000001L465.3845000000001 575.0495000000001L459.6035000000006 571.9245000000001L458.8220000000001 582.8620000000001L470.5410000000006 585.9870000000001L471.9470000000001 590.0495000000001L475.6970000000001 590.3620000000001L474.4470000000001 596.1435000000006L471.7910000000006 598.9560000000006L472.2595000000001 600.8310000000006L456.9470000000001 600.6745000000001L452.5720000000001 611.7685000000006L451.9470000000001 613.7995000000001L456.9470000000001 615.8310000000006L457.5720000000001 619.5810000000006L462.7285000000006 625.6745000000001L458.6660000000006 627.5495000000001L454.6035000000006 635.5185000000006L445.3845000000001 635.6745000000001L440.2285000000006 638.1745000000001L439.1345000000001 638.7995000000001L445.3845000000001 647.8620000000001L453.8220000000001 650.5185000000006L453.8220000000001 652.8620000000001L436.9470000000001 663.6435000000006L436.0095000000001 665.5185000000006L440.5410000000006 672.2370000000001L440.6970000000001 676.7685000000006L442.8845000000001 676.6120000000001L444.7595000000001 684.8935000000006L440.3845000000001 692.3935000000006L433.9785000000006 691.6120000000001L433.5095000000001 695.9870000000001L437.8845000000001 700.6745000000001L432.7285000000006 703.4870000000001L432.7285000000006 709.4245000000001L434.6035000000006 710.5185000000006L436.9470000000001 715.8310000000006L444.2910000000006 720.0495000000001L444.7595000000001 723.7995000000001L448.8220000000001 729.8935000000006L459.6035000000006 729.2685000000006L458.8220000000001 733.6435000000006L467.2595000000001 732.0810000000006L469.6035000000006 738.0185000000006L482.7285000000006 734.1120000000001L493.6660000000006 725.9870000000001L495.6975 727.2370000000001L499.9160000000006 725.5185000000006L500.2285000000006 725.8310000000006L504.9160000000006 729.2685000000006L506.1660000000006 725.2060000000006L508.1975 725.6745000000001L511.3225 726.4560000000006L514.2910000000006 731.7685000000006L512.4160000000006 732.5495000000001L515.3845000000001 735.9870000000001L523.9785000000006 734.4245000000001L527.7285000000006 733.1745000000001L535.5410000000006 735.5185000000006L539.4475 734.5810000000006L542.2595000000001 728.6435000000006L545.6975 726.2995000000001L545.0725 724.2685000000006L546.3225 722.3935000000006L555.2285000000006 721.9245000000001L563.0410000000006 725.3620000000001L565.5410000000006 723.1745000000001L570.6975 727.3935000000006L574.7595000000001 727.2370000000001L578.3535000000006 729.5810000000006L578.0410000000006 731.4560000000006L604.6035000000006 733.4870000000001L611.7910000000006 723.9560000000006L612.2595000000001 722.5495000000001L621.4785000000006 720.3620000000001L626.4785000000006 711.6120000000001L632.7285000000006 710.3620000000001L637.5725 710.9870000000001L642.4160000000006 714.8935000000006L648.8225 716.9245000000001L654.9160000000006 726.1435000000006L657.2595000000001 729.4245000000001L661.9475 725.6745000000001L669.6035000000006 721.6120000000001L675.6975 724.4245000000001L677.5725 720.3620000000001L674.1345000000001 718.0185000000006L676.0095000000001 713.9560000000006L678.3535000000006 710.5185000000006L682.4160000000006 708.7995000000001L698.1975 702.0810000000006L689.9160000000006 692.3935000000006L692.1035000000006 686.7685000000006L687.1035000000006 682.8620000000001L685.2285000000006 678.7995000000001L683.1975 679.1120000000001L679.9160000000006 673.6435000000006L675.6975 672.7060000000006L669.7595000000001 667.0810000000006L656.3225 659.4245000000001L654.1345000000001 660.9870000000001L650.5410000000006 658.7995000000001L646.0095000000001 659.4245000000001L637.7285000000006 662.5495000000001L634.6035000000006 665.8310000000006L633.0410000000006 665.6745000000001L630.3845000000001 662.3935000000006L632.5725 658.7995000000001L629.1345000000001 655.9870000000001L628.3535000000006 652.2370000000001L614.4475 644.2685000000006L602.5725 651.1435000000006L600.6975 657.7060000000006L597.2595000000001 658.0185000000006L594.1345000000001 657.5495000000001L593.8225 659.2685000000006L584.4475 650.8310000000006L584.9160000000006 658.9560000000006L576.6345000000001 656.1435000000006L572.7285000000006 657.3935000000006L569.9160000000006 654.1120000000001L564.9160000000006 659.5810000000006L559.9160000000006 668.7995000000001L547.5725 670.0495000000001L541.0095000000001 668.3310000000006L538.0410000000006 667.3935000000006L535.8535000000006 668.1745000000001L533.6660000000006 667.7060000000006L530.5410000000006 670.9870000000001L522.2595000000001 667.3935000000006L520.3845000000001 661.4560000000006L522.4160000000006 655.8310000000006L518.8225 653.7995000000001L524.1345000000001 649.7370000000001L526.1660000000006 650.8310000000006L526.7910000000006 646.9245000000001L523.9785000000006 643.9560000000006L525.2285000000006 640.0495000000001L533.1975 638.3310000000006L533.0410000000006 633.4870000000001L535.2285000000006 633.3310000000006L542.1035000000006 623.0185000000006L539.9160000000006 618.7995000000001L535.0725 603.3310000000006L543.1975 604.7370000000001L548.1975 601.2995000000001L550.2285000000006 601.7685000000006L553.1975 597.0810000000006L550.0725 593.9560000000006L548.0410000000006 587.3935000000006L544.6035000000006 584.7370000000001L543.6660000000006 580.3620000000001L537.8845000000001 576.9245000000001L529.7595000000001 581.2995000000001L525.6975 580.3620000000001L525.8535000000006 577.8620000000001L521.9475 577.0810000000006L519.1345000000001 580.0495000000001L518.1975 578.1745000000001L516.3225 578.9560000000006L514.4475 579.2685000000006L511.3225 574.1120000000001L506.0095000000001 569.8935000000006zM422.8845000000001 630.8310000000006L421.7910000000006 634.8935000000006L413.3535000000006 640.2060000000006L413.0410000000006 644.2685000000006L407.4160000000006 645.9870000000001L404.4470000000001 644.2685000000006L399.6035000000006 647.5495000000001L397.8845000000001 646.6120000000001L393.9785000000006 654.5810000000006L397.2595000000001 659.8935000000006L396.4785000000006 666.4560000000006L400.6970000000001 671.2995000000001L406.6345000000001 668.9560000000006L411.9470000000001 659.5810000000006L418.5095000000001 658.3310000000006L424.7595000000001 660.8310000000006L426.9470000000001 659.4245000000001L425.0720000000001 648.3310000000006L436.9470000000001 638.0185000000006L436.1660000000006 636.1435000000006L434.4470000000001 632.2370000000001L422.8845000000001 630.8310000000006z">
      <title id="t292">Dix-huitième circonscription du Nord</title>
      <desc id="d292">Cantons de : Cambrai Est, Cambrai Ouest, Le Cateau-Cambrésis, Clary, Marcoing</desc>
    </path><path class="circo" id="id-059-19" d="M549.9990000000003 593.9785000000006L548.1005000000005 587.4599999999998L544.5310000000006 584.6935000000008L543.6990000000003 580.3870000000006L537.8210000000001 576.9060000000002L529.833000000001 581.3315L525.7425000000001 580.3365000000008L525.7935000000009 577.9135000000008L521.975000000001 577.1175000000005L519.0895 580.0665000000004L518.2690000000002 578.1775000000005L516.3615000000004 578.9525000000003L514.3905000000007 579.2385000000002L511.28900000000044 574.1660000000002L506.0640000000001 569.9639999999999L500.28650000000084 572.8700000000003L494.7550000000001 571.1220000000003L496.087 569.6575000000007L493.6725000000001 566.5584999999999L494.0770000000009 562.6420000000007L499.901000000001 562.7375000000006L503.42100000000073 560.5275000000006L504.34799999999996 553.8710000000003L501.29850000000033 547.8825000000006L494.0205000000003 545.3155000000004L495.6550000000004 538.4850000000006L499.3050000000005 535.5975000000001L500.87900000000104 537.1445000000006L505.06700000000023 535.8785L508.651000000001 533.4465L508.80100000000084 531.2535000000003L512.74 529.8685L512.2825 525.8915000000002L515.6145000000004 524.3850000000009L521.4985000000001 519.6480000000008L523.3795000000009 517.3710000000005L528.465000000001 517.5400000000002L534.085500000001 518.1670000000008L535.8570000000009 515.1665000000003L541.699000000001 515.5140000000006L542.0000000000005 513.5059999999999L544.461500000001 507.0525000000009L543.6505 500.2890000000002L545.9590000000003 496.3265000000001L546.3555000000008 484.9955L543.9445000000001 476.7425000000003L545.0540000000001 479.63250000000016L549.9700000000007 481.61800000000085L549.2500000000007 483.7755000000004L552.6355000000001 486.05350000000044L549.4940000000008 494.47L554.262 509.5794999999998L554.5940000000007 516.2779999999998L552.781 517.6395000000002L553.3180000000004 520.0985000000003L558.6635000000001 515.8070000000009L558.4565000000009 511.70400000000086L570.0625000000002 501.2295000000006L575.5345 511.07349999999997L579.23 507.08650000000034L584.3760000000009 505.2730000000008L583.3375000000001 501.0800000000006L579.2820000000006 499.7415000000001L578.8700000000006 495.3360000000009L580.104500000001 494.39750000000004L580.6170000000009 494.55550000000017L586.4845000000003 498.3635000000004L589.3780000000004 504.6555000000001L595.2250000000004 508.48749999999995L596.472 505.42100000000005L599.0000000000009 505.6395000000009L600.0895000000003 509.9585000000002L606.5640000000008 516.1099999999999L604.1705000000002 519.3715000000009L607.9304999999999 521.6674999999998L612.1480000000008 520.3489999999999L613.886 521.7175000000009L616.1430000000007 521.2540000000001L626.7415000000005 525.9585000000004L633.6700000000008 526.6345000000001L636.798 533.5360000000003L631.6645000000005 536.3385000000005L630.1735000000008 539.9560000000008L632.6175000000001 547.441L630.4695000000004 550.4425000000003L632.1840000000009 554.0030000000002L628.805000000001 559.384L622.8880000000004 561.7025000000001L619.5315000000005 561.3454999999999L613.886500000001 562.174L606.1285000000009 561.0495000000003L604.5125000000007 562.2995000000003L602.8245000000004 563.6865L604.8675000000003 567.5504999999998L600.2625 579.6699999999998L599.8705000000007 582.5380000000007L598.5160000000008 583.1145000000004L592.7055000000007 576.3055000000008L581.5960000000007 574.4635000000005L569.8750000000007 586.0745000000009L564.1980000000001 584.8220000000003L553.220500000001 597.1255000000008L549.9990000000003 593.9785000000006z">
      <title id="t293">Dix-neuvième circonscription du Nord</title>
      <desc id="d293">Cantons de : Bouchain, Denain, Valenciennes Sud (moins la commune de Valenciennes)</desc>
    </path><path class="circo" id="id-059-20" d="M640.2745000000004 476.51550000000043L636.2940000000003 477.13300000000004L636.2625000000003 477.3725000000002L633.9885000000004 477.27250000000026L631.2050000000011 480.8865000000003L629.606500000001 491.93550000000073L627.8775000000007 493.4190000000001L626.1380000000008 490.3435000000002L622.527 491.3420000000008L619.1330000000005 497.3745000000008L612.5425000000007 503.4514999999999L608.0955000000006 503.9670000000001L604.5699999999999 501.07950000000073L606.8215000000009 497.7795000000003L597.0655000000011 487.95400000000086L592.2030000000007 492.8685000000007L588.012 491.0250000000008L588.3255000000008 484.20400000000086L581.3040000000001 489.9995000000001L580.6170000000009 494.55550000000017L580.104500000001 494.39750000000004L575.7870000000003 477.1010000000001L573.0320000000006 479.9305000000004L565.6585000000007 475.38400000000024L556.4710000000002 481.5224999999998L549.9700000000007 481.61800000000085L545.0540000000001 479.63250000000016L543.9445000000001 476.7425000000003L543.9395000000002 476.50800000000004L545.1780000000008 473.1910000000005L542.4845000000005 470.64100000000053L545.9115000000008 469.4290000000001L545.4340000000002 466.66600000000017L541.0225000000003 463.47849999999994L535.2355 463.4000000000003L533.134 455.8210000000008L532.337 450.5939999999998L528.1550000000004 442.77000000000044L531.5115000000003 444.8505L537.2570000000007 444.23900000000003L537.7935000000002 443.07300000000055L546.042000000001 440.1010000000008L548.7710000000004 436.63099999999986L548.9465000000007 432.23799999999983L547.1675000000005 429.0050000000008L545.0300000000004 429.74450000000047L540.2920000000006 424.86800000000017L536.7970000000003 414.1190000000006L538.4900000000005 408.40400000000045L549.3525 411.2110000000007L556.5740000000005 419.701L562.0415000000003 415.8415000000002L568.5970000000009 414.49550000000045L581.3810000000001 407.5819999999999L583.0015000000003 408.8510000000008L587.5240000000008 408.85200000000054L590.0645000000009 399.80800000000045L595.983500000001 392.5940000000003L598.066500000001 391.5025000000003L611.4530000000002 394.76650000000063L615.4770000000008 397.17449999999985L616.4385000000004 399.3170000000009L616.0465000000011 401.63650000000075L608.2625000000007 412.93600000000083L607.7155000000005 415.22350000000074L608.2785000000001 419.8810000000003L609.7320000000002 421.7195000000004L611.8965000000003 420.81549999999993L617.858 417.28650000000016L633.6595 414.73799999999983L637.8960000000006 413.60450000000014L644.1495000000009 419.6840000000009L642.5060000000008 426.09300000000076L643.8605000000007 450.04050000000007L648.189000000001 451.3255000000004L655.0155000000007 457.0265000000006L652.912500000001 463.3775000000003L654.1155000000003 461.46400000000085L656.2295000000006 462.2649999999999L659.0335000000005 465.7600000000002L660.3910000000008 476.92549999999983L656.5430000000003 478.8830000000007L654.8955000000001 477.3380000000009L646.4560000000006 473.81950000000074L642.9065000000003 473.374L640.2745000000004 476.51550000000043z">
      <title id="t294">Vingtième circonscription du Nord</title>
      <desc id="d294">Cantons de : Anzin (moins la commune de Saint-Saulve), Saint-Amand-les-Eaux-Rive droite, Saint-Amand-les-Eaux-Rive gauche, Communes de : Escautpont, Fresnes-sur-Escaut, Hergnies, Odomez, Vicq, Vieux-Condé</desc>
    </path><path class="circo" id="id-059-21" d="M654.6035000000006 415.9870000000001L644.1345000000001 419.7370000000001L642.5725 426.1435000000006L643.8225 450.0495000000001L648.1975 451.2995000000001L655.0725 457.0810000000006L652.8845000000001 463.3310000000006L654.1345000000001 461.4560000000006L656.1660000000006 462.2370000000001L658.9785000000006 465.8310000000006L660.3845000000001 476.9245000000001L656.4785000000006 478.9560000000006L654.9160000000006 477.3935000000006L646.4785000000006 473.7995000000001L642.8845000000001 473.3310000000006L640.2285000000006 476.4560000000006L636.3225 477.0810000000006L636.3225 477.3935000000006L633.9785000000006 477.2370000000001L631.1660000000006 480.8310000000006L629.6035000000006 491.9245000000001L627.8845000000001 493.4870000000001L626.1660000000006 490.3620000000001L622.5725 491.2995000000001L619.1345000000001 497.3935000000006L612.5725 503.4870000000001L608.0410000000006 503.9560000000006L604.6035000000006 501.1435000000006L606.7910000000006 497.7060000000006L597.1035000000006 488.0185000000006L592.2595000000001 492.8620000000001L588.0410000000006 490.9870000000001L588.3535000000006 484.2685000000006L581.3225 490.0495000000001L580.5410000000006 494.5810000000006L586.4785000000006 498.3310000000006L589.4475 504.5810000000006L595.2285000000006 508.4870000000001L596.4785000000006 505.3620000000001L598.9785000000006 505.6745000000001L600.0725 509.8935000000006L606.6345000000001 516.1435000000006L604.1345000000001 519.4245000000001L607.8845000000001 521.6120000000001L612.1035000000006 520.3620000000001L613.8225 521.7685000000006L616.1660000000006 521.2995000000001L626.7910000000006 525.9870000000001L633.6660000000006 526.6120000000001L636.7910000000006 533.4870000000001L631.6345000000001 536.2995000000001L630.2285000000006 539.8935000000006L632.5725 547.3935000000006L646.4785000000006 544.5810000000006L651.9475 538.7995000000001L654.1345000000001 540.0495000000001L658.9785000000006 535.6745000000001L661.7910000000006 529.7370000000001L663.9785000000006 529.4245000000001L669.2910000000006 531.2995000000001L669.2910000000006 533.1745000000001L673.1975 531.6120000000001L674.9160000000006 527.5495000000001L682.5725 523.7995000000001L683.5095000000001 519.4245000000001L678.9785000000006 514.4245000000001L679.4475 505.5185000000006L675.8535000000006 500.0495000000001L678.9785000000006 493.7995000000001L682.2595000000001 487.7060000000006L682.4160000000006 473.9560000000006L680.5410000000006 456.1435000000006L676.9475 450.6745000000001L677.1035000000006 442.0810000000006L674.1345000000001 438.6435000000006L669.7595000000001 438.3310000000006L663.8225 426.1435000000006L654.6035000000006 415.9870000000001zM565.6975 475.3620000000001L556.4785000000006 481.4560000000006L549.9160000000006 481.6120000000001L549.2910000000006 483.7995000000001L552.5725 485.9870000000001L549.4475 494.4245000000001L554.2910000000006 509.5810000000006L554.6035000000006 516.2995000000001L552.7285000000006 517.7060000000006L553.3535000000006 520.0495000000001L558.6660000000006 515.8310000000006L558.5095000000001 511.7685000000006L570.0725 501.2995000000001L575.5410000000006 511.1435000000006L579.2910000000006 507.0810000000006L584.4475 505.2060000000006L583.3535000000006 501.1435000000006L579.2910000000006 499.7370000000001L578.8225 495.3620000000001L580.0725 494.4245000000001L575.8535000000006 477.0810000000006L573.0410000000006 479.8935000000006L565.6975 475.3620000000001z">
      <title id="t295">Vingt-et-unième circonscription du Nord</title>
      <desc id="d295">Cantons de : Condé-sur-l'Escaut (moins les communes de Escautpont, Fresnes-sur-Escaut, Hergnies, Odomez, Vicq, Vieux-Condé), Valenciennes Est, Valenciennes Nord, Commune de Valenciennes (partie comprise dans le canton de Valenciennes Sud), Commune de Saint-Saulve</desc>
    </path></svg>