<svg xmlns="http://www.w3.org/2000/svg" version="1.1" xmlns:xlink="http://www.w3.org/1999/xlink" xmlns:svgjs="http://svgjs.dev/svgjs" width="627.9095000000001" height="458.3579999999998" fill="#eeeeee" stroke="#cccccc" xmlns:sodipodi="http://sodipodi.sourceforge.net/DTD/sodipodi-0.dtd"><path class="circo" id="id-060-01" d="M229.93150000000014 39.399449999999945L219.63850000000036 41.73944999999975L213.9575000000002 38.93945000000002L213.16200000000038 38.292149999999765L198.4650000000005 39.46844999999996L194.90300000000047 41.703299999999786L191.07150000000047 46.721749999999815L185.05899999999997 48.70119999999986L185.7095000000004 51.62184999999994L183.57150000000047 57.878749999999854L178.48100000000045 61.50584999999978L179.53300000000013 63.51259999999996L173.6835000000002 63.96829999999994L167.33900000000006 59.80499999999978L165.61950000000024 66.27434999999991L163.56300000000033 66.9887L158.29700000000003 63.534299999999746L151.16900000000044 68.21709999999996L147.6505000000003 77.3798499999998L137.8770000000003 84.1540999999998L131.31250000000023 89.60874999999987L123.09400000000039 93.8062499999998L119.32299999999998 91.33164999999991L116.04350000000011 83.36725000000001L107.04800000000034 90.10939999999977L108.89800000000037 91.29294999999985L109.80850000000032 100.03524999999996L102.01000000000022 102.80495000000002L101.54500000000041 106.61839999999984L99.6750000000003 107.81714999999991L93.68100000000027 108.27679999999987L91.98400000000049 116.44344999999987L86.22050000000002 119.38739999999996L82.89000000000044 123.15169999999995L98.91999999999996 130.5086L104.45400000000006 133.2540499999999L105.96400000000017 134.19365L102.6905000000005 138.3597499999999L103.73300000000029 140.7356999999999L108.21200000000033 143.80779999999987L109.39250000000015 151.77944999999994L108.37000000000046 162.26225L111.9440000000003 164.98534999999976L111.08050000000048 167.0850999999999L102.17800000000011 173.80499999999984L103.30450000000042 175.54824999999994L107.38200000000006 175.65820000000002L109.70900000000029 179.08479999999997L106.93600000000004 180.91604999999987L109.12250000000029 183.91494999999992L106.25699999999995 185.8113499999999L105.50000000000011 186.63884999999993L102.37750000000005 189.83274999999992L105.05899999999997 198.30164999999994L104.32200000000023 202.7607999999998L113.28100000000006 206.2662499999999L118.85950000000037 203.12564999999978L125.48600000000022 202.15215L128.99249999999995 199.0804L134.89850000000047 195.7016999999999L148.58600000000024 203.05499999999995L149.69600000000014 206.66109999999975L148.00250000000005 210.01904999999994L149.22200000000032 213.93479999999983L152.2580000000005 216.37639999999976L155.74000000000012 219.19555000000003L161.37699999999995 218.5863999999998L163.85700000000043 214.90814999999998L168.94800000000032 218.21634999999986L170.34250000000043 220.20954999999987L177.59850000000029 220.73414999999983L185.87550000000022 224.61484999999982L191.7530000000005 223.29309999999992L199.7905000000003 235.7074L204.5225000000005 233.11504999999983L203.46850000000018 239.20269999999988L204.88950000000045 240.73735L208.81349999999998 242.10475000000002L212.64300000000048 240.53294999999991L214.1735 241.95584999999994L215.85450000000037 245.53664999999995L220.42050000000017 247.9961L232.99400000000048 257.5188L236.69200000000046 256.97249999999997L245.24850000000015 247.84335L250.01750000000015 245.22849999999977L251.18400000000008 244.76034999999996L248.7480000000005 238.2433499999999L251.1065000000002 217.62264999999985L250.30950000000018 212.4491999999998L243.40700000000027 199.05099999999976L257.6260000000002 195.9292499999998L260.48249999999996 194.1818999999998L261.22749999999996 186.30914999999987L268.6190000000005 184.09879999999987L277.46550000000013 190.30234999999976L283.9270000000005 190.57244999999995L284.76500000000044 192.66989999999993L282.86400000000015 196.77084999999977L289.18949999999995 202.92554999999993L292.2425000000004 208.85944999999992L293.8545000000005 208.2410999999999L299.3275 207.57565L301.3900000000001 201.47214999999989L302.8785000000005 199.90949999999998L304.7905000000003 200.9059499999998L310.9895 198.3382499999999L317.26050000000043 200.8549499999998L325.6120000000004 198.45724999999987L326.8430000000001 200.17694999999975L323.9345000000003 210.10334999999998L326.9655 212.97924999999992L327.9540000000003 211.09229999999997L337.4215000000004 214.73539999999986L341.678 210.80734999999976L345.26550000000043 212.97534999999982L347.6105000000001 218.92304999999993L349.5225000000005 218.42905000000002L354.2365000000001 216.35615L356.5315000000004 214.22169999999994L359.9355000000003 216.3280499999999L365.68550000000016 215.98884999999996L366.6035000000005 217.77554999999978L371.413 215.8157L373.41499999999996 216.74434999999988L377.5055000000003 209.44969999999984L385.9910000000002 211.0445999999999L389.2335000000003 211.72694999999976L388.73800000000017 213.3158499999999L397.2185000000002 215.41834999999992L403.7880000000001 209.8183499999999L403.23950000000025 207.6645499999998L408.2570000000004 200.35539999999997L410.38700000000006 200.96869999999996L413.81700000000023 189.0694499999998L411.7145000000005 185.51044999999988L413.40100000000007 180.86959999999976L412.9660000000001 180.5719499999998L404.0530000000001 175.35979999999995L402.9215000000005 169.07804999999996L406.80000000000007 161.57749999999993L404.04300000000035 158.98899999999998L404.05100000000004 156.87689999999975L406.3380000000001 146.06155L411.3680000000005 142.03009999999978L411.37 134.40589999999986L410.7385000000005 132.2476499999999L406.59700000000043 130.5288999999999L409.8075 126.17435L408.4400000000005 124.99664999999993L400.92300000000023 120.1773L399.15999999999997 116.12089999999995L400.4185000000001 107.63024999999999L397.7230000000003 101.80874999999986L398.9250000000004 99.96439999999978L398.37500000000034 99.30655000000002L393.9175 98.86839999999978L390.0550000000004 101.03874999999988L384.23500000000047 98.40399999999988L385.6060000000002 99.8587999999998L382.0595000000003 101.62179999999978L379.5245 106.9332L375.2905000000004 108.40004999999991L369.9905000000001 101.09774999999985L372.6475000000005 98.0064999999999L373.09600000000046 94.00109999999984L364.60650000000044 95.90019999999981L356.148 87.17124999999982L353.91200000000026 88.77679999999998L347.30050000000006 82.68544999999989L347.18650000000025 80.42129999999986L335.548 92.8497999999999L330.7405 88.74859999999984L333.5265000000004 83.3167499999999L330.21000000000015 81.56454999999994L326.4655000000005 83.45325000000003L324.82650000000035 79.4959L323.24100000000044 75.5669499999999L321.7195000000004 71.72550000000001L307.6030000000003 66.30584999999996L303.2705000000004 66.7752999999999L297.63400000000047 69.79214999999982L291.2560000000002 69.71794999999986L286.2225000000001 62.69049999999993L283.22400000000016 64.43189999999987L281.1935 65.08589999999998L274.8150000000004 59.426699999999926L273.56899999999996 53.329049999999825L266.43850000000043 47.540349999999876L266.0515000000004 49.76939999999985L262.24649999999997 52.18154999999996L255.83950000000016 51.18239999999986L253.14700000000016 47.65859999999975L242.9570000000001 43.862399999999866L239.36800000000005 42.89850000000001L237.38950000000045 39.764149999999745L231.13950000000045 39.47634999999991L229.93150000000014 39.399449999999945z">
      <title id="t296">Première circonscription de l'Oise</title>
      <desc id="d296">Cantons de : Beauvais Nord-Est, Beauvais Nord-Ouest, Breteuil, Crèvecoeur-le-Grand, Froissy, Maignelay-Montigny, Marseille-en-Beauvaisis, Nivillers, Saint-Just-en-Chaussée</desc>
    </path><path class="circo" id="id-060-02" d="M145.1445000000001 302.27745L141.44150000000025 301.90139999999985L137.36550000000022 292.6930999999999L126.3190000000003 311.84724999999986L126.91900000000032 315.8052999999998L124.7505000000001 319.30034999999975L132.0655000000005 318.66194999999976L132.40049999999997 322.57554999999996L135.92849999999999 324.5158999999998L141.81150000000002 327.13599999999985L147.9925000000003 325.54884999999985L151.9040000000001 325.53649999999976L152.38500000000045 329.5937999999998L148.48450000000014 330.9645499999999L142.6075000000003 336.75635L136.94299999999998 336.51674999999983L134.0395000000001 341.89155L129.97650000000021 343.17195L129.11900000000003 349.60259999999977L128.07900000000018 352.2486999999998L124.08900000000017 353.1779499999999L123.9730000000003 357.3501999999999L129.63400000000036 359.81605L127.80799999999999 360.72299999999984L125.45749999999998 370.2747499999998L117.94300000000021 372.18484999999987L116.54200000000003 375.6302499999998L121.32600000000025 378.57264999999984L116.48600000000044 384.2362L110.24699999999996 386.6688499999998L105.74800000000039 386.7351499999998L104.2575000000005 385.05404999999996L82.42999999999995 392.10739999999987L79.96350000000007 383.7785499999998L78.99950000000047 384.4409999999999L68.19450000000018 386.91194999999993L61.81750000000022 390.40189999999996L62.90999999999997 386.22419999999977L60.619500000000244 382.69214999999974L54.562500000000114 383.41379999999987L46.39250000000004 377.38204999999994L44.61000000000013 380.5485999999999L37.53000000000043 377.33134999999976L37.29849999999999 377.4164999999999L28.692500000000223 384.0581L22.98249999999996 380.8580999999998L21.390499999999975 372.8027L15.84950000000049 371.6171L15.408500000000345 367.39659999999986L11.459500000000276 365.8699999999999L11.470000000000482 363.66479999999996L19.27850000000035 359.92339999999984L20.04950000000008 353.44605L22.02950000000044 352.47254999999996L9.431500000000028 343.4010999999998L6.691000000000145 346.77014999999983L5.254500000000348 345.62914999999975L5.527000000000157 340.19379999999984L5.4435000000000855 334.01915L9.786000000000286 325.7272999999998L16.360500000000116 325.3573499999999L19.772500000000264 322.57295L26.31500000000017 323.44704999999976L28.093000000000075 322.15344999999985L33.35650000000044 329.40235L33.268000000000484 333.85894999999977L43.322 337.41389999999996L43.21050000000014 332.77934999999985L48.4680000000003 319.92244999999997L44.891000000000076 317.79229999999984L45.744000000000256 311.27189999999985L40.713499999999954 307.02589999999987L38.061500000000024 308.9183L35.60300000000041 306.7417499999999L36.47100000000023 298.26104999999984L33.54399999999998 290.04279999999994L34.865500000000225 285.942L36.28900000000044 279.34139999999985L29.329500000000053 265.4217L30.05700000000047 258.1062L26.045500000000175 256.0045499999998L23.01750000000027 249.9266L13.349000000000046 240.44999999999987L21.99800000000039 233.65849999999995L17.963000000000306 232.86034999999998L12.305500000000507 234.95434999999986L10.760000000000218 231.3449L14.191000000000145 223.3316499999998L15.920000000000414 212.50084999999984L16.825000000000045 210.48834999999997L19.027000000000385 210.44129999999996L21.802000000000135 205.1549L26.817500000000223 202.13709999999992L24.99650000000031 198.52199999999982L32.620000000000005 194.28654999999992L37.04000000000008 189.37359999999984L36.898500000000354 180.59089999999998L38.17800000000034 178.78320000000002L42.506500000000074 178.4462499999998L42.04600000000028 167.91829999999976L33.76850000000047 164.12259999999975L28.381500000000415 167.7670999999998L25.78050000000019 176.18425000000002L23.906000000000063 177.40849999999995L22.052000000000476 173.31490000000002L15.657000000000494 172.13564999999988L13.00800000000038 170.08399999999995L11.736000000000217 169.05189999999976L13.30250000000035 166.1674499999998L21.32350000000031 158.5241499999998L24.182500000000005 146.35954999999996L23.914500000000203 146.1224999999999L16.048000000000116 144.2532L17.515999999999963 131.85845L13.505499999999984 126.41619999999989L9.259000000000128 121.40169999999983L3.8560000000001082 124.69584999999995L2.538499999999999 119.24449999999979L13.077000000000112 118.09934999999996L14.024500000000444 113.82374999999996L13.398500000000126 113.26844999999992L9.58150000000046 114.86284999999981L7.079500000000394 109.52984999999984L2.169499999999971 105.78624999999988L11.612499999999955 97.33679999999993L14.053000000000111 91.18929999999978L12.168500000000222 84.85099999999989L6.715000000000373 80.40489999999977L4.277500000000032 77.38969999999995L8.269500000000107 76.20889999999974L14.517500000000041 66.03009999999983L15.092500000000086 59.364300000000014L27.0150000000001 53.34744999999998L26.21400000000051 43.5890999999998L24.605999999999995 42.439899999999966L23.158000000000243 40.626299999999844L18.83100000000013 41.793949999999995L12.102500000000305 50.98399999999998L8.13350000000014 53.079449999999895L0 44.978049999999996L7.034000000000447 37.326750000000004L10.94250000000045 36.110949999999775L11.258000000000266 31.94199999999995L10.173500000000217 21.02449999999976L11.440000000000055 19.231399999999894L15.590500000000134 20.091449999999895L23.065500000000156 15.498199999999827L24.15549999999996 15.486399999999776L21.94749999999999 7.802999999999827L22.993000000000166 6.096000000000004L26.038500000000226 0L31.878000000000384 3.188949999999977L40.89650000000006 2.7704999999997426L44.04200000000003 4.146799999999757L43.312500000000114 5.765749999999912L47.303 6.93995000000001L51.418500000000336 5.441449999999861L56.03150000000028 15.171399999999835L62.861500000000206 14.384199999999794L64.61950000000002 18.54159999999979L63.63700000000051 20.647699999999816L56.07500000000016 26.01859999999988L56.81750000000022 27.992749999999944L61.003500000000486 28.2432L64.17100000000005 30.94290000000001L63.47149999999999 35.06990000000002L68.1570000000005 39.76744999999994L74.31350000000009 38.31384999999983L81.78300000000036 42.245399999999904L87.61200000000031 40.97654999999975L96.51450000000011 31.88220000000001L103.89200000000017 27.776449999999784L110.70350000000019 40.31745000000001L120.21450000000016 27.736349999999845L122.85600000000045 33.38409999999982L129.33350000000019 34.2398L133.11599999999999 32.04784999999987L138.31800000000044 35.455049999999915L144.44000000000017 33.80209999999977L144.58900000000028 33.91844999999989L146.79650000000038 33.86124999999993L148.46550000000036 37.95699999999982L157.35400000000027 44.06149999999997L157.42200000000025 48.31754999999987L153.0415000000005 48.72419999999977L153.98950000000013 49.751649999999756L160.5445000000003 51.01949999999988L167.7275000000003 46.07069999999993L169.62050000000033 47.335399999999765L172.7370000000002 45.487249999999904L179.49450000000013 44.88474999999994L185.05899999999997 48.70119999999986L185.7095000000004 51.62184999999994L183.57150000000047 57.878749999999854L178.48100000000045 61.50584999999978L179.53300000000013 63.51259999999996L173.6835000000002 63.96829999999994L167.33900000000006 59.80499999999978L165.61950000000024 66.27434999999991L163.56300000000033 66.9887L158.29700000000003 63.534299999999746L151.16900000000044 68.21709999999996L147.6505000000003 77.3798499999998L137.8770000000003 84.1540999999998L131.31250000000023 89.60874999999987L123.09400000000039 93.8062499999998L119.32299999999998 91.33164999999991L116.04350000000011 83.36725000000001L107.04800000000034 90.10939999999977L108.89800000000037 91.29294999999985L109.80850000000032 100.03524999999996L102.01000000000022 102.80495000000002L101.54500000000041 106.61839999999984L99.6750000000003 107.81714999999991L93.68100000000027 108.27679999999987L91.98400000000049 116.44344999999987L86.22050000000002 119.38739999999996L82.89000000000044 123.15169999999995L98.91999999999996 130.5086L104.45400000000006 133.2540499999999L105.96400000000017 134.19365L102.6905000000005 138.3597499999999L103.73300000000029 140.7356999999999L108.21200000000033 143.80779999999987L109.39250000000015 151.77944999999994L108.37000000000046 162.26225L111.9440000000003 164.98534999999976L111.08050000000048 167.0850999999999L102.17800000000011 173.80499999999984L103.30450000000042 175.54824999999994L107.38200000000006 175.65820000000002L109.70900000000029 179.08479999999997L106.93600000000004 180.91604999999987L109.12250000000029 183.91494999999992L106.25699999999995 185.8113499999999L105.50000000000011 186.63884999999993L102.37750000000005 189.83274999999992L105.05899999999997 198.30164999999994L104.32200000000023 202.7607999999998L113.28100000000006 206.2662499999999L118.85950000000037 203.12564999999978L125.48600000000022 202.15215L128.99249999999995 199.0804L134.89850000000047 195.7016999999999L148.58600000000024 203.05499999999995L149.69600000000014 206.66109999999975L148.00250000000005 210.01904999999994L149.22200000000032 213.93479999999983L155.74000000000012 219.19555000000003L161.37699999999995 218.5863999999998L163.85700000000043 214.90814999999998L168.94800000000032 218.21634999999986L170.34250000000043 220.20954999999987L177.59850000000029 220.73414999999983L185.87550000000022 224.61484999999982L191.7530000000005 223.29309999999992L199.7905000000003 235.7074L204.5225000000005 233.11504999999983L203.46850000000018 239.20269999999988L204.88950000000045 240.73735L208.81349999999998 242.10475000000002L212.64300000000048 240.53294999999991L214.1735 241.95584999999994L215.85450000000037 245.53664999999995L220.42050000000017 247.9961L232.99400000000048 257.5188L236.69200000000046 256.97249999999997L245.24850000000015 247.84335L250.01750000000015 245.22849999999977L250.7570000000004 257.6734499999998L248.16650000000038 260.9594999999999L246.96300000000008 273.1707L242.7380000000005 272.85235L241.2790000000001 274.40235L238.904 282.32849999999985L247.59400000000028 292.20019999999977L245.96100000000035 293.7805499999999L251.92700000000002 298.8763499999999L248.5345000000001 301.66739999999976L246.8390000000005 307.9049999999998L236.89900000000023 316.70889999999986L242.14150000000018 320.86959999999976L238.84749999999997 323.88734999999997L232.64049999999997 325.69799999999987L232.7675000000005 332.2011499999999L229.2885000000001 333.97354999999976L226.0850000000005 331.7166999999998L220.17650000000003 332.75329999999997L217.303 333.78344999999996L209.80700000000013 335.87349999999986L206.33000000000038 322.0577L202.53750000000025 320.6865499999998L200.79700000000003 321.76525L199.86649999999997 319.93614999999977L197.28250000000003 316.3682L190.88700000000017 317.9075999999998L186.7485000000005 316.5121499999998L187.07300000000032 314.658L184.42450000000008 312.3326499999999L173.52250000000026 311.54229999999984L174.6595000000002 300.08095L167.30600000000038 293.77275L162.9325 305.0453999999999L154.55849999999998 307.7700999999999L151.70200000000023 311.2080499999999L149.55300000000022 306.38919999999985L147.5060000000002 305.7524999999998L145.1445000000001 302.27745z">
      <title id="t297">Deuxième circonscription de l'Oise</title>
      <desc id="d297">Cantons de : Auneuil, Beauvais Sud-Ouest, Chaumont-en-Vexin, Le Coudray-Saint-Germer, Formerie, Grandvilliers, Noailles, Songeons</desc>
    </path><path class="circo" id="id-060-03" d="M187.71050000000002 373.7391499999998L181.60300000000007 375.5320499999999L173.0880000000002 374.18465L170.69299999999998 364.1773999999998L166.66750000000036 363.0369999999999L166.7190000000005 360.92464999999976L162.03700000000026 365.54734999999994L153.79800000000046 368.51729999999975L148.64700000000028 372.66155L148.59050000000025 372.8377999999998L141.59850000000006 375.08725L132.1040000000005 383.60689999999977L121.32600000000025 378.57264999999984L116.54200000000003 375.6302499999998L117.94300000000021 372.18484999999987L125.45749999999998 370.2747499999998L127.80799999999999 360.72299999999984L129.63400000000036 359.81605L123.9730000000003 357.3501999999999L124.08900000000017 353.1779499999999L128.07900000000018 352.2486999999998L129.11900000000003 349.60259999999977L129.97650000000021 343.17195L134.0395000000001 341.89155L136.94299999999998 336.51674999999983L142.6075000000003 336.75635L148.48450000000014 330.9645499999999L152.38500000000045 329.5937999999998L151.9040000000001 325.53649999999976L147.9925000000003 325.54884999999985L141.81150000000002 327.13599999999985L135.92849999999999 324.5158999999998L132.40049999999997 322.57554999999996L132.0655000000005 318.66194999999976L124.7505000000001 319.30034999999975L126.91900000000032 315.8052999999998L126.3190000000003 311.84724999999986L137.36550000000022 292.6930999999999L141.44150000000025 301.90139999999985L145.1445000000001 302.27745L147.5060000000002 305.7524999999998L149.55300000000022 306.38919999999985L151.70200000000023 311.2080499999999L154.55849999999998 307.7700999999999L162.9325 305.0453999999999L167.30600000000038 293.77275L174.6595000000002 300.08095L173.52250000000026 311.54229999999984L184.42450000000008 312.3326499999999L187.07300000000032 314.658L186.7485000000005 316.5121499999998L190.88700000000017 317.9075999999998L197.28250000000003 316.3682L199.86649999999997 319.93614999999977L200.79700000000003 321.76525L202.53750000000025 320.6865499999998L206.33000000000038 322.0577L209.80700000000013 335.87349999999986L217.303 333.78344999999996L220.17650000000003 332.75329999999997L226.0850000000005 331.7166999999998L229.2885000000001 333.97354999999976L232.7675000000005 332.2011499999999L232.64049999999997 325.69799999999987L238.84749999999997 323.88734999999997L242.14150000000018 320.86959999999976L236.89900000000023 316.70889999999986L246.8390000000005 307.9049999999998L248.5345000000001 301.66739999999976L251.92700000000002 298.8763499999999L253.27300000000037 300.37034999999975L259.486 298.68539999999996L263.2850000000002 300.14024999999975L273.3215000000001 296.49054999999976L281.0050000000001 307.77529999999985L287.40350000000035 313.1711999999999L293.6545000000001 309.62984999999975L293.73400000000004 311.6153L299.0590000000003 309.0433999999999L306.0160000000002 305.18225L309.82550000000003 310.8535999999998L316.2960000000004 313.1027999999998L317.3715000000004 314.8404499999998L322.1615000000003 322.58924999999977L328.02400000000034 326.02104999999995L326.42150000000015 334.02445L332.3385000000002 328.7851999999998L340.9100000000001 325.4611L342.89350000000013 319.48079999999976L343.9840000000004 325.72209999999984L350.3415000000001 331.44319999999993L349.76950000000045 339.90474999999975L339.3655000000001 343.7395999999998L326.524 337.16519999999974L325.9925000000004 335.7571999999999L325.0445000000002 338.38719999999995L312.15100000000007 359.0340499999999L309.1375000000005 364.0277999999998L301.44000000000005 364.86954999999995L298.78750000000025 364.95994999999994L292.00900000000047 377.20454999999987L290.0015000000002 377.64735L289.58050000000014 384.0867L291.2175000000002 385.4765999999998L290.93650000000025 394.1624999999999L285.0450000000001 401.9512999999998L269.0990000000005 377.84435L264.3455 377.5582499999999L260.3520000000003 378.20134999999993L259.63300000000004 382.5803499999998L255.06650000000036 387.41964999999993L254.06900000000007 393.7809999999999L245.61800000000005 396.0504L243.78300000000024 394.8344499999999L240.89200000000005 397.8413999999998L235.0155000000001 399.2059999999998L224.29550000000006 397.38324999999975L231.54600000000016 389.86759999999975L225.96050000000048 381.2482L220.39300000000026 384.075L211.97600000000023 385.13074999999986L207.39000000000033 382.97499999999985L208.56600000000014 386.7851999999999L203.85700000000043 390.6391499999998L202.01200000000028 389.76489999999984L199.38050000000032 385.59619999999995L201.78750000000036 382.2741499999998L197.3780000000005 378.17664999999977L193.22750000000042 377.1219499999998L191.74050000000022 378.69354999999985L187.71050000000002 373.7391499999998z">
      <title id="t298">Troisième circonscription de l'Oise</title>
      <desc id="d298">Cantons de : Creil Sud, Méru, Montataire, Neuilly-en-Thelle</desc>
    </path><path class="circo" id="id-060-04" d="M538.1635 441.8173999999999L534.3290000000002 440.4363999999998L532.9425000000003 446.4297499999998L530.9535 446.9799999999998L529.2425000000003 445.68614999999994L525.1190000000003 446.78079999999994L515.4915 442.19374999999985L512.706 447.5820999999999L510.64549999999997 446.62829999999985L502.9275000000001 451.31849999999986L496.1880000000002 452.1469499999998L491.45200000000045 442.51239999999996L487.3185000000001 443.73429999999985L483.2605000000001 442.33719999999977L476.28250000000037 434.3003999999999L468.8345000000004 439.09884999999974L465.54400000000044 440.07619999999974L467.3400000000004 443.8173499999999L458.89200000000017 443.56689999999986L466.0910000000001 448.63969999999995L455.7030000000003 456.70724999999976L444.7290000000004 458.3579999999998L440.2000000000004 445.38314999999983L431.1575000000005 455.5838L425.6080000000003 453.7505999999999L426.08900000000006 451.7654999999999L426.52750000000026 447.90779999999984L420.634 441.96274999999986L409.0085000000005 432.54064999999997L404.63400000000036 432.88729999999987L401.4885000000004 427.26339999999993L395.5775 436.29114999999985L391.7410000000001 435.9834999999998L390.1090000000005 440.1345999999998L383.31950000000006 445.90485L380.12800000000027 445.2565999999999L377.41150000000005 437.60414999999995L370.12500000000045 434.2471999999998L368.02400000000034 420.75154999999995L366.7990000000003 419.29884999999985L362.7480000000003 420.46644999999984L362.97450000000026 418.37474999999984L359.24800000000005 420.29439999999994L358.048 432.96324999999996L340.5665000000005 428.57159999999993L345.25149999999996 422.10804999999993L344.51750000000004 418.24164999999994L335.0725 414.5371L335.32700000000034 412.5261999999998L328.4015000000005 408.9282499999999L328.30100000000016 406.92025L326.3130000000001 406.6531999999998L317.38950000000045 410.65874999999977L318.8805000000002 405.75345L319.7290000000004 402.95514999999995L306.76150000000007 398.87264999999985L300.1025000000004 400.3717499999999L290.93650000000025 394.1624999999999L291.2175000000002 385.4765999999998L289.58050000000014 384.0867L290.0015000000002 377.64735L292.00900000000047 377.20454999999987L298.78750000000025 364.95994999999994L301.44000000000005 364.86954999999995L309.1375000000005 364.0277999999998L312.15100000000007 359.0340499999999L325.0445000000002 338.38719999999995L325.9925000000004 335.7571999999999L326.524 337.16519999999974L339.3655000000001 343.7395999999998L349.76950000000045 339.90474999999975L350.3415000000001 331.44319999999993L343.9840000000004 325.72209999999984L342.89350000000013 319.48079999999976L343.12400000000025 319.09909999999996L348.3485000000002 315.9447L349.427 309.9986999999999L351.04100000000017 306.40355L355.9280000000001 303.1279999999998L365.3110000000004 302.15884999999986L377.47600000000034 300.26279999999986L377.9150000000004 298.24539999999985L388.88149999999996 295.6509L388.6725000000001 282.00634999999977L388.7620000000004 281.1559L390.7355000000001 277.17659999999995L394.289 281.7382999999998L397.8845000000001 281.75005L400.0075000000004 285.7795999999999L404.3045000000001 284.66319999999996L410.2615000000003 287.45614999999987L418.0845000000005 289.5387499999998L424.93250000000046 293.47285L431.687 293.2120499999999L440.1660000000004 294.87515L445.2785 282.4902499999999L449.4045 274.6788999999998L453.8285000000002 274.14859999999976L451.32000000000005 277.70429999999976L453.07500000000005 283.8252L454.01700000000005 287.82584999999983L460.5035000000004 287.4019999999999L460.206 291.63429999999977L457.66250000000014 295.19915L453.981 295.23955L452.4670000000003 309.93874999999974L450.46050000000037 318.1036999999998L446.3145000000003 318.1642499999998L448.78600000000006 324.01174999999995L446.12300000000005 327.2701999999998L455.2510000000001 334.3186499999999L451.14300000000014 343.81249999999994L454.7195000000005 351.32589999999993L468.3790000000005 350.2631499999998L468.4495000000004 368.13744999999983L468.7170000000003 370.08999999999986L472.475 371.1969499999998L476.07150000000047 375.7836999999998L480.3135000000003 377.5972999999999L480.4925000000003 381.8938L482.15599999999995 380.4282999999998L488.4280000000001 380.59019999999975L494.52500000000043 374.55725L498.66150000000005 376.1686499999999L506.225 374.29129999999986L503.7755000000004 370.00935L508.09050000000013 370.27209999999997L513.8470000000001 367.38684999999975L515.6445000000002 358.94554999999997L520.0420000000003 358.8876499999998L525.1820000000004 354.78195L527.0190000000002 354.04274999999984L526.6890000000001 350.1993999999999L530.0705000000005 348.13694999999996L529.9760000000003 346.1537999999999L535.7505000000003 343.97849999999977L540.6245000000001 347.0943L542.1995000000004 346.95955L539.8155000000003 350.4121999999998L544.9700000000001 359.23764999999975L544.3870000000004 361.25579999999985L545.3725000000003 375.83315L549.436 377.81964999999985L553.8305000000003 372.94899999999984L564.1535000000005 380.7423499999999L566.9785000000002 386.6987499999999L573.4590000000003 387.7413999999999L572.2565000000003 378.37754999999987L569.9775 378.1662499999999L568.603 373.9680999999999L560.7385000000005 376.6323L559.153 375.04759999999976L556.8035000000003 361.4757L559.4920000000002 358.1237999999999L564.0245000000004 357.10684999999984L570.3460000000001 359.6885499999999L572.158 363.96469999999994L575.8035000000001 361.8374L579.5120000000003 363.41304999999977L583.3770000000004 365.02369999999985L581.9220000000001 368.9465999999999L584.228 372.41574999999983L588.2820000000004 370.52509999999984L592.1800000000002 372.51655L593.6915000000005 376.7044999999999L591.8580000000003 385.40639999999996L592.9410000000001 391.90589999999986L597.371 395.5571499999999L594.2360000000002 385.27439999999984L600.8940000000001 369.47475L606.0365000000002 373.72095L604.5080000000002 386.86514999999986L605.6360000000001 388.7892499999998L611.277 392.2985L617.8770000000003 393.19799999999987L616.6285000000005 397.3149999999998L611.2280000000004 401.1969499999998L611.3525000000004 403.43399999999974L602.8725000000003 402.74984999999987L607.0300000000003 407.59194999999977L603.9915000000002 410.61909999999983L597.2660000000002 405.3597499999998L596.8890000000005 413.88044999999977L594.3635 417.63244999999984L590.0895000000003 418.37474999999984L587.9035000000005 421.30415L581.2890000000004 431.45594999999986L581.4660000000003 435.4479999999998L585.4350000000005 442.29629999999986L571.979 440.0937499999998L570.3380000000004 441.2599499999999L562.8040000000004 438.67309999999975L559.033 440.0086999999999L554.0645000000001 442.94974999999994L552.3090000000002 450.6275499999998L546.5615000000003 449.03024999999985L545.2085 439.8587999999998L543.4685000000002 438.7684999999999L538.1635 441.8173999999999z">
      <title id="t299">Quatrième circonscription de l'Oise</title>
      <desc id="d299">Cantons de : Betz, Chantilly, Nanteuil-le-Haudouin, Pont-Sainte-Maxence, Senlis</desc>
    </path><path class="circo" id="id-060-05" d="M595.5657500000001 157.9117499999998L589.9407500000001 161.3492499999998L589.0032500000001 165.7242499999998L582.4407500000001 171.5054999999998L581.3470000000001 173.5367499999998L577.4407500000001 175.4117499999998L573.8470000000001 173.2242499999998L572.2845000000001 174.6304999999998L569.4720000000001 177.4429999999998L572.4407500000001 179.6304999999998L572.2845000000001 183.2242499999998L568.3782500000001 181.8179999999998L560.5657500000001 184.7867499999998L553.6907500000001 176.6617499999998L546.9720000000001 179.0054999999998L544.0032500000001 191.9742499999998L532.5970000000001 199.0054999999998L528.0657500000001 208.8492499999998L529.4720000000001 212.9117499999998L522.7532500000001 221.1929999999998L527.7532500000001 227.7554999999998L527.1282500000001 229.3179999999998L524.9407500000001 229.6304999999998L516.8157500000001 240.2554999999998L509.0032500000001 244.7867499999998L503.3782500000001 238.6929999999998L481.6595000000001 231.9742499999998L478.5345000000001 227.2867499999998L469.0032500000001 217.1304999999998L461.0345000000001 212.7554999999998L461.3470000000001 211.5054999999998L454.9407500000001 210.5679999999998L447.1282500000001 202.9117499999998L443.0657500000001 202.1304999999998L440.5657500000001 194.3179999999998L437.2845000000001 191.0367499999998L432.1282500000001 188.3804999999998L427.9095000000001 187.4429999999998L423.6907500000001 182.2867499999998L417.4407500000001 179.6304999999998L413.3782500000001 180.8804999999998L411.6595000000001 185.5679999999998L413.8470000000001 189.0054999999998L410.4095000000001 201.0367499999998L408.2220000000001 200.4117499999998L403.2220000000001 207.5992499999998L403.8470000000001 209.7867499999998L397.2845000000001 215.4117499999998L388.6907500000001 213.3804999999998L387.7532500000001 219.7867499999998L392.2845000000001 224.4742499999998L392.7532500000001 230.8804999999998L395.2532500000001 231.3492499999998L393.8470000000001 235.4117499999998L396.1907500000001 239.1617499999998L401.3470000000001 247.2867499999998L401.1907500000001 243.2242499999998L408.0657500000001 240.4117499999998L402.5970000000001 267.1304999999998L407.2845000000001 265.8804999999998L401.9720000000001 269.3179999999998L401.1907500000001 279.9429999999998L397.9095000000001 281.8179999999998L399.9407500000001 285.7242499999998L404.3157500000001 284.6304999999998L410.2532500000001 287.4429999999998L418.0657500000001 289.4742499999998L424.9407500000001 293.5367499999998L431.6595000000001 293.2242499999998L440.0970000000001 294.9429999999998L445.2532500000001 282.4429999999998L449.4720000000001 274.6304999999998L453.8470000000001 274.1617499999998L451.3470000000001 277.7554999999998L453.0657500000001 283.8492499999998L454.0032500000001 287.7554999999998L460.5657500000001 287.4429999999998L460.2532500000001 291.6617499999998L457.5970000000001 295.2554999999998L454.0032500000001 295.2554999999998L452.4407500000001 309.9429999999998L450.4095000000001 318.0679999999998L446.3470000000001 318.2242499999998L448.8470000000001 324.0054999999998L446.1907500000001 327.2867499999998L455.2532500000001 334.3179999999998L451.1907500000001 343.8492499999998L454.7845000000001 351.3492499999998L468.3782500000001 350.2554999999998L468.3782500000001 368.0679999999998L468.6907500000001 370.0992499999998L472.4407500000001 371.1929999999998L476.0345000000001 375.7242499999998L480.2532500000001 377.5992499999998L480.5657500000001 381.8179999999998L482.1282500000001 380.4117499999998L488.3782500000001 380.5679999999998L494.4720000000001 374.6304999999998L498.6907500000001 376.1929999999998L506.1907500000001 374.3179999999998L503.8470000000001 369.9429999999998L508.0657500000001 370.2554999999998L513.8470000000001 367.4429999999998L515.7220000000001 359.0054999999998L520.0970000000001 358.8492499999998L525.2532500000001 354.7867499999998L526.9720000000001 354.0054999999998L526.6595000000001 350.2554999999998L530.0970000000001 348.0679999999998L529.9407500000001 346.1929999999998L535.7220000000001 344.0054999999998L540.5657500000001 347.1304999999998L542.1282500000001 346.9742499999998L558.0657500000001 344.4742499999998L562.9095000000001 348.6929999999998L560.8782500000001 352.4429999999998L564.6282500000001 354.9429999999998L568.8470000000001 354.6304999999998L574.0032500000001 347.9117499999998L571.5032500000001 339.4742499999998L571.5032500000001 339.1617499999998L568.6907500000001 328.2242499999998L570.4095000000001 324.1617499999998L569.0032500000001 321.1929999999998L569.0032500000001 319.0054999999998L572.2845000000001 316.0367499999998L572.7532500000001 313.8492499999998L572.1282500000001 311.8179999999998L570.0970000000001 310.7242499999998L568.0657500000001 311.1929999999998L565.5657500000001 314.7867499999998L563.3782500000001 314.4742499999998L564.9407500000001 310.2554999999998L563.2220000000001 309.0054999999998L554.6282500000001 310.0992499999998L552.7532500000001 304.7867499999998L544.6282500000001 300.8804999999998L546.0345000000001 299.6304999999998L548.2220000000001 296.5054999999998L542.1282500000001 288.6929999999998L553.5345000000001 281.6617499999998L558.0657500000001 276.5054999999998L562.7532500000001 278.3804999999998L570.7220000000001 281.9742499999998L572.7532500000001 285.8804999999998L577.7532500000001 278.6929999999998L586.5032500000001 271.8179999999998L588.2220000000001 271.3492499999998L590.0970000000001 266.5054999999998L590.2532500000001 255.7242499999998L591.8157500000001 254.1617499999998L597.4407500000001 251.3492499999998L595.8782500000001 238.5367499999998L598.0657500000001 238.6929999999998L597.9095000000001 223.5367499999998L597.5970000000001 221.1929999999998L597.4407500000001 214.9429999999998L599.9407500000001 211.6617499999998L604.3157500000001 212.2867499999998L609.0032500000001 216.6617499999998L611.1907500000001 216.5054999999998L627.5970000000001 210.7242499999998L626.1907500000001 209.4742499999998L627.9095000000001 206.6617499999998L623.3782500000001 201.9742499999998L612.4407500000001 196.8179999999998L602.9095000000001 192.7554999999998L602.4407500000001 188.6929999999998L609.7845000000001 184.6304999999998L608.8470000000001 176.1929999999998L602.9095000000001 169.6304999999998L598.8470000000001 164.6304999999998L598.2220000000001 160.2554999999998L595.5657500000001 157.9117499999998zM556.3470000000001 352.4429999999998L555.4095000000001 352.9117499999998L554.6282500000001 353.0679999999998L554.3157500000001 353.0679999999998L554.1595000000001 352.5992499999998L553.3782500000001 353.0679999999998L552.4407500000001 353.3804999999998L552.7532500000001 354.3179999999998L552.9095000000001 355.0992499999998L552.7532500000001 355.0992499999998L550.8782500000001 355.8804999999998L549.6282500000001 356.8179999999998L549.6282500000001 356.9742499999998L551.0345000000001 357.1304999999998L551.0345000000001 357.9117499999998L551.5032500000001 357.9117499999998L551.1907500000001 359.1617499999998L551.8157500000001 359.7867499999998L552.1282500000001 359.6304999999998L552.4407500000001 359.6304999999998L551.9720000000001 360.5679999999998L552.4407500000001 360.4117499999998L553.2220000000001 360.7242499999998L553.8470000000001 360.5679999999998L554.1595000000001 359.7867499999998L555.0970000000001 359.6304999999998L555.2532500000001 360.4117499999998L555.4095000000001 360.4117499999998L555.4095000000001 359.7867499999998L556.0345000000001 358.5367499999998L556.5032500000001 358.6929999999998L556.8157500000001 357.9117499999998L557.2845000000001 357.7554999999998L557.1282500000001 357.2867499999998L556.6595000000001 357.1304999999998L556.3470000000001 356.8179999999998L556.3470000000001 356.3492499999998L556.5032500000001 355.4117499999998L556.6595000000001 355.2554999999998L558.5345000000001 355.4117499999998L558.3782500000001 354.9429999999998L557.5970000000001 352.9117499999998L556.5032500000001 352.4429999999998L556.3470000000001 352.4429999999998z">
      <title id="t300">Cinquième circonscription de l'Oise</title>
      <desc id="d300">Cantons de : Attichy, Compiègne Sud-Est, Compiègne Sud-Ouest, Crépy-en-Valois, Estrées-Saint-Denis</desc>
    </path><path class="circo" id="id-060-06" d="M509.07700000000034 244.73815000000002L503.37000000000046 238.66044999999986L481.72450000000026 231.92894999999993L478.46400000000017 227.24969999999985L469.08050000000003 217.11354999999998L461.06150000000014 212.68254999999982L461.41549999999995 211.57139999999998L455.0155000000001 210.63279999999992L447.1930000000003 202.84909999999996L443.09450000000027 202.09329999999994L440.5250000000001 194.34409999999986L437.22500000000025 191.0996L432.1685000000002 188.4552499999998L427.8910000000002 187.37799999999993L423.74400000000037 182.3435999999998L417.5120000000004 179.64679999999987L413.40100000000007 180.86959999999976L412.9660000000001 180.5719499999998L404.0530000000001 175.35979999999995L402.9215000000005 169.07804999999996L406.80000000000007 161.57749999999993L404.04300000000035 158.98899999999998L404.05100000000004 156.87689999999975L406.3380000000001 146.06155L411.3680000000005 142.03009999999978L411.37 134.40589999999986L410.7385000000005 132.2476499999999L406.59700000000043 130.5288999999999L409.8075 126.17435L408.4400000000005 124.99664999999993L417.405 118.6669999999998L416.75550000000044 106.54429999999991L418.84100000000046 106.47089999999992L418.76450000000034 104.92124999999987L424.58349999999996 94.8420999999999L425.145 89.65800000000002L429.1240000000005 89.26494999999989L430.71150000000046 90.80944999999986L435.07100000000037 90.10939999999977L438.51950000000045 92.67329999999987L440.5630000000002 90.26684999999986L448.6985000000004 89.95649999999983L454.3100000000004 92.73299999999978L455.21600000000035 94.85849999999999L462.1455000000003 96.73000000000002L466.481 98.02684999999997L470.21299999999997 95.4469499999999L471.7605000000003 93.77479999999991L470.7910000000004 87.04394999999977L468.22900000000004 78.83629999999982L469.70050000000015 70.30879999999996L473.3475000000004 67.93414999999982L472.53150000000005 66.21919999999989L489.1945000000004 66.61180000000002L490.77350000000024 68.07789999999983L493.6695000000003 65.56455L491.7465000000004 60.08079999999978L492.51599999999996 59.14694999999995L497.0335 55.22599999999983L497.99000000000035 53.47094999999996L496.47500000000036 52.17559999999992L498.1205 50.77314999999999L504.44950000000006 51.50624999999991L505.5325000000005 55.577399999999955L510.08849999999995 60.09719999999987L511.2685000000005 58.47244999999987L509.9305000000004 52.655149999999935L509.22450000000026 48.45354999999984L500.4845 39.204249999999945L506.23800000000017 35.72845000000001L507.0745000000005 31.865099999999984L507.9635000000002 31.75139999999999L511.57550000000015 41.70854999999989L517.7675000000005 40.0118999999998L520.5520000000001 34.593399999999974L529.633 56.19810000000001L531.2035000000003 54.78004999999996L534.6125000000001 57.20949999999988L537.4995000000001 62.81919999999985L538.6835000000002 55.093999999999994L535.6450000000001 52.09154999999981L536.2175000000002 45.579899999999895L544.4940000000003 43.09039999999982L547.7655000000004 37.76969999999977L549.8735000000005 38.26519999999988L554.1070000000002 35.81389999999999L559.2185000000001 39.65179999999975L560.89 45.62654999999978L563.0505000000005 45.75729999999993L564.5740000000001 49.72404999999981L569.3815000000001 53.9399499999999L571.5835000000004 51.95754999999991L574.5660000000004 44.137699999999995L580.8645000000001 44.77899999999977L581.8235000000004 38.11340000000001L579.6370000000002 31.793449999999837L592.7635000000004 32.63149999999996L591.0125000000005 46.32229999999993L593.0850000000004 46.088399999999865L596.6935000000001 41.092199999999934L598.6945000000003 36.98499999999996L607.7805000000001 37.008699999999806L610.8680000000004 43.14294999999987L606.773 53.2541999999998L611.3635000000005 60.85634999999996L609.8955000000001 66.34194999999977L607.3465000000004 63.387850000000014L603.3800000000002 64.04839999999979L603.0805000000004 68.02474999999987L599.5905000000005 69.37719999999985L598.3440000000002 73.26294999999988L602.3775 74.39524999999975L604.4310000000002 78.12549999999987L605.2785 85.93435L598.399 91.09024999999974L597.122 91.69579999999996L600.7030000000003 96.12785000000002L609.4295 105.15209999999996L610.129 108.93644999999992L616.0255000000001 120.52269999999993L616.422 122.32L611.3205000000005 124.24364999999995L611.0315000000003 128.73079999999987L613.3390000000003 132.56214999999997L613.2325000000003 143.5949499999998L610.8710000000002 144.6271999999999L611.7110000000002 151.45004999999998L609.4010000000003 157.8019999999998L598.2910000000004 160.28129999999976L595.5010000000004 157.86549999999977L590.0005000000004 161.31369999999976L588.981 165.64839999999975L582.389 171.5715499999999L581.3205000000005 173.47064999999986L577.4955 175.39709999999985L573.8845000000003 173.1780999999998L572.3295000000002 174.65374999999995L569.5135000000005 177.36924999999985L572.4735000000004 179.5695999999998L572.337 183.15675L568.3215000000001 181.79665L560.5115000000001 184.8406L553.6225000000002 176.72014999999988L547.0315000000005 179.0448999999998L543.9705000000004 191.9916999999998L532.5280000000004 198.95094999999998L527.9895000000005 208.82089999999977L529.4220000000001 212.89104999999978L522.6825000000002 221.2433999999999L527.8185000000002 227.77494999999988L527.1875 229.27219999999977L524.9215000000004 229.57989999999995L509.07700000000034 244.73815000000002z">
      <title id="t301">Sixième circonscription de l'Oise</title>
      <desc id="d301">Cantons de: Compiègne Nord, Guiscard, Lassigny, Noyon, Ressons-sur-Matz, Ribécourt-Dreslincourt</desc>
    </path><path class="circo" id="id-060-07" d="M289.18949999999995 202.92554999999993L282.86400000000015 196.77084999999977L284.76500000000044 192.66989999999993L283.9270000000005 190.57244999999995L277.46550000000013 190.30234999999976L268.6190000000005 184.09879999999987L261.22749999999996 186.30914999999987L260.48249999999996 194.1818999999998L257.6260000000002 195.9292499999998L243.40700000000027 199.05099999999976L250.30950000000018 212.4491999999998L251.1065000000002 217.62264999999985L248.7480000000005 238.2433499999999L251.18400000000008 244.76034999999996L250.01750000000015 245.22849999999977L250.7570000000004 257.6734499999998L248.16650000000038 260.9594999999999L246.96300000000008 273.1707L242.7380000000005 272.85235L241.2790000000001 274.40235L238.904 282.32849999999985L247.59400000000028 292.20019999999977L245.96100000000035 293.7805499999999L251.92700000000002 298.8763499999999L253.27300000000037 300.37034999999975L259.486 298.68539999999996L263.2850000000002 300.14024999999975L273.3215000000001 296.49054999999976L281.0050000000001 307.77529999999985L287.40350000000035 313.1711999999999L293.6545000000001 309.62984999999975L293.73400000000004 311.6153L299.0590000000003 309.0433999999999L306.0160000000002 305.18225L309.82550000000003 310.8535999999998L316.2960000000004 313.1027999999998L317.3715000000004 314.8404499999998L322.1615000000003 322.58924999999977L328.02400000000034 326.02104999999995L326.42150000000015 334.02445L332.3385000000002 328.7851999999998L340.9100000000001 325.4611L342.89350000000013 319.48079999999976L343.12400000000025 319.09909999999996L348.3485000000002 315.9447L349.427 309.9986999999999L351.04100000000017 306.40355L355.9280000000001 303.1279999999998L365.3110000000004 302.15884999999986L377.47600000000034 300.26279999999986L377.9150000000004 298.24539999999985L388.88149999999996 295.6509L388.6725000000001 282.00634999999977L388.7620000000004 281.1559L390.7355000000001 277.17659999999995L394.289 281.7382999999998L397.8845000000001 281.75005L401.26599999999996 279.8990999999998L402.04200000000014 269.30004999999994L407.33600000000024 265.8562999999998L402.6170000000002 267.1566999999999L408.0250000000001 240.44674999999984L401.17200000000025 243.23700000000002L401.29050000000007 247.23289999999992L396.1665000000005 239.1928999999999L393.8835 235.47619999999995L395.2385000000004 231.29004999999978L392.77750000000026 230.8144999999999L392.36050000000034 224.5279499999998L387.7690000000001 219.79344999999995L388.73800000000017 213.3158499999999L389.2335000000003 211.72694999999976L385.9910000000002 211.0445999999999L377.5055000000003 209.44969999999984L373.41499999999996 216.74434999999988L371.413 215.8157L366.6035000000005 217.77554999999978L365.68550000000016 215.98884999999996L359.9355000000003 216.3280499999999L356.5315000000004 214.22169999999994L354.2365000000001 216.35615L349.5225000000005 218.42905000000002L347.6105000000001 218.92304999999993L345.26550000000043 212.97534999999982L341.678 210.80734999999976L337.4215000000004 214.73539999999986L327.9540000000003 211.09229999999997L326.9655 212.97924999999992L323.9345000000003 210.10334999999998L326.8430000000001 200.17694999999975L325.6120000000004 198.45724999999987L317.26050000000043 200.8549499999998L310.9895 198.3382499999999L304.7905000000003 200.9059499999998L302.8785000000005 199.90949999999998L301.3900000000001 201.47214999999989L299.3275 207.57565L293.8545000000005 208.2410999999999L292.2425000000004 208.85944999999992L289.18949999999995 202.92554999999993z">
      <title id="t302">Septième circonscription de l'Oise</title>
      <desc id="d302">Cantons de Clermont, Creil-Nogent-sur-Oise, Liancourt Mouy</desc>
    </path></svg>