<svg xmlns="http://www.w3.org/2000/svg" version="1.1" xmlns:xlink="http://www.w3.org/1999/xlink" xmlns:svgjs="http://svgjs.dev/svgjs" width="780.6524999999999" height="509.0784499999998" fill="#eeeeee" stroke="#cccccc" xmlns:sodipodi="http://sodipodi.sourceforge.net/DTD/sodipodi-0.dtd"><path class="circo" id="id-061-01" d="M409.58799999999997 360.08035000000007L407.9250000000002 361.5882500000001L401.22799999999984 361.5473L401.27200000000016 362.1222499999999L394.29399999999987 364.72745000000003L388.82000000000005 374.06059999999997L392.23749999999995 379.4697500000001L391.2484999999998 381.44840000000016L382.5295 381.14765000000006L375.47500000000014 381.275L367.894 375.23629999999997L367.0965000000001 371.17005000000006L357.0920000000001 372.49179999999996L356.27099999999984 376.42420000000016L343.818 382.58545L344.5530000000002 384.5216500000001L342.48800000000017 380.1257000000001L341.2914999999998 376.2251499999999L342.8589999999997 372.7645000000001L341.1919999999998 349.98355000000004L342.1954999999997 349.02150000000006L344.1165000000001 336.20570000000015L339.08050000000003 332.4094500000001L335.1044999999999 332.68505000000005L333.571 336.44345000000015L331.5190000000001 336.7715000000001L319.65449999999976 337.8499500000001L307.0799999999997 334.778L302.3604999999998 330.95020000000005L302.7064999999999 322.7304000000001L300.41800000000023 319.31275L301.84050000000013 318.0260000000001L299.59749999999985 310.8539999999999L298.79549999999995 306.9079500000001L294.4844999999998 302.6227L292.52549999999985 303.15830000000005L294.82849999999985 295.0950499999999L303.87249999999995 290.95394999999996L304.2059999999998 286.72304999999994L289.48050000000023 277.8039000000001L284.17899999999975 271.3659000000001L282.42050000000006 268.64475L277.5400000000002 264.40325L271.8009999999998 265.8867000000001L265.6054999999998 263.9498499999999L262.5400000000002 260.8844500000001L259.7120000000001 268.54005L256.23550000000023 271.1868000000001L254.91550000000018 272.9992999999999L262.36199999999997 280.7483500000001L259.05550000000005 286.5125499999999L251.59550000000024 291.2709000000001L250.2524999999997 299.74890000000016L244.41550000000007 298.981L244.16150000000016 294.7980000000001L242.37099999999998 293.70599999999996L234.35450000000003 292.77109999999993L229.55899999999986 289.8187999999999L223.29700000000003 298.70255000000014L222.5094999999999 302.9755L215.29999999999973 306.7764500000001L215.57050000000004 314.9349000000001L210.18899999999974 312.5148999999999L209.2255 308.94740000000013L205.9654999999998 307.03104999999994L198.48749999999995 303.8414L199.05950000000018 300.13184999999993L196.65549999999996 297.7864500000001L193.32899999999995 300.39680000000004L184.84350000000006 299.80594999999994L185.25800000000004 299.27414999999996L175.73350000000005 294.94685000000004L174.0994999999998 296.3069999999999L167.55899999999997 296.4963L162.4245000000002 303.5220000000001L156.27599999999973 303.17049999999995L149.20849999999973 298.8578000000001L145.23950000000013 306.09915L138.32249999999988 309.9498L130.56600000000003 321.8643L128.51099999999974 322.3726500000001L125.84900000000005 319.36980000000005L122.7109999999999 324.4541000000001L113.54449999999986 323.22655L113.07500000000005 322.15085000000016L104.86449999999991 329.78309999999993L87.61500000000012 340.07904999999994L87.74650000000008 334.0769499999999L85.93500000000006 320.65969999999993L81.39949999999999 313.2138499999999L81.29799999999989 315.2458999999999L79.28350000000023 315.0048000000001L75.09650000000022 319.31790000000007L75.12200000000007 323.32335L73.26000000000022 324.12655L69.15399999999977 324.94834999999995L66.76699999999983 321.91429999999997L60.949999999999704 323.56245L57.42399999999975 321.54120000000006L54.20749999999998 324.3785L53.17099999999982 328.63585L61.390499999999975 336.00965L44.150000000000205 344.9531999999999L40.531500000000165 344.71104999999994L36.71949999999981 341.25215L34.46050000000014 337.5635L35.058500000000095 326.7066L28.44949999999983 326.79955000000007L20.23899999999969 333.4309999999999L17.749000000000024 324.7714500000001L18.84399999999971 323.00344999999993L16.309499999999844 319.8698999999999L10.087500000000205 313.84929999999997L6.177999999999884 305.91955000000013L0 303.59385000000003L1.8455000000000155 298.92134999999996L5.460499999999797 291.15155000000016L14.010499999999979 284.22075000000007L21.86649999999986 273.80889999999994L23.260500000000093 272.60250000000013L29.664000000000215 271.1135999999999L35.97750000000019 264.84184999999997L36.484499999999684 256.12420000000014L39.60149999999999 245.8780999999999L43.39249999999993 243.70035000000001L46.19799999999998 238.12070000000006L45.62849999999969 227.69920000000013L47.01999999999998 226.11565000000013L51.16550000000018 226.37024999999994L49.64200000000005 222.60359999999991L41.60199999999975 219.98764999999992L37.207500000000095 206.0471000000001L37.00499999999977 203.86089999999996L41.918999999999755 199.67399999999998L44.059500000000185 193.5333L50.704000000000065 188.3711500000001L52.742000000000075 189.19060000000002L54.91300000000024 195.39905000000005L59.59450000000004 199.84775000000013L68.35199999999986 180.91100000000012L84.53750000000014 187.04059999999998L86.45199999999988 187.19504999999998L86.1039999999997 179.28650000000005L87.81799999999976 175.84405000000004L86.59850000000006 171.97495000000004L90.53249999999991 172.77805L96.98050000000023 173.43105000000008L104.83200000000011 177.11070000000007L116.3760000000002 182.71630000000016L110.6714999999997 188.81914999999992L107.4939999999998 196.4410000000001L118.47849999999994 207.9661999999999L120.17650000000003 211.66570000000007L116.62199999999984 215.16349999999989L132.33450000000005 226.90005000000014L136.40800000000013 225.18785000000008L137.83349999999984 221.04805L141.96849999999984 219.52460000000002L142.47050000000002 215.1185000000001L146.46500000000003 214.6907999999999L150.69799999999987 219.00755000000004L161.336 230.38010000000014L167.91449999999998 224.55579999999998L172.18849999999975 225.5427499999999L182.4754999999999 214.24245000000013L186.50350000000003 213.53364999999997L197.04949999999997 215.60795000000013L200.18050000000017 212.68140000000017L210.49699999999973 210.33929999999998L215.7220000000001 201.0394500000001L225.98599999999976 198.2924L230.96749999999986 191.32049999999992L236.4794999999998 197.00410000000005L231.47749999999974 206.39065000000016L217.0825000000002 215.7159999999999L211.17099999999994 221.9837000000001L211.90449999999998 223.34755L217.92250000000024 226.0262499999999L221.96500000000015 224.29149999999993L228.51699999999994 224.87664999999993L231.42049999999983 219.22560000000004L237.94249999999977 219.33875L243.95199999999988 213.5002L249.5474999999999 224.83419999999995L250.3710000000001 231.34635000000003L247.83399999999972 234.87799999999993L247.84199999999998 239.25254999999993L252.88650000000018 235.39739999999995L257.0569999999998 228.07659999999998L261.19100000000003 229.1040000000001L263.06399999999996 233.26330000000013L268.48299999999995 231.02685000000008L271.79449999999974 235.68280000000016L273.2695000000001 231.80855000000008L279.50699999999983 231.80274999999995L284.3779999999998 228.2540499999999L287.7044999999998 222.4177499999999L293.55999999999995 219.04420000000016L299.33850000000007 216.58874999999995L301.92799999999977 219.85964999999993L306.5674999999999 216.0504499999999L309.32450000000017 210.73495000000008L313.0099999999999 212.25044999999994L313.47699999999975 214.2759000000001L310.2674999999999 221.87180000000012L321.03700000000003 233.77884999999992L327.04949999999997 233.79040000000003L330.22749999999974 238.95430000000005L333.9915000000002 232.6391000000001L337.34399999999994 230.56399999999996L346.99900000000014 233.15785000000005L350.1785000000001 230.7665L354.4164999999998 235.6660500000001L353.7594999999999 241.8708000000001L356.3389999999998 245.37560000000013L360.283 243.6797999999999L365.01649999999984 234.05715000000015L375.49199999999985 231.24605000000003L377.53300000000024 235.05735000000016L381.4744999999999 236.93360000000013L382.8989999999999 231.68385L391.1975000000001 232.20650000000006L398.06600000000003 237.2677999999999L401.422 234.5804000000001L408.07849999999974 220.38119999999992L409.6769999999998 218.79985000000005L413.91099999999994 220.3117499999999L417.19749999999976 212.29479999999995L408.37800000000016 203.1801999999999L406.4794999999998 199.27764999999994L408.6514999999997 195.52520000000015L413.6540000000002 199.9687499999999L418.09349999999995 199.29114999999996L428.36749999999995 203.7991500000001L434.83949999999993 203.7856500000001L433.02750000000003 197.2081L445.7339999999999 198.2222999999999L455.0704999999999 193.4303L461.43849999999986 193.36145000000016L463.0309999999997 188.36405000000013L465.4219999999998 185.02949999999998L475.6630000000001 184.15584999999993L477.8030000000001 190.23979999999995L482.68050000000017 194.5134999999999L482.9050000000001 196.67200000000008L487.7499999999998 199.6959000000001L492.15300000000013 193.18510000000003L497.24800000000016 196.10309999999998L499.87750000000005 193.10014999999993L505.8940000000001 192.36835000000013L511.1804999999998 189.3334999999999L516.8585000000002 187.76929999999993L519.1975000000002 196.4139499999999L523.5935000000001 193.5101499999999L529.7829999999999 199.76155000000006L531.5044999999998 198.38445000000007L535.6004999999999 208.64229999999992L543.1045 212.34949999999998L540.6135 215.95654999999994L542.8435000000002 219.73810000000014L549.8579999999998 217.7027000000001L557.8919999999999 225.4283000000001L546.0685000000001 237.98575L544.6755000000002 239.2981499999999L544.6875 246.9210000000001L545.0535000000002 247.72414999999995L543.6540000000002 261.73865000000006L545.4815000000002 262.9852500000001L547.2885000000002 271.23684999999995L549.7165000000001 273.97774999999996L548.9074999999997 274.98054999999994L539.203 289.83930000000015L539.357 292.08650000000006L535.1805000000002 292.7210500000001L532.8249999999997 296.21205000000003L528.6604999999997 295.65135L526.2790000000001 297.9654500000001L523.0374999999998 296.9300000000001L520.8940000000001 299.81944999999996L518.0090000000001 298.75580000000014L513.7905000000001 300.34099999999995L511.8470000000002 300.77590000000015L509.2930000000001 311.79670000000016L499.4315 321.7181500000001L492.27899999999977 317.47270000000015L486.17849999999976 316.4250000000001L482.12649999999996 317.0725999999999L479.06000000000006 314.4200000000001L477.32550000000003 315.51964999999996L476.8684999999999 317.7804499999999L471.66600000000017 320.90525000000014L461.4884999999998 321.93160000000006L458.3035000000001 321.32900000000006L448.51999999999975 327.7750499999999L447.2460000000001 328.67430000000013L438.9055000000002 327.72125000000017L438.039 331.9698500000001L439.46649999999977 336.0199L435.4635000000002 336.34860000000003L430.4879999999997 332.33450000000005L426.83400000000006 333.41305000000006L431.49099999999976 339.5953L432.9514999999998 341.01895000000013L430.8265 344.3081000000001L419.1210000000001 346.72315L417.4459999999999 345.5675500000001L413.0925000000002 347.9127L409.58799999999997 360.08035000000007z">
      <title id="t303">Première circonscription de l'Orne</title>
      <desc id="d303">Cantons de : Alençon I, Alençon II, Alençon III, Carrouges, Courtomer, Domfront, La Ferté-Macé, Juvigny-sous-Andaine, Le Mêle-sur-Sarthe, Passais, Sées.</desc>
    </path><path class="circo" id="id-061-02" d="M547.2885000000002 271.23684999999995L545.4815000000002 262.9852500000001L543.6540000000002 261.73865000000006L545.0535000000002 247.72414999999995L544.6875 246.9210000000001L544.6755000000002 239.2981499999999L546.0685000000001 237.98575L557.8919999999999 225.4283000000001L549.8579999999998 217.7027000000001L542.8435000000002 219.73810000000014L540.6135 215.95654999999994L543.1045 212.34949999999998L535.6004999999999 208.64229999999992L531.5044999999998 198.38445000000007L529.7829999999999 199.76155000000006L523.5935000000001 193.5101499999999L519.1975000000002 196.4139499999999L516.8585000000002 187.76929999999993L511.1804999999998 189.3334999999999L505.8940000000001 192.36835000000013L499.87750000000005 193.10014999999993L497.24800000000016 196.10309999999998L492.15300000000013 193.18510000000003L487.7499999999998 199.6959000000001L482.9050000000001 196.67200000000008L482.68050000000017 194.5134999999999L477.8030000000001 190.23979999999995L475.6630000000001 184.15584999999993L465.4219999999998 185.02949999999998L463.0309999999997 188.36405000000013L447.869 185.6391500000001L437.74749999999983 181.10545000000002L437.29899999999986 178.90209999999996L439.68050000000005 171.4790500000001L441.7360000000002 171.90924999999993L445.66750000000013 167.07345000000004L447.6279999999997 158.9441500000001L446.4949999999999 157.16970000000003L449.75149999999985 156.8739500000001L456.40199999999993 155.92420000000004L467.4984999999998 144.49000000000012L466.17099999999994 137.12805000000003L474.46950000000015 130.17584999999997L473.47699999999975 123.59430000000003L471.65549999999996 122.29974999999996L466.721 119.39574999999991L461.0579999999999 119.81570000000005L454.8225000000002 112.06485000000015L454.85749999999996 105.65840000000009L457.68700000000024 97.69890000000004L456.1925000000002 97.04305000000005L458.41700000000003 82.21190000000007L462.1274999999997 80.43644999999998L459.70950000000016 77.10364999999996L456.0334999999998 79.34944999999999L449.9489999999997 77.24639999999994L445.14250000000004 72.94815L445.31450000000007 70.77879999999993L443.7175000000002 69.71990000000005L441.8169999999998 73.8112000000001L433.4179999999998 81.40199999999993L429.36699999999973 80.42094999999989L427.33799999999974 79.76214999999996L426.17399999999975 73.53215000000006L436.2990000000002 65.88134999999994L435.899 63.78514999999993L427.8275000000002 64.39645000000013L419.7719999999998 66.42795000000007L415.0535000000002 62.47205000000008L411.5704999999997 51.735299999999995L404.2354999999998 55.58265000000006L405.21900000000016 44.77249999999998L402.7159999999998 36.66605000000004L399.1550000000001 34.83055000000007L392.7544999999998 36.09884999999991L393.6149999999998 30.03700000000009L399.9725000000001 22.37780000000015L408.78300000000024 23.589000000000055L418.92499999999984 14.651450000000068L419.8989999999998 13.16615000000013L423.5885000000002 14.342100000000073L427.72699999999986 20.74275L429.78499999999997 29.37135000000012L431.63099999999986 30.678000000000054L438.2515000000001 29.48520000000002L441.8059999999997 27.605299999999886L445.27600000000007 20.378450000000043L457.0369999999997 16.897749999999974L461.13099999999974 20.887050000000045L467.19949999999983 19.456399999999974L469.53750000000014 9.067149999999913L476.8675000000002 5.235649999999907L483.0619999999999 4.647850000000062L483.89549999999986 14.525250000000085L485.8204999999998 15.309000000000026L496.875 11.866550000000018L507.29150000000004 19.273249999999962L517.2334999999998 14.84499999999997L526.0834999999997 0L537.5254999999999 6.354249999999979L535.7344999999998 12.819250000000011L541.1155000000002 14.197149999999965L533.6349999999999 28.241250000000093L531.7700000000002 29.414700000000096L529.7674999999998 40.124600000000044L543.2965000000002 47.933400000000006L544.8860000000002 54.361000000000104L546.8090000000001 55.54259999999999L551.2705 56.13595000000004L556.9364999999999 52.75280000000009L553.9909999999998 59.04240000000016L560.0470000000001 60.02669999999995L560.7844999999998 54.83284999999995L567.2769999999997 55.30990000000003L576.7014999999998 60.66130000000015L587.0445000000001 59.35715000000016L599.3644999999998 63.29145000000011L601.0320000000002 61.902100000000075L611.3385 51.04620000000011L618.8195000000002 54.68420000000009L619.2365000000001 56.75964999999991L614.7145 60.77635000000015L616.2644999999998 64.65300000000013L624.4414999999998 62.65365000000003L622.9140000000001 69.0777L625.2010000000001 75.33829999999995L628.9339999999999 77.47960000000006L635.0245000000001 75.35510000000016L624.0159999999997 90.56325000000015L632.8980000000001 95.29555000000016L640.6535000000002 101.94545000000005L646.173 103.93525000000011L658.9949999999999 115.36564999999996L664.7724999999997 116.99595000000016L668.7810000000002 118.91064999999998L670.1310000000001 120.57234999999991L676.1450000000002 120.82780000000014L679.9340000000001 126.02910000000008L686.8729999999999 130.7974999999999L687.3045000000002 133.16400000000016L684.8739999999998 136.99264999999997L695.0630000000001 151.92700000000002L690.2179999999998 156.43644999999992L688.0090000000001 162.73105000000015L681.7000000000002 165.04440000000017L675.3974999999997 171.58334999999994L676.3544999999999 173.52640000000008L684.9205000000001 173.43105000000008L691.7764999999997 178.6824999999999L691.9565 180.35789999999992L689.81 183.91185000000007L690.4320000000001 191.62110000000013L692.2665000000001 194.84110000000015L697.3304999999999 197.5009L698.1105000000002 197.5426999999999L704.1784999999999 192.14304999999996L711.9720000000001 195.1975999999999L709.9009999999998 199.01894999999996L715.6889999999999 207.74554999999992L715.3715 217.6055500000001L719.1730000000001 218.83714999999995L713.725 228.43085000000002L715.1929999999999 234.6202500000001L725.1855 234.53024999999997L726.6320000000002 249.35869999999994L734.2700000000002 257.0645999999999L745.1760000000002 258.42445L752.5389999999999 263.3661000000001L759.1025000000002 266.24375000000015L763.9600000000002 273.33830000000006L758.458 280.1205999999999L761.7079999999999 282.6168000000001L776.9650000000001 289.2079000000001L771.4049999999997 301.53414999999995L765.8359999999999 305.36734999999993L771.7194999999998 309.23665L770.7240000000002 317.2547L763.3515 320.23404999999997L764.4285000000002 324.2560499999999L765.4539999999997 330.7412500000001L771.7959999999999 339.5953L779.853 341.7390499999999L780.6524999999999 343.77700000000004L767.4239999999998 357.00860000000006L768.7374999999997 367.55390000000006L760.7139999999998 374.6302L759.4499999999999 378.77610000000004L751.2975 387.7392499999999L748.1009999999998 385.8320499999999L746.6395 387.22425000000015L741.25 396.2983L735.0139999999999 395.9714500000001L728.5770000000002 401.1659499999999L722.6859999999999 398.73700000000014L722.8154999999998 402.64190000000013L717.5175000000002 405.51560000000023L713.4960000000001 400.97025L700.5849999999998 406.1480000000003L699.4819999999999 406.7145000000002L697.7445 411.66630000000026L692.7134999999998 418.5975499999998L692.4554999999998 422.8848000000002L687.33 432.2613500000003L688.8634999999999 433.7531500000003L696.5715 431.2116499999999L704.6055000000001 438.0243500000003L708.6770000000001 439.1179500000001L703.1414999999998 442.6986500000001L699.7154999999998 450.9515000000002L702.0684999999997 454.7652500000001L700.2850000000001 457.1823500000002L715.0675000000001 481.36155L718.1885 489.13584999999983L708.4875 493.69249999999994L708.5385000000002 498.0132499999999L704.6769999999998 499.9177499999999L688.3370000000002 509.0784499999998L686.687 507.78834999999987L679.5909999999998 503.2801500000002L676.8234999999999 497.55799999999994L673.2184999999998 497.5701000000001L671.7835000000002 494.6209999999999L670.0094999999999 488.28884999999985L665.3114999999997 483.60255000000024L662.2435000000002 475.3535000000002L657.8149999999999 470.3711999999999L656.3364999999999 461.935L652.1314999999998 461.34645000000006L642.9714999999999 455.9412499999999L638.8409999999999 457.12169999999986L634.2320000000001 461.44919999999985L637.0260000000002 473.6708999999999L634.2325 474.3007000000003L633.5079999999999 470.3705499999998L630.2159999999998 467.72975L626.2540000000001 469.12484999999975L618.0054999999999 467.9684499999999L611.8275 468.0546000000001L598.0585000000002 464.3847500000001L594.0384999999998 464.9751499999999L593.7085000000002 458.2453000000001L591.0509999999999 454.5935L583.5134999999997 453.25590000000005L575.7999999999998 443.1068000000002L577.2375 439.07704999999993L580.6455 436.61070000000024L574.5929999999998 427.9810999999998L567.9649999999998 432.52969999999976L562.5594999999998 429.1836500000002L553.8614999999999 429.59705000000014L548.4044999999998 427.0142999999999L547.4214999999998 423.065L542.2699999999998 418.8270000000003L539.3090000000001 422.12875000000025L533.698 418.9542000000003L528.8294999999999 411.54289999999975L527.4380000000002 405.03349999999983L530.3494999999998 402.3177000000001L527.4054999999998 388.26835000000017L526.5989999999999 379.33925000000016L524.5609999999999 376.94705L524.0575000000001 362.12035000000014L526.9614999999999 359.05519999999996L527.9019999999997 352.73510000000016L525.4739999999998 349.19505000000015L521.9869999999997 344.4394L520.0304999999997 335.5828500000001L515.6464999999997 330.3714500000001L514.4554999999997 331.0399000000001L510.59199999999976 329.54920000000016L503.5910000000001 322.54575000000017L499.4315 321.7181500000001L509.2930000000001 311.79670000000016L511.8470000000002 300.77590000000015L513.7905000000001 300.34099999999995L518.0090000000001 298.75580000000014L520.8940000000001 299.81944999999996L523.0374999999998 296.9300000000001L526.2790000000001 297.9654500000001L528.6604999999997 295.65135L532.8249999999997 296.21205000000003L535.1805000000002 292.7210500000001L539.357 292.08650000000006L539.203 289.83930000000015L548.9074999999997 274.98054999999994L549.7165000000001 273.97774999999996L547.2885000000002 271.23684999999995z">
      <title id="t304">Deuxième circonscription de l'Orne</title>
      <desc id="d304">Cantons de : L'Aigle Est, L'Aigle Ouest, Bazoches-sur-Hoëne, Bellême, La Ferté-Frênel, Gacé, Longny-au-Perche, Le Merlerault, Mortagne-au-Perche, Moulins-la-Marche, Nocé, Pervenchères, Rémalard, Le Theil, Tourouvre, Vimoutiers.</desc>
    </path><path class="circo" id="id-061-03" d="M148.91700000000014 81.85540000000003L146.49549999999977 79.1434000000001L142.95500000000004 79.05750000000012L132.05649999999991 81.6635500000001L127.29100000000017 89.38424999999995L123.48349999999982 91.83515L119.03599999999983 87.93920000000014L110.71399999999983 88.99360000000001L107.93349999999975 89.65544999999992L100.24400000000014 94.12450000000007L91.35249999999985 93.9656500000001L92.19650000000001 85.10244999999998L88.16599999999994 86.70780000000008L75.38499999999999 84.22805000000011L71.87549999999987 81.68875000000014L65.81849999999974 87.78745000000015L72.0580000000001 95.79520000000002L75.73300000000017 97.4419499999999L64.55600000000004 107.85124999999994L61.91750000000013 111.61834999999996L57.36449999999991 112.1126000000001L49.47999999999979 116.74499999999995L33.88849999999991 120.14530000000008L32.070999999999685 123.6710500000001L28.523500000000013 126.14129999999989L27.48299999999972 130.38995L22.156999999999698 137.26024999999993L14.8924999999997 142.17524999999995L8.25649999999996 142.34219999999993L3.650000000000091 146.63060000000002L4.388000000000147 155.13675000000006L7.629000000000019 157.65874999999994L12.13199999999972 156.88230000000004L13.339500000000157 155.04205000000013L17.60850000000005 155.75729999999993L22.561999999999784 160.22819999999996L26.96550000000002 170.14905L34.77300000000014 175.12605000000008L38.814499999999725 179.25170000000008L49.04449999999997 182.37510000000015L52.509000000000015 184.8595499999999L52.742000000000075 189.19060000000002L54.91300000000024 195.39905000000005L59.59450000000004 199.84775000000013L68.35199999999986 180.91100000000012L84.53750000000014 187.04059999999998L86.45199999999988 187.19504999999998L86.1039999999997 179.28650000000005L87.81799999999976 175.84405000000004L86.59850000000006 171.97495000000004L90.53249999999991 172.77805L96.98050000000023 173.43105000000008L104.83200000000011 177.11070000000007L116.3760000000002 182.71630000000016L110.6714999999997 188.81914999999992L107.4939999999998 196.4410000000001L118.47849999999994 207.9661999999999L120.17650000000003 211.66570000000007L116.62199999999984 215.16349999999989L132.33450000000005 226.90005000000014L136.40800000000013 225.18785000000008L137.83349999999984 221.04805L141.96849999999984 219.52460000000002L142.47050000000002 215.1185000000001L146.46500000000003 214.6907999999999L150.69799999999987 219.00755000000004L161.336 230.38010000000014L167.91449999999998 224.55579999999998L172.18849999999975 225.5427499999999L182.4754999999999 214.24245000000013L186.50350000000003 213.53364999999997L197.04949999999997 215.60795000000013L200.18050000000017 212.68140000000017L210.49699999999973 210.33929999999998L215.7220000000001 201.0394500000001L225.98599999999976 198.2924L230.96749999999986 191.32049999999992L236.4794999999998 197.00410000000005L231.47749999999974 206.39065000000016L217.0825000000002 215.7159999999999L211.17099999999994 221.9837000000001L211.90449999999998 223.34755L217.92250000000024 226.0262499999999L221.96500000000015 224.29149999999993L228.51699999999994 224.87664999999993L231.42049999999983 219.22560000000004L237.94249999999977 219.33875L243.95199999999988 213.5002L249.5474999999999 224.83419999999995L250.3710000000001 231.34635000000003L247.83399999999972 234.87799999999993L247.84199999999998 239.25254999999993L252.88650000000018 235.39739999999995L257.0569999999998 228.07659999999998L261.19100000000003 229.1040000000001L263.06399999999996 233.26330000000013L268.48299999999995 231.02685000000008L271.79449999999974 235.68280000000016L273.2695000000001 231.80855000000008L279.50699999999983 231.80274999999995L284.3779999999998 228.2540499999999L287.7044999999998 222.4177499999999L293.55999999999995 219.04420000000016L299.33850000000007 216.58874999999995L301.92799999999977 219.85964999999993L306.5674999999999 216.0504499999999L309.32450000000017 210.73495000000008L313.0099999999999 212.25044999999994L313.47699999999975 214.2759000000001L310.2674999999999 221.87180000000012L321.03700000000003 233.77884999999992L327.04949999999997 233.79040000000003L330.22749999999974 238.95430000000005L333.9915000000002 232.6391000000001L337.34399999999994 230.56399999999996L346.99900000000014 233.15785000000005L350.1785000000001 230.7665L354.4164999999998 235.6660500000001L353.7594999999999 241.8708000000001L356.3389999999998 245.37560000000013L360.283 243.6797999999999L365.01649999999984 234.05715000000015L375.49199999999985 231.24605000000003L377.53300000000024 235.05735000000016L381.4744999999999 236.93360000000013L382.8989999999999 231.68385L391.1975000000001 232.20650000000006L398.06600000000003 237.2677999999999L401.422 234.5804000000001L408.07849999999974 220.38119999999992L409.6769999999998 218.79985000000005L413.91099999999994 220.3117499999999L417.19749999999976 212.29479999999995L408.37800000000016 203.1801999999999L406.4794999999998 199.27764999999994L408.6514999999997 195.52520000000015L413.6540000000002 199.9687499999999L418.09349999999995 199.29114999999996L428.36749999999995 203.7991500000001L434.83949999999993 203.7856500000001L433.02750000000003 197.2081L445.7339999999999 198.2222999999999L455.0704999999999 193.4303L461.43849999999986 193.36145000000016L463.0309999999997 188.36405000000013L447.869 185.6391500000001L437.74749999999983 181.10545000000002L437.29899999999986 178.90209999999996L439.68050000000005 171.4790500000001L441.7360000000002 171.90924999999993L445.66750000000013 167.07345000000004L447.6279999999997 158.9441500000001L446.4949999999999 157.16970000000003L449.75149999999985 156.8739500000001L456.40199999999993 155.92420000000004L467.4984999999998 144.49000000000012L466.17099999999994 137.12805000000003L474.46950000000015 130.17584999999997L473.47699999999975 123.59430000000003L471.65549999999996 122.29974999999996L466.721 119.39574999999991L461.0579999999999 119.81570000000005L454.8225000000002 112.06485000000015L454.85749999999996 105.65840000000009L457.68700000000024 97.69890000000004L456.1925000000002 97.04305000000005L458.41700000000003 82.21190000000007L462.1274999999997 80.43644999999998L459.70950000000016 77.10364999999996L456.0334999999998 79.34944999999999L449.9489999999997 77.24639999999994L445.14250000000004 72.94815L445.31450000000007 70.77879999999993L443.7175000000002 69.71990000000005L441.8169999999998 73.8112000000001L433.4179999999998 81.40199999999993L429.36699999999973 80.42094999999989L427.33799999999974 79.76214999999996L426.17399999999975 73.53215000000006L436.2990000000002 65.88134999999994L435.899 63.78514999999993L427.8275000000002 64.39645000000013L419.7719999999998 66.42795000000007L415.0535000000002 62.47205000000008L411.5704999999997 51.735299999999995L404.2354999999998 55.58265000000006L405.21900000000016 44.77249999999998L402.7159999999998 36.66605000000004L399.1550000000001 34.83055000000007L392.7544999999998 36.09884999999991L390.31799999999976 41.898999999999944L389.6550000000002 45.292949999999905L386.97249999999997 47.41234999999989L375.78300000000013 50.06744999999995L361.47299999999973 57.41759999999999L363.039 64.89530000000002L362.8365000000002 65.04260000000016L360.0029999999998 62.05720000000014L352.4604999999997 63.922799999999995L352.5709999999998 66.50679999999994L340.5860000000001 76.99964999999992L338.1355000000002 83.16959999999995L336.0865000000001 83.99364999999989L333.7779999999998 85.29230000000013L330.2434999999997 82.91390000000007L320.3019999999998 85.96130000000016L316.8565000000001 85.27810000000017L312.63300000000015 80.91759999999994L311.3704999999999 87.10555L305.21500000000003 88.66430000000008L304.1084999999998 90.57935000000015L312.0409999999998 100.83850000000012L302.5970000000001 97.00299999999999L301.16049999999973 98.46640000000008L291.6575 93.63640000000004L288.9654999999999 88.06765000000013L281.10749999999996 85.04950000000008L278.6745000000002 81.49824999999993L274.3115 85.23934999999994L268.91849999999977 83.60620000000011L262.70849999999996 79.72280000000012L257.83349999999984 79.56905000000006L251.7534999999998 77.19924999999989L245.25300000000016 77.70825000000002L238.7779999999998 79.79835000000008L234.99950000000013 74.27695L226.03949999999998 74.34674999999999L222.96600000000012 81.63385000000005L225.36850000000015 84.72340000000003L225.55499999999995 88.60424999999992L218.85850000000005 97.44259999999997L218.12149999999974 97.00299999999999L208.53400000000022 88.60230000000001L208.88300000000015 84.54710000000006L212.97050000000013 83.34914999999995L211.2209999999999 79.81965000000002L210.18849999999986 80.08510000000001L202.55600000000015 81.20309999999989L195.1170000000002 73.48240000000004L191.04750000000024 66.36015000000015L184.93400000000008 68.62089999999995L183.9055000000002 64.68140000000005L180.37599999999998 66.21344999999991L168.13400000000001 65.69784999999996L166.17599999999982 67.60455000000007L162.67600000000016 73.20850000000007L154.3995000000001 75.5230499999999L155.0554999999997 79.87259999999992L148.91700000000014 81.85540000000003z">
      <title id="t305">Troisième circonscription de l'Orne</title>
      <desc id="d305">Cantons de : Argentan Est, Argentan-Ouest, Athis-de-l'Orne, Briouze, Ecouché, Exmes, Flers Nord, Flers Sud, Messei, Mortrée, Putanges-Pont-Ecrepin, Tinchebray, Trun</desc>
    </path></svg>