<svg xmlns="http://www.w3.org/2000/svg" version="1.1" xmlns:xlink="http://www.w3.org/1999/xlink" xmlns:svgjs="http://svgjs.dev/svgjs" width="693.1455" height="658.6637500000002" fill="#eeeeee" stroke="#cccccc" xmlns:sodipodi="http://sodipodi.sourceforge.net/DTD/sodipodi-0.dtd"><path class="circo" id="id-062-01" d="M419.48500000000024 409.85630000000003L419.6415000000002 406.95264999999995L415.0635 398.90379999999993L409.92050000000006 397.60525L411.70000000000016 393.6665499999999L409.90650000000016 387.4070499999999L407.851 388.2523499999999L400.59849999999983 383.32629999999995L395.8530000000002 376.4614L394.24199999999985 376.83785L395.0630000000001 379.99515L390.6184999999999 379.1262999999999L379.50300000000027 368.39275L375.4860000000002 367.4267499999999L368.51650000000006 384.54004999999995L367.27599999999995 393.78464999999994L364.59600000000023 394.73249999999996L362.48850000000004 393.245L358.1205 394.45234999999997L355.4295000000002 390.89754999999997L344.9705 394.4709999999999L343.1914999999998 393.0602L341.78499999999985 390.4845999999999L338.5210000000001 390.8288L334.8570000000001 386.15139999999997L333.4480000000002 386.95404999999994L327.23299999999995 387.3416499999999L321.9024999999999 390.4606L321.03700000000003 387.10814999999997L317.02200000000005 385.66435L313.7594999999999 388.8374499999999L302.8834999999998 392.8474L302.7095000000003 395.96310000000005L301.6590000000002 396.65545L295.0999999999999 397.68125L290.86299999999994 391.7453999999999L279.4135 397.09764999999993L276.1189999999999 391.8908499999999L273.1355000000002 394.5023499999999L273.65850000000023 403.16720000000004L278.06399999999996 409.06089999999995L272.06500000000005 411.4556999999999L266.4580000000001 417.59979999999996L267.37199999999973 426.34424999999993L267.6215000000002 426.88L265.8190000000002 427.9514999999999L267.953 435.8970499999999L268.578 443.3005L267.2275000000002 444.755L276.25699999999995 454.46799999999996L274.1115000000002 460.40674999999993L269.6969999999999 462.37029999999993L264.0100000000001 465.09449999999987L257.69600000000025 473.8311999999999L259.0530000000001 479.9159499999999L257.0965000000001 483.0304000000001L253.5590000000002 483.61774999999994L251.66650000000004 482.65259999999984L247.928 484.50304999999986L242.8660000000002 477.0027999999999L246.98849999999993 469.34634999999986L242.95749999999998 467.46639999999985L240.56249999999977 463.76405000000005L238.5854999999998 463.35004999999995L235.83100000000002 457.94245L234.76249999999993 459.9208L226.26599999999996 462.79094999999984L223.59800000000007 467.61480000000006L210.19150000000025 464.7324499999999L209.75300000000004 467.91094999999984L211.27949999999998 468.5019L215.02850000000024 481.16389999999996L205.63300000000027 488.8261L196.97600000000023 485.6543500000001L189.6015 477.52835000000005L189.77449999999976 484.1677999999999L186.22450000000015 489.7730999999999L190.0925000000001 493.31879999999984L193.75650000000007 494.9266L199.8705000000001 493.8713999999999L204.7739999999999 497.5243499999999L209.40449999999998 502.3694499999999L216.0930000000002 503.13124999999985L221.7950000000002 507.71365000000003L216.13949999999988 513.1334000000002L215.84249999999997 517.2000499999999L217.59749999999997 518.1821L217.8275000000002 522.0933500000001L224.2534999999998 528.8177999999999L225.1495 539.4106999999999L229.7924999999998 535.6842499999999L237.4090000000001 538.1856500000001L240.54149999999993 533.2543499999999L246.39049999999997 535.1403500000001L248.92999999999972 538.4519L252.3694999999998 546.4395L262.37300000000005 534.8495L264.58349999999996 535.2432999999999L264.8739999999998 533.43965L268.51049999999987 533.65815L273.5055 531.84175L273.68299999999977 530.0086999999999L284.1014999999999 528.55675L283.3895000000001 534.2060000000001L286.81550000000016 533.0272L296.43100000000004 530.3341L303.1975 521.7226500000002L312.2645 527.7483999999998L316.943 531.4818L324.0390000000002 527.3697999999999L326.07550000000003 527.6328000000001L327.7550000000002 531.38815L329.52699999999993 525.6586500000001L325.06700000000023 518.2757999999999L323.1299999999999 519.2352L322.4995000000001 517.2239999999999L330.197 514.1268500000001L331.8025 516.8458999999998L342.4599999999998 535.3860499999998L345.0479999999999 534.76315L351.21050000000025 522.7735999999999L352.2904999999997 523.2067499999999L354.25099999999986 523.63855L361.7054999999999 517.3057L366.12000000000023 521.29345L374.3885 521.9790499999999L380.85350000000005 520.0184999999999L384.0550000000002 527.1014499999999L390.8204999999998 534.6595500000001L394.9374999999998 534.9065999999999L396.51999999999987 536.85825L399.12350000000004 540.3834499999999L399.3939999999998 543.6964499999999L395.00850000000014 545.8353999999999L390.1274999999998 547.6197999999999L380.32399999999996 554.3448000000001L375.8634999999998 553.0174L367.58849999999995 556.9210499999999L365.03449999999987 557.93505L364.9000000000001 563.8649999999998L360.11349999999993 563.4483499999999L358.22450000000003 568.9919L354.3799999999999 569.6287000000001L355.2879999999999 576.4836499999999L352.82249999999976 580.2729999999999L350.13649999999984 593.6965L348.29499999999996 600.2771999999999L356.5519999999998 599.6589L357.6155 602.1028999999999L364.8905000000002 605.9819500000001L367.15750000000014 614.01545L371.32949999999994 614.2407000000001L378.3314999999999 594.8558L379.97299999999996 590.2421999999999L382.1210000000002 585.74995L388.2204999999999 584.11295L391.0149999999999 581.9798499999999L397.4374999999998 581.4493500000001L407.57949999999994 579.3545499999999L414.9675000000002 596.422L421.6645 590.44175L420.21900000000016 588.80695L420.788 582.5096500000001L423.0414999999999 578.769L425.20100000000014 578.4526499999998L430.28399999999976 582.5753L433.7110000000001 580.3771L435.5034999999998 581.3505499999999L438.0464999999998 581.6462999999999L430.8249999999998 591.4321000000001L430.7024999999999 592.8910999999999L433.38700000000017 597.5791999999999L439.0314999999998 598.6031499999999L440.711 602.06975L450.87199999999996 599.6025499999998L456.7869999999999 601.592L456.7520000000002 603.0266499999999L458.9335 606.4026999999999L463.93449999999973 610.1161999999999L467.7510000000001 606.2257499999998L474.3624999999997 610.6309999999999L478.7434999999999 609.6782999999999L482.679 611.6677500000001L487.86850000000015 619.0071L494.3009999999998 614.5990499999999L485.1974999999999 604.7084000000001L485.7409999999999 602.4806000000001L491.97450000000003 599.6601999999998L489.25749999999994 588.8958L490.94600000000014 587.7521999999999L498.94900000000007 589.2716999999999L507.28200000000015 597.9291499999999L513.5064999999997 599.3268499999999L519.4895000000002 597.1602999999999L520.6110000000001 599.0206499999999L519.4394999999997 606.7902999999999L521.0095000000001 612.3017500000001L517.8755000000001 620.1747499999999L511.90949999999987 626.5268000000001L513.3210000000003 632.5101999999998L504.22300000000007 640.8447999999999L508.4115000000003 645.9314499999999L512.5869999999998 646.7678999999998L518.4179999999998 644.29025L520.6189999999998 640.61645L526.3959999999997 639.4892500000001L526.9040000000001 638.6857499999999L531.7885000000001 631.2768L533.1984999999997 633.0629999999999L538.4249999999997 628.9661000000001L542.0044999999999 630.8073999999999L544.839 624.9972L552.2809999999998 620.992L552.8295000000003 632.2487000000001L556.2400000000002 632.9563999999999L561.1124999999998 643.328L558.4604999999999 649.4842499999999L552.0929999999998 651.1946499999999L552.2845000000001 655.3601000000001L552.6904999999999 657.00535L558.9855 658.66375L562.122 656.3835L560.9230000000002 654.7455L563.8754999999998 651.9654499999999L569.5954999999998 648.4215499999999L578.4445 649.1004499999999L579.8050000000001 640.45695L582.1609999999998 643.1889999999999L586.0489999999999 642.67415L588.2400000000001 639.2125999999998L592.0089999999999 637.3255L597.4939999999998 639.433L600.6310000000002 641.71445L601.6340000000002 645.2385999999999L611.1174999999997 639.25035L616.6365000000002 636.4741999999999L618.8189999999997 634.20365L624.3205 636.7794000000001L626.6570000000002 634.5743500000001L639.887 639.9327499999998L645.3915000000001 642.63575L652.0909999999998 637.0488L650.2300000000002 635.9889999999998L650.2125000000001 630.1082499999998L655.4289999999997 627.3194000000001L650.992 622.59795L651.4954999999998 618.2209L657.8179999999998 619.02565L662.2064999999998 611.4584L660.3250000000003 603.2439999999999L658.1885 603.3427499999999L658.0579999999998 598.8729000000001L653.5135000000002 592.06915L654.5190000000002 590.1652999999999L671.25 579.4063L671.3369999999998 577.1077499999999L662.8359999999998 574.4495499999999L656.6730000000001 565.37365L654.4844999999998 564.55565L642.5450000000001 574.9323999999999L644.4889999999998 585.9872999999999L642.3325 587.36635L635.9395000000001 584.9503500000001L629.4725 586.1430999999999L624.203 595.5537000000002L618.2490000000001 597.9271499999999L613.9575000000002 593.0872999999999L614.7469999999998 586.5561499999999L611.4870000000002 581.1257499999999L615.324 573.1628499999999L617.0580000000001 574.1398000000002L621.882 570.8054500000001L624.905 572.5930499999998L630.5309999999997 570.86185L630.9014999999999 566.8292499999998L639.2885000000001 561.4186999999998L640.3910000000002 557.4923999999999L652.0075000000003 558.83285L654.4630000000001 564.5047999999999L656.6404999999997 565.32725L662.8834999999998 562.22555L672.1769999999998 562.0257999999999L676.1250000000001 554.20275L680.1940000000002 552.3212000000001L675.0760000000002 546.1129L674.4639999999998 542.4151L669.4909999999999 540.4212999999999L670.0774999999999 538.37155L674.4200000000001 527.31065L689.76 527.4196000000001L689.2174999999997 525.5032499999999L691.9835 522.6646500000002L693.1455 516.8864500000001L689.3740000000003 516.6213500000001L687.9964999999999 512.5725L676.2795 509.37989999999985L677.097 498.57214999999997L672.4509999999998 496.73114999999996L670.19 496.07624999999985L659.4454999999999 494.5257000000001L646.6604999999998 490.67154999999985L640.1510000000002 492.3613L640.0020000000001 492.1824000000001L636.9549999999998 490.0305L633.3825000000002 489.4731999999999L629.2000000000002 493.96645000000007L628.3300000000003 495.71585L621.6555 497.30159999999984L618.9355 494.9186499999999L620.2235000000002 484.4099L629.0924999999999 481.90425000000005L632.5630000000001 484.85625L637.1485000000001 485.39694999999995L637.1940000000001 480.43350000000004L633.9675 477.71394999999984L638.5579999999999 472.10784999999987L641.4744999999999 468.7521000000001L645.9429999999998 468.8040000000001L649.563 466.17265000000003L647.0749999999998 462.8835000000001L639.3880000000001 454.3721499999999L639.7059999999999 451.80214999999987L633.5764999999998 443.1227L630.2249999999998 444.3168L619.452 434.06374999999997L617.5189999999998 434.63134999999994L616.4814999999999 432.90255L611.1374999999998 438.66215L600.3384999999997 441.34975L591.2644999999998 444.5238999999999L585.113 440.6896999999999L576.7899999999997 447.783L574.6035 448.84379999999993L577.3110000000003 455.02789999999993L576.7255 459.54669999999993L572.6274999999998 461.7386499999999L569.5715000000001 462.75305000000003L567.3214999999999 464.5606999999998L564.2045000000002 472.55899999999997L566.9659999999999 478.78569999999996L570.4480000000001 481.3914L566.8995000000001 482.3751999999999L566.9574999999998 485.67229999999995L558.2409999999999 487.0470499999999L551.2849999999997 493.3646999999999L550.5644999999998 493.14525000000003L542.1679999999998 495.38275L540.1280000000003 498.99894999999987L546.5440000000001 510.48114999999996L543.0919999999998 515.8705L535.367 517.713L534.4015000000002 519.5229L534.307 519.74415L528.0844999999999 508.36299999999994L518.195 513.1752499999999L513.6309999999997 515.2352500000001L509.6660000000003 514.5076L502.6265000000001 518.0326L497.294 517.5436L495.25750000000016 518.9348999999999L491.8855000000002 511.05864999999994L480.8994999999999 504.8581999999999L479.6924999999999 503.7109000000001L483.519 500.4728499999999L484.1705000000002 494.90070000000003L480.2850000000001 490.9514999999999L478.8625000000002 486.6693000000001L483.7885 482.36189999999993L472.01599999999985 480.12215L473.9884999999998 476.1119500000001L472.226 471.9854000000001L472.7735000000001 463.4086500000001L469.39099999999996 459.73574999999994L470.62099999999987 456.0911L464.7519999999997 453.89279999999997L464.3194999999997 451.82079999999996L460.6065000000001 448.06534999999997L463.90049999999974 439.44615L464.0429999999998 432.5374499999999L467.3444999999998 431.8831999999999L467.94399999999996 428.3333L464.5704999999998 425.0462L462.3525000000001 416.12269999999995L453.929 412.94235000000003L453.35050000000024 414.29159999999996L442.46249999999975 412.7356499999999L441.6149999999999 415.08015L434.33899999999994 418.1997L428.9179999999999 414.5315499999999L424.6634999999998 415.74609999999996L420.02250000000004 409.83565L419.48500000000024 409.85630000000003z">
      <title id="t306">Première circonscription du Pas-de-Calais</title>
      <desc id="d306">Cantons de : Aubigny-en-Artois, Auxi-le-Château, Avesnes-le-Comte, Bapaume, Beaumetz-lès-Loges, Bertincourt, Croisilles, Marquion, Pas-en-Artois, Saint-Pol-sur-Ternoise, Vitry-en-Artois</desc>
    </path><path class="circo" id="id-062-02" d="M509.6660000000003 514.5076L502.6265000000001 518.0326L497.294 517.5436L495.25750000000016 518.9348999999999L491.8855000000002 511.05864999999994L480.8994999999999 504.8581999999999L479.6924999999999 503.7109000000001L483.519 500.4728499999999L484.1705000000002 494.90070000000003L480.2850000000001 490.9514999999999L478.8625000000002 486.6693000000001L483.7885 482.36189999999993L472.01599999999985 480.12215L473.9884999999998 476.1119500000001L472.226 471.9854000000001L472.7735000000001 463.4086500000001L469.39099999999996 459.73574999999994L470.62099999999987 456.0911L464.7519999999997 453.89279999999997L464.3194999999997 451.82079999999996L460.6065000000001 448.06534999999997L463.90049999999974 439.44615L464.0429999999998 432.5374499999999L467.3444999999998 431.8831999999999L467.94399999999996 428.3333L464.5704999999998 425.0462L462.3525000000001 416.12269999999995L464.8665 412.37700000000007L465.7645000000002 413.10299999999995L468.1124999999997 409.4543L472.0044999999999 410.83169999999996L473.8375000000002 406.74795000000006L470.31600000000026 401.14795000000004L471.352 399.1678999999999L473.37850000000003 398.22485L478.46400000000017 402.2816499999999L487.2059999999999 402.79780000000005L497.2750000000002 405.4550999999999L500.57349999999985 402.8698L512.2185000000002 409.7942999999999L517.8424999999999 403.9233999999999L524.2755 402.91179999999997L528.7934999999999 411.84235L547.5875000000002 417.56315L550.4984999999999 419.9806L555.9345000000002 419.84529999999995L556.2970000000001 415.47079999999994L563.8459999999998 411.2869999999999L568.0795 412.7056499999999L570.3705000000002 416.6339499999999L578.4375 415.30215L583.8909999999998 421.00565000000006L590.6270000000001 419.44475L593.5329999999999 419.8013L595.754 422.65445L602.0004999999998 419.76199999999994L611.1540000000002 419.1674499999999L614.9189999999999 426.4189L617.7159999999998 431.4135L616.4814999999999 432.90255L611.1374999999998 438.66215L600.3384999999997 441.34975L591.2644999999998 444.5238999999999L585.113 440.6896999999999L576.7899999999997 447.783L574.6035 448.84379999999993L577.3110000000003 455.02789999999993L576.7255 459.54669999999993L572.6274999999998 461.7386499999999L569.5715000000001 462.75305000000003L567.3214999999999 464.5606999999998L564.2045000000002 472.55899999999997L566.9659999999999 478.78569999999996L570.4480000000001 481.3914L566.8995000000001 482.3751999999999L566.9574999999998 485.67229999999995L558.2409999999999 487.0470499999999L551.2849999999997 493.3646999999999L550.5644999999998 493.14525000000003L542.1679999999998 495.38275L540.1280000000003 498.99894999999987L546.5440000000001 510.48114999999996L543.0919999999998 515.8705L535.367 517.713L534.4015000000002 519.5229L534.307 519.74415L528.0844999999999 508.36299999999994L518.195 513.1752499999999L513.6309999999997 515.2352500000001L509.6660000000003 514.5076z">
      <title id="t307">Deuxième circonscription du Pas-de-Calais</title>
      <desc id="d307">Cantons de : Arras Nord, Arras Ouest, Arras Sud, Dainville, Vimy</desc>
    </path><path class="circo" id="id-062-03" d="M516.5114999999997 381.2971L509.87450000000024 379.41255L511.2310000000002 377.65275L510.07600000000025 371.10164999999995L513.295 368.47285L514.4015000000002 362.69245L520.1999999999998 354.17009999999993L524.504 358.3961499999999L527.8039999999999 360.9229499999999L533.7885 358.90635000000003L535.0914999999998 366.29914999999994L535.7395000000002 370.02560000000005L541.5499999999997 368.1363999999999L546.1655000000002 374.95769999999993L555.0099999999998 368.83534999999995L554.0625 367.0689L556.8009999999998 364.25344999999993L563.229 357.93205L563.1824999999998 351.06759999999997L564.6215000000001 349.79449999999997L570.0900000000001 352.04144999999994L576.0104999999999 347.38100000000003L580.84 351.77094999999997L577.208 354.46659999999997L575.5349999999999 361.08655L576.3125000000002 361.2174499999999L586.7849999999999 361.23744999999997L588.5995000000003 365.44325000000003L578.981 375.14725L578.5075 379.61744999999996L580.4025000000001 380.9094L582.2969999999998 381.60804999999993L579.1890000000001 391.73940000000005L581.4904999999999 400.1855999999999L580.4244999999997 403.0185L577.7285 399.77009999999996L567.3755 399.89085L567.1960000000001 395.1013499999999L565.8335 394.5283999999999L561.9900000000001 395.8870999999999L562.0675 397.27199999999993L565.2460000000002 397.27075L565.401 397.9248L562.3919999999998 402.80789999999996L559.9849999999998 404.58519999999993L556.9645000000003 405.79200000000003L555.1055000000002 405.7396L553.9765 404.9394L553.0110000000002 409.0143499999999L556.0404999999997 410.6998999999999L550.4984999999999 419.9806L547.5875000000002 417.56315L528.7934999999999 411.84235L524.2755 402.91179999999997L530.6385 397.59119999999996L536.207 396.66145L538.3564999999999 393.73459999999994L530.4455000000002 392.03424999999993L523.2215000000002 379.5774L516.5114999999997 381.2971z">
      <title id="t308">Troisième circonscription du Pas-de-Calais</title>
      <desc id="d308">Cantons de : Avion, Harnes, Lens Est, Lens Nord-Est, Lens Nord-Ouest, Noyelles-sous-Lens</desc>
    </path><path class="circo" id="id-062-04" d="M138.95249999999976 461.53165L135.74400000000026 458.49294999999995L133.09900000000027 450.67560000000003L125.8744999999999 446.28405L125.69000000000017 445.05535L116.75000000000011 442.9681499999999L113.02849999999978 440.14084999999994L105.70600000000013 433.9351499999999L100.29699999999991 434.02975L87.50299999999982 432.6013999999999L84.61549999999988 435.63789999999995L78.36099999999988 437.32259999999997L73.98900000000026 441.78265L59.021999999999935 447.73839999999996L58.04149999999993 445.05735000000004L51.54699999999991 451.1097L45.18799999999999 452.6817L46.04750000000024 450.63429999999994L40.6574999999998 447.12045L38.478000000000065 446.94265L36.37200000000007 438.89995L32.028999999999996 433.34024999999997L32.892499999999814 430.84854999999993L30.687500000000227 426.8307L26.27299999999991 425.52599999999995L23.71849999999995 427.20455000000004L20.258499999999913 423.8486499999999L19.21449999999993 421.85069999999996L17.332499999999982 424.75629999999995L15.336500000000228 421.21955L12.171999999999912 421.8213999999999L12.044500000000085 423.37350000000004L8.955000000000268 419.47339999999997L6.607999999999947 413.42895L0 407.8448L5.5034999999998035 380.37485000000004L7.744999999999891 359.5313999999999L8.62450000000024 348.59079999999994L9.429000000000087 327.43015L12.567999999999984 316.1982499999999L14.803999999999746 315.7013999999999L16.996500000000196 319.84034999999994L23.25400000000002 323.0481499999999L33.53549999999984 332.6977499999999L35.9820000000002 334.3952999999999L45.40750000000003 335.9376499999999L33.218499999999835 330.62114999999994L27.542500000000132 318.4175499999999L22.659499999999753 313.75545L10.590500000000134 297.4038999999999L8.824500000000057 290.77995L9.703499999999963 286.33664999999996L31.5949999999998 285.51609999999994L36.202499999999986 277.47429999999997L37.85250000000019 276.18415L42.59900000000016 280.0565L46.41849999999977 278.3754499999999L52.50699999999995 276.19954999999993L58.09849999999983 279.4472999999999L61.642499999999814 276.3119999999999L66.86199999999985 279.1888999999999L73.98900000000026 276.6575L79.37299999999993 280.57935L90.1830000000001 278.99005L96.5809999999999 272.56845L99.57899999999995 264.0344L106.37450000000001 263.00495L114.37599999999975 267.68795L116.62199999999984 271.6216L121.27250000000004 264.13555L131.1869999999999 258.58584999999994L140.9604999999999 252.13264999999993L138.88449999999978 249.98504999999994L139.6875 238.41849999999994L147.21850000000018 240.19549999999995L155.20449999999983 241.55284999999992L158.98649999999975 243.0776999999999L163.091 244.0683L166.94549999999992 249.713L173.8409999999999 250.9506499999999L175.26900000000012 252.82614999999993L180.84299999999985 249.77665000000002L184.9955 250.85954999999998L186.92700000000002 247.08209999999994L190.02099999999984 248.42034999999996L191.82399999999973 252.52325L196.12300000000005 253.9001499999999L201.13350000000025 261.0055L197.38400000000013 269.0949499999999L191.66499999999985 271.90150000000006L196.9335000000001 274.78610000000003L197.34800000000007 276.80009999999993L203.5250000000002 273.7429L202.42999999999995 275.80584999999996L206.64350000000013 288.7441L215.78649999999982 295.8904L221.67050000000017 305.89079999999996L229.27900000000022 303.5809499999999L229.6210000000002 305.2346L244.5044999999999 302.27514999999994L245.086 300.1430499999999L252.71050000000002 296.3239999999999L253.1574999999998 296.14535L252.85349999999994 297.94455L256.04600000000005 299.08124999999995L259.8565000000002 297.5270499999999L270.1355000000001 298.2791L276.20799999999974 303.6151L270.5005 307.65395L273.65650000000016 311.23019999999997L279.7255000000001 311.6969999999999L279.61149999999975 317.6947L271.27250000000004 324.66200000000003L270.6439999999998 339.8949L278.10749999999985 347.53734999999995L282.8154999999998 350.71095L281.67100000000005 354.7331L285.7664999999997 362.08415L276.37 366.91869999999994L272.06999999999994 366.03945L268.7745000000001 368.7459L267.78099999999995 368.01890000000003L261.9119999999998 367.4867999999999L256.5134999999998 370.1571L260.3154999999998 374.2328499999999L259.71299999999985 376.01895L260.3635000000003 378.2052999999999L264.7660000000002 379.2730999999999L269.66499999999996 383.9668999999999L273.1355000000002 394.5023499999999L273.65850000000023 403.16720000000004L278.06399999999996 409.06089999999995L272.06500000000005 411.4556999999999L266.4580000000001 417.59979999999996L267.37199999999973 426.34424999999993L267.6215000000002 426.88L265.8190000000002 427.9514999999999L267.953 435.8970499999999L268.578 443.3005L267.2275000000002 444.755L276.25699999999995 454.46799999999996L274.1115000000002 460.40674999999993L269.6969999999999 462.37029999999993L264.0100000000001 465.09449999999987L257.69600000000025 473.8311999999999L259.0530000000001 479.9159499999999L257.0965000000001 483.0304000000001L253.5590000000002 483.61774999999994L251.66650000000004 482.65259999999984L247.928 484.50304999999986L242.8660000000002 477.0027999999999L246.98849999999993 469.34634999999986L242.95749999999998 467.46639999999985L240.56249999999977 463.76405000000005L238.5854999999998 463.35004999999995L235.83100000000002 457.94245L234.76249999999993 459.9208L226.26599999999996 462.79094999999984L223.59800000000007 467.61480000000006L210.19150000000025 464.7324499999999L209.75300000000004 467.91094999999984L211.27949999999998 468.5019L215.02850000000024 481.16389999999996L205.63300000000027 488.8261L196.97600000000023 485.6543500000001L189.6015 477.52835000000005L189.77449999999976 484.1677999999999L186.22450000000015 489.7730999999999L175.8575000000002 485.29120000000006L171.66600000000017 479.94654999999995L167.19449999999995 482.80159999999995L165.61950000000024 481.7712L160.86400000000026 474.0513999999999L171.5395000000001 465.77065000000005L173.39150000000018 461.6042L170.9559999999999 456.3527499999999L165.85199999999986 452.66039999999987L161.84000000000026 454.44805L154.50499999999977 465.19299999999987L145.74400000000026 464.74639999999994L145.08350000000007 461.3972L143.36850000000027 461.529L138.95249999999976 461.53165z">
      <title id="t309">Quatrième circonscription du Pas-de-Calais</title>
      <desc id="d309">Cantons de : Berck, Campagne-lès-Hesdin, Etaples, Fruges, Hesdin, Hucqueliers, Le Parcq, Montreuil</desc>
    </path><path class="circo" id="id-062-05" d="M13.097999999999956 189.70829999999992L10.968500000000176 190.59584999999998L14.639999999999986 186.89645L12.694000000000187 184.94320000000002L9.594000000000165 188.00564999999992L8.15999999999974 192.79714999999996L8.890499999999975 194.34449999999998L8.277499999999804 194.98220000000003L6.568500000000199 193.1757499999999L7.517500000000155 187.49470000000002L6.116000000000099 189.7498999999999L2.5650000000001683 189.42295000000001L7.2784999999998945 195.8977999999999L2.3275000000001 206.78145L2.821999999999889 211.52985L6.886499999999955 230.4236999999999L9.639999999999986 247.08815L9.504999999999768 268.94229999999993L9.703499999999963 286.33664999999996L31.5949999999998 285.51609999999994L36.202499999999986 277.47429999999997L37.85250000000019 276.18415L42.59900000000016 280.0565L46.41849999999977 278.3754499999999L52.50699999999995 276.19954999999993L58.09849999999983 279.4472999999999L61.642499999999814 276.3119999999999L66.86199999999985 279.1888999999999L73.98900000000026 276.6575L79.37299999999993 280.57935L90.1830000000001 278.99005L96.5809999999999 272.56845L99.57899999999995 264.0344L106.37450000000001 263.00495L114.37599999999975 267.68795L116.62199999999984 271.6216L121.27250000000004 264.13555L131.1869999999999 258.58584999999994L140.9604999999999 252.13264999999993L138.88449999999978 249.98504999999994L130.08249999999975 251.39759999999995L110.10400000000004 248.98595L106.16600000000005 248.78689999999992L102.0150000000001 248.3748L96.83600000000013 241.98849999999993L94.25599999999974 234.56180000000003L93.60650000000021 230.97955L91.82200000000023 230.45389999999998L85.87049999999977 229.06660000000002L87.08450000000028 224.96129999999994L82.34350000000006 221.56909999999996L77.8185000000002 216.41035000000002L82.33900000000006 211.4130999999999L80.48249999999996 204.92739999999998L83.13499999999976 198.68129999999994L82.81000000000006 191.80089999999993L81.50699999999972 190.69519999999997L81.38750000000016 187.31674999999996L82.58800000000008 183.44105L79.76499999999987 180.51514999999995L76.19449999999972 171.83859999999996L71.41750000000002 171.62025L63.21700000000021 162.42114999999998L57.67499999999984 159.31654999999992L46.080499999999915 166.87995L41.45649999999989 164.05259999999998L41.14649999999983 157.85214999999994L42.68100000000004 156.46299999999997L42.30849999999975 151.87969999999993L47.359500000000025 147.1128999999999L41.55199999999979 135.34904999999995L37.57600000000025 135.84000000000003L30.2800000000002 138.17489999999992L26.25850000000014 138.4438999999999L22.633500000000026 136.25694999999993L20.45599999999979 137.0317L20.883499999999913 162.31229999999996L16.45249999999976 172.86969999999997L16.890500000000088 175.21265L15.980000000000132 183.83524999999992L15.246500000000083 185.8315499999999L18.122000000000185 187.6961L19.759500000000116 191.96269999999998L17.386000000000195 187.86599999999993L13.097999999999956 189.70829999999992z">
      <title id="t310">Cinquième circonscription du Pas-de-Calais</title>
      <desc id="d310">Cantons de : Boulogne-sur-Mer Nord-Est, Boulogne-sur-Mer-Nord Ouest, Boulogne-sur-Mer Sud, Outreau, Le Portel, Samer</desc>
    </path><path class="circo" id="id-062-06" d="M170.38299999999992 86.39254999999991L167.17550000000017 83.63069999999993L163.43450000000018 85.54244999999995L154.22000000000025 84.76714999999999L138.45550000000003 76.04185000000001L138.53049999999996 75.81679999999992L137.73000000000025 66.94679999999991L135.15600000000006 63.20449999999994L129.18650000000014 59.93974999999992L126.18249999999989 57.02590000000001L128.37750000000028 61.572499999999906L130.95450000000028 62.52704999999992L116.92900000000009 83.58959999999996L110.32899999999984 90.07009999999994L102.19100000000026 79.22409999999999L88.14549999999997 86.2295499999999L77.83500000000004 80.3188999999999L76.39250000000004 77.94195000000002L71.86050000000023 73.53520000000003L67.59200000000021 72.8309999999999L58.106500000000096 61.49159999999995L47.17499999999973 77.11185L34.11099999999976 87.32680000000002L24.21100000000024 90.26139999999998L12.533999999999992 91.08575000000002L10.790499999999952 92.67579999999995L9.59699999999998 102.05624999999998L13.917500000000018 117.98334999999994L16.184000000000083 127.25200000000001L18.666000000000054 135.17484999999994L22.633500000000026 136.25694999999993L26.25850000000014 138.4438999999999L30.2800000000002 138.17489999999992L37.57600000000025 135.84000000000003L41.55199999999979 135.34904999999995L47.359500000000025 147.1128999999999L42.30849999999975 151.87969999999993L42.68100000000004 156.46299999999997L41.14649999999983 157.85214999999994L41.45649999999989 164.05259999999998L46.080499999999915 166.87995L57.67499999999984 159.31654999999992L63.21700000000021 162.42114999999998L71.41750000000002 171.62025L76.19449999999972 171.83859999999996L79.76499999999987 180.51514999999995L82.58800000000008 183.44105L81.38750000000016 187.31674999999996L81.50699999999972 190.69519999999997L82.81000000000006 191.80089999999993L83.13499999999976 198.68129999999994L80.48249999999996 204.92739999999998L82.33900000000006 211.4130999999999L77.8185000000002 216.41035000000002L82.34350000000006 221.56909999999996L87.08450000000028 224.96129999999994L85.87049999999977 229.06660000000002L91.82200000000023 230.45389999999998L93.60650000000021 230.97955L94.25599999999974 234.56180000000003L96.83600000000013 241.98849999999993L102.0150000000001 248.3748L106.16600000000005 248.78689999999992L110.10400000000004 248.98595L130.08249999999975 251.39759999999995L138.88449999999978 249.98504999999994L139.6875 238.41849999999994L147.21850000000018 240.19549999999995L155.20449999999983 241.55284999999992L158.98649999999975 243.0776999999999L163.091 244.0683L166.94549999999992 249.713L173.8409999999999 250.9506499999999L175.26900000000012 252.82614999999993L180.84299999999985 249.77665000000002L184.9955 250.85954999999998L186.92700000000002 247.08209999999994L190.02099999999984 248.42034999999996L191.82399999999973 252.52325L196.12300000000005 253.9001499999999L201.13350000000025 261.0055L197.38400000000013 269.0949499999999L191.66499999999985 271.90150000000006L196.9335000000001 274.78610000000003L197.34800000000007 276.80009999999993L203.5250000000002 273.7429L202.42999999999995 275.80584999999996L206.64350000000013 288.7441L215.78649999999982 295.8904L221.67050000000017 305.89079999999996L229.27900000000022 303.5809499999999L229.6210000000002 305.2346L244.5044999999999 302.27514999999994L245.086 300.1430499999999L252.71050000000002 296.3239999999999L253.1574999999998 296.14535L252.85349999999994 297.94455L256.04600000000005 299.08124999999995L259.8565000000002 297.5270499999999L270.1355000000001 298.2791L276.20799999999974 303.6151L270.5005 307.65395L273.65650000000016 311.23019999999997L279.7255000000001 311.6969999999999L279.61149999999975 317.6947L271.27250000000004 324.66200000000003L270.6439999999998 339.8949L278.10749999999985 347.53734999999995L282.8154999999998 350.71095L281.67100000000005 354.7331L285.7664999999997 362.08415L276.37 366.91869999999994L272.06999999999994 366.03945L268.7745000000001 368.7459L267.78099999999995 368.01890000000003L261.9119999999998 367.4867999999999L256.5134999999998 370.1571L260.3154999999998 374.2328499999999L259.71299999999985 376.01895L260.3635000000003 378.2052999999999L264.7660000000002 379.2730999999999L269.66499999999996 383.9668999999999L273.1355000000002 394.5023499999999L276.1189999999999 391.8908499999999L279.4135 397.09764999999993L290.86299999999994 391.7453999999999L295.0999999999999 397.68125L301.6590000000002 396.65545L302.7095000000003 395.96310000000005L302.8834999999998 392.8474L313.7594999999999 388.8374499999999L317.02200000000005 385.66435L321.03700000000003 387.10814999999997L321.9024999999999 390.4606L327.23299999999995 387.3416499999999L333.4480000000002 386.95404999999994L334.8570000000001 386.15139999999997L338.5210000000001 390.8288L341.78499999999985 390.4845999999999L343.1914999999998 393.0602L344.9705 394.4709999999999L355.4295000000002 390.89754999999997L358.1205 394.45234999999997L362.48850000000004 393.245L364.59600000000023 394.73249999999996L367.27599999999995 393.78464999999994L368.51650000000006 384.54004999999995L375.4860000000002 367.4267499999999L374.97900000000016 366.78919999999994L375.6975 366.05279999999993L370.5574999999999 361.96595L369.0410000000003 353.15889999999996L370.5739999999997 351.8351L379.5075000000003 344.16765L373.14149999999984 332.08489999999995L370.86149999999975 333.63675L366.98699999999974 333.1375L364.3394999999998 327.90139999999997L358.46299999999985 333.29724999999996L354.4335000000001 332.11024999999995L351.0340000000002 327.37335L347.2615000000002 314.18274999999994L346.3659999999999 312.9769999999999L340.462 307.62789999999995L340.9140000000002 311.7124L337.8584999999998 314.3124999999999L330.8699999999999 316.1354L327.42650000000026 309.5802499999999L325.3399999999999 309.23779999999994L323.29049999999995 305.55764999999997L324.32650000000024 297.1597L326.1900000000003 287.50995L324.443 283.5836499999999L318.5345000000001 281.39470000000006L316.88199999999995 268.6389L315.43499999999995 267.07714999999996L313.52449999999976 259.18944999999997L305.64599999999984 256.60955L290.89 269.22219999999993L289.09550000000024 267.72475L288.08749999999975 260.83399999999995L291.44499999999994 250.12845L285.08950000000027 243.6346499999999L284.01400000000024 241.56425L274.71450000000004 241.53075L274.39549999999997 237.80379999999994L276.43399999999986 234.65499999999992L280.25750000000016 233.61784999999998L281.99250000000006 228.22705L286.09500000000025 227.3626999999999L285.2735000000001 225.6071L288.4300000000002 221.14049999999992L283.2294999999999 210.5543L286.59400000000005 205.85475000000002L273.30449999999985 192.24329999999995L279.66499999999996 188.40779999999995L277.98850000000016 185.36954999999992L270.39300000000026 183.6149499999999L268.25499999999977 180.21429999999995L267.6294999999999 173.16324999999992L268.9929999999998 172.45589999999993L268.0860000000001 168.43864999999994L261.41050000000007 161.38764999999992L258.1585000000001 161.48844999999994L243.55349999999987 173.11354999999992L238.41549999999984 172.74879999999996L237.38699999999994 174.28505L231.7025000000001 167.6344499999999L220.0490000000002 172.63395000000003L220.03800000000012 172.2L230.48850000000016 162.89149999999992L239.2734999999999 159.6324L245.9375 153.11785L238.94600000000025 151.8441L251.16049999999973 141.56939999999992L269.6785 132.52830000000003L278.5514999999998 126.0343499999999L277.17449999999985 113.55194999999995L274.8475000000002 110.28435000000002L270.2985000000001 109.49145000000001L261.88199999999995 113.28609999999998L248.39049999999986 109.77144999999993L248.16100000000006 101.39110000000002L243.57349999999997 91.79964999999996L235.1260000000002 105.81814999999992L225.5585000000002 109.26124999999999L221.56000000000006 108.27514999999991L212.30799999999988 117.32190000000003L205.71000000000026 118.44025000000002L202.6864999999998 124.79784999999993L201.50500000000022 124.6491499999999L203.61499999999978 114.48674999999994L198.68150000000014 110.96074999999999L192.81349999999975 95.40854999999993L194.68549999999993 94.27925000000002L192.57150000000024 93.88260000000002L189.05550000000005 80.73525000000004L186.84799999999996 71.59909999999996L181.94849999999974 66.64954999999992L170.38299999999992 86.39254999999991z">
      <title id="t311">Sixième circonscription du Pas-de-Calais</title>
      <desc id="d311">Cantons de : Ardres, Desvres, Fauquembergues, Guînes, Heuchin, Lumbres, Marquise</desc>
    </path><path class="circo" id="id-062-07" d="M186.84799999999996 71.59909999999996L181.94849999999974 66.64954999999992L170.38299999999992 86.39254999999991L167.17550000000017 83.63069999999993L163.43450000000018 85.54244999999995L154.22000000000025 84.76714999999999L138.45550000000003 76.04185000000001L138.53049999999996 75.81679999999992L137.73000000000025 66.94679999999991L135.15600000000006 63.20449999999994L129.18650000000014 59.93974999999992L126.18249999999989 57.02590000000001L128.37750000000028 61.572499999999906L130.95450000000028 62.52704999999992L116.92900000000009 83.58959999999996L110.32899999999984 90.07009999999994L102.19100000000026 79.22409999999999L88.14549999999997 86.2295499999999L77.83500000000004 80.3188999999999L76.39250000000004 77.94195000000002L71.86050000000023 73.53520000000003L67.59200000000021 72.8309999999999L58.106500000000096 61.49159999999995L63.70799999999974 55.81024999999997L73.91549999999995 46.03084999999993L90.73950000000025 37.09239999999994L115.80750000000023 29.772999999999996L119.63549999999998 28.95984999999996L122.26150000000018 26.487199999999973L124.06299999999987 29.09480000000002L120.89499999999987 32.082750000000004L126.95400000000006 29.05230000000003L123.86250000000018 26.11265000000003L131.6874999999999 25.6841L125.58449999999993 23.690399999999983L137.654 21.475849999999923L141.8209999999999 22.803499999999985L151.48199999999974 16.140999999999934L164.21899999999994 12.460849999999937L177.20399999999984 11.398750000000035L205.28849999999977 6.143900000000002L210.51449999999988 1.6284499999999014L217.4984999999998 0L226.50649999999985 2.0086999999999477L235.50250000000005 12.687700000000035L235.16099999999994 15.083800000000025L240.29150000000016 18.605000000000018L241.90350000000024 24.55699999999993L246.3749999999999 29.308049999999923L248.99450000000002 39.84684999999999L253.03150000000016 49.901299999999935L259.08050000000003 64.00194999999997L268.94949999999994 88.93659999999997L269.6165000000002 91.14094999999992L270.45799999999986 98.00169999999994L275.2589999999998 105.72659999999999L274.8475000000002 110.28435000000002L270.2985000000001 109.49145000000001L261.88199999999995 113.28609999999998L248.39049999999986 109.77144999999993L248.16100000000006 101.39110000000002L243.57349999999997 91.79964999999996L235.1260000000002 105.81814999999992L225.5585000000002 109.26124999999999L221.56000000000006 108.27514999999991L212.30799999999988 117.32190000000003L205.71000000000026 118.44025000000002L202.6864999999998 124.79784999999993L201.50500000000022 124.6491499999999L203.61499999999978 114.48674999999994L198.68150000000014 110.96074999999999L192.81349999999975 95.40854999999993L194.68549999999993 94.27925000000002L192.57150000000024 93.88260000000002L189.05550000000005 80.73525000000004L186.84799999999996 71.59909999999996z">
      <title id="t312">Septième circonscription du Pas-de-Calais</title>
      <desc id="d312">Cantons de : Audruicq, Calais Centre, Calais Est, Calais Nord-Ouest, Calais Sud-Est</desc>
    </path><path class="circo" id="id-062-08" d="M365.582 229.26639999999992L364.8919999999998 226.85239999999993L360.28999999999996 219.82119999999995L358.12599999999975 219.40399999999997L349.0775000000002 225.34284999999997L346.55849999999987 221.7152999999999L343.22249999999997 216.6498L352.84550000000024 207.30215L344.4335000000001 199.97394999999997L344.4330000000002 199.85315L339.87450000000024 195.52319999999995L336.506 187.68334999999993L333.08899999999994 185.7603499999999L334.15700000000015 179.02625L343.2695000000001 171.72505L351.12649999999974 169.4261999999999L363.60299999999995 161.53549999999996L360.2724999999998 160.0954L360.56550000000016 158.24195000000003L353.00549999999987 154.2833499999999L347.8095000000002 150.58504999999997L345.6315000000001 151.32649999999998L344.15700000000015 155.66254999999998L341.8655000000001 155.71699999999993L333.46299999999985 152.0107999999999L324.32349999999985 150.97894999999994L321.58299999999997 147.77575L311.36900000000026 154.60999999999999L310.9609999999998 148.03929999999994L305.03949999999975 150.4459L297.02699999999993 147.22115000000002L291.8950000000001 141.51494999999997L285.0754999999998 133.91244999999998L279.42999999999984 132.07899999999995L278.5514999999998 126.0343499999999L269.6785 132.52830000000003L251.16049999999973 141.56939999999992L238.94600000000025 151.8441L245.9375 153.11785L239.2734999999999 159.6324L230.48850000000016 162.89149999999992L220.03800000000012 172.2L220.0490000000002 172.63395000000003L231.7025000000001 167.6344499999999L237.38699999999994 174.28505L238.41549999999984 172.74879999999996L243.55349999999987 173.11354999999992L258.1585000000001 161.48844999999994L261.41050000000007 161.38764999999992L268.0860000000001 168.43864999999994L268.9929999999998 172.45589999999993L267.6294999999999 173.16324999999992L268.25499999999977 180.21429999999995L270.39300000000026 183.6149499999999L277.98850000000016 185.36954999999992L279.66499999999996 188.40779999999995L273.30449999999985 192.24329999999995L286.59400000000005 205.85475000000002L283.2294999999999 210.5543L288.4300000000002 221.14049999999992L285.2735000000001 225.6071L286.09500000000025 227.3626999999999L281.99250000000006 228.22705L280.25750000000016 233.61784999999998L276.43399999999986 234.65499999999992L274.39549999999997 237.80379999999994L274.71450000000004 241.53075L284.01400000000024 241.56425L285.08950000000027 243.6346499999999L291.44499999999994 250.12845L288.08749999999975 260.83399999999995L289.09550000000024 267.72475L290.89 269.22219999999993L305.64599999999984 256.60955L313.52449999999976 259.18944999999997L315.43499999999995 267.07714999999996L316.88199999999995 268.6389L318.5345000000001 281.39470000000006L324.443 283.5836499999999L326.1900000000003 287.50995L324.32650000000024 297.1597L323.29049999999995 305.55764999999997L325.3399999999999 309.23779999999994L327.42650000000026 309.5802499999999L330.8699999999999 316.1354L337.8584999999998 314.3124999999999L340.9140000000002 311.7124L340.462 307.62789999999995L346.3659999999999 312.9769999999999L347.2615000000002 314.18274999999994L351.0340000000002 327.37335L354.4335000000001 332.11024999999995L358.46299999999985 333.29724999999996L364.3394999999998 327.90139999999997L366.98699999999974 333.1375L370.86149999999975 333.63675L373.14149999999984 332.08489999999995L379.5075000000003 344.16765L382.6260000000002 342.77265L383.7529999999998 344.0841499999999L387.414 341.53459999999995L391.30949999999984 343.52959999999996L395.2924999999999 341.7283499999999L397.0164999999997 333.53515000000004L399.13149999999973 334.03774999999996L404.6319999999997 330.6011L404.9040000000002 328.116L399.2840000000001 324.1432499999999L393.28750000000014 327.75835L389.74350000000015 327.5117L390.5200000000002 321.04985L394.4720000000001 315.80240000000003L384.8124999999999 309.811L376.3659999999999 317.6004499999999L374.92650000000026 316.37479999999994L373.9134999999999 315.3436499999999L373.91399999999976 314.59335L374.3700000000001 307.11619999999994L376.63149999999973 303.4197499999999L382.58500000000026 300.2561L380.3800000000001 293.99545L380.9715 290.33360000000005L377.18200000000024 285.5602499999999L378.0914999999999 283.6921L393.27949999999987 279.9232999999999L392.68250000000023 278.5093499999999L388.48599999999976 279.07839999999993L386.32600000000025 276.0281499999999L391.33699999999976 271.66780000000006L397.47149999999976 257.1167L388.1830000000002 252.6505999999999L387.5400000000002 250.68195000000003L389.82849999999985 247.52169999999992L380.32449999999983 237.5712L371.5550000000002 235.3233999999999L367.876 229.47829999999996L365.582 229.26639999999992z">
      <title id="t313">Huitième circonscription du Pas-de-Calais</title>
      <desc id="d313">Cantons de : Aire-sur-la-Lys, Arques, Auchel, Norrent-Fontes, Saint-Omer Nord, Saint-Omer Sud</desc>
    </path><path class="circo" id="id-062-09" d="M532.5707499999999 226.9476499999999L527.2582499999999 231.1663999999999L515.8519999999999 230.6976499999999L511.47699999999986 238.9788999999999L511.32074999999986 239.4476499999999L525.5394999999999 250.8538999999999L522.1019999999999 253.8226499999999L513.6644999999999 251.0101499999999L511.78949999999986 252.2601499999999L507.57074999999986 264.4476499999999L508.19574999999986 268.8226499999999L515.6957499999999 284.6038999999999L518.3519999999999 289.6038999999999L521.9457499999999 297.4163999999999L526.3207499999999 307.4163999999999L530.3832499999999 306.0101499999999L534.2894999999999 307.2601499999999L535.0707499999999 296.1663999999999L532.2582499999999 287.5726499999999L524.1332499999999 284.7601499999999L525.3832499999999 282.5726499999999L532.2582499999999 268.1976499999999L540.8519999999999 260.8538999999999L542.1019999999999 259.9163999999999L546.3207499999999 254.9163999999999L555.0707499999999 254.9163999999999L558.3519999999999 252.5726499999999L548.0394999999999 238.3538999999999L543.8207499999999 233.8226499999999L537.7269999999999 232.2601499999999L532.5707499999999 226.9476499999999zM416.00824999999986 245.5413999999999L411.47699999999986 245.6976499999999L408.35199999999986 249.1351499999999L403.97699999999986 250.3851499999999L397.57074999999986 251.9476499999999L389.75824999999986 247.5726499999999L387.57074999999986 250.6976499999999L388.19574999999986 252.5726499999999L397.41449999999986 257.1038999999999L391.32074999999986 271.6351499999999L386.32074999999986 276.0101499999999L388.50824999999986 279.1351499999999L392.72699999999986 278.5101499999999L393.35199999999986 279.9163999999999L378.03949999999986 283.6663999999999L377.25824999999986 285.5413999999999L381.00824999999986 290.3851499999999L380.38324999999986 293.9788999999999L382.57074999999986 300.2288999999999L376.63324999999986 303.3538999999999L374.44574999999986 307.1038999999999L373.97699999999986 314.6038999999999L373.97699999999986 315.3851499999999L374.91449999999986 316.3226499999999L376.32074999999986 317.5726499999999L384.75824999999986 309.7601499999999L394.44574999999986 315.8538999999999L390.53949999999986 321.0101499999999L389.75824999999986 327.5726499999999L393.35199999999986 327.7288999999999L399.28949999999986 324.1351499999999L404.91449999999986 328.0413999999999L404.60199999999986 330.5413999999999L413.66449999999986 341.1663999999999L419.13324999999986 337.7288999999999L419.91449999999986 331.3226499999999L423.50824999999986 333.3538999999999L433.03949999999986 333.3538999999999L436.00824999999986 329.9163999999999L438.19574999999986 330.0726499999999L443.35199999999986 331.0101499999999L444.28949999999986 335.8538999999999L448.03949999999986 337.7288999999999L455.53949999999986 332.5726499999999L457.41449999999986 336.1663999999999L456.94574999999986 342.2601499999999L465.38324999999986 349.1351499999999L467.72699999999986 347.8851499999999L472.25824999999986 346.9476499999999L474.60199999999986 341.1663999999999L474.60199999999986 333.6663999999999L468.82074999999986 328.6663999999999L469.28949999999986 318.5101499999999L474.13324999999986 314.7601499999999L476.63324999999986 311.3226499999999L476.16449999999986 305.2288999999999L484.91449999999986 297.8851499999999L490.69574999999986 305.3851499999999L493.66449999999986 304.6038999999999L494.91449999999986 300.0726499999999L501.94574999999986 294.2913999999999L502.25824999999986 292.1038999999999L493.66449999999986 285.0726499999999L498.97699999999986 280.5413999999999L502.57074999999986 272.1038999999999L493.97699999999986 275.0726499999999L496.00824999999986 271.4788999999999L494.60199999999986 267.5726499999999L497.25824999999986 264.1351499999999L494.13324999999986 253.6663999999999L485.38324999999986 253.8226499999999L478.50824999999986 249.1351499999999L476.16449999999986 249.2913999999999L474.13324999999986 255.8538999999999L456.63324999999986 261.3226499999999L450.38324999999986 254.9163999999999L449.28949999999986 250.5413999999999L440.53949999999986 251.9476499999999L439.28949999999986 248.1976499999999L437.41449999999986 248.6663999999999L434.44574999999986 251.6351499999999L430.07074999999986 251.6351499999999L428.50824999999986 256.9476499999999L427.41449999999986 254.9163999999999L420.85199999999986 255.2288999999999L418.97699999999986 253.9788999999999L417.57074999999986 252.2601499999999L416.00824999999986 245.5413999999999z">
      <title id="t314">Neuvième circonscription du Pas-de-Calais</title>
      <desc id="d314">Cantons de : Béthune Est, Béthune Nord, Béthune Sud, Laventie, Lillers</desc>
    </path><path class="circo" id="id-062-10" d="M407.851 388.2523499999999L400.59849999999983 383.32629999999995L395.8530000000002 376.4614L394.24199999999985 376.83785L395.0630000000001 379.99515L390.6184999999999 379.1262999999999L379.50300000000027 368.39275L375.4860000000002 367.4267499999999L374.97900000000016 366.78919999999994L375.6975 366.05279999999993L370.5574999999999 361.96595L369.0410000000003 353.15889999999996L370.5739999999997 351.8351L379.5075000000003 344.16765L382.6260000000002 342.77265L383.7529999999998 344.0841499999999L387.414 341.53459999999995L391.30949999999984 343.52959999999996L395.2924999999999 341.7283499999999L397.0164999999997 333.53515000000004L399.13149999999973 334.03774999999996L404.6319999999997 330.6011L413.62149999999986 341.10964999999993L419.0685000000002 337.7065499999999L419.905 331.3911499999999L423.50599999999986 333.3145999999999L433.1079999999997 333.3868L435.9620000000001 329.96415L438.1824999999998 330.12654999999995L443.2785000000001 330.98810000000003L444.21850000000006 335.82475L447.9905000000002 337.74929999999995L455.52099999999996 332.57809999999995L457.4585000000002 336.19159999999994L456.8945000000002 342.3363499999999L465.31600000000026 349.09174999999993L467.68399999999986 347.8105499999999L472.2075000000001 346.96349999999995L474.5749999999998 341.14239999999995L474.5384999999999 333.66280000000006L468.7560000000002 328.65405L469.34649999999976 318.5526L474.2090000000002 314.79329999999993L476.6489999999999 311.2896999999999L476.1394999999999 305.24659999999994L484.9905000000001 297.8917L490.6835000000001 305.3998L489.22050000000013 309.5836L495.81549999999993 314.152L497.02699999999993 325.1178999999999L491.91449999999975 327.79979999999995L494.32849999999974 333.70689999999996L488.2465000000002 350.29945L489.91449999999986 351.7863L487.75800000000004 354.0245L484.0715 356.2263999999999L480.28099999999995 362.0981499999999L486.15250000000003 367.28920000000005L488.0250000000001 372.65694999999994L484.6634999999998 377.9903999999999L486.9965000000002 381.94705L492.90549999999996 385.4835L501.83100000000024 385.9312L502.20550000000003 389.0209L500.7294999999999 390.65469999999993L502.5369999999998 399.01380000000006L500.57349999999985 402.8698L497.2750000000002 405.4550999999999L487.2059999999999 402.79780000000005L478.46400000000017 402.2816499999999L473.37850000000003 398.22485L471.352 399.1678999999999L470.31600000000026 401.14795000000004L473.8375000000002 406.74795000000006L472.0044999999999 410.83169999999996L468.1124999999997 409.4543L465.7645000000002 413.10299999999995L464.8665 412.37700000000007L462.3525000000001 416.12269999999995L453.929 412.94235000000003L453.35050000000024 414.29159999999996L442.46249999999975 412.7356499999999L441.6149999999999 415.08015L434.33899999999994 418.1997L428.9179999999999 414.5315499999999L424.6634999999998 415.74609999999996L420.02250000000004 409.83565L419.48500000000024 409.85630000000003L419.6415000000002 406.95264999999995L415.0635 398.90379999999993L409.92050000000006 397.60525L411.70000000000016 393.6665499999999L409.90650000000016 387.4070499999999L407.851 388.2523499999999z">
      <title id="t315">Dixième circonscription du Pas-de-Calais</title>
      <desc id="d315">Cantons de : Barlin, Bruay-la-Buissière, Divion, Houdain, Nœux-les-Mines, Sains-en-Gohelle</desc>
    </path><path class="circo" id="id-062-11" d="M575.5349999999999 361.08655L577.208 354.46659999999997L580.84 351.77094999999997L576.0104999999999 347.38100000000003L575.5414999999999 340.37735L582.6485000000002 335.04954999999995L592.7685000000002 332.3120999999999L598.0340000000001 333.44960000000003L598.7329999999997 331.7273L611.2795 342.4966999999999L617.278 345.0995999999999L618.3425 346.7663999999999L624.2790000000002 352.74545L621.1444999999998 358.41015L620.7195000000002 361.4130999999999L617.2455000000002 369.7485499999999L620.813 372.27779999999996L620.6799999999998 378.93410000000006L626.422 377.0967999999999L630.0720000000001 378.866L631.4170000000001 377.3210499999999L633.3550000000002 373.30775000000006L638.7295 369.5303L642.0055000000002 367.96279999999996L642.5549999999998 375.75864999999993L648.492 377.8435999999999L645.4894999999999 381.23705L642.8530000000001 389.9075499999999L630.2985000000001 391.5519499999999L626.2765000000002 399.31595000000004L619.9464999999998 404.69624999999996L611.8034999999998 407.054L610.2154999999999 405.88115000000005L605.4514999999998 405.09164999999996L609.6609999999998 410.38235L611.1540000000002 419.1674499999999L602.0004999999998 419.76199999999994L595.754 422.65445L593.5329999999999 419.8013L590.6270000000001 419.44475L583.8909999999998 421.00565000000006L578.4375 415.30215L570.3705000000002 416.6339499999999L568.0795 412.7056499999999L563.8459999999998 411.2869999999999L556.2970000000001 415.47079999999994L555.9345000000002 419.84529999999995L550.4984999999999 419.9806L556.0404999999997 410.6998999999999L553.0110000000002 409.0143499999999L553.9765 404.9394L555.1055000000002 405.7396L556.9645000000003 405.79200000000003L559.9849999999998 404.58519999999993L562.3919999999998 402.80789999999996L565.401 397.9248L565.2460000000002 397.27075L562.0675 397.27199999999993L561.9900000000001 395.8870999999999L565.8335 394.5283999999999L567.1960000000001 395.1013499999999L567.3755 399.89085L577.7285 399.77009999999996L580.4244999999997 403.0185L581.4904999999999 400.1855999999999L579.1890000000001 391.73940000000005L582.2969999999998 381.60804999999993L580.4025000000001 380.9094L578.5075 379.61744999999996L578.981 375.14725L588.5995000000003 365.44325000000003L586.7849999999999 361.23744999999997L576.3125000000002 361.2174499999999L575.5349999999999 361.08655z">
      <title id="t316">Onzième circonscription du Pas-de-Calais</title>
      <desc id="d316">Cantons de : Carvin, Courrières, Hénin-Beaumont, Leforest, Montigny-en-Gohelle, Rouvroy</desc>
    </path><path class="circo" id="id-062-12" d="M488.2465000000002 350.29945L494.32849999999974 333.70689999999996L491.91449999999975 327.79979999999995L497.02699999999993 325.1178999999999L495.81549999999993 314.152L489.22050000000013 309.5836L490.6835000000001 305.3998L493.62649999999974 304.57235L494.86249999999984 300.1430499999999L501.95100000000025 294.30525L502.3270000000002 292.02805L493.5930000000002 285.10245L498.9454999999998 280.58399999999995L502.5725 272.0448L493.9530000000002 275.09745L495.942 271.50239999999997L494.597 267.55264999999997L497.30650000000026 264.1047499999999L506.2810000000002 269.86310000000003L508.12400000000025 268.76345000000003L515.6864999999999 284.60375L518.331 289.6723999999999L521.9164999999998 297.3678L526.3799999999998 307.37104999999997L529.255 315.0768499999999L528.4685000000002 321.17019999999997L530.3325000000001 322.28200000000004L534.837 321.46705L539.2574999999999 323.14914999999996L550.899 321.1507999999999L555.1049999999998 320.36924999999997L563.7945000000002 316.22029999999995L565.6905 315.0949L565.7249999999999 318.22159999999997L563.6130000000003 335.08494999999994L565.7310000000001 335.0335L567.8174999999999 338.7255499999999L571.9279999999998 339.5902L573.2839999999999 337.95709999999997L575.5414999999999 340.37735L576.0104999999999 347.38100000000003L570.0900000000001 352.04144999999994L564.6215000000001 349.79449999999997L563.1824999999998 351.06759999999997L563.229 357.93205L556.8009999999998 364.25344999999993L554.0625 367.0689L555.0099999999998 368.83534999999995L546.1655000000002 374.95769999999993L541.5499999999997 368.1363999999999L535.7395000000002 370.02560000000005L535.0914999999998 366.29914999999994L533.7885 358.90635000000003L527.8039999999999 360.9229499999999L524.504 358.3961499999999L520.1999999999998 354.17009999999993L514.4015000000002 362.69245L513.295 368.47285L510.07600000000025 371.10164999999995L511.2310000000002 377.65275L509.87450000000024 379.41255L516.5114999999997 381.2971L523.2215000000002 379.5774L530.4455000000002 392.03424999999993L538.3564999999999 393.73459999999994L536.207 396.66145L530.6385 397.59119999999996L524.2755 402.91179999999997L517.8424999999999 403.9233999999999L512.2185000000002 409.7942999999999L500.57349999999985 402.8698L502.5369999999998 399.01380000000006L500.7294999999999 390.65469999999993L502.20550000000003 389.0209L501.83100000000024 385.9312L492.90549999999996 385.4835L486.9965000000002 381.94705L484.6634999999998 377.9903999999999L488.0250000000001 372.65694999999994L486.15250000000003 367.28920000000005L480.28099999999995 362.0981499999999L484.0715 356.2263999999999L487.75800000000004 354.0245L489.91449999999986 351.7863L488.2465000000002 350.29945z">
      <title id="t317">Douzième circonscription du Pas-de-Calais</title>
      <desc id="d317">Cantons de : Bully-les-Mines, Cambrin, Douvrin, Liévin Nord, Liévin Sud, Wingles</desc>
    </path></svg>