<svg xmlns="http://www.w3.org/2000/svg" version="1.1" xmlns:xlink="http://www.w3.org/1999/xlink" xmlns:svgjs="http://svgjs.dev/svgjs" width="679.0025000000003" height="590.7728500000002" fill="#eeeeee" stroke="#cccccc" xmlns:sodipodi="http://sodipodi.sourceforge.net/DTD/sodipodi-0.dtd"><path class="circo" id="id-063-01" d="M317.00800000000015 303.4792500000003L313.2655 304.8718500000001L309.11100000000033 297.8602000000001L302.799 296.9099L304.71450000000004 299.1426999999999L298.0215000000004 299.11384999999996L298.3325000000002 293.3577500000001L298.78900000000044 287.1638999999999L295.2170000000001 287.1943500000003L293.84900000000016 288.12995L290.1740000000001 288.4187000000003L288.55549999999994 290.60595000000035L286.78800000000024 288.51710000000026L282.71299999999997 288.02525L293.21150000000046 276.0128000000003L291.7130000000003 275.2756500000004L288.56250000000045 266.76680000000033L280.11600000000044 267.82610000000034L276.3544999999999 258.55345L264.3365 257.3578500000002L262.4810000000002 251.52305000000013L266.35850000000005 247.0510999999999L276.4865000000003 246.43905000000018L278.08250000000044 252.42905000000007L278.50850000000037 254.2917L282.2755000000001 254.6894500000002L290.91300000000047 252.41075000000023L295.8230000000003 254.21240000000012L318.648 250.15690000000006L319.0039999999999 250.02575000000036L326.0759999999999 249.1922500000004L329.70349999999996 250.98000000000013L340.5630000000002 262.5567000000001L344.30499999999995 263.4118000000001L345.52400000000034 261.91565000000026L349.4715000000002 266.0233500000004L349.9485000000004 269.78605000000016L347.6395000000002 280.10725000000036L345.9450000000004 281.4203500000002L339.5775000000003 280.94359999999995L338.58550000000037 286.46860000000004L329.2009999999999 292.84159999999986L329.6030000000002 296.89745000000016L333.14700000000016 301.82095000000004L339.73550000000046 306.85524999999984L346.03499999999997 306.38255000000015L352.9525000000001 301.9519500000001L356.3820000000004 305.4731000000004L353.1245000000001 306.87355000000025L354.82550000000003 314.51250000000016L351.9085000000001 319.6703500000001L348.90600000000006 324.59114999999997L345.856 327.17615000000023L339.3045000000001 322.67515000000003L335.2350000000001 326.6903000000002L332.6060000000001 327.2381999999999L328.23950000000025 321.9877500000001L325.06050000000016 315.5167L324.66300000000047 306.30705000000034L317.00800000000015 303.4792500000003z">
      <title id="t318">Première circonscription du Puy-de-Dôme</title>
      <desc id="d318">Cantons de : Clermont-Ferrand Centre, Clermont-Ferrand Est, Clermont-Ferrand Nord, Clermont-Ferrand Nord-Ouest, Clermont-Ferrand Sud, Cournon-d'Auvergne, Gerzat, Montferrand</desc>
    </path><path class="circo" id="id-063-02" d="M363.1295 118.86905000000013L359.16200000000003 118.1346000000002L358.92449999999997 114.6699000000001L355.24699999999996 114.42180000000008L354.39549999999997 116.09665000000007L351.2685000000005 111.4701500000001L347.679 112.87860000000023L336.36900000000026 112.38175000000012L336.32100000000037 116.59649999999999L328.12850000000026 116.68344999999988L314.43200000000047 113.5862000000003L310.38550000000043 109.24305000000004L308.15 107.48580000000004L302.9590000000002 106.96560000000034L302.36400000000003 98.80290000000002L298.7555000000003 88.92350000000022L296.6705000000002 88.52930000000015L289.60650000000044 93.28090000000032L281.50000000000034 95.65924999999993L276.72150000000045 91.5277500000002L271.1959999999999 94.31870000000004L267.2895 94.60984999999994L263.9070000000004 87.21789999999999L257.66050000000007 81.89520000000016L251.6500000000002 81.08454999999992L248.08950000000038 82.81925000000001L244.96650000000045 78.29800000000034L241.1125000000004 66.55754999999999L239.7489999999999 52.36919999999998L236.07050000000015 54.00720000000035L224.26800000000014 50.64639999999997L222.17150000000004 47.86900000000003L225.69500000000005 45.56530000000009L226.05999999999995 41.231200000000285L222.9955000000001 31.05495000000019L224.32000000000016 26.91120000000012L227.74100000000033 24.263950000000136L233.04850000000044 21.93095000000028L234.17200000000037 20.165450000000078L231.32750000000044 14.845650000000319L237.13600000000042 9.164299999999912L233.2140000000004 8.270800000000236L228.60450000000014 4.428500000000213L220.0210000000004 4.841499999999996L211.77549999999997 2.123650000000339L203.14900000000023 3.399650000000065L200.49500000000023 0L183.24100000000044 9.094850000000179L182.60950000000037 15.044750000000136L185.00300000000038 22.50775000000033L183.1635 23.457400000000348L182.45450000000005 31.683199999999943L179.51850000000036 37.092400000000225L169.47850000000017 35.59790000000021L162.20349999999996 28.169050000000198L158.02650000000028 28.624149999999986L152.32349999999997 22.55814999999984L146.44949999999994 20.38720000000012L142.0245 27.43265000000008L145.38700000000006 37.04819999999984L142.2025000000002 42.079650000000015L142.4150000000003 46.11410000000035L133.74349999999993 46.42775000000029L126.24150000000043 49.679100000000176L122.63599999999997 51.83280000000025L122.04200000000014 60.168199999999956L119.44000000000017 63.40045000000032L117.34200000000044 71.30915000000016L116.40250000000037 72.96465000000012L113.20400000000006 80.63260000000014L109.99600000000044 83.39685000000031L105.90550000000007 84.23260000000028L100.17150000000015 82.13925000000017L90.8945 77.1708000000001L86.43200000000036 79.69500000000039L79.27700000000016 71.63119999999992L75.37950000000023 69.72475000000031L74.23850000000016 72.47645000000034L72.75700000000029 72.36845000000017L71.52100000000019 81.68119999999988L69.06550000000038 84.49445000000026L69.25400000000025 96.35674999999992L69.95750000000044 100.16099999999994L69.10150000000044 104.42074999999988L70.86400000000026 110.72820000000036L78.76400000000046 128.63249999999994L91.24000000000024 137.23490000000027L89.36599999999999 148.0200000000002L87.1795000000003 159.76220000000012L88.73000000000047 165.52165000000002L94.08749999999998 171.9993500000004L92.9970000000003 177.89125000000013L76.79650000000038 183.1188000000003L75.5985000000004 184.80979999999988L76.63049999999998 188.91650000000027L69.53900000000033 193.27080000000024L69.60050000000024 197.32145000000003L66.35800000000017 200.03100000000018L65.52200000000028 206.31880000000024L66.24650000000031 208.31165L72.17550000000017 210.56645000000003L70.20200000000045 211.52365000000032L52.63849999999991 226.44960000000026L48.43250000000012 226.93195000000003L48.26999999999998 233.2447000000002L44.28850000000011 240.44309999999996L40.33150000000035 240.16110000000026L36.66150000000016 236.09055000000012L32.83100000000047 235.97334999999987L31.090000000000373 238.61815000000036L23.54750000000024 238.78600000000006L23.539499999999975 244.73279999999988L26.20049999999992 247.64850000000024L25.416999999999916 251.55534999999986L19.88900000000001 252.00075000000027L18.984500000000253 255.71560000000034L16.278500000000236 258.58090000000004L5.988500000000272 256.86125000000004L0 262.8067500000003L18.208999999999946 286.43875000000037L19.592499999999973 297.87109999999984L24.501000000000204 304.5404500000001L28.362999999999943 303.16914999999995L33.568500000000085 306.46360000000016L35.37650000000042 310.2960999999999L41.31850000000043 311.87479999999994L44.246500000000424 317.4769500000002L56.73350000000028 333.50554999999986L56.06650000000002 341.47260000000017L59.01100000000042 343.49890000000016L58.04700000000025 347.49885000000006L59.78400000000022 351.241L55.351 354.0890999999999L53.77100000000041 357.35794999999996L53.78399999999999 361.22974999999997L58.755500000000325 367.39295000000027L55.64350000000047 372.5968499999999L56.487000000000194 375.82134999999994L53.53300000000047 377.24080000000015L41.76450000000045 376.4013L39.953500000000304 379.8126000000002L38.426000000000045 396.39819999999986L32.919500000000426 400.57050000000004L32.06800000000044 404.4380000000001L36.66150000000016 413.9503000000002L42.586500000000456 420.02380000000016L46.01750000000038 427.42009999999993L54.342000000000326 429.2094500000002L60.14250000000004 417.12590000000034L62.16750000000047 413.94299999999987L68.51600000000019 410.01765000000034L80.07600000000025 397.5864999999999L90.25350000000003 394.9351999999999L95.24050000000045 391.0307499999999L100.7465000000002 389.4667000000004L102.92450000000031 386.3207L110.62850000000026 385.65585L111.42800000000022 383.8411000000002L108.49199999999996 381.18325000000027L120.29200000000003 378.61940000000004L121.23950000000036 376.75445000000025L119.38500000000033 373.0182000000002L126.52350000000013 369.2328500000002L138.60250000000008 375.8712000000003L142.25150000000042 373.9587L142.61000000000024 371.9208000000003L142.63800000000003 359.64969999999994L139.01700000000005 354.65665L141.13200000000006 348.99550000000033L143.22850000000017 348.9224999999999L150.02499999999998 345.02620000000036L152.47100000000046 339.6920499999999L133.36299999999994 336.3886500000001L130.51600000000008 333.16595000000007L128.92899999999997 326.86810000000037L133.2895000000002 319.70200000000034L138.27699999999993 316.02644999999995L139.45400000000006 312.01855000000023L144.40449999999998 303.3732500000002L145.19750000000045 293.85069999999985L151.78650000000005 283.0997000000002L157.83650000000023 284.66139999999996L164.35500000000047 279.78414999999984L172.12450000000047 279.51040000000035L175.87350000000015 275.5585500000001L177.5830000000002 278.7551000000002L175.17350000000022 292.94944999999984L188.7990000000002 298.7009499999999L197.37000000000023 293.64660000000015L196.0110000000003 280.9326500000003L205.79350000000034 277.3193500000002L206.98800000000006 271.29470000000026L217.14950000000044 274.03065000000026L224.00650000000041 278.9142000000004L230.16400000000033 280.34680000000037L236.32650000000012 275.18115000000023L240.6310000000002 271.0714999999999L246.36050000000012 269.53665L242.46350000000007 258.59800000000007L251.09650000000045 253.8701500000002L260.42200000000037 258.2582000000002L264.3365 257.3578500000002L262.4810000000002 251.52305000000013L266.35850000000005 247.0510999999999L276.4865000000003 246.43905000000018L278.08250000000044 252.42905000000007L278.50850000000037 254.2917L282.2755000000001 254.6894500000002L290.91300000000047 252.41075000000023L295.8230000000003 254.21240000000012L318.648 250.15690000000006L319.0039999999999 250.02575000000036L326.0759999999999 249.1922500000004L326.60950000000014 236.92740000000015L332.30200000000025 236.8895500000002L334.49900000000014 231.7881L338.3570000000003 231.67025000000024L335.36550000000034 216.91095000000018L332.072 213.83444999999995L331.13249999999994 211.9292999999999L333.7819999999999 203.86455000000012L335.59450000000027 202.76295000000005L331.15800000000036 197.4651L334.4165000000004 189.8828500000002L336.37500000000045 189.95315000000005L338.66450000000043 186.7824999999999L344.0115000000003 187.91830000000004L344.70650000000035 184.05599999999993L345.44050000000027 184.58605000000034L347.8970000000004 187.5539500000002L355.7985000000002 187.16825000000028L359.43200000000047 188.62124999999992L364.4425000000001 186.53369999999995L366.3485000000003 185.89L369.15400000000034 188.6787000000004L380.84550000000036 185.79035000000033L380.7325000000003 197.41985L391.1495000000002 197.16195000000027L399.36450000000036 196.26545000000021L401.1795000000001 185.88144999999997L401.80600000000027 184.3482499999999L410.13900000000035 182.45180000000005L411.76900000000046 176.28735000000006L420.82899999999995 170.91625000000022L421.2560000000002 168.80865000000028L426.01 169.98845000000017L426.9875000000002 166.68319999999994L441.20450000000005 168.14504999999997L447.53300000000024 160.4571500000003L462.83450000000016 155.4341500000004L461.2035000000003 150.78425000000038L457.3660000000001 152.35389999999995L458.7495000000001 140.2926500000001L456.93250000000035 134.42724999999996L460.6080000000003 132.7398500000004L455.84100000000035 126.45305000000008L454.46000000000026 120.99625000000003L452.8810000000004 118.30060000000003L449.1360000000003 120.44685000000015L444.95949999999993 120.12040000000013L440.16099999999994 115.78055000000006L438.494 111.81629999999984L431.24450000000024 116.45680000000027L422.8365000000002 117.8264999999999L416.98500000000024 124.00345000000016L401.22550000000047 130.36355000000015L401.54150000000016 124.57420000000013L394.8320000000001 121.16039999999998L388.304 118.95600000000002L388.6189999999999 117.08775000000003L384.7534999999999 118.67790000000014L380.96000000000004 116.97625000000016L377.303 118.82740000000013L369.14450000000045 117.07365000000038L363.1295 118.86905000000013z">
      <title id="t319">Deuxième circonscription du Puy-de-Dôme</title>
      <desc id="d319">Cantons de : Aigueperse, Bourg-Lastic, Combronde, Herment, Manzat, Menat, Montaigut, Pionsat, Pontaumur, Pontgibaud, Randan, Riom Est, Riom Ouest, Saint-Gervais-d'Auvergne</desc>
    </path><path class="circo" id="id-063-03" d="M259.1175000000004 586.5234000000004L246.4915000000002 578.8001000000003L238.26400000000035 577.4439999999998L231.22950000000003 564.8716999999999L228.01900000000046 554.9000000000001L228.082 552.6787999999999L226.2620000000004 545.3658000000001L227.25700000000018 541.7810500000002L223.36550000000045 542.7598499999999L219.7800000000001 540.9068500000001L214.60900000000038 535.0460000000004L209.3594999999999 532.7103L206.34749999999997 537.3845499999999L201.01550000000032 534.3858499999999L197.3580000000004 527.1180000000004L187.029 528.0766499999999L181.6220000000004 522.2408000000001L170.72949999999992 528.2194500000003L168.784 531.8159500000002L166.83250000000044 531.1781500000001L158.98300000000006 530.6558999999999L153.8575000000003 527.75645L150.13950000000023 526.74395L144.6165000000002 528.6703L138.76850000000047 533.69845L134.53750000000014 529.1369000000003L132.39750000000015 523.4174999999999L124.83699999999999 516.9712500000003L124.07050000000027 508.7416999999999L128.35849999999994 503.19510000000037L127.6925 499.6586000000002L121.61350000000027 499.3993499999999L115.77850000000012 501.4145000000002L111.92499999999995 496.5990500000004L106.3390000000004 494.76965000000007L100.52099999999996 495.89879999999994L98.67000000000019 481.71114999999986L92.54350000000045 490.04050000000007L88.7280000000004 491.47275000000036L82.73650000000032 490.5821500000002L75.60050000000047 483.2001500000001L67.87900000000036 484.5260000000002L62.79600000000016 487.66054999999994L66.27749999999992 474.64120000000037L56.62500000000023 472.57540000000006L51.16700000000037 474.9285000000003L53.49649999999997 466.2402000000003L51.41650000000027 461.75940000000026L51.65900000000022 457.77165000000025L55.39700000000039 450.4298499999999L53.91549999999995 446.80110000000013L55.20500000000027 443.0512500000003L53.959500000000276 437.0321999999999L55.305999999999926 435.46654999999987L54.342000000000326 429.2094500000002L60.14250000000004 417.12590000000034L62.16750000000047 413.94299999999987L68.51600000000019 410.01765000000034L80.07600000000025 397.5864999999999L90.25350000000003 394.9351999999999L95.24050000000045 391.0307499999999L100.7465000000002 389.4667000000004L102.92450000000031 386.3207L110.62850000000026 385.65585L111.42800000000022 383.8411000000002L108.49199999999996 381.18325000000027L120.29200000000003 378.61940000000004L121.23950000000036 376.75445000000025L119.38500000000033 373.0182000000002L126.52350000000013 369.2328500000002L138.60250000000008 375.8712000000003L142.25150000000042 373.9587L142.61000000000024 371.9208000000003L142.63800000000003 359.64969999999994L139.01700000000005 354.65665L141.13200000000006 348.99550000000033L143.22850000000017 348.9224999999999L150.02499999999998 345.02620000000036L152.47100000000046 339.6920499999999L133.36299999999994 336.3886500000001L130.51600000000008 333.16595000000007L128.92899999999997 326.86810000000037L133.2895000000002 319.70200000000034L138.27699999999993 316.02644999999995L139.45400000000006 312.01855000000023L144.40449999999998 303.3732500000002L145.19750000000045 293.85069999999985L151.78650000000005 283.0997000000002L157.83650000000023 284.66139999999996L164.35500000000047 279.78414999999984L172.12450000000047 279.51040000000035L175.87350000000015 275.5585500000001L177.5830000000002 278.7551000000002L175.17350000000022 292.94944999999984L188.7990000000002 298.7009499999999L197.37000000000023 293.64660000000015L196.0110000000003 280.9326500000003L205.79350000000034 277.3193500000002L206.98800000000006 271.29470000000026L217.14950000000044 274.03065000000026L224.00650000000041 278.9142000000004L230.16400000000033 280.34680000000037L236.32650000000012 275.18115000000023L240.6310000000002 271.0714999999999L246.36050000000012 269.53665L242.46350000000007 258.59800000000007L251.09650000000045 253.8701500000002L260.42200000000037 258.2582000000002L264.3365 257.3578500000002L276.3544999999999 258.55345L280.11600000000044 267.82610000000034L288.56250000000045 266.76680000000033L291.7130000000003 275.2756500000004L293.21150000000046 276.0128000000003L282.71299999999997 288.02525L286.78800000000024 288.51710000000026L288.55549999999994 290.60595000000035L290.1740000000001 288.4187000000003L293.84900000000016 288.12995L295.2170000000001 287.1943500000003L298.78900000000044 287.1638999999999L298.0215000000004 299.11384999999996L298.4100000000001 304.7694999999999L301.91400000000044 305.84835L303.21150000000046 304.44605000000024L303.2400000000001 311.7901499999999L304.6870000000001 312.95525L298.0005 314.40530000000024L297.4740000000003 316.1159500000002L290.65800000000024 328.32425L278.3140000000003 330.1517000000001L274.00750000000016 333.23045000000036L279.4085000000001 336.0223000000002L283.03150000000016 334.55610000000036L287.0100000000002 339.1626000000002L297.17300000000023 341.1781000000002L302.8615000000002 338.66420000000005L302.58550000000014 332.51405000000034L303.3800000000002 330.5912000000001L305.4509999999999 330.46275000000037L309.6890000000002 335.05089999999996L310.19300000000044 341.29920000000027L307.8295000000003 344.2546500000003L307.7280000000002 350.4452500000002L310.8985000000001 355.5113L312.7805000000001 366.6918500000003L316.4910000000003 376.9575000000003L314.01550000000043 382.86990000000003L310.52099999999996 385.2614L315.06100000000004 397.3666000000003L322.6365000000004 402.2264000000001L336.8979999999999 392.97210000000007L342.5815 401.2083000000001L342.4164999999999 401.77689999999984L341.7795000000001 405.9267L344.3055000000004 418.2473500000003L341.0355000000004 418.53999999999985L337.5645000000003 418.5151000000002L335.27450000000044 421.59865000000025L330.93950000000007 418.01964999999996L328.4175000000005 422.60640000000024L329.47450000000003 427.8613999999999L329.02600000000007 431.53885L325.35450000000026 431.53160000000014L323.6935 437.33195000000023L327.35749999999996 443.2891000000001L327.4055000000004 443.5894000000002L320.95050000000015 448.26430000000016L319.18499999999995 452.11185L309.88 457.0336000000003L302.235 463.98529999999994L300.1185000000004 463.7804L298.5880000000003 464.60315000000037L299.4820000000004 467.8359499999999L302.842 466.0552999999999L307.90400000000034 468.6277000000001L315.3860000000003 468.3991500000002L318.09650000000033 471.1551000000003L321.5975000000003 472.6239000000004L321.87700000000007 474.51329999999984L321.0160000000002 478.07000000000016L319.1120000000001 478.20335L318.9295000000004 480.2167000000003L320.8370000000002 480.86940000000027L324.3705 478.93849999999986L332.39450000000033 478.6712499999999L335.0935000000004 480.74029999999993L329.9725000000001 487.3533500000002L329.178 495.4802000000001L334.3135000000001 499.0535L340.2265 497.3162500000001L343.83200000000045 499.01594999999986L345.59050000000013 504.4851L342.17750000000024 506.54290000000003L345.6495000000001 513.3834999999999L344.255 521.2136000000004L339.66499999999996 527.8406000000001L350.28099999999995 536.9017000000002L351.84000000000026 540.6322L349.97900000000016 542.3266999999998L346.89549999999997 540.0526500000001L338.05650000000014 544.6339L335.41650000000004 547.8083000000004L337.08050000000014 551.3362000000001L324.38350000000014 552.0498500000002L319.15999999999997 550.0195500000001L315.6940000000003 551.9198L304.0865000000002 550.0891000000001L301.09399999999994 551.5012999999999L297.66650000000027 558.9460000000003L289.8665 561.05615L286.9505000000004 563.9987000000002L288.03950000000043 572.2349000000003L284.27700000000016 577.0209499999999L285.34400000000005 578.8285000000002L275.71000000000026 584.0462500000001L270.2385000000004 585.6546000000003L267.8784999999999 590.7728500000002L259.7570000000002 588.5575499999999L259.1175000000004 586.5234000000004z">
      <title id="t320">Troisième circonscription du Puy-de-Dôme</title>
      <desc id="d320">Cantons de : Ardes, Beaumont, Besse-et-Saint-Anastaise, Chamalières, Champeix, Clermont-Ferrand Ouest, Clermont-Ferrand Sud-Ouest, Rochefort-Montagne, Royat, Saint-Amant-Tallande, Tauves, La Tour-d'Auvergne</desc>
    </path><path class="circo" id="id-063-04" d="M345.856 327.17615000000023L339.3045000000001 322.67515000000003L335.2350000000001 326.6903000000002L332.6060000000001 327.2381999999999L328.23950000000025 321.9877500000001L325.06050000000016 315.5167L324.66300000000047 306.30705000000034L317.00800000000015 303.4792500000003L313.2655 304.8718500000001L309.11100000000033 297.8602000000001L302.799 296.9099L304.71450000000004 299.1426999999999L298.0215000000004 299.11384999999996L298.4100000000001 304.7694999999999L301.91400000000044 305.84835L303.21150000000046 304.44605000000024L303.2400000000001 311.7901499999999L304.6870000000001 312.95525L298.0005 314.40530000000024L297.4740000000003 316.1159500000002L290.65800000000024 328.32425L278.3140000000003 330.1517000000001L274.00750000000016 333.23045000000036L279.4085000000001 336.0223000000002L283.03150000000016 334.55610000000036L287.0100000000002 339.1626000000002L297.17300000000023 341.1781000000002L302.8615000000002 338.66420000000005L302.58550000000014 332.51405000000034L303.3800000000002 330.5912000000001L305.4509999999999 330.46275000000037L309.6890000000002 335.05089999999996L310.19300000000044 341.29920000000027L307.8295000000003 344.2546500000003L307.7280000000002 350.4452500000002L310.8985000000001 355.5113L312.7805000000001 366.6918500000003L316.4910000000003 376.9575000000003L314.01550000000043 382.86990000000003L310.52099999999996 385.2614L315.06100000000004 397.3666000000003L322.6365000000004 402.2264000000001L336.8979999999999 392.97210000000007L342.5815 401.2083000000001L342.4164999999999 401.77689999999984L341.7795000000001 405.9267L344.3055000000004 418.2473500000003L341.0355000000004 418.53999999999985L337.5645000000003 418.5151000000002L335.27450000000044 421.59865000000025L330.93950000000007 418.01964999999996L328.4175000000005 422.60640000000024L329.47450000000003 427.8613999999999L329.02600000000007 431.53885L325.35450000000026 431.53160000000014L323.6935 437.33195000000023L327.35749999999996 443.2891000000001L327.4055000000004 443.5894000000002L320.95050000000015 448.26430000000016L319.18499999999995 452.11185L309.88 457.0336000000003L302.235 463.98529999999994L300.1185000000004 463.7804L298.5880000000003 464.60315000000037L299.4820000000004 467.8359499999999L302.842 466.0552999999999L307.90400000000034 468.6277000000001L315.3860000000003 468.3991500000002L318.09650000000033 471.1551000000003L321.5975000000003 472.6239000000004L321.87700000000007 474.51329999999984L321.0160000000002 478.07000000000016L319.1120000000001 478.20335L318.9295000000004 480.2167000000003L320.8370000000002 480.86940000000027L324.3705 478.93849999999986L332.39450000000033 478.6712499999999L335.0935000000004 480.74029999999993L329.9725000000001 487.3533500000002L329.178 495.4802000000001L334.3135000000001 499.0535L340.2265 497.3162500000001L343.83200000000045 499.01594999999986L345.59050000000013 504.4851L342.17750000000024 506.54290000000003L345.6495000000001 513.3834999999999L344.255 521.2136000000004L339.66499999999996 527.8406000000001L350.28099999999995 536.9017000000002L351.84000000000026 540.6322L353.02850000000035 540.9462000000002L354.79300000000023 533.2694500000002L360.4740000000004 525.7332000000002L365.0274999999999 528.8094999999998L370.6785000000002 528.0814500000002L382.2995000000003 522.7208000000002L384.0980000000002 519.6911499999999L385.80250000000035 511.3515000000001L387.53450000000043 510.2240499999999L391.4160000000004 511.31820000000005L395.7679999999999 515.5503500000003L400.4650000000004 524.1710499999999L405.11150000000043 513.5506000000004L404.96550000000013 509.54769999999996L408.35200000000043 510.5934000000002L411.3820000000004 508.73625000000004L416.2365 515.5249000000003L421.6075000000001 521.78135L425.5465000000004 520.5356L429.2700000000002 522.3097999999999L432.8865000000002 520.4854L438.7020000000001 524.1898000000003L441.76350000000014 521.4811500000002L453.84100000000046 522.2795500000001L455.85950000000025 521.7734999999999L457.11550000000045 517.8993000000003L463.85050000000035 510.1980000000003L473.13900000000046 505.75199999999995L472.85950000000014 504.33249999999987L476.4805000000001 496.6214500000001L475.8375000000001 495.20460000000014L474.07100000000014 497.6209499999999L460.06050000000016 496.8141000000003L452.8365000000002 493.7985500000002L455.4235 489.2528500000003L463.93850000000043 483.9672999999999L469.48050000000023 486.59899999999993L470.5475000000001 482.9444000000001L480.4290000000003 481.44209999999987L481.05099999999993 479.51975000000004L475.7405 471.25935000000027L477.0915000000002 470.1603L476.5730000000002 466.1220000000003L479.80549999999994 463.60455L474.72000000000037 457.22645L474.70500000000015 449.27975000000004L471.08949999999993 445.0120500000003L473.13900000000046 439.5667500000002L472.23000000000013 437.7361000000002L464.72800000000007 439.97330000000034L449.5925 434.45314999999994L448.4649999999999 429.6319L449.62850000000003 422.22090000000037L449.25299999999993 416.2868000000003L450.70400000000006 410.3510499999999L442.5 404.4210000000004L441.9715000000002 402.3885999999999L445.40700000000015 397.29854999999986L444.15200000000027 391.4865000000003L440.0355000000002 387.13014999999984L434.07250000000033 385.27660000000026L432.16300000000047 371.49460000000033L430.23349999999994 367.8660000000002L431.07200000000034 361.77525L424.59900000000005 353.8014000000004L416.65250000000015 354.3871999999999L414.29550000000006 357.5969500000002L410.75500000000034 358.27634999999987L409.3025 362.02699999999993L409.0690000000001 363.0116000000004L401.3640000000004 362.5403L396.7455000000001 358.6930000000001L384.63900000000024 358.2733000000002L380.23349999999994 350.72024999999996L378.1800000000004 339.9081000000001L380.87500000000034 331.8177000000003L380.97399999999993 325.3765500000003L380.8924999999999 325.23955L380.36950000000047 323.32965L387.13850000000036 316.5227500000003L390.69150000000036 317.89105000000006L396.82950000000005 312.49175000000037L398.9005000000003 312.6976000000002L403.86950000000013 316.4423500000004L405.93150000000037 316.2097499999999L409.61850000000027 320.42110000000037L417.4430000000001 309.0450500000003L415.7065 303.78690000000006L420.9200000000004 297.6341000000002L431.34299999999996 298.7612999999999L434.3225000000001 295.77020000000005L435.1920000000001 276.82245000000023L431.22150000000033 275.3086000000002L424.9180000000001 276.27620000000036L422.7125000000001 281.9634500000001L419.53149999999994 284.78634999999997L414.92700000000013 281.8446L404.76699999999994 284.3456500000002L401.2515000000002 282.4865L395.16099999999994 284.14085L393.5680000000002 280.22609999999986L396.148 272.78615L395.12550000000033 267.0272L390.99649999999997 260.5249500000002L390.5754999999999 254.59614999999985L388.7560000000002 253.5284999999999L380.37800000000004 265.80685000000017L376.75749999999994 268.0785500000002L376.6840000000002 270.23120000000006L382.2765000000004 282.75225000000034L380.0880000000001 285.70245L370.24400000000014 288.11665000000005L370.6560000000002 294.16030000000035L368.4665000000001 299.8592000000002L356.3820000000004 305.4731000000004L353.1245000000001 306.87355000000025L354.82550000000003 314.51250000000016L351.9085000000001 319.6703500000001L348.90600000000006 324.59114999999997L345.856 327.17615000000023z">
      <title id="t321">Quatrième circonscription du Puy-de-Dôme</title>
      <desc id="d321">Cantons de : Aubière, Clermont-Ferrand Sud-Est, Issoire, Jumeaux, Saint-Germain-Lembron, Sauxillanges, Vertaizon, Veyre-Monton, Vic-le-Comte, Commune de Pérignat-sur-Allier</desc>
    </path><path class="circo" id="id-063-05" d="M597.7840000000003 356.5471500000001L590.5815000000001 346.14874999999984L589.8470000000003 340.3000000000003L592.6195000000001 333.3181000000002L590.3395 328.5209000000003L591.9985000000003 325.3905500000002L586.5250000000003 322.95705L581.3390000000004 312.0325500000001L579.307 311.8815000000001L577.1365000000003 315.3437500000001L569.1275000000002 306.56960000000026L570.5425000000002 303.65895000000023L571.6785000000004 302.69274999999993L573.7455 299.1354000000001L569.7065000000003 294.12064999999984L557.774 289.5233000000002L554.7980000000001 286.429L555.5310000000003 282.73030000000006L562.9755 278.7124L569.0365000000003 261.04160000000036L565.7350000000002 248.96344999999997L566.431 248.31605000000025L569.1595000000001 245.23079999999993L569.7325000000001 241.2627500000002L566.2270000000001 241.8401L564.205 236.44090000000006L572.0930000000004 236.0239999999999L576.225 231.83570000000032L576.9995 228.1537000000003L580.7155 227.01255000000003L574.7065000000003 213.74040000000036L569.9285000000003 209.83949999999993L566.6810000000004 204.58860000000016L555.0645000000003 199.70835000000022L555.0110000000001 199.57024999999987L550.1795000000004 193.71635000000026L548.2634999999999 184.2926L543.4280000000001 181.1128500000001L531.7495000000002 178.50025000000016L528.7035000000003 181.16790000000037L526.1020000000002 167.32484999999997L520.8420000000001 158.88795000000016L515.5965000000003 148.20175000000006L510.1505000000003 142.55505000000028L505.66100000000006 146.43550000000005L495.797 146.10009999999988L495.1355000000001 148.01874999999995L493.3030000000002 147.65890000000013L489.9950000000001 147.82295000000033L488.89850000000024 144.29945000000032L487.03400000000045 143.74615000000006L481.40600000000006 144.8882500000002L481.28900000000044 148.5248999999999L466.94050000000004 148.59280000000012L461.2035000000003 150.78425000000038L462.83450000000016 155.4341500000004L447.53300000000024 160.4571500000003L441.20450000000005 168.14504999999997L426.9875000000002 166.68319999999994L426.01 169.98845000000017L421.2560000000002 168.80865000000028L420.82899999999995 170.91625000000022L411.76900000000046 176.28735000000006L410.13900000000035 182.45180000000005L401.80600000000027 184.3482499999999L401.1795000000001 185.88144999999997L399.36450000000036 196.26545000000021L391.1495000000002 197.16195000000027L380.7325000000003 197.41985L380.84550000000036 185.79035000000033L369.15400000000034 188.6787000000004L366.3485000000003 185.89L364.4425000000001 186.53369999999995L359.43200000000047 188.62124999999992L355.7985000000002 187.16825000000028L347.8970000000004 187.5539500000002L345.44050000000027 184.58605000000034L344.70650000000035 184.05599999999993L344.0115000000003 187.91830000000004L338.66450000000043 186.7824999999999L336.37500000000045 189.95315000000005L334.4165000000004 189.8828500000002L331.15800000000036 197.4651L335.59450000000027 202.76295000000005L333.7819999999999 203.86455000000012L331.13249999999994 211.9292999999999L332.072 213.83444999999995L335.36550000000034 216.91095000000018L338.3570000000003 231.67025000000024L334.49900000000014 231.7881L332.30200000000025 236.8895500000002L326.60950000000014 236.92740000000015L326.0759999999999 249.1922500000004L329.70349999999996 250.98000000000013L340.5630000000002 262.5567000000001L344.30499999999995 263.4118000000001L345.52400000000034 261.91565000000026L349.4715000000002 266.0233500000004L349.9485000000004 269.78605000000016L347.6395000000002 280.10725000000036L345.9450000000004 281.4203500000002L339.5775000000003 280.94359999999995L338.58550000000037 286.46860000000004L329.2009999999999 292.84159999999986L329.6030000000002 296.89745000000016L333.14700000000016 301.82095000000004L339.73550000000046 306.85524999999984L346.03499999999997 306.38255000000015L352.9525000000001 301.9519500000001L356.3820000000004 305.4731000000004L368.4665000000001 299.8592000000002L370.6560000000002 294.16030000000035L370.24400000000014 288.11665000000005L380.0880000000001 285.70245L382.2765000000004 282.75225000000034L376.6840000000002 270.23120000000006L376.75749999999994 268.0785500000002L380.37800000000004 265.80685000000017L388.7560000000002 253.5284999999999L390.5754999999999 254.59614999999985L390.99649999999997 260.5249500000002L395.12550000000033 267.0272L396.148 272.78615L393.5680000000002 280.22609999999986L395.16099999999994 284.14085L401.2515000000002 282.4865L404.76699999999994 284.3456500000002L414.92700000000013 281.8446L419.53149999999994 284.78634999999997L422.7125000000001 281.9634500000001L424.9180000000001 276.27620000000036L431.22150000000033 275.3086000000002L435.1920000000001 276.82245000000023L434.3225000000001 295.77020000000005L431.34299999999996 298.7612999999999L420.9200000000004 297.6341000000002L415.7065 303.78690000000006L417.4430000000001 309.0450500000003L409.61850000000027 320.42110000000037L405.93150000000037 316.2097499999999L403.86950000000013 316.4423500000004L398.9005000000003 312.6976000000002L396.82950000000005 312.49175000000037L390.69150000000036 317.89105000000006L387.13850000000036 316.5227500000003L380.36950000000047 323.32965L380.8924999999999 325.23955L380.97399999999993 325.3765500000003L380.87500000000034 331.8177000000003L378.1800000000004 339.9081000000001L380.23349999999994 350.72024999999996L384.63900000000024 358.2733000000002L396.7455000000001 358.6930000000001L401.3640000000004 362.5403L409.0690000000001 363.0116000000004L409.3025 362.02699999999993L410.75500000000034 358.27634999999987L414.29550000000006 357.5969500000002L416.65250000000015 354.3871999999999L424.59900000000005 353.8014000000004L431.07200000000034 361.77525L430.23349999999994 367.8660000000002L432.16300000000047 371.49460000000033L434.07250000000033 385.27660000000026L440.0355000000002 387.13014999999984L444.15200000000027 391.4865000000003L445.40700000000015 397.29854999999986L441.9715000000002 402.3885999999999L442.5 404.4210000000004L450.70400000000006 410.3510499999999L449.25299999999993 416.2868000000003L449.62850000000003 422.22090000000037L448.4649999999999 429.6319L449.5925 434.45314999999994L464.72800000000007 439.97330000000034L472.23000000000013 437.7361000000002L473.13900000000046 439.5667500000002L471.08949999999993 445.0120500000003L474.70500000000015 449.27975000000004L474.72000000000037 457.22645L479.80549999999994 463.60455L476.5730000000002 466.1220000000003L477.0915000000002 470.1603L475.7405 471.25935000000027L481.05099999999993 479.51975000000004L480.4290000000003 481.44209999999987L470.5475000000001 482.9444000000001L469.48050000000023 486.59899999999993L463.93850000000043 483.9672999999999L455.4235 489.2528500000003L452.8365000000002 493.7985500000002L460.06050000000016 496.8141000000003L474.07100000000014 497.6209499999999L475.8375000000001 495.20460000000014L476.4805000000001 496.6214500000001L472.85950000000014 504.33249999999987L473.13900000000046 505.75199999999995L475.53150000000016 515.8052500000002L481.86950000000024 521.1941999999999L493.0600000000004 523.67955L496.32900000000006 526.1877500000003L500.01149999999996 524.6933999999999L502.06350000000043 521.0943500000002L507.08349999999996 532.9082L510.0415000000004 538.2914500000004L508.6700000000002 541.6806000000003L511.1930000000001 548.4482000000003L522.6769999999999 559.8904500000003L526.7285000000004 559.4484499999999L532.4785000000003 553.6796500000003L534.3870000000004 547.95525L541.9580000000002 544.8861500000004L543.732 536.6700000000003L545.9750000000003 533.4793999999999L549.8610000000002 533.0498L551.1189999999999 534.5649500000002L555.4330000000004 538.6725999999999L559.3060000000003 539.6981L557.0699999999999 545.1093500000002L560.3555 546.26105L565.541 546.1388500000004L571.2280000000004 547.0304500000003L575.496 550.9043500000001L581.3745 550.3830500000004L582.6295000000005 549.1316499999999L590.0715000000002 553.01625L591.7070000000001 551.7583500000001L595.5155000000002 547.5754000000001L594.6505000000002 539.5480500000002L596.4555000000001 531.6985499999998L602.6460000000003 527.5488999999999L607.7340000000004 530.8822000000004L609.7995000000003 534.3913000000003L615.5355000000003 532.7133500000002L615.9660000000002 542.8735499999999L619.3330000000003 540.7356500000003L622.543 545.7384500000001L631.7850000000004 549.4564500000001L641.508 548.4494000000001L639.2715000000004 540.7272L640.2785 532.30975L638.5155000000003 526.31665L641.9895000000002 516.5390000000002L645.6190000000004 514.6397999999999L648.5150000000004 509.0136000000001L650.4430000000002 509.5706999999999L658.4675000000004 504.32645000000036L669.495 500.4236000000003L669.5085 499.76945L668.1710000000004 496.1743999999999L674.5305000000002 493.25210000000027L671.9740000000002 490.1926000000003L673.689 486.50930000000017L671.32 479.1452000000004L679.0025000000003 470.2779000000004L678.3135000000004 464.89120000000014L673.5240000000005 461.81759999999997L670.523 461.55685000000005L670.1670000000001 459.9468999999999L667.4960000000004 453.5353500000002L662.3425000000003 435.5697500000002L665.7615000000004 428.03015000000016L661.5730000000002 423.8253500000002L659.3985000000004 418.3377999999999L656.2810000000002 413.7402000000003L646.046 403.21830000000034L634.8025000000001 398.96614999999997L629.2935 393.1653L625.9980000000002 391.77205000000015L624.2770000000002 386.0186500000003L615.8840000000004 384.79525000000024L610.2760000000001 381.6768000000002L608.9070000000004 378.4765500000003L607.6400000000001 372.83034999999984L602.4150000000003 367.1424000000002L597.7840000000003 356.5471500000001z">
      <title id="t322">Cinquième circonscription du Puy-de-Dôme</title>
      <desc id="d322">Cantons de : Ambert, Arlanc, Billom (moins la commune de Pérignat-sur-Allier), Châteldon, Courpière, Cunlhat, Ennezat, Lezoux, Maringues, Olliergues, Pont-du-Château, Saint-Amant-Roche-Savine, Saint-Anthème, Saint-Germain-l'Herm, Saint-Dier-d'Auvergne, Saint-Rémy-sur-Durolle, Thiers, Viverols</desc>
    </path></svg>