<svg xmlns="http://www.w3.org/2000/svg" version="1.1" xmlns:xlink="http://www.w3.org/1999/xlink" xmlns:svgjs="http://svgjs.dev/svgjs" width="771.2574999999997" height="476.66650000000004" fill="#eeeeee" stroke="#cccccc" xmlns:sodipodi="http://sodipodi.sourceforge.net/DTD/sodipodi-0.dtd"><path class="circo" id="id-064-01" d="M536.3905 162.42999999999938L544.0355 175.86749999999938L551.857 173.33699999999908L558.5225000000003 179.44149999999922L562.0625000000001 180.60999999999922L561.3485000000003 177.10849999999937L564.1759999999999 175.01800000000003L563.6505 173.31099999999992L562.9129999999998 169.86149999999952L567.7945 164.8714999999993L574.1125 167.95549999999935L577.0755000000003 172.7329999999995L583.603 176.09849999999938L586.6180000000003 177.86049999999932L595.2965 176.94399999999973L595.2969999999999 180.26149999999916L598.0200000000002 182.0894999999996L597.4644999999998 199.87199999999916L596.635 209.86249999999927L602.9930000000002 217.47349999999983L609.819 214.9389999999994L614.9090000000001 215.02700000000004L617.5465000000003 212.79349999999909L620.7285000000002 218.1574999999998L628.3005000000003 207.63299999999958L626.6135000000003 200.96450000000004L622.165 197.75800000000004L618.331 191.61949999999933L617.4425000000002 190.91099999999983L615.1325000000003 187.53999999999905L615.1384999999999 185.2004999999997L605.9255000000002 181.37249999999995L604.9720000000002 179.64650000000006L606.5019999999998 178.40849999999932L605.4735 173.8054999999997L609.264 172.19650000000001L609.2075 169.64149999999904L604.2624999999998 168.54549999999904L606.0860000000002 162.74299999999926L607.7095000000003 159.3864999999994L605.9764999999999 159.02099999999905L605.575 155.29949999999985L614.0735000000001 158.39599999999905L616.771 153.42649999999935L613.7855000000002 146.1654999999996L615.8910000000003 142.87699999999973L613.2755000000003 139.91449999999986L610.0245000000001 142.03699999999913L602.4815000000001 142.99049999999966L603.1799999999998 146.46549999999934L597.6165000000003 146.35149999999953L597.5780000000003 141.63299999999936L595.7634999999999 141.64249999999925L590.4180000000002 138.92549999999915L595.1120000000003 130.07349999999974L595.5975000000001 118.6099999999999L605.4764999999998 117.42799999999988L608.4660000000002 114.76099999999974L605.7420000000002 105.48999999999978L601.9454999999999 101.28999999999905L600.0495000000001 101.51849999999968L596.2259999999998 101.85699999999997L591.5690000000001 98.44200000000001L584.3315000000001 96.22049999999945L582.1125000000001 101.14399999999932L575.7504999999998 104.33999999999969L572.1379999999999 101.43149999999991L575.9910000000002 97.16849999999909L575.3160000000003 93.4764999999993L578.0964999999998 88.30049999999915L581.4935000000003 83.63449999999943L583.2825000000003 84.42649999999958L586.2004999999999 82.16499999999996L570.9165000000002 74.5309999999995L567.6440000000002 78.54499999999916L564.1480000000001 78.03399999999897L566.0660000000001 83.09099999999944L562.5450000000001 90.04149999999981L563.0065000000002 103.95599999999945L563.6894999999998 108.65199999999959L553.5379999999998 114.6634999999992L549.9270000000001 112.99549999999954L549.3515000000002 114.47499999999991L544.8575 115.41200000000003L542.7839999999998 118.24899999999957L545.0735000000003 120.76449999999909L543.4750000000003 126.14949999999908L537.3784999999998 129.81349999999907L537.0755000000003 134.92899999999963L534.6449999999999 137.4804999999992L540.1904999999999 142.11149999999975L537.0550000000003 149.90949999999998L533.0175000000003 155.2049999999997L536.7000000000002 159.13299999999936L536.3905 162.42999999999938z">
      <title id="t323">Première circonscription des Pyrénées-Atlantiques</title>
      <desc id="d323">Cantons : Billère, Lescar, Pau Centre, Pau Nord, Pau Ouest</desc>
    </path><path class="circo" id="id-064-02" d="M710.2820000000003 160.90149999999994L710.3899999999999 154.84299999999962L712.9705000000001 151.68999999999983L721.9830000000002 154.00199999999927L720.7254999999998 139.0924999999993L715.1580000000001 139.5429999999999L713.4789999999998 132.435999999999L712.4590000000001 129.97049999999945L708.673 121.6014999999993L695.0905 128.50849999999923L691.3485000000003 127.67949999999928L690.5914999999999 120.01199999999926L686.7360000000002 118.74049999999897L683.7675000000002 113.27249999999935L679.0590000000003 109.22749999999951L679.6895000000001 116.9234999999992L674.5835 119.54299999999989L668.5014999999999 115.003999999999L663.974 107.82499999999914L662.4385000000001 101.44499999999994L660.8364999999998 95.64049999999952L650.1920000000001 99.97899999999959L647.613 102.75199999999927L642.7145000000002 102.11799999999926L637.4394999999998 104.68249999999898L627.8770000000003 97.21649999999954L621.148 100.17749999999978L619.4625000000002 105.79649999999901L621.9414999999998 111.31849999999986L621.5075000000002 115.24499999999989L624.092 117.7959999999996L623.7945000000002 123.72199999999907L617.638 123.31399999999917L614.4350000000003 121.02199999999925L614.0025000000003 115.62099999999987L608.4660000000002 114.76099999999974L605.4764999999998 117.42799999999988L595.5975000000001 118.6099999999999L595.1120000000003 130.07349999999974L590.4180000000002 138.92549999999915L595.7634999999999 141.64249999999925L597.5780000000003 141.63299999999936L597.6165000000003 146.35149999999953L603.1799999999998 146.46549999999934L602.4815000000001 142.99049999999966L610.0245000000001 142.03699999999913L613.2755000000003 139.91449999999986L615.8910000000003 142.87699999999973L613.7855000000002 146.1654999999996L616.771 153.42649999999935L614.0735000000001 158.39599999999905L605.575 155.29949999999985L605.9764999999999 159.02099999999905L607.7095000000003 159.3864999999994L606.0860000000002 162.74299999999926L604.2624999999998 168.54549999999904L609.2075 169.64149999999904L609.264 172.19650000000001L605.4735 173.8054999999997L606.5019999999998 178.40849999999932L604.9720000000002 179.64650000000006L605.9255000000002 181.37249999999995L615.1384999999999 185.2004999999997L615.1325000000003 187.53999999999905L617.4425000000002 190.91099999999983L618.331 191.61949999999933L622.165 197.75800000000004L626.6135000000003 200.96450000000004L628.3005000000003 207.63299999999958L620.7285000000002 218.1574999999998L615.6580000000002 226.8304999999998L615.8685000000003 228.85850000000005L620.7065 232.07599999999957L620.3244999999998 233.81399999999985L623.4575000000001 235.45049999999947L623.4969999999998 238.25099999999907L617.6184999999998 236.50049999999965L613.9224999999999 237.8959999999995L612.346 245.89149999999904L608.3550000000002 250.4004999999995L610.616 254.05549999999948L620.1569999999998 263.6839999999995L619.4740000000002 269.31299999999965L623.8864999999998 277.734999999999L619.581 281.42849999999953L624.1090000000003 284.9219999999991L629.2925000000002 286.2545L627.8640000000001 291.56049999999937L631.2425000000002 293.3249999999998L630.8800000000002 297.40099999999984L634.1890000000001 299.76099999999974L635.1440000000002 303.6494999999991L630.419 314.6309999999994L630.2645000000001 316.66849999999954L630.6245000000001 318.6799999999994L631.8810000000002 320.29199999999946L638.6185 324.88899999999944L646.0615000000001 323.0034999999998L648.3564999999999 326.2894999999992L658.6059999999998 325.81399999999917L663.8920000000002 328.9564999999993L674.0805 323.23350000000005L678.0149999999998 318.7444999999991L681.9074999999998 317.9894999999999L674.7815000000003 311.6504999999995L674.9015000000003 307.65449999999987L679.443 298.7444999999991L678.732 294.8289999999997L675.1075000000003 290.39699999999925L677.5024999999999 287.64299999999935L676.6915 281.63349999999923L683.9614999999998 283.99599999999964L688.2445000000001 277.885L696.8889999999999 273.9684999999997L700.1670000000001 261.78399999999897L701.7790000000002 260.26199999999903L705.3770000000003 256.3689999999997L705.8179999999999 251.11699999999928L709.6695 244.19649999999933L711.5885000000003 244.73449999999957L715.7150000000001 251.32849999999962L720.2884999999998 245.57199999999966L730.2269999999999 245.46049999999923L727.6355000000001 219.0734999999995L729.298 218.1104999999991L732.8235000000001 219.5799999999997L738.0855000000003 222.00099999999907L739.2034999999998 218.287499999999L739.9714999999998 212.41349999999898L748.1484999999998 200.9999999999991L751.2049999999999 191.64649999999938L751.1750000000001 189.63499999999954L748.0279999999999 187.14999999999918L748.8844999999998 185.32449999999926L741.6379999999998 183.29149999999913L740.3710000000001 179.7664999999995L740.2055000000001 172.05549999999903L744.5150000000001 168.17699999999945L747.2989999999999 159.99799999999937L748.2915000000003 156.47249999999985L757.7505000000002 155.19450000000006L762.6825000000002 158.53099999999927L764.5010000000002 157.6884999999993L769.3520000000001 151.21350000000007L769.9295000000001 150.27099999999905L771.2574999999998 146.53799999999933L761.3475 136.93699999999922L761.096 131.8094999999994L759.2815000000002 132.64699999999948L757.0965000000001 129.52999999999975L759.6244999999999 124.11649999999895L758.5629999999998 122.68299999999954L760.2010000000001 119.52399999999898L757.2505000000001 119.20549999999935L758.9080000000001 117.52549999999928L757.4565000000001 116.46449999999959L763.1779999999998 102.33549999999923L757.0370000000003 96.82149999999979L758.0189999999999 88.94249999999943L752.047 89.60899999999924L748.5295000000002 97.74849999999901L745.4610000000002 95.63249999999925L742.8635000000003 104.28949999999986L740.806 109.35199999999895L730.4825 109.23149999999964L729.5740000000001 108.55050000000006L722.4180000000001 121.55949999999962L721.6465 123.84899999999902L719.5075000000003 130.59799999999996L724.2795000000001 132.98999999999978L725.5865 135.71249999999964L726.0070000000002 135.7484999999997L731.6685000000001 142.44849999999929L732.2680000000003 146.0134999999991L731.3765000000001 149.80449999999905L730.1605000000001 157.263999999999L729.5429999999999 162.56349999999998L729.4695000000002 166.47399999999948L727.1805 169.60199999999986L726.8450000000001 169.72099999999955L718.082 166.1629999999991L714.8380000000003 166.30499999999984L712.3849999999999 166.29549999999995L711.4179999999999 168.75149999999962L712.6884999999999 168.52649999999926L721.1265000000003 173.15200000000004L718.7799999999999 182.95349999999985L723.057 187.07949999999983L725.231 190.32600000000002L724.599 196.1564999999996L720.8314999999999 200.62299999999937L719.0070000000003 199.89100000000008L714.9470000000002 203.55500000000006L715.2660000000003 207.15049999999906L714.4839999999999 207.09249999999997L708.757 207.99099999999953L706.3305000000003 205.10400000000004L699.3164999999999 190.31049999999937L700.7445000000001 184.58749999999895L700.6979999999999 182.09299999999985L703.9314999999999 179.76149999999961L707.1300000000002 172.93699999999944L709.0005000000002 169.4819999999993L711.397 168.74849999999924L712.3649999999998 166.2939999999992L711.6070000000002 164.4119999999998L710.2820000000003 160.90149999999994z">
      <title id="t324">Deuxième circonscription des Pyrénées-Atlantiques</title>
      <desc id="d324">Cantons de : Montaner, Morlaàs, Nay-Bourdettes Est, Nay-Bourdettes Ouest, Pau Est, Pau Sud, Pontacq</desc>
    </path><path class="circo" id="id-064-03" d="M520.3295000000003 25.901000000000067L518.0619999999999 22.654999999999745L504.05050000000017 34.125999999999976L497.9615000000001 34.67449999999985L497.7370000000002 30.56600000000003L490.7729999999998 27.194999999999254L489.7225000000003 25.067499999998972L485.86450000000013 25.641999999999143L479.46349999999995 21.755999999999176L486.62149999999997 12.922499999999673L477.98699999999997 16.462499999998954L466.29999999999995 23.384999999999536L461.3655 20.399999999999636L458.33199999999977 22.85099999999943L458.07650000000024 32.57099999999923L452.55449999999996 32.52599999999916L449.43399999999997 30.3024999999991L447.0785000000001 24.10199999999918L431.6854999999998 10.364499999999452L426.5865000000002 12.532999999999674L426.81899999999985 18.17099999999982L421.5440000000001 19.285999999999603L417.6405 23.843499999999267L410.16099999999994 20.915499999999838L401.0804999999999 25.060999999999467L400.86900000000014 31.330999999998994L395.3860000000003 32.22299999999905L391.8795 30.894499999999425L388.6900000000003 30.142999999999347L379.24500000000023 27.312999999999192L371.4685000000003 28.44949999999926L368.4129999999999 30.957499999999527L366.4980000000003 36.49349999999913L364.66049999999996 37.21299999999928L361.40750000000025 34.972999999999956L357.9295000000002 34.99399999999923L355.4680000000002 37.87999999999897L350.1400000000001 36.13549999999918L339.0775000000002 33.22000000000003L333.57349999999997 35.11549999999943L338.3525000000003 38.25849999999946L338.67700000000013 46.051499999999805L336.7099999999999 51.48349999999937L337.3000000000002 54.42049999999995L326.41200000000026 53.285999999999376L323.9980000000003 55.779999999999745L322.62350000000026 54.413999999999305L320.1735000000002 51.335499999999L314.48199999999986 50.007499999999254L304.73799999999983 51.82999999999993L307.14350000000024 59.85549999999989L310.0135 65.67649999999958L307.0274999999998 75.31799999999976L308.65250000000003 81.06299999999919L316.6360000000003 86.42200000000003L318.27800000000025 98.62300000000005L321.071 103.9569999999992L326.5825000000001 101.91949999999906L331.82500000000005 99.22149999999988L336.6084999999998 95.34049999999979L335.81200000000024 93.8149999999996L338.82900000000006 87.78749999999945L340.6445000000002 88.57149999999933L344.0885000000003 86.62999999999897L351.8515000000002 87.70949999999971L360.46449999999993 91.42149999999901L364.7645 91.253999999999L367.054 93.88149999999996L372.1985000000001 94.54250000000002L376.1070000000001 97.84349999999904L377.7505000000002 97.40899999999897L385.6940000000003 96.35699999999929L388.37649999999996 91.26949999999965L395.2404999999999 87.86849999999959L393.57849999999985 82.54999999999995L395.6760000000003 79.32999999999993L396.7354999999998 76.80399999999963L400.65650000000005 83.7379999999996L405.0830000000002 87.56099999999947L403.76649999999984 97.05199999999991L405.25300000000016 100.73249999999916L408.57550000000003 104.71900000000005L415.2735000000001 108.80449999999996L421.13800000000026 108.34699999999998L425.3860000000003 112.30500000000006L431.2975 112.5159999999994L440.2660000000003 116.42349999999965L443.34299999999985 120.10149999999953L448.6655000000002 130.13399999999933L455.51499999999976 132.40599999999972L452.4509999999998 134.65199999999982L448.7779999999998 134.8524999999995L450.37199999999984 138.07749999999942L447.3644999999999 142.83249999999953L451.83850000000007 147.9519999999991L454.76650000000006 145.41849999999954L456.57449999999983 146.16999999999962L458.98799999999994 152.7929999999992L460.83050000000014 152.72199999999998L461.4929999999998 156.35349999999903L468.23849999999993 153.48449999999957L470.2095000000003 162.9469999999992L473.5640000000001 167.6929999999993L472.05150000000003 173.38599999999929L470.2845000000002 174.26799999999957L468.4514999999999 177.56149999999934L462.826 178.26749999999947L467.2534999999999 181.9819999999993L466.7855000000003 187.46649999999931L474.55100000000016 186.72449999999913L482.405 192.56149999999934L482.56500000000017 196.47499999999923L485.3235000000001 199.2954999999995L484.97749999999996 205.19649999999956L484.81600000000014 205.78199999999924L488.6205000000001 206.44149999999968L489.7135000000003 204.81449999999995L492.03550000000007 209.9084999999991L494.7649999999999 207.89649999999938L496.4409999999998 202.86449999999945L501.2510000000003 194.78799999999978L502.9955000000001 187.5434999999993L506.4420000000001 182.9329999999993L508.057 184.22649999999976L515.4379999999998 194.2184999999995L513.1465000000003 198.66349999999898L518.5840000000002 204.8849999999993L519.4065 211.05699999999956L522.7185000000003 214.41599999999994L522.4894999999998 216.07049999999958L515.5500000000001 224.4304999999997L524.1879999999998 228.85349999999903L525.908 224.85399999999913L530.9930000000003 226.9509999999991L534.5075000000003 233.6119999999994L543.7475000000001 241.47599999999898L556.807 243.18449999999984L560.1299999999998 247.7914999999996L559.9590000000001 251.15749999999935L567.2064999999998 254.0854999999999L576.8234999999999 255.51150000000007L582.4810000000002 250.10850000000005L584.4614999999999 250.09050000000002L587.5155000000001 252.18249999999898L585.0889999999998 255.1839999999993L590.2320000000003 253.356L592.3660000000001 244.47549999999978L595.471 243.4809999999993L600.2539999999999 245.05499999999984L608.3550000000002 250.4004999999995L612.346 245.89149999999904L613.9224999999999 237.8959999999995L617.6184999999998 236.50049999999965L623.4969999999998 238.25099999999907L623.4575000000001 235.45049999999947L620.3244999999998 233.81399999999985L620.7065 232.07599999999957L615.8685000000003 228.85850000000005L615.6580000000002 226.8304999999998L620.7285000000002 218.1574999999998L617.5465000000003 212.79349999999909L614.9090000000001 215.02700000000004L609.819 214.9389999999994L602.9930000000002 217.47349999999983L596.635 209.86249999999927L597.4644999999998 199.87199999999916L598.0200000000002 182.0894999999996L595.2969999999999 180.26149999999916L595.2965 176.94399999999973L586.6180000000003 177.86049999999932L583.603 176.09849999999938L577.0755000000003 172.7329999999995L574.1125 167.95549999999935L567.7945 164.8714999999993L562.9129999999998 169.86149999999952L563.6505 173.31099999999992L564.1759999999999 175.01800000000003L561.3485000000003 177.10849999999937L562.0625000000001 180.60999999999922L558.5225000000003 179.44149999999922L551.857 173.33699999999908L544.0355 175.86749999999938L536.3905 162.42999999999938L536.7000000000002 159.13299999999936L533.0175000000003 155.2049999999997L537.0550000000003 149.90949999999998L540.1904999999999 142.11149999999975L534.6449999999999 137.4804999999992L537.0755000000003 134.92899999999963L537.3784999999998 129.81349999999907L543.4750000000003 126.14949999999908L545.0735000000003 120.76449999999909L542.7839999999998 118.24899999999957L544.8575 115.41200000000003L549.3515000000002 114.47499999999991L549.9270000000001 112.99549999999954L553.5379999999998 114.6634999999992L563.6894999999998 108.65199999999959L563.0065000000002 103.95599999999945L562.5450000000001 90.04149999999981L566.0660000000001 83.09099999999944L564.1480000000001 78.03399999999897L567.6440000000002 78.54499999999916L570.9165000000002 74.5309999999995L586.2004999999999 82.16499999999996L583.2825000000003 84.42649999999958L581.4935000000003 83.63449999999943L578.0964999999998 88.30049999999915L575.3160000000003 93.4764999999993L575.9910000000002 97.16849999999909L572.1379999999999 101.43149999999991L575.7504999999998 104.33999999999969L582.1125000000001 101.14399999999932L584.3315000000001 96.22049999999945L591.5690000000001 98.44200000000001L596.2259999999998 101.85699999999997L600.0495000000001 101.51849999999968L601.9454999999999 101.28999999999905L605.7420000000002 105.48999999999978L608.4660000000002 114.76099999999974L614.0025000000003 115.62099999999987L614.4350000000003 121.02199999999925L617.638 123.31399999999917L623.7945000000002 123.72199999999907L624.092 117.7959999999996L621.5075000000002 115.24499999999989L621.9414999999998 111.31849999999986L619.4625000000002 105.79649999999901L621.148 100.17749999999978L627.8770000000003 97.21649999999954L637.4394999999998 104.68249999999898L642.7145000000002 102.11799999999926L647.613 102.75199999999927L650.1920000000001 99.97899999999959L660.8364999999998 95.64049999999952L662.4385000000001 101.44499999999994L663.974 107.82499999999914L668.5014999999999 115.003999999999L674.5835 119.54299999999989L679.6895000000001 116.9234999999992L679.0590000000003 109.22749999999951L683.7675000000002 113.27249999999935L686.7360000000002 118.74049999999897L690.5914999999999 120.01199999999926L691.3485000000003 127.67949999999928L695.0905 128.50849999999923L708.673 121.6014999999993L712.4590000000001 129.97049999999945L713.4789999999998 132.435999999999L719.5075000000003 130.59799999999996L721.6465 123.84899999999902L722.4180000000001 121.55949999999962L729.5740000000001 108.55050000000006L730.4825 109.23149999999964L736.4139999999998 102.16299999999933L729.4920000000002 95.31399999999962L730.6754999999998 89.67649999999935L732.7330000000001 83.94599999999969L731.1279999999999 78.16749999999956L745.4284999999999 76.6739999999993L749.0840000000003 76.91299999999956L751.0390000000001 74.3184999999994L747.858 71.5134999999998L744.3945000000002 71.07249999999908L743.7094999999999 63.34649999999897L738.2049999999998 61.52349999999956L739.2065000000002 57.781499999999824L740.3340000000003 52.92100000000005L742.0175 49.39499999999953L740.1915000000002 46.615999999999076L740.5015000000003 43.31099999999992L738.15 39.34349999999995L735.1990000000001 37.42049999999949L729.4380000000001 29.377999999999247L722.0460000000003 31.942499999998972L720.1850000000002 31.830999999999676L718.7515000000002 28.53999999999928L720.9224999999998 21.62149999999997L719.3115 19.434999999999718L719.9869999999999 15.705999999998994L717.9405000000003 8.464999999999918L707.131 6.699999999999591L704.2849999999999 9.158499999999776L700.2440000000001 9.213999999999487L694.905 6.674999999999045L691.9979999999998 9.026499999999942L690.1765 8.898999999998978L684.0339999999998 0L671.9420000000002 7.528999999999542L669.5640000000003 2.109499999999116L661.8304999999998 4.217499999999745L657.534 8.093000000000075L655.8654999999999 6.951999999999998L654.0674999999999 8.298999999999523L652.115 8.316499999999678L649.9439999999998 5.066999999999098L638.6579999999998 7.432999999999765L637.0269999999999 13.043499999999995L633.9949999999999 16.968499999999267L631.0590000000002 14.978999999999587L630.8679999999998 18.34649999999897L629.0269999999998 21.914999999999054L616.0469999999998 26.751999999999043L610.815 23.852999999999156L608.7914999999998 20.558999999999514L593.7299999999999 16.80949999999939L588.7810000000002 19.722999999999047L586.5015 16.783499999999094L573.039 25.82149999999956L567.9410000000001 27.549499999998943L563.3875 18.960499999999456L568.1600000000003 16.500499999999647L575.5894999999998 7.79549999999972L571.4710000000002 1.9669999999996435L568.1455 0.3314999999997781L562.7795000000003 5.418999999999414L561.3380000000001 4.240999999999531L543.3145000000002 16.193999999999278L543.4604999999999 16.642499999999245L541.1394999999999 19.97349999999983L535.7600000000002 22.929499999999052L524.1430000000003 31.48499999999899L522.269 31.696999999999207L520.3295000000003 25.901000000000067z">
      <title id="t325">Troisième circonscription des Pyrénées-Atlantiques</title>
      <desc id="d325">Cantons de: Arthez-de-Béarn, Arzacq-Arraziguet, Garlin, Jurançon, Lagor, Lasseube, Lembeye, Monein, Orthez, Salies-de-Béarn, Thèze</desc>
    </path><path class="circo" id="id-064-04" d="M480.2404999999999 430.2544999999998L477.4304999999998 423.57849999999985L470.3035 416.50800000000004L462.52250000000004 418.4444999999994L453.63999999999976 413.7569999999994L449.3745000000001 409.4724999999994L446.7025000000001 399.82099999999946L450.5680000000001 395.23849999999925L447.9480000000001 390.02250000000004L448.4370000000001 384.1509999999994L447.42500000000007 379.81349999999907L444.366 378.2389999999998L439.12350000000004 367.73399999999924L433.30100000000016 366.81449999999927L425.9345000000002 369.1294999999991L414.0134999999998 376.8319999999994L403.8164999999998 375.60249999999996L391.56499999999994 377.0184999999992L383.802 374.3419999999992L377.6260000000002 374.1924999999992L376.2824999999998 370.5049999999994L372.3075 369.5674999999994L366.39850000000024 374.92899999999963L356.3204999999999 374.57649999999944L346.84649999999976 370.6919999999991L335.2170000000001 362.3479999999995L331.06550000000027 355.1934999999992L329.61450000000013 353.71350000000007L327.79600000000016 352.71249999999895L303.3215000000001 349.4399999999996L298.1529999999998 346.1964999999998L298.5424999999998 342.21399999999903L292.67499999999984 340.9024999999997L286.28449999999987 335.96399999999903L274.87900000000025 343.6144999999999L272.6495 340.376L272.1809999999999 334.3074999999999L260.30550000000005 326.6674999999998L259.63750000000005 328.54099999999903L255.976 328.673L243.78600000000006 318.65999999999985L235.97050000000024 316.6694999999993L228.8684999999998 323.9149999999995L222.87500000000023 323.196999999999L218.3820000000003 316.43699999999967L202.95749999999998 307.25049999999896L207.70500000000027 293.8024999999993L214.49700000000007 284.83799999999974L219.22900000000027 279.56699999999955L197.9970000000003 282.94599999999946L192.8525000000002 285.850999999999L187.34950000000026 294.41299999999956L188.91500000000008 302.3784999999998L187.75250000000028 316.69649999999933L184.28150000000016 330.6589999999994L182.51800000000003 331.71049999999923L178.55549999999994 330.6364999999994L147.1735000000001 321.82449999999903L140.23900000000026 311.76349999999957L133.72500000000002 301.3684999999998L133.35500000000025 297.30549999999994L136.70000000000016 292.2494999999992L152.55550000000028 279.79949999999917L152.70800000000008 277.7559999999994L157.2489999999999 274.18000000000006L159.461 266.5949999999998L158.21799999999996 261.086499999999L160.86749999999995 258.1454999999994L162.8309999999999 257.7204999999992L164.04650000000004 243.81999999999948L170.4525000000001 239.0459999999996L170.9865000000002 219.11299999999983L173.10000000000002 215.6684999999993L173.159 211.62449999999922L171.3375000000002 201.70699999999897L161.9870000000003 191.16649999999936L158.44499999999982 189.2935L166.72050000000013 183.82799999999975L170.03600000000006 179.1554999999994L177.5215000000003 176.68199999999956L179.6365000000003 173.30799999999954L183.17000000000007 171.6809999999998L194.23249999999996 174.26349999999957L197.25349999999992 171.69749999999908L194.38600000000008 164.2255L186.60149999999987 163.61799999999903L184.87599999999986 159.98199999999997L179.75450000000023 157.27649999999926L179.3715000000003 153.27049999999986L184.572 148.15899999999942L179.97749999999996 130.65449999999942L171.42049999999983 119.46499999999901L168.63999999999976 115.62049999999999L168.01750000000027 111.88099999999963L173.18849999999998 106.42599999999902L168.96900000000016 100.05049999999983L172.22550000000012 98.51799999999912L177.20950000000016 91.71249999999986L190.86150000000032 95.03849999999943L198.91950000000008 95.16949999999952L210.8699999999999 93.15999999999917L217.2354999999999 88.23549999999955L223.5975000000002 92.09299999999985L227.27300000000014 91.64099999999962L228.7729999999999 93.05250000000001L223.49199999999996 95.30499999999961L219.2255 99.49649999999906L216.06650000000002 108.79899999999907L212.0134999999999 117.76399999999967L217.2180000000003 120.40499999999952L217.89300000000026 126.29050000000007L221.216 131.15699999999947L223.16300000000012 137.3879999999997L222.77500000000032 154.9369999999999L228.33000000000027 154.36249999999973L230.73199999999986 151.51649999999904L231.8905000000001 146.21049999999968L234.99300000000005 144.47949999999992L239.9045000000001 142.81399999999962L244.95000000000005 144.15499999999952L247.38949999999988 140.99149999999895L253.05000000000007 139.48350000000005L261.68600000000026 131.19249999999965L255.2075000000002 121.42749999999978L252.26699999999994 116.17249999999899L252.02150000000017 106.57249999999976L243.08150000000012 93.93799999999942L248.96349999999984 88.63449999999943L256.2130000000002 90.76349999999934L265.55799999999977 92.99399999999991L277.4225000000001 94.69899999999939L296.7845 89.62549999999965L298.0970000000002 90.82349999999906L301.6160000000002 84.98149999999896L303.1445000000002 85.87850000000003L303.571 88.55099999999993L302.88549999999987 92.38349999999969L299.2560000000003 93.73699999999985L297.9910000000001 97.41999999999962L294.6814999999998 99.46849999999927L298.36850000000027 106.06699999999933L300.2015 106.87799999999925L310.8865000000003 108.47049999999967L311.80949999999996 111.93249999999921L321.071 103.9569999999992L326.5825000000001 101.91949999999906L331.82500000000005 99.22149999999988L336.6084999999998 95.34049999999979L335.81200000000024 93.8149999999996L338.82900000000006 87.78749999999945L340.6445000000002 88.57149999999933L344.0885000000003 86.62999999999897L351.8515000000002 87.70949999999971L360.46449999999993 91.42149999999901L364.7645 91.253999999999L367.054 93.88149999999996L372.1985000000001 94.54250000000002L376.1070000000001 97.84349999999904L377.7505000000002 97.40899999999897L385.6940000000003 96.35699999999929L388.37649999999996 91.26949999999965L395.2404999999999 87.86849999999959L393.57849999999985 82.54999999999995L395.6760000000003 79.32999999999993L396.7354999999998 76.80399999999963L400.65650000000005 83.7379999999996L405.0830000000002 87.56099999999947L403.76649999999984 97.05199999999991L405.25300000000016 100.73249999999916L408.57550000000003 104.71900000000005L415.2735000000001 108.80449999999996L421.13800000000026 108.34699999999998L425.3860000000003 112.30500000000006L431.2975 112.5159999999994L440.2660000000003 116.42349999999965L443.34299999999985 120.10149999999953L448.6655000000002 130.13399999999933L455.51499999999976 132.40599999999972L452.4509999999998 134.65199999999982L448.7779999999998 134.8524999999995L450.37199999999984 138.07749999999942L447.3644999999999 142.83249999999953L451.83850000000007 147.9519999999991L454.76650000000006 145.41849999999954L456.57449999999983 146.16999999999962L458.98799999999994 152.7929999999992L460.83050000000014 152.72199999999998L461.4929999999998 156.35349999999903L468.23849999999993 153.48449999999957L470.2095000000003 162.9469999999992L473.5640000000001 167.6929999999993L472.05150000000003 173.38599999999929L470.2845000000002 174.26799999999957L468.4514999999999 177.56149999999934L462.826 178.26749999999947L467.2534999999999 181.9819999999993L466.7855000000003 187.46649999999931L474.55100000000016 186.72449999999913L482.405 192.56149999999934L482.56500000000017 196.47499999999923L485.3235000000001 199.2954999999995L484.97749999999996 205.19649999999956L484.81600000000014 205.78199999999924L488.6205000000001 206.44149999999968L489.7135000000003 204.81449999999995L492.03550000000007 209.9084999999991L494.7649999999999 207.89649999999938L496.4409999999998 202.86449999999945L501.2510000000003 194.78799999999978L502.9955000000001 187.5434999999993L506.4420000000001 182.9329999999993L508.057 184.22649999999976L515.4379999999998 194.2184999999995L513.1465000000003 198.66349999999898L518.5840000000002 204.8849999999993L519.4065 211.05699999999956L522.7185000000003 214.41599999999994L522.4894999999998 216.07049999999958L515.5500000000001 224.4304999999997L524.1879999999998 228.85349999999903L525.908 224.85399999999913L530.9930000000003 226.9509999999991L534.5075000000003 233.6119999999994L543.7475000000001 241.47599999999898L556.807 243.18449999999984L560.1299999999998 247.7914999999996L559.9590000000001 251.15749999999935L567.2064999999998 254.0854999999999L576.8234999999999 255.51150000000007L582.4810000000002 250.10850000000005L584.4614999999999 250.09050000000002L587.5155000000001 252.18249999999898L585.0889999999998 255.1839999999993L590.2320000000003 253.356L592.3660000000001 244.47549999999978L595.471 243.4809999999993L600.2539999999999 245.05499999999984L608.3550000000002 250.4004999999995L610.616 254.05549999999948L620.1569999999998 263.6839999999995L619.4740000000002 269.31299999999965L623.8864999999998 277.734999999999L619.581 281.42849999999953L624.1090000000003 284.9219999999991L629.2925000000002 286.2545L627.8640000000001 291.56049999999937L631.2425000000002 293.3249999999998L630.8800000000002 297.40099999999984L634.1890000000001 299.76099999999974L635.1440000000002 303.6494999999991L630.419 314.6309999999994L630.2645000000001 316.66849999999954L630.6245000000001 318.6799999999994L631.8810000000002 320.29199999999946L638.6185 324.88899999999944L646.0615000000001 323.0034999999998L648.3564999999999 326.2894999999992L649.8804999999999 335.81950000000006L646.567 342.722L636.8115 345.3099999999995L634.8630000000003 353.10199999999895L635.9815000000003 371.1259999999993L638.4435000000002 374.2274999999995L640.3809999999999 382.0279999999991L637.971 389.0779999999995L632.5119999999998 388.62699999999904L626.0354999999998 395.8314999999993L620.1485000000002 396.8169999999998L621.2330000000003 404.67349999999897L624.7694999999999 409.4794999999999L624.8205000000002 415.40899999999965L628.4705000000002 424.5989999999995L625.8575000000002 435.9649999999999L620.3985 444.3705L616.558 443.02499999999895L610.6610000000001 444.1890000000001L603.9580000000001 454.5094999999992L593.8015000000001 464.26349999999957L584.4805000000002 460.71449999999913L571.4530000000002 466.38599999999997L548.7275 453.7849999999992L546.0165000000001 448.4184999999991L542.3514999999998 450.02700000000004L536.3049999999998 458.03699999999935L535.1310000000001 467.7249999999992L527.7010000000001 469.99799999999937L523.7360000000001 476.66650000000004L517.7750000000003 475.6544999999994L516.7014999999998 469.923L518.6935 466.412499999999L518.4480000000002 462.4554999999998L515.2800000000002 460.28949999999895L507.62800000000027 462.49399999999923L503.9480000000003 460.8529999999996L503.0695000000003 447.1449999999993L494.86850000000004 441.60099999999943L488.70000000000005 433.7189999999998L480.2404999999999 430.2544999999998z">
      <title id="t326">Quatrième circonscription des Pyrénées-Atlantiques</title>
      <desc id="d326">Cantons de : Accous, Aramits, Arudy, Hasparren, Liholdy, Laruns, Mauléon-Licharre, Navarrenx, Oloron-Sainte-Marie Est, Oloron-Sainte-Marie Ouest, Saint-Etienne-de-Baïgorry, Saint-Jean-Pied-de-Port, Saint-Palais, Sauveterre-de-Béarn, Tardets-Sorholus</desc>
    </path><path class="circo" id="id-064-05" d="M136.16550000000018 47.09899999999948L137.063 37.35500000000002L130.22449999999992 33.81849999999986L120.95550000000003 40.98899999999958L110.98799999999983 39.37449999999899L100.38250000000005 60.10349999999903L106.49350000000027 65.4729999999995L106.43199999999979 79.73649999999907L112.32450000000028 81.27099999999928L114.32999999999993 84.537499999999L123.57649999999978 85.44749999999908L128.10900000000004 82.30799999999931L132.4490000000003 86.25999999999976L132.38 92.29299999999967L138.20550000000026 94.01399999999967L140.64999999999998 101.21099999999956L154.5165000000003 103.94999999999982L158.2114999999999 102.46599999999944L161.71850000000006 97.79249999999934L168.96900000000016 100.05049999999983L172.22550000000012 98.51799999999912L177.20950000000016 91.71249999999986L190.86150000000032 95.03849999999943L198.91950000000008 95.16949999999952L210.8699999999999 93.15999999999917L217.2354999999999 88.23549999999955L223.5975000000002 92.09299999999985L227.27300000000014 91.64099999999962L228.7729999999999 93.05250000000001L223.49199999999996 95.30499999999961L219.2255 99.49649999999906L216.06650000000002 108.79899999999907L212.0134999999999 117.76399999999967L217.2180000000003 120.40499999999952L217.89300000000026 126.29050000000007L221.216 131.15699999999947L223.16300000000012 137.3879999999997L222.77500000000032 154.9369999999999L228.33000000000027 154.36249999999973L230.73199999999986 151.51649999999904L231.8905000000001 146.21049999999968L234.99300000000005 144.47949999999992L239.9045000000001 142.81399999999962L244.95000000000005 144.15499999999952L247.38949999999988 140.99149999999895L253.05000000000007 139.48350000000005L261.68600000000026 131.19249999999965L255.2075000000002 121.42749999999978L252.26699999999994 116.17249999999899L252.02150000000017 106.57249999999976L243.08150000000012 93.93799999999942L248.96349999999984 88.63449999999943L256.2130000000002 90.76349999999934L265.55799999999977 92.99399999999991L277.4225000000001 94.69899999999939L296.7845 89.62549999999965L298.0970000000002 90.82349999999906L301.6160000000002 84.98149999999896L303.1445000000002 85.87850000000003L303.571 88.55099999999993L302.88549999999987 92.38349999999969L299.2560000000003 93.73699999999985L297.9910000000001 97.41999999999962L294.6814999999998 99.46849999999927L298.36850000000027 106.06699999999933L300.2015 106.87799999999925L310.8865000000003 108.47049999999967L311.80949999999996 111.93249999999921L321.071 103.9569999999992L318.27800000000025 98.62300000000005L316.6360000000003 86.42200000000003L308.65250000000003 81.06299999999919L307.0274999999998 75.31799999999976L310.0135 65.67649999999958L307.14350000000024 59.85549999999989L304.73799999999983 51.82999999999993L302.5479999999999 45.253999999999905L299.6010000000001 43.304999999999154L295.985 49.81349999999907L288.44600000000014 48.38999999999942L284.6215000000001 54.772999999999L277.5445000000002 56.953999999999496L275.57050000000004 57.13249999999903L274.2595 62.84400000000005L272.3829999999998 63.46499999999992L268.71500000000026 59.00350000000003L263.6489999999998 61.89499999999953L261.95400000000006 60.865499999999884L261.8799999999999 58.467999999999165L261.03499999999997 53.70349999999917L263.96950000000004 51.88499999999976L275.60900000000004 51.12799999999993L278.3760000000001 48.60649999999964L277.0965000000001 44.955999999999676L268.6115000000001 39.588999999999714L266.26649999999984 34.119499999999334L260.0319999999999 29.790499999999156L250.9235000000001 29.762999999999238L247.40949999999998 33.18399999999997L241.5780000000001 38.83649999999989L227.58449999999982 46.90999999999917L223.62250000000017 49.062999999999874L210.22199999999998 57.72699999999986L197.03399999999988 53.88249999999971L191.98550000000012 55.06949999999961L191.7149999999998 54.936500000000024L176.95699999999988 59.69699999999989L158.01600000000008 58.41649999999959L156.5530000000001 58.593499999999494L151.77250000000015 49.595999999999094L139.9860000000001 46.25349999999912L136.16550000000018 47.09899999999948z">
      <title id="t327">Cinquième circonscription des Pyrénées-Atlantiques</title>
      <desc id="d327">Cantons de : Anglet Nord, Anglet Sud, Bayonne Est, Bayonne Nord, Bayonne Ouest, Bidache, Labastide-Clairence, Saint-Pierre-d'Irube</desc>
    </path><path class="circo" id="id-064-06" d="M88.39550000000031 77.98049999999989L75.02949999999998 99.22049999999899L71.94149999999979 99.52299999999923L70.06050000000016 101.86449999999923L60.219999999999914 111.3919999999996L48.76649999999984 114.854499999999L52.71450000000016 119.80199999999968L49.555500000000166 122.26149999999961L43.825499999999806 120.03549999999905L44.182500000000005 118.07399999999916L42.30099999999993 117.44299999999953L22.18500000000006 125.82199999999943L14.344499999999982 124.16149999999902L10.275499999999909 128.81299999999896L2.889499999999998 132.23899999999958L5.951000000000022 136.25799999999913L0 144.28999999999974L6.387500000000159 148.8104999999996L10.226000000000113 148.05700000000002L10.656500000000051 147.97249999999963L14.046500000000037 149.9739999999997L14.76050000000015 153.9969999999994L20.05500000000012 156.80999999999926L19.68350000000015 164.88249999999994L23.35949999999997 174.34549999999945L31.141000000000076 172.92049999999904L35.22449999999992 168.39149999999904L38.75249999999994 166.68049999999994L42.306500000000256 168.4209999999996L49.56000000000017 165.483999999999L55.412000000000035 166.34699999999953L60.15350000000012 169.83549999999923L63.92100000000028 168.62349999999992L64.0519999999998 168.61549999999966L69.21550000000025 171.63249999999948L66.52600000000007 183.56649999999945L70.24850000000015 195.4194999999993L74.15300000000002 200.19599999999969L76.04100000000017 201.04799999999955L90.3309999999999 201.44349999999918L96.25650000000007 188.3459999999991L95.31949999999995 180.54699999999912L109.1070000000002 177.6184999999998L119.06749999999988 177.69849999999906L124.12649999999985 184.06949999999938L128.1400000000002 184.41299999999956L134.74850000000004 189.12849999999935L144.47299999999984 191.9844999999998L151.91700000000026 193.06299999999965L158.44499999999982 189.2935L166.72050000000013 183.82799999999975L170.03600000000006 179.1554999999994L177.5215000000003 176.68199999999956L179.6365000000003 173.30799999999954L183.17000000000007 171.6809999999998L194.23249999999996 174.26349999999957L197.25349999999992 171.69749999999908L194.38600000000008 164.2255L186.60149999999987 163.61799999999903L184.87599999999986 159.98199999999997L179.75450000000023 157.27649999999926L179.3715000000003 153.27049999999986L184.572 148.15899999999942L179.97749999999996 130.65449999999942L171.42049999999983 119.46499999999901L168.63999999999976 115.62049999999999L168.01750000000027 111.88099999999963L173.18849999999998 106.42599999999902L168.96900000000016 100.05049999999983L161.71850000000006 97.79249999999934L158.2114999999999 102.46599999999944L154.5165000000003 103.94999999999982L140.64999999999998 101.21099999999956L138.20550000000026 94.01399999999967L132.38 92.29299999999967L132.4490000000003 86.25999999999976L128.10900000000004 82.30799999999931L123.57649999999978 85.44749999999908L114.32999999999993 84.537499999999L112.32450000000028 81.27099999999928L106.43199999999979 79.73649999999907L106.49350000000027 65.4729999999995L100.38250000000005 60.10349999999903L91.88750000000027 67.05799999999954L91.75600000000031 70.97699999999918L88.39550000000031 77.98049999999989z">
      <title id="t328">Sixième circonscription des Pyrénées-Atlantiques</title>
      <desc id="d328">Cantons de : Biarritz Est, Biarritz Ouest, Espelette, Hendaye, Saint-Jean-de-Luz, Ustaritz</desc>
    </path></svg>