<svg xmlns="http://www.w3.org/2000/svg" version="1.1" xmlns:xlink="http://www.w3.org/1999/xlink" xmlns:svgjs="http://svgjs.dev/svgjs" width="413.47825" height="545.1834999999994" fill="#eeeeee" stroke="#cccccc" xmlns:sodipodi="http://sodipodi.sourceforge.net/DTD/sodipodi-0.dtd"><path class="circo" id="id-065-01" d="M160.97174999999993 298.33849999999984L163.25975000000028 303.28700000000026L167.2852499999999 308.10749999999985L163.30475000000035 317.1479999999997L163.9632499999999 317.4485000000004L170.65474999999992 317.80599999999936L171.5722500000004 319.49449999999956L168.36524999999995 330.38749999999936L170.33774999999991 342.1354999999994L173.3827500000001 349.35699999999997L169.75374999999985 350.8674999999994L164.66125000000034 348.0499999999995L161.1522500000001 343.26850000000036L157.2422499999999 342.7144999999996L165.26324999999986 351.5059999999994L167.88625000000025 356.74800000000005L167.9057499999999 366.2855000000002L166.29075 369.93799999999965L162.5502499999999 371.19100000000003L161.64725000000033 378.97699999999986L159.17725000000019 382.1479999999997L160.16475000000014 383.9239999999995L174.3737500000003 391.67599999999993L180.26425000000017 391.32799999999975L187.2542500000003 395.42749999999955L196.8847500000004 394.01449999999954L198.31275000000005 395.36299999999983L198.86625000000038 401.18799999999965L201.10974999999996 404.3754999999999L200.74524999999994 410.00800000000027L205.41224999999997 422.5980000000004L212.7472499999999 424.9955L212.49675000000025 429.0440000000001L204.50874999999996 438.2804999999996L194.63774999999998 440.02200000000016L191.43775000000005 442.5125000000003L187.9457500000001 446.4009999999996L187.8177500000004 453.01950000000033L184.6202500000004 456.80799999999977L183.88275000000021 467.04349999999977L181.4542499999999 472.4969999999996L187.9442499999999 480.0125000000003L186.8052499999999 490.0839999999994L197.40475000000004 502.30099999999993L195.05825000000016 507.85349999999994L196.98075000000017 517.8359999999998L206.6187500000001 517.0230000000004L213.44375000000014 510.0464999999997L226.48725000000013 513.8025000000005L234.02975000000026 520.0519999999995L249.3912499999999 521.5999999999997L252.3727500000001 529.1195000000005L251.9617500000004 535.0855000000001L264.54425000000015 545.1834999999994L275.2327500000001 539.3354999999997L278.21875000000034 527.6744999999994L285.5467500000003 524.2054999999993L291.9847500000003 516.6930000000002L297.96474999999987 522.0299999999997L305.8102500000001 523.1629999999996L307.2127499999999 530.9685000000002L319.87625000000037 536.0659999999996L335.50475000000006 534.3714999999997L341.98725000000024 530.7560000000001L344.2442500000004 527.5670000000002L343.67324999999994 523.7819999999999L330.74475000000007 511.5835000000004L335.34674999999993 508.0714999999998L335.10575000000017 504.11249999999995L335.91475 496.3334999999995L332.3972500000002 489.7130000000004L332.7362500000004 484.1229999999996L335.2927500000004 479.0129999999999L335.77724999999987 478.58550000000037L335.9027500000002 471.48950000000013L334.3802500000004 469.98550000000023L332.8162500000002 462.67650000000003L333.9302500000002 459.0435000000002L336.1982499999999 449.7204999999997L337.63125 445.7839999999999L334.5452499999999 442.88400000000024L339.8307500000004 438.50450000000023L339.49175000000025 432.7610000000004L341.8202500000001 427.5210000000004L351.1427500000002 429.66049999999996L353.15575000000024 433.0079999999998L355.1037500000001 432.7850000000001L362.30124999999987 433.72100000000046L365.9707500000002 437.3720000000003L371.47725000000037 435.42599999999993L374.4122500000003 438.0475000000001L377.9397499999999 437.6615000000004L383.71725000000026 431.8229999999994L384.44975 428.4140000000002L385.25975000000017 424.78899999999953L387.8502500000002 418.17999999999984L390.66824999999994 409.94550000000004L392.03025000000025 409.058L392.92025000000024 404.4365000000005L394.0247500000004 398.6429999999996L396.3442500000002 395.16700000000014L400.4742500000003 393.5374999999999L405.26275 390.6134999999995L409.8542500000002 384.3579999999997L411.79174999999987 384.21100000000024L413.47825 379.2965000000004L412.44725000000017 377.89549999999963L409.39324999999997 375.1859999999999L409.0507500000001 374.8829999999998L402.49675000000025 372.8494999999998L399.8502500000001 367.27899999999977L400.73725000000024 365.94550000000027L398.80825000000016 363.64149999999995L404.33775000000026 362.1825000000001L405.58875 356.98999999999955L404.5802500000002 355.4880000000003L400.62324999999987 350.394L400.94975000000034 344.96549999999957L400.59675000000027 344.32249999999954L397.3652500000003 337.06549999999993L391.06375000000014 336.2270000000001L390.81774999999993 341.70150000000035L390.47075000000007 343.83050000000026L387.88774999999987 343.21950000000015L387.47524999999996 345.07349999999974L380.12225 344.77700000000027L377.5117499999999 347.4834999999996L370.93774999999994 354.6640000000002L369.30425000000014 356.2424999999996L366.08775000000037 355.35949999999957L362.8982500000001 351.64750000000026L366.2152500000002 346.8889999999999L366.37024999999994 335.29649999999947L368.44375000000014 332.2230000000002L372.01175000000035 331.25850000000014L378.09075000000007 335.6529999999998L379.87675000000024 335.0800000000004L379.28375000000017 333.0735000000004L376.45475000000033 320.2814999999998L374.80275000000006 319.47450000000003L377.6717500000001 314.7574999999995L378.5827499999999 313.6614999999995L365.12675 307.9129999999998L365.3152499999999 302.24050000000034L360.9452500000003 302.9959999999994L353.39474999999993 301.37550000000033L351.47275000000036 294.38549999999964L347.7057500000001 293.61999999999966L346.8922500000002 289.83749999999986L336.44375000000025 292.06950000000006L331.43575 291.3665000000003L336.0752500000001 287.72699999999986L332.2162500000002 283.3294999999998L326.9352500000002 280.6764999999996L326.6677500000003 280.64300000000003L332.9362500000002 272.56700000000023L334.25925000000007 270.1705000000004L351.1427500000002 255.45049999999947L360.22275000000036 244.34750000000008L353.8937500000003 240.58599999999956L358.83275000000026 233.19899999999961L365.8087499999999 235.7185000000004L370.5607500000002 232.8099999999995L373.49125000000015 235.08550000000014L381.29275000000007 230.2985000000001L382.4022500000001 221.1099999999999L373.1012500000003 219.41850000000045L379.8297500000001 209.91049999999973L383.74975000000006 209.4169999999997L384.0492499999999 206.20400000000018L392.5842499999999 197.5535000000002L400.15025000000037 195.0114999999994L400.45825000000036 193.42599999999948L401.99175000000025 187.663L407.84474999999986 186.20900000000006L409.12874999999985 182.57049999999936L396.8397500000003 175.7095000000004L393.81575 174.09350000000018L385.3052500000001 169.68549999999937L381.6617500000001 170.48199999999952L371.44875000000013 164.6569999999997L368.3117500000003 166.2220000000002L367.1772500000003 165.96300000000042L357.69225000000006 162.5909999999999L353.9797500000003 162.6819999999998L350.4752500000001 166.8844999999999L348.6982499999999 167.18349999999987L342.8657500000003 163.03099999999972L339.9587500000001 163.09300000000007L334.92525 160.7095000000004L328.0597499999999 158.26999999999998L327.20574999999997 165.7555000000002L316.90675 165.66599999999994L307.16724999999997 162.0640000000003L306.23575000000017 160.19649999999956L308.3782500000001 152.01400000000035L299.8252500000001 149.71949999999993L293.58974999999987 153.10550000000035L286.0582500000004 153.94300000000044L283.37625 156.49549999999977L279.76575000000025 157.14950000000044L277.23974999999996 138.37149999999951L271.59674999999993 142.84800000000018L266.86375 140.30549999999948L265.91425000000015 130.29999999999973L254.19975000000022 133.78399999999942L242.69875000000013 139.57499999999982L248.58775000000037 152.58199999999988L252.78774999999996 153.9779999999996L254.68124999999986 155.22199999999998L255.01575000000003 159.16100000000029L252.81375000000025 166.42150000000015L252.88774999999987 168.56949999999983L243.18675000000042 177.55250000000046L238.42874999999992 175.26399999999967L237.23625000000027 170.2374999999995L232.5712500000003 168.09349999999995L233.64575000000002 166.76150000000007L232.28925000000004 165.73149999999941L227.33625000000018 165.4124999999999L227.14724999999987 165.55600000000027L224.80625000000032 168.71549999999957L220.9687500000001 169.54650000000015L213.30174999999997 167.9174999999998L212.80374999999992 162.03399999999988L205.70275000000038 166.1405000000002L197.40775000000042 165.73099999999954L196.36124999999993 165.6325000000004L192.62575000000027 165.23249999999962L192.08225000000027 170.32150000000001L191.60775 176.01300000000037L184.4387499999999 177.8374999999994L182.57074999999986 186.9055000000003L181.00625000000036 188.24049999999943L177.48775000000023 187.12499999999977L172.11375000000032 192.5064999999995L172.91725000000042 202.65499999999975L169.54575000000034 204.48750000000018L169.22775000000001 208.35500000000025L166.39325000000042 210.96649999999954L157.1327500000001 213.15650000000005L160.4102499999999 220.6835000000001L177.0387500000004 221.35250000000042L178.5322500000001 229.10949999999957L184.08275000000003 233.1359999999995L187.49625000000037 233.67200000000025L184.88924999999995 243.90700000000038L179.85625000000027 242.53900000000044L177.7732500000002 249.4685000000004L179.4032500000003 253.0129999999997L177.62875000000008 257.9094999999995L179.01074999999992 261.24649999999974L183.66174999999998 261.2530000000004L184.21325000000024 267.48399999999947L183.1302500000004 270.8744999999999L186.75625000000025 277.75049999999965L183.98124999999993 280.1490000000001L180.40425000000027 280.5949999999996L178.02774999999997 283.4344999999996L174.29325000000006 283.8499999999999L174.0522500000003 294.03099999999995L162.5867500000004 292.0590000000004L161.50975000000017 293.0105000000003L160.97174999999993 298.33849999999984z">
      <title id="t329">Première circonscription des Hautes-Pyrénées</title>
      <desc id="d329">Cantons de : Arreau, Aureilhan, Bagnères-de-Bigorre, La Barthe-de-Neste, Bordères-Louron, Campan, Castelnau-Magnoac, Galan, Lannemezan, Mauléon-Barousse, Pouyastruc, Saint-Laurent-de-Neste, Séméac, Tarbes I, Tarbes III, Tarbes IV, Tournay, Trie-sur-Baïse, Vieille-Aure</desc>
    </path><path class="circo" id="id-065-02" d="M120.15625 0L115.15625 2.6559999999994943L107.34375 2.8125L106.875 10.625L97.5 12.655999999999494L97.8125 16.718499999999494L99.84375 24.0625L99.21875 27.655999999999494L100.78125 29.843499999999494L98.59375 36.875L100 40.155999999999494L101.875 40.3125L109.375 37.655999999999494L115 45.780999999999494L117.96875 47.655999999999494L120.3125 51.5625L120 54.843499999999494L121.875 57.655999999999494L120.15625 61.249500000000126L119.0625 66.0934999999995L118.125 69.8434999999995L123.59375 71.7184999999995L124.21875 79.37450000000013L127.65625 79.8434999999995L130.9375 82.6559999999995L128.90625 85.1559999999995L125.3125 84.99950000000013L110.9375 86.4059999999995L112.65625 92.1875L110.46875 97.9684999999995L109.375 103.5934999999995L116.25 110.4684999999995L110.3125 117.49950000000013L120.625 117.6559999999995L122.65625 112.6559999999995L125.3125 103.9059999999995L128.4375 106.0934999999995L131.875 97.9684999999995L137.8125 97.1875L136.875 105.1559999999995L142.96875 110.62450000000013L137.34375 124.6875L138.75 125.7809999999995L137.1875 127.49950000000013L140 127.8125L138.4375 130.9375L139.53125 132.3434999999995L137.03125 137.8125L139.21875 140.9375L140.9375 140.1559999999995L141.25 145.1559999999995L151.09375 154.8434999999995L149.84375 158.5934999999995L149.21875 159.5309999999995L144.375 165.9375L142.5 166.87450000000013L137.65625 163.4375L128.125 164.8434999999995L127.1875 168.2809999999995L124.375 176.4059999999995L120 180.3125L120.3125 188.12450000000013L121.5625 191.5625L128.75 193.5934999999995L127.96875 195.4684999999995L131.09375 197.9684999999995L131.09375 199.99950000000013L127.96875 209.2184999999995L119.84375 220.7809999999995L119.0625 226.5625L117.96875 230.3125L112.65625 227.8125L109.21875 226.4059999999995L107.5 227.3434999999995L110.15625 253.74950000000013L100.15625 253.9059999999995L95.625 259.6875L91.40625 252.9684999999995L89.53125 252.49950000000013L85.625 259.3745000000001L85.3125 264.6875L81.71875 268.5934999999995L80 270.1559999999995L76.71875 282.1875L68.125 286.2495000000001L63.75 292.3434999999995L56.5625 289.9995000000001L57.34375 295.9375L55 298.7495000000001L58.59375 303.1245000000001L59.375 307.0309999999995L54.6875 315.9375L54.6875 319.9995000000001L61.71875 326.2495000000001L57.8125 327.0309999999995L53.90625 331.5625L43.75 337.1875L38.4375 334.0625L28.28125 334.5309999999995L29.6875 344.0625L26.40625 351.0934999999995L16.71875 353.5934999999995L14.6875 361.4059999999995L15.78125 379.3745000000001L18.28125 382.4995000000001L20.3125 390.3125L17.8125 397.3434999999995L12.34375 396.8745000000001L5.9375 404.0625L0 405.1559999999995L1.09375 412.9684999999995L4.6875 417.8125L4.6875 423.7495000000001L8.28125 432.9684999999995L5.78125 444.2184999999995L9.21875 448.9059999999995L20.625 452.1875L22.03125 455.6245000000001L30.15625 461.2495000000001L35.46875 459.5309999999995L37.5 462.4995000000001L38.4375 468.4375L48.75 474.5309999999995L54.6875 475.9375L61.25 480.6245000000001L65.15625 479.8434999999995L71.5625 475.3125L73.125 482.9684999999995L76.25 487.9684999999995L75.625 489.9995000000001L80.625 493.2809999999995L86.5625 501.5625L91.5625 510.4684999999995L92.34375 512.3434999999995L92.5 516.5625L93.90625 517.9684999999995L109.6875 521.4059999999995L112.03125 531.2495000000001L114.375 534.3745000000001L136.09375 539.5309999999995L143.28125 535.7809999999995L145.46875 530.3125L149.375 529.3745000000001L160.9375 532.3434999999995L168.125 528.9059999999995L172.65625 522.3434999999995L176.5625 521.0934999999995L183.75 524.5309999999995L187.8125 524.5309999999995L195.3125 521.5625L197.03125 517.8125L195 507.8125L197.34375 502.3434999999995L186.875 490.1559999999995L187.96875 479.9995000000001L181.40625 472.4995000000001L183.90625 467.0309999999995L184.6875 456.8745000000001L187.8125 452.9684999999995L187.96875 446.4059999999995L191.40625 442.4995000000001L194.6875 439.9995000000001L204.53125 438.2809999999995L212.5 429.0625L212.8125 424.9995000000001L205.46875 422.6559999999995L200.78125 409.9995000000001L201.09375 404.3745000000001L198.90625 401.2495000000001L198.28125 395.3125L196.875 394.0625L187.1875 395.4684999999995L180.3125 391.2495000000001L174.375 391.7184999999995L160.15625 383.9059999999995L159.21875 382.1875L161.71875 378.9059999999995L162.5 371.2495000000001L166.25 369.9995000000001L167.96875 366.2495000000001L167.8125 356.7184999999995L165.3125 351.5625L157.1875 342.6559999999995L161.09375 343.2809999999995L164.6875 348.1245000000001L169.6875 350.9375L173.4375 349.3745000000001L170.3125 342.1875L168.4375 330.3125L171.5625 319.5309999999995L170.625 317.8125L163.90625 317.4995000000001L163.28125 317.1875L167.34375 308.1245000000001L163.28125 303.2809999999995L160.9375 298.2809999999995L161.5625 292.9684999999995L162.65625 292.0309999999995L174.0625 294.0625L174.21875 283.9059999999995L177.96875 283.4375L180.46875 280.6245000000001L183.90625 280.1559999999995L186.71875 277.8125L183.125 270.9375L184.21875 267.4995000000001L183.59375 261.2495000000001L179.0625 261.2495000000001L177.65625 257.9684999999995L179.375 252.9684999999995L177.8125 249.5309999999995L179.84375 242.49950000000013L184.84375 243.9059999999995L187.5 233.74950000000013L184.0625 233.12450000000013L178.59375 229.0625L177.03125 221.4059999999995L160.46875 220.62450000000013L157.1875 213.12450000000013L166.40625 210.9375L169.21875 208.2809999999995L169.53125 204.5309999999995L172.96875 202.6559999999995L172.1875 192.49950000000013L177.5 187.1875L180.9375 188.2809999999995L182.5 186.87450000000013L184.375 177.8125L191.5625 175.9375L192.03125 170.3125L192.65625 165.1559999999995L196.40625 165.62450000000013L197.34375 165.7809999999995L205.625 166.0934999999995L212.8125 162.0309999999995L213.28125 167.9684999999995L220.9375 169.5309999999995L224.84375 168.74950000000013L227.1875 165.62450000000013L227.34375 165.4684999999995L232.34375 165.7809999999995L233.59375 166.7184999999995L232.5 168.12450000000013L237.1875 170.3125L238.4375 175.3125L243.125 177.49950000000013L252.8125 168.5934999999995L252.8125 166.4059999999995L255 159.2184999999995L254.6875 155.1559999999995L252.8125 153.9059999999995L248.59375 152.6559999999995L242.65625 139.5309999999995L237.34375 142.49950000000013L233.90625 141.24950000000013L226.5625 142.49950000000013L223.125 138.2809999999995L216.25 140.4684999999995L213.75 134.99950000000013L215.46875 135.7809999999995L212.8125 122.0309999999995L205.625 124.2184999999995L202.03125 120.62450000000013L200.3125 114.8434999999995L196.09375 110.4684999999995L197.65625 104.2184999999995L197.34375 103.74950000000013L209.53125 98.74950000000013L205 90.3125L205 89.6875L201.875 85.3125L200.3125 86.24950000000013L197.03125 84.99950000000013L194.53125 80.3125L192.96875 70.62450000000013L194.21875 69.0625L193.125 65.62450000000013L186.71875 54.843499999999494L177.96875 59.0625L173.75 54.843499999999494L173.125 51.093499999999494L167.65625 53.749500000000126L161.71875 54.0625L155.9375 43.4375L151.71875 38.905999999999494L145.625 39.6875L142.96875 31.25L138.28125 26.718499999999494L136.09375 10.625L132.5 3.125L124.6875 3.5934999999994943L124.53125 2.0309999999994943L122.8125 2.8125L120.15625 0zM99.375 138.9059999999995L93.28125 140.7809999999995L95 147.8125L100.625 147.3434999999995L101.875 162.3434999999995L92.8125 159.99950000000013L90.3125 163.12450000000013L90.15625 169.2184999999995L92.1875 174.5309999999995L97.96875 174.5309999999995L106.71875 177.9684999999995L107.03125 177.9684999999995L109.375 174.8434999999995L109.375 170.7809999999995L110 165.62450000000013L111.25 158.12450000000013L112.1875 154.37450000000013L111.5625 150.7809999999995L105.9375 144.0625L105.46875 144.0625L104.21875 141.24950000000013L99.375 138.9059999999995zM92.5 176.87450000000013L88.90625 177.8125L87.03125 181.24950000000013L83.75 188.12450000000013L80.625 190.3125L80.625 192.8125L79.21875 198.5934999999995L86.25 213.4375L88.59375 216.24950000000013L94.375 215.3125L95.15625 215.4684999999995L94.84375 211.87450000000013L98.90625 208.12450000000013L100.625 208.9059999999995L104.53125 204.37450000000013L105.15625 198.5934999999995L102.96875 195.3125L98.59375 191.24950000000013L100.9375 181.4059999999995L92.5 176.87450000000013z">
      <title id="t330">Deuxième circonscription des Hautes-Pyrénées</title>
      <desc id="d330">Cantons de : Argelès-Gazost, Aucun, Bordères-sur-l'Echez, Castelnau-Rivière-Basse, Laloubère, Lourdes Est, Lourdes Ouest, Luz-Saint-Sauveur, Maubourguet, Ossun, Rabastens-de-Bigorre, Saint-Pé-de-Bigorre, Tarbes II, Tarbes V, Vic-en-Bigorre</desc>
    </path></svg>