<svg xmlns="http://www.w3.org/2000/svg" version="1.1" xmlns:xlink="http://www.w3.org/1999/xlink" xmlns:svgjs="http://svgjs.dev/svgjs" width="616.8275" height="337.8295000000003" fill="#eeeeee" stroke="#cccccc" xmlns:sodipodi="http://sodipodi.sourceforge.net/DTD/sodipodi-0.dtd"><path class="circo" id="id-066-01" d="M510.93349999999987 152.17700000000036L512.6274999999998 153.35450000000037L502.6374999999996 154.2999999999995L497.4829999999997 151.3975000000005L495.56299999999965 151.90399999999954L493.88049999999964 155.4079999999999L494.34349999999995 164.3055000000004L496.70199999999966 167.20550000000003L495.7004999999998 168.88950000000023L491.59299999999973 172.90449999999964L485.89049999999986 172.0259999999996L481.6735 166.10750000000053L480.9694999999999 160.42149999999992L471.73749999999984 160.99050000000034L466.59249999999986 158.28499999999963L462.679 158.24749999999995L460.86449999999957 154.8180000000002L457.1754999999996 153.4450000000004L456.6395 152.39649999999983L455.49199999999985 149.0115000000003L461.17399999999975 143.68150000000014L463.08299999999974 138.51049999999987L468.94499999999994 138.27400000000011L468.7714999999997 132.4935000000005L473.7714999999997 135.60249999999996L474.9414999999999 140.01949999999965L477.7355 138.58749999999986L481.9524999999999 137.26549999999975L484.1719999999998 133.89350000000036L487.4860000000001 132.05400000000054L491.24750000000006 130.0694999999996L495.51999999999964 129.6169999999995L497.1139999999997 131.65949999999953L500.39199999999994 130.56550000000016L503.2349999999997 129.03350000000046L504.85749999999996 128.82349999999974L504.8750000000001 127.08150000000046L501.7365000000001 126.91749999999956L499.75649999999973 123.38549999999941L487.01599999999985 126.8119999999999L488.87599999999964 123.3669999999995L490.24749999999983 119.98649999999998L498.1759999999997 119.14099999999962L501.88549999999964 118.54399999999941L505.50749999999994 117.67849999999953L506.5029999999996 114.0039999999999L509.65100000000007 111.93499999999972L510.2449999999999 108.84400000000028L513.9269999999999 104.66300000000047L517.5360000000001 105.46100000000024L522.423 103.36599999999976L524.196 103.8130000000001L525.3594999999996 107.26700000000051L524.4815 113.39550000000031L525.6545 116.59899999999993L530.9465 118.8900000000001L534.7654999999997 118.58249999999998L532.4860000000001 121.58350000000041L531.3085000000001 132.48749999999973L525.9584999999998 134.3349999999998L535.412 139.0409999999997L533.295 142.11350000000039L527.79 142.34950000000026L526.9319999999999 145.58250000000044L512.4919999999997 146.5689999999995L510.93349999999987 152.17700000000036z">
      <title id="t331">Première circonscription des Pyrénées-Orientales</title>
      <desc id="d331">Cantons de : Perpignan III, Perpignan IV, Perpignan V, Perpignan VII, Perpignan IX, Toulouges</desc>
    </path><path class="circo" id="id-066-02" d="M379.06849999999963 125.50100000000043L372.0704999999998 123.67449999999963L363.8304999999997 118.43899999999962L361.0820000000001 113.22599999999966L350.1479999999998 113.60950000000003L351.6519999999997 122.91650000000004L343.35350000000005 130.34800000000018L338.97099999999966 129.41249999999968L340.5404999999996 132.8660000000002L340.1044999999999 140.45749999999998L342.3365000000001 145.71450000000027L341.20799999999974 149.18699999999944L342.78399999999976 153.03800000000024L336.9454999999999 153.18750000000023L330.5359999999996 157.30099999999993L328.3265 154.1300000000001L318.7574999999998 152.93549999999982L312.8729999999996 142.51999999999953L305.3710000000001 136.11700000000042L293.7405000000001 137.84400000000005L291.04949999999974 136.09649999999988L277.28399999999965 133.5985000000005L277.5664999999998 130.0350000000003L274.31749999999965 128.57849999999985L271.3544999999999 124.14650000000051L269.94699999999966 125.61900000000037L254.36049999999966 121.80299999999988L263.0309999999997 113.24600000000032L268.32449999999994 110.26849999999968L269.0844999999996 104.26799999999957L267.5694999999996 98.39550000000031L267.1029999999996 97.74350000000027L266.2729999999999 93.34249999999997L267.0585 89.81199999999944L263.2155 83.60699999999952L263.59999999999957 79.87049999999954L263.4699999999998 67.90399999999977L259.6445 67.2645L258.2664999999997 57.690000000000055L254.12049999999965 53.682000000000016L255.44449999999983 48.21950000000015L260.1429999999999 45.02650000000017L274.9135000000001 41.75650000000019L279.72399999999993 40.52999999999997L287.87800000000004 43.192999999999984L311.45249999999976 46.89999999999941L313.7379999999996 46.27399999999966L329.99649999999974 39.39049999999952L333.5359999999997 39.74900000000048L336.2779999999998 42.27600000000052L337.6835 43.61700000000042L354.7109999999998 42.24550000000022L360.57649999999967 43.484999999999445L372.33900000000006 47.4109999999996L388.63049999999987 48.863999999999805L399.6539999999999 47.31899999999996L399.99149999999986 47.37549999999942L407.16099999999983 50.81649999999968L426.46500000000003 48.68000000000052L433.56299999999976 45.367499999999836L437.90449999999964 38.650499999999965L441.11850000000004 26.11599999999953L451.85249999999996 13.885500000000093L461.6139999999996 11.559499999999616L473.42449999999985 3.4979999999995925L485.04999999999995 0L493.1004999999999 11.065499999999702L502.783 13.149999999999409L507.0830000000001 19.425999999999704L532.3654999999997 27.957000000000107L537.5925000000001 31.173000000000002L547.6549999999997 38.26900000000023L560.8029999999997 46.50949999999966L558.7194999999997 80.44149999999945L558.8229999999999 101.41300000000001L559.4295 113.03049999999985L558.6674999999997 122.8914999999995L555.206 124.3044999999995L558.4174999999999 126.48450000000025L557.3849999999999 152.22800000000007L557.4950000000001 160.7325000000003L560.634 184.2304999999999L554.2464999999999 186.44900000000007L551.9869999999997 184.00350000000003L547.2800000000001 187.41800000000012L543.381 187.43799999999965L538.1149999999997 177.21199999999953L536.0505 174.07100000000014L537.4095 164.74950000000035L534.171 167.02999999999975L528.2515000000001 167.30749999999944L526.1075 164.75299999999947L525.8355 158.53050000000053L512.6274999999998 153.35450000000037L512.5234999999998 153.35450000000037L510.93349999999987 152.17700000000036L512.4919999999997 146.5689999999995L526.9319999999999 145.58250000000044L527.79 142.34950000000026L533.295 142.11350000000039L535.412 139.0409999999997L525.9584999999998 134.3349999999998L531.3085000000001 132.48749999999973L532.4860000000001 121.58350000000041L534.7654999999997 118.58249999999998L530.9465 118.8900000000001L525.6545 116.59899999999993L524.4815 113.39550000000031L525.3594999999996 107.26700000000051L524.196 103.8130000000001L522.423 103.36599999999976L517.5360000000001 105.46100000000024L513.9269999999999 104.66300000000047L510.2449999999999 108.84400000000028L509.65100000000007 111.93499999999972L506.5029999999996 114.0039999999999L505.50749999999994 117.67849999999953L501.88549999999964 118.54399999999941L498.1759999999997 119.14099999999962L490.24749999999983 119.98649999999998L488.87599999999964 123.3669999999995L485.87699999999984 120.83949999999959L479.63599999999985 108.50749999999948L473.38899999999967 105.59549999999945L469.68399999999974 104.06349999999975L470.82449999999994 94.21550000000025L469.50499999999977 88.26400000000035L461.13049999999987 86.85699999999997L448.0414999999999 87.85399999999981L441.5704999999997 83.39050000000043L433.76800000000003 83.23849999999993L430.0295 82.01649999999972L427.86699999999996 85.31399999999962L427.0150000000001 91.07449999999972L430.43000000000006 98.14600000000041L423.3249999999998 105.02399999999966L424.9174999999997 106.72450000000026L415.0219999999996 110.97499999999968L407.8199999999998 110.33149999999978L402.57000000000005 111.7840000000001L400.78149999999994 116.59250000000043L398.1529999999998 118.79350000000045L394.64650000000006 118.08599999999956L387.6864999999998 123.54150000000004L382.1889999999996 123.60850000000028L379.06849999999963 125.50100000000043z">
      <title id="t332">Deuxième circonscription des Pyrénées-Orientales</title>
      <desc id="d332">Cantons de : Canet-en-Roussillon, La Côte-Radieuse, Latour-de-France, Perpignan I, Rivesaltes, Saint-Laurent-de-la-Salanque, Saint-Paul-de-Fenouillet, Sournia</desc>
    </path><path class="circo" id="id-066-03" d="M389.3009999999998 165.2909999999997L383.9749999999998 165.07749999999987L383.01999999999964 166.6814999999997L386.6229999999996 178.20799999999963L382.52999999999986 182.28150000000028L378.7009999999998 181.9934999999998L379.9244999999996 186.7840000000001L386.13200000000006 191.6904999999997L389.48350000000005 189.56299999999942L395.33950000000004 188.87249999999995L399.98249999999985 199.8275000000001L405.72749999999985 201.4009999999996L398.36599999999976 203.7149999999997L393.66150000000005 207.10199999999986L394.75599999999986 218.57999999999947L392.24249999999984 221.4435000000003L387.63800000000003 215.6669999999997L378.1849999999997 215.16200000000026L375.4339999999996 217.87249999999972L370.4095000000001 215.31550000000038L370.75549999999964 213.29650000000015L368.8905 213.3884999999998L367.59149999999977 209.9414999999999L355.9625 204.26649999999995L354.5799999999997 207.48050000000035L352.12549999999965 214.92700000000013L353.5039999999998 218.39899999999943L352.3359999999997 233.9224999999999L337.46350000000007 242.5509999999997L326.06799999999964 240.0165000000004L316.395 242.0754999999997L314.7334999999998 245.28900000000021L311.3684999999998 246.1775L309.6614999999997 249.42750000000046L304.38549999999964 251.5835000000004L294.53550000000007 260.4819999999995L275.933 276.2365L259.015 283.5865000000001L252.7679999999998 285.172L249.30649999999957 283.19399999999973L242.22800000000007 286.3409999999999L226.56149999999968 277.4120000000005L221.18349999999964 282.98599999999965L213.49099999999964 284.72800000000007L202.87449999999978 289.97799999999984L184.00350000000003 286.1125000000004L173.89700000000005 291.3149999999996L170.17650000000003 295.19499999999994L169.0395000000001 300.5525L166.13099999999974 302.73199999999974L165.60549999999978 310.10350000000017L155.35750000000007 314.6939999999995L153.8209999999998 320.43049999999994L149.90700000000004 320.0675000000001L142.7494999999999 323.37350000000015L127.2845000000001 325.3295000000003L124.7384999999997 328.51L122.73199999999974 328.6794999999995L112.64999999999986 321.9889999999998L104.45099999999968 313.0049999999994L98.61349999999959 293.87399999999957L99.56950000000006 285.77800000000025L92.55749999999978 282.0365000000004L93.0279999999999 273.9904999999999L89.18200000000013 268.38250000000016L82.57499999999993 272.71349999999984L74.91350000000011 270.7955000000004L69.3259999999998 270.8164999999997L66.7349999999999 265.6134999999995L61.81299999999965 262.4204999999995L56.194999999999595 262.87450000000035L52.987999999999715 260.59600000000046L50.72549999999978 255.13799999999947L45.68899999999985 251.71550000000025L37.905999999999835 250.76999999999998L34.526500000000055 248.51049999999987L18.544499999999857 249.60699999999974L9.601499999999987 244.95499999999993L3.591000000000122 245.86450000000013L2.3924999999997 244.22050000000013L0 230.29549999999972L3.993499999999699 223.22599999999966L5.9669999999999845 211.23950000000036L11.379499999999894 205.39449999999988L19.377000000000066 204.76549999999975L26.399000000000115 199.50399999999945L32.169999999999845 200.25600000000054L42.805999999999926 195.10850000000005L48.511499999999614 193.50850000000037L60.06149999999991 195.88750000000005L63.95299999999963 195.00700000000052L63.53549999999984 191.0889999999995L69.11999999999978 189.59299999999985L71.63299999999992 186.6089999999997L72.04299999999989 180.78399999999988L74.92599999999982 175.67000000000007L79.37299999999993 179.62200000000053L85.40599999999984 179.3470000000002L89.08649999999966 181.05699999999956L92.69000000000005 179.35749999999985L96.24649999999974 174.49150000000031L104.14850000000001 174.61000000000013L107.25149999999985 172.1079999999995L107.14749999999981 168.43250000000012L113.37600000000009 157.3395000000005L116.42949999999985 149.09599999999955L118.18899999999985 148.99599999999964L125.12849999999958 153.28399999999988L128.79599999999982 153.88299999999958L135.68849999999998 151.06499999999983L137.28199999999958 147.54299999999944L143.23849999999993 148.55299999999943L148.70149999999967 146.36750000000006L162.58350000000007 146.82000000000016L171.65099999999995 142.65949999999975L178.1284999999997 147.3905000000002L182.02850000000012 148.41850000000022L187.87350000000004 147.3535000000004L192.13799999999992 153.65800000000036L192.1614999999997 153.89699999999948L192.19349999999963 156.03200000000015L199.0564999999998 154.37649999999962L198.97199999999998 150.163L210.23449999999968 142.43550000000027L221.1930000000001 138.15500000000043L226.39149999999972 127.49450000000024L229.7014999999999 125.26899999999955L229.80449999999962 121.26899999999978L234.3399999999997 124.79950000000031L239.9525 126.10599999999977L254.36049999999966 121.80299999999988L269.94699999999966 125.61900000000037L271.3544999999999 124.14650000000051L274.31749999999965 128.57849999999985L277.5664999999998 130.0350000000003L277.28399999999965 133.5985000000005L291.04949999999974 136.09649999999988L293.7405000000001 137.84400000000005L305.3710000000001 136.11700000000042L312.8729999999996 142.51999999999953L318.7574999999998 152.93549999999982L328.3265 154.1300000000001L330.5359999999996 157.30099999999993L336.9454999999999 153.18750000000023L342.78399999999976 153.03800000000024L341.20799999999974 149.18699999999944L342.3365000000001 145.71450000000027L340.1044999999999 140.45749999999998L340.5404999999996 132.8660000000002L338.97099999999966 129.41249999999968L343.35350000000005 130.34800000000018L351.6519999999997 122.91650000000004L350.1479999999998 113.60950000000003L361.0820000000001 113.22599999999966L363.8304999999997 118.43899999999962L372.0704999999998 123.67449999999963L379.06849999999963 125.50100000000043L382.1889999999996 123.60850000000028L387.6864999999998 123.54150000000004L394.64650000000006 118.08599999999956L398.1529999999998 118.79350000000045L400.78149999999994 116.59250000000043L402.57000000000005 111.7840000000001L407.8199999999998 110.33149999999978L415.0219999999996 110.97499999999968L424.9174999999997 106.72450000000026L423.3249999999998 105.02399999999966L430.43000000000006 98.14600000000041L427.0150000000001 91.07449999999972L427.86699999999996 85.31399999999962L430.0295 82.01649999999972L433.76800000000003 83.23849999999993L441.5704999999997 83.39050000000043L448.0414999999999 87.85399999999981L461.13049999999987 86.85699999999997L469.50499999999977 88.26400000000035L470.82449999999994 94.21550000000025L469.68399999999974 104.06349999999975L473.38899999999967 105.59549999999945L479.63599999999985 108.50749999999948L485.87699999999984 120.83949999999959L488.87599999999964 123.3669999999995L487.01599999999985 126.8119999999999L499.75649999999973 123.38549999999941L501.7365000000001 126.91749999999956L504.8750000000001 127.08150000000046L504.85749999999996 128.82349999999974L503.2349999999997 129.03350000000046L500.39199999999994 130.56550000000016L497.1139999999997 131.65949999999953L495.51999999999964 129.6169999999995L491.24750000000006 130.0694999999996L484.1719999999998 133.89350000000036L481.9524999999999 137.26549999999975L477.7355 138.58749999999986L474.9414999999999 140.01949999999965L473.7714999999997 135.60249999999996L468.7714999999997 132.4935000000005L468.94499999999994 138.27400000000011L463.08299999999974 138.51049999999987L461.17399999999975 143.68150000000014L455.49199999999985 149.0115000000003L445.7579999999996 147.08999999999946L432.50099999999975 151.2360000000001L426.5069999999997 151.33400000000051L424.4124999999997 150.54650000000038L416.7429999999996 144.42199999999957L414.5085 145.03799999999956L414.2595 148.99900000000002L403.78150000000005 158.07050000000004L401.9264999999996 163.72449999999958L397.50200000000007 167.46200000000044L395.69950000000006 164.62400000000002L392.5894999999997 163.54199999999992L389.3009999999998 165.2909999999997z">
      <title id="t333">Troisième circonscription des Pyrénées-Orientales</title>
      <desc id="d333">Cantons de : Millas, Mont-Louis, Olette, Perpignan II, Perpignan VI, Perpignan VIII, Prades, Saillagouse, Saint-Estève, Vinça</desc>
    </path><path class="circo" id="id-066-04" d="M555.6975 256.6610000000003L547.2174999999999 260.93650000000025L542.7024999999998 257.53849999999943L536.6800000000001 257.4924999999996L533.9249999999998 260.19649999999956L528.1039999999996 260.98100000000045L519.8219999999998 252.45949999999993L513.7709999999998 256.74300000000017L510.27049999999974 265.6174999999996L508.5374999999999 266.48450000000025L494.0735000000001 264.79799999999955L487.38099999999974 261.02300000000014L485.57050000000004 261.89550000000054L483.61999999999966 267.5490000000002L481.7795000000001 268.3495000000005L476.20349999999974 266.16449999999986L474.25250000000005 265.6039999999996L470.2574999999996 274.6939999999995L463.2819999999998 278.1320000000005L456.61249999999995 288.1115L454.8104999999998 289.04750000000035L445.4575 292.49400000000037L440.5694999999997 288.95849999999996L438.85699999999986 285.2684999999997L436.8504999999999 284.9644999999998L426.4394999999996 286.5459999999996L424.9905000000001 286.48900000000026L411.1519999999996 295.99450000000047L403.73249999999985 296.8624999999997L402.28700000000003 306.2575000000004L400.7819999999998 307.44249999999965L395.18249999999966 306.66000000000054L394.7784999999999 308.5239999999999L397.42849999999976 311.25850000000014L398.8069999999999 319.1795000000002L404.307 325.0339999999994L404.36800000000005 331.14400000000046L403.17999999999984 332.8075000000001L399.21299999999974 333.5114999999996L379.25700000000006 330.65200000000004L367.91999999999973 326.10400000000027L367.004 324.27350000000047L356.09999999999957 324.2444999999998L353.26599999999985 326.7935L351.7484999999999 332.5654999999995L347.7359999999999 336.84650000000033L345.93399999999974 337.7094999999997L343.9425 337.8295000000003L329.1379999999998 332.5774999999999L323.3805000000001 334.0414999999996L319.73149999999976 329.65149999999994L315.736 322.8705000000002L309.8014999999998 317.5030000000004L302.75949999999966 313.9025000000004L301.4744999999999 304.19899999999984L291.6969999999998 304.08450000000016L280.54399999999987 299.44200000000023L268.7164999999999 297.10500000000025L265.26099999999985 295.02250000000004L263.8689999999997 291.2564999999995L256.2209999999999 289.7535000000005L252.7679999999998 285.172L259.015 283.5865000000001L275.933 276.2365L294.53550000000007 260.4819999999995L304.38549999999964 251.5835000000004L309.6614999999997 249.42750000000046L311.3684999999998 246.1775L314.7334999999998 245.28900000000021L316.395 242.0754999999997L326.06799999999964 240.0165000000004L337.46350000000007 242.5509999999997L352.3359999999997 233.9224999999999L353.5039999999998 218.39899999999943L352.12549999999965 214.92700000000013L354.5799999999997 207.48050000000035L355.9625 204.26649999999995L367.59149999999977 209.9414999999999L368.8905 213.3884999999998L370.75549999999964 213.29650000000015L370.4095000000001 215.31550000000038L375.4339999999996 217.87249999999972L378.1849999999997 215.16200000000026L387.63800000000003 215.6669999999997L392.24249999999984 221.4435000000003L394.75599999999986 218.57999999999947L393.66150000000005 207.10199999999986L398.36599999999976 203.7149999999997L405.72749999999985 201.4009999999996L399.98249999999985 199.8275000000001L395.33950000000004 188.87249999999995L389.48350000000005 189.56299999999942L386.13200000000006 191.6904999999997L379.9244999999996 186.7840000000001L378.7009999999998 181.9934999999998L382.52999999999986 182.28150000000028L386.6229999999996 178.20799999999963L383.01999999999964 166.6814999999997L383.9749999999998 165.07749999999987L389.3009999999998 165.2909999999997L392.5894999999997 163.54199999999992L395.69950000000006 164.62400000000002L397.50200000000007 167.46200000000044L401.9264999999996 163.72449999999958L403.78150000000005 158.07050000000004L414.2595 148.99900000000002L414.5085 145.03799999999956L416.7429999999996 144.42199999999957L424.4124999999997 150.54650000000038L426.5069999999997 151.33400000000051L432.50099999999975 151.2360000000001L445.7579999999996 147.08999999999946L455.49199999999985 149.0115000000003L456.6395 152.39649999999983L457.1754999999996 153.4450000000004L460.86449999999957 154.8180000000002L462.679 158.24749999999995L466.59249999999986 158.28499999999963L471.73749999999984 160.99050000000034L480.9694999999999 160.42149999999992L481.6735 166.10750000000053L485.89049999999986 172.0259999999996L491.59299999999973 172.90449999999964L495.7004999999998 168.88950000000023L496.70199999999966 167.20550000000003L494.34349999999995 164.3055000000004L493.88049999999964 155.4079999999999L495.56299999999965 151.90399999999954L497.4829999999997 151.3975000000005L502.6374999999996 154.2999999999995L512.5234999999998 153.35450000000037L512.6274999999998 153.35450000000037L525.8355 158.53050000000053L526.1075 164.75299999999947L528.2515000000001 167.30749999999944L534.171 167.02999999999975L537.4095 164.74950000000035L536.0505 174.07100000000014L538.1149999999997 177.21199999999953L543.381 187.43799999999965L547.2800000000001 187.41800000000012L551.9869999999997 184.00350000000003L554.2464999999999 186.44900000000007L560.634 184.2304999999999L561.4594999999997 187.9004999999995L564.0944999999999 215.8140000000003L567.0670000000001 220.78949999999963L574.7685000000001 222.50700000000052L580.6524999999999 227.39199999999983L584.4319999999999 228.35550000000012L588.1209999999999 227.51549999999952L600.3485000000001 232.60350000000017L595.7995 238.85700000000043L599.4219999999996 243.0034999999998L598.8045 244.86300000000028L597.2449999999998 248.202L598.3749999999998 251.93899999999985L607.6079999999996 254.94500000000016L610.7475 261.7624999999998L609.1519999999997 265.0374999999997L612.3974999999996 267.2135000000003L612.4205000000001 271.07150000000047L616.8275 277.41750000000025L616.2919999999997 279.3105000000003L602.5925000000001 280.2925000000005L594.8894999999999 279.2444999999998L593.6644999999999 277.6895000000002L588.2504999999998 280.2335000000005L584.4385 284.86599999999953L578.5194999999999 284.4245000000001L565.9514999999999 271.7100000000005L559.5004999999998 257.1339999999998L555.6975 256.6610000000003z">
      <title id="t334">Quatrième circonscription des Pyrénées-Orientales</title>
      <desc id="d334">Cantons de : Argelès-sur-Mer, Arles-sur-Tech, Céret, Côte-Vermeille, Elne, Prats-de-Mollo-la-Preste, Thuir</desc>
    </path></svg>