<svg xmlns="http://www.w3.org/2000/svg" version="1.1" xmlns:xlink="http://www.w3.org/1999/xlink" xmlns:svgjs="http://svgjs.dev/svgjs" width="585.5619999999999" height="614.7430000000008" fill="#eeeeee" stroke="#cccccc" xmlns:sodipodi="http://sodipodi.sourceforge.net/DTD/sodipodi-0.dtd"><path class="circo" id="id-067-01" d="M451.0624999999993 406.472L445.3684999999996 400.51000000000045L448.69249999999965 387.2115000000008L436.91999999999894 365.0954999999999L434.7919999999999 343.99350000000027L461.2069999999994 359.97600000000034L486.67949999999905 352.1805000000006L487.2969999999998 343.8600000000008L500.1484999999991 341.6910000000007L506.3474999999994 350.5490000000009L513.4764999999993 354.1395L520.3794999999991 346.8335000000002L530.5894999999998 354.3885L536.9109999999989 354.9705000000006L529.0434999999991 373.5374999999999L507.4929999999995 365.4325000000006L497.1449999999993 373.7805000000003L496.9589999999994 380.317L482.7714999999989 386.50350000000003L478.1809999999996 405.73849999999993L469.73649999999907 399.4839999999999L451.0624999999993 406.472z">
      <title id="t335">Première circonscription du Bas-Rhin</title>
      <desc id="d335">Cantons de : Strasbourg I, Strasbourg II, Strasbourg IV, Strasbourg VI (partie située au sud d'une ligne définie par l'axe de la route d'Oberhausbergen et à l'ouest d'une ligne définie par l'axe de la voie de chemin de fer de Hausbergen à Graffenstaden), Strasbourg IX</desc>
    </path><path class="circo" id="id-067-02" d="M449.06849999999963 501.6820000000007L447.54299999999944 492.45250000000055L453.22349999999915 484.3335000000002L449.79349999999954 480.6460000000004L445.99199999999996 477.11850000000027L449.6119999999996 467.6385000000005L442.88149999999973 443.7895000000003L453.11699999999973 444.7625000000005L466.74499999999966 437.78099999999995L468.7849999999992 433.0460000000005L463.6439999999993 419.49749999999995L477.8484999999989 416.38000000000034L478.55999999999995 405.81750000000056L482.7714999999989 386.50350000000003L496.9589999999994 380.317L497.1449999999993 373.7805000000003L507.4929999999995 365.4325000000006L529.0434999999991 373.5374999999999L536.9109999999989 354.9705000000006L547.567499999999 356.3235000000009L549.1149999999993 367.0590000000004L554.510499999999 404.55100000000016L554.1985 474.3635000000006L542.7909999999997 492.5725L519.8505 506.7775000000006L505.6949999999995 505.61450000000036L471.8089999999995 495.91800000000035L463.69949999999903 502.30800000000045L449.06849999999963 501.6820000000007z">
      <title id="t336">Deuxième circonscription du Bas-Rhin</title>
      <desc id="d336">Cantons de : Strasbourg III, Strasbourg VII, Strasbourg VIII, Strasbourg X, Commune de Illkirch-Graffenstaden</desc>
    </path><path class="circo" id="id-067-03" d="M530.5894999999998 354.3885L520.3794999999991 346.8335000000002L513.4764999999993 354.1395L506.3474999999994 350.5490000000009L500.1484999999991 341.6910000000007L487.2969999999998 343.8600000000008L486.67949999999905 352.1805000000006L461.2069999999994 359.97600000000034L434.7919999999999 343.99350000000027L455.7979999999998 335.03700000000094L452.48149999999896 332.0870000000002L448.23549999999955 324.9815000000001L449.65049999999906 316.3250000000005L465.257499999999 316.2600000000009L465.0604999999996 310.2710000000002L464.297499999999 306.31950000000074L468.2764999999995 305.85050000000024L466.4564999999993 300.34650000000056L476.4029999999991 281.8855000000008L485.72599999999966 278.99850000000015L483.137999999999 274.4900000000007L478.09049999999957 275.67350000000033L478.24049999999943 260.65000000000055L483.88099999999895 252.60350000000017L493.54549999999904 255.1750000000004L509.02649999999994 242.20100000000002L513.1774999999993 256.16750000000025L532.5834999999995 262.7425000000005L533.6014999999998 279.60199999999986L541.1839999999995 289.46300000000065L542.2129999999993 285.30000000000086L545.687999999999 276.45900000000097L555.6259999999997 273.77050000000054L575.135499999999 289.64950000000044L585.5619999999999 289.1775000000007L579.9964999999997 310.17400000000066L547.567499999999 356.3235000000009L530.5894999999998 354.3885z">
      <title id="t337">Troisième circonscription du Bas-Rhin</title>
      <desc id="d337">Cantons de : Bischheim, Schiltigheim, Strasbourg V, Strasbourg VI (partie non comprise dans la 1re circonscription), Communes de : Reichstett et Souffelweyersheim</desc>
    </path><path class="circo" id="id-067-04" d="M276.62849999999935 380.9730000000002L277.2499999999991 374.6350000000007L274.68599999999924 366.47950000000037L275.166999999999 364.05050000000074L272.8679999999997 355.7755000000009L273.4304999999995 349.2445000000009L269.7519999999997 344.1540000000009L273.32599999999957 342.8925000000004L274.4024999999999 339.44349999999986L273.11849999999936 335.7294999999999L267.69199999999955 333.5970000000009L269.3784999999991 325.2800000000002L271.3469999999995 324.4690000000003L274.3464999999992 322.201L273.0149999999992 320.8789999999999L262.00849999999946 320.0825000000009L256.2379999999996 318.34800000000087L253.94699999999943 310.60249999999996L252.8989999999999 306.8240000000003L257.26099999999974 293.91700000000014L251.09449999999924 293.5665000000006L249.79299999999967 289.56950000000006L248.77099999999928 285.81950000000006L239.99499999999898 277.60850000000005L230.13599999999997 274.7610000000009L232.45349999999917 271.7050000000006L230.9089999999992 270.2025000000003L228.40399999999931 268.50650000000087L231.27199999999903 266.04400000000055L237.576499999999 257.3464999999999L235.94650000000001 253.46650000000068L233.7934999999993 253.18700000000035L235.50599999999918 252.0550000000003L245.3125 254.5195000000001L246.45799999999895 250.65850000000069L245.2004999999997 249.0840000000003L249.00249999999915 245.51450000000045L253.14199999999914 245.24800000000027L259.9784999999997 240.7350000000008L265.3974999999991 233.65049999999997L271.5479999999991 233.66550000000075L275.58349999999905 238.11450000000036L279.64399999999955 237.23700000000008L279.9219999999991 237.8335000000004L280.30149999999935 241.95300000000088L295.52049999999895 244.8485000000005L300.4774999999995 250.47250000000076L306.1984999999993 251.06050000000096L309.0064999999993 253.06600000000003L317.0474999999999 262.89350000000013L317.4154999999996 264.1915000000006L317.6164999999992 266.3605000000007L325.2049999999997 270.58850000000007L331.60749999999894 271.7960000000005L332.0819999999992 273.91700000000014L335.41849999999954 275.0565000000006L335.3559999999993 281.31900000000087L337.4599999999998 280.82550000000083L338.53849999999966 282.70500000000084L334.6524999999997 283.9085L330.50649999999905 291.60349999999994L331.26499999999965 293.8975000000005L329.60649999999987 294.0930000000003L329.9244999999996 295.74050000000057L330.0064999999995 298.2370000000003L323.501 298.26400000000035L322.91099999999915 301.87200000000075L324.68099999999936 304.83400000000074L326.06349999999907 306.0635000000002L317.30749999999944 309.79700000000093L318.1944999999996 318.59300000000076L323.1014999999991 327.8120000000001L321.715999999999 333.3555000000001L324.0894999999989 335.8405000000005L331.87349999999924 332.9275000000007L335.393499999999 335.535000000001L335.25499999999965 339.9705000000006L329.3339999999989 341.27000000000066L331.47699999999986 346.9175000000007L330.6264999999996 348.89150000000086L324.9459999999999 351.80150000000026L320.67949999999996 351.39600000000087L323.48499999999945 361.3370000000009L321.97599999999966 365.28850000000034L323.5604999999998 366.7590000000007L324.990499999999 368.2960000000003L322.62249999999995 371.68049999999994L323.25849999999946 375.5275000000006L329.35699999999997 375.7884999999999L332.7374999999995 373.125L346.8624999999997 377.1670000000006L352.7629999999999 377.6515000000006L350.80499999999915 381.2665000000004L350.5049999999994 395.90100000000007L345.08899999999926 414.7180000000003L339.292999999999 412.01200000000085L340.27999999999906 407.7470000000005L325.7684999999992 403.63500000000045L321.8119999999999 404.8135000000002L320.3704999999991 404.36300000000074L320.49749999999904 387.18000000000075L321.480499999999 384.30400000000077L311.51199999999903 381.02300000000014L307.6405 381.98900000000094L301.42799999999966 387.69949999999994L297.2409999999991 386.99550000000045L294.7079999999994 383.5245000000009L291.46949999999947 386.19950000000017L285.243999999999 387.45700000000056L283.3425 388.651000000001L276.62849999999935 380.9730000000002z">
      <title id="t338">Quatrième circonscription du Bas-Rhin</title>
      <desc id="d338">Cantons de : Geispolsheim, Mundolsheim (moins les communes de Reichstett et de Souffelweyersheim), Truchtersheim, Communes de : Lingolsheim et Ostwald</desc>
    </path><path class="circo" id="id-067-05" d="M159.24399999999991 418.7835000000007L153.19849999999974 419.9240000000009L150.61549999999897 423.08899999999994L145.79549999999927 429.9800000000005L140.26199999999903 432.3270000000002L138.09999999999945 438.2950000000005L139.04849999999897 443.8420000000008L130.41699999999992 449.2214999999999L128.7455 448.76800000000003L124.2534999999998 453.32200000000057L112.40699999999947 458.42750000000024L109.10999999999945 461.318L109.35049999999933 465.24400000000014L107.78099999999995 466.7680000000007L97.43049999999926 468.2625000000007L94.82499999999959 470.82700000000045L96.93249999999921 473.7900000000002L102.85749999999894 476.3345000000004L100.95049999999901 482.5400000000002L105.787499999999 486.1835000000008L109.14899999999989 494.13650000000075L111.30499999999984 494.51099999999997L117.68199999999979 493.87350000000083L129.10549999999944 498.6970000000008L135.1909999999998 497.50600000000077L141.47199999999998 497.58800000000065L144.82399999999984 503.00350000000094L148.4699999999998 504.7675000000004L148.33999999999946 506.74600000000055L152.358999999999 511.78300000000036L149.01899999999955 517.3895000000005L149.7709999999995 519.502L156.11749999999915 520.9424999999999L166.82399999999916 518.3890000000008L165.72149999999965 519.8644999999999L162.1124999999995 524.2920000000004L158.45249999999965 524.8210000000006L157.96799999999962 531.3925000000006L163.16549999999893 535.6635000000006L174.2739999999992 534.3844999999999L194.34499999999957 544.0575000000001L198.7379999999996 549.0645000000006L200.96699999999942 548.7700000000007L209.95499999999993 553.2650000000001L213.916999999999 553.954L216.38149999999996 557.2095000000002L227.5834999999995 562.4025000000006L226.13649999999893 566.1015000000009L225.8069999999998 575.9885000000008L224.692 590.0430000000006L246.02499999999964 596.8435L243.90749999999912 607.2670000000005L245.28599999999983 610.6865000000005L259.7204999999997 614.4000000000005L270.47399999999925 614.7430000000008L279.41599999999994 605.806L279.67149999999947 592.9375000000005L285.74649999999906 583.9955000000009L292.35199999999963 575.3415000000007L295.66499999999905 567.2910000000002L297.67099999999914 562.1100000000001L307.9989999999998 551.2004999999999L313.70199999999954 530.0915000000009L314.215999999999 528.085000000001L319.8084999999992 499.4760000000008L324.54349999999977 494.674L336.8859999999995 489.1820000000007L340.07499999999936 485.992500000001L341.60949999999957 481.7700000000002L340.8744999999999 475.05250000000046L337.7279999999996 460.81549999999993L335.54599999999937 448.26850000000036L336.6429999999991 437.72100000000023L345.08899999999926 414.7180000000003L339.292999999999 412.01200000000085L340.27999999999906 407.7470000000005L325.7684999999992 403.63500000000045L321.8119999999999 404.8135000000002L320.3704999999991 404.36300000000074L320.49749999999904 387.18000000000075L321.480499999999 384.30400000000077L311.51199999999903 381.02300000000014L307.6405 381.98900000000094L301.42799999999966 387.69949999999994L297.2409999999991 386.99550000000045L294.7079999999994 383.5245000000009L291.46949999999947 386.19950000000017L285.243999999999 387.45700000000056L283.3425 388.651000000001L277.0384999999999 392.65550000000076L276.3824999999997 393.0445000000009L276.1254999999994 407.0055000000002L276.4664999999991 408.35950000000025L275.3019999999992 409.7810000000004L275.0319999999999 409.9675000000002L270.9809999999993 413.922L267.89999999999964 418.5340000000008L264.7454999999991 420.0420000000008L258.0244999999991 427.3400000000004L257.7024999999992 427.8410000000008L254.87199999999916 439.26750000000084L250.43949999999995 439.6345000000008L245.37549999999896 443.81950000000074L236.4779999999996 443.442L230.07499999999936 445.63100000000077L227.5789999999995 441.3715000000002L229.2629999999997 437.7290000000005L233.52649999999926 434.8630000000003L234.02049999999917 431.2220000000002L229.40399999999954 424.07550000000015L221.13249999999994 421.47550000000024L221.42999999999915 420.0840000000005L220.9644999999989 417.62800000000084L211.07349999999997 421.29850000000033L204.89599999999996 416.01650000000063L202.10749999999962 414.72800000000007L197.40549999999985 415.2494999999999L191.9259999999997 421.89750000000004L185.60499999999934 419.46750000000065L178.93299999999954 420.4755L172.42599999999925 418.5805000000005L159.24399999999991 418.7835000000007z">
      <title id="t339">Cinquième circonscription du Bas-Rhin</title>
      <desc id="d339">Cantons de : Barr, Benfeld, Erstein, Marckolsheim, Sélestat, Villé</desc>
    </path><path class="circo" id="id-067-06" d="M269.7519999999997 344.1540000000009L273.32599999999957 342.8925000000004L274.4024999999999 339.44349999999986L273.11849999999936 335.7294999999999L267.69199999999955 333.5970000000009L269.3784999999991 325.2800000000002L271.3469999999995 324.4690000000003L274.3464999999992 322.201L273.0149999999992 320.8789999999999L262.00849999999946 320.0825000000009L256.2379999999996 318.34800000000087L253.94699999999943 310.60249999999996L252.8989999999999 306.8240000000003L257.26099999999974 293.91700000000014L251.09449999999924 293.5665000000006L249.79299999999967 289.56950000000006L248.77099999999928 285.81950000000006L239.99499999999898 277.60850000000005L230.13599999999997 274.7610000000009L227.84149999999954 277.0130000000006L223.48249999999894 272.1334999999999L215.14099999999985 271.3420000000008L201.4309999999989 274.7835000000009L194.42699999999945 270.10150000000067L189.49749999999995 271.6579999999999L189.29649999999924 276.0055L180.791999999999 282.37600000000043L169.1924999999992 277.0810000000006L164.01499999999942 280.67800000000034L159.7294999999997 279.7995000000003L157.9684999999995 269.2885000000001L154.23199999999952 269.87750000000005L144.18449999999893 284.6685000000002L138.4764999999993 288.1065000000001L142.51049999999964 292.9830000000004L133.95799999999895 308.6405000000002L137.56399999999985 313.9190000000008L133.79999999999995 315.87350000000015L127.40449999999896 325.471L118.49549999999908 337.7080000000001L116.92249999999945 339.19700000000034L110.45799999999986 338.9785000000006L107.01249999999959 341.2004999999999L104.39699999999903 348.8855000000001L96.49099999999976 354.3920000000003L96.24099999999999 355.0960000000009L89.84049999999911 353.16149999999993L83.52899999999977 354.5805000000007L73.98349999999937 349.2750000000001L63.80549999999971 353.67000000000075L58.60599999999977 349.4335000000001L52.66649999999913 357.2085000000004L57.647499999999354 362.32150000000047L59.182499999999436 364.74199999999996L60.33899999999903 362.8710000000001L68.96399999999971 361.68499999999995L77.22349999999892 364.0820000000008L79.87349999999992 371.8310000000008L78.1964999999991 373.0550000000005L69.67799999999897 372.5745000000006L64.93499999999926 368.82600000000025L63.55449999999905 372.23800000000097L64.68499999999949 379.674500000001L75.37299999999959 383.2420000000002L74.52549999999974 389.9030000000005L69.20099999999934 402.18900000000076L70.02099999999928 408.6855000000003L70.8179999999993 411.0760000000005L71.36649999999918 412.0335L67.87099999999896 414.2000000000007L65.54499999999962 419.88950000000045L65.59499999999957 433.7080000000003L60.99649999999997 438.2330000000002L64.38049999999976 440.6115L68.94749999999931 444.56800000000044L70.20099999999957 452.1975000000009L67.72749999999974 453.6824999999999L61.2844999999993 462.3840000000007L57.162499999999454 467.2175000000004L69.91599999999949 472.6400000000001L74.65599999999995 479.0165000000002L84.93949999999927 480.3685000000007L87.74349999999913 479.56600000000094L94.0644999999995 477.31950000000097L96.93249999999921 473.7900000000002L94.82499999999959 470.82700000000045L97.43049999999926 468.2625000000007L107.78099999999995 466.7680000000007L109.35049999999933 465.24400000000014L109.10999999999945 461.318L112.40699999999947 458.42750000000024L124.2534999999998 453.32200000000057L128.7455 448.76800000000003L130.41699999999992 449.2214999999999L139.04849999999897 443.8420000000008L138.09999999999945 438.2950000000005L140.26199999999903 432.3270000000002L145.79549999999927 429.9800000000005L150.61549999999897 423.08899999999994L153.19849999999974 419.9240000000009L159.24399999999991 418.7835000000007L172.42599999999925 418.5805000000005L178.93299999999954 420.4755L185.60499999999934 419.46750000000065L191.9259999999997 421.89750000000004L197.40549999999985 415.2494999999999L202.10749999999962 414.72800000000007L204.89599999999996 416.01650000000063L211.07349999999997 421.29850000000033L220.9644999999989 417.62800000000084L221.42999999999915 420.0840000000005L221.13249999999994 421.47550000000024L229.40399999999954 424.07550000000015L234.02049999999917 431.2220000000002L233.52649999999926 434.8630000000003L229.2629999999997 437.7290000000005L227.5789999999995 441.3715000000002L230.07499999999936 445.63100000000077L236.4779999999996 443.442L245.37549999999896 443.81950000000074L250.43949999999995 439.6345000000008L254.87199999999916 439.26750000000084L257.7024999999992 427.8410000000008L258.0244999999991 427.3400000000004L264.7454999999991 420.0420000000008L267.89999999999964 418.5340000000008L270.9809999999993 413.922L275.0319999999999 409.9675000000002L275.3019999999992 409.7810000000004L276.4664999999991 408.35950000000025L276.1254999999994 407.0055000000002L276.3824999999997 393.0445000000009L277.0384999999999 392.65550000000076L283.3425 388.651000000001L276.62849999999935 380.9730000000002L277.2499999999991 374.6350000000007L274.68599999999924 366.47950000000037L275.166999999999 364.05050000000074L272.8679999999997 355.7755000000009L273.4304999999995 349.2445000000009L269.7519999999997 344.1540000000009z">
      <title id="t340">Sixième circonscription du Bas-Rhin</title>
      <desc id="d340">Cantons de : Molsheim, Obernai, Rosheim, Saales, Schirmeck, Wasselonne</desc>
    </path><path class="circo" id="id-067-07" d="M242.39149999999995 120.52500000000009L241.10349999999926 118.77950000000055L234.8109999999997 119.47900000000004L231.2455 117.03450000000089L231.70049999999947 112.99550000000067L236.9074999999998 109.769L234.56449999999904 106.13450000000057L235.5174999999997 104.17900000000031L243.048 99.9610000000007L238.76649999999927 95.06600000000049L242.9894999999999 87.24250000000097L231.86599999999999 82.83500000000004L228.00699999999892 75.44450000000097L219.45049999999924 74.49749999999995L216.82549999999992 71.24099999999999L207.31149999999957 75.8465000000001L196.79899999999975 77.56500000000074L191.61449999999945 81.11650000000054L186.34649999999965 82.09950000000049L181.32749999999987 80.5785000000003L177.49699999999962 78.68750000000091L175.8089999999993 79.99900000000025L170.81199999999967 83.88950000000023L166.64449999999988 84.0095000000008L163.7934999999993 87.15700000000083L155.12599999999907 80.70150000000012L154.70749999999953 78.57500000000073L148.21649999999977 78.65700000000061L149.5279999999991 73.23700000000031L148.31449999999904 71.81300000000078L149.79949999999917 68.23200000000043L126.02449999999976 58.49900000000048L113.83649999999989 63.396000000000186L108.11449999999923 54.535000000000764L104.0199999999993 54.53800000000001L98.9309999999989 46.375000000000455L93.49849999999947 49.01550000000043L93.04549999999949 46.903500000000804L80.10749999999916 47.026500000000624L76.70049999999947 35.38250000000062L74.19949999999972 30.214500000000726L75.65599999999904 26.380000000000337L70.08049999999912 21.109500000000025L68.21699999999964 10.904500000000326L68.74599999999987 8.783000000000811L73.03399999999897 8.52800000000002L73.77849999999967 4.735500000000457L69.6289999999999 3.4379999999998745L67.0984999999996 0L62.752499999999145 4.8670000000004165L56.64850000000001 3.738500000000613L55.06649999999922 5.280500000000075L54.03299999999945 9.40900000000056L55.62149999999974 13.392000000000053L58.30849999999941 17.857500000000073L48.21550000000002 30.65150000000017L45.88349999999991 38.91750000000002L47.12699999999927 44.862000000000535L44.78799999999978 50.55749999999989L41.15349999999921 53.15900000000056L38.34449999999947 59.33100000000081L40.88249999999903 65.6535000000008L40.4424999999992 67.89250000000038L36.619499999999334 70.14499999999998L38.57049999999958 78.95950000000084L35.891999999998916 78.95600000000059L32.853999999999814 77.90300000000002L21.696499999999332 76.0590000000002L19.271999999999707 83.12150000000088L17.133499999999913 88.08800000000019L15.27599999999893 93.8370000000009L10.41599999999903 97.97800000000052L6.4124999999989996 97.44400000000041L2.4659999999994398 92.60950000000093L1.2469999999996162 92.71100000000047L0 99.3240000000003L5.779999999999745 102.31050000000096L9.3974999999989 110.53449999999998L6.762999999999693 118.99450000000002L13.105999999999085 121.20000000000005L19.76599999999962 120.7974999999999L43.986999999999625 132.90500000000065L48.256999999999834 137.89050000000088L46.358999999999924 141.76000000000045L58.559999999999945 138.55099999999993L64.88999999999919 139.20600000000036L66.85649999999896 144.80549999999994L62.43949999999927 148.56550000000084L59.6004999999991 149.0809999999999L47.004499999999325 149.5410000000004L47.75099999999952 156.58700000000067L44.90249999999946 166.4865000000009L47.162499999999454 170.22950000000037L55.29449999999997 169.987000000001L61.019999999999754 172.12100000000078L62.25999999999999 175.82300000000032L53.260499999998956 180.2380000000005L54.22799999999938 184.29750000000013L58.55649999999969 188.65200000000073L61.230999999999085 185.2125000000001L69.31699999999978 182.09500000000048L74.66699999999946 180.49150000000054L78.7684999999999 179.0625L77.24149999999895 173.00749999999994L80.05849999999896 169.66800000000035L84.29749999999899 168.51350000000025L87.50699999999938 165.44399999999996L85.27899999999931 156.85550000000035L88.14149999999927 151.01650000000063L98.61999999999966 152.68149999999991L100.08649999999989 149.18250000000057L103.46349999999916 147.2855000000004L107.3664999999994 154.6180000000004L104.43899999999985 157.6780000000008L111.33649999999989 162.4070000000006L114.97199999999907 162.93900000000008L118.37599999999952 167.487000000001L117.423 161.66300000000092L121.4059999999995 161.43500000000017L129.14499999999975 168.904L134.57449999999994 165.49450000000093L136.42599999999902 167.82100000000014L131.27149999999915 170.22199999999998L129.10499999999956 173.33150000000046L134.42099999999982 177.18150000000037L135.74199999999905 181.3855000000001L139.69249999999988 178.1880000000001L148.51249999999936 183.7360000000001L148.42599999999948 188.64650000000097L156.0284999999999 200.52350000000047L158.0499999999995 200.93650000000025L149.16599999999903 210.7695000000001L146.806499999999 224.0745000000004L146.48849999999925 223.95849999999996L137.98000000000002 237.1900000000005L137.38849999999957 243.9695000000006L135.43699999999944 247.6679999999999L131.32749999999987 247.20250000000078L127.84099999999967 249.34550000000058L134.20549999999935 261.7439999999999L136.10099999999989 262.6125000000002L138.047499999999 268.5325L140.12499999999932 268.4825000000001L154.23199999999952 269.87750000000005L157.9684999999995 269.2885000000001L159.7294999999997 279.7995000000003L164.01499999999942 280.67800000000034L169.1924999999992 277.0810000000006L180.791999999999 282.37600000000043L189.29649999999924 276.0055L189.49749999999995 271.6579999999999L194.42699999999945 270.10150000000067L201.4309999999989 274.7835000000009L215.14099999999985 271.3420000000008L223.48249999999894 272.1334999999999L227.84149999999954 277.0130000000006L230.13599999999997 274.7610000000009L232.45349999999917 271.7050000000006L230.9089999999992 270.2025000000003L228.40399999999931 268.50650000000087L231.27199999999903 266.04400000000055L237.576499999999 257.3464999999999L235.94650000000001 253.46650000000068L233.7934999999993 253.18700000000035L235.50599999999918 252.0550000000003L245.3125 254.5195000000001L246.45799999999895 250.65850000000069L245.2004999999997 249.0840000000003L249.00249999999915 245.51450000000045L253.14199999999914 245.24800000000027L259.9784999999997 240.7350000000008L265.3974999999991 233.65049999999997L271.5479999999991 233.66550000000075L275.58349999999905 238.11450000000036L279.64399999999955 237.23700000000008L279.9219999999991 237.8335000000004L280.30149999999935 241.95300000000088L295.52049999999895 244.8485000000005L301.2284999999997 239.85850000000028L300.9899999999993 235.45749999999998L297.9094999999995 234.7995000000003L299.44349999999986 228.3834999999999L302.6679999999999 225.6140000000005L310.5454999999995 229.0530000000001L311.01049999999987 222.66000000000076L310.42949999999905 222.30050000000006L306.77049999999895 222.40800000000036L306.5829999999994 220.57999999999993L301.4274999999998 214.8165000000006L299.4859999999994 214.84649999999988L295.6409999999994 213.673L292.5139999999999 208.5235L290.68649999999934 209.37400000000025L289.68549999999937 198.46400000000017L291.22749999999996 199.72849999999994L294.72749999999905 198.42399999999998L297.28599999999915 193.52600000000052L296.7509999999993 187.8225000000009L294.73199999999906 187.47100000000046L290.8059999999989 180.2825000000007L287.1924999999999 178.54100000000017L285.9904999999992 177.58100000000013L287.7374999999995 175.75950000000034L286.2734999999998 174.12750000000074L288.1014999999991 163.57000000000085L288.30549999999903 157.29450000000043L295.96649999999954 160.5720000000008L296.4829999999995 158.59000000000037L304.9854999999991 153.07250000000067L305.65549999999917 149.09150000000068L303.82099999999923 149.60550000000012L288.1624999999997 148.5245000000009L286.92549999999983 148.347500000001L281.36549999999943 147.78300000000058L270.8039999999994 146.02600000000052L268.5519999999997 140.42500000000018L258.8995 136.74000000000092L256.5454999999997 133.4725000000003L256.6909999999996 130.1335000000006L264.9299999999994 128.07250000000067L269.8994999999991 118.93500000000017L265.71399999999926 120.12450000000058L259.96299999999906 117.25150000000099L256.2594999999999 119.66400000000021L253.35849999999937 116.58500000000004L242.39149999999995 120.52500000000009z">
      <title id="t341">Septième circonscription du Bas-Rhin</title>
      <desc id="d341">Cantons : Bouxwiller, Drulingen, Hochfelden, Marmoutier, La Petite-Pierre, Sarre-Union, Saverne.</desc>
    </path><path class="circo" id="id-067-08" d="M451.36049999999955 206.39700000000062L442.6609999999994 204.90300000000047L437.24449999999933 208.03449999999998L436.16199999999935 225.077L433.6284999999998 231.21700000000033L417.84349999999904 250.35850000000096L414.2864999999995 247.7335000000005L411.91299999999956 241.69550000000072L396.85649999999896 238.12350000000038L393.82349999999974 234.84750000000076L394.86599999999953 233.32750000000033L397.34399999999937 227.59450000000015L396.92199999999957 223.44550000000027L400.67399999999907 218.48100000000045L408.9675 218.07999999999993L412.5725 212.71749999999997L416.2169999999992 210.83100000000059L415.84949999999935 208.91450000000077L409.27049999999895 204.78500000000054L418.32149999999956 192.74650000000065L419.41599999999994 193.50650000000087L423.2209999999998 180.91550000000097L422.7979999999991 176.4530000000002L429.71849999999904 165.47149999999988L431.61249999999995 157.27750000000015L435.59749999999894 155.53250000000048L445.67249999999945 159.24849999999992L448.61799999999903 156.7070000000001L452.4879999999996 144.23700000000053L444.9014999999997 147.93350000000032L433.8919999999996 147.20800000000054L431.9119999999998 146.19850000000042L432.5884999999994 137.3580000000004L428.2254999999998 136.01800000000026L407.82299999999964 121.65550000000053L389.91649999999936 119.15200000000027L383.531999999999 117.29050000000029L378.50649999999973 113.23000000000093L367.7584999999999 113.74200000000087L365.05849999999896 121.66750000000093L371.2329999999997 124.31600000000003L368.0219999999997 129.95450000000005L353.24049999999943 125.8280000000002L347.41499999999974 129.05050000000074L342.71549999999934 135.7695000000001L332.24149999999895 135.34250000000043L330.7454999999993 133.84950000000003L327.0649999999989 133.08200000000056L325.4264999999998 127.8430000000003L325.1024999999993 128.31300000000056L319.97949999999946 135.0100000000009L323.00299999999993 140.58650000000057L320.04299999999944 146.35700000000043L312.0864999999992 143.74149999999986L308.9074999999991 138.0295000000001L297.2334999999998 140.45799999999986L295.6359999999995 140.78300000000013L296.56799999999976 143.78850000000057L297.8659999999991 147.77500000000032L303.82099999999923 149.60550000000012L288.1624999999997 148.5245000000009L286.92549999999983 148.347500000001L281.36549999999943 147.78300000000058L270.8039999999994 146.02600000000052L268.5519999999997 140.42500000000018L258.8995 136.74000000000092L256.5454999999997 133.4725000000003L256.6909999999996 130.1335000000006L264.9299999999994 128.07250000000067L269.8994999999991 118.93500000000017L265.71399999999926 120.12450000000058L259.96299999999906 117.25150000000099L256.2594999999999 119.66400000000021L253.35849999999937 116.58500000000004L242.39149999999995 120.52500000000009L241.10349999999926 118.77950000000055L234.8109999999997 119.47900000000004L231.2455 117.03450000000089L231.70049999999947 112.99550000000067L236.9074999999998 109.769L234.56449999999904 106.13450000000057L235.5174999999997 104.17900000000031L243.048 99.9610000000007L238.76649999999927 95.06600000000049L242.9894999999999 87.24250000000097L249.1924999999992 88.11200000000099L252.90199999999913 93.46049999999991L261.5434999999991 91.72200000000089L260.0604999999996 87.91150000000016L271.3524999999993 75.35799999999995L272.8964999999994 72.49149999999986L272.40049999999997 68.20550000000026L276.6269999999997 60.31500000000051L275.0969999999995 56.29950000000008L283.41999999999985 43.744500000000244L282.6184999999998 37.52200000000016L291.03599999999915 28.645999999999958L296.584499999999 19.31350000000066L294.8809999999992 15.3875000000005L310.0954999999999 20.703000000000884L321.1429999999996 18.254000000000588L320.6205 14.005500000000666L331.15999999999985 16.318499999999858L335.3914999999995 15.200000000000955L336.08349999999973 21.749000000000933L339.9544999999989 20.12450000000058L350.628999999999 20.244000000000142L355.69999999999936 13.138999999999896L360.1069999999993 12.519000000000915L362.62649999999894 8.821500000000242L364.85849999999914 8.905500000000757L378.8889999999992 19.57400000000007L385.0024999999994 22.176000000000613L388.4704999999997 27.547000000000708L393.5354999999993 28.795000000000073L401.01049999999987 20.158500000000004L403.1759999999997 19.422500000000582L413.8779999999997 23.33750000000009L423.1299999999999 14.050000000000864L435.1899999999989 24.261999999999944L439.82399999999984 32.15950000000021L448.75749999999925 32.34100000000012L458.6329999999998 37.945000000000846L471.6224999999997 42.23350000000096L478.8474999999994 50.9475000000009L488.7244999999996 57.45750000000044L502.97899999999913 60.291500000000724L506.3569999999993 62.759000000000924L518.9449999999999 65.1240000000007L532.1359999999993 65.73600000000056L533.9474999999993 69.78250000000003L536.1095 70.34500000000094L543.9994999999999 66.53300000000058L547.165 69.52100000000087L547.7669999999989 71.67900000000031L546.1299999999994 73.20900000000051L533.7844999999993 78.2770000000005L529.4284999999991 86.07300000000009L521.5059999999994 99.37000000000012L510.05699999999933 117.75700000000029L501.5039999999999 137.87500000000023L495.4919999999993 161.47000000000048L492.8444999999999 169.60000000000036L486.87149999999974 178.50700000000074L476.4149999999995 186.78100000000086L467.55699999999933 185.78750000000014L463.427999999999 187.45300000000043L457.3169999999993 203.83000000000038L451.36049999999955 206.39700000000062z">
      <title id="t342">Huitième circonscription du Bas-Rhin</title>
      <desc id="d342">Cantons de : Bischwiller (moins les communes de Bischwiller, Oberhoffen-sur-Moder, Rohrwiller, Schirrheim, Schirrhoffen), Lauterbourg, Niederbronn-les-Bains, Seltz, Soultz-sous-Forêts, Wissembourg, Woerth</desc>
    </path><path class="circo" id="id-067-09" d="M409.27049999999895 204.78500000000054L415.84949999999935 208.91450000000077L416.2169999999992 210.83100000000059L412.5725 212.71749999999997L408.9675 218.07999999999993L400.67399999999907 218.48100000000045L396.92199999999957 223.44550000000027L397.34399999999937 227.59450000000015L394.86599999999953 233.32750000000033L393.82349999999974 234.84750000000076L396.85649999999896 238.12350000000038L411.91299999999956 241.69550000000072L414.2864999999995 247.7335000000005L417.84349999999904 250.35850000000096L405.7944999999995 265.3735000000006L399.30549999999926 271.09950000000026L384.03049999999894 279.3209999999999L380.154 286.9475L375.80799999999954 287.14450000000056L367.67549999999915 280.52549999999997L363.5329999999999 281.64600000000064L362.0844999999997 285.3315000000009L361.6554999999994 287.0665000000008L358.4949999999992 282.95650000000023L358.0704999999989 275.92899999999986L349.98149999999896 273.1880000000001L348.25099999999907 267.36650000000054L341.798 272.77450000000044L337.7694999999994 271.7025000000001L335.41849999999954 275.0565000000006L332.0819999999992 273.91700000000014L331.60749999999894 271.7960000000005L325.2049999999997 270.58850000000007L317.6164999999992 266.3605000000007L317.4154999999996 264.1915000000006L317.0474999999999 262.89350000000013L309.0064999999993 253.06600000000003L306.1984999999993 251.06050000000096L300.4774999999995 250.47250000000076L295.52049999999895 244.8485000000005L301.2284999999997 239.85850000000028L300.9899999999993 235.45749999999998L297.9094999999995 234.7995000000003L299.44349999999986 228.3834999999999L302.6679999999999 225.6140000000005L310.5454999999995 229.0530000000001L311.01049999999987 222.66000000000076L310.42949999999905 222.30050000000006L306.77049999999895 222.40800000000036L306.5829999999994 220.57999999999993L301.4274999999998 214.8165000000006L299.4859999999994 214.84649999999988L295.6409999999994 213.673L292.5139999999999 208.5235L290.68649999999934 209.37400000000025L289.68549999999937 198.46400000000017L291.22749999999996 199.72849999999994L294.72749999999905 198.42399999999998L297.28599999999915 193.52600000000052L296.7509999999993 187.8225000000009L294.73199999999906 187.47100000000046L290.8059999999989 180.2825000000007L287.1924999999999 178.54100000000017L285.9904999999992 177.58100000000013L287.7374999999995 175.75950000000034L286.2734999999998 174.12750000000074L288.1014999999991 163.57000000000085L288.30549999999903 157.29450000000043L295.96649999999954 160.5720000000008L296.4829999999995 158.59000000000037L304.9854999999991 153.07250000000067L305.65549999999917 149.09150000000068L303.82099999999923 149.60550000000012L297.8659999999991 147.77500000000032L296.56799999999976 143.78850000000057L295.6359999999995 140.78300000000013L297.2334999999998 140.45799999999986L308.9074999999991 138.0295000000001L312.0864999999992 143.74149999999986L320.04299999999944 146.35700000000043L323.00299999999993 140.58650000000057L319.97949999999946 135.0100000000009L325.1024999999993 128.31300000000056L325.4264999999998 127.8430000000003L327.0649999999989 133.08200000000056L330.7454999999993 133.84950000000003L332.24149999999895 135.34250000000043L342.71549999999934 135.7695000000001L347.41499999999974 129.05050000000074L353.24049999999943 125.8280000000002L368.0219999999997 129.95450000000005L371.2329999999997 124.31600000000003L365.05849999999896 121.66750000000093L367.7584999999999 113.74200000000087L378.50649999999973 113.23000000000093L383.531999999999 117.29050000000029L389.91649999999936 119.15200000000027L407.82299999999964 121.65550000000053L428.2254999999998 136.01800000000026L432.5884999999994 137.3580000000004L431.9119999999998 146.19850000000042L433.8919999999996 147.20800000000054L444.9014999999997 147.93350000000032L452.4879999999996 144.23700000000053L448.61799999999903 156.7070000000001L445.67249999999945 159.24849999999992L435.59749999999894 155.53250000000048L431.61249999999995 157.27750000000015L429.71849999999904 165.47149999999988L422.7979999999991 176.4530000000002L423.2209999999998 180.91550000000097L419.41599999999994 193.50650000000087L418.32149999999956 192.74650000000065L409.27049999999895 204.78500000000054z">
      <title id="t343">Neuvième circonscription du Bas-Rhin</title>
      <desc id="d343">Cantons de : Brumath, Haguenau., Communes de : Bischwiller, Oberhoffen-sur-Moder, Rohrwiller, Schirrheim, Schirrhoffen (issues du canton de Bischwiller)</desc>
    </path></svg>