<svg xmlns="http://www.w3.org/2000/svg" version="1.1" xmlns:xlink="http://www.w3.org/1999/xlink" xmlns:svgjs="http://svgjs.dev/svgjs" width="331.1545000000001" height="563.70225" fill="#eeeeee" stroke="#cccccc" xmlns:sodipodi="http://sodipodi.sourceforge.net/DTD/sodipodi-0.dtd"><path class="circo" id="id-068-01" d="M287.13949999999954 116.81319999999971L285.76099999999997 113.39369999999974L287.8785000000005 102.96989999999994L266.5454999999997 96.16964999999993L263.86600000000044 97.28655000000003L259.77300000000014 95.75679999999977L256.0170000000005 85.56764999999984L253.09999999999945 82.54264999999975L249.03249999999957 83.88689999999997L248.10050000000047 88.15969999999993L239.61750000000052 86.34524999999996L233.63650000000007 85.8787000000001L232.49599999999987 87.54914999999983L230.74899999999957 93.13159999999982L237.34249999999975 97.28399999999965L236.7184999999995 99.24759999999992L232.85349999999994 100.28860000000009L228.87449999999944 98.85580000000004L227.43100000000027 100.53769999999986L222.9970000000003 115.2091999999999L214.88849999999957 118.67374999999981L214.93600000000015 117.90774999999996L207.75250000000028 121.11414999999965L206.70200000000023 125.46864999999968L204.48300000000017 141.98499999999967L205.1075000000003 143.95164999999963L201.06250000000045 153.24039999999968L204.96049999999968 158.0338999999998L204.00949999999966 159.86154999999997L215.84500000000048 164.39399999999978L216.66299999999978 170.70204999999987L215.4740000000004 172.6986999999997L214.56299999999942 180.32960000000003L216.4745000000005 180.36135000000002L216.72950000000014 182.26529999999968L213.96200000000022 187.02024999999992L221.93949999999973 199.5025499999997L226.0119999999995 200.99954999999966L238.92600000000016 200.50160000000005L243.98400000000038 204.6715499999999L255.81199999999967 209.88229999999987L257.51600000000053 213.46949999999993L257.4829999999997 213.9545499999997L256.8520000000001 225.38450000000012L267.7795000000003 227.4971499999998L274.66949999999997 232.81469999999956L289.8924999999997 232.84639999999968L289.0575000000001 235.67489999999964L284.73600000000033 240.16705000000002L273.86750000000006 240.31739999999957L272.5229999999999 246.53534999999977L272.42200000000025 248.01625L287.6589999999999 247.37950000000012L304.99400000000037 249.42604999999958L313.65699999999947 248.35174999999992L314.35699999999997 242.56674999999973L323.15849999999955 230.7213999999999L331.1545000000001 214.79254999999966L325.38549999999987 197.85934999999995L312.5819999999999 182.25514999999973L308.3879999999999 174.97619999999984L310.4264999999998 160.16615000000002L308.6959999999999 146.7820499999999L311.5324999999996 138.3677L313.1420000000003 130.1319000000001L312.3275000000001 120.86970000000008L301.5740000000005 120.52649999999971L287.13949999999954 116.81319999999971z">
      <title id="t344">Première circonscription du Haut-Rhin</title>
      <desc id="d344">Cantons de : Andolsheim, Colmar Nord, Colmar Sud, Neuf-Brisach</desc>
    </path><path class="circo" id="id-068-02" d="M169.08500000000004 254.54979999999978L164.3100000000004 263.82949999999994L159.06950000000052 261.1657500000001L153.90049999999974 263.88845000000003L151.43699999999967 263.1911500000001L148.50000000000023 266.27369999999985L143.94450000000006 261.84339999999963L146.08749999999986 265.3735999999998L144.36699999999973 266.5620999999999L134.40500000000043 263.76544999999965L137.77000000000044 259.4648000000001L141.39350000000036 258.91384999999957L137.72299999999973 257.21659999999986L125.90900000000033 262.2148999999996L115.6835000000001 259.61569999999995L114.85599999999977 255.5959999999999L108.9790000000005 259.95104999999967L108.91650000000027 260.0619999999998L103.82600000000025 258.1518L100.50299999999993 259.40774999999974L96.39850000000024 258.3666999999997L94.50399999999945 254.5491499999997L88.2140000000004 254.89919999999984L82.69400000000019 247.19749999999976L84.74050000000034 239.14634999999976L83.10100000000034 235.31194999999968L81.01549999999975 235.18190000000004L78.92600000000016 231.11229999999978L69.98249999999985 225.36039999999957L64.40899999999942 218.75184999999988L59.58499999999958 209.22829999999976L58.884500000000344 192.08129999999983L62.213500000000295 186.49669999999958L67.82100000000014 183.29475000000002L73.5394999999994 174.4353000000001L70.87400000000002 170.81140000000005L74.64150000000018 163.07529999999986L76.65849999999978 162.16984999999966L77.11599999999976 157.78140000000008L81.33299999999963 150.14594999999986L88.68249999999989 145.55424999999957L96.65200000000027 130.38714999999968L99.33250000000044 129.08614999999998L102.50099999999975 115.88480000000004L95.88100000000054 114.9105499999996L91.8259999999998 109.54264999999964L100.06750000000011 93.72479999999996L99.69349999999963 89.31894999999997L102.15199999999982 85.16294999999957L103.7054999999998 81.14284999999995L111.90500000000043 74.41329999999994L111.5930000000003 70.49004999999966L116.19649999999979 66.23789999999985L120.62649999999962 54.780250000000024L123.10899999999947 43.46409999999992L129.9395000000004 29.733349999999632L133.77449999999953 27.69855000000007L134.09449999999993 27.174349999999663L135.30949999999962 21.19169999999997L140.77850000000012 14.742949999999837L140.01999999999953 8.561899999999696L149.01749999999993 5.661349999999743L151.0024999999996 0.26329999999973097L153.15849999999955 0.6377499999996417L159.5354999999995 0L170.9590000000003 4.823700000000031L177.04449999999952 3.6327L183.3254999999997 3.7144999999998163L186.67749999999955 9.12984999999992L190.3234999999995 10.89429999999993L190.1935000000003 12.872649999999908L194.21249999999986 17.90969999999959L190.8725000000004 23.51614999999981L191.62450000000035 25.62849999999969L197.971 27.06899999999962L208.6775 24.515499999999975L207.5750000000005 25.991149999999834L203.96600000000035 30.418399999999792L200.3060000000005 30.947649999999953L199.82150000000047 37.51890000000003L205.01899999999978 41.79010000000005L216.12750000000005 40.51109999999994L236.19850000000042 50.1840999999996L240.59150000000045 55.19110000000012L242.82050000000027 54.89634999999964L251.80849999999964 59.391749999999774L255.77049999999986 60.08064999999988L258.2349999999997 63.33609999999965L269.43700000000035 68.52919999999983L267.9899999999998 72.22825L267.6604999999995 82.1148999999997L266.5454999999997 96.16964999999993L263.86600000000044 97.28655000000003L259.77300000000014 95.75679999999977L256.0170000000005 85.56764999999984L253.09999999999945 82.54264999999975L249.03249999999957 83.88689999999997L248.10050000000047 88.15969999999993L239.61750000000052 86.34524999999996L233.63650000000007 85.8787000000001L232.49599999999987 87.54914999999983L230.74899999999957 93.13159999999982L237.34249999999975 97.28399999999965L236.7184999999995 99.24759999999992L232.85349999999994 100.28860000000009L228.87449999999944 98.85580000000004L227.43100000000027 100.53769999999986L222.9970000000003 115.2091999999999L214.88849999999957 118.67374999999981L214.93600000000015 117.90774999999996L207.75250000000028 121.11414999999965L206.70200000000023 125.46864999999968L204.48300000000017 141.98499999999967L205.1075000000003 143.95164999999963L201.06250000000045 153.24039999999968L204.96049999999968 158.0338999999998L204.00949999999966 159.86154999999997L215.84500000000048 164.39399999999978L216.66299999999978 170.70204999999987L215.4740000000004 172.6986999999997L214.56299999999942 180.32960000000003L216.4745000000005 180.36135000000002L216.72950000000014 182.26529999999968L213.96200000000022 187.02024999999992L212.22849999999994 194.98064999999997L212.8430000000003 202.39929999999958L209.5920000000001 210.48990000000003L209.08300000000054 222.48279999999966L212.7355 227.0199500000001L212.69000000000005 230.9523999999999L209.00049999999965 230.6459000000001L206.3085000000001 237.9600499999998L208.30649999999991 247.3775999999998L206.8005000000005 247.61480000000006L198.18750000000023 247.4391499999996L185.6669999999997 250.39634999999976L181.33550000000014 249.46349999999995L169.08500000000004 254.54979999999978z">
      <title id="t345">Deuxième circonscription du Haut-Rhin</title>
      <desc id="d345">Cantons de : Guebwiller, Kaysersberg, Lapoutroie, Munster, Ribeauvillé, Rouffach, Sainte-Marie-aux-Mines, Wintzenheim</desc>
    </path><path class="circo" id="id-068-03" d="M240.71649999999977 457.41555000000005L232.71399999999971 444.8530499999998L227.4974999999995 446.8640499999998L223.8289999999995 445.5856L219.3229999999994 442.1188000000001L214.89749999999958 442.23164999999995L210.3615000000002 440.52054999999996L209.4730000000004 438.4423499999997L205.07100000000037 430.12189999999975L211.55250000000024 424.90684999999985L201.4085 415.9035L202.81600000000026 408.4035L196.50600000000054 405.95214999999996L188.5164999999995 400.6796499999996L185.42550000000006 395.52054999999996L187.40149999999971 390.6707L191.29999999999995 386.9044500000001L187.8030000000001 376.4371L183.6794999999995 375.4382999999996L173.4624999999994 374.02445L168.15449999999942 379.52924999999993L167.71299999999997 381.20754999999974L166.26949999999965 387.6022999999998L168.67150000000038 391.2837999999999L167.88249999999948 393.93325000000004L162.6520000000005 391.3696999999996L157.16049999999996 391.24595L151.8100000000004 399.7857499999998L148.664 399.3109999999996L144.10499999999956 396.92274999999995L144.83050000000048 392.9608999999999L139.0994999999998 387.3685999999998L135.37199999999984 387.13750000000005L134.29949999999963 388.7598499999996L128.15699999999993 383.7106499999999L120.18749999999955 385.15319999999974L115.62450000000013 381.57264999999995L115.5499999999995 381.91059999999993L107.70399999999995 379.5425499999999L99.00949999999966 384.71484999999973L95.57549999999992 378.64554999999996L86.67100000000005 374.75284999999985L82.63349999999946 374.4489999999996L78.44600000000014 384.67445L83.15799999999967 392.74744999999996L82.17650000000049 392.97604999999976L83.15050000000042 395.67774999999983L86.173 398.5869500000001L82.72649999999999 403.7575499999997L84.43650000000048 405.48384999999996L85.97599999999943 406.7688999999996L81.70650000000023 413.53409999999997L83.40950000000021 419.3768L75.14800000000037 419.19764999999984L73.77150000000029 422.74945L72.5509999999997 432.5102999999996L71.20400000000018 432.1457499999997L69.56050000000005 434.48924999999974L68.8779999999997 438.8017500000001L70.9865000000002 448.17079999999976L70.64600000000041 451.5398499999998L74.1115000000002 453.1022999999999L75.04400000000032 458.3815999999996L77.20100000000002 457.94614999999965L77.53299999999967 455.76505L85.05549999999971 451.17489999999975L98.19349999999986 451.8644499999999L98.33449999999971 451.8719999999996L100.04749999999945 453.13634999999977L103.02149999999983 455.53439999999966L103.46199999999953 460.27199999999993L104.51299999999947 461.4169499999997L106.83499999999981 467.85784999999976L111.3964999999996 471.3722999999999L112.43299999999977 477.25075000000004L111.87350000000038 481.81399999999996L117.21149999999966 484.1645999999997L122.65250000000037 488.76904999999965L123.16299999999956 489.17010000000005L125.33350000000041 494.83385L127.15550000000007 498.3794499999999L124.79450000000043 508.93084999999985L122.1289999999999 512.2213999999997L129.85099999999989 515.4688499999997L134.36249999999973 519.8751999999996L138.5170000000005 520.7299499999999L150.95299999999952 518.1648999999999L152.71600000000035 519.3480999999997L148.88850000000048 521.0601499999996L146.5179999999998 524.5281L142.37949999999955 534.1821999999996L142.48950000000036 540.44985L139.90149999999971 548.3918499999999L140.99349999999959 550.1722000000001L154.3775000000005 555.0602499999997L161.64750000000026 552.1585499999998L166.99150000000031 553.8110999999998L167.86249999999995 557.9019999999997L171.76900000000046 563.70225L195.92399999999998 552.9464999999999L204.67300000000023 552.50855L210.7714999999996 551.4905999999996L215.97200000000043 555.1029499999999L230.9114999999997 556.89615L236.8814999999995 554.7485999999998L246.31799999999998 546.9778500000001L249.51400000000035 539.7339L255.70349999999962 538.0768499999999L259.46699999999964 530.7447999999999L249.9784999999997 525.7871499999999L245.75600000000009 526.5983499999999L251.50999999999954 515.4052999999999L259.9490000000003 520.7765L268.83050000000026 526.4744999999999L273.1060000000002 525.5330499999997L279.6315000000004 519.73615L282.6030000000003 516.4979499999998L283.5379999999998 510.0174999999996L278.3005000000003 500.7697999999999L280.71000000000026 504.3575499999997L287.1034999999995 503.93024999999966L289.2039999999997 503.40419999999995L291.99299999999994 497.56125L291.70349999999985 495.4160999999999L288.1460000000004 493.1115999999997L280.27649999999994 495.97444999999993L278.8244999999995 491.95269999999994L281.15049999999997 487.08489999999983L282.5840000000005 485.9578499999998L286.6160000000002 485.3206499999999L301.2390000000005 474.2288500000001L303.17999999999984 473.2625999999999L305.1599999999996 467.3966999999999L311.028 466.19214999999997L315.05049999999983 466.4605L318.7779999999998 450.6385499999999L310.8249999999998 441.1945499999996L307.86299999999983 431.14679999999964L289.7230000000002 413.19394999999986L287.77849999999944 413.9808499999998L289.2700000000002 422.2069499999998L293.1650000000002 429.74474999999984L283.0449999999996 431.94334999999967L267.7909999999997 441.16870000000006L261.68450000000007 446.2556999999998L260.71699999999964 446.3313499999998L255.71350000000052 449.3671999999998L256.25800000000027 451.26755L250.3189999999995 453.83594999999957L247.84099999999967 454.8953499999999L242.92550000000006 458.22655L241.04000000000042 457.6039499999996L240.71649999999977 457.41555000000005z">
      <title id="t346">Troisième circonscription du Haut-Rhin</title>
      <desc id="d346">Cantons de : Altkirch, Dannemarie, Ferrette, Hirsingue, Huningue</desc>
    </path><path class="circo" id="id-068-04" d="M148.664 399.3109999999996L144.10499999999956 396.92274999999995L144.83050000000048 392.9608999999999L139.0994999999998 387.3685999999998L135.37199999999984 387.13750000000005L134.29949999999963 388.7598499999996L128.15699999999993 383.7106499999999L120.18749999999955 385.15319999999974L115.62450000000013 381.57264999999995L115.5499999999995 381.91059999999993L107.70399999999995 379.5425499999999L99.00949999999966 384.71484999999973L95.57549999999992 378.64554999999996L86.67100000000005 374.75284999999985L82.63349999999946 374.4489999999996L80.36449999999945 371.5250499999996L75.48599999999965 366.3095499999997L73.43650000000025 360.60654999999997L71.69700000000034 361.76504999999963L66.0609999999997 359.11429999999996L55.8299999999997 355.46265000000005L40.57099999999991 343.10024999999996L34.19650000000047 343.7901499999998L33.73199999999997 342.50774999999976L27.436500000000024 338.95164999999963L25.118499999999813 339.75419999999986L20.7000000000005 338.5550999999998L9.336499999999432 334.5925L2.604000000000042 324.0578999999997L2.483999999999469 319.7416999999996L0 316.2268499999999L1.3549999999997908 310.33349999999984L7.248499999999467 309.1275999999999L10.394999999999754 306.29849999999976L22.566000000000486 303.9844999999997L22.992000000000417 302.8359999999998L27.291000000000167 295.7167999999996L32.74999999999977 293.02144999999996L32.2645 288.1114500000001L27.460999999999558 283.9736499999998L27.26199999999949 279.7167999999999L27.256999999999607 273.4639499999997L23.51850000000013 268.6872999999997L32.07400000000007 262.5268L31.470000000000482 260.47469999999976L34.752999999999474 257.77645000000007L35.922500000000355 253.82949999999994L33.64749999999958 250.539L29.476499999999533 249.8687000000001L34.79000000000042 243.01265L32.89099999999962 232.34834999999975L34.35449999999946 228.24154999999962L35.09199999999964 223.9387499999998L37.423 216.3853499999999L42.83050000000003 210.52354999999977L42.947000000000344 203.14869999999985L42.72100000000023 198.86799999999994L44.46100000000001 197.61609999999962L46.30149999999958 196.52420000000006L50.34599999999955 197.80349999999999L54.91399999999999 193.30039999999997L58.884500000000344 192.08129999999983L59.58499999999958 209.22829999999976L64.40899999999942 218.75184999999988L69.98249999999985 225.36039999999957L78.92600000000016 231.11229999999978L81.01549999999975 235.18190000000004L83.10100000000034 235.31194999999968L84.74050000000034 239.14634999999976L82.69400000000019 247.19749999999976L88.2140000000004 254.89919999999984L94.50399999999945 254.5491499999997L96.39850000000024 258.3666999999997L100.50299999999993 259.40774999999974L103.82600000000025 258.1518L108.91650000000027 260.0619999999998L108.9790000000005 259.95104999999967L114.85599999999977 255.5959999999999L115.6835000000001 259.61569999999995L125.90900000000033 262.2148999999996L137.72299999999973 257.21659999999986L141.39350000000036 258.91384999999957L137.77000000000044 259.4648000000001L134.40500000000043 263.76544999999965L144.36699999999973 266.5620999999999L146.08749999999986 265.3735999999998L143.94450000000006 261.84339999999963L148.50000000000023 266.27369999999985L151.43699999999967 263.1911500000001L153.90049999999974 263.88845000000003L159.06950000000052 261.1657500000001L164.3100000000004 263.82949999999994L169.08500000000004 254.54979999999978L181.33550000000014 249.46349999999995L185.6669999999997 250.39634999999976L198.18750000000023 247.4391499999996L206.8005000000005 247.61480000000006L208.30649999999991 247.3775999999998L206.3085000000001 237.9600499999998L209.00049999999965 230.6459000000001L212.69000000000005 230.9523999999999L212.7355 227.0199500000001L209.08300000000054 222.48279999999966L209.5920000000001 210.48990000000003L212.8430000000003 202.39929999999958L212.22849999999994 194.98064999999997L213.96200000000022 187.02024999999992L221.93949999999973 199.5025499999997L226.0119999999995 200.99954999999966L238.92600000000016 200.50160000000005L243.98400000000038 204.6715499999999L255.81199999999967 209.88229999999987L257.51600000000053 213.46949999999993L257.4829999999997 213.9545499999997L256.8520000000001 225.38450000000012L267.7795000000003 227.4971499999998L274.66949999999997 232.81469999999956L289.8924999999997 232.84639999999968L289.0575000000001 235.67489999999964L284.73600000000033 240.16705000000002L273.86750000000006 240.31739999999957L272.5229999999999 246.53534999999977L272.42200000000025 248.01625L287.6589999999999 247.37950000000012L304.99400000000037 249.42604999999958L313.65699999999947 248.35174999999992L314.30650000000014 262.62249999999995L312.2225000000003 266.5354500000001L303.77200000000016 273.5976499999998L302.885 280.1951500000001L306.16899999999987 292.4634499999996L302.4109999999996 290.80089999999984L297.17899999999986 301.91035L280.7269999999994 298.1275999999997L266.36999999999944 301.9318499999997L263.05799999999977 309.09974999999974L254.30150000000026 309.32320000000004L247.93699999999944 303.29184999999995L246.30750000000035 307.2005999999999L234.9479999999994 301.94705L234.2394999999999 303.9446499999997L225.8495000000005 304.8297500000001L206.6999999999996 304.18649999999957L200.82850000000008 302.00339999999983L198.98249999999962 301.83944999999994L196.94700000000012 304.9518999999998L189.31799999999953 309.14594999999963L188.0295000000001 315.7103999999998L178.3344999999997 329.7216499999996L174.19700000000034 333.2951499999996L175.4219999999998 336.72469999999976L176.3779999999997 338.2875999999999L173.9059999999995 342.8390999999999L167.7679999999998 343.5910000000001L156.0895000000005 341.5844499999997L152.18349999999987 340.55994999999996L148.69299999999953 345.41214999999966L144.73949999999945 344.63750000000005L143.981 348.8770999999997L146.69350000000009 352.1614999999997L147.22399999999993 358.5593499999999L154.36500000000024 366.3227999999998L147.40400000000022 368.6684500000001L146.35149999999953 373.32754999999963L150.8834999999999 380.7830999999999L153.65599999999972 383.40179999999975L152.95949999999948 387.2189499999996L157.16049999999996 391.24595L151.8100000000004 399.7857499999998L148.664 399.3109999999996z">
      <title id="t347">Quatrième circonscription du Haut-Rhin</title>
      <desc id="d347">Cantons de : Cernay, Ensisheim, Masevaux, Saint-Amarin, Soultz-Haut-Rhin, Thann</desc>
    </path><path class="circo" id="id-068-05" d="M226.9539999999995 386.99095L228.0250000000001 392.7657999999997L224.80999999999995 394.3632500000001L216.7565000000002 395.0147999999996L211.15699999999947 398.0970500000001L206.50300000000016 402.1769499999999L202.81600000000026 408.4035L196.50600000000054 405.95214999999996L188.5164999999995 400.6796499999996L185.42550000000006 395.52054999999996L187.40149999999971 390.6707L191.29999999999995 386.9044500000001L187.8030000000001 376.4371L183.6794999999995 375.4382999999996L173.4624999999994 374.02445L168.15449999999942 379.52924999999993L167.71299999999997 381.20754999999974L166.26949999999965 387.6022999999998L168.67150000000038 391.2837999999999L167.88249999999948 393.93325000000004L162.6520000000005 391.3696999999996L157.16049999999996 391.24595L152.95949999999948 387.2189499999996L153.65599999999972 383.40179999999975L150.8834999999999 380.7830999999999L146.35149999999953 373.32754999999963L147.40400000000022 368.6684500000001L154.36500000000024 366.3227999999998L168.88599999999997 362.80219999999986L176.35700000000043 358.63139999999987L186.88650000000052 359.18004999999994L187.29349999999954 357.0088499999997L192.68299999999954 353.1660499999998L197.0704999999998 352.6084499999996L200.83700000000022 354.4405499999999L204.12050000000022 353.06105L206.65700000000015 353.91525L207.3109999999997 355.98224999999957L210.3525000000002 354.68459999999993L211.7700000000002 355.0380999999999L215.37649999999985 348.97130000000004L223.24700000000007 350.38815L224.81400000000008 349.07309999999995L228.34349999999972 351.1158499999999L234.21500000000037 341.5540999999996L256.2774999999999 346.5168L255.74449999999956 348.21955L259.8445000000004 359.37029999999993L260.41650000000004 360.60464999999965L265.1490000000001 373.87279999999976L266.1024999999995 379.7130999999996L246.01750000000038 380.8209999999997L242.07449999999994 382.6154500000001L231.04849999999942 387.7658500000001L226.9539999999995 386.99095z">
      <title id="t348">Cinquième circonscription du Haut-Rhin</title>
      <desc id="d348">Cantons de : Mulhouse Est, Mulhouse Ouest, Mulhouse Sud, Habsheim</desc>
    </path><path class="circo" id="id-068-06" d="M287.77849999999944 413.9808499999998L289.7230000000002 413.19394999999986L287.7525000000003 409.37099999999987L287.6509999999996 398.53639999999984L284.3904999999995 390.53364999999985L285.08100000000013 386.2862000000001L294.08900000000017 378.7700000000001L297.88850000000025 373.80079999999964L299.8879999999997 365.6959499999999L296.1725000000001 353.7318499999998L293.41949999999997 346.33974999999964L292.08349999999996 335.3281499999997L296.68750000000045 322.6696499999997L298.7225000000001 316.84834999999964L305.75849999999946 298.89129999999966L306.16899999999987 292.4634499999996L302.4109999999996 290.80089999999984L297.17899999999986 301.91035L280.7269999999994 298.1275999999997L266.36999999999944 301.9318499999997L263.05799999999977 309.09974999999974L254.30150000000026 309.32320000000004L247.93699999999944 303.29184999999995L246.30750000000035 307.2005999999999L234.9479999999994 301.94705L234.2394999999999 303.9446499999997L225.8495000000005 304.8297500000001L206.6999999999996 304.18649999999957L200.82850000000008 302.00339999999983L198.98249999999962 301.83944999999994L196.94700000000012 304.9518999999998L189.31799999999953 309.14594999999963L188.0295000000001 315.7103999999998L178.3344999999997 329.7216499999996L174.19700000000034 333.2951499999996L175.4219999999998 336.72469999999976L176.3779999999997 338.2875999999999L173.9059999999995 342.8390999999999L167.7679999999998 343.5910000000001L156.0895000000005 341.5844499999997L152.18349999999987 340.55994999999996L148.69299999999953 345.41214999999966L144.73949999999945 344.63750000000005L143.981 348.8770999999997L146.69350000000009 352.1614999999997L147.22399999999993 358.5593499999999L154.36500000000024 366.3227999999998L168.88599999999997 362.80219999999986L176.35700000000043 358.63139999999987L186.88650000000052 359.18004999999994L187.29349999999954 357.0088499999997L192.68299999999954 353.1660499999998L197.0704999999998 352.6084499999996L200.83700000000022 354.4405499999999L204.12050000000022 353.06105L206.65700000000015 353.91525L207.3109999999997 355.98224999999957L210.3525000000002 354.68459999999993L211.7700000000002 355.0380999999999L215.37649999999985 348.97130000000004L223.24700000000007 350.38815L224.81400000000008 349.07309999999995L228.34349999999972 351.1158499999999L234.21500000000037 341.5540999999996L256.2774999999999 346.5168L255.74449999999956 348.21955L259.8445000000004 359.37029999999993L260.41650000000004 360.60464999999965L265.1490000000001 373.87279999999976L266.1024999999995 379.7130999999996L246.01750000000038 380.8209999999997L242.07449999999994 382.6154500000001L231.04849999999942 387.7658500000001L226.9539999999995 386.99095L228.0250000000001 392.7657999999997L224.80999999999995 394.3632500000001L216.7565000000002 395.0147999999996L211.15699999999947 398.0970500000001L206.50300000000016 402.1769499999999L202.81600000000026 408.4035L201.4085 415.9035L211.55250000000024 424.90684999999985L205.07100000000037 430.12189999999975L209.4730000000004 438.4423499999997L210.3615000000002 440.52054999999996L214.89749999999958 442.23164999999995L219.3229999999994 442.1188000000001L223.8289999999995 445.5856L227.4974999999995 446.8640499999998L232.71399999999971 444.8530499999998L240.71649999999977 457.41555000000005L241.04000000000042 457.6039499999996L242.92550000000006 458.22655L247.84099999999967 454.8953499999999L250.3189999999995 453.83594999999957L256.25800000000027 451.26755L255.71350000000052 449.3671999999998L260.71699999999964 446.3313499999998L261.68450000000007 446.2556999999998L267.7909999999997 441.16870000000006L283.0449999999996 431.94334999999967L293.1650000000002 429.74474999999984L289.2700000000002 422.2069499999998L287.77849999999944 413.9808499999998z">
      <title id="t349">Sixième circonscription du Haut-Rhin</title>
      <desc id="d349">Cantons de : Illzach, Mulhouse Nord, Sierentz, Wittenheim</desc>
    </path></svg>