<svg xmlns="http://www.w3.org/2000/svg" version="1.1" xmlns:xlink="http://www.w3.org/1999/xlink" xmlns:svgjs="http://svgjs.dev/svgjs" width="545.8175000000006" height="524.8581999999999" fill="#eeeeee" stroke="#cccccc" xmlns:sodipodi="http://sodipodi.sourceforge.net/DTD/sodipodi-0.dtd"><path class="circo" id="id-069-01" d="M385.95249999999965 139.89595000000008L377.8015000000005 138.09249999999963L372.7850000000001 133.44814999999983L381.943 127.33679999999993L385.7230000000004 116.7516999999998L392.7170000000001 101.93044999999984L399.0089999999998 101.28764999999987L402.0804999999996 104.18065000000013L404.17850000000044 113.50269999999966L408.18449999999984 116.69809999999984L415.0305000000003 114.66070000000002L417.40350000000035 112.23774999999989L422.01850000000036 112.80509999999992L423.9835000000005 116.0674499999999L415.1585 133.1433499999997L425.0980000000004 139.51329999999984L437.5630000000001 142.78779999999983L440.87999999999965 148.23759999999993L446.20149999999967 148.34599999999966L450.1324999999997 144.73725000000002L455.5385000000001 148.39L449.4180000000006 157.2433000000001L446.35850000000005 160.03074999999967L444.7765000000004 172.02895000000012L431.88549999999964 174.40169999999966L432.74200000000064 186.76915000000008L417.5 178.5943500000002L415.43800000000033 173.25400000000002L413.9485000000002 165.51179999999988L409.01399999999967 146.70759999999973L413.35950000000025 136.01560000000006L409.17400000000043 137.22260000000006L401.62950000000023 133.41824999999972L385.95249999999965 139.89595000000008z">
      <title id="t350">Première circonscription du Rhône</title>
      <desc id="d350">Cantons de : Lyon I [partie située au sud d'une ligne définie par la voie ferrée de Paris à Marseille], Lyon IV [partie située au sud-ouest d'une ligne définie par l'axe des voies ci-après : rue Marietton, grande rue de Vaise, rue saint-Pierre-de-Vaise, boulevard Antoine-de-Saint-Exupéry, montée de l'Observance], Lyon V, Lyon X [partie située au sud d'une ligne définie par la voie ferrée de Paris à Marseille], Lyon XII [partie située au sud d'une ligne définie par l'axe de la rue Marius-Berliet et à l'ouest d'une ligne définie par l'axe des voies ci-après : avenue Berthelot à partir de la place du 11-Novembre-1918, rue Paul-Cazeneuve et avenue Francis-de-Pressensé])</desc>
    </path><path class="circo" id="id-069-02" d="M417.40350000000035 112.23774999999989L415.0305000000003 114.66070000000002L408.18449999999984 116.69809999999984L404.17850000000044 113.50269999999966L402.0804999999996 104.18065000000013L399.0089999999998 101.28764999999987L392.7170000000001 101.93044999999984L385.63499999999976 88.37150000000008L387.55899999999997 85.07400000000018L399.75450000000023 82.35979999999984L402.8575000000001 84.98404999999991L413.3304999999996 72.78099999999995L429.6029999999996 61.77149999999983L433.55999999999995 67.69245000000012L414.1274999999996 85.00785000000008L419.5455000000004 91.68130000000019L434.9234999999999 98.70994999999994L432.03899999999976 105.62799999999982L432.05350000000067 114.11855000000003L432.2225000000003 117.50824999999963L431.01549999999975 126.01479999999981L423.8300000000004 138.7315000000001L415.1585 133.1433499999997L423.9835000000005 116.0674499999999L422.01850000000036 112.80509999999992L417.40350000000035 112.23774999999989z">
      <title id="t351">Deuxième circonscription du Rhône</title>
      <desc id="d351">Cantons de : Lyon I [partie non comprise dans la 1re circonscription], Lyon II, Lyon III, Lyon IV [partie non comprise dans la 1re circonscription])</desc>
    </path><path class="circo" id="id-069-03" d="M423.8300000000004 138.7315000000001L431.01549999999975 126.01479999999981L432.2225000000003 117.50824999999963L441.64600000000064 117.19339999999988L443.4450000000004 122.71739999999966L448.60450000000014 125.62900000000013L449.6105 134.98469999999998L462.49149999999986 141.86654999999973L461.6935000000001 157.48549999999966L473.1925000000001 164.44504999999992L473.1709999999998 168.62574999999993L469.1280000000006 169.59630000000004L446.35850000000005 160.03074999999967L449.4180000000006 157.2433000000001L455.5385000000001 148.39L450.1324999999997 144.73725000000002L446.20149999999967 148.34599999999966L440.87999999999965 148.23759999999993L437.5630000000001 142.78779999999983L423.8300000000004 138.7315000000001z">
      <title id="t352">Troisième circonscription du Rhône</title>
      <desc id="d352">Cantons de : Lyon VIII, Lyon IX, Lyon X [partie non comprise dans la 1re circonscription], Lyon XII [partie non comprise dans la 1re circonscription], Lyon XIV [partie située à l'ouest d'une ligne définie par l'axe des voies ci-après : rue Feuillat, rue Maryse-Bastié, avenue Paul-Santy, passage Comtois et avenue du Général-Frère])</desc>
    </path><path class="circo" id="id-069-04" d="M432.03899999999976 105.62799999999982L432.05350000000067 114.11855000000003L432.2225000000003 117.50824999999963L441.64600000000064 117.19339999999988L443.4450000000004 122.71739999999966L448.60450000000014 125.62900000000013L449.6105 134.98469999999998L462.49149999999986 141.86654999999973L461.6935000000001 157.48549999999966L473.1925000000001 164.44504999999992L477.80449999999973 148.1352499999997L483.66300000000024 131.36869999999988L464.067 127.90849999999978L458.39849999999956 117.32719999999972L448.40149999999994 104.88744999999994L450.0324999999998 88.90730000000019L442.2659999999996 89.66920000000016L434.9234999999999 98.70994999999994L432.03899999999976 105.62799999999982z">
      <title id="t353">Quatrième circonscription du Rhône</title>
      <desc id="d353">Cantons de : Lyon VI, Lyon VII, Lyon XI, Lyon XIII, Lyon XIV [partie non comprise dans la 3e circonscription])</desc>
    </path><path class="circo" id="id-069-06" d="M483.66300000000024 131.36869999999988L464.067 127.90849999999978L458.39849999999956 117.32719999999972L448.40149999999994 104.88744999999994L450.0324999999998 88.90730000000019L457.5784999999996 86.10450000000014L465.9389999999996 76.77354999999977L467.0479999999998 77.3744499999998L470.4480000000001 84.8141499999997L489.91049999999973 92.48299999999972L488.1420000000003 104.97115000000008L502.02999999999975 119.81659999999977L499.84249999999975 136.5623499999998L483.66300000000024 131.36869999999988z">
      <title id="t355">Sixième circonscription du Rhône</title>
      <desc id="d355">Cantons de Villeurbanne Centre, Villeurbanne Nord, Villeurbanne Sud</desc>
    </path><path class="circo" id="id-069-07" d="M473.1925000000001 164.44504999999992L477.80449999999973 148.1352499999997L483.66300000000024 131.36869999999988L499.84249999999975 136.5623499999998L502.02999999999975 119.81659999999977L488.1420000000003 104.97115000000008L489.91049999999973 92.48299999999972L470.4480000000001 84.8141499999997L467.0479999999998 77.3744499999998L465.9389999999996 76.77354999999977L454.45850000000064 53.745700000000056L455.09649999999965 53.36694999999963L454.4820000000004 32.31134999999995L453.35050000000024 30.75384999999983L455.6365000000005 24.254700000000184L465.1729999999998 10.246549999999957L481.87850000000026 8.788549999999873L485.0189999999998 0L494.24499999999966 8.04079999999999L502.9150000000004 31.078850000000102L500.3864999999996 59.970950000000016L505.25100000000066 67.0002999999997L520.9875 60.73440000000005L529.3915000000004 61.04434999999967L539.9914999999999 58.404049999999756L545.8175000000006 62.769799999999805L517.3924999999997 107.21499999999992L512.8920000000005 141.81674999999984L515.8394999999996 164.26789999999983L492.84400000000005 174.46034999999995L473.1925000000001 164.44504999999992z">
      <title id="t356">Septième circonscription du Rhône</title>
      <desc id="d356">Cantons de : Bron, Rillieux-la-Pape, Vaulx-en-Velin</desc>
    </path><path class="circo" id="id-069-12" d="M378.6474999999996 172.26729999999975L380.11499999999955 168.26639999999998L372.8430000000003 160.91039999999964L341.4200000000005 165.1661999999999L333.4675000000004 153.32524999999976L334.3309999999997 149.6690000000001L355.9159999999997 134.16089999999997L348.7715000000003 131.34995000000004L348.56750000000034 127.42034999999987L339.8879999999997 108.71969999999976L323.5500000000002 112.15204999999969L320.6389999999999 110.88475000000017L320.7540000000006 104.54409999999996L333.69100000000003 100.89024999999992L347.90050000000065 109.31274999999971L363.6450000000002 108.60604999999964L373.04399999999987 116.35204999999985L390.8574999999996 105.35199999999975L385.7230000000004 116.7516999999998L381.943 127.33679999999993L372.7850000000001 133.44814999999983L377.8015000000005 138.09249999999963L385.95249999999965 139.89595000000008L401.62950000000023 133.41824999999972L409.17400000000043 137.22260000000006L413.35950000000025 136.01560000000006L409.01399999999967 146.70759999999973L413.9485000000002 165.51179999999988L415.43800000000033 173.25400000000002L417.5 178.5943500000002L432.74200000000064 186.76915000000008L435.7974999999999 197.8823L430.6415000000004 207.29805L428.82600000000025 213.19675000000018L423.5500000000002 245.78944999999976L422.3300000000006 254.1008499999998L407.9010000000005 268.6692499999998L404.9675000000002 276.6578499999997L404.2904999999996 278.87504999999976L398.8760000000002 279.49185L393.8930000000005 275.3501L382.4185 273.8664L370.26200000000017 258.9142499999997L378.3024999999998 256.5033999999997L388.3304999999996 244.30655000000002L387.8899999999999 240.1203499999997L390.44449999999983 238.91025000000013L391.02499999999964 230.59309999999982L412.6520000000005 210.20440000000008L415.35300000000007 202.32664999999997L405.2030000000002 199.18299999999988L402.0780000000002 192.41640000000018L378.6474999999996 172.26729999999975z">
      <title id="t361">Douzième circonscription du Rhône</title>
      <desc id="d361">Cantons de : Irigny, Oullins, Sainte-Foy-lès-Lyon, Tassin-la-Demi-Lune</desc>
    </path><path class="circo" id="id-069-14" d="M431.88549999999964 174.40169999999966L432.74200000000064 186.76915000000008L435.7974999999999 197.8823L430.6415000000004 207.29805L428.82600000000025 213.19675000000018L423.5500000000002 245.78944999999976L422.3300000000006 254.1008499999998L407.9010000000005 268.6692499999998L404.9675000000002 276.6578499999997L415.64100000000053 271.0474999999997L417.4400000000003 278.90994999999975L428.9224999999999 282.4075499999998L441.02100000000064 278.1252999999998L445.1374999999996 270.35590000000013L447.4744999999996 244.13830000000019L474.0440000000001 240.99890000000016L481.2225000000001 249.5790999999997L477.8425000000004 269.3509L499.56350000000043 261.3712499999997L500.97849999999994 247.3421000000002L512.1545000000003 234.47069999999997L514.2055000000005 217.37574999999993L530.4205000000002 218.48284999999976L536.4994999999999 221.61824999999965L541.0109999999997 210.4006499999997L545.1700000000005 204.54529999999977L543.9485000000002 198.39094999999986L538.8099999999997 201.33235000000013L515.8709999999996 200.53904999999986L514.3984999999998 190.81874999999968L519.2550000000006 185.65850000000012L517.3980000000006 175.19655L509.71250000000055 166.97720000000004L492.84400000000005 174.46034999999995L473.1925000000001 164.44504999999992L473.1709999999998 168.62574999999993L469.1280000000006 169.59630000000004L446.35850000000005 160.03074999999967L444.7765000000004 172.02895000000012L440.73150000000055 173.0469499999998L440.26200000000017 173.0693500000001L431.88549999999964 174.40169999999966z">
      <title id="t363">Quatorzième circonscription du Rhône</title>
      <desc id="d363">Cantons de : Saint-Fons, Vénissieux Nord, Vénissieux Sud, Saint-Priest (partie non comprise dans la 13e circonscription)</desc>
    </path><path class="circo" id="id-069-05" d="M206.6655000000003 261.23019999999997L205.3340000000003 249.12739999999985L208.1975 246.82455000000004L208.41800000000035 246.77449999999965L219.91250000000036 234.44954999999993L219.8505 232.30705L225.19000000000005 229.80140000000006L227.0214999999996 230.5696499999999L231.69700000000034 239.30049999999994L239.67250000000035 240.97944999999982L240.9114999999997 247.73165000000006L238.11649999999986 254.86909999999966L238.5749999999996 255.92989999999986L257.24950000000035 245.82825000000014L258.94250000000056 249.4004000000001L266.6269999999997 251.6566499999999L267.0124999999996 257.63424999999984L270.6725000000006 255.41690000000017L272.00199999999995 265.90395L282.7080000000001 269.4941499999999L279.11749999999984 279.57285000000013L277.5845000000004 283.86149999999986L269.43250000000035 284.5729499999999L264.77949999999964 291.4086499999996L263.664 294.5801L264.2160000000001 295.3401500000001L264.51599999999985 305.61485000000005L264.2044999999996 305.79965000000016L269.80699999999956 317.03679999999963L265.72650000000067 321.59009999999967L262.04450000000065 322.9577999999998L258.25450000000046 323.32960000000014L254.6715000000006 327.74130000000014L247.16750000000047 324.31145000000015L244.52350000000024 321.0549500000002L254.00600000000054 312.6053999999999L252.0754999999997 309.7161L244.135 315.08849999999995L239.02400000000057 321.0433499999999L237.50999999999976 319.76274999999987L235.22000000000048 314.59284999999966L230.17799999999966 311.4799499999998L228.83299999999963 307.7478500000001L227.5 311.5402999999998L223.93350000000055 313.14009999999996L222.74850000000015 302.7060499999999L213.69100000000003 291.11459999999965L209.18250000000057 291.9106999999997L208.51300000000037 283.2403499999998L205.39999999999964 284.79325000000017L200.02950000000055 288.1874499999998L193.8175000000001 289.49239999999975L193.09750000000008 278.89729999999986L193.5329999999999 276.97734999999966L202.8570000000002 270.2364499999999L205.75500000000034 267.77085L206.72900000000027 262.3316999999997L206.6655000000003 261.23019999999997z">
      <title id="t354">Cinquième circonscription du Rhône</title>
      <desc id="d354">Cantons de : Caluire-et-Cuire, Limonest, Neuville-sur-Saône</desc>
    </path><path class="circo" id="id-069-08" d="M33.101500000000215 228.62734999999986L28.963999999999714 228.02414999999996L21.281000000000176 221.05954999999994L24.11299999999983 218.05049999999994L22.916999999999916 214.00609999999972L19.118499999999585 208.9704999999998L13.558500000000322 206.1426499999999L6.4324999999996635 204.0778499999999L1.7865000000006148 200.6819999999999L0 194.15840000000003L9.491500000000315 194.06169999999975L11.664500000000544 197.25944999999967L19.518000000000484 195.22719999999993L23.909499999999753 199.35459999999978L28.97199999999998 189.4214999999997L28.26000000000022 187.65739999999994L26.353000000000293 179.34714999999983L26.02200000000039 179.41874999999982L18.656499999999596 181.32589999999993L15.376999999999725 179.23819999999978L11.084500000000617 172.12890000000016L7.4090000000001055 170.00204999999994L3.056500000000142 161.94219999999973L4.184999999999945 160.45469999999966L17.641999999999598 159.84409999999968L22.734500000000253 153.7169L25.103500000000167 148.39909999999975L24.474500000000035 144.52034999999967L28.29150000000027 142.52534999999966L28.738500000000613 134.4810000000001L26.483500000000504 131.10389999999995L27.819000000000642 125.19094999999993L32.24749999999972 121.01335000000006L33.268000000000484 112.93999999999983L37.78450000000021 109.55274999999972L50.044000000000324 107.74090000000001L53.29050000000052 102.7980500000001L58.63849999999957 100.86929999999995L69.8739999999998 108.59839999999963L73.74900000000025 109.29759999999987L76.42450000000053 99.81040000000007L79.61549999999988 97.24334999999996L82.77150000000006 89.69089999999994L95.41299999999978 80.31110000000012L100.58400000000006 79.03734999999983L100.39099999999962 71.35305000000017L108.8919999999996 79.74760000000003L113.15450000000055 86.55109999999979L112.02999999999975 94.99154999999973L110.29800000000023 98.29070000000002L111.29300000000057 101.87354999999968L108.46650000000068 104.27829999999972L118.61899999999991 115.84679999999992L121.66150000000016 118.50189999999998L122.42399999999975 124.61284999999975L129.86700000000042 136.34659999999997L130.48800000000028 140.3218499999997L126.20650000000069 151.72615000000008L126.11650000000054 152.10530000000006L124.29899999999975 163.02489999999977L118.75900000000001 170.3675499999997L115.53250000000048 172.0915500000001L115.62999999999988 176.18994999999984L123.4540000000004 178.52449999999976L126.05999999999995 181.56335000000013L129.47450000000003 189.8926499999999L128.58550000000037 193.4731499999998L129.9350000000004 193.29084999999964L135.1890000000003 195.6425999999999L136.62050000000022 199.34604999999976L146.63149999999973 199.91004999999973L152.93949999999995 205.14515000000017L159.02000000000044 205.85334999999986L167.73199999999974 204.3207000000001L168.28750000000014 206.1334499999998L171.90000000000055 207.2226999999998L171.6089999999997 214.33809999999994L167.60049999999978 214.4083999999998L164.07299999999964 218.85080000000016L166.66600000000017 224.01389999999992L169.87300000000005 226.29930000000002L177.14000000000055 223.06029999999964L178.05900000000065 223.47109999999986L178.23100000000068 224.16854999999998L176.63850000000025 232.59000000000015L175.13000000000034 237.33004999999991L173.80049999999983 237.67650000000003L168.01050000000032 239.4099L171.84049999999957 248.56299999999976L171.2239999999997 249.9971499999998L170.9050000000002 256.1185999999998L170.30250000000024 260.0437999999997L174.1330000000005 264.56754999999987L175.31200000000013 272.39975000000015L176.8705 273.6205000000001L177.94449999999983 277.0127500000001L180.93250000000012 278.9943499999998L182.4324999999999 279.5758999999998L181.2850000000003 280.7225999999997L183.42300000000023 288.4125499999999L188.61650000000054 291.47389999999973L193.8175000000001 289.49239999999975L200.02950000000055 288.1874499999998L205.39999999999964 284.79325000000017L208.51300000000037 283.2403499999998L209.18250000000057 291.9106999999997L213.69100000000003 291.11459999999965L222.74850000000015 302.7060499999999L223.93350000000055 313.14009999999996L227.5 311.5402999999998L228.83299999999963 307.7478500000001L230.17799999999966 311.4799499999998L235.22000000000048 314.59284999999966L237.50999999999976 319.76274999999987L231.55899999999974 321.0872499999999L230.62000000000012 322.69634999999994L234.07600000000002 329.31285L233.16800000000057 330.9825000000001L224.47599999999966 336.3502999999997L219.88900000000058 332.5704000000002L217.3580000000004 329.7973000000002L216.2130000000002 320.4728499999999L207.41150000000061 322.31479999999976L202.27550000000065 316.6789499999999L196.70349999999985 318.23215000000005L190.64500000000066 320.5721999999997L184.91899999999987 319.10995000000014L175.70600000000013 320.07299999999987L168.3050000000003 328.1355500000001L162.48249999999985 338.6062499999997L158.82100000000037 341.42735000000016L148.72349999999983 340.99670000000003L146.08650000000011 335.3462999999999L139.34650000000033 330.44809999999984L137.9970000000003 334.50364999999977L129.5074999999997 344.0691499999997L119.40950000000043 339.7296L121.2035000000003 334.0472999999997L120.17100000000028 332.2602499999999L116.11700000000042 331.7484000000002L113.88000000000034 328.28059999999994L106.37500000000045 330.0087500000001L102.8819999999996 328.69129999999984L109.16249999999991 320.5935499999998L108.92850000000067 318.51380000000006L106.86249999999973 312.5938500000001L100.38400000000024 307.52954999999986L98.55350000000044 303.82630000000006L90.36200000000008 297.94465L87.41350000000011 292.7317999999997L83.60500000000002 294.0628499999997L81.6330000000005 293.51020000000005L75.08350000000064 298.0885999999998L62.37500000000068 291.85149999999965L59.180000000000064 286.66825000000017L62.38100000000031 284.0378499999997L64.72949999999969 278.21500000000015L64.02000000000044 274.9540999999999L49.83450000000062 274.3425500000001L41.91850000000045 267.7909999999997L39.56700000000069 259.69574999999963L35.013999999999896 255.29600000000016L33.7379999999996 251.31399999999985L43.510499999999865 244.05854999999974L39.84100000000012 242.48850000000004L43.42750000000024 235.39609999999982L33.101500000000215 228.62734999999986z">
      <title id="t357">Huitième circonscription du Rhône</title>
      <desc id="d357">Cantons de : Amplepuis, L'Arbresle, Le Bois-d'Oingt, Ecully, Lamure-sur-Azergues, Tarare, Thizy</desc>
    </path><path class="circo" id="id-069-09" d="M168.01050000000032 239.4099L173.80049999999983 237.67650000000003L175.13000000000034 237.33004999999991L176.63850000000025 232.59000000000015L178.23100000000068 224.16854999999998L178.05900000000065 223.47109999999986L177.14000000000055 223.06029999999964L169.87300000000005 226.29930000000002L166.66600000000017 224.01389999999992L164.07299999999964 218.85080000000016L167.60049999999978 214.4083999999998L171.6089999999997 214.33809999999994L171.90000000000055 207.2226999999998L168.28750000000014 206.1334499999998L167.73199999999974 204.3207000000001L159.02000000000044 205.85334999999986L152.93949999999995 205.14515000000017L146.63149999999973 199.91004999999973L136.62050000000022 199.34604999999976L135.1890000000003 195.6425999999999L129.9350000000004 193.29084999999964L128.58550000000037 193.4731499999998L129.47450000000003 189.8926499999999L126.05999999999995 181.56335000000013L123.4540000000004 178.52449999999976L115.62999999999988 176.18994999999984L115.53250000000048 172.0915500000001L118.75900000000001 170.3675499999997L124.29899999999975 163.02489999999977L126.11650000000054 152.10530000000006L126.20650000000069 151.72615000000008L130.48800000000028 140.3218499999997L129.86700000000042 136.34659999999997L122.42399999999975 124.61284999999975L121.66150000000016 118.50189999999998L118.61899999999991 115.84679999999992L108.46650000000068 104.27829999999972L111.29300000000057 101.87354999999968L110.29800000000023 98.29070000000002L112.02999999999975 94.99154999999973L113.15450000000055 86.55109999999979L108.8919999999996 79.74760000000003L100.39099999999962 71.35305000000017L100.58400000000006 79.03734999999983L95.41299999999978 80.31110000000012L82.77150000000006 89.69089999999994L80.55650000000014 86.63824999999974L72.45400000000018 82.20730000000003L69.07199999999989 80.87524999999971L64.74450000000047 76.59089999999992L65.04050000000007 72.63139999999964L76.13000000000056 68.04635000000019L75.61649999999986 65.65870000000018L69.23700000000053 57.92159999999967L61.30350000000021 57.819000000000074L60.511999999999944 54.2038500000001L62.80200000000036 46.92315000000008L60.235999999999876 41.61490000000015L61.39099999999985 40.539400000000114L65.12699999999995 28.924149999999713L64.82449999999972 24.167699999999854L65.84150000000022 18.154799999999796L69.38400000000001 12.977999999999952L68.8409999999999 10.934599999999932L76.78499999999985 10.734049999999797L77.8615000000002 6.770549999999957L81.52400000000057 8.875699999999824L83.13750000000027 12.783000000000015L91.09900000000039 11.01335000000006L98.43250000000012 18.151750000000106L103.96849999999972 15.896450000000186L110.57149999999979 28.720649999999637L125.01949999999965 26.80180000000007L128.61300000000028 24.551999999999907L129.35749999999985 18.662800000000175L133.43349999999987 11.862800000000107L138.55999999999995 12.602150000000165L139.29750000000013 14.378550000000132L139.85149999999976 22.365449999999782L145.6389999999999 27.76459999999986L159.26249999999982 30.162950000000137L160.67800000000034 26.244100000000117L158.6054999999999 20.430200000000127L166.57800000000066 13.482999999999947L167.83050000000003 7.636099999999715L174.00550000000067 6.59089999999992L178.8035000000002 10.598099999999704L185.27950000000033 5.732049999999731L191.08349999999973 7.081200000000081L191.27399999999966 11.87264999999968L195.25449999999978 17.819049999999947L197.05249999999978 17.91924999999992L197.14000000000055 27.175599999999918L194.16900000000055 28.512850000000185L191.11600000000067 25.982199999999693L188.9454999999998 29.13135000000011L185.33750000000055 28.27304999999967L186.77549999999997 36.17739999999969L189.83249999999998 39.04404999999997L196.09649999999988 38.71955000000014L197.65549999999962 40.12639999999976L202.66849999999977 42.781949999999824L209.25050000000056 49.578750000000014L207.90550000000053 53.07464999999979L202.3810000000003 52.46645000000001L203.02649999999971 56.01609999999994L209.03850000000034 62.78689999999983L204.84699999999975 66.35694999999998L203.0065000000002 71.91365000000019L204.23350000000028 79.60514999999987L206.2239999999997 82.60134999999991L215.36849999999959 86.24725000000012L220.73300000000017 84.89145000000008L225.9590000000003 84.03584999999964L227.96500000000037 84.29120000000012L228.85999999999967 87.38515000000007L232.8645000000006 92.31249999999989L237.45850000000019 96.71204999999986L234.6505000000002 107.31214999999963L231.0559999999998 112.38439999999969L224.50349999999958 120.51609999999982L222.39749999999958 127.32120000000009L219.44950000000063 130.92674999999986L214.28350000000023 136.61929999999984L214.96049999999968 142.09824999999967L217.78500000000008 144.20909999999992L220.12000000000057 151.27464999999972L218.98450000000025 155.0944499999997L210.711 163.49395000000015L213.27800000000025 170.99080000000015L213.61150000000066 175.5417L212.69049999999993 181.9330500000001L214.69400000000064 190.26160000000004L214.4825000000003 190.85755000000006L214.94000000000028 194.7805999999997L217.08349999999996 208.57969999999966L215.19599999999969 214.2763500000001L214.4704999999999 215.54930000000013L206.87099999999987 222.6935500000002L207.2059999999999 228.44339999999988L212.76700000000005 230.82265000000007L219.8505 232.30705L219.91250000000036 234.44954999999993L208.41800000000035 246.77449999999965L208.1975 246.82455000000004L205.3340000000003 249.12739999999985L206.6655000000003 261.23019999999997L206.72900000000027 262.3316999999997L205.75500000000034 267.77085L202.8570000000002 270.2364499999999L193.5329999999999 276.97734999999966L193.09750000000008 278.89729999999986L193.8175000000001 289.49239999999975L188.61650000000054 291.47389999999973L183.42300000000023 288.4125499999999L181.2850000000003 280.7225999999997L182.4324999999999 279.5758999999998L180.93250000000012 278.9943499999998L177.94449999999983 277.0127500000001L176.8705 273.6205000000001L175.31200000000013 272.39975000000015L174.1330000000005 264.56754999999987L170.30250000000024 260.0437999999997L170.9050000000002 256.1185999999998L171.2239999999997 249.9971499999998L171.84049999999957 248.56299999999976L168.01050000000032 239.4099z">
      <title id="t358">Neuvième circonscription du Rhône</title>
      <desc id="d358">Cantons de: Anse, Beaujeu, Belleville, Monsols, Villefranche-sur-Saône</desc>
    </path><path class="circo" id="id-069-10" d="M210.40700000000015 392.41209999999967L204.67899999999986 390.68100000000015L206.11800000000017 381.03065000000015L198.11950000000024 376.54799999999966L197.15800000000058 375.80375000000004L193.32700000000045 376.6088500000001L183.0250000000001 388.4656000000001L178.2230000000004 391.6620999999998L174.5569999999998 400.91295L167.15550000000007 394.0098999999998L151.1564999999996 393.25384999999983L146.0374999999999 399.40549999999973L149.1319999999996 402.1515999999997L147.67450000000053 408.1185999999997L142.36549999999966 416.5577000000002L142.14500000000044 418.5622000000001L144.08800000000042 419.08320000000003L140.97999999999956 421.46169999999984L138.84750000000054 426.94169999999986L133.53000000000065 429.1071999999997L132.86849999999959 433.0831999999998L127.20850000000041 438.62869999999987L128.9575000000002 448.4647000000001L118.04250000000025 452.85120000000006L114.85099999999989 450.4217L110.90050000000019 450.65819999999974L110.36799999999971 444.8122000000001L95.19149999999968 445.06719999999973L98.04049999999961 439.62819999999965L92.22800000000007 435.8051999999998L87.56799999999998 432.9831999999999L86.37500000000045 425.4431999999997L84.00300000000016 422.4061999999998L75.90900000000033 418.38919999999973L70.74050000000057 416.93820000000017L70.13550000000009 413.8566500000002L63.22900000000004 403.82859999999994L64.68449999999962 401.13855L63.20400000000063 398.4397999999999L51.88549999999964 393.1638499999997L53.0804999999998 391.61225L51.8730000000005 385.9593000000001L55.08450000000039 381.22659999999996L51.71349999999961 376.5151500000002L54.772500000000264 373.68539999999996L55.80350000000067 367.4712999999997L59.903000000000475 362.7184L62.64949999999999 352.5565L67.61300000000006 348.87644999999964L65.33050000000003 344.06364999999994L62.40750000000048 342.08095000000014L55.00949999999989 345.5114499999996L49.012500000000045 344.5022L44.73700000000008 332.2755000000001L48.64149999999995 327.55724999999984L56.36100000000056 324.3930999999998L56.00699999999961 311.99025000000006L57.608000000000175 310.57455000000004L61.20149999999967 312.87244999999984L57.98949999999991 304.0677999999997L58.917000000000144 302.34865000000013L56.184500000000526 299.5706999999999L58.11149999999998 299.2694L59.44150000000036 293.9749999999998L62.37500000000068 291.85149999999965L75.08350000000064 298.0885999999998L81.6330000000005 293.51020000000005L83.60500000000002 294.0628499999997L87.41350000000011 292.7317999999997L90.36200000000008 297.94465L98.55350000000044 303.82630000000006L100.38400000000024 307.52954999999986L106.86249999999973 312.5938500000001L108.92850000000067 318.51380000000006L109.16249999999991 320.5935499999998L102.8819999999996 328.69129999999984L106.37500000000045 330.0087500000001L113.88000000000034 328.28059999999994L116.11700000000042 331.7484000000002L120.17100000000028 332.2602499999999L121.2035000000003 334.0472999999997L119.40950000000043 339.7296L129.5074999999997 344.0691499999997L137.9970000000003 334.50364999999977L139.34650000000033 330.44809999999984L146.08650000000011 335.3462999999999L148.72349999999983 340.99670000000003L158.82100000000037 341.42735000000016L162.48249999999985 338.6062499999997L168.3050000000003 328.1355500000001L175.70600000000013 320.07299999999987L184.91899999999987 319.10995000000014L190.64500000000066 320.5721999999997L196.70349999999985 318.23215000000005L202.27550000000065 316.6789499999999L207.41150000000061 322.31479999999976L216.2130000000002 320.4728499999999L217.3580000000004 329.7973000000002L219.88900000000058 332.5704000000002L212.20649999999978 332.9152499999998L205.2724999999998 328.8052499999998L198.9594999999997 330.58825000000013L198.90350000000012 333.6823499999997L200.32350000000065 334.30079999999975L208.29650000000015 332.62585L212.53199999999993 341.7514L212.63149999999996 343.66895L216.1175000000003 345.0406499999997L205.5849999999998 352.6083L205.16349999999989 354.3924499999997L209.04350000000022 360.17060000000015L224.3775000000005 358.09384999999963L227.9264999999998 361.6834499999999L227.2104999999999 363.63580000000013L238.64350000000059 373.4681499999999L240.16899999999964 376.77009999999996L245.1215000000002 378.30415000000016L243.8040000000001 382.14834999999994L233.25000000000045 392.09760000000017L232.96699999999987 396.1561999999998L231.72000000000025 396.7466999999999L231.9354999999996 398.7894499999999L227.04150000000027 404.74125000000015L223.11800000000062 405.91774999999984L218.3344999999997 411.65369999999996L216.33749999999964 411.14914999999996L214.51850000000036 405.2987999999999L215.7484999999997 400.7639499999999L210.40700000000015 392.41209999999967z">
      <title id="t359">Dixième circonscription du Rhône</title>
      <desc id="d359">Cantons de : Saint-Genis-Laval, Saint-Laurent-de-Chamousset, Saint-Symphorien-sur-Coise, Vaugneray</desc>
    </path><path class="circo" id="id-069-11" d="M253.99400000000014 496.73869999999965L246.77800000000047 500.1751999999999L242.15450000000033 506.68669999999963L236.91749999999956 509.62369999999964L236.0030000000006 510.13769999999965L227.87249999999972 515.5047000000002L228.43449999999962 522.6947000000001L227.65150000000062 524.3576999999999L226.13950000000045 524.8581999999999L223.1110000000001 523.1207L218.07199999999966 523.9522L210.2539999999999 513.6041999999998L212.18650000000025 512.8282000000002L210.10099999999966 504.9531999999999L203.15050000000042 500.5032L193.87200000000007 510.2981999999997L186.19300000000067 509.3471999999997L184.38650000000052 508.56619999999964L181.60799999999995 511.3186999999999L177.80200000000036 505.22170000000017L174.39250000000015 504.5657L172.87900000000036 498.8542000000001L174.28250000000048 497.32770000000016L172.4324999999999 487.1076999999997L172.9570000000001 478.9177000000001L177.57299999999987 474.8831999999999L179.13900000000012 471.11819999999966L179.63150000000041 470.9922L187.57299999999987 463.88570000000016L188.56049999999982 461.7912000000001L183.56949999999983 455.33619999999985L181.51500000000055 454.8061999999999L176.27250000000004 458.41369999999984L172.31400000000008 457.7231999999998L171.83949999999982 464.02769999999975L176.61849999999959 470.7806999999997L170.37199999999984 472.5241999999997L169.71599999999967 471.0406999999998L166.67350000000056 468.01469999999995L162.337 455.79319999999996L157.68699999999967 451.3067000000001L152.58850000000052 454.38469999999995L145.8940000000007 454.1942L138.87699999999995 447.1902L128.9575000000002 448.4647000000001L127.20850000000041 438.62869999999987L132.86849999999959 433.0831999999998L133.53000000000065 429.1071999999997L138.84750000000054 426.94169999999986L140.97999999999956 421.46169999999984L144.08800000000042 419.08320000000003L142.14500000000044 418.5622000000001L142.36549999999966 416.5577000000002L147.67450000000053 408.1185999999997L149.1319999999996 402.1515999999997L146.0374999999999 399.40549999999973L151.1564999999996 393.25384999999983L167.15550000000007 394.0098999999998L174.5569999999998 400.91295L178.2230000000004 391.6620999999998L183.0250000000001 388.4656000000001L193.32700000000045 376.6088500000001L197.15800000000058 375.80375000000004L198.11950000000024 376.54799999999966L206.11800000000017 381.03065000000015L204.67899999999986 390.68100000000015L210.40700000000015 392.41209999999967L215.7484999999997 400.7639499999999L214.51850000000036 405.2987999999999L216.33749999999964 411.14914999999996L218.3344999999997 411.65369999999996L223.11800000000062 405.91774999999984L229.0504999999996 413.21410000000014L234.64950000000044 413.93809999999974L237.08100000000059 415.9591999999998L239.72350000000006 415.65819999999974L240.0540000000001 414.57629999999995L245.26250000000005 411.83850000000007L246.14000000000033 415.6752L251.74300000000017 417.3822000000001L257.6470000000006 415.2923499999997L259.65599999999995 411.50109999999984L260.79650000000015 398.7073499999997L273.7615000000005 397.1754499999997L277.2649999999999 401.36235L275.61500000000024 411.01054999999974L286.2149999999997 407.1166999999997L286.9050000000004 400.2708000000001L292.35900000000015 393.98979999999995L293.3600000000001 385.64779999999985L301.27200000000016 386.1880500000001L308.36900000000014 389.8446000000001L311.61950000000047 387.1699000000001L317.5774999999999 389.3585999999999L319.98500000000035 392.4491999999998L326.07650000000035 393.83714999999995L332.5165000000004 394.63269999999966L344.3380000000002 399.9132500000002L346.05549999999994 403.99459999999976L338.9485000000002 408.1964499999998L337.18200000000024 411.9454999999999L336.9055000000003 418.0266999999998L339.92500000000064 423.4537L335.88750000000005 427.91420000000016L322.5765000000001 422.7611999999999L316.8915000000004 425.1292000000001L322.11850000000027 427.93270000000007L320.8979999999997 434.1516999999999L320.66749999999956 434.4196999999997L309.28300000000036 428.56119999999976L292.7869999999996 431.9502L290.3845000000001 432.93619999999976L282.3924999999997 432.34219999999993L275.2054999999996 435.4737L273.6514999999997 435.45270000000016L271.54949999999985 435.3262000000001L270.7450000000006 437.2766999999999L261.78350000000023 441.9812000000002L260.8495000000005 450.67319999999995L257.04900000000066 448.60919999999965L248.50149999999985 443.86419999999987L240.9725000000003 442.6562000000001L226.65550000000053 444.06920000000014L228.3630000000005 447.89819999999963L239.96250000000032 453.2051999999999L243.1790000000001 457.45769999999993L245.17150000000015 461.5931999999998L251.90450000000055 469.9167L264.9260000000004 475.20820000000015L267.30249999999955 478.3576999999997L266.8965000000003 480.3426999999999L262.4395000000004 486.88620000000014L255.6619999999998 494.7737000000001L253.99400000000014 496.73869999999965z">
      <title id="t360">Onzième circonscription du Rhône</title>
      <desc id="d360">Cantons de : Condrieu, Givors, Mornant, Saint-Symphorien-d'Ozon</desc>
    </path><path class="circo" id="id-069-13" d="M321.88949999999977 308.53504999999984L318.36649999999963 309.9502000000001L313.02099999999996 311.1446000000001L308.78600000000006 310.20325000000014L294.91499999999974 331.89160000000015L292.7189999999996 348.77655000000004L294.1575 359.73225000000014L291.16700000000037 361.05435L294.9180000000001 365.06519999999966L295.8235000000002 370.17044999999996L293.45350000000053 372.68854999999974L294.1724999999997 377.4318499999998L305.3665000000001 377.81894999999963L307.8735000000006 376.3835999999998L308.4699999999998 379.38679999999977L306.44049999999993 382.2440999999998L304.23900000000003 387.7180499999997L308.36900000000014 389.8446000000001L311.61950000000047 387.1699000000001L317.5774999999999 389.3585999999999L319.98500000000035 392.4491999999998L326.07650000000035 393.83714999999995L332.5165000000004 394.63269999999966L344.3380000000002 399.9132500000002L355.17650000000003 390.10614999999973L359.2724999999996 389.4863499999997L366.884 382.78414999999995L365.6975 376.65205000000014L377.21149999999966 372.5162999999998L380.94600000000014 374.23495L384.69850000000065 372.8838999999999L386.82750000000055 375.7818500000002L389.0575000000001 366.3311999999996L383.5685000000001 363.56515L378.22200000000066 355.2863500000001L375.2175 352.75319999999965L361.55200000000036 351.5967999999998L359.5765000000006 343.5726999999997L361.13249999999994 335.40475000000015L350.8490000000006 335.17629999999997L346.7095000000006 325.6320999999997L346.48199999999974 319.66949999999997L358.22400000000016 323.70135000000005L359.94050000000016 322.53359999999986L364.3315000000007 306.54904999999985L360.71500000000015 307.49055L346.0945000000004 308.6539499999998L342.5445000000002 307.2703999999999L337.4475000000007 309.6154999999999L333.7059999999997 308.8648999999998L328.4710000000007 311.28424999999993L321.88949999999977 308.53504999999984z">
      <title id="t362">Treizième circonscription du Rhône</title>
      <desc id="d362">Cantons de : Décines-Charpieu, Meyzieu, Commune de Saint-Priest (partie située à l'est d'une ligne définie par les voies ci-après : autoroute A43, rue de l'Aviation, avenue Hélène-Boucher, avenue Salvador-Allende, rue Alfred-de-Vigny, avenue Jean-Jaurès, boulevard Frédéric-Reymond, montée de la Carnière, rue du Grisard, rue Jules-Verne, autoroute A46 vers Heyrieux)</desc>
    </path></svg>