<svg xmlns="http://www.w3.org/2000/svg" version="1.1" xmlns:xlink="http://www.w3.org/1999/xlink" xmlns:svgjs="http://svgjs.dev/svgjs" width="617.9965000000004" height="486.3151499999998" fill="#eeeeee" stroke="#cccccc" xmlns:sodipodi="http://sodipodi.sourceforge.net/DTD/sodipodi-0.dtd"><path class="circo" id="id-070-01" d="M312.10050000000024 88.32769999999982L304.61700000000064 78.83645000000001L302.53900000000044 78.85229999999979L299.0190000000007 80.95820000000003L284.2375000000004 80.20699999999977L283.83699999999976 72.39750000000015L289.7580000000005 68.10904999999991L298.6410000000001 62.246450000000095L299.73799999999983 53.94229999999993L298.4749999999997 44.95004999999992L294.05700000000024 45.297800000000166L294.3799999999999 32.38009999999974L301.87650000000076 24.15854999999965L307.92800000000057 21.48505L311.54300000000035 15.959050000000161L315.4475000000002 15.140949999999975L315.6765000000007 10.035649999999805L313.9274999999998 7.380099999999743L303.8605000000007 6.754950000000122L298.19600000000037 5.423250000000053L283.1690000000003 14.376800000000003L276.98150000000055 23.16980000000001L277.278 29.28830000000005L271.5100000000007 35.71664999999996L271.2290000000007 39.81004999999982L268.46250000000055 43.17945000000009L255.0815 42.47185000000002L254.2840000000001 48.68825000000015L245.24549999999977 55.810599999999795L238.86750000000006 54.70359999999971L240.96599999999967 46.644999999999754L250.37450000000035 36.53864999999996L245.20250000000033 28.18604999999991L236.64100000000076 31.55984999999987L234.06550000000038 33.699249999999665L232.66849999999977 48.7193000000002L228.20800000000077 49.17174999999986L222.19900000000052 54.74355000000003L223.66700000000037 58.69374999999991L218.50850000000037 62.24009999999964L220.99450000000047 72.45709999999974L219.26000000000045 77.08674999999971L217.85550000000057 78.59935000000007L211.82999999999993 78.07064999999966L204.31350000000066 75.00024999999994L202.98200000000065 76.57890000000009L201.66450000000054 80.60194999999965L191.78949999999986 98.33259999999996L192.98650000000066 104.48519999999974L194.62049999999977 109.20464999999979L184.88950000000045 112.13570000000004L181.03349999999978 112.48904999999979L182.02400000000011 106.82059999999979L169.75099999999998 106.35189999999966L166.0050000000001 104.52065000000005L162.69599999999969 109.3952999999999L158.7850000000003 111.16354999999999L160.60550000000035 123.24754999999982L159.57200000000057 127.15660000000014L157.0945000000006 130.10249999999985L153.35500000000025 130.93039999999974L151.9010000000003 130.4126500000001L145.7974999999999 128.4403500000002L139.26050000000032 127.30914999999982L133.86799999999994 133.99299999999982L130.05750000000035 155.27420000000006L132.45250000000055 157.65665000000013L131.48450000000025 161.0861L141.4224999999999 161.3352500000002L143.09750000000008 162.50884999999982L143.31549999999993 166.42780000000016L142.69300000000044 173.00509999999974L144.00150000000053 176.90380000000005L135.59799999999996 183.88409999999965L135.2335000000005 186.0963499999997L138.2529999999997 189.39774999999997L133.7065000000007 190.9665000000001L133.28500000000076 197.5458500000002L137.11599999999976 202.80140000000017L137.36499999999978 211.47719999999993L135.23050000000012 214.91240000000005L127.49250000000075 216.1099999999999L126.24950000000013 214.46984999999984L122.87950000000023 215.06644999999992L120.13300000000072 219.72084999999993L110.05899999999997 219.98530000000017L104.03750000000059 222.13269999999966L100.08649999999989 220.95550000000003L96.1424999999997 223.2012500000002L91.2340000000006 211.25429999999994L90.55050000000051 204.74339999999984L85.18350000000055 201.00775L83.63650000000007 200.80375000000004L67.99800000000005 221.71040000000005L59.37200000000075 221.5703000000002L57.81150000000025 220.03710000000012L47.6724999999999 214.99700000000018L41.96450000000027 221.1903000000001L33.50800000000049 223.25049999999976L27.036500000000387 223.44740000000002L21.533000000000584 220.17470000000003L15.250500000000784 221.95404999999994L12.05850000000055 234.92115000000013L14.881000000000313 238.04100000000005L7.314000000000078 245.55894999999964L1.834999999999809 254.92844999999988L1.4774999999997362 265.52824999999984L6.365500000000566 268.00925000000007L7.87050000000022 271.3925499999999L12.41100000000074 270.17994999999985L23.3725000000004 248.1687999999997L29.567500000000564 249.62125000000015L42.69200000000069 263.20974999999976L45.88449999999966 264.9962499999998L49.25399999999968 281.86739999999986L47.50650000000064 290.1633499999997L51.2945000000002 291.4627999999999L53.56750000000034 301.69825000000003L49.21699999999987 314.39044999999965L42.98750000000041 314.08140000000003L35.47350000000051 327.13629999999966L32.665000000000646 333.7513999999999L27.978500000000395 337.3896500000001L24.30150000000026 333.5488499999997L12.16099999999983 331.9812000000002L8.729500000000598 338.81050000000016L7.0955000000003565 343.18960000000004L15.74200000000019 345.70749999999975L3.7959999999998217 352.65404999999987L0 353.6888499999998L4.619999999999891 356.9703499999997L3.812000000000353 362.4482499999999L14.462500000000773 355.86585000000014L18.427000000000362 356.5366L20.212999999999965 362.3595999999998L26.017500000000382 363.8912499999998L27.636999999999716 362.61664999999994L29.92900000000077 364.96339999999975L28.840000000000146 366.4238999999998L25.81700000000069 372.0799499999998L25.425000000000182 380.7979999999998L30.53949999999986 389.78634999999997L26.628500000000486 398.9059500000002L34.337000000000444 404.27269999999965L45.641500000000406 397.83109999999965L53.68600000000015 401.3988999999998L51.54999999999973 411.22950000000003L50.245499999999765 421.91485L50.773000000000366 422.86405L52.87249999999972 430.9641499999998L51.60950000000071 437.0869499999998L50.3245000000004 438.74055L46.25450000000001 438.3524L43.83000000000038 441.69825000000003L44.070500000000266 447.35270000000014L54.35550000000035 448.0278499999997L58.866500000000315 451.86915L62.87450000000035 454.3173999999999L64.47750000000042 453.27945L69.12199999999984 465.3835499999997L78.70999999999981 470.04414999999995L78.45550000000003 476.3608499999998L84.26050000000032 475.9913L86.21600000000058 481.0537499999998L87.39500000000021 486.3151499999998L90.60749999999985 485.0383499999998L98.05500000000052 481.87160000000006L102.09150000000022 482.5861500000002L107.40800000000036 485.74095L115.47649999999976 484.38649999999996L117.3720000000003 482.69074999999987L120.17699999999991 478.86424999999974L124.41649999999981 478.21789999999964L130.07150000000024 472.15280000000007L133.2249999999999 474.7091499999999L136.45650000000046 474.3000999999998L139.45600000000013 478.8655L144.83450000000062 475.3774499999997L154.9565000000007 479.8462999999998L163.05900000000065 473.91174999999976L164.41599999999994 471.7700500000001L168.59649999999988 471.91100000000006L171.85950000000048 469.3344000000002L176.44900000000007 462.4919L180.50200000000018 463.3979499999998L188.88950000000023 459.98850000000004L195.7675000000006 457.75125L201.6534999999999 456.3824999999997L205.08800000000065 450.0871000000001L209.73500000000058 446.9076000000001L213.64450000000033 447.7670999999998L217.64900000000011 443.38419999999985L222.79600000000073 449.52544999999986L225.87499999999977 447.53825000000006L223.60250000000065 438.71735L226.82999999999993 436.23785L236.23800000000074 439.9702000000002L238.03150000000073 438.8164499999999L235.7140000000004 432.9566999999997L236.34950000000003 428.8785999999999L241.39850000000024 430.34944999999993L242.75250000000028 429.22984999999983L243.2540000000006 431.0456499999998L252.01400000000035 433.57820000000004L252.2040000000004 433.6189999999999L258.3879999999999 439.4566500000002L260.2350000000001 438.41385L262.00649999999996 438.1818499999997L262.47100000000046 439.9106499999999L264.1250000000002 439.0528499999999L266.078 431.9469499999997L269.6395000000007 433.0827499999998L271.9614999999999 436.14885000000015L277.5125000000003 436.6611499999999L280.45349999999985 433.39004999999986L284.0325000000007 428.7819999999999L289.1769999999997 426.2572499999999L289.66949999999997 424.1626500000001L290.85199999999986 424.7566999999998L291.95600000000013 425.7943L298.07800000000043 425.2698499999997L301.3060000000007 422.6714499999997L302.5105000000008 418.78469999999993L302.35900000000015 411.9668999999999L310.3150000000005 412.602L311.05950000000007 418.4879000000001L311.3099999999997 418.5600999999997L314.8694999999998 418.0392999999998L318.37600000000066 414.01144999999985L312.82550000000015 408.65819999999985L315.0210000000004 407.6025499999997L312.5905 404.7359499999999L316.97400000000016 398.51294999999993L318.4249999999997 397.03755L324.32750000000055 402.1986499999997L332.2090000000003 402.9262L333.7855000000002 400.5683499999998L335.6529999999998 401.52004999999974L339.2730000000006 399.40945L340.9030000000007 395.60599999999965L339.289 391.8184500000001L332.9944999999998 386.02634999999964L332.14699999999993 387.91049999999984L330.04549999999995 387.7019999999999L326.9119999999998 382.09385L329.4659999999999 369.6419500000002L324.91750000000025 365.20915L326.35200000000054 363.6128500000001L320.8254999999997 365.91804999999965L317.8435000000002 362.39165000000014L322.03899999999976 355.4905500000001L321.24450000000024 345.4453000000001L317.4660000000006 337.99784999999986L316.7000000000007 328.45815000000016L311.51700000000005 325.1870500000001L305.4295000000002 325.5085500000001L302.7445 324.9554999999998L301.39350000000036 318.43484999999987L303.3125000000007 314.43325000000016L302.65499999999975 310.13215L307.17550000000074 307.28669999999966L314.47200000000066 298.28345000000013L316.9055000000003 287.6222999999999L318.9580000000001 284.35029999999983L319.10799999999995 284.12915L330.94600000000014 280.24749999999983L334.50199999999995 273.3852999999999L342.9200000000003 271.3566500000002L349.31550000000016 277.1222L355.2814999999998 282.82564999999977L356.0660000000007 289.1568000000001L365.97650000000044 293.0631999999997L363.94000000000005 275.9872999999999L356.24700000000075 272.26099999999974L355.5950000000007 270.19634999999994L352.3860000000002 261.3657999999998L349.0840000000003 259.28405L356.56150000000025 252.2150499999998L360.58200000000056 251.68090000000007L364.47700000000054 245.59615000000008L370.05449999999996 247.31425000000002L374.37200000000075 243.56069999999988L379.0674999999999 229.83034999999973L376.75250000000005 224.24769999999967L376.1175000000003 224.38654999999983L372.6170000000002 216.18449999999996L372.97900000000027 211.7802499999999L373.6964999999998 207.7031999999997L381.39549999999986 200.88205000000016L381.05099999999993 198.79144999999994L378.9925000000005 199.04724999999985L377.4745000000007 195.13784999999984L374.06150000000025 192.73165000000006L368.2905000000005 179.29415000000006L363.6009999999999 174.30724999999995L361.3015000000007 174.3097499999999L358.0714999999998 182.00594999999964L354.60750000000075 184.16465000000017L347.5189999999998 192.7720499999998L347.27700000000027 192.59199999999964L350.01750000000015 186.9550499999997L347.19400000000064 173.08029999999974L348.5095000000001 171.4253500000001L349.39100000000053 170.81784999999968L345.34650000000056 151.68605000000014L346.1570000000006 149.74789999999985L354.65599999999995 149.0330499999999L356.86649999999986 142.85464999999988L355.2769999999998 141.55885000000012L347.47799999999984 143.04255000000012L341.69849999999997 141.08239999999967L342.0625000000007 139.5296000000002L337.83050000000003 138.77214999999978L334.37149999999974 144.13835000000006L330.6355000000008 146.08569999999986L327.6610000000005 140.73499999999967L320.61199999999985 142.53449999999987L317.88149999999973 132.0810499999999L321.2170000000003 124.04330000000016L329.0345000000002 121.03039999999964L330.37450000000035 119.78374999999971L328.7689999999998 114.26159999999982L329.4130000000007 113.2090999999997L330.2525000000003 104.82849999999985L325.62149999999974 97.67049999999983L317.8785000000005 94.63489999999979L312.10050000000024 88.32769999999982z">
      <title id="t364">Première circonscription de la Haute-Saône</title>
      <desc id="d364">Cantons de : Amance, Autrey-lès-Gray, Champlitte, Combeaufontaine, Dampierre-sur-Salon, Fresne-Saint-Marnès, Gray, Gy, Jussey, Marnay, Pesmes, Port-sur-Saône, Rioz, Scey-sur-Saône-et-Saint-Albin, Vesoul Est, Vesoul Ouest, Vitrey-sur-Mance</desc>
    </path><path class="circo" id="id-070-02" d="M594.7940000000006 203.1556999999998L595.4330000000004 197.35884999999996L590.1165000000003 190.89384999999993L590.3345000000002 180.56444999999997L589.5065 175.05184999999983L596.7075 163.13170000000014L601.6650000000004 153.29515000000015L613.3005000000003 143.41459999999984L617.9965000000004 135.98524999999995L617.5150000000008 133.8290999999998L604.0875000000005 122.99874999999986L602.8300000000002 120.04590000000007L604.2025000000001 116.09544999999969L601.1149999999998 110.70884999999976L581.2295000000006 102.8064999999998L580.8600000000001 100.63674999999989L579.9900000000002 100.98394999999982L569.3074999999999 94.0791999999999L566.5710000000001 90.53054999999972L561.3225 87.73134999999968L559.4130000000007 86.19694999999979L541.7200000000003 76.16679999999974L539.4510000000002 72.38294999999994L539.8820000000001 67.96384999999987L534.9549999999999 60.885299999999916L527.8219999999999 55.90005000000019L525.0509999999997 50.55430000000001L523.0370000000005 50.61080000000004L509.20900000000074 56.87889999999982L504.76600000000076 64.19170000000008L497.8634999999997 77.15010000000007L481.47100000000023 81.13375000000019L470.7680000000005 87.98419999999965L469.4670000000008 83.78715L462.49649999999974 75.37114999999972L462.52950000000055 66.80459999999982L458.6559999999997 64.60075000000018L451.0725000000002 50.9717999999998L441.0845000000006 51.36075000000005L439.4214999999997 45.24704999999983L432.5560000000007 40.686549999999784L428.4495000000004 41.55034999999998L422.6274999999998 39.06554999999969L404.55100000000016 46.99144999999987L397.8965000000005 46.55109999999979L391.95600000000013 43.46124999999972L385.37149999999997 44.62704999999971L379.2610000000002 49.49405000000013L374.08000000000015 53.971500000000106L370.1914999999997 54.33119999999974L368.64850000000047 57.93004999999994L360.8375000000001 56.1411499999997L358.6334999999997 59.4905L354.72350000000006 58.43369999999993L355.96250000000055 51.90195000000017L355.50250000000005 49.75165000000004L344.8770000000002 42.644449999999665L340.19750000000045 45.37075000000016L336.0329999999999 41.779449999999656L335.2710000000002 38.170599999999695L333.4870000000001 37.88749999999993L331.0725000000002 35.11484999999993L336.64150000000063 32.67400000000009L335.1570000000004 20.742700000000127L332.4700000000007 17.769200000000183L333.8274999999999 10.890099999999734L323.3465000000001 0L316.08100000000036 3.8202000000001135L313.9274999999998 7.380099999999743L315.6765000000007 10.035649999999805L315.4475000000002 15.140949999999975L311.54300000000035 15.959050000000161L307.92800000000057 21.48505L301.87650000000076 24.15854999999965L294.3799999999999 32.38009999999974L294.05700000000024 45.297800000000166L298.4749999999997 44.95004999999992L299.73799999999983 53.94229999999993L298.6410000000001 62.246450000000095L289.7580000000005 68.10904999999991L283.83699999999976 72.39750000000015L284.2375000000004 80.20699999999977L299.0190000000007 80.95820000000003L302.53900000000044 78.85229999999979L304.61700000000064 78.83645000000001L312.10050000000024 88.32769999999982L317.8785000000005 94.63489999999979L325.62149999999974 97.67049999999983L330.2525000000003 104.82849999999985L329.4130000000007 113.2090999999997L328.7689999999998 114.26159999999982L330.37450000000035 119.78374999999971L329.0345000000002 121.03039999999964L321.2170000000003 124.04330000000016L317.88149999999973 132.0810499999999L320.61199999999985 142.53449999999987L327.6610000000005 140.73499999999967L330.6355000000008 146.08569999999986L334.37149999999974 144.13835000000006L337.83050000000003 138.77214999999978L342.0625000000007 139.5296000000002L341.69849999999997 141.08239999999967L347.47799999999984 143.04255000000012L355.2769999999998 141.55885000000012L356.86649999999986 142.85464999999988L354.65599999999995 149.0330499999999L346.1570000000006 149.74789999999985L345.34650000000056 151.68605000000014L349.39100000000053 170.81784999999968L348.5095000000001 171.4253500000001L347.19400000000064 173.08029999999974L350.01750000000015 186.9550499999997L347.27700000000027 192.59199999999964L347.5189999999998 192.7720499999998L354.60750000000075 184.16465000000017L358.0714999999998 182.00594999999964L361.3015000000007 174.3097499999999L363.6009999999999 174.30724999999995L368.2905000000005 179.29415000000006L374.06150000000025 192.73165000000006L377.4745000000007 195.13784999999984L378.9925000000005 199.04724999999985L381.05099999999993 198.79144999999994L381.39549999999986 200.88205000000016L373.6964999999998 207.7031999999997L372.97900000000027 211.7802499999999L372.6170000000002 216.18449999999996L376.1175000000003 224.38654999999983L376.75250000000005 224.24769999999967L379.0674999999999 229.83034999999973L374.37200000000075 243.56069999999988L370.05449999999996 247.31425000000002L364.47700000000054 245.59615000000008L360.58200000000056 251.68090000000007L356.56150000000025 252.2150499999998L349.0840000000003 259.28405L352.3860000000002 261.3657999999998L355.5950000000007 270.19634999999994L356.24700000000075 272.26099999999974L363.94000000000005 275.9872999999999L365.97650000000044 293.0631999999997L356.0660000000007 289.1568000000001L355.2814999999998 282.82564999999977L349.31550000000016 277.1222L342.9200000000003 271.3566500000002L334.50199999999995 273.3852999999999L330.94600000000014 280.24749999999983L319.10799999999995 284.12915L318.9580000000001 284.35029999999983L316.9055000000003 287.6222999999999L314.47200000000066 298.28345000000013L307.17550000000074 307.28669999999966L302.65499999999975 310.13215L303.3125000000007 314.43325000000016L301.39350000000036 318.43484999999987L302.7445 324.9554999999998L305.4295000000002 325.5085500000001L311.51700000000005 325.1870500000001L316.7000000000007 328.45815000000016L317.4660000000006 337.99784999999986L321.24450000000024 345.4453000000001L322.03899999999976 355.4905500000001L317.8435000000002 362.39165000000014L320.8254999999997 365.91804999999965L326.35200000000054 363.6128500000001L324.91750000000025 365.20915L329.4659999999999 369.6419500000002L326.9119999999998 382.09385L330.04549999999995 387.7019999999999L332.14699999999993 387.91049999999984L332.9944999999998 386.02634999999964L339.289 391.8184500000001L340.9030000000007 395.60599999999965L343.83950000000027 392.9638L347.7925000000005 392.69945000000007L347.93450000000007 390.71950000000015L343.09600000000046 389.99734999999987L341.2194999999997 389.95025L339.9585000000002 386.51565000000005L342.9925000000003 384.1370999999998L346.79399999999987 385.28714999999977L350.1660000000004 384.75014999999985L350.00400000000013 383.04044999999974L351.95850000000064 382.98389999999984L352.5374999999997 377.16139999999996L355.2105000000006 374.5591999999999L355.8974999999998 376.12104999999985L357.44050000000016 378.00635L363.0039999999997 380.3564L366.404 385.5207999999999L370.17150000000015 387.46395000000007L371.08299999999986 385.6061999999997L367.04900000000066 378.57550000000003L367.36150000000066 374.6546999999998L373.98900000000026 378.72000000000014L378.3590000000004 376.3139000000001L378.81500000000074 370.72900000000004L379.452 365.2694500000001L386.58250000000066 366.5911L390.4195000000004 364.3217499999997L387.7215000000001 361.8649499999998L392.54850000000033 352.7672000000001L395.7394999999997 350.31835L394.64950000000044 341.91615000000013L396.0705000000007 336.6889500000002L399.9459999999999 338.7274500000001L403.7450000000001 339.0633500000001L408.41999999999985 329.18984999999964L409.6569999999997 327.5867499999998L415.6925000000001 327.86045L423.9409999999998 322.8720499999997L428.45050000000015 324.2111L433.16550000000007 327.48609999999985L436.2300000000005 319.80050000000006L442.2440000000006 317.5826999999998L443.7374999999997 319.13279999999986L444.61450000000013 318.0767500000002L449.6500000000003 320.71680000000015L455.77949999999987 322.08484999999996L459.8705000000007 321.0849000000002L463.2910000000004 323.5309000000001L467.90250000000015 339.5262500000001L469.69350000000077 338.49474999999984L469.7339999999997 334.34775L480.249 324.9108000000001L482.65600000000063 330.0241L487.53900000000044 333.45574999999997L489.5335 333.08584999999994L492.6735000000008 330.96524999999986L493.99150000000077 327.4018000000001L498.74199999999973 330.99414999999965L502.8880000000004 337.45569999999987L504.8840000000007 333.65205000000003L511.2504999999999 334.19550000000015L515.5669999999998 324.85104999999976L513.8405 315.03625L514.6030000000007 312.9269999999997L510.70850000000064 313.4078999999997L509.6550000000002 311.6813000000002L514.6699999999998 305.56730000000016L514.1994999999997 303.5998000000001L520.1560000000006 304.7053999999997L525.2295000000004 308.1711999999999L526.3094999999998 311.4031L530.1175000000001 311.83870000000013L533.9855 312.5783000000001L542.9605000000004 308.63139999999987L545.5849999999998 305.0655499999999L547.5864999999999 302.02695000000006L552.3340000000007 294.91674999999987L545.3269999999998 286.52559999999994L547.9224999999997 281.05399999999975L550.204 285.69090000000017L560.2774999999997 286.78574999999967L558.7395000000004 291.61204999999995L573.3015 298.2966499999998L574.4740000000002 293.93674999999973L576.0350000000005 293.3409499999999L582.056 295.60760000000016L585.7725000000005 300.75564999999983L589.7080000000005 305.1983999999999L594.4630000000006 307.6272499999999L599.479 308.4752500000002L606.0810000000004 300.41875000000005L608.0360000000007 292.1021000000002L610.4880000000003 291.82934999999986L611.6854999999998 288.1124L616.7435 285.20704999999964L616.4404999999999 284.5676500000002L616.0570000000007 283.83370000000014L609.2560000000003 279.07555L608.4995000000004 274.9103500000001L603.8139999999999 270.7314500000001L604.6569999999997 268.8468999999998L602.9804999999999 265.43184999999994L602.5099999999998 265.31835L601.4089999999999 261.2315000000001L598.1045000000006 258.6755999999997L599.1825000000006 252.46539999999982L603.7185 251.4450499999998L607.4545 244.6632999999997L606.8029999999999 240.64705000000004L603.56 238.19365000000005L602.1940000000006 235.81455000000005L599.3970000000002 232.6717500000001L597.8359999999998 226.77404999999965L598.4345000000008 220.53510000000017L599.0745000000004 211.76004999999975L598.5070000000007 207.72715000000005L594.7940000000006 203.1556999999998z">
      <title id="t365">Deuxième circonscription de la Haute-Saône</title>
      <desc id="d365">Cantons de : Champagney, Faucogney-et-la-Mer, Héricourt Est, Héricourt Ouest, Lure Nord, Lure Sud, Luxeuil-les-Bains, Mélisey, Montbozon, Noroy-le-Bourg, Saint-Loup-sur-Semouse, Saint-Sauveur, Saulx, Vauvillers, Villersexel</desc>
    </path></svg>