<svg xmlns="http://www.w3.org/2000/svg" version="1.1" xmlns:xlink="http://www.w3.org/1999/xlink" xmlns:svgjs="http://svgjs.dev/svgjs" width="782.5778499999996" height="618.3677499999999" fill="#eeeeee" stroke="#cccccc" xmlns:sodipodi="http://sodipodi.sourceforge.net/DTD/sodipodi-0.dtd"><path class="circo" id="id-071-01" d="M466.9748499999997 577.90435L466.3293500000003 574.3547000000001L471.8538499999994 574.9628999999999L473.1988499999994 571.4670000000001L466.6168499999998 564.6701999999999L461.6038499999996 562.0146499999998L460.0448499999999 560.6078000000002L453.78085 560.9323L450.72384999999997 558.0656500000003L449.2858499999994 550.1613000000003L452.8938499999998 551.0196000000002L455.06434999999954 547.8704500000003L458.1173499999994 550.4011000000003L461.0883499999994 549.06385L461.0008499999998 539.8075L459.2028499999998 539.7073L455.22234999999966 533.7609000000003L455.03184999999974 528.9694500000002L449.22785000000033 527.6202999999998L442.7518500000002 532.4863500000004L437.95384999999953 528.47915L431.77885000000003 529.5243500000004L430.5263499999995 535.37125L422.5538499999999 542.3184500000002L424.62635000000034 548.1323500000002L423.2108499999998 552.0512000000002L409.5873499999999 549.65285L403.79984999999976 544.2536999999999L403.24585000000013 536.2668000000002L402.50834999999995 534.4904000000002L397.3818499999999 533.7510500000002L393.30584999999985 540.5510500000003L392.5613500000003 546.44025L388.96784999999966 548.6900500000002L374.5198499999998 550.6089000000003L367.9168499999997 537.7847000000003L362.3808500000001 540.0400000000002L355.04734999999926 532.9016000000001L347.0858500000003 534.6712500000001L345.47234999999944 530.7639499999999L341.8098500000002 528.6588L344.83135000000004 521.93085L336.7258499999997 523.8623000000001L330.9193499999998 521.7690500000003L328.64035 518.1870000000004L328.6853500000001 511.86935000000005L320.7653499999998 499.55445L329.2233500000003 493.25919999999996L334.9233499999997 484.26345000000026L347.85334999999975 493.6723999999998L351.5378500000003 491.7268999999999L350.97185000000025 483.3677499999999L355.7578499999994 479.0281500000003L356.4783499999993 474.75205000000017L364.2733500000003 464.9624499999999L364.5753499999995 460.6328000000002L365.66935 462.5018L375.61684999999954 466.42690000000016L380.3833500000002 461.95505000000026L381.01335000000006 453.9386999999999L378.2698499999998 446.00495000000024L379.22984999999983 439.8076000000003L383.05135000000007 441.7814500000003L385.0653499999993 441.0209000000003L390.4078499999997 434.79120000000023L391.8188500000002 430.91295L387.92335000000037 429.26435000000026L390.01734999999996 417.0049L377.66434999999944 416.1869999999999L366.14134999999976 411.2868000000003L364.3538499999994 408.7679000000003L374.3503500000003 405.1368000000002L378.1268499999993 400.1040499999999L382.3763500000001 399.40184999999985L386.5423500000003 394.6820500000001L387.2433499999994 389.41665L383.96334999999965 387.79499999999985L381.57984999999996 376.7749500000002L383.2678500000003 375.5272500000001L393.67684999999994 376.36525000000006L395.73834999999974 367.1316999999999L396.6563500000001 365.3185500000001L398.63485000000026 365.74205000000006L400.75485000000015 352.55274999999983L400.6763499999994 352.3282499999999L399.7268500000001 346.70060000000035L402.66384999999957 341.9510500000001L420.0213500000001 345.9676000000002L420.9583500000002 342.7837499999998L423.38585000000023 341.3850000000002L422.6198500000004 339.98744999999985L426.6273499999994 339.3396999999999L431.04385000000036 335.5309L433.74934999999994 330.42640000000006L433.60134999999957 326.56645000000026L436.7768499999994 324.8433499999999L439.7663499999993 327.2361000000001L444.96685000000014 324.88789999999995L449.78384999999946 329.09895000000006L447.9018500000001 337.67420000000016L446.90684999999974 345.85500000000025L455.1933500000001 352.30970000000013L458.79734999999926 354.3424500000003L464.68834999999956 359.4717000000003L469.6478499999995 360.37135000000035L477.76985000000025 366.13519999999994L480.5568499999998 363.07380000000023L486.2298500000003 367.0315499999998L488.2393499999995 369.9937L484.9253500000003 378.75865000000033L482.74884999999983 381.35395000000017L484.6428499999996 384.4792000000001L493.9248500000002 388.58330000000024L493.19334999999967 396.67824999999993L503.46735000000024 396.74620000000004L506.84984999999926 395.7722000000001L510.2428500000002 390.98265000000026L511.6518500000001 396.73445000000015L513.6293499999994 396.8141000000003L517.2663499999993 398.52305L525.9663499999994 394.9896000000001L530.8273500000001 397.20200000000034L529.0598499999993 404.89720000000034L517.6098499999995 407.6133500000003L520.17585 411.422L521.43035 409.6940000000001L534.9213500000002 415.7907499999999L539.1283500000003 415.54689999999994L548.9993499999997 419.41640000000007L548.9648499999993 430.4934000000003L540.4628499999995 440.85064999999986L539.8008499999997 442.5789500000002L539.33785 445.05645000000015L539.22485 451.85835L538.0138500000004 458.07135000000017L537.8123499999998 466.9884000000002L531.7393499999997 478.0775L528.2423499999999 483.7601999999998L525.1988499999999 488.53155000000015L522.0203499999997 498.18625L522.7003499999995 504.0644000000003L522.1783499999998 514.3535000000003L517.8403499999996 523.1369000000001L514.3168499999996 530.7467500000001L511.5808499999997 544.9590000000001L507.3303500000003 551.678L504.9203499999993 558.3496000000002L503.80735000000016 568.4261000000004L500.63784999999996 573.6444499999999L499.4078499999995 576.7869000000002L498.4143499999999 579.4923L497.23535000000027 587.2491000000002L497.0618499999995 591.2665500000003L492.29634999999973 597.9769500000003L491.9133500000004 606.1794500000002L489.9073500000003 605.9241000000003L484.6813500000002 606.7797000000002L479.3168499999996 608.1355000000002L470.1723499999997 604.4896L468.1818500000003 601.4934L466.9548500000002 593.8019000000003L468.79534999999976 588.2452000000001L472.98685000000035 584.6751499999999L466.9748499999997 577.90435z">
      <title id="t366">Première circonscription de Saône-et-Loire</title>
      <desc id="d366">Cantons de : La Chapelle-de-Guinchay, Cluny, Lugny, Mâcon Centre, Mâcon Nord, Mâcon Sud, Matour, Saint-Gengoux-le-National, Tramayes</desc>
    </path><path class="circo" id="id-071-02" d="M47.496999999999616 343.0015000000003L41.13749999999982 341.9733500000001L38.52399999999989 338.7074000000001L42.68449999999973 331.25135L42.876999999999725 329.0853500000003L39.69799999999964 326.1752999999999L36.66249999999991 323.32195000000013L34.77049999999963 317.3680999999999L32.645499999999856 313.2125500000001L32.53949999999975 311.37170000000026L31.08599999999967 307.3330500000003L20.13149999999996 300.54020000000037L21.228999999999587 294.41935L13.883500000000026 291.01620000000025L12.042999999999893 280.8009500000003L6.306999999999903 278.78975000000025L6.32349999999974 268.43005000000005L0 258.0721L2.8145000000000664 252.7610500000003L7.325500000000034 258.78964999999994L10.646499999999719 256.9911000000002L16.277499999999918 260.03060000000005L28.774999999999977 257.3458499999998L34.49649999999963 254.3867499999999L49.229499999999575 251.20965000000012L68.36899999999957 261.07860000000016L66.71749999999975 264.8816499999998L71.01549999999975 271.96939999999984L73.03899999999999 282.16504999999984L78.71399999999994 280.46445000000006L86.59599999999955 281.0544500000003L88.67599999999982 293.3010999999999L97.31949999999983 298.84360000000015L99.07999999999959 302.6442000000003L103.03449999999998 303.50760000000037L101.50249999999971 315.0328000000002L98.76749999999959 320.27705000000026L102.8974999999997 326.23595000000023L113.8009999999997 327.92370000000005L120.59199999999976 318.01255000000026L124.5580000000001 318.6439999999999L129.88149999999962 324.7932000000003L135.8404999999999 323.1418000000002L136.56499999999994 316.918L139.43249999999978 311.3271000000003L144.58300000000008 308.3009500000003L149.21400000000006 314.5969500000001L150.93249999999955 311.35125000000016L152.1664999999996 307.29030000000023L177.67884999999978 296.9091000000003L190.03434999999968 298.98795000000007L195.41834999999992 302.13509999999985L203.28734999999995 299.6228500000001L208.20085000000006 292.98640000000034L209.57134999999994 286.88525000000027L208.04734999999994 282.9464999999999L211.2283500000001 280.2568000000002L217.08484999999996 277.65615000000025L217.61334999999974 273.3766000000003L219.80384999999956 265.38575000000037L223.3283499999999 263.7952999999999L227.62184999999988 268.2303999999999L228.69334999999978 274.45955000000026L233.69685000000004 278.15634999999986L235.8033499999999 277.9251500000004L242.02984999999956 277.1541000000002L244.13234999999986 280.8920499999999L244.03284999999983 289.32780000000037L244.91484999999955 291.31110000000035L247.0783499999999 291.2993499999999L250.77934999999968 291.16055000000017L253.90034999999955 284.94815000000017L257.40184999999997 283.70814999999993L267.1983499999999 287.5904000000003L292.54084999999975 291.2727000000001L294.27734999999984 295.2011500000003L296.4193499999993 295.1590500000003L301.3158500000003 300.97064999999986L299.1548499999993 304.1523000000001L299.3753499999997 309.56545000000006L298.8838500000003 313.69485L288.39084999999955 323.47109999999986L289.44484999999986 325.26670000000024L298.4333499999997 327.33949999999993L298.81384999999966 329.18004999999994L320.82785 331.8986000000001L326.4133499999997 325.72100000000034L332.1508499999999 314.58950000000016L335.68934999999954 312.51165000000015L330.35834999999963 309.69550000000027L325.3268499999996 303.39920000000006L337.2398500000003 302.57360000000006L350.2613500000001 295.89935000000025L350.4588499999994 291.7795000000001L347.4533500000001 286.07785000000035L349.31385000000034 282.2890000000001L352.8543499999995 280.3615500000001L356.7913500000003 281.67914999999994L366.95334999999943 279.75975000000005L372.6338500000003 278.29890000000034L374.69784999999945 270.99175L380.23684999999944 276.41835000000015L386.11785 276.1865L398.30885000000023 277.92700000000025L399.10834999999963 289.02175L401.92835 292.1295500000002L406.2643499999996 292.51800000000003L409.31284999999946 294.7216500000002L406.92285000000027 303.57140000000015L406.5733499999993 304.09410000000037L409.70484999999996 306.51620000000037L409.52084999999954 310.17105000000015L414.1138499999994 321.1146000000002L418.30134999999984 326.1889000000002L421.5063500000002 333.05454999999995L421.0613499999994 338.8020499999999L422.6198500000004 339.98744999999985L423.38585000000023 341.3850000000002L420.9583500000002 342.7837499999998L420.0213500000001 345.9676000000002L402.66384999999957 341.9510500000001L399.7268500000001 346.70060000000035L400.6763499999994 352.3282499999999L400.75485000000015 352.55274999999983L398.63485000000026 365.74205000000006L396.6563500000001 365.3185500000001L395.73834999999974 367.1316999999999L393.67684999999994 376.36525000000006L383.2678500000003 375.5272500000001L381.57984999999996 376.7749500000002L383.96334999999965 387.79499999999985L387.2433499999994 389.41665L386.5423500000003 394.6820500000001L382.3763500000001 399.40184999999985L378.1268499999993 400.1040499999999L374.3503500000003 405.1368000000002L364.3538499999994 408.7679000000003L366.14134999999976 411.2868000000003L377.66434999999944 416.1869999999999L390.01734999999996 417.0049L387.92335000000037 429.26435000000026L391.8188500000002 430.91295L390.4078499999997 434.79120000000023L385.0653499999993 441.0209000000003L383.05135000000007 441.7814500000003L379.22984999999983 439.8076000000003L378.2698499999998 446.00495000000024L381.01335000000006 453.9386999999999L380.3833500000002 461.95505000000026L375.61684999999954 466.42690000000016L365.66935 462.5018L364.5753499999995 460.6328000000002L364.2733500000003 464.9624499999999L356.4783499999993 474.75205000000017L355.7578499999994 479.0281500000003L350.97185000000025 483.3677499999999L351.5378500000003 491.7268999999999L347.85334999999975 493.6723999999998L334.9233499999997 484.26345000000026L329.2233500000003 493.25919999999996L320.7653499999998 499.55445L328.6853500000001 511.86935000000005L328.64035 518.1870000000004L330.9193499999998 521.7690500000003L336.7258499999997 523.8623000000001L344.83135000000004 521.93085L341.8098500000002 528.6588L340.73334999999986 532.6222999999999L332.7893499999999 532.82285L333.33235 534.86625L329.78985000000023 540.0430499999999L328.7728499999997 546.0559499999999L329.07534999999996 550.8124000000004L325.33934999999985 562.4276500000002L324.1843499999999 563.5031500000002L326.75035000000037 568.8114000000002L324.46034999999995 576.0921000000002L325.2518500000002 579.7072500000002L325.39484999999956 583.8256999999999L319.5948500000003 586.0195500000003L314.7428499999995 592.7433000000002L319.05434999999954 599.6916500000003L317.9103500000002 601.4798999999999L312.68485 602.4946499999999L307.64084999999966 599.6824500000002L302.6513499999993 603.0691999999999L299.14034999999956 601.1355500000002L294.79134999999985 609.47655L292.84535000000005 609.5434499999999L289.03684999999996 607.6230500000003L283.68634999999983 610.6966499999999L280.35034999999993 618.3677499999999L267.9228499999999 617.7535499999999L265.99684999999965 612.0528999999999L268.01535 611.9080500000001L271.6288499999996 607.1013500000004L270.02835000000005 601.3491500000003L264.59734999999966 599.0894000000003L256.6118499999999 605.1396499999998L255.93834999999956 605.59325L253.6283499999996 601.0078500000003L247.9573499999998 595.2417500000001L240.73784999999987 598.83645L238.91084999999975 597.9247500000002L238.87734999999964 604.2207500000001L239.68534999999974 606.2064500000002L236.02184999999963 608.0146000000002L221.2268499999999 606.5968000000004L217.19985000000008 605.7866000000001L217.00684999999964 605.7841500000001L216.68334999999956 603.7395000000004L204.44334999999967 592.8176000000002L195.8328499999999 597.2868499999998L189.02334999999994 599.9973499999999L185.8023499999996 598.9476000000002L181.49234999999976 603.5664000000003L173.55249999999955 609.0665999999999L171.99649999999963 610.5272500000001L167.98249999999996 609.0383500000002L155.43799999999976 610.3652499999998L148.19950000000006 598.2022499999999L148.65549999999985 592.0260999999999L145.5095 590.1016500000003L133.20299999999975 588.0560500000001L125.08249999999975 589.47585L121.83149999999955 586.9936000000001L113.61850000000004 582.96155L116.7534999999998 575.3579500000001L116.70349999999985 569.0663999999998L120.9594999999996 564.9037500000003L121.53549999999996 554.6153500000003L119.41699999999969 546.38555L117.61449999999968 545.2135500000003L114.67899999999986 539.71405L118.65099999999984 534.6084999999999L131.25650000000007 532.7219500000001L138.15249999999992 528.1401499999998L138.15049999999985 526.9485000000003L138.6439999999999 518.4989999999999L147.18899999999962 517.6663500000001L153.39399999999955 519.3341000000004L162.25649999999973 513.4936500000003L157.91499999999985 513.3829000000003L154.21599999999955 512.7489500000001L154.9539999999996 499.16470000000004L156.7194999999998 487.05205000000035L152.6079999999996 477.9690499999998L150.77999999999975 470.1383500000003L155.20899999999983 464.1106000000002L153.7824999999998 458.6693500000001L153.56349999999964 456.7070000000001L158.3204999999998 453.3517499999999L155.76149999999984 446.02284999999995L161.45749999999964 443.8569000000001L162.1414999999996 441.87704999999994L159.26449999999988 436.4192000000003L160.9684999999996 432.5961000000001L159.77049999999963 428.8028000000003L151.4259999999996 423.2021500000002L149.40799999999967 419.75340000000017L145.50099999999986 420.7224000000002L140.0279999999998 420.2329500000002L142.52049999999997 412.94870000000003L132.37099999999998 412.73754999999994L124.8214999999999 409.5464500000003L119.06599999999969 412.2486500000002L117.29849999999999 416.14750000000015L114.65149999999994 418.94115L103.04849999999988 413.5308500000002L100.98799999999983 409.87799999999993L102.43899999999996 399.3123000000003L98.74750000000006 397.68125L94.78499999999997 399.15110000000027L94.45299999999975 399.05910000000006L92.36499999999978 395.7437500000003L94.98549999999966 392.3126000000002L91.04249999999979 387.61955L80.30349999999999 394.42695000000015L76.49399999999957 395.0001000000003L72.94350000000009 390.2525000000003L67.0939999999996 389.62114999999983L65.85699999999974 385.7037500000001L62.6664999999997 383.07975L56.51549999999986 384.8115999999999L50.595500000000015 382.7133500000002L46.69899999999984 377.64635L47.374999999999545 373.55695000000026L50.23799999999994 369.9380500000001L49.99599999999987 360.22730000000024L49.392499999999586 355.3219999999999L47.496999999999616 343.0015000000003z">
      <title id="t367">Deuxième circonscription de Saône-et-Loire</title>
      <desc id="d367">Cantons de : Bourbon-Lancy, Charolles, Chauffailles, La Clayette, Digoin, Gueugnon, La Guiche, Marcigny, Mont-Saint-Vincent, Palinges, Paray-le-Monial, Saint-Bonnet-de-Joux, Semur-en-Brionnais, Toulon-sur-Arroux</desc>
    </path><path class="circo" id="id-071-03" d="M309.79885000000024 170.15510000000006L305.2638499999995 179.2374000000001L308.1003500000003 181.41869999999983L293.3388500000001 183.9231000000001L282.9123499999997 181.75810000000013L281.1038500000001 182.47855000000015L281.16535 188.30044999999984L279.3473499999999 191.71224999999993L280.8283499999999 195.32870000000003L279.8663499999998 206.87635L284.53485 220.79369999999983L273.68134999999995 228.5723999999999L275.45984999999973 231.99369999999988L276.30034999999964 243.12790000000007L267.53985 249.4516500000003L270.3418499999998 261.6218500000002L266.45234999999957 269.2819000000003L266.19534999999985 273.5880000000003L257.66684999999995 279.56574999999987L257.40184999999997 283.70814999999993L253.90034999999955 284.94815000000017L250.77934999999968 291.16055000000017L247.0783499999999 291.2993499999999L244.91484999999955 291.31110000000035L244.03284999999983 289.32780000000037L244.13234999999986 280.8920499999999L242.02984999999956 277.1541000000002L235.8033499999999 277.9251500000004L233.69685000000004 278.15634999999986L228.69334999999978 274.45955000000026L227.62184999999988 268.2303999999999L223.3283499999999 263.7952999999999L219.80384999999956 265.38575000000037L217.61334999999974 273.3766000000003L217.08484999999996 277.65615000000025L211.2283500000001 280.2568000000002L208.04734999999994 282.9464999999999L209.57134999999994 286.88525000000027L208.20085000000006 292.98640000000034L203.28734999999995 299.6228500000001L195.41834999999992 302.13509999999985L190.03434999999968 298.98795000000007L177.67884999999978 296.9091000000003L152.1664999999996 307.29030000000023L150.93249999999955 311.35125000000016L149.21400000000006 314.5969500000001L144.58300000000008 308.3009500000003L139.43249999999978 311.3271000000003L136.56499999999994 316.918L135.8404999999999 323.1418000000002L129.88149999999962 324.7932000000003L124.5580000000001 318.6439999999999L120.59199999999976 318.01255000000026L113.8009999999997 327.92370000000005L102.8974999999997 326.23595000000023L98.76749999999959 320.27705000000026L101.50249999999971 315.0328000000002L103.03449999999998 303.50760000000037L99.07999999999959 302.6442000000003L97.31949999999983 298.84360000000015L88.67599999999982 293.3010999999999L86.59599999999955 281.0544500000003L91.14350000000002 277.1231L94.40449999999998 269.79525000000024L98.05250000000001 267.97000000000025L105.97199999999987 266.94574999999986L107.76449999999954 263.42015000000004L113.21849999999984 265.92705000000024L115.96949999999993 262.8539999999998L129.81650000000002 257.7707000000004L132.01099999999997 251.98255000000017L140.27299999999968 249.73580000000027L144.68249999999955 242.48199999999997L146.1764999999997 242.81890000000033L146.9354999999996 240.85570000000018L160.22400000000005 235.23840000000007L168.44949999999983 235.41094999999984L176.68184999999994 229.56119999999999L180.07784999999956 234.83190000000036L183.81584999999973 235.2557999999999L186.72235 230.3600499999999L186.66184999999984 226.5413000000001L185.15285000000006 211.4755500000001L184.5673499999998 207.6925L179.84285 201.9969500000002L178.63534999999956 200.52650000000028L180.8793499999996 197.82640000000015L198.95834999999977 185.77840000000037L203.1913499999996 184.6789000000001L200.7898499999999 176.41130000000032L192.1813499999996 164.29335000000037L189.3028499999997 161.2245999999999L179.30585000000008 158.52505000000008L176.06734999999958 147.0035999999999L175.93809999999962 142.83860000000004L178.70984999999962 139.78220000000022L179.46634999999958 135.76819999999998L177.21734999999967 130.02610000000004L182.01584999999966 125.95865000000003L183.20234999999968 122.04945000000009L176.09984999999995 106.53205000000014L172.09149999999966 107.75815000000023L166.16199999999992 114.00855000000035L164.01749999999993 114.27824999999984L158.22949999999992 111.69764999999984L158.61299999999972 105.2517499999999L160.6329999999997 105.58570000000032L175.86209999999994 95.70055000000025L184.67985 87.15840000000014L186.10334999999964 83.19164999999998L185.27535 76.92670000000021L184.83484999999973 72.60265000000004L190.54584999999975 60.92475000000036L182.20235000000002 50.789800000000014L176.82635000000005 47.26249999999993L177.44235000000003 43.02194999999983L182.07884999999976 38.576100000000224L180.9928500000001 28.341350000000034L183.6868499999997 25.110149999999862L185.97534999999993 21.665649999999914L198.47334999999987 23.973500000000172L200.61834999999974 20.493900000000167L199.71434999999985 18.551899999999932L201.82684999999992 18.260799999999904L208.75684999999976 22.66065000000026L209.60084999999992 20.040400000000318L214.01835000000005 15.722099999999841L218.76334999999983 22.280900000000088L224.07134999999982 25.844600000000355L228.39384999999993 21.217849999999885L231.56184999999994 23.834850000000074L234.98434999999972 24.44250000000011L234.46334999999976 20.23345000000006L239.60534999999993 13.07754999999986L240.32684999999958 6.466350000000034L237.62384999999995 3.061150000000339L239.40134999999998 1.985000000000241L242.89034999999956 4.22664999999995L249.4953499999997 0L251.40184999999974 0.7949999999999591L251.82084999999972 4.920349999999871L253.5253499999999 6.088900000000308L259.6293499999996 6.70189999999991L263.1248499999998 4.489149999999995L263.5818499999999 13.970350000000167L267.26785000000007 14.934949999999958L270.69984999999974 25.866450000000327L277.88134999999954 29.6258499999999L287.3118499999998 27.09235000000035L288.6918499999996 30.106650000000172L291.96784999999977 32.32585000000029L306.17384999999956 33.414149999999836L308.80634999999927 36.517200000000116L306.6238500000003 51.82385000000011L312.2643499999998 57.71355000000028L314.33134999999936 57.05219999999997L317.6953499999996 49.07550000000015L320.85984999999994 46.225200000000086L331.5368499999994 45.677800000000275L337.18384999999955 48.83084999999994L333.2768500000003 53.67155000000025L331.7043499999994 61.84055000000001L332.98834999999997 65.81795L341.9123499999995 71.79750000000013L354.7298499999994 71.95899999999995L360.7483499999995 77.98425000000009L368.4173500000003 77.03894999999989L372.3273499999999 81.04939999999999L372.3433499999993 84.63115000000016L375.0078500000001 86.96700000000021L377.9808499999996 89.51090000000022L384.33335 89.42549999999983L396.11384999999984 84.49150000000031L396.94384999999954 92.6473500000003L393.08685000000025 99.90634999999997L396.07834999999966 102.82125000000008L400.13035 101.85235000000034L401.7813499999994 102.65924999999982L401.61085000000014 107.87959999999998L404.12634999999966 113.57320000000016L411.9263499999994 117.20185000000015L410.90584999999976 123.47915L413.53884999999934 126.78985000000011L420.9053499999999 128.7286499999999L422.76284999999973 131.91804999999988L421.40984999999944 133.31934999999987L427.84134999999935 134.7243000000003L436.51185 133.5147999999998L437.5568500000003 135.11210000000005L448.6563499999994 140.31870000000026L449.04285000000016 142.37310000000036L445.04785000000027 146.3564500000001L443.46285000000023 151.5843000000001L451.5398499999998 158.65880000000004L463.4303499999993 155.2517499999999L466.4408499999996 150.85759999999993L465.69384999999954 146.94135000000017L468.7178499999999 145.81940000000031L469.77734999999996 147.1983499999999L476.6558500000002 144.04965000000004L481.42334999999946 148.4988500000003L487.9498499999994 148.17960000000028L491.5398499999998 147.5045L496.42584999999997 143.39495L495.56534999999997 139.1996499999999L502.9713499999997 138.6065000000002L504.02485000000013 140.19485000000032L507.19334999999944 138.72600000000034L507.3673500000001 136.97015000000022L530.3993499999996 129.27405000000022L539.8838499999994 127.20205000000021L538.9948499999997 123.47354999999993L541.3038499999999 118.0893500000002L549.0948499999996 117.07730000000026L564.9653499999994 118.8080500000001L566.2968499999994 119.91780000000006L587.20035 123.08499999999981L587.7263499999998 122.4031500000001L584.1448499999996 121.20749999999987L586.7733500000003 114.34680000000014L593.1278500000002 114.25085000000024L597.6548499999996 109.57094999999981L606.2798500000002 108.46460000000036L609.5583500000004 112.30934999999988L613.3478499999995 117.54130000000032L615.42035 117.4105000000003L617.1778499999999 121.18695000000002L627.1878499999997 123.63985000000014L628.2933499999996 125.38515000000018L626.7778500000003 131.32290000000012L629.1843499999999 128.88620000000003L630.3788500000002 123.70270000000005L636.4008499999994 119.92155000000025L646.12235 120.2073999999999L649.26985 117.94300000000021L655.2953499999995 119.27450000000022L662.5338500000004 112.67560000000003L667.2948500000001 114.83884999999987L670.97285 107.45659999999987L672.7373499999993 106.76570000000027L675.5123499999996 109.36289999999985L673.7903499999999 113.14090000000022L678.0383499999999 122.61175000000037L677.4028500000003 126.7381499999999L682.39035 129.6886999999998L684.5208499999995 139.5718499999998L681.5063500000002 142.2505000000001L677.9198500000001 141.80180000000007L680.0268499999999 147.16909999999984L673.7823499999996 152.3004000000003L666.6863499999994 144.49704999999994L665.9223500000002 138.37120000000027L656.6803499999997 143.41800000000035L652.4093499999998 143.49699999999984L648.8093499999997 151.18859999999984L649.2258499999997 155.17335000000003L650.0543499999998 159.00590000000022L643.9583499999998 169.04020000000003L644.4988499999994 172.60559999999998L650.4528499999998 173.10985000000016L645.3803499999998 186.24145L622.8888499999999 183.78944999999987L616.9008500000001 181.6549500000002L613.0903499999994 188.23334999999986L616.1383499999994 194.7781500000002L609.6633500000002 197.5126499999999L606.5853499999997 189.4906000000003L599.2773499999993 179.2076000000003L595.0543499999998 179.56315000000018L589.4113499999997 176.49024999999995L584.9633499999999 174.0195L579.0453499999995 186.75295000000006L573.47735 184.46320000000014L569.7538500000002 186.3067000000001L570.0798500000002 193.64170000000001L568.9068500000002 197.52445000000023L564.6608499999996 201.88390000000027L562.1643499999999 198.37505000000021L560.8328499999999 190.1102000000003L550.84585 186.66345000000035L544.6968499999997 188.04755L538.1133499999993 182.63270000000034L532.3003499999999 173.59669999999994L528.6293499999994 171.35955000000024L524.93585 173.42759999999998L524.6608499999996 183.9697000000001L521.5613500000001 189.56144999999992L519.4333499999999 189.41599999999994L513.4418499999998 187.20540000000028L510.99684999999965 181.20364999999993L510.46535000000006 189.00585000000035L504.7133500000001 190.7030500000002L504.9458499999997 192.7288500000003L501.0668500000003 192.56664999999998L498.2118499999996 195.21560000000022L499.6198499999997 200.7594499999999L498.76484999999946 206.73720000000003L502.3373499999997 209.50424999999996L499.1563500000001 212.08849999999984L497.6163500000001 210.66070000000025L496.7753499999998 212.5878499999999L496.57784999999933 218.85280000000023L499.0093499999995 222.00564999999983L499.34635000000014 224.11029999999982L493.8718499999999 230.58850000000007L496.22784999999965 236.0694000000001L492.7248500000002 240.69560000000024L494.08435 244.63805000000036L495.9633500000001 245.5302499999999L497.18834999999956 243.84825000000035L503.65335000000016 248.81830000000036L497.68284999999935 254.48039999999992L494.0443499999998 254.57654999999988L491.11534999999947 257.0463000000001L491.93285000000003 262.80065000000036L485.41935000000024 270.0197000000003L489.0813499999996 274.7694999999999L485.5528499999997 274.5228000000003L475.57735000000037 269.83370000000036L476.9543500000003 264.68259999999987L461.83235000000025 262.7424000000002L454.87034999999935 258.20730000000026L456.4488499999999 254.16409999999985L455.0188499999996 243.97605L441.8443499999995 243.22035000000028L442.6138499999996 241.32540000000006L437.86234999999976 234.91570000000024L428.4723500000001 236.06690000000015L425.37184999999965 237.28819999999985L421.14935 230.18624999999986L399.9303500000002 239.18150000000026L396.25084999999956 230.5295000000001L391.5483499999999 233.37095000000033L389.8983500000003 232.55665000000022L388.1218499999994 231.63310000000024L382.04485000000034 236.75205000000005L379.04285000000016 237.5879500000002L364.5078499999994 240.59754999999996L352.06285000000037 229.07579999999996L350.40985000000035 227.7487000000002L340.2593499999995 229.4420500000001L332.3798500000004 225.7168999999999L327.8033499999998 221.0290500000002L326.49235000000033 216.9801000000001L329.4598500000001 205.82474999999988L325.50985000000026 204.9768499999999L324.71835 203.05555000000027L326.36284999999987 197.03675000000032L335.19634999999937 188.97355000000005L328.8343500000002 183.39785000000006L326.90035000000023 175.34690000000012L320.80535 174.07545000000027L314.4398499999994 165.82820000000027L309.79885000000024 170.15510000000006z">
      <title id="t368">Troisième circonscription de Saône-et-Loire</title>
      <desc id="d368">Cantons de : Autun Nord, Autun Sud, Chagny, Couches, Le Creusot Est, Le Creusot Ouest, Epinac, Givry, Issy-l'Evêque, Lucenay-l'Evêque, Mesvres, Saint-Léger-sous-Beuvray, Verdun-sur-le-Doubs</desc>
    </path><path class="circo" id="id-071-04" d="M679.7658499999994 103.9784000000003L675.5468500000001 109.2909000000003L673.8278499999996 113.1971500000003L678.0468500000001 122.5721500000003L677.4218500000001 126.7909000000003L682.4218500000001 129.7596500000003L684.4528499999996 139.6034000000003L681.4843500000001 142.2596500000003L677.8908499999994 141.7909000000003L680.0778499999996 147.1034000000003L673.8278499999996 152.2596500000003L666.6408499999994 144.4471500000003L665.8593500000001 138.3534000000003L656.6408499999994 143.3534000000003L652.4218500000001 143.5096500000003L648.8278499999996 151.1659000000003L649.2968500000001 155.2284000000003L650.0778499999996 158.9784000000003L643.9843500000001 168.9784000000003L644.4528499999996 172.5721500000003L650.3908499999994 173.0409000000003L645.3908499999994 186.1659000000003L622.8908499999994 183.8221500000003L616.9528499999996 181.6346500000003L613.0468500000001 188.1971500000003L616.1718500000001 194.7596500000003L609.6093500000001 197.5721500000003L606.6408499999994 189.4471500000003L599.2968500000001 179.1346500000003L595.0778499999996 179.6034000000003L589.4528499999996 176.4784000000003L584.9218500000001 173.9784000000003L578.9843500000001 186.7909000000003L573.5158499999994 184.4471500000003L569.7658499999994 186.3221500000003L570.0778499999996 193.6659000000003L568.9843500000001 197.5721500000003L564.6093500000001 201.9471500000003L562.1093500000001 198.3534000000003L560.8593500000001 190.0721500000003L550.8593500000001 186.6346500000003L544.7658499999994 188.0409000000003L538.0468500000001 182.5721500000003L532.2658499999994 173.6659000000003L528.6718500000001 171.3221500000003L524.9218500000001 173.3534000000003L524.6093500000001 183.9784000000003L521.4843500000001 189.6034000000003L519.4528499999996 189.4471500000003L513.5158499999994 187.2596500000003L511.01584999999943 181.1659000000003L510.39084999999943 188.9784000000003L504.76584999999943 190.6971500000003L504.92185000000006 192.7284000000003L501.01584999999943 192.5721500000003L498.20284999999956 195.2284000000003L499.60935000000006 200.6971500000003L498.82784999999956 206.7909000000003L502.26584999999943 209.4471500000003L499.14084999999943 212.1034000000003L502.10935000000006 215.2284000000003L513.6718500000001 221.0096500000003L515.7028499999996 217.5721500000003L519.2968500000001 217.7284000000003L520.3908499999994 222.2596500000003L523.0468500000001 218.1971500000003L524.6093500000001 222.1034000000003L526.3278499999996 219.2909000000003L526.9528499999996 227.1034000000003L529.9218500000001 230.8534000000003L535.2343500000001 226.4784000000003L534.7658499999994 222.8846500000003L539.2968500000001 219.7596500000003L546.1718500000001 223.3534000000003L551.9528499999996 216.7909000000003L553.6718500000001 220.6971500000003L563.5158499999994 228.1971500000003L563.3593500000001 230.2284000000003L567.4218500000001 234.4471500000003L571.1718500000001 235.2284000000003L570.3908499999994 243.1971500000003L566.4843500000001 248.8221500000003L560.5468500000001 248.8221500000003L553.3593500000001 252.8846500000003L553.6718500000001 265.5409000000003L546.6408499999994 269.4471500000003L553.9843500000001 274.7596500000003L557.1093500000001 277.4159000000003L560.8593500000001 286.9471500000003L561.4843500000001 291.0096500000003L557.1093500000001 292.1034000000003L543.8278499999996 285.0721500000003L539.9218500000001 284.9159000000003L532.1093500000001 291.4784000000003L529.4528499999996 285.5409000000003L523.3593500000001 283.8221500000003L517.5778499999996 285.5409000000003L507.10935000000006 282.8846500000003L506.17185000000006 284.6034000000003L502.57784999999956 289.6034000000003L498.67185000000006 291.0096500000003L496.64084999999943 294.7596500000003L491.01584999999943 297.2596500000003L487.57784999999956 299.4471500000003L485.54685000000006 298.8221500000003L486.79685000000006 302.7284000000003L492.57784999999956 313.5096500000003L491.64084999999943 316.9471500000003L489.60935000000006 316.7909000000003L487.42185000000006 320.3846500000003L472.26584999999943 330.2284000000003L468.51584999999943 335.0721500000003L461.48435000000006 339.2909000000003L462.26584999999943 341.1659000000003L460.85935000000006 350.8534000000003L458.82784999999956 354.2909000000003L464.76584999999943 359.4471500000003L469.60935000000006 360.3846500000003L477.73435000000006 366.1659000000003L480.54685000000006 363.0409000000003L486.17185000000006 367.1034000000003L488.20284999999956 369.9159000000003L484.92185000000006 378.8221500000003L482.73435000000006 381.3221500000003L484.60935000000006 384.4471500000003L493.98435000000006 388.5096500000003L493.20284999999956 396.6346500000003L503.51584999999943 396.7909000000003L506.79685000000006 395.6971500000003L510.23435000000006 391.0096500000003L511.64084999999943 396.7909000000003L513.6718500000001 396.7909000000003L517.2658499999994 398.5096500000003L526.0158499999994 394.9159000000003L530.8593500000001 397.2596500000003L528.9843500000001 404.9159000000003L517.5778499999996 407.5721500000003L520.2343500000001 411.4784000000003L521.4843500000001 409.7596500000003L534.9218500000001 415.8534000000003L539.1408499999994 415.5409000000003L548.9843500000001 419.4471500000003L548.9843500000001 418.6659000000003L549.2968500000001 414.4471500000003L554.2968500000001 407.5721500000003L555.3908499999994 404.6034000000003L557.1093500000001 399.4471500000003L557.8908499999994 398.3534000000003L562.8908499999994 398.6659000000003L562.7343500000001 402.7284000000003L565.7028499999996 404.6034000000003L569.4528499999996 403.0409000000003L572.7343500000001 398.3534000000003L576.9528499999996 397.7284000000003L588.0468500000001 401.1659000000003L589.7658499999994 400.2284000000003L591.3278499999996 406.7909000000003L608.6718500000001 416.7909000000003L615.7028499999996 415.8534000000003L625.8593500000001 408.6659000000003L633.3593500000001 411.3221500000003L642.2658499999994 406.3221500000003L643.3593500000001 402.2596500000003L645.2343500000001 401.7909000000003L655.0778499999996 404.1346500000003L655.8593500000001 396.1659000000003L660.7028499999996 400.0721500000003L670.8593500000001 402.2596500000003L671.7968500000001 404.1346500000003L670.5468500000001 405.5409000000003L674.2968500000001 411.9471500000003L673.2028499999996 415.6971500000003L675.8593500000001 418.5096500000003L676.7968500000001 426.6346500000003L680.8593500000001 426.6346500000003L685.7028499999996 433.1971500000003L690.7028499999996 432.2596500000003L694.2968500000001 436.7909000000003L701.6408499999994 438.8221500000003L717.2658499999994 439.9159000000003L718.5158499999994 436.4784000000003L722.1093500000001 435.8534000000003L722.7343500000001 433.9784000000003L722.7343500000001 430.2284000000003L744.1408499999994 431.4784000000003L745.2343500000001 429.9159000000003L749.1408499999994 425.3846500000003L754.4528499999996 427.7284000000003L761.1718500000001 424.4471500000003L763.8278499999996 419.4471500000003L763.6718500000001 418.6659000000003L764.2968500000001 406.7909000000003L758.6718500000001 406.7909000000003L752.2658499999994 402.1034000000003L750.0778499999996 398.6659000000003L738.0468500000001 394.7596500000003L738.0468500000001 392.5721500000003L738.3593500000001 392.1034000000003L739.4528499999996 375.2284000000003L737.2658499999994 369.7596500000003L741.6408499999994 365.8534000000003L739.2968500000001 359.4471500000003L744.9218500000001 357.5721500000003L757.7343500000001 356.6346500000003L760.3908499999994 346.3221500000003L754.7658499999994 337.4159000000003L761.1718500000001 336.3221500000003L769.6093500000001 328.1971500000003L772.5778499999996 321.9471500000003L761.6408499999994 311.7909000000003L766.7968500000001 308.0409000000003L765.8593500000001 307.4159000000003L764.7658499999994 300.0721500000003L753.3593500000001 292.7284000000003L758.8278499999996 284.4471500000003L758.2028499999996 281.0096500000003L753.5158499999994 277.5721500000003L753.5158499999994 273.8221500000003L751.4843500000001 267.1034000000003L752.5778499999996 265.6971500000003L739.1408499999994 262.8846500000003L741.1718500000001 251.0096500000003L743.2028499999996 251.4784000000003L748.8278499999996 245.2284000000003L751.1718500000001 239.6034000000003L748.3593500000001 236.6346500000003L744.1408499999994 235.6971500000003L742.8908499999994 231.6346500000003L736.1718500000001 226.9471500000003L730.5468500000001 227.1034000000003L726.6408499999994 222.8846500000003L724.9218500000001 213.3534000000003L728.0468500000001 208.5096500000003L731.9528499999996 208.3534000000003L734.6093500000001 211.4784000000003L744.7658499999994 204.6034000000003L747.7343500000001 204.1346500000003L759.6093500000001 201.1659000000003L762.4218500000001 204.7596500000003L782.2658499999994 203.6659000000003L780.5468500000001 202.2596500000003L782.5778499999996 196.4784000000003L779.9218500000001 193.3534000000003L780.5468500000001 187.1034000000003L774.6093500000001 184.4471500000003L772.7343500000001 184.6034000000003L773.3593500000001 187.5721500000003L768.5158499999994 183.8221500000003L766.0158499999994 184.1346500000003L761.7968500000001 183.0409000000003L757.1093500000001 178.5096500000003L755.5468500000001 169.9159000000003L756.9528499999996 165.6971500000003L751.7968500000001 162.8846500000003L748.0468500000001 164.4471500000003L745.8593500000001 165.5409000000003L738.5158499999994 168.9784000000003L734.4528499999996 164.1346500000003L730.3908499999994 165.3846500000003L727.8908499999994 168.8221500000003L725.0778499999996 165.8534000000003L724.1408499999994 159.9159000000003L717.8908499999994 151.9471500000003L717.1093500000001 146.0096500000003L716.0158499999994 136.6346500000003L709.6093500000001 133.9784000000003L705.7028499999996 134.7596500000003L700.5468500000001 141.0096500000003L696.6408499999994 142.2596500000003L697.1093500000001 136.0096500000003L692.4218500000001 131.6346500000003L693.3593500000001 129.7596500000003L695.5468500000001 129.7596500000003L697.1093500000001 126.0096500000003L693.8278499999996 109.4471500000003L679.7658499999994 103.9784000000003z">
      <title id="t369">Quatrième circonscription de Saône-et-Loire</title>
      <desc id="d369">Cantons de : Beaurepaire-en-Bresse, Chalon-sur-Saône Nord, Cuiseaux, Cuisery, Louhans, Montpont-en-Bresse, Montret, Pierre-de-Bresse, Saint-Germain-du-Bois, Saint-Germain-du-Plain, Saint-Martin-en-Bresse, Sennecey-le-Grand, Tournus</desc>
    </path><path class="circo" id="id-071-05" d="M454.87034999999935 258.20730000000026L461.83235000000025 262.7424000000002L476.9543500000003 264.68259999999987L475.57735000000037 269.83370000000036L485.5528499999997 274.5228000000003L489.0813499999996 274.7694999999999L485.41935000000024 270.0197000000003L491.93285000000003 262.80065000000036L491.11534999999947 257.0463000000001L494.0443499999998 254.57654999999988L497.68284999999935 254.48039999999992L503.65335000000016 248.81830000000036L497.18834999999956 243.84825000000035L495.9633500000001 245.5302499999999L494.08435 244.63805000000036L492.7248500000002 240.69560000000024L496.22784999999965 236.0694000000001L493.8718499999999 230.58850000000007L499.34635000000014 224.11029999999982L499.0093499999995 222.00564999999983L496.57784999999933 218.85280000000023L496.7753499999998 212.5878499999999L497.6163500000001 210.66070000000025L499.1563500000001 212.08849999999984L502.1108499999997 215.2935500000001L513.66285 221.0743500000001L515.6923499999999 217.61419999999987L519.3338499999999 217.74460000000033L520.3483499999999 222.2524500000003L523.0363499999993 218.14855000000023L524.66835 222.1333500000003L526.2713500000001 219.32659999999998L526.9253499999996 227.09879999999998L529.9848500000002 230.8969000000002L535.1723499999997 226.51895000000025L534.8288499999995 222.92700000000025L539.3353499999995 219.76364999999987L546.1098499999997 223.39945L551.9658499999997 216.8372499999998L553.7238499999995 220.66084999999987L563.5393500000004 228.17080000000033L563.3043500000002 230.2613500000001L567.4203499999993 234.41110000000037L571.2368499999997 235.30545000000018L570.3963500000003 243.14835000000016L566.5583499999997 248.77485000000036L560.59685 248.85055000000023L553.3683500000001 252.9415499999999L553.6188499999997 265.5265000000003L546.5838500000001 269.3867L553.9328499999993 274.8147499999999L557.1598499999999 277.37225000000024L560.92735 286.8988999999999L561.4308499999999 291.07444999999984L557.1448500000002 292.10170000000005L543.8653500000004 284.99709999999993L539.8728499999999 284.9122L532.0883499999997 291.5286000000003L529.5198499999998 285.5579499999999L523.31435 283.75339999999994L517.50835 285.56475000000034L507.0363500000002 282.94960000000003L506.23734999999954 284.5664500000004L502.52935000000036 289.5706999999999L498.62934999999936 291.0441000000003L496.7098500000003 294.7613000000001L491.0803500000003 297.25599999999986L487.53334999999936 299.44075L485.5293499999999 298.7823000000003L486.74135000000035 302.80399999999986L492.5673499999999 313.49860000000035L491.6673499999996 316.91865000000007L489.5683500000001 316.8437L487.4613500000004 320.33090000000016L472.2903500000001 330.16650000000027L468.5378499999996 335.11135000000024L461.51985000000025 339.3323000000004L462.1903500000002 341.1913500000003L460.8603499999998 350.87305000000015L458.79734999999926 354.3424500000003L455.1933500000001 352.30970000000013L446.90684999999974 345.85500000000025L447.9018500000001 337.67420000000016L449.78384999999946 329.09895000000006L444.96685000000014 324.88789999999995L439.7663499999993 327.2361000000001L436.7768499999994 324.8433499999999L433.60134999999957 326.56645000000026L433.74934999999994 330.42640000000006L431.04385000000036 335.5309L426.6273499999994 339.3396999999999L422.6198500000004 339.98744999999985L421.0613499999994 338.8020499999999L421.5063500000002 333.05454999999995L418.30134999999984 326.1889000000002L414.1138499999994 321.1146000000002L409.52084999999954 310.17105000000015L409.70484999999996 306.51620000000037L406.5733499999993 304.09410000000037L406.92285000000027 303.57140000000015L409.31284999999946 294.7216500000002L406.2643499999996 292.51800000000003L401.92835 292.1295500000002L399.10834999999963 289.02175L398.30885000000023 277.92700000000025L386.11785 276.1865L380.23684999999944 276.41835000000015L374.69784999999945 270.99175L372.6338500000003 278.29890000000034L366.95334999999943 279.75975000000005L356.7913500000003 281.67914999999994L352.8543499999995 280.3615500000001L349.31385000000034 282.2890000000001L347.4533500000001 286.07785000000035L350.4588499999994 291.7795000000001L350.2613500000001 295.89935000000025L337.2398500000003 302.57360000000006L325.3268499999996 303.39920000000006L330.35834999999963 309.69550000000027L335.68934999999954 312.51165000000015L332.1508499999999 314.58950000000016L326.4133499999997 325.72100000000034L320.82785 331.8986000000001L298.81384999999966 329.18004999999994L298.4333499999997 327.33949999999993L289.44484999999986 325.26670000000024L288.39084999999955 323.47109999999986L298.8838500000003 313.69485L299.3753499999997 309.56545000000006L299.1548499999993 304.1523000000001L301.3158500000003 300.97064999999986L296.4193499999993 295.1590500000003L294.27734999999984 295.2011500000003L292.54084999999975 291.2727000000001L267.1983499999999 287.5904000000003L257.40184999999997 283.70814999999993L257.66684999999995 279.56574999999987L266.19534999999985 273.5880000000003L266.45234999999957 269.2819000000003L270.3418499999998 261.6218500000002L267.53985 249.4516500000003L276.30034999999964 243.12790000000007L275.45984999999973 231.99369999999988L273.68134999999995 228.5723999999999L284.53485 220.79369999999983L279.8663499999998 206.87635L280.8283499999999 195.32870000000003L279.3473499999999 191.71224999999993L281.16535 188.30044999999984L281.1038500000001 182.47855000000015L282.9123499999997 181.75810000000013L293.3388500000001 183.9231000000001L308.1003500000003 181.41869999999983L305.2638499999995 179.2374000000001L309.79885000000024 170.15510000000006L314.4398499999994 165.82820000000027L320.80535 174.07545000000027L326.90035000000023 175.34690000000012L328.8343500000002 183.39785000000006L335.19634999999937 188.97355000000005L326.36284999999987 197.03675000000032L324.71835 203.05555000000027L325.50985000000026 204.9768499999999L329.4598500000001 205.82474999999988L326.49235000000033 216.9801000000001L327.8033499999998 221.0290500000002L332.3798500000004 225.7168999999999L340.2593499999995 229.4420500000001L350.40985000000035 227.7487000000002L352.06285000000037 229.07579999999996L364.5078499999994 240.59754999999996L379.04285000000016 237.5879500000002L382.04485000000034 236.75205000000005L388.1218499999994 231.63310000000024L389.8983500000003 232.55665000000022L391.5483499999999 233.37095000000033L396.25084999999956 230.5295000000001L399.9303500000002 239.18150000000026L421.14935 230.18624999999986L425.37184999999965 237.28819999999985L428.4723500000001 236.06690000000015L437.86234999999976 234.91570000000024L442.6138499999996 241.32540000000006L441.8443499999995 243.22035000000028L455.0188499999996 243.97605L456.4488499999999 254.16409999999985L454.87034999999935 258.20730000000026z">
      <title id="t370">Cinquième circonscription de Saône-et-Loire</title>
      <desc id="d370">Cantons de : Buxy, Chalon-sur-Saône Centre, Chalon-sur-Saône Ouest, Chalon-sur-Saône Sud, Montceau-les-Mines Nord, Montceau-les-Mines Sud, Montcenis, Montchanin</desc>
    </path></svg>