<svg xmlns="http://www.w3.org/2000/svg" version="1.1" xmlns:xlink="http://www.w3.org/1999/xlink" xmlns:svgjs="http://svgjs.dev/svgjs" width="579.9560000000002" height="582.1694499999999" fill="#eeeeee" stroke="#cccccc" xmlns:sodipodi="http://sodipodi.sourceforge.net/DTD/sodipodi-0.dtd"><path class="circo" id="id-072-01" d="M272.2115000000002 138.66349999999983L276.7515000000003 141.5997999999999L276.58900000000017 145.4391000000001L274.7985 149.25564999999978L270.582 150.71600000000018L269.4830000000002 161.21234999999984L273.91200000000026 167.89524999999998L270.256 173.30374999999975L270.5030000000005 177.19989999999967L268.2045000000005 185.32560000000018L264.8330000000004 187.86885000000012L252.31400000000008 188.42349999999982L255.0165000000004 194.19759999999968L246.2865000000005 200.72399999999988L237.4830000000003 201.37275000000017L234.65700000000027 197.93644999999998L230.40300000000002 197.07154999999972L227.59150000000034 200.43469999999985L221.3005000000004 201.57479999999993L222.92700000000025 211.38844999999975L224.91000000000042 215.22655000000015L233.34400000000016 214.2551499999999L239.67150000000004 215.58900000000023L240.46350000000018 224.1509499999998L238.83500000000026 230.44279999999986L242.3535000000004 231.32845000000003L247.2075000000001 225.50989999999985L253.08050000000037 230.17539999999968L256.6900000000004 228.8236500000002L257.4740000000003 237.27389999999986L267.83000000000015 239.3948500000002L268.0505000000005 243.33535000000012L271.3715000000002 245.79579999999993L269.4905 246.71095000000008L268.53800000000035 250.78479999999985L262.84050000000036 252.9538999999997L264.5155 263.2394000000002L268.70900000000006 267.63045000000005L276.3145000000003 266.84375000000017L277.8905000000003 272.5138000000001L265.51350000000014 280.80464999999975L268.75350000000026 285.0904L267.90350000000046 286.8548999999999L272.5825000000003 295.39185000000003L274.3620000000004 297.5347000000002L275.2660000000003 300.0423500000002L274.9475000000001 302.74084999999985L275.6275000000005 303.36055000000016L278.0220000000003 301.2442999999999L278.5340000000002 307.84520000000015L279.98500000000035 308.28204999999997L281.0525000000001 310.5063499999997L284.06750000000045 311.2609499999999L285.4770000000002 310.77529999999996L285.6235000000004 312.73319999999984L281.4655000000005 314.21689999999984L275.625 313.80469999999974L269.9260000000004 311.2293500000001L272.4255000000005 307.7386499999997L273.1020000000001 305.73515000000015L271.2325000000004 304.52595L269.1715000000005 304.51515L263.59050000000025 303.06824999999975L260.59950000000015 303.1899999999999L255.80650000000048 302.15690000000023L252.13000000000022 299.46920000000006L249.96500000000026 299.8739500000002L241.17500000000007 301.4361999999997L233.67600000000039 302.24939999999975L229.82200000000034 296.8698500000002L231.25100000000032 295.3981999999999L229.01700000000005 292.2074999999998L233.9915000000002 281.11489999999975L230.99350000000015 282.0036000000002L226.18600000000015 289.2218L218.48150000000032 285.1927500000002L215.9375 288.44705000000005L207.6550000000003 289.28410000000014L205.04500000000007 285.8791999999997L204.1420000000005 279.59930000000014L199.13350000000037 275.5805000000001L200.96400000000017 267.1738500000001L199.2760000000004 268.4515000000002L189.2485000000005 267.81935000000004L187.94750000000022 269.4894000000002L190.73000000000036 274.9719999999999L187.5550000000004 277.49809999999997L181.07550000000003 271.6540499999999L176.97350000000029 270.5406000000002L166.03750000000048 276.23729999999995L162.83100000000047 273.6424500000001L157.37400000000036 281.72769999999986L153.26850000000036 280.2344000000002L138.36150000000032 281.0170000000002L132.68100000000004 274.3724L126.79400000000044 276.65119999999973L113.9975000000004 275.1449499999998L113.05949999999996 271.55805000000015L117.57950000000051 268.3624999999998L110.90450000000033 270.64294999999987L108.9870000000002 267.4098000000001L103.92550000000028 263.98420000000016L98.10249999999996 265.1551500000002L94.31849999999997 263.68334999999973L95.42950000000019 259.4043500000001L89.9595000000005 255.82459999999998L90.24500000000046 249.2455499999997L90.64099999999996 247.05774999999988L97.56050000000016 241.56919999999985L98.43200000000024 237.26880000000023L95.7265000000001 234.8395500000001L95.60699999999997 231.2036500000002L87.88200000000018 228.51034999999996L86.26850000000047 222.90530000000018L82.49750000000006 222.41299999999995L88.83950000000027 214.59660000000014L84.83600000000024 210.70549999999997L84.02550000000019 208.78844999999984L85.54550000000006 207.3657L92.00800000000015 201.9864499999997L111.35550000000023 192.5249999999997L114.41700000000026 188.0958000000001L120.35800000000052 182.21215L127.96150000000011 178.77190000000013L125.54450000000031 173.14299999999974L128.5695000000004 167.99605000000014L121.95950000000039 157.21215L120.42050000000017 144.2217500000001L126.62850000000049 133.30734999999976L126.17500000000007 132.57235000000009L127.50850000000014 126.45769999999999L131.45849999999996 121.36470000000003L129.889 112.75785000000013L127.30050000000006 109.25915000000003L124.54200000000014 109.1447500000001L123.21799999999996 96.07569999999981L124.20400000000029 92.3053999999999L127.43800000000022 89.92479999999972L138.42399999999998 93.65514999999988L133.93700000000024 88.9228L132.43250000000046 78.04110000000009L140.4245000000003 74.49770000000001L142.69800000000032 70.66919999999982L151.1370000000005 70.43440000000004L156.88150000000007 73.25654999999983L160.90200000000038 68.36444999999998L164.8335000000003 68.58524999999986L167.19250000000045 65.70570000000004L169.2575000000005 70.10165L168.52250000000026 68.16544999999991L180.97550000000012 62.00420000000008L181.79650000000038 58.07179999999988L191.80100000000039 56.75004999999999L192.59850000000029 60.8162999999999L200.17950000000042 66.8549999999999L207.23400000000026 66.72764999999998L215.9530000000001 67.02840000000009L216.94200000000023 65.04975000000002L213.52450000000033 59.64059999999989L218.99850000000015 50.30744999999996L225.97650000000044 47.70224999999982L225.93250000000012 47.127299999999934L232.62950000000046 47.16825L234.29250000000025 45.660349999999994L237.79700000000048 33.4926999999999L242.1505000000002 31.147550000000024L243.82550000000037 32.3031499999999L255.5310000000003 29.88810000000001L256.67250000000024 31.56010000000009L253.9670000000001 34.517549999999915L258.28250000000025 41.49419999999992L255.11900000000026 43.84500000000003L254.7580000000005 48.031349999999975L246.73900000000003 48.44369999999998L246.51049999999998 48.64794999999987L253.85199999999998 58.92754999999994L254.57300000000032 60.93535000000003L252.3870000000005 64.18904999999995L255.6925000000001 69.36970000000002L267.4090000000001 66.80504999999982L275.95500000000015 57.21219999999988L286.29700000000014 73.44335000000001L284.51900000000023 74.65765000000005L284.9440000000004 80.87344999999999L284.77700000000027 81.02374999999995L282.0745000000005 86.94040000000001L275.4815000000002 83.12614999999994L272.6785000000001 88.74179999999996L266.68000000000006 90.66589999999991L262.15300000000013 100.33145000000019L268.4915000000001 100.61079999999976L271.2420000000003 103.41244999999986L271.95600000000013 101.38999999999982L278.38250000000016 101.55299999999983L282.01900000000023 103.7946500000001L283.8315 102.64924999999977L284.51850000000036 109.14414999999991L281.44450000000006 119.76244999999977L275.693 120.89835000000022L272.2115000000002 138.66349999999983z">
      <title id="t371">Première circonscription de la Sarthe</title>
      <desc id="d371">Cantons de : Beaumont-sur-Sarthe, Conlie, Fresnay-sur-Sarthe, Le Mans Centre, Le Mans Nord-Ouest, Saint-Paterne, Sillé-le-Guillaume</desc>
    </path><path class="circo" id="id-072-02" d="M448.80250000000046 342.9263L451.3990000000001 336.67699999999996L454.5670000000001 334.0387000000001L457.75149999999996 326.2158500000001L459.8830000000004 326.24314999999996L467.8860000000003 338.6042999999998L469.59000000000003 328.06189999999987L466.89400000000035 317.8412L470.7050000000004 315.84149999999994L472.33100000000036 311.8417500000001L476.3565 310.6877499999999L477.8565000000003 306.63465L469.5550000000003 305.29685L462.0825000000002 301.5734499999999L452.8680000000003 303.68709999999993L444.66200000000015 302.3466499999998L440.256 297.5674999999998L441.1600000000004 295.57805L439.4735000000003 291.53895000000006L436.32000000000005 288.57985000000014L427.8125 286.69725L423.6800000000005 287.54069999999984L416.6745000000003 277.8642999999997L403.57200000000034 272.2785000000002L404.58000000000027 268.9316499999998L399.341 268.0902999999998L395.1600000000002 263.69414999999975L385.78700000000026 261.8024999999997L383.9655000000005 260.7325499999999L383.84550000000047 254.5222499999997L378.9480000000003 250.522L374.7645 249.9193999999997L373.8525000000004 243.63514999999978L378.9255000000003 239.57309999999978L383.0265000000003 229.5762499999998L382.71450000000016 225.20614999999992L386.1605000000003 219.64829999999978L388.3155000000005 219.29164999999983L386.6730000000001 215.48584999999974L383.1695000000002 213.05244999999985L377.49400000000037 214.71059999999994L370.0785000000002 213.86274999999983L365.8425 210.03844999999984L362.9090000000002 214.40799999999996L361.41250000000014 213.41364999999968L358.6655000000002 216.6355999999999L347.885 217.5904L336.93399999999997 233.90245000000021L333.89200000000017 236.3897L330.8605 233.75860000000017L325.2805000000001 235.89124999999996L320.09749999999997 235.04775000000024L317.3385000000002 238.26629999999994L316.85249999999996 244.60949999999997L314.7720000000004 245.0881000000001L311.32100000000037 242.59389999999968L298.8295000000005 243.85214999999988L289.8165 252.42454999999978L295.9310000000005 253.9865499999999L301.16150000000005 263.36915000000005L296.62350000000004 270.4681000000002L285.79650000000015 274.46144999999973L284.8900000000003 276.2742L287.2580000000005 279.6653999999998L284.43100000000015 283.0334000000002L283.0785000000003 293.7606500000001L283.16100000000006 295.77754999999996L287.0950000000005 294.73480000000023L292.1380000000005 298.00719999999984L294.0595000000002 297.32225L297.32950000000017 299.83390000000014L290.8495000000005 310.9347999999997L281.4655000000005 314.21689999999984L275.625 313.80469999999974L269.9260000000004 311.2293500000001L267.0365000000004 312.4478000000002L266.1165 317.02235L260.9050000000002 321.09364999999997L254.3575000000004 321.5799000000001L263.75400000000013 330.1021L266.1435 338.15500000000014L264.6380000000005 345.4433500000002L268.2220000000001 355.0832999999997L260.8415000000002 362.22520000000003L262.21400000000017 365.9099999999998L265.8575000000002 367.9833499999998L270.0290000000001 367.46279999999985L274.1645 362.57019999999983L278.4145000000001 362.1675000000002L283.6835000000002 358.5089000000002L282.5630000000001 354.9729499999998L284.3425000000002 353.9162000000002L282.63800000000003 350.3036499999999L283.7730000000005 346.4584999999997L289.5935000000003 344.4820999999999L293.6095 349.22645000000017L304.54949999999997 354.98500000000007L314.1515000000004 355.67575000000005L318.1755000000004 356.62270000000007L319.8240000000004 352.8708500000002L326.3000000000005 353.0662499999997L334.3055000000004 360.3163500000002L342.99450000000036 361.87960000000004L344.9815000000001 370.25754999999975L345.5200000000002 374.65209999999985L351.2940000000003 376.8168L357.95000000000016 395.4255500000002L361.6360000000003 397.0041999999998L374.923 377.5843999999998L386.0600000000005 368.93504999999976L385.73800000000006 367.42670000000004L389.82150000000047 366.0736L396.13350000000025 367.6694999999998L402.33900000000006 365.7305499999998L405.3625000000005 368.4722000000002L409.59550000000036 368.7778L410.67300000000046 370.65064999999976L408.39800000000025 376.3331500000001L422.06050000000005 386.7922999999999L427.7090000000004 389.7431500000002L435.0640000000004 384.75749999999977L439.4820000000004 384.29045L443.15150000000017 377.5697999999997L446.8390000000005 375.8995999999999L448.68150000000014 372.2818499999997L444.0695000000005 367.69044999999977L437.77450000000044 366.57009999999985L435.9710000000001 362.70335000000017L436.2525000000005 358.31485000000015L447.0685000000003 357.90384999999986L446.6395 355.75819999999993L447.50350000000026 354.9665999999999L450.33000000000015 346.7477999999997L448.80250000000046 342.9263z">
      <title id="t372">Deuxième circonscription de la Sarthe</title>
      <desc id="d372">Cantons de: Bouloire, Le Mans Est-Campagne, Le Mans Sud-Est, Le Mans Sud-Ouest, Le Mans-Ville Est, Montfort-le-Gesnois</desc>
    </path><path class="circo" id="id-072-03" d="M451.50900000000036 502.9008999999999L447.3055000000005 507.65720000000016L445.20200000000045 507.45390000000015L442.77600000000007 504.0936500000001L441.4005000000003 495.96449999999976L437.00950000000034 491.42950000000013L437.0915000000002 491.14270000000005L442.8615000000002 484.6972500000001L449.0855000000005 483.2668499999997L450.3075000000001 481.4718000000002L449.9100000000004 479.0088L453.005 476.1038499999998L453.8335000000001 470.07509999999996L456.567 466.7996000000002L466.7425000000003 464.54154999999986L467.1365000000003 464.42204999999973L477.2455000000002 455.7866499999997L486.75250000000005 458.6845500000001L488.9960000000002 455.22009999999995L484.0560000000005 448.54239999999976L484.3700000000001 446.4545000000001L486.99450000000013 443.17095000000023L489.01550000000043 442.5826500000002L492.93300000000045 444.1254999999998L493.3275000000003 442.05250000000007L502.2380000000004 431.16419999999977L504.99600000000044 428.08795000000003L508.1465000000003 418.4175000000002L512.9480000000001 414.78035000000006L516.9535000000002 416.3479499999997L519.4285000000002 410.40069999999986L519.2650000000003 403.97354999999976L513.023 398.5390499999997L514.9425000000002 392.6272500000002L512.2475000000003 382.4120500000001L513.2985000000002 373.91294999999985L516.807 371.8159L524.8520000000002 365.2524500000001L527.8590000000003 367.98845L529.4720000000001 373.9934500000001L536.0045000000002 379.36925L537.5335000000001 377.88354999999996L534.8625000000004 367.4786500000002L535.5725000000001 354.8524499999999L537.3270000000002 350.9659500000001L549.5860000000005 346.57905L550.9395000000001 344.8399500000002L549.7475000000003 338.5141999999999L540.7300000000004 320.8408L528.177 328.7005000000002L521.9665000000003 327.0575999999997L520.0530000000003 323.24780000000004L515.8710000000002 323.2750999999999L497.1170000000001 312.6077000000001L491.80650000000014 305.7739000000001L491.9485000000003 303.5968999999997L483.21500000000015 302.6966999999999L477.8565000000003 306.63465L476.3565 310.6877499999999L472.33100000000036 311.8417500000001L470.7050000000004 315.84149999999994L466.89400000000035 317.8412L469.59000000000003 328.06189999999987L467.8860000000003 338.6042999999998L459.8830000000004 326.24314999999996L457.75149999999996 326.2158500000001L454.5670000000001 334.0387000000001L451.3990000000001 336.67699999999996L448.80250000000046 342.9263L450.33000000000015 346.7477999999997L447.50350000000026 354.9665999999999L446.6395 355.75819999999993L447.0685000000003 357.90384999999986L436.2525000000005 358.31485000000015L435.9710000000001 362.70335000000017L437.77450000000044 366.57009999999985L444.0695000000005 367.69044999999977L448.68150000000014 372.2818499999997L446.8390000000005 375.8995999999999L443.15150000000017 377.5697999999997L439.4820000000004 384.29045L435.0640000000004 384.75749999999977L427.7090000000004 389.7431500000002L422.06050000000005 386.7922999999999L408.39800000000025 376.3331500000001L410.67300000000046 370.65064999999976L409.59550000000036 368.7778L405.3625000000005 368.4722000000002L402.33900000000006 365.7305499999998L396.13350000000025 367.6694999999998L389.82150000000047 366.0736L385.73800000000006 367.42670000000004L386.0600000000005 368.93504999999976L374.923 377.5843999999998L361.6360000000003 397.0041999999998L357.95000000000016 395.4255500000002L351.2940000000003 376.8168L345.5200000000002 374.65209999999985L344.9815000000001 370.25754999999975L342.99450000000036 361.87960000000004L334.3055000000004 360.3163500000002L326.3000000000005 353.0662499999997L319.8240000000004 352.8708500000002L318.1755000000004 356.62270000000007L314.1515000000004 355.67575000000005L304.54949999999997 354.98500000000007L293.6095 349.22645000000017L289.5935000000003 344.4820999999999L283.7730000000005 346.4584999999997L282.63800000000003 350.3036499999999L284.3425000000002 353.9162000000002L282.5630000000001 354.9729499999998L283.6835000000002 358.5089000000002L278.4145000000001 362.1675000000002L274.1645 362.57019999999983L270.0290000000001 367.46279999999985L265.8575000000002 367.9833499999998L262.21400000000017 365.9099999999998L255.73750000000018 370.39770000000004L259.41550000000007 372.16579999999993L259.32800000000043 378.31139999999976L263.7615000000005 385.6453000000002L264.18450000000007 387.77000000000015L261.01800000000026 390.6916499999997L258.96500000000003 390.5490999999998L249.93899999999996 410.90915000000024L244.32350000000042 414.40934999999996L243.86050000000012 410.2581999999998L231.26800000000003 407.3440000000002L228.6930000000001 403.81144999999975L229.22200000000032 399.4796999999997L226.0880000000003 396.3840000000002L224.53900000000033 395.08914999999973L216.9780000000003 395.82149999999984L204.22600000000045 405.7063500000001L196.59050000000036 416.45430000000005L197.08650000000034 418.6023500000002L203.39050000000043 420.4216999999997L207.69800000000032 425.40189999999967L200.5295000000001 431.70274999999975L201.65750000000003 435.4157999999998L196.62500000000023 439.3613000000002L197.97500000000014 443.2246999999998L201.03300000000047 448.8801499999997L193.53150000000028 459.5703999999998L193.32050000000038 466.14974999999987L189.0315000000004 466.6491499999998L181.60300000000007 462.5431499999999L173.4715 465.15095L173.14200000000028 469.13204999999977L167.95050000000003 474.78685000000013L161.63350000000037 475.04974999999973L156.97450000000003 470.97324999999984L146.58749999999998 481.9747499999997L140.55500000000052 480.78434999999985L132.6305000000002 459.5046499999998L124.37900000000013 460.1703999999998L115.43600000000026 472.04395000000005L111.71500000000037 474.0790000000001L110.95850000000041 470.0959500000002L104.57100000000025 469.0738999999999L103.05200000000013 465.0643499999998L94.62700000000041 458.6491499999997L92.05250000000035 455.81004999999976L84.3730000000005 455.63050000000004L82.21100000000035 461.8825000000001L78.47550000000012 464.0990000000002L73.4155000000004 473.9431499999998L68.26350000000048 478.0918999999997L67.10450000000037 484.61195000000004L68.12400000000025 487.16429999999974L81.28399999999999 494.12844999999976L89.74050000000034 496.3226L104.35800000000029 483.30284999999975L108.10000000000002 484.5052000000001L111.93900000000042 489.1011499999999L115.86400000000026 488.94255000000015L116.66899999999998 490.77635000000015L112.39599999999996 491.5861499999997L112.01700000000017 495.8400500000002L103.90550000000019 503.10989999999975L97.8490000000005 503.7949999999998L98.63500000000045 510.03029999999995L106.78650000000005 522.7693999999999L106.77000000000021 530.7847000000002L108.27449999999999 532.1158999999998L116.56400000000019 533.9687000000001L122.8125 532.67165L127.66950000000008 539.5568499999999L133.20400000000006 541.8533L136.03250000000003 539.1897500000002L141.875 539.9693499999998L141.98750000000018 533.7598999999998L145.53750000000036 526.33905L148.27150000000017 523.3669999999997L150.18200000000036 524.116L151.08750000000043 530.1670499999998L158.7020000000001 526.0835L168.1075000000004 531.6395500000001L179.0020000000004 533.1107499999998L181.7470000000003 538.9942499999997L188.4530000000001 532.2660499999997L195.87900000000047 544.2492000000002L194.58600000000047 547.3486499999999L204.90499999999997 550.7239999999999L212.58050000000026 558.4141999999999L216.82150000000036 559.51605L220.55200000000013 557.2189999999998L231.0730000000001 560.2416000000003L237.3870000000005 558.6184499999999L239.52200000000005 558.7899000000002L241.52000000000044 564.85915L247.4245000000002 565.8530499999997L250.08650000000046 571.5397499999997L253.47800000000007 574.1238000000001L258.85050000000035 567.11915L265.26800000000037 565.8606L268.56100000000026 562.96075L269.35050000000047 551.9061999999999L276.18250000000046 552.5146499999996L277.3025000000001 558.5730499999997L279.3670000000003 558.8573499999998L280.73350000000005 554.9085L282.7275000000003 554.2868999999998L288.12250000000006 557.04375L289.273 555.4702L300.4955000000001 554.5831999999998L307.42200000000025 562.9040499999999L327.2670000000005 565.3394000000001L333.3880000000005 571.1704999999997L334.4935000000004 575.1054000000001L351.22900000000016 582.1694499999999L357.41700000000037 576.6930999999997L361.46900000000016 575.8784999999998L358.2845000000003 565.7515500000002L352.89950000000033 556.0470499999999L348.99699999999996 553.9281500000002L345.31000000000006 548.4243999999999L353.05800000000033 535.1584499999999L358.7795 536.5765000000001L369.80800000000045 550.0032999999999L373.8640000000004 550.7908499999999L382.2240000000005 548.8097000000002L383.3940000000001 540.4745499999999L386.3745 534.7150000000001L392.44050000000016 532.7757499999998L393.73500000000035 534.4777999999999L402.2025000000002 534.1112999999998L409.99000000000024 526.8816999999999L413.80750000000035 528.3241L422.10500000000025 526.2860500000002L428.2065 520.6010000000001L427.8620000000001 517.68455L438.6125000000004 518.8590999999999L442.5455000000005 517.0225000000003L452.1025000000003 508.30115000000006L453.31500000000005 504.1315499999999L451.50900000000036 502.9008999999999z">
      <title id="t373">Troisième circonscription de la Sarthe</title>
      <desc id="d373">Cantons de : La Chartre-sur-le-Loir, Château-du-Loir, Ecommoy, La Flèche, Le Grand-Lucé, La Lude, Mayet, Pontvallain, Saint-Calais</desc>
    </path><path class="circo" id="id-072-04" d="M54.36800000000005 350.3175999999999L49.97950000000003 349.4631000000001L46.416000000000395 352.0937999999998L26.807000000000016 353.14299999999974L23.370500000000334 355.3713000000002L21.362000000000307 361.11925000000014L14.901500000000283 362.6615000000001L17.6015000000001 366.1141999999998L18.64400000000046 372.48279999999994L15.67200000000014 375.6435000000002L23.51950000000045 377.5654L24.106500000000324 379.5727000000002L30.208000000000084 380.77185000000014L32.744500000000016 388.4777999999997L29.71650000000011 393.7904499999999L31.00400000000036 399.5614500000002L15.25100000000009 399.5500000000001L15.692999999999984 406.5144000000001L9.528000000000247 404.80260000000015L6.560500000000502 410.2259000000001L0 415.76040000000006L2.9230000000001155 418.6440999999999L5.879500000000348 430.30675L13.141500000000406 434.3451999999999L25.37900000000036 432.6702500000002L25.828000000000202 433.3352999999997L28.830500000000256 447.20909999999975L30.6310000000002 457.6027000000002L28.140000000000214 460.97335000000015L30.14250000000004 461.2009500000002L28.989500000000135 466.8944000000002L32.03900000000033 471.9901999999999L31.50850000000048 474.05749999999983L38.08900000000051 479.0529999999998L34.888500000000136 489.0651L41.1345 490.12444999999985L48.55800000000045 486.0189L59.00850000000048 488.29759999999993L68.12400000000025 487.16429999999974L67.10450000000037 484.61195000000004L68.26350000000048 478.0918999999997L73.4155000000004 473.9431499999998L78.47550000000012 464.0990000000002L82.21100000000035 461.8825000000001L84.3730000000005 455.63050000000004L92.05250000000035 455.81004999999976L94.62700000000041 458.6491499999997L103.05200000000013 465.0643499999998L104.57100000000025 469.0738999999999L110.95850000000041 470.0959500000002L111.71500000000037 474.0790000000001L115.43600000000026 472.04395000000005L124.37900000000013 460.1703999999998L132.6305000000002 459.5046499999998L140.55500000000052 480.78434999999985L146.58749999999998 481.9747499999997L156.97450000000003 470.97324999999984L161.63350000000037 475.04974999999973L167.95050000000003 474.78685000000013L173.14200000000028 469.13204999999977L173.4715 465.15095L181.60300000000007 462.5431499999999L189.0315000000004 466.6491499999998L193.32050000000038 466.14974999999987L193.53150000000028 459.5703999999998L201.03300000000047 448.8801499999997L197.97500000000014 443.2246999999998L196.62500000000023 439.3613000000002L201.65750000000003 435.4157999999998L200.5295000000001 431.70274999999975L207.69800000000032 425.40189999999967L203.39050000000043 420.4216999999997L197.08650000000034 418.6023500000002L196.59050000000036 416.45430000000005L204.22600000000045 405.7063500000001L216.9780000000003 395.82149999999984L224.53900000000033 395.08914999999973L226.0880000000003 396.3840000000002L229.22200000000032 399.4796999999997L228.6930000000001 403.81144999999975L231.26800000000003 407.3440000000002L243.86050000000012 410.2581999999998L244.32350000000042 414.40934999999996L249.93899999999996 410.90915000000024L258.96500000000003 390.5490999999998L261.01800000000026 390.6916499999997L264.18450000000007 387.77000000000015L263.7615000000005 385.6453000000002L259.32800000000043 378.31139999999976L259.41550000000007 372.16579999999993L255.73750000000018 370.39770000000004L262.21400000000017 365.9099999999998L260.8415000000002 362.22520000000003L268.2220000000001 355.0832999999997L264.6380000000005 345.4433500000002L266.1435 338.15500000000014L263.75400000000013 330.1021L254.3575000000004 321.5799000000001L260.9050000000002 321.09364999999997L266.1165 317.02235L267.0365000000004 312.4478000000002L269.9260000000004 311.2293500000001L272.4255000000005 307.7386499999997L273.1020000000001 305.73515000000015L271.2325000000004 304.52595L269.1715000000005 304.51515L263.59050000000025 303.06824999999975L260.59950000000015 303.1899999999999L255.80650000000048 302.15690000000023L252.13000000000022 299.46920000000006L249.96500000000026 299.8739500000002L241.17500000000007 301.4361999999997L233.67600000000039 302.24939999999975L229.82200000000034 296.8698500000002L231.25100000000032 295.3981999999999L229.01700000000005 292.2074999999998L233.9915000000002 281.11489999999975L230.99350000000015 282.0036000000002L226.18600000000015 289.2218L218.48150000000032 285.1927500000002L215.9375 288.44705000000005L207.6550000000003 289.28410000000014L205.04500000000007 285.8791999999997L204.1420000000005 279.59930000000014L199.13350000000037 275.5805000000001L200.96400000000017 267.1738500000001L199.2760000000004 268.4515000000002L189.2485000000005 267.81935000000004L187.94750000000022 269.4894000000002L190.73000000000036 274.9719999999999L187.5550000000004 277.49809999999997L181.07550000000003 271.6540499999999L176.97350000000029 270.5406000000002L166.03750000000048 276.23729999999995L162.83100000000047 273.6424500000001L157.37400000000036 281.72769999999986L153.26850000000036 280.2344000000002L138.36150000000032 281.0170000000002L132.68100000000004 274.3724L126.79400000000044 276.65119999999973L113.9975000000004 275.1449499999998L113.05949999999996 271.55805000000015L117.57950000000051 268.3624999999998L110.90450000000033 270.64294999999987L108.9870000000002 267.4098000000001L103.92550000000028 263.98420000000016L98.10249999999996 265.1551500000002L94.31849999999997 263.68334999999973L92.21550000000036 271.7602500000001L88.4250000000003 269.83089999999976L73.81650000000036 268.2766000000001L68.78600000000006 272.13479999999976L70.17750000000035 273.4739499999998L68.35450000000037 274.79844999999983L55.867000000000075 280.1040500000002L49.96300000000019 277.2329499999998L45.65050000000042 281.24645000000015L48.21300000000008 288.67775000000023L46.64950000000033 301.5359499999997L59.04300000000035 305.68749999999994L59.241499999999974 305.65574999999995L57.57249999999999 308.5694499999997L57.75100000000009 312.8356999999997L63.06200000000047 324.0858499999999L62.66999999999996 330.41439999999994L67.81600000000026 333.8178000000002L71.28750000000025 336.02835L71.14599999999996 338.10359999999974L63.7865000000005 345.16670000000005L57.90350000000046 347.1398500000001L54.36800000000005 350.3175999999999z">
      <title id="t374">Quatrième circonscription de la Sarthe</title>
      <desc id="d374">Cantons de: Allonnes, Brûlon, Loué, Malicorne-sur-Sarthe, Le Mans Ouest, Sablé-sur-Sarthe, La Suze-sur-Sarthe</desc>
    </path><path class="circo" id="id-072-05" d="M320.09749999999997 235.04775000000024L317.3385000000002 238.26629999999994L316.85249999999996 244.60949999999997L314.7720000000004 245.0881000000001L311.32100000000037 242.59389999999968L298.8295000000005 243.85214999999988L289.8165 252.42454999999978L295.9310000000005 253.9865499999999L301.16150000000005 263.36915000000005L296.62350000000004 270.4681000000002L285.79650000000015 274.46144999999973L284.8900000000003 276.2742L287.2580000000005 279.6653999999998L284.43100000000015 283.0334000000002L283.0785000000003 293.7606500000001L283.16100000000006 295.77754999999996L287.0950000000005 294.73480000000023L292.1380000000005 298.00719999999984L294.0595000000002 297.32225L297.32950000000017 299.83390000000014L290.8495000000005 310.9347999999997L285.6235000000004 312.73319999999984L285.4770000000002 310.77529999999996L284.06750000000045 311.2609499999999L281.0525000000001 310.5063499999997L279.98500000000035 308.28204999999997L278.5340000000002 307.84520000000015L278.0220000000003 301.2442999999999L275.6275000000005 303.36055000000016L274.9475000000001 302.74084999999985L275.2660000000003 300.0423500000002L274.3620000000004 297.5347000000002L272.5825000000003 295.39185000000003L267.90350000000046 286.8548999999999L268.75350000000026 285.0904L265.51350000000014 280.80464999999975L277.8905000000003 272.5138000000001L276.3145000000003 266.84375000000017L268.70900000000006 267.63045000000005L264.5155 263.2394000000002L262.84050000000036 252.9538999999997L268.53800000000035 250.78479999999985L269.4905 246.71095000000008L271.3715000000002 245.79579999999993L268.0505000000005 243.33535000000012L267.83000000000015 239.3948500000002L257.4740000000003 237.27389999999986L256.6900000000004 228.8236500000002L253.08050000000037 230.17539999999968L247.2075000000001 225.50989999999985L242.3535000000004 231.32845000000003L238.83500000000026 230.44279999999986L240.46350000000018 224.1509499999998L239.67150000000004 215.58900000000023L233.34400000000016 214.2551499999999L224.91000000000042 215.22655000000015L222.92700000000025 211.38844999999975L221.3005000000004 201.57479999999993L227.59150000000034 200.43469999999985L230.40300000000002 197.07154999999972L234.65700000000027 197.93644999999998L237.4830000000003 201.37275000000017L246.2865000000005 200.72399999999988L255.0165000000004 194.19759999999968L252.31400000000008 188.42349999999982L264.8330000000004 187.86885000000012L268.2045000000005 185.32560000000018L270.5030000000005 177.19989999999967L270.256 173.30374999999975L273.91200000000026 167.89524999999998L269.4830000000002 161.21234999999984L270.582 150.71600000000018L274.7985 149.25564999999978L276.58900000000017 145.4391000000001L276.7515000000003 141.5997999999999L272.2115000000002 138.66349999999983L275.693 120.89835000000022L281.44450000000006 119.76244999999977L284.51850000000036 109.14414999999991L283.8315 102.64924999999977L282.01900000000023 103.7946500000001L278.38250000000016 101.55299999999983L271.95600000000013 101.38999999999982L271.2420000000003 103.41244999999986L268.4915000000001 100.61079999999976L262.15300000000013 100.33145000000019L266.68000000000006 90.66589999999991L272.6785000000001 88.74179999999996L275.4815000000002 83.12614999999994L282.0745000000005 86.94040000000001L284.77700000000027 81.02374999999995L284.9440000000004 80.87344999999999L284.51900000000023 74.65765000000005L286.29700000000014 73.44335000000001L275.95500000000015 57.21219999999988L267.4090000000001 66.80504999999982L255.6925000000001 69.36970000000002L252.3870000000005 64.18904999999995L254.57300000000032 60.93535000000003L253.85199999999998 58.92754999999994L246.51049999999998 48.64794999999987L246.73900000000003 48.44369999999998L254.7580000000005 48.031349999999975L255.11900000000026 43.84500000000003L258.28250000000025 41.49419999999992L253.9670000000001 34.517549999999915L256.67250000000024 31.56010000000009L255.5310000000003 29.88810000000001L257.65600000000006 26.59895000000006L256.19550000000004 25.175299999999936L251.53850000000034 18.993049999999982L255.1925 17.914499999999975L260.16800000000046 21.92859999999996L264.17100000000005 21.599899999999934L262.74350000000027 17.54985000000005L263.61000000000047 13.301250000000095L271.9505000000004 14.254300000000057L273.22450000000003 13.355049999999835L283.0080000000004 6.908999999999992L286.1930000000001 7.511599999999987L296.37050000000045 6.485250000000065L301.5730000000002 3.360449999999844L302.0300000000003 1.0996499999998832L303.76450000000034 0L306.83100000000024 2.652599999999836L310.88300000000004 2.0050000000000523L316.98350000000005 3.0527000000000726L324.1360000000003 7.298150000000021L328.2955000000004 8.125750000000096L335.29650000000004 15.129200000000083L339.15999999999997 16.61990000000003L340.351 15.951450000000023L344.735 21.16285000000005L346.6915 30.019399999999905L350.1785000000001 34.77505000000008L352.6065 38.315100000000086L351.66600000000017 44.635199999999884L348.7620000000004 47.70035000000007L349.2655000000002 62.52704999999992L351.3035000000002 64.91925000000009L352.1100000000001 73.8483500000001L355.0540000000001 87.89770000000004L352.1425000000005 90.61349999999976L353.5340000000002 97.12289999999967L358.40250000000026 104.53420000000023L364.01350000000036 107.70875000000018L366.97450000000003 104.40700000000021L372.1260000000001 108.64499999999992L373.10900000000004 112.5942999999998L378.56600000000014 115.17705000000007L387.2640000000001 114.76365000000015L392.6695000000001 118.10969999999969L399.2975000000001 113.56109999999973L405.35000000000025 122.19070000000016L401.94200000000023 124.65704999999986L400.5045000000001 128.68680000000012L408.21799999999996 138.83589999999998L415.7555000000002 140.17349999999993L418.41300000000047 143.82530000000003L418.74300000000005 150.55514999999986L422.7630000000005 149.96475000000004L436.53200000000027 153.63460000000003L442.71000000000015 153.54844999999983L450.9585000000004 154.70484999999968L454.92050000000006 153.30974999999995L458.2125000000002 155.95054999999974L458.93700000000024 159.88070000000022L461.73050000000046 159.25089999999983L458.93650000000036 147.02919999999978L463.5455000000002 142.7016999999998L467.67600000000016 141.52124999999984L476.8360000000001 146.92645L481.04100000000017 147.51499999999993L482.5195000000002 155.9511999999998L486.94800000000043 160.93350000000015L490.01599999999996 169.18255000000016L494.71400000000017 173.86884999999978L496.4880000000005 180.20099999999985L497.9230000000001 183.1501L501.52800000000013 183.13799999999986L504.29550000000006 188.86015000000015L511.3915000000003 193.3683499999998L513.0415000000005 194.65844999999973L529.3815000000001 185.49774999999983L529.3275 189.51044999999993L535.1555000000002 191.70654999999982L542.219 199.15310000000005L545.9165000000002 202.60774999999995L547.6225000000005 203.93765000000002L556.1530000000005 203.22269999999975L566.2775000000005 206.2870000000001L577.7520000000004 215.76420000000013L576.9640000000004 217.95215000000013L579.9560000000002 220.8768999999998L578.9730000000003 222.84669999999977L551.7870000000005 224.6094500000001L553.7575000000004 230.4828999999998L547.8960000000001 243.7197999999998L544.4200000000001 246.31319999999988L537.9885000000002 247.14365000000015L537.2425000000004 249.08330000000007L543.2490000000001 251.30595L549.5080000000002 250.2687499999999L548.6635000000001 263.0746500000001L544.7135000000003 264.7633499999998L531.8920000000003 263.7386999999998L527.826 265.11254999999977L529.7465 268.88904999999994L528.202 279.4244499999999L529.3375000000003 285.5785499999999L533.4160000000003 285.9739499999998L536.0230000000001 289.2605499999999L546.6355000000004 288.5265000000001L547.6180000000005 297.1551500000001L545.5830000000003 303.4399499999998L543.3645000000001 311.75854999999984L539.0415000000002 316.8461499999998L540.7300000000004 320.8408L528.177 328.7005000000002L521.9665000000003 327.0575999999997L520.0530000000003 323.24780000000004L515.8710000000002 323.2750999999999L497.1170000000001 312.6077000000001L491.80650000000014 305.7739000000001L491.9485000000003 303.5968999999997L483.21500000000015 302.6966999999999L477.8565000000003 306.63465L469.5550000000003 305.29685L462.0825000000002 301.5734499999999L452.8680000000003 303.68709999999993L444.66200000000015 302.3466499999998L440.256 297.5674999999998L441.1600000000004 295.57805L439.4735000000003 291.53895000000006L436.32000000000005 288.57985000000014L427.8125 286.69725L423.6800000000005 287.54069999999984L416.6745000000003 277.8642999999997L403.57200000000034 272.2785000000002L404.58000000000027 268.9316499999998L399.341 268.0902999999998L395.1600000000002 263.69414999999975L385.78700000000026 261.8024999999997L383.9655000000005 260.7325499999999L383.84550000000047 254.5222499999997L378.9480000000003 250.522L374.7645 249.9193999999997L373.8525000000004 243.63514999999978L378.9255000000003 239.57309999999978L383.0265000000003 229.5762499999998L382.71450000000016 225.20614999999992L386.1605000000003 219.64829999999978L388.3155000000005 219.29164999999983L386.6730000000001 215.48584999999974L383.1695000000002 213.05244999999985L377.49400000000037 214.71059999999994L370.0785000000002 213.86274999999983L365.8425 210.03844999999984L362.9090000000002 214.40799999999996L361.41250000000014 213.41364999999968L358.6655000000002 216.6355999999999L347.885 217.5904L336.93399999999997 233.90245000000021L333.89200000000017 236.3897L330.8605 233.75860000000017L325.2805000000001 235.89124999999996L320.09749999999997 235.04775000000024z">
      <title id="t375">Cinquième circonscription de la Sarthe</title>
      <desc id="d375">Cantons de : Ballon, Bonnétable, La Ferté-Bernard, La Fresnaye-sur-Chédouet, Mamers, Le Mans Nord-Campagne, Le Mans Nord-Ville, Marolles-les-Braults, Montmirail, Tuffé, Vibraye</desc>
    </path></svg>