<svg xmlns="http://www.w3.org/2000/svg" version="1.1" xmlns:xlink="http://www.w3.org/1999/xlink" xmlns:svgjs="http://svgjs.dev/svgjs" width="663.2114999999999" height="537.2710999999998" fill="#eeeeee" stroke="#cccccc" xmlns:sodipodi="http://sodipodi.sourceforge.net/DTD/sodipodi-0.dtd"><path class="circo" id="id-073-01" d="M123.34050000000047 82.03975000000014L119.41299999999956 77.30709999999988L119.04099999999971 68.9298500000001L110.80849999999941 68.45655000000022L108.98950000000013 67.41174999999998L109.43650000000048 65.36110000000008L106.16549999999961 62.80089999999973L106.11549999999966 60.70485000000019L108.3159999999998 47.49089999999967L107.24699999999984 45.83449999999971L103.30699999999979 24.296699999999873L102.84999999999968 21.005399999999668L101.52550000000019 13.333850000000211L102.87699999999973 11.929949999999963L101.30300000000034 3.702149999999733L90.06700000000023 3.4326499999997395L88.18099999999959 0L84.32999999999993 5.010449999999764L87.40499999999997 14.953350000000114L86.09450000000038 21.241150000000175L81.34999999999991 37.41769999999974L78.10749999999985 47.526300000000106L75.38049999999998 56.584250000000225L73.1454999999994 66.34374999999977L69.35600000000022 70.35334999999975L68.3605 86.20659999999987L66.99700000000007 96.19214999999997L67.70399999999995 101.2963000000002L66.16149999999948 107.5218000000001L67.9359999999997 117.90309999999977L66.59049999999979 119.2935L62.02250000000049 120.57540000000017L64.86449999999991 128.42794999999967L59.31600000000003 134.1846499999997L56.60499999999956 139.8150499999997L53.20799999999963 142.09794999999986L45.72000000000003 139.24350000000004L44.19849999999997 139.78274999999996L32.662500000000136 139.36829999999986L33.99199999999951 146.5483499999999L36.317999999999984 154.5938000000001L26.304999999999836 165.49104999999997L25.678500000000213 169.63435000000004L27.241500000000087 173.62144999999998L27.26599999999962 179.5055000000002L22.350999999999885 183.0950999999999L12.355499999999893 183.93394999999998L10.447000000000344 189.57069999999987L6.232499999999845 192.23250000000007L5.365500000000338 195.65249999999992L3.598500000000513 199.2392000000001L0 198.16134999999974L0.14450000000010732 204.17055000000005L5.910999999999831 212.52310000000023L9.41349999999943 216.5859499999999L9.844000000000506 220.1783499999999L20.144500000000107 229.7052500000001L20.172000000000025 233.74239999999986L21.86050000000023 234.8992499999997L20.73849999999993 238.42600000000004L24.103999999999814 239.96195L24.3629999999996 241.8079499999999L21.076000000000477 240.54820000000007L20.22799999999961 244.68534999999974L22.68950000000018 248.11464999999998L28.629499999999553 249.99539999999968L28.689500000000407 253.68679999999983L30.574000000000296 254.80594999999994L32.853000000000065 256.1853000000002L38.34299999999985 268.4386999999998L40.7994999999994 276.97985000000017L47.93450000000007 283.97155L46.086500000000115 295.5697500000002L49.40349999999967 304.7401000000002L56.91349999999943 306.3499999999999L58.20550000000026 305.47905000000014L59.34849999999983 303.7503499999997L67.4554999999998 302.6067499999999L73.36350000000039 304.44754999999986L79.73799999999983 312.1294499999999L89.6264999999994 315.2667500000001L89.89900000000034 315.2492000000001L97.98900000000003 317.86069999999995L100.2335000000005 321.4987500000001L108.60500000000002 323.33669999999984L113.4190000000001 327.58249999999975L113.58650000000011 334.0077500000001L115.04850000000033 334.75390000000004L122.03899999999976 331.0361499999999L127.39950000000022 319.6661499999999L120.11300000000006 321.4472999999998L118.46099999999979 317.7147500000001L119.48650000000043 309.33339999999987L119.30399999999963 307.93499999999995L122.99250000000029 305.98115000000007L126.1609999999996 300.6029000000001L128.13750000000027 288.1901499999998L123.94300000000044 281.1919999999998L114.81049999999982 268.9298500000001L105.67999999999984 270.5347999999998L104.28850000000011 269.11234999999976L102.654 270.1946499999997L99.55799999999954 265.1594499999999L101.01049999999987 257.3541499999999L97.93649999999957 252.57484999999974L95.02899999999954 257.9734000000002L89.72599999999943 255.3167000000002L81.57249999999976 255.1225999999997L82.44599999999991 253.84754999999984L82.86849999999959 253.45809999999972L87.63050000000021 236.97614999999985L83.63449999999943 226.27655000000004L82.27800000000002 218.72770000000003L87.74900000000002 221.1450000000002L93.83249999999975 219.9858499999999L97.71449999999959 226.66934999999967L105.31150000000025 224.0521000000001L106.81100000000015 215.9489000000002L111.9010000000003 212.61660000000006L113.83100000000013 206.96849999999984L110.80000000000041 197.16729999999984L116.56500000000051 196.361L119.21299999999974 193.04744999999969L118.32199999999943 184.59164999999985L121.43550000000005 183.365L122.6985000000002 180.1961L130.31600000000026 196.39925000000005L133.85400000000004 198.11395000000005L141.49649999999951 178.45984999999985L145.25549999999953 179.12734999999998L145.67300000000046 166.52434999999969L147.56999999999948 165.74099999999987L149.80199999999968 159.99329999999986L148.9969999999994 155.9668499999998L151.2315000000001 156.12259999999992L158.84050000000002 160.3697999999997L161.31799999999998 161.1709000000002L166.98499999999967 155.3852999999998L167.78050000000007 147.2852499999999L173.51850000000013 136.30665000000022L174.5354999999995 130.16860000000008L177.86950000000047 121.52359999999987L163.12000000000012 114.54655000000002L157.27899999999977 116.38719999999978L157.47250000000008 106.93150000000003L148.87550000000033 103.59640000000013L148.9504999999997 99.69555000000014L152.33749999999986 94.77705000000014L151.64499999999975 86.84725000000014L142.08999999999946 87.61230000000012L144.0949999999998 76.74980000000005L137.7959999999996 78.10099999999977L131.91299999999956 75.61134999999979L130.86850000000027 79.5619499999998L123.34050000000047 82.03975000000014z">
      <title id="t376">Première circonscription de Savoie</title>
      <desc id="d376">Cantons de : Aix-les-Bains Centre, Aix-les-Bains Nord-Grésy, Aix-les-Bains Sud, Albens, Les Echelles, La Motte-Servolex, Le Pont-de-Beauvoisin, Ruffieux, Saint-Genix-sur-Guiers, Yenne</desc>
    </path><path class="circo" id="id-073-02" d="M299.3515000000002 170.03139999999973L292.1429999999998 162.5248499999998L290.79349999999977 149.70394999999996L299.0509999999995 149.73374999999976L307.04200000000014 130.98925000000008L309.12649999999985 127.60964999999999L309.1369999999995 127.50065000000006L309.9095 125.78239999999994L307.67849999999953 122.79569999999978L317.35400000000027 113.19619999999986L319.13599999999974 107.2001499999999L314.32249999999954 104.04544999999985L327.05299999999966 93.7172499999997L338.46649999999954 83.13530000000014L340.3544999999997 82.16225000000009L343.58299999999986 72.11340000000007L348.69749999999954 65.37755000000004L351.05699999999956 60.40590000000009L349.07100000000014 57.17854999999986L352.94250000000034 50.72709999999972L351.4885000000004 47.10944999999981L355.1189999999997 44.964200000000005L360.44849999999997 33.08854999999994L370.44899999999984 28.974400000000173L377.1199999999999 17.964249999999993L379.2150000000004 21.581350000000157L386.36799999999994 25.331199999999967L396.4655000000005 27.613900000000058L397.53349999999955 31.553599999999733L402.46099999999956 35.31029999999987L403.4064999999998 37.202199999999834L400.7439999999997 40.28925000000015L401.3995 46.437500000000114L387.432 46.70909999999992L391.19249999999965 54.32610000000011L394.82399999999984 68.45165000000009L400.2800000000002 74.93809999999996L401.78750000000036 73.58249999999998L405.46299999999974 74.93690000000015L408.4540000000004 84.1473000000002L414.56800000000044 89.16850000000011L415.6344999999999 87.51964999999984L425.3009999999995 86.93080000000009L430.64449999999965 84.47344999999984L440.14549999999986 84.41980000000001L441.6274999999996 88.4949499999999L452.42899999999963 101.98724999999968L451.8999999999994 112.52310000000023L456.7560000000003 118.93905000000018L452.9989999999998 128.27574999999968L462.4995000000001 131.47260000000017L474.60199999999986 117.1753000000001L475.6499999999994 113.06339999999977L481.9285000000002 104.5261499999998L492.1244999999999 102.64164999999991L500.9910000000002 97.69679999999994L502.9965000000004 116.55590000000018L506.68249999999944 121.72514999999976L503.91399999999976 129.67114999999978L511.6139999999996 142.28844999999978L518.2849999999996 147.15075000000013L519.5230000000004 151.16120000000024L530.5404999999996 157.40619999999979L543.0015000000003 158.12644999999975L544.7220000000004 159.37405000000012L545.1134999999999 163.62210000000005L543.3330000000001 167.4761000000001L548.7784999999997 169.19955000000016L548.7265000000002 174.7778999999997L556.5435000000002 177.89199999999994L570.7889999999998 173.48765000000014L575.0405000000001 178.14795000000004L584.5519999999999 183.02639999999997L583.7924999999996 187.14204999999993L578.637 193.9704999999998L575.9534999999994 213.12070000000006L582.2924999999998 221.50689999999997L582.7755000000002 223.61190000000022L582.781 225.7738999999998L580.9045000000003 229.66335000000015L582.8309999999999 240.2356500000002L581.5300000000002 246.57600000000002L586.9529999999997 255.66910000000007L584.9125000000004 264.00784999999985L594.1295000000002 268.80859999999984L606.6210000000001 269.18695000000014L608.7729999999999 272.5889000000001L604.5754999999997 279.5548500000001L605.9929999999997 283.47519999999975L618.2119999999998 283.11215000000004L628.1939999999997 285.99760000000003L627.26 292.1452499999998L627.8255000000001 294.1580499999998L633.7265000000002 302.67094999999983L633.1690000000003 306.79215L620.6775000000005 308.0525L615.1255000000003 311.13384999999994L603.1169999999997 307.88774999999987L601.3329999999996 309.0354500000001L597.8435000000002 316.75144999999986L592.6589999999999 320.37874999999985L588.9504999999997 327.75379999999984L588.2780000000002 338.1306000000001L584.1515000000004 347.6960500000001L579.8495000000003 347.4123500000002L571.8989999999997 340.75364999999977L561.5895 339.3511000000001L558.0290000000002 337.1485000000001L553.8715000000002 337.5460499999997L550.3639999999996 335.5654499999997L549.7490000000005 317.0015000000001L543.6009999999999 312.14819999999975L538.2365000000004 313.9024999999998L535.8450000000005 317.5070999999997L528.3495000000005 321.7118499999998L511.4390000000003 324.6012999999999L508.83050000000026 327.9341999999997L502.7525000000003 329.57085000000006L498.0250000000001 333.8056L496.88300000000027 337.7711499999998L499.4590000000005 343.46484999999973L497.1889999999996 347.0584500000001L491.0964999999999 352.95439999999985L486.95299999999975 353.80780000000016L478.46900000000005 360.02070000000003L478.9835000000005 368.31889999999987L475.1109999999994 373.2409999999999L475.47000000000025 377.48125000000016L470.7479999999998 389.29550000000006L465.25350000000003 392.2052500000001L461.0540000000003 391.7128500000001L451.2289999999996 394.7468500000002L449.4060000000002 400.68955000000017L451.0469999999998 406.5859499999999L442.1055000000001 406.3534499999997L438.11699999999973 405.3074499999997L433.8580000000002 400.9450499999997L432.00950000000034 401.85585000000003L427.9314999999997 402.3915999999997L425.1769999999999 399.26469999999995L421.6669999999999 401.3841500000001L419.11100000000033 409.1222499999998L400.8129999999994 408.8806999999997L386.7475000000002 416.88755000000015L381.5115000000003 413.2789500000001L375.61900000000037 404.64495L373.9620000000002 396.3501000000002L351.164 389.6471500000001L349.80800000000045 380.0287500000002L343.6699999999996 375.21705L341.7039999999997 375.34940000000006L339.298 365.43740000000014L336.36549999999943 362.5301999999999L333.0684999999994 362.2834999999998L329.18300000000045 357.8974499999998L328.17199999999957 357.5213000000002L330.539 345.5478499999998L325.86649999999963 336.7575999999997L324.94500000000016 332.7634499999999L326.6330000000005 329.15385000000015L334.4200000000001 315.10749999999973L334.8199999999997 311.11935000000017L332.21199999999953 310.54764999999975L322.68249999999966 307.70730000000015L310.64750000000004 300.53684999999973L315.3150000000005 288.0077499999999L320.2075000000002 274.6476999999999L318.895 270.6845499999997L319.91499999999974 268.8594999999998L322.5064999999995 261.23699999999985L327.67150000000015 255.26029999999992L331.8124999999998 243.98939999999982L331.1514999999997 240.5919L326.8119999999999 237.41190000000017L320.7339999999999 229.98935000000017L314.8270000000002 226.6778499999998L319.6645000000001 217.33045000000004L324.1605000000004 210.56069999999977L325.7655 204.29570000000012L309.48549999999955 191.03529999999978L310.43450000000007 186.92385000000002L308.0600000000004 183.43124999999986L306.88499999999976 183.4525500000001L298.1809999999996 174.8757999999998L300.92700000000036 171.7802499999999L299.3515000000002 170.03139999999973z">
      <title id="t377">Deuxième circonscription de Savoie</title>
      <desc id="d377">Cantons de : Aime, Albertville Nord, Albertville Sud, Beaufort, Bourg-Saint-Maurice, Bozel, Moûtiers, Ugine</desc>
    </path><path class="circo" id="id-073-03" d="M250.94100000000026 217.93225000000007L243.18250000000035 222.16869999999972L238.21950000000015 225.97300000000018L239.28649999999948 227.77240000000006L233.42200000000048 233.5639500000002L223.7175000000002 237.80635000000018L224.45299999999975 239.18094999999994L209.90350000000035 246.1257999999998L205.81099999999992 254.18115L196.3900000000001 261.04715L191.48649999999975 254.8866499999997L189.19099999999958 252.1289999999999L176.09649999999988 257.8466500000002L174.18199999999956 257.48335L171.0355000000004 245.58699999999988L166.56950000000052 242.6592999999997L161.9545000000005 236.73519999999996L159.35950000000048 239.62760000000003L159.3520000000001 233.3490999999998L156.88949999999977 227.67589999999984L148.7239999999997 231.09714999999994L148.64100000000008 223.44069999999988L147.6744999999994 221.8778500000002L138.78199999999993 223.88449999999978L134.51749999999947 225.3549499999997L134.61000000000013 229.33009999999967L132.8679999999997 230.29344999999978L130.16449999999963 237.78390000000002L128.18250000000035 242.4457000000001L130.44599999999946 245.93649999999968L128.6035000000004 257.73505L123.44799999999964 264.32559999999967L117.33349999999973 265.6075499999997L114.81049999999982 268.9298500000001L123.94300000000044 281.1919999999998L124.13699999999949 281.0950500000001L147.59249999999952 272.12935000000016L151.16999999999962 274.3082499999997L155.74550000000045 281.31505000000004L163.74850000000038 283.8921499999998L164.74050000000034 291.87014999999974L163.22199999999953 294.72759999999994L180.8375000000001 304.60440000000006L183.0385000000001 302.8284500000001L186.4504999999997 300.8427999999998L192.32999999999947 301.30679999999984L198.1695000000002 300.84825000000023L199.98500000000035 301.8695500000001L200.0789999999995 308.09005000000013L203.50149999999985 307.1058499999998L211.47199999999998 304.31550000000016L215.22399999999948 306.2876L221.97400000000016 319.4524000000001L234.48350000000005 331.06704999999977L240.77850000000012 346.85760000000016L236.38699999999972 351.47670000000005L232.16750000000047 351.9769500000001L234.99099999999999 354.5874500000002L242.6864999999998 356.3867499999998L241.2704999999994 364.02980000000014L239.7320000000002 367.9881999999998L238.30550000000017 377.1204L226.97000000000003 380.5309999999997L224.8829999999998 385.7782500000002L219.9414999999999 388.7063999999998L220.4359999999997 390.7516499999997L215.50949999999943 397.31659999999977L219.17349999999942 413.1364500000001L213.33399999999983 421.63005L214.65199999999982 429.98760000000004L219.35449999999946 434.2860000000002L219.27749999999946 440.4649999999998L227.49400000000037 446.92574999999977L228.7289999999996 455.3344499999997L221.0239999999999 475.7402000000002L228.41099999999983 477.8230000000002L231.75250000000005 476.00235L236.83549999999968 469.5319999999998L248.23149999999941 474.4866000000002L254.2904999999996 482.9566L263.98149999999987 479.3036999999998L267.9679999999996 479.88639999999975L272.3709999999994 484.4189499999999L270.6555000000003 492.4371500000001L277.5924999999995 499.61389999999994L284.58549999999946 503.4062L294.65349999999944 501.42004999999983L301.38799999999947 496.79219999999987L301.96450000000027 494.79179999999985L315.0840000000005 507.41055000000017L319.12149999999997 519.2651000000001L314.9890000000005 526.5620000000001L328.5940000000005 531.4855499999999L332.5274999999999 530.1262500000001L338.56649999999945 531.9500499999998L344.7365000000002 530.8796000000001L352.4950000000001 537.2710999999998L366.92750000000046 534.8440999999997L367.6274999999998 526.5559999999999L364.6505000000002 514.3542500000001L376.8475000000001 503.1851499999999L383.38750000000005 508.28665L387.37499999999955 509.2253499999998L397.19799999999964 505.8420000000001L399.5794999999998 500.2836000000002L404.9440000000004 494.6966500000002L410.6434999999999 497.04634999999996L420.6690000000003 495.9856500000001L427.6634999999999 502.9900500000002L429.8580000000004 499.38924999999983L436.1779999999999 499.1447499999998L445.0885000000005 493.66359999999986L448.36450000000013 485.9427499999998L462.21649999999954 481.6453999999999L473.8869999999997 486.0325L477.48950000000036 484.0260999999998L486.96950000000015 472.8598499999998L498.5794999999996 476.6996499999999L518.6784999999998 487.8556500000002L520.8624999999995 491.4817499999998L522.9840000000002 491.3684999999998L540.4600000000005 484.4575500000002L536.5425000000005 474.7077999999999L539.4359999999995 469.0527500000002L560.0334999999995 466.0247499999997L561.6155000000003 464.60379999999986L560.6589999999994 462.7022499999998L564.2549999999994 460.5563999999998L565.3414999999995 454.53840000000014L569.9784999999997 450.3462999999999L570.5885000000001 444.43870000000004L580.7039999999995 441.83929999999975L585.4869999999994 437.8344499999997L595.738 438.1892499999998L602.5635 433.5124000000002L606.6755 433.05499999999995L613.1444999999997 441.4996500000001L617.1865000000003 441.01819999999975L620.4390000000001 433.45145L632.2675000000004 421.4103499999999L638.5254999999995 420.5133000000001L642.3450000000003 415.4174999999998L640.5745000000002 404.95295L642.4069999999995 398.96569999999997L636.7759999999998 389.9221L634.9620000000004 381.5946500000001L632.3955000000001 378.1956500000001L631.97 371.94979999999987L641.3139999999999 369.46334999999976L642.5744999999995 359.0561500000001L652.8665000000001 351.95335L653.1015000000002 343.5543999999999L655.6820000000005 337.70640000000014L660.4020000000003 333.48185L663.2114999999999 325.40639999999996L662.4914999999999 323.38149999999985L654.8474999999996 319.5583499999998L648.7964999999997 313.544L633.1690000000003 306.79215L620.6775000000005 308.0525L615.1255000000003 311.13384999999994L603.1169999999997 307.88774999999987L601.3329999999996 309.0354500000001L597.8435000000002 316.75144999999986L592.6589999999999 320.37874999999985L588.9504999999997 327.75379999999984L588.2780000000002 338.1306000000001L584.1515000000004 347.6960500000001L579.8495000000003 347.4123500000002L571.8989999999997 340.75364999999977L561.5895 339.3511000000001L558.0290000000002 337.1485000000001L553.8715000000002 337.5460499999997L550.3639999999996 335.5654499999997L549.7490000000005 317.0015000000001L543.6009999999999 312.14819999999975L538.2365000000004 313.9024999999998L535.8450000000005 317.5070999999997L528.3495000000005 321.7118499999998L511.4390000000003 324.6012999999999L508.83050000000026 327.9341999999997L502.7525000000003 329.57085000000006L498.0250000000001 333.8056L496.88300000000027 337.7711499999998L499.4590000000005 343.46484999999973L497.1889999999996 347.0584500000001L491.0964999999999 352.95439999999985L486.95299999999975 353.80780000000016L478.46900000000005 360.02070000000003L478.9835000000005 368.31889999999987L475.1109999999994 373.2409999999999L475.47000000000025 377.48125000000016L470.7479999999998 389.29550000000006L465.25350000000003 392.2052500000001L461.0540000000003 391.7128500000001L451.2289999999996 394.7468500000002L449.4060000000002 400.68955000000017L451.0469999999998 406.5859499999999L442.1055000000001 406.3534499999997L438.11699999999973 405.3074499999997L433.8580000000002 400.9450499999997L432.00950000000034 401.85585000000003L427.9314999999997 402.3915999999997L425.1769999999999 399.26469999999995L421.6669999999999 401.3841500000001L419.11100000000033 409.1222499999998L400.8129999999994 408.8806999999997L386.7475000000002 416.88755000000015L381.5115000000003 413.2789500000001L375.61900000000037 404.64495L373.9620000000002 396.3501000000002L351.164 389.6471500000001L349.80800000000045 380.0287500000002L343.6699999999996 375.21705L341.7039999999997 375.34940000000006L339.298 365.43740000000014L336.36549999999943 362.5301999999999L333.0684999999994 362.2834999999998L329.18300000000045 357.8974499999998L328.17199999999957 357.5213000000002L330.539 345.5478499999998L325.86649999999963 336.7575999999997L324.94500000000016 332.7634499999999L326.6330000000005 329.15385000000015L334.4200000000001 315.10749999999973L334.8199999999997 311.11935000000017L332.21199999999953 310.54764999999975L322.68249999999966 307.70730000000015L310.64750000000004 300.53684999999973L315.3150000000005 288.0077499999999L320.2075000000002 274.6476999999999L318.895 270.6845499999997L319.91499999999974 268.8594999999998L322.5064999999995 261.23699999999985L327.67150000000015 255.26029999999992L331.8124999999998 243.98939999999982L331.1514999999997 240.5919L326.8119999999999 237.41190000000017L320.7339999999999 229.98935000000017L314.8270000000002 226.6778499999998L311.04100000000017 227.74204999999995L307.63199999999983 225.29305000000022L295.5740000000003 222.17719999999986L285.2909999999997 222.74065000000007L280.57800000000043 219.86805000000004L285.1260000000002 213.59440000000006L277.90200000000027 207.56685000000004L274.76099999999974 215.8384000000001L269.307 217.52779999999973L262.1289999999999 214.98694999999998L256.16949999999974 215.04284999999982L250.94100000000026 217.93225000000007z">
      <title id="t378">Troisième circonscription de Savoie</title>
      <desc id="d378">Cantons de : Aiguebelle, La Chambre, Chamoux-sur-Gelon, Lanslebourg-Mont-Cenis, Modane, Montmélian, La Ravoire, La Rochette, Saint-Jean-de-Maurienne, Saint-Michel-de-Maurienne</desc>
    </path><path class="circo" id="id-073-04" d="M105.31150000000025 224.0521000000001L97.71449999999959 226.66934999999967L93.83249999999975 219.9858499999999L87.74900000000002 221.1450000000002L82.27800000000002 218.72770000000003L83.63449999999943 226.27655000000004L87.63050000000021 236.97614999999985L82.86849999999959 253.45809999999972L82.44599999999991 253.84754999999984L81.57249999999976 255.1225999999997L89.72599999999943 255.3167000000002L95.02899999999954 257.9734000000002L97.93649999999957 252.57484999999974L101.01049999999987 257.3541499999999L99.55799999999954 265.1594499999999L102.654 270.1946499999997L104.28850000000011 269.11234999999976L105.67999999999984 270.5347999999998L114.81049999999982 268.9298500000001L117.33349999999973 265.6075499999997L123.44799999999964 264.32559999999967L128.6035000000004 257.73505L130.44599999999946 245.93649999999968L128.18250000000035 242.4457000000001L130.16449999999963 237.78390000000002L132.8679999999997 230.29344999999978L134.61000000000013 229.33009999999967L134.51749999999947 225.3549499999997L138.78199999999993 223.88449999999978L147.6744999999994 221.8778500000002L148.64100000000008 223.44069999999988L148.7239999999997 231.09714999999994L156.88949999999977 227.67589999999984L159.3520000000001 233.3490999999998L159.35950000000048 239.62760000000003L161.9545000000005 236.73519999999996L166.56950000000052 242.6592999999997L171.0355000000004 245.58699999999988L174.18199999999956 257.48335L176.09649999999988 257.8466500000002L189.19099999999958 252.1289999999999L191.48649999999975 254.8866499999997L196.3900000000001 261.04715L205.81099999999992 254.18115L209.90350000000035 246.1257999999998L224.45299999999975 239.18094999999994L223.7175000000002 237.80635000000018L233.42200000000048 233.5639500000002L239.28649999999948 227.77240000000006L238.21950000000015 225.97300000000018L243.18250000000035 222.16869999999972L250.94100000000026 217.93225000000007L256.16949999999974 215.04284999999982L262.1289999999999 214.98694999999998L269.307 217.52779999999973L274.76099999999974 215.8384000000001L277.90200000000027 207.56685000000004L285.1260000000002 213.59440000000006L280.57800000000043 219.86805000000004L285.2909999999997 222.74065000000007L295.5740000000003 222.17719999999986L307.63199999999983 225.29305000000022L311.04100000000017 227.74204999999995L314.8270000000002 226.6778499999998L319.6645000000001 217.33045000000004L324.1605000000004 210.56069999999977L325.7655 204.29570000000012L309.48549999999955 191.03529999999978L310.43450000000007 186.92385000000002L308.0600000000004 183.43124999999986L306.88499999999976 183.4525500000001L298.1809999999996 174.8757999999998L300.92700000000036 171.7802499999999L299.3515000000002 170.03139999999973L292.1429999999998 162.5248499999998L290.79349999999977 149.70394999999996L279.03850000000034 154.65644999999995L270.68449999999984 153.54739999999993L269.6135000000004 155.40534999999977L263.5145 154.47879999999998L257.5580000000002 155.94434999999976L258.3675000000005 143.7435499999998L256.9005000000004 142.9870999999997L250.9884999999997 139.95259999999973L250.28800000000047 143.87864999999977L245.0210000000004 146.23614999999972L243.2910000000004 149.82379999999978L240.6359999999995 144.91199999999992L241.48050000000012 133.18024999999977L243.0219999999997 125.74225000000013L237.6355000000001 125.17290000000003L235.30099999999948 122.27930000000015L235.7269999999994 116.71485000000018L230.3959999999995 115.2652999999998L230.56299999999965 111.49490000000014L218.39799999999968 108.08170000000018L217.12800000000016 111.82444999999973L213.5820000000001 114.06540000000007L203.74500000000012 106.79194999999993L203.51300000000037 122.63494999999978L203.1619999999998 124.60784999999987L201.21149999999943 124.97014999999976L200.7695000000001 119.3549999999999L192.63950000000023 120.49564999999973L183.32149999999956 115.47300000000007L181.26250000000027 116.08994999999993L177.86950000000047 121.52359999999987L174.5354999999995 130.16860000000008L173.51850000000013 136.30665000000022L167.78050000000007 147.2852499999999L166.98499999999967 155.3852999999998L161.31799999999998 161.1709000000002L158.84050000000002 160.3697999999997L151.2315000000001 156.12259999999992L148.9969999999994 155.9668499999998L149.80199999999968 159.99329999999986L147.56999999999948 165.74099999999987L145.67300000000046 166.52434999999969L145.25549999999953 179.12734999999998L141.49649999999951 178.45984999999985L133.85400000000004 198.11395000000005L130.31600000000026 196.39925000000005L122.6985000000002 180.1961L121.43550000000005 183.365L118.32199999999943 184.59164999999985L119.21299999999974 193.04744999999969L116.56500000000051 196.361L110.80000000000041 197.16729999999984L113.83100000000013 206.96849999999984L111.9010000000003 212.61660000000006L106.81100000000015 215.9489000000002L105.31150000000025 224.0521000000001z">
      <title id="t379">Quatrième circonscription de Savoie</title>
      <desc id="d379"> Cantons de : Chambéry Est, Chambéry Nord, Chambéry Sud, Chambéry Sud-Ouest, Le Châtelard, Cognin, Grésy-sur-Isère, Saint-Alban-Leysse, Saint-Pierre-d'Albigny</desc>
    </path></svg>