<svg xmlns="http://www.w3.org/2000/svg" version="1.1" xmlns:xlink="http://www.w3.org/1999/xlink" xmlns:svgjs="http://svgjs.dev/svgjs" width="525.5600000000004" height="444.0242999999998" fill="#eeeeee" stroke="#cccccc" xmlns:sodipodi="http://sodipodi.sourceforge.net/DTD/sodipodi-0.dtd"><path class="circo" id="id-074-01" d="M53.63350000000082 367.64189999999985L46.10550000000103 370.1197000000002L42.17800000000011 365.38704999999993L41.80600000000027 357.00980000000015L33.57349999999997 356.5365000000003L31.75450000000069 355.49170000000004L32.20150000000103 353.44105000000013L28.930500000000166 350.8808499999998L28.88050000000021 348.78480000000025L31.08100000000036 335.5708499999997L30.0120000000004 333.91444999999976L26.072000000000344 312.3766499999999L25.615000000000236 309.0853499999997L24.290500000000748 301.41380000000026L25.64200000000028 300.0099L24.068000000000893 291.7820999999998L28.610000000001037 283.98990000000026L31.757000000000062 283.4990499999998L37.58200000000102 272.97079999999994L45.69500000000062 277.9914000000002L48.45800000000054 282.5834500000002L49.13350000000037 288.08850000000007L54.320000000000164 288.1049999999999L54.33800000000019 281.68425000000013L66.34250000000065 273.54555000000005L69.66350000000034 271.2465500000002L77.54650000000083 272.8008L77.25150000000099 269.26355L79.11050000000046 266.29219999999975L75.41600000000017 254.27385000000015L73.28300000000013 250.93470000000025L73.63550000000032 246.97294999999997L73.12250000000063 244.97385000000008L78.54400000000055 242.00890000000015L84.0280000000007 245.53189999999972L94.18750000000045 245.62369999999987L98.33250000000021 245.4689000000002L100.83600000000047 242.10804999999993L104.75300000000061 241.02975000000015L113.48299999999995 246.97234999999978L115.37750000000074 246.02084999999988L114.28800000000024 249.87685L116.52100000000019 253.22834999999998L118.49250000000097 252.69364999999993L119.29250000000025 248.67214999999987L122.97750000000065 247.89080000000013L124.69650000000001 257.90444999999977L129.07750000000078 261.77565000000016L134.65700000000083 260.31015000000025L136.54250000000047 259.9939499999999L135.65850000000069 254.40724999999986L137.40100000000098 244.38024999999982L140.453500000001 243.78485000000012L146.3435000000004 235.1515999999998L146.86599999999999 231.00189999999998L155.5830000000003 225.91184999999996L165.0630000000001 222.5484499999999L164.83249999999998 218.58765000000005L167.9785000000004 213.56555000000014L167.56150000000048 209.73419999999976L172.49500000000012 209.79174999999998L175.3920000000005 207.43085000000008L187.58800000000065 211.82970000000012L184.35350000000085 214.36300000000017L184.4500000000005 216.43680000000018L189.31050000000027 227.4982L189.93550000000027 229.81915000000015L197.17550000000074 233.8986L203.1675000000007 231.95809999999994L209.40050000000042 232.3014999999998L229.77100000000064 246.99619999999982L231.39900000000011 255.40864999999997L222.24750000000085 267.32995000000017L229.00550000000067 280.96844999999973L225.84600000000023 286.35460000000023L216.40100000000075 282.18185000000005L206.4855 296.27324999999985L194.615 305.1499000000001L190.34000000000106 304.7583500000002L185.28400000000033 314.1879499999999L193.52600000000052 315.8660500000002L196.81500000000028 321.2411500000002L196.23649999999998 325.2943499999998L192.60600000000068 330.4806000000002L192.1270000000004 336.66020000000003L194.520500000001 339.6357499999999L193.6175000000003 345.32865000000015L203.82000000000062 354.37914999999975L204.23450000000003 356.67250000000024L203.70050000000106 358.7169L201.63049999999998 359.08705L196.6700000000003 355.6923499999999L192.64700000000062 355.99244999999996L185.72050000000104 363.3790499999998L185.13950000000023 369.6691500000003L177.423500000001 371.93465000000003L174.21850000000063 359.84024999999974L170.41850000000068 350.5764499999998L164.27400000000034 350.7612999999998L156.4765 341.456L152.35850000000028 333.9528999999999L149.02300000000082 322.0409999999998L146.01550000000088 313.27560000000005L137.68950000000018 296.71985000000006L135.9845000000007 295.54550000000006L135.385 308.26840000000004L134.538 308.28250000000025L135.0045 309.91989999999987L130.7210000000009 310.8766000000003L130.15800000000013 309.58984999999984L131.87900000000013 306.0081500000001L128.48299999999995 301.52499999999975L123.01500000000033 306.9243499999999L119.16050000000041 306.7178999999999L118.61200000000053 310.2409L113.13550000000077 309.98865000000023L110.19100000000094 307.5455499999998L107.1180000000004 312.11524999999995L104.46950000000015 314.77480000000014L96.94450000000074 316.1952000000002L91.88150000000064 314.3387999999999L91.27150000000029 323.2729999999998L94.79850000000056 331.57744999999977L96.62800000000061 340.48580000000015L93.56200000000058 342.2651000000002L89.23400000000015 338.77779999999973L84.92050000000063 342.51649999999984L79.86300000000028 350.02625000000023L79.59950000000049 351.9184999999999L88.84250000000065 354.3822L88.93050000000017 356.3858499999998L80.49000000000092 361.26239999999996L68.29850000000079 359.7622000000001L66.86000000000035 364.8297500000001L60.56100000000015 366.1809499999998L54.67800000000011 363.69129999999984L53.63350000000082 367.64189999999985z">
      <title id="t380">Première circonscription de Haute-Savoie</title>
      <desc id="d380">Cantons de : Annecy Nord-Ouest, Annecy-le-Vieux, Rumilly, Thorens-Glières</desc>
    </path><path class="circo" id="id-074-02" d="M68.29850000000079 359.7622000000001L66.86000000000035 364.8297500000001L64.85500000000002 375.6922500000002L74.41000000000031 374.9272000000002L75.10250000000042 382.8570000000002L71.71550000000025 387.7755000000002L71.64050000000088 391.6763500000002L80.23750000000064 395.0114500000001L80.04400000000032 404.46714999999983L85.88500000000067 402.6265000000001L100.63450000000103 409.6035499999999L104.02750000000083 404.1699L106.08650000000011 403.5529500000001L115.40450000000078 408.5755999999998L123.53450000000066 407.43494999999996L123.97649999999999 413.0500999999998L125.92700000000036 412.6877999999999L126.27800000000093 410.71489999999983L126.51000000000067 394.8719L136.34700000000066 402.1453500000001L139.8930000000007 399.9043999999998L141.16300000000024 396.16165000000024L153.3280000000002 399.5748500000002L153.16100000000006 403.34524999999985L158.49199999999996 404.79480000000024L158.06600000000003 410.3592500000002L160.40050000000065 413.2528500000001L165.78700000000026 413.8222000000002L164.24550000000067 421.2601999999998L163.40100000000007 432.99195L166.05600000000095 437.90374999999983L167.78600000000097 434.3160999999998L173.05300000000102 431.9585999999998L173.75350000000026 428.0325499999998L179.66550000000097 431.06704999999977L181.13250000000107 431.82349999999985L180.32300000000077 444.0242999999998L186.27950000000055 442.55875000000003L192.37850000000094 443.4852999999998L193.4495000000004 441.62735L201.8035000000009 442.7364L213.55850000000032 437.7839L221.81600000000003 437.8136999999998L229.8070000000007 419.06920000000014L231.8915000000004 415.68960000000004L231.90200000000004 415.5806000000001L232.67450000000053 413.86235L230.44350000000009 410.87564999999984L240.11900000000082 401.2761499999999L241.9010000000003 395.28009999999995L237.0875000000001 392.1253999999999L249.8180000000002 381.79719999999975L261.2315000000001 371.2152500000002L263.11950000000024 370.24220000000014L266.3480000000004 360.1933500000001L271.4625000000001 353.4575000000001L273.8220000000001 348.48585000000014L271.8360000000007 345.2584999999999L275.7075000000009 338.8070499999998L274.25350000000094 335.18939999999986L277.88400000000024 333.04415000000006L283.2135000000005 321.1685L293.2140000000004 317.0543500000002L299.88500000000045 306.04420000000005L301.75100000000043 301.84874999999977L308.288 296.5579500000001L312.30300000000057 284.9666000000002L318.88200000000097 277.4943999999999L311.82950000000005 272.70114999999976L305.9025000000008 261.59764999999993L297.5800000000004 263.3817499999998L291.336500000001 261.7915499999998L278.29450000000065 251.0369000000003L277.6335000000006 250.94145000000026L260.6720000000007 268.97245L258.8480000000004 272.8008L254.73550000000046 282.45810000000006L256.3990000000001 286.16634999999974L253.38850000000093 291.57185000000027L246.9360000000006 286.85945000000004L241.07450000000085 288.4857499999998L231.58900000000017 294.7946000000002L224.50800000000072 288.92515000000003L225.84600000000023 286.35460000000023L216.40100000000075 282.18185000000005L206.4855 296.27324999999985L194.615 305.1499000000001L190.34000000000106 304.7583500000002L185.28400000000033 314.1879499999999L193.52600000000052 315.8660500000002L196.81500000000028 321.2411500000002L196.23649999999998 325.2943499999998L192.60600000000068 330.4806000000002L192.1270000000004 336.66020000000003L194.520500000001 339.6357499999999L193.6175000000003 345.32865000000015L203.82000000000062 354.37914999999975L204.23450000000003 356.67250000000024L203.70050000000106 358.7169L201.63049999999998 359.08705L196.6700000000003 355.6923499999999L192.64700000000062 355.99244999999996L185.72050000000104 363.3790499999998L185.13950000000023 369.6691500000003L177.423500000001 371.93465000000003L174.21850000000063 359.84024999999974L170.41850000000068 350.5764499999998L164.27400000000034 350.7612999999998L156.4765 341.456L152.35850000000028 333.9528999999999L149.02300000000082 322.0409999999998L146.01550000000088 313.27560000000005L137.68950000000018 296.71985000000006L135.9845000000007 295.54550000000006L135.385 308.26840000000004L134.538 308.28250000000025L135.0045 309.91989999999987L130.7210000000009 310.8766000000003L130.15800000000013 309.58984999999984L131.87900000000013 306.0081500000001L128.48299999999995 301.52499999999975L123.01500000000033 306.9243499999999L119.16050000000041 306.7178999999999L118.61200000000053 310.2409L113.13550000000077 309.98865000000023L110.19100000000094 307.5455499999998L107.1180000000004 312.11524999999995L104.46950000000015 314.77480000000014L96.94450000000074 316.1952000000002L91.88150000000064 314.3387999999999L91.27150000000029 323.2729999999998L94.79850000000056 331.57744999999977L96.62800000000061 340.48580000000015L93.56200000000058 342.2651000000002L89.23400000000015 338.77779999999973L84.92050000000063 342.51649999999984L79.86300000000028 350.02625000000023L79.59950000000049 351.9184999999999L88.84250000000065 354.3822L88.93050000000017 356.3858499999998L80.49000000000092 361.26239999999996L68.29850000000079 359.7622000000001z">
      <title id="t381">Deuxième circonscription de Haute-Savoie</title>
      <desc id="d381">Cantons de: Alby-sur-Chéran, Annecy Centre, Annecy Nord-Est, Faverges, Seynod, Thônes</desc>
    </path><path class="circo" id="id-074-03" d="M232.68150000000105 117.9122000000001L233.4355000000005 109.6226999999999L235.40200000000027 105.81885L243.5355000000004 103.0549000000002L248.38350000000105 97.35304999999983L259.6595000000002 92.23419999999976L263.47350000000006 96.36720000000025L268.11300000000074 92.65285000000006L272.509500000001 93.02225000000021L272.77600000000007 93.11689999999999L275.4570000000001 90.39805000000001L278.415500000001 80.84125000000029L287.7010000000007 81.74395000000004L292.08450000000084 87.57999999999981L289.8610000000008 93.03330000000017L290.71050000000014 94.81094999999982L293.6450000000002 100.52000000000021L290.52400000000034 108.31279999999992L290.462 110.60265000000015L292.60000000000105 110.56455000000028L297.0830000000001 106.30055000000027L303.20350000000076 106.46830000000023L306.3970000000006 118.67200000000025L316.31650000000036 118.74689999999987L319.57200000000057 124.15894999999978L319.7945000000004 128.41454999999996L316.3300000000004 133.45484999999996L314.7810000000004 141.44200000000012L305.9935000000007 146.92774999999983L297.90950000000066 149.31005000000027L290.19550000000095 146.31770000000017L287.2620000000006 149.32354999999973L285.8095000000003 150.89695000000006L285.6955000000005 157.24620000000016L294.87550000000056 173.6593499999998L307.4465000000009 185.32320000000027L313.1540000000007 186.51914999999974L318.999 185.50099999999986L316.653 189.06420000000026L320.04600000000096 194.44354999999973L319.448000000001 198.67005000000006L317.83300000000054 203.73910000000024L314.7795000000008 205.67754999999977L310.78250000000025 205.3264999999999L307.24750000000085 204.36154999999985L301.7145000000005 205.99120000000028L298.44550000000027 212.80790000000025L298.2420000000002 214.92464999999982L302.51600000000053 219.42664999999977L297.50150000000076 233.38075000000003L299.3855000000008 237.15554999999995L286.884500000001 245.43769999999995L280.69000000000074 247.40859999999998L278.29450000000065 251.0369000000003L277.6335000000006 250.94145000000026L260.6720000000007 268.97245L258.8480000000004 272.8008L254.73550000000046 282.45810000000006L256.3990000000001 286.16634999999974L253.38850000000093 291.57185000000027L246.9360000000006 286.85945000000004L241.07450000000085 288.4857499999998L231.58900000000017 294.7946000000002L224.50800000000072 288.92515000000003L225.84600000000023 286.35460000000023L229.00550000000067 280.96844999999973L222.24750000000085 267.32995000000017L231.39900000000011 255.40864999999997L229.77100000000064 246.99619999999982L209.40050000000042 232.3014999999998L203.1675000000007 231.95809999999994L197.17550000000074 233.8986L189.93550000000027 229.81915000000015L189.31050000000027 227.4982L184.4500000000005 216.43680000000018L184.35350000000085 214.36300000000017L187.58800000000065 211.82970000000012L175.3920000000005 207.43085000000008L172.49500000000012 209.79174999999998L167.56150000000048 209.73419999999976L167.9785000000004 213.56555000000014L164.83249999999998 218.58765000000005L165.0630000000001 222.5484499999999L155.5830000000003 225.91184999999996L146.86599999999999 231.00189999999998L146.3435000000004 235.1515999999998L140.453500000001 243.78485000000012L137.40100000000098 244.38024999999982L135.65850000000069 254.40724999999986L136.54250000000047 259.9939499999999L134.65700000000083 260.31015000000025L129.07750000000078 261.77565000000016L124.69650000000001 257.90444999999977L122.97750000000065 247.89080000000013L119.29250000000025 248.67214999999987L118.49250000000097 252.69364999999993L116.52100000000019 253.22834999999998L114.28800000000024 249.87685L115.37750000000074 246.02084999999988L113.48299999999995 246.97234999999978L104.75300000000061 241.02975000000015L100.83600000000047 242.10804999999993L98.33250000000021 245.4689000000002L94.18750000000045 245.62369999999987L96.07150000000047 242.3651000000001L88.62800000000107 239.34365000000014L87.8710000000001 237.41755000000012L94.12050000000022 229.5485500000001L93.82450000000063 226.07775000000004L93.98400000000038 216.2831L92.90550000000053 214.55840000000023L87.11200000000076 213.55819999999994L89.94850000000042 204.66909999999984L94.16550000000029 201.02665000000002L99.75900000000024 202.84884999999974L105.50950000000057 201.29380000000026L104.76950000000102 198.92375000000015L112.53900000000044 197.0118500000001L114.89250000000084 199.89800000000002L122.22000000000094 202.66995000000009L122.48350000000073 204.66790000000003L127.22750000000019 209.15039999999976L134.62950000000092 204.39155000000028L136.58550000000105 201.95674999999994L136.5700000000004 201.65284999999983L146.13699999999994 189.30999999999983L148.039500000001 188.6737499999998L151.9780000000003 181.75470000000018L155.50100000000043 177.26060000000018L156.6915000000006 169.1187500000001L160.76900000000023 164.59045000000003L164.56150000000093 157.57934999999975L163.6245000000008 155.80505000000016L169.21150000000011 149.4401499999998L178.583000000001 144.83985000000018L186.75950000000057 147.00139999999976L185.46950000000038 150.22809999999993L194.0835000000004 158.58000000000004L201.89400000000091 157.22415000000012L205.79400000000078 158.59775000000013L206.06550000000084 153.14030000000002L217.2225000000003 151.55169999999998L228.47300000000018 147.9244L231.30800000000022 134.07555000000002L231.43150000000105 132.2048000000001L230.5505000000005 128.37710000000015L232.86200000000008 120.82595000000026L233.28550000000064 119.54844999999978L232.68150000000105 117.9122000000001z">
      <title id="t382">Troisième circonscription de Haute-Savoie</title>
      <desc id="d382">Cantons de : Boëge, Bonneville, Cruseilles, Reignier, La Roche-sur-Foron, Saint-Jeoire</desc>
    </path><path class="circo" id="id-074-04" d="M173.73649999999998 131.67370000000005L161.7750000000001 141.23454999999979L162.72100000000023 147.4457000000001L157.1810000000005 153.48144999999988L147.60600000000068 157.37630000000024L145.1750000000004 160.57380000000023L140.22850000000062 163.87035000000026L136.49400000000014 164.40155000000004L124.25300000000107 161.37985000000015L121.63250000000062 158.07014999999978L106.92100000000096 157.86585000000002L103.53050000000053 159.90695000000017L102.99950000000081 164.10955L97.70200000000045 167.03899999999976L90.29800000000023 163.27715000000012L79.92050000000063 162.32270000000028L75.83950000000073 163.30050000000028L74.33100000000081 167.21744999999999L64.52550000000087 172.07600000000014L64.00300000000016 169.53640000000007L59.397500000000036 172.05449999999985L55.882500000000164 171.6467L52.04450000000065 172.04529999999977L48.84700000000066 170.18034999999998L43.06500000000028 175.39285000000007L38.828000000000884 177.0926000000003L37.2115000000008 177.61374999999987L34.3220000000008 183.31369999999993L37.304000000000315 190.90174999999988L35.922500000000355 197.0859999999999L25.836500000000342 198.07504999999992L21.469500000000608 197.3807499999998L13.914500000000771 187.6476500000001L10.277500000000828 185.73820000000012L6.485500000000002 187.4135000000001L6.894000000000915 195.40264999999977L2.527500000001055 202.42975L1.106000000000904 213.19254999999998L3.4605000000010477 217.2115500000001L0.6480000000010477 223.6218500000001L1.643500000000131 230.2831500000002L2.9015000000003965 235.88244999999972L0 240.81979999999987L2.1604999999999563 245.46215000000018L2.0050000000003365 254.49284999999975L2.8970000000003893 258.6146500000001L12.136000000000422 267.5592999999998L11.607999999999947 273.8659000000001L12.464000000001079 279.55944999999986L11.083000000000993 285.1664499999998L8.387000000000171 287.81225000000006L10.94600000000014 288.07995000000005L12.83200000000079 291.5125999999998L24.068000000000893 291.7820999999998L28.610000000001037 283.98990000000026L31.757000000000062 283.4990499999998L37.58200000000102 272.97079999999994L45.69500000000062 277.9914000000002L48.45800000000054 282.5834500000002L49.13350000000037 288.08850000000007L54.320000000000164 288.1049999999999L54.33800000000019 281.68425000000013L66.34250000000065 273.54555000000005L69.66350000000034 271.2465500000002L77.54650000000083 272.8008L77.25150000000099 269.26355L79.11050000000046 266.29219999999975L75.41600000000017 254.27385000000015L73.28300000000013 250.93470000000025L73.63550000000032 246.97294999999997L73.12250000000063 244.97385000000008L78.54400000000055 242.00890000000015L84.0280000000007 245.53189999999972L94.18750000000045 245.62369999999987L96.07150000000047 242.3651000000001L88.62800000000107 239.34365000000014L87.8710000000001 237.41755000000012L94.12050000000022 229.5485500000001L93.82450000000063 226.07775000000004L93.98400000000038 216.2831L92.90550000000053 214.55840000000023L87.11200000000076 213.55819999999994L89.94850000000042 204.66909999999984L94.16550000000029 201.02665000000002L99.75900000000024 202.84884999999974L105.50950000000057 201.29380000000026L104.76950000000102 198.92375000000015L112.53900000000044 197.0118500000001L114.89250000000084 199.89800000000002L122.22000000000094 202.66995000000009L122.48350000000073 204.66790000000003L127.22750000000019 209.15039999999976L134.62950000000092 204.39155000000028L136.58550000000105 201.95674999999994L136.5700000000004 201.65284999999983L146.13699999999994 189.30999999999983L148.039500000001 188.6737499999998L151.9780000000003 181.75470000000018L155.50100000000043 177.26060000000018L156.6915000000006 169.1187500000001L160.76900000000023 164.59045000000003L164.56150000000093 157.57934999999975L163.6245000000008 155.80505000000016L169.21150000000011 149.4401499999998L178.583000000001 144.83985000000018L186.75950000000057 147.00139999999976L185.46950000000038 150.22809999999993L194.0835000000004 158.58000000000004L201.89400000000091 157.22415000000012L205.79400000000078 158.59775000000013L206.06550000000084 153.14030000000002L217.2225000000003 151.55169999999998L228.47300000000018 147.9244L231.30800000000022 134.07555000000002L231.43150000000105 132.2048000000001L230.5505000000005 128.37710000000015L232.86200000000008 120.82595000000026L233.28550000000064 119.54844999999978L232.68150000000105 117.9122000000001L233.4355000000005 109.6226999999999L230.25750000000016 106.99490000000026L227.6730000000009 93.27609999999993L226.73950000000104 91.45230000000026L222.86950000000047 90.76200000000028L221.36050000000068 87.10784999999987L215.25050000000078 88.46220000000017L209.2100000000005 87.23880000000008L208.00550000000044 88.17510000000027L208.0200000000002 92.34179999999981L213.80750000000035 94.05860000000018L214.07100000000014 101.75765000000013L207.83050000000003 112.54889999999989L200.13900000000035 118.50059999999985L188.49750000000085 124.11720000000003L182.06250000000068 124.17309999999986L180.4785000000004 125.67459999999983L173.73649999999998 131.67370000000005z">
      <title id="t383">Quatrième circonscription de Haute-Savoie</title>
      <desc id="d383">Cantons de : Annemasse Nord, Annemasse Sud, Frangy, Saint-Julien-en-Genevois, Seyssel</desc>
    </path><path class="circo" id="id-074-05" d="M424.2010000000005 125.93864999999994L431.66600000000017 112.93344999999988L432.12600000000066 108.65749999999991L437.14700000000107 104.73059999999975L439.8595 98.90735000000006L445.920000000001 93.20299999999975L449.7750000000008 78.8366000000002L449.6980000000008 76.68115L446.21350000000007 71.40355L444.31350000000066 72.39750000000015L436.10450000000014 66.12945000000025L432.3225000000002 58.595750000000066L423.1690000000003 53.45869999999991L421.15650000000073 47.45240000000024L417.12600000000066 46.375850000000014L411.9225000000006 37.30160000000012L410.47900000000027 29.382699999999886L415.136500000001 25.381300000000238L419.23200000000065 25.034499999999866L423.07000000000016 20.149850000000242L425.29100000000085 17.125050000000215L423.46000000000004 12.026050000000055L424.8930000000007 8.484750000000076L418.442500000001 9.045500000000288L404.6255000000008 3.2211000000000922L387.4700000000007 0L385.2260000000001 0.13314999999977317L354.12000000000035 1.4910500000002003L346.001500000001 2.68304999999998L343.64250000000084 2.802599999999984L324.1865000000007 5.914349999999899L313.93650000000093 8.017050000000268L300.73850000000107 1.8756500000000642L289.23650000000066 8.152000000000044L287.28500000000054 16.529300000000262L284.52350000000024 19.910849999999982L270.92050000000086 27.019000000000233L265.0380000000007 29.57605000000001L258.60550000000103 29.912299999999732L254.53000000000088 34.880549999999744L252.35000000000014 35.79124999999976L248.7620000000004 41.16859999999974L246.61249999999995 41.37605000000008L236.7820000000006 36.99745000000007L231.05400000000031 24.908849999999916L228.68900000000053 23.509450000000243L221.56400000000076 22.274449999999888L216.96300000000065 24.0453500000001L211.2295000000006 25.652900000000045L206.53050000000007 30.090900000000147L200.54700000000025 36.1674499999998L197.16100000000097 43.82249999999999L192.39550000000008 51.16930000000025L189.0255000000002 61.47775000000024L185.26300000000106 63.59604999999988L188.24050000000057 65.92579999999998L189.72900000000095 71.52535L189.3990000000008 73.64604999999983L184.10600000000045 77.28504999999984L184.1795000000002 81.57795000000021L193.74750000000063 95.63024999999982L195.09250000000065 97.2983499999998L197.09850000000074 98.05184999999994L200.91499999999996 96.15025000000003L208.00550000000044 88.17510000000027L209.2100000000005 87.23880000000008L215.25050000000078 88.46220000000017L221.36050000000068 87.10784999999987L222.86950000000047 90.76200000000028L226.73950000000104 91.45230000000026L227.6730000000009 93.27609999999993L230.25750000000016 106.99490000000026L233.4355000000005 109.6226999999999L235.40200000000027 105.81885L243.5355000000004 103.0549000000002L248.38350000000105 97.35304999999983L259.6595000000002 92.23419999999976L263.47350000000006 96.36720000000025L268.11300000000074 92.65285000000006L272.509500000001 93.02225000000021L272.77600000000007 93.11689999999999L275.4570000000001 90.39805000000001L278.415500000001 80.84125000000029L287.7010000000007 81.74395000000004L292.08450000000084 87.57999999999981L289.8610000000008 93.03330000000017L290.71050000000014 94.81094999999982L293.6450000000002 100.52000000000021L290.52400000000034 108.31279999999992L290.462 110.60265000000015L292.60000000000105 110.56455000000028L297.0830000000001 106.30055000000027L303.20350000000076 106.46830000000023L306.3970000000006 118.67200000000025L316.31650000000036 118.74689999999987L319.57200000000057 124.15894999999978L319.7945000000004 128.41454999999996L321.05999999999995 134.63174999999978L318.125 140.04925000000014L319.07350000000065 141.7685499999999L324.77300000000014 144.15120000000002L326.468000000001 148.01215000000013L331.2485000000004 144.97119999999995L335.4410000000007 144.58145000000002L338.8990000000001 135.12290000000007L344.058500000001 131.93404999999984L349.85250000000065 133.1196L355.46800000000076 130.60659999999984L359.9605000000008 134.27385000000015L369.77250000000026 131.70380000000023L371.5350000000001 132.7100999999999L371.41500000000065 133.39650000000006L377.1900000000005 141.9348500000001L377.84950000000094 152.14504999999974L386.3560000000007 163.80040000000008L390.41650000000004 163.13544999999976L393.4260000000006 165.94904999999983L399.15350000000103 159.75109999999972L405.16800000000103 160.66885000000013L412.3000000000002 156.53025000000014L418.6155000000008 155.90505000000007L419.9335000000008 149.80034999999987L425.8045000000004 141.46410000000003L427.77000000000044 138.10580000000016L425.71050000000014 130.34625000000005L424.2010000000005 125.93864999999994z">
      <title id="t384">Cinquième circonscription de Haute-Savoie</title>
      <desc id="d384">Cantons de : Abondance, Le Biot, Douvaine, Evian-les-Bains, Thonon-les-Bains Est, Thonon-les-Bains Ouest</desc>
    </path><path class="circo" id="id-074-06" d="M491.9225000000006 231.7622L486.9170000000008 220.0610499999999L481.327500000001 217.2464500000001L480.5765000000008 211.1014L474.57550000000083 212.0055000000002L469.23950000000104 218.62009999999998L460.0750000000005 223.57595000000003L453.55600000000095 218.58949999999993L456.93250000000035 208.43489999999974L460.9590000000003 203.56875000000002L458.85350000000017 191.16100000000017L462.2840000000008 185.6830500000001L463.972500000001 175.1096000000001L445.077 172.84069999999986L437.44950000000017 169.44320000000005L429.1515000000004 171.23460000000023L426.7325000000005 167.89949999999976L421.51200000000017 165.74479999999994L418.6155000000008 155.90505000000007L412.3000000000002 156.53025000000014L405.16800000000103 160.66885000000013L399.15350000000103 159.75109999999972L393.4260000000006 165.94904999999983L390.41650000000004 163.13544999999976L386.3560000000007 163.80040000000008L377.84950000000094 152.14504999999974L377.1900000000005 141.9348500000001L371.41500000000065 133.39650000000006L371.5350000000001 132.7100999999999L369.77250000000026 131.70380000000023L359.9605000000008 134.27385000000015L355.46800000000076 130.60659999999984L349.85250000000065 133.1196L344.058500000001 131.93404999999984L338.8990000000001 135.12290000000007L335.4410000000007 144.58145000000002L331.2485000000004 144.97119999999995L326.468000000001 148.01215000000013L324.77300000000014 144.15120000000002L319.07350000000065 141.7685499999999L318.125 140.04925000000014L321.05999999999995 134.63174999999978L319.7945000000004 128.41454999999996L316.3300000000004 133.45484999999996L314.7810000000004 141.44200000000012L305.9935000000007 146.92774999999983L297.90950000000066 149.31005000000027L290.19550000000095 146.31770000000017L287.2620000000006 149.32354999999973L285.8095000000003 150.89695000000006L285.6955000000005 157.24620000000016L294.87550000000056 173.6593499999998L307.4465000000009 185.32320000000027L313.1540000000007 186.51914999999974L318.999 185.50099999999986L316.653 189.06420000000026L320.04600000000096 194.44354999999973L319.448000000001 198.67005000000006L317.83300000000054 203.73910000000024L314.7795000000008 205.67754999999977L310.78250000000025 205.3264999999999L307.24750000000085 204.36154999999985L301.7145000000005 205.99120000000028L298.44550000000027 212.80790000000025L298.2420000000002 214.92464999999982L302.51600000000053 219.42664999999977L297.50150000000076 233.38075000000003L299.3855000000008 237.15554999999995L286.884500000001 245.43769999999995L280.69000000000074 247.40859999999998L278.29450000000065 251.0369000000003L291.336500000001 261.7915499999998L297.5800000000004 263.3817499999998L305.9025000000008 261.59764999999993L311.82950000000005 272.70114999999976L318.88200000000097 277.4943999999999L312.30300000000057 284.9666000000002L308.288 296.5579500000001L301.75100000000043 301.84874999999977L299.88500000000045 306.04420000000005L301.9800000000009 309.6613000000002L309.1330000000005 313.41115L319.23050000000103 315.6938500000001L320.2985000000001 319.6335499999998L325.2260000000001 323.3902499999999L326.1715000000004 325.2821499999999L323.50900000000024 328.3692000000002L324.16450000000054 334.51745000000017L310.19700000000057 334.78905L313.9575000000002 342.40605000000016L317.5890000000004 356.53160000000014L323.04500000000075 363.01805L324.5525000000009 361.66245000000004L328.2280000000003 363.0168500000002L331.21900000000096 372.22725000000025L337.333000000001 377.24845000000016L338.39950000000044 375.5995999999999L348.06600000000003 375.01075000000014L353.4095000000002 372.5533999999999L362.9105000000004 372.49975000000006L364.39250000000015 376.57489999999996L375.1940000000002 390.06719999999973L374.66499999999996 400.6030500000003L379.52100000000087 407.01900000000023L375.76400000000035 416.35569999999973L385.2645000000007 419.5525500000002L397.3670000000004 405.25525000000016L398.41499999999996 401.1433499999998L404.69350000000077 392.60609999999986L414.88950000000045 390.72159999999997L423.75600000000077 385.77675L424.33400000000006 379.55730000000017L427.6550000000009 374.16825000000017L427.7890000000002 367.74369999999976L425.69200000000023 364.19010000000014L424.67050000000086 362.40340000000003L431.86000000000035 350.03355L439.74000000000046 348.1790000000001L445.5690000000004 349.9383999999998L448.77700000000004 352.73529999999994L450.6580000000008 356.5340500000002L452.42950000000064 355.2794499999999L453.99400000000014 346.7166500000002L456.4840000000004 343.33534999999983L468.7880000000007 346.5573999999998L481.22100000000046 343.6239499999999L488.5215000000005 335.6770499999999L504.6505000000002 329.4978500000002L506.1975000000007 327.9748999999998L508.93350000000055 322.04769999999996L511.4790000000005 309.4756000000001L516.7555000000004 302.5409000000002L525.5600000000004 296.44799999999975L523.0325000000005 279.4610499999999L513.1125000000009 271.39025000000004L513.175 267.23090000000013L516.2440000000004 261.8844999999999L511.5295000000003 252.1956499999999L502.0810000000006 247.32415000000003L499.68000000000075 238.9697000000001L491.9225000000006 231.7622z">
      <title id="t385">Sixième circonscription de Haute-Savoie</title>
      <desc id="d385"> Cantons de : Chamonix-Mont-Blanc, Cluses, Saint-Gervais-les-Bains, Sallanches, Samoëns, Scionzier, Taninges</desc>
    </path></svg>