<svg xmlns="http://www.w3.org/2000/svg" version="1.1" xmlns:xlink="http://www.w3.org/1999/xlink" xmlns:svgjs="http://svgjs.dev/svgjs" width="719.7880000000009" height="386.64985" fill="#eeeeee" stroke="#cccccc" xmlns:sodipodi="http://sodipodi.sourceforge.net/DTD/sodipodi-0.dtd"><path class="circo" id="id-075-01" d="M227.6445000000001 173.80494999999996L208.77050000000054 127.3299000000003L217.57350000000088 109.56200000000024L228.39950000000044 104.93249999999989L302.8805 84.27880000000016L309.9070000000006 79.07685000000015L332.90950000000066 88.91385000000014L339.4825000000003 90.54775000000006L342.01400000000035 97.74029999999982L367.20800000000054 102.46680000000026L363.84900000000016 141.80814999999996L382.35900000000015 147.85439999999994L372.7455000000009 174.41790000000026L370.5085000000008 180.6331499999999L354.2315000000008 216.2572L338.8970000000006 200.4553500000003L319.7700000000009 192.48604999999998L284.2349999999999 175.6036499999999L227.6445000000001 173.80494999999996z">
      <title id="t386">Première circonscription de Paris</title>
      <desc id="d386">1er, 2e et 8e arrondissements</desc>
    </path><path class="circo" id="id-075-02" d="M330.77600000000075 280.2203000000003L330.8834999999999 276.66335000000004L316.0265000000004 253.53490000000022L317.06549999999993 223.1470999999999L302.5445000000002 226.66285000000016L283.78850000000057 240.92775000000017L279.0854999999999 226.96275000000014L266.2475000000006 226.1704000000003L266.39999999999986 216.93114999999977L239.81700000000046 214.71195000000023L226.65750000000003 227.73605000000032L192.98900000000003 197.7794L210.19000000000005 178.84374999999977L227.6445000000001 173.80494999999996L284.2349999999999 175.6036499999999L319.7700000000009 192.48604999999998L338.8970000000006 200.4553500000003L354.2315000000008 216.2572L412.405 251.26725000000022L417.22600000000057 256.8990000000002L404.2635000000007 280.25874999999985L374.8790000000008 293.00715000000025L346.8310000000008 286.4414499999998L330.77600000000075 280.2203000000003z">
      <title id="t387">Deuxième circonscription de Paris</title>
      <desc id="d387">5e arrondissement</desc>
    </path><path class="circo" id="id-075-03" d="M299.00550000000067 66.77999999999997L303.8505000000009 40.9430500000002L339.1915000000006 49.81139999999982L343.09450000000083 33.78030000000024L347.47850000000085 19.571149999999875L333.0720000000008 20.19139999999993L325.99000000000046 4.136000000000308L311.3235000000009 5.124050000000011L281.59650000000056 8.276850000000309L234.17900000000031 36.517900000000054L224.39950000000067 43.05835000000002L234.09950000000094 54.729750000000195L235.35000000000082 54.78549999999984L253.15699999999993 75.18464999999992L263.4495000000004 82.73110000000031L269.19500000000085 90.23090000000025L270.2025000000003 93.44400000000007L302.8805 84.27880000000016L299.00550000000067 66.77999999999997z">
      <title id="t388">Troisième circonscription de Paris</title>
      <desc id="d388">Partie du 17e arrondissement (quartiers de Batignolles et Epinettes)</desc>
    </path><path class="circo" id="id-075-04" d="M91.43650000000093 125.14569999999992L111.34250000000065 151.97240000000022L122.43150000000014 151.72030000000007L119.62300000000027 159.3007L128.4050000000002 175.97735L136.31500000000074 176.0137000000003L144.1865000000007 170.85260000000005L157.0900000000006 172.3144000000002L167.39649999999983 154.2850500000003L182.72100000000023 161.12505L184.6950000000004 175.5358000000001L199.74900000000048 190.13629999999978L210.19000000000005 178.84374999999977L227.6445000000001 173.80494999999996L208.77050000000054 127.3299000000003L217.57350000000088 109.56200000000024L228.39950000000044 104.93249999999989L270.2025000000003 93.44400000000007L269.19500000000085 90.23090000000025L263.4495000000004 82.73110000000031L253.15699999999993 75.18464999999992L235.35000000000082 54.78549999999984L234.09950000000094 54.729750000000195L224.39950000000067 43.05835000000002L205.2380000000005 55.75345000000027L199.46500000000015 56.51009999999985L177.3115000000007 74.63610000000017L166.7560000000003 87.21414999999979L164.03050000000007 106.23499999999979L105.28200000000083 99.0106000000003L91.43650000000093 125.14569999999992z">
      <title id="t389">Quatrième circonscription de Paris</title>
      <desc id="d389">Partie du 16e arrondissement (quartier Chaillot et partie du quartier Porte Dauphine située au nord d'une ligne définie par les voies ci-après : rue de la Pompe, place Monnet et rue Saint-Didier)</desc>
    </path><path class="circo" id="id-075-05" d="M370.5085000000008 180.6331499999999L372.7455000000009 174.41790000000026L382.35900000000015 147.85439999999994L363.84900000000016 141.80814999999996L368.7835000000007 83.13769999999977L395.09300000000053 80.00460000000032L413.44400000000064 80.6615499999998L425.40200000000027 81.69705000000022L429.6270000000004 88.02594999999997L430.22300000000087 110.89775000000031L436.1900000000003 116.91734999999994L449.76850000000013 136.04379999999992L411.0405000000003 156.11564999999985L424.4569999999999 208.44130000000007L411.05099999999993 204.99689999999987L397.64200000000073 197.13075000000003L390.53550000000087 188.9785999999998L370.5085000000008 180.6331499999999z">
      <title id="t390">Cinquième circonscription de Paris</title>
      <desc id="d390">3e et 10e arrondissements</desc>
    </path><path class="circo" id="id-075-06" d="M465.83399999999983 215.89879999999994L472.0920000000001 231.94720000000018L514.7090000000003 242.65620000000013L512.4165000000005 228.36810000000014L500.74250000000006 204.07500000000027L511.028 202.38260000000025L523.0135000000007 193.69190000000003L518.6815000000001 186.16445L517.0950000000005 175.65769999999986L512.6555000000008 167.27694999999983L500.933 145.32770000000028L488.4035000000006 130.26139999999998L474.98699999999985 139.30260000000033L467.25400000000036 129.71009999999978L449.76850000000013 136.04379999999992L422.2230000000002 150.42750000000012L435.9025000000008 153.55850000000032L455.1814999999999 188.62360000000024L462.40549999999985 184.72345000000018L479.6345000000008 211.03310000000022L465.83399999999983 215.89879999999994z">
      <title id="t391">Sixième circonscription de Paris</title>
      <desc id="d391">Partie du 11e arrondissement (partie des quartiers Folie-Méricourt, Saint-Ambroise, Roquette et Sainte-Marguerite située à l'est d'une ligne définie par l'axe des voies ci-après : rue de la Folie-Méricourt, rue de la Fontaine-au-Roi, avenue Parmentier, rue du Chemin-Vert, rue Saint-Maur, rue Léon-Frot, rue de Charonne, rue Faidherbe, rue du Faubourg-Saint-Antoine, place de la Nation, avenue du Trône)</desc>
    </path><path class="circo" id="id-075-07" d="M354.2315000000008 216.2572L370.5085000000008 180.6331499999999L390.53550000000087 188.9785999999998L397.64200000000073 197.13075000000003L411.05099999999993 204.99689999999987L424.4569999999999 208.44130000000007L411.0405000000003 156.11564999999985L422.2230000000002 150.42750000000012L435.9025000000008 153.55850000000032L455.1814999999999 188.62360000000024L462.40549999999985 184.72345000000018L479.6345000000008 211.03310000000022L465.83399999999983 215.89879999999994L472.0920000000001 231.94720000000018L467.32650000000035 256.0719999999998L435.4455000000007 278.68335L412.405 251.26725000000022L354.2315000000008 216.2572z">
      <title id="t392">Septième circonscription de Paris</title>
      <desc id="d392">4e arrondissement</desc>
    </path><path class="circo" id="id-075-08" d="M544.6305000000007 345.8200499999998L527.1385000000009 326.95404999999994L488.2024999999999 342.81475L435.4455000000007 278.68335L467.32650000000035 256.0719999999998L472.0920000000001 231.94720000000018L514.7090000000003 242.65620000000013L513.7774999999999 234.98364999999978L536.3465000000008 232.11169999999981L535.6920000000002 222.2117000000003L562.7840000000003 214.24030000000016L565.5375000000004 237.52940000000024L564.4605000000001 249.20495000000017L559.2759999999998 279.9547000000001L549.7975000000008 304.89329999999995L558.8499999999999 307.5412L581.0450000000003 298.5665L577.9630000000009 277.8186499999998L574.3785000000003 269.7041999999999L577.4400000000003 262.92100000000005L582.0010000000002 259.6555999999998L588.9620000000002 270.91835000000003L626.5989999999999 275.56069999999977L628.9330000000007 259.50080000000014L636.6665 259.5559000000003L637.6290000000006 251.87745000000007L654.4080000000008 252.45960000000025L654.1410000000008 258.3725500000003L658.3005000000003 257.33704999999986L715.4315000000008 282.9305499999998L719.7880000000009 303.7276000000003L707.5630000000001 319.4321500000001L704.1830000000004 339.6848L705.2500000000009 356.1602499999998L697.9845 377.18380000000025L687.6190000000008 386.64985L661.839500000001 382.97725000000014L624.9400000000003 380.18010000000004L603.3789999999999 355.8039000000002L576.2695000000008 350.03120000000024L544.6305000000007 345.8200499999998z">
      <title id="t393">Huitième circonscription de Paris</title>
      <desc id="d393">Partie du 12e arrondissement non comprise dans la 7e circonscription</desc>
    </path><path class="circo" id="id-075-09" d="M346.8310000000008 286.4414499999998L343.51 314.8670500000003L368.74200000000087 325.3534000000002L387.15200000000095 317.6448499999998L419.7020000000009 380.1395500000001L488.2024999999999 342.81475L417.22600000000057 256.8990000000002L404.2635000000007 280.25874999999985L374.8790000000008 293.00715000000025L346.8310000000008 286.4414499999998z">
      <title id="t394">Neuvième circonscription de Paris</title>
      <desc id="d394">Partie du 13e arrondissement (quartiers Salpêtrière, Gare, Croulebarbe)</desc>
    </path><path class="circo" id="id-075-10" d="M226.95150000000012 345.3497500000003L254.86800000000017 310.2974999999998L290.11550000000057 326.2832500000002L280.76149999999984 340.5678999999998L285.5580000000009 342.1024L287.0645000000002 344.53975000000014L299.92650000000026 348.27785000000006L314.68650000000025 352.14200000000005L330.02800000000093 350.0315499999999L340.22350000000074 347.96580000000006L345.87150000000065 340.08860000000027L343.51 314.8670500000003L368.74200000000087 325.3534000000002L387.15200000000095 317.6448499999998L419.7020000000009 380.1395500000001L411.87200000000075 384.4348500000001L388.9530000000002 386.3482499999998L378.6880000000008 376.2626L366.53599999999983 382.8588000000002L360.08800000000065 384.9092999999999L347.5165000000004 384.09719999999993L316.99299999999994 381.6404499999999L319.27850000000035 375.7798500000001L264.71000000000004 358.0435L226.95150000000012 345.3497500000003z">
      <title id="t395">Dixième circonscription de Paris</title>
      <desc id="d395">Partie du 13e arrondissement (quartier Maison-Blanche)</desc>
    </path><path class="circo" id="id-075-11" d="M272.0275000000004 248.61899999999991L295.65650000000005 263.09829999999977L254.86800000000017 310.2974999999998L290.11550000000057 326.2832500000002L280.76149999999984 340.5678999999998L285.5580000000009 342.1024L287.0645000000002 344.53975000000014L314.68650000000025 352.14200000000005L330.02800000000093 350.0315499999999L340.22350000000074 347.96580000000006L345.87150000000065 340.08860000000027L343.51 314.8670500000003L346.8310000000008 286.4414499999998L330.77600000000075 280.2203000000003L330.8834999999999 276.66335000000004L316.0265000000004 253.53490000000022L317.06549999999993 223.1470999999999L302.5445000000002 226.66285000000016L283.78850000000057 240.92775000000017L272.0275000000004 248.61899999999991z">
      <title id="t396">Onzième circonscription de Paris</title>
      <desc id="d396">Partie du 6e arrondissement non comprise dans la 2e circonscription</desc>
    </path><path class="circo" id="id-075-12" d="M272.0275000000004 248.61899999999991L295.65650000000005 263.09829999999977L254.86800000000017 310.2974999999998L249.9675000000002 308.5284999999999L242.30350000000044 295.41855L235.82750000000033 277.53674999999987L224.13250000000062 282.4516L219.44349999999986 266.0045500000001L209.07150000000001 266.8648000000002L183.4170000000006 250.87175000000002L165.85199999999986 234.6262999999999L192.98900000000003 197.7794L226.65750000000003 227.73605000000032L239.81700000000046 214.71195000000023L266.39999999999986 216.93114999999977L266.2475000000006 226.1704000000003L279.0854999999999 226.96275000000014L283.78850000000057 240.92775000000017L272.0275000000004 248.61899999999991z">
      <title id="t397">Douzième circonscription de Paris</title>
      <desc id="d397">Partie du 7e arrondissement (quartier Ecole-Militaire)</desc>
    </path><path class="circo" id="id-075-13" d="M127.76450000000068 333.28565000000026L126.99250000000006 317.6469000000003L135.5740000000003 311.84860000000015L128.49550000000022 302.5130999999999L113.54850000000056 306.0032000000001L165.85199999999986 234.6262999999999L183.4170000000006 250.87175000000002L209.07150000000001 266.8648000000002L219.44349999999986 266.0045500000001L224.13250000000062 282.4516L235.82750000000033 277.53674999999987L242.30350000000044 295.41855L249.9675000000002 308.5284999999999L254.86800000000017 310.2974999999998L226.95150000000012 345.3497500000003L191.8565000000001 330.94285000000013L161.40899999999988 311.17435L143.9650000000006 332.9812500000003L127.76450000000068 333.28565000000026z">
      <title id="t398">Treizième circonscription de Paris</title>
      <desc id="d398">Partie du 15e arrondissement non comprise dans la 12e circonscription</desc>
    </path><path class="circo" id="id-075-14" d="M78.7684999999999 268.0516L91.11100000000079 301.4772499999998L113.54850000000056 306.0032000000001L192.98900000000003 197.7794L199.74900000000048 190.13629999999978L184.6950000000004 175.5358000000001L182.72100000000023 161.12505L167.39649999999983 154.2850500000003L157.0900000000006 172.3144000000002L144.1865000000007 170.85260000000005L136.31500000000074 176.0137000000003L128.4050000000002 175.97735L119.62300000000027 159.3007L122.43150000000014 151.72030000000007L111.34250000000065 151.97240000000022L91.43650000000093 125.14569999999992L63.2120000000009 115.71529999999996L47.96750000000088 134.90994999999998L22.112000000000762 148.79880000000014L4.276500000000851 192.0341000000002L0 218.3911999999998L44.55300000000079 233.60259999999982L52.42450000000076 243.98779999999988L77.73300000000063 254.12014999999997L82.80300000000011 254.31204999999977L78.7684999999999 268.0516z">
      <title id="t399">Quatorzième circonscription de Paris</title>
      <desc id="d399">Partie du 16e arrondissement (quartiers Auteuil et La Muette et partie du quartier Porte Dauphine non comprise dans la 4e circonscription)</desc>
    </path><path class="circo" id="id-075-15" d="M500.74250000000006 204.07500000000027L511.028 202.38260000000025L523.0135000000007 193.69190000000003L518.6815000000001 186.16445L517.0950000000005 175.65769999999986L500.933 145.32770000000028L488.4035000000006 130.26139999999998L474.98699999999985 139.30260000000033L467.25400000000036 129.71009999999978L474.2669999999998 127.46770000000026L478.75150000000076 123.96200000000022L483.6760000000004 123.36185L489.4870000000003 120.61419999999998L500.2539999999999 121.11080000000015L513.9715000000001 120.47500000000014L536.6240000000005 112.45094999999992L548.9145000000008 106.70045000000016L556.5195000000006 130.67319999999995L562.7840000000003 214.24030000000016L535.6920000000002 222.2117000000003L536.3465000000008 232.11169999999981L513.7774999999999 234.98364999999978L512.4165000000005 228.36810000000014L500.74250000000006 204.07500000000027z">
      <title id="t400">Quinzième circonscription de Paris</title>
      <desc id="d400">Partie du 20e arrondissement non comprise dans les 6e et 8e circonscriptions</desc>
    </path><path class="circo" id="id-075-16" d="M466.86250000000086 53.25895000000003L449.8655000000008 39.30119999999988L439.22000000000025 38.25985000000003L430.86700000000064 35.21265000000028L434.63850000000093 29.89120000000014L430.0290000000007 24.371699999999805L429.96650000000045 2.9343000000000075L472.43850000000066 0L489.64650000000006 5.151050000000055L502.55700000000047 16.26525000000015L507.1320000000003 27.379399999999805L513.4660000000008 57.73120000000006L518.4320000000002 83.09680000000014L548.9145000000008 106.70045000000016L536.6240000000005 112.45094999999992L513.9715000000001 120.47500000000014L500.2539999999999 121.11080000000015L489.4870000000003 120.61419999999998L483.6760000000004 123.36185L478.75150000000076 123.96200000000022L474.2669999999998 127.46770000000026L449.76850000000013 136.04379999999992L436.1900000000003 116.91734999999994L441.3085000000001 113.20350000000019L442.19850000000065 100.72204999999997L439.0575000000001 93.85400000000004L455.23000000000025 79.68324999999993L464.7085000000004 73.47145000000012L472.2930000000008 70.14340000000004L472.3000000000002 64.24604999999985L466.86250000000086 53.25895000000003z">
      <title id="t401">Seizième circonscription de Paris</title>
      <desc id="d401">Partie du 19e arrondissement (quartiers Amérique et Pont de Flandre et partie du quartier Combat située au sud d'une ligne définie par l'axe des voies ci-après : avenue Secrétan, avenue Simon-Bolivar et rue Turot)</desc>
    </path><path class="circo" id="id-075-17" d="M439.0575000000001 93.85400000000004L442.19850000000065 100.72204999999997L441.3085000000001 113.20350000000019L436.1900000000003 116.91734999999994L430.22300000000087 110.89775000000031L429.6270000000004 88.02594999999997L425.40200000000027 81.69705000000022L395.09300000000053 80.00460000000032L368.9085 83.64295000000027L369.13350000000037 75.42810000000031L374.9135000000001 63.1704000000002L374.47700000000054 51.54125000000022L379.03099999999995 35.609850000000165L375.76200000000085 3.494299999999839L416.9175000000007 3.1223499999998694L429.96650000000045 2.9343000000000075L430.0290000000007 24.371699999999805L434.63850000000093 29.89120000000014L430.86700000000064 35.21265000000028L439.22000000000025 38.25985000000003L449.8655000000008 39.30119999999988L466.86250000000086 53.25895000000003L472.3000000000002 64.24604999999985L472.2930000000008 70.14340000000004L464.7085000000004 73.47145000000012L439.0575000000001 93.85400000000004z">
      <title id="t402">Dix-septième circonscription de Paris</title>
      <desc id="d402">Partie du 18e arrondissement (quartiers Goutte-d'Or et Chapelle)</desc>
    </path><path class="circo" id="id-075-18" d="M299.00550000000067 66.77999999999997L302.8805 84.27880000000016L309.9070000000006 79.07685000000015L332.90950000000066 88.91385000000014L339.4825000000003 90.54775000000006L342.01400000000035 97.74029999999982L367.20800000000054 102.46680000000026L368.9085 83.64295000000027L369.13350000000037 75.42810000000031L374.9135000000001 63.1704000000002L374.47700000000054 51.54125000000022L379.03099999999995 35.609850000000165L375.76200000000085 3.494299999999839L325.99000000000046 4.136000000000308L333.0720000000008 20.19139999999993L347.47850000000085 19.571149999999875L343.09450000000083 33.78030000000024L339.1915000000006 49.81139999999982L303.8505000000009 40.9430500000002L299.00550000000067 66.77999999999997z">
      <title id="t403">Dix-huitième circonscription de Paris</title>
      <desc id="d403">Partie du 9e arrondissement non comprise dans la 1re circonscription</desc>
    </path></svg>