<svg xmlns="http://www.w3.org/2000/svg" version="1.1" xmlns:xlink="http://www.w3.org/1999/xlink" xmlns:svgjs="http://svgjs.dev/svgjs" width="731.7500000000001" height="538.1458499999999" fill="#eeeeee" stroke="#cccccc" xmlns:sodipodi="http://sodipodi.sourceforge.net/DTD/sodipodi-0.dtd"><path class="circo" id="id-076-01" d="M412.5125000000003 398.6834999999999L419.11550000000034 405.8919499999999L413.0170000000004 417.38595000000004L409.5685000000003 420.0753L412.9195000000004 423.84005L417.7850000000001 419.47145000000006L426.5405000000004 418.3329499999999L425.79300000000046 422.98339999999996L430.0155000000001 421.73370000000006L432.05400000000054 423.91774999999996L433.20100000000025 420.9423000000001L436.45550000000014 419.03509999999983L437.40800000000036 417.24249999999984L439.2420000000004 418.1875500000001L441.40450000000044 421.139L443.2650000000001 425.06L444.2500000000001 420.66479999999984L446.23350000000016 419.8184499999999L457.3825000000005 421.30454999999984L456.4495000000005 419.7282999999999L458.05150000000026 418.84469999999993L453.5680000000002 414.5551499999999L456.8300000000005 411.48094999999984L458.51800000000026 405.22245L460.65650000000005 405.70695L456.3635000000005 399.10075000000006L446.4825000000002 407.61274999999983L441.4540000000005 405.9286L439.8770000000002 407.1126000000001L436.9760000000002 404.47315000000003L436.3130000000001 402.48474999999985L439.87750000000005 397.35985L438.5970000000003 387.00619999999986L436.27850000000024 387.16189999999983L425.8695 390.32674999999983L425.0065000000001 394.6175499999998L422.85150000000044 394.2408499999999L416.9500000000005 388.90005L417.00500000000034 393.26824999999985L412.8370000000001 394.48939999999993L412.5125000000003 398.6834999999999z">
      <title id="t404">Première circonscription de Seine-Maritime</title>
      <desc id="d404">Cantons de : Mont-Saint-Aignan, Rouen I, Rouen II, Rouen III, Rouen IV, Rouen V, Rouen VII</desc>
    </path><path class="circo" id="id-076-02" d="M612.7900000000005 342.37044999999995L608.7880000000001 331.3626500000001L583.2675 337.37155L584.8865000000001 322.9424L587.9440000000005 320.3432000000001L583.8680000000005 316.26925L583.1885000000005 315.48114999999996L581.6765000000004 311.22629999999987L576.0235 307.74339999999995L574.2310000000003 303.62390000000005L576.6655000000003 300.10805000000005L580.9845000000001 298.84265L577.8205000000003 295.82224999999994L573.4585000000004 296.4757L567.6795000000004 289.8219499999999L563.2705000000004 289.0332000000001L566.5230000000003 296.60955L560.7985000000002 302.4871999999999L555.2295000000004 301.8469999999999L552.4695000000003 304.85175L540.4005000000001 308.20509999999985L538.3630000000005 309.40979999999996L534.2135000000002 306.92755000000005L532.9535000000004 313.22035L516.4290000000005 316.85344999999984L513.8000000000005 322.4146999999999L511.82650000000024 322.9883000000001L513.4270000000004 328.74509999999987L509.5205000000004 339.2270500000001L506.49050000000045 342.45035L505.0135 344.15554999999983L502.96700000000044 343.22339999999997L496.9655 349.00409999999994L500.50850000000025 356.5367499999999L500.1395000000002 358.43500000000006L492.86 358.9038500000001L492.8105000000005 365.32584999999983L491.02850000000046 365.6721999999999L475.8330000000001 376.31020000000007L473.2355000000001 378.6935L470.42550000000006 377.4056999999999L467.0995000000005 374.60604999999987L465.92600000000004 370.30929999999984L455.45750000000055 366.78304999999995L450.0030000000004 362.95140000000004L447.99300000000017 366.77785L448.1110000000001 373.23035000000004L453.42400000000055 376.61579999999987L452.37450000000024 380.60029999999983L445.5980000000005 385.96145000000007L439.52800000000025 384.9958000000001L438.5970000000003 387.00619999999986L439.87750000000005 397.35985L436.3130000000001 402.48474999999985L436.9760000000002 404.47315000000003L439.8770000000002 407.1126000000001L441.4540000000005 405.9286L446.4825000000002 407.61274999999983L456.3635000000005 399.10075000000006L460.65650000000005 405.70695L458.51800000000026 405.22245L456.8300000000005 411.48094999999984L453.5680000000002 414.5551499999999L458.05150000000026 418.84469999999993L456.4495000000005 419.7282999999999L457.3825000000005 421.30454999999984L446.23350000000016 419.8184499999999L444.2500000000001 420.66479999999984L443.2650000000001 425.06L443.6145000000005 426.93725L446.36450000000025 441.34244999999993L448.4185000000002 446.7130499999999L448.6145000000005 460.6550999999999L449.1130000000004 464.63959999999986L450.3150000000005 469.93255000000005L450.60700000000054 473.6215999999999L446.4835000000005 488.40565L448.2000000000005 489.7836000000001L452.4600000000004 488.70299999999986L454.75400000000036 490.01509999999996L458.4005000000002 483.70734999999996L462.4630000000002 483.37729999999993L466.918 479.54319999999996L468.22400000000016 483.40665L470.2795000000003 479.74609999999984L474.2285000000004 478.27055L475.13400000000047 482.0389L475.42850000000044 482.14910000000003L482.24200000000053 481.6586000000001L480.7190000000003 472.0387499999998L481.82650000000024 470.57005000000004L481.60950000000014 472.6050999999998L485.6420000000003 472.69450000000006L486.76900000000046 474.43520000000007L501.1665000000005 475.87050000000005L512.2405000000003 475.9664000000001L512.2715000000005 471.48349999999994L518.2265000000001 465.7979499999999L519.4835 457.6192499999999L518.1800000000004 450.15275L523.0005 445.09950000000003L527.4790000000002 444.01025000000004L528.7665000000004 435.48039999999986L530.6165000000004 434.36015L528.1690000000003 422.8468000000001L536.3425000000001 421.2745000000001L540.2450000000005 422.71349999999984L540.0095000000005 416.2198999999998L544.8385000000002 418.25124999999986L545.3180000000003 416.50814999999994L541.9970000000001 413.48119999999994L542.8145000000001 411.3835499999999L553.2625000000002 408.22730000000007L560.8185000000003 400.25364999999994L563.2435000000004 401.33849999999995L559.3980000000005 406.7778999999999L559.7475000000003 408.98044999999996L571.6750000000002 405.26430000000005L581.9105000000002 405.66509999999994L587.7940000000001 408.91639999999995L598.9710000000002 408.08674999999994L605.3895 410.58404999999993L609.8705000000001 415.78135000000003L620.7850000000002 414.1420500000001L624.8840000000001 421.9619499999999L630.4485000000005 415.19634999999994L641.4620000000002 415.4480000000001L641.1430000000001 417.25130000000007L645.2385000000004 420.86735000000004L649.9480000000005 430.0988000000001L654.5355000000001 434.52799999999996L663.5635000000002 431.75624999999997L663.4995000000004 433.80685L671.7890000000006 439.50005000000004L673.1265000000002 439.64110000000005L676.6680000000002 441.68859999999995L681.5095000000002 437.51379999999983L685.8180000000004 437.8116499999999L686.508 439.8722999999998L691.6505000000001 444.97085L696.2135000000001 435.48955000000007L700.0035000000003 435.5921000000001L703.4345000000002 427.5788499999999L705.1635000000005 416.7480499999999L706.0685000000001 414.73555000000005L708.2705000000004 414.68850000000003L711.0455000000002 409.4021000000001L716.0610000000003 406.3843L714.2400000000004 402.7691999999999L721.8635 398.53375L726.2835000000001 393.6207999999999L726.1420000000004 384.83810000000005L727.4215000000004 383.0304000000001L731.7500000000001 382.69344999999987L731.2895000000003 372.16549999999984L723.0120000000005 368.3697999999998L717.6250000000005 372.0142999999999L715.0240000000002 380.4314500000001L713.1495000000001 381.6557L711.2955000000005 377.5621000000001L704.9005000000005 376.38284999999996L702.2515000000004 374.3312L700.9795000000003 373.29909999999984L702.5460000000004 370.4146499999999L710.5670000000003 362.77134999999987L713.426 350.60675000000003L713.1580000000002 350.36969999999997L705.2915000000002 348.50040000000007L706.7595 336.1056500000001L702.749 330.66339999999997L698.5025000000002 325.6488999999999L693.0995000000001 328.94305L686.0210000000001 332.4530999999999L683.8150000000002 332.23095L678.1995000000001 325.5814000000001L671.9740000000002 323.29575000000006L664.11 330.8659L665.1815000000005 335.11750000000006L659.676 341.7152999999999L657.8355000000005 342.90764999999993L653.8165000000004 341.38315000000006L651.9410000000005 338.2954000000001L648.1380000000001 337.3971L645.8295000000004 333.7748500000001L648.5980000000001 327.95275000000004L646.0210000000001 319.7977499999999L642.9005000000001 322.39964999999984L636.2700000000001 328.0575999999999L636.4205000000004 332.15495000000004L631.6525000000001 336.70060000000007L612.7900000000005 342.37044999999995z">
      <title id="t405">Deuxième circonscription de Seine-Maritime</title>
      <desc id="d405">Cantons de : Argueil, Bois-Guillaume, Boos, Buchy, Darnétal, Gournay-en-Bray</desc>
    </path><path class="circo" id="id-076-03" d="M414.3090000000001 467.21209999999985L408.3555000000001 473.4213L408.27800000000025 479.9404999999999L410.8815000000004 483.4940499999999L417.1550000000002 484.6224000000001L418.3575000000002 486.46289999999993L412.4920000000003 487.6054500000001L407.19550000000027 489.30364999999995L407.7550000000002 491.08974999999987L422.42350000000044 488.43304999999987L445.93650000000025 480.1675L449.6555000000001 474.47104999999993L450.3150000000005 469.93255000000005L449.1130000000004 464.63959999999986L448.6145000000005 460.6550999999999L448.4185000000002 446.7130499999999L446.36450000000025 441.34244999999993L443.6145000000005 426.93725L443.2650000000001 425.06L441.40450000000044 421.139L439.2420000000004 418.1875500000001L437.40800000000036 417.24249999999984L436.45550000000014 419.03509999999983L433.20100000000025 420.9423000000001L432.05400000000054 423.91774999999996L430.0155000000001 421.73370000000006L425.79300000000046 422.98339999999996L426.5405000000004 418.3329499999999L417.7850000000001 419.47145000000006L412.9195000000004 423.84005L416.6940000000005 425.09725000000003L422.59600000000034 434.3144000000001L426.9055000000003 434.99574999999993L421.56150000000025 446.5719999999999L423.50100000000054 457.16099999999983L421.2310000000002 463.1679L414.3090000000001 467.21209999999985z">
      <title id="t406">Troisième circonscription de Seine-Maritime</title>
      <desc id="d406">Cantons de : Le Petit-Quevilly, Rouen VI, Saint-Etienne-du-Rouvray, Sotteville-lès-Rouen Est, Sotteville-lès-Rouen Ouest</desc>
    </path><path class="circo" id="id-076-04" d="M394.1850000000005 534.70125L395.8575000000002 531.5720999999999L391.46100000000047 530.9110499999999L390.6945000000002 526.7257000000001L386.7950000000002 524.98065L384.98050000000035 520.9437499999999L377.77300000000025 525.5122L376.35550000000023 519.9372L380.58050000000037 516.3589999999999L379.87600000000043 512.8083999999999L379.85000000000014 510.6819999999999L375.8720000000005 508.69304999999997L369.93250000000046 493.8127L364.99400000000037 498.1111999999999L357.4505000000005 502.44370000000004L357.9920000000004 506.7957999999999L354.04200000000003 508.1377499999999L351.42250000000047 504.78440000000006L352.5355000000002 496.29615L341.0375000000005 491.56835L338.9485000000002 492.1591000000001L338.2420000000002 490.24855L330.45450000000017 489.6459999999999L332.17400000000055 486.20919999999984L336.8035000000003 477.26135L338.85850000000005 477.11780000000005L342.0405000000005 479.29010000000005L348.0060000000003 476.63635L362.61000000000024 481.68469999999985L367.77300000000025 477.5895L363.9375000000001 474.3171000000001L364.4100000000003 468.4669499999998L361.6465000000005 457.04350000000005L361.7710000000005 451.11124999999987L364.6935000000002 438.4276L367.13550000000055 433.2542000000001L375.5680000000001 436.8272999999999L385.8275000000003 449.1687999999999L389.1890000000001 432.21745L390.27300000000025 426.00419999999986L393.05150000000026 412.2242L403.9865000000003 411.71234999999996L404.8470000000003 401.1390499999999L404.7845000000001 399.11249999999995L406.23650000000055 392.91965000000005L403.25350000000014 389.7249500000001L404.05250000000024 387.68135L408.9780000000002 384.09944999999993L417.1365000000003 386.71965L416.9500000000005 388.90005L417.00500000000034 393.26824999999985L412.8370000000001 394.48939999999993L412.5125000000003 398.6834999999999L419.11550000000034 405.8919499999999L413.0170000000004 417.38595000000004L409.5685000000003 420.0753L412.9195000000004 423.84005L416.6940000000005 425.09725000000003L422.59600000000034 434.3144000000001L426.9055000000003 434.99574999999993L421.56150000000025 446.5719999999999L423.50100000000054 457.16099999999983L421.2310000000002 463.1679L414.3090000000001 467.21209999999985L408.3555000000001 473.4213L408.27800000000025 479.9404999999999L410.8815000000004 483.4940499999999L417.1550000000002 484.6224000000001L418.3575000000002 486.46289999999993L412.4920000000003 487.6054500000001L407.19550000000027 489.30364999999995L407.7550000000002 491.08974999999987L422.42350000000044 488.43304999999987L445.93650000000025 480.1675L449.6555000000001 474.47104999999993L450.3150000000005 469.93255000000005L450.60700000000054 473.6215999999999L446.4835000000005 488.40565L448.2000000000005 489.7836000000001L452.4600000000004 488.70299999999986L454.75400000000036 490.01509999999996L453.5205000000002 500.4444000000001L451.6500000000002 500.44179999999983L436.9455000000005 500.50115000000005L427.07550000000026 502.75199999999984L417.03550000000007 508.23939999999993L424.2090000000002 519.1306499999998L424.6645000000001 521.2811999999999L419.1930000000002 524.6732L423.5925000000003 531.9036L422.5185000000005 533.3584500000001L419.1205000000002 532.1953500000001L418.3790000000005 533.8475L418.35350000000005 531.8625499999998L413.0265000000003 534.1678999999999L412.8955000000002 533.1168499999999L396.1930000000001 538.1458499999999L394.1850000000005 534.70125z">
      <title id="t407">Quatrième circonscription de Seine-Maritime</title>
      <desc id="d407">Cantons de : Caudebec-lès-Elbeuf, Elbeuf, Grand-Couronne, Le Grand-Quevilly, Maromme</desc>
    </path><path class="circo" id="id-076-05" d="M311.45700000000033 423.73744999999985L311.96950000000015 431.85360000000003L306.30300000000034 433.23395000000005L304.4820000000004 434.5247499999999L297.8195000000005 429.2148499999999L287.67650000000003 433.01705L285.34100000000024 436.34985L275.65950000000043 434.52669999999983L275.2370000000002 435.1146L273.03950000000043 435.0610499999999L271.4350000000002 439.12514999999985L269.3085000000002 439.70380000000006L263.1235000000004 437.67120000000006L256.7285000000004 439.29235000000006L252.457 439.60714999999993L250.95600000000047 437.9782L247.74700000000053 435.81815000000006L251.0300000000001 430.57445L245.15450000000044 428.99339999999995L243.33500000000015 425.14105L239.11 425.9081499999999L241.30900000000054 419.4955999999999L245.90300000000013 414.58585L244.64600000000019 412.7014L232.75400000000047 422.05150000000003L226.32300000000043 422.72914999999983L218.5990000000004 419.4276500000001L209.88200000000006 410.1865999999998L202.51100000000008 400.6564499999999L200.48200000000008 398.37940000000003L200.08650000000046 397.74505000000005L193.46250000000055 389.5718500000001L187.95950000000005 386.56329999999997L181.42000000000053 386.4056500000001L175.5200000000002 389.3887000000001L169.72900000000038 384.75044999999994L168.00550000000044 375.8272499999998L161.77100000000053 362.2737999999998L157.0270000000005 363.69969999999995L153.26900000000023 351.74634999999995L148.9625000000001 351.4981499999999L149.187 341.27835000000005L151.60050000000012 335.6555L153.81700000000023 335.5238L156.92050000000052 346.0906L167.37250000000017 349.3092999999999L173.4265000000005 339.3430000000001L174.80500000000006 338.1912L179.7240000000005 345.29145L179.2240000000004 351.74440000000004L188.18850000000054 357.8188499999999L190.37050000000022 357.7671000000001L191.0450000000003 355.68545L189.29550000000006 354.38625L192.2320000000002 351.4025000000001L198.17800000000034 353.4176500000001L203.14250000000015 349.1344000000001L207.34000000000037 341.48865L211.54100000000028 342.1181999999999L214.23200000000008 345.4041000000001L209.91750000000025 350.42534999999987L210.36 350.8713499999999L213.9345000000003 350.2367000000001L222.2855000000004 345.6510499999999L222.56050000000016 343.6753999999999L217.40800000000036 339.7754499999999L220.88400000000036 334.54350000000005L226.74900000000036 334.02254999999997L229.81250000000045 330.9832L232.8985 323.61760000000004L238.6665000000005 321.9584499999999L241.18450000000053 325.0058999999999L245.01250000000027 324.49070000000006L252.2735 328.1985L254.91700000000037 333.7467000000001L260.2000000000004 327.78099999999995L264.96550000000013 331.41834999999986L268.98450000000025 331.83644999999984L265.38850000000025 326.59144999999995L266.3665000000003 324.6421000000001L272.5835000000001 324.4369499999999L281.1370000000005 318.63740000000007L283.11000000000035 318.9690999999999L285.24950000000047 324.7424000000001L292.5935000000004 332.1562499999999L294.37250000000006 335.64629999999994L296.2330000000003 334.7630000000001L303.1925000000001 326.31744999999995L312.77800000000013 321.7172500000001L311.3185000000004 318.05649999999986L310.3425000000004 316.57545L311.2760000000003 307.64174999999994L310.3625000000005 304.39525000000003L311.6795000000002 301.21534999999994L311.20450000000005 292.8009499999999L305.0030000000004 286.83419999999984L308.08550000000025 283.45564999999993L319.0285 293.70374999999996L326.8535000000003 300.6886L327.23400000000026 301.0494L335.58700000000044 307.0416499999999L339.7370000000001 299.58785000000006L341.0500000000002 299.00405000000006L346.0450000000003 311.16269999999986L354.5335 311.8368000000001L354.85600000000034 298.93974999999983L351.79700000000025 293.15920000000006L355.4660000000001 291.35085000000004L363.6370000000005 290.04310000000004L367.1350000000001 292.21565L373.34450000000004 292.40725L376.32100000000037 286.50149999999996L383.03450000000055 287.4839L384.4165000000004 293.88945000000007L389.7645 297.67364999999984L389.42150000000026 306.1437999999998L388.571 310.3751L390.1325000000003 311.8794L395.8615000000003 309.4812999999999L400.4680000000002 305.20264999999995L397.98700000000053 299.3569500000001L400.10500000000036 293.3357000000001L395.7235000000003 283.31844999999987L390.76900000000023 280.98449999999985L396.4725000000004 271.30349999999993L404.5455000000004 275.24204999999995L406.6420000000005 280.02160000000003L413.54150000000004 280.65759999999983L421.1310000000003 285.7021499999999L428.19600000000037 292.9491999999999L425.45600000000036 296.1122499999999L420.87950000000035 291.76619999999986L420.20700000000033 287.83694999999994L416.42450000000053 289.25174999999996L416.6410000000002 291.3580999999999L417.1985000000001 298.46284999999995L417.60050000000035 301.16484999999983L411.51550000000043 303.3327L399.98500000000035 312.86039999999986L395.7140000000004 317.8257500000001L398.4300000000002 321.8227999999999L407.64850000000024 327.9009500000001L414.08450000000016 329.4431L413.7110000000001 331.208L418.97650000000056 331.77224999999993L418.5360000000003 337.26145L410.3280000000001 339.03245L412.22500000000025 344.9508L410.7370000000003 346.5012999999999L407.5 354.6842000000001L409.93750000000034 350.9611000000001L416.2190000000004 353.083L419.889 351.2027499999999L424.35700000000054 355.2958000000001L437.3285000000004 357.9170500000001L436.5935000000002 359.81854999999996L440.5835000000002 361.22884999999997L446.81200000000047 359.79629999999986L450.0030000000004 362.95140000000004L447.99300000000017 366.77785L448.1110000000001 373.23035000000004L453.42400000000055 376.61579999999987L452.37450000000024 380.60029999999983L445.5980000000005 385.96145000000007L439.52800000000025 384.9958000000001L438.5970000000003 387.00619999999986L436.27850000000024 387.16189999999983L425.8695 390.32674999999983L425.0065000000001 394.6175499999998L422.85150000000044 394.2408499999999L416.9500000000005 388.90005L417.1365000000003 386.71965L408.9780000000002 384.09944999999993L404.05250000000024 387.68135L403.25350000000014 389.7249500000001L406.23650000000055 392.91965000000005L404.7845000000001 399.11249999999995L404.8470000000003 401.1390499999999L403.9865000000003 411.71234999999996L393.05150000000026 412.2242L390.27300000000025 426.00419999999986L389.1890000000001 432.21745L385.8275000000003 449.1687999999999L375.5680000000001 436.8272999999999L367.13550000000055 433.2542000000001L364.6935000000002 438.4276L361.7710000000005 451.11124999999987L352.1545000000003 455.7817L350.9915000000001 459.8039499999999L346.9500000000005 458.14014999999984L345.15150000000006 459.38559999999995L347.58200000000045 453.55034999999987L344.1510000000005 448.2768999999999L344.9165000000005 444.06379999999984L338.83500000000026 446.30689999999987L337.43150000000014 444.6482499999999L331.68750000000045 446.78945L325.6230000000005 445.76359999999994L319.5930000000004 442.8008L315.66250000000025 437.24275000000006L312.7765000000005 423.77080000000007L311.45700000000033 423.73744999999985z">
      <title id="t408">Cinquième circonscription de Seine-Maritime</title>
      <desc id="d408">Cantons de : Caudebec-en-Caux, Duclair, Lillebonne, Notre-Dame-de-Bondeville, Pavilly</desc>
    </path><path class="circo" id="id-076-06" d="M716.4855 184.48084999999992L712.9450000000003 176.95885000000004L708.4680000000003 170.42045000000002L705.2255000000002 152.99769999999995L702.2365000000002 147.44439999999997L702.5965000000002 138.67815000000007L702.0395000000002 136.01579999999984L699.1015000000004 130.43509999999998L699.2185000000001 122.36805000000004L696.7055000000005 119.04259999999994L692.8135000000003 117.79705000000007L690.532 114.2309499999999L686.8265000000002 105.4231999999999L685.0045 104.66489999999993L684.9215000000004 101.42869999999988L671.8640000000005 94.53935000000001L662.0155000000005 90.77059999999989L655.172 85.79485000000005L649.8990000000003 81.71729999999997L645.6955000000005 73.95890000000009L642.219 71.23165L640.6940000000003 64.75940000000008L635.12 61.66650000000004L620.5315000000002 49.608049999999935L619.803 48.03574999999995L615.2320000000003 38.97885000000002L608.1260000000003 34.4910999999999L606.1410000000001 35.14064999999988L603.2635000000005 32.13554999999985L597.6925 25.06380000000007L591.3635000000005 22.708199999999863L588.7860000000001 19.120849999999905L591.714 5.9935500000000275L589.2400000000004 4.745499999999936L586.6330000000005 1.252149999999972L580.1665000000003 0L575.9835000000004 1.4395500000000538L570.5120000000005 9.584999999999866L557.9505 4.327749999999924L553.4545000000003 5.1818499999998835L542.09 13.102599999999995L540.5380000000002 14.28939999999983L511.6365000000002 39.786399999999844L506.92800000000034 44.46515000000005L496.4870000000002 54.21329999999983L485.26200000000017 60.685049999999876L479.24600000000055 68.46980000000002L468.279 74.01244999999989L459.3100000000004 79.27339999999987L445.5525 86.61439999999999L439.6270000000004 89.71739999999983L433.07050000000004 89.91749999999996L426.2415000000004 95.7204999999999L413.476 100.03389999999996L407.50950000000046 102.47289999999992L384.7810000000004 100.69535000000002L377.98700000000053 101.01349999999996L366.73100000000034 108.94675000000007L353.40750000000014 113.17784999999986L359.26300000000026 119.3005500000001L339.98500000000035 128.32404999999994L334.04150000000016 125.80655000000007L332.3340000000002 126.47535000000005L332.20550000000003 131.94924999999984L334.25700000000006 131.77449999999993L337.45300000000043 138.7276L342.07550000000026 138.365L349.70800000000054 143.64035L360.82600000000014 145.8677499999999L361.4200000000005 141.51569999999992L364.5115000000004 138.84494999999987L366.1940000000004 142.8703999999999L379.18300000000045 139.3558999999999L377.2750000000002 144.84999999999985L388.0835000000002 144.09059999999982L391.8685000000005 146.1202L401.38400000000047 144.44525L402.59150000000034 145.96069999999997L405.85650000000044 153.45965000000007L415.22950000000037 148.47000000000008L418.47200000000043 155.90514999999982L420.47500000000014 156.43560000000008L421.06700000000046 150.47560000000004L424.8470000000003 150.94484999999992L428.3280000000002 148.86345000000006L429.00150000000053 146.69099999999986L431.95700000000045 144.10775L438.9115000000004 147.86624999999987L444.5915000000002 155.2033499999999L451.05050000000006 156.14499999999992L454.7565000000003 149.53114999999997L462.4295000000001 145.01409999999993L464.59250000000054 145.55594999999983L468.93100000000004 144.92185000000006L471.25850000000014 147.74034999999998L475.35600000000045 147.66985000000005L480.18100000000004 150.49665000000005L486.9550000000004 158.60870000000006L484.00350000000003 161.76659999999998L476.4435000000003 158.54674999999986L474.8340000000002 159.9403000000001L476.18750000000034 168.75929999999983L480.2570000000003 174.0460999999999L480.98550000000046 178.0651499999999L487.1550000000002 179.25635L492.4740000000003 176.17124999999987L492.0550000000003 180.14524999999992L496.08550000000037 179.10224999999997L496.48750000000007 184.96274999999997L499.7520000000003 187.69344999999987L501.8735000000004 187.31494999999995L504.7030000000001 191.772L506.6365000000002 191.97734999999994L507.5780000000003 194.03284999999983L514.0645000000001 194.77720000000005L516.9355000000002 198.25729999999993L523.2990000000001 191.12824999999987L526.6095000000001 196.43309999999985L530.7895000000002 197.20699999999994L532.8935000000001 202.98059999999992L536.7870000000005 204.7308000000001L534.0895 209.88470000000007L535.2125000000001 216.44589999999994L530.4915000000005 221.1507499999999L530.4855000000003 223.3726999999999L536.2850000000003 226.47554999999983L526.4755000000002 229.2974000000001L533.7665000000004 234.41119999999984L532.3125000000005 240.5973499999999L536.8835000000001 244.79334999999992L541.0940000000005 248.98020000000002L544.2940000000004 246.3145L547.5360000000001 255.25094999999993L548.9765000000006 255.14449999999982L549.7205000000002 259.21965L553.7800000000004 259.98549999999994L556.0825000000006 265.74645000000004L562.5085000000001 262.82804999999996L573.836 256.80184999999994L577.2700000000003 251.57274999999998L583.6900000000003 250.78959999999995L589.7210000000001 253.57579999999984L587.1115000000003 256.82680000000005L592.2625000000005 260.1437999999999L593.7030000000004 266.44254999999987L597.7695 267.6738L597.6530000000002 269.8478499999999L595.1365000000004 270.5517499999999L598.2195000000002 276.0501500000001L605.7585 279.88699999999994L605.1030000000003 288.38224999999994L592.2345000000001 296.8286499999999L581.4065000000005 299.3352999999999L580.9845000000001 298.84265L576.6655000000003 300.10805000000005L574.2310000000003 303.62390000000005L576.0235 307.74339999999995L581.6765000000004 311.22629999999987L583.1885000000005 315.48114999999996L583.8680000000005 316.26925L587.9440000000005 320.3432000000001L584.8865000000001 322.9424L583.2675 337.37155L608.7880000000001 331.3626500000001L612.7900000000005 342.37044999999995L631.6525000000001 336.70060000000007L636.4205000000004 332.15495000000004L636.2700000000001 328.0575999999999L642.9005000000001 322.39964999999984L646.0210000000001 319.7977499999999L648.5980000000001 327.95275000000004L645.8295000000004 333.7748500000001L648.1380000000001 337.3971L651.9410000000005 338.2954000000001L653.8165000000004 341.38315000000006L657.8355000000005 342.90764999999993L659.676 341.7152999999999L665.1815000000005 335.11750000000006L664.11 330.8659L671.9740000000002 323.29575000000006L678.1995000000001 325.5814000000001L683.8150000000002 332.23095L686.0210000000001 332.4530999999999L693.0995000000001 328.94305L691.782 323.49169999999987L702.3205000000002 322.34655000000004L703.2680000000005 318.07095000000004L702.6420000000002 317.51565L698.8250000000005 319.1100499999999L696.3230000000004 313.7770499999999L691.413 310.03344999999996L700.856 301.584L703.2965000000002 295.43649999999985L701.4120000000003 289.09819999999996L695.9585000000004 284.65209999999985L693.5210000000001 281.6369L697.5130000000001 280.4560999999998L703.7610000000001 270.2772999999999L704.3360000000001 263.6115000000001L716.2585000000001 257.59465000000006L715.4575000000006 247.83629999999988L713.8495 246.68710000000004L712.4015000000003 244.87349999999992L708.0745000000002 246.04115000000007L701.3460000000003 255.23120000000006L697.3770000000002 257.32665L689.2435 249.22525000000007L696.2775000000005 241.57395000000008L700.1860000000005 240.35814999999985L700.5015000000003 236.18920000000003L699.4170000000003 225.27169999999984L700.6835000000001 223.47859999999997L704.8340000000002 224.33864999999997L712.3090000000002 219.7453999999999L713.399 219.73359999999985L711.191 212.0501999999999L712.2365000000002 210.34320000000008L715.2820000000003 204.24720000000008L721.1215000000004 207.43615000000005L730.1400000000001 207.01769999999982L728.4755000000001 200.75265000000002L725.3950000000003 194.87529999999992L719.2615000000001 192.21559999999982L716.4855 184.48084999999992z">
      <title id="t409">Sixième circonscription de Seine-Maritime</title>
      <desc id="d409">Cantons de : Aumale, Blangy-sur-Bresle, Dieppe Est, Dieppe Ouest, Forges-les-Eaux, Envermeu, Eu, Londinières, Neufchâtel-en-Bray, Offranville</desc>
    </path><path class="circo" id="id-076-07" d="M0 364.01984999999996L1.2210000000004584 372.1039999999999L6.991500000000315 374.82069999999993L11.703500000000417 379.6154999999999L10.484500000000025 384.27459999999996L14.081000000000472 389.2255499999999L16.499500000000467 388.06510000000003L20.413000000000352 388.54015000000004L20.679000000000087 386.5347L22.2320000000002 386.17159999999984L22.909500000000094 383.91159999999985L21.78950000000043 382.6356999999999L23.149500000000103 381.3597999999999L15.60100000000034 380.3948L15.202500000000327 377.38699999999994L25.3490000000005 372.97650000000004L26.673000000000116 377.2878499999999L33.720500000000015 377.16939999999994L30.54050000000018 369.1417999999999L25.68300000000022 370.1610500000001L22.898500000000013 366.65464999999983L19.445500000000493 366.20814999999993L19.726 363.12074999999993L22.819000000000074 360.97745000000003L25.72400000000016 358.61965L36.97900000000004 359.38834999999983L38.288500000000454 352.69205L42.31300000000033 352.89439999999985L49.18450000000007 360.0090499999999L51.101000000000454 359.0983L55.54650000000038 363.5851499999998L61.446000000000254 361.5738999999999L64.56000000000017 360.6336999999999L70.8465000000001 359.91739999999993L77.01850000000036 358.4290999999999L77.82650000000046 356.3344000000001L74.9550000000005 350.26880000000006L78.25400000000002 344.6344500000001L82.57850000000019 345.34975000000003L87.72200000000055 349.5595L90.35050000000012 346.2465L87.57000000000005 342.93184999999994L88.59900000000039 336.48044999999996L85.30550000000005 334.8567L85.33000000000015 333.00555L81.94800000000043 330.7014000000001L85.03500000000031 327.69450000000006L83.04750000000013 317.2946999999999L78.87050000000045 319.0733499999999L74.45050000000037 318.06700000000006L72.8385000000003 317.02065000000005L72.73500000000013 314.90219999999994L78.37650000000053 312.11614999999995L71.91900000000032 311.74105L66.64050000000032 307.75784999999985L60.56450000000041 313.5567499999999L56.44150000000025 314.33965L54.958500000000186 320.11705000000006L51.313500000000545 319.10349999999994L51.10250000000008 307.7020999999999L45.1215000000002 305.21510000000006L44.35300000000041 304.1165000000001L41.38400000000047 301.3629499999999L32.25500000000011 306.56419999999997L26.294000000000324 304.19849999999997L18.933000000000106 317.9535999999999L4.722000000000435 350.06380000000007L0 364.01984999999996z">
      <title id="t410">Septième circonscription de Seine-Maritime</title>
      <desc id="d410">Cantons de : Le Havre I, Le Havre V, Le Havre VI, Le Havre VII, Montivilliers</desc>
    </path><path class="circo" id="id-076-08" d="M61.446000000000254 361.5738999999999L55.54650000000038 363.5851499999998L51.101000000000454 359.0983L49.18450000000007 360.0090499999999L42.31300000000033 352.89439999999985L38.288500000000454 352.69205L36.97900000000004 359.38834999999983L25.72400000000016 358.61965L19.726 363.12074999999993L19.445500000000493 366.20814999999993L22.898500000000013 366.65464999999983L25.68300000000022 370.1610500000001L30.54050000000018 369.1417999999999L33.720500000000015 377.16939999999994L26.673000000000116 377.2878499999999L25.3490000000005 372.97650000000004L15.202500000000327 377.38699999999994L15.60100000000034 380.3948L23.149500000000103 381.3597999999999L21.78950000000043 382.6356999999999L22.909500000000094 383.91159999999985L22.2320000000002 386.17159999999984L20.679000000000087 386.5347L20.413000000000352 388.54015000000004L16.499500000000467 388.06510000000003L14.081000000000472 389.2255499999999L10.484500000000025 384.27459999999996L9.244500000000357 386.772L20.041500000000383 395.51619999999986L35.25950000000023 399.1732999999999L38.613000000000284 405.68534999999997L39.99850000000038 401.97734999999994L47.55350000000021 402.6939999999999L48.53250000000003 406.62814999999995L50.89200000000005 404.5621L54.44749999999999 405.7696999999999L58.514000000000124 407.18324999999993L61.529500000000326 404.25414999999987L63.673 406.84785000000005L72.62250000000051 407.57874999999984L79.14950000000033 379.5579000000001L76.7225000000002 373.3867999999998L77.84150000000011 371.47564999999986L91.42950000000042 366.02959999999996L91.1020000000002 363.6630499999998L85.77850000000012 360.8150499999999L81.9930000000005 361.8652499999999L77.01850000000036 358.4290999999999L70.8465000000001 359.91739999999993L64.56000000000017 360.6336999999999L61.446000000000254 361.5738999999999z">
      <title id="t411">Huitième circonscription de Seine-Maritime</title>
      <desc id="d411">Cantons de : Gonfreville-l'Orcher, Le Havre II, Le Havre III, Le Havre IV, Le Havre VIII, Le Havre IX</desc>
    </path><path class="circo" id="id-076-09" d="M173.4265000000005 339.3430000000001L167.37250000000017 349.3092999999999L156.92050000000052 346.0906L153.81700000000023 335.5238L151.60050000000012 335.6555L149.187 341.27835000000005L148.9625000000001 351.4981499999999L153.26900000000023 351.74634999999995L157.0270000000005 363.69969999999995L161.77100000000053 362.2737999999998L168.00550000000044 375.8272499999998L169.72900000000038 384.75044999999994L175.5200000000002 389.3887000000001L173.091 391.3955999999999L156.5825000000001 402.13885000000005L152.61650000000031 404.23845L135.87000000000046 410.75140000000005L128.30250000000035 412.89095000000003L115.63150000000007 414.87480000000005L97.13850000000036 416.93299999999994L91.65800000000047 412.31374999999986L93.21950000000015 409.1380000000001L105.16250000000014 409.3341000000001L100.45350000000042 408.60715L91.87650000000019 407.5793999999999L90.47950000000014 411.29005000000006L86.30750000000035 410.48794999999984L79.44700000000012 409.26874999999995L72.62250000000051 407.57874999999984L79.14950000000033 379.5579000000001L76.7225000000002 373.3867999999998L77.84150000000011 371.47564999999986L91.42950000000042 366.02959999999996L91.1020000000002 363.6630499999998L85.77850000000012 360.8150499999999L81.9930000000005 361.8652499999999L77.01850000000036 358.4290999999999L77.82650000000046 356.3344000000001L74.9550000000005 350.26880000000006L78.25400000000002 344.6344500000001L82.57850000000019 345.34975000000003L87.72200000000055 349.5595L90.35050000000012 346.2465L87.57000000000005 342.93184999999994L88.59900000000039 336.48044999999996L85.30550000000005 334.8567L85.33000000000015 333.00555L81.94800000000043 330.7014000000001L85.03500000000031 327.69450000000006L83.04750000000013 317.2946999999999L78.87050000000045 319.0733499999999L74.45050000000037 318.06700000000006L72.8385000000003 317.02065000000005L72.73500000000013 314.90219999999994L78.37650000000053 312.11614999999995L71.91900000000032 311.74105L66.64050000000032 307.75784999999985L60.56450000000041 313.5567499999999L56.44150000000025 314.33965L54.958500000000186 320.11705000000006L51.313500000000545 319.10349999999994L51.10250000000008 307.7020999999999L45.1215000000002 305.21510000000006L44.35300000000041 304.1165000000001L41.38400000000047 301.3629499999999L32.25500000000011 306.56419999999997L26.294000000000324 304.19849999999997L32.44350000000054 290.93154999999996L36.72200000000032 280.1659999999998L36.04600000000005 273.30794999999995L39.46300000000008 264.85404999999986L41.49000000000001 253.87929999999983L47.8045000000003 247.61484999999993L48.98300000000006 245.62915000000004L58.75450000000001 236.55924999999996L67.33300000000042 233.49615L84.13650000000018 226.19349999999997L86.40800000000013 224.89689999999996L96.42400000000009 219.05294999999995L98.8315 218.75765L107.74400000000014 217.83164999999997L115.59650000000033 213.60385000000008L122.72800000000018 208.54989999999987L127.57000000000005 200.75725000000006L136.10300000000052 197.82299999999992L153.66400000000056 188.34585000000004L177.07250000000045 173.87024999999994L185.28200000000027 167.07234999999997L189.41650000000038 166.37344999999982L194.36950000000024 162.57565L196.19850000000042 168.38580000000007L200.60150000000021 172.32124999999996L211.94500000000005 166.65210000000002L213.58650000000011 168.01034999999985L215.32250000000033 168.98124999999993L213.7760000000003 172.64594999999986L214.69750000000033 176.5182999999999L214.30800000000033 177.47185000000002L216.82200000000023 182.6854499999999L215.41300000000035 184.2497499999999L217.0690000000002 190.17515000000003L207.7860000000004 194.11839999999984L210.82550000000026 198.75084999999984L213.57100000000003 203.82350000000002L216.69250000000034 208.70649999999983L219.8965000000004 214.75165000000004L216.1620000000005 216.60509999999988L212.81300000000044 221.95760000000007L217.65250000000037 226.5728999999999L222.98350000000028 236.17739999999998L222.0245 237.76665000000008L229.95250000000055 250.55634999999995L232.35150000000033 257.65244999999993L233.86450000000025 260.57140000000004L237.66650000000027 260.13724999999994L240.5940000000004 262.54695L248.23550000000012 255.98205000000007L254.19400000000053 253.9686499999999L260.09000000000015 254.42585000000008L263.4060000000005 256.4602500000001L263.1935000000004 260.2686L274.7860000000003 259.65845L278.8530000000003 265.53894999999983L273.83100000000013 274.26649999999995L278.9070000000004 278.4684999999999L279.70800000000054 282.79470000000003L279.4130000000001 287.45765000000006L269.13850000000025 287.36114999999984L263.17800000000034 281.4826500000001L256.5685000000002 280.8276000000001L254.35400000000016 282.3569499999999L250.09450000000015 289.3036000000001L244.7460000000001 292.6250999999999L245.25000000000034 295.1406L249.22050000000013 301.69809999999984L249.15050000000008 303.9112L245.38450000000012 306.17005000000006L245.36250000000052 312.5560999999999L242.47650000000021 315.9027499999999L238.12550000000044 316.0745499999999L238.6665000000005 321.9584499999999L232.8985 323.61760000000004L229.81250000000045 330.9832L226.74900000000036 334.02254999999997L220.88400000000036 334.54350000000005L217.40800000000036 339.7754499999999L222.56050000000016 343.6753999999999L222.2855000000004 345.6510499999999L213.9345000000003 350.2367000000001L210.36 350.8713499999999L209.91750000000025 350.42534999999987L214.23200000000008 345.4041000000001L211.54100000000028 342.1181999999999L207.34000000000037 341.48865L203.14250000000015 349.1344000000001L198.17800000000034 353.4176500000001L192.2320000000002 351.4025000000001L189.29550000000006 354.38625L191.0450000000003 355.68545L190.37050000000022 357.7671000000001L188.18850000000054 357.8188499999999L179.2240000000004 351.74440000000004L179.7240000000005 345.29145L174.80500000000006 338.1912L173.4265000000005 339.3430000000001z">
      <title id="t412">Neuvième circonscription de Seine-Maritime</title>
      <desc id="d412">Cantons de : Bolbec, Criquetot-l'Esneval, Fauville-en-Caux, Fécamp, Goderville, Saint-Romain-de-Colbosc, Valmont</desc>
    </path><path class="circo" id="id-076-10" d="M405.85650000000044 153.45965000000007L402.59150000000034 145.96069999999997L401.38400000000047 144.44525L391.8685000000005 146.1202L388.0835000000002 144.09059999999982L377.2750000000002 144.84999999999985L379.18300000000045 139.3558999999999L366.1940000000004 142.8703999999999L364.5115000000004 138.84494999999987L361.4200000000005 141.51569999999992L360.82600000000014 145.8677499999999L349.70800000000054 143.64035L342.07550000000026 138.365L337.45300000000043 138.7276L334.25700000000006 131.77449999999993L332.20550000000003 131.94924999999984L332.3340000000002 126.47535000000005L334.04150000000016 125.80655000000007L339.98500000000035 128.32404999999994L359.26300000000026 119.3005500000001L353.40750000000014 113.17784999999986L328.37450000000047 120.43059999999997L323.95650000000046 121.01439999999997L311.98800000000006 127.70144999999985L296.2220000000002 132.0336499999999L290.4905000000002 132.27370000000008L277.0580000000001 133.52595000000008L273.21000000000026 131.24889999999994L255.6895000000003 134.98715000000004L250.27500000000032 136.14370000000008L245.91700000000003 137.0443499999999L229.53400000000045 142.24874999999997L218.66400000000056 145.02205000000004L210.56100000000015 149.31825000000003L198.86650000000031 157.17555000000004L194.36950000000024 162.57565L196.19850000000042 168.38580000000007L200.60150000000021 172.32124999999996L211.94500000000005 166.65210000000002L213.58650000000011 168.01034999999985L215.32250000000033 168.98124999999993L213.7760000000003 172.64594999999986L214.69750000000033 176.5182999999999L214.30800000000033 177.47185000000002L216.82200000000023 182.6854499999999L215.41300000000035 184.2497499999999L217.0690000000002 190.17515000000003L207.7860000000004 194.11839999999984L210.82550000000026 198.75084999999984L213.57100000000003 203.82350000000002L216.69250000000034 208.70649999999983L219.8965000000004 214.75165000000004L216.1620000000005 216.60509999999988L212.81300000000044 221.95760000000007L217.65250000000037 226.5728999999999L222.98350000000028 236.17739999999998L222.0245 237.76665000000008L229.95250000000055 250.55634999999995L232.35150000000033 257.65244999999993L233.86450000000025 260.57140000000004L237.66650000000027 260.13724999999994L240.5940000000004 262.54695L248.23550000000012 255.98205000000007L254.19400000000053 253.9686499999999L260.09000000000015 254.42585000000008L263.4060000000005 256.4602500000001L263.1935000000004 260.2686L274.7860000000003 259.65845L278.8530000000003 265.53894999999983L273.83100000000013 274.26649999999995L278.9070000000004 278.4684999999999L279.70800000000054 282.79470000000003L279.4130000000001 287.45765000000006L269.13850000000025 287.36114999999984L263.17800000000034 281.4826500000001L256.5685000000002 280.8276000000001L254.35400000000016 282.3569499999999L250.09450000000015 289.3036000000001L244.7460000000001 292.6250999999999L245.25000000000034 295.1406L249.22050000000013 301.69809999999984L249.15050000000008 303.9112L245.38450000000012 306.17005000000006L245.36250000000052 312.5560999999999L242.47650000000021 315.9027499999999L238.12550000000044 316.0745499999999L238.6665000000005 321.9584499999999L241.18450000000053 325.0058999999999L245.01250000000027 324.49070000000006L252.2735 328.1985L254.91700000000037 333.7467000000001L260.2000000000004 327.78099999999995L264.96550000000013 331.41834999999986L268.98450000000025 331.83644999999984L265.38850000000025 326.59144999999995L266.3665000000003 324.6421000000001L272.5835000000001 324.4369499999999L281.1370000000005 318.63740000000007L283.11000000000035 318.9690999999999L285.24950000000047 324.7424000000001L292.5935000000004 332.1562499999999L294.37250000000006 335.64629999999994L296.2330000000003 334.7630000000001L303.1925000000001 326.31744999999995L312.77800000000013 321.7172500000001L311.3185000000004 318.05649999999986L310.3425000000004 316.57545L311.2760000000003 307.64174999999994L310.3625000000005 304.39525000000003L311.6795000000002 301.21534999999994L311.20450000000005 292.8009499999999L305.0030000000004 286.83419999999984L308.08550000000025 283.45564999999993L319.0285 293.70374999999996L326.8535000000003 300.6886L327.23400000000026 301.0494L335.58700000000044 307.0416499999999L339.7370000000001 299.58785000000006L341.0500000000002 299.00405000000006L346.0450000000003 311.16269999999986L354.5335 311.8368000000001L354.85600000000034 298.93974999999983L351.79700000000025 293.15920000000006L355.4660000000001 291.35085000000004L363.6370000000005 290.04310000000004L367.1350000000001 292.21565L373.34450000000004 292.40725L376.32100000000037 286.50149999999996L383.03450000000055 287.4839L384.4165000000004 293.88945000000007L389.7645 297.67364999999984L389.42150000000026 306.1437999999998L388.571 310.3751L390.1325000000003 311.8794L395.8615000000003 309.4812999999999L400.4680000000002 305.20264999999995L397.98700000000053 299.3569500000001L400.10500000000036 293.3357000000001L395.7235000000003 283.31844999999987L390.76900000000023 280.98449999999985L396.4725000000004 271.30349999999993L404.5455000000004 275.24204999999995L406.6420000000005 280.02160000000003L413.54150000000004 280.65759999999983L421.1310000000003 285.7021499999999L428.19600000000037 292.9491999999999L425.45600000000036 296.1122499999999L420.87950000000035 291.76619999999986L420.20700000000033 287.83694999999994L416.42450000000053 289.25174999999996L416.6410000000002 291.3580999999999L417.1985000000001 298.46284999999995L417.60050000000035 301.16484999999983L411.51550000000043 303.3327L399.98500000000035 312.86039999999986L395.7140000000004 317.8257500000001L398.4300000000002 321.8227999999999L407.64850000000024 327.9009500000001L414.08450000000016 329.4431L413.7110000000001 331.208L418.97650000000056 331.77224999999993L418.5360000000003 337.26145L410.3280000000001 339.03245L412.22500000000025 344.9508L410.7370000000003 346.5012999999999L407.5 354.6842000000001L409.93750000000034 350.9611000000001L416.2190000000004 353.083L419.889 351.2027499999999L424.35700000000054 355.2958000000001L437.3285000000004 357.9170500000001L436.5935000000002 359.81854999999996L440.5835000000002 361.22884999999997L446.81200000000047 359.79629999999986L450.0030000000004 362.95140000000004L455.45750000000055 366.78304999999995L465.92600000000004 370.30929999999984L467.0995000000005 374.60604999999987L470.42550000000006 377.4056999999999L473.2355000000001 378.6935L475.8330000000001 376.31020000000007L491.02850000000046 365.6721999999999L492.8105000000005 365.32584999999983L492.86 358.9038500000001L500.1395000000002 358.43500000000006L500.50850000000025 356.5367499999999L496.9655 349.00409999999994L502.96700000000044 343.22339999999997L505.0135 344.15554999999983L506.49050000000045 342.45035L509.5205000000004 339.2270500000001L513.4270000000004 328.74509999999987L511.82650000000024 322.9883000000001L513.8000000000005 322.4146999999999L516.4290000000005 316.85344999999984L532.9535000000004 313.22035L534.2135000000002 306.92755000000005L538.3630000000005 309.40979999999996L540.4005000000001 308.20509999999985L552.4695000000003 304.85175L555.2295000000004 301.8469999999999L560.7985000000002 302.4871999999999L566.5230000000003 296.60955L563.2705000000004 289.0332000000001L567.6795000000004 289.8219499999999L573.4585000000004 296.4757L577.8205000000003 295.82224999999994L580.9845000000001 298.84265L581.4065000000005 299.3352999999999L592.2345000000001 296.8286499999999L605.1030000000003 288.38224999999994L605.7585 279.88699999999994L598.2195000000002 276.0501500000001L595.1365000000004 270.5517499999999L597.6530000000002 269.8478499999999L597.7695 267.6738L593.7030000000004 266.44254999999987L592.2625000000005 260.1437999999999L587.1115000000003 256.82680000000005L589.7210000000001 253.57579999999984L583.6900000000003 250.78959999999995L577.2700000000003 251.57274999999998L573.836 256.80184999999994L562.5085000000001 262.82804999999996L556.0825000000006 265.74645000000004L553.7800000000004 259.98549999999994L549.7205000000002 259.21965L548.9765000000006 255.14449999999982L547.5360000000001 255.25094999999993L544.2940000000004 246.3145L541.0940000000005 248.98020000000002L536.8835000000001 244.79334999999992L532.3125000000005 240.5973499999999L533.7665000000004 234.41119999999984L526.4755000000002 229.2974000000001L536.2850000000003 226.47554999999983L530.4855000000003 223.3726999999999L530.4915000000005 221.1507499999999L535.2125000000001 216.44589999999994L534.0895 209.88470000000007L536.7870000000005 204.7308000000001L532.8935000000001 202.98059999999992L530.7895000000002 197.20699999999994L526.6095000000001 196.43309999999985L523.2990000000001 191.12824999999987L516.9355000000002 198.25729999999993L514.0645000000001 194.77720000000005L507.5780000000003 194.03284999999983L506.6365000000002 191.97734999999994L504.7030000000001 191.772L501.8735000000004 187.31494999999995L499.7520000000003 187.69344999999987L496.48750000000007 184.96274999999997L496.08550000000037 179.10224999999997L492.0550000000003 180.14524999999992L492.4740000000003 176.17124999999987L487.1550000000002 179.25635L480.98550000000046 178.0651499999999L480.2570000000003 174.0460999999999L476.18750000000034 168.75929999999983L474.8340000000002 159.9403000000001L476.4435000000003 158.54674999999986L484.00350000000003 161.76659999999998L486.9550000000004 158.60870000000006L480.18100000000004 150.49665000000005L475.35600000000045 147.66985000000005L471.25850000000014 147.74034999999998L468.93100000000004 144.92185000000006L464.59250000000054 145.55594999999983L462.4295000000001 145.01409999999993L454.7565000000003 149.53114999999997L451.05050000000006 156.14499999999992L444.5915000000002 155.2033499999999L438.9115000000004 147.86624999999987L431.95700000000045 144.10775L429.00150000000053 146.69099999999986L428.3280000000002 148.86345000000006L424.8470000000003 150.94484999999992L421.06700000000046 150.47560000000004L420.47500000000014 156.43560000000008L418.47200000000043 155.90514999999982L415.22950000000037 148.47000000000008L405.85650000000044 153.45965000000007z">
      <title id="t413">Dixième circonscription de Seine-Maritime</title>
      <desc id="d413">Cantons de : Bacqueville-en-Caux, Bellencombre, Cany-Barville, Clères, Doudeville, Fontaine-le-Dun, Longueville-sur-Scie, Ourville-en-Caux, Saint-Saëns, Saint-Valery-en-Caux, Tôtes, Yerville, Yvetot</desc>
    </path></svg>