<svg xmlns="http://www.w3.org/2000/svg" version="1.1" xmlns:xlink="http://www.w3.org/1999/xlink" xmlns:svgjs="http://svgjs.dev/svgjs" width="860.1400000000001" height="1115.1900000000003" fill="#eeeeee" stroke="#cccccc" xmlns:sodipodi="http://sodipodi.sourceforge.net/DTD/sodipodi-0.dtd"><path class="circo" id="id-077-01" d="M235.5925000000002 611.5404L244.93550000000027 606.3594999999999L246.7450000000008 599.1552L239.4285000000002 585.66615L241.51050000000055 570.6631500000002L238.76300000000015 570.70225L228.07900000000018 580.6999000000001L217.82350000000065 576.55615L216.6025000000002 569.2786500000001L200.47750000000065 565.34105L192.99399999999991 565.0714499999999L193.0785000000003 579.9484500000001L186.5904999999998 589.0591999999999L191.65399999999977 593.6009500000001L194.59600000000023 603.6124500000001L192.89750000000026 625.8141999999999L175.3404999999998 633.8327500000001L187.40049999999997 641.9262500000001L190.34449999999993 648.7342500000001L186.57400000000052 654.4170000000001L177.08700000000022 662.56545L161.45050000000083 673.7882000000001L154.06200000000013 675.6723499999999L144.5225000000005 670.3802000000001L138.25249999999983 660.66075L124.60500000000025 653.5437000000001L115.80050000000028 651.71475L105.30150000000049 647.8989L101.47800000000075 641.57215L102.70650000000046 634.2997000000001L113.02500000000009 623.5072000000001L114.78900000000067 616.6425500000001L102.93949999999995 611.0922499999999L94.14499999999975 616.8649L92.84750000000031 624.0792499999999L79.07199999999989 645.4375L86.56749999999988 645.7624500000002L77.81200000000013 674.1008L84.65050000000019 675.7349L86.2945000000002 682.6024L89.80000000000018 682.7118500000001L88.51549999999975 698.4695499999999L87.24199999999996 706.2369L81.39800000000037 710.92L83.96950000000061 736.66895L79.31400000000053 739.0148L78.05700000000002 741.0094500000001L82.58350000000064 745.3830499999999L82.84049999999979 751.24885L83.29700000000003 771.5498000000001L92.37799999999993 773.98005L114.37450000000013 803.23415L116.09900000000039 809.6062999999999L134.9840000000006 821.7618L149.73400000000083 784.8130000000002L152.3014999999998 766.7358500000001L151.91250000000082 763.0982000000001L167.79449999999997 754.2753L175.97700000000032 742.31265L186.94450000000074 728.0682L176.01600000000076 703.5036000000001L178.69850000000042 696.7467499999999L183.83350000000064 699.4726000000002L197.17750000000024 704.8635500000001L201.56000000000063 695.4602000000001L207.76000000000067 708.6520500000001L208.72100000000046 706.3004500000001L207.5795000000005 703.8963L221.89000000000078 693.8713L228.98500000000013 693.1114000000001L234.23450000000003 684.08675L249.64950000000044 683.57005L251.92750000000046 676.42355L243.16599999999994 664.5539000000001L236.1964999999998 661.7371000000002L237.19050000000038 654.2506000000002L242.9570000000001 650.7443L242.0825000000002 644.2269L248.37300000000027 641.1913500000002L244.80500000000006 618.0604000000001L235.5925000000002 611.5404z">
      <title id="t414">Première circonscription de Seine-et-Marne</title>
      <desc id="d414">Cantons de : Melun Nord, Melun Sud, Perthes</desc>
    </path><path class="circo" id="id-077-02" d="M43.941500000000815 971.1511L38.55000000000018 966.6427L35.32249999999976 968.06405L28.33750000000009 965.2267999999999L21.69650000000047 956.21215L20.50799999999981 953.0720000000001L20.991500000000087 916.90895L7.611000000000558 893.0432500000002L2.241000000000213 887.44105L0 876.1906L6.599499999999807 879.36265L20.424000000000433 874.7657500000001L30.65150000000017 877.6731500000001L28.073500000000422 863.2502499999999L36.06100000000083 852.4622499999999L27.697500000000446 847.1055L35.96400000000017 840.08755L43.08250000000044 841.3795500000002L42.490999999999985 834.0928000000001L66.61000000000058 824.3546500000001L60.23050000000012 815.5224L69.25299999999993 808.3502L84.37000000000012 810.48715L95.6860000000006 800.3184500000002L114.37450000000013 803.23415L116.09900000000039 809.6062999999999L134.9840000000006 821.7618L149.73400000000083 784.8130000000002L152.3014999999998 766.7358500000001L151.91250000000082 763.0982000000001L167.79449999999997 754.2753L175.97700000000032 742.31265L186.94450000000074 728.0682L176.01600000000076 703.5036000000001L178.69850000000042 696.7467499999999L183.83350000000064 699.4726000000002L197.17750000000024 704.8635500000001L201.56000000000063 695.4602000000001L207.76000000000067 708.6520500000001L208.72100000000046 706.3004500000001L214.4850000000008 711.606L225.91099999999983 714.1492000000001L260.47900000000027 707.966L263.44400000000064 709.0604000000001L262.4930000000006 712.08345L272.90399999999977 714.069L277.56399999999985 719.93475L279.96150000000057 736.0489L290.58700000000044 741.22565L293.31500000000005 747.9470500000001L299.72350000000006 751.3003000000002L313.41999999999985 750.54445L316.6470000000004 776.27435L306.16100000000074 775.30705L304.24800000000005 777.8977000000002L302.6070000000004 784.9177500000001L292.7359999999999 789.3536999999999L267.41449999999986 792.153L263.7914999999998 796.6440000000001L281.1855000000003 796.3812L283.8995 798.8883500000002L285.3475000000003 816.3965000000001L287.11650000000077 827.8502500000001L298.6940000000004 837.403L303.1215000000009 846.9840499999999L296.99550000000045 863.5973L242.7150000000006 857.348L250.5709999999999 889.9353000000001L257.89049999999975 889.1902L261.76950000000033 879.5927999999999L275.23300000000063 874.37765L281.37200000000007 882.65465L281.9100000000003 892.9687L288.7340000000006 904.1625L288.1254999999999 911.0257500000001L284.8770000000002 912.1850999999999L303.7575000000004 918.3849500000001L305.4309999999998 925.2898499999999L319.4730000000004 923.7574500000001L330.33900000000017 932.9528499999999L342.6075000000003 937.0572L354.4245000000001 923.1295000000001L367.8640000000007 931.5683L391.6584999999998 881.4603000000001L386.6145000000006 875.7724000000001L399.221 858.0646L403.84750000000054 853.14555L403.85400000000004 874.5655499999999L410.2610000000004 877.35295L410.5529999999999 880.9641L427.9399999999998 901.61435L425.6925000000001 890.7214L440.2445 887.9058500000001L453.0435 880.8718500000002L456.345 891.3474000000001L455.8535000000006 906.0523999999999L460.86900000000014 907.94325L469.5825000000002 915.36635L464.0975000000003 920.1043500000002L471.2605000000008 932.27505L467.57900000000063 943.1400000000001L481.58900000000017 947.3647000000001L484.44450000000074 971.95835L473.44749999999976 973.02205L458.7504999999999 1002.5921000000001L453.7015000000008 1016.65905L447.1424999999999 1020.0740500000002L441.1099999999999 1017.10955L428.32250000000045 1023.3312999999999L427.79949999999985 1033.5621L416.30750000000035 1035.4144000000001L401.02700000000027 1050.6021L402.18349999999987 1067.71015L375.3685000000007 1072.0973999999999L353.8850000000002 1075.3793L350.8030000000008 1075.8637500000002L338.78150000000005 1090.86325L316.8335000000002 1105.0856500000002L303.1625000000008 1103.09375L300.99950000000035 1096.5196L301.69950000000085 1078.5503L309.0975000000003 1070.5633500000001L309.46800000000053 1066.96185L300.625 1062.5741L294.17800000000057 1065.5939500000002L287.3300000000006 1063.308L281.6240000000005 1067.75335L274.38150000000064 1066.8765L267.8870000000006 1069.9293000000002L254.37400000000025 1064.47645L267.57150000000024 1080.4421499999999L268.26900000000023 1087.3705L244.06400000000076 1096.50295L232.2975000000008 1110.4526L209.32900000000018 1110.06385L203.47800000000007 1115.0515L201.39099999999985 1115.1900000000003L182.84600000000069 1094.7978500000002L156.70299999999997 1102.6994L137.15350000000058 1102.7404500000002L131.75250000000005 1092.7303000000002L107.30999999999995 1093.0583500000002L95.64200000000028 1106.4670500000002L96.00099999999998 1110.0140000000001L62.98900000000003 1105.70815L49.23049999999989 1109.5786L46.942000000000235 1112.03655L37.20649999999978 1109.71265L38.36250000000064 1103.085L50.814000000000306 1095.6210500000002L58.949499999999944 1084.1592L58.76600000000053 1077.4585499999998L67.18600000000038 1066.4618500000001L84.25749999999994 1075.4181L90.60350000000085 1066.1027L86.11700000000042 1048.2735L90.9699999999998 1034.87095L94.5855000000006 1033.8605L96.59350000000018 1028.4886000000001L92.4470000000008 1011.1633999999999L90.01800000000003 1011.1589500000001L90.92899999999986 997.2339000000001L85.00999999999976 994.953L84.15750000000003 984.3510500000001L67.88150000000087 983.8658500000001L63.02250000000072 978.1350500000001L62.41550000000075 970.7058L56.72400000000039 965.75765L43.941500000000815 971.1511z">
      <title id="t415">Deuxième circonscription de Seine-et-Marne</title>
      <desc id="d415">Cantons de : La Chapelle-la-Reine, Château-Landon, Fontainebleau, Lorrez-le-Bocage-Préaux, Nemours</desc>
    </path><path class="circo" id="id-077-03" d="M225.91099999999983 714.1492000000001L214.4850000000008 711.606L208.72100000000046 706.3004500000001L207.5795000000005 703.8963L221.89000000000078 693.8713L228.98500000000013 693.1114000000001L234.23450000000003 684.08675L249.64950000000044 683.57005L251.92750000000046 676.42355L243.16599999999994 664.5539000000001L236.1964999999998 661.7371000000002L237.19050000000038 654.2506000000002L242.9570000000001 650.7443L242.0825000000002 644.2269L248.37300000000027 641.1913500000002L244.80500000000006 618.0604000000001L235.5925000000002 611.5404L244.93550000000027 606.3594999999999L246.7450000000008 599.1552L239.4285000000002 585.66615L241.51050000000055 570.6631500000002L238.76300000000015 570.70225L242.51250000000027 550.6782500000002L256.18150000000014 542.3892999999999L260.30650000000037 533.5498500000001L257.4860000000001 527.3277500000002L261.3900000000001 524.06315L274.7694999999999 530.5553000000002L287.56900000000087 517.0285500000001L290.9465 515.2062999999999L298.13150000000064 517.80535L304.6685000000002 522.7715999999999L312.06950000000006 523.95235L313.63249999999994 527.3714500000001L305.2010000000007 534.8098500000002L328.4495000000004 523.6445500000001L335.9220000000005 525.54165L337.42650000000026 519.8805L344.3254999999999 521.2976000000002L352.4459999999999 515.1223500000002L362.1765000000005 516.8281500000002L371.14649999999983 499.10285L374.56050000000005 498.2731500000001L385.86450000000013 522.98985L391.44300000000044 520.4872000000001L397.2064999999998 522.3239L394.89149999999995 536.6002000000002L390.63150000000064 542.44085L396.27000000000066 551.6940000000001L409.7485000000006 545.1618000000001L416.77400000000034 547.94515L420.8510000000001 554.3731000000001L439.1395 554.0654L442.58100000000013 554.3362000000001L439.3115 560.34385L444.65900000000033 572.9678500000001L458.06850000000054 565.7760000000001L475.9800000000007 572.8023000000001L475.65150000000017 589.2357L474.93600000000015 598.9394500000002L471.096 599.2391500000001L462.9335000000003 611.70235L437.1455000000003 617.0291000000002L430.8045000000004 621.4135L428.03 628.5088500000002L422.44350000000054 658.62095L410.8230000000003 668.3697L400.1830000000007 672.6149500000001L395.5205000000001 687.3489L396.69500000000085 691.0314000000001L404.2335000000003 692.3203L402.48199999999997 705.5608500000001L412.7570000000003 703.2648000000002L430.1010000000008 709.1485000000001L444.46199999999976 734.3686000000001L446.2930000000006 744.9805500000001L459.4524999999999 738.0804999999999L465.6675000000007 759.8750500000001L481.6975000000002 769.0147000000001L494.7435000000007 766.9786499999999L499.41850000000045 770.9926500000001L499.7109999999998 778.68085L510.9000000000003 802.70395L505.50050000000056 807.7578000000001L504.91750000000025 831.82755L518.1645000000003 835.10565L535.6610000000001 832.1948500000001L539.8220000000003 839.7425L534.0750000000003 844.439L525.738 861.0162000000001L522.9160000000002 858.68985L522.3059999999998 851.8525000000001L514.9700000000007 852.22425L508.87550000000033 848.4229499999999L498.5910000000001 851.8870500000002L485.8355000000006 849.3154500000002L477.00199999999995 870.2708L479.2700000000002 883.9113500000001L460.86900000000014 907.94325L455.8535000000006 906.0523999999999L456.345 891.3474000000001L453.0435 880.8718500000002L440.2445 887.9058500000001L425.6925000000001 890.7214L427.9399999999998 901.61435L410.5529999999999 880.9641L410.2610000000004 877.35295L403.85400000000004 874.5655499999999L403.84750000000054 853.14555L399.221 858.0646L386.6145000000006 875.7724000000001L391.6584999999998 881.4603000000001L367.8640000000007 931.5683L354.4245000000001 923.1295000000001L342.6075000000003 937.0572L330.33900000000017 932.9528499999999L319.4730000000004 923.7574500000001L305.4309999999998 925.2898499999999L303.7575000000004 918.3849500000001L284.8770000000002 912.1850999999999L288.1254999999999 911.0257500000001L288.7340000000006 904.1625L281.9100000000003 892.9687L281.37200000000007 882.65465L275.23300000000063 874.37765L261.76950000000033 879.5927999999999L257.89049999999975 889.1902L250.5709999999999 889.9353000000001L242.7150000000006 857.348L296.99550000000045 863.5973L303.1215000000009 846.9840499999999L298.6940000000004 837.403L287.11650000000077 827.8502500000001L285.3475000000003 816.3965000000001L283.8995 798.8883500000002L281.1855000000003 796.3812L263.7914999999998 796.6440000000001L267.41449999999986 792.153L292.7359999999999 789.3536999999999L302.6070000000004 784.9177500000001L304.24800000000005 777.8977000000002L306.16100000000074 775.30705L316.6470000000004 776.27435L313.41999999999985 750.54445L299.72350000000006 751.3003000000002L293.31500000000005 747.9470500000001L290.58700000000044 741.22565L279.96150000000057 736.0489L277.56399999999985 719.93475L272.90399999999977 714.069L262.4930000000006 712.08345L263.44400000000064 709.0604000000001L260.47900000000027 707.966L225.91099999999983 714.1492000000001z">
      <title id="t416">Troisième circonscription de Seine-et-Marne</title>
      <desc id="d416">Cantons de : Le Châtelet-en-Brie, Montereau-Fault-Yonne, Moret-sur-Loing, Mormant</desc>
    </path><path class="circo" id="id-077-04" d="M709.3040000000008 828.6262L705.3325000000007 834.60695L698.1040000000007 834.67605L693.3564999999999 835.8569000000001L683.4384999999997 831.6706499999999L679.8545000000001 831.51585L678.9920000000006 834.9777000000001L658.6480000000006 825.5469499999999L657.4959999999999 829.1382L650.5175000000008 828.9534000000002L634.8734999999999 843.6722500000001L616.7304999999999 837.9494000000001L607.867 840.8988499999999L600.4399999999998 844.6738499999999L592.5385000000006 838.8966L586.0154999999997 840.3023000000001L583.0865000000006 833.14665L576.3045 829.67585L573.0455000000006 835.9782500000001L556.3725 841.2215500000001L552.6895000000002 835.3272L539.8220000000003 839.7425L535.6610000000001 832.1948500000001L518.1645000000003 835.10565L504.91750000000025 831.82755L505.50050000000056 807.7578000000001L510.9000000000003 802.70395L499.7109999999998 778.68085L499.41850000000045 770.9926500000001L494.7435000000007 766.9786499999999L481.6975000000002 769.0147000000001L465.6675000000007 759.8750500000001L459.4524999999999 738.0804999999999L446.2930000000006 744.9805500000001L444.46199999999976 734.3686000000001L430.1010000000008 709.1485000000001L412.7570000000003 703.2648000000002L402.48199999999997 705.5608500000001L404.2335000000003 692.3203L396.69500000000085 691.0314000000001L395.5205000000001 687.3489L400.1830000000007 672.6149500000001L410.8230000000003 668.3697L422.44350000000054 658.62095L428.03 628.5088500000002L430.8045000000004 621.4135L437.1455000000003 617.0291000000002L462.9335000000003 611.70235L471.096 599.2391500000001L474.93600000000015 598.9394500000002L475.65150000000017 589.2357L475.9800000000007 572.8023000000001L458.06850000000054 565.7760000000001L444.65900000000033 572.9678500000001L439.3115 560.34385L442.58100000000013 554.3362000000001L439.1395 554.0654L420.8510000000001 554.3731000000001L416.77400000000034 547.94515L409.7485000000006 545.1618000000001L396.27000000000066 551.6940000000001L390.63150000000064 542.44085L394.89149999999995 536.6002000000002L397.2064999999998 522.3239L391.44300000000044 520.4872000000001L385.86450000000013 522.98985L374.56050000000005 498.2731500000001L372.4520000000007 490.8724500000001L341.67599999999993 489.1378000000002L328.5050000000001 497L320.5740000000003 489.0504500000002L312.7895000000001 488.4132000000001L316.9150000000002 469.3827500000002L328.9415000000008 459.92454999999995L336.5330000000006 441.75535000000013L337.5285000000008 436.5118L328.39000000000055 431.20615L314.3430000000001 430.158L310.11600000000044 415.51599999999996L298.30550000000017 405.7908000000002L302.8444999999999 395.0263L311.0149999999999 387.61984999999993L303.69950000000017 378.82795L298.6099999999999 364.3982000000001L284.3209999999999 347.3950500000001L280.59600000000046 336.80240000000015L290.0920000000008 326.01895L303.14050000000066 324.3387L303.6355000000003 324.80265L310.6389999999999 321.91600000000005L325.37750000000074 323.5806000000001L331.8164999999999 320.02110000000005L338.0880000000002 323.6963L343.0759999999998 324.95870000000014L351.01350000000025 337.19645L357.20300000000066 341.05470000000014L367.38050000000044 325.65735000000006L369.9440000000004 315.0571500000001L381.1250000000007 313.6080000000001L389.0465000000006 317.6712500000001L388.40400000000045 329.4702500000001L398.32700000000045 333.34929999999997L399.68900000000076 336.7002000000001L397.98200000000065 354.19155L401.54550000000086 353.2081500000001L402.21000000000004 378.4430000000002L404.65700000000083 380.68155L416.2160000000006 376.49610000000007L423.66300000000024 377.3197500000002L428.7080000000003 387.42910000000006L436.1130000000003 386.34754999999996L443.96150000000034 397.36400000000015L459.4595000000004 412.72825L464.36700000000087 414.68515000000014L475.6815000000006 412.9447L485.36100000000033 419.0919000000001L487.5965000000008 430.3776499999999L494.2885000000001 434.28445L495.1200000000006 438.0653L508.4870000000001 440.82939999999996L512.0765000000006 440.3497L512.1204999999998 436.7203999999999L529.0440000000001 432.8596L537.5670000000002 400.37685L544.8990000000003 401.54785000000015L548.8300000000004 407.80950000000007L560.2625 399.2451000000001L551.3200000000006 387.2024500000002L550.421 372.20489999999995L569.5145000000002 371.05010000000004L571.4585 336.4947000000001L570.2494999999999 336.7854000000001L573.5095000000001 323.97485000000006L571.0130000000004 317.84760000000006L568.4815000000003 314.7415000000001L554.7555 318.4530500000001L541.2740000000008 314.6011L540.9019999999998 306.87065000000007L530.3815000000009 286.95715000000007L531.0660000000007 280.0031L541.3999999999999 279.48260000000005L538.6095 277.25464999999997L539.1555000000005 270.1689L552.8835000000004 260.4444000000001L547.8809999999999 254.9443500000001L553.8825000000008 236.43445L564.0925000000004 230.71725L568.3420000000001 219.69755000000006L589.1795000000002 197.6594L610.3565000000003 208.88945000000007L604.5870000000002 222.586L604.4794999999999 228.68655000000004L611.4065000000005 230.50685000000001L626.4325000000008 235.01140000000007L635.8974999999998 240.5751500000001L648.9620000000002 236.4806L657.8399999999999 241.9644000000001L666.5140000000008 244.67625000000012L672.2424999999998 239.24565L680.7565 221.3618000000001L693.4165000000007 236.2758500000001L716.7060000000004 223.22510000000008L720.9429999999998 212.82165000000006L726.6584999999998 235.35235L723.0759999999998 250.52810000000008L730.9410000000003 259.24350000000004L731.9640000000004 274.88045L735.2915000000007 276.99945L749.357 272.34875L744.212 282.98730000000006L751.3215000000002 286.0367000000001L762.079 281.6958500000001L766.1144999999999 288.3182500000001L783.6455000000001 294.35995L778.5660000000007 309.0435000000001L790.8355000000006 314.3887500000001L796.9310000000007 300.82465L808.0130000000008 299.29540000000003L812.5215000000003 318.13625L808.0520000000001 328.95825L809.5035000000007 340.54050000000007L804.8595 343.90555000000006L800.3680000000008 335.8399L796.9420000000002 334.33405000000005L777.9150000000004 344.3423L767.0985000000007 342.9803000000001L757.3095000000001 337.57495000000006L749.5725000000004 346.0983L750.5900000000008 349.79870000000005L760.652 354.87965L775.222 355.92920000000004L776.5275000000008 370.90655000000015L776.1950000000002 374.58849999999995L766.1284999999998 379.01415L759.7469999999998 375.43795L752.4095 375.86315L742.9045000000008 400.9085500000002L744.3675000000007 408.0786999999999L751.6660000000002 410.4663499999999L765.933 405.6595500000002L772.0855000000006 410.12209999999993L772.2435000000007 421.3076500000001L776.6245000000004 427.36315L794.8585000000003 426.43925000000013L794.3799999999999 437.48810000000003L794.683 444.1326500000001L794.5780000000002 463.59500000000014L802.5364999999999 472.0568000000002L798.6745000000008 472.61800000000005L797.4210000000005 483.9950500000002L786.8754999999999 488.93955000000017L776.5970000000004 500.52480000000014L779.1725000000008 506.8035500000001L776.4965000000007 509.6482000000002L788.5095000000001 524.2859500000002L782.8035 542.89395L801.7775000000006 539.6750000000002L813.152 529.12515L832.1990000000005 532.6099L843.5405000000003 529.6253L832.8390000000002 540.61595L834.683 544.0094499999999L849.3960000000004 547.95305L860.086 558.9647000000001L860.1400000000001 562.6881500000001L825.2600000000007 575.4893500000002L823.0534999999998 578.5329500000001L830.2175 591.7230500000001L813.1695000000002 594.1387500000001L808.0995000000007 603.4872500000001L796.0610000000008 611.7683000000001L793.4680000000003 614.6379500000002L805.9260000000006 637.7367500000001L805.4674999999997 647.0680500000002L798.7675000000002 648.6448500000001L782.5184999999999 661.3463L772.0135000000005 661.4781499999999L755.5595000000005 655.98585L749.0174999999999 662.0687500000001L763.3839999999998 679.5375500000001L770.8384999999998 696.855L770.6370000000004 704.2210000000001L760.1925000000006 703.6631000000001L747.7970000000005 708.9767000000002L733.2655 717.8557L743.0349999999999 728.8800500000001L742.6675 736.3321000000001L749.2520000000002 745.44215L748.1045000000006 760.6898L742.6080000000002 765.9555999999999L739.7874999999999 776.7277500000001L753.7755000000004 781.0696500000001L748.6660000000006 787.5981500000001L760.3165000000001 787.6092000000001L760.4590000000007 794.7751000000001L755.9640000000002 815.6515L745.1920000000007 814.6940500000001L734.067 806.0829L726.8439999999998 806.2788999999999L720.1235000000008 814.3020500000001L718.3630000000005 832.2928L712.7535 836.1519L712.9065000000003 828.8121L709.3040000000008 828.6262z">
      <title id="t417">Quatrième circonscription de Seine-et-Marne</title>
      <desc id="d417">Cantons de : Bray-sur-Seine, Donnemarie-Dontilly, La Ferté-Gaucher, Nangis, Provins, Rebais, Rozay-en-Brie, Villiers-Saint-Georges</desc>
    </path><path class="circo" id="id-077-05" d="M530.3815000000009 286.95715000000007L531.0660000000007 280.0031L541.3999999999999 279.48260000000005L538.6095 277.25464999999997L539.1555000000005 270.1689L552.8835000000004 260.4444000000001L547.8809999999999 254.9443500000001L553.8825000000008 236.43445L564.0925000000004 230.71725L568.3420000000001 219.69755000000006L589.1795000000002 197.6594L610.3565000000003 208.88945000000007L604.5870000000002 222.586L604.4794999999999 228.68655000000004L611.4065000000005 230.50685000000001L626.4325000000008 235.01140000000007L635.8974999999998 240.5751500000001L648.9620000000002 236.4806L657.8399999999999 241.9644000000001L666.5140000000008 244.67625000000012L672.2424999999998 239.24565L680.7565 221.3618000000001L680.1229999999998 205.37895000000006L674.6000000000004 190.3452L659.0895 200.0357000000001L648.5225000000003 203.08615000000003L645.3295000000003 201.27390000000005L641.6460000000006 194.8225500000001L643.6595 190.16275000000007L637.9735000000005 175.3907000000001L633.7650000000008 161.6747500000001L620.2305000000001 158.8372000000001L618.7225000000001 145.6929000000001L615.5165 146.91995000000006L614.3754999999999 143.40105000000008L604.0390000000002 139.64425000000006L602.7925000000005 133.22630000000004L596.404 126.11560000000011L576.1279999999999 118.55650000000011L569.7980000000007 110.15979999999999L566.3170000000002 117.00524999999999L555.358 118.31190000000007L551.5809999999999 116.55210000000011L542.876 118.12925000000007L545.3105000000005 125.15754999999999L543.2920000000001 136.28150000000005L547.2019999999998 142.29675L534.1925000000003 146.67315000000002L531.5295000000003 143.85290000000012L520.9260000000006 148.64145000000008L516.6055000000006 154.84710000000007L493.63450000000057 156.34420000000006L493.0860000000007 160.19350000000003L474.4190000000003 166.89775000000012L468.7850000000003 161.69945000000013L454.70550000000003 157.28935000000007L449.40450000000055 162.6073500000001L450.1405 173.47505000000012L448.18200000000047 178.51800000000011L458.47849999999994 193.41195L452.5319999999999 206.6519000000001L446.9310000000007 211.5601500000001L439.6035000000006 203.64670000000004L428.79350000000045 201.79735000000008L427.6724999999999 198.2954500000001L426.51200000000017 198.94385L417.63149999999996 204.62590000000006L417.79550000000086 208.1781500000001L408.85650000000055 209.98565L404.4799999999998 214.80575000000002L393.30600000000004 210.91980000000007L387.41700000000037 214.53795L386.28850000000057 225.97390000000004L380.0470000000007 229.33005000000009L379.5775000000003 232.82110000000003L372.69949999999994 233.76040000000003L350.4575 228.31075000000013L338.60250000000065 237.86200000000008L336.1390000000006 236.81470000000004L328.3865000000003 244.1341L322.4860000000001 239.37160000000006L319.08000000000015 241.04875000000007L306.25150000000076 228.62465L307.13700000000017 231.9312500000001L302.42650000000026 236.63695000000004L306.93700000000035 257.5724500000001L310.39750000000026 258.68695L304.07550000000015 271.07849999999996L301.5560000000005 287.1381000000001L291.31450000000086 289.9040500000001L280.8230000000003 296.5435000000001L282.4845000000005 300.2673L284.0470000000005 307.3774L281.54800000000023 314.21350000000007L290.0920000000008 326.01895L303.14050000000066 324.3387L303.6355000000003 324.80265L310.6389999999999 321.91600000000005L325.37750000000074 323.5806000000001L331.8164999999999 320.02110000000005L338.0880000000002 323.6963L343.0759999999998 324.95870000000014L351.01350000000025 337.19645L357.20300000000066 341.05470000000014L367.38050000000044 325.65735000000006L369.9440000000004 315.0571500000001L381.1250000000007 313.6080000000001L389.0465000000006 317.6712500000001L388.40400000000045 329.4702500000001L398.32700000000045 333.34929999999997L399.68900000000076 336.7002000000001L397.98200000000065 354.19155L401.54550000000086 353.2081500000001L402.21000000000004 378.4430000000002L404.65700000000083 380.68155L416.2160000000006 376.49610000000007L423.66300000000024 377.3197500000002L428.7080000000003 387.42910000000006L436.1130000000003 386.34754999999996L443.96150000000034 397.36400000000015L459.4595000000004 412.72825L464.36700000000087 414.68515000000014L475.6815000000006 412.9447L485.36100000000033 419.0919000000001L487.5965000000008 430.3776499999999L494.2885000000001 434.28445L495.1200000000006 438.0653L508.4870000000001 440.82939999999996L512.0765000000006 440.3497L512.1204999999998 436.7203999999999L529.0440000000001 432.8596L537.5670000000002 400.37685L544.8990000000003 401.54785000000015L548.8300000000004 407.80950000000007L560.2625 399.2451000000001L551.3200000000006 387.2024500000002L550.421 372.20489999999995L569.5145000000002 371.05010000000004L571.4585 336.4947000000001L570.2494999999999 336.7854000000001L573.5095000000001 323.97485000000006L571.0130000000004 317.84760000000006L568.4815000000003 314.7415000000001L554.7555 318.4530500000001L541.2740000000008 314.6011L540.9019999999998 306.87065000000007L530.3815000000009 286.95715000000007z">
      <title id="t418">Cinquième circonscription de Seine-et-Marne</title>
      <desc id="d418">Cantons de : Coulommiers, Crécy-la-Chapelle, La Ferté-sous-Jouarre , Communes de : Bailly-Romainvilliers, Magny-le-Hongre, Serris</desc>
    </path><path class="circo" id="id-077-06" d="M280.2015000000006 115.98730000000003L273.5430000000008 117.13270000000009L268.02549999999997 120.71745000000007L267.78599999999983 134.72515L266.96450000000027 143.16900000000004L262.4585000000002 143.22305L245.94450000000052 136.05385000000012L247.94500000000085 132.92540000000002L243.0815000000007 123.28410000000005L236.90900000000056 124.11720000000003L214.94850000000042 119.30605L212.85349999999994 116.26350000000002L214.90400000000022 105.56960000000004L205.0445000000002 95.32835000000006L208.88400000000047 94.5208000000001L213.4615000000008 84.03604999999999L231.02750000000015 75.56870000000004L229.7345000000007 59.63570000000004L245.46500000000037 41.88980000000001L253.34500000000048 64.46190000000001L272.4355000000003 61.59015000000011L290.50749999999994 47.55520000000004L277.9830000000004 38.730150000000094L292.68100000000004 39.165800000000104L289.55550000000017 32.65740000000008L295.2800000000002 30.95710000000011L308.2370000000003 22.60930000000002L320.37649999999985 36.59080000000003L327.4369999999999 39.0213L334.6275000000003 36.8956L342.8665000000001 53.65665000000007L354.59100000000035 52.215400000000045L368.0185000000006 44.05590000000004L371.6025000000002 45.71525000000008L376.4485000000002 36.34129999999999L393.19799999999987 44.32130000000001L400.37149999999997 42.41695000000007L403.34800000000087 44.667850000000016L406.8074999999999 43.710550000000126L409.22000000000025 33.283950000000004L415.8910000000003 35.68655000000007L425.1200000000006 30.38240000000002L428.14700000000016 32.2791500000001L430.50100000000043 48.2345500000001L440.4995000000008 51.013400000000075L443.55350000000044 37.65645000000006L452.1969999999999 32.53990000000002L458.75800000000027 30.216450000000066L471.86450000000036 34.71680000000006L474.71900000000005 32.6879000000001L498.1280000000004 36.51965000000004L491.22400000000084 24.605750000000057L490.91499999999996 17.660900000000055L502.42200000000025 0L507.9169999999999 5.449250000000063L533.9430000000004 11.74625000000006L538.9790000000005 9.784400000000062L540.7375000000002 11.969899999999996L551.762 12.52670000000009L560.3970000000004 19.315400000000125L571.4409999999998 20.210849999999994L564.4749999999999 36.19675000000001L566.5989999999999 41.946200000000005L573.4014999999999 45.90835000000013L583.6245000000008 62.53240000000005L583.0025 69.32845L590.249 76.29405000000006L590.2100000000007 79.96610000000004L583.1529999999998 82.66780000000011L579.9355000000003 97.30515000000011L570.1660000000004 103.0631000000001L569.7980000000007 110.15979999999999L566.3170000000002 117.00524999999999L555.358 118.31190000000007L551.5809999999999 116.55210000000011L542.876 118.12925000000007L545.3105000000005 125.15754999999999L543.2920000000001 136.28150000000005L547.2019999999998 142.29675L534.1925000000003 146.67315000000002L531.5295000000003 143.85290000000012L520.9260000000006 148.64145000000008L516.6055000000006 154.84710000000007L493.63450000000057 156.34420000000006L493.0860000000007 160.19350000000003L474.4190000000003 166.89775000000012L468.7850000000003 161.69945000000013L454.70550000000003 157.28935000000007L449.40450000000055 162.6073500000001L450.1405 173.47505000000012L448.18200000000047 178.51800000000011L458.47849999999994 193.41195L452.5319999999999 206.6519000000001L446.9310000000007 211.5601500000001L439.6035000000006 203.64670000000004L428.79350000000045 201.79735000000008L427.6724999999999 198.2954500000001L426.51200000000017 198.94385L417.63149999999996 204.62590000000006L417.79550000000086 208.1781500000001L408.85650000000055 209.98565L404.4799999999998 214.80575000000002L393.30600000000004 210.91980000000007L387.41700000000037 214.53795L386.28850000000057 225.97390000000004L380.0470000000007 229.33005000000009L379.5775000000003 232.82110000000003L372.69949999999994 233.76040000000003L350.4575 228.31075000000013L338.60250000000065 237.86200000000008L336.1390000000006 236.81470000000004L328.3865000000003 244.1341L322.4860000000001 239.37160000000006L319.08000000000015 241.04875000000007L306.25150000000076 228.62465L305.46699999999987 225.73305000000005L303.04250000000025 208.5664L294.2945000000009 212.61690000000002L291.40949999999975 213.20205L288.89800000000037 202.359L295.0285000000008 192.45165L295.5124999999998 169.18075000000002L303.4170000000006 172.62485000000012L298.5469999999998 143.91945000000007L306.2475000000006 140.11980000000008L290.49100000000067 127.29120000000009L281.53350000000046 122.24820000000008L282.3715000000004 118.84055000000004L280.2015000000006 115.98730000000003z">
      <title id="t419">Sixième circonscription de Seine-et-Marne</title>
      <desc id="d419">Cantons de : Lizy-sur-Ourcq, Meaux Nord, Meaux Sud , Communes de : Cuisy, Forfry, Gesvres-le-Chapitre, Juilly, Marchémoret, Montgé-en-Goële, Monthyon, Oissery, Le Plessis-l'Evêque, Rouvres, Saint-Mard, Saint-Pathus, Saint-Soupplets, Vinantes</desc>
    </path><path class="circo" id="id-077-07" d="M245.40450000000078 242.02850000000012L235.06250000000023 240.81150000000008L229.7040000000004 235.0958L218.51150000000075 233.2475000000001L222.28000000000065 245.30045L223.73649999999998 259.44360000000006L230.29899999999998 266.9422L247.962 264.09760000000006L253.24700000000007 264.67560000000003L249.50800000000072 265.08260000000007L249.38650000000052 279.9760500000001L247.82100000000014 290.47270000000015L234.44650000000024 284.8509L234.74249999999984 296.62435000000005L225.4309999999998 296.6288L214.36050000000023 302.3314500000001L199.60500000000025 301.2617L201.86450000000036 287.64840000000004L199.36599999999999 273.71925000000005L198.5125000000005 274.42065L192.95150000000035 270.8053000000001L191.8470000000002 264.49005L196.03000000000065 248.2708500000001L186.6190000000006 240.98920000000007L173.2445000000007 251.72250000000005L162.7520000000004 240.35350000000008L147.87450000000035 236.56500000000008L145.42050000000017 234.00795000000002L147.85600000000045 217.07670000000007L155.4385000000002 212.20045L155.29449999999997 205.49150000000012L150.51249999999982 201.78045000000012L147.53150000000005 189.69890000000007L128.6265000000003 160.5223000000001L128.26149999999984 156.64500000000004L135.65400000000068 154.49785000000006L138.70700000000056 147.37955L135.65699999999993 132.31795000000005L132.46600000000058 130.9158500000001L128.22450000000003 118.66470000000007L118.81250000000023 121.57634999999999L117.04500000000053 118.42345000000009L107.88600000000088 116.31770000000003L105.4690000000005 105.79850000000008L112.66500000000065 107.15505000000007L126.13950000000045 101.53290000000013L130.84749999999985 87.99965L138.45199999999977 80.20975000000007L149.43200000000047 79.4923L133.13499999999976 65.81265000000002L146.51100000000042 42.79740000000004L158.32250000000045 32.758950000000056L161.1620000000005 25.537350000000032L167.83599999999979 26.072600000000108L178.11950000000024 10.367200000000025L183.5915 20.150950000000023L191.2015000000008 19.547900000000027L211.4269999999999 35.939400000000035L221.6795000000002 46.281900000000036L220.91650000000072 52.993100000000055L220.0795000000005 56.44650000000013L229.7345000000007 59.63570000000004L231.02750000000015 75.56870000000004L213.4615000000008 84.03604999999999L208.88400000000047 94.5208000000001L205.0445000000002 95.32835000000006L214.90400000000022 105.56960000000004L212.85349999999994 116.26350000000002L214.94850000000042 119.30605L236.90900000000056 124.11720000000003L243.0815000000007 123.28410000000005L247.94500000000085 132.92540000000002L245.94450000000052 136.05385000000012L262.4585000000002 143.22305L266.96450000000027 143.16900000000004L267.78599999999983 134.72515L268.02549999999997 120.71745000000007L273.5430000000008 117.13270000000009L280.2015000000006 115.98730000000003L282.3715000000004 118.84055000000004L281.53350000000046 122.24820000000008L290.49100000000067 127.29120000000009L306.2475000000006 140.11980000000008L298.5469999999998 143.91945000000007L303.4170000000006 172.62485000000012L295.5124999999998 169.18075000000002L295.0285000000008 192.45165L288.89800000000037 202.359L291.40949999999975 213.20205L284.7834999999998 221.81180000000012L264.9185 218.90650000000008L258.7465000000009 219.64465000000004L251.97900000000004 220.63820000000007L247.92599999999993 242.09040000000002L245.40450000000078 242.02850000000012z">
      <title id="t420">Septième circonscription de Seine-et-Marne</title>
      <desc id="d420">Cantons de : Claye-Souilly, Dammartin-en-Goële (moins les communes de Cuisy, Forfry, Gesvres-le-Chapitre, Juilly, Marchémoret, Montgé-en-Goële, Monthyon, Oissery, Le Plessis-l'Evêque, Rouvres, Saint-Mard, Saint-Pathus, Saint-Soupplets, Vinantes), Lagny-sur-Marne, Mitry-Mory</desc>
    </path><path class="circo" id="id-077-08" d="M201.77200000000084 411.1549000000001L191.01350000000025 414.01560000000006L186.62199999999984 407.86225000000013L189.3635000000006 402.4933500000002L183.59350000000063 398.6460000000001L183.72600000000034 392.57180000000017L189.83299999999986 385.8741500000001L172.82500000000027 371.9457000000001L173.09900000000084 368.2096500000001L178.94700000000057 363.99305000000015L173.81799999999998 354.3858L173.31500000000005 354.13660000000004L174.13250000000062 335.5626500000001L181.70749999999998 322.73935000000006L196.79849999999988 321.09605L181.40150000000062 306.5358500000001L175.20350000000008 293.32720000000006L182.48000000000047 291.22120000000007L198.5125000000005 274.42065L199.36599999999999 273.71925000000005L201.86450000000036 287.64840000000004L199.60500000000025 301.2617L214.36050000000023 302.3314500000001L225.4309999999998 296.6288L234.74249999999984 296.62435000000005L234.44650000000024 284.8509L247.82100000000014 290.47270000000015L249.38650000000052 279.9760500000001L249.50800000000072 265.08260000000007L253.24700000000007 264.67560000000003L247.962 264.09760000000006L230.29899999999998 266.9422L223.73649999999998 259.44360000000006L222.28000000000065 245.30045L218.51150000000075 233.2475000000001L229.7040000000004 235.0958L235.06250000000023 240.81150000000008L245.40450000000078 242.02850000000012L247.92599999999993 242.09040000000002L251.97900000000004 220.63820000000007L258.7465000000009 219.64465000000004L264.9185 218.90650000000008L284.7834999999998 221.81180000000012L291.40949999999975 213.20205L294.2945000000009 212.61690000000002L303.04250000000025 208.5664L305.46699999999987 225.73305000000005L306.25150000000076 228.62465L307.13700000000017 231.9312500000001L302.42650000000026 236.63695000000004L306.93700000000035 257.5724500000001L310.39750000000026 258.68695L304.07550000000015 271.07849999999996L301.5560000000005 287.1381000000001L291.31450000000086 289.9040500000001L280.8230000000003 296.5435000000001L282.4845000000005 300.2673L284.0470000000005 307.3774L281.54800000000023 314.21350000000007L290.0920000000008 326.01895L280.59600000000046 336.80240000000015L284.3209999999999 347.3950500000001L274.1885000000002 349.3631500000001L268.47650000000044 341.41400000000004L265.1330000000007 341.2321L262.8015000000005 352.0844000000001L252.3210000000006 354.9257L248.1720000000007 360.62365L253.27600000000075 378.83455000000015L249.769 380.2597000000002L237.67299999999977 385.1460000000002L234.71300000000042 387.5077L237.89499999999975 402.17595000000006L230.37900000000036 415.3265500000002L217.03750000000014 416.01395000000014L207.78549999999996 420.66054999999994L201.77200000000084 411.1549000000001z">
      <title id="t421">Huitième circonscription de Seine-et-Marne</title>
      <desc id="d421">Cantons de : Roissy-en-Brie, Thorigny-sur-Marne (moins les communes de Bailly-Romainvilliers, Magny-le-Hongre et Serris), Torcy</desc>
    </path><path class="circo" id="id-077-09" d="M139.00800000000004 481.5142000000002L132.56349999999998 478.668L137.01200000000085 470.8357L134.54900000000066 468.61195L130.45200000000023 461.63985000000014L129.95900000000006 459.678L139.03050000000007 443.9757000000002L149.58300000000008 434.0905500000001L144.4659999999999 420.3321000000001L153.18550000000073 412.8550500000001L151.70150000000035 401.83720000000005L164.47350000000029 401.21805000000006L158.27949999999987 387.54814999999996L146.89500000000066 388.64525000000003L144.00550000000067 386.07725000000005L152.64200000000073 365.0391000000001L147.2645 360.5450000000001L150.9280000000001 350.77315L147.80950000000075 349.2441500000001L150.40849999999978 341.5768L154.18949999999995 340.44725L173.31500000000005 354.13660000000004L173.81799999999998 354.3858L178.94700000000057 363.99305000000015L173.09900000000084 368.2096500000001L172.82500000000027 371.9457000000001L189.83299999999986 385.8741500000001L183.72600000000034 392.57180000000017L183.59350000000063 398.6460000000001L189.3635000000006 402.4933500000002L186.62199999999984 407.86225000000013L191.01350000000025 414.01560000000006L201.77200000000084 411.1549000000001L207.78549999999996 420.66054999999994L217.03750000000014 416.01395000000014L230.37900000000036 415.3265500000002L237.89499999999975 402.17595000000006L234.71300000000042 387.5077L237.67299999999977 385.1460000000002L249.769 380.2597000000002L253.27600000000075 378.83455000000015L248.1720000000007 360.62365L252.3210000000006 354.9257L262.8015000000005 352.0844000000001L265.1330000000007 341.2321L268.47650000000044 341.41400000000004L274.1885000000002 349.3631500000001L284.3209999999999 347.3950500000001L298.6099999999999 364.3982000000001L303.69950000000017 378.82795L311.0149999999999 387.61984999999993L302.8444999999999 395.0263L298.30550000000017 405.7908000000002L310.11600000000044 415.51599999999996L314.3430000000001 430.158L328.39000000000055 431.20615L337.5285000000008 436.5118L336.5330000000006 441.75535000000013L328.9415000000008 459.92454999999995L316.9150000000002 469.3827500000002L312.7895000000001 488.4132000000001L320.5740000000003 489.0504500000002L328.5050000000001 497L341.67599999999993 489.1378000000002L372.4520000000007 490.8724500000001L374.56050000000005 498.2731500000001L371.14649999999983 499.10285L362.1765000000005 516.8281500000002L352.4459999999999 515.1223500000002L344.3254999999999 521.2976000000002L337.42650000000026 519.8805L335.9220000000005 525.54165L328.4495000000004 523.6445500000001L305.2010000000007 534.8098500000002L313.63249999999994 527.3714500000001L312.06950000000006 523.95235L304.6685000000002 522.7715999999999L298.13150000000064 517.80535L290.9465 515.2062999999999L287.56900000000087 517.0285500000001L274.7694999999999 530.5553000000002L261.3900000000001 524.06315L257.4860000000001 527.3277500000002L260.30650000000037 533.5498500000001L256.18150000000014 542.3892999999999L242.51250000000027 550.6782500000002L238.76300000000015 570.70225L228.07900000000018 580.6999000000001L217.82350000000065 576.55615L216.6025000000002 569.2786500000001L200.47750000000065 565.34105L193.44400000000064 557.94695L186.58700000000067 559.0340000000002L180.91049999999996 555.04545L175.2570000000003 553.6627L174.28350000000023 538.73405L162.9090000000008 529.4978000000002L159.1980000000001 530.1300500000001L157.44800000000055 533.5509500000002L139.35150000000021 529.3466500000001L133.58900000000062 532.6087L119.29849999999988 531.0779000000001L115.04350000000045 526.0989500000001L104.53550000000064 517.5523500000002L114.67100000000073 501.18090000000007L121.69350000000009 500.1027L127.79049999999984 504.0472000000001L134.7885000000008 496.3247500000001L141.7425000000003 495.32040000000006L139.00800000000004 481.5142000000002z">
      <title id="t422">Neuvième circonscription de Seine-et-Marne</title>
      <desc id="d422">Cantons de : Brie-Comte-Robert, Pontault-Combault, Tournan-en-Brie , Commune de Combs-la-Ville</desc>
    </path><path class="circo" id="id-077-10" d="M129.83299999999986 283.5212L131.7100000000005 269.23580000000004L123.50300000000061 261.7183L128.73649999999998 256.1983000000001L143.1675000000007 250.6698L142.76550000000043 243.21745000000007L147.17250000000035 237.1848L147.87450000000035 236.56500000000008L162.7520000000004 240.35350000000008L173.2445000000007 251.72250000000005L186.6190000000006 240.98920000000007L196.03000000000065 248.2708500000001L191.8470000000002 264.49005L192.95150000000035 270.8053000000001L198.5125000000005 274.42065L182.48000000000047 291.22120000000007L175.20350000000008 293.32720000000006L181.40150000000062 306.5358500000001L196.79849999999988 321.09605L181.70749999999998 322.73935000000006L174.13250000000062 335.5626500000001L173.31500000000005 354.13660000000004L154.18949999999995 340.44725L150.40849999999978 341.5768L143.37400000000002 319.1303500000001L134.1725000000008 297.63795000000005L140.5950000000007 294.47010000000006L144.1515000000004 284.5766500000001L129.83299999999986 283.5212z">
      <title id="t423">Dixième circonscription de Seine-et-Marne</title>
      <desc id="d423">Cantons de : Champs-sur-Marne, Chelles, Noisiel, Vaires-sur-Marne</desc>
    </path><path class="circo" id="id-077-11" d="M102.93949999999995 611.0922499999999L95.67700000000059 611.5784000000001L93.09349999999995 600.3646000000002L110.22649999999999 585.1295500000002L111.01300000000037 571.8082500000002L98.95449999999983 564.8276L92.51550000000066 548.3055L95.41050000000041 545.9930000000002L109.64650000000006 543.8248500000002L110.96549999999979 532.4039499999999L115.04350000000045 526.0989500000001L119.29849999999988 531.0779000000001L133.58900000000062 532.6087L139.35150000000021 529.3466500000001L157.44800000000055 533.5509500000002L159.1980000000001 530.1300500000001L162.9090000000008 529.4978000000002L174.28350000000023 538.73405L175.2570000000003 553.6627L180.91049999999996 555.04545L186.58700000000067 559.0340000000002L193.44400000000064 557.94695L200.47750000000065 565.34105L192.99399999999991 565.0714499999999L193.0785000000003 579.9484500000001L186.5904999999998 589.0591999999999L191.65399999999977 593.6009500000001L194.59600000000023 603.6124500000001L192.89750000000026 625.8141999999999L175.3404999999998 633.8327500000001L187.40049999999997 641.9262500000001L190.34449999999993 648.7342500000001L186.57400000000052 654.4170000000001L177.08700000000022 662.56545L161.45050000000083 673.7882000000001L154.06200000000013 675.6723499999999L144.5225000000005 670.3802000000001L138.25249999999983 660.66075L124.60500000000025 653.5437000000001L115.80050000000028 651.71475L105.30150000000049 647.8989L101.47800000000075 641.57215L102.70650000000046 634.2997000000001L113.02500000000009 623.5072000000001L114.78900000000067 616.6425500000001L102.93949999999995 611.0922499999999z">
      <title id="t424">Onzième circonscription de Seine-et-Marne</title>
      <desc id="d424">Cantons de : Combs-la-Ville (moins la commune de Combs-la-Ville), Le Mée-sur-Seine, Savigny-le-Temple</desc>
    </path></svg>