<svg xmlns="http://www.w3.org/2000/svg" version="1.1" xmlns:xlink="http://www.w3.org/1999/xlink" xmlns:svgjs="http://svgjs.dev/svgjs" width="576.6565000000003" height="722.6748500000001" fill="#eeeeee" stroke="#cccccc" xmlns:sodipodi="http://sodipodi.sourceforge.net/DTD/sodipodi-0.dtd"><path class="circo" id="id-078-01" d="M459.2820000000006 368.5892L448.4045000000003 356.4706500000001L445.59150000000045 354.2854000000001L427.55899999999997 369.5480500000001L416.98150000000055 362.69965L415.25949999999966 356.05110000000013L425.14999999999986 336.56214999999986L404.5335 321.0133000000001L430.9215000000006 323.741L445.7344999999998 321.8035500000001L448.3125000000007 326.0733L460.616 331.4583499999999L468.14100000000053 297.98160000000007L474.5670000000007 290.45074999999997L476.5039999999999 293.2967000000001L483.05600000000027 292.91814999999997L491.9839999999999 288.0092000000001L492.96350000000075 295.463L505.53949999999986 303.33140000000003L509.28350000000023 303.2494L512.5105000000008 292.5488L518.4545000000003 288.02940000000007L520.6650000000002 295.9852000000001L520.1310000000001 298.86005L527.9174999999998 305.6736000000001L525.711 307.58295000000004L529.7244999999998 314.56935L527.0895000000007 319.65739999999994L525.779 321.64230000000003L515.0740000000008 321.62295L504.6040000000005 317.35055L502.06350000000043 323.3582L505.44849999999997 325.0625500000001L504.4550000000004 327.8457L501.1975000000007 328.9697L494.5580000000007 328.17150000000015L490.03400000000056 326.3211L484.1624999999999 340.6437000000001L486.6579999999999 341.63429999999994L483.71650000000045 368.84040000000016L473.9155000000005 372.8262L466.78150000000073 371.71925L459.2820000000006 368.5892z">
      <title id="t425">Première circonscription des Yvelines</title>
      <desc id="d425">Cantons de : Montigny-le-Bretonneux, Versailles Nord, Versailles Nord-Ouest, Versailles Sud (partie située, depuis la limite du canton de Montigny-le-Bretonneux, à l'ouest d'une ligne définie par l'axe des voies ci-après : route de la minière, axe prolongeant la route de la minière jusqu'à la ligne de chemin de fer vers Paris, axe de l'Allée des Matelots, allée des matelots jusqu'à la limite du canton de Versailles Nord-Ouest)</desc>
    </path><path class="circo" id="id-078-02" d="M380.3250000000003 472.28255L368.50700000000074 481.28135L356.8169999999998 472.8198500000001L353.0790000000002 465.98165000000006L360.7555000000002 448.33050000000003L362.7520000000004 445.89565000000005L366.7304999999999 437.6709000000001L364.0960000000007 431.49839999999995L365.73350000000005 421.7006500000001L362.52050000000054 419.7082999999999L362.48050000000035 412.1689500000001L337.3014999999998 407.08084999999994L339.6545000000003 392.6097500000002L346.9214999999997 394.5458000000001L358.71200000000044 385.4098L370.13400000000047 394.39215L380.5150000000003 393.20614999999987L381.7280000000005 403.77675L387.6229999999998 408.6902500000001L400.30399999999986 399.66420000000016L399.62650000000053 381.24884999999995L402.5414999999998 378.8515L416.98150000000055 362.69965L427.55899999999997 369.5480500000001L445.59150000000045 354.2854000000001L448.4045000000003 356.4706500000001L459.2820000000006 368.5892L466.78150000000073 371.71925L473.9155000000005 372.8262L483.71650000000045 368.84040000000016L486.6579999999999 341.63429999999994L484.1624999999999 340.6437000000001L490.03400000000056 326.3211L494.5580000000007 328.17150000000015L501.1975000000007 328.9697L504.4550000000004 327.8457L505.44849999999997 325.0625500000001L502.06350000000043 323.3582L504.6040000000005 317.35055L515.0740000000008 321.62295L525.779 321.64230000000003L527.0895000000007 319.65739999999994L529.7244999999998 314.56935L525.711 307.58295000000004L527.9174999999998 305.6736000000001L539.3515000000002 304.29145000000005L546.1505 320.21410000000003L543.9364999999998 323.13485000000003L558.4985000000006 321.8148000000001L563.3140000000003 327.2676L563.9705000000004 334.56920000000014L574.4465000000002 337.46335L576.2390000000005 340.68505000000005L576.1869999999999 346.8416000000001L576.6565000000003 350.60119999999995L573.4784999999999 352.6397000000002L562.2375 353.3677000000001L557.1075000000008 348.5055000000001L549.6474999999998 348.03649999999993L547.4020000000007 350.86480000000006L550.9845000000007 360.82759999999996L548.7995000000001 371.45230000000015L538.2500000000005 367.68860000000006L528.2815000000005 373.3421500000002L520.5770000000007 373.17155L511.4160000000004 379.9491999999999L511.3684999999998 383.83220000000006L508.4755000000007 390.5402500000001L495.7339999999999 385.7999500000001L486.0525000000007 389.6007000000002L482.9404999999997 391.81375000000014L490.36749999999984 404.95805000000007L488.29900000000066 412.3202500000001L490.2525000000003 416.0486000000002L480.5295000000001 431.57899999999995L481.0239999999999 438.84810000000004L474.72350000000006 434.35614999999996L469.3610000000001 448.45370000000014L460.25499999999965 444.5606500000001L457.85150000000044 446.83640000000014L449.82650000000035 446.9619000000001L442.5644999999997 446.96860000000004L440.13599999999997 453.789L436.50600000000054 454.31635000000017L433.54400000000055 456.0543500000001L430.0425000000007 472.76609999999994L428.69100000000003 479.6001L418.4839999999997 477.43184999999994L417.2924999999998 484.1422000000001L403.5260000000005 479.1209500000001L399.6640000000002 480.95225000000016L395.25300000000016 475.12929999999994L380.3250000000003 472.28255z">
      <title id="t426">Deuxième circonscription des Yvelines</title>
      <desc id="d426">Cantons de : Chevreuse (moins la commune du Mesnil-Saint-Denis), Vélizy-Villacoublay, Versailles Sud (partie non comprise dans la 1re circonscription), Viroflay</desc>
    </path><path class="circo" id="id-078-03" d="M497.2474999999997 265.8125L490.6849999999997 263.8855000000001L490.4759999999999 273.8816L484.5810000000006 272.01885000000004L477.2130000000004 268.163L468.5990000000004 260.35935000000006L461.0604999999998 258.66929999999996L468.3600000000001 239.85264999999998L465.88100000000054 237.32444999999998L455.27150000000006 231.80785L452.0780000000002 230.31930000000003L443.28500000000076 236.09679999999997L436.1775 232.7861L423.6475000000007 227.22750000000005L407.4705000000006 217.3288000000001L395.28099999999995 207.3294L387.6755000000003 215.06505000000004L374.48150000000055 212.53794999999997L371.6345000000001 228.28209999999999L377.42450000000076 241.52195000000006L386.2715000000003 248.17835000000002L385.80600000000004 251.96475000000007L380.1195000000007 261.74270000000007L386.9690000000003 274.01189999999997L385.5995000000007 280.9104500000001L386.55500000000075 280.85755000000006L384.1975000000002 295.5563000000001L398.67650000000026 320.3713L404.5335 321.0133000000001L406.0419999999999 306.58529999999996L408.9639999999997 304.37669999999997L427.00649999999996 306.7154500000001L434.39300000000003 290.63620000000003L443.95399999999995 290.0049L447.6265000000001 285.4954500000001L452.59000000000015 287.0118500000001L460.93349999999987 294.18500000000006L468.14100000000053 297.98160000000007L474.5670000000007 290.45074999999997L476.5039999999999 293.2967000000001L483.05600000000027 292.91814999999997L491.9839999999999 288.0092000000001L492.96350000000075 295.463L505.53949999999986 303.33140000000003L509.28350000000023 303.2494L512.5105000000008 292.5488L518.4545000000003 288.02940000000007L516.5295000000003 278.5851000000001L519.6045000000004 267.6192500000001L526.8765000000008 266.4293500000001L519.8860000000002 254.31579999999997L522.364 247.6782L519.8665000000005 240.41690000000003L506.2475000000006 240.2922000000001L500.61950000000024 236.46225L506.0620000000006 249.95860000000008L499.21050000000037 262.9922L497.2474999999997 265.8125z">
      <title id="t427">Troisième circonscription des Yvelines</title>
      <desc id="d427">Cantons de : La Celle-Saint-Cloud, Le Chesnay, Saint-Nom-la-Bretèche, commune de Les Clayes-sous-Bois</desc>
    </path><path class="circo" id="id-078-04" d="M515.8339999999998 226.34590000000003L508.904 224.14659999999998L504.32199999999966 233.92375L496.05999999999995 218.0283L490.2030000000002 221.78635L487.8595000000007 219.57785L483.4215000000006 223.92615000000006L480.7280000000003 229.98325000000008L470.9465 231.59310000000005L465.88100000000054 237.32444999999998L468.3600000000001 239.85264999999998L461.0604999999998 258.66929999999996L468.5990000000004 260.35935000000006L477.2130000000004 268.163L484.5810000000006 272.01885000000004L490.4759999999999 273.8816L490.6849999999997 263.8855000000001L497.2474999999997 265.8125L499.21050000000037 262.9922L506.0620000000006 249.95860000000008L500.61950000000024 236.46225L506.2475000000006 240.2922000000001L519.8665000000005 240.41690000000003L525.729 229.46489999999997L533.8880000000006 212.36815000000007L537.5405000000001 208.70829999999998L556.9875000000002 197.89640000000006L555.9519999999998 186.32165L559.9649999999997 180.95770000000002L555.7574999999997 167.99525000000003L543.8930000000005 166.54764999999998L532.8275000000008 177.7573000000001L527.5954999999999 184.85560000000007L527.9840000000002 198.6636L514.0954999999997 202.6064000000001L507.53150000000005 194.56420000000008L501.8005000000005 199.03930000000003L509.2259999999999 201.00000000000009L516.5174999999999 214.8097L515.8339999999998 226.34590000000003z">
      <title id="t428">Quatrième circonscription des Yvelines</title>
      <desc id="d428">Cantons de : Chatou, Houilles, Marly-le-Roi</desc>
    </path><path class="circo" id="id-078-05" d="M503.2069999999999 159.05870000000007L499.4635000000005 160.20359999999997L499.05650000000037 171.62605L490.26700000000005 184.35495000000003L485.66400000000044 199.33189999999996L492.3765000000003 200.52990000000008L497.57900000000063 204.05285000000006L492.2720000000004 208.4114000000001L496.05999999999995 218.0283L504.32199999999966 233.92375L508.904 224.14659999999998L515.8339999999998 226.34590000000003L516.5174999999999 214.8097L509.2259999999999 201.00000000000009L501.8005000000005 199.03930000000003L507.53150000000005 194.56420000000008L514.0954999999997 202.6064000000001L527.9840000000002 198.6636L527.5954999999999 184.85560000000007L532.8275000000008 177.7573000000001L543.8930000000005 166.54764999999998L555.7574999999997 167.99525000000003L561.0554999999999 161.909L560.8820000000003 151.68464999999998L536.6910000000007 147.68095000000002L540.3605000000005 140.39215L540.3985 136.17914999999996L536.517 135.7839L517.7065000000005 134.2128000000001L508.0975000000001 144.8097L503.2069999999999 159.05870000000007z">
      <title id="t429">Cinquième circonscription des Yvelines</title>
      <desc id="d429">Cantons de Maisons-Laffitte, Sartrouville, Le Vésinet</desc>
    </path><path class="circo" id="id-078-06" d="M443.6225000000002 155.1928000000001L435.57950000000005 168.68400000000008L425.1075000000003 173.90389999999996L414.8885000000007 168.59724999999997L421.173 180.5930500000001L415.0445000000002 184.37290000000004L407.27700000000027 175.69789999999998L395.63350000000014 175.06765000000001L392.7690000000007 156.4379000000001L386.29999999999995 157.38245000000006L386.09699999999975 155.76575000000005L393.36700000000064 141.8087L405.82700000000045 132.17889999999997L410.53750000000036 146.89495000000008L411.31200000000035 161.16155000000006L414.8275000000001 160.47930000000008L429.54950000000053 141.1894000000001L435.2970000000005 141.31100000000004L434.7874999999999 138.48105000000004L442.35700000000065 138.05535000000006L444.7950000000003 141.02280000000007L448.7635 130.02650000000003L463.68400000000065 112.19300000000004L475.0580000000002 108.56400000000008L502.9105000000004 107.40785000000002L521.5350000000001 110.73065L531.6724999999997 115.9414000000001L538.0830000000003 125.21365000000003L540.3985 136.17914999999996L536.517 135.7839L517.7065000000005 134.2128000000001L508.0975000000001 144.8097L503.2069999999999 159.05870000000007L499.4635000000005 160.20359999999997L499.05650000000037 171.62605L490.26700000000005 184.35495000000003L485.66400000000044 199.33189999999996L492.3765000000003 200.52990000000008L497.57900000000063 204.05285000000006L492.2720000000004 208.4114000000001L496.05999999999995 218.0283L490.2030000000002 221.78635L487.8595000000007 219.57785L483.4215000000006 223.92615000000006L480.7280000000003 229.98325000000008L470.9465 231.59310000000005L465.88100000000054 237.32444999999998L455.27150000000006 231.80785L452.0780000000002 230.31930000000003L443.28500000000076 236.09679999999997L436.1775 232.7861L423.6475000000007 227.22750000000005L407.4705000000006 217.3288000000001L405.4645000000005 214.13725L409.65100000000007 207.89405000000002L419.28150000000073 202.08785000000006L425.06200000000035 192.35354999999998L428.65850000000023 193.47295000000003L438.1630000000007 188.68115000000003L441.93550000000073 181.88609999999997L449.04499999999985 178.96590000000003L455.41650000000004 161.39899999999997L460.5465000000004 155.54744999999997L444.905 143.40100000000007L443.6225000000002 155.1928000000001z">
      <title id="t430">Sixième circonscription des Yvelines</title>
      <desc id="d430">Cantons de : Le Pecq, Saint-Germain-en-Laye Nord, Saint-Germain-en-Laye Sud , Communes de Carrières-sous-Poissy, Médan et Villennes-sur-Seine</desc>
    </path><path class="circo" id="id-078-07" d="M461.6820000000007 93.14464999999998L456.31050000000073 85.81950000000006L443.05600000000027 92.98235000000005L428.22700000000054 94.27850000000007L426.1329999999998 97.43625000000009L414.3150000000003 85.78670000000002L412.2879999999998 83.71385000000004L402.6705000000004 71.38604999999998L395.00200000000063 73.3411000000001L384.37900000000013 68.91680000000008L376.9394999999997 70.49535000000006L375.3620000000001 67.4127L368.4559999999999 66.59305000000003L362.6850000000002 70.52350000000004L343.9575000000002 48.15385000000006L345.1470000000006 43.3903500000001L341.03650000000016 40.92100000000002L322.50800000000027 58.29215000000005L321.34950000000003 73.04235000000006L311.48700000000076 74.71435L306.42600000000016 79.15615000000003L304.60800000000063 79.3253L298.82100000000037 76.1654L298.7734999999998 83.39370000000002L308.7189999999998 106.45915000000002L316.83200000000056 103.67820000000009L320.71950000000015 102.0814L362.1670000000006 87.66350000000003L369.0930000000003 87.87424999999999L363.6360000000002 116.5858L371.2900000000002 117.84080000000003L374.3565000000001 128.93285000000006L375.9445000000005 143.70835L386.09699999999975 155.76575000000005L393.36700000000064 141.8087L405.82700000000045 132.17889999999997L410.53750000000036 146.89495000000008L411.31200000000035 161.16155000000006L414.8275000000001 160.47930000000008L429.54950000000053 141.1894000000001L435.2970000000005 141.31100000000004L434.7874999999999 138.48105000000004L442.35700000000065 138.05535000000006L444.7950000000003 141.02280000000007L448.7635 130.02650000000003L463.68400000000065 112.19300000000004L475.0580000000002 108.56400000000008L502.9105000000004 107.40785000000002L498.5635000000002 100.8193L502.4345000000005 85.29970000000006L498.32899999999995 74.225L488.4609999999998 84.8478L471.45849999999996 78.52485000000001L461.6820000000007 93.14464999999998z">
      <title id="t431">Septième circonscription des Yvelines</title>
      <desc id="d431">Cantons de: Andrésy, Conflans-Sainte-Honorine, Meulan (moins les communes des Mureaux et de Chapet), Triel-sur-Seine</desc>
    </path><path class="circo" id="id-078-08" d="M224.69600000000014 40.69200000000009L213.20800000000077 40.175350000000094L210.5664999999999 38.220249999999965L204.20150000000035 44.35820000000007L182.17499999999973 31.155300000000068L174.45749999999975 37.88975000000008L144.68950000000063 52.89119999999997L126.4715000000001 62.54810000000006L125.52500000000009 63.38610000000003L123.37400000000002 81.49315000000001L113.3215000000007 83.46474999999998L101.35250000000042 76.64335000000008L94.32649999999967 89.59424999999996L74.02400000000057 105.16895000000005L88.62899999999968 113.75685000000004L103.50700000000074 109.54645L114.01399999999967 114.68860000000006L135.89650000000006 109.38990000000004L145.96700000000055 114.51515L150.82099999999969 117.14675L153.0925000000002 115.31500000000008L160.08750000000077 129.2674000000001L161.6915000000006 128.55215L161.64949999999976 129.05900000000003L168.31800000000044 138.22429999999997L186.36650000000031 142.66345L188.6405000000002 136.03279999999998L201.0730000000001 138.51264999999998L204.28650000000061 136.7795000000001L209.02850000000058 130.80820000000003L210.86450000000013 119.97889999999998L225.1234999999997 131.8466500000001L233.3839999999998 132.46605000000002L250.4015000000004 131.0761500000001L255.07850000000076 129.16155000000003L265.8630000000005 127.72100000000009L273.81899999999973 122.69710000000003L281.74949999999967 115.96280000000007L301.44900000000007 108.99659999999997L308.7189999999998 106.45915000000002L298.7734999999998 83.39370000000002L298.82100000000037 76.1654L304.60800000000063 79.3253L306.9635000000005 72.30495000000005L304.64450000000056 61.489250000000055L298.75200000000063 57.45765000000006L309.203 30.26165000000006L291.43850000000043 22.007499999999993L290.847 16.87039999999996L278.24700000000007 8.592749999999967L272.17750000000024 8.88734999999997L258.24299999999994 13.605349999999987L260.3589999999997 20.351950000000016L256.5814999999998 29.44145000000006L252.9449999999997 29.82165000000009L239.1560000000004 29.913099999999986L230.7929999999999 23.70244999999997L224.83799999999974 32.969599999999986L224.69600000000014 40.69200000000009z">
      <title id="t432">Huitième circonscription des Yvelines</title>
      <desc id="d432">Cantons de: Limay, Mantes-la-Jolie, Mantes-la-Ville</desc>
    </path><path class="circo" id="id-078-09" d="M273.81899999999973 122.69710000000003L265.8630000000005 127.72100000000009L255.07850000000076 129.16155000000003L250.4015000000004 131.0761500000001L233.3839999999998 132.46605000000002L225.1234999999997 131.8466500000001L210.86450000000013 119.97889999999998L209.02850000000058 130.80820000000003L204.28650000000061 136.7795000000001L201.0730000000001 138.51264999999998L188.6405000000002 136.03279999999998L186.36650000000031 142.66345L168.31800000000044 138.22429999999997L161.64949999999976 129.05900000000003L161.6915000000006 128.55215L160.08750000000077 129.2674000000001L153.0925000000002 115.31500000000008L150.82099999999969 117.14675L145.96700000000055 114.51515L135.89650000000006 109.38990000000004L114.01399999999967 114.68860000000006L103.50700000000074 109.54645L88.62899999999968 113.75685000000004L74.02400000000057 105.16895000000005L94.32649999999967 89.59424999999996L101.35250000000042 76.64335000000008L113.3215000000007 83.46474999999998L123.37400000000002 81.49315000000001L125.52500000000009 63.38610000000003L126.4715000000001 62.54810000000006L144.68950000000063 52.89119999999997L174.45749999999975 37.88975000000008L182.17499999999973 31.155300000000068L184.80500000000006 21.28974999999997L177.68300000000067 14.039750000000026L165.28350000000046 6.066650000000067L147.37300000000005 3.3472000000000435L127.82000000000039 11.695600000000042L123.49350000000072 14.796050000000065L119.4214999999997 7.214450000000028L115.95450000000028 0.5758000000000152L108.74750000000063 1.7295000000000016L92.40949999999998 8.439249999999987L83.89850000000024 15.719200000000058L73.37200000000053 13.436049999999966L54.763000000000375 17.984299999999962L51.23050000000035 4.8960000000001L46.57249999999976 0L48.460000000000036 7.26309999999998L41.4205000000004 28.425849999999997L29.022999999999683 36.72885000000008L21.574000000000524 34.50855000000004L10.47800000000052 23.66410000000002L0 34.727299999999985L2.9500000000007276 37.155249999999995L0.6444999999996526 44.423650000000094L6.610500000000457 54.156600000000026L7.749999999999773 65.42254999999997L18.161000000000058 74.07170000000008L22.045000000000528 78.38735L19.79000000000042 84.1489L24.488000000000056 88.80195L17.526000000000295 105.08335000000002L10.662499999999682 107.61865L17.455999999999676 123.44504999999998L22.90650000000028 118.45585L34.451500000000124 118.33529999999996L44.82349999999997 113.35580000000007L48.956000000000586 119.29505000000006L52.575500000000375 119.45054999999996L35.44899999999984 133.66439999999997L39.792999999999665 148.08509999999998L47.11000000000013 147.36905000000007L40.10650000000055 161.46434999999997L40.30899999999974 161.4609L47.50600000000077 170.02110000000002L44.97200000000021 177.00220000000002L49.277000000000726 183.12489999999997L55.951499999999896 179.6602L67.26099999999974 183.2544L68.94300000000044 186.86630000000008L69.78550000000041 189.93674999999996L71.76500000000033 195.51704999999998L67.46200000000044 200.13940000000005L86.1099999999999 218.19805000000002L73.16149999999993 238.6509000000001L82.48500000000035 247.85235L83.0174999999997 244.47590000000005L92.26949999999988 248.2199L100.32150000000001 255.44295000000005L96.11250000000041 270.20445000000007L103.02599999999984 271.5054500000001L109.14250000000038 276.07439999999997L108.84900000000016 279.93875L99.4565 286.53329999999994L105.88150000000041 300.56010000000003L105.69000000000074 303.91745000000003L97.71200000000022 310.0287L95.9235000000001 336.57455000000016L103.74549999999999 349.6363000000001L100.29600000000073 356.42925L101.7590000000007 361.2054999999999L116.78300000000036 364.2474500000002L131.3740000000007 377.20645L129.70649999999978 387.15999999999997L127.89650000000051 391.8104000000001L124.03850000000034 392.5951500000001L105.53300000000036 417.7362499999999L103.9975000000004 420.14315L109.13200000000074 421.7241500000001L99.97600000000034 427.34085000000005L99.74950000000035 436.57645000000014L121.26949999999965 445.09034999999994L127.94700000000034 447.19939999999997L134.30950000000053 444.44859999999994L132.14600000000019 437.9263000000002L142.93999999999983 435.1594000000001L149.17050000000017 421.7084000000001L163.77749999999992 425.5616500000001L176.15800000000036 417.66329999999994L183.7035000000003 417.46725000000015L194.00600000000054 418.08354999999995L196.69949999999972 420.63049999999987L197.72749999999974 417.0649000000002L195.34350000000018 391.5661000000001L168.44150000000013 383.5205000000001L183.17499999999995 367.1142500000001L197.7705000000003 367.07614999999987L195.0520000000006 360.0781999999999L186.11549999999966 352.58580000000006L186.4760000000001 348.79595000000006L191.02500000000077 342.7158999999999L202.33150000000023 341.81494999999995L206.7005000000006 335.587L203.79050000000007 323.03495L206.89449999999965 321.96515000000005L189.1210000000001 320.46785L190.17650000000003 317.88595L190.65000000000055 306.8211000000001L196.72300000000064 302.55989999999997L194.52549999999974 283.91845L200.8465000000001 265.4552L199.0179999999998 258.33894999999995L207.18150000000037 253.37514999999996L208.44800000000077 240.02120000000005L210.10449999999992 236.93105000000003L216.3684999999998 239.76160000000007L217.3765000000003 236.59149999999997L223.84850000000029 235.26494999999997L225.46600000000012 232.36784999999998L222.5965000000008 230.71399999999997L238.93400000000042 212.08025000000006L248.30350000000067 217.31530000000006L252.72400000000061 223.4472000000001L268.1344999999999 223.5967500000001L277.96100000000024 234.1373L284.5474999999999 231.62239999999997L289.1870000000006 239.9763L303.1579999999997 239.2062L316.0000000000002 233.48985L322.2415000000001 236.29360000000005L328.3370000000002 231.79895000000002L326.97 220.61350000000004L334.24949999999967 221.8763L337.1105 219.5205L343.5850000000005 206.3318000000001L337.33100000000036 201.92695L330.21150000000034 188.38745000000003L322.59250000000065 188.34360000000004L335.5770000000007 174.49820000000003L347.8155000000004 180.0979000000001L355.80299999999966 167.03280000000007L374.37650000000076 153.49050000000005L372.82550000000015 146.10910000000004L375.9445000000005 143.70835L374.3565000000001 128.93285000000006L371.2900000000002 117.84080000000003L363.6360000000002 116.5858L369.0930000000003 87.87424999999999L362.1670000000006 87.66350000000003L320.71950000000015 102.0814L316.83200000000056 103.67820000000009L308.7189999999998 106.45915000000002L301.44900000000007 108.99659999999997L281.74949999999967 115.96280000000007L273.81899999999973 122.69710000000003z">
      <title id="t433">Neuvième circonscription des Yvelines</title>
      <desc id="d433">Cantons de: Aubergenville, Bonnières-sur-Seine, Guerville, Houdan., Communes de : Les Mureaux, Chapet</desc>
    </path><path class="circo" id="id-078-10" d="M313.4175000000005 320.946L291.66900000000055 319.3229000000001L296.21350000000007 305.7555000000001L282.24000000000046 307.37570000000005L269.06850000000077 303.2202000000001L264.2629999999997 308.45354999999995L263.3955000000003 305.03355L259.8725000000002 305.13800000000003L254.20650000000023 309.27425L246.89950000000067 301.61005L249.46300000000065 299.3787500000001L249.86150000000066 285.97845000000007L244.5595000000003 283.74660000000006L241.15300000000047 284.34534999999994L232.04600000000028 273.93995000000007L216.45600000000059 277.55165000000005L211.18850000000066 268.24840000000006L200.8465000000001 265.4552L194.52549999999974 283.91845L196.72300000000064 302.55989999999997L190.65000000000055 306.8211000000001L190.17650000000003 317.88595L189.1210000000001 320.46785L206.89449999999965 321.96515000000005L203.79050000000007 323.03495L206.7005000000006 335.587L202.33150000000023 341.81494999999995L191.02500000000077 342.7158999999999L186.4760000000001 348.79595000000006L186.11549999999966 352.58580000000006L195.0520000000006 360.0781999999999L197.7705000000003 367.07614999999987L183.17499999999995 367.1142500000001L168.44150000000013 383.5205000000001L195.34350000000018 391.5661000000001L197.72749999999974 417.0649000000002L196.69949999999972 420.63049999999987L194.00600000000054 418.08354999999995L183.7035000000003 417.46725000000015L176.15800000000036 417.66329999999994L163.77749999999992 425.5616500000001L149.17050000000017 421.7084000000001L142.93999999999983 435.1594000000001L132.14600000000019 437.9263000000002L134.30950000000053 444.44859999999994L127.94700000000034 447.19939999999997L121.26949999999965 445.09034999999994L117.50549999999976 455.54375000000005L114.91949999999974 473.48810000000003L118.51300000000037 477.3825499999999L129.7384999999997 487.78745000000004L144.8580000000004 486.69955000000004L143.1140000000005 493.8675999999999L151.05199999999968 501.4318999999999L149.56800000000044 507.98045000000013L154.99649999999974 512.6578999999999L155.38049999999998 519.96685L161.98049999999967 528.7500999999999L173.64149999999995 522.9890999999999L180.06200000000035 524.7942999999999L174.4640000000004 527.1809000000001L178.8130000000001 531.1735L180.54550000000063 527.9649L198.05450000000064 529.3775L200.25800000000004 536.0513000000002L188.32750000000033 560.84795L194.45100000000025 565.0114000000001L193.69800000000055 568.64355L215.53150000000073 574.25135L222.47100000000046 571.2553000000001L232.29350000000068 575.7241499999999L234.85450000000014 586.2896L244.66099999999983 597.02095L251.36449999999968 595.7710500000001L243.27300000000037 625.8467L243.67349999999988 641.4065L253.04950000000076 658.0691L250.91800000000035 665.2906L258.08700000000044 673.41055L256.1575000000005 679.4610999999999L261.2869999999998 684.4705499999999L262.3715000000004 691.36755L268.5654999999997 693.5612500000001L286.3530000000003 692.3218000000002L289.7249999999997 702.58505L295.71000000000026 715.2455500000001L305.96599999999967 717.71325L312.047 722.1286500000001L319.53500000000076 721.9408L322.99350000000004 722.6748500000001L338.06749999999965 722.3921500000001L342.2694999999999 716.1163499999999L349.4380000000001 713.8312000000001L351.11150000000066 703.0660999999999L346.9635000000005 696.70315L347.1749999999997 685.1220500000001L351.9349999999997 679.0558L359.2145000000005 676.4984500000002L360.0795000000005 660.48725L373.84250000000065 629.5575000000001L381.9704999999999 624.6889499999999L384.76800000000026 626.4912500000002L391.8534999999997 624.6410500000001L390.99699999999984 617.1883000000001L380.6245000000001 616.7115500000001L359.9655000000007 601.46505L362.8060000000005 586.7946L381.0825 588.2391L393.6374999999998 595.1108499999999L396.09550000000013 592.3247500000001L421.6669999999999 591.4679500000001L424.88000000000056 568.4994999999999L435.09950000000003 556.5189500000001L433.10850000000073 546.09425L434.5614999999998 538.6533999999999L449.2025000000001 535.1756999999999L451.23550000000023 524.7897999999999L440.18800000000056 514.5898000000001L439.44849999999974 514.0047L435.1864999999998 508.43125L434.37400000000025 497.7213999999999L423.66550000000075 496.9986999999999L417.2924999999998 484.1422000000001L403.5260000000005 479.1209500000001L399.6640000000002 480.95225000000016L395.25300000000016 475.12929999999994L380.3250000000003 472.28255L368.50700000000074 481.28135L356.8169999999998 472.8198500000001L353.0790000000002 465.98165000000006L360.7555000000002 448.33050000000003L362.7520000000004 445.89565000000005L366.7304999999999 437.6709000000001L364.0960000000007 431.49839999999995L365.73350000000005 421.7006500000001L362.52050000000054 419.7082999999999L362.48050000000035 412.1689500000001L337.3014999999998 407.08084999999994L339.6545000000003 392.6097500000002L346.9214999999997 394.5458000000001L358.71200000000044 385.4098L362.18200000000024 378.02049999999997L364.4505000000004 368.6385L373.14100000000053 365.6069000000001L373.21649999999977 359.11805000000004L369.75450000000023 358.3070500000001L361.7259999999999 342.54200000000014L365.2260000000001 329.5145000000001L345.75950000000034 317.0687000000001L333.61999999999966 309.21930000000003L330.0705000000005 310.28925000000004L330.299 313.6987500000001L323.69699999999966 313.92325L324.3085000000008 315.17724999999996L316.8579999999997 314.35315L314.49299999999994 321.53644999999995L313.4175000000005 320.946z">
      <title id="t434">Dixième circonscription des Yvelines</title>
      <desc id="d434">Cantons de : Maurepas (moins les communes d'Elancourt et de La Verrière), Monfort-l'Amaury (partie non comprise dans la 12e circonscription), Rambouillet, Saint-Arnoult-en-Yvelines</desc>
    </path><path class="circo" id="id-078-11" d="M447.7200000000005 285.4366L443.91399999999976 290.05764999999997L434.39950000000067 290.60130000000004L427.0609999999999 306.63905L408.8480000000004 304.46444999999994L406.1295000000007 306.63905L404.4979999999998 321.0458L430.86599999999976 323.76405000000005L445.8159999999998 321.86125000000004L448.2630000000006 325.93865000000005L460.49499999999966 331.37514999999996L468.1060000000002 297.9406L461.03900000000067 294.13505L452.61300000000006 287.0676L447.7200000000005 285.4366zM404.4979999999998 321.0458L398.79099999999994 320.5021500000001L398.2479999999998 320.5021500000001L386.55849999999987 320.23030000000006L376.7725000000007 332.1907L365.35600000000045 329.4723L361.82300000000055 342.5199500000001L369.70550000000003 358.2859000000001L373.2389999999998 359.10135000000014L373.2389999999998 365.6251500000001L364.5410000000004 368.61530000000005L362.09400000000073 378.12914999999987L358.83249999999975 385.4684500000001L370.249 394.4386999999999L380.57800000000043 393.07955000000004L381.6655000000003 403.6807499999999L387.64549999999986 408.57360000000017L400.4214999999999 399.60345000000007L399.6055000000001 381.1193000000002L402.5959999999998 378.9445999999999L417.0029999999997 362.6351000000001L415.37199999999984 356.11130000000014L425.15750000000025 336.5398L404.4979999999998 321.0458z">
      <title id="t435">Onzième circonscription des Yvelines</title>
      <desc id="d435">Cantons de : Saint-Cyr-l'Ecole, Trappes , Communes de : Elancourt et La Verrière (issues du canton de Maurepas), Le Mesnil-Saint-Denis (issue du canton de Chevreuse)</desc>
    </path><path class="circo" id="id-078-12" d="M244.5595000000003 283.74660000000006L241.15300000000047 284.34534999999994L232.04600000000028 273.93995000000007L216.45600000000059 277.55165000000005L211.18850000000066 268.24840000000006L200.8465000000001 265.4552L199.0179999999998 258.33894999999995L207.18150000000037 253.37514999999996L208.44800000000077 240.02120000000005L210.10449999999992 236.93105000000003L216.3684999999998 239.76160000000007L217.3765000000003 236.59149999999997L223.84850000000029 235.26494999999997L225.46600000000012 232.36784999999998L222.5965000000008 230.71399999999997L238.93400000000042 212.08025000000006L248.30350000000067 217.31530000000006L252.72400000000061 223.4472000000001L268.1344999999999 223.5967500000001L277.96100000000024 234.1373L284.5474999999999 231.62239999999997L289.1870000000006 239.9763L303.1579999999997 239.2062L316.0000000000002 233.48985L322.2415000000001 236.29360000000005L328.3370000000002 231.79895000000002L326.97 220.61350000000004L334.24949999999967 221.8763L337.1105 219.5205L343.5850000000005 206.3318000000001L337.33100000000036 201.92695L330.21150000000034 188.38745000000003L322.59250000000065 188.34360000000004L335.5770000000007 174.49820000000003L347.8155000000004 180.0979000000001L355.80299999999966 167.03280000000007L374.37650000000076 153.49050000000005L372.82550000000015 146.10910000000004L375.9445000000005 143.70835L386.09699999999975 155.76575000000005L386.29999999999995 157.38245000000006L392.7690000000007 156.4379000000001L395.63350000000014 175.06765000000001L407.27700000000027 175.69789999999998L415.0445000000002 184.37290000000004L421.173 180.5930500000001L414.8885000000007 168.59724999999997L425.1075000000003 173.90389999999996L435.57950000000005 168.68400000000008L443.6225000000002 155.1928000000001L444.905 143.40100000000007L460.5465000000004 155.54744999999997L455.41650000000004 161.39899999999997L449.04499999999985 178.96590000000003L441.93550000000073 181.88609999999997L438.1630000000007 188.68115000000003L428.65850000000023 193.47295000000003L425.06200000000035 192.35354999999998L419.28150000000073 202.08785000000006L409.65100000000007 207.89405000000002L405.4645000000005 214.13725L407.4705000000006 217.3288000000001L395.28099999999995 207.3294L387.6755000000003 215.06505000000004L374.48150000000055 212.53794999999997L371.6345000000001 228.28209999999999L377.42450000000076 241.52195000000006L386.2715000000003 248.17835000000002L385.80600000000004 251.96475000000007L380.1195000000007 261.74270000000007L386.9690000000003 274.01189999999997L385.5995000000007 280.9104500000001L386.55500000000075 280.85755000000006L384.1975000000002 295.5563000000001L398.67650000000026 320.3713L398.27300000000037 320.4173L386.5229999999997 320.17600000000004L376.78300000000036 332.06550000000004L365.2260000000001 329.5145000000001L345.75950000000034 317.0687000000001L333.61999999999966 309.21930000000003L330.0705000000005 310.28925000000004L330.299 313.6987500000001L323.69699999999966 313.92325L324.3085000000008 315.17724999999996L316.8579999999997 314.35315L314.49299999999994 321.53644999999995L313.4175000000005 320.946L291.66900000000055 319.3229000000001L296.21350000000007 305.7555000000001L282.24000000000046 307.37570000000005L269.06850000000077 303.2202000000001L264.2629999999997 308.45354999999995L263.3955000000003 305.03355L259.8725000000002 305.13800000000003L254.20650000000023 309.27425L246.89950000000067 301.61005L249.46300000000065 299.3787500000001L249.86150000000066 285.97845000000007L244.5595000000003 283.74660000000006z">
      <title id="t436">Douzième circonscription des Yvelines</title>
      <desc id="d436">Cantons de : Plaisir (moins la commune de Les Clayes-sous-Bois), Poissy Sud , Communes de : Auteuil, Autouillet, Beynes, Boissy-sans-Avoir, Flexanville, Goupillières, Marcq, Neauphle-le-Château, Neauphle-le-Vieux, Saint-Germain-de-la-Grange, Saulx-Marchais, Thoiry, Vicq, Villiers-le-Mahieu, Villiers-Saint-Fréderic (issues du canton de Montfort-L'Amaury) , Commune de Poissy (partie comprise dans le canton de Poissy Nord)</desc>
    </path></svg>