<svg xmlns="http://www.w3.org/2000/svg" version="1.1" xmlns:xlink="http://www.w3.org/1999/xlink" xmlns:svgjs="http://svgjs.dev/svgjs" width="476.50149999999996" height="703.6464999999998" fill="#eeeeee" stroke="#cccccc" xmlns:sodipodi="http://sodipodi.sourceforge.net/DTD/sodipodi-0.dtd"><path class="circo" id="id-079-01" d="M217.44749999999954 412.6571999999999L217.15199999999982 420.3742L214.7679999999997 425.6288999999998L217.6569999999998 428.28239999999994L218.29549999999983 432.21115L221.9169999999997 433.8718L227.29599999999948 435.73575000000005L231.25249999999994 439.9878000000001L227.70699999999977 446.71515L233.5884999999996 451.73959999999965L232.9314999999997 453.6000999999999L232.11299999999994 460.8020499999998L234.33599999999956 464.03790000000015L233.66599999999949 467.93475L235.3099999999995 469.01914999999974L233.07799999999986 471.5614999999997L237.86649999999952 477.92734999999993L237.73699999999963 481.81645000000003L249.32249999999954 485.52539999999965L244.85349999999983 489.3028499999997L243.26949999999954 495.1484999999997L247.11099999999988 499.4995L245.10599999999954 505.4442499999999L248.20599999999956 510.84554999999966L246.46199999999965 516.8221499999999L243.4854999999999 519.60195L255.21599999999978 528.0450000000002L253.25999999999965 528.8029L250.94299999999976 536.38395L251.86849999999993 540.4377499999998L260.40099999999995 541.7133000000001L269.4924999999995 546.9545999999997L260.65349999999967 555.1065L259.51499999999953 559.0456499999999L262.0309999999995 562.1062499999999L259.6849999999995 566.8525999999997L257.5569999999999 566.6094499999997L249.80549999999994 573.6688499999997L245.668 581.1348499999997L241.56049999999993 580.7389999999998L237.5369999999998 575.8092499999998L232.16399999999965 569.255L231.00749999999948 567.6053000000002L228.77949999999998 565.2826499999998L223.1049999999999 563.5111999999998L213.5915 555.8564000000001L215.77499999999986 550.1650000000001L198.38449999999966 546.5848L196.81349999999952 547.9050000000001L197.81799999999976 543.95715L194.08299999999997 542.2374500000001L195.2849999999995 538.3909499999999L192.01749999999947 533.4660500000001L192.91299999999978 529.4274000000001L194.31699999999978 524.0081499999997L190.9159999999997 514.2869000000002L190.80149999999946 508.1229000000002L188.5884999999996 504.7547500000002L183.32699999999988 510.6856499999998L175.60299999999984 508.9316500000001L176.1775 496.7635999999999L160.02599999999973 497.28409999999997L158.38149999999985 501.1899999999997L150.9009999999995 505.09675000000016L142.94449999999983 507.2199999999998L139.46549999999945 505.3150999999997L134.0749999999997 496.85464999999965L133.51349999999968 488.73789999999985L121.3069999999999 494.5941499999998L113.58799999999974 493.49154999999996L109.94049999999959 489.0726999999998L112.8064999999998 485.87249999999983L112.68399999999986 479.83565L120.2539999999999 476.6401000000002L125.04750000000001 472.3410000000001L127.24049999999977 464.36429999999973L137.61599999999987 466.5769499999999L145.61849999999993 463.53290000000015L146.59999999999968 461.61749999999984L154.88149999999962 447.8069999999997L149.85349999999983 443.96199999999965L141.61299999999983 442.81274999999994L140.18549999999948 439.0282000000002L136.1005 438.0920500000002L127.91249999999991 431.6816499999999L123.7684999999999 431.42150000000015L119.56999999999994 445.34785L112.20499999999959 441.4662499999997L115.54849999999988 436.48955L111.69149999999945 431.61689999999965L112.7879999999999 419.5503500000001L119.846 415.2889499999998L121.73199999999952 407.45169999999973L124.95499999999993 406.04145000000017L121.55249999999967 400.72014999999965L120.79699999999946 394.3804L116.30599999999959 390.1645500000001L117.59399999999971 379.7778999999997L113.84599999999978 374.86924999999985L109.59199999999953 371.0529500000001L112.00649999999996 365.8749999999998L110.49649999999986 362.48699999999985L116.4609999999999 360.3848499999998L124.7664999999995 360.40954999999997L127.54099999999994 357.22489999999993L127.1289999999999 351.34034999999983L124.91449999999986 339.17505000000006L120.81549999999993 339.78700000000003L117.94849999999997 329.92759999999976L122.73899999999969 323.6424999999997L120.39799999999957 320.3275500000001L121.34849999999972 316.67640000000006L116.90599999999961 312.51509999999996L122.51049999999964 303.52885000000015L135.1249999999999 305.22744999999986L134.9754999999999 301.55854999999974L136.44399999999962 300.47124999999994L140.67549999999983 299.97180000000014L147.05249999999978 305.64509999999984L144.10249999999962 297.7859000000001L159.36649999999986 283.18209999999965L168.7349999999998 290.4752000000002L178.38299999999947 287.39660000000015L182.7759999999995 282.8105999999997L183.19349999999986 268.34644999999966L181.55699999999968 260.2213999999998L178.21349999999995 257.87859999999966L181.83799999999962 251.02710000000002L192.45949999999993 249.55449999999985L197.8774999999996 246.21669999999995L203.09399999999982 252.88264999999967L208.74899999999968 255.9377999999998L208.3974999999998 262.3861999999997L211.16799999999955 261.95314999999994L214.67399999999998 263.8787000000002L215.93999999999994 269.65845L217.69199999999955 270.6767500000001L219.2199999999997 269.19325000000015L222.92249999999967 271.31719999999973L227.06399999999974 270.3138000000001L232.77949999999976 272.93875000000014L247.74699999999996 265.23604999999975L252.11899999999957 260.6576000000001L257.8769999999997 258.84709999999984L263.15049999999985 265.6058999999999L262.7494999999999 276.0608500000001L267.6774999999998 285.44820000000016L255.0509999999997 286.9025499999998L239.55149999999946 294.0562L247.7974999999998 295.10159999999985L249.4995 303.2120500000002L245.97699999999975 308.29574999999977L250.07649999999956 308.09529999999995L252.60199999999998 311.3340999999997L256.54499999999985 312.4675000000002L264.2809999999997 312.45634999999993L267.9559999999998 310.6195500000001L271.3254999999998 311.0594500000002L273.7795 308.6998L277.8009999999995 315.4188499999998L290.35799999999995 321.9367999999997L292.71949999999947 318.5183999999998L297.2555 314.98895000000005L304.5934999999997 317.96854999999994L310.5509999999998 317.16504999999984L312.2194999999999 320.8155499999998L309.19449999999983 330.30539999999974L312.13299999999947 332.9503999999997L308.6949999999996 345.1321999999999L298.98349999999994 343.9999499999999L296.10599999999977 349.59159999999997L295.48099999999977 360.0512500000002L301.7089999999996 360.5052999999998L306.39999999999986 364.55690000000004L312.24099999999964 365.2060499999999L309.8079999999999 368.6048999999997L309.56349999999986 376.8957499999999L306.40449999999987 384.54504999999983L303.4504999999996 387.20680000000016L302.6754999999997 395.49800000000005L298.9359999999999 396.78405L297.3229999999995 403.50030000000004L293.59999999999957 405.32584999999983L287.20099999999945 400.47214999999994L274.72549999999956 407.3801500000002L272.6044999999999 407.4232999999998L272.149 399.1912000000002L264.298 386.7030999999997L260.18449999999973 391.1298499999998L255.64149999999984 384.56174999999973L253.81399999999985 385.55619999999976L257.1584999999999 399.8162500000001L253.59649999999988 404.9143499999997L246.42349999999965 408.97474999999986L244.0564999999998 414.76715000000013L239.63099999999997 418.34535000000017L236.20849999999962 416.6735L232.90999999999997 418.4532999999999L222.96299999999974 414.51554999999985L219.16049999999984 409.43119999999965L217.44749999999954 412.6571999999999z">
      <title id="t437">Première circonscription des Deux-Sèvres</title>
      <desc id="d437">Cantons de : Champdeniers-Saint-Denis, Coulonges-sur-l'Autize, Mazières-en-Gâtine, Niort Est, Niort Nord, Niort Ouest, Prahecq, Secondigny</desc>
    </path><path class="circo" id="id-079-02" d="M160.30099999999948 605.9522499999997L159.55949999999973 602.04925L156.80099999999982 599.49705L151.03249999999946 596.9538999999997L142.77499999999975 597.2992499999998L137.2305 594.2553499999997L135.63649999999996 599.5921499999997L127.45649999999955 597.7378499999998L121.70749999999998 600.2742000000001L116.4654999999999 597.1312L114.73449999999957 594.1148499999997L115.81249999999955 592.3836L127.32999999999947 589.7631999999999L122.91349999999966 586.1221499999999L118.7564999999995 586.4902999999998L113.73099999999965 583.5411499999998L109.93449999999996 583.9713499999999L104.90449999999953 580.9464500000001L99.02349999999956 572.6884999999999L90.822 573.4098L89.37199999999962 567.7495999999996L87.44249999999965 566.9600500000001L88.03899999999999 564.9621000000002L92.07899999999995 565.4643499999997L93.41949999999997 563.9182999999997L91.7534999999998 554.0863000000002L89.79299999999967 550.6293499999998L84.74699999999984 547.4165999999997L64.07249999999976 534.8144000000002L62.991499999999974 530.76055L70.6469999999996 520.8309500000001L66.71349999999961 513.5901999999999L62.715499999999906 501.64895L64.49149999999975 498.4197999999998L74.78849999999966 499.0676000000002L78.1314999999995 497.73874999999975L76.88599999999951 493.93759999999986L78.99249999999995 490.64865L82.92499999999961 489.96375L87.07599999999957 485.5408L97.72899999999993 491.0609499999998L106.31349999999998 490.2893L109.94049999999959 489.0726999999998L113.58799999999974 493.49154999999996L121.3069999999999 494.5941499999998L133.51349999999968 488.73789999999985L134.0749999999997 496.85464999999965L139.46549999999945 505.3150999999997L142.94449999999983 507.2199999999998L150.9009999999995 505.09675000000016L158.38149999999985 501.1899999999997L160.02599999999973 497.28409999999997L176.1775 496.7635999999999L175.60299999999984 508.9316500000001L183.32699999999988 510.6856499999998L188.5884999999996 504.7547500000002L190.80149999999946 508.1229000000002L190.9159999999997 514.2869000000002L194.31699999999978 524.0081499999997L192.91299999999978 529.4274000000001L192.01749999999947 533.4660500000001L195.2849999999995 538.3909499999999L194.08299999999997 542.2374500000001L197.81799999999976 543.95715L196.81349999999952 547.9050000000001L198.38449999999966 546.5848L215.77499999999986 550.1650000000001L213.5915 555.8564000000001L223.1049999999999 563.5111999999998L228.77949999999998 565.2826499999998L231.00749999999948 567.6053000000002L232.16399999999965 569.255L237.5369999999998 575.8092499999998L241.56049999999993 580.7389999999998L245.668 581.1348499999997L249.80549999999994 573.6688499999997L257.5569999999999 566.6094499999997L259.6849999999995 566.8525999999997L262.0309999999995 562.1062499999999L259.51499999999953 559.0456499999999L260.65349999999967 555.1065L269.4924999999995 546.9545999999997L260.40099999999995 541.7133000000001L251.86849999999993 540.4377499999998L250.94299999999976 536.38395L253.25999999999965 528.8029L255.21599999999978 528.0450000000002L243.4854999999999 519.60195L246.46199999999965 516.8221499999999L248.20599999999956 510.84554999999966L245.10599999999954 505.4442499999999L247.11099999999988 499.4995L243.26949999999954 495.1484999999997L244.85349999999983 489.3028499999997L249.32249999999954 485.52539999999965L237.73699999999963 481.81645000000003L237.86649999999952 477.92734999999993L233.07799999999986 471.5614999999997L235.3099999999995 469.01914999999974L233.66599999999949 467.93475L234.33599999999956 464.03790000000015L232.11299999999994 460.8020499999998L232.9314999999997 453.6000999999999L233.5884999999996 451.73959999999965L227.70699999999977 446.71515L231.25249999999994 439.9878000000001L227.29599999999948 435.73575000000005L221.9169999999997 433.8718L218.29549999999983 432.21115L217.6569999999998 428.28239999999994L214.7679999999997 425.6288999999998L217.15199999999982 420.3742L217.44749999999954 412.6571999999999L219.16049999999984 409.43119999999965L222.96299999999974 414.51554999999985L232.90999999999997 418.4532999999999L236.20849999999962 416.6735L239.63099999999997 418.34535000000017L244.0564999999998 414.76715000000013L246.42349999999965 408.97474999999986L253.59649999999988 404.9143499999997L257.1584999999999 399.8162500000001L253.81399999999985 385.55619999999976L255.64149999999984 384.56174999999973L260.18449999999973 391.1298499999998L264.298 386.7030999999997L272.149 399.1912000000002L272.6044999999999 407.4232999999998L274.72549999999956 407.3801500000002L287.20099999999945 400.47214999999994L293.59999999999957 405.32584999999983L297.3229999999995 403.50030000000004L298.9359999999999 396.78405L302.6754999999997 395.49800000000005L303.4504999999996 387.20680000000016L306.40449999999987 384.54504999999983L309.56349999999986 376.8957499999999L309.8079999999999 368.6048999999997L312.24099999999964 365.2060499999999L306.39999999999986 364.55690000000004L301.7089999999996 360.5052999999998L295.48099999999977 360.0512500000002L296.10599999999977 349.59159999999997L298.98349999999994 343.9999499999999L308.6949999999996 345.1321999999999L312.13299999999947 332.9503999999997L309.19449999999983 330.30539999999974L312.2194999999999 320.8155499999998L310.5509999999998 317.16504999999984L304.5934999999997 317.96854999999994L297.2555 314.98895000000005L292.71949999999947 318.5183999999998L290.35799999999995 321.9367999999997L277.8009999999995 315.4188499999998L273.7795 308.6998L271.3254999999998 311.0594500000002L267.9559999999998 310.6195500000001L264.2809999999997 312.45634999999993L256.54499999999985 312.4675000000002L252.60199999999998 311.3340999999997L250.07649999999956 308.09529999999995L245.97699999999975 308.29574999999977L249.4995 303.2120500000002L247.7974999999998 295.10159999999985L239.55149999999946 294.0562L255.0509999999997 286.9025499999998L267.6774999999998 285.44820000000016L262.7494999999999 276.0608500000001L263.15049999999985 265.6058999999999L257.8769999999997 258.84709999999984L252.11899999999957 260.6576000000001L247.74699999999996 265.23604999999975L232.77949999999976 272.93875000000014L227.06399999999974 270.3138000000001L222.92249999999967 271.31719999999973L219.2199999999997 269.19325000000015L217.69199999999955 270.6767500000001L215.93999999999994 269.65845L214.67399999999998 263.8787000000002L211.16799999999955 261.95314999999994L223.0944999999997 254.87194999999986L221.83349999999962 253.2389999999998L226.15499999999997 248.94274999999993L223.476 239.01254999999992L224.46249999999964 237.19344999999976L227.49449999999968 229.24499999999966L222.0134999999999 220.13959999999997L229.57449999999994 216.68470000000013L237.90249999999958 215.39049999999975L250.1819999999998 201.15785000000017L259.9124999999998 209.07764999999984L270.2669999999995 211.43624999999986L271.2809999999996 213.31759999999974L269.2049999999995 217.0383499999997L269.5479999999998 221.29525L273.3974999999998 226.26674999999977L278.70199999999954 225.05854999999997L283.1714999999997 223.8515000000001L287.8054999999995 227.64054999999985L290.45049999999947 233.35525000000018L289.80399999999975 239.64555000000018L285.5329999999998 244.3124499999999L284.9894999999998 250.50155000000018L292.4689999999998 263.4462500000001L295.4609999999997 266.13249999999994L307.98449999999946 258.16485L319.9499999999995 259.6488499999998L322.3219999999998 253.78620000000012L320.6264999999996 241.3814500000001L324.42849999999964 241.20169999999973L331.6369999999995 236.89210000000003L325.21699999999953 228.2179500000001L337.9699999999997 221.28964999999994L337.6649999999995 217.06500000000005L339.1839999999996 215.57909999999993L342.47499999999945 211.23400000000004L345.96199999999953 209.0447499999999L352.90549999999996 213.01105000000007L357.8465 219.57195000000013L358.519 225.45365000000004L370.22149999999954 221.60230000000013L371.3364999999999 217.53465000000006L369.45299999999975 209.2321499999997L372.1759999999995 205.95674999999972L374.15599999999984 206.71944999999994L374.3694999999997 212.75604999999985L378.0699999999996 220.3678500000001L382.6374999999996 216.06740000000002L393.7164999999999 228.68060000000014L397.50599999999963 230.20314999999982L398.9684999999997 236.3886500000001L397.01149999999984 237.22260000000006L393.168 236.90945L385.06099999999947 243.12779999999975L383.2495 244.25790000000006L384.5829999999995 250.50155000000018L383.4529999999995 254.48030000000017L375.6514999999996 257.59975L379.36999999999955 264.8042499999997L369.99799999999993 273.0564499999997L369.83349999999973 273.11339999999973L367.3539999999997 276.49L368.73399999999947 278.1057499999997L368.3574999999996 284.39134999999965L358.4389999999996 292.24004999999977L355.0664999999998 297.6249999999999L355.48099999999977 301.85805000000016L371.47149999999954 298.3280500000001L376.14049999999963 291.5950499999997L381.37 288.31594999999993L383.65549999999985 291.3914L379.16799999999967 305.7112999999998L384.80549999999994 308.8463999999999L393.1664999999998 306.99025000000006L393.6514999999997 319.00705000000016L401.6089999999997 321.4432999999997L396.45749999999964 325.23739999999975L392.17299999999966 325.4773L382.04399999999964 333.4616999999997L379.15599999999984 343.53144999999984L386.47599999999954 349.77329999999995L380.7884999999999 362.9731499999997L370.1279999999997 362.3523499999999L370.20099999999957 372.6567L366.96549999999945 377.95649999999966L366.7779999999999 382.0355999999998L369.77799999999945 384.79074999999966L365.37499999999966 388.6764499999998L365.06699999999967 394.79449999999986L366.40949999999975 396.26075000000014L375.73649999999986 393.1547999999998L378.12599999999975 395.50974999999994L379.0044999999998 397.32770000000016L375.274 406.61639999999977L378.9554999999996 408.7045499999999L378.02299999999946 423.5122000000001L374.8599999999999 435.84360000000004L380.05799999999965 441.93704999999966L380.0539999999995 446.20679999999993L383.63 444.18814999999995L389.64399999999955 445.14205000000004L393.08449999999993 452.1461999999997L397.99649999999986 455.79619999999977L389.3384999999995 465.9476000000001L396.8009999999998 472.60080000000016L393.23649999999986 474.87694999999974L389.86999999999966 484.8834499999998L395.9285 483.3952499999998L403.49699999999984 487.2584499999999L416.6964999999999 497.9989999999998L424.6494999999999 488.39020000000005L424.0514999999999 484.1528999999997L426.53399999999976 480.67835L433.5794999999996 475.8767499999999L435.8639999999997 472.24244999999996L441.9334999999995 470.6397499999997L449.8389999999995 474.4083999999998L458.8364999999999 483.7411500000002L453.98349999999994 490.54775000000006L455.48899999999946 494.46860000000015L453.5794999999996 497.6477L449.5364999999998 496.77345L448.4564999999998 498.5477500000002L456.6909999999996 514.2014L452.32399999999984 521.0233999999997L438.2099999999997 521.1918500000002L441.8739999999997 534.8666500000002L442.73049999999955 537.7979499999998L444.10049999999956 543.7998499999998L441.20349999999974 546.69535L439.2644999999999 546.0183499999999L433.621 554.4056999999998L431.6624999999999 555.0033000000002L429.2274999999995 571.0998000000001L442.7954999999997 575.02295L444.40499999999986 578.8254000000001L446.40199999999993 579.3390999999997L449.3769999999995 588.7918999999999L456.5039999999999 589.6128499999998L458.64599999999996 593.11305L462.84599999999955 593.6148500000002L467.7344999999997 587.0934999999997L474.11899999999946 587.6408499999997L476.15449999999953 587.8672499999999L476.50149999999996 589.8951L475.3869999999995 598.0163499999998L468.6899999999997 605.5432500000001L467.808 607.3982999999998L469.7429999999997 608.0752999999999L468.45199999999977 613.1597999999997L463.7179999999995 616.9193000000001L464.5094999999998 620.9125499999999L467.3299999999995 626.5724499999999L458.90799999999956 634.1401500000001L455.50549999999987 634.8698999999999L454.6519999999998 633.3159999999998L441.1759999999998 621.3673999999997L434.0854999999999 625.3154000000001L428.3679999999998 625.0837000000001L424.55799999999954 620.557L422.9849999999999 621.7971L425.7664999999997 629.0508499999999L424.6419999999995 630.6607500000001L419.88399999999956 628.0531500000001L414.46699999999964 627.59165L405.87049999999977 636.0794499999997L409.60249999999974 640.83685L405.78899999999976 642.3156999999998L399.51899999999966 643.1249500000001L391.5889999999996 652.7418L385.53199999999947 648.6500000000001L382.3634999999996 651.1274500000002L372.31449999999995 650.5964499999999L366.66399999999953 652.5807500000002L367.8299999999996 658.5947499999997L373.8119999999998 666.7613499999999L370.1959999999997 671.7102999999997L364.10649999999976 672.46985L364.17299999999955 676.48775L361.4904999999999 683.9146L365.5345 687.44665L362.05749999999966 691.7820999999998L358.4364999999997 693.6207999999999L357.09749999999985 697.4925000000002L350.95849999999984 697.72065L339.70349999999996 703.6464999999998L333.58299999999986 698.85695L325.8164999999997 698.2172500000001L327.097 692.6709L325.3004999999996 691.7062499999997L321.91299999999956 682.2313500000001L316.08349999999973 682.0074L313.6685 677.2790500000002L314.19149999999945 673.4467000000001L312.10249999999974 670.7065L313.5344999999995 663.2008500000001L303.0694999999997 669.0911499999999L302.2864999999996 658.3969500000001L300.394 657.7069L301.044 653.7675999999999L293.9194999999995 657.2807L286.0789999999997 655.7583999999997L284.40399999999954 655.4240499999997L267.4124999999998 649.9998999999997L264.4394999999997 638.0057499999998L258.80449999999996 632.0671499999997L254.6445 636.8637000000001L244.39599999999984 635.3129000000001L242.54399999999976 634.5966499999997L229.28699999999992 638.83285L229.65149999999994 633.55435L224.71949999999993 627.4911500000002L219.21099999999967 625.7664999999997L212.83149999999978 633.5041000000001L204.34399999999982 627.9348499999998L204.42699999999945 615.6986499999999L196.73149999999964 621.6481499999998L196.2594999999999 627.1436499999999L192.05249999999978 622.5878L182.08099999999945 620.9934499999997L169.40349999999967 619.3953499999998L163.97999999999968 616.2117999999998L166.7134999999996 613.5031499999997L163.1574999999998 608.9749L166.24649999999974 606.5821L160.30099999999948 605.9522499999997z">
      <title id="t438">Deuxième circonscription des Deux-Sèvres</title>
      <desc id="d438">Cantons de : Beauvoir-sur-Niort, Brioux-sur-Boutonne, Celles-sur-Belle, Chef-Boutonne, Frontenay-Rohan-Rohan, Lezay, Mauzé-sur-le-Mignon, La Mothe-Saint-Héray, Melle, Ménigoutte, Parthenay, Saint-Maixent-l'Ecole I, Saint-Maixent-l'Ecole II, Sauzé-Vaussais, Thénezay</desc>
    </path><path class="circo" id="id-079-03" d="M364.03399999999976 172.09789999999998L368.2159999999999 172.01464999999985L372.04999999999984 167.07479999999975L378.9169999999996 162.58415000000014L384.9844999999999 164.06619999999975L389.78899999999953 170.69635000000005L390.5109999999996 170.32235000000014L397.8004999999996 158.44589999999982L393.54449999999986 158.52795000000015L387.7464999999995 155.63420000000008L384.16049999999984 153.2168999999999L380.01499999999965 148.28359999999975L373.92499999999984 146.00199999999973L369.7614999999996 147.0924500000001L368.30349999999953 145.47910000000002L371.4309999999995 142.8428500000001L373.58649999999955 133.19574999999986L379.5754999999997 124.96249999999975L377.55799999999965 116.28845000000013L374.04199999999946 106.17804999999976L370.38749999999993 103.89599999999973L370.0014999999996 99.51324999999997L364.39949999999953 92.85089999999968L363.79549999999995 88.49220000000003L369.37449999999956 79.9369999999999L366.99899999999957 74.30875000000015L359.93649999999946 70.97210000000018L353.7224999999995 72.08995000000016L346.69749999999965 76.79404999999974L344.1904999999997 64.33269999999993L344.47449999999947 60.42404999999974L348.34449999999947 61.31104999999991L348.88199999999983 59.44794999999999L345.93849999999975 52.01999999999998L345.0909999999999 47.24944999999991L344.60099999999954 44.009849999999915L340.04999999999995 27.22129999999993L328.6704999999995 33.815700000000106L325.3805 31.53554999999983L324.8614999999995 27.492050000000177L321.7199999999997 25.00310000000013L317.8189999999995 23.888650000000098L312.90749999999946 27.352300000000014L309.18049999999994 25.52909999999997L307.5649999999996 24.110150000000203L312.5879999999995 17.12060000000008L323.57249999999965 7.27595000000008L323.41849999999965 2.972899999999754L317.08699999999965 4.261599999999817L304.7234999999995 0L302.6219999999995 5.474750000000199L295.78599999999994 9.504699999999957L281.2764999999996 2.0431500000000824L273.7289999999996 5.078300000000127L271.7274999999995 1.8358499999999367L268.66349999999954 4.5175999999997885L264.6029999999996 5.198800000000006L263.09799999999996 3.7927000000001954L255.24599999999964 6.22585000000015L250.5789999999996 10.218849999999975L238.88899999999978 13.199549999999931L232.67899999999997 8.372850000000085L230.82749999999976 9.290550000000053L221.1239999999998 12.400599999999713L219.10199999999975 12.054150000000163L218.947 10.007850000000076L215.13499999999965 11.348100000000159L213.11649999999986 23.499249999999847L209.7784999999999 26.168650000000184L202.1909999999997 22.584449999999947L194.12949999999967 25.427399999999807L187.70399999999995 25.01244999999983L179.28449999999998 34.18875000000014L177.85249999999962 26.105049999999892L186.19849999999985 20.191800000000057L186.5224999999998 16.57199999999989L174.43949999999973 15.959050000000161L164.51649999999972 19.027249999999754L145.5664999999999 29.15854999999965L147.09199999999953 30.68649999999991L147.11549999999988 39.19134999999983L152.47449999999958 45.74475000000007L150.96599999999967 49.70744999999965L144.78849999999966 49.239200000000096L142.56699999999967 55.268199999999865L136.90399999999954 58.34585000000004L133.8639999999998 63.80974999999978L131.06149999999957 65.72934999999973L130.36149999999964 68.93505000000005L119.86999999999966 71.76904999999977L114.23299999999983 69.58064999999976L108.06149999999946 71.00075000000004L98.25249999999983 67.01999999999998L94.28849999999954 71.84444999999982L94.36599999999999 75.32244999999989L86.59649999999999 71.02010000000007L79.76499999999987 76.36854999999969L71.5379999999999 69.4061499999998L69.39199999999971 69.02539999999988L64.09399999999948 72.4282999999997L59.79149999999947 71.90364999999986L54.87299999999948 65.26939999999968L48.72349999999983 64.43055000000015L45.172999999999774 69.57875000000001L39.837499999999864 72.73484999999994L41.30799999999965 74.20779999999979L39.32899999999961 74.96109999999987L36.41799999999989 71.83324999999968L34.27699999999959 71.90924999999993L28.941999999999553 75.39285000000007L23.161999999999807 76.2588999999997L19.995999999999867 81.37789999999995L20.390499999999747 85.33450000000016L18.403999999999883 86.0320999999999L8.559499999999503 82.4013500000001L4.358999999999469 82.69284999999968L0 86.12615000000005L1.5049999999996544 87.70249999999976L7.881499999999733 86.71285000000012L9.573499999999626 92.57499999999993L14.99499999999955 93.71084999999994L15.67199999999957 97.9380500000002L10.073999999999614 97.42189999999994L8.411499999999705 98.89624999999967L9.017499999999927 100.97629999999981L21.4104999999995 102.38765000000001L21.070499999999583 106.0908999999998L30.43549999999982 110.51445000000001L33.09100000000001 116.38800000000003L39.23449999999946 117.63255000000015L37.57199999999955 121.19599999999991L34.79799999999955 124.30864999999983L35.672500000000014 128.29250000000002L29.64749999999981 139.3831L36.86999999999955 143.03994999999986L46.10599999999977 156.09784999999988L49.068999999999505 159.7870499999999L51.33649999999989 165.2797499999997L54.844999999999686 166.97045000000003L61.314499999999725 172.58620000000008L69.5414999999997 174.09199999999998L73.35099999999954 178.65380000000016L81.67749999999955 178.64075000000014L86.327 186.53849999999977L79.24849999999992 190.97505000000012L77.18399999999974 198.6886499999997L75.25049999999965 202.64070000000004L74.65449999999976 211.4238499999999L77.54949999999951 219.51300000000003L82.63599999999997 223.25420000000008L86.69349999999952 222.06259999999986L87.86099999999976 225.93804999999975L86.76299999999969 231.78699999999992L90.76049999999952 238.0435L92.57449999999949 236.9243499999999L97.3724999999996 241.15949999999998L104.71649999999954 253.85809999999992L94.97499999999945 262.3162000000002L103.90699999999981 268.5056500000002L112.7249999999998 276.7835500000001L108.12649999999962 280.8366000000001L107.84249999999986 286.87160000000006L103.50999999999999 290.97910000000013L104.18899999999951 294.9703999999997L110.12999999999977 292.5804999999997L114.39399999999978 293.49909999999966L122.51049999999964 303.52885000000015L135.1249999999999 305.22744999999986L134.9754999999999 301.55854999999974L136.44399999999962 300.47124999999994L140.67549999999983 299.97180000000014L147.05249999999978 305.64509999999984L144.10249999999962 297.7859000000001L159.36649999999986 283.18209999999965L168.7349999999998 290.4752000000002L178.38299999999947 287.39660000000015L182.7759999999995 282.8105999999997L183.19349999999986 268.34644999999966L181.55699999999968 260.2213999999998L178.21349999999995 257.87859999999966L181.83799999999962 251.02710000000002L192.45949999999993 249.55449999999985L197.8774999999996 246.21669999999995L203.09399999999982 252.88264999999967L208.74899999999968 255.9377999999998L208.3974999999998 262.3861999999997L211.16799999999955 261.95314999999994L223.0944999999997 254.87194999999986L221.83349999999962 253.2389999999998L226.15499999999997 248.94274999999993L223.476 239.01254999999992L224.46249999999964 237.19344999999976L227.49449999999968 229.24499999999966L222.0134999999999 220.13959999999997L229.57449999999994 216.68470000000013L237.90249999999958 215.39049999999975L250.1819999999998 201.15785000000017L259.9124999999998 209.07764999999984L270.2669999999995 211.43624999999986L271.2809999999996 213.31759999999974L269.2049999999995 217.0383499999997L269.5479999999998 221.29525L273.3974999999998 226.26674999999977L278.70199999999954 225.05854999999997L283.1714999999997 223.8515000000001L287.8054999999995 227.64054999999985L290.45049999999947 233.35525000000018L289.80399999999975 239.64555000000018L285.5329999999998 244.3124499999999L284.9894999999998 250.50155000000018L292.4689999999998 263.4462500000001L295.4609999999997 266.13249999999994L307.98449999999946 258.16485L319.9499999999995 259.6488499999998L322.3219999999998 253.78620000000012L320.6264999999996 241.3814500000001L324.42849999999964 241.20169999999973L331.6369999999995 236.89210000000003L325.21699999999953 228.2179500000001L337.9699999999997 221.28964999999994L337.6649999999995 217.06500000000005L339.1839999999996 215.57909999999993L342.47499999999945 211.23400000000004L345.96199999999953 209.0447499999999L352.90549999999996 213.01105000000007L357.8465 219.57195000000013L358.519 225.45365000000004L370.22149999999954 221.60230000000013L371.3364999999999 217.53465000000006L369.45299999999975 209.2321499999997L372.1759999999995 205.95674999999972L374.15599999999984 206.71944999999994L375.9224999999998 205.68429999999978L373.1484999999998 200.4838000000001L373.8214999999997 198.54524999999967L380.45199999999966 190.94089999999994L386.3469999999995 185.49030000000016L386.26449999999977 183.45649999999978L381.5715 179.71835L374.1524999999996 182.8118999999998L362.5879999999995 177.72895000000005L364.16049999999984 177.13075000000003L364.03399999999976 172.09789999999998z">
      <title id="t439">Troisième circonscription des Deux-Sèvres</title>
      <desc id="d439">Cantons de : Airvault, Argenton-Château, Bressuire, Cerizay, Mauléon, Moncoutant, Saint-Loup-Lamairé, Saint-Varent, Thouars I, Thouars II</desc>
    </path></svg>