<svg xmlns="http://www.w3.org/2000/svg" version="1.1" xmlns:xlink="http://www.w3.org/1999/xlink" xmlns:svgjs="http://svgjs.dev/svgjs" width="774.8040000000003" height="524.8454000000002" fill="#eeeeee" stroke="#cccccc" xmlns:sodipodi="http://sodipodi.sourceforge.net/DTD/sodipodi-0.dtd"><path class="circo" id="id-080-01" d="M174.79600000000005 148.07125000000013L162.37750000000005 150.84325000000007L158.94200000000012 152.55335000000002L158.87200000000007 154.53795000000014L155.7420000000002 153.0149L159.01850000000024 155.91105L154.00950000000023 159.84915L156.19600000000048 168.18510000000003L155.80250000000035 172.57225000000005L153.6005 172.58350000000007L157.17150000000004 184.50000000000017L160.91800000000035 183.8694000000001L163.86850000000038 186.26265000000018L171.57550000000015 190.47380000000004L180.2705000000003 184.05220000000014L180.57650000000024 190.20489999999995L177.13850000000036 195.0698L183.04300000000012 197.5973000000002L183.43850000000032 201.8195L188.9345000000003 204.5199500000001L191.3590000000005 208.05745000000002L189.15750000000003 211.5324000000001L190.32500000000027 217.50175000000013L194.16950000000043 214.9302L203.2725000000005 213.51855L209.19500000000028 207.29160000000007L213.21950000000015 205.09389999999996L217.55150000000015 206.16825000000006L219.29200000000037 207.24395000000015L218.0540000000002 211.1379500000001L220.95799999999997 214.07515000000018L229.21500000000037 216.19020000000006L229.78650000000016 210.29075000000006L233.66250000000036 211.92025L238.85800000000017 215.19090000000006L249.06450000000007 216.88635000000005L246.47700000000043 220.2729500000001L252.59400000000028 229.01115000000004L257.11900000000014 225.16764999999992L263.24900000000014 224.40550000000002L266.3805000000002 227.4559500000001L263.50400000000036 241.7747L267.05750000000023 253.55885L265.0985000000003 254.10020000000003L264.23050000000046 258.9738L267.53600000000006 261.4968999999999L270.4095000000001 269.3431000000001L272.0345000000003 274.8591000000002L267.7890000000002 279.3861000000001L269.0070000000003 287.3738L286.2220000000002 285.06805000000014L287.0445000000001 289.0502000000001L286.18700000000047 298.46059999999994L297.8585000000004 302.4846500000001L307.047 307.7382L309.59100000000035 306.33925000000005L318.8500000000005 296.22164999999995L322.95050000000003 294.82484999999997L325.4200000000003 298.4328500000001L323.69700000000023 304.75420000000014L327.8180000000003 308.62764999999996L329.0450000000004 312.2658000000001L334.1035000000005 314.96215000000007L330.8555000000001 322.45750000000015L343.20250000000044 324.5198500000001L346.1255 323.80889999999994L348.13350000000014 317.24594999999994L344.51300000000003 319.2209L343.5650000000004 313.2211000000001L347.71150000000034 312.96580000000006L347.17300000000023 307.0493000000002L353.4065000000004 306.1446000000001L355.83650000000034 291.21375L358.05750000000046 292.1347L371.8990000000002 296.2467000000001L381.36300000000006 300.56725L384.01400000000024 305.1080999999999L386.65549999999996 309.1828000000001L388.8515000000001 309.8704000000001L389.4025000000005 307.7336500000001L391.2465000000003 307.4678L392.278 302.15485L397.53600000000006 302.2708L398.5260000000005 300.70865L399.68950000000007 304.09025000000014L405.4150000000004 301.4765L405.63900000000046 295.1863L404.0550000000002 293.86764999999997L407.9570000000001 290.3977499999999L414.20450000000017 292.7421000000001L417.9385000000002 295.2856L413.1850000000003 305.4451L405.8680000000004 310.6157000000002L404.2605000000003 314.8255500000002L402.65000000000043 316.70015000000006L400.2015 315.4501000000002L397.8810000000004 319.0881999999999L400.2290000000005 322.2L398.57550000000003 324.10245000000003L399.15350000000046 326.65875L403.59200000000044 325.37425000000013L405.2305000000001 328.0033500000002L405.9295000000003 327.90565000000015L409.30200000000013 333.2399000000001L410.98000000000013 332.55345000000005L411.3835 333.6487500000001L416.5235000000001 332.2971000000001L417.371 330.4898L421.1715000000004 331.5138000000002L423.30150000000003 328.1733L417.65600000000006 320.3620000000001L426.05350000000044 318.94385L424.5060000000001 315.2880000000002L429.32200000000023 298.36160000000007L428.39500000000044 294.73375000000004L427.3725000000002 294.7951499999999L426.68800000000033 292.65360000000015L431.0200000000003 287.6445000000001L431.4240000000001 280.97970000000004L429.26950000000033 274.62395000000015L428.42550000000017 272.58939999999996L424.62450000000047 270.8863500000001L413.929 281.49215L403.48450000000014 283.21709999999996L405.20500000000027 279.6191999999999L398.5110000000003 271.0376500000001L401.7135000000002 262.8317000000001L399.9260000000004 261.5055000000001L400.94150000000013 254.93695000000002L404.54750000000047 253.57605000000007L402.063 250.36750000000012L397.6850000000002 251.50380000000013L397.9475000000002 253.79880000000014L394.307 256.57939999999996L392.82399999999996 260.96165000000013L392.5890000000004 267.87904999999995L381.0385000000002 275.2105L379.5530000000002 269.42105L368.77650000000017 270.69739999999996L365.7715000000002 273.86494999999996L360.5490000000003 271.0680500000001L358.5835000000003 265.5857500000002L349.9365 267.40470000000016L348.68899999999996 269.25725L345.28250000000014 269.46995000000015L342.56050000000016 263.8063500000001L342.8965000000005 259.59435000000013L337.9395000000005 252.5872000000001L344.8810000000003 258.01885L349.2715000000004 258.37175L353.0205000000001 256.1729500000001L354.3035000000003 250.65570000000008L356.1165 250.0977500000002L359.2085000000003 246.62245000000013L358.3895000000001 237.37725000000012L361.55700000000024 228.6486500000001L363.9255000000003 226.05279999999993L367.5380000000001 226.4278999999999L372.9340000000002 226.84005000000013L379.34600000000046 228.7763000000001L390.25350000000003 226.72825000000017L393.3820000000003 226.04685000000018L390.8375000000001 220.37090000000006L396.4155000000005 211.61975000000012L402.52200000000016 209.58715000000012L402.03550000000007 205.3997000000001L409.8905000000002 198.07864999999993L405.76250000000016 188.81670000000014L400.74700000000007 196.1518000000001L396.62149999999997 197.75225000000006L395.2845000000002 198.85205000000013L392.7995000000004 195.48959999999994L388.8710000000003 196.55969999999996L384.47850000000017 195.49890000000005L382.18150000000037 182.27220000000017L368.67200000000025 180.53055L366.93399999999997 179.36319999999995L368.21799999999996 177.70219999999995L361.875 178.38265000000007L357.84550000000024 176.57714999999996L354.23550000000034 170.97714999999994L347.65750000000025 171.39465L347.82100000000014 175.82709999999992L344.821 181.94495000000018L339.1595000000001 176.16039999999998L334.97550000000047 175.55544999999995L333.304 169.5503500000001L326.94150000000036 175.12339999999995L325.2415000000002 171.03550000000013L327.5875000000002 167.32545000000016L321.472 168.2672500000001L320.8925000000005 164.15395000000018L322.312 160.39405000000016L320.22050000000036 156.46334999999993L313.91800000000046 154.68710000000016L304.7800000000001 161.01320000000015L298.9300000000003 161.8961999999999L296.6485 156.0940500000001L297.534 154.6606L295.2720000000005 149.11245000000008L291.25400000000013 150.38700000000006L295.29300000000035 140.2308500000001L293.6605000000003 133.7679L288.76450000000034 130.29240000000016L284.81300000000033 130.8225999999999L283.8315 122.8544500000001L268.6680000000001 132.35000000000014L267.7165000000002 132.77334999999994L263.59500000000025 134.40484999999995L257.1100000000001 132.8012000000001L253.32600000000014 135.22154999999998L250.61350000000004 131.80724999999995L250.14400000000023 134.05384999999995L241.47400000000005 136.2897000000001L240.7665000000003 138.4736000000001L236.32550000000037 141.80425000000014L234.09400000000005 152.09120000000013L229.95750000000044 156.6616000000002L225.76400000000035 155.7307L225.856 151.5845999999999L222.32550000000003 149.72184999999996L218.80800000000022 144.51179999999994L216.7470000000003 144.93425000000002L213.57950000000017 140.21890000000013L215.60000000000002 136.91924999999998L200.99050000000034 136.15235000000013L200.04950000000008 131.9174000000001L197.93300000000045 131.44765000000007L197.78350000000046 136.66979999999995L198.68550000000027 138.6527000000001L194.9195000000003 143.97985000000006L193.39400000000012 151.6980000000001L188.87850000000014 152.40285L183.64450000000033 148.33585L181.4115000000004 142.84764999999993L176.03949999999998 141.95880000000017L174.79600000000005 148.07125000000013z">
      <title id="t440">Première circonscription de la Somme</title>
      <desc id="d440">Cantons de : Abbeville Nord, Abbeville Sud, Ailly-le-Haut-Clocher, Amiens II Nord-Ouest, Amiens IV Est, Amiens VIII Nord, Domart-en-Ponthieu, Picquigny</desc>
    </path><path class="circo" id="id-080-02" d="M347.17300000000023 307.0493000000002L347.71150000000034 312.96580000000006L343.5650000000004 313.2211000000001L344.51300000000003 319.2209L348.13350000000014 317.24594999999994L346.1255 323.80889999999994L343.20250000000044 324.5198500000001L344.8905000000002 327.8205L342.5155000000001 330.68235000000016L342.28350000000034 334.5533499999999L347.68850000000043 336.90235L341.2695000000002 347.31415L341.9010000000003 350.1610500000001L350.7375000000002 348.79760000000005L361.0140000000001 353.40835L362.04949999999997 357.3227L366.4715000000001 359.84260000000006L368.2315 363.71995L372.0410000000004 365.91530000000006L370.43450000000007 374.5154500000001L368.2230000000004 374.6373L364.3980000000005 379.9099000000001L362.24649999999997 379.4102000000001L363.1650000000002 390.8512999999999L365.02200000000016 394.49915000000004L375.376 392.5914L382.51149999999996 384.2462499999999L384.5210000000003 384.09745000000015L391.49550000000033 393.7983L398.0215000000004 391.66015000000016L405.7480000000004 393.9766500000002L409.8425000000003 392.8717500000002L415.9745000000004 397.93605000000014L421.3420000000002 393.0974499999999L422.8565000000003 396.6680500000001L430.9060000000005 396.9661500000001L433.981 394.2701500000001L435.60400000000016 388.2384000000002L441.2360000000001 387.43934999999993L442.8385000000003 384.02109999999993L444.4825000000003 386.20914999999997L446.1760000000004 382.2457L454.4795000000005 375.33064999999993L454.15999999999997 370.1738500000002L456.1280000000005 368.01240000000007L455.92150000000004 361.19045L458.11300000000017 354.58185000000014L460.51450000000045 351.8243000000001L464.3675000000002 348.8200499999999L468.54750000000024 344.3397999999999L472.9060000000004 343.4948L475.2525000000003 341.0692L475.0595000000004 336.7414500000001L471.2450000000001 335.0306499999999L469.6565000000004 326.9197L466.20750000000044 328.91515L457.38350000000025 329.15255L455.8355 318.0302499999999L451.9100000000003 320.30400000000014L447.5215000000003 318.9366000000001L438.5070000000002 318.54085L435.6635 319.16020000000003L426.05350000000044 318.94385L417.65600000000006 320.3620000000001L423.30150000000003 328.1733L421.1715000000004 331.5138000000002L417.371 330.4898L416.5235000000001 332.2971000000001L411.3835 333.6487500000001L410.98000000000013 332.55345000000005L409.30200000000013 333.2399000000001L408.3715000000001 331.53700000000015L405.9295000000003 327.90565000000015L405.2305000000001 328.0033500000002L403.59200000000044 325.37425000000013L399.15350000000046 326.65875L398.57550000000003 324.10245000000003L400.2290000000005 322.2L397.8810000000004 319.0881999999999L400.2015 315.4501000000002L402.65000000000043 316.70015000000006L404.2605000000003 314.8255500000002L405.8680000000004 310.6157000000002L413.1850000000003 305.4451L417.9385000000002 295.2856L414.20450000000017 292.7421000000001L407.9570000000001 290.3977499999999L404.0550000000002 293.86764999999997L405.63900000000046 295.1863L405.4150000000004 301.4765L399.68950000000007 304.09025000000014L398.5260000000005 300.70865L397.53600000000006 302.2708L392.278 302.15485L391.2465000000003 307.4678L389.4025000000005 307.7336500000001L388.8515000000001 309.8704000000001L386.65549999999996 309.1828000000001L381.36300000000006 300.56725L371.8990000000002 296.2467000000001L358.05750000000046 292.1347L355.83650000000034 291.21375L353.4065000000004 306.1446000000001L347.17300000000023 307.0493000000002z">
      <title id="t441">Deuxième circonscription de la Somme</title>
      <desc id="d441">Cantons de : Amiens I Ouest, Amiens III Nord-Est, Amiens V Sud-Est, Amiens VI Sud, Amiens VII Sud-Ouest, Boves</desc>
    </path><path class="circo" id="id-080-03" d="M17.70150000000001 183.98930000000007L16.11350000000016 184.98490000000004L5.488500000000158 193.01225000000017L0 199.9293L12.561500000000478 205.18654999999995L18.033000000000357 197.04110000000014L22.216000000000236 195.6015500000001L28.68250000000046 196.85370000000006L31.289500000000317 200.34705000000002L33.76350000000002 201.59510000000012L30.835500000000025 214.7224L33.413000000000466 218.30974999999995L39.74199999999996 220.66535000000016L45.31300000000044 227.73709999999994L48.19050000000004 230.74219999999997L50.175500000000284 230.09265L57.28150000000028 234.5804000000001L61.852499999999964 243.63730000000004L62.58100000000013 245.20960000000002L77.16949999999997 257.26805000000013L82.74350000000027 260.3609500000002L84.26850000000002 266.8332000000001L87.74500000000046 269.5604500000002L91.94850000000031 277.31885000000005L97.22149999999999 281.39640000000014L104.06500000000051 286.37215L113.91350000000045 290.1409000000001L126.97100000000034 297.03024999999997L127.05399999999997 300.26645L128.8760000000002 301.02475L132.5815 309.8325L134.86300000000028 313.39860000000016L138.75500000000045 314.64415L141.26800000000003 317.9696000000001L141.1510000000004 326.03665000000007L144.08900000000017 331.61734999999993L144.64600000000019 334.27970000000016L144.28600000000017 343.04595000000006L147.2750000000002 348.59925000000004L162.57300000000043 344.00300000000016L162.01600000000042 341.9920000000002L168.93349999999998 337.52465L170.3570000000002 337.51475L176.91700000000026 329.2270500000001L174.32200000000023 326.42905000000013L178.2815000000005 326.10725L179.78750000000048 319.8152000000002L183.519 317.61930000000007L183.9300000000003 317.43525000000005L188.49450000000047 322.3565500000001L190.23400000000038 323.7053500000002L195.83799999999997 320.2030500000001L197.17150000000004 324.1241500000001L199.17750000000012 324.71705000000014L216.93200000000047 312.00455000000005L216.12700000000018 310.20200000000017L223.38700000000017 297.89890000000014L229.64200000000005 292.61795000000006L230.57800000000043 296.6196500000001L235.32350000000008 304.2751000000001L229.49150000000031 307.56200000000007L227.42950000000008 316.30394999999993L227.19700000000046 317.01835000000017L234.51850000000036 316.4853500000001L237.47250000000008 313.7904500000002L239.09550000000024 305.61139999999995L242.36950000000036 300.2024L243.89049999999997 301.6405500000002L244.68950000000007 313.80629999999996L241.00950000000012 323.2898500000002L246.3435000000004 326.7443L252.61400000000037 325.9865500000001L255.4735000000005 331.9509500000001L254.24950000000024 335.96485L258.13950000000034 338.08234999999996L256.1900000000003 344.4980000000001L247.89300000000026 351.67599999999993L251.96900000000028 350.93535L255.60249999999996 355.71905000000015L263.793 354.0989000000002L267.94050000000027 358.11920000000015L274.18450000000007 351.78410000000014L276.3185000000004 352.52735L277.3965000000004 358.59354999999994L280.69150000000036 361.15160000000003L284.37250000000006 359.01714999999996L286.653 362.15090000000004L286.0455000000002 364.1698500000001L289.44800000000043 366.4435500000002L291.1790000000002 374.58200000000005L284.6085000000005 380.1449500000001L288.827 379.23640000000006L291.92949999999996 382.19300000000004L296.9345000000004 378.44235L295.72450000000003 371.8070500000002L300.6890000000004 364.2870500000001L306.92150000000026 361.77144999999996L312.1905000000004 357.92945000000003L315.8405000000005 360.26820000000015L321.8275 357.7634499999999L330.9250000000003 359.57054999999997L334.2850000000004 354.12454999999994L341.9010000000003 350.1610500000001L341.2695000000002 347.31415L347.68850000000043 336.90235L342.28350000000034 334.5533499999999L342.5155000000001 330.68235000000016L344.8905000000002 327.8205L343.20250000000044 324.5198500000001L330.8555000000001 322.45750000000015L334.1035000000005 314.96215000000007L329.0450000000004 312.2658000000001L327.8180000000003 308.62764999999996L323.69700000000023 304.75420000000014L325.4200000000003 298.4328500000001L322.95050000000003 294.82484999999997L318.8500000000005 296.22164999999995L309.59100000000035 306.33925000000005L307.047 307.7382L297.8585000000004 302.4846500000001L286.18700000000047 298.46059999999994L287.0445000000001 289.0502000000001L286.2220000000002 285.06805000000014L269.0070000000003 287.3738L267.7890000000002 279.3861000000001L272.0345000000003 274.8591000000002L270.4095000000001 269.3431000000001L267.53600000000006 261.4968999999999L264.23050000000046 258.9738L265.0985000000003 254.10020000000003L267.05750000000023 253.55885L263.50400000000036 241.7747L266.3805000000002 227.4559500000001L263.24900000000014 224.40550000000002L257.11900000000014 225.16764999999992L252.59400000000028 229.01115000000004L246.47700000000043 220.2729500000001L249.06450000000007 216.88635000000005L238.85800000000017 215.19090000000006L233.66250000000036 211.92025L229.78650000000016 210.29075000000006L229.21500000000037 216.19020000000006L220.95799999999997 214.07515000000018L218.0540000000002 211.1379500000001L219.29200000000037 207.24395000000015L217.55150000000015 206.16825000000006L213.21950000000015 205.09389999999996L209.19500000000028 207.29160000000007L203.2725000000005 213.51855L194.16950000000043 214.9302L190.32500000000027 217.50175000000013L189.15750000000003 211.5324000000001L191.3590000000005 208.05745000000002L188.9345000000003 204.5199500000001L183.43850000000032 201.8195L183.04300000000012 197.5973000000002L177.13850000000036 195.0698L180.57650000000024 190.20489999999995L180.2705000000003 184.05220000000014L171.57550000000015 190.47380000000004L163.86850000000038 186.26265000000018L160.91800000000035 183.8694000000001L157.17150000000004 184.50000000000017L153.6005 172.58350000000007L155.80250000000035 172.57225000000005L156.19600000000048 168.18510000000003L154.00950000000023 159.84915L159.01850000000024 155.91105L155.7420000000002 153.0149L158.87200000000007 154.53795000000014L158.94200000000012 152.55335000000002L162.37750000000005 150.84325000000007L174.79600000000005 148.07125000000013L176.03949999999998 141.95880000000017L181.4115000000004 142.84764999999993L183.64450000000033 148.33585L188.87850000000014 152.40285L193.39400000000012 151.6980000000001L194.9195000000003 143.97985000000006L198.68550000000027 138.6527000000001L197.78350000000046 136.66979999999995L197.93300000000045 131.44765000000007L200.04950000000008 131.9174000000001L200.99050000000034 136.15235000000013L215.60000000000002 136.91924999999998L213.57950000000017 140.21890000000013L216.7470000000003 144.93425000000002L218.80800000000022 144.51179999999994L222.32550000000003 149.72184999999996L225.856 151.5845999999999L225.76400000000035 155.7307L229.95750000000044 156.6616000000002L234.09400000000005 152.09120000000013L236.32550000000037 141.80425000000014L240.7665000000003 138.4736000000001L241.47400000000005 136.2897000000001L250.14400000000023 134.05384999999995L250.61350000000004 131.80724999999995L253.32600000000014 135.22154999999998L257.1100000000001 132.8012000000001L263.59500000000025 134.40484999999995L267.7165000000002 132.77334999999994L268.6680000000001 132.35000000000014L283.8315 122.8544500000001L284.81300000000033 130.8225999999999L288.76450000000034 130.29240000000016L293.6605000000003 133.7679L295.29300000000035 140.2308500000001L291.25400000000013 150.38700000000006L295.2720000000005 149.11245000000008L297.534 154.6606L299.79100000000017 154.71165000000013L308.6035000000004 147.82720000000012L307.2935000000001 138.13795L303.8680000000005 132.63599999999997L307.60350000000017 120.89445000000012L303.5160000000002 122.14560000000006L301.50800000000004 121.69160000000005L297.9105000000004 114.42489999999992L300.0625000000002 109.75480000000005L299.16650000000004 99.1619L292.74050000000045 92.43745000000018L292.5105000000002 88.52620000000002L290.7555000000002 87.54414999999995L291.0525000000001 83.47750000000019L296.7080000000004 78.05775000000011L291.0060000000004 73.47534999999993L284.3175000000002 72.71355L279.6870000000001 67.86845L274.78350000000034 64.21549999999996L268.6695000000003 65.27070000000009L265.0055000000003 63.66289999999992L261.1375000000004 60.11719999999997L250.77050000000042 55.63530000000014L246.5790000000004 50.29065000000003L242.1075000000002 53.14570000000003L240.53250000000048 52.115300000000104L235.7770000000005 44.39549999999997L246.45250000000033 36.11475000000013L248.30450000000042 31.948300000000103L245.86900000000014 26.696850000000012L240.7650000000001 23.00449999999998L236.7530000000005 24.792150000000106L229.418 35.53709999999995L220.6570000000005 35.09050000000002L219.9965000000003 31.741300000000052L218.2815000000005 31.873100000000107L213.8655 31.875750000000096L210.6570000000005 28.837050000000062L208.0120000000005 21.019700000000086L200.78750000000014 16.62815000000009L200.6030000000004 15.39945000000003L191.66300000000035 13.312250000000034L187.94150000000002 10.484950000000026L180.61900000000037 4.279250000000019L175.21000000000015 4.373850000000061L162.41600000000005 2.9455000000000098L159.52850000000012 5.982000000000056L153.27400000000011 7.6667000000000485L148.9020000000005 12.126750000000044L133.93500000000017 18.08250000000001L132.95450000000017 15.401450000000096L126.46000000000015 21.45380000000003L120.10100000000023 23.02580000000006L120.96050000000048 20.97840000000005L115.57050000000004 17.464550000000116L113.3910000000003 17.286750000000097L111.28500000000031 9.244050000000072L110.52500000000009 9.442549999999983L104.70250000000021 3.8788999999999874L104.86750000000029 0L99.28600000000017 3.8962000000000785L94.66700000000003 4.139350000000093L81.27300000000048 4.762900000000059L82.6950000000005 1.8655499999999847L75.1905000000005 1.924150000000111L71.02100000000007 25.36005000000003L68.97100000000023 40.63935000000015L67.43449999999996 57.12645000000009L72.43950000000041 70.23725000000013L78.73900000000049 73.20215000000019L90.32500000000027 72.92165000000011L91.55349999999999 81.76360000000017L100.86500000000001 97.57769999999994L104.16750000000036 100.71145000000001L110.47350000000051 99.01510000000002L119.74950000000035 101.25405L123.37750000000028 106.87635L124.6995000000004 115.51234999999991L129.24400000000048 121.69560000000018L125.50000000000011 126.74155000000013L121.6595000000001 125.26894999999996L105.32399999999996 117.66915000000012L98.43650000000025 116.83539999999994L92.04050000000052 119.60810000000009L89.91300000000024 118.67414999999994L82.67800000000022 113.07455000000004L76.36099999999999 103.14085000000006L78.17250000000001 101.69440000000009L77.30150000000037 99.58695000000006L70.57050000000004 101.04084999999998L53.486500000000206 112.70409999999998L43.94300000000044 128.57110000000006L37.54500000000007 150.85385000000002L31.47100000000023 170.14614999999992L17.70150000000001 183.98930000000007z">
      <title id="t442">Troisième circonscription de la Somme</title>
      <desc id="d442">Cantons de : Ault, Crécy-en-Ponthieu, Friville-Escarbotin, Gamaches, Hallencourt, Molliens-Dreuil, Moyenneville, Nouvion, Oisemont, Rue, Saint-Valéry-sur-Somme</desc>
    </path><path class="circo" id="id-080-04" d="M415.9745000000004 397.93605000000014L409.8425000000003 392.8717500000002L405.7480000000004 393.9766500000002L398.0215000000004 391.66015000000016L391.49550000000033 393.7983L384.5210000000003 384.09745000000015L382.51149999999996 384.2462499999999L375.376 392.5914L365.02200000000016 394.49915000000004L363.1650000000002 390.8512999999999L362.24649999999997 379.4102000000001L364.3980000000005 379.9099000000001L368.2230000000004 374.6373L370.43450000000007 374.5154500000001L372.0410000000004 365.91530000000006L368.2315 363.71995L366.4715000000001 359.84260000000006L362.04949999999997 357.3227L361.0140000000001 353.40835L350.7375000000002 348.79760000000005L341.9010000000003 350.1610500000001L334.2850000000004 354.12454999999994L330.9250000000003 359.57054999999997L321.8275 357.7634499999999L315.8405000000005 360.26820000000015L312.1905000000004 357.92945000000003L306.92150000000026 361.77144999999996L300.6890000000004 364.2870500000001L295.72450000000003 371.8070500000002L296.9345000000004 378.44235L291.92949999999996 382.19300000000004L288.827 379.23640000000006L284.6085000000005 380.1449500000001L291.1790000000002 374.58200000000005L289.44800000000043 366.4435500000002L286.0455000000002 364.1698500000001L286.653 362.15090000000004L284.37250000000006 359.01714999999996L280.69150000000036 361.15160000000003L277.3965000000004 358.59354999999994L276.3185000000004 352.52735L274.18450000000007 351.78410000000014L267.94050000000027 358.11920000000015L263.793 354.0989000000002L255.60249999999996 355.71905000000015L251.96900000000028 350.93535L247.89300000000026 351.67599999999993L256.1900000000003 344.4980000000001L258.13950000000034 338.08234999999996L254.24950000000024 335.96485L255.4735000000005 331.9509500000001L252.61400000000037 325.9865500000001L246.3435000000004 326.7443L241.00950000000012 323.2898500000002L244.68950000000007 313.80629999999996L243.89049999999997 301.6405500000002L242.36950000000036 300.2024L239.09550000000024 305.61139999999995L237.47250000000008 313.7904500000002L234.51850000000036 316.4853500000001L227.19700000000046 317.01835000000017L227.42950000000008 316.30394999999993L229.49150000000031 307.56200000000007L235.32350000000008 304.2751000000001L230.57800000000043 296.6196500000001L229.64200000000005 292.61795000000006L223.38700000000017 297.89890000000014L216.12700000000018 310.20200000000017L216.93200000000047 312.00455000000005L199.17750000000012 324.71705000000014L197.17150000000004 324.1241500000001L195.83799999999997 320.2030500000001L190.23400000000038 323.7053500000002L188.49450000000047 322.3565500000001L183.9300000000003 317.43525000000005L183.519 317.61930000000007L179.78750000000048 319.8152000000002L178.2815000000005 326.10725L174.32200000000023 326.42905000000013L176.91700000000026 329.2270500000001L170.3570000000002 337.51475L168.93349999999998 337.52465L162.01600000000042 341.9920000000002L162.57300000000043 344.00300000000016L147.2750000000002 348.59925000000004L150.51750000000027 366.0220000000001L154.99450000000024 372.56040000000013L158.53499999999997 380.0824L161.31100000000004 387.8171499999999L167.4445000000003 390.47685L170.5250000000001 396.3542000000001L172.18950000000007 402.6192499999999L175.33500000000004 403.9955499999999L174.60550000000012 405.6145000000001L178.596 406.7887000000002L182.71150000000034 405.2902L187.32450000000028 415.02015L194.1545000000002 414.23294999999996L195.91250000000002 418.39034999999996L194.93000000000052 420.49645L187.36800000000017 425.86735000000004L188.11050000000023 427.8415000000001L192.2965000000005 428.09195000000017L195.46400000000006 430.7916500000002L194.7645 434.9186500000002L199.4500000000005 439.6162000000001L205.6065000000001 438.1626L213.07600000000036 442.09415000000007L218.9050000000003 440.8252999999999L227.80750000000012 431.7309500000002L235.18500000000017 427.62519999999995L241.9965000000002 440.1662000000002L251.50750000000016 427.5851L254.14900000000046 433.23285L260.6265000000002 434.08855000000017L264.409 431.89660000000003L269.61100000000044 435.3038000000001L275.7330000000002 433.65084999999993L275.8820000000003 433.76720000000006L278.0895000000004 433.7100000000001L279.75850000000037 437.80575L288.6470000000003 443.91025000000013L288.71500000000026 448.16630000000004L284.3345000000005 448.57294999999993L285.28250000000014 449.6003999999999L291.8375000000003 450.86825000000005L299.0205000000003 445.9194500000001L300.91350000000034 447.18414999999993L304.0300000000002 445.33600000000007L310.78750000000014 444.7335000000001L316.352 448.54995L322.3645000000005 446.5705L326.1960000000005 441.55204999999995L329.7580000000005 439.3172000000001L344.4550000000004 438.14089999999993L345.2505000000002 438.7882000000002L350.93150000000037 441.5881999999999L361.22450000000015 439.2482000000001L362.43250000000046 439.3251000000001L368.68250000000046 439.6128999999999L370.66100000000006 442.7472500000002L374.2500000000001 443.71115000000003L384.44000000000017 447.5073499999999L387.13250000000016 451.03115L393.5395 452.0303000000001L397.3445000000004 449.61815L397.73150000000044 447.38910000000004L404.86199999999997 453.1778L406.1080000000004 459.2754500000001L412.4865 464.93465000000015L414.51700000000017 464.28065000000004L417.5155000000001 462.5392500000001L422.5490000000002 469.5667L428.9270000000005 469.6409L434.56350000000043 466.62405000000007L438.8960000000003 466.15460000000013L453.0125000000004 471.5742500000002L454.53400000000045 475.4157000000001L456.11950000000036 479.3446500000002L457.7585000000005 483.3020000000002L461.50300000000016 481.4133000000001L464.8195000000004 483.16550000000007L462.0335 488.59735L466.841 492.69855000000007L478.47950000000026 480.27005L478.59350000000006 482.53420000000006L485.20500000000027 488.62555000000015L487.44100000000003 487.02L495.89950000000044 495.74895L504.38900000000046 493.84985L503.9405000000005 497.85525000000007L501.2835000000001 500.9465L506.5835000000004 508.2488000000001L510.8175 506.78195000000017L513.3525000000003 501.47054999999995L516.8990000000002 499.70754999999997L515.5280000000005 498.25275000000005L521.3480000000004 500.88750000000005L525.2105 498.71714999999995L529.6680000000003 499.1553000000002L530.2180000000004 499.81314999999995L529.0160000000003 501.6575L531.7115000000001 507.47900000000016L530.453 515.9696500000001L532.2160000000002 520.0260500000002L539.7330000000005 524.8454000000002L548.698 518.51575L548.0485000000004 506.3930500000001L550.1340000000005 506.3196500000001L550.0575000000003 504.77000000000004L555.8765 494.69085000000007L556.438 489.5067500000002L560.4170000000005 489.11370000000005L562.0045000000005 490.6582L566.3640000000004 489.95814999999993L569.8125000000005 492.52205000000004L571.8560000000002 490.11560000000003L575.3185000000002 479.60125000000005L572.6400000000001 473.7418500000001L568.4495000000004 471.3793000000001L568.0065000000002 461.00915000000015L564.7340000000003 460.80295000000007L562.4915000000004 457.4766500000001L563.5650000000004 451.84830000000005L559.9385000000001 450.12069999999994L558.1060000000002 446.65065L559.9115 441.4955499999999L565.4420000000005 441.9653500000001L574.6555000000001 426.14085000000017L565.4860000000002 420.3544500000001L562.3395000000005 418.55275000000006L559.144 416.5142500000002L555.6415000000004 418.80920000000003L549.4990000000001 416.54120000000006L545.5950000000001 418.50150000000014L543.8455000000005 417.1856500000001L545.0920000000002 411.02935L542.5370000000004 407.57675000000006L543.7080000000003 405.7691L536.9760000000002 401.63174999999995L539.6070000000003 392.7638000000002L537.4950000000001 392.5782000000001L538.5945000000004 379.85855000000015L532.543 377.43105000000014L528.143 372.56564999999995L526.0095000000001 362.14365000000015L527.6670000000001 358.1461999999999L524.4795000000005 358.0731L527.4090000000001 344.94024999999993L525.9550000000002 340.9801999999999L521.3365000000005 338.61635000000007L523.485 323.86165000000005L518.0290000000002 317.46560000000017L517.2925000000004 307.56005000000016L520.4325 306.4771999999999L514.3535000000003 302.63115L507.7030000000002 297.28305000000006L503.62900000000025 297.28700000000003L502.62500000000045 296.45070000000004L506.0525000000001 293.88810000000007L506.918 287.62670000000014L509.5915000000002 284.4209000000001L499.0100000000001 286.62634999999995L492.3915000000005 285.64449999999994L488.159 283.14245L497.82849999999996 275.45090000000016L509.45550000000026 268.84694999999994L511.6825 269.1971000000001L509.53700000000026 255.28395000000017L503.9790000000005 250.10109999999997L504.0775000000002 247.48189999999994L508.90150000000006 241.4930000000001L508.9640000000003 235.47525000000007L502.9535000000004 234.90845000000007L504.1575 232.92365000000018L498.562 217.73075000000006L496.2805000000003 215.72895000000017L482.7630000000005 223.96355L476.59850000000006 226.5040000000002L474.7565000000003 221.0007999999999L471.7070000000001 218.67895000000004L465.88400000000036 226.34125000000012L455.23150000000044 227.44204999999994L449.18650000000014 221.42955L450.4235 231.21915L449.4240000000002 233.13330000000008L441.3650000000001 235.31255000000016L437.9400000000004 230.4373000000001L437.3325 225.99130000000002L430.9955000000002 223.34165000000013L428.0460000000005 219.81044999999995L429.7335000000004 216.47475000000014L426.0260000000005 210.82089999999994L426.33550000000014 204.07110000000017L422.30050000000006 199.21485000000018L423.5130000000004 197.29600000000005L438.89850000000024 194.31090000000012L438.9945 192.02020000000005L445.7370000000003 186.04604999999992L446.2425000000002 184.5848000000001L442.0705000000004 184.35955000000007L439.80350000000044 176.32605000000012L432.52850000000024 172.44699999999995L431.46500000000003 170.0030000000001L423.2080000000002 170.62129999999996L425.0495000000001 164.04060000000015L427.7355 150.61710000000005L430.20100000000014 146.82774999999992L429.2930000000001 139.97280000000018L433.1375000000003 139.33600000000013L435.02650000000017 133.79244999999997L439.81300000000033 134.20909999999992L439.9475000000001 128.2791500000002L442.5015000000002 127.26515000000006L450.77650000000006 123.36150000000004L455.2370000000002 124.68890000000016L465.04050000000007 117.96390000000002L469.9215000000004 116.17950000000008L474.307 114.04055L474.0365000000003 110.72755000000001L471.4330000000001 107.20235000000002L469.8505 105.2507L465.73350000000005 105.00365000000016L458.9680000000004 97.44554999999991L455.7665000000003 90.36259999999999L449.30150000000026 92.32315L441.03300000000047 91.63755000000009L436.61850000000015 87.64980000000008L429.1640000000001 93.98265000000009L427.20349999999996 93.55085000000003L426.1235000000005 93.11769999999996L419.9610000000001 105.10725000000008L417.37300000000005 105.73014999999998L406.71550000000025 87.18999999999994L405.11000000000024 84.47095000000019L397.41250000000036 87.56810000000002L398.0430000000001 89.57930000000005L399.9800000000005 88.61989999999992L404.44000000000017 96.0027500000001L402.66800000000046 101.73225000000002L400.9885000000003 97.97690000000017L398.95200000000045 97.71389999999997L391.8560000000002 101.82590000000005L387.17750000000024 98.09249999999992L378.11050000000023 92.06675000000018L371.3440000000003 100.67820000000012L361.7285000000004 103.37130000000002L358.30250000000035 104.55010000000016L359.0145000000001 98.90084999999999L348.596 100.3528L348.4185000000002 102.18585000000019L343.4235000000001 104.00225000000006L339.78700000000003 103.78375000000005L339.4965000000002 105.5874L337.2860000000003 105.19360000000006L327.2825 116.78359999999998L323.84299999999996 108.7960000000001L321.3035000000002 105.48445000000015L315.45450000000017 103.59845000000007L312.32200000000034 108.52975000000015L304.70550000000003 106.02834999999999L300.0625000000002 109.75480000000005L297.9105000000004 114.42489999999992L301.50800000000004 121.69160000000005L303.5160000000002 122.14560000000006L307.60350000000017 120.89445000000012L303.8680000000005 132.63599999999997L307.2935000000001 138.13795L308.6035000000004 147.82720000000012L299.79100000000017 154.71165000000013L297.534 154.6606L296.6485 156.0940500000001L298.9300000000003 161.8961999999999L304.7800000000001 161.01320000000015L313.91800000000046 154.68710000000016L320.22050000000036 156.46334999999993L322.312 160.39405000000016L320.8925000000005 164.15395000000018L321.472 168.2672500000001L327.5875000000002 167.32545000000016L325.2415000000002 171.03550000000013L326.94150000000036 175.12339999999995L333.304 169.5503500000001L334.97550000000047 175.55544999999995L339.1595000000001 176.16039999999998L344.821 181.94495000000018L347.82100000000014 175.82709999999992L347.65750000000025 171.39465L354.23550000000034 170.97714999999994L357.84550000000024 176.57714999999996L361.875 178.38265000000007L368.21799999999996 177.70219999999995L366.93399999999997 179.36319999999995L368.67200000000025 180.53055L382.18150000000037 182.27220000000017L384.47850000000017 195.49890000000005L388.8710000000003 196.55969999999996L392.7995000000004 195.48959999999994L395.2845000000002 198.85205000000013L396.62149999999997 197.75225000000006L400.74700000000007 196.1518000000001L405.76250000000016 188.81670000000014L409.8905000000002 198.07864999999993L402.03550000000007 205.3997000000001L402.52200000000016 209.58715000000012L396.4155000000005 211.61975000000012L390.8375000000001 220.37090000000006L393.3820000000003 226.04685000000018L390.25350000000003 226.72825000000017L379.34600000000046 228.7763000000001L372.9340000000002 226.84005000000013L367.5380000000001 226.4278999999999L363.9255000000003 226.05279999999993L361.55700000000024 228.6486500000001L358.3895000000001 237.37725000000012L359.2085000000003 246.62245000000013L356.1165 250.0977500000002L354.3035000000003 250.65570000000008L353.0205000000001 256.1729500000001L349.2715000000004 258.37175L344.8810000000003 258.01885L337.9395000000005 252.5872000000001L342.8965000000005 259.59435000000013L342.56050000000016 263.8063500000001L345.28250000000014 269.46995000000015L348.68899999999996 269.25725L349.9365 267.40470000000016L358.5835000000003 265.5857500000002L360.5490000000003 271.0680500000001L365.7715000000002 273.86494999999996L368.77650000000017 270.69739999999996L379.5530000000002 269.42105L381.0385000000002 275.2105L392.5890000000004 267.87904999999995L392.82399999999996 260.96165000000013L394.307 256.57939999999996L397.9475000000002 253.79880000000014L397.6850000000002 251.50380000000013L402.063 250.36750000000012L404.54750000000047 253.57605000000007L400.94150000000013 254.93695000000002L399.9260000000004 261.5055000000001L401.7135000000002 262.8317000000001L398.5110000000003 271.0376500000001L405.20500000000027 279.6191999999999L403.48450000000014 283.21709999999996L413.929 281.49215L424.62450000000047 270.8863500000001L428.42550000000017 272.58939999999996L429.26950000000033 274.62395000000015L431.4240000000001 280.97970000000004L431.0200000000003 287.6445000000001L426.68800000000033 292.65360000000015L427.3725000000002 294.7951499999999L428.39500000000044 294.73375000000004L429.32200000000023 298.36160000000007L424.5060000000001 315.2880000000002L426.05350000000044 318.94385L435.6635 319.16020000000003L438.5070000000002 318.54085L447.5215000000003 318.9366000000001L451.9100000000003 320.30400000000014L455.8355 318.0302499999999L457.38350000000025 329.15255L466.20750000000044 328.91515L469.6565000000004 326.9197L471.2450000000001 335.0306499999999L475.0595000000004 336.7414500000001L475.2525000000003 341.0692L472.9060000000004 343.4948L468.54750000000024 344.3397999999999L464.3675000000002 348.8200499999999L460.51450000000045 351.8243000000001L458.11300000000017 354.58185000000014L455.92150000000004 361.19045L456.1280000000005 368.01240000000007L454.15999999999997 370.1738500000002L454.4795000000005 375.33064999999993L446.1760000000004 382.2457L444.4825000000003 386.20914999999997L442.8385000000003 384.02109999999993L441.2360000000001 387.43934999999993L435.60400000000016 388.2384000000002L433.981 394.2701500000001L430.9060000000005 396.9661500000001L422.8565000000003 396.6680500000001L421.3420000000002 393.0974499999999L415.9745000000004 397.93605000000014z">
      <title id="t443">Quatrième circonscription de la Somme</title>
      <desc id="d443">Cantons de : Ailly-sur-Noye, Bernaville, Conty, Corbie, Doullens, Hornoy-le-Bourg, Montdidier, Moreuil, Poix-de-Picardie, Villers-Bocage</desc>
    </path><path class="circo" id="id-080-05" d="M463.13350000000014 154.45705000000004L457.03400000000045 156.0940500000001L454.8860000000002 160.58629999999994L453.24450000000013 165.19990000000007L446.2425000000002 184.5848000000001L445.7370000000003 186.04604999999992L438.9945 192.02020000000005L438.89850000000024 194.31090000000012L423.5130000000004 197.29600000000005L422.30050000000006 199.21485000000018L426.33550000000014 204.07110000000017L426.0260000000005 210.82089999999994L429.7335000000004 216.47475000000014L428.0460000000005 219.81044999999995L430.9955000000002 223.34165000000013L437.3325 225.99130000000002L437.9400000000004 230.4373000000001L441.3650000000001 235.31255000000016L449.4240000000002 233.13330000000008L450.4235 231.21915L449.18650000000014 221.42955L455.23150000000044 227.44204999999994L465.88400000000036 226.34125000000012L471.7070000000001 218.67895000000004L474.7565000000003 221.0007999999999L476.59850000000006 226.5040000000002L482.7630000000005 223.96355L496.2805000000003 215.72895000000017L498.562 217.73075000000006L504.1575 232.92365000000018L502.9535000000004 234.90845000000007L508.9640000000003 235.47525000000007L508.90150000000006 241.4930000000001L504.0775000000002 247.48189999999994L503.9790000000005 250.10109999999997L509.53700000000026 255.28395000000017L511.6825 269.1971000000001L509.45550000000026 268.84694999999994L497.82849999999996 275.45090000000016L488.159 283.14245L492.3915000000005 285.64449999999994L499.0100000000001 286.62634999999995L509.5915000000002 284.4209000000001L506.918 287.62670000000014L506.0525000000001 293.88810000000007L502.62500000000045 296.45070000000004L503.62900000000025 297.28700000000003L507.7030000000002 297.28305000000006L514.3535000000003 302.63115L520.4325 306.4771999999999L517.2925000000004 307.56005000000016L518.0290000000002 317.46560000000017L523.485 323.86165000000005L521.3365000000005 338.61635000000007L525.9550000000002 340.9801999999999L527.4090000000001 344.94024999999993L524.4795000000005 358.0731L527.6670000000001 358.1461999999999L526.0095000000001 362.14365000000015L528.143 372.56564999999995L532.543 377.43105000000014L538.5945000000004 379.85855000000015L537.4950000000001 392.5782000000001L539.6070000000003 392.7638000000002L536.9760000000002 401.63174999999995L543.7080000000003 405.7691L542.5370000000004 407.57675000000006L545.0920000000002 411.02935L543.8455000000005 417.1856500000001L545.5950000000001 418.50150000000014L549.4990000000001 416.54120000000006L555.6415000000004 418.80920000000003L559.144 416.5142500000002L562.3395000000005 418.55275000000006L565.4860000000002 420.3544500000001L574.6555000000001 426.14085000000017L565.4420000000005 441.9653500000001L559.9115 441.4955499999999L558.1060000000002 446.65065L559.9385000000001 450.12069999999994L563.5650000000004 451.84830000000005L562.4915000000004 457.4766500000001L564.7340000000003 460.80295000000007L568.0065000000002 461.00915000000015L568.4495000000004 471.3793000000001L572.6400000000001 473.7418500000001L575.3185000000002 479.60125000000005L571.8560000000002 490.11560000000003L579.9915000000004 489.80525L585.6030000000004 492.58174999999994L586.5090000000004 494.70725000000016L593.4385000000003 496.5787500000002L597.774 497.87560000000013L601.506 495.29570000000007L603.0535000000003 493.6235500000001L602.0840000000004 486.89269999999993L599.522 478.68505L600.9935000000002 470.1575500000001L604.6405000000004 467.7829L603.8245000000001 466.06795000000005L620.4875000000004 466.4605500000002L622.0665000000002 467.92665L624.9625000000003 465.41330000000016L623.0395000000004 459.92954999999995L623.809 458.9957000000001L628.3265 455.07475L629.2830000000004 453.3197000000001L627.7680000000004 452.0243500000001L629.4135 450.62190000000015L635.7425000000001 451.3550000000001L636.8255000000005 455.4261500000001L641.3815 459.94595000000004L642.5615000000005 458.32120000000003L641.2235000000004 452.5039000000001L640.5175000000003 448.3023L631.7775 439.0530000000001L637.5310000000002 435.5772000000002L638.3675000000005 431.71385000000015L639.2565000000002 431.60015000000016L642.8685000000002 441.55730000000005L649.0605000000005 439.86064999999996L651.8450000000001 434.44215000000014L660.926 456.0468500000002L662.4965000000003 454.6288000000001L665.9055000000001 457.05825000000004L668.7925000000001 462.66795L669.9765000000002 454.94275000000016L666.9380000000001 451.9403L667.5105000000002 445.42865000000006L675.7870000000003 442.93915L679.0585000000004 437.61844999999994L681.1665000000005 438.11395000000005L685.4000000000002 435.66265000000016L690.5115000000001 439.5005499999999L692.183 445.47529999999995L694.3435000000005 445.6060500000001L695.8670000000001 449.5728L700.6745000000001 453.78870000000006L702.8765000000004 451.8063000000001L705.8590000000004 443.98645000000016L712.1575000000001 444.62774999999993L713.1165000000004 437.9621500000002L710.9300000000002 431.6422L724.0565000000004 432.4802500000001L722.3055000000005 446.1710500000001L724.3780000000004 445.93715000000003L727.9865000000001 440.9409500000001L729.9875000000003 436.8337500000001L739.0735000000001 436.85745L739.8155000000003 436.92380000000014L736.9485000000003 423.9437000000001L731.431 417.53815000000003L729.7740000000005 409.09165L728.8855000000001 403.0383499999999L731.3390000000004 397.33660000000015L719.9965000000003 397.02865L716.4140000000003 394.3471500000001L717.09 390.3570500000001L714.7105000000005 387.1675000000002L725.1675 380.34639999999996L725.2530000000002 371.95785L722.7730000000003 368.38780000000014L724.7725000000003 363.28914999999995L723.7530000000004 362.2404500000002L720.308 360.44340000000005L714.4525000000004 361.6753L713.7360000000001 356.7034000000001L712.8995000000003 354.63719999999995L719.9525 349.2912000000001L721.6355000000004 348.77190000000013L725.0740000000002 346.44885000000016L724.5155 344.4465500000001L722.4200000000002 331.81250000000006L718.7800000000004 326.5425000000002L720.0695000000002 324.8376999999999L723.7525000000005 323.18825000000004L724.0040000000005 331.04960000000005L725.976 331.62655L739.2780000000005 320.1978L738.7360000000001 315.42130000000014L740.754 309.3845000000002L738.6345 299.78395000000006L741.2050000000005 297.10745000000003L747.2450000000003 285.3275500000001L758.7360000000001 277.61404999999996L759.4315 275.8360000000002L757.3325 275.25605000000013L758.1955000000005 267.16354999999993L761.0725000000002 264.09580000000005L770.5520000000001 257.7960999999999L774.8040000000003 252.54025000000013L770.4695000000004 250.29740000000004L764.119 251.76690000000008L758.845 248.19850000000002L754.812 248.39815000000016L761.4935000000003 236.34360000000015L762.0475000000005 235.01425000000012L759.6190000000001 229.06804999999991L751.2740000000002 230.5371500000001L751.9400000000002 226.23080000000016L741.1670000000004 226.75275L737.2230000000002 220.7626000000002L736.6715000000005 217.00015000000008L729.3505000000005 212.69855000000007L727.004 207.3929000000001L720.3045000000003 212.9798500000001L714.8000000000002 210.2768499999999L701.5700000000004 204.91845000000012L699.2335000000003 207.12350000000015L693.732 204.54775000000012L691.5495000000004 206.8182999999999L686.0305 209.59445000000017L676.5470000000005 215.58269999999993L675.5440000000004 212.05855000000014L672.407 209.77710000000002L666.9220000000001 207.66960000000012L663.1530000000004 209.55669999999998L660.9620000000001 213.01825000000008L657.0740000000001 213.53309999999993L654.7180000000003 210.80105000000003L653.3575000000002 219.44455000000005L644.5085 218.76565L638.7885 222.30954999999994L635.8360000000005 225.08960000000002L637.0350000000002 226.7276000000001L633.8985000000002 229.00785000000013L627.6035000000002 227.3494500000001L627.1975000000003 225.70420000000013L627.0060000000001 221.53875L633.3735000000001 219.82834999999994L636.0255000000001 213.6721L631.1530000000005 203.3005L627.7425000000005 202.59280000000018L627.1940000000001 191.33610000000004L619.7520000000003 195.34130000000005L616.9175000000001 201.1515L613.338 199.31020000000018L608.1115 203.4071L606.7015000000004 201.62090000000006L601.8170000000003 209.02985L601.309 209.8333500000001L595.532 210.96055000000007L593.331 214.63435000000004L587.5 217.1119999999999L583.3245000000005 216.27555L579.1360000000003 211.18889999999993L588.2340000000005 202.8542999999999L586.8225000000001 196.87090000000012L592.7885000000003 190.51885L595.9225000000004 182.6458500000001L594.3525 177.1343999999999L595.5240000000003 169.36475000000002L594.4025000000005 167.50439999999998L588.4195 169.67095L582.1950000000004 168.27325000000002L573.8620000000003 159.61579999999998L565.8590000000004 158.09629999999999L564.1705000000002 159.23990000000003L566.8875000000003 170.00429999999994L560.6540000000001 172.82470000000018L560.1105000000001 175.05250000000018L569.214 184.94315L562.7815000000004 189.35120000000012L557.5920000000002 182.0118500000001L553.6565000000002 180.0224L549.2755 180.9751L542.6640000000003 176.56984999999992L538.8475 180.46030000000002L533.8465000000002 176.74679999999995L531.6650000000004 173.37075L531.7000000000002 171.93610000000007L525.7850000000002 169.94664999999998L515.6240000000003 172.41385000000008L513.9445000000001 168.94724999999994L508.3000000000004 167.92329999999993L505.6155000000001 163.23520000000002L505.73800000000006 161.7762000000002L512.9595 151.99039999999997L510.41650000000004 151.69465000000002L508.62400000000036 150.72120000000012L505.197 152.9194000000001L500.1140000000004 148.79674999999992L497.95450000000017 149.11310000000014L495.70100000000025 152.85375000000016L495.1320000000004 159.1510500000001L496.5775000000002 160.78585000000004L489.88050000000044 166.7661000000001L482.4925000000002 149.69865L472.3505 151.79345000000012L465.9280000000001 152.32394999999997L463.13350000000014 154.45705000000004z">
      <title id="t444">Cinquième circonscription de la Somme</title>
      <desc id="d444">Cantons de : Acheux-en-Amiénois, Albert, Bray-sur-Somme, Chaulnes, Combles, Ham, Nesle, Péronne, Roisel, Rosières-en-Santerre, Roye</desc>
    </path></svg>