<svg xmlns="http://www.w3.org/2000/svg" version="1.1" xmlns:xlink="http://www.w3.org/1999/xlink" xmlns:svgjs="http://svgjs.dev/svgjs" width="595.0995" height="481.5844999999996" fill="#eeeeee" stroke="#cccccc" xmlns:sodipodi="http://sodipodi.sourceforge.net/DTD/sodipodi-0.dtd"><path class="circo" id="id-081-01" d="M409.63300000000004 151.1140000000006L413.6345 151.00899999999967L425.8450000000005 157.76599999999974L426.0540000000003 161.77449999999965L430.03250000000037 162.4844999999999L432.9060000000004 165.28250000000014L432.47900000000016 173.12700000000007L431.7010000000005 176.78900000000056L432.1260000000001 182.6950000000005L442.4385000000001 188.4805L444.01050000000055 191.76800000000014L437.2900000000004 197.56599999999992L437.05750000000023 199.4135L437.3875000000004 206.63100000000043L436.28900000000044 209.57550000000026L448.48100000000045 225.89300000000037L450.88250000000016 225.57849999999974L452.41450000000043 226.5934999999996L452.08650000000034 228.6255L456.4110000000005 232.64749999999992L458.34600000000023 238.44049999999982L462.8380000000004 242.6524999999998L464.9395000000004 248.28450000000032L476.64450000000045 258.6070000000001L477.996 262.33949999999993L487.2595000000001 269.9034999999998L493.0690000000004 270.1135000000005L500.89950000000044 270.8144999999996L512.2560000000004 278.4665000000001L515.7775000000004 276.39050000000054L529.6625 273.7605000000002L532.9140000000001 264.5885000000004L543.6960000000005 259.2715000000004L547.6650000000001 259.495L552.7220000000005 265.4355000000004L562.2945000000004 266.5394999999995L562.4165000000005 266.59249999999986L567.4690000000004 272.46500000000026L581.1340000000001 270.63450000000046L589.1935000000001 274.65449999999976L588.1615000000005 276.40199999999993L590.9505000000001 292.2369999999995L595.0995 298.6285000000004L588.4885000000003 302.7015L587.7145000000002 318.41700000000003L583.2095000000004 322.28099999999984L573.3055000000002 320.69249999999954L571.3890000000004 321.4400000000006L568.5855000000004 326.9364999999999L556.6540000000003 328.09950000000015L549.6065000000004 332.2570000000002L543.7960000000004 331.15500000000054L538.2025000000004 336.89099999999996L535.4665 339.7615000000002L529.7165000000001 339.0690000000001L523.7290000000002 343.9299999999997L518.1980000000004 345.93300000000056L514.8850000000004 343.64049999999963L511.34550000000047 336.5100000000001L504.6595000000002 329.1990000000004L489.6270000000004 324.3239999999997L488.5200000000003 322.63750000000016L483.0880000000002 324.9164999999999L475.3200000000004 324.86500000000035L473.6835000000002 319.3275L471.8575000000004 318.60600000000034L467.1840000000003 338.8630000000006L463.6655000000002 348.55650000000026L459.71000000000004 353.381L459.3150000000003 355.42700000000025L461.67250000000024 358.7209999999999L463.6500000000001 358.5745000000003L465.4600000000005 364.2575000000005L459.59700000000055 374.5464999999996L465.8860000000004 384.57400000000064L484.8330000000004 404.98650000000055L477.5365000000005 402.9559999999998L473.64850000000047 401.82849999999974L463.22100000000034 408.06700000000035L457.2150000000005 408.89200000000017L456.04150000000004 410.5795000000006L459.75250000000017 421.99450000000013L459.29400000000044 428.1144999999998L457.5510000000003 429.19299999999964L456.29050000000007 430.20550000000014L453.82000000000005 428.54750000000024L451.6840000000002 414.3549999999999L453.41950000000054 406.34349999999984L452.05100000000016 404.77900000000034L429.97600000000034 399.9475000000001L425.16700000000014 396.11000000000047L419.5625000000001 388.0305000000004L413.66900000000044 387.8770000000003L403.10250000000053 384.7210000000001L405.4400000000004 377.8090000000003L401.6810000000004 371.54849999999954L395.0230000000005 367.7339999999998L390.0210000000004 370.76700000000017L391.81100000000015 374.1164999999995L390.1305000000002 375.2370000000002L384.5920000000001 372.8950000000003L376.7165 374.0130000000005L375.1245 372.7789999999999L370.2785 364.05299999999954L373.3125000000001 358.8770000000005L377.0580000000001 357.37599999999986L374.99900000000025 352.06849999999974L376.2560000000002 350.54350000000056L372.2715000000005 337.72099999999966L366.74350000000004 335.65999999999974L349.78650000000016 342.45600000000024L343.76450000000034 343.0660000000006L339.14800000000014 351.1809999999997L338.83050000000026 354.1405000000003L336.8225000000001 363.0604999999997L333.2635000000005 362.1189999999996L325.46400000000006 365.42449999999974L317.8565000000003 359.5160000000004L311.6330000000005 367.0120000000003L317.3785000000004 372.32749999999953L320.1840000000004 379.6795000000003L310.625 376.85450000000003L305.42550000000006 379.28349999999966L300.31750000000045 376.26599999999996L300.5310000000003 372.16849999999965L286.9390000000004 364.14649999999995L291.87250000000006 357.97499999999957L295.2215000000001 361.3934999999998L301.19700000000023 353.72199999999964L302.0660000000004 344.59149999999966L308.7745000000001 345.7170000000002L306.43650000000036 338.67099999999994L309.3610000000001 335.80949999999973L314.62050000000033 334.69899999999996L314.35900000000004 328.60299999999995L313.5215000000005 322.8339999999997L297.1870000000001 312.9395000000005L295.2445 316.3259999999997L291.40000000000043 315.3810000000004L288.93650000000036 309.24500000000023L291.81850000000054 307.0380000000006L288.79650000000026 302.5619999999998L283.84000000000015 301.7969999999997L285.98450000000014 291.18499999999983L287.5355000000002 290.2280000000002L296.5470000000005 283.8420000000002L294.93700000000047 282.5614999999999L291.59850000000006 270.7110000000006L290.86250000000007 256.4965000000001L289.7795000000002 254.21899999999994L284.0750000000003 254.89049999999963L280.4555000000005 259.66200000000015L273.12900000000013 256.94699999999955L265.8630000000005 253.55950000000064L264.45700000000045 249.89350000000002L261.50900000000036 247.72650000000056L256.0770000000002 247.7434999999997L252.86450000000002 247.45550000000037L248.9145000000002 247.34600000000057L243.86250000000018 250.16800000000046L237.7785 242.53449999999987L232.69600000000025 239.48800000000062L231.7425000000003 240.62799999999982L227.3780000000005 234.97750000000053L228.11900000000037 231.48650000000032L226.69550000000015 230.35900000000026L225.88900000000024 227.34650000000045L219.64200000000005 215.14250000000004L223.27500000000043 214.0545000000003L226.69850000000054 207.24599999999953L229.99700000000018 205.92349999999954L230.03250000000037 200.3325000000001L223.9495000000005 199.16300000000035L224.0545000000003 197.29449999999986L219.8045000000002 193.8114999999999L220.38700000000006 179.7195000000005L220.4925000000003 177.91800000000023L224.25400000000025 170.78550000000007L235.40900000000022 167.17649999999992L254.8395000000005 165.5755000000005L259.18200000000013 159.33299999999974L265.53650000000005 155.25900000000036L267.1930000000003 150.00950000000046L264.4535000000002 147.58800000000008L265.3200000000004 145.1664999999997L267.5725 144.9335000000002L272.84050000000036 154.27250000000015L276.5005000000002 152.9649999999998L280.514 147.27100000000007L290.39950000000033 146.23599999999954L297.72500000000036 149.24050000000022L302.3010000000005 156.09150000000056L307.2410000000002 159.6139999999997L312.6920000000001 157.25750000000005L315.4645000000005 151.9040000000001L316.9900000000001 150.8914999999996L317.6550000000003 156.4635000000004L319.3860000000001 157.09000000000003L322.94100000000014 152.70249999999976L326.6935000000001 151.97349999999972L324.6855000000005 156.5965L324.9445000000003 158.34199999999953L326.6980000000001 158.51150000000018L330.403 157.92700000000025L338.04850000000044 158.1374999999997L343.72100000000046 152.8415000000001L345.6050000000005 143.15049999999985L350.75800000000015 137.28400000000022L346.8440000000004 132.78750000000002L342.92250000000024 132.54399999999976L331.0005000000001 126.01650000000006L336.5605000000005 123.79949999999951L338.82450000000006 118.32450000000051L338.091 114.33150000000012L331.97900000000004 106.17699999999957L332.71000000000015 104.26599999999951L338.648 105.55049999999994L344.3535000000003 110.82150000000013L345.0940000000003 101.01150000000018L334.94550000000004 97.84649999999999L337.8365000000002 88.57249999999965L342.9295000000002 90.66399999999987L344.3025 89.27899999999966L343.1695000000002 85.67500000000052L339.1835000000003 82.22699999999975L342.89450000000045 72.34600000000057L346.0830000000004 69.07099999999957L349.5595000000003 58.63549999999975L362.93750000000045 62.768500000000245L362.937 64.81900000000053L367.3955000000001 69.00850000000048L372.1675000000005 77.72099999999966L371.86050000000023 85.67050000000052L393.39200000000005 88.94399999999962L394.56800000000044 98.14199999999971L397.24200000000053 100.76849999999979L403.59950000000026 104.09950000000038L408.0665000000005 112.06500000000062L406.5210000000002 116.60649999999976L407.8920000000005 121.34050000000059L410.7865000000004 126.58600000000035L419.9060000000003 130.41499999999985L419.8350000000005 134.50350000000014L418.8965000000002 140.4770000000002L416.90750000000037 143.38549999999998L411.6565000000003 145.35199999999975L409.63300000000004 151.1140000000006z">
      <title id="t445">Première circonscription du Tarn</title>
      <desc id="d445">Cantons de : Alban, Albi Centre, Albi Est, Albi Sud, Anglès, Brassac, Castres-Est, Castres Sud, Lacaune, Montredon-Labessonnié, Murat-sur-Vèbre, Réalmont, Rocquecourbe, Vabre, Valence-d'Albigeois, Villefranche-d'Albigeois</desc>
    </path><path class="circo" id="id-081-02" d="M219.8045000000002 193.8114999999999L220.38700000000006 179.7195000000005L220.4925000000003 177.91800000000023L224.25400000000025 170.78550000000007L235.40900000000022 167.17649999999992L254.8395000000005 165.5755000000005L259.18200000000013 159.33299999999974L265.53650000000005 155.25900000000036L267.1930000000003 150.00950000000046L264.4535000000002 147.58800000000008L265.3200000000004 145.1664999999997L267.5725 144.9335000000002L272.84050000000036 154.27250000000015L276.5005000000002 152.9649999999998L280.514 147.27100000000007L290.39950000000033 146.23599999999954L297.72500000000036 149.24050000000022L302.3010000000005 156.09150000000056L307.2410000000002 159.6139999999997L312.6920000000001 157.25750000000005L315.4645000000005 151.9040000000001L316.9900000000001 150.8914999999996L317.6550000000003 156.4635000000004L319.3860000000001 157.09000000000003L322.94100000000014 152.70249999999976L326.6935000000001 151.97349999999972L324.6855000000005 156.5965L324.9445000000003 158.34199999999953L326.6980000000001 158.51150000000018L330.403 157.92700000000025L338.04850000000044 158.1374999999997L343.72100000000046 152.8415000000001L345.6050000000005 143.15049999999985L350.75800000000015 137.28400000000022L346.8440000000004 132.78750000000002L342.92250000000024 132.54399999999976L331.0005000000001 126.01650000000006L336.5605000000005 123.79949999999951L338.82450000000006 118.32450000000051L338.091 114.33150000000012L331.97900000000004 106.17699999999957L332.71000000000015 104.26599999999951L338.648 105.55049999999994L344.3535000000003 110.82150000000013L345.0940000000003 101.01150000000018L334.94550000000004 97.84649999999999L337.8365000000002 88.57249999999965L342.9295000000002 90.66399999999987L344.3025 89.27899999999966L343.1695000000002 85.67500000000052L339.1835000000003 82.22699999999975L342.89450000000045 72.34600000000057L346.0830000000004 69.07099999999957L349.5595000000003 58.63549999999975L347.11550000000045 55.78350000000057L342.1640000000002 52.814500000000066L338.8085000000001 45.92649999999992L334.9355000000003 45.08049999999969L328.1205 48.58199999999954L321.04150000000004 45.60199999999952L323.9880000000005 38.30600000000061L318.5940000000005 32.71450000000016L308.7900000000002 33.10350000000028L298.4205000000003 39.247499999999604L293.0835000000002 36.67750000000012L279.09550000000024 36.02350000000058L277.61150000000043 37.42549999999994L275.6525000000005 37.030000000000314L275.1650000000001 35.08899999999983L279.75850000000037 31.24550000000056L285.33000000000015 32.62350000000026L298.5050000000001 24.841500000000565L292.6585 19.86500000000035L284.9150000000003 17.74500000000046L282.4485000000004 20.905500000000643L278.70750000000044 21.9784999999996L274.87450000000024 17.207500000000095L274.35450000000003 13.195999999999799L270.5930000000001 11.859000000000037L264.7320000000002 12.630999999999517L263.2785000000001 11.409000000000447L264.9970000000002 8.045500000000061L262.3955000000001 5.390000000000441L260.93350000000044 0L245.99500000000035 2.8120000000001255L241.34950000000003 5.36700000000053L243.33200000000033 10.477000000000203L240.3370000000001 13.152000000000612L238.55150000000037 12.728999999999928L237.04850000000022 9.108000000000516L229.61100000000044 10.966000000000236L226.22650000000021 6.1775000000005775L219.26800000000014 8.112500000000296L222.38050000000044 16.754000000000246L210.7385000000005 18.842000000000212L209.02950000000033 19.919500000000312L210.37300000000016 25.46549999999968L199.12850000000049 29.26400000000001L193.33900000000028 30.275499999999624L190.44750000000022 28.57500000000016L184.18300000000045 33.0660000000006L178.58400000000017 30.686999999999784L172.60800000000017 31.22000000000014L168.9055000000002 26.546000000000163L163.11750000000018 22.203999999999837L159.17550000000006 21.917500000000132L152.86100000000033 26.415499999999952L162.84500000000037 35.698000000000434L161.13050000000044 38.131500000000074L156.40450000000044 41.34650000000022L151.4250000000004 35.10500000000036L147.68700000000024 36.746499999999855L140.12350000000026 33.84799999999984L133.9085 38.73650000000055L132.14 38.35700000000031L129.9475000000001 33.40449999999976L128.14400000000035 33.57000000000028L125.29350000000022 40.595500000000015L129.735 51.17800000000045L128.42250000000035 57.628500000000145L123.279 54.83850000000018L115.07000000000005 43.89950000000056L112.73250000000019 49.13600000000031L107.2195000000005 54.3040000000002L109.75000000000023 59.38000000000045L103.14600000000041 61.469000000000165L89.78650000000016 50.86349999999982L84.2130000000003 52.33800000000031L79.4010000000003 48.66450000000043L79.42750000000046 50.619499999999675L71.33950000000027 49.95849999999962L65.59000000000026 51.99850000000026L57.708000000000084 50.01000000000033L53.86200000000031 51.19899999999973L52.46650000000045 49.70449999999971L49.9675000000002 54.51650000000029L50.0890000000004 61.658500000000345L56.878000000000384 66.35900000000049L54.695500000000266 76.37549999999976L55.91850000000022 80.30599999999993L61.68950000000052 80.51750000000027L67.26150000000018 83.15549999999973L71.80150000000026 92.47050000000002L65.64850000000035 104.94399999999985L58.48550000000046 108.41600000000028L56.931000000000154 112.13350000000048L54.93900000000053 111.89649999999972L49.26400000000001 112.02500000000043L51.98650000000043 119.40350000000024L50.598000000000525 122.8305000000006L46.725000000000136 123.48199999999963L43.27850000000012 121.82899999999961L39.09649999999999 128.51150000000018L35.432500000000005 134.7369999999995L37.16750000000047 141.89800000000048L22.971500000000447 142.07550000000026L13.238000000000056 139.17899999999975L7.235000000000014 140.52200000000028L5.570000000000164 144.17200000000037L0 142.51100000000008L1.8255000000004884 145.8729999999997L1.4740000000000464 149.78499999999997L13.041000000000054 151.7085000000003L17.957499999999982 154.82249999999965L16.405000000000314 158.55899999999963L16.264000000000465 166.05050000000062L14.604000000000497 167.02050000000042L8.648500000000467 166.91700000000026L5.208500000000527 177.88700000000006L6.568500000000199 183.6910000000006L10.25600000000054 188.3575000000002L8.984000000000378 192.00599999999952L12.214500000000044 194.30300000000045L8.519000000000005 194.92199999999968L8.422500000000355 196.30399999999952L15.860000000000127 207.90850000000034L23.78500000000031 210.99099999999964L24.60900000000038 211.2465000000003L22.662000000000262 226.54200000000003L38.35050000000024 235.59350000000052L46.54700000000048 236.50649999999985L48.14650000000029 240.16699999999958L45.39800000000014 247.4309999999997L45.80650000000048 249.38950000000034L49.41100000000006 250.86899999999957L53.612000000000535 246.7500000000001L57.34700000000032 245.93450000000018L62.7475000000004 245.2815000000004L62.95950000000005 249.4210000000004L64.81150000000014 250.34400000000062L68.92250000000047 250.5514999999997L74.24500000000023 253.57850000000042L82.43250000000046 253.6039999999997L84.96500000000026 253.55799999999988L84.91100000000017 249.5115000000004L88.83700000000033 242.39700000000028L94.55250000000035 241.5379999999999L97.57850000000019 244.2455000000001L99.59700000000055 244.0334999999999L102.67600000000016 234.4840000000005L106.12250000000017 232.6180000000005L131.15950000000055 249.74300000000028L134.82650000000035 254.71100000000035L135.66400000000044 260.79999999999984L130.865 262.5015000000002L131.5530000000001 265.8805000000001L135.18650000000036 267.5899999999996L143.39750000000038 278.7740000000002L144.1900000000004 284.7909999999996L159.57900000000052 284.50549999999964L162.72050000000036 286.73249999999996L165.61599999999999 281.70750000000055L166.7190000000005 280.9880000000004L169.32600000000036 277.9895000000005L177.2720000000004 275.74900000000014L180.80050000000028 276.5654999999998L182.6365000000004 283.85500000000036L185.11650000000031 289.26800000000014L193.2325000000003 287.72400000000005L197.8090000000003 294.3369999999999L213.90750000000025 302.0395000000002L214.78250000000003 300.29900000000055L218.62850000000037 299.71799999999973L218.03150000000016 292.1234999999996L207.74900000000002 284.73000000000013L211.47200000000055 284.31399999999996L215.32650000000046 280.3294999999997L214.5350000000002 274.6700000000004L216.14550000000008 271.27850000000024L219.06100000000038 257.9260000000005L222.5535000000002 256.93600000000004L224.7905000000003 253.73700000000042L220.47200000000032 250.15000000000043L221.72500000000014 246.29399999999976L231.14250000000027 242.57949999999994L231.7425000000003 240.62799999999982L227.3780000000005 234.97750000000053L228.11900000000037 231.48650000000032L226.69550000000015 230.35900000000026L225.88900000000024 227.34650000000045L219.64200000000005 215.14250000000004L223.27500000000043 214.0545000000003L226.69850000000054 207.24599999999953L229.99700000000018 205.92349999999954L230.03250000000037 200.3325000000001L223.9495000000005 199.16300000000035L224.0545000000003 197.29449999999986L219.8045000000002 193.8114999999999z">
      <title id="t446">Deuxième circonscription du Tarn</title>
      <desc id="d446">Cantons de : Albi Nord-Est, Albi Nord-Ouest, Albi Ouest, Cadalen, Carmaux Nord, Carmaux Sud, Castelnau-de-Montmiral, Cordes-sur-Ciel, Gaillac, Graulhet, Lisle-sur-Tarn, Monestiés, Pampelonne, Rabastens, Salvagnac, Valderiès, Vaour</desc>
    </path><path class="circo" id="id-081-03" d="M115.12900000000002 366.33849999999995L111.95500000000038 364.4810000000001L109.59400000000016 363.8730000000004L100.86500000000001 358.7230000000005L100.37600000000054 354.6904999999998L97.19450000000052 352.1364999999997L96.45800000000008 353.17799999999977L89.15900000000022 352.2004999999996L89.024 351.67449999999974L87.33000000000004 350.7295000000005L81.18850000000009 347.49499999999955L79.80700000000013 344.39549999999997L74.56500000000005 341.9135L69.21800000000019 342.33450000000005L64.81550000000027 336.2045000000006L66.47950000000037 330.7914999999997L71.20000000000005 324.47100000000034L80.3445000000005 320.8959999999996L82.2705000000002 320.43150000000026L82.9725000000002 316.56649999999956L78.67400000000032 310.1000000000005L78.81250000000023 302.3444999999998L54.53100000000006 298.9870000000002L54.905500000000416 293.36749999999995L53.45100000000002 292.1700000000004L60.98450000000014 294.64549999999974L66.9905 289.60350000000005L70.9740000000005 289.4160000000005L72.75250000000028 285.9575000000001L67.04750000000047 278.0279999999999L65.24500000000046 278.75699999999995L61.281000000000176 274.4720000000001L52.90300000000002 270.68550000000016L51.831000000000245 267.19899999999996L48.79950000000008 265.1484999999997L51.211000000000126 256.1515000000003L49.41100000000006 250.86899999999957L53.612000000000535 246.7500000000001L57.34700000000032 245.93450000000018L62.7475000000004 245.2815000000004L62.95950000000005 249.4210000000004L64.81150000000014 250.34400000000062L68.92250000000047 250.5514999999997L74.24500000000023 253.57850000000042L82.43250000000046 253.6039999999997L84.96500000000026 253.55799999999988L84.91100000000017 249.5115000000004L88.83700000000033 242.39700000000028L94.55250000000035 241.5379999999999L97.57850000000019 244.2455000000001L99.59700000000055 244.0334999999999L102.67600000000016 234.4840000000005L106.12250000000017 232.6180000000005L131.15950000000055 249.74300000000028L134.82650000000035 254.71100000000035L135.66400000000044 260.79999999999984L130.865 262.5015000000002L131.5530000000001 265.8805000000001L135.18650000000036 267.5899999999996L143.39750000000038 278.7740000000002L144.1900000000004 284.7909999999996L159.57900000000052 284.50549999999964L162.72050000000036 286.73249999999996L165.61599999999999 281.70750000000055L166.7190000000005 280.9880000000004L169.32600000000036 277.9895000000005L177.2720000000004 275.74900000000014L180.80050000000028 276.5654999999998L182.6365000000004 283.85500000000036L185.11650000000031 289.26800000000014L193.2325000000003 287.72400000000005L197.8090000000003 294.3369999999999L213.90750000000025 302.0395000000002L214.78250000000003 300.29900000000055L218.62850000000037 299.71799999999973L218.03150000000016 292.1234999999996L207.74900000000002 284.73000000000013L211.47200000000055 284.31399999999996L215.32650000000046 280.3294999999997L214.5350000000002 274.6700000000004L216.14550000000008 271.27850000000024L219.06100000000038 257.9260000000005L222.5535000000002 256.93600000000004L224.7905000000003 253.73700000000042L220.47200000000032 250.15000000000043L221.72500000000014 246.29399999999976L231.14250000000027 242.57949999999994L231.7425000000003 240.62799999999982L232.69600000000025 239.48800000000062L237.7785 242.53449999999987L243.86250000000018 250.16800000000046L248.9145000000002 247.34600000000057L252.86450000000002 247.45550000000037L256.0770000000002 247.7434999999997L261.50900000000036 247.72650000000056L264.45700000000045 249.89350000000002L265.8630000000005 253.55950000000064L273.12900000000013 256.94699999999955L280.4555000000005 259.66200000000015L284.0750000000003 254.89049999999963L289.7795000000002 254.21899999999994L290.86250000000007 256.4965000000001L291.59850000000006 270.7110000000006L294.93700000000047 282.5614999999999L296.5470000000005 283.8420000000002L287.5355000000002 290.2280000000002L285.98450000000014 291.18499999999983L283.84000000000015 301.7969999999997L288.79650000000026 302.5619999999998L291.81850000000054 307.0380000000006L288.93650000000036 309.24500000000023L291.40000000000043 315.3810000000004L295.2445 316.3259999999997L297.1870000000001 312.9395000000005L313.5215000000005 322.8339999999997L314.35900000000004 328.60299999999995L314.62050000000033 334.69899999999996L309.3610000000001 335.80949999999973L306.43650000000036 338.67099999999994L308.7745000000001 345.7170000000002L302.0660000000004 344.59149999999966L301.19700000000023 353.72199999999964L295.2215000000001 361.3934999999998L291.87250000000006 357.97499999999957L286.9390000000004 364.14649999999995L300.5310000000003 372.16849999999965L300.31750000000045 376.26599999999996L305.42550000000006 379.28349999999966L310.625 376.85450000000003L320.1840000000004 379.6795000000003L317.3785000000004 372.32749999999953L311.6330000000005 367.0120000000003L317.8565000000003 359.5160000000004L325.46400000000006 365.42449999999974L333.2635000000005 362.1189999999996L336.8225000000001 363.0604999999997L338.83050000000026 354.1405000000003L339.14800000000014 351.1809999999997L343.76450000000034 343.0660000000006L349.78650000000016 342.45600000000024L366.74350000000004 335.65999999999974L372.2715000000005 337.72099999999966L376.2560000000002 350.54350000000056L374.99900000000025 352.06849999999974L377.0580000000001 357.37599999999986L373.3125000000001 358.8770000000005L370.2785 364.05299999999954L375.1245 372.7789999999999L376.7165 374.0130000000005L384.5920000000001 372.8950000000003L390.1305000000002 375.2370000000002L391.81100000000015 374.1164999999995L390.0210000000004 370.76700000000017L395.0230000000005 367.7339999999998L401.6810000000004 371.54849999999954L405.4400000000004 377.8090000000003L403.10250000000053 384.7210000000001L413.66900000000044 387.8770000000003L419.5625000000001 388.0305000000004L425.16700000000014 396.11000000000047L429.97600000000034 399.9475000000001L452.05100000000016 404.77900000000034L453.41950000000054 406.34349999999984L451.6840000000002 414.3549999999999L453.82000000000005 428.54750000000024L456.29050000000007 430.20550000000014L457.5510000000003 429.19299999999964L459.29400000000044 428.1144999999998L459.75250000000017 421.99450000000013L456.04150000000004 410.5795000000006L457.2150000000005 408.89200000000017L463.22100000000034 408.06700000000035L473.64850000000047 401.82849999999974L477.5365000000005 402.9559999999998L478.12700000000007 410.8409999999998L475.976 416.27999999999986L476.96050000000014 424.0439999999995L481.42450000000053 430.4170000000005L479.9905000000001 434.0265000000005L470.77500000000043 431.20100000000036L469.3005000000005 432.46699999999976L471.46500000000003 437.5200000000001L460.0295 448.8704999999999L456.28300000000024 447.7675000000005L455.23150000000044 452.6965000000001L453.4545000000003 453.0845000000005L451.67200000000037 452.2774999999996L443.71550000000013 457.78399999999976L437.9825000000005 457.9834999999997L437.87800000000004 458.01049999999975L436.15350000000035 459.1519999999997L430.4435000000001 456.99400000000026L418.0925000000002 457.5410000000005L415.3520000000003 454.6520000000004L409.61400000000026 453.21849999999984L407.6350000000002 449.8034999999999L398.8425000000001 450.0510000000003L397.0785000000001 450.7310000000001L389.24150000000054 452.5595000000004L379.2470000000003 451.23549999999966L370.81950000000006 456.6635000000002L369.57250000000045 458.2890000000003L370.4310000000004 460.15150000000006L366.98350000000005 461.4410000000004L356.9685000000004 457.9599999999999L353.63650000000007 457.8555L345.5850000000004 452.2399999999999L330.87350000000015 447.53049999999973L326.7700000000002 443.3689999999996L324.8915000000005 444.02300000000025L317.37450000000024 447.29300000000023L310.32100000000014 440.4479999999995L307.2950000000003 436.23599999999954L306.6115000000002 440.0245000000001L300.0905 446.44450000000063L299.2465000000004 448.159L292.081 454.8690000000005L292.4460000000005 461.0200000000003L294.9860000000001 466.5799999999996L288.904 481.5844999999996L276.90950000000043 474.4504999999998L269.9430000000001 462.1655000000004L263.9745000000005 462.71300000000053L256.30300000000034 469.24900000000036L254.2795000000001 469.3345000000005L251.5130000000005 471.8964999999997L245.88850000000036 472.16500000000053L244.72050000000024 473.6465000000004L243.7515000000002 474.65700000000027L237.9400000000004 473.639L236.4820000000003 474.9925000000002L233.93700000000024 472.5385L228.4575000000001 473.93399999999986L226.11400000000003 468.61950000000036L227.24400000000003 467.0279999999997L223.60900000000015 462.5600000000003L220.07200000000012 453.6835000000002L209.89850000000047 449.8264999999998L207.0245 444.4585000000001L203.85550000000023 442.4385000000001L205.73300000000017 430.40850000000034L208.18250000000035 427.22699999999975L214.16950000000043 425.9989999999999L218.04050000000018 421.2299999999999L216.12150000000042 418.5070000000002L217.9570000000001 413.8725000000005L215.5880000000002 406.46699999999953L214.06550000000038 411.79550000000006L212.3810000000003 412.79150000000016L208.11000000000035 408.9474999999999L204.44600000000037 407.5434999999999L202.8045000000003 408.6235000000005L203.92800000000022 420.39150000000006L202.86200000000008 422.1025000000003L201.69100000000014 423.7610000000001L192.12450000000047 425.1690000000002L187.86800000000028 420.8499999999998L178.8480000000004 416.35050000000035L177.3320000000001 418.4684999999996L163.7575000000004 409.8589999999996L162.27400000000046 412.0089999999999L150.5065000000002 403.38900000000024L149.79550000000017 402.94550000000015L143.89550000000042 393.4144999999995L143.57950000000017 391.4984999999996L146.69100000000014 389.2435000000006L139.81700000000046 386.4614999999998L134.067 384.0384999999998L133.53200000000015 373.2755000000003L129.15100000000052 367.21600000000024L121.72050000000013 365.2675000000005L115.12900000000002 366.33849999999995z">
      <title id="t447">Troisième circonscription du Tarn</title>
      <desc id="d447">Cantons de : Castres Nord, Castres Ouest, Cuq-Toulza, Dourgne, Labruguière, Lautrec, Lavaur, Mazamet Nord-Est, Mazamet Sud-Ouest, Puylaurens, Saint-Amans-Soult, Saint-Paul-Cap-de-Joux, Vielmur-sur-Agout</desc>
    </path></svg>