<svg xmlns="http://www.w3.org/2000/svg" version="1.1" xmlns:xlink="http://www.w3.org/1999/xlink" xmlns:svgjs="http://svgjs.dev/svgjs" width="534.7264999999999" height="370.1580000000007" fill="#eeeeee" stroke="#cccccc" xmlns:sodipodi="http://sodipodi.sourceforge.net/DTD/sodipodi-0.dtd"><path class="circo" id="id-082-01" d="M395.5869999999999 61.294000000000324L392.28849999999966 62.16800000000035L391.2565000000001 65.73450000000037L387.67449999999997 57.745500000000334L380.39799999999957 58.726500000000215L387.24649999999997 65.76550000000054L383.34799999999973 72.92450000000031L379.4149999999996 73.36100000000044L372.8559999999999 68.86950000000013L373.0509999999998 57.176000000000045L367.047 58.0680000000001L364.57149999999956 54.888500000000136L360.6725 54.94200000000035L354.84849999999994 55.22350000000017L353.4805 56.745500000000106L355.58599999999956 64.52250000000049L350.8819999999997 68.30650000000048L351.2004999999999 70.32100000000014L356.0579999999999 73.90350000000012L357.80899999999974 79.78700000000003L359.9879999999996 84.91300000000024L357.02 89.2130000000003L354.5059999999995 94.16100000000029L343.04599999999994 97.22800000000007L339.39449999999965 97.18350000000044L334.9169999999998 93.05900000000008L331.1944999999997 84.10200000000032L333.7374999999997 78.85100000000023L327.4095 71.35600000000011L321.83599999999956 72.86800000000028L318.09649999999976 71.99900000000014L316.8549999999999 68.34600000000023L312.22399999999993 65.1645000000002L307.73499999999956 74.0220000000005L304.18450000000007 75.99950000000035L303.1194999999997 81.9825000000003L291.91599999999994 90.20150000000001L290.7684999999998 89.75950000000012L278.4895 97.9385000000002L271.2684999999999 101.58950000000004L262.9415 113.14400000000035L255.92899999999986 100.83650000000034L252.86299999999983 98.25300000000027L248.82299999999987 98.73400000000004L245.38999999999987 96.9380000000001L239.76249999999993 98.33500000000015L230.52999999999997 94.16700000000048L232.43299999999977 91.11300000000028L231.83699999999988 83.97950000000037L224.36949999999968 84.55400000000054L227.03550000000007 90.13100000000009L222.31949999999983 99.3565000000001L219.02649999999994 101.5440000000001L218.82399999999961 107.5705000000005L209.62349999999958 116.07150000000047L208.53549999999984 117.85200000000032L208.42749999999967 119.9085000000008L209.74499999999978 121.50699999999972L223.66999999999962 130.38000000000068L224.51499999999953 132.29750000000024L220.1524999999998 136.75200000000075L210.3204999999997 129.6685000000008L205.2724999999998 132.88700000000006L199.53499999999963 133.29499999999996L193.56449999999995 141.43200000000036L193.04399999999987 142.1584999999999L186.7505 149.7425000000004L187.32799999999997 155.4610000000008L201.76249999999982 166.29150000000038L205.08849999999995 163.98849999999982L215.23149999999987 165.82299999999975L217.6339999999999 169.0519999999998L217.17399999999998 175.1479999999998L223.904 182.08950000000016L226.95850000000007 184.83450000000005L229.34799999999996 192.7230000000003L232.79549999999972 199.01099999999985L234.43749999999966 202.56850000000043L233.1864999999999 204.0760000000006L234.14499999999975 213.60349999999983L234.83649999999955 217.63300000000015L239.99199999999973 220.89999999999975L238.17349999999976 226.35000000000048L239.89299999999957 232.12150000000008L243.1729999999999 234.56150000000036L243.24700000000007 238.52199999999982L234.22750000000008 246.6340000000008L234.98850000000004 248.51050000000043L238.73899999999992 247.01500000000067L248.02649999999971 250.7710000000003L255.57349999999985 248.39400000000012L256.31299999999953 252.3444999999998L261.6505000000001 260.9115000000003L261.92549999999983 261.64950000000033L265.37800000000004 268.8360000000006L267.0939999999996 278.6020000000002L273.8454999999999 282.6580000000007L276.5754999999996 283.1279999999998L294.6959999999996 287.14800000000025L296.52199999999993 287.6855000000006L310.6664999999998 294.0125000000006L313.69699999999966 287.63550000000066L318.25199999999995 291.4659999999998L320.03349999999955 299.15599999999984L322.0509999999996 299.26100000000076L329.51300000000003 292.70100000000014L329.9304999999998 289.0080000000006L333.38499999999954 290.40350000000046L336.7165 285.71650000000034L337.8344999999996 280.08200000000045L347.1105 281.72150000000045L353.06600000000003 281.8250000000006L354.726 280.8550000000008L354.86699999999985 273.3634999999998L356.4194999999995 269.62699999999984L351.5029999999996 266.5130000000005L339.9359999999996 264.58950000000016L340.2875 260.6774999999999L338.46199999999953 257.31550000000027L344.0319999999997 258.97650000000056L345.69699999999955 255.32650000000046L351.6999999999996 253.98349999999994L361.4335 256.88000000000045L375.6295 256.70250000000067L373.89449999999954 249.5414999999997L377.5584999999995 243.31600000000037L381.74049999999966 236.6334999999998L385.18699999999967 238.28649999999982L389.06000000000006 237.6350000000008L390.44849999999997 234.20800000000042L387.72599999999954 226.82950000000062L393.40100000000007 226.7009999999999L395.3929999999997 226.93800000000067L396.9475 223.22050000000047L404.1104999999999 219.74850000000004L410.2634999999998 207.2750000000002L405.7234999999997 197.95999999999992L400.15150000000006 195.32200000000046L394.38049999999976 195.11050000000012L393.1574999999998 191.17999999999995L395.3399999999999 181.16350000000068L388.55099999999993 176.46300000000053L388.42949999999973 169.32100000000048L390.9285 164.5089999999999L392.32399999999984 166.00349999999992L396.1699999999996 164.81450000000052L404.0519999999998 166.80300000000045L409.8014999999998 164.7629999999998L417.8895 165.42399999999986L417.86299999999983 163.46900000000062L422.67499999999984 167.1425000000005L428.2484999999997 165.668L441.60799999999995 176.27350000000035L448.21199999999976 174.18450000000064L445.6815 169.1085000000004L451.1944999999997 163.9405000000005L453.5319999999996 158.70400000000075L461.74099999999953 169.64300000000037L466.8844999999999 172.43300000000033L468.19699999999955 165.98250000000064L463.75549999999976 155.4000000000002L466.6059999999999 148.37450000000047L468.40949999999964 148.20899999999995L470.6019999999995 153.1615000000005L472.37049999999954 153.54100000000074L478.5854999999998 148.65250000000003L486.1489999999998 151.55100000000004L489.88699999999994 149.90950000000055L494.8665 156.1510000000004L499.5925 152.93600000000026L501.3069999999999 150.50250000000062L491.32299999999987 141.22000000000014L497.6374999999996 136.72200000000032L501.5794999999997 137.00850000000003L507.3674999999997 141.35050000000035L511.0699999999997 146.02450000000033L517.0459999999997 145.49149999999997L522.645 147.8705000000008L528.9094999999998 143.37950000000035L531.8009999999998 145.0799999999998L534.7264999999999 139.88650000000064L525.6689999999998 136.0090000000008L524.7679999999997 132.1055000000007L527.509 129.0990000000005L524.9194999999997 126.15600000000029L519.2314999999996 124.56650000000025L513.2335 125.30750000000069L510.77949999999987 133.04350000000056L508.1099999999998 130.17800000000022L507.6759999999996 124.40650000000062L505.3384999999997 121.38600000000054L498.193 123.74650000000031L498.9979999999997 121.99599999999975L495.1414999999997 118.03150000000016L495.8979999999997 114.28000000000054L489.37449999999956 110.64100000000053L491.19849999999985 107.5305000000003L497.0259999999996 107.74250000000052L507.14699999999993 89.83450000000005L511.78049999999985 86.90449999999998L514.3224999999995 89.5350000000002L519.837 90.01750000000015L520.7664999999997 76.83300000000031L523.4969999999998 69.83550000000037L517.9235 67.53600000000006L511.92849999999964 67.6585L510.5930000000001 66.15350000000035L494.06849999999963 68.19200000000023L480.2079999999995 60.52100000000053L485.0475 53.946000000000254L476.68199999999956 42.76200000000017L483.27699999999993 35.03500000000031L487.36850000000004 34.84300000000019L485.86250000000007 31.986500000000433L472.97649999999976 36.767000000000394L471.0499999999996 33.334500000000276L465.2999999999997 34.92200000000025L462.22399999999993 41.78200000000004L454.84399999999994 37.98850000000016L453.51549999999975 34.02900000000045L448.29999999999984 35.64400000000035L447.3034999999999 39.1945000000004L443.8974999999999 39.193500000000085L445.9404999999998 42.77250000000038L443.6099999999999 46.14000000000033L439.70550000000003 47.30250000000012L433.80899999999997 42.03100000000006L425.881 40.17250000000047L422.54899999999964 45.16200000000026L413.1484999999998 48.80700000000047L409.4614999999999 47.17750000000024L398.08400000000006 57.07150000000013L396.1935 56.82550000000049L395.8639999999997 59.7120000000001L395.5869999999999 61.294000000000324z">
      <title id="t448">Première circonscription du Tarn-et-Garonne</title>
      <desc id="d448">Cantons de : Caussade, Caylus, Lafrançaise, Molières, Monclar-de-Quercy, Montauban I, Montauban II, Montauban III, Montauban IV, Montauban V, Montauban VI, Montpezat-de-Quercy, Nègrepelisse, Saint-Antonin-Noble-Val, Villebrumier)</desc>
    </path><path class="circo" id="id-082-02" d="M48.718000000000075 208.5575L47.48449999999991 205.3120000000007L41.553499999999985 205.7245000000006L35.338499999999726 200.63000000000045L31.70500000000004 202.5894999999997L24.848499999999945 207.5079999999997L10.683999999999969 215.97750000000076L7.503999999999564 209.12150000000054L8.410000000000082 203.2710000000003L6.135999999999626 200.17350000000022L4.8784999999998035 194.75100000000054L1.2644999999997708 194.9505000000005L0 189.31449999999984L3.718499999999949 182.3360000000008L3.8649999999995543 178.33000000000027L6.576499999999896 171.51700000000062L15.356499999999755 164.36550000000068L18.279999999999745 166.71350000000018L25.363999999999578 168.38000000000022L23.059499999999957 163.43450000000018L24.929500000000075 156.37150000000076L20.75049999999976 149.0450000000004L24.505499999999643 147.6275000000004L34.67699999999979 148.96000000000015L49.51449999999966 156.22000000000014L50.5359999999996 158.03650000000005L55.32899999999984 158.66350000000068L60.005499999999756 155.53600000000017L60.158500000000004 151.72450000000083L61.6904999999997 150.5845000000005L65.09349999999984 152.2584999999998L65.66100000000006 148.63850000000014L63.5145 145.45900000000017L62.185499999999934 138.07000000000073L64.12800000000004 134.75300000000004L64.22849999999983 132.74450000000058L60.91099999999983 130.5660000000006L55.826999999999884 133.5045000000008L53.12749999999994 130.7925000000006L48.75849999999957 130.0735000000003L48.777000000000044 124.46500000000071L51.33199999999988 119.4319999999999L51.886499999999955 119.28850000000068L69.78749999999991 121.02199999999982L80.89249999999993 97.18850000000032L76.57899999999984 92.43150000000014L82.40349999999978 84.72950000000026L80.27299999999968 75.14050000000054L85.82949999999983 77.03100000000006L90.0509999999997 70.5925000000002L79.02699999999982 62.72950000000037L78.4594999999996 60.79900000000009L75.44849999999997 54.48350000000005L66.36899999999969 57.75150000000053L61.579999999999586 51.22800000000041L55.4789999999997 50.29600000000016L57.63749999999959 45.306000000000495L57.10549999999955 41.79050000000018L61.379499999999894 38.93550000000005L66.81349999999952 28.329500000000394L65.07000000000005 26.138500000000136L65.64449999999965 22.47850000000028L63.07649999999967 17.381500000000187L65.89799999999968 12.343500000000063L67.86699999999996 7.530500000000302L73.07500000000005 6.4920000000000755L76.89999999999998 5.6245000000001255L78.51549999999975 9.437500000000227L84.3119999999999 15.025000000000546L85.99899999999991 29.416500000000383L86.47850000000005 29.40400000000011L87.21249999999998 23.578000000000543L89.80799999999988 20.395000000000323L103.77949999999998 20.43550000000039L109.5659999999998 14.703500000000531L118.92899999999997 18.10200000000009L122.95549999999992 17.615000000000123L130.89499999999987 18.53050000000053L136.56450000000007 16.53850000000034L136.74849999999992 10.527000000000157L138.20299999999975 9.136500000000183L146.22699999999952 7.30700000000013L154.45799999999963 1.1795000000000755L167.27149999999995 0L168.09849999999983 11.546500000000037L166.61 12.914500000000544L162.5324999999998 12.86200000000008L154.91949999999974 16.000000000000227L150.91199999999958 15.523500000000467L148.84950000000003 21.349500000000035L145.48749999999984 23.476L147.91650000000004 26.686500000000137L151.87899999999956 26.666000000000167L155.265 28.88500000000022L159.26699999999983 33.460000000000036L157.49349999999993 41.12600000000043L162.12249999999983 45.043000000000006L163.18600000000004 46.49400000000014L166.44499999999994 45.70450000000051L170.02899999999954 46.6840000000002L175.31999999999982 51.405000000000314L178.80749999999978 49.91100000000017L182.82099999999957 53.405500000000075L187.038 49.521500000000174L186.38899999999978 58.86200000000031L189.34399999999982 63.63200000000006L195.68399999999997 67.17450000000042L197.36599999999953 66.19500000000016L201.37200000000007 73.05200000000013L204.69249999999988 68.42300000000023L206.68049999999994 68.23950000000025L212.1089999999998 70.69900000000018L214.74999999999966 75.95200000000034L217.42799999999988 73.76000000000033L219.4939999999997 64.29100000000005L220.77549999999974 65.89350000000024L226.87399999999968 66.10050000000001L231.11899999999991 61.678L238.46699999999998 58.75500000000045L240.1769999999999 59.24200000000042L236.94249999999954 70.86300000000051L239.73199999999963 77.7600000000001L231.83699999999988 83.97950000000037L224.36949999999968 84.55400000000054L227.03550000000007 90.13100000000009L222.31949999999983 99.3565000000001L219.02649999999994 101.5440000000001L218.82399999999961 107.5705000000005L209.62349999999958 116.07150000000047L208.53549999999984 117.85200000000032L208.42749999999967 119.9085000000008L209.74499999999978 121.50699999999972L223.66999999999962 130.38000000000068L224.51499999999953 132.29750000000024L220.1524999999998 136.75200000000075L210.3204999999997 129.6685000000008L205.2724999999998 132.88700000000006L199.53499999999963 133.29499999999996L193.56449999999995 141.43200000000036L193.04399999999987 142.1584999999999L186.7505 149.7425000000004L187.32799999999997 155.4610000000008L201.76249999999982 166.29150000000038L205.08849999999995 163.98849999999982L215.23149999999987 165.82299999999975L217.6339999999999 169.0519999999998L217.17399999999998 175.1479999999998L223.904 182.08950000000016L226.95850000000007 184.83450000000005L229.34799999999996 192.7230000000003L232.79549999999972 199.01099999999985L234.43749999999966 202.56850000000043L233.1864999999999 204.0760000000006L234.14499999999975 213.60349999999983L234.83649999999955 217.63300000000015L239.99199999999973 220.89999999999975L238.17349999999976 226.35000000000048L239.89299999999957 232.12150000000008L243.1729999999999 234.56150000000036L243.24700000000007 238.52199999999982L234.22750000000008 246.6340000000008L234.98850000000004 248.51050000000043L238.73899999999992 247.01500000000067L248.02649999999971 250.7710000000003L255.57349999999985 248.39400000000012L256.31299999999953 252.3444999999998L261.6505000000001 260.9115000000003L261.92549999999983 261.64950000000033L265.37800000000004 268.8360000000006L267.0939999999996 278.6020000000002L273.8454999999999 282.6580000000007L276.5754999999996 283.1279999999998L294.6959999999996 287.14800000000025L296.52199999999993 287.6855000000006L310.6664999999998 294.0125000000006L305.7114999999999 300.62250000000006L301.764 310.02999999999986L301.2624999999997 308.1509999999997L294.14349999999956 310.5425000000008L288.67399999999975 309.1130000000004L284.631 302.65600000000006L280.85649999999987 301.70300000000054L277.1555000000001 303.3494999999999L266.17399999999975 298.67650000000083L262.23449999999957 302.8300000000007L262.3505 306.6385000000008L259.41899999999976 309.08299999999997L264.5954999999998 317.24650000000054L263.485 320.5430000000007L253.47199999999987 321.27350000000035L246.72049999999956 317.2520000000003L238.28049999999962 321.59299999999973L235.8449999999999 324.5999999999998L239.76200000000006 325.59250000000077L244.61199999999963 331.94800000000043L251.91949999999963 329.38450000000046L261.59899999999993 330.00249999999994L263.9839999999998 341.32700000000057L258.7344999999999 342.1735000000007L256.8969999999996 345.26099999999985L249.6535 346.44799999999975L243.4159999999997 350.97000000000037L239.27649999999971 351.2815000000006L238.05799999999977 351.58900000000074L230.74549999999988 353.6714999999998L229.10300000000007 350.50650000000076L224.3934999999999 352.27450000000033L225.63349999999957 356.0944999999998L228.8689999999997 357.96850000000006L227.56699999999967 359.51250000000016L201.39899999999955 370.1580000000007L200.23699999999963 368.4944999999999L198.95999999999958 364.79899999999986L203.60099999999989 361.0269999999997L202.66399999999976 357.1904999999998L188.82450000000006 354.95299999999986L185.4894999999999 348.87650000000065L180.24200000000008 346.2680000000006L177.85049999999956 340.66750000000013L172.42249999999956 338.3295000000004L171.43699999999967 342.2710000000001L164.34149999999988 346.0759999999999L159.87799999999993 352.7720000000005L158.11549999999954 353.4925000000004L155.6174999999996 350.63699999999983L156.89399999999978 349.21250000000043L155.96099999999979 347.5385L152.23700000000008 346.669L146.37249999999995 341.8435000000005L145.87249999999983 342.3545000000007L136.09849999999994 352.28999999999985L130.08449999999982 351.74450000000036L126.59449999999993 349.6790000000004L111.11299999999972 352.4225000000007L105.68699999999978 354.0559999999999L103.52999999999952 357.0790000000005L98.90949999999975 359.3655000000007L95.69199999999967 357.47700000000066L92.29299999999967 357.74550000000033L91.40899999999988 358.8974999999999L86.34950000000003 356.25200000000007L78.53149999999971 356.7970000000008L75.87949999999978 359.7870000000006L70.18949999999961 360.7065000000006L67.31400000000008 358.2130000000001L71.00999999999999 345.1855000000006L74.74899999999991 340.5215000000004L79.15999999999997 332.59799999999984L66.44199999999955 327.9610000000008L66.50199999999984 322.4475000000001L73.86199999999974 322.8985000000006L70.21050000000002 315.55150000000083L62.529499999999985 308.8945000000007L61.18349999999964 300.88400000000036L62.37599999999986 297.59749999999997L68.73499999999979 294.38500000000033L70.44349999999952 293.16050000000075L63.88849999999991 290.0214999999997L63.448999999999955 286.85250000000053L57.96299999999974 284.96050000000025L53.45299999999952 278.852L49.79249999999979 280.12549999999976L48.12449999999956 279.13550000000043L46.93749999999966 282.39250000000027L43.10799999999972 283.0869999999999L34.44050000000004 277.7905000000004L29.916000000000054 273.4690000000006L13.21550000000002 279.4639999999998L9.196999999999775 269.7115000000002L9.011999999999603 265.79499999999996L19.069499999999948 260.1204999999999L19.64749999999981 258.2435000000004L22.656000000000063 253.48650000000077L22.350999999999885 251.46450000000016L26.346999999999525 246.92850000000078L27.900999999999954 247.1724999999998L29.509499999999775 244.6120000000002L29.797499999999673 244.0990000000005L37.38499999999988 234.97450000000015L36.65300000000002 230.8880000000005L33.369500000000016 228.13249999999982L35.52199999999971 224.84399999999994L32.14849999999956 220.01000000000033L34.412999999999556 217.1260000000001L38.05949999999996 216.4500000000004L42.98000000000002 219.1250000000008L46.916499999999814 213.12050000000056L50.55900000000008 212.86700000000053L53.44699999999989 210.6215000000003L48.718000000000075 208.5575z">
      <title id="t449">Deuxième circonscription du Tarn-et-Garonne</title>
      <desc id="d449">Cantons de : Auvillar, Beaumont-de-Lomagne, Bourg-de-Visa, Castelsarrasin I, Castelsarrasin II, Grisolles, Lauzerte, Lavit, Moissac I, Moissac II, Montech, Montaigu-de-Quercy, Saint-Nicolas-de-la-Grave, Valence, Verdun-sur-Garonne</desc>
    </path></svg>