<svg xmlns="http://www.w3.org/2000/svg" version="1.1" xmlns:xlink="http://www.w3.org/1999/xlink" xmlns:svgjs="http://svgjs.dev/svgjs" width="542.6580000000001" height="482.59000000000015" fill="#eeeeee" stroke="#cccccc" xmlns:sodipodi="http://sodipodi.sourceforge.net/DTD/sodipodi-0.dtd"><path class="circo" id="id-083-01" d="M115.52799999999934 411.2645000000009L116.50549999999953 405.30650000000037L112.24050000000034 401.18600000000015L108.39200000000005 402.31700000000046L105.61000000000035 405.2590000000009L97.93000000000006 404.5200000000011L98.11050000000023 402.1275000000003L102.10399999999936 398.87300000000096L106.07049999999958 397.7565000000004L103.96799999999985 396.7605000000003L105.90850000000046 393.78200000000106L110.36449999999945 394.27650000000085L109.00099999999952 391.7650000000003L110.62850000000026 391.22350000000097L110.77400000000011 388.9515000000006L109.72999999999956 388.22050000000104L112.01649999999972 384.2560000000003L116.02949999999964 383.4725000000003L121.06400000000008 382.83450000000016L124.59899999999948 383.75200000000063L126.6599999999994 384.6230000000003L131.85799999999972 383.451L135.86149999999975 385.8635000000004L137.19100000000026 393.5730000000001L140.13100000000009 398.58100000000036L139.05399999999986 400.2800000000002L136.91349999999943 410.11350000000107L115.52799999999934 411.2645000000009z">
      <title id="t450">Première circonscription du Var</title>
      <desc id="d450">Cantons de : Toulon I, Toulon IV, Toulon V, Toulon VI, Toulon VII, Toulon VIII, Toulon IX</desc>
    </path><path class="circo" id="id-083-02" d="M61.191499999999905 379.57550000000083L63.48100000000045 373.95650000000046L75.27100000000019 367.0780000000002L84.16650000000004 356.2340000000006L81.48850000000039 346.52200000000107L86.12099999999941 343.08950000000095L89.90749999999935 347.867500000001L100.10850000000005 348.1155000000001L109.97250000000008 345.5715000000009L120.13799999999947 346.35400000000004L115.74799999999982 337.9110000000003L123.7360000000001 332.8740000000005L133.16799999999944 332.39400000000046L133.14700000000016 328.3540000000005L140.14699999999948 324.6695000000011L143.57700000000023 319.77250000000026L146.96000000000026 321.9665000000009L152.95999999999935 322.47400000000084L152.68550000000005 326.25150000000076L155.86450000000013 330.4595000000006L153.5209999999995 337.5590000000011L160.64949999999953 343.92400000000066L169.68549999999937 346.7360000000008L171.23849999999948 352.43400000000065L174.27349999999933 354.96650000000045L178.12099999999987 354.46600000000103L185.71950000000015 356.7585000000008L186.77799999999934 362.5780000000009L184.9490000000003 368.3090000000004L181.58249999999953 375.5525L177.16999999999985 379.62800000000016L171.52450000000044 384.26950000000033L164.23599999999965 385.2085000000011L156.69149999999945 382.0590000000004L152.88400000000024 391.61300000000097L139.05399999999986 400.2800000000002L140.13100000000009 398.58100000000036L137.19100000000026 393.5730000000001L135.86149999999975 385.8635000000004L131.85799999999972 383.451L126.6599999999994 384.6230000000003L124.59899999999948 383.75200000000063L121.06400000000008 382.83450000000016L116.02949999999964 383.4725000000003L112.01649999999972 384.2560000000003L109.72999999999956 388.22050000000104L110.77400000000011 388.9515000000006L110.62850000000026 391.22350000000097L109.01550000000043 391.67850000000044L110.38049999999998 394.26250000000095L105.90850000000046 393.78200000000106L103.96799999999985 396.7605000000003L106.07049999999958 397.7565000000004L102.10399999999936 398.87300000000096L98.11050000000023 402.1275000000003L97.93000000000006 404.5200000000011L97.1995000000004 403.93800000000056L81.73000000000002 401.413500000001L70.59549999999945 402.0450000000005L71.85699999999997 390.24950000000104L68.32599999999957 385.8395000000007L67.65750000000025 379.9535000000003L61.191499999999905 379.57550000000083z">
      <title id="t451">Deuxième circonscription du Var</title>
      <desc id="d451">Cantons de : Ollioules (moins les communes de Sanary-sur-Mer et Bandol), Toulon II, Toulon III, Solliès-Pont, La Valette-du-Var</desc>
    </path><path class="circo" id="id-083-03" d="M194.30399999999963 339.6210000000008L190.71050000000014 344.46500000000015L190.08550000000014 352.59000000000015L185.71050000000014 356.80900000000065L186.80399999999963 362.59000000000015L184.92899999999963 368.3710000000008L181.64800000000014 375.55900000000065L177.1169999999995 379.6210000000008L171.4919999999995 384.30900000000065L164.30399999999963 385.2460000000008L156.64800000000014 382.1210000000008L152.89800000000014 391.65250000000015L138.9919999999995 400.2460000000008L136.96050000000014 410.09000000000015L142.89800000000014 411.02750000000015L148.83550000000014 412.1210000000008L155.08550000000014 416.4960000000008L156.17899999999963 418.21500000000015L153.52300000000014 423.3710000000008L153.9919999999995 425.40250000000015L159.6169999999995 426.96500000000015L167.58550000000014 426.02750000000015L180.39800000000014 421.34000000000015L192.1169999999995 423.21500000000015L199.14800000000014 426.96500000000015L201.80399999999963 442.90250000000015L198.67899999999963 448.05900000000065L188.83550000000014 448.21500000000015L185.55399999999963 450.40250000000015L188.3669999999995 455.40250000000015L195.39800000000014 451.80900000000065L196.96050000000014 453.21500000000015L202.7419999999995 452.1210000000008L207.42899999999963 455.8710000000008L209.46050000000014 456.18400000000065L215.2419999999995 454.15250000000015L215.8669999999995 452.59000000000015L210.71050000000014 449.30900000000065L209.46050000000014 441.34000000000015L211.64800000000014 427.1210000000008L215.71050000000014 417.7460000000008L222.42899999999963 410.09000000000015L231.33550000000014 404.93400000000065L245.39800000000014 406.34000000000015L261.33550000000014 401.65250000000015L267.1169999999995 391.02750000000015L269.92899999999963 366.80900000000065L281.80399999999963 364.30900000000065L283.3669999999995 362.90250000000015L283.67899999999963 356.65250000000015L276.64800000000014 352.90250000000015L268.67899999999963 355.2460000000008L252.7419999999995 353.52750000000015L248.21050000000014 346.80900000000065L233.21050000000014 352.7460000000008L215.08550000000014 354.15250000000015L203.05399999999963 351.65250000000015L205.71050000000014 348.84000000000015L204.30399999999963 345.2460000000008L201.64800000000014 342.43400000000065L194.30399999999963 339.6210000000008zM360.39800000000014 441.4960000000008L359.46050000000014 441.65250000000015L352.58550000000014 443.9960000000008L348.52300000000014 444.46500000000015L347.58550000000014 444.6210000000008L345.71050000000014 445.8710000000008L344.92899999999963 446.4960000000008L342.7419999999995 449.93400000000065L342.27300000000014 450.8710000000008L340.39800000000014 455.55900000000065L332.7419999999995 457.90250000000015L330.2419999999995 461.02750000000015L330.55399999999963 463.05900000000065L329.92899999999963 466.96500000000015L331.80399999999963 469.15250000000015L334.92899999999963 466.80900000000065L337.58550000000014 462.43400000000065L342.27300000000014 463.68400000000065L345.8669999999995 462.27750000000015L346.80399999999963 460.40250000000015L347.1169999999995 457.43400000000065L349.77300000000014 454.30900000000065L352.42899999999963 448.68400000000065L354.14800000000014 447.59000000000015L359.30399999999963 447.1210000000008L361.96050000000014 445.71500000000015L362.42899999999963 444.77750000000015L362.1169999999995 443.84000000000015L361.33550000000014 441.96500000000015L360.39800000000014 441.4960000000008zM248.67899999999963 457.59000000000015L247.7419999999995 457.90250000000015L245.39800000000014 464.77750000000015L243.83550000000014 466.02750000000015L238.83550000000014 465.09000000000015L237.1169999999995 468.68400000000065L234.77300000000014 470.55900000000065L230.71050000000014 471.18400000000065L222.42899999999963 467.43400000000065L219.46050000000014 468.21500000000015L218.67899999999963 468.84000000000015L215.71050000000014 471.65250000000015L215.2419999999995 472.43400000000065L216.02300000000014 472.7460000000008L227.27300000000014 477.43400000000065L228.83550000000014 478.84000000000015L229.30399999999963 481.80900000000065L230.08550000000014 482.59000000000015L234.14800000000014 481.96500000000015L237.1169999999995 478.05900000000065L242.7419999999995 476.18400000000065L247.1169999999995 473.68400000000065L251.02300000000014 473.21500000000015L251.80399999999963 472.59000000000015L252.7419999999995 469.6210000000008L251.02300000000014 461.80900000000065L249.6169999999995 460.40250000000015L248.67899999999963 457.59000000000015zM319.14800000000014 461.65250000000015L312.42899999999963 464.46500000000015L309.46050000000014 464.77750000000015L308.52300000000014 465.2460000000008L308.05399999999963 467.1210000000008L303.3669999999995 471.18400000000065L304.30399999999963 473.84000000000015L310.39800000000014 473.3710000000008L314.6169999999995 476.34000000000015L318.05399999999963 474.46500000000015L323.52300000000014 467.1210000000008L323.83550000000014 465.2460000000008L321.33550000000014 465.55900000000065L320.8669999999995 462.59000000000015L320.08550000000014 461.80900000000065L319.14800000000014 461.65250000000015z">
      <title id="t452">Troisième circonscription du Var</title>
      <desc id="d452">Cantons de : La Crau, La Garde, Hyères Est, Hyères Ouest</desc>
    </path><path class="circo" id="id-083-04" d="M204.27249999999958 292.56900000000087L204.87799999999993 286.5400000000011L203.18449999999984 278.61450000000104L205.1890000000003 268.77200000000016L204.615 262.8870000000006L208.51249999999936 262.0580000000007L216.37950000000046 256.2740000000008L220.2909999999997 255.9260000000006L221.47249999999985 250.7935000000009L212.64299999999935 247.64200000000073L217.6400000000001 237.48450000000048L216.54249999999934 233.69550000000004L217.03149999999937 230.13300000000072L220.25549999999953 228.41400000000021L224.17400000000043 216.8640000000005L227.1244999999999 214.02200000000107L229.06150000000025 213.3890000000008L230.71249999999964 209.69800000000077L245.68649999999934 203.82100000000037L235.63300000000027 197.1605000000011L234.97150000000033 187.29200000000105L236.83250000000044 183.660000000001L241.63850000000025 187.11200000000076L245.5729999999994 187.43150000000014L246.2805000000003 191.33750000000077L247.9385000000002 192.43400000000065L249.87600000000043 192.8570000000002L252.8615000000002 190.2900000000011L260.1019999999994 192.63650000000098L267.8155000000004 192.6685000000009L269.3150000000003 191.3650000000007L269.13749999999936 185.89250000000106L274.7595000000001 180.53600000000074L277.4554999999998 173.14100000000053L284.43149999999946 170.1845000000003L300.35949999999957 172.71450000000073L303.7919999999997 170.64950000000067L312.12350000000015 176.40150000000062L318.03300000000036 177.64400000000023L318.922 175.81450000000018L328.79850000000033 182.45450000000005L330.21099999999933 182.13600000000042L337.3580000000004 179.1930000000002L337.17449999999985 183.05300000000102L340.36050000000046 185.32950000000028L361.2270000000001 190.42650000000094L367.64800000000037 192.02150000000074L370.5039999999997 199.65000000000032L370.6849999999997 209.74000000000046L374.4979999999998 214.22900000000027L372.4675000000002 228.29950000000053L374.08000000000015 236.164500000001L376.81799999999953 237.8525000000002L376.5835000000004 240.51250000000095L382.1500000000003 242.4445000000003L391.4224999999999 239.23050000000103L392.6064999999994 237.65100000000075L389.7849999999994 232.48100000000022L394.9789999999996 226.64150000000063L399.60450000000037 230.59400000000096L410.5880000000002 235.7725000000005L414.88699999999994 240.13200000000097L422.1704999999997 249.9720000000002L423.9099999999996 255.8290000000011L427.7139999999997 260.476000000001L426.7420000000004 270.4900000000009L435.7439999999997 273.37350000000015L430.0490000000002 279.0275000000008L428.818 285.005000000001L429.8140000000001 288.9605000000006L414.76099999999974 293.9790000000005L409.6309999999994 299.69550000000027L394.597 309.4380000000001L395.1649999999995 315.2825000000007L394.40950000000043 316.70450000000073L398.33599999999933 319.3850000000009L410.8574999999996 317.5470000000007L419.5479999999998 312.71400000000085L428.5019999999997 317.18300000000113L430.8280000000002 311.75100000000043L434.32249999999954 310.7210000000009L441.6369999999995 317.63450000000034L438.65800000000036 325.1570000000004L433.8760000000002 328.90550000000076L428.5770000000002 330.9540000000004L427.36350000000016 341.00400000000036L428.5540000000003 348.97950000000037L434.0485000000001 354.8225000000002L433.91250000000014 356.85350000000085L426.11549999999966 358.4895000000006L419.6889999999996 363.3355000000006L418.2359999999994 371.16100000000074L420.62149999999974 374.43050000000085L415.20899999999983 372.2860000000003L409.6875 378.1275000000005L406.41449999999963 375.96250000000055L401.5745000000004 367.07700000000045L398.42949999999973 364.59800000000087L384.5174999999995 362.18000000000075L380.53750000000036 362.9970000000003L374.18249999999944 367.9430000000002L373.5050000000001 375.4950000000008L367.59649999999965 376.5880000000004L355.7929999999999 384.28150000000073L354.1395 383.13300000000027L343.6410000000001 380.8330000000001L336.3225 383.25450000000046L333.09349999999995 387.80700000000024L328.2785000000001 384.48150000000055L310.6359999999995 388.25300000000084L306.1754999999994 392.2455000000002L302.2649999999999 393.1690000000003L300.47950000000014 398.92700000000104L298.9850000000001 404.47250000000054L299.5449999999994 410.59150000000045L301.6044999999997 414.1020000000003L300.51349999999957 419.99700000000075L284.4119999999998 418.30600000000004L278.8144999999997 409.96350000000007L268.7514999999996 408.97500000000036L267.4985000000004 407.34500000000025L267.5864999999999 405.4675000000009L261.33950000000027 401.7000000000007L267.1889999999996 391.00250000000074L269.9440000000004 366.83250000000044L281.8624999999997 364.2640000000006L283.365 362.8525000000002L283.74400000000037 356.68100000000095L276.6399999999999 352.9640000000006L268.7365 355.23100000000113L252.69900000000007 353.48800000000097L248.1669999999997 346.776000000001L247.76550000000043 334.46600000000103L250.7899999999995 329.2495000000008L251.22449999999958 323.23600000000056L250.88600000000042 318.09400000000096L248.64149999999995 310.5020000000002L242.84800000000018 305.2600000000007L238.1205 294.38900000000103L235.29999999999973 291.58100000000104L235.65500000000043 285.93150000000037L231.92549999999983 284.7115000000008L215.9095000000002 287.324000000001L212.69750000000045 292.44350000000054L208.9345000000003 293.78600000000006L204.27249999999958 292.56900000000087z">
      <title id="t453">Quatrième circonscription du Var</title>
      <desc id="d453">Cantons de : Besse-sur-Issole, Collobrières, Grimaud, Lorgues, Le Luc, Saint-Tropez</desc>
    </path><path class="circo" id="id-083-05" d="M475.97999999999956 154.59150000000022L474.04649999999947 151.76300000000083L468.2140000000004 150.55900000000065L461.9044999999994 146.40750000000025L456.98650000000043 149.78650000000016L443.12599999999975 150.4995000000008L431.19500000000016 148.88950000000023L420.38350000000037 154.1590000000008L419.4769999999994 159.33450000000107L417.95549999999935 160.26750000000106L412.61799999999994 157.44400000000041L400.57249999999954 156.1875000000009L396.3149999999996 162.81000000000063L392.7184999999997 163.23200000000043L391.1189999999999 166.84950000000072L396.16750000000025 175.5880000000002L396.85050000000047 185.46100000000024L382.9219999999998 187.23900000000071L367.64800000000037 192.02150000000074L370.5039999999997 199.65000000000032L370.6849999999997 209.74000000000046L374.4979999999998 214.22900000000027L372.4675000000002 228.29950000000053L374.08000000000015 236.164500000001L376.81799999999953 237.8525000000002L376.5835000000004 240.51250000000095L382.1500000000003 242.4445000000003L391.4224999999999 239.23050000000103L392.6064999999994 237.65100000000075L389.7849999999994 232.48100000000022L394.9789999999996 226.64150000000063L399.60450000000037 230.59400000000096L410.5880000000002 235.7725000000005L414.88699999999994 240.13200000000097L422.1704999999997 249.9720000000002L423.9099999999996 255.8290000000011L427.7139999999997 260.476000000001L426.7420000000004 270.4900000000009L435.7439999999997 273.37350000000015L449.1930000000002 270.51150000000007L450.98799999999983 263.22700000000054L449.4979999999998 257.53400000000056L456.39749999999935 245.7215000000008L455.69600000000037 241.8850000000009L458.33650000000034 234.32350000000042L463.20100000000025 227.9365000000007L470.3845000000001 224.51650000000086L480.62099999999987 233.63000000000056L497.5154999999995 228.56700000000046L501.43550000000005 229.2750000000001L508.8589999999999 231.9035000000008L511.06750000000034 228.61850000000004L511.42600000000016 220.61900000000037L513.3100000000002 219.89950000000022L518.1370000000004 223.33650000000034L524.1150000000005 222.4775000000011L527.4889999999994 215.71250000000077L537.3810000000003 208.84250000000065L538.7710000000004 196.69650000000047L542.6580000000001 192.00000000000045L534.9779999999998 190.27100000000019L533.5479999999995 184.62750000000028L529.9895000000004 183.21050000000014L521.6215 178.83750000000077L526.2884999999994 167.47050000000058L525.9995000000004 165.42850000000044L519.4560000000001 161.30300000000034L512.6144999999997 161.6420000000005L508.0449999999996 158.0060000000003L504.0499999999997 158.23300000000017L494.51349999999934 148.20850000000064L484.1425000000004 142.85100000000057L480.2424999999994 152.95850000000087L476.75299999999993 152.84350000000018L475.97999999999956 154.59150000000022z">
      <title id="t454">Cinquième circonscription du Var</title>
      <desc id="d454">Cantons de : Fréjus, Le Muy, Saint-Raphaël</desc>
    </path><path class="circo" id="id-083-06" d="M55.286499999999705 377.5145000000009L46.670500000000175 379.7275000000002L45.81549999999993 379.3780000000004L37.33150000000023 376.31700000000023L35.47749999999951 376.5880000000004L34.62850000000003 379.982500000001L30.344499999999925 382.9955000000007L29.322499999999536 392.6535000000001L26.374499999999443 387.4090000000001L16.57100000000014 387.6640000000009L11.662000000000035 381.3040000000001L11.589999999999918 379.26700000000096L15.524000000000342 374.66100000000097L15.078999999999496 370.69150000000036L12.286000000000286 367.8315000000009L6.35599999999954 367.7500000000009L8.090499999999565 361.1200000000008L9.121999999999844 345.91100000000097L10.836500000000342 334.987000000001L20.22550000000024 331.3700000000006L18.827999999999747 328.16100000000006L34.56699999999955 319.44000000000074L44.20499999999947 316.37800000000084L44.997999999999365 307.61550000000057L40.15300000000025 304.1820000000007L34.03450000000021 296.20500000000106L29.615499999999884 287.17250000000035L14.501500000000078 289.74300000000085L10.540999999999485 286.19550000000004L5.203999999999951 285.9770000000003L11.068000000000211 284.55150000000003L14.03850000000034 279.31550000000016L13.27099999999973 273.36200000000076L19.85149999999976 265.75950000000034L15.833999999999833 259.0280000000007L13.751499999999623 244.84050000000025L10.994499999999334 239.35500000000047L19.696500000000015 234.19250000000034L27.912999999999784 233.91200000000026L39.55799999999954 237.98250000000053L51.84949999999958 232.97450000000026L54.93050000000039 230.72950000000105L55.85900000000038 227.01200000000085L55.652000000000044 226.92550000000097L49.760499999999865 226.24850000000038L40.22899999999936 218.81200000000035L29.87600000000043 199.60500000000025L22.671000000000276 192.6285000000007L17.800999999999476 190.76350000000048L19.677500000000236 183.04950000000076L24.378000000000384 179.6085000000005L25.889499999999543 159.74800000000073L28.966500000000224 150.2685000000008L32.532999999999674 148.750500000001L41.42349999999965 152.99900000000093L49.13249999999948 154.4315000000006L53.7945000000002 157.98450000000003L67.29799999999955 154.8230000000001L72.57349999999974 152.04000000000065L77.97400000000039 155.18100000000004L83.29200000000014 170.077L82.93549999999982 182.029L88.60900000000015 187.33050000000048L102.20199999999977 187.25900000000024L109.31299999999965 183.8295000000005L114.11399999999958 185.89050000000043L112.17049999999972 193.69750000000067L112.83450000000016 197.63450000000034L109.40050000000042 209.13600000000088L130.36500000000046 214.520500000001L140.71950000000015 220.54000000000087L140.8325000000002 212.25000000000023L144.77899999999977 198.30400000000054L151.26549999999952 202.36900000000105L162.9155000000003 205.1425000000006L170.8280000000002 203.60900000000015L174.5825000000002 199.1895000000011L179.9445000000003 201.9405000000006L189.60849999999937 203.7435000000005L194.8815000000002 201.36900000000082L199.44150000000036 211.89300000000003L203.2299999999998 210.52050000000008L206.2805000000003 212.93450000000007L224.1674999999998 211.39850000000024L227.1244999999999 214.02200000000107L224.17400000000043 216.8640000000005L220.25549999999953 228.41400000000021L217.03149999999937 230.13300000000072L216.54249999999934 233.69550000000004L217.6400000000001 237.48450000000048L212.64299999999935 247.64200000000073L221.47249999999985 250.7935000000009L220.2909999999997 255.9260000000006L216.37950000000046 256.2740000000008L208.51249999999936 262.0580000000007L204.615 262.8870000000006L205.1890000000003 268.77200000000016L203.18449999999984 278.61450000000104L204.87799999999993 286.5400000000011L204.27249999999958 292.56900000000087L208.9345000000003 293.78600000000006L212.69750000000045 292.44350000000054L215.9095000000002 287.324000000001L231.92549999999983 284.7115000000008L235.65500000000043 285.93150000000037L235.29999999999973 291.58100000000104L238.1205 294.38900000000103L242.84800000000018 305.2600000000007L248.64149999999995 310.5020000000002L250.88600000000042 318.09400000000096L251.22449999999958 323.23600000000056L250.7899999999995 329.2495000000008L247.76550000000043 334.46600000000103L248.1669999999997 346.776000000001L233.1759999999997 352.7965000000006L215.15700000000038 354.1250000000002L203.0740000000003 351.64600000000064L205.70600000000013 348.86400000000094L204.3705 345.2040000000011L201.61050000000046 342.36350000000016L194.22649999999976 339.61850000000027L190.63999999999965 344.49100000000044L190.0184999999999 352.61350000000107L185.71950000000015 356.7585000000008L178.12099999999987 354.46600000000103L174.27349999999933 354.96650000000045L171.23849999999948 352.43400000000065L169.68549999999937 346.7360000000008L160.64949999999953 343.92400000000066L153.5209999999995 337.5590000000011L155.86450000000013 330.4595000000006L152.68550000000005 326.25150000000076L152.95999999999935 322.47400000000084L146.96000000000026 321.9665000000009L143.57700000000023 319.77250000000026L140.14699999999948 324.6695000000011L133.14700000000016 328.3540000000005L133.16799999999944 332.39400000000046L123.7360000000001 332.8740000000005L115.74799999999982 337.9110000000003L120.13799999999947 346.35400000000004L109.97250000000008 345.5715000000009L100.10850000000005 348.1155000000001L89.90749999999935 347.867500000001L86.12099999999941 343.08950000000095L81.48850000000039 346.52200000000107L84.16650000000004 356.2340000000006L75.27100000000019 367.0780000000002L63.48100000000045 373.95650000000046L61.191499999999905 379.57550000000083L55.286499999999705 377.5145000000009z">
      <title id="t455">Sixième circonscription du Var</title>
      <desc id="d455">Cantons de : Le Beausset, Brignoles, Cuers, La Roquebrussanne, Saint-Maximin-la-Sainte-Beaume</desc>
    </path><path class="circo" id="id-083-07" d="M39.891999999999825 395.7155L38.8474999999994 394.07050000000027L29.322499999999536 392.6535000000001L30.344499999999925 382.9955000000007L34.62850000000003 379.982500000001L35.47749999999951 376.5880000000004L37.33150000000023 376.31700000000023L45.81549999999993 379.3780000000004L46.670500000000175 379.7275000000002L55.286499999999705 377.5145000000009L61.191499999999905 379.57550000000083L67.65750000000025 379.9535000000003L68.32599999999957 385.8395000000007L71.85699999999997 390.24950000000104L70.59549999999945 402.0450000000005L81.73000000000002 401.413500000001L97.1995000000004 403.93800000000056L97.09049999999934 411.5210000000002L106.37849999999958 413.91650000000027L106.91900000000032 415.8280000000002L101.60200000000032 424.0490000000011L104.96250000000032 426.20000000000005L109.86250000000041 423.21750000000065L115.23349999999937 425.1610000000005L118.89850000000024 423.5750000000007L122.55250000000046 425.1050000000009L123.89999999999986 426.60600000000045L124.58599999999933 428.50650000000087L124.24049999999966 430.49900000000093L122.78999999999996 431.9005000000004L116.91749999999956 430.7120000000009L109.23750000000041 433.11300000000074L104.82899999999972 429.4150000000002L101.86399999999935 426.87650000000076L97.98599999999965 427.62350000000083L91.7515000000003 432.7785000000006L86.55949999999962 443.63500000000045L80.88200000000029 443.4240000000011L79.33350000000019 444.72900000000095L73.55649999999969 443.0810000000008L67.07649999999944 435.51450000000045L59.85900000000015 431.8960000000004L59.04300000000035 430.055000000001L62.879500000000235 425.4320000000007L65.06599999999935 417.6270000000011L64.16050000000041 413.72400000000084L66.21049999999968 410.2350000000001L63.89850000000024 404.77100000000064L58.17000000000007 405.82500000000095L48.52800000000002 404.1420000000005L52.21549999999979 395.17900000000054L48.20249999999987 391.2060000000008L39.891999999999825 395.7155z">
      <title id="t456">Septième circonscription du Var</title>
      <desc id="d456">Cantons de : Saint-Mandrier-sur-Mer, La Seyne-sur-Mer, Six-Fours-les-Plages, communes de Sanary-sur-Mer et Bandol</desc>
    </path><path class="circo" id="id-083-08" d="M241.096 4.2025000000001L235.3525000000002 5.484000000000151L225.87999999999965 18.152500000001055L224.0829999999994 24.35000000000059L217.68799999999942 32.50250000000051L205.57249999999954 40.82700000000045L200.4804999999999 41.307500000000346L192.93300000000045 36.03900000000067L186.31599999999935 45.530500000000984L184.18999999999983 45.90750000000071L184.84050000000025 47.77600000000007L182.35599999999977 53.1490000000008L175.73599999999942 60.03800000000069L172.23100000000045 60.49950000000081L169.8490000000004 62.89500000000089L167.72699999999986 64.289500000001L160.5250000000001 67.22900000000095L162.2969999999998 74.93950000000041L155.0509999999997 81.58200000000079L150.5695000000003 77.43150000000014L147.5834999999995 69.82900000000086L140.61599999999999 65.63650000000052L139.23999999999978 54.424000000000206L135.2864999999997 54.1840000000002L131.20450000000005 49.63500000000067L125.35399999999981 50.283000000000584L122.03250000000025 47.93450000000007L120.13050000000021 44.43700000000035L121.04900000000043 40.45650000000023L119.56999999999994 34.50450000000046L114.32800000000043 32.073500000000195L114.2184999999995 30.029500000000553L112.94300000000021 29.10250000000019L105.43800000000033 31.90300000000093L104.64849999999956 42.06100000000106L98.47700000000032 47.44250000000079L92.67950000000042 49.42800000000034L84.50500000000034 49.309500000000526L81.65449999999964 52.25650000000087L79.10449999999969 42.446500000000924L74.33449999999993 35.91850000000022L52.88149999999973 30.21000000000072L42.67699999999991 45.65150000000017L41.1119999999994 48.46700000000055L49.10349999999994 49.902000000000726L54.04350000000022 53.32200000000057L53.69699999999966 59.28200000000061L55.97949999999969 64.87250000000017L66.44149999999968 69.37900000000013L62.75849999999991 74.36450000000036L60.473499999999376 86.4930000000004L48.097999999999956 86.18200000000002L26.373499999999694 92.4210000000005L22.536000000000058 97.22800000000007L18.564499999999953 96.71550000000025L10.185000000000173 115.29550000000086L13.892499999999472 129.0910000000008L13.029500000000098 130.94700000000103L0 136.1875000000009L5.267999999999802 142.4285000000009L14.777000000000271 143.19100000000049L21.154000000000224 147.35950000000003L25.476999999999634 150.31150000000025L28.966500000000224 150.2685000000008L32.532999999999674 148.750500000001L41.42349999999965 152.99900000000093L49.13249999999948 154.4315000000006L53.7945000000002 157.98450000000003L67.29799999999955 154.8230000000001L72.57349999999974 152.04000000000065L77.97400000000039 155.18100000000004L83.29200000000014 170.077L82.93549999999982 182.029L88.60900000000015 187.33050000000048L102.20199999999977 187.25900000000024L109.31299999999965 183.8295000000005L114.11399999999958 185.89050000000043L112.17049999999972 193.69750000000067L112.83450000000016 197.63450000000034L109.40050000000042 209.13600000000088L130.36500000000046 214.520500000001L140.71950000000015 220.54000000000087L140.8325000000002 212.25000000000023L144.77899999999977 198.30400000000054L151.26549999999952 202.36900000000105L162.9155000000003 205.1425000000006L170.8280000000002 203.60900000000015L174.5825000000002 199.1895000000011L179.9445000000003 201.9405000000006L189.60849999999937 203.7435000000005L194.8815000000002 201.36900000000082L199.44150000000036 211.89300000000003L203.2299999999998 210.52050000000008L206.2805000000003 212.93450000000007L224.1674999999998 211.39850000000024L227.1244999999999 214.02200000000107L229.06150000000025 213.3890000000008L230.71249999999964 209.69800000000077L245.68649999999934 203.82100000000037L235.63300000000027 197.1605000000011L234.97150000000033 187.29200000000105L236.83250000000044 183.660000000001L241.63850000000025 187.11200000000076L245.5729999999994 187.43150000000014L246.2805000000003 191.33750000000077L247.9385000000002 192.43400000000065L249.87600000000043 192.8570000000002L252.8615000000002 190.2900000000011L260.1019999999994 192.63650000000098L267.8155000000004 192.6685000000009L269.3150000000003 191.3650000000007L269.13749999999936 185.89250000000106L274.7595000000001 180.53600000000074L277.4554999999998 173.14100000000053L284.43149999999946 170.1845000000003L300.35949999999957 172.71450000000073L303.7919999999997 170.64950000000067L312.12350000000015 176.40150000000062L318.03300000000036 177.64400000000023L318.922 175.81450000000018L328.79850000000033 182.45450000000005L330.21099999999933 182.13600000000042L337.3580000000004 179.1930000000002L337.17449999999985 183.05300000000102L340.36050000000046 185.32950000000028L361.2270000000001 190.42650000000094L367.64800000000037 192.02150000000074L382.9219999999998 187.23900000000071L396.85050000000047 185.46100000000024L396.16750000000025 175.5880000000002L391.1189999999999 166.84950000000072L392.7184999999997 163.23200000000043L396.3149999999996 162.81000000000063L400.57249999999954 156.1875000000009L412.61799999999994 157.44400000000041L417.95549999999935 160.26750000000106L419.4769999999994 159.33450000000107L420.38350000000037 154.1590000000008L431.19500000000016 148.88950000000023L443.12599999999975 150.4995000000008L456.98650000000043 149.78650000000016L461.9044999999994 146.40750000000025L468.2140000000004 150.55900000000065L474.04649999999947 151.76300000000083L475.97999999999956 154.59150000000022L476.75299999999993 152.84350000000018L480.2424999999994 152.95850000000087L484.1425000000004 142.85100000000057L494.51349999999934 148.20850000000064L504.0499999999997 158.23300000000017L508.0449999999996 158.0060000000003L512.6144999999997 161.6420000000005L519.4560000000001 161.30300000000034L522.8494999999998 149.94600000000105L529.1679999999997 142.65600000000063L531.1445000000003 142.7170000000001L531.6520000000003 138.7320000000011L528.4555 131.57050000000027L533.4199999999998 122.66150000000039L525.9735000000001 115.21150000000034L521.4014999999995 117.86750000000097L513.3484999999996 118.65500000000111L509.97299999999996 116.77600000000098L508.41549999999984 117.92650000000094L502.2555 113.58500000000049L500.98749999999995 110.39250000000038L496.2829999999997 108.06900000000041L491.5975000000003 104.24450000000093L485.7664999999997 105.04150000000095L481.46600000000035 96.22150000000033L475.21949999999947 86.68750000000045L471.37950000000046 86.1545000000001L469.30399999999963 82.9905000000008L470.3049999999996 72.92300000000068L471.8489999999997 69.07300000000077L475.07150000000024 66.55900000000088L471.4554999999996 51.16850000000113L467.66200000000026 46.56400000000076L466.3409999999999 40.682500000000346L448.61350000000016 39.22050000000013L448.25950000000034 35.28700000000072L445.32050000000027 32.51500000000078L437.86749999999984 29.461000000000013L435.8674999999994 29.075500000000147L425.2260000000001 34.29300000000012L423.6144999999999 26.06550000000084L418.6069999999995 22.83800000000042L419.96099999999956 17.519000000000915L416.8864999999994 15.319500000000517L416.28900000000044 10.614000000000487L412.70099999999957 8.985000000000127L410.81350000000043 1.4870000000007622L395.25750000000016 0.975500000000693L392.82050000000027 5.19800000000032L381.29999999999995 13.861500000000433L377.9060000000004 18.485500000000457L375.97099999999955 18.393500000000813L377.40249999999946 14.507500000000846L375.8635000000004 8.514499999999998L374.6555000000001 6.805000000000518L366.9825000000003 0L352.8944999999999 8.649000000000342L345.5555000000004 5.582500000000437L339.97349999999983 8.153500000000804L332.31199999999944 5.436000000000831L330.74550000000045 8.889000000000351L322.55499999999984 9.96900000000096L321.2530000000004 26.326999999999998L308.8225 42.69400000000019L306.85550000000035 39.79100000000017L303.6850000000004 37.87450000000035L296.4840000000004 41.47200000000112L285.7325000000003 35.75900000000047L278.76049999999964 28.357500000000755L259.6259999999995 16.73850000000016L255.08950000000027 5.5215000000009695L251.90899999999942 3.178500000000213L241.096 4.2025000000001z">
      <title id="t457">Huitième circonscription du Var</title>
      <desc id="d457">Cantons de : Aups, Barjols, Callas, Comps-sur-Artuby, Cotignac, Draguignan, Fayence, Rians, Salernes, Tavernes</desc>
    </path></svg>