<svg xmlns="http://www.w3.org/2000/svg" version="1.1" xmlns:xlink="http://www.w3.org/1999/xlink" xmlns:svgjs="http://svgjs.dev/svgjs" width="471.02899999999977" height="456.0395499999993" fill="#eeeeee" stroke="#cccccc" xmlns:sodipodi="http://sodipodi.sourceforge.net/DTD/sodipodi-0.dtd"><path class="circo" id="id-084-01" d="M107.90399999999977 321.2620500000003L98.7194999999997 313.06704999999965L87.44399999999928 307.62155000000007L68.8149999999996 305.5680499999994L52.929000000000315 302.40204999999946L38.251000000000204 299.7900500000003L42.667000000000144 295.42554999999993L54.49799999999982 291.4515499999993L60.74299999999994 283.14404999999965L70.25800000000004 275.8200499999998L68.47700000000032 268.0015500000002L69.66199999999958 262.04155000000014L81.55149999999935 263.27454999999986L83.42300000000023 257.55904999999984L86.06800000000021 261.3870499999996L91.66150000000016 261.06154999999944L100.01099999999951 265.62104999999974L99.83949999999936 282.8510499999993L114.30899999999951 282.18554999999924L116.62050000000022 283.3950500000003L114.90850000000023 304.65254999999956L119.75549999999998 307.7355499999999L118.20299999999975 310.8725500000003L114.38649999999939 314.83655L116.00599999999986 321.79854999999975L107.90399999999977 321.2620500000003z">
      <title id="t458">Première circonscription du Vaucluse</title>
      <desc id="d458">Cantons de : Avignon Est, Avignon Nord, Avignon Ouest, Avignon Sud</desc>
    </path><path class="circo" id="id-084-02" d="M262.87199999999984 341.17554999999925L261.6549999999995 346.5730499999995L256.8724999999995 349.47604999999953L253.24299999999994 349.58954999999946L244.37349999999924 340.9020499999997L240.3570000000002 339.8755499999993L229.19649999999933 337.5205499999993L224.53499999999963 336.27155000000016L219.94249999999965 334.99855000000025L218.85899999999992 314.62654999999927L220.0929999999994 300.46904999999924L219.50799999999958 294.3695500000001L216.85699999999997 289.06804999999963L217.03949999999963 284.5025499999997L204.81649999999945 280.9480499999995L200.93049999999948 280.6620499999997L198.09349999999995 278.01354999999944L190.29949999999985 278.06505000000016L186.01699999999937 281.3745499999993L181.2749999999994 276.5925500000003L178.38300000000004 275.96355000000017L175.69399999999973 281.16604999999936L167.8679999999997 287.44055000000003L159.87899999999968 286.72855000000027L152.30000000000018 286.15704999999934L148.3325000000002 277.3450500000001L139.04749999999922 273.9315499999998L131.6784999999993 271.35504999999966L128.30649999999991 269.94204999999965L124.29949999999963 273.25604999999996L118.95549999999957 274.06555000000026L112.55749999999921 278.6080500000003L114.30899999999951 282.18554999999924L116.62050000000022 283.3950500000003L114.90850000000023 304.65254999999956L119.75549999999998 307.7355499999999L118.20299999999975 310.8725500000003L114.38649999999939 314.83655L116.00599999999986 321.79854999999975L119.61649999999963 323.20904999999925L136.25549999999976 331.8325500000003L145.54099999999949 343.0450499999995L148.1549999999993 346.5010499999994L160.9349999999995 356.08904999999936L164.1795000000002 361.0620499999993L167.269 369.09554999999955L169.61299999999937 378.9730499999996L187.6864999999998 389.3420500000002L201.7629999999997 397.20455000000015L208.13999999999965 400.70904999999925L228.31699999999955 410.8810499999993L249.6169999999995 403.84304999999927L253.5164999999995 404.0390500000001L261.40049999999974 405.7480499999997L270.87249999999926 408.15605000000005L283.1594999999993 410.2580499999999L287.67150000000015 414.5685500000002L295.22949999999923 420.7225499999993L306.635 426.35805000000005L314.1115000000002 430.47405000000026L324.5614999999998 435.9265499999992L338.40799999999945 443.4600499999999L342.0505000000003 426.11554999999953L346.86399999999935 423.15354999999954L341.8240000000003 414.52454999999986L337.8755000000001 415.0905499999999L334.8509999999999 412.56054999999947L331.01350000000025 412.4365499999999L328.81399999999985 411.8765499999995L331.9864999999993 406.8530499999997L340.5525 401.7270499999995L350.1120000000003 400.8715499999994L351.0725000000002 390.22605L349.1909999999996 382.16454999999996L350.5124999999998 374.0060499999993L346.44900000000007 364.5355499999994L342.9390000000001 365.9375499999999L338.4045000000003 362.5345500000003L328.27299999999923 349.94204999999965L322.24649999999997 351.33854999999926L320.933 346.00855000000024L312.8710000000001 346.86654999999973L307.28899999999953 344.70354999999927L301.8309999999997 346.35355000000004L301.20199999999954 348.2975499999998L295.0879999999995 335.70904999999925L291.5070000000003 334.6580499999993L284.2214999999999 337.4460499999998L281.1945000000003 334.99055L284.69949999999926 333.0450499999995L281.3914999999997 324.2415499999993L276.46549999999934 330.64255L276.77299999999946 336.6385500000001L272.72699999999986 337.01955L262.87199999999984 341.17554999999925z">
      <title id="t459">Deuxième circonscription du Vaucluse</title>
      <desc id="d459">Cantons de : Bonnieux, Cadenet, Cavaillon, L'Isle-sur-la-Sorgue</desc>
    </path><path class="circo" id="id-084-03" d="M78.58150000000023 235.00004999999987L71.97800000000029 230.39204999999924L68.29250000000002 225.47354999999925L62.39349999999945 226.63754999999924L67.4509999999998 231.4480500000002L69.95049999999992 234.83754999999974L72.7744999999993 244.9010499999997L78.98299999999949 245.81654999999955L82.10950000000025 248.39555000000018L82.47650000000021 254.7075499999994L83.42300000000023 257.55904999999984L86.06800000000021 261.3870499999996L91.66150000000016 261.06154999999944L100.01099999999951 265.62104999999974L99.83949999999936 282.8510499999993L114.30899999999951 282.18554999999924L112.55749999999921 278.6080500000003L118.95549999999957 274.06555000000026L124.29949999999963 273.25604999999996L128.30649999999991 269.94204999999965L131.6784999999993 271.35504999999966L139.04749999999922 273.9315499999998L148.3325000000002 277.3450500000001L152.30000000000018 286.15704999999934L159.87899999999968 286.72855000000027L167.8679999999997 287.44055000000003L175.69399999999973 281.16604999999936L178.38300000000004 275.96355000000017L181.2749999999994 276.5925500000003L186.01699999999937 281.3745499999993L190.29949999999985 278.06505000000016L198.09349999999995 278.01354999999944L200.93049999999948 280.6620499999997L204.81649999999945 280.9480499999995L217.03949999999963 284.5025499999997L218.8670000000002 283.7400500000001L222.58199999999988 282.10404999999923L232.43600000000015 284.3180499999994L232.75800000000004 280.3450499999997L237.21499999999992 273.61805000000004L238.7214999999992 267.84355000000005L244.13049999999998 265.07655L239.94849999999929 260.92205000000035L229.9389999999994 258.54055000000017L226.61299999999983 253.42654999999922L223.2454999999993 255.2165500000001L217.83799999999928 252.5245499999994L209.40200000000004 241.79655000000025L205.4219999999998 241.89554999999928L208.35349999999949 236.63805000000025L217.93949999999995 234.21704999999974L221.9240000000002 234.76855L228.25849999999946 233.36355000000026L225.32550000000015 228.1450499999994L220.44849999999997 224.70955000000004L216.8889999999999 217.48654999999985L220.27100000000019 208.12604999999962L216.79449999999974 203.24655000000007L213.4635000000003 204.6845499999995L204.26849999999945 204.49254999999994L198.95649999999932 206.20855000000006L192.4414999999999 208.0635499999994L183.87449999999944 213.27405L185.9744999999998 218.98505L181.63749999999936 219.27054999999996L175.65150000000017 221.26305000000002L171.12499999999955 221.57555000000002L167.6189999999997 222.57555000000025L159.6569999999997 228.86054999999942L155.61500000000024 219.67904999999973L148.83699999999976 221.2050499999998L145.53449999999998 214.33705000000032L140.19599999999969 216.46054999999933L124.67149999999947 223.04854999999975L123.03499999999985 213.15204999999992L120.72649999999953 210.11255000000006L113.0869999999993 193.72555000000034L96.36549999999943 187.86004999999932L96.20199999999954 185.81455000000005L94.20499999999947 185.36254999999983L83.02999999999997 194.0035499999999L81.10450000000014 197.59754999999927L80.95849999999928 207.7580499999999L91.70499999999947 220.68604999999934L90.65200000000004 233.67104999999924L78.58150000000023 235.00004999999987z">
      <title id="t460">Troisième circonscription du Vaucluse</title>
      <desc id="d460">Cantons de : Bédarrides, Carpentras Sud, Pernes-les-Fontaines</desc>
    </path><path class="circo" id="id-084-04" d="M136.5625 0L131.875 6.09375L128.75 5.9375L125.9375 8.90625L114.5309999999995 13.125L110.9375 20.625049999999874L111.71899999999937 24.843549999999937L109.6875 32.96854999999994L103.75 36.875049999999874L103.59399999999937 38.750049999999874L93.75 50.46854999999994L97.8125 50.312549999999874L104.6875 54.687549999999874L99.0625 62.187549999999874L102.6559999999995 69.06254999999987L102.1875 74.84354999999994L115.9375 72.03104999999994L140.625 78.90604999999994L143.59399999999937 81.56254999999987L145.7809999999995 69.68754999999987L147.96899999999937 66.40604999999994L154.84399999999937 62.03104999999994L152.96899999999937 57.187549999999874L158.2809999999995 50.937549999999874L159.84399999999937 40.937549999999874L171.71899999999937 38.750049999999874L179.0625 31.875049999999874L179.21899999999937 27.812549999999874L169.375 28.437549999999874L163.125 23.281049999999937L157.0309999999995 22.187549999999874L154.84399999999937 14.53125L156.71899999999937 13.59375L157.1875 8.28125L151.71899999999937 10.78125L144.375 4.0625L140.46899999999937 3.75L138.59399999999937 0.3125L136.5625 0zM0.625 59.53104999999994L1.7189999999993688 80.31254999999987L1.4059999999994943 82.50004999999987L0 94.84354999999994L1.0939999999993688 101.56254999999987L12.030999999999494 115.78104999999994L10.155999999999494 125.62504999999987L10.468999999999369 127.81254999999987L13.905999999999494 129.68754999999987L21.5625 127.03104999999994L25.3125 128.59354999999994L26.09399999999937 132.50004999999987L23.280999999999494 137.96854999999994L25.155999999999494 141.56254999999987L30.625 143.75004999999987L30.155999999999494 149.68754999999987L28.59399999999937 150.78104999999937L29.0625 156.71854999999937L28.905999999999494 158.75004999999987L29.530999999999494 164.84354999999937L29.375 171.71854999999937L23.75 190.93754999999987L28.75 198.90604999999937L30 204.37504999999987L31.5625 207.96854999999937L33.4375 208.59354999999937L42.1875 203.43754999999987L46.25 202.96854999999937L47.1875 208.59354999999937L48.4375 210.62504999999987L58.59399999999937 216.87504999999987L58.75 222.50004999999987L62.34399999999937 226.56254999999987L68.2809999999995 225.46854999999937L72.0309999999995 230.46854999999937L78.59399999999937 235.00004999999987L90.625 233.59354999999937L91.71899999999937 220.62504999999987L80.9375 207.81254999999987L81.09399999999937 197.65604999999937L82.96899999999937 194.06254999999987L94.21899999999937 185.31254999999987L96.25 185.78104999999937L96.4059999999995 187.81254999999987L113.125 193.75004999999987L120.9375 182.50004999999987L127.96899999999937 178.59354999999937L128.75 166.71854999999937L135.1559999999995 170.93754999999987L142.8125 180.93754999999987L145.7809999999995 195.46854999999937L147.6559999999995 191.71854999999937L155.7809999999995 191.56254999999987L158.75 186.56254999999987L160.625 185.78104999999937L162.6559999999995 185.93754999999987L167.0309999999995 190.00004999999987L179.0625 192.03104999999937L175.9375 185.00004999999987L176.5625 179.37504999999987L179.375 176.71854999999937L185.1559999999995 176.56254999999987L188.2809999999995 178.12504999999987L197.96899999999937 171.87504999999987L205.46899999999937 171.87504999999987L208.2809999999995 174.68754999999987L209.6875 172.81254999999987L210.1559999999995 168.90604999999937L215.46899999999937 162.50004999999987L222.5 158.75004999999987L255.1559999999995 152.50004999999987L267.34399999999937 152.34354999999937L269.375 152.03104999999937L279.84399999999937 158.28104999999937L287.8125 160.46854999999937L287.96899999999937 160.46854999999937L300 160.15604999999937L306.5625 163.43754999999987L312.0309999999995 163.12504999999987L313.4375 148.90604999999937L311.25 141.09354999999937L312.0309999999995 137.18754999999987L312.6559999999995 135.93754999999987L309.21899999999937 133.59354999999994L300.3125 128.59354999999994L291.875 134.06254999999987L284.375 131.40604999999994L278.125 131.40604999999994L278.125 133.43754999999987L268.4375 124.84354999999994L258.125 118.75004999999987L254.84399999999937 118.12504999999987L251.4059999999995 118.28104999999994L250.3125 128.75004999999987L237.8125 127.96854999999994L223.75 124.21854999999994L220.46899999999937 121.56254999999987L212.96899999999937 115.62504999999987L213.75 113.90604999999994L217.8125 109.53104999999994L217.34399999999937 97.65604999999994L211.875 95.62504999999987L212.96899999999937 87.96854999999994L219.5309999999995 83.43754999999987L221.4059999999995 77.96854999999994L222.6559999999995 72.34354999999994L220.9375 68.90604999999994L219.84399999999937 68.43754999999987L214.21899999999937 71.25004999999987L212.6559999999995 76.87504999999987L195.7809999999995 88.75004999999987L185.9375 86.71854999999994L181.71899999999937 86.71854999999994L174.84399999999937 72.34354999999994L161.71899999999937 78.43754999999987L156.4059999999995 81.87504999999987L150.1559999999995 85.46854999999994L144.6875 85.78104999999994L137.1875 89.53104999999994L124.84399999999937 95.62504999999987L120.625 99.68754999999987L105.46899999999937 101.87504999999987L107.1875 98.43754999999987L98.2809999999995 100.00004999999987L88.4375 109.37504999999987L74.84399999999937 119.68754999999987L69.84399999999937 117.34354999999994L69.375 111.71854999999994L69.5309999999995 102.18754999999987L65.7809999999995 95.46854999999994L66.09399999999937 90.46854999999994L66.09399999999937 75.00004999999987L62.34399999999937 74.21854999999994L56.09399999999937 66.87504999999987L52.1875 66.87504999999987L48.4375 62.34354999999994L30.780999999999494 61.40604999999994L27.34399999999937 62.96854999999994L27.1875 65.00004999999987L13.125 65.00004999999987L0.625 59.53104999999994z">
      <title id="t461">Quatrième circonscription du Vaucluse</title>
      <desc id="d461">Cantons de : Beaumes-de-Venise, Bollène, Malaucène, Orange Est, Orange Ouest, Vaison-la-Romaine, Valréas</desc>
    </path><path class="circo" id="id-084-05" d="M291.5070000000003 334.6580499999993L284.2214999999999 337.4460499999998L281.1945000000003 334.99055L284.69949999999926 333.0450499999995L281.3914999999997 324.2415499999993L276.46549999999934 330.64255L276.77299999999946 336.6385500000001L272.72699999999986 337.01955L262.87199999999984 341.17554999999925L261.6549999999995 346.5730499999995L256.8724999999995 349.47604999999953L253.24299999999994 349.58954999999946L244.37349999999924 340.9020499999997L240.3570000000002 339.8755499999993L229.19649999999933 337.5205499999993L224.53499999999963 336.27155000000016L219.94249999999965 334.99855000000025L218.85899999999992 314.62654999999927L220.0929999999994 300.46904999999924L219.50799999999958 294.3695500000001L216.85699999999997 289.06804999999963L217.03949999999963 284.5025499999997L218.8670000000002 283.7400500000001L222.58199999999988 282.10404999999923L232.43600000000015 284.3180499999994L232.75800000000004 280.3450499999997L237.21499999999992 273.61805000000004L238.7214999999992 267.84355000000005L244.13049999999998 265.07655L239.94849999999929 260.92205000000035L229.9389999999994 258.54055000000017L226.61299999999983 253.42654999999922L223.2454999999993 255.2165500000001L217.83799999999928 252.5245499999994L209.40200000000004 241.79655000000025L205.4219999999998 241.89554999999928L208.35349999999949 236.63805000000025L217.93949999999995 234.21704999999974L221.9240000000002 234.76855L228.25849999999946 233.36355000000026L225.32550000000015 228.1450499999994L220.44849999999997 224.70955000000004L216.8889999999999 217.48654999999985L220.27100000000019 208.12604999999962L216.79449999999974 203.24655000000007L213.4635000000003 204.6845499999995L204.26849999999945 204.49254999999994L198.95649999999932 206.20855000000006L192.4414999999999 208.0635499999994L183.87449999999944 213.27405L185.9744999999998 218.98505L181.63749999999936 219.27054999999996L175.65150000000017 221.26305000000002L171.12499999999955 221.57555000000002L167.6189999999997 222.57555000000025L159.6569999999997 228.86054999999942L155.61500000000024 219.67904999999973L148.83699999999976 221.2050499999998L145.53449999999998 214.33705000000032L140.19599999999969 216.46054999999933L124.67149999999947 223.04854999999975L123.03499999999985 213.15204999999992L120.72649999999953 210.11255000000006L113.0869999999993 193.72555000000034L120.95450000000028 182.49104999999986L127.9239999999993 178.60104999999976L128.7594999999999 166.6835500000002L135.1049999999998 170.95804999999928L142.74299999999926 180.86405000000013L145.7555000000002 195.41055000000028L147.60549999999967 191.74305000000004L155.7370000000003 191.51354999999967L158.76700000000028 186.60255000000006L160.67199999999957 185.8415500000001L162.7260000000001 185.90505000000007L166.9584999999995 190.06554999999935L179.03099999999995 192.07554999999957L175.8624999999995 185.06404999999972L176.6369999999995 179.3960500000003L179.33099999999968 176.7320499999994L185.23349999999937 176.55755L188.288 178.17954999999984L197.99350000000004 171.85904999999934L205.48000000000002 171.9070499999998L208.21450000000027 174.7215499999993L209.75599999999986 172.74805000000015L210.10649999999941 168.8330499999995L215.41200000000003 162.5295499999993L222.5369999999998 158.75654999999938L255.08699999999976 152.43155000000002L267.35649999999964 152.35805000000028L269.3719999999996 151.96304999999938L279.85400000000027 158.32404999999994L287.7494999999999 160.48855000000003L287.95999999999935 160.54255000000012L299.93799999999965 160.1840500000003L306.60349999999994 163.39854999999943L312.0354999999995 163.0875500000002L317.8620000000001 164.83304999999973L325.8879999999999 163.46254999999928L330.8695 166.71955000000025L334.35499999999934 164.88605000000007L335.46550000000025 172.84604999999942L339.3764999999996 174.06105000000025L340.2019999999993 181.55655000000024L342.41300000000024 184.44054999999935L361.1439999999993 186.51804999999968L360.8794999999998 211.7420500000003L362.7800000000002 217.4485500000003L368.94199999999955 217.45855000000006L380.61399999999935 213.63654999999994L379.8784999999998 240.50704999999994L369.9765000000002 258.49354999999946L367.25649999999973 270.69255L365.04749999999945 279.87904999999955L367.0460000000003 287.1980499999995L374.2394999999999 286.83404999999993L380.78149999999937 290.94555000000014L390.40399999999977 288.82954999999924L397.09799999999973 304.60204999999974L406.94849999999974 304.5020499999998L400.03349999999955 321.5190499999994L392.57349999999974 335.5075499999998L387.72449999999935 339.06954999999925L382.33549999999923 344.6680500000002L380.69200000000023 362.5500499999998L383.3044999999993 362.66655000000014L388.77399999999966 360.71204999999964L392.1404999999993 355.67204999999944L403.89749999999935 356.9445499999995L415.9254999999996 354.78155000000015L417.49450000000024 356.09654999999975L424.10099999999943 357.54954999999995L427.30050000000006 358.13454999999976L429.5775000000003 363.66904999999974L435.8164999999997 368.59005000000025L439.9879999999996 379.13455L444.53700000000026 382.2210499999994L448.9350000000002 384.9060499999996L452.42399999999975 384.04004999999984L453.57849999999985 398.27654999999936L467.06950000000006 407.3640499999999L471.02899999999977 414.4675499999994L469.46399999999926 417.2830499999998L462.76200000000017 422.02654999999936L451.77299999999946 437.26054999999974L439.36050000000023 435.97755000000006L435.23450000000025 435.5780500000003L428.4514999999999 440.3170499999999L421.7655000000002 448.22355000000016L414.298 451.65554999999927L407.1119999999996 456.0395499999993L392.9499999999996 454.10255000000006L382.8359999999998 455.41304999999966L374.62549999999965 455.71955L356.5935000000002 450.77454999999986L338.40799999999945 443.4600499999999L342.0505000000003 426.11554999999953L346.86399999999935 423.15354999999954L341.8240000000003 414.52454999999986L337.8755000000001 415.0905499999999L334.8509999999999 412.56054999999947L331.01350000000025 412.4365499999999L328.81399999999985 411.8765499999995L331.9864999999993 406.8530499999997L340.5525 401.7270499999995L350.1120000000003 400.8715499999994L351.0725000000002 390.22605L349.1909999999996 382.16454999999996L350.5124999999998 374.0060499999993L346.44900000000007 364.5355499999994L342.9390000000001 365.9375499999999L338.4045000000003 362.5345500000003L328.27299999999923 349.94204999999965L322.24649999999997 351.33854999999926L320.933 346.00855000000024L312.8710000000001 346.86654999999973L307.28899999999953 344.70354999999927L301.8309999999997 346.35355000000004L301.20199999999954 348.2975499999998L295.0879999999995 335.70904999999925L291.5070000000003 334.6580499999993z">
      <title id="t462">Cinquième circonscription du Vaucluse</title>
      <desc id="d462">Cantons de : Apt, Carpentras Nord, Gordes, Mormoiron, Pertuis, Sault</desc>
    </path></svg>