<svg xmlns="http://www.w3.org/2000/svg" version="1.1" xmlns:xlink="http://www.w3.org/1999/xlink" xmlns:svgjs="http://svgjs.dev/svgjs" width="790.99175" height="506.26540000000034" fill="#eeeeee" stroke="#cccccc" xmlns:sodipodi="http://sodipodi.sourceforge.net/DTD/sodipodi-0.dtd"><path class="circo" id="id-085-01" d="M190.01475000000028 78.58265000000017L193.51175000000012 85.8836500000001L189.0922500000002 93.17555000000027L189.35125000000028 101.33950000000027L196.5247500000001 116.47975000000031L195.52475000000015 118.37739999999997L192.79075000000006 120.4571500000003L182.13825000000014 122.89620000000014L166.0182500000002 133.99355000000014L159.6017500000002 134.81850000000009L157.63075000000015 138.72965000000022L158.26875 146.03985000000023L157.00175000000002 147.47225000000014L161.67025000000024 153.31799999999987L163.36325000000016 152.52085000000022L167.60875000000027 147.47349999999983L178.2627500000001 147.6773000000003L185.3547500000002 152.39720000000034L200.52425000000028 152.4742500000002L204.1957500000001 154.72770000000025L205.6977500000002 159.9299000000002L209.74575000000016 163.0450000000002L213.97775000000024 163.46985000000018L222.47375000000005 172.90324999999996L230.76525000000004 173.43725000000006L238.5072500000001 176.5895999999998L238.39625000000012 182.53825000000006L246.58725000000004 181.19550000000004L256.62525000000016 174.0233999999998L262.1852500000003 188.6919499999999L262.84025000000014 192.87914999999998L266.21825 195.41100000000029L265.8437500000002 210.00625000000014L264.7252500000002 211.80305000000033L260.51525000000026 211.45449999999983L259.2202500000002 209.77675000000033L262.36925000000014 217.67479999999978L274.28225000000026 222.9093499999999L280.68275 223.65830000000017L290.72225000000003 219.53070000000025L292.89675000000017 219.43955000000017L298.7737500000003 225.82760000000007L299.69224999999994 234.26044999999988L310.0252499999999 245.42250000000024L312.6232500000003 245.06685000000004L321.1257499999999 239.8685999999998L324.6437500000002 232.67375000000015L334.05025000000023 228.0723999999998L341.81624999999997 229.07170000000008L344.29125 232.62785000000008L344.2827500000004 239.01774999999986L340.7887500000004 253.6844000000002L353.48275 252.8438L356.22825000000034 260.5669499999999L363.64225000000033 264.49995L364.09625000000005 266.5849000000003L361.31125 269.75570000000005L362.47175000000027 273.8709L367.4972500000001 277.6506999999998L373.09675000000027 274.8440499999998L379.96925000000033 263.9735999999999L387.9227500000002 263.34569999999985L391.1762500000003 265.0742500000001L415.0037500000002 256.7346500000002L420.3902500000004 257.63390000000015L423.6102500000004 253.45775000000003L425.5897500000003 251.7622L438.52525000000014 243.2573000000002L439.9807500000003 243.45585000000028L444.1737499999999 242.82690000000002L452.0792499999999 245.29544999999985L457.42774999999995 241.5479499999998L463.4412500000002 240.78759999999988L465.5347499999999 237.08540000000028L471.87925000000007 235.63204999999982L473.3182500000004 234.22390000000007L472.73124999999993 229.04629999999997L481.2462500000004 230.40570000000002L489.29475000000025 230.0368500000002L490.1252500000004 234.0943500000003L494.19325000000015 234.94225000000029L499.43775000000016 241.34965000000022L509.34675000000027 245.8692000000002L514.16225 238.78469999999993L520.5237500000004 237.0996500000001L523.8147500000002 231.6776500000003L525.7482500000003 230.73109999999986L529.6882500000004 232.34520000000032L531.2192500000003 231.04600000000005L539.5577500000002 232.8255999999999L544.8062500000003 239.2619000000002L545.2902499999999 245.4603000000003L558.6897500000003 234.57595000000026L566.8572499999999 234.7117000000003L567.7072500000003 232.7066000000002L564.73275 227.19895000000008L559.95475 223.24850000000026L554.4057500000002 217.66670000000033L553.56425 211.64365000000032L551.8832500000002 210.5068L550.1852500000001 209.35929999999985L546.2917500000003 210.60850000000016L546.27475 208.4505999999999L551.9797500000004 202.5766500000003L548.7562500000001 190.2075000000002L550.78825 177.74935000000028L543.8637499999999 174.2208499999998L542.7752500000003 168.5390000000001L533.1417500000003 166.20074999999986L526.23875 168.9954499999999L520.5062500000003 174.81445000000008L512.2857500000003 173.4546499999999L510.8612500000004 169.63945000000024L508.84725000000003 169.02465000000007L502.7902499999999 166.29144999999994L497.91875000000005 159.4229999999999L496.18075000000033 160.2392500000002L495.6562500000001 166.61254999999983L485.1912500000003 168.30919999999992L480.9892500000001 167.2932000000003L475.26925000000006 176.5125999999998L469.09875 176.55235000000005L466.10725 173.56955000000028L460.1867500000003 174.82315000000028L456.49125000000026 173.07774999999992L454.60275000000024 171.5191500000003L452.7452500000004 170.51255000000026L451.2627500000002 164.34435000000008L453.7017500000002 158.7260500000002L448.9032500000002 155.03030000000024L432.78425000000027 140.37435000000016L427.77424999999994 134.06195000000025L429.44275000000005 130.18439999999998L433.0302499999999 127.84845000000018L432.95725000000004 123.9049L434.46425000000033 117.59619999999984L444.02625 112.84710000000018L448.4847500000001 105.44815000000028L450.19825000000026 92.5251000000003L446.4057500000001 93.77304999999978L442.9797500000001 89.2646000000002L435.37225000000035 86.88595000000021L435.8637500000003 82.40645000000029L433.98075000000006 81.3548000000003L428.6047500000001 84.92799999999988L417.9807500000004 87.2177499999998L399.7817500000002 98.74140000000011L394.05775000000006 94.1664000000003L399.68425000000025 79.82304999999997L394.7232500000001 72.86580000000015L392.5607500000001 64.42819999999983L393.7967500000002 60.335699999999974L397.87575000000004 58.766200000000026L397.82624999999996 54.717899999999986L395.23725000000013 51.42004999999983L392.67975000000035 39.08695000000023L393.46524999999986 33.15564999999992L390.2747500000004 30.469300000000317L387.7317500000004 27.442199999999843L383.82025 26.681350000000066L382.1112500000004 27.190249999999878L373.54674999999986 36.555099999999925L367.45524999999986 37.9460499999999L358.89725 43.21885000000009L363.4907500000003 50.20475000000033L360.41425000000004 57.90200000000027L358.97924999999987 65.85660000000018L363.7877500000002 76.44735000000026L363.2807500000001 78.53780000000029L367.7177499999999 85.72735000000023L372.8517500000004 89.2832500000003L373.54925000000037 93.45874999999978L370.7332500000001 99.10984999999982L362.5232500000004 98.9661000000001L369.3712500000004 109.71549999999979L380.5712500000004 119.10259999999994L381.7092500000001 125.14484999999979L370.56325000000015 131.12815000000012L366.36175000000037 130.18190000000004L362.3637500000001 131.62365000000023L361.4277500000003 139.6390500000001L348.91975 136.52485000000013L339.1737499999999 131.62739999999985L335.46325000000024 132.70790000000034L322.3372499999999 128.19230000000005L315.88025000000016 128.19290000000024L312.2677500000003 130.54869999999994L300.9227500000003 120.97705000000019L288.3962500000001 124.33519999999987L284.49325000000016 122.46089999999981L281.7387500000001 117.26904999999988L281.6322500000001 107.6469000000003L277.73775 103.05569999999989L278.71325000000013 101.22875000000022L275.6082500000002 95.92095000000029L263.09325 99.12665000000004L259.71175000000017 96.5091000000001L255.53975000000008 97.2963500000003L240.89625000000012 94.85295000000008L243.12775000000016 91.33620000000008L243.7367500000002 85.0824L241.29475000000014 81.66609999999991L224.0367500000002 81.72590000000014L214.1737500000002 77.15975000000014L206.44125000000003 69.86620000000016L204.12825000000026 61.58734999999979L204.93525000000005 57.445299999999975L197.2097500000001 55.489350000000286L195.49675000000008 56.597849999999994L194.25125000000008 62.40349999999978L187.7867500000002 67.0644500000003L187.41225000000014 70.92629999999986L191.76175 74.91100000000017L190.01475000000028 78.58265000000017z">
      <title id="t463">Première circonscription de Vendée</title>
      <desc id="d463">Cantons de : Challans, Les Essarts, Palluau, Le Poiré-sur-Vie, Rocheservière, La Roche-sur-Yon Nord</desc>
    </path><path class="circo" id="id-085-02" d="M552.6962500000002 314.2086999999998L548.73875 313.3393000000001L545.3347500000001 308.15350000000024L543.3187500000003 307.65134999999987L545.5492500000003 313.45619999999997L544.2312500000003 317.2773000000001L545.2457500000003 321.39905L546.4592500000003 323.1528000000003L550.0627500000002 325.36080000000027L553.16125 333.2631500000002L552.1752500000002 337.3983500000003L548.3382499999999 338.7966499999999L547.3037500000004 342.8224499999999L547.9292500000003 344.7171500000002L544.3792500000001 346.2844000000001L538.0147500000004 342.2064999999998L535.1047500000004 344.54295L533.2982500000003 343.96965000000023L530.3522500000003 348.8874500000003L530.74275 352.94910000000016L538.76125 354.7994L530.2892500000002 369.38649999999996L528.1507500000004 369.3383499999999L515.1192500000002 372.8401500000001L509.82275000000016 368.38025000000016L496.94975 369.3259999999998L493.00275 373.63575000000026L491.3477499999999 381.36570000000006L491.1552499999999 382.01610000000016L484.6707500000002 380.8868000000001L471.84574999999995 382.8189000000003L472.0757500000002 393.0099999999999L468.7722500000001 404.8815000000002L467.80425000000037 406.0358500000001L459.5077500000002 412.7787000000001L458.66625 409.12750000000017L452.69825000000026 409.6620999999999L447.43375000000015 418.664L449.2782500000004 422.4867499999999L448.13525000000027 424.27284999999983L443.9827500000001 423.41859999999997L436.81475000000034 427.0565499999998L434.6662500000002 430.5776000000003L437.47074999999995 438.3283499999999L436.1672500000003 444.3003500000003L439.9407500000001 446.0624999999999L440.40774999999996 448.1084500000003L439.0167500000001 451.39580000000024L441.4882499999999 453.85215000000017L443.2272499999999 453.36135000000013L446.0272500000002 456.1660499999999L451.9647500000002 455.83849999999984L452.5802500000003 459.79674999999986L455.3732500000001 462.49630000000025L460.61075000000017 464.97889999999984L465.5997500000001 473.27495L469.06925 487.76155000000017L477.2957500000001 491.6342500000002L475.49225000000035 494.06184999999994L467.3577499999999 491.78800000000024L456.8847500000004 468.5803500000003L449.42025 460.70359999999994L443.60175000000027 457.7552000000003L434.7787500000004 456.24059999999986L436.1712499999999 458.10675000000003L445.96775000000036 462.2327999999999L436.05525 459.4119999999998L425.3792500000003 460.80150000000003L415.2192500000001 457.2626500000001L407.46375 460.70915000000014L396.7557500000004 459.6496000000002L394.13575000000037 456.37850000000014L389.86725000000035 441.80200000000013L379.8487499999999 424.7695500000003L374.25974999999994 421.3101499999999L363.71575000000007 418.91615L360.51175 421.02475000000027L354.7267500000004 420.17049999999983L329.27774999999997 415.6971500000003L317.7207500000003 410.3174999999999L318.7962500000003 406.26030000000014L294.20525000000026 393.56515L290.9722500000001 387.99320000000023L295.0432500000002 383.12434999999994L294.53525000000013 378.8793500000003L296.43425000000036 375.15845000000013L306.20025 371.66364999999985L307.30075 361.06785L303.0167499999999 353.70254999999986L316.2717500000002 352.6587999999998L310.37075000000016 339.3292500000001L310.2957500000002 331.0902500000003L293.8907500000002 334.33715000000007L282.17525000000023 332.1699000000001L278.3262500000001 333.8737000000003L280.01375000000024 326.4184L277.7442500000001 323.1429000000003L280.47075000000007 315.58875L282.25825000000015 309.86965L286.1087500000002 305.2535499999999L293.3952500000001 302.3836L299.85974999999996 296.7853500000001L298.9837499999999 292.70820000000015L295.7107500000001 290.0624499999998L274.52325 281.71854999999994L268.3367500000003 282.0317L270.94425 276.34585000000015L274.21175000000005 273.75265000000013L272.53525000000025 268.37559999999996L273.7597500000001 264.37490000000025L271.72575000000023 261.3026500000001L269.01925000000006 263.8850500000001L265.25075000000015 263.81755L263.95175000000023 257.0533499999999L272.6757500000002 251.25485000000026L279.1352500000002 250.5684500000001L285.43525000000017 244.68950000000007L288.1367500000002 238.79835000000014L299.69224999999994 234.26044999999988L310.0252499999999 245.42250000000024L312.6232500000003 245.06685000000004L321.1257499999999 239.8685999999998L324.6437500000002 232.67375000000015L334.05025000000023 228.0723999999998L341.81624999999997 229.07170000000008L344.29125 232.62785000000008L344.2827500000004 239.01774999999986L340.7887500000004 253.6844000000002L353.48275 252.8438L356.22825000000034 260.5669499999999L363.64225000000033 264.49995L364.09625000000005 266.5849000000003L361.31125 269.75570000000005L362.47175000000027 273.8709L367.4972500000001 277.6506999999998L373.09675000000027 274.8440499999998L379.96925000000033 263.9735999999999L387.9227500000002 263.34569999999985L391.1762500000003 265.0742500000001L415.0037500000002 256.7346500000002L420.3902500000004 257.63390000000015L423.6102500000004 253.45775000000003L425.5897500000003 251.7622L438.52525000000014 243.2573000000002L439.9807500000003 243.45585000000028L444.1737499999999 242.82690000000002L452.0792499999999 245.29544999999985L457.42774999999995 241.5479499999998L463.4412500000002 240.78759999999988L465.5347499999999 237.08540000000028L471.87925000000007 235.63204999999982L473.3182500000004 234.22390000000007L472.73124999999993 229.04629999999997L481.2462500000004 230.40570000000002L489.29475000000025 230.0368500000002L490.1252500000004 234.0943500000003L494.19325000000015 234.94225000000029L499.43775000000016 241.34965000000022L509.34675000000027 245.8692000000002L514.16225 238.78469999999993L520.5237500000004 237.0996500000001L523.8147500000002 231.6776500000003L525.7482500000003 230.73109999999986L529.6882500000004 232.34520000000032L531.2192500000003 231.04600000000005L539.5577500000002 232.8255999999999L544.8062500000003 239.2619000000002L545.2902499999999 245.4603000000003L558.6897500000003 234.57595000000026L566.8572499999999 234.7117000000003L567.7072500000003 232.7066000000002L564.73275 227.19895000000008L559.95475 223.24850000000026L554.4057500000002 217.66670000000033L553.56425 211.64365000000032L551.8832500000002 210.5068L556.8527499999999 206.9929000000002L563.3022500000004 201.66965000000005L567.4872500000004 200.85440000000006L572.9287500000004 204.11395000000027L593.7562500000001 207.93575000000033L600.0172500000002 194.65829999999983L581.1492500000003 189.9245000000002L580.7622500000002 188.23759999999993L594.6517499999999 174.56610000000012L600.8707500000003 176.38345000000015L603.1037500000002 182.50535000000013L608.69775 188.93770000000018L607.7462500000001 192.76250000000005L602.4182500000001 195.82859999999982L608.0627500000003 198.84974999999997L614.4942500000002 199.01229999999998L619.37725 202.77764999999988L613.0802499999999 211.21944999999982L610.5112500000001 219.1257999999999L612.0097500000003 220.5705499999999L611.2807500000002 224.59265000000016L613.2317499999999 230.51975000000027L612.0147500000002 240.3816999999998L613.0657500000001 241.56900000000007L610.9847500000001 246.39400000000023L606.7017500000003 246.81654999999978L602.08775 254.04800000000023L606.6587500000003 257.93290000000013L607.5852500000002 264.0943500000003L600.2707500000002 281.83985000000007L588.5812500000003 287.1602999999999L585.1232500000003 281.9301999999999L569.7267500000004 274.6737999999999L561.3282500000003 283.79745000000014L558.8652500000001 289.6386000000001L567.6452499999999 298.2824499999998L562.6807500000001 302.1813500000002L557.76925 305.6815499999999L552.6962500000002 314.2086999999998z">
      <title id="t464">Deuxième circonscription de Vendée</title>
      <desc id="d464">Cantons de : Chantonnay, Mareuil-sur-Lay-Dissais, La Mothe-Achard, Moutiers-les-Mauxfaits, La Roche-sur-Yon Sud, Talmont-Saint-Hilaire</desc>
    </path><path class="circo" id="id-085-03" d="M177.8125 34.54330000000027L171.40625 40.16830000000027L157.65625 46.57455000000027L150.625 64.69955000000027L150.3125 73.13705000000027L145 82.66830000000027L138.59375 88.76205000000027L139.21875 92.98080000000027L135.625 91.41830000000027L123.75 103.91830000000027L119.0625 113.44955000000027L122.8125 115.16830000000027L118.4375 119.69955000000027L103.90625 122.19955000000027L107.34375 141.10580000000027L109.21875 165.16830000000027L116.875 172.66830000000027L144.84375 192.51205000000027L176.71875 226.41830000000027L179.0625 237.04330000000027L182.8125 242.66830000000027L186.71875 242.66830000000027L192.8125 242.66830000000027L202.34375 256.5745500000003L212.65625 275.3245500000003L222.34375 283.7620500000003L224.53125 289.8558000000003L230.625 295.6370500000003L234.21875 310.3245500000003L246.71875 351.5745500000003L249.21875 366.1058000000003L254.53125 369.3870500000003L257.8125 366.7308000000003L261.875 366.2620500000003L267.34375 369.5433000000003L271.09375 374.6995500000003L273.28125 378.1370500000003L286.71875 387.8245500000003L290.9375 387.9808000000003L295 383.1370500000003L294.53125 378.9183000000003L296.40625 375.1683000000003L306.25 371.7308000000003L307.34375 361.1058000000003L302.96875 353.7620500000003L316.25 352.6683000000003L310.3125 339.3870500000003L310.3125 331.1058000000003L293.90625 334.3870500000003L282.1875 332.1995500000003L278.28125 333.9183000000003L280 326.4183000000003L277.8125 323.1370500000003L280.46875 315.6370500000003L282.1875 309.8558000000003L286.09375 305.3245500000003L293.4375 302.3558000000003L299.84375 296.7308000000003L298.90625 292.6683000000003L295.78125 290.0120500000003L274.53125 281.7308000000003L268.28125 282.0433000000003L270.9375 276.4183000000003L274.21875 273.7620500000003L272.5 268.4495500000003L273.75 264.3870500000003L271.71875 261.2620500000003L269.0625 263.9183000000003L265.3125 263.7620500000003L263.90625 257.0433000000003L272.65625 251.26205000000027L279.0625 250.63705000000027L285.46875 244.69955000000027L288.125 238.76205000000027L299.6875 234.23080000000027L298.75 225.79330000000027L292.96875 219.38705000000027L290.78125 219.54330000000027L280.625 223.60580000000027L274.21875 222.98080000000027L262.34375 217.66830000000027L259.21875 209.69955000000027L260.46875 211.41830000000027L264.6875 211.73080000000027L265.78125 210.01205000000027L266.25 195.48080000000027L262.8125 192.82455000000027L262.1875 188.76205000000027L256.5625 174.07455000000027L246.5625 181.26205000000027L238.4375 182.51205000000027L238.4375 176.57455000000027L230.78125 173.44955000000027L222.5 172.98080000000027L213.90625 163.44955000000027L209.6875 162.98080000000027L205.625 159.85580000000027L204.21875 154.69955000000027L200.46875 152.51205000000027L185.3125 152.35580000000027L178.28125 147.66830000000027L167.65625 147.51205000000027L163.4375 152.51205000000027L161.71875 153.29330000000027L157.03125 147.51205000000027L158.28125 146.10580000000027L157.65625 138.76205000000027L159.53125 134.85580000000027L166.09375 133.91830000000027L182.1875 122.82455000000027L192.8125 120.48080000000027L195.46875 118.44955000000027L196.5625 116.41830000000027L189.375 101.26205000000027L189.0625 93.13705000000027L193.4375 85.94955000000027L190 78.60580000000027L191.71875 74.85580000000027L187.34375 70.94955000000027L187.8125 67.04330000000027L194.21875 62.35580000000027L195.46875 56.57455000000027L190.9375 52.04330000000027L184.375 37.82455000000027L181.40625 34.69955000000027L177.8125 34.54330000000027zM52.1875 35.32455000000027L41.40625 37.04330000000027L45 46.73080000000027L41.25 54.54330000000027L41.25 58.91830000000027L48.59375 63.91830000000027L55.9375 75.01205000000027L61.09375 78.29330000000027L66.40625 74.38705000000027L75.15625 74.54330000000027L85.3125 82.98080000000027L93.28125 93.44955000000027L99.375 110.01205000000027L102.96875 115.48080000000027L104.84375 116.57455000000027L105.625 114.54330000000027L105.9375 90.48080000000027L101.5625 82.98080000000027L89.84375 76.73080000000027L75 68.29330000000027L70.78125 68.13705000000027L68.90625 64.54330000000027L69.84375 56.73080000000027L68.59375 55.16830000000027L64.6875 56.26205000000027L68.75 54.54330000000027L74.53125 57.35580000000027L76.25 55.94955000000027L75.3125 45.01205000000027L60.9375 35.63705000000027L52.1875 35.32455000000027zM10.9375 218.60580000000027L7.65625 218.91830000000027L4.375 221.73080000000027L0.46875 223.60580000000027L0 224.54330000000027L0 225.63705000000027L0.625 228.91830000000027L1.09375 229.85580000000027L2.65625 232.82455000000027L7.03125 235.94955000000027L7.65625 239.23080000000027L11.71875 238.44955000000027L15.46875 242.35580000000027L17.65625 242.51205000000027L20.46875 244.23080000000027L23.59375 243.44955000000027L28.125 247.98080000000027L34.84375 244.54330000000027L36.71875 241.88705000000027L46.25 243.91830000000027L48.90625 245.79330000000027L49.375 244.85580000000027L47.96875 241.88705000000027L43.28125 235.79330000000027L40 233.13705000000027L37.5 231.26205000000027L34.0625 227.04330000000027L25.46875 226.57455000000027L21.5625 221.41830000000027L10.9375 218.60580000000027z">
      <title id="t465">Troisième circonscription de Vendée</title>
      <desc id="d465">Cantons de : Beauvoir-sur-Mer, L'Ile-d'Yeu, Noirmoutier-en-l'Ile, Les Sables-d'Olonne, Saint-Gilles-Croix-de-Vie, Saint-Jean-de-Monts</desc>
    </path><path class="circo" id="id-085-04" d="M550.1852500000001 209.35929999999985L546.2917500000003 210.60850000000016L546.27475 208.4505999999999L551.9797500000004 202.5766500000003L548.7562500000001 190.2075000000002L550.78825 177.74935000000028L543.8637499999999 174.2208499999998L542.7752500000003 168.5390000000001L533.1417500000003 166.20074999999986L526.23875 168.9954499999999L520.5062500000003 174.81445000000008L512.2857500000003 173.4546499999999L510.8612500000004 169.63945000000024L508.84725000000003 169.02465000000007L502.7902499999999 166.29144999999994L497.91875000000005 159.4229999999999L496.18075000000033 160.2392500000002L495.6562500000001 166.61254999999983L485.1912500000003 168.30919999999992L480.9892500000001 167.2932000000003L475.26925000000006 176.5125999999998L469.09875 176.55235000000005L466.10725 173.56955000000028L460.1867500000003 174.82315000000028L456.49125000000026 173.07774999999992L454.60275000000024 171.5191500000003L452.7452500000004 170.51255000000026L451.2627500000002 164.34435000000008L453.7017500000002 158.7260500000002L448.9032500000002 155.03030000000024L432.78425000000027 140.37435000000016L427.77424999999994 134.06195000000025L429.44275000000005 130.18439999999998L433.0302499999999 127.84845000000018L432.95725000000004 123.9049L434.46425000000033 117.59619999999984L444.02625 112.84710000000018L448.4847500000001 105.44815000000028L450.19825000000026 92.5251000000003L446.4057500000001 93.77304999999978L442.9797500000001 89.2646000000002L435.37225000000035 86.88595000000021L435.8637500000003 82.40645000000029L438.92875000000004 79.53534999999988L438.53425000000016 73.59385000000032L441.39025000000004 70.56570000000022L441.9467500000002 64.31105000000002L434.9822499999999 59.47900000000004L439.81375000000014 50.197900000000004L439.2557500000004 48.10440000000028L438.60725 41.732749999999896L434.77075000000013 34.06980000000033L440.4072500000001 27.723500000000172L446.87175000000025 27.949899999999843L447.61574999999993 24.045600000000036L451.5527500000002 25.082199999999943L459.4142500000004 31.172750000000065L467.58925000000033 30.915800000000218L468.58475 27.155950000000075L466.75974999999994 26.384499999999775L467.36275000000035 24.478500000000167L472.4527499999999 16.197050000000104L471.1522500000001 8.644899999999893L472.6772500000004 4.9099999999998545L476.52575000000013 4.093050000000176L478.65875000000017 0.6853499999999713L480.69725000000005 0L488.9262500000001 9.80115000000012L496.8267500000002 12.801150000000234L502.3832500000003 19.207700000000045L505.57275000000004 21.618649999999775L510.9222500000004 27.765899999999988L531.4067499999999 34.13400000000024L534.42275 37.15115000000026L540.3617500000001 39.18299999999988L547.74925 42.57805000000019L556.0577499999999 43.01064999999994L559.1457500000001 44.65379999999982L563.0132500000002 46.65650000000028L567.0687500000003 45.89544999999987L572.7397500000001 48.88475000000028L587.7042499999999 50.285749999999894L593.5887500000001 39.28645000000017L600.3887500000002 44.47679999999991L604.1887500000001 43.6215500000003L611.9207499999999 53.72645000000034L619.73975 51.17135000000019L622.2287499999999 47.8439000000003L630.7182499999999 55.39770000000033L636.5022500000003 57.89080000000013L640.4692499999999 67.61759999999981L636.1102500000004 71.05090000000018L637.6152500000001 72.62724999999989L643.9917500000001 71.63760000000025L645.68375 77.49975000000006L651.10525 78.63560000000007L651.78225 82.86280000000033L646.18425 82.34665000000007L644.5217500000001 83.8209999999998L645.1277500000003 85.90104999999994L657.5207499999999 87.31240000000014L657.18075 91.01564999999994L666.5457500000002 95.43920000000014L669.2012500000004 101.31275000000016L675.3447499999999 102.55730000000028L673.68225 106.12075000000004L670.90825 109.23339999999996L671.7827500000004 113.21725000000015L665.7577500000002 124.30785000000014L672.98025 127.9647L682.2162500000002 141.0226L685.1792499999999 144.71180000000004L687.4467500000003 150.20449999999983L690.9552500000001 151.89520000000016L697.4247500000001 157.5109500000002L705.6517500000001 159.01675000000012L709.46125 163.5785500000003L717.78775 163.56550000000027L722.4372500000004 171.4632499999999L715.3587500000003 175.89980000000025L713.2942500000001 183.61339999999984L711.36075 187.56545000000017L710.7647500000002 196.34860000000003L713.6597499999999 204.43775000000016L708.0782500000004 207.5989500000003L705.5222500000002 213.4230500000001L696.9627500000001 213.90924999999982L689.0402499999999 226.7922500000003L695.9932500000002 230.3152L697.5077500000003 234.88585L684.1002500000002 239.85310000000027L677.2037499999999 246.74345000000017L669.78275 239.26125000000013L659.9012500000003 236.80960000000027L655.3552500000001 245.69074999999998L656.99275 249.48120000000017L647.2952500000002 250.9742L643.1502499999999 254.98764999999992L640.0547499999999 252.15309999999988L625.6527499999999 249.34489999999983L623.3132499999999 245.7415500000002L616.9872500000002 244.7180000000003L614.2297500000001 241.57145000000014L613.0657500000001 241.56900000000007L612.0147500000002 240.3816999999998L613.2317499999999 230.51975000000027L611.2807500000002 224.59265000000016L612.0097500000003 220.5705499999999L610.5112500000001 219.1257999999999L613.0802499999999 211.21944999999982L619.37725 202.77764999999988L614.4942500000002 199.01229999999998L608.0627500000003 198.84974999999997L602.4182500000001 195.82859999999982L607.7462500000001 192.76250000000005L608.69775 188.93770000000018L603.1037500000002 182.50535000000013L600.8707500000003 176.38345000000015L594.6517499999999 174.56610000000012L580.7622500000002 188.23759999999993L581.1492500000003 189.9245000000002L600.0172500000002 194.65829999999983L593.7562500000001 207.93575000000033L572.9287500000004 204.11395000000027L567.4872500000004 200.85440000000006L563.3022500000004 201.66965000000005L556.8527499999999 206.9929000000002L551.8832500000002 210.5068L550.1852500000001 209.35929999999985z">
      <title id="t466">Quatrième circonscription de Vendée</title>
      <desc id="d466">Cantons de : Les Herbiers, Montaigu, Mortagne-sur-Sèvre, Pouzauges, Saint-Fulgent</desc>
    </path><path class="circo" id="id-085-05" d="M605.7432499999999 453.55470000000025L603.7572499999999 454.45494999999994L587.0542499999999 453.33860000000016L572.9947500000003 459.3393500000002L571.7332500000003 455.45185000000004L563.3822500000002 469.4265999999999L560.49375 472.2010499999999L561.35875 474.05959999999993L554.0357499999999 477.2754500000002L546.0452500000002 475.49525000000017L544.6402499999999 471.6625499999998L542.7887500000003 471.6872000000001L541.87275 476.92904999999996L539.5527500000003 479.6419500000002L531.6452500000003 475.7524999999998L524.9452500000001 470.98495000000014L522.4402500000002 473.94205L508.6802499999999 476.0675500000002L511.2717500000002 485.6158499999998L506.3152500000001 496.50215000000003L504.5002500000004 497.7087499999999L507.98474999999996 505.1353499999999L506.23775000000023 506.26540000000034L503.2027500000004 503.7501500000002L495.8747500000004 500.8670000000001L474.6837500000004 479.7324000000003L469.54724999999996 472.62080000000026L465.5997500000001 473.27495L460.61075000000017 464.97889999999984L455.3732500000001 462.49630000000025L452.5802500000003 459.79674999999986L451.9647500000002 455.83849999999984L446.0272500000002 456.1660499999999L443.2272499999999 453.36135000000013L441.4882499999999 453.85215000000017L439.0167500000001 451.39580000000024L440.40774999999996 448.1084500000003L439.9407500000001 446.0624999999999L436.1672500000003 444.3003500000003L437.47074999999995 438.3283499999999L434.6662500000002 430.5776000000003L436.81475000000034 427.0565499999998L443.9827500000001 423.41859999999997L448.13525000000027 424.27284999999983L449.2782500000004 422.4867499999999L447.43375000000015 418.664L452.69825000000026 409.6620999999999L458.66625 409.12750000000017L459.5077500000002 412.7787000000001L467.80425000000037 406.0358500000001L468.7722500000001 404.8815000000002L472.0757500000002 393.0099999999999L471.84574999999995 382.8189000000003L484.6707500000002 380.8868000000001L491.1552499999999 382.01610000000016L491.3477499999999 381.36570000000006L493.00275 373.63575000000026L496.94975 369.3259999999998L509.82275000000016 368.38025000000016L515.1192500000002 372.8401500000001L528.1507500000004 369.3383499999999L530.2892500000002 369.38649999999996L538.76125 354.7994L530.74275 352.94910000000016L530.3522500000003 348.8874500000003L533.2982500000003 343.96965000000023L535.1047500000004 344.54295L538.0147500000004 342.2064999999998L544.3792500000001 346.2844000000001L547.9292500000003 344.7171500000002L547.3037500000004 342.8224499999999L548.3382499999999 338.7966499999999L552.1752500000002 337.3983500000003L553.16125 333.2631500000002L550.0627500000002 325.36080000000027L546.4592500000003 323.1528000000003L545.2457500000003 321.39905L544.2312500000003 317.2773000000001L545.5492500000003 313.45619999999997L543.3187500000003 307.65134999999987L545.3347500000001 308.15350000000024L548.73875 313.3393000000001L552.6962500000002 314.2086999999998L557.76925 305.6815499999999L562.6807500000001 302.1813500000002L567.6452499999999 298.2824499999998L558.8652500000001 289.6386000000001L561.3282500000003 283.79745000000014L569.7267500000004 274.6737999999999L585.1232500000003 281.9301999999999L588.5812500000003 287.1602999999999L600.2707500000002 281.83985000000007L607.5852500000002 264.0943500000003L606.6587500000003 257.93290000000013L602.08775 254.04800000000023L606.7017500000003 246.81654999999978L610.9847500000001 246.39400000000023L613.0657500000001 241.56900000000007L614.2297500000001 241.57145000000014L616.9872500000002 244.7180000000003L623.3132499999999 245.7415500000002L625.6527499999999 249.34489999999983L640.0547499999999 252.15309999999988L643.1502499999999 254.98764999999992L647.2952500000002 250.9742L656.99275 249.48120000000017L655.3552500000001 245.69074999999998L659.9012500000003 236.80960000000027L669.78275 239.26125000000013L677.2037499999999 246.74345000000017L684.1002500000002 239.85310000000027L697.5077500000003 234.88585L695.9932500000002 230.3152L689.0402499999999 226.7922500000003L696.9627500000001 213.90924999999982L705.5222500000002 213.4230500000001L708.0782500000004 207.5989500000003L713.6597499999999 204.43775000000016L718.7462500000004 208.1789500000002L722.8037499999999 206.98735L723.9712500000002 210.86279999999988L722.8732500000001 216.71175000000005L726.8707499999999 222.96825000000013L728.6847499999999 221.84910000000002L733.48275 226.0842500000001L740.82675 238.78285000000005L731.0852499999999 247.24095000000034L740.0172500000002 253.4304000000003L748.8352500000002 261.70830000000024L744.23675 265.7613500000002L743.9527500000003 271.7963500000002L739.6202500000004 275.90385000000026L740.2992499999999 279.89514999999983L746.2402500000002 277.5052499999998L750.5042500000002 278.4238499999998L758.62075 288.4536000000003L753.01625 297.4398500000001L757.4587500000001 301.6011500000002L756.50825 305.2523000000002L758.8492500000001 308.56724999999983L754.0587500000004 314.8523499999999L756.9257500000003 324.71175000000017L761.0247500000003 324.0998000000002L763.2392500000003 336.26509999999996L763.6512500000003 342.14965000000007L760.8767499999999 345.3343000000001L752.5712500000003 345.30959999999993L746.6067500000003 347.41175L748.1167500000004 350.7997499999999L745.7022499999999 355.97770000000025L749.9562500000002 359.794L753.7042500000001 364.70264999999984L752.41625 375.0893000000002L756.9072499999999 379.30515000000014L757.6627500000001 385.6448999999998L761.0652500000003 390.9662000000003L757.8422499999999 392.37644999999986L755.9562500000004 400.2136999999999L748.8982500000003 404.4751000000002L747.8017499999999 416.5416499999998L751.6587500000003 421.41430000000014L748.31525 426.39099999999985L755.6802500000003 430.2726000000001L759.8787500000003 416.3462500000003L764.0227500000003 416.6064L772.2107500000004 423.01680000000033L776.2957499999999 423.9529500000003L777.7232500000002 427.73750000000007L785.9637500000002 428.8867499999998L790.99175 432.7317499999998L782.7102500000001 446.54224999999997L781.7287500000003 448.4576500000003L773.7262500000003 451.5017L763.3507500000002 449.28904999999986L761.1577500000004 457.26575000000025L756.3642500000003 461.5648500000003L748.7942500000003 464.7604000000001L748.9167500000002 470.79724999999996L746.05075 473.99744999999996L742.4237500000004 475.21405000000016L733.8392500000003 475.98569999999995L723.18625 470.4655500000001L719.03525 474.88850000000014L715.1027500000004 475.5734000000001L712.9962499999999 478.86235L714.2417499999999 482.6634999999999L710.8987500000001 483.99235000000033L700.6017500000002 483.3445499999999L696.5882500000004 478.4556500000002L692.4012500000003 477.95725000000004L689.8247500000002 474.6023500000001L678.3587499999999 470.4058500000002L676.5247500000004 466.6605500000003L680.5197500000003 462.29989999999987L680.0122500000003 460.25975000000017L668.7542500000001 463.5858999999999L666.18425 460.20865000000015L662.2377499999999 461.5390000000002L658.8907499999999 466.8858499999999L660.4707500000001 470.82065L658.7337500000001 474.6891499999998L652.7697499999999 474.1881999999998L653.7082500000002 470.29195000000016L652.0747499999999 469.12935000000004L649.6892500000001 472.1481499999999L642.6422500000001 469.5330999999999L638.9972499999999 475.5999000000003L631.91575 478.12095L630.65875 476.40784999999994L622.6407499999999 478.1954000000002L612.1137500000003 471.5992L619.3812500000001 461.2730499999998L622.5042500000001 448.96450000000016L625.4332500000004 442.2991000000002L615.17225 448.33264999999983L609.6337500000004 445.7071000000002L605.7432499999999 453.55470000000025z">
      <title id="t467">Cinquième circonscription de Vendée</title>
      <desc id="d467">Cantons de : Chaillé-les-Marais, La Châtaigneraie, Fontenay-le-Comte, L'Hermenault, Luçon, Maillezais, Sainte-Hermine, Saint-Hilaire-des-Loges</desc>
    </path></svg>