<svg xmlns="http://www.w3.org/2000/svg" version="1.1" xmlns:xlink="http://www.w3.org/1999/xlink" xmlns:svgjs="http://svgjs.dev/svgjs" width="558.9699999999999" height="697.1200000000005" fill="#eeeeee" stroke="#cccccc" xmlns:sodipodi="http://sodipodi.sourceforge.net/DTD/sodipodi-0.dtd"><path class="circo" id="id-086-01" d="M95.72499999999991 241.8356L92.4124999999998 244.40650000000005L84.5214999999996 242.3421000000002L85.3694999999999 252.40974999999992L83.66949999999974 253.6241000000001L75.80649999999991 251.37720000000002L75.58499999999981 254.5834000000002L69.46299999999951 252.69830000000013L65.84699999999998 257.5181500000002L61.629499999999666 256.81025000000034L58.0174999999997 258.86945000000026L54.67999999999961 266.59695L57.455999999999676 272.2818000000001L58.91849999999977 278.46730000000036L56.96149999999989 279.3012500000003L53.11800000000005 278.98810000000026L45.01099999999951 285.20645L43.19950000000006 286.33655000000033L44.53299999999956 292.58020000000045L43.402999999999565 296.55895000000044L35.601499999999646 299.67840000000024L39.319999999999595 306.88289999999995L29.94799999999998 315.13509999999997L36.26649999999984 314.6470500000004L42.77850000000001 309.30205L54.77350000000001 312.37945000000025L64.83599999999967 311.4317L66.23099999999965 313.0254500000001L70.42249999999967 308.13615000000027L77.60699999999986 299.86865000000023L79.57299999999975 299.15355000000034L88.793 303.96675000000016L91.42899999999997 300.7095000000004L96.70249999999953 294.3638500000003L99.48800000000006 291.1850500000003L107.62749999999983 289.8282499999999L111.75299999999993 294.6378000000004L113.02499999999952 301.0967500000004L106.61749999999984 308.6076000000003L109.61399999999969 323.4100000000001L125.33549999999991 326.20375000000024L127.82349999999951 322.99080000000004L130.31549999999982 324.7320000000002L133.7054999999998 326.3913500000001L133.79849999999976 332.2004000000004L131.1179999999996 335.02250000000004L139.57449999999994 336.4579500000002L145.65699999999993 342.389L149.8879999999997 343.2337000000001L152.95699999999954 342.92554999999993L155.79649999999958 345.9825000000001L163.7545 348.39945L174.04999999999973 355.7097500000003L176.3934999999998 359.2746500000004L175.42249999999967 363.3927L185.23699999999963 368.09664999999995L190.15499999999975 367.3279500000001L191.8859999999995 365.7089000000002L195.44699999999978 368.36535000000026L199.2999999999995 366.79025000000024L201.35400000000004 372.6359500000001L200.63549999999964 376.0011000000003L205.79799999999977 380.59770000000015L212.70449999999983 386.9203500000003L210.59349999999995 378.7650000000002L211.9659999999999 372.54295000000013L220.19499999999994 371.5252000000004L225.79549999999983 377.25720000000024L225.91049999999996 381.32420000000025L229.75449999999967 382.7805000000001L236.30349999999964 385.3190000000001L229.66399999999965 392.8443500000003L230.74199999999962 398.9050500000002L234.60099999999954 405.71394999999995L238.47299999999962 407.43605L247.27299999999957 416.4057500000001L256.447 421.55895000000044L259.8834999999997 410.9472500000004L261.6334999999998 414.75885000000005L270.3709999999995 420.0296000000003L274.1794999999996 425.0106500000004L284.1704999999996 427.9200500000002L282.4275 420.29945L292.2324999999995 416.1754000000002L298.5665 415.8592500000003L299.74249999999984 414.05425000000037L301.07249999999965 407.7881000000002L297.8354999999999 402.35540000000015L302.7584999999999 396.74570000000017L300.874 396.07410000000016L299.6379999999999 392.2709000000003L304.01449999999954 385.9580500000004L309.11749999999984 377.3449500000004L308.0994999999996 375.5991L302.05749999999966 377.19719999999995L300.5865 375.7326499999999L303.0269999999996 370.13270000000034L301.72199999999975 368.48479999999995L307.3479999999995 365.9128500000003L308.82799999999975 359.8956500000003L318.8889999999998 346.5078500000004L315.4219999999998 334.9482499999999L313.442 334.54525000000046L300.9704999999997 332.94820000000016L294.76249999999993 334.8157500000002L292.70699999999977 334.1373500000003L291.41399999999976 330.01135000000033L289.991 325.0967000000003L284.2089999999996 317.71029999999996L276.67550000000006 321.1913000000004L266.08199999999954 320.83645000000047L258.5825 323.91279999999995L252.83349999999984 310.75530000000015L252.56699999999967 307.61085000000037L260.06550000000004 297.87270000000035L258.4744999999998 292.04965000000016L251.51449999999954 287.3910000000001L253.96399999999971 280.1754500000004L247.00349999999958 273.1580500000001L241.77449999999965 276.4769000000001L235.72649999999953 277.68290000000036L228.5164999999995 285.0998500000003L222.5449999999995 283.10055000000034L218.4854999999999 284.2833999999999L217.86749999999984 282.2319500000003L213.84849999999972 281.0800499999999L217.33949999999993 262.51599999999996L213.0464999999998 262.58545000000026L207.81049999999993 256.01855L207.17949999999973 253.95425000000046L211.4349999999996 244.06825000000026L206.80399999999963 243.76350000000002L205.90199999999982 250.19505000000038L200.5775 259.20510000000036L194.34349999999995 260.71635000000015L188.93299999999954 257.1980500000001L185.71049999999957 253.00855000000013L185.27150000000006 249.57385000000045L188.19299999999998 247.11005L185.8175 244.26064999999994L186.61699999999996 242.51715000000047L176.13849999999957 242.06774999999993L163.88049999999964 238.02040000000034L157.46099999999956 237.78390000000002L155.54149999999993 236.76575000000014L155.8314999999999 232.4266L153.31099999999992 226.44990000000007L151.23649999999998 225.97360000000037L145.80799999999954 228.81590000000017L144.0379999999999 227.7869000000004L140.7824999999997 225.28305000000046L136.94299999999998 226.50395000000003L124.9124999999998 238.28115000000025L118.90549999999962 240.4203000000001L112.67749999999978 239.31285000000003L108.70299999999986 244.28860000000043L100.7144999999997 246.90465000000017L99.3444999999997 245.24940000000015L95.72499999999991 241.8356z">
      <title id="t468">Première circonscription de la Vienne</title>
      <desc id="d468">Cantons de : Mirebeau, Neuville-de-Poitou, Poitiers I, Poitiers II, Poitiers VII, Saint-Georges-lès-Baillargeaux, Saint-Julien-l'Ars</desc>
    </path><path class="circo" id="id-086-02" d="M266.6829999999999 470.5417L276.50149999999996 470.7895500000001L280.47799999999995 469.41100000000006L281.576 463.1780500000002L286.58299999999997 456.5337500000004L284.73449999999957 452.96805000000006L279.0779999999995 450.41495L272.15899999999976 440.4424L271.74949999999967 434.7570000000002L281.413 434.6780000000001L284.1704999999996 427.9200500000002L274.1794999999996 425.0106500000004L270.3709999999995 420.0296000000003L261.6334999999998 414.75885000000005L259.8834999999997 410.9472500000004L256.447 421.55895000000044L247.27299999999957 416.4057500000001L238.47299999999962 407.43605L234.60099999999954 405.71394999999995L230.74199999999962 398.9050500000002L229.66399999999965 392.8443500000003L236.30349999999964 385.3190000000001L229.75449999999967 382.7805000000001L225.91049999999996 381.32420000000025L225.79549999999983 377.25720000000024L220.19499999999994 371.5252000000004L211.9659999999999 372.54295000000013L210.59349999999995 378.7650000000002L212.70449999999983 386.9203500000003L200.63549999999964 376.0011000000003L201.35400000000004 372.6359500000001L199.2999999999995 366.79025000000024L195.44699999999978 368.36535000000026L191.8859999999995 365.7089000000002L190.15499999999975 367.3279500000001L185.23699999999963 368.09664999999995L175.42249999999967 363.3927L176.3934999999998 359.2746500000004L174.02699999999982 355.8502000000004L174.04999999999973 355.7097500000003L163.7545 348.39945L155.79649999999958 345.9825000000001L152.95699999999954 342.92554999999993L149.8879999999997 343.2337000000001L145.65699999999993 342.389L139.57449999999994 336.4579500000002L131.1179999999996 335.02250000000004L133.79849999999976 332.2004000000004L133.7054999999998 326.3913500000001L130.31549999999982 324.7320000000002L127.82349999999951 322.99080000000004L125.33549999999991 326.20375000000024L109.61399999999969 323.4100000000001L106.61749999999984 308.6076000000003L113.02499999999952 301.0967500000004L111.75299999999993 294.6378000000004L107.62749999999983 289.8282499999999L99.48800000000006 291.1850500000003L96.70249999999953 294.3638500000003L91.42899999999997 300.7095000000004L88.793 303.96675000000016L79.57299999999975 299.15355000000034L77.60699999999986 299.86865000000023L70.42249999999967 308.13615000000027L66.23099999999965 313.0254500000001L64.83599999999967 311.4317L54.77350000000001 312.37945000000025L42.77850000000001 309.30205L36.26649999999984 314.6470500000004L29.94799999999998 315.13509999999997L29.783499999999776 315.19205L27.303999999999746 318.5686500000003L28.683999999999514 320.1844L28.307499999999663 326.4699999999999L18.38899999999967 334.31870000000004L15.016499999999837 339.70365000000015L15.430999999999813 343.9367000000004L31.421499999999583 340.40670000000034L36.09049999999968 333.67369999999994L41.32000000000005 330.3946000000002L43.60549999999989 333.47005000000024L39.11799999999971 347.7899500000001L44.755499999999984 350.92505000000017L53.11649999999986 349.0689000000003L53.60149999999976 361.08570000000043L61.55899999999974 363.52194999999995L56.407499999999686 367.31605L52.122999999999706 367.5559500000003L41.99399999999969 375.54035L39.10599999999988 385.6101000000001L46.42599999999959 391.8519500000002L40.73849999999993 405.05179999999996L43.895499999999856 407.8362500000003L51.982999999999606 407.8017L54.16349999999966 413.42370000000017L58.335500000000025 413.7337000000002L60.09749999999997 414.57975000000033L64.6939999999995 410.9571500000004L66.5074999999996 411.68465000000026L71.18949999999984 415.7388500000002L74.05550000000005 425.73540000000037L76.06899999999996 426.36135000000024L82.52599999999973 421.3101500000005L81.7779999999999 417.24860000000035L85.56449999999984 407.66580000000033L92.02999999999975 420.0648000000001L93.40199999999982 428.1972000000002L96.24949999999956 428.1428500000004L102.86549999999977 413.2928000000004L113.14750000000004 413.5657500000002L119.5984999999996 408.12535000000025L131.23299999999972 409.10180000000025L135.47649999999976 413.3638000000002L138.66649999999993 420.6674000000004L138.279 424.95325000000037L124.15099999999995 429.4817499999999L120.37399999999991 436.90710000000024L120.22649999999999 445.2242000000001L126.20499999999993 450.3582L128.83849999999995 452.4542500000001L126.35149999999953 455.89969999999994L129.2659999999995 461.41380000000026L126.5459999999996 471.56570000000045L127.23749999999995 473.57970000000023L129.65299999999957 477.0649000000003L135.7004999999998 476.0232000000002L138.70599999999968 479.01565000000005L133.10599999999965 490.5412000000001L127.81399999999962 493.9322500000003L127.50099999999975 496.04160000000036L129.461 496.84860000000015L131.43599999999992 496.37855L136.44799999999975 499.82015000000047L146.6319999999996 492.96190000000024L154.0319999999997 497.02170000000024L155.99649999999997 496.2319500000001L167.61699999999962 500.98614999999995L170.34799999999962 510.16980000000046L172.183 509.8182000000003L184.4584999999995 503.01315000000045L188.22299999999984 504.60090000000037L193.49850000000004 510.6870500000002L196.73199999999952 503.3266500000002L207.75199999999984 498.35225000000037L207.80599999999993 497.30200000000025L206.84799999999996 495.44095000000027L208.2729999999998 491.5084999999999L204.48549999999955 490.0908000000004L203.7594999999999 486.37895000000015L206.20349999999974 480.6286L215.09149999999977 475.35315000000026L225.19849999999963 475.9930000000003L233.76299999999958 476.0250500000001L248.0709999999999 479.8064500000004L254.28200000000004 478.7864000000002L259.1089999999997 482.8312500000004L260.71649999999977 488.8979499999999L262.7875 482.9477000000003L267.59199999999964 478.8874500000003L266.6829999999999 470.5417z">
      <title id="t469">Deuxième circonscription de la Vienne</title>
      <desc id="d469">Cantons de : Poitiers III, Poitiers IV, Poitiers V, Poitiers VI, La Villedieu-du-Clain, Vivonne, Vouillé</desc>
    </path><path class="circo" id="id-086-03" d="M327.1949999999998 667.76545L315.45349999999985 671.0198000000003L307.1494999999999 670.1103499999999L304.1969999999998 672.9379500000005L302.2215 672.2197500000004L301.5349999999995 679.5440000000002L296.57399999999996 682.68145L294.5224999999999 677.4724500000002L287.405 679.3308000000002L282.7849999999995 672.6008999999999L278.5854999999998 672.0408000000003L272.8974999999997 674.7800000000001L271.72699999999963 668.62165L264.71799999999973 658.3438000000001L257.7054999999996 654.0416000000005L259.5999999999998 646.3462500000003L253.87900000000002 644.2953500000004L250.06449999999973 648.7103999999999L244.13700000000006 647.4526000000003L240.1664999999997 658.9660500000002L237.08299999999952 661.7002000000002L235.13949999999966 661.02285L231.79299999999955 664.9643500000002L234.14499999999975 668.2619L232.83299999999997 669.9007500000005L233.56650000000002 673.8688000000002L241.84049999999957 673.6175500000002L245.582 675.3247500000003L245.28699999999958 683.6641000000003L247.6849999999996 687.1142000000003L243.62099999999998 686.2897000000004L241.50099999999952 689.8454500000003L233.10699999999997 695.8058L219.05449999999973 697.1200000000005L214.58749999999952 688.5212000000001L209.09400000000005 686.0759000000002L205.6654999999995 688.3644000000004L193.45749999999953 687.3377500000004L190.04099999999994 688.14325L184.1719999999998 687.3537000000005L180.47949999999958 688.96345L177.0245 687.3206000000005L173.54150000000004 689.7193000000004L167.22199999999987 690.7146L161.09649999999988 689.6733499999999L160.01599999999996 685.9246000000002L154.55299999999966 683.0674000000005L152.57199999999955 679.4153500000004L145.2695 676.2427000000002L139.7444999999999 672.0083L136.84249999999963 669.4552000000004L127.27999999999952 668.6511000000002L124.45949999999982 662.9912000000002L123.66799999999955 658.9979500000004L128.40199999999982 655.23845L129.69299999999976 650.1539500000001L127.75800000000004 649.4769500000001L128.63999999999976 647.6219000000003L135.33699999999953 640.095L136.4515 631.9737500000002L136.10449999999958 629.9459000000002L134.0689999999995 629.7194999999999L127.68449999999973 629.17215L122.7959999999996 635.6935000000004L118.596 635.1917000000003L116.45399999999995 631.6915L109.32699999999954 630.8705500000002L106.35199999999998 621.41775L104.3549999999999 620.9040500000003L102.74549999999977 617.1016000000003L89.17749999999955 613.1784500000003L91.61249999999995 597.0819500000005L93.57100000000003 596.4843500000001L99.21449999999993 588.0970000000002L101.15349999999978 588.7740000000002L104.0504999999996 585.8785L102.6804999999996 579.8766L101.82399999999973 576.9453000000004L98.15999999999974 563.2705000000004L112.27399999999989 563.10205L116.64099999999962 556.2800500000003L108.40649999999982 540.6264000000004L109.48649999999986 538.8521000000003L113.52949999999964 539.7263500000003L115.43899999999951 536.5472500000004L113.93349999999998 532.6264000000003L118.78649999999993 525.8198000000004L109.78899999999953 516.4870500000001L101.88349999999957 512.7184L95.81399999999974 514.3211000000002L93.52949999999964 517.9554000000002L86.48399999999981 522.7570000000003L84.00149999999996 526.23155L84.59949999999992 530.4688500000003L76.64649999999995 540.0776500000001L63.44699999999989 529.3371000000002L55.87850000000003 525.4739000000001L49.81999999999971 526.9621000000001L53.18649999999991 516.9556L56.75099999999986 514.6794500000004L49.288499999999544 508.02625000000035L57.9464999999999 497.87485000000004L53.03449999999998 494.22484999999995L49.593999999999596 487.2207000000003L43.58000000000004 486.2668000000002L40.003999999999564 488.2854500000002L40.0079999999997 484.0156999999999L34.809999999999945 477.9222500000003L37.9729999999995 465.5908500000004L38.90549999999962 450.7832000000002L35.224000000000046 448.69505000000004L38.954499999999825 439.40635000000043L38.075999999999794 437.5884000000002L35.68649999999991 435.23345000000006L26.359499999999798 438.3394000000004L25.01699999999971 436.8731500000001L25.324999999999704 430.7551000000001L29.727999999999497 426.8693999999999L26.727999999999952 424.1142500000001L26.915499999999497 420.03514999999993L30.150999999999613 414.73535000000027L30.077999999999747 404.43100000000015L40.73849999999993 405.05179999999996L43.895499999999856 407.8362500000003L51.982999999999606 407.8017L54.16349999999966 413.42370000000017L58.335500000000025 413.7337000000002L60.09749999999997 414.57975000000033L64.6939999999995 410.9571500000004L66.5074999999996 411.68465000000026L71.18949999999984 415.7388500000002L74.05550000000005 425.73540000000037L76.06899999999996 426.36135000000024L82.52599999999973 421.3101500000005L81.7779999999999 417.24860000000035L85.56449999999984 407.66580000000033L92.02999999999975 420.0648000000001L93.40199999999982 428.1972000000002L96.24949999999956 428.1428500000004L102.86549999999977 413.2928000000004L113.14750000000004 413.5657500000002L119.5984999999996 408.12535000000025L131.23299999999972 409.10180000000025L135.47649999999976 413.3638000000002L138.66649999999993 420.6674000000004L138.279 424.95325000000037L124.15099999999995 429.4817499999999L120.37399999999991 436.90710000000024L120.22649999999999 445.2242000000001L126.20499999999993 450.3582L128.83849999999995 452.4542500000001L126.35149999999953 455.89969999999994L129.2659999999995 461.41380000000026L126.5459999999996 471.56570000000045L127.23749999999995 473.57970000000023L129.65299999999957 477.0649000000003L135.7004999999998 476.0232000000002L138.70599999999968 479.01565000000005L133.10599999999965 490.5412000000001L127.81399999999962 493.9322500000003L127.50099999999975 496.04160000000036L129.461 496.84860000000015L131.43599999999992 496.37855L136.44799999999975 499.82015000000047L146.6319999999996 492.96190000000024L154.0319999999997 497.02170000000024L155.99649999999997 496.2319500000001L167.61699999999962 500.98614999999995L170.34799999999962 510.16980000000046L172.183 509.8182000000003L184.4584999999995 503.01315000000045L188.22299999999984 504.60090000000037L193.49850000000004 510.6870500000002L196.73199999999952 503.3266500000002L207.75199999999984 498.35225000000037L207.80599999999993 497.30200000000025L206.84799999999996 495.44095000000027L208.2729999999998 491.5084999999999L204.48549999999955 490.0908000000004L203.7594999999999 486.37895000000015L206.20349999999974 480.6286L215.09149999999977 475.35315000000026L225.19849999999963 475.9930000000003L233.76299999999958 476.0250500000001L248.0709999999999 479.8064500000004L254.28200000000004 478.7864000000002L259.1089999999997 482.8312500000004L260.71649999999977 488.8979499999999L262.7875 482.9477000000003L267.59199999999964 478.8874500000003L266.6829999999999 470.5417L276.50149999999996 470.7895500000001L280.47799999999995 469.41100000000006L281.576 463.1780500000002L286.58299999999997 456.5337500000004L284.73449999999957 452.96805000000006L279.0779999999995 450.41495L272.15899999999976 440.4424L271.74949999999967 434.7570000000002L281.413 434.6780000000001L284.1704999999996 427.9200500000002L282.4275 420.29945L292.2324999999995 416.1754000000002L298.5665 415.8592500000003L299.74249999999984 414.05425000000037L301.07249999999965 407.7881000000002L297.8354999999999 402.35540000000015L302.7584999999999 396.74570000000017L300.874 396.07410000000016L299.6379999999999 392.2709000000003L304.01449999999954 385.9580500000004L309.11749999999984 377.3449500000004L308.0994999999996 375.5991L302.05749999999966 377.19719999999995L300.5865 375.7326499999999L303.0269999999996 370.13270000000034L301.72199999999975 368.48479999999995L307.3479999999995 365.9128500000003L308.82799999999975 359.8956500000003L318.8889999999998 346.5078500000004L315.4219999999998 334.9482499999999L313.442 334.54525000000046L300.9704999999997 332.94820000000016L294.76249999999993 334.8157500000002L292.70699999999977 334.1373500000003L291.41399999999976 330.01135000000033L289.991 325.0967000000003L284.2089999999996 317.71029999999996L276.67550000000006 321.1913000000004L266.08199999999954 320.83645000000047L258.5825 323.91279999999995L252.83349999999984 310.75530000000015L252.56699999999967 307.61085000000037L260.06550000000004 297.87270000000035L258.4744999999998 292.04965000000016L251.51449999999954 287.3910000000001L253.96399999999971 280.1754500000004L247.00349999999958 273.1580500000001L241.77449999999965 276.4769000000001L235.72649999999953 277.68290000000036L228.5164999999995 285.0998500000003L222.5449999999995 283.10055000000034L218.4854999999999 284.2833999999999L217.86749999999984 282.2319500000003L213.84849999999972 281.0800499999999L217.33949999999993 262.51599999999996L220.0404999999995 257.19060000000013L229.67799999999954 253.18605000000048L237.91549999999972 254.7863000000001L238.07299999999998 262.4825000000004L245.17499999999984 266.29425000000026L248.70199999999954 271.05324999999993L251.34449999999958 268.16430000000025L255.60599999999965 272.41450000000043L259.701 272.6477L260.8549999999997 270.9068500000001L258.35649999999987 267.4386500000003L258.42299999999966 263.3683000000002L261.69249999999977 257.83830000000023L268.2579999999996 252.38865000000033L268.33799999999997 248.1707L270.3019999999998 247.35460000000046L275.19000000000005 245.00980000000027L275.7639999999998 248.7937500000004L281.34349999999984 246.48510000000044L290.4729999999995 250.50780000000032L298.5559999999998 261.09230000000025L301.0254999999995 264.45325000000025L313.17799999999977 261.7951500000004L319.3474999999995 262.64935000000037L311.4364999999998 277.86460000000034L319.7434999999996 293.05060000000026L319.8339999999996 299.4733000000002L328.30799999999954 300.2261500000003L330.0635 298.9906000000002L330.9064999999998 292.65765000000044L336.89549999999997 293.24085000000025L342.3325 289.9720500000001L350.8574999999996 289.72410000000025L354.495 284.9566500000003L357.61049999999955 287.2570999999999L363.0469999999997 285.82265000000007L365.99049999999977 288.3462000000003L375.73649999999986 277.8057000000001L376.7384999999996 281.97780000000023L383.1124999999997 290.5931000000004L390.8164999999997 287.80445000000043L397.3139999999995 292.5771000000003L403.27049999999986 290.79454999999996L411.3454999999999 293.46090000000004L412.3404999999997 291.5581500000002L422.9235 291.50795000000016L427.11599999999976 277.29660000000024L430.66149999999993 279.3632500000001L430.3354999999999 285.3527500000001L436.45899999999983 296.01050000000043L437.44550000000004 300.10905000000037L433.62949999999955 302.0404500000001L426.875 309.98220000000003L430.6894999999997 310.99625000000003L429.033 316.9373999999999L432.5599999999997 326.69970000000035L429.15549999999996 329.14895L424.0084999999999 338.3692500000001L423.3884999999998 340.34790000000044L428.03049999999985 347.1415000000002L432.6559999999995 360.14245000000017L441.961 361.5069L441.08149999999966 365.03405000000043L443.4949999999998 369.8841500000003L449.5429999999999 371.90425000000005L452.45000000000005 375.04205000000013L460.77099999999973 374.58825000000047L464.2724999999996 379.14270000000045L474.6894999999995 377.99285L478.91449999999963 389.1551000000004L477.08849999999984 396.9150000000002L496.2564999999995 395.61440000000005L502.47149999999976 397.51059999999995L506.7054999999999 396.6450000000003L512.6749999999998 399.2108999999999L520.9969999999998 406.0722000000004L531.8019999999996 418.4928000000002L526.5704999999997 421.84725000000014L526.2694999999997 423.89575000000036L533.4224999999998 436.6250500000001L532.2629999999998 438.2197000000002L526.0094999999995 437.8278L532.5559999999996 450.5327500000004L540.0394999999997 452.9693000000003L547.2469999999998 457.20230000000015L547.3804999999999 463.50300000000004L551.4774999999997 463.28160000000025L554.8404999999997 460.6886000000003L558.9699999999999 461.14985000000047L550.6164999999999 475.52880000000016L551.4619999999996 481.5327500000001L543.7604999999996 491.43395L535.1439999999997 488.1831500000004L531.5349999999995 495.6763000000001L531.7764999999997 499.85955000000047L523.0619999999999 504.82015000000047L523.6075 506.84259999999995L522.7144999999996 513.04845L514.9294999999995 509.98445000000004L511.51399999999967 504.73025000000007L501.2639999999999 507.08155000000033L489.73199999999963 504.4752500000004L489.0859999999998 508.31320000000005L479.95900000000006 516.38305L479.5585 528.9075500000001L477.4154999999996 534.9364000000003L472.6234999999997 539.0200500000003L472.4744999999996 545.2027000000004L470.0074999999998 548.5507000000001L470.9164999999996 554.8208L469.85149999999976 555.2802000000003L466.29449999999963 553.2877000000002L462.5694999999996 554.44075L456.74800000000005 552.01955L448.3529999999996 551.9543500000003L440.924 548.5033500000003L440.44249999999977 554.6043500000002L426.4439999999996 550.8030500000001L421.53599999999983 562.4614000000003L409.60699999999974 566.5995000000004L410.34299999999973 568.5064L407.9454999999996 574.1471000000001L403.94349999999974 574.9319500000001L401.9209999999998 580.6945000000002L405.4679999999996 582.4906000000004L404.05100000000004 586.3872500000002L386.98199999999986 587.3782L383.1404999999995 595.0612000000001L381.17999999999995 595.9518000000003L383.6534999999998 598.2341500000001L383.5069999999996 603.6709500000001L389.09599999999955 605.9988000000004L392.43949999999984 613.4995000000004L397.59799999999984 616.4761000000004L395.6124999999997 621.66695L396.52799999999957 624.5115000000004L399.64999999999975 625.6192000000004L397.18999999999994 631.3749000000001L398.6054999999999 637.60875L402.9004999999995 642.4031500000001L400.462 645.2877000000001L397.5864999999999 648.4829000000002L393.3714999999995 648.4001000000001L386.927 643.3581500000003L377.1179999999998 646.88715L361.26199999999983 642.1878500000003L353.32899999999995 644.4272000000001L346.15549999999985 642.0376000000005L345.96649999999954 642.3694499999999L343.9639999999997 648.1517500000001L334.78899999999953 653.2205500000003L330.9009999999995 658.2456999999999L335.57849999999974 667.6116000000002L327.1949999999998 667.76545z">
      <title id="t470">Troisième circonscription de la Vienne</title>
      <desc id="d470">Cantons de : Availles-Limouzine, Charroux, Chauvigny, Civray, Couhé, Gençay, L'Isle-Jourdain, Lusignan, Lussac-les-Châteaux, Montmorillon, Saint-Savin, La Trimouille, Vouneuil-sur-Vienne, commune de La Puye</desc>
    </path><path class="circo" id="id-086-04" d="M281.34349999999984 246.48510000000044L275.7639999999998 248.7937500000004L275.19000000000005 245.00980000000027L270.3019999999998 247.35460000000046L268.33799999999997 248.1707L268.2579999999996 252.38865000000033L261.69249999999977 257.83830000000023L258.42299999999966 263.3683000000002L258.35649999999987 267.4386500000003L260.8549999999997 270.9068500000001L259.701 272.6477L255.60599999999965 272.41450000000043L251.34449999999958 268.16430000000025L248.70199999999954 271.05324999999993L245.17499999999984 266.29425000000026L238.07299999999998 262.4825000000004L237.91549999999972 254.7863000000001L229.67799999999954 253.18605000000048L220.0404999999995 257.19060000000013L217.33949999999993 262.51599999999996L213.0464999999998 262.58545000000026L207.81049999999993 256.01855L207.17949999999973 253.95425000000046L211.4349999999996 244.06825000000026L206.80399999999963 243.76350000000002L205.90199999999982 250.19505000000038L200.5775 259.20510000000036L194.34349999999995 260.71635000000015L188.93299999999954 257.1980500000001L185.71049999999957 253.00855000000013L185.27150000000006 249.57385000000045L188.19299999999998 247.11005L185.8175 244.26064999999994L186.61699999999996 242.51715000000047L176.13849999999957 242.06774999999993L163.88049999999964 238.02040000000034L157.46099999999956 237.78390000000002L155.54149999999993 236.76575000000014L155.8314999999999 232.4266L153.31099999999992 226.44990000000007L151.23649999999998 225.97360000000037L145.80799999999954 228.81590000000017L144.0379999999999 227.7869000000004L140.7824999999997 225.28305000000046L136.94299999999998 226.50395000000003L124.9124999999998 238.28115000000025L118.90549999999962 240.4203000000001L112.67749999999978 239.31285000000003L108.70299999999986 244.28860000000043L100.7144999999997 246.90465000000017L99.3444999999997 245.24940000000015L95.72499999999991 241.8356L92.4124999999998 244.40650000000005L84.5214999999996 242.3421000000002L85.3694999999999 252.40974999999992L83.66949999999974 253.6241000000001L75.80649999999991 251.37720000000002L75.58499999999981 254.5834000000002L69.46299999999951 252.69830000000013L65.84699999999998 257.5181500000002L61.629499999999666 256.81025000000034L58.0174999999997 258.86945000000026L54.67999999999961 266.59695L57.455999999999676 272.2818000000001L53.66649999999993 270.7592500000004L42.587499999999636 258.1460500000003L38.01999999999964 262.44650000000036L34.31949999999972 254.8347000000001L34.10599999999988 248.7981000000002L35.87249999999983 247.76295000000005L33.09849999999983 242.56245000000035L33.77149999999972 240.62389999999994L40.4019999999997 233.0195500000002L46.29699999999957 227.56895000000043L46.214499999999816 225.53515000000004L41.52150000000006 221.79700000000025L34.10249999999962 224.89055000000008L22.537999999999556 219.80760000000032L24.110499999999888 219.2094000000003L23.98399999999981 214.17655000000025L28.16599999999994 214.0933000000001L31.999999999999886 209.15345000000002L38.86699999999962 204.6628000000004L44.93449999999996 206.14485000000002L49.73899999999958 212.77500000000032L50.46099999999967 212.4010000000004L57.75049999999965 200.5245500000001L53.4944999999999 200.6066000000004L47.69649999999956 197.71285000000034L44.11049999999989 195.29555000000016L39.96499999999969 190.36225000000002L33.874999999999886 188.08065L29.71149999999966 189.17110000000037L28.253499999999576 187.55775000000028L31.380999999999517 184.92150000000038L33.53649999999959 175.27440000000013L39.52549999999974 167.04115000000002L37.5079999999997 158.3671000000004L33.99199999999951 148.25670000000002L30.337499999999977 145.97465L29.95149999999967 141.59190000000024L24.34949999999958 134.92954999999995L23.745499999999993 130.5708500000003L29.324499999999603 122.01565000000016L26.948999999999614 116.38740000000041L19.8864999999995 113.05075000000045L13.672499999999559 114.16860000000042L6.647499999999695 118.87270000000001L4.140499999999747 106.4113500000002L4.424499999999512 102.5027L8.294499999999516 103.38970000000018L8.83199999999988 101.52660000000026L5.8884999999997945 94.09865000000025L5.04099999999994 89.32810000000018L4.55099999999959 86.08850000000018L0 69.2999500000002L0.625999999999749 56.95539999999994L1.7284999999998263 52.73325L7.0470000000000255 47.0626500000003L12.891499999999496 47.969850000000065L14.60299999999961 51.46410000000003L24.60049999999967 51.60955000000001L28.393499999999676 55.62530000000038L31.897500000000036 45.664050000000316L31.47549999999967 43.570400000000404L27.465499999999565 42.250999999999976L26.699499999999716 40.26080000000036L28.76549999999952 34.452550000000315L29.064499999999498 30.118800000000192L38.420999999999594 12.20070000000021L51.484499999999684 0L58.975999999999544 9.624249999999961L63.186000000000035 5.686750000000416L66.24300000000005 6.968899999999962L71.00049999999953 18.53710000000035L72.70849999999996 19.807500000000005L76.71949999999981 18.39150000000018L78.01349999999957 26.545450000000415L76.58399999999972 32.50750000000039L78.4375 36.22010000000046L81.73799999999972 33.68430000000046L87.90999999999997 34.34574999999995L90.89349999999968 29.098050000000057L95.10749999999973 29.877700000000118L99.5474999999999 33.97535000000005L103.1944999999996 31.974700000000098L100.41549999999972 37.798349999999914L100.75649999999996 42.106750000000375L112.21949999999993 47.26555000000019L113.80599999999959 43.18140000000028L120.62250000000006 37.74339999999995L122.80699999999968 46.0305500000004L128.59899999999982 52.528500000000236L118.57100000000003 63.73890000000017L118.07549999999992 71.84550000000002L120.04799999999989 72.63475000000028L126.0269999999997 70.42615000000012L131.88999999999965 76.51755000000037L141.91149999999993 70.2564000000001L143.34649999999954 66.58070000000009L147.05150000000003 65.46685000000025L155.41449999999998 66.99065000000019L155.69999999999993 80.76105000000041L157.16849999999965 82.24985000000004L163.15049999999985 80.44669999999996L170.2374999999995 76.05594999999994L174.27999999999997 80.27205000000038L173.43549999999993 86.24504999999999L175.12900000000002 92.2375500000004L171.15499999999997 96.55754999999999L174.38099999999963 109.75549999999998L175.46599999999955 111.38570000000016L171.19699999999966 115.5170000000004L167.2664999999995 115.77555000000018L173.70649999999955 122.8398500000003L170.14399999999966 127.6137L173.62750000000005 132.1795000000003L171.76850000000002 137.5442000000004L175.3985 147.26320000000044L179.84049999999968 151.6707500000001L181.6809999999998 152.7181999999999L187.17049999999972 149.5657L191.33849999999995 149.341L198.37499999999977 141.74695000000042L208.23099999999954 144.77194999999995L215.6864999999999 149.4879000000003L222.2215 149.32915000000037L229.85950000000003 153.56525000000033L232.4494999999996 146.36000000000024L252.2044999999997 137.54170000000045L258.1144999999998 134.68420000000037L261.3919999999996 137.20545000000016L272.8264999999999 134.49550000000045L278.9439999999996 135.5784L284.9414999999999 137.32190000000003L297.64700000000005 136.85305000000028L299.1329999999999 135.3212000000002L297.9014999999998 125.33400000000029L287.2249999999997 120.06140000000016L287.5524999999999 114.14180000000044L284.3629999999996 108.12710000000038L284.6999999999997 105.79245000000014L288.5319999999996 106.83640000000025L294.39599999999984 105.51694999999995L306.2684999999999 105.0264500000003L308.4625 108.20500000000038L307.7124999999995 110.07460000000037L308.6034999999998 113.64520000000027L314.47299999999984 118.90135000000043L318.29949999999997 117.02980000000025L322.1659999999997 118.94060000000025L324.10949999999957 122.8049500000003L336.7339999999996 125.2991000000003L338.9029999999997 128.90485000000012L338.861 133.23135000000036L339.2039999999997 135.02170000000035L343.53700000000003 149.50345000000027L342.2589999999997 155.90340000000026L344.7014999999999 160.94385000000045L342.5 166.14715000000047L342.8959999999995 170.1758000000001L353.43549999999993 182.42995000000008L356.0409999999996 187.64170000000036L359.40849999999955 189.63985000000037L363.6165 196.47905000000037L370.79949999999997 194.1139000000004L371.42349999999965 196.06134999999995L369.11299999999983 199.42450000000008L371.2519999999995 202.4648000000002L379.5104999999995 201.65565000000015L381.9839999999999 204.70385000000022L378.1989999999996 206.44994999999994L377.83799999999985 208.50850000000037L381.1454999999995 213.68764999999996L386.8109999999996 216.01910000000032L387.60149999999953 224.2434000000003L387.731 225.30290000000036L390.04099999999994 231.0109L389.08799999999985 239.28060000000016L394.5044999999999 242.29489999999998L395.90599999999995 248.47290000000044L402.4699999999996 257.06774999999993L408.3729999999997 259.4656500000002L408.80349999999964 261.59415000000024L412.0874999999995 266.24900000000025L417.3294999999996 272.12365000000034L425.2015 273.95185000000026L427.11599999999976 277.29660000000024L422.9235 291.50795000000016L412.3404999999997 291.5581500000002L411.3454999999999 293.46090000000004L403.27049999999986 290.79454999999996L397.3139999999995 292.5771000000003L390.8164999999997 287.80445000000043L383.1124999999997 290.5931000000004L376.7384999999996 281.97780000000023L375.73649999999986 277.8057000000001L365.99049999999977 288.3462000000003L363.0469999999997 285.82265000000007L357.61049999999955 287.2570999999999L354.495 284.9566500000003L350.8574999999996 289.72410000000025L342.3325 289.9720500000001L336.89549999999997 293.24085000000025L330.9064999999998 292.65765000000044L330.0635 298.9906000000002L328.30799999999954 300.2261500000003L319.8339999999996 299.4733000000002L319.7434999999996 293.05060000000026L311.4364999999998 277.86460000000034L319.3474999999995 262.64935000000037L313.17799999999977 261.7951500000004L301.0254999999995 264.45325000000025L298.5559999999998 261.09230000000025L290.4729999999995 250.50780000000032L281.34349999999984 246.48510000000044z">
      <title id="t471">Quatrième circonscription de la Vienne</title>
      <desc id="d471">Cantons de : Châtellerault Nord, Châtellerault Ouest, Châtellerault Sud, Dangé-Saint-Romain, Lencloître, Loudun, Moncontour, Monts-sur-Guesnes, Pleumartin (moins la commune de La Puye), Saint-Gervais-les-Trois-Clochers, Les Trois-Moutiers</desc>
    </path></svg>