<svg xmlns="http://www.w3.org/2000/svg" version="1.1" xmlns:xlink="http://www.w3.org/1999/xlink" xmlns:svgjs="http://svgjs.dev/svgjs" width="543.8874999999996" height="588.9649499999996" fill="#eeeeee" stroke="#cccccc" xmlns:sodipodi="http://sodipodi.sourceforge.net/DTD/sodipodi-0.dtd"><path class="circo" id="id-087-01" d="M323.6089999999996 236.65494999999964L323.21649999999977 230.59364999999957L319.2505 229.32964999999967L310.6324999999998 234.62424999999996L308.2189999999997 237.99274999999966L302.20849999999984 238.51599999999962L299.3149999999997 241.47109999999998L294.7049999999996 247.9231999999996L293.2854999999995 254.0143999999998L298.202 260.09104999999977L298.2624999999996 262.17709999999954L294.20649999999966 266.91194999999993L292.5924999999995 268.2075999999995L284.91949999999974 265.43709999999976L278.1604999999996 269.95079999999973L262.42749999999944 270.63919999999996L262.52849999999967 274.7059999999999L257.6174999999995 281.16394999999955L258.2394999999997 285.19094999999993L264.0379999999999 285.3968999999995L270.98449999999957 281.6706499999998L272.93199999999956 285.16224999999963L273.14549999999997 291.1678999999998L270.90449999999976 297.07785L273.6595 306.9701999999995L270.9159999999997 310.1275499999997L271.21549999999957 314.2787499999997L268.4789999999998 319.9703499999998L268.4564999999998 328.1964999999997L264.43899999999985 333.1284499999998L262.55949999999984 335.33525L263.79249999999956 337.75064999999984L267.39649999999983 336.7005499999999L269.50549999999964 337.3649999999998L268.00599999999974 340.6520499999999L265.32299999999964 342.3684999999995L262.1799999999996 347.92389999999955L265.76949999999954 350.64959999999985L267.70249999999976 351.98984999999993L274.1229999999996 353.5030499999999L274.04849999999954 355.2792499999998L275.4329999999999 356.4717999999999L275.35699999999963 359.29464999999993L276.9754999999998 360.97894999999994L282.2819999999996 367.3765499999996L281.3144999999997 370.2356999999995L279.5409999999998 371.22994999999946L274.5234999999997 368.7475999999998L274.3334999999996 372.8312999999997L281.18649999999946 376.9863499999997L291.0589999999996 379.1115499999995L296.3489999999996 375.97399999999993L302.3929999999996 377.16369999999984L307.16399999999965 373.2262499999996L313.3239999999995 373.6468499999995L314.212 369.75775L310.14999999999986 365.19634999999994L317.18849999999975 361.4477499999998L319.0674999999999 362.30444999999975L317.97549999999944 370.47589999999957L320.7589999999999 373.31219999999973L328.6874999999998 367.0503499999995L333.7769999999995 370.29664999999966L329.9079999999998 374.64589999999987L330.9654999999998 378.5441499999996L333.00149999999974 378.5636499999998L336.56699999999944 376.57069999999976L338.5559999999998 377.25514999999973L347.21299999999985 386.24919999999975L355.18399999999986 388.57304999999997L357.9469999999998 391.74049999999966L367.57349999999974 388.3341999999999L369.3769999999995 389.41869999999994L371.26649999999984 395.0672999999995L376.6199999999998 397.3965999999996L383.7654999999995 396.12109999999973L383.6659999999995 401.68025L381.10799999999983 406.4230999999995L375.72599999999966 409.4640999999996L374.8829999999998 419.59649999999954L371.79449999999974 422.4396999999999L371.3274999999999 428.64814999999965L365.40099999999995 434.1483999999997L367.851 439.47749999999985L365.63499999999976 447.5677499999995L369.65899999999976 455.04369999999994L368.94499999999994 461.43164999999954L372.9854999999998 460.9659499999998L375.98449999999957 465.20204999999976L379.43749999999966 463.06219999999996L387.46599999999944 461.9210499999997L392.1034999999995 465.4269999999997L397.59149999999977 467.4451499999998L398.75599999999963 473.59375L397.38549999999975 477.44969999999967L403.03399999999954 485.8182999999997L402.3874999999998 492.00669999999946L406.5424999999999 496.59789999999987L405.97849999999994 500.73789999999974L409.35249999999996 505.6266999999997L412.54249999999956 502.94464999999946L423.0759999999998 503.40434999999957L433.33699999999965 496.1989L437.4199999999996 492.3213499999997L437.8139999999996 486.60325L439.8969999999997 483.3558999999997L453.3009999999996 470.0126499999999L459.43399999999997 465.34065L465.14449999999954 466.8457999999998L476.2099999999998 462.6828499999999L477.5954999999999 456.75239999999974L481.98699999999974 457.2910999999999L482.52999999999986 455.36054999999976L486.50349999999946 455.0078499999995L487.59649999999965 453.32644999999957L491.3529999999997 440.2093499999995L495.1649999999995 441.66264999999953L497.44249999999965 444.9425499999995L503.0939999999998 442.4187999999998L507.3249999999996 446.7484499999995L508.60949999999946 450.9249L516.5289999999999 451.94174999999973L520.3354999999999 447.55919999999946L529.1714999999999 451.1559999999997L530.9629999999999 450.1117999999997L532.2009999999995 441.9047499999999L540.3859999999997 442.6772999999997L543.8874999999996 440.7604999999995L542.9735 434.6857L539.3149999999997 432.7860499999997L539.3354999999997 430.7086499999997L533.9489999999995 424.4652499999995L531.8739999999997 424.1274999999996L531.7084999999997 422.09089999999946L536.6744999999997 418.5397499999999L533.3414999999997 413.49354999999946L529.4394999999997 414.64544999999987L528.5989999999998 412.7878999999996L534.0999999999997 402.1473999999995L528.8989999999995 395.8475999999996L532.1609999999998 393.38719999999967L538.3249999999998 393.0862499999995L540.7879999999994 387.31304999999963L536.8764999999996 388.02044999999964L532.9915 371.9779L523.3894999999995 364.42384999999945L521.3059999999996 364.5305499999995L520.9535 362.4989499999998L515.6879999999995 360.23064999999974L511.9394999999997 353.2344999999998L509.7519999999997 356.7273L509.65599999999995 360.96239999999966L507.7484999999996 361.8971499999998L504.00349999999946 359.9708999999996L495.90899999999976 350.3391499999998L487.9679999999996 348.4671499999996L486.0594999999995 342.58569999999963L488.7594999999999 336.9002999999998L484.95299999999986 327.04414999999983L479.0944999999999 328.3893999999998L478.6039999999997 334.80054999999993L471.7539999999997 337.40984999999966L467.48199999999997 342.2263499999997L461.1734999999999 343.6307999999997L452.697 342.0396499999998L445.04299999999944 345.7934499999999L440.99699999999984 345.2028999999999L437.83799999999985 348.1407999999999L434.82349999999997 340.92314999999985L424.4734999999997 339.7224L413.39049999999986 333.70209999999986L415.34299999999973 328.19834999999955L413.93899999999974 320.37814999999966L408.55999999999995 318.0709999999999L413.2574999999997 314.0387499999997L417.42749999999944 313.65714999999966L420.15049999999974 315.77589999999987L421.8644999999998 310.0151999999997L426.18449999999996 313.8335999999998L430.0019999999995 312.37604999999974L430.0389999999999 310.0439L423.41849999999965 298.14994999999954L428.1524999999999 291.8662999999998L424.27549999999997 291.58705L423.3099999999996 287.8009999999995L419.9259999999998 289.3793999999997L414.46799999999996 287.5382499999995L404.3889999999999 288.96814999999947L402.731 296.84504999999945L401.05849999999975 298.06934999999953L393.67249999999956 296.01969999999994L389.95799999999974 297.4522999999999L383.6624999999998 289.48019999999985L375.74449999999956 288.7536499999999L373.6744999999996 283.10694999999953L377.49199999999973 282.4627499999997L377.799 276.88034999999957L385.34749999999974 274.6796999999998L393.8529999999997 268.59219999999993L398.02299999999946 268.8190499999996L401.6664999999995 261.4279499999998L402.72299999999973 260.03719999999987L401.18899999999996 255.04689999999982L398.9354999999995 248.5423499999996L397.17149999999947 248.17769999999996L385.9789999999998 248.23519999999974L380.5374999999998 246.22599999999977L376.2779999999998 250.4719L372.19799999999964 249.94879999999966L372.0349999999996 253.7972499999995L367.47199999999964 257.0133999999996L366.22149999999976 260.52464999999984L363.0114999999995 255.46834999999987L361.1424999999997 254.50739999999996L357.45949999999993 256.2757499999998L355.7389999999998 255.06404999999972L346.8984999999998 244.17324999999948L338.8489999999996 245.99779999999953L331.5654999999998 242.45139999999992L327.4989999999997 241.55309999999986L323.6089999999996 236.65494999999964z">
      <title id="t472">Première circonscription de la Haute-Vienne</title>
      <desc id="d472">Cantons de : Ambazac, Châteauneuf-la-Forêt, Eymoutiers, Limoges-La-Bastide, Limoges-Carnot, Limoges Centre, Limoges-Cité, Limoges-Grand-Treuil, Limoges-Le-Palais, Limoges-Panazol, Limoges-Vigenal, Saint-Léonard-de-Noblat</desc>
    </path><path class="circo" id="id-087-02" d="M225.95799999999997 358.74274999999955L229.2769999999996 357.1328L233.69749999999954 351.2729999999999L235.04599999999982 345.12114999999994L222.95399999999972 328.9521499999995L225.21349999999984 323.14299999999946L219.52849999999955 320.4886499999998L217.7204999999998 322.16444999999965L217.09799999999973 324.14169999999956L213.03849999999954 324.8924999999997L208.36799999999982 328.53894999999966L200.58549999999968 321.86409999999967L192.5849999999997 320.11685L189.61899999999957 317.38414999999975L175.4374999999999 314.92354999999975L175.70099999999968 308.49824999999953L173.82399999999961 304.6773999999999L178.27499999999986 300.3742L188.25249999999983 298.1798999999995L189.48149999999998 292.08564999999965L186.3655 286.91674999999975L186.80849999999964 280.7673L181.96099999999944 274.43884999999966L175.14149999999972 270.55484999999976L171.5734999999995 275.4187499999995L167.9649999999998 273.33354999999983L163.33999999999946 269.25929999999994L164.93949999999984 263.20934999999963L163.41049999999996 261.78814999999986L156.14349999999945 264.94174999999984L154.36349999999948 265.99474999999984L152.00099999999964 262.67304999999965L147.90949999999953 262.21619999999973L132.4784999999997 252.64414999999985L129.5999999999998 251.37479999999982L129.58299999999952 261.03409999999997L133.27849999999955 262.7164499999998L132.49799999999993 270.71259999999995L126.20899999999949 275.41019999999946L124.88349999999969 276.9812499999995L126.17099999999994 278.57174999999984L124.43249999999978 279.6640499999995L123.7764999999996 284.5700499999998L117.53349999999955 284.6421499999997L108.30699999999979 293.18974999999966L98.32849999999951 295.6500999999997L92.71749999999997 293.04554999999993L88.50949999999955 293.43594999999993L81.68499999999995 288.4554499999996L77.50899999999945 288.63204999999994L76.19399999999985 294.4538499999999L79.15449999999964 297.1724999999998L78.11649999999986 309.6365999999995L83.99549999999977 318.26944999999967L75.54949999999963 326.03759999999966L81.27849999999967 327.90779999999984L70.65699999999993 350.5306999999999L64.76149999999961 356.3113499999997L64.97199999999964 364.2262999999997L62.68299999999954 367.5039499999997L65.46749999999975 372.7301L63.55699999999956 376.04044999999985L59.70799999999997 375.77589999999987L56.21249999999975 370.6148499999995L52.126499999999965 370.51669999999945L47.96599999999955 366.08344999999986L37.81699999999944 365.34875L34.329499999999484 367.4106999999998L33.04399999999987 382.01054999999997L36.135999999999626 387.5141499999995L34.825499999999465 391.3889999999998L27.896499999999946 391.8379999999996L15.509999999999877 400.31904999999995L15.104499999999916 405.67529999999977L9.828499999999849 405.68929999999966L7.596499999999651 411.0112499999997L8.786999999999807 412.60464999999954L6.709999999999923 418.14589999999953L5.018499999999904 419.1727999999995L1.5974999999997408 417.1858999999995L0 420.79319999999996L3.415499999999838 428.45459999999946L8.734999999999786 431.1297499999995L10.142499999999472 435.1164499999999L13.746499999999742 437.2781999999995L21.914499999999748 437.30009999999993L27.314499999999953 435.1407999999998L30.745999999999754 437.03539999999975L35.394000000000005 433.3975499999997L39.23249999999996 432.94059999999945L48.61949999999979 436.8029999999999L55.55999999999983 447.33479999999986L61.29849999999976 449.2426999999998L62.009499999999775 449.2828499999996L57.1184999999997 471.37354999999957L51.37149999999963 480.2090999999996L58.52549999999951 487.79334999999946L62.6664999999997 495.21679999999947L72.95349999999985 492.9305999999997L74.85099999999989 493.5179499999998L77.24949999999978 505.11419999999987L89.36049999999966 501.8151999999998L93.38349999999991 494.5547499999998L97.73499999999956 482.4462999999997L101.83749999999975 476.1656499999998L105.07299999999987 478.40494999999976L106.88199999999995 484.02664999999956L112.20249999999965 489.83205L114.26349999999957 490.2202L116.73699999999997 486.8219499999998L122.77449999999988 487.2198499999996L134.4749999999999 482.83519999999953L140.3354999999999 485.0193999999999L144.48649999999986 484.38694999999996L147.0319999999998 487.7307499999995L150.32899999999984 488.2586999999995L152.93849999999964 485.99204999999984L155.58899999999994 482.73979999999995L167.38949999999988 486.0746999999998L173.5504999999995 496.99509999999975L172.11349999999982 502.81289999999956L173.50499999999954 509.00184999999965L177.65799999999956 516.0673999999995L183.45399999999984 518.2093999999995L183.587 517.8506999999996L188.90049999999974 523.4822499999996L193.33649999999977 532.0804499999997L193.92549999999972 530.077L201.7059999999998 527.4399999999997L203.9949999999999 524.0563499999996L208.07299999999998 523.2698499999998L213.62049999999954 526.0837999999995L227.64599999999973 535.1374999999996L227.20899999999972 537.2127999999998L220.06749999999954 541.7730999999998L214.53299999999956 548.1696499999998L212.16849999999965 554.0805499999999L207.70099999999957 558.4851999999995L208.2054999999997 564.6155499999998L215.01499999999965 568.6297499999995L226.40449999999987 564.2785499999997L231.8874999999997 570.0684999999999L232.60449999999992 576.1701499999998L236.04349999999954 578.3665499999995L247.51899999999978 573.9614499999999L256.80049999999994 578.4234999999995L256.9074999999998 586.6329499999995L258.2804999999996 588.2120499999996L260.22749999999974 588.9649499999996L264.95649999999955 584.9585999999999L265.9459999999996 581.2371499999995L269.2869999999999 579.0954499999998L269.51149999999984 570.9690999999998L271.7579999999998 565.48295L275.87849999999946 565.0428999999997L279.0894999999995 562.8219999999999L278.6269999999996 557.0441499999998L306.1514999999997 571.2181499999997L315.47699999999963 555.9394999999995L322.94849999999997 553.4814999999998L323.73699999999985 546.7311999999998L325.59249999999963 545.8906499999995L331.1699999999996 535.1787499999995L334.74099999999964 533.2052499999998L338.68199999999945 533.0826999999999L344.17449999999974 538.7705999999997L349.76249999999993 529.89015L350.0709999999998 519.4724499999995L358.45249999999965 518.7404999999995L361.55399999999986 511.14125L366.56699999999944 514.2269499999998L366.6719999999998 521.18945L374.6924999999999 519.52225L377.0829999999995 516.2355499999995L377.26249999999993 512.1538499999997L389.769 518.10925L394.8534999999998 520.2456999999998L400.1339999999999 517.6078999999999L405.94949999999983 517.1308499999998L409.35249999999996 505.6266999999997L405.97849999999994 500.73789999999974L406.5424999999999 496.59789999999987L402.3874999999998 492.00669999999946L403.03399999999954 485.8182999999997L397.38549999999975 477.44969999999967L398.75599999999963 473.59375L397.59149999999977 467.4451499999998L392.1034999999995 465.4269999999997L387.46599999999944 461.9210499999997L379.43749999999966 463.06219999999996L375.98449999999957 465.20204999999976L372.9854999999998 460.9659499999998L368.94499999999994 461.43164999999954L369.65899999999976 455.04369999999994L365.63499999999976 447.5677499999995L367.851 439.47749999999985L365.40099999999995 434.1483999999997L371.3274999999999 428.64814999999965L371.79449999999974 422.4396999999999L374.8829999999998 419.59649999999954L375.72599999999966 409.4640999999996L381.10799999999983 406.4230999999995L383.6659999999995 401.68025L383.7654999999995 396.12109999999973L376.6199999999998 397.3965999999996L371.26649999999984 395.0672999999995L369.3769999999995 389.41869999999994L367.57349999999974 388.3341999999999L357.9469999999998 391.74049999999966L355.18399999999986 388.57304999999997L347.21299999999985 386.24919999999975L338.5559999999998 377.25514999999973L336.56699999999944 376.57069999999976L333.00149999999974 378.5636499999998L330.9654999999998 378.5441499999996L329.9079999999998 374.64589999999987L333.7769999999995 370.29664999999966L328.6874999999998 367.0503499999995L320.7589999999999 373.31219999999973L317.97549999999944 370.47589999999957L319.0674999999999 362.30444999999975L317.18849999999975 361.4477499999998L310.14999999999986 365.19634999999994L314.212 369.75775L313.3239999999995 373.6468499999995L307.16399999999965 373.2262499999996L302.3929999999996 377.16369999999984L296.3489999999996 375.97399999999993L291.0589999999996 379.1115499999995L281.18649999999946 376.9863499999997L274.3334999999996 372.8312999999997L274.5234999999997 368.7475999999998L279.5409999999998 371.22994999999946L281.3144999999997 370.2356999999995L282.2819999999996 367.3765499999996L275.35699999999963 359.29464999999993L275.4329999999999 356.4717999999999L274.04849999999954 355.2792499999998L274.1229999999996 353.5030499999999L267.70249999999976 351.98984999999993L262.1799999999996 347.92389999999955L259.85649999999964 348.01079999999956L260.779 350.256L260.67999999999984 352.5741499999998L259.2859999999996 355.1293999999996L256.6519999999997 356.8091999999996L256.80049999999994 359.05614999999955L254.4199999999995 360.6331L259.2334999999997 364.4018999999997L250.49649999999986 375.3224499999999L243.8439999999997 379.7063499999996L238.26049999999952 379.35654999999997L231.3689999999997 375.6728999999996L227.36149999999952 375.59064999999975L225.95799999999997 358.74274999999955z">
      <title id="t473">Deuxième circonscription de la Haute-Vienne</title>
      <desc id="d473">Cantons de : Aixe-sur-Vienne, Châlus, Limoges-Condat, Limoges-Emailleurs, Nexon, Oradour-sur-Vayres, Pierre-Buffière, Rochechouart, Saint-Germain-les-Belles, Saint-Junien Est, Saint-Junien Ouest, Saint-Laurent-sur-Gorre, Saint-Mathieu, Saint-Yrieix-la-Perche</desc>
    </path><path class="circo" id="id-087-03" d="M349.1954999999996 153.07559999999967L357.15799999999945 154.95295L362.11949999999945 161.52034999999955L368.0124999999998 160.70515L367.45799999999974 164.85874999999965L370.7849999999996 167.25914999999986L371.9319999999999 171.14764999999977L367.10249999999974 174.53659999999957L364.9789999999996 180.36944999999946L369.8554999999999 183.87579999999957L370.17049999999983 188.01549999999963L373.2049999999998 191.95979999999963L375.1849999999996 189.31724999999972L380.8869999999996 192.04684999999984L380.9449999999998 196.3724499999995L387.37599999999986 200.27535L383.8964999999996 210.49739999999986L385.471 214.1524499999997L384.9634999999995 215.56284999999946L386.03499999999997 219.68519999999955L390.1529999999997 224.5386499999995L385.45799999999986 231.58894999999973L384.04849999999954 242.1429999999998L385.9789999999998 248.23519999999974L380.5374999999998 246.22599999999977L376.2779999999998 250.4719L372.19799999999964 249.94879999999966L372.0349999999996 253.7972499999995L367.47199999999964 257.0133999999996L366.22149999999976 260.52464999999984L363.0114999999995 255.46834999999987L361.1424999999997 254.50739999999996L357.45949999999993 256.2757499999998L355.7389999999998 255.06404999999972L346.8984999999998 244.17324999999948L338.8489999999996 245.99779999999953L331.5654999999998 242.45139999999992L327.4989999999997 241.55309999999986L323.6089999999996 236.65494999999964L323.21649999999977 230.59364999999957L319.2505 229.32964999999967L310.6324999999998 234.62424999999996L308.2189999999997 237.99274999999966L302.20849999999984 238.51599999999962L299.3149999999997 241.47109999999998L294.7049999999996 247.9231999999996L293.2854999999995 254.0143999999998L298.202 260.09104999999977L298.2624999999996 262.17709999999954L294.20649999999966 266.91194999999993L292.5924999999995 268.2075999999995L284.91949999999974 265.43709999999976L278.1604999999996 269.95079999999973L262.42749999999944 270.63919999999996L262.52849999999967 274.7059999999999L257.6174999999995 281.16394999999955L258.2394999999997 285.19094999999993L264.0379999999999 285.3968999999995L270.98449999999957 281.6706499999998L272.93199999999956 285.16224999999963L273.14549999999997 291.1678999999998L270.90449999999976 297.07785L273.6595 306.9701999999995L270.9159999999997 310.1275499999997L271.21549999999957 314.2787499999997L268.4789999999998 319.9703499999998L268.4564999999998 328.1964999999997L264.43899999999985 333.1284499999998L262.55949999999984 335.33525L263.79249999999956 337.75064999999984L267.39649999999983 336.7005499999999L269.50549999999964 337.3649999999998L268.00599999999974 340.6520499999999L265.32299999999964 342.3684999999995L264.0179999999998 344.64939999999956L262.1799999999996 347.92389999999955L259.85649999999964 348.01079999999956L260.779 350.256L260.67999999999984 352.5741499999998L259.2859999999996 355.1293999999996L256.6519999999997 356.8091999999996L256.80049999999994 359.05614999999955L254.4199999999995 360.6331L259.2334999999997 364.4018999999997L250.49649999999986 375.3224499999999L243.8439999999997 379.7063499999996L238.26049999999952 379.35654999999997L231.3689999999997 375.6728999999996L227.36149999999952 375.59064999999975L225.95799999999997 358.74274999999955L229.2769999999996 357.1328L233.69749999999954 351.2729999999999L235.04599999999982 345.12114999999994L222.95399999999972 328.9521499999995L225.21349999999984 323.14299999999946L219.52849999999955 320.4886499999998L217.7204999999998 322.16444999999965L217.09799999999973 324.14169999999956L213.03849999999954 324.8924999999997L208.36799999999982 328.53894999999966L200.58549999999968 321.86409999999967L192.5849999999997 320.11685L189.61899999999957 317.38414999999975L175.4374999999999 314.92354999999975L175.70099999999968 308.49824999999953L173.82399999999961 304.6773999999999L178.27499999999986 300.3742L188.25249999999983 298.1798999999995L189.48149999999998 292.08564999999965L186.3655 286.91674999999975L186.80849999999964 280.7673L181.96099999999944 274.43884999999966L175.14149999999972 270.55484999999976L171.5734999999995 275.4187499999995L167.9649999999998 273.33354999999983L163.33999999999946 269.25929999999994L164.93949999999984 263.20934999999963L163.41049999999996 261.78814999999986L156.14349999999945 264.94174999999984L154.36349999999948 265.99474999999984L152.00099999999964 262.67304999999965L147.90949999999953 262.21619999999973L132.4784999999997 252.64414999999985L129.5999999999998 251.37479999999982L122.71949999999947 247.46129999999994L125.27949999999976 240.35004999999956L119.08999999999992 235.87214999999958L112.33499999999992 232.71644999999978L111.97199999999953 229.19189999999958L108.99449999999945 227.18705L100.63249999999982 236.5214999999995L98.5209999999995 236.26999999999953L96.27499999999998 228.4187499999996L91.58349999999984 224.26744999999983L79.97349999999983 217.29584999999986L79.43049999999971 211.3689499999998L83.45649999999978 206.7775499999999L80.5095 199.22094999999956L83.89099999999985 193.9336499999996L83.89699999999948 192.55304999999964L86.06949999999983 189.10394999999994L86.09249999999975 182.70929999999964L82.75549999999953 177.22384999999974L77.62399999999957 173.4224999999998L77.41649999999993 171.28499999999974L82.32099999999946 167.8398999999996L86.53599999999983 167.92269999999974L89.41149999999993 164.72749999999962L91.84999999999945 161.84294999999963L87.55499999999984 157.04854999999952L86.13949999999988 150.81469999999968L88.5994999999997 145.05899999999997L85.47749999999951 143.95129999999995L84.56199999999967 141.10674999999958L86.54749999999979 135.91589999999997L81.38899999999978 132.9392999999999L78.04549999999949 125.43859999999995L72.45649999999955 123.1107499999996L72.60299999999972 117.67394999999965L70.1294999999999 115.39159999999981L72.08999999999946 114.50099999999964L75.9314999999998 106.81799999999953L93.00049999999999 105.82704999999976L94.41749999999956 101.93039999999996L90.87049999999977 100.13429999999971L92.89299999999969 94.37174999999968L96.89499999999953 93.58689999999967L99.29249999999968 87.94619999999952L98.55649999999969 86.03929999999991L110.48549999999977 81.90119999999979L115.39349999999956 70.24284999999963L129.3919999999997 74.04414999999972L129.87349999999992 67.94314999999983L137.30249999999955 71.39414999999985L145.6975 71.45934999999952L151.51899999999955 73.88054999999952L155.24399999999957 72.72749999999974L158.8009999999997 74.7199999999998L159.86599999999953 74.2605999999995L158.95699999999977 67.99049999999966L161.42399999999952 64.64249999999993L161.57299999999964 58.45984999999985L166.36499999999955 54.37619999999981L168.50799999999992 48.347349999999665L168.9085 35.82284999999956L178.03549999999973 27.752999999999588L178.68149999999957 23.91504999999995L190.21349999999984 26.52134999999987L200.4634999999996 24.170049999999605L203.87899999999945 29.424249999999574L211.66399999999953 32.48824999999954L212.5569999999999 26.282399999999484L212.01149999999984 24.259950000000003L220.72599999999966 19.299350000000004L220.48449999999946 15.11609999999962L224.0934999999996 7.622949999999946L232.70999999999958 10.873749999999518L235.73949999999968 15.13764999999978L239.3459999999999 14.90479999999991L244.2595 8.887949999999591L247.87099999999953 8.378399999999715L248.0269999999996 16.754099999999994L250.00399999999956 20.542949999999678L258.587 21.808699999999703L263.89599999999973 15.31014999999968L267.95649999999966 14.099599999999555L276.1779999999999 15.472149999999942L277.6509999999996 18.108699999999658L289.3354999999997 16.77379999999971L289.55749999999966 12.669099999999958L294.14799999999957 9.263199999999756L290.2429999999998 4.862399999999525L303.8565 0L308.7759999999997 1.0957999999999402L311.4519999999999 3.6760999999995647L317.42749999999944 11.250199999999495L320.67949999999996 16.393099999999663L323.9474999999999 18.81149999999991L325.9114999999997 18.300249999999778L325.3049999999996 20.303949999999986L330.3449999999998 24.0012999999999L333.82499999999993 33.49864999999966L331.4859999999999 36.76724999999976L338.4654999999998 40.87394999999958L344.48249999999973 40.80374999999947L346.80499999999995 43.707299999999805L343.7874999999997 48.44579999999951L345.3829999999999 60.45624999999973L338.17499999999995 63.76344999999958L334.7229999999996 75.1165999999995L340.4454999999996 76.35939999999948L342.9915 79.4817999999998L337.75549999999953 82.67034999999964L333.78049999999973 81.52679999999975L330.11799999999994 86.59504999999967L330.63949999999977 90.5764499999998L335.6379999999996 94.09579999999949L335.0459999999998 98.1537499999996L325.48099999999977 100.1348999999999L318.45999999999947 112.09869999999967L316.53999999999996 112.86279999999977L321.71899999999994 124.26759999999945L325.1769999999999 126.52474999999981L326.7294999999996 132.68639999999948L330.23999999999944 134.32909999999993L335.2614999999997 137.69475L341.31749999999954 136.82129999999972L344.5014999999995 138.74314999999967L349.7134999999997 135.59364999999957L353.2544999999999 137.75244999999984L352.38099999999974 141.57254999999964L355.01649999999984 147.04844999999978L349.1954999999996 153.07559999999967z">
      <title id="t474">Troisième circonscription de la Haute-Vienne</title>
      <desc id="d474">Cantons de : Bellac, Bessines-sur-Gartempe, Châteauponsac, Laurière, Le Dorat, Limoges-Beaupuy, Limoges-Corgnac, Limoges-Couzeix, Limoges-Isle, Limoges-Landouge, Limoges-Puy-las-Rodas, Magnac-Laval, Mézières-sur-Issoire, Nantiat, Nieul, Saint-Sulpice-les-Feuilles</desc>
    </path></svg>