<svg xmlns="http://www.w3.org/2000/svg" version="1.1" xmlns:xlink="http://www.w3.org/1999/xlink" xmlns:svgjs="http://svgjs.dev/svgjs" width="766.9099999999992" height="446.3854999999998" fill="#eeeeee" stroke="#cccccc" xmlns:sodipodi="http://sodipodi.sourceforge.net/DTD/sodipodi-0.dtd"><path class="circo" id="id-088-01" d="M488.34499999999935 125.40375000000012L491.1514999999997 123.4869999999998L496.38199999999983 128.4144999999998L496.8464999999992 132.6198500000001L508.3304999999996 138.63714999999985L513.2314999999994 150.71189999999973L522.6054999999997 146.12625000000008L524.6334999999999 136.66304999999994L528.5469999999998 130.41019999999975L535.9204999999997 127.06220000000002L538.2394999999997 130.6523999999999L544.5299999999997 130.38145000000014L550.6394999999998 144.4496000000001L556.9099999999992 150.6869500000002L564.425 156.85674999999975L582.5815 151.64039999999972L591.2405000000001 145.54374999999965L588.1614999999999 143.4684999999999L588.8029999999992 139.6497500000001L586.7899999999997 133.62560000000002L590.2805000000001 125.78079999999972L591.9989999999996 124.41245000000009L589.4734999999991 117.55509999999987L589.0544999999997 115.88785000000001L591.3144999999997 109.20064999999994L592.3924999999997 100.94644999999986L588.9924999999994 98.53634999999997L587.8414999999995 92.5691999999998L593.9414999999997 89.96399999999994L600.4009999999994 91.12844999999993L604.0224999999998 75.95425000000006L596.6314999999997 71.5034L591.5929999999992 75.27320000000003L591.4829999999995 71.5603999999999L589.3205 71.33569999999992L583.137999999999 71.74794999999989L580.6594999999993 65.72469999999981L571.9489999999996 65.10809999999992L571.6429999999991 62.93610000000001L565.7204999999999 62.44749999999982L560.6504999999993 59.09379999999999L554.5579999999995 64.56254999999999L549.007499999999 61.268599999999935L547.8829999999994 57.13789999999989L546.4324999999997 58.898499999999956L542.1334999999999 56.11379999999997L531.6729999999995 54.4735L532.8774999999996 50.30094999999989L528.1274999999994 40.635549999999796L529.085 34.07199999999989L527.6774999999998 27.63405000000006L521.4535000000001 26.41159999999985L511.5734999999995 29.895549999999957L510.2834999999993 32.82094999999998L506.1429999999996 34.4097499999998L499.2834999999991 48.31635000000006L505.778499999999 61.768749999999955L503.596 62.851599999999905L489.0739999999994 55.11144999999999L484.7499999999991 52.64994999999999L477.79449999999997 57.743150000000014L470.8934999999997 63.47334999999987L464.6004999999991 62.374499999999955L457.9449999999997 66.90664999999996L451.7994999999996 61.901949999999886L448.1219999999996 63.5745L438.1144999999992 67.52510000000001L433.02349999999933 77.07499999999982L428.86799999999994 77.75409999999994L427.9189999999994 75.76474999999988L422.2735 77.82645000000002L420.933 76.24740000000003L417.04099999999926 84.37349999999981L398.72299999999996 93.15139999999985L401.77099999999996 95.23304999999993L405.59849999999983 93.82315000000006L406.3779999999997 97.6523499999999L410.4845 96.44530000000003L412.2899999999993 97.60504999999995L413.27549999999974 103.87374999999992L424.9369999999999 99.1970999999998L425.6254999999999 101.21379999999988L419.80449999999905 106.82575000000014L411.28349999999955 108.45315L410.0094999999999 110.20074999999991L411.3644999999997 113.98394999999965L410.6174999999996 119.95674999999977L410.3985 120.37925000000001L407.2474999999997 123.2319499999997L406.946999999999 129.51555000000013L403.3089999999993 131.68564999999973L401.97799999999916 131.95719999999966L398.9765 138.79175000000004L396.0820000000001 142.5755000000001L401.8949999999995 151.59255000000002L401.63149999999973 155.8083000000002L405.3454999999997 156.38040000000018L405.8594999999991 158.1905500000002L404.3629999999996 164.56575000000015L388.3504999999991 170.28674999999993L387.1434999999997 174.3565499999997L387.3854999999992 175.55624999999992L392.7419999999995 187.46295000000003L397.8564999999992 195.5027499999997L390.63049999999976 196.8572500000002L391.26249999999914 198.72190000000018L387.174 202.4260000000001L387.27499999999964 206.58739999999995L389.0174999999999 207.77444999999972L394.97749999999996 206.11369999999994L396.32299999999987 207.73814999999985L393.0340000000001 210.26894999999996L381.0904999999991 211.32834999999972L369.42399999999907 213.88499999999993L369.5794999999998 227.17754999999983L374.8034999999993 234.20429999999982L376.1164999999994 240.75254999999999L380.80349999999953 245.34144999999995L381.3684999999998 251.97660000000013L375.0459999999998 251.0018999999997L365.3699999999992 255.53145L359.52049999999986 252.93345000000016L356.24149999999986 255.69375000000008L352.3275000000001 261.41474999999986L348.46900000000005 266.9139499999997L351.43049999999903 281.90365000000014L361.3639999999998 290.08430000000004L369.5494999999994 287.5189500000002L373.73199999999997 288.5580999999999L374.91649999999936 286.71129999999977L375.3929999999991 296.5813L388.9014999999995 296.8375499999999L396.3589999999999 301.6868500000001L395.6579999999997 308.17834999999974L389.5144999999991 317.5234500000002L385.66799999999944 319.7364000000002L378.146999999999 323.76475L377.2434999999996 330.1458499999998L382.45349999999917 333.7843000000001L379.8059999999998 342.0466000000002L374.0639999999996 348.4113999999997L375.4964999999993 357.1834499999997L382.08099999999945 356.0176499999997L388.02149999999983 359.1074999999998L394.6759999999995 359.54784999999987L412.75249999999915 351.6219499999997L419.94749999999954 347.5735L422.02549999999974 339.78244999999987L427.8974999999991 338.48015000000004L430.5314999999996 331.73044999999973L430.52749999999946 320.8246999999997L436.22299999999996 317.4891499999998L441.61449999999945 310.5184L452.0824999999991 302.39495000000005L452.42849999999976 300.09060000000005L455.951 300.3544500000001L456.28549999999905 294.1557500000002L471.1169999999993 280.6753999999998L479.2044999999996 276.9795500000001L481.4249999999993 273.17064999999985L492.739499999999 281.6790999999998L489.35049999999933 271.6417499999997L488.17999999999984 254.24745000000001L489.618999999999 250.71094999999985L494.8994999999991 253.05949999999967L498.8284999999996 254.6771499999997L506.54649999999947 247.98525000000012L504.99349999999936 246.42334999999974L505.1589999999999 237.95850000000002L503.90249999999924 236.14580000000018L499.51299999999947 235.82030000000003L502.426999999999 231.0752499999998L505.5574999999999 213.24060000000003L503.8855000000001 207.16435000000018L503.48949999999945 207.0604499999999L495.32749999999965 200.26955000000015L493.7489999999991 199.84229999999997L496.8449999999996 197.21949999999964L492.2724999999991 193.7100000000001L490.7249999999999 190.0323499999999L491.241 178.77039999999994L492.9819999999995 177.2568499999997L490.4234999999994 167.47904999999975L493.6209999999994 157.79725000000013L487.9845 148.85279999999995L484.4089999999994 146.58674999999988L483.5769999999991 145.18605000000008L485.77 141.55085000000014L483.6349999999993 137.84174999999976L484.6875 133.67094999999978L491.407999999999 128.50650000000002L488.34499999999935 125.40375000000012z">
      <title id="t475">Première circonscription des Vosges</title>
      <desc id="d475">Cantons de : Châtel-sur-Moselle, Epinal Est, Epinal Ouest, RamberviIlers, Xertigny</desc>
    </path><path class="circo" id="id-088-02" d="M556.9099999999992 150.6869500000002L550.6394999999998 144.4496000000001L544.5299999999997 130.38145000000014L538.2394999999997 130.6523999999999L535.9204999999997 127.06220000000002L528.5469999999998 130.41019999999975L524.6334999999999 136.66304999999994L522.6054999999997 146.12625000000008L513.2314999999994 150.71189999999973L508.3304999999996 138.63714999999985L496.8464999999992 132.6198500000001L496.38199999999983 128.4144999999998L491.1514999999997 123.4869999999998L488.34499999999935 125.40375000000012L491.407999999999 128.50650000000002L484.6875 133.67094999999978L483.6349999999993 137.84174999999976L485.77 141.55085000000014L483.5769999999991 145.18605000000008L484.4089999999994 146.58674999999988L487.9845 148.85279999999995L493.6209999999994 157.79725000000013L490.4234999999994 167.47904999999975L492.9819999999995 177.2568499999997L491.241 178.77039999999994L490.7249999999999 190.0323499999999L492.2724999999991 193.7100000000001L496.8449999999996 197.21949999999964L493.7489999999991 199.84229999999997L495.32749999999965 200.26955000000015L503.48949999999945 207.0604499999999L503.8855000000001 207.16435000000018L505.5574999999999 213.24060000000003L502.426999999999 231.0752499999998L499.51299999999947 235.82030000000003L503.90249999999924 236.14580000000018L505.1589999999999 237.95850000000002L504.99349999999936 246.42334999999974L506.54649999999947 247.98525000000012L521.8239999999992 255.15394999999984L524.4584999999995 259.16860000000014L527.6924999999994 256.45129999999966L533.3039999999994 253.0467999999999L537.521999999999 253.2027500000001L538.2425000000001 242.4415000000002L536.9639999999993 240.64940000000007L531.7224999999996 239.21324999999996L530.5705 237.77124999999984L531.0224999999991 235.65214999999995L539.6109999999999 235.36809999999974L543.8589999999999 236.1572499999997L549.0339999999992 240.01380000000012L548.8085000000001 240.5481499999999L554.3264999999997 247.07154999999972L558.1269999999995 249.07974999999993L562.3984999999993 248.59904999999998L563.1329999999991 249.75785000000002L577.1499999999992 258.0508999999998L583.9094999999998 266.06250000000017L583.5649999999998 262.4859000000001L584.5984999999996 260.59754999999967L590.6619999999998 259.7930499999998L602.7519999999993 255.66895000000017L604.7719999999993 256.4608000000001L607.449499999999 266.8427L615.5244999999991 269.8162499999998L626.1590000000001 259.79365L627.8859999999997 259.5518000000001L638.7254999999993 262.8162499999999L640.2834999999993 266.5799000000001L651.8385000000001 266.6390499999997L653.7405000000001 265.86269999999985L653.1579999999997 261.82530000000014L665.6029999999998 270.5282500000001L675.5264999999997 274.7038999999998L680.2464999999995 284.5718500000001L683.8389999999993 283.24190000000016L682.4944999999991 291.75730000000016L684.0629999999999 293.2636499999998L690.5489999999998 292.86689999999993L692.5659999999993 291.96144999999973L693.0234999999993 287.57300000000015L697.2404999999992 279.93754999999993L704.5899999999995 275.34584999999964L712.5594999999998 260.17874999999975L715.24 258.87775000000005L718.4084999999993 245.67640000000011L711.7885000000001 244.70214999999968L707.7334999999994 239.3342499999997L715.9749999999997 223.51640000000003L715.6009999999992 219.11055000000005L718.0594999999994 214.95454999999964L719.6129999999994 210.93445000000003L727.8125 204.2049L727.5004999999999 200.28164999999973L732.1039999999994 196.02949999999993L736.5339999999992 184.5718500000001L739.016499999999 173.2557L745.847 159.5249499999997L749.6819999999991 157.49015000000014L750.0019999999995 156.96594999999974L751.2169999999992 150.98330000000004L756.6859999999997 144.5345499999999L755.9274999999991 138.35349999999977L764.9249999999995 135.45294999999982L766.9099999999992 130.0548999999998L763.5484999999994 122.10189999999983L758.7114999999994 118.45834999999994L760.6184999999994 112.25254999999976L754.6934999999996 109.70839999999981L751.8254999999999 113.23779999999971L745.5044999999996 115.4844L742.7004999999997 116.28675000000015L732.4169999999992 114.93459999999999L727.6769999999999 108.55805000000004L714.9234999999999 103.13569999999999L719.0454999999997 98.30224999999984L725.488499999999 89.60059999999999L727.962 88.11554999999998L726.7084999999997 80.48639999999978L722.141499999999 76.52964999999995L718.7574999999993 74.15104999999983L723.356 69.62635000000006L723.306 55.80764999999985L725.6319999999994 50.11839999999978L729.1274999999996 47.951850000000036L728.5789999999997 46.994049999999845L727.7819999999997 44.60369999999983L726.9619999999998 38.10694999999981L732.286499999999 25.821149999999875L733.134 19.160349999999937L722.4459999999999 15.592499999999916L721.3154999999995 8.15605000000005L722.6959999999997 4.744149999999934L727.4389999999994 8.492799999999932L735.9574999999995 8.973199999999792L737.6344999999992 7.749399999999866L734.9844999999993 0L722.0309999999995 1.1150499999999397L718.237499999999 3.2757499999999595L715.9704999999997 3.9955499999999233L705.5399999999997 10.228449999999896L694.8849999999993 13.921299999999803L685.9034999999994 20.682549999999935L674.9484999999993 22.552149999999926L667.8755000000001 26.964799999999798L651.6109999999992 47.16064999999986L649.4674999999995 47.572549999999865L647.8839999999991 50.04474999999985L636.7840000000001 60.49499999999995L632.6445000000001 61.87119999999993L627.2739999999999 58.330449999999985L625.0495000000001 49.94799999999998L621.0344999999995 51.59109999999998L618.5415 57.538199999999904L609.4065 62.80869999999993L604.0224999999998 75.95425000000006L600.4009999999994 91.12844999999993L593.9414999999997 89.96399999999994L587.8414999999995 92.5691999999998L588.9924999999994 98.53634999999997L592.3924999999997 100.94644999999986L591.3144999999997 109.20064999999994L589.0544999999997 115.88785000000001L589.4734999999991 117.55509999999987L591.9989999999996 124.41245000000009L590.2805000000001 125.78079999999972L586.7899999999997 133.62560000000002L588.8029999999992 139.6497500000001L588.1614999999999 143.4684999999999L591.2405000000001 145.54374999999965L582.5815 151.64039999999972L564.425 156.85674999999975L556.9099999999992 150.6869500000002z">
      <title id="t476">Deuxième circonscription des Vosges</title>
      <desc id="d476">Cantons de : Brouvelieures, Bruyères, Corcieux, Fraize, Provenchères-sur-Fave, Raon-l'Etape, Saint-Dié Est, Saint-Dié Ouest, Senones</desc>
    </path><path class="circo" id="id-088-03" d="M615.5244999999991 269.8162499999998L607.449499999999 266.8427L604.7719999999993 256.4608000000001L602.7519999999993 255.66895000000017L590.6619999999998 259.7930499999998L584.5984999999996 260.59754999999967L583.5649999999998 262.4859000000001L583.9094999999998 266.06250000000017L577.1499999999992 258.0508999999998L563.1329999999991 249.75785000000002L562.3984999999993 248.59904999999998L558.1269999999995 249.07974999999993L554.3264999999997 247.07154999999972L548.8085000000001 240.5481499999999L549.0339999999992 240.01380000000012L543.8589999999999 236.1572499999997L539.6109999999999 235.36809999999974L531.0224999999991 235.65214999999995L530.5705 237.77124999999984L531.7224999999996 239.21324999999996L536.9639999999993 240.64940000000007L538.2425000000001 242.4415000000002L537.521999999999 253.2027500000001L533.3039999999994 253.0467999999999L527.6924999999994 256.45129999999966L524.4584999999995 259.16860000000014L521.8239999999992 255.15394999999984L506.54649999999947 247.98525000000012L498.8284999999996 254.6771499999997L494.8994999999991 253.05949999999967L489.618999999999 250.71094999999985L488.17999999999984 254.24745000000001L489.35049999999933 271.6417499999997L492.739499999999 281.6790999999998L481.4249999999993 273.17064999999985L479.2044999999996 276.9795500000001L471.1169999999993 280.6753999999998L456.28549999999905 294.1557500000002L455.951 300.3544500000001L452.42849999999976 300.09060000000005L452.0824999999991 302.39495000000005L441.61449999999945 310.5184L436.22299999999996 317.4891499999998L430.52749999999946 320.8246999999997L430.5314999999996 331.73044999999973L427.8974999999991 338.48015000000004L422.02549999999974 339.78244999999987L419.94749999999954 347.5735L412.75249999999915 351.6219499999997L418.5744999999997 354.10675L422.68100000000004 353.2429499999998L429.546499999999 357.8034499999998L431.20949999999993 363.91715000000005L441.19749999999954 363.5281999999998L448.78099999999904 377.1571500000002L452.65449999999987 379.3609999999998L452.62149999999906 387.9275499999997L459.5920000000001 396.34355L460.8929999999998 400.54059999999964L471.59599999999955 393.6901500000002L487.988499999999 389.70650000000006L494.8910000000001 376.7481000000001L499.33400000000006 369.4352999999998L513.1619999999998 363.16720000000004L515.175999999999 363.1107L517.9469999999992 368.4564500000002L525.0799999999992 373.4416999999999L530.0069999999994 380.52024999999986L529.5759999999996 384.93934999999993L531.8449999999996 388.72319999999974L549.538 398.7533499999998L551.4474999999993 400.2877499999997L556.6959999999995 403.0869499999997L559.4324999999992 406.6355999999999L570.1149999999996 413.5403499999998L570.9849999999994 413.1931499999999L571.3544999999999 415.3628999999998L591.2399999999991 423.26524999999975L594.3274999999994 428.6518499999997L592.9549999999995 432.60230000000007L594.2124999999999 435.55514999999986L607.6400000000001 446.3854999999998L613.5344999999995 440.07949999999965L615.4139999999995 438.96224999999987L617.2624999999994 440.1250999999999L623.155999999999 438.9192L626.3024999999993 436.09009999999984L638.4735000000001 433.77609999999976L638.8995 432.62759999999986L643.1984999999997 425.50839999999965L648.6574999999993 422.81305000000003L648.1719999999996 417.9030500000002L643.3684999999991 413.76524999999987L643.1694999999991 409.5084L643.1644999999992 403.2555499999998L639.4259999999997 398.4788999999998L647.9814999999996 392.31840000000005L647.3775 390.26629999999983L650.660499999999 387.56805000000014L651.8299999999999 383.6211L649.5549999999992 380.33060000000006L645.3839999999991 379.6603000000002L650.6975 372.8042500000001L648.7984999999992 362.1399499999998L650.261999999999 358.0331499999997L650.9994999999992 353.7303499999999L653.3304999999996 346.17695L658.7379999999996 340.31514999999985L658.8544999999999 332.9402999999999L658.6284999999998 328.6596L660.3684999999996 327.4076999999997L662.2089999999992 326.31580000000014L666.2534999999991 327.59510000000006L670.8214999999996 323.09200000000004L674.7919999999999 321.8728999999999L678.1209999999999 316.28829999999965L683.7284999999997 313.0863500000001L689.446999999999 304.22690000000017L686.7814999999996 300.6030000000001L690.5489999999998 292.86689999999993L684.0629999999999 293.2636499999998L682.4944999999991 291.75730000000016L683.8389999999993 283.24190000000016L680.2464999999995 284.5718500000001L675.5264999999997 274.7038999999998L665.6029999999998 270.5282500000001L653.1579999999997 261.82530000000014L653.7405000000001 265.86269999999985L651.8385000000001 266.6390499999997L640.2834999999993 266.5799000000001L638.7254999999993 262.8162499999999L627.8859999999997 259.5518000000001L626.1590000000001 259.79365L615.5244999999991 269.8162499999998z">
      <title id="t477">Troisième circonscription des Vosges</title>
      <desc id="d477">Cantons de : Gérardmer, Plombières-les-Bains, Remiremont, Saulxures-sur-Moselotte, Le Thillot</desc>
    </path><path class="circo" id="id-088-04" d="M378.146999999999 323.76475L377.2434999999996 330.1458499999998L382.45349999999917 333.7843000000001L379.8059999999998 342.0466000000002L374.0639999999996 348.4113999999997L375.4964999999993 357.1834499999997L369.3859999999995 362.0504500000001L364.2049999999995 366.5279000000001L360.316499999999 366.88759999999974L358.7734999999998 370.48644999999993L350.9624999999994 368.6975499999997L348.758499999999 372.0469L344.8484999999994 370.9900999999999L346.08749999999986 364.45835000000017L345.6274999999994 362.30805000000004L335.0019999999995 355.20084999999966L330.32249999999976 357.92715000000015L326.1579999999992 354.33584999999965L325.3959999999995 350.7269999999997L323.6119999999994 350.4438999999999L321.19749999999954 347.67124999999993L326.76649999999995 345.2304000000001L325.2819999999997 333.2991000000001L322.595 330.3256000000002L323.9524999999992 323.44649999999973L313.4714999999994 312.5564L306.2059999999997 316.3766000000001L304.0524999999991 319.93649999999974L293.9855 319.3113500000001L288.3209999999997 317.97965000000005L273.29399999999964 326.9332L267.10649999999987 335.7262L267.40299999999934 341.84470000000005L261.635 348.27304999999996L261.35400000000004 352.3664499999998L258.58749999999986 355.7358500000001L245.20649999999932 355.02825L244.40899999999942 361.24465000000015L235.37049999999908 368.3669999999998L228.99249999999938 367.2599999999997L231.09099999999899 359.20139999999975L240.49949999999967 349.09504999999996L235.32749999999965 340.7424499999999L226.76600000000008 344.11624999999987L224.1904999999997 346.25564999999966L222.79349999999909 361.2757000000002L218.33300000000008 361.72814999999986L212.32399999999984 367.29995L213.7919999999997 371.2501499999999L208.63349999999969 374.79649999999964L200.02849999999967 362.2166999999999L197.9124999999999 362.2941L195.59549999999945 358.75845L193.84249999999952 350.4877000000002L195.6759999999997 349.42260000000005L195.38799999999924 346.9825L193.31299999999942 347.1532499999998L192.10699999999974 343.29094999999967L189.57949999999983 348.12129999999996L186.97599999999966 353.49745000000013L179.1199999999992 355.2104L174.86299999999915 361.5212999999997L167.69900000000007 357.88974999999965L163.48250000000007 341.8217999999999L169.90049999999997 333.7582499999999L170.40750000000003 329.89304999999973L166.85149999999908 325.30585L166.7629999999997 321.00130000000007L162.60149999999953 313.6220499999999L162.77199999999993 306.4807499999998L159.37099999999987 308.77579999999995L157.41899999999987 307.82054999999986L147.4649999999997 296.71165L139.30099999999925 299.0957L138.8894999999991 294.79979999999983L139.1674999999998 294.3509500000002L135.80549999999903 288.69290000000007L130.24599999999964 284.9915999999999L128.54099999999903 278.5526999999999L126.76699999999983 279.8497499999999L112.83149999999978 274.47869999999995L111.14949999999908 275.75615L111.46399999999971 282.0499499999997L109.36550000000011 281.96214999999967L101.70749999999998 274.27065L104.28850000000011 266.0504L108.61400000000003 261.0672500000001L118.27299999999923 258.27050000000014L111.65949999999953 251.1973500000002L114.18999999999983 245.95150000000018L120.22249999999985 241.16205000000008L119.88099999999918 237.38339999999965L123.89899999999898 232.04865000000012L123.41699999999946 227.19729999999998L124.46649999999977 221.54804999999982L122.59950000000003 216.2056499999997L121.69599999999946 214.1718499999999L130.0249999999994 207.16244999999986L143.29099999999926 207.14334999999977L142.89649999999938 201.64810000000017L140.53949999999986 198.6154000000002L134.7314999999992 187.86100000000005L124.93399999999951 178.77105L120.06849999999986 182.06904999999978L105.00499999999988 173.55819999999966L108.6424999999997 165.67645L110.49099999999953 156.8528999999998L92.57349999999974 141.97820000000007L82.70199999999932 153.50764999999996L81.4715000000001 149.2474999999999L59.36399999999935 120.70779999999985L54.90499999999997 110.85610000000003L56.39450000000011 106.79949999999991L48.121999999999616 104.68724999999978L44.858999999999014 101.8777L34.28099999999972 101.86614999999989L31.894999999999527 105.30245000000008L28.066499999999905 105.11380000000003L21.245499999999993 113.20709999999991L13.689999999999145 116.89789999999988L9.910999999999603 109.50694999999968L12.126499999999396 103.66974999999996L10.504999999999427 97.94915000000003L20.84549999999922 85.99054999999993L6.375999999999067 83.66124999999982L0 78.19574999999986L6.775499999999965 77.52115000000003L22.657499999999118 63.20249999999987L32.39649999999983 59.39674999999994L37.9284999999993 62.75874999999985L42.1309999999994 62.528199999999856L46.822499999999536 66.82085000000001L51.02949999999964 65.88345000000004L49.334499999999935 61.9095999999999L51.642499999999245 53.64209999999986L63.73199999999997 50.4040999999998L70.97249999999917 46.23934999999989L74.01949999999943 48.910199999999975L73.441499999999 50.955649999999935L77.69699999999943 52.322599999999966L79.29299999999898 48.15425000000005L83.08899999999994 45.82804999999979L94.0199999999993 46.85309999999987L95.58899999999994 53.132249999999885L96.31099999999947 44.87020000000001L99.09099999999967 41.49100000000004L108.69449999999915 37.54429999999985L109.14049999999975 33.83295000000004L104.13249999999948 27.73920000000004L105.57549999999992 26.38530000000003L106.54699999999934 26.758399999999938L110.2884999999992 28.592399999999998L111.79249999999911 27.148799999999937L120.08299999999963 26.973799999999812L125.69949999999949 29.63470000000001L128.02999999999997 32.154999999999916L136.74499999999966 33.82204999999999L147.2219999999993 30.602599999999995L148.15599999999904 25.07239999999996L149.71949999999993 23.94980000000004L153.0054999999993 15.661099999999806L157.8144999999995 10.96855000000005L163.52800000000002 17.57784999999984L167.10899999999924 19.678449999999827L177.20199999999977 9.808299999999974L182.983999999999 11.037199999999814L188.09750000000008 8.265099999999848L188.68099999999913 5.6358000000000175L196.9494999999995 4.324000000000012L200.64199999999914 6.022600000000011L203.21899999999914 9.413849999999968L211.25699999999938 12.681599999999946L217.63349999999946 11.940850000000012L214.61149999999975 18.058099999999797L216.95249999999987 19.668199999999842L210.3114999999991 28.334700000000055L209.66699999999946 36.850900000000024L214.0569999999991 41.70179999999988L208.8614999999993 48.53610000000003L208.32599999999957 49.49699999999979L197.84400000000005 62.23169999999982L196.16249999999923 66.79395L202.39100000000008 68.8709L205.8529999999996 70.87024999999983L213.8364999999999 67.36504999999994L218.4960000000001 54.87639999999999L214.2904999999996 49.77374999999995L224.48299999999904 49.516249999999786L228.4394999999995 51.05940000000004L225.54099999999949 56.8330499999999L221.26800000000003 56.71459999999996L219.31999999999903 60.45339999999982L219.48350000000005 69.14109999999994L223.83899999999926 72.10899999999981L226.8934999999999 76.83879999999988L229.17949999999905 72.2037499999999L232.5999999999999 72.32599999999991L236.19899999999916 75.03699999999981L238.47499999999968 80.87869999999981L234.10349999999994 88.27359999999999L237.47999999999934 90.28965L237.17899999999986 94.05664999999999L239.12649999999985 93.7265499999998L238.67899999999963 100.64390000000003L242.6699999999994 104.7499000000002L246.45099999999957 103.59104999999971L250.21299999999997 104.76394999999997L252.63399999999933 101.60839999999979L254.63049999999953 101.96084999999982L259.80500000000006 98.12699999999978L266.25 97.46364999999997L268.22849999999903 100.3842499999999L271.5509999999995 97.73679999999985L277.5649999999996 96.93784999999991L277.7449999999999 94.80255L279.6359999999993 94.61064999999991L283.70450000000005 98.553L288.01099999999906 98.54209999999995L291.5530000000001 96.06594999999999L289.1184999999996 89.09255000000002L290.22749999999974 85.69104999999979L296.3934999999992 84.15269999999992L299.3520000000001 93.25564999999983L299.39899999999966 95.29065000000003L297.47299999999996 95.92905000000002L301.2394999999992 100.7711999999998L307.3739999999998 102.33239999999995L310.7899999999995 93.74830000000003L314.02849999999944 96.6762L322.3669999999993 84.54305000000005L320.2819999999997 67.78120000000001L321.13200000000006 67.50399999999985L331.0809999999992 68.93554999999992L333.672499999999 66.09989999999982L335.2884999999992 67.06474999999983L333.45699999999965 74.32834999999983L339.00800000000004 75.32565000000005L342.69699999999943 74.05184999999989L343.3695 73.19725000000005L356.2699999999995 72.6524999999998L356.798 74.6452499999998L362.45900000000006 69.16605000000004L368.3174999999994 68.69929999999982L372.50599999999963 56.08434999999986L376.4014999999995 57.39409999999992L383.99099999999976 51.1887999999999L386.34399999999914 54.62085000000002L388.6394999999993 65.18364999999989L400.64649999999915 69.85874999999993L408.06449999999927 70.3126499999999L411.6624999999999 68.02769999999981L412.16749999999934 67.76074999999992L417.7869999999996 65.13049999999993L423.3529999999996 67.77929999999998L420.8489999999995 73.10249999999996L420.933 76.24740000000003L417.04099999999926 84.37349999999981L398.72299999999996 93.15139999999985L401.77099999999996 95.23304999999993L405.59849999999983 93.82315000000006L406.3779999999997 97.6523499999999L410.4845 96.44530000000003L412.2899999999993 97.60504999999995L413.27549999999974 103.87374999999992L424.9369999999999 99.1970999999998L425.6254999999999 101.21379999999988L419.80449999999905 106.82575000000014L411.28349999999955 108.45315L410.0094999999999 110.20074999999991L411.3644999999997 113.98394999999965L410.6174999999996 119.95674999999977L410.3985 120.37925000000001L407.2474999999997 123.2319499999997L406.946999999999 129.51555000000013L403.3089999999993 131.68564999999973L401.97799999999916 131.95719999999966L398.9765 138.79175000000004L396.0820000000001 142.5755000000001L401.8949999999995 151.59255000000002L401.63149999999973 155.8083000000002L405.3454999999997 156.38040000000018L405.8594999999991 158.1905500000002L404.3629999999996 164.56575000000015L388.3504999999991 170.28674999999993L387.1434999999997 174.3565499999997L387.3854999999992 175.55624999999992L392.7419999999995 187.46295000000003L397.8564999999992 195.5027499999997L390.63049999999976 196.8572500000002L391.26249999999914 198.72190000000018L387.174 202.4260000000001L387.27499999999964 206.58739999999995L389.0174999999999 207.77444999999972L394.97749999999996 206.11369999999994L396.32299999999987 207.73814999999985L393.0340000000001 210.26894999999996L381.0904999999991 211.32834999999972L369.42399999999907 213.88499999999993L369.5794999999998 227.17754999999983L374.8034999999993 234.20429999999982L376.1164999999994 240.75254999999999L380.80349999999953 245.34144999999995L381.3684999999998 251.97660000000013L375.0459999999998 251.0018999999997L365.3699999999992 255.53145L359.52049999999986 252.93345000000016L356.24149999999986 255.69375000000008L352.3275000000001 261.41474999999986L348.46900000000005 266.9139499999997L351.43049999999903 281.90365000000014L361.3639999999998 290.08430000000004L369.5494999999994 287.5189500000002L373.73199999999997 288.5580999999999L374.91649999999936 286.71129999999977L375.3929999999991 296.5813L388.9014999999995 296.8375499999999L396.3589999999999 301.6868500000001L395.6579999999997 308.17834999999974L389.5144999999991 317.5234500000002L385.66799999999944 319.7364000000002L378.146999999999 323.76475z">
      <title id="t478">Quatrième circonscription des Vosges</title>
      <desc id="d478">Cantons de : Bains-les-Bains, Bulgnéville, Charmes, Châtenois, Coussey, Darney, Dompaire, Lamarche, Mirecourt, Monthureux-sur-Saône, Neufchâteau, Vittel</desc>
    </path></svg>