<svg xmlns="http://www.w3.org/2000/svg" version="1.1" xmlns:xlink="http://www.w3.org/1999/xlink" xmlns:svgjs="http://svgjs.dev/svgjs" width="633.9678500000002" height="688.2358999999999" fill="#eeeeee" stroke="#cccccc" xmlns:sodipodi="http://sodipodi.sourceforge.net/DTD/sodipodi-0.dtd"><path class="circo" id="id-089-01" d="M271.7009999999999 315.13925L273.33799999999997 306.122L272.8280000000001 303.9784499999999L266.28349999999955 298.29289999999986L260.85350000000005 302.34785000000016L259.4509999999997 300.8439999999999L257.30050000000006 300.6771999999998L255.54100000000005 296.8079000000003L249.53749999999957 294.5648000000003L245.68699999999978 296.0283000000001L240.308 302.68400000000014L234.73299999999995 301.2397999999999L228.27399999999955 296.50915000000026L222.4369999999999 295.9445500000001L221.55949999999962 291.28164999999996L214.98850000000004 289.1098500000001L207.90699999999958 288.9645500000003L200.985 293.0638000000002L197.63499999999965 298.1317500000003L190.19299999999987 302.0529000000002L187.63949999999966 307.7448000000001L183.38949999999954 307.7695000000003L179.30949999999996 311.1163000000002L176.02149999999995 312.78895000000006L173.94299999999987 313.3297999999999L165.4744999999997 306.96859999999987L157.11749999999995 308.4169499999999L156.48049999999955 306.4004000000003L153.0664999999999 306.4486000000002L151.6485 302.36939999999976L145.5865 296.0409999999999L145.20999999999958 291.61534999999986L147.19149999999956 291.31144999999975L148.0095 287.48230000000007L144.9354999999997 280.22759999999977L142.97750000000008 279.7769500000001L134.71599999999967 282.0604499999999L132.55899999999997 276.07594999999975L122.4414999999999 274.4573L123.17199999999957 263.65410000000026L125.05899999999997 259.72009999999983L118.16449999999975 259.8801499999999L116.59749999999974 263.73475000000013L118.93899999999974 267.3444500000002L118.77799999999979 271.78919999999977L112.5324999999998 277.6063000000002L109.06749999999988 288.0185000000003L105.19049999999993 287.88775000000015L102.0169999999996 290.4022999999998L100.00099999999975 290.8800499999998L97.7924999999999 296.6893000000002L92.04250000000002 298.4369000000001L86.04600000000005 304.15730000000025L84.83000000000004 310.6059000000002L77.35899999999958 312.82189999999986L69.34849999999983 314.7309500000003L70.88349999999991 318.7420499999999L67.39699999999971 320.77244999999976L69.20950000000005 333.5719000000003L62.16000000000008 338.4815499999999L74.22750000000008 342.49100000000027L78.70149999999967 353.35124999999977L77.35849999999971 357.4025500000002L70.22249999999985 360.9734999999998L70.27249999999981 365.2808999999999L72.57249999999999 368.8136L70.90199999999982 372.5554500000001L74.67199999999991 372.8472000000002L76.04949999999974 381.27105L74.4399999999996 389.7427000000002L59.60899999999981 389.90080000000006L56.01699999999994 392.1792000000002L44.99249999999961 397.4033L41.880499999999756 402.7612500000001L37.7555000000001 402.4393999999998L36.951499999999555 404.3691500000003L27.313499999999635 400.4861500000001L21.68299999999988 403.3101000000002L3.3269999999998845 405.3245000000001L2.2239999999999327 407.2553500000001L4.146999999999821 413.5788499999998L1.65300000000002 426.5519500000002L0 428.03995000000015L0.13599999999996726 433.69170000000025L5.323500000000081 437.4230000000003L12.360999999999649 432.4307999999999L14.814999999999827 435.8382000000003L13.18049999999971 441.94649999999996L15.052000000000021 443.0239000000003L18.89099999999985 445.04159999999985L32.09299999999985 455.3863500000003L29.540499999999952 463.40029999999985L33.822999999999865 470.56990000000013L39.49700000000007 471.13905000000017L44.87449999999967 478.6141999999998L37.19200000000001 484.4566499999999L35.561500000000024 490.37304999999975L40.36299999999983 502.5311500000001L38.975999999999544 508.5521000000003L41.246999999999616 512.3058000000001L47.03899999999976 515.2916000000002L49.395000000000095 523.5196499999997L53.62449999999967 524.6183499999997L54.35399999999959 526.68775L60.628999999999564 527.5539000000001L71.57099999999957 533.9954000000002L77.43799999999965 532.2677999999999L80.6835000000001 529.4404L89.26600000000008 527.1097999999997L94.91349999999954 520.30405L101.73749999999984 515.6262000000002L105.94499999999982 515.0350999999998L111.7489999999998 517.5726499999998L115.44800000000009 520.7255499999999L116.82500000000005 522.4517999999998L113.77999999999986 528.1913499999998L116.6134999999997 545.5809000000002L120.49149999999997 544.14795L122.40549999999985 545.1426999999999L127.82749999999965 551.8281499999998L133.2824999999997 555.2893000000004L134.53399999999988 559.3819499999997L140.35349999999994 558.1428000000003L143.4375 555.5498500000001L151.24799999999993 555.8009999999999L164.2149999999998 576.9116499999998L170.71499999999958 577.6846500000001L174.50400000000002 575.48325L181.06899999999996 575.4542999999999L185.56099999999958 567.91615L190.22599999999954 575.0517499999999L194.42799999999977 574.3768000000002L206.98949999999968 582.0543999999998L208.62599999999986 583.4372499999997L207.99849999999992 587.67415L211.57350000000008 589.4554000000003L211.25399999999956 585.1011500000002L212.78500000000008 583.5454000000002L219.75899999999967 578.8671000000002L225.99400000000003 578.0475500000002L230.52899999999966 570.6125499999998L230.64649999999972 566.2696000000003L236.66099999999972 564.9238L239.5324999999997 565.4428500000004L248.02849999999978 565.7826500000001L254.13149999999973 563.92525L255.38449999999955 567.9589000000001L258.8444999999996 570.0973000000001L260.8794999999998 569.6500000000001L267.8190000000001 574.2277500000002L271.8489999999997 574.2749000000001L274.5984999999996 557.00055L273.4454999999997 532.6299500000002L276.13399999999956 532.0738500000002L275.67799999999977 529.9846499999999L279.0069999999997 527.3353L285.0804999999997 528.71855L286.2959999999998 526.9579999999999L285.4775000000001 519.0527499999998L288.3375000000001 520.8925000000002L294.21699999999987 516.8769999999997L297.91799999999967 514.7811500000003L301.087 517.67345L303.1329999999997 516.9960999999998L308.7164999999999 510.4618000000002L312.5984999999997 508.6012500000001L315.11949999999956 502.76500000000027L310.02899999999954 488.71385000000004L317.28549999999984 481.0245999999998L315.55999999999983 477.08184999999986L318.5624999999999 476.8774499999998L324.5169999999996 468.91535000000005L325.0374999999997 466.81205000000006L329.26349999999957 465.9191000000001L335.2139999999997 459.82024999999993L341.62800000000004 460.2248499999999L343.27099999999973 458.81220000000013L344.631 450.53889999999996L345.18100000000004 445.0927500000003L354.5384999999999 439.6134500000002L376.1654999999996 440.3479999999999L380.03150000000005 442.1063000000001L387.2014999999999 437.2518499999998L377.0830000000001 433.7271000000001L370.85999999999956 434.8237000000003L364.5504999999997 433.57800000000026L369.99649999999974 424.43205000000006L369.7154999999998 422.2905L361.51250000000005 420.70369999999997L361.7739999999998 412.3039000000003L353.91449999999963 411.3930000000002L346.8509999999998 401.39100000000013L349.79899999999986 396.3104999999999L358.11699999999973 390.68389999999994L364.9444999999997 386.2748500000001L358.59849999999994 377.12394999999987L356.7289999999997 370.7681499999998L357.4629999999996 366.70139999999975L364.01599999999974 358.5884999999999L365.08299999999963 352.3462500000002L364.7719999999998 352.1436000000003L347.64250000000004 354.4961500000002L339.6724999999998 357.01190000000025L338.5390000000001 358.80315000000024L340.6334999999996 362.49544999999983L335.2805000000001 361.97885000000014L330.48299999999983 348.00044999999983L334.1919999999999 343.30945000000014L327.00499999999977 339.9399500000001L327.4689999999998 335.9010500000002L325.6954999999999 335.15720000000016L311.5614999999997 339.0808999999999L309.9934999999999 345.15844999999985L306.1994999999996 347.13209999999975L301.977 347.93395000000004L301.23549999999966 345.9108999999998L296.2919999999997 332.56249999999994L292.53049999999973 330.56324999999987L291.2129999999996 324.34859999999986L287.2339999999997 323.22674999999975L286.4734999999996 321.23075L277.33149999999966 322.51745L272.1985000000001 319.24475L271.7009999999999 315.13925z">
      <title id="t479">Première circonscription de l'Yonne</title>
      <desc id="d479">Cantons de : Aillant-sur-Tholon, Auxerre Est, Auxerre Nord, Auxerre Nord-Ouest, Auxerre Sud, Auxerre Sud-Ouest, Bléneau, Charny, Coulanges-la-Vineuse, Courson-les-Carrières, Saint-Fargeau, Saint-Sauveur-en-Puisaye, Toucy, Communes de : Andryes, Etais-la-Sauvin (issues du canton de Coulanges-sur-Yonne) Monéteau (issue du canton de Seignelay)</desc>
    </path><path class="circo" id="id-089-02" d="M585.2733499999999 462.3305000000002L594.65735 470.35724999999985L585.88235 481.516L584.3928499999998 487.04005000000024L580.8633499999996 488.00685000000016L579.6853499999997 489.86790000000013L581.0598499999998 506.89884999999975L574.7798499999999 506.18405000000024L573.2143500000001 507.6186500000003L568.4473499999996 519.2159000000001L568.8823500000001 526.0281999999997L562.6838499999997 538.4092999999998L559.1143499999998 536.6781999999998L555.6278499999996 538.5881500000003L554.55285 542.5462000000002L551.3538499999999 544.9368000000002L553.38885 549.9422500000001L549.52335 554.3282000000002L547.8698499999996 558.1403000000003L538.0568499999998 561.1099500000003L539.1558499999996 564.9042999999997L537.1103499999998 568.1942000000001L538.69235 571.7391999999998L540.95035 574.9316000000001L538.62435 580.1696000000002L539.5223499999997 583.7265L540.5803499999996 584.3471999999999L542.7178499999997 584.8137499999998L544.0923499999997 588.9712999999997L540.0953499999997 605.8858L538.4648499999997 607.0898500000001L535.2848499999999 604.5956500000002L533.4678499999995 605.4867500000003L534.8083499999996 609.2785000000001L531.25585 614.1045499999998L525.6303499999996 608.1832499999998L523.5968499999996 608.42705L524.7073499999999 612.1813499999998L525.0548499999996 620.5511500000002L520.3538499999996 624.6709000000001L519.1333499999996 628.6688999999999L517.0473499999997 628.6802500000001L518.13985 632.9232499999998L525.8613499999996 636.9918500000003L522.5108499999999 644.6995000000002L524.3563499999999 648.59025L530.6363499999998 649.8580000000002L534.7213499999998 648.1408999999999L534.2483499999997 654.5752500000001L531.05435 659.9255000000003L534.8513499999996 665.0390000000002L534.4253499999996 671.3634499999998L530.2183500000001 672.6936500000002L522.0368500000001 670.4352000000003L518.0353500000001 672.0182000000002L509.76585 671.1897000000001L506.2778499999996 678.7764999999999L504.36710000000005 677.74125L502.8879999999998 679.3420999999998L500.16099999999994 687.4454499999999L498.0989999999997 688.1187000000002L489.6690000000001 688.2358999999999L484.0514999999999 681.6632500000001L481.8889999999999 681.8112499999997L477.84249999999986 674.0319999999999L474.0364999999997 654.6763000000001L477.17949999999973 649.1896499999998L472.55499999999984 642.1653999999999L468.3394999999996 637.6096500000003L464.8814999999996 645.0340500000002L462.9559999999998 645.9090000000001L450.573 644.5092999999999L441.50800000000004 654.6605999999999L434.68549999999993 653.8505L430.4544999999996 637.4055999999998L438.1065000000001 633.3018999999999L444.02999999999963 626.7823999999998L442.6769999999999 620.8018000000002L439.20050000000003 618.56305L438.29849999999965 614.5204500000002L436.43100000000004 615.1499500000002L431.69849999999997 611.6812500000001L426.14149999999995 610.8907999999999L426.3239999999996 615.9270999999999L422.1215000000001 627.8016499999999L420.7234999999997 629.4093L416.4734999999996 629.4884499999998L413.8594999999998 632.6495000000002L416.7255 638.2299500000001L416.25999999999976 644.51495L410.1759999999996 645.5650499999999L404.4385 639.7423000000001L398.2279999999997 639.3235500000001L396.5674999999999 635.7801500000003L397.2389999999996 629.9983499999998L393.5419999999999 629.3509000000004L392.6774999999998 631.3101500000002L378.36599999999976 635.2370499999997L372.27299999999957 633.5750499999997L368.11649999999986 628.9521499999998L367.10549999999955 624.1885499999999L362.4939999999998 616.6093500000002L355.00200000000007 611.9677500000003L351.3194999999996 612.6601000000003L350.54550000000006 610.8770000000002L353.0609999999996 603.5675000000001L352.21299999999985 603.8094500000002L350.95249999999965 602.1295L342.95649999999966 602.58205L333.8499999999999 598.0151500000002L331.5244999999999 598.8793999999998L327.42099999999994 597.7831999999999L325.8085 591.8847500000002L321.60649999999976 591.6483500000002L316.44349999999974 596.9855500000003L314.1784999999999 594.36545L312.2249999999997 594.6056000000001L309.18799999999976 581.6330500000001L309.0010000000001 580.9802499999998L311.0359999999997 573.62385L310.813 571.6681500000002L308.9024999999998 571.2183500000001L298.99249999999995 568.2477000000003L294.4380000000001 561.4309000000001L287.90599999999984 556.9111999999998L282.8634999999997 553.2632500000002L281.21249999999975 538.6089000000002L276.13399999999956 532.0738500000002L275.67799999999977 529.9846499999999L279.0069999999997 527.3353L285.0804999999997 528.71855L286.2959999999998 526.9579999999999L285.4775000000001 519.0527499999998L288.3375000000001 520.8925000000002L294.21699999999987 516.8769999999997L297.91799999999967 514.7811500000003L301.087 517.67345L303.1329999999997 516.9960999999998L308.7164999999999 510.4618000000002L312.5984999999997 508.6012500000001L315.11949999999956 502.76500000000027L310.02899999999954 488.71385000000004L317.28549999999984 481.0245999999998L315.55999999999983 477.08184999999986L318.5624999999999 476.8774499999998L324.5169999999996 468.91535000000005L325.0374999999997 466.81205000000006L329.26349999999957 465.9191000000001L335.2139999999997 459.82024999999993L341.62800000000004 460.2248499999999L343.27099999999973 458.81220000000013L344.631 450.53889999999996L345.18100000000004 445.0927500000003L354.5384999999999 439.6134500000002L376.1654999999996 440.3479999999999L380.03150000000005 442.1063000000001L387.2014999999999 437.2518499999998L377.0830000000001 433.7271000000001L370.85999999999956 434.8237000000003L364.5504999999997 433.57800000000026L369.99649999999974 424.43205000000006L369.7154999999998 422.2905L361.51250000000005 420.70369999999997L361.7739999999998 412.3039000000003L353.91449999999963 411.3930000000002L346.8509999999998 401.39100000000013L349.79899999999986 396.3104999999999L358.11699999999973 390.68389999999994L364.9444999999997 386.2748500000001L358.59849999999994 377.12394999999987L356.7289999999997 370.7681499999998L357.4629999999996 366.70139999999975L364.01599999999974 358.5884999999999L365.08299999999963 352.3462500000002L364.7719999999998 352.1436000000003L347.64250000000004 354.4961500000002L339.6724999999998 357.01190000000025L338.5390000000001 358.80315000000024L340.6334999999996 362.49544999999983L335.2805000000001 361.97885000000014L330.48299999999983 348.00044999999983L334.1919999999999 343.30945000000014L327.00499999999977 339.9399500000001L327.4689999999998 335.9010500000002L325.6954999999999 335.15720000000016L311.5614999999997 339.0808999999999L309.9934999999999 345.15844999999985L306.1994999999996 347.13209999999975L301.977 347.93395000000004L301.23549999999966 345.9108999999998L296.2919999999997 332.56249999999994L292.53049999999973 330.56324999999987L291.2129999999996 324.34859999999986L287.2339999999997 323.22674999999975L286.4734999999996 321.23075L277.33149999999966 322.51745L272.1985000000001 319.24475L271.7009999999999 315.13925L273.33799999999997 306.122L272.8280000000001 303.9784499999999L266.28349999999955 298.29289999999986L260.85350000000005 302.34785000000016L259.4509999999997 300.8439999999999L257.79349999999965 297.0267500000003L259.58849999999984 277.07885000000005L249.2734999999999 274.2497499999999L251.3394999999997 270.3874499999998L250.95399999999984 265.93424999999996L260.2529999999996 262.70160000000004L252.52099999999984 246.5443000000002L253.12649999999962 242.17360000000014L256.2574999999998 238.9887999999999L257.12999999999965 238.00444999999996L259.4229999999999 223.06009999999986L261.2180000000001 224.3291000000002L263.0559999999997 223.11544999999995L264.55299999999966 216.98470000000015L261.1345 214.21779999999984L257.4365 206.39534999999995L261.92199999999957 201.5727000000001L269.7645 197.84120000000001L286.86499999999967 199.01575000000008L292.1369999999996 202.72099999999995L295.0385 203.28465000000023L300.1849999999996 206.73250000000024L303.73249999999985 211.9486500000002L325.09749999999997 210.22570000000002L320.90599999999995 203.22104999999993L326.0134999999997 199.59665L326.50949999999966 195.3004999999999L329.5965000000001 192.62214999999998L328.16100000000006 184.18534999999991L335.8049999999997 176.69635L335.2344999999997 173.04794999999984L342.84099999999967 170.68045000000012L344.10699999999963 177.14900000000029L348.2484999999997 178.44970000000018L352.10999999999956 179.74335000000025L366.29899999999964 182.7664999999999L366.77899999999966 178.31409999999977L372.6524999999998 166.2888000000001L374.44199999999967 164.94114999999994L378.75099999999975 166.12195000000014L379.11099999999976 170.39515000000023L384.34199999999976 174.23230000000018L391.1314999999996 169.8398499999999L405.04050000000007 186.47234999999995L406.7365000000001 190.4247000000001L404.3349999999998 193.53849999999994L403.7434999999999 199.5559L415.53499999999985 213.9659500000002L416.5105 223.78934999999984L413.67699999999957 226.42574999999994L417.99999999999955 231.31085000000013L422.77949999999976 231.85935L424.73449999999957 235.66135000000003L434.1890000000001 243.97115000000014L434.4309999999996 252.51515000000012L431.0409999999996 250.35155000000003L421.25549999999976 251.8634L425.5975000000001 264.7132500000001L431.7505 265.24280000000005L430.6009999999998 269.29294999999996L438.52599999999995 266.11774999999994L439.2239999999998 255.62685000000016L440.80749999999966 254.15834999999987L445.0219999999996 254.4404L448.4159999999997 259.6464499999999L452.85699999999963 269.8351499999998L449.2399999999998 280.2764499999998L447.85349999999994 293.50404999999995L444.2994999999996 299.21264999999977L445.00599999999963 299.6833000000001L449.0369999999996 300.9968999999998L452.80550000000005 299.0077499999998L454.69449999999995 300.02325000000013L458.07799999999986 295.86715L467.83799999999985 297.46189999999984L473.65849999999966 295.3057500000003L481.34149999999977 298.6607999999998L483.2279999999997 298.43879999999984L491.6904999999997 290.9180999999998L495.8794999999998 298.5599499999998L500.05449999999996 299.64145L503.5170999999997 297.31160000000017L508.8843499999996 300.73364999999995L512.6678499999997 298.71790000000004L515.23685 288.8002000000003L527.5028499999996 289.9042L528.7428499999999 291.6115499999998L529.55735 299.82155000000006L537.6603499999999 299.93509999999986L541.23785 297.71375000000006L545.6978499999997 293.91265000000004L549.62085 294.2545500000003L549.5978500000001 289.93149999999986L560.4578499999997 279.7249000000002L567.6488499999999 283.63050000000015L568.1568499999997 292.3189499999998L574.5088499999997 291.26135000000005L576.9138499999997 287.7520000000001L576.28285 279.04325L572.3728499999999 276.9957000000002L572.35435 274.8076999999998L575.1693499999999 271.7479499999999L585.3713499999998 272.1510500000002L584.4973499999998 287.0299000000003L593.9793499999996 298.50730000000027L603.7873500000001 302.7119000000002L614.04585 301.50875000000013L619.2328499999996 304.8536500000003L619.7253499999999 311.2089L622.2463499999998 314.6351999999999L616.86935 317.0963500000002L608.8943499999999 317.73600000000016L605.7383499999997 320.12714999999986L602.7903499999996 325.9216999999998L594.4678499999998 332.9015000000001L601.7273499999999 335.8516L600.9833499999996 353.2638499999999L604.6968499999997 355.58594999999997L614.6213499999999 351.5812500000001L627.4078499999996 351.2468500000003L629.0603499999997 354.7349L626.03385 359.70474999999993L627.4233500000003 367.99645000000027L625.3313500000002 373.8921000000002L633.9678500000002 381.3969499999999L628.4143499999993 390.19244999999984L631.9113500000003 397.5962000000001L629.8068499999999 398.2260499999998L629.3958499999997 400.3938000000002L630.0303499999995 408.89595000000014L624.4923499999999 412.34245000000016L620.87985 411.2519999999998L613.8818499999996 423.5846999999998L606.3823500000001 419.1730500000003L599.9983499999996 418.6719000000002L598.2738499999999 427.2792000000001L591.9303500000001 428.9984000000001L591.0663499999998 433.1136999999998L597.0973499999997 435.3246500000003L598.7508499999996 439.3709500000003L602.3448500000001 441.83914999999985L600.6203499999998 447.97350000000023L610.0673499999999 455.28155L606.0208499999999 456.41535000000005L597.8098499999999 454.7544000000002L595.9258499999999 458.16835L585.6508500000001 458.09195000000017L585.2733499999999 462.3305000000002z">
      <title id="t480">Deuxième circonscription de l'Yonne</title>
      <desc id="d480">Cantons de : Ancy-le-Franc, Avallon, Brienon-sur-Armançon, Chablis, Coulanges-sur-Yonne (moins les communes d'Andryes et d'Etais-la-Sauvin), Cruzy-le-Châtel, Flogny-la-Chapelle, Guillon, L'Isle-sur-Serein, Ligny-le-Châtel, Migennes, Noyers, Quarré-les-Tombes, Saint-Florentin, Seignelay (moins la commune de Monéteau), Tonnerre, Vermenton, Vézelay</desc>
    </path><path class="circo" id="id-089-03" d="M303.73249999999985 211.9486500000002L300.1849999999996 206.73250000000024L295.0385 203.28465000000023L292.1369999999996 202.72099999999995L286.86499999999967 199.01575000000008L269.7645 197.84120000000001L261.92199999999957 201.5727000000001L257.4365 206.39534999999995L261.1345 214.21779999999984L264.55299999999966 216.98470000000015L263.0559999999997 223.11544999999995L261.2180000000001 224.3291000000002L259.4229999999999 223.06009999999986L257.12999999999965 238.00444999999996L256.2574999999998 238.9887999999999L253.12649999999962 242.17360000000014L252.52099999999984 246.5443000000002L260.2529999999996 262.70160000000004L250.95399999999984 265.93424999999996L251.3394999999997 270.3874499999998L249.2734999999999 274.2497499999999L259.58849999999984 277.07885000000005L257.79349999999965 297.0267500000003L259.4509999999997 300.8439999999999L257.30050000000006 300.6771999999998L255.54100000000005 296.8079000000003L249.53749999999957 294.5648000000003L245.68699999999978 296.0283000000001L240.308 302.68400000000014L234.73299999999995 301.2397999999999L228.27399999999955 296.50915000000026L222.4369999999999 295.9445500000001L221.55949999999962 291.28164999999996L214.98850000000004 289.1098500000001L207.90699999999958 288.9645500000003L200.985 293.0638000000002L197.63499999999965 298.1317500000003L190.19299999999987 302.0529000000002L187.63949999999966 307.7448000000001L183.38949999999954 307.7695000000003L179.30949999999996 311.1163000000002L176.02149999999995 312.78895000000006L173.94299999999987 313.3297999999999L165.4744999999997 306.96859999999987L157.11749999999995 308.4169499999999L156.48049999999955 306.4004000000003L153.0664999999999 306.4486000000002L151.6485 302.36939999999976L145.5865 296.0409999999999L145.20999999999958 291.61534999999986L147.19149999999956 291.31144999999975L148.0095 287.48230000000007L144.9354999999997 280.22759999999977L142.97750000000008 279.7769500000001L134.71599999999967 282.0604499999999L132.55899999999997 276.07594999999975L122.4414999999999 274.4573L123.17199999999957 263.65410000000026L125.05899999999997 259.72009999999983L118.16449999999975 259.8801499999999L116.49450000000002 260.1455999999999L115.80449999999985 256.9155500000002L115.68649999999991 248.3866500000002L109.61950000000002 245.95980000000026L107.3154999999997 242.24605000000025L107.75199999999984 240.0678000000002L117.13899999999967 234.55675000000014L105.81549999999993 229.1986L102.80449999999973 223.69204999999994L104.85700000000008 220.03239999999977L89.94449999999972 213.21364999999986L85.77650000000006 208.3576500000001L85.52599999999984 198.23060000000027L84.45499999999981 194.85764999999986L82.55949999999984 194.97089999999986L79.24350000000004 180.80585000000013L71.07649999999978 180.75745000000012L75.91700000000003 171.2140500000001L76.03250000000003 169.0655000000001L74.15300000000002 168.04465000000022L69.94849999999985 163.0749499999999L65.97749999999962 162.19149999999985L63.200499999999806 164.96594999999985L59.06199999999956 157.4687000000003L55.05049999999983 158.5478500000002L48.86049999999955 157.09415000000007L43.91199999999969 149.76964999999979L37.2584999999998 150.38775000000015L36.59349999999961 140.55379999999985L45.376999999999725 131.82364999999976L51.98249999999973 130.75889999999987L52.283499999999776 124.87805000000009L59.63399999999979 121.30169999999993L63.101499999999646 123.00575000000009L66.87149999999974 121.04275000000001L69.77399999999989 112.9568500000002L78.2220000000001 95.95945L84.54349999999977 95.3479999999999L82.9019999999997 81.2111999999999L74.84899999999982 78.78275000000002L76.96499999999958 72.53734999999978L72.84749999999974 65.54144999999977L76.0005000000001 62.81795000000017L70.99199999999996 58.55105000000009L81.56900000000007 44.73710000000011L80.26549999999986 36.89629999999994L85.34299999999973 24.850800000000106L92.67499999999984 26.329000000000065L98.58649999999955 24.33780000000013L102.09000000000003 26.522799999999904L106.3069999999999 26.30915000000016L106.6579999999999 30.23935000000023L108.27949999999987 31.576599999999928L113.07199999999966 22.04775000000012L116.37549999999976 19.348099999999988L123.77149999999972 16.810100000000148L125.8884999999998 20.19830000000013L135.47249999999963 17.184349999999995L137.346 13.561650000000043L141.24449999999968 15.556699999999921L142.928 19.669900000000098L146.67749999999955 18.861850000000118L151.2194999999997 22.182699999999897L155.48900000000003 20.012800000000084L160.58349999999962 18.317399999999964L171.01249999999993 21.606999999999914L180.00499999999988 13.146350000000098L184.0164999999996 13.252549999999985L184.67849999999999 11.188250000000153L196.37249999999995 16.609200000000044L196.86800000000005 14.619299999999953L198.9285000000001 14.708249999999907L204.62949999999978 17.114600000000166L207.3584999999997 16.435800000000143L211.5134999999998 16.396100000000047L213.79599999999982 12.958250000000078L215.86749999999995 13.06510000000003L215.77949999999987 17.284150000000125L219.00350000000003 15.06590000000017L220.0155000000001 4.724500000000091L223.87849999999958 0.1126500000000874L228.03049999999985 0L234.42549999999983 4.949799999999982L240.6174999999996 5.500199999999893L240.28399999999976 14.289799999999957L245.62799999999982 23.787049999999965L247.7539999999999 24.328199999999924L255.62999999999988 16.648199999999918L264.28549999999973 15.484399999999994L264.4225 15.629000000000133L266.1529999999999 18.9430999999999L275.01449999999977 18.88875000000013L278.7059999999997 21.35815000000008L290.6039999999996 37.26075000000009L296.0034999999999 41.146200000000306L295.4915 50.580650000000276L304.0629999999999 49.754850000000204L303.6840000000001 56.313249999999755L314.03549999999996 64.19600000000031L310.7729999999998 72.25314999999995L311.89899999999966 74.18649999999985L325.78749999999957 80.76805000000007L329.43299999999965 89.22454999999985L329.7890000000001 91.32350000000002L320.0559999999996 102.32544999999988L319.3135000000001 104.32400000000001L321.32349999999974 107.99090000000007L324.60649999999987 106.83925000000016L328.51399999999956 110.71575000000024L323.3574999999996 120.32974999999993L308.78649999999993 134.23160000000024L316.7685 140.63470000000024L329.341 132.15069999999997L336.5499999999997 136.86054999999982L340.8619999999996 147.33419999999995L344.68050000000005 152.8185499999998L348.17849999999964 165.79140000000024L358.04100000000005 161.84179999999998L359.46049999999957 155.70340000000016L362.08199999999977 161.7055000000002L364.2685 161.97685000000007L370.5529999999999 155.85439999999977L370.71249999999964 151.53915000000012L367.9539999999997 145.52179999999993L368.8644999999997 143.51109999999977L381.16349999999954 147.74840000000012L385.01449999999977 157.58974999999992L378.75099999999975 166.12195000000014L374.44199999999967 164.94114999999994L372.6524999999998 166.2888000000001L366.77899999999966 178.31409999999977L366.29899999999964 182.7664999999999L352.10999999999956 179.74335000000025L348.2484999999997 178.44970000000018L344.10699999999963 177.14900000000029L342.84099999999967 170.68045000000012L335.2344999999997 173.04794999999984L335.8049999999997 176.69635L328.16100000000006 184.18534999999991L329.5965000000001 192.62214999999998L326.50949999999966 195.3004999999999L326.0134999999997 199.59665L320.90599999999995 203.22104999999993L325.09749999999997 210.22570000000002L303.73249999999985 211.9486500000002z">
      <title id="t481">Troisième circonscription de l'Yonne</title>
      <desc id="d481">Cantons de : Cerisiers, Chéroy, Joigny, Pont-sur-Yonne, Saint-Julien-du-Sault, Sens Nord-Est, Sens Ouest, Sens Sud-Est, Sergines, Villeneuve-l'Archevêque, Villeneuve-sur-Yonne</desc>
    </path></svg>