<svg xmlns="http://www.w3.org/2000/svg" version="1.1" xmlns:xlink="http://www.w3.org/1999/xlink" xmlns:svgjs="http://svgjs.dev/svgjs" width="163.43150000000037" height="246.63855000000012" fill="#eeeeee" stroke="#cccccc" xmlns:sodipodi="http://sodipodi.sourceforge.net/DTD/sodipodi-0.dtd"><path class="circo" id="id-090-01" d="M118.40800000000058 205.5848000000003L113.3744999999999 202.30459999999994L95.73750000000018 208.56780000000015L98.1535000000008 214.0191500000003L98.11699999999973 221.91305L99.61999999999989 222.69209999999987L99.50600000000009 226.0746499999999L103.02199999999971 227.37540000000024L102.24550000000022 235.3642000000002L98.69400000000041 237.59160000000008L90.37649999999985 238.24709999999982L87.09900000000061 245.62005L77.15700000000083 246.63855000000012L75.09050000000002 243.5785500000003L75.36000000000058 238.26844999999992L74.23999999999978 232.73439999999994L68.73500000000035 224.9524500000001L63.626500000000306 222.0067499999999L67.18250000000012 218.6414000000002L63.74000000000024 208.3803499999999L70.27300000000082 204.85569999999996L73.78150000000005 206.3692500000002L75.30700000000024 212.18259999999987L78.64149999999995 214.4411500000001L79.78950000000054 212.95119999999997L81.38400000000047 213.94994999999994L79.55150000000003 206.05160000000012L81.2315000000001 200.36360000000002L79.6345000000008 196.5631000000002L76.47749999999974 193.99440000000027L75.21600000000035 193.77790000000005L71.26750000000015 192.66779999999983L63.85650000000055 187.92545000000018L67.27500000000077 185.8149000000003L63.492499999999836 178.3474000000001L62.16599999999971 174.50784999999996L56.18150000000014 173.4399000000002L53.481500000000324 170.1281499999999L49.565000000000055 163.2089000000002L53.91050000000064 154.0098999999998L51.08450000000062 151.49080000000026L47.807000000000244 153.44785000000002L44.00150000000053 153.12465000000032L43.09500000000071 151.5128500000003L43.2140000000004 149.07669999999996L44.850000000000136 146.76015000000007L38.77150000000029 139.83974999999987L35.00750000000039 140.1442000000003L34.48600000000056 137.47149999999976L34.94800000000055 136.81775000000016L38.089499999999816 128.24450000000013L41.203500000000304 126.8088499999999L40.90750000000071 121.4739000000003L40.253999999999905 119.34590000000014L37.63500000000022 111.66659999999979L42.024999999999864 110.02484999999979L39.313000000000784 103.54249999999979L50.21250000000009 110.08185000000026L58.0155000000002 107.47105000000033L58.84400000000028 105.27145000000019L58.892000000000735 103.26104999999984L64.34349999999995 101.01760000000013L70.56350000000066 104.22210000000007L72.2320000000002 101.79194999999993L71.80500000000052 84.78974999999991L75.20700000000033 83.34384999999997L83.84700000000066 83.33939999999984L85.07850000000076 85.71725000000015L89.20150000000035 85.04860000000008L93.7824999999998 82.50845000000027L103.26350000000048 75.9838000000002L114.72200000000043 75.50380000000018L119.43399999999997 83.57680000000016L118.45250000000078 83.80539999999996L119.42650000000071 86.50710000000004L122.4490000000003 89.41630000000032L119.00250000000028 94.5868999999999L120.71250000000077 96.31320000000017L122.25199999999973 97.59824999999978L117.98250000000053 104.36345000000017L119.6855000000005 110.2061500000002L111.42400000000066 110.02700000000004L110.04750000000058 113.57880000000023L108.827 123.33964999999978L107.48000000000047 122.97509999999988L105.83650000000034 125.31859999999995L105.154 129.6311000000003L107.2625000000005 139.00014999999996L106.92200000000071 142.36919999999998L110.3875000000005 143.9316500000001L111.32000000000062 149.2109499999998L113.47700000000032 148.77549999999985L113.80899999999997 146.59440000000018L121.3315 142.00424999999996L134.46950000000015 142.69380000000012L134.6105 142.70134999999982L136.32349999999974 143.96569999999997L139.29750000000013 146.36374999999987L139.73799999999983 151.10135000000014L140.78899999999976 152.2462999999999L143.1110000000001 158.68719999999996L147.6724999999999 162.2016500000001L148.70900000000006 168.08010000000024L148.14950000000067 172.64335000000017L153.48749999999995 174.99394999999993L158.92850000000067 179.59839999999986L159.43899999999985 179.99945000000025L161.6095000000007 185.6632000000002L163.43150000000037 189.2088000000001L161.07050000000072 199.76020000000005L158.4050000000002 203.05074999999988L150.0210000000004 208.16329999999994L144.1160000000002 208.01359999999988L136.4975000000004 211.83605L118.40800000000058 205.5848000000003z">
      <title id="t482">Première circonscription du Territoire-de-Belfort</title>
      <desc id="d482">Cantons : Beaucourt, Belfort Centre, Belfort Est, Danjoutin, Delle, Fontaine, Grandvillars</desc>
    </path><path class="circo" id="id-090-02" d="M0.6100000000003547 64.48800000000006L5.9265000000004875 70.95300000000009L5.287500000000591 76.74984999999992L9.000500000000784 81.32130000000018L9.568000000000438 85.35419999999988L8.928000000000793 94.1292500000003L8.329499999999825 100.36819999999977L9.890500000000202 106.26590000000022L12.687500000000682 109.40870000000018L14.053499999999985 111.78780000000017L17.296499999999924 114.24120000000016L17.948000000000093 118.25744999999984L14.211999999999989 125.03919999999994L9.676000000000613 126.05954999999994L8.598000000000638 132.26974999999982L11.902499999999918 134.82565000000022L13.003499999999804 138.91250000000014L13.473999999999933 139.02600000000007L15.150499999999738 142.4410499999999L14.30749999999989 144.32560000000024L18.993000000000393 148.50450000000023L19.749500000000353 152.66970000000015L26.55050000000074 157.42785000000026L26.93399999999997 158.1618000000003L27.23700000000008 158.80119999999977L22.17899999999986 161.7065500000001L20.981500000000324 165.4235L25.085000000000264 174.79375000000005L31.025000000000773 175.72879999999998L41.68350000000032 174.7798499999999L43.454000000000406 175.02605000000017L53.481500000000324 170.1281499999999L49.565000000000055 163.2089000000002L53.91050000000064 154.0098999999998L51.08450000000062 151.49080000000026L47.807000000000244 153.44785000000002L44.00150000000053 153.12465000000032L43.09500000000071 151.5128500000003L43.2140000000004 149.07669999999996L44.850000000000136 146.76015000000007L38.77150000000029 139.83974999999987L35.00750000000039 140.1442000000003L34.48600000000056 137.47149999999976L34.94800000000055 136.81775000000016L38.089499999999816 128.24450000000013L41.203500000000304 126.8088499999999L40.90750000000071 121.4739000000003L37.63500000000022 111.66659999999979L42.024999999999864 110.02484999999979L39.313000000000784 103.54249999999979L50.21250000000009 110.08185000000026L58.0155000000002 107.47105000000033L58.84400000000028 105.27145000000019L58.892000000000735 103.26104999999984L64.34349999999995 101.01760000000013L70.56350000000066 104.22210000000007L72.2320000000002 101.79194999999993L71.80500000000052 84.78974999999991L75.20700000000033 83.34384999999997L83.84700000000066 83.33939999999984L85.07850000000076 85.71725000000015L89.20150000000035 85.04860000000008L93.7824999999998 82.50845000000027L103.26350000000048 75.9838000000002L114.72200000000043 75.50380000000018L118.90949999999975 65.27834999999982L116.64049999999975 62.35439999999983L111.76199999999994 57.13889999999992L109.71250000000055 51.435900000000174L107.97300000000064 52.59439999999984L102.33699999999999 49.94365000000016L92.106 46.29200000000026L76.84700000000021 33.929600000000164L70.47250000000076 34.619500000000016L70.00800000000027 33.337099999999964L63.71250000000032 29.780999999999835L61.39450000000011 30.58355000000006L56.976000000000795 29.384450000000015L45.61249999999973 25.421850000000177L38.88000000000034 14.88724999999988L38.75999999999976 10.571049999999786L36.276000000000295 7.0562000000001035L37.631000000000085 1.1628500000000486L35.782500000000255 0L33.90300000000025 1.1172499999997854L28.008500000000822 7.423249999999939L28.490000000000464 9.579400000000078L23.794000000000324 17.008749999999964L12.158500000000458 26.889300000000276L7.201000000000022 36.725850000000264L0 48.64599999999996L0.8280000000002019 54.15860000000009L0.6100000000003547 64.48800000000006z">
      <title id="t483">Deuxième circonscription du Territoire-de-Belfort</title>
      <desc id="d483">Cantons : Belfort Nord, Belfort Ouest, Belfort Sud, Châtenois-les-Forges, Giromagny, Offemont, Rougemont-le-Château, Valdoie</desc>
    </path></svg>