<svg xmlns="http://www.w3.org/2000/svg" version="1.1" xmlns:xlink="http://www.w3.org/1999/xlink" xmlns:svgjs="http://svgjs.dev/svgjs" width="493.56700000000046" height="547.9796000000001" fill="#eeeeee" stroke="#cccccc" xmlns:sodipodi="http://sodipodi.sourceforge.net/DTD/sodipodi-0.dtd"><path class="circo" id="id-091-01" d="M415.3965000000005 226.7270000000002L412.06800000000044 222.1551500000001L408.9035000000001 221.2107500000002L388.7465000000009 222.72730000000024L386.5925000000004 222.87365000000023L373.90449999999987 227.1672000000001L366.08749999999986 211.14940000000018L359.80300000000057 207.2951500000002L352.72950000000037 209.2189000000002L361.64150000000063 202.50490000000013L356.40750000000025 189.26785000000024L353.0580000000009 187.97645000000017L349.4225000000006 193.98885000000007L338.8280000000009 194.6049000000002L336.472500000001 197.31960000000015L329.50950000000034 195.57535000000001L327.4335000000008 177.02210000000008L336.961 174.1386L339.4080000000008 167.59935000000013L345.2870000000007 163.70850000000019L356.92600000000084 170.2795500000002L367.32000000000085 156.88845000000015L373.75850000000014 148.11365000000023L376.9635000000005 149.89294999999998L385.385 143.0173000000002L396.1085000000003 155.16080000000017L409.4760000000008 168.7258L409.9790000000007 169.07485000000008L420.8865000000003 180.11005000000011L424.27400000000034 189.01070000000004L418.36700000000064 216.7246L417.54099999999994 219.3634L415.3965000000005 226.7270000000002z">
      <title id="t484">Première circonscription de l'Essonne</title>
      <desc id="d484">Cantons de : Corbeil-Essonnes Est, Corbeil-Essonnes Ouest, Evry Nord, Evry Sud</desc>
    </path><path class="circo" id="id-091-02" d="M113.73800000000074 349.00855000000007L86.98450000000093 348.50795000000005L86.9335000000001 351.78950000000015L80.24150000000077 351.65115000000014L76.70400000000086 356.79115000000024L77.12650000000053 360.1758000000001L83.56650000000059 361.75115000000005L90.1685000000009 369.29235000000006L77.16600000000085 378.71830000000017L74.62200000000053 381.5980000000002L76.89500000000066 403.72375000000005L65.7065 419.09700000000015L58.561500000000706 417.44425000000007L44.88550000000032 421.3376500000001L37.10550000000012 442.20675L44.723000000000184 443.57935000000026L52.361000000000786 460.69560000000024L43.68600000000015 468.4073000000001L39.98700000000099 487.19450000000023L48.65600000000086 500.18190000000004L43.668499999999995 505.5997500000001L44.368500000000495 515.78575L31.562999999999874 522.0043000000001L33.54350000000068 528.5012L46.287000000000944 544.7533000000001L57.33699999999999 546.5712500000001L68.56950000000097 547.9796000000001L83.14750000000004 544.2983500000003L93.6785000000009 547.0384000000001L99.76550000000088 542.5457L100.68200000000047 536.6942500000002L126.43800000000056 537.7702000000002L138.4475000000009 524.0710000000001L145.7910000000004 523.6074500000001L143.48600000000033 535.0554500000001L181.18600000000015 533.4009500000002L181.41650000000027 528.7491L175.4855000000009 522.3200500000002L176.1105000000009 515.5123000000001L186.68450000000007 517.5498500000001L188.02400000000034 514.9452500000001L195.89800000000082 516.3338000000001L196.86800000000062 505.1182L214.82950000000073 481.6881000000001L220.44900000000098 490.88965L233.11599999999999 498.57045L243.82900000000063 498.34585000000004L237.71850000000086 513.46325L245.23950000000013 514.5204000000001L242.9765000000009 533.4462000000002L250.14300000000048 530.0878L260.6925000000001 514.93525L277.3980000000006 521.4641L283.6800000000005 519.1677500000001L292.7125000000001 498.1789500000002L296.2300000000005 496.56745L305.1980000000003 495.15945000000016L306.69450000000097 502.2814500000001L324.7855000000004 520.0672500000002L327.5825000000009 521.8643L333.58400000000074 519.13555L335.24350000000027 522.0234000000003L356.67800000000057 514.7039500000003L359.43500000000085 508.6309L354.0655000000004 503.02880000000016L351.82500000000005 491.7782500000001L358.424 494.95045000000005L372.24800000000073 490.35345000000007L382.47600000000034 493.2609000000002L379.8980000000006 478.8379500000002L387.8860000000009 468.0500500000002L379.5220000000006 462.69315000000006L387.78800000000047 455.6752L394.90600000000086 456.96740000000005L394.31550000000016 449.68050000000005L418.4350000000006 439.94235000000003L412.0550000000003 431.11005000000006L421.078 423.938L436.19500000000016 426.0749000000001L447.51100000000065 415.9062L466.1990000000003 418.82195000000024L444.203 389.56770000000006L435.1215000000002 387.13750000000005L434.6645000000001 366.83670000000006L434.4080000000008 360.97080000000005L429.8810000000003 356.59715000000006L431.1385000000007 354.6025500000002L435.7935000000009 352.2566500000002L433.22250000000054 326.50765000000007L439.06650000000013 321.8246500000001L440.33900000000017 314.05730000000005L441.6250000000002 298.2996L438.11900000000037 298.1901500000001L436.4745000000005 291.3225L429.6360000000004 289.68845000000016L438.39200000000005 261.35025000000013L430.89650000000006 261.0253L444.6715000000006 239.66700000000003L445.9694999999999 232.45260000000002L454.7640000000001 226.68000000000006L447.5010000000009 227.1661500000002L426.0845000000006 233.68285000000014L417.6610000000005 226.75150000000002L417.54099999999994 219.3634L415.3965000000005 226.7270000000002L412.06800000000044 222.1551500000001L408.9035000000001 221.2107500000002L388.7465000000009 222.72730000000024L386.5925000000004 222.87365000000023L373.90449999999987 227.1672000000001L366.08749999999986 211.14940000000018L359.80300000000057 207.2951500000002L352.72950000000037 209.2189000000002L361.64150000000063 202.50490000000013L356.40750000000025 189.26785000000024L353.0580000000009 187.97645000000017L349.4225000000006 193.98885000000007L338.8280000000009 194.6049000000002L336.472500000001 197.31960000000015L329.50950000000034 195.57535000000001L329.0775000000008 199.0682000000001L312.9065000000003 204.47135000000003L311.9524999999999 207.85855000000026L310.5160000000001 225.37480000000016L318.7430000000006 244.82485000000025L315.1400000000001 249.9500500000002L325.7440000000008 267.83620000000013L314.21850000000063 266.93730000000016L311.9545000000005 284.7745500000002L301.3785000000007 288.1078500000001L288.76550000000066 309.04180000000025L275.095 309.21355000000005L266.5674999999999 303.72005L262.9925000000003 304.6864500000001L262.6260000000002 319.23415000000006L257.4840000000006 329.0777L261.785000000001 332.1786L263.5155000000009 337.57015000000024L258.4870000000001 342.2932L265.08050000000026 350.2072000000001L259.3500000000006 354.46320000000014L255.08050000000026 364.24270000000007L245.46950000000038 365.08545000000026L238.78100000000018 371.4581000000001L216.6235000000006 340.22005000000007L204.5735000000002 330.8602000000002L202.81450000000063 337.8925000000001L181.18550000000027 337.1151500000002L171.6210000000001 330.47420000000017L164.3035000000009 332.88235000000014L157.94550000000072 342.53405000000015L151.11200000000053 345.0276500000001L149.03500000000008 341.8304500000002L152.47800000000097 331.18600000000015L151.32150000000024 319.8087000000001L137.84700000000043 313.1847000000002L140.9170000000006 298.71365000000026L130.58350000000019 294.13310000000024L116.45050000000083 297.8320000000002L107.2160000000008 317.83840000000026L107.71299999999997 328.6316000000002L114.37049999999999 338.0755000000002L113.73800000000074 349.00855000000007z">
      <title id="t485">Deuxième circonscription de l'Essonne</title>
      <desc id="d485">Cantons de : Etampes, La Ferté-Alais, Mennecy, Méréville, Milly-la-Forêt</desc>
    </path><path class="circo" id="id-091-03" d="M235.3895 209.56770000000006L219.67000000000098 216.7816000000002L208.92100000000028 219.49415000000016L185.9385000000009 218.9476000000002L175.16349999999989 222.79210000000006L170.7835 215.37005000000022L169.9210000000005 211.64905000000005L156.9760000000008 205.03250000000008L149.50900000000047 206.2220000000002L142.8290000000004 208.6399L137.66950000000065 203.80175000000008L130.45850000000087 204.52835000000022L126.15100000000098 203.98395000000022L119.31550000000016 198.2811000000001L109.18499999999995 201.42830000000004L102.24000000000046 188.33415000000002L87.59850000000029 191.81175000000025L86.14500000000021 199.25265000000024L88.1370000000004 209.67730000000017L77.91650000000004 221.65780000000012L74.7040000000004 244.6260000000001L49.13300000000049 245.48295000000024L46.67400000000043 248.2689000000002L34.11950000000047 241.39740000000018L15.843000000000984 239.95300000000015L13.002999999999929 254.62345L33.661500000000615 269.8696000000001L44.03400000000033 270.34640000000024L44.891000000000076 277.79935000000023L37.805000000000746 279.64920000000006L35.008000000000266 277.84730000000025L26.87999999999988 282.7161000000001L13.115999999999985 313.64555000000024L12.250999999999976 329.65665L4.972500000000082 332.21435000000014L0.21200000000021646 338.2806500000001L0 349.86155000000025L4.148999999999887 356.22480000000024L10.417500000000928 360.5527000000001L13.013500000000704 372.86370000000005L19.488000000000056 374.7317000000001L15.351000000000568 380.92370000000017L16.61950000000047 395.7237500000002L6.916500000000951 406.21020000000016L9.77200000000039 407.46455000000026L10.267000000000053 416.0053000000002L23.709499999999935 413.35890000000006L33.781000000000176 415.591L44.88550000000032 421.3376500000001L58.561500000000706 417.44425000000007L65.7065 419.09700000000015L76.89500000000066 403.72375000000005L74.62200000000053 381.5980000000002L77.16600000000085 378.71830000000017L90.1685000000009 369.29235000000006L83.56650000000059 361.75115000000005L77.12650000000053 360.1758000000001L76.70400000000086 356.79115000000024L80.24150000000077 351.65115000000014L86.9335000000001 351.78950000000015L86.98450000000093 348.50795000000005L113.73800000000074 349.00855000000007L114.37049999999999 338.0755000000002L107.71299999999997 328.6316000000002L107.2160000000008 317.83840000000026L116.45050000000083 297.8320000000002L130.58350000000019 294.13310000000024L140.9170000000006 298.71365000000026L137.84700000000043 313.1847000000002L151.32150000000024 319.8087000000001L152.47800000000097 331.18600000000015L149.03500000000008 341.8304500000002L151.11200000000053 345.0276500000001L157.94550000000072 342.53405000000015L164.3035000000009 332.88235000000014L171.6210000000001 330.47420000000017L181.18550000000027 337.1151500000002L202.81450000000063 337.8925000000001L204.5735000000002 330.8602000000002L216.6235000000006 340.22005000000007L238.78100000000018 371.4581000000001L245.46950000000038 365.08545000000026L255.08050000000026 364.24270000000007L259.3500000000006 354.46320000000014L265.08050000000026 350.2072000000001L258.4870000000001 342.2932L263.5155000000009 337.57015000000024L261.785000000001 332.1786L257.4840000000006 329.0777L262.6260000000002 319.23415000000006L262.9925000000003 304.6864500000001L266.5674999999999 303.72005L275.095 309.21355000000005L288.76550000000066 309.04180000000025L301.3785000000007 288.1078500000001L311.9545000000005 284.7745500000002L314.21850000000063 266.93730000000016L325.7440000000008 267.83620000000013L315.1400000000001 249.9500500000002L318.7430000000006 244.82485000000025L310.5160000000001 225.37480000000016L311.9524999999999 207.85855000000026L312.9065000000003 204.47135000000003L329.0775000000008 199.0682000000001L329.50950000000034 195.57535000000001L327.4335000000008 177.02210000000008L320.453500000001 174.6654000000001L306.07650000000035 174.6139500000001L304.92000000000075 175.41935000000024L278.1395000000009 167.98645000000022L277.48199999999997 175.19675000000007L270.61900000000037 177.40125000000006L265.80100000000016 172.66660000000002L256.2504999999999 172.59395000000012L252.27700000000027 182.2897500000002L236.47850000000062 183.21580000000012L241.3085000000001 193.1077000000002L236.26900000000091 198.88930000000016L235.3895 209.56770000000006z">
      <title id="t486">Troisième circonscription de l'Essonne</title>
      <desc id="d486">Cantons de : Arpajon (moins les communes de Bruyères-le-Châtel et Ollainville), Brétigny-sur-Orge, Dourdan, Etréchy, Saint-Chéron</desc>
    </path><path class="circo" id="id-091-04" d="M170.7835 215.37005000000022L169.9210000000005 211.64905000000005L156.9760000000008 205.03250000000008L149.50900000000047 206.2220000000002L142.8290000000004 208.6399L137.66950000000065 203.80175000000008L130.45850000000087 204.52835000000022L126.15100000000098 203.98395000000022L119.31550000000016 198.2811000000001L109.18499999999995 201.42830000000004L102.24000000000046 188.33415000000002L104.27250000000072 177.94820000000016L93.22450000000003 167.74815000000018L92.48550000000023 167.1631500000001L88.22300000000041 161.5897000000001L87.41100000000074 150.87985000000003L76.7025000000001 150.1570000000001L70.32950000000028 137.30050000000006L71.52150000000006 130.59030000000007L81.7285000000004 132.7585000000002L83.07950000000005 125.9244000000001L86.58150000000091 109.21275000000009L89.5435000000009 107.47480000000024L93.17300000000046 106.94740000000024L95.60200000000009 100.12700000000024L102.86350000000084 100.12025000000023L110.8890000000008 99.99485000000021L113.29250000000002 97.71905000000004L122.39850000000047 101.61205000000024L127.76000000000067 87.51455000000021L134.06150000000025 92.00655000000012L144.7014999999999 94.80790000000013L138.40400000000045 103.87550000000005L138.63000000000056 111.26640000000009L145.56850000000054 112.10505000000012L151.6145000000006 107.54425000000026L151.87250000000063 103.80490000000009L166.3880000000006 101.07565000000022L172.78999999999996 103.20245L175.1170000000002 109.5129L180.96550000000093 112.68410000000017L183.03949999999986 113.24615000000023L186.64449999999988 112.17010000000016L203.1325000000004 120.86195000000004L206.22800000000097 120.16559999999998L216.1775 110.87895000000003L213.08449999999993 101.93460000000016L213.06850000000054 95.32650000000018L216.76750000000084 83.54095000000001L235.12200000000007 84.37675000000013L242.86100000000033 77.23770000000002L253.46949999999993 78.04445000000015L259.00600000000054 64.83865000000009L279.0370000000007 71.73160000000024L278.9480000000003 79.59390000000013L285.6015000000002 82.22465L290.8510000000001 95.42850000000016L293.981 97.2754500000002L295.46249999999986 94.29050000000018L304.3545000000006 99.27135000000021L303.0585000000008 100.4305500000001L309.6195 110.22730000000024L311.7150000000004 121.8617500000002L314.5450000000005 121.62665000000004L310.7820000000004 140.96035L301.5275000000008 133.99085000000014L297.3840000000007 123.79625000000004L290.51000000000045 133.41205000000002L282.7380000000005 141.16295000000008L281.9410000000005 147.55195000000015L278.1395000000009 167.98645000000022L277.48199999999997 175.19675000000007L270.61900000000037 177.40125000000006L265.80100000000016 172.66660000000002L256.2504999999999 172.59395000000012L252.27700000000027 182.2897500000002L236.47850000000062 183.21580000000012L241.3085000000001 193.1077000000002L236.26900000000091 198.88930000000016L235.3895 209.56770000000006L219.67000000000098 216.7816000000002L208.92100000000028 219.49415000000016L185.9385000000009 218.9476000000002L175.16349999999989 222.79210000000006L170.7835 215.37005000000022z">
      <title id="t487">Quatrième circonscription de l'Essonne</title>
      <desc id="d487">Cantons de : Limours, Longjumeau, Montlhéry, Villebon-sur-Yvette, Communes de : Bruyères-le-Châtel, Ollainville</desc>
    </path><path class="circo" id="id-091-05" d="M201.83700000000044 24.610700000000065L191.28750000000082 20.846950000000106L181.31900000000087 26.500400000000184L173.61350000000016 26.330000000000098L164.45350000000076 33.10760000000016L164.40600000000018 36.99065000000019L161.51299999999992 43.69865000000004L148.7710000000004 38.95835000000005L139.08950000000004 42.7591000000001L135.97800000000007 44.97210000000024L143.4050000000002 58.11635000000024L141.3364999999999 65.47860000000014L143.2890000000009 69.20700000000011L133.56700000000046 84.73745000000008L134.06150000000025 92.00655000000012L144.7014999999999 94.80790000000013L138.40400000000045 103.87550000000005L138.63000000000056 111.26640000000009L145.56850000000054 112.10505000000012L151.6145000000006 107.54425000000026L151.87250000000063 103.80490000000009L166.3880000000006 101.07565000000022L172.78999999999996 103.20245L175.1170000000002 109.5129L180.96550000000093 112.68410000000017L183.03949999999986 113.24615000000023L186.64449999999988 112.17010000000016L203.1325000000004 120.86195000000004L206.22800000000097 120.16559999999998L216.1775 110.87895000000003L213.08449999999993 101.93460000000016L213.06850000000054 95.32650000000018L216.76750000000084 83.54095000000001L204.26050000000032 71.89640000000026L204.76650000000063 64.3714L212.14750000000095 61.735450000000185L219.12750000000074 53.04560000000009L219.71000000000004 42.90590000000009L212.57200000000012 43.94635000000022L229.11850000000072 29.23895000000016L237.7030000000002 45.46205000000015L264.68450000000075 39.681500000000085L271.4675 31.43010000000004L265.88850000000093 21.80810000000008L260.81950000000006 17.345300000000066L246.58950000000004 16.702550000000258L233.88300000000072 11.34650000000022L230.91350000000034 1.8299500000000535L229.22450000000026 0L229.69450000000052 3.759550000000047L226.51450000000068 5.798000000000059L215.27400000000057 6.526050000000225L210.1445000000001 1.6638000000000375L202.6845000000003 1.1948000000001002L200.43949999999995 4.023200000000031L204.02199999999993 13.985950000000003L201.83700000000044 24.610700000000065z">
      <title id="t488">Cinquième circonscription de l'Essonne</title>
      <desc id="d488">Cantons de : Bièvres, Gif-sur-Yvette, Orsay, Les Ulis</desc>
    </path><path class="circo" id="id-091-06" d="M259.00600000000054 64.83865000000009L253.46949999999993 78.04445000000015L242.86100000000033 77.23770000000002L235.12200000000007 84.37675000000013L216.76750000000084 83.54095000000001L204.26050000000032 71.89640000000026L204.76650000000063 64.3714L212.14750000000095 61.735450000000185L219.12750000000074 53.04560000000009L219.71000000000004 42.90590000000009L212.57200000000012 43.94635000000022L229.11850000000072 29.23895000000016L237.7030000000002 45.46205000000015L264.68450000000075 39.681500000000085L267.5635 46.612300000000175L271.2875000000008 47.073050000000194L285.08050000000026 41.16035000000011L286.36349999999993 52.27105000000023L293.4910000000002 51.11985000000004L298.845 30.673200000000236L301.1595 28.575050000000033L306.2620000000004 31.40650000000022L313.42899999999986 39.3631000000002L323.41499999999996 41.99345000000022L317.2885000000008 50.080600000000004L319.855 60.34235000000024L316.155500000001 66.34045000000015L323.4545000000003 67.81290000000013L321.7360000000008 82.55065000000002L304.3545000000006 99.27135000000021L295.46249999999986 94.29050000000018L293.981 97.2754500000002L290.8510000000001 95.42850000000016L285.6015000000002 82.22465L278.9480000000003 79.59390000000013L279.0370000000007 71.73160000000024L259.00600000000054 64.83865000000009z">
      <title id="t489">Sixième circonscription de l'Essonne</title>
      <desc id="d489">Cantons de : Chilly-Mazarin, Massy Est, Massy Ouest, Palaiseau</desc>
    </path><path class="circo" id="id-091-07" d="M335.8070000000009 62.71265L335.6060000000002 54.09475000000015L335.163 33.69965000000008L323.41499999999996 41.99345000000022L317.2885000000008 50.080600000000004L319.855 60.34235000000024L316.155500000001 66.34045000000015L323.4545000000003 67.81290000000013L321.7360000000008 82.55065000000002L304.3545000000006 99.27135000000021L303.0585000000008 100.4305500000001L309.6195 110.22730000000024L311.7150000000004 121.8617500000002L314.5450000000005 121.62665000000004L324.53700000000026 118.00920000000019L331.3499999999999 133.76255000000015L327.86050000000046 140.35600000000017L329.73299999999995 143.59140000000025L332.15850000000046 145.54540000000003L341.2385000000006 128.57865000000004L354.75850000000037 114.95925L347.04000000000065 103.81835000000024L350.0115000000005 94.4360500000002L357.8920000000005 83.33265000000011L360.8800000000008 73.12105000000003L368.0090000000007 65.3576000000001L365.60800000000086 56.13145000000003L347.54549999999995 62.80120000000011L335.8070000000009 62.71265z">
      <title id="t490">Septième circonscription de l'Essonne</title>
      <desc id="d490">Cantons de : Athis-Mons, Juvisy-sur-Orge, Savigny-sur-Orge, Viry-Châtillon</desc>
    </path><path class="circo" id="id-091-08" d="M426.3560000000007 106.95070000000015L407.6710000000003 118.05290000000014L404.8020000000008 115.71505000000002L397.94050000000084 104.93490000000008L391.3970000000006 108.62705000000005L377.6005000000009 90.91450000000009L370.42200000000093 91.57195000000002L357.8920000000005 83.33265000000011L360.8800000000008 73.12105000000003L368.0090000000007 65.3576000000001L383.4360000000004 58.3193L387.1350000000007 56.82075000000026L389.14300000000026 62.140050000000144L395.2875000000006 68.64780000000025L394.3225000000007 61.37680000000017L403.8695000000007 55.10130000000004L411.42400000000066 54.42545000000024L413.2030000000009 54.3929L419.978000000001 52.73510000000016L438.8385000000005 46.47440000000017L447.1930000000009 71.5444500000001L453.27499999999986 78.39175000000012L451.2740000000008 80.01635000000022L438.8390000000004 92.12310000000002L437.7685000000008 99.49425000000019L440.9649999999999 101.37915000000021L430.11100000000056 111.43889999999999L426.3560000000007 106.95070000000015z">
      <title id="t491">Huitième circonscription de l'Essonne</title>
      <desc id="d491">Cantons de : Brunoy, Montgeron, Vigneux-sur-Seine, Yerres</desc>
    </path><path class="circo" id="id-091-09" d="M345.2870000000007 163.70850000000019L351.1234999999999 148.9183L362.6825000000008 121.80800000000005L354.75850000000037 114.95925L347.04000000000065 103.81835000000024L350.0115000000005 94.4360500000002L357.8920000000005 83.33265000000011L370.42200000000093 91.57195000000002L377.6005000000009 90.91450000000009L391.3970000000006 108.62705000000005L397.94050000000084 104.93490000000008L404.8020000000008 115.71505000000002L407.6710000000003 118.05290000000014L426.3560000000007 106.95070000000015L430.11100000000056 111.43889999999999L440.9649999999999 101.37915000000021L437.7685000000008 99.49425000000019L438.8390000000004 92.12310000000002L451.2740000000008 80.01635000000022L454.3820000000005 85.55980000000005L464.1650000000004 87.0541L467.6305000000002 97.61365000000012L484.3875000000003 94.25575000000009L490.83150000000046 97.10180000000008L493.56700000000046 110.9081500000002L486.61249999999995 111.91255000000012L479.6154999999999 119.6350000000001L473.51800000000026 115.69045000000017L466.4960000000008 116.7686500000002L456.3600000000008 133.14010000000025L466.8685000000005 141.6867000000002L462.78999999999996 147.9917500000002L461.47100000000023 159.41250000000025L447.2350000000006 161.58080000000012L444.3400000000008 163.89320000000026L450.77949999999987 180.4153500000001L462.83700000000067 187.3959000000002L462.05100000000016 200.71730000000002L444.91750000000025 215.95230000000015L447.5010000000009 227.1661500000002L426.0845000000006 233.68285000000014L417.6610000000005 226.75150000000002L417.54099999999994 219.3634L418.36700000000064 216.7246L424.27400000000034 189.01070000000004L420.8865000000003 180.11005000000011L409.9790000000007 169.07485000000008L409.4760000000008 168.7258L396.1085000000003 155.16080000000017L385.385 143.0173000000002L376.9635000000005 149.89294999999998L373.75850000000014 148.11365000000023L367.32000000000085 156.88845000000015L356.92600000000084 170.2795500000002L345.2870000000007 163.70850000000019z">
      <title id="t492">Neuvième circonscription de l'Essonne</title>
      <desc id="d492">Cantons de: Draveil, Epinay-sous-Sénart, Ris-Orangis, Saint-Germain-lès-Corbeil</desc>
    </path><path class="circo" id="id-091-10" d="M306.07650000000035 174.6139500000001L304.92000000000075 175.41935000000024L278.1395000000009 167.98645000000022L281.9410000000005 147.55195000000015L282.7380000000005 141.16295000000008L290.51000000000045 133.41205000000002L297.3840000000007 123.79625000000004L301.5275000000008 133.99085000000014L310.7820000000004 140.96035L314.5450000000005 121.62665000000004L324.53700000000026 118.00920000000019L331.3499999999999 133.76255000000015L327.86050000000046 140.35600000000017L329.73299999999995 143.59140000000025L332.15850000000046 145.54540000000003L341.2385000000006 128.57865000000004L354.75850000000037 114.95925L362.6825000000008 121.80800000000005L351.1234999999999 148.9183L345.2870000000007 163.70850000000019L339.4080000000008 167.59935000000013L336.961 174.1386L327.4335000000008 177.02210000000008L320.453500000001 174.6654000000001L306.07650000000035 174.6139500000001z">
      <title id="t493">Dixième circonscription de l'Essonne</title>
      <desc id="d493">Cantons de: Grigny, Morsang-sur-Orge, Sainte-Geneviève-des-Bois, Saint-Michel-sur-Orge</desc>
    </path></svg>