<svg xmlns="http://www.w3.org/2000/svg" version="1.1" xmlns:xlink="http://www.w3.org/1999/xlink" xmlns:svgjs="http://svgjs.dev/svgjs" width="357.64350000000036" height="633.0631" fill="#eeeeee" stroke="#cccccc" xmlns:sodipodi="http://sodipodi.sourceforge.net/DTD/sodipodi-0.dtd"><path class="circo" id="id-092-01" d="M223.69800000000055 61.223349999999925L212.37750000000005 66.65545000000009L207.68550000000005 66.78805000000011L184.30700000000002 94.01470000000018L172.43349999999964 106.38590000000022L172.6769999999999 122.29089999999985L156.58000000000015 128.66584999999986L140.20449999999983 86.91519999999969L159.97299999999996 66.58929999999998L191.36750000000006 40.76224999999994L228.97400000000061 13.979300000000023L272.9774999999995 0L311.91400000000044 8.6454999999998L355.6320000000005 26.99764999999985L357.64350000000036 55.54204999999996L343.4789999999998 80.76819999999998L331.38400000000047 92.48359999999991L323.1995000000006 86.94109999999966L287.7150000000006 103.7829499999998L265.99699999999984 83.66285000000005L257.5755000000004 55.338649999999916L239.23450000000003 49.06729999999982L236.20049999999992 62.613249999999994L223.69800000000055 61.223349999999925z">
      <title id="t494-2">Première circonscription des Hauts-de-Seine</title>
      <desc id="d494-1">Cantons de : Colombes Nord-Est, Colombes Nord-Ouest, Gennevilliers Nord, Gennevilliers Sud, Villeneuve-la-Garenne</desc>
    </path><path class="circo" id="id-092-02" d="M224.96399999999994 118.82259999999974L226.74099999999953 127.91600000000017L245.54899999999975 127.20334999999977L260.3639999999996 139.39570000000003L266.2315000000001 135.50905L315.8405000000005 105.79830000000015L327.2429999999997 100.31904999999995L331.38400000000047 92.48359999999991L323.1995000000006 86.94109999999966L287.7150000000006 103.7829499999998L265.99699999999984 83.66285000000005L257.5755000000004 55.338649999999916L239.23450000000003 49.06729999999982L236.20049999999992 62.613249999999994L223.69800000000055 61.223349999999925L212.37750000000005 66.65545000000009L207.68550000000005 66.78805000000011L172.43349999999964 106.38590000000022L172.6769999999999 122.29089999999985L209.83900000000062 107.12089999999989L239.7524999999996 69.07204999999976L251.1239999999998 94.04679999999985L224.96399999999994 118.82259999999974z">
      <title id="t495-1">Deuxième circonscription des Hauts-de-Seine</title>
      <desc id="d495-1">Cantons de : Asnières-sur-Seine Nord, Asnières-sur-Seine Sud, Colombes Sud</desc>
    </path><path class="circo" id="id-092-03" d="M191.74600000000055 151.79429999999968L176.37299999999982 160.84524999999985L165.38850000000025 158.30600000000004L161.32550000000037 144.06045000000006L156.58000000000015 128.66584999999986L209.83900000000062 107.12089999999989L239.7524999999996 69.07204999999976L251.1239999999998 94.04679999999985L224.96399999999994 118.82259999999974L226.74099999999953 127.91600000000017L245.54899999999975 127.20334999999977L260.3639999999996 139.39570000000003L235.5230000000006 150.51085L209.57300000000032 175.99819999999966L191.74600000000055 151.79429999999968z">
      <title id="t496-0">Troisième circonscription des Hauts-de-Seine</title>
      <desc id="d496-5">Cantons de : Bois-Colombes, Courbevoie Nord, Courbevoie Sud (partie située au nord d'une ligne définie depuis la limite de la commune de Neuilly-sur-Seine, par l'axe des voies ci-après : prolongation de l'axe de la rue de l'Abreuvoir, rue de l'Abreuvoir, place Victor-Hugo, rue de Bezons et partie située à l'ouest de la ligne de chemin de fer de Paris à Versailles depuis la limite du canton de Courbevoie Nord jusqu'à la limite de la commune de Puteaux), La Garenne-Colombes</desc>
    </path><path class="circo" id="id-092-04" d="M44.166999999999916 157.91404999999997L53.460000000000036 148.6021999999997L102.94099999999958 121.09244999999987L140.20449999999983 86.91519999999969L156.58000000000015 128.66584999999986L161.32550000000037 144.06045000000006L165.38850000000025 158.30600000000004L146.24900000000025 195.23829999999975L166.07049999999958 210.2482500000002L161.53350000000046 234.42335000000014L150.1355000000001 262.05420000000004L108.53349999999978 258.5599500000001L103.10249999999996 251.56819999999982L123.0544999999995 235.93345L116.42799999999966 219.66769999999997L44.166999999999916 157.91404999999997z">
      <title id="t497-1">Quatrième circonscription des Hauts-de-Seine</title>
      <desc id="d497-6">Cantons de : Nanterre Nord, Nanterre Sud-Est, Nanterre Sud-Ouest, Suresnes</desc>
    </path><path class="circo" id="id-092-05" d="M260.3639999999996 139.39570000000003L235.5230000000006 150.51085L260.7185000000004 187.0274999999998L274.87600000000043 175.44354999999996L278.5654999999997 174.95994999999994L297.0614999999998 162.66689999999983L327.3644999999999 144.6186499999999L315.8405000000005 105.79830000000015L266.2315000000001 135.50905L260.3639999999996 139.39570000000003z">
      <title id="t498-0">Cinquième circonscription des Hauts-de-Seine</title>
      <desc id="d498-5">Cantons de : Clichy, Levallois-Perret Nord, Levallois-Perret Sud</desc>
    </path><path class="circo" id="id-092-06" d="M178.05700000000002 225.54730000000006L161.53350000000046 234.42335000000014L166.07049999999958 210.2482500000002L146.24900000000025 195.23829999999975L165.38850000000025 158.30600000000004L176.37299999999982 160.84524999999985L191.74600000000055 151.79429999999968L209.57300000000032 175.99819999999966L235.5230000000006 150.51085L260.7185000000004 187.0274999999998L253.97249999999985 195.06584999999973L252.23050000000057 207.22170000000006L214.68600000000038 202.60469999999998L205.8375000000001 219.3071500000002L187.79949999999985 213.28035L178.05700000000002 225.54730000000006z">
      <title id="t499-9">Sixième circonscription des Hauts-de-Seine</title>
      <desc id="d499-0">Cantons de : Courbevoie Sud (partie non comprise dans la 3e circonscription), Neuilly-sur-Seine Nord, Neuilly-sur-seine Sud, Puteau</desc>
    </path><path class="circo" id="id-092-07" d="M39.036499999999705 323.9972499999999L40.40200000000027 314.98504999999966L63.84900000000016 301.7556000000002L69.12950000000023 284.47374999999965L26.32849999999962 295.4663499999998L8.541000000000167 264.64495L14.846000000000004 247.75620000000004L8.491999999999962 229.28074999999978L23.406999999999698 201.4146999999997L44.166999999999916 157.91404999999997L116.42799999999966 219.66769999999997L123.0544999999995 235.93345L103.10249999999996 251.56819999999982L108.53349999999978 258.5599500000001L150.1355000000001 262.05420000000004L147.4019999999996 278.8984499999998L147.06999999999994 331.39999999999986L136.12550000000056 354.74580000000003L100.75649999999996 346.72140000000013L65.69899999999961 344.33224999999993L77.7679999999998 324.0287000000001L39.036499999999705 323.9972499999999z">
      <title id="t500-4">Septième circonscription des Hauts-de-Seine</title>
      <desc id="d500-5">Cantons de : Garches, Rueil-Malmaison, Saint-Cloud</desc>
    </path><path class="circo" id="id-092-08" d="M69.7339999999997 439.7467999999998L106.78499999999985 436.38800000000003L119.03950000000009 450.26194999999973L120.7084999999995 468.8400999999999L147.36200000000053 476.20385L151.92350000000033 484.40094999999985L167.60200000000054 472.15215L171.49049999999988 442.5797L202.06800000000044 404.1629999999998L194.91300000000024 404.79179999999985L194.2999999999995 398.08310000000006L184.80750000000057 400.90120000000013L182.74049999999988 398.87519999999995L189.65450000000033 392.06275000000005L179.2610000000002 388.1259L183.3400000000006 383.159L175.02950000000055 376.4545499999997L166.48199999999974 376.93190000000016L161.33400000000051 366.9072L150.3920000000005 351.05549999999994L147.06999999999994 331.39999999999986L136.12550000000056 354.74580000000003L100.75649999999996 346.72140000000013L65.69899999999961 344.33224999999993L77.7679999999998 324.0287000000001L39.036499999999705 323.9972499999999L40.40200000000027 314.98504999999966L63.84900000000016 301.7556000000002L69.12950000000023 284.47374999999965L26.32849999999962 295.4663499999998L7.826000000000022 298.49379999999996L0 326.3952499999999L4.898000000000593 350.42494999999974L10.524000000000342 370.66764999999975L9.165000000000418 377.9822999999999L28.97550000000024 395.31859999999995L58.06799999999953 391.80180000000007L75.36849999999959 432.31524999999976L69.7339999999997 439.7467999999998z">
      <title id="t501-7">Huitième circonscription des Hauts-de-Seine</title>
      <desc id="d501-3">Cantons de: Chaville, Meudon, Sèvres</desc>
    </path><path class="circo" id="id-092-09" d="M147.06999999999994 331.39999999999986L150.3920000000005 351.05549999999994L167.25649999999973 345.14470000000017L195.10099999999966 361.03245000000015L219.96849999999995 334.88954999999976L205.6295 331.9971499999997L197.74149999999963 310.63544999999976L200.3200000000004 301.85474999999997L197.07949999999983 301.7321499999997L192.23500000000058 299.47135000000003L180.90550000000007 295.2567499999998L175.87499999999977 288.61980000000017L147.4019999999996 278.8984499999998L147.06999999999994 331.39999999999986z">
      <title id="t502-1">Neuvième circonscription des Hauts-de-Seine</title>
      <desc id="d502-7">Cantons de : Boulogne-Billancourt Nord-Est, Boulogne-Billancourt Nord-Ouest, Boulogne-Billancourt Sud (partie située au nord d'une ligne définie par l'axe des voies ci-après : rue Yves-Kermen, avenue Pierre-Grenier, boulevard de la République jusqu'au pont d'Issy)</desc>
    </path><path class="circo" id="id-092-10" d="M199.40150000000017 385.01919999999984L238.34500000000048 390.69320000000005L248.9065000000005 391.1104L274.07050000000027 380.4737L292.44249999999965 360.03514999999993L270.0139999999999 350.8280000000002L250.55500000000052 338.19435L239.4074999999998 352.13070000000016L229.05399999999986 352.3252500000001L228.56049999999982 342.3307999999997L234.04449999999997 338.62525000000005L229.52099999999973 332.6591000000002L219.96849999999995 334.88954999999976L195.10099999999966 361.03245000000015L167.25649999999973 345.14470000000017L150.3920000000005 351.05549999999994L161.33400000000051 366.9072L166.48199999999974 376.93190000000016L175.02950000000055 376.4545499999997L183.3400000000006 383.159L179.2610000000002 388.1259L189.65450000000033 392.06275000000005L182.74049999999988 398.87519999999995L184.80750000000057 400.90120000000013L194.2999999999995 398.08310000000006L194.91300000000024 404.79179999999985L202.06800000000044 404.1629999999998L199.40150000000017 385.01919999999984z">
      <title id="t503-9">Dixième circonscription des Hauts-de-Seine</title>
      <desc id="d503-5">Cantons de : Boulogne-Billancourt Sud (partie non comprise dans la 9 circonscription), Issy-les-Moulineaux Est, Issy-les-Moulineaux Ouest, Vanves</desc>
    </path><path class="circo" id="id-092-11" d="M275.32550000000015 443.3308499999998L296.5764999999999 416.4231000000001L294.9985000000004 400.07214999999974L290.25150000000053 399.39509999999984L252.16850000000022 400.6378000000001L248.9065000000005 391.1104L274.07050000000027 380.4737L292.44249999999965 360.03514999999993L316.57299999999964 368.14745000000016L351.44649999999956 379.4824L349.9860000000001 383.2278500000001L344.6320000000003 392.4473999999998L339.02150000000006 403.6302999999998L325.81999999999994 403.3488L324.2685000000006 413.6760499999997L332.6985000000002 417.2249499999998L338.6895000000004 413.42859999999973L334.99149999999986 427.39419999999996L325.1049999999998 466.1331000000001L317.8279999999995 462.75509999999997L308.2024999999999 474.93614999999977L296.18299999999977 473.5256499999997L284.32000000000016 446.9235500000002L275.32550000000015 443.3308499999998z">
      <title id="t504-1">Onzième circonscription des Hauts-de-Seine</title>
      <desc id="d504-8">Cantons de : Bagneux, Malakoff, Montrouge</desc>
    </path><path class="circo" id="id-092-12" d="M252.16850000000022 400.6378000000001L248.9065000000005 391.1104L238.34500000000048 390.69320000000005L199.40150000000017 385.01919999999984L202.06800000000044 404.1629999999998L171.49049999999988 442.5797L167.60200000000054 472.15215L151.92350000000033 484.40094999999985L151.79300000000012 500.0655999999998L156.08900000000062 504.72174999999993L172.29600000000005 499.50609999999983L176.85550000000035 507.7046999999999L214.18350000000032 508.01589999999976L251.5510000000006 481.83695L256.0659999999996 479.8955000000001L296.18299999999977 473.5256499999997L284.32000000000016 446.9235500000002L275.32550000000015 443.3308499999998L296.5764999999999 416.4231000000001L294.9985000000004 400.07214999999974L290.25150000000053 399.39509999999984L252.16850000000022 400.6378000000001z">
      <title id="t505-2">Douzième circonscription des Hauts-de-Seine</title>
      <desc id="d505-9">Cantons de : Châtillon, Clamart, Fontenay-aux-Roses, Le Plessis-Robinson</desc>
    </path><path class="circo" id="id-092-13" d="M293.9099999999996 604.7933L258.81700000000023 619.8374000000001L249.3425000000002 618.6650500000002L242.01649999999972 601.0306500000002L259.27549999999997 580.0358999999997L245.08000000000038 555.55385L232.1810000000005 544.1987499999999L195.97549999999956 542.5633999999997L163.6469999999997 528.9355499999999L156.08900000000062 504.72174999999993L172.29600000000005 499.50609999999983L176.85550000000035 507.7046999999999L214.18350000000032 508.01589999999976L251.5510000000006 481.83695L256.0659999999996 479.8955000000001L296.18299999999977 473.5256499999997L308.2024999999999 474.93614999999977L317.8279999999995 462.75509999999997L325.1049999999998 466.1331000000001L338.5170000000005 483.4815500000002L327.4490000000003 515.4405500000001L319.84199999999987 526.7006499999997L308.41949999999997 561.4522499999998L328.9340000000004 578.1099999999998L315.31150000000025 630.1341000000002L297.17449999999985 633.0631L293.9099999999996 604.7933z">
      <title id="t506-2">Treizième circonscription des Hauts-de-Seine</title>
      <desc id="d506-1">Cantons de : Antony, Bourg-la-Reine, Châtenay-Malabry, Sceaux</desc>
    </path></svg>