<svg xmlns="http://www.w3.org/2000/svg" version="1.1" xmlns:xlink="http://www.w3.org/1999/xlink" xmlns:svgjs="http://svgjs.dev/svgjs" width="590.9780000000001" height="586.6819499999997" fill="#eeeeee" stroke="#cccccc" xmlns:sodipodi="http://sodipodi.sourceforge.net/DTD/sodipodi-0.dtd"><path class="circo" id="id-093-01" d="M0 153.13484999999986L7.181999999999107 174.89135000000005L4.727500000000191 176.09735L43.66449999999986 184.74279999999993L87.38200000000006 203.09494999999998L89.39399999999978 231.63939999999997L75.22949999999923 256.86555L63.134000000000015 268.5809499999999L58.992999999999256 276.4163500000001L47.59050000000002 281.8955999999997L59.11499999999933 320.71595L78.1129999999996 318.70104999999967L119.29449999999974 317.65949999999975L145.59599999999932 317.4218000000002L146.95049999999924 262.2194999999999L142.6170000000002 245.34735000000012L126.8369999999993 244.18979999999976L119.82300000000009 239.93734999999987L109.17100000000005 218.49469999999997L96.74399999999991 202.5421L99.83349999999973 198.53819999999985L96.7879999999991 194.21155L100.53499999999985 187.9654499999998L107.86299999999983 188.8075999999998L84.37849999999912 163.44904999999983L75.02549999999928 151.18634999999983L59.56399999999917 154.7965499999998L46.49749999999926 143.8570999999999L19.10449999999969 132.0139499999999L0 153.13484999999986z">
      <title id="t507-9">Première circonscription de Seine-Saint-Denis</title>
      <desc id="d507-3">Cantons de : Epinay-sur-Seine, Saint-Denis Sud, Saint Ouen</desc>
    </path><path class="circo" id="id-093-02" d="M96.74399999999991 202.5421L99.83349999999973 198.53819999999985L96.7879999999991 194.21155L100.53499999999985 187.9654499999998L107.86299999999983 188.8075999999998L84.37849999999912 163.44904999999983L103.92799999999966 129.55510000000004L122.28849999999966 134.0943999999999L146.16499999999974 109.44254999999998L164.56299999999942 115.76504999999997L159.49499999999944 144.30679999999995L146.9214999999997 158.99100000000004L156.18200000000002 186.50739999999985L182.23349999999982 193.71999999999986L207.0234999999991 184.33314999999993L186.3964999999996 204.1975499999998L162.31699999999933 254.24289999999985L146.95049999999924 262.2194999999999L142.6170000000002 245.34735000000012L126.8369999999993 244.18979999999976L119.82300000000009 239.93734999999987L96.74399999999991 202.5421z">
      <title id="t508-9">Deuxième circonscription de Seine-Saint-Denis</title>
      <desc id="d508-5">Cantons de : Pierrefitte-sur-Seine, Saint-Denis Nord-Est, Saint-Denis Nord-Ouest</desc>
    </path><path class="circo" id="id-093-03" d="M405.3779999999995 444.3679500000002L397.4324999999999 448.81429999999966L391.17599999999925 436.7189000000002L415.13849999999934 385.2013499999998L436.41149999999925 394.7694999999999L454.11299999999983 395.58749999999975L490.9209999999996 400.46429999999987L523.6539999999991 420.0870500000002L525.8274999999992 419.45785L562.2589999999991 422.14335000000005L553.2094999999993 447.3159499999997L536.8694999999991 455.376L560.2829999999994 510.0608999999997L578.1809999999996 567.1733999999998L571.5679999999998 586.6819499999997L529.7979999999995 564.7592500000002L526.8279999999993 555.7023499999997L527.1424999999999 538.1756999999999L466.9184999999993 497.8822500000001L467.86149999999907 488.0323499999997L427.4039999999991 461.10005L423.68150000000014 464.5679000000001L405.3779999999995 444.3679500000002z">
      <title id="t509-4">Troisième circonscription de Seine-Saint-Denis</title>
      <desc id="d509-5">Cantons de : Neuilly-sur-Marne, Neuilly-Plaisance, Noisy-le-Grand</desc>
    </path><path class="circo" id="id-093-04" d="M331.1779999999999 262.83214999999984L326.77149999999983 233.87004999999988L315.3890000000001 217.62135L307.8710000000001 211.13155000000006L289.30849999999964 215.48495000000003L271.99250000000006 211.02554999999995L275.7414999999992 192.94095L242.85349999999994 208.5854999999998L237.7209999999991 226.52199999999993L251.27899999999954 237.21180000000004L235.22199999999998 266.88895L228.75499999999988 274.2493999999999L224.0319999999997 270.7596000000001L207.51699999999914 259.6829500000001L178.55500000000006 265.70089999999993L162.31699999999933 254.24289999999985L186.3964999999996 204.1975499999998L207.0234999999991 184.33314999999993L182.23349999999982 193.71999999999986L156.18200000000002 186.50739999999985L146.9214999999997 158.99100000000004L159.49499999999944 144.30679999999995L164.56299999999942 115.76504999999997L176.81349999999952 117.85695000000004L223.72649999999908 161.30314999999996L245.29649999999947 156.65895000000006L299.2324999999994 162.24864999999994L315.2139999999997 162.3174499999999L321.7520000000002 164.38590000000005L339.4599999999991 173.1780999999998L362.99049999999966 216.47580000000005L359.2039999999997 265.42599999999993L349.5499999999993 269.2739L331.1779999999999 262.83214999999984z">
      <title id="t510-1">Quatrième circonscription de Seine-Saint-Denis</title>
      <desc id="d510-9">Cantons de : Le Blanc-Mesnil, La Courneuve, Stains, commune de Dugny</desc>
    </path><path class="circo" id="id-093-05" d="M237.08999999999946 308.01170000000013L228.75499999999988 274.2493999999999L235.22199999999998 266.88895L251.27899999999954 237.21180000000004L237.7209999999991 226.52199999999993L242.85349999999994 208.5854999999998L275.7414999999992 192.94095L271.99250000000006 211.02554999999995L289.30849999999964 215.48495000000003L307.8710000000001 211.13155000000006L315.3890000000001 217.62135L326.77149999999983 233.87004999999988L331.1779999999999 262.83214999999984L349.5499999999993 269.2739L351.3339999999994 275.0565499999999L341.2635 308.3808499999998L287.5004999999999 326.9488000000001L261.9909999999993 333.79669999999976L237.08999999999946 308.01170000000013z">
      <title id="t511-5">Cinquième circonscription de Seine-Saint-Denis</title>
      <desc id="d511-9">Cantons de : Bobigny, Le Bourget (moins la commune de Dugny), Drancy</desc>
    </path><path class="circo" id="id-093-06" d="M145.59599999999932 317.4218000000002L146.95049999999924 262.2194999999999L162.31699999999933 254.24289999999985L178.55500000000006 265.70089999999993L207.51699999999914 259.6829500000001L224.0319999999997 270.7596000000001L228.75499999999988 274.2493999999999L237.08999999999946 308.01170000000013L261.9909999999993 333.79669999999976L255.77850000000012 347.22534999999993L231.1099999999999 369.99685L223.81549999999947 354.95074999999986L207.29799999999955 352.32124999999996L203.24999999999932 332.92399999999986L200.3264999999999 325.8211499999999L192.0754999999997 318.7182999999999L181.07799999999997 315.42640000000006L153.93550000000005 317.30165L145.59599999999932 317.4218000000002z">
      <title id="t512-9">Sixième circonscription de Seine-Saint-Denis</title>
      <desc id="d512-2">Cantons de : Aubervilliers Est, Aubervilliers Ouest, Pantin Est, Pantin Ouest</desc>
    </path><path class="circo" id="id-093-07" d="M234.81249999999932 398.9369499999998L247.6184999999998 385.9020499999997L265.73999999999955 384.1514000000001L278.7734999999998 387.8645L276.3589999999999 394.7496000000001L290.06099999999947 402.4980499999998L307.0339999999999 383.5737499999999L331.6694999999993 384.7664500000002L344.6034999999995 408.5528999999997L361.4945 415.1281499999999L363.2229999999993 432.4239499999999L311.97850000000017 449.5375999999999L298.4489999999994 461.74319999999966L279.9045000000001 457.06579999999974L264.7064999999998 468.2845500000002L245.51999999999907 466.95794999999976L240.5759999999998 467.22665000000006L238.65499999999997 450.2438000000001L234.81249999999932 398.9369499999998z">
      <title id="t513-3">Septième circonscription de Seine-Saint-Denis</title>
      <desc id="d513-3">Cantons de : Bagnolet, Montreuil Est, Montreuil Nord, Montreuil Ouest</desc>
    </path><path class="circo" id="id-093-08" d="M490.9209999999996 400.46429999999987L454.11299999999983 395.58749999999975L436.41149999999925 394.7694999999999L415.13849999999934 385.2013499999998L391.17599999999925 436.7189000000002L363.2229999999993 432.4239499999999L361.4945 415.1281499999999L344.6034999999995 408.5528999999997L331.6694999999993 384.7664500000002L354.01599999999917 354.4643000000002L373.134 359.1251L389.3719999999996 350.81050000000005L397.68299999999954 334.21164999999974L412.3365000000001 326.27065000000016L419.9365 351.9551999999999L428.42649999999935 355.8148L432.19799999999964 347.27404999999976L455.6245000000001 343.3254499999998L458.37549999999965 335.6653L469.57899999999995 325.0744500000002L485.5914999999993 325.1859999999999L491.7750000000001 361.12494999999967L509.7219999999993 363.9830999999998L530.6059999999991 383.11030000000017L525.8274999999992 419.45785L523.6539999999991 420.0870500000002L490.9209999999996 400.46429999999987z">
      <title id="t514-5">Huitième circonscription de Seine-Saint-Denis</title>
      <desc id="d514-7">Cantons de : Gagny, Rosny-sous-Bois, Villemomble</desc>
    </path><path class="circo" id="id-093-09" d="M276.3589999999999 394.7496000000001L278.7734999999998 387.8645L265.73999999999955 384.1514000000001L247.6184999999998 385.9020499999997L234.81249999999932 398.9369499999998L229.95249999999942 383.6164500000001L210.47199999999975 368.53189999999984L207.29799999999955 352.32124999999996L223.81549999999947 354.95074999999986L231.1099999999999 369.99685L255.77850000000012 347.22534999999993L261.9909999999993 333.79669999999976L287.5004999999999 326.9488000000001L341.2635 308.3808499999998L351.3339999999994 275.0565499999999L349.5499999999993 269.2739L359.2039999999997 265.42599999999993L382.4114999999995 273.7198000000001L381.40699999999924 292.85320000000013L360.317 302.26065000000006L359.5489999999995 312.48085000000003L364.47349999999915 314.8363499999999L360.1114999999993 332.1420999999998L355.26200000000017 330.90689999999995L353.3145000000002 336.83299999999974L358.4624999999994 340.9345000000002L356.0235 345.80510000000004L354.01599999999917 354.4643000000002L331.6694999999993 384.7664500000002L307.0339999999999 383.5737499999999L290.06099999999947 402.4980499999998L276.3589999999999 394.7496000000001z">
      <title id="t515-8">Neuvième circonscription de Seine-Saint-Denis</title>
      <desc id="d515-1">Cantons de : Bondy Nord-Ouest, Les Lilas, Noisy-le-Sec, Romainville</desc>
    </path><path class="circo" id="id-093-10" d="M359.2039999999997 265.42599999999993L382.4114999999995 273.7198000000001L381.40699999999924 292.85320000000013L360.317 302.26065000000006L359.5489999999995 312.48085000000003L364.47349999999915 314.8363499999999L360.1114999999993 332.1420999999998L355.26200000000017 330.90689999999995L353.3145000000002 336.83299999999974L358.4624999999994 340.9345000000002L356.0235 345.80510000000004L354.01599999999917 354.4643000000002L373.134 359.1251L389.3719999999996 350.81050000000005L397.68299999999954 334.21164999999974L412.3365000000001 326.27065000000016L418.5134999999991 316.8895500000002L433.3044999999993 293.2225999999997L415.7359999999994 286.9450499999999L411.69449999999983 268.6152499999997L431.0050000000001 248.5680000000002L413.3369999999991 214.60849999999994L421.0055 196.2464L443.3879999999999 177.22894999999994L390.4544999999996 113.75875000000008L381.27200000000016 112.27125000000001L335.0774999999999 140.30665L321.7520000000002 164.38590000000005L339.4599999999991 173.1780999999998L362.99049999999966 216.47580000000005L359.2039999999997 265.42599999999993z">
      <title id="t516-5">Dixième circonscription de Seine-Saint-Denis</title>
      <desc id="d516-3">Cantons de : Aulnay-sous-Bois Nord, Aulnay-sous-Bois Sud, Bondy Sud-Est, Les Pavillons-sous-Bois</desc>
    </path><path class="circo" id="id-093-11" d="M413.3369999999991 214.60849999999994L421.0055 196.2464L443.3879999999999 177.22894999999994L390.4544999999996 113.75875000000008L398.94199999999955 106.41024999999985L401.50300000000016 97.09219999999988L419.7064999999998 90.04379999999998L459.6879999999999 22.869799999999998L487.69199999999955 23.067649999999844L497.78599999999983 7.408499999999947L521.7354999999998 0L532.527 31.17175000000003L540.6449999999995 34.739199999999926L548.4069999999997 73.06179999999983L540.6385 91.17320000000007L521.8304999999998 96.6364999999999L522.758 106.50184999999993L570.8619999999996 180.73819999999984L578.4444999999994 211.4781499999998L538.6045000000001 214.78025000000002L527.8059999999994 198.25154999999995L523.3600000000001 216.45854999999983L505.27999999999906 220.9635L505.65399999999954 223.15149999999988L486.1889999999994 223.41485000000006L466.6395 243.92380000000003L431.0050000000001 248.5680000000002L413.3369999999991 214.60849999999994z">
      <title id="t517-0">Onzième circonscription de Seine-Saint-Denis</title>
      <desc id="d517-5">Cantons de : Sevran, Tremblay-en-France, Villepinte</desc>
    </path><path class="circo" id="id-093-12" d="M418.5134999999991 316.8895500000002L412.3365000000001 326.27065000000016L419.9365 351.9551999999999L428.42649999999935 355.8148L432.19799999999964 347.27404999999976L455.6245000000001 343.3254499999998L458.37549999999965 335.6653L469.57899999999995 325.0744500000002L485.5914999999993 325.1859999999999L491.7750000000001 361.12494999999967L509.7219999999993 363.9830999999998L523.039 349.93785L559.7559999999999 335.8713499999999L558.7334999999996 316.90969999999993L569.9455 301.5604000000002L571.7340000000002 299.9833000000001L565.4885000000002 293.47735L571.6854999999998 250.39764999999989L590.9780000000001 237.9908499999999L590.6124999999997 220.92060000000004L578.4444999999994 211.4781499999998L538.6045000000001 214.78025000000002L527.8059999999994 198.25154999999995L523.3600000000001 216.45854999999983L505.27999999999906 220.9635L505.65399999999954 223.15149999999988L486.1889999999994 223.41485000000006L466.6395 243.92380000000003L431.0050000000001 248.5680000000002L411.69449999999983 268.6152499999997L415.7359999999994 286.9450499999999L433.3044999999993 293.2225999999997L418.5134999999991 316.8895500000002z">
      <title id="t518-1">Douzième circonscription de Seine-Saint-Denis</title>
      <desc id="d518-4">Cantons de : Livry-Gargan, Montfermeil, Le Raincy</desc>
    </path></svg>