<svg xmlns="http://www.w3.org/2000/svg" version="1.1" xmlns:xlink="http://www.w3.org/1999/xlink" xmlns:svgjs="http://svgjs.dev/svgjs" width="573.7964999999997" height="492.10555" fill="#eeeeee" stroke="#cccccc" xmlns:sodipodi="http://sodipodi.sourceforge.net/DTD/sodipodi-0.dtd"><path class="circo" id="id-094-01" d="M305.6949999999995 240.7128499999999L309.6944999999994 247.97064999999975L304.36699999999973 252.7299499999998L315.6499999999994 274.0420499999999L307.5585000000001 283.7283500000001L328.81650000000036 298.11710000000005L345.41349999999966 292.00154999999995L357.72749999999974 280.86005L349.5545000000004 275.21479999999997L356.5390000000002 246.6223500000001L381.8074999999999 217.65300000000025L390.13149999999996 213.82679999999993L401.4099999999996 190.43695000000014L399.71450000000004 163.88705000000016L387.1524999999997 149.55319999999972L376.5134999999998 147.25570000000005L378.4590000000003 136.41849999999977L368.7760000000003 131.48435000000006L370.9579999999994 124.49614999999994L368.41499999999996 124.63514999999973L360.2814999999998 119.2953L350.96649999999954 107.98670000000016L324.6090000000004 120.19565L320.5150000000003 136.87504999999987L312.9830000000004 132.8895L283.7310000000002 148.73629999999991L289.86599999999953 154.39504999999997L276.28799999999956 159.84640000000013L283.2775000000004 167.9079999999999L270.38350000000037 177.83270000000016L267.568 177.82960000000003L261.8825000000004 194.17725000000019L271.55399999999986 199.28290000000004L269.8900000000003 202.84510000000012L274.8474999999996 211.25130000000013L273.6590000000001 213.6271499999998L279.57700000000045 217.81945000000007L280.8915000000002 225.34215000000017L290.22249999999985 224.07420000000002L293.42300000000023 218.83219999999994L298.81849999999986 225.45545000000004L302.9684999999995 224.95240000000024L305.42299999999955 231.4328999999998L309.68549999999937 238.1457499999999L305.6949999999995 240.7128499999999z">
      <title id="t519-7">Première circonscription du Val-de-Marne</title>
      <desc id="d519-8">Cantons de : Bonneuil-sur-Marne, Champigny-sur-Marne Ouest, Créteil Nord, Saint-Maur-des-Fossés Centre, Saint-Maur-des-Fossés Ouest, Saint-Maur-la-Varenne</desc>
    </path><path class="circo" id="id-094-02" d="M171.3620000000003 279.1592000000003L172.58399999999938 251.06404999999995L192.32999999999947 248.75765L197.8234999999995 240.45039999999972L222.39900000000034 243.94169999999974L231.26949999999965 213.39564999999993L262.9449999999997 165.4493500000001L276.28799999999956 159.84640000000013L283.2775000000004 167.9079999999999L270.38350000000037 177.83270000000016L267.568 177.82960000000003L261.8825000000004 194.17725000000019L271.55399999999986 199.28290000000004L269.8900000000003 202.84510000000012L274.8474999999996 211.25130000000013L273.6590000000001 213.6271499999998L279.57700000000045 217.81945000000007L280.8915000000002 225.34215000000017L290.22249999999985 224.07420000000002L293.42300000000023 218.83219999999994L298.81849999999986 225.45545000000004L302.9684999999995 224.95240000000024L305.42299999999955 231.4328999999998L309.68549999999937 238.1457499999999L305.6949999999995 240.7128499999999L309.6944999999994 247.97064999999975L304.36699999999973 252.7299499999998L315.6499999999994 274.0420499999999L307.5585000000001 283.7283500000001L298.4669999999994 283.0718999999999L295.1845000000003 274.4954999999999L252.27700000000027 258.6943000000002L237.22300000000018 268.96979999999985L251.65300000000002 282.8293500000001L224.62949999999978 286.92470000000014L221.26999999999953 314.3877500000002L239.0485000000001 331.58079999999984L192.56250000000023 338.8215500000001L149.81899999999996 356.5195L140.86850000000027 373.39099999999974L114.04899999999998 381.3769500000001L112.9200000000003 329.4840499999998L154.75850000000037 313.29484999999977L181.64250000000038 315.2438000000001L171.3620000000003 279.1592000000003z">
      <title id="t520-5">Deuxième circonscription du Val-de-Marne</title>
      <desc id="d520-2">Cantons de : Choisy-le-Roi, Créteil Ouest, Créteil Sud, Orly</desc>
    </path><path class="circo" id="id-094-03" d="M345.41349999999966 292.00154999999995L328.81650000000036 298.11710000000005L307.5585000000001 283.7283500000001L298.4669999999994 283.0718999999999L295.1845000000003 274.4954999999999L252.27700000000027 258.6943000000002L237.22300000000018 268.96979999999985L251.65300000000002 282.8293500000001L224.62949999999978 286.92470000000014L221.26999999999953 314.3877500000002L239.0485000000001 331.58079999999984L192.56250000000023 338.8215500000001L149.81899999999996 356.5195L140.86850000000027 373.39099999999974L114.04899999999998 381.3769500000001L114.55799999999954 403.3040999999997L144.42750000000046 403.5293999999999L190.38450000000012 386.55894999999987L196.4930000000004 410.0337999999999L235.74449999999956 392.12559999999996L245.15700000000038 388.3127000000002L250.26550000000043 401.84709999999995L265.90149999999994 418.40525000000014L263.4469999999999 399.90504999999985L287.7369999999996 383.9378499999998L306.9589999999994 382.2181499999999L311.4850000000001 382.13540000000023L328.72150000000033 377.91724999999985L376.71050000000037 361.9876499999998L397.9679999999996 425.77544999999986L413.44100000000026 443.19759999999974L408.35050000000024 447.3312499999997L416.25800000000027 461.43579999999986L441.15249999999946 465.23810000000026L449.9699999999996 492.10555L492.6049999999998 483.5617000000002L503.9255000000003 463.6333000000002L497.65800000000013 457.9752000000002L487.2334999999998 440.23570000000007L485.97849999999994 435.2438000000001L509.06049999999937 395.2911499999999L535.9109999999998 370.1396L522.8885000000002 335.1328000000001L545.0760000000002 316.1083000000002L541.3 288.07489999999973L525.0329999999997 280.02099999999984L511.9505000000004 303.5762L502.86550000000034 303.70169999999973L489.54399999999964 315.0897500000002L464.3624999999997 305.2739500000001L408.70450000000005 301.07925000000023L357.72749999999974 280.86005L345.41349999999966 292.00154999999995z">
      <title id="t521-8">Troisième circonscription du Val-de-Marne</title>
      <desc id="d521-9">Cantons de : Boissy-Saint-Léger, Valenton, Villecresnes, Villeneuve-le-Roi, Villeneuve-Saint-Georges</desc>
    </path><path class="circo" id="id-094-04" d="M390.13149999999996 213.82679999999993L381.8074999999999 217.65300000000025L356.5390000000002 246.6223500000001L349.5545000000004 275.21479999999997L357.72749999999974 280.86005L408.70450000000005 301.07925000000023L464.3624999999997 305.2739500000001L489.54399999999964 315.0897500000002L502.86550000000034 303.70169999999973L511.9505000000004 303.5762L525.0329999999997 280.02099999999984L541.3 288.07489999999973L573.7964999999997 286.4994999999999L558.0364999999995 251.71785L529.0719999999999 254.50955000000022L521.7174999999997 247.9755L543.6950000000002 194.44639999999993L530.0104999999996 183.01165000000026L539.3325000000004 158.1484499999999L531.3980000000004 154.25805000000025L489.62850000000003 132.33535000000018L486.6579999999999 123.27845000000025L486.9724999999994 105.75179999999989L426.7489999999998 65.45835000000011L422.94650000000047 81.00660000000005L404.74500000000035 97.2305L418.38949999999954 120.94704999999976L465.79650000000015 122.05849999999998L477.9714999999999 137.04925000000003L467.8679999999997 153.80389999999977L453.37350000000015 163.44420000000014L416.712 157.59445000000028L399.71450000000004 163.88705000000016L401.4099999999996 190.43695000000014L390.13149999999996 213.82679999999993z">
      <title id="t522-6">Quatrième circonscription du Val-de-Marne</title>
      <desc id="d522-8">Cantons de : Chennevières-sur-Marne, Ormesson-sur-Marne, Sucy-en-Brie, Villiers-sur-Marne</desc>
    </path><path class="circo" id="id-094-05" d="M399.71450000000004 163.88705000000016L387.1524999999997 149.55319999999972L376.5134999999998 147.25570000000005L378.4590000000003 136.41849999999977L368.7760000000003 131.48435000000006L370.9579999999994 124.49614999999994L368.41499999999996 124.63514999999973L360.2814999999998 119.2953L350.96649999999954 107.98670000000016L327.74099999999976 118.56029999999976L324.6090000000004 120.19565L312.27700000000027 88.0257499999999L293.3695 100.41110000000003L289.1909999999996 104.30324999999982L289.01200000000017 100.08820000000014L291.17200000000025 87.14515000000006L298.98450000000025 77.1087L296.2004999999999 63.81770000000017L341.84549999999945 39.3741L357.2630000000004 16.390400000000227L365.20849999999996 11.944050000000175L383.5114999999996 32.14400000000012L387.2339999999997 28.676150000000007L427.6914999999997 55.60844999999972L426.7489999999998 65.45835000000011L422.94650000000047 81.00660000000005L404.74500000000035 97.2305L418.38949999999954 120.94704999999976L465.79650000000015 122.05849999999998L477.9714999999999 137.04925000000003L467.8679999999997 153.80389999999977L453.37350000000015 163.44420000000014L416.712 157.59445000000028L399.71450000000004 163.88705000000016z">
      <title id="t523-2">Cinquième circonscription du Val-de-Marne</title>
      <desc id="d523-3">Cantons de : Bry-sur-Marne, Champigny-sur-Marne Centre, Champigny-sur-Marne Est, Nogent-sur-Marne, Le Perreux-sur-Marne</desc>
    </path><path class="circo" id="id-094-06" d="M257.0309999999995 48.12315000000012L259.6889999999996 47.46140000000025L296.2004999999999 63.81770000000017L341.84549999999945 39.3741L357.2630000000004 16.390400000000227L351.00599999999986 4.2950000000001864L323.05349999999976 0L271.80849999999964 17.113650000000007L258.27949999999987 29.319300000000226L239.73499999999945 24.641899999999737L224.5365000000004 35.86065000000019L205.35049999999956 34.53404999999975L200.4060000000004 34.80275000000006L199.7180000000003 42.26434999999981L196.40449999999987 61.91590000000019L190.34700000000043 77.85365000000013L196.13249999999994 79.54585000000009L210.317 73.81034999999997L208.34699999999998 60.55074999999988L206.0564999999997 55.364999999999895L208.0129999999997 51.030000000000086L210.92750000000024 48.94315000000006L215.37649999999985 56.1409500000002L221.43149999999991 56.70599999999979L239.42949999999996 59.10775000000001L240.9209999999996 48.84419999999977L245.86299999999937 48.879400000000146L246.47849999999949 43.97229999999979L257.2014999999999 44.34435000000008L257.0309999999995 48.12315000000012z">
      <title id="t524-3">Sixième circonscription du Val-de-Marne</title>
      <desc id="d524-0">Cantons de : Fontenay-sous-Bois Est, Fontenay-sous-Bois Ouest, Saint-Mandé, Vincennes Est, Vincennes Ouest</desc>
    </path><path class="circo" id="id-094-07" d="M11.4224999999999 270.3741000000002L0 305.12564999999995L20.51399999999944 321.7833999999999L26.403500000000122 316.4449000000002L39.38649999999939 323.64935L57.62100000000032 343.89380000000017L83.02850000000035 350.58629999999994L112.9200000000003 329.4840499999998L154.75850000000037 313.29484999999977L181.64250000000038 315.2438000000001L171.3620000000003 279.1592000000003L172.58399999999938 251.06404999999995L117.45499999999993 262.405L109.24849999999992 257.30975L108.09300000000007 234.38949999999977L90.02449999999953 235.28300000000002L61.06449999999995 213.28145000000006L57.24450000000047 222.04709999999977L30.0974999999994 227.15494999999976L19.02900000000045 259.1139500000003L11.4224999999999 270.3741000000002z">
      <title id="t525-4">Septième circonscription du Val-de-Marne</title>
      <desc id="d525-1">Cantons de : Chevilly-Larue, Fresnes, L'Hay-les-Roses, Thiais</desc>
    </path><path class="circo" id="id-094-08" d="M150.98299999999995 102.08849999999984L175.86599999999976 91.95224999999994L187.0449999999994 104.00914999999998L207.26499999999987 106.70039999999972L224.58999999999946 110.38959999999975L238.36950000000002 125.96794999999986L261.95100000000025 127.75554999999997L278.4259999999995 130.10265000000004L285.05049999999983 124.05304999999998L289.69349999999963 110.61734999999999L289.1909999999996 104.30324999999982L293.3695 100.41110000000003L312.27700000000027 88.0257499999999L324.6090000000004 120.19565L320.5150000000003 136.87504999999987L312.9830000000004 132.8895L283.7310000000002 148.73629999999991L289.86599999999953 154.39504999999997L262.9449999999997 165.4493500000001L231.26949999999965 213.39564999999993L215.53099999999972 154.63784999999973L199.58499999999958 128.83269999999982L186.14850000000047 127.15840000000014L150.98299999999995 102.08849999999984z">
      <title id="t526-6">Huitième circonscription du Val-de-Marne</title>
      <desc id="d526-8">Cantons de : Charenton-le-Pont, Joinville-le-Pont, Maisons-Alfort Nord, Maisons-Alfort Sud</desc>
    </path><path class="circo" id="id-094-09" d="M192.32999999999947 248.75765L172.58399999999938 251.06404999999995L117.45499999999993 262.405L109.24849999999992 257.30975L108.09300000000007 234.38949999999977L123.95750000000021 210.5889000000002L118.7519999999995 182.57630000000006L127.93699999999944 175.99775000000022L136.08150000000023 184.49580000000026L136.1545000000001 191.70225000000016L141.01 190.1036499999998L149.34049999999957 205.39600000000007L163.6424999999997 195.98324999999988L158.98599999999988 186.8459999999999L169.04949999999985 182.45810000000006L171.41549999999938 177.55740000000003L175.82199999999943 179.7050999999999L179.1459999999995 188.8443000000001L201.80499999999938 185.67985000000022L189.0059999999994 166.0728499999999L186.38100000000009 151.31005000000016L186.14850000000047 127.15840000000014L199.58499999999958 128.83269999999982L215.53099999999972 154.63784999999973L231.26949999999965 213.39564999999993L222.39900000000034 243.94169999999974L197.8234999999995 240.45039999999972L192.32999999999947 248.75765z">
      <title id="t527-9">Neuvième circonscription du Val-de-Marne</title>
      <desc id="d527-8">Cantons de: Alfortville Nord, Alfortville Sud, Vitry-sur-Seine Est, Vitry-sur-Seine Ouest</desc>
    </path><path class="circo" id="id-094-10" d="M71.48450000000025 172.68989999999974L65.99550000000022 159.22540000000026L56.653499999999894 143.8546500000001L70.48649999999952 136.13850000000014L70.2430000000004 134.44759999999974L75.97499999999968 130.9000500000002L73.22850000000017 127.6798500000001L80.99450000000047 123.46434999999985L87.55449999999996 129.90985000000023L102.2014999999999 128.6871000000002L150.98299999999995 102.08849999999984L186.14850000000047 127.15840000000014L186.38100000000009 151.31005000000016L189.0059999999994 166.0728499999999L201.80499999999938 185.67985000000022L179.1459999999995 188.8443000000001L175.82199999999943 179.7050999999999L171.41549999999938 177.55740000000003L169.04949999999985 182.45810000000006L158.98599999999988 186.8459999999999L163.6424999999997 195.98324999999988L149.34049999999957 205.39600000000007L141.01 190.1036499999998L136.1545000000001 191.70225000000016L136.08150000000023 184.49580000000026L127.93699999999944 175.99775000000022L118.7519999999995 182.57630000000006L115.42100000000005 164.11260000000027L108.00250000000005 152.5612000000001L71.48450000000025 172.68989999999974z">
      <title id="t528-8">Dixième circonscription du Val-de-Marne</title>
      <desc id="d528-9">Cantons de : Ivry-sur-Seine Est, Ivry-sur-Seine Ouest, Le Kremlin-Bicêtre, Vitry-sur-Seine Nord</desc>
    </path><path class="circo" id="id-094-11" d="M16.68549999999982 209.80650000000026L30.0974999999994 227.15494999999976L57.24450000000047 222.04709999999977L61.06449999999995 213.28145000000006L90.02449999999953 235.28300000000002L108.09300000000007 234.38949999999977L123.95750000000021 210.5889000000002L115.42100000000005 164.11260000000027L108.00250000000005 152.5612000000001L71.48450000000025 172.68989999999974L65.99550000000022 159.22540000000026L56.653499999999894 143.8546500000001L70.48649999999952 136.13850000000014L70.2430000000004 134.44759999999974L75.97499999999968 130.9000500000002L73.22850000000017 127.6798500000001L69.10750000000007 128.99029999999982L51.419499999999516 127.73604999999975L41.56650000000013 126.90125000000023L36.21250000000032 136.12079999999992L30.60200000000009 147.30369999999994L17.400499999999965 147.0222000000001L15.848999999999478 157.34944999999982L24.279000000000224 160.89834999999994L30.270000000000437 157.10204999999974L26.57199999999989 171.06760000000008L16.68549999999982 209.80650000000026z">
      <title id="t529-4">Onzième circonscription du Val-de-Marne</title>
      <desc id="d529-6">Cantons de : Arcueil, Cachan, Villejuif Est, Villejuif Ouest</desc>
    </path></svg>