<svg xmlns="http://www.w3.org/2000/svg" version="1.1" xmlns:xlink="http://www.w3.org/1999/xlink" xmlns:svgjs="http://svgjs.dev/svgjs" width="728.7974999999994" height="370.9938000000001" fill="#eeeeee" stroke="#cccccc" xmlns:sodipodi="http://sodipodi.sourceforge.net/DTD/sodipodi-0.dtd"><path class="circo" id="id-095-01" d="M522.1509999999989 108.19190000000006L525.9139999999991 127.4851000000001L521.1099999999999 129.61920000000006L513.8689999999997 131.98845000000006L495.87999999999965 126.32920000000013L483.23249999999916 128.0612500000001L463.038499999999 121.07180000000014L450.02849999999967 128.05675000000008L447.0489999999995 125.81175000000002L445.7714999999996 107.3114000000001L435.9934999999996 91.39195000000001L431.67550000000006 92.36080000000001L434.4959999999992 103.6448L429.93549999999914 113.53885000000005L434.96599999999944 136.0305000000001L423.14750000000004 145.86235000000002L436.7439999999999 161.53270000000006L443.759 162.55800000000008L443.211 165.4473L441.59850000000006 170.21410000000003L432.0614999999998 184.86635000000007L428.9229999999998 186.79635000000005L412.0354999999995 195.49760000000006L396.7569999999989 192.6977500000001L389.2864999999995 192.37390000000005L382.8019999999992 196.19045000000014L363.5724999999991 216.24075000000005L360.0804999999991 227.49865000000014L356.2829999999997 241.15055000000012L351.5214999999989 232.43500000000012L352.431499999999 225.5080500000001L342.6514999999995 214.98180000000005L359.35699999999997 188.92505L356.10349999999926 186.7195500000001L351.46349999999984 173.1934000000001L347.8324999999995 172.59625000000014L342.36299999999915 177.37025000000003L333.527499999999 171.4853500000001L322.9559999999992 174.56730000000007L323.31699999999955 164.2076L318.441499999999 155.29160000000005L314.82849999999985 154.62405000000004L309.13549999999987 159.28455000000014L300.9794999999997 180.89770000000001L300.37199999999984 180.80295000000007L297.979499999999 191.81405000000012L287.58899999999926 193.58925000000013L285.36149999999907 196.64190000000005L285.06599999999935 199.69985000000008L277.1589999999992 229.19945000000013L260.37849999999935 228.92200000000003L255.941499999999 240.51010000000005L249.03449999999907 239.69040000000007L243.2639999999992 243.6209000000001L224.53599999999938 221.2512500000001L225.72549999999978 216.48780000000002L221.61499999999933 214.01835000000005L203.08649999999943 231.38950000000008L201.9279999999992 246.1397500000001L192.0659999999998 247.81180000000006L187.00399999999945 252.2536500000001L185.1864999999998 252.42270000000005L187.5419999999997 245.4023500000001L185.22299999999973 234.58670000000012L179.3304999999998 230.5550000000001L189.78099999999927 203.3590000000001L172.01549999999997 195.10490000000004L171.42549999999915 189.9678L158.82549999999924 181.69020000000003L152.7559999999994 181.9847L138.8214999999991 186.70270000000002L140.9375 193.44940000000008L137.15999999999894 202.5388000000001L133.5235 202.91905L119.73449999999957 203.01045000000002L111.37149999999906 196.79990000000004L105.41650000000004 206.06695000000002L105.27499999999918 213.7894L93.78600000000006 213.27275L91.14499999999907 211.31765000000001L84.77949999999964 217.45565000000013L62.75299999999902 204.2526500000001L65.38349999999923 194.38715000000002L58.26149999999984 187.13710000000006L45.861999999999625 179.1640000000001L27.95099999999934 176.4446000000001L8.398499999999558 184.79295000000008L4.071999999999889 187.89350000000013L0 180.3119500000001L10.741499999999178 171.06760000000008L7.868499999999585 168.9450500000001L8.389999999999418 158.76280000000008L13.486999999998943 149.5635L29.071500000000015 127.07835000000003L34.89599999999996 121.02535000000003L32.899999999999636 107.93990000000008L39.84399999999937 96.03045000000009L41.042999999999665 94.39465000000013L38.929999999999154 91.16700000000009L44.75499999999897 77.1087L42.54349999999931 69.77355000000003L46.60299999999893 63.928100000000114L45.65149999999903 53.7324000000001L49.64999999999918 42.90110000000013L47.62549999999919 35.94500000000011L49.90549999999985 28.5184000000001L67.11149999999975 12.75075000000001L70.66249999999968 5.86110000000005L75.42949999999905 0L97.34649999999988 15.781450000000063L93.90099999999961 17.47505000000004L92.55999999999972 28.7436000000001L78.97649999999999 35.25240000000011L78.95799999999895 39.088800000000106L85.82749999999919 41.744600000000105L86.5949999999998 49.08690000000007L96.23499999999922 51.14945000000006L99.00449999999978 65.16335000000012L108.93699999999967 70.73035000000004L123.90949999999975 59.17605000000009L124.3119999999999 59.02795000000012L136.62999999999897 64.62485000000001L139.73049999999944 59.1161000000001L153.94349999999918 69.60950000000011L164.48099999999954 68.35405000000009L168.4654999999998 74.49865000000003L166.56499999999937 81.76655000000011L177.65899999999988 75.6951500000001L196.45549999999957 71.3964L198.13249999999925 70.24395000000013L202.42449999999963 84.73360000000014L240.39749999999913 72.46300000000005L242.98999999999978 75.38755000000009L250.81649999999968 75.27225000000001L261.67100000000005 71.04020000000006L270.0909999999999 61.187400000000025L288.8409999999999 69.9454L305.35799999999995 55.12385000000009L317.5229999999999 51.21050000000011L317.6204999999993 50.90395000000001L326.58199999999965 43.69425000000007L340.91499999999996 38.52745000000013L349.0599999999995 30.485450000000043L348.9704999999992 34.16025000000005L355.97299999999905 36.1442000000001L360.1405 53.55365000000006L374.95349999999917 55.897700000000015L385.57849999999917 52.77860000000004L392.589999999999 61.39770000000013L395.17650000000003 58.66365000000002L402.3974999999996 60.498500000000064L410.06899999999973 67.62685000000005L405.8809999999994 73.40610000000012L410.45849999999973 80.65835000000007L413.667999999999 82.1793000000001L421.86099999999897 75.47460000000001L419.8149999999998 68.84605000000008L427.79249999999934 72.59640000000005L442.4365 70.75975000000014L452.1214999999995 65.84195000000008L461.83849999999893 80.83700000000007L449.2255 93.91185000000007L467.8744999999992 97.08290000000005L478.09799999999996 94.70890000000011L483.1269999999995 89.47780000000009L486.3194999999996 91.59315000000007L501.0214999999994 87.64515000000003L502.75699999999915 76.57840000000007L510.70049999999924 68.15960000000004L511.9524999999999 60.541450000000054L518.8999999999999 59.422600000000045L527.168999999999 59.920450000000045L554.9099999999999 101.85885000000013L549.1359999999997 104.6508L539.5934999999997 103.75445000000013L533.2034999999996 107.88335000000004L527.8809999999999 102.73600000000002L522.1509999999989 108.19190000000006z">
      <title id="t530">Première circonscription du Val-d'Oise</title>
      <desc id="d530">Cantons de : Beaumont-sur-Oise, Magny-en-Vexin, Marines, Pontoise, La Vallée-du-Sausseron, Vigny</desc>
    </path><path class="circo" id="id-095-02" d="M428.9229999999998 186.79635000000005L412.0354999999995 195.49760000000006L396.7569999999989 192.6977500000001L389.2864999999995 192.37390000000005L382.8019999999992 196.19045000000014L363.5724999999991 216.24075000000005L360.0804999999991 227.49865000000014L356.2829999999997 241.15055000000012L351.5214999999989 232.43500000000012L352.431499999999 225.5080500000001L345.32699999999977 217.88115000000005L340.252999999999 220.9158500000001L340.257499999999 223.43150000000009L339.40200000000004 225.0894500000001L340.61099999999897 228.02485000000004L335.5589999999995 232.51795L335.012999999999 225.71475000000007L332.90599999999927 221.37410000000003L326.78699999999935 218.65790000000004L320.8979999999997 220.8411500000001L316.63099999999986 226.02075000000013L317.568 226.69455000000013L317.5184999999999 230.14235000000014L319.26599999999894 239.20770000000005L336.8889999999999 258.91685000000007L342.26049999999987 266.242L352.0369999999991 251.62220000000005L369.03949999999895 257.94515L378.90699999999924 247.32240000000004L375.0389999999993 242.2048000000001L379.63750000000005 236.60745000000006L384.3934999999999 242.38410000000002L404.4304999999997 227.22920000000002L413.6984999999993 232.52520000000004L417.82049999999913 224.46020000000004L418.8664999999992 217.02475000000007L432.82049999999913 211.76780000000008L440.1299999999992 199.30605L460.27399999999943 209.76865000000004L462.90899999999965 212.50230000000002L478.05799999999977 188.38215000000005L479.4839999999999 185.10005000000007L487.24649999999997 191.6843L490.3049999999996 189.8606500000001L491.9814999999994 190.61565000000002L496.60999999999945 211.07850000000013L499.9829999999997 212.7729500000001L516.9589999999994 214.31505L527.2979999999995 210.93860000000006L537.1634999999992 210.12415000000004L533.273999999999 196.37890000000013L536.6534999999999 183.2287000000001L539.6375 181.76235000000005L560.791999999999 191.14830000000012L563.1205 186.17785000000012L566.9419999999991 186.91825000000009L567.2145 183.00965000000005L582.3595 170.60925000000012L577.5360000000001 164.57570000000004L580.2454999999998 157.5093000000001L576.9134999999994 146.85285000000007L578.8324999999998 143.64845000000003L582.0774999999992 137.66170000000002L590.7989999999995 125.6298000000001L593.3474999999999 116.84315000000012L600.8494999999994 114.75480000000005L606.0249999999996 108.9253500000001L613.7729999999999 108.47340000000003L615.249 103.6052500000001L592.69 96.50295000000014L581.105 99.11100000000005L565.1594999999998 88.30875000000006L554.9099999999999 101.85885000000013L549.1359999999997 104.6508L539.5934999999997 103.75445000000013L533.2034999999996 107.88335000000004L527.8809999999999 102.73600000000002L522.1509999999989 108.19190000000006L525.9139999999991 127.4851000000001L521.1099999999999 129.61920000000006L513.8689999999997 131.98845000000006L495.87999999999965 126.32920000000013L483.23249999999916 128.0612500000001L463.038499999999 121.07180000000014L450.02849999999967 128.05675000000008L447.0489999999995 125.81175000000002L445.7714999999996 107.3114000000001L435.9934999999996 91.39195000000001L431.67550000000006 92.36080000000001L434.4959999999992 103.6448L429.93549999999914 113.53885000000005L434.96599999999944 136.0305000000001L423.14750000000004 145.86235000000002L436.7439999999999 161.53270000000006L443.759 162.55800000000008L443.211 165.4473L441.59850000000006 170.21410000000003L432.0614999999998 184.86635000000007L428.9229999999998 186.79635000000005z">
      <title id="t531">Deuxième circonscription du Val-d'Oise</title>
      <desc id="d531">Cantons de : Cergy Sud, L'Isle-Adam, Saint-Ouen-l'Aumône, Viarmes, commune de Neuville-sur-Oise</desc>
    </path><path class="circo" id="id-095-03" d="M417.2694999999999 320.77835000000005L420.9394999999995 313.4895L420.9769999999992 309.27655000000004L418.6614999999995 298.3110500000001L412.25149999999985 289.03875000000016L402.11349999999925 283.82810000000006L383.4884999999997 280.50520000000006L379.14199999999937 273.91670000000005L383.0124999999998 258.3972000000001L378.90699999999924 247.32240000000004L375.0389999999993 242.2048000000001L379.63750000000005 236.60745000000006L384.3934999999999 242.38410000000002L404.4304999999997 227.22920000000002L413.6984999999993 232.52520000000004L417.82049999999913 224.46020000000004L418.8664999999992 217.02475000000007L432.82049999999913 211.76780000000008L440.1299999999992 199.30605L460.27399999999943 209.76865000000004L462.90899999999965 212.50230000000002L478.05799999999977 188.38215000000005L479.4839999999999 185.10005000000007L487.24649999999997 191.6843L490.3049999999996 189.8606500000001L491.9814999999994 190.61565000000002L496.60999999999945 211.07850000000013L499.9829999999997 212.7729500000001L492.41699999999923 227.08250000000007L480.2139999999997 223.0583L476.4269999999999 221.47125000000003L469.7194999999999 229.73965000000007L462.99299999999903 247.20520000000008L454.828 254.85765L467.961499999999 259.3519500000001L474.3634999999995 267.39845L469.30849999999964 274.5512000000001L449.79349999999954 264.9008500000001L448.17999999999984 264.2482000000001L446.91599999999994 266.2172000000001L440.2679999999998 279.40780000000007L440.93599999999924 286.62440000000004L458.38949999999954 298.7289000000001L456.1579999999992 300.8070000000001L442.10199999999986 313.25300000000016L441.46049999999946 324.7821L417.2694999999999 320.77835000000005z">
      <title id="t532">Troisième circonscription du Val-d'Oise</title>
      <desc id="d532">Cantons de : Beauchamp, Cormeilles-en-Parisis, Herblay, Taverny</desc>
    </path><path class="circo" id="id-095-04" d="M491.71049999999923 294.4416000000001L490.90799999999945 293.9832000000001L473.5209999999995 291.45185000000015L468.46450000000004 286.64695000000006L464.7399999999993 287.0480500000001L464.14549999999963 294.48895000000005L458.38949999999954 298.7289000000001L440.93599999999924 286.62440000000004L440.2679999999998 279.40780000000007L446.91599999999994 266.2172000000001L448.17999999999984 264.2482000000001L449.79349999999954 264.9008500000001L469.30849999999964 274.5512000000001L474.3634999999995 267.39845L467.961499999999 259.3519500000001L454.828 254.85765L462.99299999999903 247.20520000000008L469.7194999999999 229.73965000000007L476.4269999999999 221.47125000000003L480.2139999999997 223.0583L492.41699999999923 227.08250000000007L506.92899999999895 234.06900000000007L507.7934999999991 237.97635000000014L512.0894999999996 241.36480000000006L511.0299999999995 251.88725000000005L505.02700000000004 261.0439000000001L498.60399999999913 264.84220000000005L498.30150000000003 268.3405L503.92099999999914 271.87810000000013L505.78949999999963 272.85405000000014L500.25800000000004 285.7422500000001L505.04749999999945 294.93835L491.71049999999923 294.4416000000001z">
      <title id="t533">Quatrième circonscription du Val-d'Oise</title>
      <desc id="d533">Cantons de : Eaubonne, Ermont, Franconville, Saint-Leu-la-Forêt</desc>
    </path><path class="circo" id="id-095-05" d="M441.46049999999946 324.7821L442.10199999999986 313.25300000000016L456.1579999999992 300.8070000000001L473.4119999999996 308.75290000000007L484.85199999999963 310.8026000000001L492.3039999999992 308.56595000000016L502.53549999999905 314.37690000000003L505.3584999999998 322.92765L504.3939999999998 323.40175L487.09949999999935 328.8958500000001L472.3199999999997 339.4222500000001L460.15499999999975 349.54920000000004L452.21149999999966 357.56135L437.56599999999935 370.9938000000001L436.53099999999995 359.41910000000007L440.5435 354.0551500000001L436.336 341.09260000000006L441.63349999999923 335.00640000000004L441.46049999999946 324.7821z">
      <title id="t534">Cinquième circonscription du Val-d'Oise</title>
      <desc id="d534">Cantons de : Argenteuil Est, Argenteuil Nord, Argenteuil Ouest, Bezons</desc>
    </path><path class="circo" id="id-095-06" d="M525.9469999999999 315.03L520.8109999999999 310.7305500000001L510.04499999999894 306.07595000000003L502.53549999999905 314.37690000000003L492.3039999999992 308.56595000000016L484.85199999999963 310.8026000000001L473.4119999999996 308.75290000000007L456.1579999999992 300.8070000000001L458.38949999999954 298.7289000000001L464.14549999999963 294.48895000000005L464.7399999999993 287.0480500000001L468.46450000000004 286.64695000000006L473.5209999999995 291.45185000000015L490.90799999999945 293.9832000000001L491.71049999999923 294.4416000000001L505.04749999999945 294.93835L500.25800000000004 285.7422500000001L505.78949999999963 272.85405000000014L503.92099999999914 271.87810000000013L498.30150000000003 268.3405L498.60399999999913 264.84220000000005L505.02700000000004 261.0439000000001L511.0299999999995 251.88725000000005L512.0894999999996 241.36480000000006L520.5894999999998 251.45885000000007L518.925999999999 265.8971500000001L522.3529999999994 267.2451500000001L516.2564999999995 293.40985L519.0895 299.78655000000003L522.6344999999992 299.84735L526.6174999999998 289.65285000000006L537.0619999999997 289.6133500000001L543.1569999999999 290.0087000000001L543.8279999999997 293.05155000000013L558.578 292.1514000000001L559.982 297.2048500000001L550.5984999999998 306.8936000000001L543.3819999999992 305.1095000000001L535.6989999999996 318.4306500000001L532.0229999999992 313.6111000000001L525.9469999999999 315.03z">
      <title id="t535">Sixième circonscription du Val-d'Oise</title>
      <desc id="d535">Cantons de : Enghien-les-Bains, Saint-Gratien, Sannois, Soisy-sous-Montmorency</desc>
    </path><path class="circo" id="id-095-07" d="M533.273999999999 196.37890000000013L536.6534999999999 183.2287000000001L539.6375 181.76235000000005L560.791999999999 191.14830000000012L566.653 196.53125000000003L580.8234999999991 190.7171000000001L588.7989999999991 201.81780000000003L595.0819999999999 204.68265000000002L593.8699999999994 207.66455000000008L598.7049999999999 215.79395000000005L610.8279999999991 229.44865000000007L606.1164999999994 235.27335000000008L592.6019999999994 241.12125000000006L592.064499999999 240.88215000000005L577.3624999999993 252.35950000000003L569.9079999999992 252.9851500000001L558.1269999999995 257.37710000000004L561.6154999999992 268.92325000000017L561.7694999999992 274.77085L566.8094999999994 276.9375500000001L566.0434999999995 278.54404999999997L569.7364999999991 282.49195L566.1874999999998 284.8466000000001L570.1254999999992 286.78565000000003L569.1744999999992 289.15130000000005L564.6854999999994 289.9647L573.1419999999991 292.1744500000001L572.0279999999991 300.5119000000001L567.2134999999992 299.68970000000013L559.982 297.2048500000001L558.578 292.1514000000001L543.8279999999997 293.05155000000013L543.1569999999999 290.0087000000001L537.0619999999997 289.6133500000001L526.6174999999998 289.65285000000006L522.6344999999992 299.84735L519.0895 299.78655000000003L516.2564999999995 293.40985L522.3529999999994 267.2451500000001L518.925999999999 265.8971500000001L520.5894999999998 251.45885000000007L512.0894999999996 241.36480000000006L507.7934999999991 237.97635000000014L506.92899999999895 234.06900000000007L492.41699999999923 227.08250000000007L499.9829999999997 212.7729500000001L516.9589999999994 214.31505L527.2979999999995 210.93860000000006L537.1634999999992 210.12415000000004L533.273999999999 196.37890000000013z">
      <title id="t536">Septième circonscription du Val-d'Oise</title>
      <desc id="d536">Cantons de : Domont, Ecouen, Montmorency, Sarcelles Sud-Ouest</desc>
    </path><path class="circo" id="id-095-08" d="M572.0279999999991 300.5119000000001L590.4654999999991 317.58725000000015L598.9434999999992 315.7619500000001L620.1409999999998 317.9588000000001L626.4229999999998 317.9859L627.0634999999993 314.28560000000004L608.8824999999997 290.96635000000003L597.2309999999993 269.8553000000001L603.581999999999 252.40580000000008L601.0939999999994 246.67535L592.6019999999994 241.12125000000006L592.064499999999 240.88215000000005L577.3624999999993 252.35950000000003L569.9079999999992 252.9851500000001L558.1269999999995 257.37710000000004L561.6154999999992 268.92325000000017L561.7694999999992 274.77085L566.8094999999994 276.9375500000001L566.0434999999995 278.54404999999997L569.7364999999991 282.49195L566.1874999999998 284.8466000000001L570.1254999999992 286.78565000000003L569.1744999999992 289.15130000000005L564.6854999999994 289.9647L573.1419999999991 292.1744500000001L572.0279999999991 300.5119000000001z">
      <title id="t537">Huitième circonscription du Val-d'Oise</title>
      <desc id="d537">Cantons de : Garges-lès-Gonesse Est, Garges-lès-Gonesse Ouest, Sarcelles Nord-Est, Villiers-le-Bel</desc>
    </path><path class="circo" id="id-095-09" d="M601.0939999999994 246.67535L592.6019999999994 241.12125000000006L606.1164999999994 235.27335000000008L610.8279999999991 229.44865000000007L598.7049999999999 215.79395000000005L593.8699999999994 207.66455000000008L595.0819999999999 204.68265000000002L588.7989999999991 201.81780000000003L580.8234999999991 190.7171000000001L566.653 196.53125000000003L560.791999999999 191.14830000000012L563.1205 186.17785000000012L566.9419999999991 186.91825000000009L567.2145 183.00965000000005L582.3595 170.60925000000012L577.5360000000001 164.57570000000004L580.2454999999998 157.5093000000001L576.9134999999994 146.85285000000007L578.8324999999998 143.64845000000003L582.0774999999992 137.66170000000002L590.7989999999995 125.6298000000001L593.3474999999999 116.84315000000012L600.8494999999994 114.75480000000005L606.0249999999996 108.9253500000001L613.7729999999999 108.47340000000003L611.1799999999994 117.00705000000013L626.7039999999997 110.03870000000006L630.1614999999993 110.50320000000013L630.3369999999995 113.9965500000001L642.3849999999993 120.25580000000005L641.942499999999 123.75420000000005L658.373499999999 130.19885000000002L659.650499999999 136.92520000000002L651.4999999999998 148.16970000000012L681.9119999999998 155.80985000000013L683.9994999999999 133.7700500000001L690.4824999999994 130.43045000000006L690.0889999999993 134.06935000000004L697.1359999999993 132.03805000000003L699.2674999999997 134.5653L702.9224999999997 158.04350000000014L715.5984999999998 163.88360000000006L720.3244999999993 177.19640000000012L725.8759999999995 178.32415000000012L712.5004999999999 201.3394000000001L728.7974999999994 215.01900000000006L717.817 215.73645000000013L710.2139999999997 223.52635000000006L705.5049999999994 237.05960000000005L692.0304999999996 242.68175000000014L684.8344999999995 241.32530000000003L687.2514999999999 251.8444000000001L696.4104999999995 253.95025000000004L698.1779999999992 257.1031500000001L694.2104999999992 263.25755000000004L683.2039999999995 263.1797L667.4899999999991 289.5806L660.3359999999998 292.35085000000015L659.328999999999 296.01305000000013L655.9934999999996 298.90120000000013L652.3844999999994 298.3166000000001L634.23 309.3351000000001L628.9914999999996 318.79885L626.4229999999998 317.9859L627.0634999999993 314.28560000000004L608.8824999999997 290.96635000000003L597.2309999999993 269.8553000000001L603.581999999999 252.40580000000008L601.0939999999994 246.67535z">
      <title id="t538">Neuvième circonscription du Val-d'Oise</title>
      <desc id="d538">Cantons de : Gonesse, Goussainville, Luzarches</desc>
    </path><path class="circo" id="id-095-10" d="M300.37199999999984 180.80295000000007L297.979499999999 191.81405000000012L287.58899999999926 193.58925000000013L285.36149999999907 196.64190000000005L285.06599999999935 199.69985000000008L277.1589999999992 229.19945000000013L260.37849999999935 228.92200000000003L255.941499999999 240.51010000000005L257.517499999999 243.5927000000001L264.9574999999993 242.01420000000013L275.5804999999998 246.43855000000002L283.24899999999957 244.48345000000003L292.86649999999895 256.8112500000001L294.89349999999945 258.8841000000001L306.711499999999 270.53365000000014L308.80449999999996 267.3758500000001L323.6349999999993 266.0797000000001L336.8889999999999 258.91685000000007L319.26599999999894 239.20770000000005L317.5184999999999 230.14235000000014L317.568 226.69455000000013L316.63099999999986 226.02075000000013L320.8979999999997 220.8411500000001L326.78699999999935 218.65790000000004L332.90599999999927 221.37410000000003L335.012999999999 225.71475000000007L335.5589999999995 232.51795L340.61099999999897 228.02485000000004L339.40200000000004 225.0894500000001L340.257499999999 223.43150000000009L340.252999999999 220.9158500000001L345.32699999999977 217.88115000000005L342.6514999999995 214.98180000000005L359.35699999999997 188.92505L356.10349999999926 186.7195500000001L351.46349999999984 173.1934000000001L347.8324999999995 172.59625000000014L342.36299999999915 177.37025000000003L333.527499999999 171.4853500000001L322.9559999999992 174.56730000000007L323.31699999999955 164.2076L318.441499999999 155.29160000000005L314.82849999999985 154.62405000000004L309.13549999999987 159.28455000000014L300.9794999999997 180.89770000000001L300.37199999999984 180.80295000000007z">
      <title id="t539">Dixième circonscription du Val-d'Oise</title>
      <desc id="d539">Cantons de : Cergy Nord, L'Hautil (moins la commune de Neuville-sur-Oise)</desc>
    </path></svg>