<svg xmlns="http://www.w3.org/2000/svg" version="1.1" xmlns:xlink="http://www.w3.org/1999/xlink" xmlns:svgjs="http://svgjs.dev/svgjs" width="697.382525" height="604.75855" fill="#eeeeee" stroke="#cccccc" xmlns:sodipodi="http://sodipodi.sourceforge.net/DTD/sodipodi-0.dtd"><path class="circo" id="id-971-01" d="M310.019005 139.09450000000007L285.509505 143.23225000000008L273.09700499999997 141.64085L264.184505 144.82380000000006L258.773505 151.50795000000002L249.542505 150.55310000000006L244.13200500000002 153.41774999999998L238.08450499999998 160.42015000000006L237.766005 178.8812L227.898505 191.29469999999998L229.172505 197.02399999999997L224.39799999999997 200.84355000000002L226.94450500000002 229.80824999999996L225.0345 232.35460000000003L243.81350500000002 262.91085L245.40500500000002 259.09130000000005L251.13400500000006 256.86325L259.40950499999997 246.99615000000009L306.199005 227.89845L314.475005 224.0789000000001L314.475005 211.9838L315.74800500000003 209.11915000000008L321.47700499999996 207.84594999999996L320.840505 202.43494999999996L317.976005 201.16174999999998L318.294505 197.97889999999995L329.435005 183.01900000000003L338.028505 186.52029999999996L352.351525 180.79099999999997L348.21400500000004 162.6482L335.800505 162.32995000000003L328.479505 151.82625000000002L323.068505 155.00915000000006L310.019005 139.09450000000007zM459.616525 455.797L447.52202500000004 458.97990000000004L432.880525 479.98729999999995L426.833025 481.89715000000007L423.968025 500.67645L420.466525 505.76915000000014L409.644975 512.1350000000001L408.370975 514.9996999999998L414.41897500000005 552.2401L419.194025 560.5156999999999L437.01752500000003 572.61085L458.025525 579.93165L467.256025 579.93165L475.850025 576.4304000000002L485.08002500000003 575.1572000000001L496.539525 569.4279L513.0905250000001 554.4681L523.9120250000001 548.10225L529.323025 536.3253499999998L530.5965249999999 523.5936000000002L527.095525 511.18015000000014L506.0875250000001 492.7190999999999L496.857025 473.62145L472.030025 459.6165500000001L459.616525 455.797z">
      <title id="t540">Première circonscription de Guadeloupe</title>
      <desc id="d540">Cantons de : Les Abymes I, Les Abymes II, Les Abymes III, Les Abymes IV, Les Abymes V, Capesterre-de-Marie-Galante, Grand-Bourg, Morne-à-l'Eau I, Morne-à-l'Eau II, Pointe-à-Pitre I, Pointe-à-Pitre II, Pointe-à-Pitre III, Saint-Louis</desc>
    </path><path class="circo" id="id-971-02" d="M293.78550500000006 0L279.144505 16.232949999999988L265.457505 24.190300000000065L260.365005 32.466050000000024L251.770505 36.60385000000005L236.492505 52.200150000000036L232.67350499999998 63.97705000000002L243.177005 100.26260000000008L249.542505 106.94680000000005L258.13700500000004 110.76634999999996L261.00150499999995 109.49314999999999L270.869005 120.63339999999997L268.958505 138.13955000000007L273.09700499999997 141.64085L285.509505 143.23225000000008L310.019005 139.09450000000007L323.068505 155.00915000000006L328.479505 151.82625000000002L335.800505 162.32995000000003L348.21400500000004 162.6482L352.351525 180.79099999999997L338.028505 186.52029999999996L329.435005 183.01900000000003L318.294505 197.97889999999995L317.976005 201.16174999999998L320.840505 202.43494999999996L321.47700499999996 207.84594999999996L315.74800500000003 209.11915000000008L314.475005 211.9838L314.475005 224.0789000000001L306.199005 227.89845L259.40950499999997 246.99615000000009L251.13400500000006 256.86325L245.40500500000002 259.09130000000005L243.81350500000002 262.91085L246.99650500000004 267.04864999999995L259.09200500000003 268.00354999999996L265.14000500000003 274.68770000000006L295.69550499999997 281.6902L310.97300500000006 279.14384999999993L321.796005 272.77789999999993L337.39200500000004 271.1865L346.304005 269.27670000000006L350.76002500000004 264.50230000000005L361.900525 260.0462L371.131025 259.7279500000001L383.22602500000005 249.86075L418.87502500000005 240.94850000000008L424.60502500000007 243.49485L446.24852500000003 240.31199999999998L482.21602500000006 230.44480000000007L533.143025 235.53754999999995L548.1030250000001 239.3571L537.9175250000001 232.03625000000002L522.0030250000001 229.80824999999996L493.35602500000005 216.12165000000005L486.990525 209.11915000000008L476.804525 188.74835000000004L459.616525 175.06175L430.65252499999997 162.9665L411.872975 159.7836000000001L405.506525 161.05680000000007L374.95052499999997 152.4628L353.62452500000006 124.45295000000002L349.16850500000004 112.35780000000005L349.487005 105.99185000000006L355.535025 79.57350000000005L350.442525 58.24780000000004L344.076005 37.877050000000025L336.755005 31.511150000000043L319.24850499999997 18.779300000000063L314.475005 10.822000000000003L302.061505 8.593900000000048L296.96850500000005 0.636650000000003L293.78550500000006 0zM691.971525 145.14210000000006L685.923525 146.41525000000001L683.059025 150.23480000000006L679.876025 150.23480000000006L672.237025 155.32745000000006L659.823525 161.69335000000004L658.2325249999999 161.37505000000004L655.3680250000001 164.87634999999997L653.776525 164.87634999999997L647.729025 169.96904999999998L641.6810250000001 172.51540000000006L635.315525 173.1519L631.813525 178.56295000000003L622.584025 180.47264999999996L616.217525 187.79345000000006L615.5810250000001 195.75085L618.127025 196.70569999999998L636.906025 188.11170000000004L658.8690250000001 182.70075000000006L677.0115250000001 169.01409999999998L691.971525 163.28485L697.382525 159.7836000000001L694.1995250000001 148.9616000000001L691.971525 145.14210000000006zM602.849025 303.65245000000004L588.844525 304.60735L587.571025 305.24389999999994L588.844525 307.79030000000006L596.483525 310.01829999999995L605.713525 308.10855000000004L606.9870249999999 305.56219999999996L602.849025 303.65245000000004z">
      <title id="t541">Deuxième circonscription de Guadeloupe</title>
      <desc id="d541">Cantons de : La Désirade, Le Gosier I, Le Gosier II, Le Moule I, Le Moule II, Petit-Canal, Port-Louis, Saint-François, Sainte-Anne I, Sainte-Anne II</desc>
    </path><path class="circo" id="id-971-03" d="M58.24849999999999 135.5932L50.6095 140.6859L38.19550000000001 141.64085L27.37399999999999 148.3249500000001L19.73449999999998 157.8738L16.869999999999994 169.96904999999998L8.912999999999993 175.69829999999996L7.9575 178.56295000000003L10.18600000000001 184.29215L5.729499999999987 192.8862000000001L4.7749999999999915 208.80085000000008L0 216.75820000000002L2.546499999999998 218.98624999999996L6.684999999999999 240.63029999999998L20.371000000000006 258.1364000000001L22.599 270.54990000000004L19.098500000000005 282.96335L22.917499999999986 291.23895000000005L33.739000000000004 297.28655000000003L40.105500000000006 297.92315L51.56399999999999 293.78535L62.70449999999998 297.60485000000006L67.478 309.06345L68.75200000000001 321.47695L72.57150000000001 326.25135L73.20849999999999 338.66479999999996L79.25600000000001 340.25625L84.34849999999999 354.2612L93.26050000000001 352.66975L111.08449999999999 357.12585L118.40549999999999 362.5368500000001L120.63349999999998 368.26615000000004L126.04449999999999 375.26865L144.1875 378.13320000000004L161.69400000000002 384.4991L177.92650000000003 375.58684999999997L190.02200000000002 372.0856500000001L198.9345 363.81005000000005L207.52800000000002 360.6270999999999L207.21000000000004 351.71485000000007L213.89350000000002 342.166L202.1175 333.2537500000001L202.43500000000006 324.34155000000004L197.661 320.84035L195.43300000000002 314.79275L194.15950000000004 308.7451L197.97899999999998 303.97075L197.661 300.78784999999993L191.29500000000002 293.78535L189.70350000000002 287.7378L190.02200000000002 284.5548000000001L194.478 276.27920000000006L191.6135 261.31935L195.43300000000002 249.22425000000004L197.97899999999998 247.31440000000006L212.62100000000004 250.8157L215.4855 249.22425000000004L225.989005 259.40960000000007L228.535005 253.68030000000005L225.0345 248.58760000000004L223.44250000000002 235.85580000000007L225.35250000000005 219.94115000000008L224.07899999999998 213.8935500000001L218.35000000000002 211.02895000000004L218.35000000000002 204.98130000000003L212.30249999999998 203.70815000000007L199.889 206.5728L192.56799999999998 217.0765L189.70350000000002 218.66794999999996L186.839 219.62285000000008L183.656 218.98624999999996L179.51799999999997 212.30215L172.19750000000005 218.0314L169.01449999999997 209.75580000000008L159.7835 212.30215L159.4655 206.5728L163.92200000000003 202.11669999999998L169.3325 202.75324999999995L175.69900000000004 192.24955000000008L179.51799999999997 188.74835000000004L177.29 186.83850000000007L169.3325 187.15689999999995L159.7835 188.74835000000004L145.77899999999997 181.74580000000006L141.0045 173.78855000000001L122.22499999999998 173.1519L97.7165 159.46529999999996L85.30299999999998 156.60060000000001L72.57150000000001 142.27745L58.24849999999999 135.5932zM193.84199999999998 142.59569999999997L189.38549999999998 143.23225000000008L185.247 150.23480000000006L188.74900000000002 148.9616000000001L191.93150000000003 149.59815000000006L196.70600000000002 149.27990000000008L197.97899999999998 148.3249500000001L197.97899999999998 145.14210000000006L193.84199999999998 142.59569999999997z">
      <title id="t542">Troisième circonscription de Guadeloupe</title>
      <desc id="d542">Cantons de : Baie-Mahault, Goyave, Lamentin, Petit-Bourg, Pointe-Noire, Sainte-Rose I, Sainte-Rose II</desc>
    </path><path class="circo" id="id-971-04" d="M22.917499999999986 291.23895000000005L21.644999999999985 300.78784999999993L28.01 306.83540000000005L28.646499999999993 313.20130000000006L26.418499999999998 331.9806L33.102999999999994 342.166L30.557 354.57949999999994L31.511000000000013 376.8600500000001L36.92199999999998 379.08815000000004L34.05749999999999 406.77970000000005L38.19550000000001 415.37360000000007L49.97300000000001 429.37855L54.11 451.0226L74.48099999999998 473.62145L79.89199999999998 476.16780000000006L85.621 486.98980000000006L88.16799999999999 505.45080000000013L97.08 507.67885000000007L115.223 502.90445000000005L123.49849999999998 493.6739L129.54649999999998 494.9471L137.18449999999999 489.21785L152.782 489.53615000000013L161.3755 486.03489999999994L168.37800000000001 472.98485L169.01449999999997 469.80189999999993L205.2995 439.24570000000006L218.03150000000002 413.7822L214.84900000000005 401.687L216.122 376.22349999999994L212.62100000000004 364.12825L207.52800000000002 360.6270999999999L198.9345 363.81005000000005L190.02200000000002 372.0856500000001L177.92650000000003 375.58684999999997L161.69400000000002 384.4991L144.1875 378.13320000000004L126.04449999999999 375.26865L120.63349999999998 368.26615000000004L118.40549999999999 362.5368500000001L111.08449999999999 357.12585L93.26050000000001 352.66975L84.34849999999999 354.2612L79.25600000000001 340.25625L73.20849999999999 338.66479999999996L72.57150000000001 326.25135L68.75200000000001 321.47695L67.478 309.06345L62.70449999999998 297.60485000000006L51.56399999999999 293.78535L40.105500000000006 297.92315L33.739000000000004 297.28655000000003L22.917499999999986 291.23895000000005zM204.02700000000004 567.1998500000001L201.481 572.9291499999999L200.207 573.2474500000001L197.34250000000003 570.0645L196.07 570.7011L194.478 573.56575L195.43300000000002 579.6133L193.52249999999998 582.15965L182.3825 583.4327999999999L177.60800000000003 587.25235L176.9715 588.8437999999999L180.79149999999998 591.0719L186.839 593.3000000000002L190.33999999999997 588.2073L199.57050000000004 589.7987L200.8435 582.15965L208.48250000000002 577.0669499999999L206.89149999999998 574.2023499999999L207.21000000000004 569.4279L205.2995 567.1998500000001L204.02700000000004 567.1998500000001zM150.554 578.6584500000001L145.143 584.0694500000001L141.0045 586.2974500000001L137.822 597.1195499999999L151.8265 604.75855L155.9645 602.21225L162.01149999999998 592.9817L166.15000000000003 592.3450500000001L167.10450000000003 589.7987L160.42049999999995 586.2974500000001L159.4655 581.8414000000001L158.1925 580.8864500000002L150.554 578.6584500000001z">
      <title id="t543">Quatrième circonscription de Guadeloupe</title>
      <desc id="d543">Cantons de : Basse-Terre I, Basse-Terre II, Bouillante, Capesterre-Belle-Eau I, Capesterre-Belle-Eau II, Gourbeyre, Saint-Claude, Les Saintes, Trois-Rivières, Vieux-Habitants</desc>
    </path></svg>