<svg xmlns="http://www.w3.org/2000/svg" version="1.1" xmlns:xlink="http://www.w3.org/1999/xlink" xmlns:svgjs="http://svgjs.dev/svgjs" width="436.463525" height="521.1893" fill="#eeeeee" stroke="#cccccc" xmlns:sodipodi="http://sodipodi.sourceforge.net/DTD/sodipodi-0.dtd"><path class="circo" id="id-972-01" d="M330.99801 326.01675L313.16451 322.3598000000001L306.39801 313.72195000000005L304.31501000000003 300.55075000000016L294.37751 292.96760000000006L283.28051000000005 291.27625000000023L269.04501000000005 295.7346000000001L263.20001 305.4099000000002L245.997505 320.0956000000002L238.562005 333.32825000000014L238.57200500000005 344.2942000000002L228.37850500000002 340.4381000000001L226.30550499999998 325.74630000000013L215.98200500000004 315.33355L220.73750500000003 301.48135000000025L217.32800500000002 290.9234000000001L214.371005 288.7207000000001L201.03350500000005 294.81030000000004L202.81000500000005 265.3861500000002L198.26550500000002 255.82025000000016L198.08450499999998 252.10060000000027L223.016505 245.6447L232.05000500000006 239.61405000000013L242.320505 238.54465000000005L242.04900500000002 224.27205000000015L244.92100499999998 221.9267000000002L214.39200499999998 201.25470000000007L196.26250500000003 197.86450000000002L172.453505 186.88125000000014L157.327505 175.65960000000018L150.653505 166.41700000000014L156.642505 163.78275000000002L171.353505 154.31160000000006L181.49300500000004 151.99820000000017L184.07300499999997 145.41065000000003L208.82700499999999 155.07735000000025L216.36800499999998 154.82290000000006L223.724505 154.53655000000026L231.96200500000003 146.94600000000008L239.03150500000004 145.1341500000001L242.96800500000003 138.77410000000026L253.83901000000003 137.19205000000017L267.44601 124.89480000000015L273.27351 129.6741L278.15151000000003 147.23365L283.23901 152.19240000000013L295.75401 134.0095500000001L309.04501000000005 126.83825000000013L323.74151000000006 128.27395000000024L355.574025 108.63455000000016L366.60402500000004 110.98480000000023L372.085525 116.2115L370.77152500000005 127.06685000000022L367.400025 128.51860000000016L357.793025 122.54080000000016L350.98652500000003 125.08290000000017L353.298025 135.27815000000004L348.48451000000006 144.84895000000023L349.08601000000004 152.15790000000027L346.23451 154.10380000000004L334.88201000000004 153.25445000000002L328.19251 144.26870000000008L317.77801000000005 139.4169500000001L306.44351 138.66830000000022L303.65400999999997 141.27805000000023L297.73251000000005 150.22560000000027L301.30501000000004 156.38900000000007L296.99100999999996 165.62415000000016L304.21301 173.76420000000024L314.29551000000004 171.17170000000016L312.76201000000003 174.48820000000012L309.26751 181.10390000000024L311.1495100000001 184.29250000000025L324.60401 178.9306000000002L328.00750999999997 180.18325000000004L332.05551 190.50995L338.83451 193.75515000000007L335.81751 200.11030000000005L332.63801 202.10165000000018L318.21551 206.17410000000007L314.06551 212.3927500000002L304.36151 215.98330000000004L299.81901 226.05320000000006L308.73351 237.65105000000005L313.47251 243.4136000000001L317.18851 243.35955000000013L331.44951 232.10225000000008L349.26551000000006 235.23560000000003L358.901525 230.5534L360.869025 233.72485000000012L358.41752499999996 240.7683L350.09901 246.93535000000026L342.69551 246.3109L340.26551000000006 248.88245000000012L351.1335250000001 258.7139000000002L347.69101 276.66560000000004L369.456025 281.1830500000002L368.782025 287.96715000000006L374.968025 297.43225000000024L373.694525 305.01045000000005L378.49552500000004 311.0459500000002L391.48602500000004 309.0718000000001L396.641525 313.4528L395.901525 316.82095000000004L375.86152500000003 326.2503000000001L361.38852499999996 329.47090000000003L347.08901000000003 341.0724000000002L330.99801 326.01675z">
      <title id="t544">Première circonscription de Martinique</title>
      <desc id="d544">Cantons de : Le François I, Le François II, Gros-Morne, Le Lamentin I, Le Lamentin II, Le Lamentin III, Le Robert I, Le Robert II, La Trinité</desc>
    </path><path class="circo" id="id-972-02" d="M108.11600499999999 5.511850000000038L83.637505 0L65.2935 1.6164000000000556L51.2505 4.35385000000025L26.033500000000007 18.04140000000018L19.738999999999987 22.0548500000001L9.844999999999988 38.09510000000017L0 62.91575000000023L2.1804999999999986 81.85330000000022L15.539499999999986 104.8239000000001L25.866500000000006 108.39359999999999L33.2345 121.55870000000021L51.83449999999999 140.00080000000025L54.570999999999984 150.79225000000008L51.90499999999999 157.8001500000002L47.51849999999999 179.64475000000022L46.928 186.82600000000008L64.05900000000001 219.6882500000001L78.342005 240.64540000000022L80.991005 247.63600000000025L90.82000500000001 253.0741500000002L99.20850499999999 265.06035000000026L116.42050499999998 271.21520000000004L128.736505 279.4092500000002L144.374005 300.8138500000001L153.285505 280.03615000000025L152.83400500000002 261.05065000000025L136.668005 227.2025000000002L132.051505 205.10345L133.90550499999998 198.0218000000002L145.311005 185.61275000000023L151.947005 184.44000000000017L157.78500499999998 189.28320000000014L158.073505 193.05330000000026L152.06500499999999 202.54905000000008L154.090005 221.3083500000002L172.67500500000006 234.84955000000014L184.645005 249.51430000000016L198.26550500000002 255.82025000000016L198.08450499999998 252.10060000000027L223.016505 245.6447L232.05000500000006 239.61405000000013L242.320505 238.54465000000005L242.04900500000002 224.27205000000015L244.92100499999998 221.9267000000002L214.39200499999998 201.25470000000007L196.26250500000003 197.86450000000002L172.453505 186.88125000000014L157.327505 175.65960000000018L150.653505 166.41700000000014L156.642505 163.78275000000002L171.353505 154.31160000000006L181.49300500000004 151.99820000000017L184.07300499999997 145.41065000000003L208.82700499999999 155.07735000000025L216.36800499999998 154.82290000000006L223.724505 154.53655000000026L231.96200500000003 146.94600000000008L239.03150500000004 145.1341500000001L242.96800500000003 138.77410000000026L253.83901000000003 137.19205000000017L267.44601 124.89480000000015L258.54201 109.25035000000008L241.44100500000002 95.38585000000012L233.67150500000002 75.2756500000001L226.58750500000002 77.21415000000007L219.68000500000002 74.75940000000008L216.56850500000004 64.32075000000026L207.96600500000005 57.98285000000021L207.79450500000002 54.338100000000225L198.039505 50.979850000000226L193.458005 45.46060000000011L187.14400500000005 49.31184999999999L180.022005 47.872400000000255L169.391005 37.91440000000023L158.846505 34.83390000000014L150.832505 27.544550000000072L143.646005 25.587600000000066L136.000005 17.042050000000017L108.11600499999999 5.511850000000038z">
      <title id="t545">Deuxième circonscription de Martinique</title>
      <desc id="d545">Cantons de : L'Ajoupa-Bouillon, Basse-Pointe, Case-Pilote, Le Carbet, Le Lorrain, Macouba, Le Marigot, Le Morne-Rouge, Le Prêcheur, Saint-Pierre, Saint-Joseph, Schœlcher I, Schœlcher II, Sainte-Marie I, Sainte-Marie II</desc>
    </path><path class="circo" id="id-972-03" d="M197.922505 296.8815000000001L198.73150500000003 304.38230000000004L195.51550500000005 306.2175000000002L180.55150500000002 304.2643000000001L174.40150500000001 299.9767L144.374005 300.8138500000001L153.285505 280.03615000000025L152.83400500000002 261.05065000000025L136.668005 227.2025000000002L132.051505 205.10345L133.90550499999998 198.0218000000002L145.311005 185.61275000000023L151.947005 184.44000000000017L157.78500499999998 189.28320000000014L158.073505 193.05330000000026L152.06500499999999 202.54905000000008L154.090005 221.3083500000002L172.67500500000006 234.84955000000014L184.645005 249.51430000000016L198.26550500000002 255.82025000000016L202.81000500000005 265.3861500000002L201.03350500000005 294.81030000000004L197.922505 296.8815000000001z">
      <title id="t546">Troisième circonscription de Martinique</title>
      <desc id="d546">Cantons de : Fort-de-France I, Fort-de-France II, Fort-de-France III, Fort-de-France IV, Fort-de-France V, Fort-de-France VI, Fort-de-France VII, Fort-de-France VIII, Fort-de-France IX, Fort-de-France X</desc>
    </path><path class="circo" id="id-972-04" d="M180.21650499999998 458.50585000000024L173.11550500000004 456.0572000000002L167.557505 446.24920000000003L154.578005 439.65435000000014L155.448005 424.73025000000007L148.269005 416.3702500000002L149.30900499999998 405.5137000000002L136.885505 398.1825500000002L139.207005 387.1304500000002L147.510505 374.69555000000014L158.445005 364.1930500000001L162.19150499999998 364.78185000000025L169.67550500000002 364.78680000000026L184.25050500000003 348.15155000000004L198.018505 352.43540000000024L197.96000499999997 362.69830000000013L208.088505 367.5365500000001L234.07700500000004 367.39270000000005L236.35200500000002 364.38845000000015L244.024005 353.94120000000015L250.40251000000006 356.10465000000005L242.179505 344.21795000000003L238.57200500000005 344.2942000000002L238.562005 333.32825000000014L245.997505 320.0956000000002L263.20001 305.4099000000002L269.04501000000005 295.7346000000001L283.28051000000005 291.27625000000023L294.37751 292.96760000000006L304.31501000000003 300.55075000000016L306.39801 313.72195000000005L313.16451 322.3598000000001L330.99801 326.01675L347.08901000000003 341.0724000000002L361.38852499999996 329.47090000000003L375.86152500000003 326.2503000000001L395.901525 316.82095000000004L398.405025 323.83860000000027L394.524525 330.26995L396.57002500000004 333.41185000000024L405.068025 341.0134000000002L415.107975 337.1684000000002L416.79447500000003 339.17445000000015L410.76947500000006 353.20245L416.901475 366.8088L413.73647500000004 373.6077L421.162525 373.40490000000017L421.501025 380.6352000000001L413.175475 386.83670000000006L412.13747500000005 394.0436500000001L422.55602500000003 396.08420000000024L423.465525 410.6629000000001L424.23502499999995 414.2879500000001L430.857025 417.09180000000003L432.803525 420.2410500000002L436.463525 430.7006000000001L432.876525 437.0521000000002L425.864525 436.77055000000024L423.655525 439.74290000000025L432.883525 450.7617000000002L425.54652500000003 459.0467000000001L421.883025 473.6082000000002L411.52797499999997 489.0596500000001L401.14502500000003 488.7265000000002L398.477525 491.2169L401.980025 497.8695000000002L408.525975 501.3531500000002L406.335475 504.50000000000017L398.73352500000004 504.36115L389.82152499999995 516.9005000000002L383.258525 520.5919L379.43652499999996 521.1893L371.809025 520.5821000000001L368.57152499999995 518.63255L360.892525 509.8951500000001L358.98652500000003 506.5331500000002L351.42902499999997 494.9415000000002L364.978525 475.23570000000007L360.2730250000001 465.35510000000016L361.857525 460.5439000000001L367.803525 466.11725000000007L372.44602499999996 464.95070000000027L372.52252500000003 456.6742500000001L379.02752499999997 457.25205000000017L380.845525 447.1478000000002L377.05102500000004 441.52525000000026L369.507025 441.05440000000016L344.25901000000005 462.9556500000001L336.22201000000007 455.0419000000002L331.65900999999997 449.5583000000002L332.76101000000006 442.41150000000005L325.54101 441.5265000000002L308.53701 448.8514500000002L286.62751000000003 445.6493500000002L277.2025100000001 439.6851000000001L266.72351 442.36110000000025L257.49800999999997 427.97300000000007L255.30301000000003 435.16025000000013L246.58101000000002 441.89895000000007L216.509005 430.9674000000001L205.57350499999998 433.75035000000025L192.658505 441.3826500000002L189.283005 452.0807000000002L183.536005 456.66325L180.21650499999998 458.50585000000024z">
      <title id="t547">Quatrième circonscription de Martinique</title>
      <desc id="d547">Cantons de : Les Anses-d'Arlets, Le Diamant, Ducos, Le Marin, Rivière-Pilote, Rivière-Salée, Saint-Esprit, Sainte-Anne, Sainte-Luce, Les Trois-Ilets, Le Vauclin</desc>
    </path></svg>