<svg xmlns="http://www.w3.org/2000/svg" version="1.1" xmlns:xlink="http://www.w3.org/1999/xlink" xmlns:svgjs="http://svgjs.dev/svgjs" width="402.200025" height="491.1119500000001" fill="#eeeeee" stroke="#cccccc" xmlns:sodipodi="http://sodipodi.sourceforge.net/DTD/sodipodi-0.dtd"><path class="circo" id="id-973-01" d="M204.281505 343.7119000000001L202.88900500000005 343.6196000000001L202.401505 342.8014999999999L202.42400500000002 340.38659999999993L201.021005 337.85145L200.978005 335.92870000000005L197.749005 335.0102499999997L196.52750500000002 334.2437000000001L193.16150499999998 328.94045000000006L193.131505 328.45685000000003L195.281005 324.16675L194.23600499999998 319.4623999999999L194.57150500000006 317.0917499999996L195.08900500000004 316.2872999999996L199.118505 313.6468500000001L199.516505 312.7851499999997L198.94100500000002 311.4628499999998L198.99750500000005 309.54309999999964L197.08750500000002 307.4033499999996L196.97500500000004 306.4755500000001L198.388505 303.93849999999986L198.98350499999998 301.61699999999996L201.56100500000002 299.45445000000007L202.607005 297.82794999999965L202.873005 295.43004999999994L202.256505 292.6176499999997L204.13450500000005 290.4785499999997L204.34600500000002 290.0422499999996L204.03200500000003 289.1256499999997L202.761505 288.4299999999996L201.81500499999999 288.46889999999973L199.58450499999998 290.2155499999998L198.25250500000004 289.6544L197.87350500000002 289.3562499999996L197.67950500000006 288.9121499999999L198.81600500000005 285.3200499999997L198.005505 278.5777999999999L197.48450500000004 277.22334999999987L192.81350500000002 271.7127999999997L191.677005 269.0627999999998L188.32300500000002 267.3759000000001L185.282505 263.0268000000001L185.48650500000002 262.09675000000004L185.925005 261.8978499999997L188.300505 261.80489999999963L189.165505 261.38604999999984L190.071505 259.72369999999984L194.208505 255.6564499999999L197.00750499999998 254.97869999999978L197.92100500000004 253.85359999999991L198.163505 251.45374999999973L197.266505 250.33209999999997L195.14500500000003 249.2600999999999L195.64150500000005 247.90019999999998L200.79350500000004 245.22249999999985L202.69000500000004 243.03309999999982L205.501505 242.3834499999998L207.88200500000002 240.03284999999977L210.08000500000003 240.74824999999976L211.623005 238.37654999999984L217.01550500000002 236.24329999999986L218.38350500000004 234.26149999999978L218.629005 232.38774999999976L219.177005 231.6065999999998L221.03450500000002 231.6339499999998L222.408505 231.19444999999985L222.80350500000003 230.92814999999973L223.086505 230.5352499999998L224.22250500000004 228.40254999999985L223.96250500000002 225.13409999999993L227.32850499999998 223.52509999999995L227.001505 221.72079999999994L228.124005 219.06239999999997L229.26551000000003 218.16614999999985L230.67551000000003 217.92079999999999L232.22901000000002 216.14364999999992L234.52951 215.43659999999988L234.67701 213.58089999999976L237.09401 212.03989999999976L237.00301000000002 211.56364999999994L239.31950999999998 211.55549999999977L239.90850999999998 210.8721L239.41751000000005 208.04479999999984L239.96551000000005 206.18059999999986L239.50351000000006 204.84684999999985L239.84651 201.97599999999994L239.45701 200.08444999999995L238.15901000000002 198.71364999999997L239.11101000000002 197.16229999999996L239.66200999999998 194.80294999999984L239.66301 194.31744999999978L239.15601000000004 192.96554999999984L237.09001 190.92034999999981L235.75651 188.89789999999977L235.25401000000002 184.56634999999977L234.44501000000002 183.39594999999974L234.26650999999998 182.9622999999998L234.32601 182.49145L235.76501000000002 178.8809999999998L236.03451 178.4815999999998L236.81651000000002 177.91964999999976L238.60151000000002 177.2195499999998L239.23251 175.4609499999998L241.06551000000002 175.6044L241.68801000000002 173.83224999999982L243.20751 172.7499499999999L242.86501 171.36784999999975L244.46301 169.65574999999973L244.31501000000003 167.72759999999977L244.53751000000005 167.2978999999998L245.96701000000002 167.23079999999982L247.74701 163.3253499999998L249.45401000000004 162.54219999999975L251.05550999999997 159.5895999999999L250.62701000000004 157.72569999999973L251.60101000000003 156.08934999999974L252.67651 155.12054999999975L254.06651000000005 155.25774999999982L255.21601000000004 153.76164999999986L256.09501 153.36944999999986L256.64450999999997 151.11139999999978L256.91701 150.71199999999976L260.00701 147.6663499999998L261.20151 144.54564999999974L263.05701 144.2279499999998L263.42351 143.91519999999986L264.23451 142.72059999999982L264.07201 141.7668999999998L265.90451 141.28059999999977L266.7745100000001 140.12849999999986L266.81601 139.1719999999998L267.74151000000006 138.97029999999972L267.92251 139.4225499999999L269.72501 140.10579999999976L272.08851000000004 139.6196999999998L274.64001 140.97054999999983L276.05501000000004 141.22175L277.23451000000006 142.7397499999998L280.48851 144.84519999999975L283.31151 145.51679999999976L284.47150999999997 146.3682L287.25651 146.97144999999978L287.72551 146.9717L288.12501000000003 146.72504999999973L289.09700999999995 145.0383499999998L289.72151 143.71359999999981L289.88601000000006 143.25679999999977L290.43401000000006 140.4027499999998L293.03001 135.82649999999973L292.77000999999996 133.9174L293.72701 131.20164999999986L294.11101 131.33654999999976L294.56401 132.69864999999982L296.94051 132.93234999999981L298.93401000000006 134.24109999999985L300.57151000000005 133.3056499999998L300.63501 132.82204999999976L299.44501 130.41774999999973L299.21951 127.56844999999998L299.77251 125.25475L299.64451 123.8245999999998L298.53701 123.08894999999978L298.02001000000007 121.77589999999981L296.20451 121.3232499999998L295.69001000000003 119.98679999999979L295.95401000000004 119.63614999999976L297.52551000000005 120.63269999999989L298.40351 120.34444999999977L298.79251000000005 119.03444999999977L298.09501000000006 117.29454999999973L300.31551 114.22804999999983L302.91951000000006 113.13229999999976L303.99001 112.20739999999978L304.15751 111.31244999999979L305.65901 110.21409999999975L305.37401 109.32119999999998L305.69401 108.97069999999985L309.71001 107.79489999999981L311.12751000000003 108.99154999999979L312.48701000000005 109.1504999999998L313.07151000000005 110.40254999999974L315.80851 113.0567499999998L315.43901 113.9264L315.64401000000004 114.84024999999974L317.46801 116.36415L319.01501 118.7256499999998L319.83851000000004 119.90754999999979L323.04201 120.65189999999973L325.26101000000006 123.71214999999978L325.70951 125.05884999999978L327.06651 125.21304999999984L328.44201 126.54209999999978L329.27351 127.03504999999979L331.08201 129.2971L331.54451 129.43799999999982L332.75651000000005 128.8451999999998L335.81001000000003 130.2901L337.41751 132.08279999999974L339.20301 132.80414999999977L341.36851 134.73679999999973L345.90251 137.50369999999975L350.51902500000006 141.62289999999985L361.410025 145.6457499999999L364.618525 144.8583499999998L367.91452499999997 145.4291999999998L369.35152500000004 145.5021499999998L372.87302500000004 147.88144999999986L374.54902500000003 150.1907L376.227025 150.99624999999975L376.81802500000003 152.29269999999985L377.853525 153.28129999999987L379.84052500000007 158.6732999999998L381.368025 168.6347999999998L381.170525 170.5249999999998L382.199025 173.21039999999982L384.87252500000005 175.91334999999987L384.065025 179.0211499999998L386.23152500000003 181.53519999999986L389.93602500000003 183.7650499999998L391.62402499999996 182.96839999999975L392.32302500000003 183.5353999999998L392.001025 184.41009999999977L390.438025 185.4854499999999L388.815525 188.43714999999975L388.7490250000001 188.91669999999976L389.021025 191.31749999999982L389.14902500000005 191.78454999999985L390.492525 195.40834999999987L393.895525 200.0564L394.475525 201.88049999999976L396.631025 203.72649999999993L396.94652500000007 204.63954999999999L396.65452500000004 205.55089999999979L397.923025 206.21024999999975L399.27002500000003 207.59214999999983L400.290525 209.18484999999976L402.200025 209.17849999999987L401.12002500000006 210.1466499999998L400.12302500000004 212.35344999999995L399.70752500000003 218.16344999999984L398.285525 225.80044999999984L397.199525 229.00964999999985L394.737525 231.31384999999995L384.89502500000003 236.3608499999998L381.21452500000004 239.47799999999972L380.872525 239.82064999999977L380.38402500000007 240.65489999999983L380.17252499999995 246.91654999999997L378.129025 251.31544999999988L377.848025 251.71054999999996L374.944525 254.23389999999984L374.392025 255.57289999999995L370.345025 258.9846L368.042025 262.6524999999998L366.709525 263.1977499999999L366.076525 263.9292499999999L363.77652500000005 263.6113999999998L363.72652500000004 264.09434999999974L364.87052500000004 264.8901000000001L364.78852500000005 265.36924999999997L363.50252500000005 265.96574999999973L361.638025 266.1963499999996L361.023525 267.5132500000001L361.92402500000003 270.7484499999998L361.286025 273.54164999999966L359.45252500000004 274.0972499999998L357.080525 274.1377L354.59452500000003 276.3817499999999L353.67602500000004 279.14215000000013L352.68952500000006 280.80269999999985L352.56502500000005 281.2721499999998L352.465525 283.2042999999999L351.928025 284.54529999999977L352.191525 286.88379999999995L348.34001 291.2136499999997L344.95651000000004 297.07884999999976L342.88801 300.9164499999997L341.18951000000004 301.65525L341.13001 303.4671499999996L338.82901000000004 305.9109000000001L338.06651 308.6788999999999L336.10801000000004 310.78734999999995L329.95451 322.29015000000004L327.95301 325.0116499999996L326.92801000000003 327.1906999999999L325.58051 328.56404999999995L324.88151000000005 331.33775000000014L322.36701000000005 334.2613L319.76751 338.3475999999996L319.43051 338.6948000000001L318.10600999999997 339.16044999999997L317.03551000000004 337.62294999999995L315.63901 337.4622499999998L313.70401000000004 339.57754999999963L311.62501 340.8017000000001L310.03101000000004 344.8118499999998L310.41951000000006 347.6851499999998L310.11501000000004 348.0617000000001L309.18551 347.8052500000001L307.90651 348.31860000000006L306.47501 348.31309999999974L305.11701000000005 351.8513999999999L305.72451 352.5822499999998L305.64051 353.0378999999999L304.23101 353.2704000000001L303.80701 353.4908999999999L303.55401 353.8965999999999L303.53501 354.37284999999974L303.77551000000005 354.78414999999984L304.89051000000006 355.6043999999997L304.31750999999997 357.42230000000006L304.4670100000001 358.3647500000001L306.46501 360.42359999999974L306.67101 361.3380000000001L303.17401000000007 368.21714999999983L301.97501 369.7046999999998L300.76951 374.83569999999986L300.56901000000005 375.27555000000007L299.21851000000004 377.8401500000001L298.12701000000004 378.7642999999997L297.79901 381.12604999999974L298.61051000000003 382.3070999999999L299.95351 382.53375000000005L299.80601 382.9917999999998L298.00651000000005 385.2501000000001L296.58401000000003 385.2384999999998L296.29100999999997 384.8518999999999L295.25901000000005 385.81165L293.95001 386.2466999999998L290.89700999999997 391.74440000000004L287.19801000000007 399.0772499999997L285.84051 405.5732499999999L284.99051000000003 407.3126500000001L283.73251000000005 408.7765999999999L282.21151 412.3354999999998L281.00801 413.8444499999997L279.53851 417.93169999999975L279.21651 418.2896999999997L277.33301000000006 418.4776499999998L276.94401 418.7624999999997L276.18151000000006 419.9912999999998L276.18001 420.4748000000001L277.48501000000005 421.8534999999997L277.13701000000003 424.09969999999987L279.04101 425.5534499999999L279.65801 427.38850000000014L278.34301000000005 429.88099999999974L278.61701000000005 430.74360000000013L278.20901 430.9991500000001L276.83450999999997 430.5993000000001L275.29101 432.38785000000007L276.52000999999996 434.9822999999998L276.30901 435.91999999999985L274.64401000000004 436.8520000000001L272.58351000000005 438.8814500000001L270.37101 442.0108499999998L267.98951 442.2737000000001L267.55101 442.47194999999977L267.23501 442.8361000000001L267.15001 443.7768999999997L268.12601 444.8315500000001L268.26851000000005 445.2925499999998L268.06750999999997 445.73080000000004L267.69851000000006 446.04134999999985L265.36301000000003 446.57015L264.96451 446.8414999999999L264.03951 447.95079999999984L263.77151000000003 449.8485999999997L262.41801000000004 451.8368499999997L262.45950999999997 453.2779499999998L261.68651000000006 455.5619999999999L260.47551 456.3186999999999L258.58750999999995 456.65419999999983L258.12801 456.79865000000007L255.45801000000006 457.8915999999998L255.03901 458.1275999999997L254.32951000000003 458.7765999999999L253.83651 460.1131499999997L251.14001000000002 461.1244499999998L246.56901000000005 463.73159999999984L245.61050999999998 463.6840000000001L245.19801 464.5373000000001L242.24151 465.93804999999975L237.65101 467.3237999999998L237.37600999999998 468.23069999999973L235.57001 468.76014999999995L235.53001 470.6074000000001L233.44701 471.68364999999994L232.80551000000003 473.50224999999966L231.43651 474.77030000000013L231.10351000000003 476.66909999999973L228.68751000000003 480.8029499999998L224.925505 480.4686499999997L223.697005 482.3574500000001L219.48100500000004 483.1912L218.19750499999998 483.8113499999997L216.46800500000006 482.5547499999999L214.82000499999998 482.34969999999976L208.93950500000003 480.6096500000001L207.860005 479.6657499999998L206.34350500000005 477.2562499999998L205.18600499999997 476.43449999999973L198.124005 476.04944999999987L196.37950500000002 476.77899999999966L194.968505 476.57249999999976L191.831005 477.50654999999995L188.124005 477.9499999999996L187.00450500000002 478.8542000000001L186.06350500000005 479.07399999999996L183.951505 478.0453L182.99800500000003 478.0624499999999L180.68900499999998 480.51274999999976L179.75300500000003 480.68494999999984L178.06800500000003 480.1813999999996L178.821005 478.9567999999997L178.93800500000003 477.0407L180.59050499999998 476.4002499999998L181.14900500000005 475.6504000000001L181.34550500000003 473.26685L182.67100499999998 473.30749999999966L183.10300500000005 473.0921000000001L185.11100500000003 471.7692999999997L185.328505 471.35189999999966L185.25500499999998 470.8785999999998L184.97100500000002 470.4887500000001L184.55300499999998 470.25149999999996L181.691505 469.8511500000001L181.29600500000004 469.57359999999994L180.59200500000003 467.7951999999999L178.095005 465.53049999999985L175.76150500000006 464.9426999999997L174.62600500000002 464.03579999999977L173.810005 462.83209999999997L173.262005 460.4898499999996L175.00350500000002 459.69664999999964L175.51550500000005 458.8846000000001L176.37500500000002 458.4575000000001L177.01950500000004 454.7702499999997L180.30350500000003 451.9603999999998L182.03200500000003 447.9820000000001L184.114505 446.81600000000003L183.46250500000002 446.18389999999977L179.743505 445.30100000000004L176.50250499999999 441.1637999999999L173.088505 439.5718499999998L172.78650500000003 436.6909499999997L171.23600500000003 434.86875L171.894005 433.58439999999973L173.110505 432.80494999999974L174.19000500000004 431.96140000000014L174.512505 430.0565999999998L174.34700499999997 427.65094999999974L171.737005 426.5139499999998L170.347505 424.00710000000004L171.49100500000003 422.54230000000007L174.708005 421.59929999999974L175.40750500000001 420.9501L175.58600500000006 420.50095L175.55200499999998 420.0189499999999L174.105505 418.76755L173.92400500000002 418.31905000000006L173.88450500000005 417.83705L173.860005 416.3878999999997L174.974505 414.83135000000004L175.17850500000003 413.8927000000001L174.557505 411.5865500000001L174.72350500000005 409.1766000000001L175.43400500000004 408.5908999999998L178.71700500000003 407.9879999999997L178.90150500000004 406.61495L177.52700500000003 404.6483999999998L177.70450500000004 403.74030000000005L183.03200500000003 396.91885000000013L187.10350500000004 394.38859999999977L187.12250500000005 392.95484999999985L186.066505 390.2550500000001L186.126505 388.8076000000001L186.28800500000006 388.34974999999986L188.35800500000005 385.6829499999998L188.83550499999998 384.3090000000001L191.288505 382.0061499999997L191.92200499999998 378.6989999999997L192.55100500000003 377.3965499999997L199.020005 374.1984500000001L200.38050500000003 371.1579999999998L200.73150500000003 370.8240999999998L202.932505 369.8556500000001L204.358505 369.9090000000001L204.65000500000002 369.5226500000001L204.83650500000005 367.59005L204.24750500000002 365.7543499999997L204.12650499999998 362.8445499999998L204.51150500000006 358.00635L208.40900500000004 351.3114999999999L208.88100500000002 347.9485999999997L208.11400500000005 345.1396999999997L205.197505 342.5941999999998L204.281505 343.7119000000001z">
      <title id="t548">Première circonscription de Guyane</title>
      <desc id="d548">Cantons de : Approuague-Kaw, Cayenne I Nord-Ouest, Cayenne II Nord-Est, Cayenne III Sud-Ouest, Cayenne IV Centre, Cayenne V Sud, Cayenne VI Sud-Est, Matoury, Remire-Montjoly, Roura, Saint-Georges-Oyapock</desc>
    </path><path class="circo" id="id-973-02" d="M152.74450499999998 24.589549999999747L145.42100499999998 22.074249999999722L137.89000499999997 18.767549999999744L135.534005 18.453449999999805L131.098005 15.493599999999788L125.05800500000001 12.410499999999729L118.562505 8.180549999999869L116.689505 7.680099999999754L109.95900499999999 3.8268499999998085L105.34800500000001 2.392549999999858L102.96350500000001 1.9697499999998058L95.225505 1.8053999999997927L89.717505 0L87.883005 0.38274999999998727L85.469505 0.2130499999998392L85.07550499999999 1.5933999999998605L79.673505 11.14214999999973L79.16900499999998 13.938999999999737L80.37350500000001 17.43159999999989L80.31300499999999 21.29554999999982L80.68450499999999 23.657899999999756L79.87000499999999 27.459349999999745L78.85300499999998 30.179749999999785L76.11700499999999 32.11014999999975L75.01900499999999 34.265399999999886L72.69300499999999 35.9769L68.69600499999999 41.45764999999983L65.242005 44.79194999999976L63.997504999999975 46.87304999999981L63.46850500000001 48.73394999999988L61.90900499999999 51.1909L61.625505000000004 51.58374999999978L57.91000500000001 54.65224999999975L56.4915 57.185349999999744L54.730000000000004 57.93809999999979L52.87550000000002 60.119849999999815L50.98149999999998 60.414699999999755L48.83999999999999 62.33359999999976L45.76299999999998 63.706049999999834L43.5805 65.6189999999998L42.67349999999999 67.33829999999983L39.73249999999999 70.55869999999999L36.07249999999999 77.38199999999978L34.53899999999999 79.26049999999975L33.9315 81.57189999999986L32.20899999999999 82.41979999999984L31.339999999999986 83.57819999999975L31.400500000000005 85.01909999999981L30.759999999999987 86.31099999999975L30.413499999999996 86.65024999999986L28.001999999999985 88.26309999999978L26.175499999999996 88.87909999999977L25.767499999999988 89.14049999999975L25.134999999999987 89.86614999999972L24.961499999999983 90.32054999999986L24.983999999999984 92.74304999999998L24.499499999999994 94.62169999999986L23.6275 96.88609999999983L22.22199999999999 98.84535L22.367000000000008 101.74584999999979L21.47999999999998 103.40664999999973L21.96299999999999 105.76264999999978L21.43649999999999 109.10274999999984L17.24400000000001 113.59459999999984L16.64699999999998 114.80364999999978L16.778999999999993 115.2697999999998L17.940999999999985 116.0272999999998L18.223499999999984 118.38034999999991L18.22149999999999 126.55054999999976L19.153000000000002 130.7815499999998L18.43300000000001 136.04184999999973L18.465499999999988 136.5256499999998L19.42549999999999 138.19174999999973L19.84 138.4377999999998L20.313999999999997 138.51974999999982L22.22949999999999 138.38434999999976L23.524499999999993 139.7034499999998L22.794000000000008 142.47139999999973L23.636 144.16639999999973L23.935000000000013 146.51149999999973L22.643499999999985 147.8689L22.181499999999996 149.7437499999998L22.710999999999988 151.09459999999984L24.54749999999999 153.30249999999978L25.223500000000012 154.58784999999978L24.815999999999985 157.9425999999998L23.8415 161.15854999999982L23.6285 161.5954499999998L20.663 165.3565999999998L22.868000000000013 173.3110499999998L21.807 177.5144499999999L22.865999999999982 180.71604999999977L21.90050000000001 185.98219999999998L21.958000000000002 186.45689999999973L22.62549999999999 187.03624999999988L24.768999999999988 185.96299999999985L25.221999999999998 185.83135L25.68199999999999 185.93184999999977L27.460000000000004 186.70034999999984L27.860500000000012 186.97074999999984L28.20500000000001 187.31239999999985L28.762999999999987 188.10964999999982L29.06650000000001 189.02169999999984L29.03249999999998 189.50525L28.40349999999999 191.8562L28.1245 194.7634499999998L28.127499999999994 195.24929999999983L28.34950000000001 197.67569999999978L29.480500000000003 199.8012L29.583999999999993 200.76044999999993L28.27399999999999 205.9511999999998L27.856000000000005 208.82214999999974L27.95350000000001 209.2990499999999L29.023999999999983 212.00199999999995L31.79249999999998 212.59929999999997L34.215 214.1539499999999L35.194500000000005 215.23019999999974L36.98949999999998 215.87939999999975L37.586500000000015 216.60454999999985L37.6375 218.06434999999993L34.7565 221.22974999999997L34.48099999999998 222.6590999999999L34.75250000000001 223.5907499999999L33.47099999999999 227.74269999999973L33.350999999999985 230.08689999999973L35.51699999999998 231.00569999999976L38.23349999999999 234.40129999999982L40.313499999999976 238.75049999999987L42.04050000000001 244.79634999999973L42.554 245.61564999999973L43.88350000000001 247.01155L47.354 248.65914999999973L47.28150000000001 250.9905999999998L49.139499999999984 254.92954999999995L50.3185 255.72084999999987L54.1165 256.30689999999987L55.327 257.04424999999986L55.586 257.96239999999983L55.44849999999998 258.4278999999998L54.215999999999994 259.9143499999997L54.138000000000005 260.3929999999997L54.16749999999999 261.85024999999996L54.65899999999999 262.67089999999996L55.93549999999999 263.30704999999966L59.238005 262.6770499999998L63.514505 263.37049999999977L64.893005 264.6727999999996L66.37350499999998 268.21064999999976L67.53900499999999 269.74684999999965L68.429005 272.50564999999995L69.86550499999998 273.7919499999998L70.521005 275.0757999999996L70.51950499999998 276.03759999999966L69.58400499999998 278.2610999999997L70.307005 280.5308500000001L74.00500499999998 282.76129999999966L74.40550499999999 283.6301499999996L74.27550500000001 285.0754999999998L74.442005 285.5302499999999L74.86000500000002 285.77034999999967L77.24000500000001 285.8550500000001L78.56700500000001 283.9224999999999L79.492505 283.68854999999996L80.382005 284.0247499999998L80.72900500000002 284.3605500000001L82.64400499999999 288.24014999999974L83.58550499999998 289.33785L83.66350500000001 289.81605L83.097005 292.65555000000006L81.39800499999998 294.35135L80.57950499999998 296.08205L80.069505 298.9368999999999L81.072505 300.5456499999997L80.07400500000001 303.25319999999977L80.09750500000001 308.09744999999964L78.99350499999998 309.6274999999997L78.50950499999998 311.44475L78.62050500000001 312.4072000000001L79.43600500000001 313.59910000000013L78.67450499999998 315.31475L78.39200499999998 315.70600000000013L76.368505 317.0058L74.854505 318.8821999999999L74.49300499999998 319.2017999999996L73.26600499999999 319.83765000000005L73.90450499999999 322.11964999999964L72.95350499999999 323.7794500000001L72.43550499999999 327.12760000000003L72.61450500000001 328.56425L72.55050500000002 329.0450999999996L72.28950499999998 329.9767499999996L71.65350500000001 331.2755999999996L71.29550499999999 331.5975499999996L70.85750499999997 331.79644999999994L69.429505 331.9840499999998L68.94850499999998 331.98440000000005L67.70050499999998 331.3074499999999L65.447505 333.07860000000005L64.45750500000001 334.71509999999967L62.80750499999998 335.6949499999996L60.84250500000002 338.43590000000006L60.356004999999996 339.7975500000001L59.193005 340.6439999999998L57.715005000000005 343.1234999999998L55.91900000000001 343.65970000000004L55.113 344.85514999999964L53.78649999999999 348.44884999999977L54.07300000000001 349.8005999999998L52.488000000000014 350.79459999999983L52.712500000000006 351.7037499999998L53.48449999999998 352.2123499999998L52.65299999999998 353.31500000000005L52.682500000000005 353.7784499999998L53.00199999999998 354.1286500000001L53.908 354.4052499999998L55.91250000000001 353.4245499999997L56.92649999999999 354.99599999999987L57.59949999999998 357.28324999999984L56.92649999999999 359.0745499999997L56.92649999999999 359.5511499999998L57.550499999999985 361.23965L55.81899999999999 361.9315999999998L55.23249999999999 363.1637999999998L56.5385 365.1368500000001L58.113504999999975 368.66634999999974L58.217005 369.13925000000006L58.208505 369.6222L57.994505000000004 370.5570499999999L56.528499999999994 371.7345L57.348999999999975 374.4659999999999L59.371505 375.5979500000001L59.23000499999999 376.0568999999998L57.901005 376.4105999999998L57.519499999999994 377.29359999999986L57.86750499999998 378.18764999999985L57.52899999999998 378.5287999999997L57.617999999999995 379.9212L57.41300000000001 380.3594499999997L55.685500000000005 381.9227999999998L56.089 383.7727000000001L55.11699999999999 387.00085L55.14750000000001 387.4834499999997L55.58849999999998 388.8578000000001L56.7685 390.3188499999999L56.39349999999999 392.20865000000003L56.22500000000001 392.6639499999999L55.726 393.48599999999976L55.343999999999994 393.7710499999997L53.5385 394.2843499999998L54.173500000000004 398.00639999999987L53.094999999999985 399.57479999999975L52.962 401.47969999999987L51.976 403.14300000000003L51.162499999999994 403.6500000000001L50.67199999999998 404.96910000000014L49.73249999999999 405.1229999999998L49.49049999999998 405.5405999999999L48.38199999999999 406.4628499999998L47.800500000000014 407.6774499999999L46.4165 408.05664999999976L45.704499999999996 408.6987499999998L44.63199999999999 412.37595L44.801500000000004 413.7578500000001L44.05250000000001 414.3328500000001L43.8125 415.7511999999997L43.574 416.16859999999974L40.07350000000001 419.4195500000001L38.68299999999999 421.3796500000001L38.746999999999986 423.2407999999998L36.684499999999986 429.09209999999973L34.661500000000004 431.02809999999977L34.74749999999999 433.43635000000006L33.90949999999998 435.6664999999998L32.82600000000001 436.48590000000013L32.20999999999998 437.69889999999975L31.272000000000002 437.799L30.755 439.61869999999976L30.53700000000001 440.46625000000006L29.219999999999988 440.93394999999987L28.80699999999999 442.7814000000001L27.53400000000001 443.4513499999997L24.9545 446.92385L24.571500000000004 447.2147000000001L21.87900000000001 448.08445000000006L18.55649999999999 447.68370000000004L17.597000000000005 447.7299499999998L17.187499999999982 447.98324999999977L15.737499999999986 450.48509999999965L13.986499999999982 452.11509999999976L13.308499999999999 453.3937499999996L12.34 457.09554999999966L12.768999999999995 460.8461L10.859499999999986 460.9386999999998L10.12649999999999 461.5532999999999L9.243500000000004 461.24844999999993L8.983499999999989 460.38659999999993L7.745999999999995 459.7171499999996L6.015999999999995 458.99659999999983L4.17349999999999 458.66274999999973L1.4989999999999881 459.2154499999998L1.3039999999999985 460.12715000000014L0 461.37564999999995L0.8990000000000009 461.64625L1.4064999999999905 462.44055000000003L2.2414999999999985 462.84164999999973L5.931999999999995 462.0914499999998L8.255499999999998 462.5547L8.591499999999996 462.89019999999994L9.168500000000002 463.6599000000001L8.829499999999992 465.0326000000001L8.826999999999998 465.5115999999998L9.139999999999997 466.41959999999983L9.43299999999999 466.79899999999975L11.172500000000003 467.57074999999986L11.651499999999988 468.36884999999995L11.445500000000006 468.78359999999986L8.232 469.62244999999996L7.80899999999999 469.84530000000007L7.908999999999988 470.2982499999996L8.263499999999997 470.62389999999994L10.713999999999988 472.0554499999997L11.159499999999998 472.22865000000013L13.52199999999998 472.2861999999998L14.174999999999986 472.9719L14.639000000000006 474.77869999999996L16.394499999999983 475.52144999999996L17.433999999999994 477.55254999999977L21.05500000000001 478.72569999999996L23.141499999999997 477.5952000000001L24.092499999999983 477.543L24.845500000000005 478.0638499999998L24.681499999999996 479.48004999999966L24.99599999999999 479.83149999999966L27.36649999999999 479.7455500000001L28.439500000000013 478.78424999999993L28.918499999999998 478.78694999999993L30.251499999999982 478.95429999999976L31.994999999999987 478.1645499999996L32.46799999999999 478.0926999999997L32.845500000000015 478.38919999999973L33.14749999999998 479.24260000000004L32.469999999999985 480.5114499999996L32.30600000000001 481.9252499999999L33.216499999999996 482.97725000000014L35.01599999999998 483.4495999999996L35.068499999999986 485.2968499999997L35.44800000000001 485.5870999999996L35.925 485.6250499999999L38.73649999999999 485.1107999999999L42.36099999999999 486.3580999999999L44.7255 486.7246L47.27600000000001 485.54174999999987L50.5475 486.0028L53.10149999999999 484.73254999999995L56.162000000000006 482.5457L56.623000000000005 485.3696500000001L56.791 485.82155L57.782004999999984 486.8430999999998L57.727005000000005 487.8034500000001L58.479005 488.9096999999998L59.40950500000001 488.94810000000007L60.36100499999998 489.9599999999998L62.074005 490.69860000000006L64.279505 489.84485000000006L66.847005 491.1119500000001L67.18800499999999 490.8930499999997L67.39450499999998 489.49115000000006L69.44050500000002 487.4930499999999L70.21150499999999 483.2548499999996L72.49950499999998 480.1737499999996L72.93150500000002 479.99615000000006L74.576005 480.9337999999997L78.780005 481.6785999999996L79.90300499999998 480.7729999999998L80.918005 479.12904999999967L82.501005 478.16284999999993L84.81400500000001 478.40674999999976L86.10200499999999 476.9793499999997L88.913505 476.84455000000014L89.88800499999998 474.196L89.43650499999998 471.3662999999997L90.27550499999998 468.76554999999996L92.568505 469.2154999999997L92.91050499999999 470.56314999999984L93.64850500000001 471.00059999999985L96.30800500000001 469.14094999999975L96.696005 465.8021500000001L97.16200500000001 464.97694999999965L99.51350499999998 464.96249999999975L100.28400499999998 464.3915499999997L101.26450499999999 465.3235000000001L102.665505 465.50839999999994L103.527505 465.12999999999977L106.194505 464.2064499999998L106.31350499999998 463.7392L105.88950500000001 462.8891999999996L104.044005 462.50765L103.725005 461.6876500000001L106.331505 460.56074999999964L107.16500500000001 458.8787500000001L108.731505 457.78309999999976L110.110005 457.4620999999996L110.70100500000001 456.7123499999997L112.901005 455.8238499999999L114.72850499999998 456.3641000000001L116.147005 456.2977999999998L116.205005 456.9574L115.21350499999998 457.86779999999965L116.94750499999999 458.0984000000001L118.39100499999999 459.36499999999967L118.307005 460.27465000000007L116.82300499999998 461.4665500000001L116.91300499999998 462.86734999999965L115.538005 463.2320999999996L115.29500499999999 463.6496999999997L115.98050500000001 464.85419999999976L117.33050499999999 465.1965999999999L117.943005 464.46259999999995L120.723505 464.96820000000014L122.05800500000001 464.61945000000014L123.355005 466.5312499999999L126.007005 465.73744999999974L127.731005 466.54724999999985L127.57250499999999 467.9585499999996L128.07400499999997 468.7038000000001L132.773505 469.18534999999963L134.591005 468.71015L137.308505 470.60135L138.170505 470.2022999999997L139.117505 470.3152499999999L140.458005 470.7702999999998L142.281505 472.2888999999998L142.581005 471.91269999999975L144.331005 472.39485L145.872505 471.32889999999975L147.751505 471.5744000000001L150.601505 471.24019999999973L152.31600500000002 472.1141499999999L153.739005 472.08005000000014L155.322005 470.97109999999986L156.344005 469.32664999999986L157.758005 467.99609999999973L158.164505 467.7442500000001L160.54200500000002 467.5121999999999L160.965505 467.28939999999966L162.37150499999998 465.3551999999996L163.757005 465.0370499999997L165.90050499999995 463.9650499999999L166.27950499999997 463.66420000000005L167.48000499999995 462.14740000000006L167.56150499999995 460.22749999999974L167.796005 459.81719999999996L168.22050500000003 459.61164999999994L170.076005 459.1388999999998L170.51750500000003 459.32109999999966L170.86800500000004 459.6535499999999L171.438505 460.97469999999987L172.36250500000006 460.7815499999998L173.03000500000002 460.08035000000007L173.262005 460.4898499999996L175.00350500000002 459.69664999999964L175.51550500000005 458.8846000000001L176.37500500000002 458.4575000000001L177.01950500000004 454.7702499999997L180.30350500000003 451.9603999999998L182.03200500000003 447.9820000000001L184.114505 446.81600000000003L183.46250500000002 446.18389999999977L179.743505 445.30100000000004L176.50250499999999 441.1637999999999L173.088505 439.5718499999998L172.78650500000003 436.6909499999997L171.23600500000003 434.86875L171.894005 433.58439999999973L173.110505 432.80494999999974L174.19000500000004 431.96140000000014L174.512505 430.0565999999998L174.34700499999997 427.65094999999974L171.737005 426.5139499999998L170.347505 424.00710000000004L171.49100500000003 422.54230000000007L174.708005 421.59929999999974L175.40750500000001 420.9501L175.58600500000006 420.50095L175.55200499999998 420.0189499999999L174.105505 418.76755L173.92400500000002 418.31905000000006L173.88450500000005 417.83705L173.860005 416.3878999999997L174.974505 414.83135000000004L175.17850500000003 413.8927000000001L174.557505 411.5865500000001L174.72350500000005 409.1766000000001L175.43400500000004 408.5908999999998L178.71700500000003 407.9879999999997L178.90150500000004 406.61495L177.52700500000003 404.6483999999998L177.70450500000004 403.74030000000005L183.03200500000003 396.91885000000013L187.10350500000004 394.38859999999977L187.12250500000005 392.95484999999985L186.066505 390.2550500000001L186.126505 388.8076000000001L186.28800500000006 388.34974999999986L188.35800500000005 385.6829499999998L188.83550499999998 384.3090000000001L191.288505 382.0061499999997L191.92200499999998 378.6989999999997L192.55100500000003 377.3965499999997L199.020005 374.1984500000001L200.38050500000003 371.1579999999998L200.73150500000003 370.8240999999998L202.932505 369.8556500000001L204.358505 369.9090000000001L204.65000500000002 369.5226500000001L204.83650500000005 367.59005L204.24750500000002 365.7543499999997L204.12650499999998 362.8445499999998L204.51150500000006 358.00635L208.40900500000004 351.3114999999999L208.88100500000002 347.9485999999997L208.11400500000005 345.1396999999997L205.197505 342.5941999999998L204.281505 343.7119000000001L202.88900500000005 343.6196000000001L202.401505 342.8014999999999L202.42400500000002 340.38659999999993L201.021005 337.85145L200.978005 335.92870000000005L197.749005 335.0102499999997L196.52750500000002 334.2437000000001L193.16150499999998 328.94045000000006L193.131505 328.45685000000003L195.281005 324.16675L194.23600499999998 319.4623999999999L194.57150500000006 317.0917499999996L195.08900500000004 316.2872999999996L199.118505 313.6468500000001L199.516505 312.7851499999997L198.94100500000002 311.4628499999998L198.99750500000005 309.54309999999964L197.08750500000002 307.4033499999996L196.97500500000004 306.4755500000001L198.388505 303.93849999999986L198.98350499999998 301.61699999999996L201.56100500000002 299.45445000000007L202.607005 297.82794999999965L202.873005 295.43004999999994L202.256505 292.6176499999997L204.13450500000005 290.4785499999997L204.34600500000002 290.0422499999996L204.03200500000003 289.1256499999997L202.761505 288.4299999999996L201.81500499999999 288.46889999999973L199.58450499999998 290.2155499999998L198.25250500000004 289.6544L197.87350500000002 289.3562499999996L197.67950500000006 288.9121499999999L198.81600500000005 285.3200499999997L198.005505 278.5777999999999L197.48450500000004 277.22334999999987L192.81350500000002 271.7127999999997L191.677005 269.0627999999998L188.32300500000002 267.3759000000001L185.282505 263.0268000000001L185.48650500000002 262.09675000000004L185.925005 261.8978499999997L188.300505 261.80489999999963L189.165505 261.38604999999984L190.071505 259.72369999999984L194.208505 255.6564499999999L197.00750499999998 254.97869999999978L197.92100500000004 253.85359999999991L198.163505 251.45374999999973L197.266505 250.33209999999997L195.14500500000003 249.2600999999999L195.64150500000005 247.90019999999998L200.79350500000004 245.22249999999985L202.69000500000004 243.03309999999982L205.501505 242.3834499999998L207.88200500000002 240.03284999999977L210.08000500000003 240.74824999999976L211.623005 238.37654999999984L217.01550500000002 236.24329999999986L218.38350500000004 234.26149999999978L218.629005 232.38774999999976L219.177005 231.6065999999998L221.03450500000002 231.6339499999998L222.408505 231.19444999999985L222.80350500000003 230.92814999999973L223.086505 230.5352499999998L224.22250500000004 228.40254999999985L223.96250500000002 225.13409999999993L227.32850499999998 223.52509999999995L227.001505 221.72079999999994L228.124005 219.06239999999997L229.26551000000003 218.16614999999985L230.67551000000003 217.92079999999999L232.22901000000002 216.14364999999992L234.52951 215.43659999999988L234.67701 213.58089999999976L237.09401 212.03989999999976L237.00301000000002 211.56364999999994L239.31950999999998 211.55549999999977L239.90850999999998 210.8721L239.41751000000005 208.04479999999984L239.96551000000005 206.18059999999986L239.50351000000006 204.84684999999985L239.84651 201.97599999999994L239.45701 200.08444999999995L238.15901000000002 198.71364999999997L239.11101000000002 197.16229999999996L239.66200999999998 194.80294999999984L239.66301 194.31744999999978L239.15601000000004 192.96554999999984L237.09001 190.92034999999981L235.75651 188.89789999999977L235.25401000000002 184.56634999999977L234.44501000000002 183.39594999999974L234.26650999999998 182.9622999999998L234.32601 182.49145L235.76501000000002 178.8809999999998L236.03451 178.4815999999998L236.81651000000002 177.91964999999976L238.60151000000002 177.2195499999998L239.23251 175.4609499999998L241.06551000000002 175.6044L241.68801000000002 173.83224999999982L243.20751 172.7499499999999L242.86501 171.36784999999975L244.46301 169.65574999999973L244.31501000000003 167.72759999999977L244.53751000000005 167.2978999999998L245.96701000000002 167.23079999999982L247.74701 163.3253499999998L249.45401000000004 162.54219999999975L251.05550999999997 159.5895999999999L250.62701000000004 157.72569999999973L251.60101000000003 156.08934999999974L252.67651 155.12054999999975L254.06651000000005 155.25774999999982L255.21601000000004 153.76164999999986L256.09501 153.36944999999986L256.64450999999997 151.11139999999978L256.91701 150.71199999999976L260.00701 147.6663499999998L261.20151 144.54564999999974L263.05701 144.2279499999998L263.42351 143.91519999999986L264.23451 142.72059999999982L264.07201 141.7668999999998L265.90451 141.28059999999977L266.7745100000001 140.12849999999986L266.81601 139.1719999999998L267.74151000000006 138.97029999999972L267.92251 139.4225499999999L269.72501 140.10579999999976L272.08851000000004 139.6196999999998L274.64001 140.97054999999983L276.05501000000004 141.22175L277.23451000000006 142.7397499999998L280.48851 144.84519999999975L283.31151 145.51679999999976L284.47150999999997 146.3682L287.25651 146.97144999999978L287.72551 146.9717L288.12501000000003 146.72504999999973L289.09700999999995 145.0383499999998L289.72151 143.71359999999981L289.88601000000006 143.25679999999977L290.43401000000006 140.4027499999998L293.03001 135.82649999999973L292.77000999999996 133.9174L293.72701 131.20164999999986L294.11101 131.33654999999976L294.56401 132.69864999999982L296.94051 132.93234999999981L298.93401000000006 134.24109999999985L300.57151000000005 133.3056499999998L300.63501 132.82204999999976L299.44501 130.41774999999973L299.21951 127.56844999999998L299.77251 125.25475L299.64451 123.8245999999998L298.53701 123.08894999999978L298.02001000000007 121.77589999999981L296.20451 121.3232499999998L295.69001000000003 119.98679999999979L295.95401000000004 119.63614999999976L297.52551000000005 120.63269999999989L298.40351 120.34444999999977L298.79251000000005 119.03444999999977L298.09501000000006 117.29454999999973L300.31551 114.22804999999983L302.91951000000006 113.13229999999976L303.99001 112.20739999999978L304.15751 111.31244999999979L302.49001 112.1590999999998L300.46651 110.85379999999986L298.43201 108.75909999999976L296.55501000000004 105.92624999999998L295.03801000000004 104.72149999999999L294.64801 103.83124999999978L289.22301000000004 99.80914999999982L280.71101 91.17534999999975L278.01651 89.12044999999978L276.59601000000004 89.05054999999976L276.26101 88.73544999999979L276.33551000000006 87.82339999999976L275.52301 86.74204999999972L274.68550999999997 86.80279999999982L273.25401 86.60929999999979L268.87951 82.81344999999988L265.94701 81.13049999999987L265.72251 80.71239999999989L266.20651000000004 79.41979999999973L264.65451 78.31354999999974L261.13250999999997 74.33679999999981L260.78400999999997 74.00124999999974L253.18300999999997 68.85939999999977L246.80301 62.97059999999988L244.69000999999997 59.77029999999985L241.23100999999997 57.20694999999978L239.41201 56.590249999999855L238.71901000000003 55.90549999999979L238.27001 54.04354999999981L236.40401000000003 51.8501999999998L235.53751 50.11919999999975L233.44301000000002 48.91454999999979L232.71801000000005 47.64719999999983L226.12250500000002 42.8107L225.218505 41.15564999999975L222.67100499999998 39.81704999999977L221.285005 40.00874999999979L219.917505 39.54074999999989L216.576005 39.11709999999999L216.12250500000002 39.23989999999975L215.84900500000003 39.60819999999984L215.865505 40.077L216.805005 41.775799999999776L216.68600500000002 42.209749999999815L216.26400500000003 42.21594999999979L213.73150500000003 39.30429999999973L206.16200499999997 37.61829999999975L200.216005 34.292999999999836L198.07450500000002 32.34024999999974L193.115005 30.46904999999981L180.69450500000002 26.753149999999835L178.598505 24.99434999999977L176.29100499999998 25.653449999999793L175.83700499999998 26.41434999999973L176.59400500000004 26.937899999999786L178.515005 27.099449999999763L179.82750500000003 27.704149999999856L181.28600500000005 28.965649999999812L181.91700500000002 30.25494999999978L179.87050500000004 28.40539999999976L178.58250500000003 27.760249999999758L173.79800500000002 28.19894999999974L173.31750499999998 28.161699999999996L171.10150500000003 27.24599999999981L167.300505 26.573049999999796L161.77200499999998 24.84349999999978L154.080505 24.14194999999978L152.74450499999998 24.589549999999747z">
      <title id="t549">Deuxième circonscription de Guyane</title>
      <desc id="d549">Cantons de : Iracoubo, Kourou, Macouria, Mana, Maripasoula, Montsinéry-Tonnegrande, Saint-Laurent-du-Maroni, Sinnamary</desc>
    </path></svg>