<svg xmlns="http://www.w3.org/2000/svg" version="1.1" xmlns:xlink="http://www.w3.org/1999/xlink" xmlns:svgjs="http://svgjs.dev/svgjs" width="568.354525" height="509.5026999999999" fill="#eeeeee" stroke="#cccccc" xmlns:sodipodi="http://sodipodi.sourceforge.net/DTD/sodipodi-0.dtd"><path class="circo" id="id-974-01" d="M171.76350499999998 107.07224999999994L173.50750500000004 82.72964999999999L161.07150500000003 66.00135000000023L156.381005 49.22869999999989L147.461 34.35414999999978L145.7155 24.00365000000022L164.908005 9.363050000000044L188.23150500000003 2.6366500000000315L205.357505 4.583499999999958L214.425005 0L231.31350500000002 12.025649999999928L248.476005 13.942200000000184L246.218005 28.67705000000001L258.338005 29.665650000000028L250.63700500000004 37.836449999999786L250.35450500000002 46.8930499999999L247.522005 50.07760000000019L245.16250499999998 60.6880000000001L242.23450499999998 64.62294999999983L238.924505 80.33554999999978L235.531005 115.21065000000021L239.72150499999998 125.12159999999994L231.33700500000003 136.20085000000017L224.204505 141.31494999999973L214.47150499999998 126.89090000000022L203.549005 118.26090000000022L171.76350499999998 107.07224999999994z">
      <title id="t550">Première circonscription de la Réunion</title>
      <desc id="d550">Cantons de : Saint-Denis I, Saint-Denis II, Saint-Denis III, Saint-Denis IV, Saint-Denis V, Saint-Denis VI, Saint-Denis VIII</desc>
    </path><path class="circo" id="id-974-02" d="M55.18700000000001 84.7469000000001L63.49649999999998 63.19470000000024L63.571499999999986 53.680100000000266L70.09949999999998 53.09214999999995L96.2485 59.867249999999785L103.93099999999998 55.38225000000011L116.18149999999999 49.92059999999981L123.96399999999998 39.10660000000007L145.7155 24.00365000000022L147.461 34.35414999999978L156.381005 49.22869999999989L161.07150500000003 66.00135000000023L173.50750500000004 82.72964999999999L171.76350499999998 107.07224999999994L203.549005 118.26090000000022L214.47150499999998 126.89090000000022L224.204505 141.31494999999973L224.69100500000002 151.52800000000013L217.80950500000003 158.93439999999998L217.179505 183.06904999999972L210.60350499999998 190.75589999999977L210.65900499999998 194.21330000000012L227.16850499999998 210.97410000000025L215.59200500000003 227.2407499999997L188.84800500000006 241.29774999999995L166.61800499999998 224.32045000000016L156.767505 205.1096000000001L130.803 205.4896500000001L125.45599999999999 201.16820000000018L113.94799999999998 201.26995000000022L88.03649999999999 188.62604999999974L84.7705 183.14705000000004L77.688 183.06474999999978L68.61600000000001 174.33404999999993L61.869 172.18034999999986L57.23149999999998 168.73379999999997L52.90899999999999 172.23884999999996L43.93050000000001 166.31044999999972L29.804000000000013 144.2288000000002L36.610500000000016 141.84334999999976L55.1375 125.78424999999982L55.18700000000001 84.7469000000001z">
      <title id="t551">Deuxième circonscription de la Réunion</title>
      <desc id="d551">Cantons de : Le Port I Nord, Le Port II Sud, La Possession, Saint-Paul I, Saint-Paul II, Saint-Paul III</desc>
    </path><path class="circo" id="id-974-03" d="M218.710505 406.4561500000002L186.73750500000006 413.62540000000024L185.83450499999998 400.49744999999973L194.863005 390.7738499999999L184.20900500000002 387.4918500000001L190.619505 374.7298999999998L183.75750500000004 370.91189999999983L179.129505 359.34320000000014L184.41150499999998 339.0503000000001L201.58800499999998 324.9532499999998L196.076505 314.76945L197.460505 308.01060000000007L181.460005 290.18865000000005L172.88050500000003 271.5059000000002L173.02150500000005 268.96675000000016L171.87800500000003 262.7687500000002L182.59350500000005 247.44809999999973L188.84800500000006 241.29774999999995L215.59200500000003 227.2407499999997L227.16850499999998 210.97410000000025L238.45450499999998 217.60629999999992L255.68600500000002 236.3254999999998L263.76200500000004 247.3300999999998L266.182005 264.25324999999987L284.776005 260.3627499999999L301.39700500000004 259.7141499999998L310.88750500000003 262.7785L326.87951 258.31515000000024L334.81901 264.45794999999976L344.98301 296.68875000000014L359.978025 305.30140000000017L370.388025 306.09725000000026L384.948525 292.1269000000001L407.898475 326.84275000000014L401.82102499999996 335.75424999999996L397.71702500000004 326.1757499999999L386.122025 318.63834999999995L379.858025 321.25114999999994L366.885025 332.67690000000016L356.665525 354.6178500000002L352.604025 374.7959500000002L353.744025 395.3346499999998L333.71650999999997 408.9758499999999L325.26951 420.03559999999993L304.403005 432.6332000000002L290.931505 435.9062L272.12300500000003 420.4784999999998L273.483005 413.64705000000015L262.581505 404.9954500000001L241.28800500000006 377.6242500000001L232.802005 383.07290000000023L218.710505 406.4561500000002z">
      <title id="t552">Troisième circonscription de la Réunion</title>
      <desc id="d552">Cantons de : Saint-Louis III-Cilaos, Entre-Deux, Saint-Louis II, Le Tampon I, Le Tampon II, Le Tampon III, Le Tampon IV</desc>
    </path><path class="circo" id="id-974-04" d="M326.77151000000003 497.5536999999997L313.70500499999997 493.6667L307.04800500000005 494.6411999999998L293.239005 484.7807L260.78500500000007 473.03769999999986L246.89050500000002 472.6902000000001L239.15500500000002 465.8837L225.62300499999998 463.9217000000002L222.560005 462.2316999999998L213.78250500000001 451.53219999999976L193.279505 447.5256999999999L184.14750500000002 442.4272000000002L171.53600500000005 425.94119999999975L186.261005 417.31884999999977L219.026505 408.66829999999993L228.41550500000005 399.10709999999995L233.09000500000002 389.9357500000002L232.802005 383.07290000000023L241.28800500000006 377.6242500000001L262.581505 404.9954500000001L273.483005 413.64705000000015L272.12300500000003 420.4784999999998L290.931505 435.9062L304.403005 432.6332000000002L325.26951 420.03559999999993L333.71650999999997 408.9758499999999L353.744025 395.3346499999998L352.604025 374.7959500000002L356.665525 354.6178500000002L366.885025 332.67690000000016L379.858025 321.25114999999994L386.122025 318.63834999999995L397.71702500000004 326.1757499999999L401.82102499999996 335.75424999999996L401.806525 345.79729999999984L395.80802500000004 357.8586999999999L397.753525 360.61440000000005L424.512025 363.4286500000002L428.063525 387.65210000000025L436.997025 398.22029999999984L432.624525 429.33670000000006L442.905525 455.43920000000014L442.275525 469.45820000000026L448.576525 485.75019999999995L449.096025 492.7981999999997L444.51702500000005 498.12670000000026L427.12902499999996 496.7036999999999L419.411025 503.5946999999999L405.666025 505.03919999999994L396.147025 509.5026999999999L383.46202500000004 504.23119999999983L359.53402500000004 507.69870000000026L339.91801000000004 493.60270000000014L336.45951 494.17869999999994L326.77151000000003 497.5536999999997z">
      <title id="t553">Quatrième circonscription de la Réunion</title>
      <desc id="d553">Cantons de : Petite-Ile, Saint-Joseph I, Saint-Joseph II, Saint-Pierre I, Saint-Pierre II, Saint-Pierre III, Saint-Pierre IV</desc>
    </path><path class="circo" id="id-974-05" d="M277.519005 134.65244999999982L266.97650500000003 126.61799999999971L231.33700500000003 136.20085000000017L224.204505 141.31494999999973L224.69100500000002 151.52800000000013L217.80950500000003 158.93439999999998L217.179505 183.06904999999972L210.60350499999998 190.75589999999977L210.65900499999998 194.21330000000012L227.16850499999998 210.97410000000025L238.45450499999998 217.60629999999992L255.68600500000002 236.3254999999998L263.76200500000004 247.3300999999998L266.182005 264.25324999999987L284.776005 260.3627499999999L301.39700500000004 259.7141499999998L310.88750500000003 262.7785L326.87951 258.31515000000024L334.81901 264.45794999999976L344.98301 296.68875000000014L359.978025 305.30140000000017L370.388025 306.09725000000026L384.948525 292.1269000000001L407.898475 326.84275000000014L401.82102499999996 335.75424999999996L401.806525 345.79729999999984L395.80802500000004 357.8586999999999L397.753525 360.61440000000005L424.512025 363.4286500000002L428.063525 387.65210000000025L436.997025 398.22029999999984L432.624525 429.33670000000006L442.905525 455.43920000000014L442.275525 469.45820000000026L448.576525 485.75019999999995L449.096025 492.7981999999997L444.51702500000005 498.12670000000026L488.84702500000003 489.2746999999997L494.946525 485.82370000000026L508.84552499999995 487.0751999999999L512.329025 486.6206999999997L518.523525 483.28570000000013L534.842525 469.88670000000013L542.5640250000001 458.06370000000015L543.911025 454.7982000000002L540.1005250000001 434.0436999999997L542.946025 409.58545000000015L538.150525 385.6261999999998L540.0280250000001 375.36225L543.664025 357.7168499999999L549.424525 337.97619999999995L558.1760250000001 327.41015000000004L559.404025 313.4885000000003L567.673025 307.83299999999997L568.354525 304.39615000000003L566.822025 283.62685L558.870025 268.1254000000001L546.4165250000001 262.1840500000002L533.2960250000001 250.77234999999973L519.862025 248.45835000000022L505.98552499999994 228.61699999999985L477.535025 193.5755499999999L472.844025 184.1822000000002L472.04852500000004 173.84029999999996L461.807025 159.72590000000025L450.25602499999997 152.32820000000004L444.689025 132.23130000000026L444.684525 105.32679999999971L440.781025 92.07100000000025L428.477525 71.40240000000006L407.957975 89.10844999999995L402.923025 89.75054999999998L396.46102500000006 75.29184999999984L396.057025 61.06809999999996L391.132525 60.111949999999865L393.44102499999997 66.59474999999986L382.448525 80.09624999999971L372.359525 81.94999999999993L348.71451 96.47044999999991L328.26901 120.14499999999998L310.918005 131.7007000000001L297.425005 130.62329999999974L277.519005 134.65244999999982z">
      <title id="t554">Cinquième circonscription de la Réunion</title>
      <desc id="d554">Cantons de : Bras-Panon, La Plaine-des-Palmistes, Saint-André II, Saint-André III, Saint-Benoît I, Saint-Benoît II, Saint-Philippe, Sainte-Rose, Salazie</desc>
    </path><path class="circo" id="id-974-06" d="M231.33700500000003 136.20085000000017L239.72150499999998 125.12159999999994L235.531005 115.21065000000021L238.924505 80.33554999999978L242.23450499999998 64.62294999999983L245.16250499999998 60.6880000000001L247.522005 50.07760000000019L250.35450500000002 46.8930499999999L250.63700500000004 37.836449999999786L258.338005 29.665650000000028L246.218005 28.67705000000001L248.476005 13.942200000000184L261.88550499999997 10.455600000000231L298.56550500000003 22.20404999999971L315.67800500000004 20.027600000000234L329.36051 22.678300000000036L335.45901000000003 25.437299999999823L345.29151 24.135749999999803L371.703525 38.59010000000012L378.39752500000003 38.25550000000021L394.924525 42.856350000000134L412.506975 53.6248999999998L428.477525 71.40240000000006L407.957975 89.10844999999995L402.923025 89.75054999999998L396.46102500000006 75.29184999999984L396.057025 61.06809999999996L391.132525 60.111949999999865L393.44102499999997 66.59474999999986L391.671525 69.62445000000002L382.448525 80.09624999999971L372.359525 81.94999999999993L348.71451 96.47044999999991L328.26901 120.14499999999998L310.918005 131.7007000000001L297.425005 130.62329999999974L277.519005 134.65244999999982L266.97650500000003 126.61799999999971L231.33700500000003 136.20085000000017z">
      <title id="t555">Sixième circonscription de la Réunion</title>
      <desc id="d555">Cantons de : Saint-André I, Saint-Denis VII, Saint-Denis IX, Sainte-Marie, Sainte-Suzanne</desc>
    </path><path class="circo" id="id-974-07" d="M59.1135 326.98784999999987L70.16550000000001 352.91675L95.06700000000001 371.96979999999996L96.30899999999998 376.10400000000027L104.25800000000001 382.57484999999974L106.2805 396.0319499999997L113.022 403.66899999999987L136.9965 407.21299999999985L159.820005 415.19439999999975L171.53600500000005 425.94119999999975L186.73750500000006 413.62540000000024L185.83450499999998 400.49744999999973L194.863005 390.7738499999999L184.20900500000002 387.4918500000001L190.619505 374.7298999999998L183.75750500000004 370.91189999999983L179.129505 359.34320000000014L184.41150499999998 339.0503000000001L201.58800499999998 324.9532499999998L196.076505 314.76945L197.460505 308.01060000000007L181.460005 290.18865000000005L172.88050500000003 271.5059000000002L173.02150500000005 268.96675000000016L171.87800500000003 262.7687500000002L182.59350500000005 247.44809999999973L188.84800500000006 241.29774999999995L166.61800499999998 224.32045000000016L156.767505 205.1096000000001L130.803 205.4896500000001L125.45599999999999 201.16820000000018L113.94799999999998 201.26995000000022L95.40899999999999 190.62925000000007L88.03649999999999 188.62604999999974L84.7705 183.14705000000004L77.688 183.06474999999978L68.61600000000001 174.33404999999993L61.869 172.18034999999986L57.23149999999998 168.73379999999997L52.90899999999999 172.23884999999996L43.93050000000001 166.31044999999972L29.804000000000013 144.2288000000002L26.682499999999987 145.4133999999999L16.191000000000013 145.29645000000016L1.7474999999999952 160.73075000000017L0.10999999999999233 163.87414999999976L0 167.41820000000018L5.532000000000004 180.3609499999999L2.5290000000000035 202.0885499999997L15.010500000000011 218.75945000000002L33.68799999999999 234.64175000000012L35.04399999999998 241.0725500000001L49.5565 259.9837500000001L49.13199999999998 270.54219999999987L63.560499999999976 285.30955000000006L63.971999999999994 306.40805L59.1135 326.98784999999987z">
      <title id="t556">Septième circonscription de la Réunion</title>
      <desc id="d556">Cantons de : Les Avirons, L'Etang-Salé, Saint-Leu I, Saint-Leu II, Saint-Louis I, Saint-Paul IV, Saint-Paul V, Les Trois-Bassins</desc>
    </path></svg>