<svg xmlns="http://www.w3.org/2000/svg" version="1.1" xmlns:xlink="http://www.w3.org/1999/xlink" xmlns:svgjs="http://svgjs.dev/svgjs" width="297.162142240255" height="663.4009515890449" fill="#eeeeee" stroke="#cccccc" xmlns:sodipodi="http://sodipodi.sourceforge.net/DTD/sodipodi-0.dtd"><path class="circo" id="id-975-01" d="M65.81282836062313 0C48.6523283606231 20.19984999999963 13.449828360623108 14.750949999999534 7.66732836062312 43.76504999999952C-3.388671639376888 56.79039999999986 -1.5921716393768826 72.27999999999952 11.893328360623112 80.00405C24.80132836062312 105.17864999999972 20.158828360623122 133.22294999999997 15.345328360623132 159.00594999999953C23.13532836062313 182.5568999999996 12.160328360623112 221.69084999999995 42.706328360623104 231.4399999999995C55.18932836062311 253.90754999999956 64.23532836062313 280.22959999999955 75.2523283606231 304.38244999999995C85.7748283606231 338.99779999999964 90.87882836062312 375.7452999999998 86.22782836062312 411.8082499999997C63.97632836062313 428.06509999999946 80.20432836062311 460.5563999999998 54.45582836062313 473.3801999999997C30.05682836062311 478.57484999999997 18.072828360623117 497.5160999999997 3.3613283606231192 515.1483999999999C-4.370171639376892 520.9730999999999 3.3058283606231065 545.5115499999999 5.875328360623122 544.3633499999999C19.343828360623103 523.8209499999999 53.058328360623136 543.2209499999999 36.4618283606231 566.6910999999999C32.36782836062312 581.5260999999998 35.023828360623114 602.0647499999995 50.079828360623125 585.9027499999996C54.252328360623125 593.9894999999996 66.60282836062314 589.8244999999997 64.09732836062312 604.5457499999998C64.49532836062312 622.1661999999998 87.0513283606231 593.83715 92.92632836062312 589.5761999999996C109.3663283606231 569.8589499999997 131.7083283606231 555.2299999999997 153.12333336062312 541.4529499999998C173.06483336062314 523.8603999999998 199.51233336062316 505.0243499999999 193.33083336062316 474.46934999999996C194.18633336062314 459.2955999999998 180.84233336062312 446.3987499999996 181.66333336062314 432.1886999999998C164.56733336062314 445.4585999999995 156.53683336062312 406.1149499999999 137.0268283606231 425.9943499999997C123.70032836062313 421.51174999999967 109.2538283606231 410.16849999999977 97.35882836062311 400.95459999999946C87.7813283606231 367.77805 93.34832836062313 331.65344999999945 105.94732836062312 300.11775C124.19632836062311 287.33964999999955 101.90782836062313 258.4771999999998 92.73182836062313 283.21234999999945C70.75582836062311 304.5485499999995 66.14882836062313 254.41239999999993 55.8538283606231 242.76029999999992C72.32782836062312 232.21919999999955 99.7303283606231 261.0546499999998 117.25882836062313 240.80854999999985C126.53382836062312 247.00234999999964 126.72782836062312 268.85864999999967 109.55732836062312 274.70154999999977C124.02932836062311 282.7244999999999 139.88132836062312 260.95954999999947 150.9458333606231 252.9007999999999C160.5573333606231 231.3755999999995 163.6863333606231 207.37014999999985 175.1868333606231 186.5029999999996C177.65933336062312 164.0700499999997 177.08883336062314 131.11519999999985 147.2818283606231 128.60839999999996C121.4563283606231 123.81064999999978 97.44482836062312 110.37684999999954 81.67282836062311 89.26979999999958C64.19832836062311 68.09984999999983 30.225328360623127 95.47694999999976 25.573828360623114 60.37854999999979C22.803828360623104 42.07459999999969 50.42932836062312 43.119349999999486 56.8728283606231 26.80029999999988C71.63782836062312 23.86744999999962 70.71532836062312 11.75184999999999 65.81282836062313 0zM282.12733336062314 536.5268499999996C265.3048333606231 534.6667499999995 266.9838333606231 555.4133999999999 284.1043333606231 545.2503999999999C290.92333336062313 543.1680999999998 287.9438333606231 536.1283499999996 282.12733336062314 536.5268499999996zM278.20683336062314 552.7503999999999C250.2153333606231 555.7651999999996 233.09083336062315 575.4083999999995 218.55933336062316 597.4062999999995C211.1843333606231 613.7307499999997 199.12783336062313 632.4526499999996 191.38033336062313 644.0366999999998C204.98283336062315 645.2038499999998 206.53083336062315 648.2143499999995 208.2778333606231 660.2655499999997C222.73933336062314 673.4880499999997 216.57233336062313 640.1443499999999 234.01383336062315 647.5620499999997C245.87533336062313 640.8387999999997 248.72383336062313 634.5917999999995 248.77633336062308 652.72965C253.3958333606231 655.9180999999995 266.78833336062314 652.4704499999996 268.9163333606231 655.6669999999997C266.6963333606231 643.6782 303.0708333606231 652.9427999999996 296.32683336062314 633.2863999999995C280.9888333606232 626.9153 283.6698333606231 609.2500999999999 279.95333336062316 596.2264999999996C299.97033336062316 588.2905 294.6968333606231 561.1540499999995 278.20683336062314 552.7503999999999z">
      <title id="t557">Première circonscription de Saint-Pierre-et-Miquelon</title>
      <desc id="d557">Circonscription unique</desc>
    </path></svg>