<svg xmlns="http://www.w3.org/2000/svg" version="1.1" xmlns:xlink="http://www.w3.org/1999/xlink" xmlns:svgjs="http://svgjs.dev/svgjs" width="444.016025" height="591.9924000000003" fill="#eeeeee" stroke="#cccccc" xmlns:sodipodi="http://sodipodi.sourceforge.net/DTD/sodipodi-0.dtd"><path class="circo" id="id-976-01" d="M14.077000000000002 0L11.14399999999998 0.5875000000003183L0 12.905900000000088L1.1730000000000018 15.252100000000155L14.663500000000003 19.94450000000029L19.35599999999999 29.329250000000116L35.19250000000001 18.18390000000022L34.60600000000001 15.837700000000154L14.077000000000002 0zM132.559505 29.914850000000115L116.72250499999998 34.60725000000025L117.896005 40.47270000000026L104.992 51.6161500000004L100.88600000000001 68.03950000000043L92.67449999999998 75.66555000000051L81.53 74.49245000000019L83.2895 89.74265000000003L68.03949999999999 105.5785000000003L52.78899999999999 102.64670000000024L51.615999999999985 103.81979999999999L39.885000000000005 139.01265000000024L55.72200000000001 140.77134999999998L60.414000000000016 150.15610000000038L37.539 174.20545000000004L37.539 180.0709500000005L76.83749999999998 160.12834999999995L120.828505 155.4359500000004L131.386505 168.34000000000003L170.098505 190.62880000000007L222.30100499999998 204.11845000000028L245.17650500000002 206.46460000000047L285.64851000000004 209.3983000000003L347.23601 191.21624999999995L326.70651 175.37855000000036L312.04301 170.10055000000023L308.52351 165.99379999999996L310.28351 155.4359500000004L306.76401 158.9552500000002L292.68701 151.91665L270.984505 150.74355000000025L250.45550500000004 150.15610000000038L234.61850500000003 135.49335000000042L221.71450499999997 159.5408500000002L211.74350500000003 159.5408500000002L206.464505 149.57050000000038L201.18550500000003 148.9848500000005L188.28150499999998 154.26285000000007L175.377505 147.2243000000003L170.098505 145.46370000000024L174.791005 130.21535000000029L167.75250499999999 115.55075000000045L172.444505 105.5785000000003L152.502005 95.60815000000048L146.050005 80.3579000000002L122.00150500000001 58.06910000000016L112.61700499999998 53.37675000000047L130.800005 39.88520000000051L132.559505 29.914850000000115zM422.900525 202.9472000000004L407.649975 225.82160000000044L396.50552500000003 244.5911000000001L380.66902500000003 239.8987500000004L400.611525 253.9758500000005L420.554025 287.9956000000004L424.660025 272.7454L440.497025 256.9095500000003L441.670025 240.48625000000015L442.256525 239.8987500000004L444.016025 234.6189000000004L434.631525 214.09064999999998L422.900525 202.9472000000004z">
      <title id="t558">Première circonscription de Mayotte</title>
      <desc id="d558">Cantons de : Acoua, Bandraboua, Dzaoudzi, Koungou, Mamoudzou I, Mamoudzou II, Mtsamboro, Pamandzi</desc>
    </path><path class="circo" id="id-976-02" d="M313.67951 407.86519999999996L300.53901 417.2443500000003L285.58901 423.4720500000003L279.39301 438.5740000000004L282.28351000000004 449.05115000000023L293.28101000000004 460.6619500000005L267.09900500000003 458.49035000000015L251.22950500000002 479.0789000000001L254.752505 493.84839999999997L252.65400499999998 498.77940000000024L242.18250500000005 500.20740000000046L238.18850500000002 510.0389000000001L257.639505 540.1229000000001L287.85251000000005 555.6904000000003L287.09251 560.9629000000001L278.28601 568.3709000000005L261.220505 569.7619000000003L248.339005 578.8334000000003L244.63600499999998 562.5919000000005L237.37950500000005 554.4684000000001L226.44650500000006 552.1074000000004L218.96500500000002 560.3584000000001L219.49800500000003 565.9554000000003L220.11700500000003 570.0414000000001L220.400505 575.5919L206.22800500000005 591.9924000000003L195.456005 590.2959000000004L185.21150500000005 577.7894000000003L171.266005 585.5544000000003L167.033505 564.0579000000002L156.441505 562.3759000000001L142.23700499999998 578.3434L138.042005 575.0284000000005L145.52900499999998 537.5684000000001L143.62750499999999 526.6874000000001L138.535505 524.4839000000002L116.50600500000002 538.6459000000002L95.64349999999999 530.8054000000004L118.48400499999998 518.9114000000001L128.689005 507.15239999999994L133.858005 486.02540000000033L131.08800499999998 475.7394000000005L110.717005 474.19290000000046L100.93249999999999 461.8519500000002L83.81849999999999 428.9677500000005L99.966 427.71770000000004L127.95350499999999 430.3285500000004L131.16500499999998 446.54915000000017L137.482505 466.8990500000001L162.57950499999998 476.9539000000003L169.850505 484.8989L170.761005 484.79390000000024L187.09050500000004 489.89390000000014L203.59250500000002 486.0214000000002L216.23000500000003 467.18435L214.593505 461.6492500000004L190.330005 416.2533000000002L180.10800500000002 411.56655L178.604505 408.3851000000004L165.61600499999997 398.86145L146.753005 371.35850000000005L127.55900500000001 361.58525L120.76250499999999 352.39755L123.87650500000001 347.59950000000003L132.814505 340.46520000000044L159.336005 332.2404L138.16000499999998 325.0291500000003L130.703005 318.77139999999997L138.14700499999998 292.68365000000017L129.173505 279.60695000000044L128.33050500000002 268.71875000000045L133.150505 260.9632000000005L147.791005 258.3092000000005L146.52550499999998 253.47230000000025L126.061505 251.79430000000025L122.23400499999998 241.88400000000001L131.330005 229.43795000000023L133.178505 218.69799999999998L126.70700500000001 210.5783500000001L117.06700499999998 216.15850000000023L102.46799999999999 208.30910000000017L91.72449999999999 211.3591500000001L66.9805 188.42280000000017L50.75449999999998 190.58505000000025L37.480500000000006 180.10040000000004L76.8945 160.19720000000007L120.85100500000001 155.55364999999995L131.43900499999998 168.50645000000043L170.08900500000004 190.6920500000001L222.08450499999998 203.8588500000003L245.28150500000004 206.37395000000026L285.79351 209.37710000000038L347.10051 190.93790000000013L347.93751 206.74935000000005L342.41001000000006 222.57015000000024L338.32000999999997 218.65295000000003L338.89651000000003 205.3379000000001L328.78351000000004 223.94220000000018L337.74001 227.26255000000037L345.08251 236.63605000000018L342.0870100000001 238.95970000000034L323.09051000000005 251.43580000000043L310.90351 269.7905000000003L297.31451 279.8772500000001L294.57751 296.18420000000015L285.09901 302.2580000000005L284.70101 302.4494500000003L278.10551000000004 310.3570500000001L279.43801 320.6859000000003L267.108505 330.04440000000045L265.464505 335.0033000000002L270.42150499999997 336.7319500000002L280.40851000000004 339.9059L282.44501 350.5744500000003L294.50101000000006 368.55999999999995L305.01751 371.58375000000035L307.39351 382.35555000000033L323.10001 382.99375L313.67951 407.86519999999996z">
      <title id="t559">Deuxième circonscription de Mayotte</title>
      <desc id="d559">Cantons de : Bandrele, Bouéni, Chiconi, Chirongui, Dembeni, Kani-Kéli, Mamoudzou III, M'Tsangamouji, Ouangani, Sada, Tsingoni</desc>
    </path></svg>