<svg xmlns="http://www.w3.org/2000/svg" version="1.1" xmlns:xlink="http://www.w3.org/1999/xlink" xmlns:svgjs="http://svgjs.dev/svgjs" width="510.92899931394635" height="382.8365408481662" fill="#eeeeee" stroke="#cccccc" xmlns:sodipodi="http://sodipodi.sourceforge.net/DTD/sodipodi-0.dtd"><path class="circo" d="M255.65623413574463 0.07455388928406137C245.99543413574466 -1.2754461107158477 217.49428413574464 16.108053889283838 232.43278413574467 19.85555388928333C245.86503413574468 19.30955388928396 257.0015841357446 11.782553889283918 253.99603413574468 2.9535538892832847L256.2216341357447 0.7300538892832265L255.66188413574466 0.07455388928406137L255.6595341357447 0.07405388928305001zM161.82213413574465 2.7565538892838504C156.0340341357447 8.167053889283125 158.65233413574464 22.901553889283832 146.21208413574465 11.795553889284065C132.78308413574464 6.070553889284156 141.09563413574463 53.50255388928417 117.94793413574467 34.87555388928399C105.03973413574468 37.501053889283185 108.89813413574466 54.89105388928351 94.20493413574465 59.920053889283054C101.99293413574466 69.8615538892841 98.51633413574464 85.22205388928342 88.96698413574467 92.05455388928385C80.55613413574466 95.79605388928371 71.64598413574467 105.0080538892837 62.46258413574466 97.58905388928383C45.045784135744675 97.25355388928392 63.895784135744655 61.55805388928343 45.93278413574467 80.71855388928384C37.00633413574465 96.00055388928354 25.105684135744646 76.4000538892833 13.110034135744648 80.39105388928306C-3.000115864255335 83.48105388928388 -5.818365864255348 104.59905388928405 13.472784135744647 105.70205388928343C22.496534135744675 124.04805388928366 34.49733413574467 94.41305388928413 46.530684135744664 92.52555388928386C59.159734135744664 96.45505388928314 58.55158413574465 111.67205388928323 71.38208413574463 107.51755388928359C85.63503413574466 109.28705388928392 77.46363413574464 96.50305388928359 88.51573413574468 99.9450538892836C92.90503413574467 95.25455388928322 89.85053413574465 122.4515538892831 80.35648413574467 112.6990538892835C78.09738413574465 127.35005388928357 102.25788413574466 124.27605388928328 108.64378413574468 115.35605388928388C114.86248413574465 109.77555388928408 120.10543413574467 100.93305388928343 126.97613413574466 97.4145538892833C137.64563413574464 99.49205388928362 148.2503841357447 101.67005388928374 156.96418413574463 108.65705388928404C168.38733413574465 110.9945538892839 181.33078413574466 105.44005388928326 192.42993413574467 108.59505388928369C206.52693413574468 120.64255388928359 197.60218413574464 89.82855388928328 198.86158413574464 86.68205388928413C193.68013413574465 99.9775538892834 182.06843413574467 78.66655388928393 192.96323413574464 75.1805538892836C211.31123413574466 63.59155388928343 187.41613413574464 65.36755388928327 185.45383413574461 53.96155388928378C181.72983413574462 47.37605388928387 178.17943413574469 34.26505388928376 183.09843413574464 29.193053889283647C200.40263413574465 24.529553889283306 187.29513413574466 -5.611946110716417 169.78883413574465 3.1510538892837303C167.13518413574462 3.197053889283552 164.47678413574465 2.6050538892832265 161.82123413574465 2.7525538892837176zM399.9281391357447 304.7935538892841C387.9135391357447 307.1930538892832 402.6455891357447 320.0925538892841 387.6924391357446 317.2205538892831C389.98633913574463 320.0835538892841 399.10143913574467 324.4080538892831 404.7026391357446 330.51055388928376C411.85308913574465 337.16905388928353 421.6313391357446 341.84955388928415 423.98528913574467 352.0815538892839C412.4787891357447 352.6995538892834 425.7558891357446 364.91805388928356 428.8651391357447 369.7405538892838C435.49398913574464 384.33305388928375 445.8588391357447 387.22705388928375 452.0180891357446 375.908053889284C459.3686391357446 390.86755388928395 469.54463913574466 359.6045538892838 477.5082891357446 378.7650538892831C481.4720891357447 370.3860538892832 484.3524391357446 361.0805538892839 494.4889891357446 358.9795538892838C501.75953913574466 349.89255388928314 509.2167891357446 368.22955388928335 508.5869391357446 351.9020538892835C510.47313913574465 343.227053889284 514.8608891357447 324.30505388928395 502.7235891357447 339.8500538892836C504.2474891357447 322.8625538892834 492.3133391357447 342.4575538892839 493.0236391357446 328.2735538892837C483.31828913574464 334.0140538892831 484.10008913574467 331.35755388928374 484.1585391357446 322.17155388928404C475.7888891357447 327.73505388928356 474.47323913574473 312.38105388928375 469.55233913574466 328.73155388928353C466.1391391357447 340.37105388928353 448.6157891357447 333.693553889284 443.5832391357446 343.47455388928324C437.3591391357446 334.2800538892834 432.20778913574463 324.00855388928335 425.1115391357447 315.65105388928373C410.0694391357447 319.5970538892834 405.1136391357446 320.78605388928395 399.9281391357447 304.7935538892841z" id="id-977-01">
      <desc id="d977">circonscription unique</desc>
      <title id="t977">Circonscription unique de Saint-Barthélemy et Saint-Martin</title>
    </path></svg>