<svg xmlns="http://www.w3.org/2000/svg" version="1.1" xmlns:xlink="http://www.w3.org/1999/xlink" xmlns:svgjs="http://svgjs.dev/svgjs" width="552.0637782175553" height="488.94289374341946" fill="#eeeeee" stroke="#cccccc" xmlns:sodipodi="http://sodipodi.sourceforge.net/DTD/sodipodi-0.dtd"><path class="circo" id="id-986-01" d="M203.6495532503828 0.17278024975553308C197.0821032503829 18.465780249755426 190.60462825038286 42.199780249754895 199.40444825038284 62.45528024975442C203.29706825038286 86.84928024975534 210.08944825038284 111.86878024975499 215.78206825038285 134.94678024975542C219.36235325038282 151.62528024975472 214.5701382503828 183.59978024975476 237.35828325038284 182.40828024975485C240.0824532503828 195.5247802497547 235.47534325038285 201.4347802497548 242.98631825038285 217.16478024975459C253.04395325038286 231.88928024975553 269.18773825038284 234.96028024975544 277.90411825038285 247.31078024975545C286.69604825038283 247.89778024975476 296.7182982503829 254.3807802497554 299.47289325038287 241.4902802497545C317.61320825038285 243.0367802497551 339.1608582503829 253.5877802497555 355.8843182503829 242.87178024975447C372.4158682503828 231.29078024975456 385.4359182503828 260.0582802497547 406.5009182503828 251.47578024975473C421.77666825038284 256.8657802497546 451.1970182503828 241.71628024975462 444.7772682503828 230.29628024975523C424.06016825038284 238.4617802497553 419.5265182503829 209.35328024975547 402.18916825038286 205.08128024975463C390.7768182503828 202.4492802497548 389.5408682503828 198.8417802497554 377.92021825038285 196.38178024975446C361.7908682503828 178.44878024975515 352.13966825038284 158.97378024975524 339.7035582503828 137.91878024975517C322.2639082503829 120.23628024975551 323.17080825038283 106.94528024975511 307.8230082503828 89.44578024975499C308.11505825038284 79.76778024975488 295.7788832503829 77.26428024975462 293.1538832503828 64.90228024975522C277.9065182503828 67.81328024975551 275.83574825038284 43.22128024975541 258.40947325038286 48.52678024975489C244.39133325038284 45.76828024975498 252.1108832503828 20.7632802497551 239.52106325038287 20.218780249755355C229.02971825038287 46.02078024975526 218.5642782503828 -3.259719750244585 203.6495532503828 0.17228024975452172zM98.63610325038286 0.4772802497552675C93.00855825038285 17.03278024975475 68.58330825038286 18.464280249754665 69.74069825038286 40.52728024975522C56.74413325038286 56.235780249754725 60.046648250382844 75.94878024975515 56.32026825038287 94.92478024975526C53.09389325038288 117.03828024975451 48.229808250382874 138.29528024975502 47.17764325038287 160.5882802497547C54.33405325038285 179.34378024975445 54.99001325038287 208.2797802497555 47.16137325038288 225.61628024975448C46.30000825038286 245.72728024975504 19.655523250382867 243.09928024975534 11.041423250382874 255.87828024975465C-14.936126749617138 266.61578024975483 15.113783250382848 299.7112802497554 0.24176325038286706 319.75278024975523C2.0272882503828527 335.24978024975553 4.306638250382857 354.8597802497545 20.139183250382846 353.66128024975524C24.680438250382846 358.03178024975523 35.26346325038284 346.0062802497555 30.347518250382866 361.3762802497547C33.76693325038288 375.46578024975474 50.23545825038285 376.60178024975494 45.90831825038285 378.08728024975494C56.63410825038285 364.2312802497554 40.82771825038287 405.8942802497552 60.36081825038286 406.4097802497554C63.27611325038285 422.63178024975446 70.21919325038284 448.8697802497552 60.48772325038287 457.6817802497544C43.79426325038287 446.69728024975484 71.67748825038286 465.5352802497555 63.48469325038286 476.52428024975507C67.03707325038286 461.3137802497545 68.68666325038285 478.4682802497548 70.90064825038284 481.2897802497548C77.99967325038287 469.92478024975526 92.18136325038286 504.9817802497546 93.14774825038286 479.30928024975515C98.15553825038288 466.09828024975513 104.86001825038285 446.8762802497554 112.89133825038286 462.68578024975454C122.09489325038285 460.57978024975455 130.92009325038285 494.6552802497547 139.01515325038287 470.36378024975534C158.80807825038286 464.0602802497551 145.55831825038288 432.09428024975523 128.77033325038286 441.1947802497548C116.71273825038286 427.63028024975483 138.20471325038287 408.7837802497552 119.60358825038286 413.1877802497547C121.46004825038284 396.17928024975527 130.45388325038286 385.28428024975483 123.04158825038287 371.0187802497546C126.48780825038286 352.49278024975524 134.91265325038287 342.4277802497545 126.51290325038288 325.42678024975544C129.29588325038287 311.5132802497544 141.75103325038287 335.3057802497551 140.39889325038286 315.4042802497554C134.05669825038285 293.2237802497548 134.71928325038286 271.3562802497552 146.62337825038287 248.38328024975453C149.78088825038287 237.04528024975502 161.18228325038288 244.2867802497551 162.50334825038288 245.7722802497551C150.69606325038285 226.06228024975508 172.7678532503828 200.80728024975542 174.96565325038284 179.11678024975458C168.90406825038284 164.1097802497552 174.25340325038286 136.65378024975553 157.81725325038286 127.48778024975536C141.33037825038284 118.90078024975537 139.31435325038285 90.93078024975512 141.00738325038287 73.31678024975531C128.89235325038288 69.86828024975466 135.44280325038284 31.512280249754667 120.38546825038287 26.491780249755266C110.93571325038285 17.182780249754614 104.59750325038287 2.4712802497549546 98.87461825038285 3.6147802497544035L98.63830325038285 0.4772802497552675L98.63939825038285 0.477780249755142zM469.82146825038285 294.8997802497547C455.8172682503828 303.29928024975516 438.67556825038287 304.9162802497551 430.78926825038286 321.7262802497555C414.7663682503828 338.70278024975505 406.86926825038285 370.40078024975514 414.89531825038284 389.930280249755C422.61996825038284 404.79928024975493 445.8356682503828 383.33428024975547 455.05221825038285 406.49878024975465C460.3111182503829 419.830780249755 458.87836825038283 436.1312802497548 472.2883182503829 438.2632802497551C483.69651825038284 416.1822802497545 500.0557182503828 396.8152802497548 515.9173182503829 377.38078024975493C524.8670682503829 366.42178024975465 559.3903682503828 353.07778024975505 550.6617182503829 340.96028024975453C544.4740682503827 317.7137802497555 516.3467682503829 344.7257802497552 503.0012182503828 324.4802802497554C498.32636825038287 309.599780249755 497.03956825038284 293.5122802497551 478.45141825038286 296.78778024975486C475.5813182503829 295.999280249755 473.01961825038285 293.85428024975454 469.82146825038285 294.8997802497547z">
      <title id="t560">Première circonscription de Wallis-et-Futuna</title>
      <desc id="d560">Circonscription unique</desc>
    </path></svg>