<svg xmlns="http://www.w3.org/2000/svg" version="1.1" xmlns:xlink="http://www.w3.org/1999/xlink" xmlns:svgjs="http://svgjs.dev/svgjs" width="905.2558904006546" height="472.59268949084117" fill="#eeeeee" stroke="#cccccc" xmlns:sodipodi="http://sodipodi.sourceforge.net/DTD/sodipodi-0.dtd"><path class="circo" id="id-987-01" d="M166.49668234968658 0C153.96668234968644 8.164999999999054 138.3527323496864 8.333999999999833 124.68228234968649 11.521499999998923C107.26398234968656 13.189499999999725 122.52903234968642 32.39549999999895 113.65768234968641 40.2254999999991C109.88328234968634 33.34999999999923 113.72798234968656 17.230499999999438 103.11518234968645 14.64399999999955C88.25013234968651 10.86999999999989 76.63918234968648 20.234499999999116 75.44328234968646 35.75399999999945C78.63228234968645 42.36400000000003 84.1971323496864 62.59999999999991 74.02843234968643 46.78049999999985C73.2041323496864 30.913999999999078 58.23923234968646 20.964999999999918 44.331332349686505 23.340999999999212C33.428332349686514 20.971999999999298 30.703082349686497 23.34549999999922 20.394682349686377 23.141999999999143C11.434882349686433 22.273500000000013 7.285082349686434 30.056999999999334 14.435432349686437 20.062999999998965C14.523332349686484 12.294499999999289 -7.542917650313541 24.028999999999314 2.7245323496865126 27.61949999999956C13.456282349686433 26.16449999999986 -0.914967650313514 49.840999999998985 9.676232349686416 56.72199999999975C11.375832349686448 66.83999999999969 19.109332349686383 78.06499999999915 27.049232349686463 85.21799999999985C39.26423234968638 94.10349999999994 54.20928234968642 99.46100000000001 59.03083234968648 114.12049999999908C63.26888234968649 128.03099999999972 79.86693234968641 123.76549999999952 81.17023234968642 137.0569999999998C89.3160823496865 138.59499999999912 91.0604823496864 128.835499999999 92.30358234968648 138.8519999999994C99.09503234968639 148.88099999999895 120.89718234968643 143.42199999999934 133.17983234968636 142.7189999999996C132.77558234968637 133.68849999999952 146.04618234968655 130.7344999999998 145.40218234968648 118.06099999999901C151.57183234968642 113.72849999999971 149.8425823496865 97.60699999999929 155.88793234968648 93.70199999999954C169.71128234968631 88.23350000000005 174.6240823496865 74.04349999999909 166.89423234968643 61.082999999999856C171.58558234968638 54.826499999999214 175.71168234968638 44.915999999999485 179.11083234968658 36.847999999999956C182.98663234968643 31.36199999999917 202.89578234968644 27.125499999999647 187.15578234968632 19.96349999999893C176.7426823496865 16.398499999999103 178.04083234968658 2.5634999999999764 166.49683234968649 0zM471.0169823496864 49.859500000000025C464.0100323496864 52.66750000000002 455.76903234968654 62.28250000000003 448.6696823496865 54.9249999999995C442.8967823496865 63.763999999999896 429.10833234968635 49.61649999999963 423.24333234968634 60.38749999999936C413.6184323496863 57.54449999999906 398.03938234968655 63.16049999999905 393.75128234968656 68.08399999999892C410.94603234968645 74.17349999999942 379.4860323496866 83.41849999999909 400.2006823496865 87.00599999999895C413.66678234968646 96.45649999999932 427.1929323496863 106.07899999999972 442.9090823496864 111.5384999999992C453.54663234968655 112.75800000000004 462.6346323496864 137.10899999999924 469.0305323496864 120.47699999999963C477.6090823496864 109.96399999999994 483.7135323496864 96.77349999999933 480.7041323496864 82.81399999999962C478.40178234968647 71.44999999999982 476.2722823496864 60.269499999999425 471.0169823496864 49.859500000000025z">
      <title id="t561">Première circonscription de la Polynésie Française</title>
      <desc id="d561">Communes de : Anaa, Arue, Arutua, Fakarava, Fangatau, Fatu-Hiva, Gambier, Hao, Hikueru, Hiva-Oa, Makemo, Manihi, Moorea-Maiao, Napuka, Nuku-Hiva, Nukutavake, Papeete, Pirae, Pukapuka, Rangiroa, Reao, Tahuata, Takaroa, Tatakoto, Tureia, Ua-Huka, Ua-Pou</desc>
    </path><path class="circo" id="id-987-02" d="M858.0335823496864 472.3474999999996C841.9582323496866 468.7284999999997 829.1058823496866 469.3489999999997 816.3583323496866 459.73649999999907C800.3237823496863 454.8359999999991 785.7140823496866 453.0179999999996 768.6839823496865 451.67749999999955C761.6004323496863 442.4084999999991 745.5382323496863 439.90049999999997 740.6655823496865 429.66549999999984C731.9876823496863 418.05799999999977 719.2373323496863 411.32999999999925 712.9012323496863 402.29150000000004C719.9891823496864 387.6554999999996 711.4178323496865 367.508499999999 698.5787323496866 357.43299999999977C694.9624823496865 354.067 698.7702823496863 338.3249999999998 685.6341323496863 333.3699999999999C691.0578823496866 322.19049999999925 656.7946823496866 314.93499999999926 680.8839323496863 307.75949999999966C692.2115323496865 308.3974999999998 677.5603323496864 297.06899999999905 676.0284323496865 296.43899999999917C667.4955823496864 306.32499999999936 661.5482823496865 304.9644999999998 663.9540323496865 319.5339999999999C656.4800823496864 328.1224999999995 639.6301823496865 336.69449999999983 627.5993323496866 332.72299999999973C616.8153823496866 334.1044999999997 601.5970323496865 331.40499999999975 599.5867323496864 345.25199999999927C585.5729823496864 346.80349999999976 572.4259323496864 349.8154999999997 556.3704323496864 349.32500000000005C544.7848323496864 346.2504999999999 535.2805823496865 365.163 523.3506823496864 355.927999999999C505.82298234968647 363.66199999999935 505.8057823496864 340.1694999999995 487.24488234968646 342.4154999999996C472.5344823496866 339.2604999999992 459.6240823496865 336.4099999999996 449.24213234968647 328.94899999999893C434.45298234968647 327.4059999999997 421.6605823496863 328.3794999999998 409.45508234968656 322.0034999999996C391.77133234968636 316.84549999999945 389.53798234968644 304.9244999999996 388.4468823496866 287.54899999999907C381.9288823496865 269.6659999999997 388.2093823496865 247.96149999999898 374.5468823496864 232.48649999999998C373.5661323496865 216.99299999999994 351.7825323496865 196.03449999999953 353.8035323496865 189.55549999999903C376.4128823496864 190.14799999999923 405.51488234968645 186.51700000000005 416.34618234968656 163.48299999999995C420.7934323496863 144.89499999999907 444.3753323496864 151.06499999999983 457.29483234968654 145.52499999999895C465.7538823496864 137.45899999999892 464.6719323496865 124.49349999999981 473.57793234968653 116.28549999999905C487.74858234968633 99.75349999999935 481.33163234968634 77.08249999999907 476.1202823496865 58.5534999999993C459.7058823496863 42.34649999999988 491.0211323496864 39.85050000000001 483.29068234968645 23.60749999999939C497.72553234968655 24.254499999999553 510.2310323496866 42.76549999999929 526.1016323496864 36.47299999999973C542.4027823496865 41.16749999999911 560.9373823496865 32.68899999999917 574.0747323496864 45.07949999999937C590.6831323496865 44.99149999999986 603.5809823496866 56.95449999999937 614.9883823496864 67.98999999999978C631.7504323496865 78.4764999999993 656.4321323496864 69.25749999999994 670.3143823496864 88.05599999999913C671.0753823496864 103.23049999999967 688.0843823496864 107.01049999999896 694.7872823496866 118.65099999999984C696.2618823496865 130.45249999999896 698.3989323496866 134.52299999999923 704.0192823496864 148.70349999999917C708.5805823496864 165.0974999999994 698.8379823496865 183.47499999999968 695.4421323496865 197.6929999999993C689.2667323496863 210.66649999999981 696.5247823496863 227.49199999999973 704.0038323496865 236.54999999999973C704.0741323496866 254.64449999999943 695.7249323496865 278.7779999999998 708.1364323496865 293.205999999999C727.3944323496863 297.18599999999924 748.9652323496864 315.1814999999999 768.8103823496865 301.3104999999996C781.5872823496863 304.0739999999994 798.1863823496863 299.384 804.1546323496866 312.6204999999993C819.7659323496864 307.097 827.0033323496864 324.9299999999994 845.5955323496863 321.2849999999992C856.6238323496864 326.9814999999994 860.2818323496865 318.9229999999998 864.8206323496865 312.8024999999991C867.7512323496865 329.84399999999937 888.9316823496864 334.8829999999998 897.0970323496865 351.6059999999993C904.9936323496865 358.3324999999991 901.6452823496866 377.9309999999998 903.2079323496864 386.0089999999991C899.0043823496865 395.3324999999995 911.5399323496865 407.59950000000003 900.7506823496865 419.71000000000004C901.2673823496866 432.1879999999999 895.9591323496863 443.2644999999991 888.1467323496863 452.0234999999991C887.4296323496865 462.5014999999996 868.7957323496863 474.4614999999999 858.0335823496864 472.3474999999996z">
      <title id="t562">Deuxième circonscription de la Polynésie Française</title>
      <desc id="d562">Communes de : Hitiaa O Te Ra, Mahina, Paea, Papara, Raivavae, Rapa, Rimatara, Rurutu, Taiarapu Est, Taiarapu Ouest, Teva I Uta, Tubuai</desc>
    </path><path class="circo" id="id-987-03" d="M389.7719323496864 81.7414999999994C384.66968234968647 83.97499999999923 379.09388234968645 84.9294999999995 373.8846323496864 83.31500000000005C368.15068234968635 82.88099999999986 364.5965323496864 88.97699999999986 359.67738234968635 91.176999999999C357.40418234968644 94.90399999999909 354.82473234968637 92.77499999999918 351.6670823496864 92.23149999999919C346.00923234968633 90.89799999999968 350.7109323496866 101.90399999999954 344.43358234968656 101.68299999999931C338.61613234968644 106.31149999999934 351.12993234968656 109.49599999999919 346.74548234968654 114.30149999999912C342.40898234968654 110.35849999999982 342.0845323496866 118.35199999999986 345.47473234968635 119.28499999999985C343.20868234968657 122.79499999999985 348.7473323496866 125.83399999999983 346.6909823496866 130.0114999999994C348.6970823496864 134.81799999999907 350.92168234968653 139.11149999999907 351.86038234968635 144.33849999999893C352.64778234968645 149.10049999999956 348.65508234968644 152.57199999999898 350.4595823496865 157.6954999999998C349.64583234968643 161.1424999999997 350.8692323496865 164.56899999999905 347.0625323496864 166.66099999999915C350.49878234968645 169.81149999999957 347.49473234968633 175.16449999999963 351.6783323496864 177.42349999999988C353.7743823496865 181.75949999999943 345.49233234968654 189.96649999999931 353.56033234968635 188.36299999999937C361.19278234968647 188.18699999999922 368.9022323496866 188.59299999999962 376.4752823496863 187.5999999999999C381.56488234968634 186.48699999999963 386.6205823496864 185.07049999999936 391.36003234968655 183.0499999999995C395.75503234968636 182.32749999999896 399.4327823496863 179.38549999999964 403.20528234968634 177.45349999999917C407.30518234968656 174.33449999999993 411.03863234968657 171.02800000000002 413.17728234968655 166.2704999999994C416.5178823496865 162.3174999999992 416.5894323496863 156.1979999999994 420.8584323496865 153.15449999999942C425.41938234968654 149.92999999999938 431.05833234968657 148.4839999999997 436.6132323496865 148.30449999999928C441.62038234968634 147.5204999999994 446.53223234968635 146.21599999999944 451.6893323496865 146.3074999999992C456.3928823496863 146.25499999999988 459.2945823496865 141.97949999999992 461.4726323496865 138.45399999999927C463.3310823496865 135.74599999999919 463.0315323496865 131.5089999999998 462.00518234968655 128.6794999999995C458.9868823496863 125.8319999999992 457.11858234968645 121.89300000000003 453.6130323496863 119.52699999999936C448.9610323496865 117.44100000000003 445.2185323496863 113.78150000000005 440.5125323496864 111.94599999999923C436.05653234968656 110.15249999999924 431.85523234968656 108.26249999999959 427.61293234968633 106.07499999999959C422.21618234968645 104.27049999999895 417.9502823496864 100.40949999999953 413.06603234968634 97.65699999999924C408.9477823496864 93.6794999999995 403.76978234968647 91.26699999999914 399.2069323496864 87.99849999999992C396.0695323496864 86.14299999999957 392.06938234968646 84.35349999999971 389.77138234968635 81.7414999999994z">
      <title id="t563">Troisième circonscription de la Polynésie Française</title>
      <desc id="d563">Communes de : Bora-Bora, Faaa, Huahine, Maupiti, Punaauia, Tahaa, Taputapuatea, Tumaraa, Uturoa</desc>
    </path></svg>