<svg xmlns="http://www.w3.org/2000/svg" version="1.1" xmlns:xlink="http://www.w3.org/1999/xlink" xmlns:svgjs="http://svgjs.dev/svgjs" width="726.3180756108427" height="561.4104999999995" fill="#eeeeee" stroke="#cccccc" xmlns:sodipodi="http://sodipodi.sourceforge.net/DTD/sodipodi-0.dtd"><path class="circo" id="id-988-01" d="M389.01577561084275 32.73400000000038C389.01577561084275 21.822499999999536 389.01577561084275 10.911499999999705 389.01577561084275 0C370.88357561084274 0.38999999999987267 355.77157061084273 14.221499999999878 336.2765706108427 12.898999999999887C335.4590206108427 29.75349999999935 323.0618206108427 41.80550000000039 326.3941206108427 59.63049999999953C323.8142206108427 70.49800000000005 339.10357061084267 63.496999999999844 345.42047061084276 65.46799999999962C359.95217061084276 65.46799999999962 374.4839256108428 65.46799999999962 389.01577561084275 65.46799999999962C389.01577561084275 54.55699999999979 389.01577561084275 43.645500000000084 389.01577561084275 32.73400000000038zM559.9525256108428 170.78599999999938C560.1750756108428 146.0220000000004 553.5081756108427 123.03300000000036 545.8334756108427 99.99900000000025C531.2601756108428 91.4530000000002 520.9627256108427 77.72199999999998 501.3782256108427 82.5464999999997C489.23292561084276 78.68150000000014 491.1235256108427 88.8519999999994 491.4874256108427 97.49599999999987C491.4874256108427 116.6560000000004 491.4874256108427 135.81549999999993 491.4874256108427 154.97549999999933C503.12372561084265 164.55749999999966 513.8608756108428 179.2565000000002 530.9468256108428 175.90400000000045C539.6031756108428 174.05200000000036 555.2684756108428 178.99049999999988 559.9525256108428 170.78599999999938zM723.8529256108427 283.54100000000017C725.1825256108427 259.7365000000002 725.5279756108426 235.88700000000017 726.3180756108427 212.0595000000003C709.9988756108427 208.75549999999976 692.5995756108426 205.79650000000015 677.4630256108426 215.10700000000043C667.8438756108426 216.93849999999998 663.0384256108426 222.25299999999947 664.6726756108427 232.22650000000044C663.6210256108427 246.26049999999964 662.5683756108426 260.29449999999997 661.5160756108426 274.3285000000003C672.6982756108428 287.0550000000003 689.4150256108426 288.37350000000015 705.2823256108427 285.29699999999934C711.4714756108426 284.73100000000045 717.6909256108427 284.36199999999985 723.8529256108427 283.54100000000017zM519.9517256108427 518.1799999999998C519.9517256108427 507.78599999999983 519.9517256108427 497.3919999999998 519.9517256108427 486.9984999999997C502.2312256108427 484.0644999999995 484.30772561084274 482.7340000000004 466.4270256108427 481.19299999999953C472.8738256108427 497.22800000000007 474.57587561084273 516.1865 486.5002756108427 529.2075C499.00212561084277 531.7054999999993 523.9803756108428 563.3314999999993 519.7735256108426 535.5825000000004C519.9036256108427 529.7829999999999 519.9507256108428 523.9814999999999 519.9523756108428 518.1799999999998z">
      <title id="t564">Première circonscription de la Nouvelle-Calédonie</title>
      <desc id="d564">Communes de L'Ile des Pins, Lifou, Maré, Nouméa, Ouvéa</desc>
    </path><path class="circo" id="id-988-02" d="M620.2755756108427 557.7104999999995C630.4029756108426 557.7059999999994 640.5304256108427 557.6980000000003 650.6578256108426 557.6935000000003C650.4532256108427 542.3299999999995 653.9764756108427 526.4369999999997 650.1637256108427 511.4625000000001C636.8715756108427 484.90049999999997 601.5256756108428 495.76799999999935 587.3627756108427 467.1584999999993C556.2576756108426 462.5159999999994 548.1469756108427 426.8190000000004 521.7120756108427 414.8644999999999C498.7011256108427 396.1299999999994 465.6797756108427 397.05100000000016 450.9141756108427 368.48550000000046C442.4381756108427 349.9739999999997 417.9995756108427 365.53549999999973 407.54882561084275 354.3859999999995C387.5577756108427 326.66349999999966 365.5212756108427 294.2904999999996 329.99932061084274 287.2834999999998C302.0948206108427 286.5459999999996 300.19067061084274 248.99850000000015 287.43687061084273 230.11049999999955C281.2085206108427 215.96000000000004 274.98032061084274 201.8094999999994 268.75202061084275 187.6585C239.81507061084272 187.45049999999992 208.88322061084273 190.44700000000034 183.44177061084275 173.66899999999987C173.25482061084273 146.3104999999996 174.75982061084272 114.72750000000019 161.35177061084272 88.92550000000028C138.24802061084273 88.03800000000024 114.34277061084272 86.56749999999988 105.5420206108427 62.835999999999785C78.25667061084269 57.213500000000295 51.187670610842716 49.30250000000001 23.365270610842703 44.96999999999957C10.843120610842707 39.737499999999955 1.6969706108427118 39.05599999999936 4.401370610842701 55.32249999999976C6.025170610842707 76.71500000000037 -12.397529389157285 108.29499999999939 15.932520610842715 117.53950000000032C29.433020610842693 133.99 26.30732061084272 161.33500000000026 45.3798206108427 177.4599999999998C51.21692061084269 185.85399999999936 55.7249206108427 196.51399999999967 67.8896706108427 194.1229999999996C87.5764206108427 196.28900000000044 119.61892061084272 199.55799999999954 119.37772061084273 225.24649999999951C116.78907061084273 237.81200000000013 124.15537061084271 243.55050000000006 135.4256206108427 246.61050000000046C155.97892061084272 255.9744999999998 176.53207061084274 265.3380000000004 197.0853206108427 274.7014999999999C201.86007061084274 298.95149999999944 198.91267061084272 324.0739999999994 204.22372061084275 348.1079999999997C222.77952061084272 365.73099999999954 248.2283206108427 373.6099999999999 273.1122206108427 383.31800000000044C287.24862061084275 390.4385000000002 300.11817061084275 401.60949999999957 314.4110706108427 407.5165000000004C330.78247061084267 407.5980000000004 348.78852061084274 401.16899999999987 363.8898256108427 408.6754999999994C361.84887061084277 437.26249999999936 397.18567561084274 436.62450000000035 413.80842561084273 453.69249999999965C425.6891756108427 460.85399999999936 436.80507561084266 470.2359999999999 449.14262561084274 476.07200000000034C473.5444256108427 478.5194999999999 498.4189756108427 478.50400000000036 522.2905256108427 484.43199999999933C528.7568756108427 509.24800000000005 524.7576256108428 535.8119999999997 525.8484756108427 561.4104999999995C557.2952756108427 559.5185000000004 588.7600256108427 557.7430000000004 620.2755756108427 557.7075000000002z">
      <title id="t565">Deuxième circonscription de la Nouvelle-Calédonie</title>
      <desc id="d565">Communes de Belep, Bouloupari, Bourail, Canala, Dumbéa, Farino, Hienghène, Houaïlou, Kaala-Gomen, Koné, Kouaoua, Koumac, La Foa, Moindou, Le Mont-Dore, Ouégoa, Païta, Poindimié, Ponérihouen, Pouebo, Pouembout, Poum, Poya, Sarraméa, Thio, Touho, Voh, Yaté</desc>
    </path></svg>